<?xml version="1.0" encoding="UTF-8" standalone="no"?><!-- Generator: Gravit.io --><svg xmlns="http://www.w3.org/2000/svg" xmlns:xlink="http://www.w3.org/1999/xlink" style="isolation:isolate" viewBox="0 0 615 276.989" width="615pt" height="276.989pt"><defs><clipPath id="_clipPath_KqficN4aJJcXzcyS7FeBtOgaatEbT7qw"><rect x="0" y="0" width="615" height="276.989"/></clipPath></defs><g clip-path="url(#_clipPath_KqficN4aJJcXzcyS7FeBtOgaatEbT7qw)"><g><path d=" M 154.694 106.399 L 66.734 97.895 L 18.284 105.751 L 16.935 116.58 L 155.635 117.398 L 154.694 106.399 Z " fill="rgb(152,0,0)"/><path d=" M 231.037 186.436 L 225.027 156.116 L 259.146 152.671 L 260.038 182.38 L 231.037 186.436 Z " fill="rgb(152,0,0)"/><path d=" M 546.535 172.554 L 579.942 175.652 L 590.312 207.592 L 593.008 207.384 L 591.349 236.627 L 583.053 220.036 C 576.212 230.839 571.992 240.521 570.402 249.071 L 557.336 242.642 C 555.625 227.361 548.984 208.906 537.425 187.267 L 546.535 172.554 Z " fill="rgb(152,0,0)"/><path d=" M 594.356 259.415 L 607.007 267.504 L 601.822 270.615 L 569.676 273.933 L 558.061 273.311 L 558.891 265.637 L 571.128 265.845 C 582.337 265.077 590.076 262.938 594.356 259.415 Z " fill="rgb(152,0,0)"/><path d=" M 386.71 23.349 C 410.132 -1.173 434.98 40.511 380.602 56.318 C 335.571 21.715 373.167 -5.922 386.71 23.349 Z " fill="rgb(152,0,0)"/></g><path d=" M 558.155 243.045 C 551.446 273.649 495.758 284.816 461.465 257.089 L 486.288 224.43 C 496.582 236.108 521.098 235.426 515.01 223.913 C 508.412 211.436 484.039 217.722 469.833 201.892 C 437.774 166.17 510.615 124.232 557.757 173.595 L 546.535 172.554 L 537.425 187.267 C 538.898 190.025 540.292 192.731 541.605 195.385 L 535.993 201.892 C 516.06 182.586 492.968 188.065 506.363 199.591 C 514.391 206.498 538.849 206.893 550.817 216.707 C 554.3 226.198 556.461 234.834 557.336 242.642 L 558.155 243.045 Z " fill="rgb(0,0,0)"/><path d=" M 442.191 236.059 L 443.247 221.591 L 421.288 228.095 L 417.342 210.702 L 466.838 209.183 L 474.054 269.606 L 439.387 274.491 L 440.134 264.244 C 418.274 280.025 379.27 275.459 366.717 236.921 C 348.383 180.636 407.304 139.055 458.269 157.785 L 436.108 200.375 C 425.815 188.696 406.371 197.764 406.371 210.629 C 406.371 240.222 427.843 245.563 442.191 236.059 Z " fill="rgb(0,0,0)"/><path d=" M 366.009 260.278 L 366.009 260.278 L 327.719 270.864 L 300.487 217.84 L 301.509 267.635 L 277.296 269.606 L 272.108 162.584 L 272.108 162.584 L 272.108 162.584 L 315.867 153.38 L 337.746 200.023 L 335.004 154.406 L 366.009 154.453 L 366.009 260.278 L 366.009 260.278 Z " fill="rgb(0,0,0)"/><path d=" M 231.037 186.436 L 225.027 156.116 L 259.146 152.671 L 260.038 182.38 L 231.037 186.436 L 231.037 186.436 Z  M 223.47 197.169 L 213.777 148.335 L 268.193 142.833 L 269.631 190.713 L 223.47 197.169 L 223.47 197.169 Z  M 270.244 203.665 L 222.716 200.302 L 227.829 270.864 L 266.139 270.285 L 270.244 203.665 Z " fill-rule="evenodd" fill="rgb(0,0,0)"/><path d=" M 182.598 229.308 L 163.303 232.888 L 163.303 267.332 L 121.259 270.014 L 111.212 158.602 L 163.303 150.036 L 163.303 195.8 L 179.927 194.394 L 176.533 150.036 L 212.409 150.036 L 212.409 265.971 L 185.507 267.332 L 182.598 229.308 Z " fill="rgb(0,0,0)"/><path d=" M 119.253 174.022 L 86.191 169.312 L 93.498 263.255 L 33.648 267.552 L 32.938 173.819 L 0 177.568 L 0 154.322 L 122.68 152.332 L 119.253 174.022 Z " fill="rgb(0,0,0)"/><path d=" M 583.649 83.309 L 584.055 75.611 L 570.274 79.946 L 566.328 62.553 L 607.785 62.553 L 615 127.848 L 581.473 124.555 L 581.716 119.935 C 561.418 135.659 526.216 130.93 511.185 92.661 C 489.497 37.445 548.25 -5.206 599.215 13.525 L 577.054 56.114 C 566.761 44.436 547.282 53.504 547.317 66.369 C 547.393 94.536 574.094 96.201 583.649 83.309 Z " fill="rgb(0,0,0)"/><path d=" M 513.174 117.513 L 474.884 126.464 L 443.83 69.379 L 444.705 122.441 L 423.919 122.646 L 415.714 17.694 L 415.714 17.694 L 415.714 17.694 L 459.473 8.489 L 480.208 50.584 L 476.991 8.489 L 509.615 12.35 L 513.174 117.513 Z " fill="rgb(0,0,0)"/><path d=" M 375.304 64.392 L 368.44 64.708 L 371.945 123.887 L 408.995 125.786 L 420.28 62.327 L 388.143 63.803 C 451.376 39.327 417.41 -13.112 388.578 11.858 L 388.578 11.858 C 368.508 -20.955 318.434 20.143 375.304 64.392 Z  M 386.71 23.349 C 410.132 -1.173 434.98 40.511 380.602 56.318 C 335.571 21.715 373.167 -5.922 386.71 23.349 L 386.71 23.349 Z " fill-rule="evenodd" fill="rgb(0,0,0)"/><path d=" M 321.048 74.231 L 316.203 8.489 L 260.302 17.694 L 293.166 125.786 L 315.939 124.324 L 332.897 125.786 L 359.118 25.021 C 359.018 21.567 359.879 18.621 361.378 16.336 L 362.415 12.35 L 337.593 3.784 L 321.048 74.231 Z " fill="rgb(0,0,0)"/><path d=" M 264.401 8.542 L 205.939 16.841 L 215.963 122.171 L 254.354 124.769 L 264.401 8.542 Z " fill="rgb(0,0,0)"/><path d=" M 121.786 117.198 L 122.138 121.719 L 209.005 121.719 L 209.005 98.473 L 176.067 102.222 L 175.357 8.489 L 113.68 12.989 L 115.614 37.854 Q 125.78 39.261 158.07 48.95 C 160.581 69.522 159.357 88.671 154.372 106.368 L 154.694 106.399 L 155.635 117.398 L 121.786 117.198 Z " fill="rgb(0,0,0)"/><g><path d=" M 116.568 129.987 C 117.076 134.073 118.884 137.175 121.091 137.533 L 121.091 137.533 L 90.508 137.533 Q 89.597 136.825 88.718 135.714 L 87.114 135.747 Q 86.532 136.757 85.627 137.533 L 85.627 137.533 L 63.067 137.533 L 63.067 137.533 Q 61.35 136.32 60.5 133.568 Q 59.093 136.386 57.163 137.533 L 46.362 137.533 C 42.257 135.99 39.729 133.484 38.785 130.023 L 27.216 128.747 C 27.697 126.279 27.936 123.197 27.939 119.509 L 14.734 116.58 C 18.787 99.615 21.191 91.054 20.969 85.158 C 22.19 87.742 20.965 95.72 18.284 114.848 L 65.912 109.801 L 154.795 116.809 L 157.188 119.238 L 145.505 120.767 L 146.65 132.783 L 138.729 132.602 Q 138.591 133.108 138.442 133.568 L 138.442 133.568 L 138.442 133.568 C 137.828 135.475 137.084 136.797 136.211 137.533 L 133.135 137.533 L 133.135 137.533 C 134.941 137.217 136.447 134.765 137.028 131.435 L 128.352 130.821 C 128.847 134.46 130.425 137.198 132.34 137.533 L 121.947 137.533 C 124.027 137.196 125.753 134.42 126.37 130.68 L 116.568 129.987 Z  M 87.228 127.91 L 87.228 127.91 C 86.781 132.304 84.495 135.654 81.746 135.654 C 78.837 135.654 76.447 131.901 76.206 127.13 L 87.228 127.91 Z  M 102.687 129.004 L 102.687 129.004 C 102.13 133.165 99.911 136.278 97.261 136.278 C 94.449 136.278 92.122 132.773 91.751 128.23 L 102.687 129.004 Z " fill-rule="evenodd" fill="rgb(0,0,0)"/><path d=" M 5.952 81.203 L 10.382 73.347 L 8.49 71.349 L 5.171 77.053 C 0.825 72.733 1.649 67.658 5.1 66.914 C 7.285 66.443 17.7 57.72 38.785 40.201 C 75.205 34.132 114.421 37.157 156.423 49.269 C 159.368 71.482 157.922 93.036 152.356 106.631 L 153.082 116.782 L 157.197 119.238 L 155.544 107.045 C 161.903 91.889 163.526 68.892 158.967 47.514 C 119.64 33.737 78.546 31.194 37.44 38.004 C 20.809 51.851 2.856 64.835 2.195 65.37 C 0.804 66.494 -3.513 73.065 5.952 81.203 Z " fill="rgb(0,0,0)"/><path d=" M 75.819 40.201 C 62.425 49.392 55.73 56.596 51.852 61.799 C 45.33 55.596 -4.799 58.011 5.742 69.8 C 7.236 71.47 16.469 80.359 20.663 93.447 L 21.067 90.112 C 19.649 83.026 9.78 70.783 8.49 69.8 C 0.154 63.447 37.237 55.958 52.456 65.621 C 59.843 55.993 67.251 46.838 77.031 40.785 C 86.561 39.309 97.894 39.311 111.023 40.785 C 97.409 38.892 85.677 38.699 75.819 40.201 Z " fill="rgb(0,0,0)"/><path d=" M 18.776 105.357 C 31.792 101.399 47.46 98.438 66.879 96.468 L 154.502 106.358 L 154.502 108.011 L 66.879 99.368 C 47.704 101.052 31.708 103.729 17.781 107.389 L 18.776 105.357 Z " fill="rgb(0,0,0)"/><path d=" M 30.926 96.943 C 34.931 95.898 40.181 94.978 46.489 94.37 L 46.489 94.37 L 48.193 79.403 L 34.603 64.214 C 30.121 64.072 26.083 64.448 22.838 65.244 L 32.11 80.534 L 30.926 96.943 Z  M 28.539 97.626 C 26.738 98.192 25.284 98.782 24.203 99.368 L 25.441 84.162 L 15.226 69.666 C 16.079 68.074 18.049 66.765 20.823 65.826 L 30.1 81.203 L 28.539 97.626 Z  M 49.923 94.079 C 52.556 93.885 55.348 93.744 58.288 93.669 L 58.288 80.481 L 47.105 65.827 C 43.941 65.119 40.834 64.653 37.871 64.404 L 50.676 79.854 L 49.923 94.079 L 49.923 94.079 Z " fill-rule="evenodd" fill="rgb(0,0,0)"/><path d=" M 133.911 48.84 C 128.453 47.509 122.991 46.461 117.523 45.694 L 117.523 45.694 C 122.48 66.465 122.851 83.655 118.625 97.255 L 131.587 98.892 C 135.447 88.398 136.224 71.716 133.911 48.84 Z  M 139.748 50.369 C 143.729 51.487 147.708 52.754 151.684 54.171 C 153.729 71.923 152.997 89.178 148.337 101.008 L 136.167 99.471 C 140.753 88.572 141.943 72.201 139.748 50.369 Z  M 112.534 45.062 C 105.72 44.319 98.898 44.009 92.069 44.136 L 92.069 44.136 C 100.133 60.714 102.65 77.624 99.611 94.854 L 113.645 96.626 C 118.331 82.865 117.966 65.681 112.534 45.062 L 112.534 45.062 Z  M 87.379 44.842 C 80.202 47.94 73.9 51.856 68.468 56.596 L 78.896 76.239 L 77.031 92.002 L 94.097 94.158 C 94.712 85.046 94.87 77.155 94.566 70.478 L 87.379 44.842 L 87.379 44.842 L 87.379 44.842 Z " fill-rule="evenodd" fill="rgb(0,0,0)"/><path d=" M 57.157 62.732 L 68.064 80 L 66.734 105.751 L 66.352 80.26 L 57.157 62.732 Z " fill="rgb(0,0,0)"/><path d=" M 4.926 65.22 L 1.882 68.019 L 1.145 70.965 L 3.895 78.036 L 5.467 78.93 L 9.183 72.094 L 4.926 65.22 Z " fill="rgb(0,0,0)"/><path d=" M 46.362 137.533 L 22.532 140.424 L 181.533 140.424 L 137.177 136.278 L 134.405 137.533 L 46.362 137.533 Z " fill="rgb(0,0,0)"/><path d=" M 60.5 57.596 C 60.575 55.168 58.634 53.138 54.681 51.499 L 55.927 51.499 C 59.415 52.39 61.27 54.425 61.499 57.596 L 60.5 57.596 Z " fill="rgb(0,0,0)"/><path d=" M 62.719 56.388 C 62.796 53.817 60.824 51.667 56.811 49.932 L 57.813 49.572 Q 62.938 51.622 63.426 55.619 L 62.719 56.388 Z " fill="rgb(0,0,0)"/><path d=" M 63.995 80.267 L 70.268 78.93 L 67.232 80.534 L 70.634 80.481 L 63.628 81.551 L 67.232 80 L 63.995 80.267 Z " fill="rgb(0,0,0)"/></g><g><ellipse vector-effect="non-scaling-stroke" cx="572.4897149923086" cy="275.1414443999779" rx="40.49329257642762" ry="1.8477157764415324" fill="rgb(0,0,0)"/><path d=" M 556.968 275.141 C 561.255 250.38 554.461 221.205 536.598 187.607 L 545.283 170.001 C 558.513 173.055 570.261 174.402 580.548 174.02 L 591.815 206.308 L 588.059 206.308 L 578.044 177.424 C 568.995 177.297 558.485 175.885 546.535 173.168 L 538.606 187.607 C 555.4 217.1 562.63 246.282 560.307 275.141 L 556.968 275.141 Z " fill="rgb(0,0,0)"/><path d=" M 560.911 209.54 L 559.472 208.902 C 559.359 212.264 559.512 215.153 559.941 217.558 L 561.283 218.228 C 560.712 215.408 560.585 212.516 560.911 209.54 Z " fill="rgb(0,0,0)"/><path d=" M 560.307 213.194 C 570.13 209.852 581.673 206.934 594.945 204.43 L 591.815 256.71 L 609.552 266.876 L 597.241 275.141 L 593.902 275.141 L 605.145 267.448 L 588.059 257.866 L 591.815 208.304 C 581.912 208.722 571.405 211.26 560.307 215.907 L 560.307 213.194 Z " fill="rgb(0,0,0)"/><path d=" M 600.853 271.375 L 597.566 275.141 L 595.602 275.141 L 556.968 275.141 L 560.307 271.375 C 578.465 271.971 594.485 270.422 605.926 267.205 L 600.853 271.375 Z " fill="rgb(0,0,0)"/><path d=" M 559.472 203.1 C 559.697 195.971 555.381 185.425 546.535 171.451 L 545.283 173.168 C 551.382 182.344 556.108 192.325 559.472 203.1 Z " fill="rgb(0,0,0)"/><path d=" M 569.071 227.931 C 572.005 243.231 572.167 258.293 570.628 273.107 L 568.436 273.107 C 571.581 259.508 571.239 244.453 569.071 227.931 Z " fill="rgb(0,0,0)"/><path d=" M 591.815 237.673 C 589.762 230.484 586.906 224.006 583.26 218.228 C 575.555 229.268 570.987 239.012 570.628 247.452 L 558.012 242 L 558.012 244.311 L 571.158 250.807 C 573.481 238.862 577.691 228.986 583.26 221.714 C 586.609 226.161 589.457 232.927 591.815 242 L 591.815 237.673 Z " fill="rgb(0,0,0)"/><path d=" M 594.474 260.518 L 592.785 258.923 C 588.236 264.565 575.508 266.019 559.472 265.386 L 559.472 266.524 C 573.329 266.021 586.348 266.181 594.474 260.518 Z " fill="rgb(0,0,0)"/><path d=" M 585.641 231.803 C 585.739 230.042 585.072 228.57 584.152 228.519 C 583.232 228.468 582.405 229.856 582.307 231.617 C 582.209 233.379 582.876 234.85 583.796 234.901 C 584.716 234.953 585.543 233.564 585.641 231.803 Z " fill="rgb(0,0,0)"/></g></g></svg>