<?xml version="1.0" encoding="UTF-8" standalone="no"?><!-- Generator: Gravit.io --><svg xmlns="http://www.w3.org/2000/svg" xmlns:xlink="http://www.w3.org/1999/xlink" style="isolation:isolate" viewBox="0 0 936 109.736" width="936pt" height="109.736pt"><defs><clipPath id="_clipPath_KZDSv60fMhxlMaKjR15uMPEnQWGcMlg9"><rect x="0" y="0" width="936" height="109.736"/></clipPath></defs><g clip-path="url(#_clipPath_KZDSv60fMhxlMaKjR15uMPEnQWGcMlg9)"><path d=" M 98.091 10.441 C 123.515 -11.578 153.675 37.808 89.825 56.92 C 37.298 18.807 80.841 -17.762 98.091 10.441 Z  M 96.516 20.127 C 116.26 -0.544 137.206 34.594 91.367 47.918 C 53.409 18.749 85.1 -4.548 96.516 20.127 Z " fill-rule="evenodd" fill="rgb(0,0,0)"/><path d=" M 123.595 15.36 L 170.717 7.601 L 177.879 104.77 L 151.298 106.476 L 123.595 15.36 Z " fill="rgb(0,0,0)"/><path d=" M 164.996 104.77 L 184.789 106.476 L 209.671 10.855 L 188.748 3.634 L 164.996 104.77 Z " fill="rgb(0,0,0)"/><path d=" M 381.56 53.173 L 384.887 67.835 L 396.503 64.181 L 394.327 105.438 L 422.589 108.214 L 416.506 53.173 L 381.56 53.173 Z " fill="rgb(0,0,0)"/><path d=" M 390.602 47.746 L 409.283 11.845 C 366.322 -3.944 316.796 32.009 335.077 78.553 C 350.751 118.458 392.445 115.1 404.188 89.359 L 398.728 64.764 C 395.63 81.435 365.609 83.817 365.535 56.391 C 365.506 45.546 381.926 37.902 390.602 47.746 Z " fill="rgb(0,0,0)"/><path d=" M 812.265 55.965 L 815.592 70.626 L 834.102 65.144 L 830.848 109.736 L 860.071 105.619 L 853.989 54.685 L 812.265 55.965 Z " fill="rgb(0,0,0)"/><path d=" M 828.085 47.26 L 846.765 11.359 C 803.804 -4.43 754.137 30.621 769.591 78.067 C 782.686 118.268 829.927 114.614 841.67 88.872 L 838.712 72.246 C 827.75 86.29 803.017 85.063 803.017 55.904 C 803.017 45.059 819.408 37.415 828.085 47.26 Z " fill="rgb(0,0,0)"/><path d=" M 254.6 15.36 L 291.487 7.601 L 336.754 99.502 L 304.477 107.048 L 254.6 15.36 Z " fill="rgb(0,0,0)"/><path d=" M 254.6 15.36 L 277.654 19.742 L 279.038 103.657 L 261.516 103.829 L 254.6 15.36 Z " fill="rgb(0,0,0)"/><path d=" M 306.254 7.601 L 333.754 10.855 L 336.754 99.502 L 312.406 88.122 L 306.254 7.601 Z " fill="rgb(0,0,0)"/><path d=" M 689.84 15.404 L 726.727 7.645 L 768.994 97.756 L 736.718 106.679 L 689.84 15.404 Z " fill="rgb(0,0,0)"/><path d=" M 689.84 15.404 L 712.895 19.729 L 714.624 103.957 L 694.214 105.619 L 689.84 15.404 Z " fill="rgb(0,0,0)"/><path d=" M 742.858 8.51 L 768.994 8.55 L 768.994 97.756 L 747.647 88.167 L 742.858 8.51 Z " fill="rgb(0,0,0)"/><path d=" M 0 11.393 L 51.991 7.601 L 52.589 86.613 L 80.354 83.452 L 80.354 103.048 L 7.13 103.048 L 0 11.393 Z " fill="rgb(0,0,0)"/><path d=" M 560.991 25.045 L 533.121 21.076 L 539.281 100.265 L 488.83 103.887 L 488.232 24.874 L 460.466 28.035 L 460.466 8.44 L 563.88 6.762 L 560.991 25.045 Z " fill="rgb(0,0,0)"/><path d=" M 254.6 7.645 L 205.319 14.641 L 213.768 103.429 L 246.13 105.619 L 254.6 7.645 Z " fill="rgb(0,0,0)"/><path d=" M 554.213 12.048 L 598.123 4.826 L 598.123 103.702 L 562.682 105.962 L 554.213 12.048 Z " fill="rgb(0,0,0)"/><path d=" M 588.692 44.201 L 624.133 41.204 L 624.133 69.841 L 588.692 76.418 L 588.692 44.201 Z " fill="rgb(0,0,0)"/><path d=" M 81.116 54.99 L 124.814 52.983 L 115.302 106.476 L 84.07 104.875 L 81.116 54.99 Z " fill="rgb(0,0,0)"/><path d=" M 644.834 50.033 L 684.897 47.199 L 680.587 106.679 L 648.294 106.191 L 644.834 50.033 Z " fill="rgb(0,0,0)"/><path d=" M 645.74 41.9 L 643.35 0 L 689.42 1.76 L 685.03 41.9 L 645.74 41.9 Z  M 653.294 34.057 L 651.817 8.043 L 680.703 9.151 L 677.978 34.057 L 653.294 34.057 Z " fill-rule="evenodd" fill="rgb(0,0,0)"/><path d=" M 609.275 4.826 L 639.517 4.826 L 639.517 102.554 L 616.84 103.702 L 609.275 4.826 Z " fill="rgb(0,0,0)"/><path d=" M 874.599 68.38 L 853.674 95.91 C 887.866 123.555 947.291 105.332 933.779 68.38 C 928.334 53.489 899.732 54.507 891.521 47.442 C 880.229 37.726 899.695 33.108 916.498 49.382 L 936 26.768 C 896.311 -16.772 833.44 18.976 860.728 49.382 C 872.703 62.726 893.248 57.427 898.81 67.944 C 903.942 77.649 883.276 78.224 874.599 68.38 Z " fill="rgb(0,0,0)"/></g></svg>