<?xml version="1.0" encoding="UTF-8" standalone="no"?><!-- Generator: Gravit.io --><svg xmlns="http://www.w3.org/2000/svg" xmlns:xlink="http://www.w3.org/1999/xlink" style="isolation:isolate" viewBox="0 0 500 239.29" width="500pt" height="239.29pt"><defs><clipPath id="_clipPath_wZAvaDAoaKa9tT6vUGDTDemfP6ba0THi"><rect x="0" y="0" width="500" height="239.29"/></clipPath></defs><g clip-path="url(#_clipPath_wZAvaDAoaKa9tT6vUGDTDemfP6ba0THi)"><path d=" M 257.045 239.29 L 231.978 10.111 L 500 0 L 486.378 239.29 L 257.045 239.29 Z  M 268.783 220.849 L 252.009 27.716 L 471.795 16.655 L 460.521 215.14 L 268.783 220.849 Z " fill-rule="evenodd" fill="rgb(0,0,0)"/><path d=" M 140.576 60.297 C 247.09 -42.611 386.983 151.657 109.434 239.29 C -120.345 73.648 72.468 -71.095 140.576 60.297 Z  M 135.608 75.429 C 219.901 -8.567 329.161 148.499 110.307 220.849 C -69.831 87.414 82.576 -30.918 135.608 75.429 Z " fill-rule="evenodd" fill="rgb(0,0,0)"/><path d=" M 90.307 107.262 L 109.979 103.707 L 111.894 132.225 L 111.894 132.225 L 111.894 132.225 L 111.894 132.225 L 111.894 132.225 L 111.894 132.225 L 111.894 132.225 L 118.433 101.666 L 128.244 105.382 L 127.842 107.075 L 149.31 103.73 L 149.011 107.517 L 165.515 103.707 L 173.71 121.968 L 172.439 103.707 L 185.333 105.382 L 185.977 126.24 C 188.642 109.871 207.145 99.678 223.655 106.095 L 214.566 124.57 C 210.344 119.504 202.354 123.438 202.369 129.018 C 202.393 138.396 208.849 141.002 213.622 139.178 L 213.622 139.178 L 213.622 139.178 L 213.622 139.178 L 213.303 133.027 L 207.856 134.908 L 206.296 127.363 L 206.296 127.363 L 222.682 127.363 L 229.495 157.717 L 214.566 157.366 L 214.376 153.714 C 205.902 158.656 193.222 155.7 187.549 140.423 C 187.006 138.961 186.586 137.52 186.281 136.103 L 186.74 151 L 186.74 151 L 186.74 151 L 186.74 151 L 186.74 151 L 171.606 154.883 L 159.332 130.121 L 159.332 130.121 L 159.678 153.138 L 151.463 153.227 L 148.589 112.883 L 148.589 112.883 L 148.589 112.883 L 145.338 154.148 L 130.165 153.021 L 126.626 112.207 L 116.577 154.589 L 109.874 153.955 L 100.873 154.589 L 90.866 118.464 C 88.808 121.933 84.748 124.296 80.081 124.296 C 73.336 124.296 67.861 119.363 67.861 113.288 C 67.861 107.212 73.336 102.28 80.081 102.28 C 84.357 102.28 88.123 104.263 90.307 107.262 Z  M 29.754 106.597 L 54.31 103.707 L 54.591 144.368 L 67.609 142.741 L 67.609 152.825 L 37.715 152.825 L 29.754 106.597 L 29.754 106.597 L 29.754 106.597 L 29.754 106.597 Z  M 67.966 126.356 L 88.456 125.256 L 83.996 154.589 L 69.351 153.711 L 67.966 126.356 L 67.966 126.356 Z " fill-rule="evenodd" fill="rgb(0,0,0)"/><path d=" M 437.645 150.645 L 437.918 153.534 L 425.321 155.654 L 425.574 151.224 C 417.627 158.051 403.472 156.061 398.914 139.356 C 398.823 139.023 398.737 138.691 398.657 138.36 L 398.657 149.488 L 398.657 149.488 L 398.657 149.488 L 398.657 149.488 L 398.657 149.488 L 398.657 149.488 L 384.743 154.08 L 374.848 131.079 L 374.848 131.079 L 375.219 152.679 L 366.421 153.534 L 365.002 118.608 L 365.002 118.608 L 365.002 118.608 C 363.339 122.013 359.694 124.379 355.468 124.379 C 349.676 124.379 344.974 119.935 344.974 114.461 C 344.974 108.988 349.676 104.544 355.468 104.544 C 359.408 104.544 362.843 106.6 364.638 109.637 L 364.535 107.11 L 364.535 107.11 L 364.535 107.11 L 364.535 107.11 L 380.437 103.117 L 388.387 123.35 L 387.39 103.562 L 398.657 103.583 L 398.657 122.7 C 402.673 107.614 418.246 98.914 432.182 105.028 L 424.129 123.503 C 420.389 118.437 413.323 122.37 413.323 127.951 C 413.323 140.733 421.059 143.085 426.272 139.035 L 426.272 139.035 L 426.272 139.035 L 426.723 131.162 L 418.744 133.983 L 417.31 126.439 L 435.296 125.78 L 437.151 145.412 L 444.18 134.371 C 447.921 139.437 456.83 139.141 454.617 134.147 C 452.22 128.735 443.363 131.462 438.201 124.595 C 426.438 108.948 453.54 90.552 470.649 112.957 L 462.242 124.595 C 454.999 116.22 446.608 118.597 451.475 123.596 C 455.015 127.232 467.344 126.708 469.692 134.371 C 475.201 152.357 452.583 161.72 437.645 150.645 Z  M 331.039 120.908 L 324.998 121.518 L 324.998 101.666 L 309.978 104.615 L 309.978 104.615 L 309.978 104.615 L 310.237 102.662 L 265.658 103.526 L 265.658 113.609 L 277.627 111.983 L 277.885 152.643 L 299.633 150.779 L 296.977 110.028 L 306.543 111.655 L 309.721 153.711 L 324.998 152.548 L 324.998 137.607 L 324.998 137.607 L 324.998 137.607 L 324.998 137.607 L 332.01 136.054 L 333.067 152.548 L 342.842 151.958 L 342.842 101.666 L 329.806 101.666 L 331.039 120.908 L 331.039 120.908 Z  M 346.033 126.493 L 361.753 125.78 L 360.036 154.08 L 347.164 153.848 L 346.033 126.493 L 346.033 126.493 L 346.033 126.493 L 346.033 126.493 Z " fill-rule="evenodd" fill="rgb(0,0,0)"/></g></svg>