<svg x="0" y="0" width="1312" height="1829" viewBox="0 0 1312 1829" version="1.1" xmlns="http://www.w3.org/2000/svg" style="display: block;margin-left: auto;margin-right: auto;">
<defs>
<clipPath id="c_1"><path d="M0,0H1312V1829H0Z"/></clipPath>
<style>

.g0{fill:#8AB4F8;}

</style>

</defs>
<path d="M0 0V1829H1312V0Z" fill="#FFFFFF" stroke="none"/>
<g clip-path="url(#c_1)">
<path d="M332.2 74.3l.1 .5l-.1 .6l-.2 .5l-1.9 1.3l-1 2.7l-2.9 12l-4 21L319.3 132l-2.9 24.1l-1.8 19.7l-1.4 19.7l-1 20.7l-.5 23.5l.1 21.5l.7 20.9l1.4 21.7l1.7 18.4l2.1 16.6l2.6 14.7l2.5 12l2.2 9.4l1.8 6.9l2.4 7.7l.1 .5l-.1 .6l-.3 .4l-.5 .4l-.5 .2h-.5l-.6-.3l-.4-.3l-.3-.5l-2.4-7.8l-1.9-7l-2.2-9.4l-2.5-12.2l-2.6-14.7l-2.1-16.9L310.6 304l-1.3-21.7l-.7-21.1l-.1-21.6l.5-23.5l1-20.8l1.3-19.8l1.9-19.8l2.9-24.1l3.7-23.9L323 91.2L326 79l1.2-3.5l.7-.8l2.4-1.4h.6l.5 .1l.5 .4Z" class="g0"/>
<path d="M327.9 75.5l-.2-.5l.1-.6l.2-.5l.4-.4l2.1-1.6l.4-.2l7.6-2.3l9.2-2.5l8.5-2.1l4.9-1.1l9.4-1.9l12.3-2.1l11-1.7l7-.9l7.1-.8l7.3-.7l12.7-.8l7.8-.4l7.6-.2l12.5-.2l7.3 .1l7.1 .2l6.9 .3l10.9 1l6.3 .7l5.9 .7l5.5 .9l8.7 1.7l7 1.6l5.3 1.5l3.9 1.2l3.7 1.3l.5 .3l.4 .5l.2 .5v.6l-.2 .5l-.4 .4l-.5 .3l-.6 .1l-.5-.1L529.6 67l-3.8-1.2l-5.2-1.4l-6.9-1.6l-8.6-1.7l-5.4-.8l-5.8-.8l-6.2-.7l-10.8-.9l-6.9-.3l-7-.2l-7.2-.1l-12.4 .1l-7.6 .3l-7.7 .4l-12.7 .8l-7.2 .7l-7.1 .8l-6.9 .9l-10.8 1.6l-12.3 2.2l-9.4 1.8L356.9 68l-8.4 2.1l-9.1 2.4l-7.2 2.2l-1.9 1.4l-.5 .3h-.6l-.5-.1l-.5-.3Z" class="g0"/>
<path d="M377.6 177.2l.5 .3l.4 .5l.1 .5l-.6 3.8l-1.9 20l-2.2 26l-1 16.8l-.4 18.7l.6 19.4l1 12.5l.7 6.6l1.7 11.5l1.6 9.8l2.8 13.9l2.2 8.3l.1 .6l-.2 .6l-.3 .5l-.5 .3l-.5 .1h-.6l-.5-.2l-.4-.4l-.3-.6l-2.2-8.5l-2.8-14l-1.7-9.9l-1.6-11.6l-.8-6.7l-1-12.5l-.6-19.6l.4-18.9l1-16.9l2.2-26.1l1.9-20.2l.9-3.9l.4-.5l.5-.2l.5-.1Z" class="g0"/>
<path d="M380.4 344.5l.4-.4l.5-.2h.6l.6 .2l1.2 .6l1.7 .5l6.7 1.4l4.3 .6l8.1 .7l14.7 .7l12.5 .3l10.4-.1l21.4-.6L485 347l20.2-1.6l9.8-1.1l14.1-2l12.5-2.3l.6-.1l.6 .2l.5 .4l.3 .5l.1 .6l-.1 .5l-.2 .6l-.5 .4l-.5 .2l-12.8 2.4l-14.2 2l-9.9 1.1l-20.3 1.6l-21.6 1.2l-21.4 .6l-10.5 .1l-12.6-.3l-14.9-.7l-8.1-.7l-4.5-.7l-7-1.4l-2-.6l-1.7-.8l-.5-.4l-.3-.5l-.1-.6l.1-.6Z" class="g0"/>
<path d="M349.4 50.3l.5 .1l.5 .3l.4 .4l.2 .6l.2 1.5v2.9l-.3 1.6l-.7 3.1l-.7 2l-.7 1.5l-1.9 3.4l-1.4 1.9l-.4 .4l-.5 .2H344l-.5-.1l-.5-.4l-.3-.5l-.1-.5l.1-.6l2.5-4.1l1.2-2.5l.7-1.8l.3-1.2l.5-2.7l.1-1.3l-.1-1.1l-.2-1.2v-.6l.2-.5l.4-.4l.5-.3Z" class="g0"/>
<path d="M351.6 51.8l-.1 .6l-.3 .5l-.4 .4l-.5 .2l-1.3 .3h-.6l-.6-.2l-.5-.4l-.2-.6L347 52l.2-.6l.4-.5l1.2-1l.5-.2l6.7-2.4l8.6-2.5l10.2-2.6l9.3-1.9l5.1-1l15.6-2.4l17-2.1l12.9-1.2l6.5-.4l10.7-.5l6.4-.2h10.2l6 .1l5.7 .2l5.5 .3l5.2 .5l7.8 1l4.4 .7l6.9 1.4l5.4 1.4l4.2 1.3l3 1l2.9 1.2l.4 .4l.4 .4l.1 .6v.5l-.3 .6l-.4 .4l-.5 .2l-.5 .1l-.6-.2l-2.7-1.1l-2.8-1l-4.1-1.3l-5.3-1.3l-6.7-1.4l-4.3-.7l-7.7-1l-5.1-.4l-5.3-.3l-5.7-.2l-5.9-.1H458.3l-6.3 .1l-10.7 .5l-6.3 .5l-12.8 1.2l-17 2l-15.4 2.4l-5.1 1l-9.2 1.9l-10.1 2.5L357 50.4l-6.3 2.2l-1.1-2.3h.5l.6 .1l.4 .4l.3 .5Z" class="g0"/>
<path d="M524.3 41.5l.5 .2l.4 .5l.2 .5l.1 .5l-.4 4.7v3.6l.2 4.2l1 6.8v.6l-.2 .5l-.4 .5l-.5 .3l-.5 .1l-.6-.1l-.5-.3l-.4-.4l-.2-.6l-.3-2.2l-.6-4.9l-.3-4.4V47.8l.4-4.9l.2-.6l.3-.4l.5-.3l.5-.2Z" class="g0"/>
<path d="M494 217.8v-.4l.1-.5l.3-.3l2.4-1l6.3-1.5l7.2-1.4l6.4-1l6.9-.8l6.9-.4l10.8-.1l5.1 .4l4.6 .7l2.8 .7l2.2 .6l1.9 .7l2.4 1.2l1.2 .8l.3 .3l.3 .4v.5l-.1 .4l-.3 .4l-.4 .3l-.4 .1h-.5l-1.5-.9l-2.1-1.1l-1.7-.5l-4.7-1.2l-4.4-.7l-4.9-.4l-10.5 .1l-6.8 .4l-6.8 .8l-6.3 1l-7.1 1.4l-4 .9l-4.3 1.3l-.5-.1l-.4-.3l-.3-.3Z" class="g0"/>
<path d="M560.3 214.8h.6l.5 .3l.4 .3l.9 2.6l1.1 4.7l.9 6.4l.7 10.9l-.1 11.5l-1 12.9L562.7 277l-1.2 6.4l-2.2 9.8l-1.7 6.2l-1 3.2l-.3 .5l-.4 .4l-.5 .2h-.5l-.5-.2l-.5-.3l-.2-.5l-.1-.5l1.1-3.8l1.6-6l2.2-9.6l1.1-6.3l1.9-15.8l.8-12.5l-.2-12.7l-.9-9.3l-1-5.1l-1.2-4.8l.1-.5l.3-.5l.4-.3Z" class="g0"/>
<path d="M541.3 232.6l.6 .2l.4 .4l.2 .5l-.2 8.8l-.9 8.1l-.8 5l-1.2 5.4l-3.5 12.5l-6.8 19.7l-3.5 8.6l-1.3 3.1l-1 1.7l-.5 .3l-.5 .1l-.6-.1l-.5-.2l-.4-.4l-.2-.5v-.6l2.1-4.7l3.4-8.4l6.6-19.6l3.5-12.3l1.2-5.3l.8-4.8l.5-4.2l.8-12.3l.3-.5l.4-.4l.6-.1Z" class="g0"/>
<path d="M520.1 302.6l.5-.2l.5-.2l.5 .1l2.1 1.5l1.9 .5l2.3 .1l5.3-.2l7.5-.8l12.9-2.4l.5-.1l.6 .2l.4 .3l.3 .5l.1 .5l-.1 .5l-.2 .5l-.4 .4l-.5 .2l-13.1 2.5l-7.8 .8l-5.5 .2l-2.6-.2l-2.6-.5l-.6-.3l-2.2-1.9l-.2-.5l-.1-.5l.2-.5Z" class="g0"/>
<path d="M314.7 342l.3 .5l.2 .5l-.1 .6l-1.7 2.6l-1.7 1.7l-1.9 1.5l-2.5 1.5l-2.2 .9l-2.7 1l-3 .7l-3.4 .6l-4.3 .4l-6.8 .1l-7.8-.7l-8.7-1.4l-3.3-.7L255 349.2l-10.9-3.3l-11.4-4.1l-11.8-4.7l-11.6-5.7l-7.2-4.1l-3.9-2.4l-6.8-4.8l-3.5-2.8l-6-5.4l-3.2-3.2l-4.9-6l-2.6-3.4l-3.9-6.6l-1.9-3.8l-2.6-7l-1.2-4l-1.2-7.3l-.4-4.2l.2-7.4l.4-4.1l.7-4.1l.8-3.9l.9-3.3l1.3-3.8l1.5-3.7l1.4-3.1l1.9-3.5l3.9-6.3l2.4-3.2l4.7-5.5l2.7-2.8l5.3-4.7l3-2.3l5.6-3.8l3.2-1.7l5.7-2.6l3.1-1.1l5.7-1.5l3-.5l2.9-.2h2.5l2.7 .2l2.8 .5l4.6 1.6l2.4 1.3l3.9 3l2 2l1.8 2.3l2.7 5l1.4 3.1l1.8 6.1l.9 3.6l.9 6.7l.3 3.8l.1 6.9l-.2 3.9L250 250l-.6 3.7l-1.8 6.3l-1.1 3.4l-2.5 5.5l-1.5 3l-3.2 4.4l-2 2.4l-3.8 3.3l-2.4 1.6l-4.3 2l-2.6 .9l-4.7 .5l-2.7 .1l-4.9-.8l-2.8-.8l-5-2.1l-2.8-1.5l-5-3.4l-5.5-4.3l-7.9-6.9l-16.6-16.7l-5.8-5.5l-6.6-5.8L151 237l-3.5-2.5l-3.6-2.3l-3.1-1.8l-3.8-1.9l-3.9-1.6l-3.3-1.1l-4.1-1.1l-4.1-.8l-3.5-.5l-4.3-.2l-4.4 .1l-3.7 .3l-4.4 .7l-4.4 1l-3.7 1.1L88.8 228l-4.3 2l-3.6 1.9l-4.2 2.5l-4.1 2.8l-3.4 2.6l-3.9 3.3l-3.7 3.5l-3.5 3.7l-5.8 7.8l-2.4 3.5l-2.6 4.3L45 270.2l-1.8 4.2L41 282.1l-.7 3.9l.2 6.7l.5 3.2l2.4 5.1l3.3 4.3l3.5 3.2l3.3 2.3l2.8 1.6l2.2 .9l2.7 .6l.2-.6l.4-.4l.4-.4l.6-.1l.6 .1l.5 .2l1 1.4l.2 .6v.6l-.2 .6l-.4 .4l-.6 .3l-2.1 .6H61l-3.3-.7L55 315.4l-3.2-1.7l-3.6-2.6l-3.9-3.5l-3.6-4.7l-2.8-5.8l-.7-4l-.2-7.2l.8-4.5l2.2-8l2.1-4.6l2.3-4.4l2.7-4.5l2.5-3.7l5.9-7.9l3.7-4l3.9-3.6l4-3.5l3.5-2.6l4.3-2.9l4.4-2.7l3.7-1.9l4.5-2.1l4.6-1.7l3.9-1.2l4.6-1l4.7-.8l3.9-.3l4.6-.1l4.5 .2l3.8 .5l4.3 .9l4.3 1.1l3.6 1.2l4 1.7l4 2l3.3 1.8l3.7 2.5l3.7 2.6l2.9 2.3l6.8 5.9l5.9 5.7l16.6 16.6l7.7 6.8l5.3 4.1l4.9 3.3l2.5 1.3l4.7 2.1l2.4 .6l4.4 .7h2.3l4.2-.6l2.1-.7l3.9-1.8l1.9-1.3l3.6-3.1l1.6-2l3-4.3l1.4-2.6l2.4-5.3l1-3.1l1.7-6.1l.6-3.4l.8-6.6l.2-3.6v-6.7l-.4-3.6l-.9-6.5l-.8-3.3l-1.7-5.9l-1.3-2.7l-2.5-4.7l-1.5-1.9l-1.7-1.7l-3.5-2.7l-2-1l-4.1-1.4l-2.4-.4l-2.4-.2h-2.2l-2.7 .2l-2.7 .4l-5.3 1.4l-2.9 1.1l-5.5 2.5l-2.9 1.6l-5.4 3.5l-2.9 2.2l-5 4.5l-2.6 2.7L178 222l-2.3 3.1l-3.8 6l-1.8 3.4l-1.3 2.9l-1.4 3.6l-1.3 3.6l-.8 3.1l-.8 3.8l-.6 3.8l-.4 3.9l-.2 7.2l.3 3.8l1.2 7.1l1.1 3.6l2.5 6.8l1.8 3.5l3.7 6.3l2.5 3.2l4.8 5.9l3 2.9l5.8 5.3l3.4 2.6l6.6 4.7l3.8 2.4l7.1 4.1l11.4 5.5l11.6 4.7l11.3 3.9l10.7 3.4l10 2.5l3.2 .7l8.4 1.4l7.5 .6h6.6l4-.4l3.2-.6l2.7-.7l2.5-.9l1.8-.8l2.2-1.3l1.6-1.2l1.3-1.4l1.7-2.2l.5-.2l.6-.1l.5 .2Z" class="g0"/>
<path d="M352.7 81.7l.4 .4l.1 .5l-1.6 10.3L350 105.2l-1.3 11.4l-1.1 10.1l-1 10.8l-1.1 12l-.6 7.2l-.6 7.5l-.4 6.4l-.6 8l-.5 8.2l-.3 7l-.4 8.4l-.4 8.6l-.2 7.1l-.2 8.5l-.2 8.4l-.1 6.9l-.1 8.2v7.9l.1 6.4l.1 7.4l.3 12.7l.6 12.4l.6 10.1l.8 8.9l1.6 11.9l1.1 5.7l2.1 8.2l1.8 4.9v.6l-.4 .4l-.2 .1h-.6l-.4-.5l-1.8-5l-2.1-8.4l-1.1-5.7l-1.6-12L341 307l-.7-10.2l-.5-12.5l-.4-12.7l-.1-7.4V249.9l.1-8.2l.1-6.9l.1-8.4l.3-8.6l.2-7.1l.3-8.5l.4-8.5l.4-7l.5-8.2l.5-8l.5-6.4l.6-7.5l.6-7.2l1.1-12.1l1-10.8l1.1-10.1l1.3-11.4L350 92.7l1.6-10.4l.3-.5l.5-.1Z" class="g0"/>
<path d="M328.2 273.6l.3-.5l.6-.2l2.5 .2l6.5-1l3.3-.7l.6 .1l.4 .4v.3l-.1 .5l-.5 .3l-6.3 1.3l-3.7 .4l-2.8-.1l-.5-.2l-.3-.5Z" class="g0"/>
<path d="M327.3 279l.2-.6l.5-.3l2.4-.5H341l10.7 .6l.5 .3l.2 .5v.3l-.3 .4l-.6 .2l-10.6-.7l-10.4 .1l-2.2 .4l-.5-.1l-.4-.4Z" class="g0"/>
<path d="M377.5 41.2l.5 .2l.2 .5l.4 2.5l-.4 2.9l-.7 2.2l-1 2.6L375 55l-3.8 5.7l-1.3 1.6l-.4 .3h-.6l-.2-.2l-.2-.5l.1-.6l1.3-1.6l3.6-5.6l1.5-2.7l1-2.4l.6-2.1l.3-2.6l-.3-2.2l.1-.5l.5-.4Z" class="g0"/>
<path d="M493.1 216.3l.5 .1l.4 .3l.3 .4l.1 .5v8.3l-.4 10.4l-.4 6.1l-.1 .5l-.3 .4l-.4 .3l-.5 .1l-.5-.1l-.5-.2l-.3-.3l-.3-.5v-.5l.4-6l.4-10.2v-8.6l.3-.5l.3-.3l.5-.2Z" class="g0"/>
<path d="M533.4 64.4h.6l.5 .2l.4 .4l.3 .5l3.3 11.8l2 8.2l3.6 18.3l2.1 12.7l3.6 25.7l2.6 22.1l1.7 16.9l.6 9.7l.2 5.3v5l-.2 7.1l-.4 4.1l-.2 .5l-.3 .5l-.5 .3l-.5 .1h-.6l-.5-.3l-.4-.4l-.2-.5l-.1-.6l.4-3.9l.2-7v-4.9l-.1-5.2l-.7-9.5l-1.6-16.9l-2.6-22L543 117l-2.1-12.6l-3.6-18.2l-2-8.1L532 66.5v-.6l.1-.5l.3-.5l.5-.3Z" class="g0"/>
<path d="M549.5 303.7l.5 .2l.4 .4l.3 .5l.1 .5V309l-.3 3.8l-1.4 9.5l-3.3 17.8L542.2 356l-4.5 16.8l-2.9 9l-3.3 8.7l-.3 .5l-.5 .3l-.5 .2l-.6-.1l-.5-.2l-.4-.4l-.3-.5l-.1-.5l.2-.6l3.2-8.4l2.8-8.9l4.5-16.7l3.5-15.7l3.3-17.8l1.4-9.3l.3-3.6l.1-3.4v-.6l.3-.5l.5-.4l.5-.2Z" class="g0"/>
<path d="M362.6 488l.1 .5v.6l-.3 .5l-1.9 1.3l-.9 2.7l-3 12l-4 21.1l-2.9 19l-2.9 24.1L345 589.5l-1.4 19.7l-1 20.8l-.5 23.4l.2 21.5l.6 20.9l1.4 21.7l1.7 18.4l2.1 16.6l2.6 14.7l2.5 12l2.2 9.4l1.8 6.9l2.4 7.7l.1 .5l-.1 .6l-.3 .4l-.4 .4l-.6 .2h-.5l-.6-.3l-.4-.3l-.2-.5l-2.5-7.8l-1.9-7L350 780l-2.5-12.2l-2.6-14.7l-2.1-16.9L341 717.7L339.7 696l-.7-21l-.1-21.6l.5-23.5l1-20.9l1.4-19.8l1.8-19.8l2.9-24.1l3.7-23.8l3.2-16.6l3-12.2l1.3-3.4l.6-.8l2.5-1.5h.5l.6 .2l.4 .3Z" class="g0"/>
<path d="M358.4 489.1l-.2-.5l.1-.5l.2-.5l.4-.4l2.9-1.8l7.8-2.4l9.6-2.6l13-3l16.2-3.1l17.9-2.7l13.5-1.6l12.9-1.2l13.1-.8l14.4-.3l12.9 .1l12.5 .5l12.8 1l10.8 1.3l5.4 .8l8.9 1.7l7.2 1.7l5.6 1.5l8.3 2.8l.5 .2l.3 .4l.2 .5v.6l-.2 .5l-.3 .4l-.5 .2l-.5 .1l-.5-.1l-8.2-2.7l-5.5-1.4l-7.1-1.7l-8.8-1.7l-5.3-.8l-10.6-1.3l-12.7-1l-12.4-.5l-12.8-.1l-14.3 .4l-13 .8L440.1 473l-13.5 1.6l-17.7 2.7l-16.1 3.1l-12.9 3l-9.5 2.6l-7.5 2.3l-2.8 1.7h-.5l-.5-.1l-.4-.3Z" class="g0"/>
<path d="M406.5 591.5l.5 .3l.4 .5l.1 .5l-.6 3.7L405 616.4L402.8 642l-.9 16.7l-.4 18.5l.6 19.2l1 12.3l.7 6.5l1.6 11.4l1.6 9.6l2.8 13.8l2.2 8.3v.5l-.1 .6l-.3 .5l-.5 .3l-.6 .2l-.5-.1l-.5-.2l-.5-.4l-.2-.5l-2.2-8.4l-2.8-14l-1.7-9.7l-1.6-11.5l-.7-6.6l-1-12.4l-.6-19.4l.4-18.6l1-16.8l2.1-25.7l1.9-20l.9-3.9l.4-.4l.5-.3l.6-.1Z" class="g0"/>
<path d="M412.4 605.5l-.2 .6l-.4 .4l-.5 .3h-3.6l-3-.3l-.6-.2l-.5-.4l-.3-.6l-.1-.6l.2-.6l1.1-2.5l.4-.5l.6-.3l6.8-2l12.4-2.6l12.8-2l15.5-1.9l17.6-1.5l18.8-1l18.8-.3l17.6 .2l11.3 .6l9 .8l7.8 .9l11 1.7l6.1 1.4l.5 .2l.4 .4l.3 .5v.6l-.1 .5l-.3 .5l-.5 .3l-.5 .2l-6.5-1.3l-10.8-1.7l-7.8-1l-8.9-.8l-17.1-.6l-18.1-.1l-18.8 .6l-18.4 1.1l-16.9 1.7l-18.1 2.6l-13.6 2.6l-8 2.1l3.6 .2l.5 .3l.3 .4l.2 .6Z" class="g0"/>
<path d="M409.8 756.7l.4-.4l.5-.3l.6-.1l4 1.5l3.4 .7l7.8 1.2l8.4 .7l10.9 .6l13.1 .3l14.8-.1l21.9-.7l25.9-1.4l19.5-1.8l12.2-1.6l18.9-3.3l.6-.1l.6 .2l.4 .4l.4 .5l.1 .6l-.1 .5l-.3 .6l-.4 .4l-.5 .2l-19.2 3.4l-12.3 1.6l-19.6 1.8l-26.1 1.4l-21.9 .7l-15 .1l-13.1-.3l-11-.6l-8.6-.7l-7.9-1.2l-3.7-.8l-3.8-1.5l-.5-.3l-.4-.5l-.2-.5v-.6Z" class="g0"/>
<path d="M382.3 460.3l.6 .1l.4 .3l.3 .4l.5 3l-.1 2.4l-.4 2.4l-.6 2.6l-.8 2.3l-1.5 3l-3 4.6l-.4 .3l-.5 .2l-.5 .1l-.5-.2l-.4-.3l-.3-.5l-.1-.5l.1-.5l3-4.7l1.3-2.8l.7-1.9l.6-2.3l.3-2.1v-2.1l-.2-2.6l.2-.5l.3-.4l.5-.2Z" class="g0"/>
<path d="M373.7 466.2v.6l-.3 .5l-.5 .3l-2.7 .6h-.6l-.5-.2l-.5-.4l-.3-.5v-.5l.1-.6l.3-.5l.4-.3l3-1.6l9.2-3l13.5-3.7l13.4-2.9l5.4-1l17.3-2.7l19-2.3l19.5-1.6l19.2-.7l17.9 .1l16 1.1l13.5 1.9l7.3 1.5l5.7 1.5l4.3 1.3l5.8 2.2l.5 .3l.4 .5l.1 .6v.5l-.2 .5l-.4 .5l-.6 .2l-.5 .1l-3.2-1.3l-7.1-2.3l-5.6-1.4l-7.1-1.5l-13.3-1.8l-15.8-1.1l-17.7-.1l-19 .7l-19.4 1.6l-18.8 2.2l-17.3 2.7l-5.3 1l-13.2 2.9l-13.3 3.6l-9 3l-.8-2.1l.4 .2l.5 .4l.2 .4Z" class="g0"/>
<path d="M554 453.7l.5 .3l.4 .4l.3 .5l-.4 8.1l.2 5.4l1 8l-.2 .6l-.3 .4l-.5 .3l-.6 .1l-.6-.1l-.4-.3l-.4-.4l-.2-.6l-.6-3.9l-.7-7.1l.2-7.6l.4-3.2l.3-.5l.5-.3l.5-.1Z" class="g0"/>
<path d="M524.4 631.6v-.5l.2-.5l.3-.3l2.4-.9l6.2-1.6l7.2-1.4l6.4-1l6.9-.7l6.9-.5l10.8-.1l5.1 .4l4.6 .8l2.8 .6l2.3 .6l1.8 .7l2.4 1.2l1.2 .8l.4 .3l.2 .4v.5l-.1 .4l-.3 .4l-.3 .3l-.5 .1h-.5l-1.5-.9l-2.1-1l-1.6-.6l-4.8-1.2l-4.4-.7l-4.9-.4l-10.5 .1l-6.8 .5l-6.8 .7l-6.3 1l-7 1.4l-4.1 .9l-4.3 1.3l-.5-.1l-.4-.2l-.3-.4Z" class="g0"/>
<path d="M590.7 628.5l.6 .1l.5 .2l.4 .3l.9 2.6l1.1 4.7l1 6.4l.6 10.9l-.1 11.5l-1 12.9l-1.6 12.6l-1.2 6.5l-2.2 9.7l-1.6 6.2l-1.1 3.2l-.2 .5l-.5 .4l-.5 .2h-.5l-.5-.2l-.4-.3l-.3-.5l-.1-.5l1.1-3.8l1.6-6l2.2-9.6l1.1-6.3l2-15.8l.7-12.5l-.2-12.7l-.9-9.3l-.9-5.1l-1.3-4.8l.1-.5l.3-.5l.4-.3Z" class="g0"/>
<path d="M571.8 646.3l.5 .2l.4 .4l.3 .5l-.3 8.9l-.8 8l-.9 5l-1.2 5.5l-3.5 12.4l-6.7 19.7l-3.5 8.7l-1.4 3l-1 1.7l-.4 .3l-.6 .1h-.6l-.5-.3l-.4-.4l-.2-.5v-.6l2.1-4.7l3.4-8.4l6.7-19.6l3.4-12.3l1.2-5.3l.8-4.8l.5-4.2l.8-12.3l.3-.5l.4-.3l.6-.2Z" class="g0"/>
<path d="M550.5 716.4l.5-.3l.5-.2l.6 .1l2.1 1.5l1.8 .5l2.3 .1l5.3-.2l7.6-.8l12.8-2.4l.6-.1l.5 .2l.4 .3l.3 .5l.1 .5v.6l-.3 .4l-.4 .4l-.5 .2l-13.1 2.5l-7.8 .8l-5.5 .2l-2.6-.1l-2.6-.6l-.6-.3l-2.2-1.9l-.2-.5v-.5l.1-.5Z" class="g0"/>
<path d="M345.1 755.7l.3 .5l.2 .5l-.1 .6l-1.7 2.6l-1.7 1.7l-1.9 1.5l-2.5 1.5l-2.2 .9l-2.7 1l-3 .7l-3.4 .6l-4.2 .4l-6.9 .1l-7.8-.7l-8.7-1.4l-3.3-.7l-10.1-2.6l-10.9-3.3l-11.4-4.1l-11.8-4.7l-11.6-5.7l-7.2-4.1l-3.9-2.4l-6.7-4.8l-3.6-2.8l-6-5.4l-3.1-3.2l-5-6l-2.6-3.4l-3.9-6.6l-1.9-3.7l-2.6-7l-1.2-4.1l-1.2-7.3l-.4-4.2l.2-7.4l.4-4.1l.7-4.1l.8-3.9l.9-3.3l1.3-3.8l1.5-3.7l1.4-3.1l1.9-3.5l3.9-6.3l2.4-3.2l4.7-5.5l2.8-2.8l5.2-4.7l3-2.3l5.6-3.7l3.2-1.8l5.7-2.6l3.2-1.1l5.6-1.5l3-.4l2.9-.3h2.5l2.8 .2l2.7 .6l4.6 1.5l2.5 1.3l3.9 3l1.9 2l1.8 2.4l2.7 5l1.4 3l1.8 6.1l.9 3.6l.9 6.7l.3 3.8l.1 7l-.2 3.8l-.9 6.8l-.6 3.7l-1.7 6.2l-1.2 3.4l-2.5 5.5l-1.5 3l-3.2 4.4l-2 2.4l-3.8 3.3l-2.4 1.7l-4.3 1.9l-2.6 .9l-4.6 .5l-2.8 .1l-4.9-.8l-2.8-.8l-5-2.1l-2.8-1.5l-5-3.4l-5.5-4.2l-7.9-7l-16.6-16.6l-5.8-5.6l-6.6-5.8l-2.9-2.3l-3.5-2.5l-3.6-2.3l-3.1-1.8l-3.8-1.9l-3.9-1.6l-3.3-1.1l-4-1.1l-4.2-.8l-3.5-.5l-4.3-.2l-4.4 .1l-3.6 .3l-4.5 .7l-4.4 1l-3.7 1.1l-4.4 1.7l-4.3 1.9l-3.6 1.9l-4.2 2.5l-4.1 2.8l-3.4 2.6l-3.9 3.3L92 660.3l-3.5 3.8l-5.8 7.7l-2.4 3.5l-2.6 4.4l-2.3 4.2l-1.8 4.2l-2.2 7.7l-.7 3.9l.2 6.7l.5 3.2l2.4 5.1l3.3 4.3l3.5 3.2l3.3 2.3l2.8 1.6l2.2 .9l2.8 .6l.1-.6l.4-.4l.4-.3l.6-.2l.6 .1l.5 .3l1 1.3l.2 .6v.6l-.2 .6l-.4 .4l-.6 .3l-2.1 .6h-.8l-3.3-.7l-2.7-1.1l-3.2-1.7l-3.6-2.6l-3.8-3.5l-3.7-4.7l-2.8-5.8l-.7-4l-.2-7.2l.8-4.5l2.2-8l2.1-4.5l2.3-4.5l2.7-4.5l2.5-3.7l5.9-7.9l3.7-3.9l3.9-3.7l4-3.4l3.5-2.7l4.3-2.9l4.4-2.7l3.7-1.9l4.5-2.1l4.6-1.7l3.9-1.2l4.6-1l4.7-.8l3.9-.3l4.6-.1l4.5 .2l3.8 .5l4.3 .9l4.3 1.1l3.6 1.2l4 1.7l4 2l3.3 1.9l3.7 2.4l3.7 2.6l2.9 2.3l6.8 6L199 662l16.6 16.6l7.7 6.8l5.3 4.2l4.9 3.2l2.5 1.3l4.7 2.1l2.4 .6l4.4 .7h2.3l4.2-.6l2.1-.7l3.9-1.8l1.9-1.3l3.6-3.1l1.6-2l3-4.2l1.4-2.7l2.4-5.3l1-3.1l1.7-6l.6-3.5l.9-6.5l.1-3.6v-6.8l-.4-3.5l-.9-6.6l-.8-3.3l-1.7-5.8l-1.2-2.8l-2.6-4.7l-1.5-1.9l-1.7-1.7l-3.5-2.7l-2-1l-4.1-1.4l-2.3-.4l-2.5-.2h-2.2l-2.7 .2l-2.7 .5l-5.3 1.3l-2.9 1.1l-5.5 2.5l-2.9 1.6l-5.4 3.6l-2.9 2.2l-5 4.5l-2.6 2.6l-4.5 5.4l-2.3 3.1l-3.8 5.9l-1.8 3.4l-1.3 2.9l-1.4 3.6l-1.3 3.6l-.8 3.1l-.8 3.8l-.6 3.8l-.4 3.9l-.2 7.2l.4 3.8l1.1 7.1l1.1 3.7l2.5 6.7l1.8 3.5l3.8 6.3l2.4 3.2l4.8 5.9l3 2.9l5.8 5.3l3.4 2.6l6.6 4.8l3.8 2.3l7.1 4.1l11.4 5.5l11.6 4.7l11.3 3.9l10.8 3.4l9.9 2.5l3.2 .7l8.4 1.4l7.6 .6H322l4-.4l3.2-.6l2.7-.7l2.5-.9l1.8-.8l2.3-1.3l1.5-1.2l1.3-1.4l1.7-2.2l.5-.2l.6-.1l.5 .2Z" class="g0"/>
<path d="M383.1 495.4l.4 .4l.1 .6L382 506.6L380.4 519l-1.3 11.3l-1 10.1L377 551.2l-1.1 12.1l-.6 7.2l-.6 7.4l-.4 6.4l-.6 8.1l-.4 8.1l-.4 7l-.4 8.5l-.3 8.5l-.3 7.1l-.2 8.5l-.2 8.4l-.1 7v22.4l.1 7.4l.3 12.7l.6 12.4l.6 10.1l.8 8.9l1.6 11.9l1.1 5.7l2.1 8.2l1.8 4.9v.6l-.4 .4l-.2 .2l-.6-.1l-.3-.5l-1.8-5l-2.2-8.4l-1.1-5.7l-1.6-12l-.8-8.9l-.7-10.2l-.5-12.5l-.3-12.7l-.1-7.4l-.1-6.4v-7.9l.1-8.2l.1-6.9l.1-8.4l.3-8.5l.2-7.2l.4-8.5l.3-8.5l.4-7l.5-8.1l.5-8.1l.5-6.4l.6-7.5l.6-7.2l1.1-12.1l1-10.8l1.1-10.1l1.3-11.3l1.6-12.4l1.6-10.3l.3-.5l.5-.2Z" class="g0"/>
<path d="M358.6 687.3l.3-.5l.6-.1l2.5 .1l6.5-1l3.4-.7l.5 .1l.4 .4l.1 .3l-.2 .5l-.5 .3l-6.3 1.3l-3.7 .4l-2.8-.1l-.5-.2l-.3-.5Z" class="g0"/>
<path d="M357.7 692.7l.2-.6l.5-.3l2.4-.5h10.6l10.7 .6l.5 .3l.2 .5v.3l-.3 .4l-.6 .2l-10.5-.7L361 693l-2.3 .4h-.5l-.4-.5Z" class="g0"/>
<path d="M407.9 454.9l.5 .2l.3 .5l.3 2.6l-.4 2.8l-.7 2.3l-1 2.6l-1.5 2.8l-3.8 5.8l-1.2 1.6l-.5 .3l-.6-.1l-.2-.2l-.2-.5l.2-.5l1.2-1.6l3.7-5.6l1.4-2.7l1-2.5l.6-2.1l.3-2.5l-.3-2.3l.2-.5l.4-.3Z" class="g0"/>
<path d="M523.5 630l.5 .1l.4 .3l.3 .4l.1 .5v8.3l-.3 10.4l-.5 6.1l-.1 .5l-.3 .4l-.4 .3l-.5 .1h-.5l-.5-.3l-.3-.3l-.2-.5l-.1-.5l.4-5.9l.4-10.3V631l.3-.5l.3-.3l.5-.2Z" class="g0"/>
<path d="M563.8 478.2h.6l.5 .2l.4 .4l.2 .5l3.9 13.7l3.2 14.4l2.5 13.8l3.2 20.4l2.9 23l2.4 21.1l.7 8.1l.7 10.3l.2 5.8V615l-.2 7.1l-.4 4l-.1 .5l-.3 .5l-.5 .3l-.5 .1l-.6-.1l-.4-.2l-.4-.4l-.2-.5l-.1-.5l.3-3.9l.3-7L582 610l-.1-5.8l-.7-10.1l-.8-8.1l-2.3-21.1L575.2 542L572 521.7L569.5 508l-3.1-14.3l-3.9-13.5v-.5l.1-.6l.3-.4l.4-.3Z" class="g0"/>
<path d="M577.7 717.1l.6 .2l.5 .4l.4 .6l.1 .6l-.1 3.6l-.3 3.7l-1.4 9.4l-3.2 17.5l-3.5 15.6l-4.4 16.5l-2.9 8.9l-3.2 8.5l-.4 .5l-.5 .4l-.6 .2l-.6-.1l-.6-.2l-.5-.5l-.3-.5l-.1-.7l.2-.6l.6-1.4l3.8-10.6l2.8-9.7l3.9-14.9l3.3-15.2l3.6-20.9l.6-6.1l.1-3.4l.1-.6l.3-.6l.5-.4l.6-.2Z" class="g0"/>
<path d="M488 504.5l-.1 .6l-.4 .4l-.4 .3l-.6 .2l-1.5 .1l-.9-.3l-1.2-.7l-.5-.5l-.3-.5v-.7l.3-.6l.8-1.2l.9-.7l1.6-.4l1.8-.2l2.4 .1l1.8 .3l2 .5l2.3 .8l5 2.1l3.9 2.1l13.7 8l3.1 1.6l2.7 1.1l2.3 .7l2 .2l1.5-.1l1.3-.5l1.1-.7l.1-.1l.5-.2h.6l.5 .2l.5 .3l.3 .5l.1 .6l-.1 .6l-.2 .5l-.4 .3l-1.3 .9l-2.1 .7l-2.3 .3l-2.6-.3l-2.8-.8l-3.1-1.3l-3.3-1.6l-13.7-8l-3.8-2l-4.7-2l-2.1-.8l-1.8-.4l-1.5-.2l-1.9-.1v-.4l.3 .2l.2 .5Z" class="g0"/>
<path d="M495.1 505.9l.2 .5l-.1 .6l-.2 .5l-.4 .4l-.9 .7l-.4 1.3l-.8 3.6l-.8 5.9l-.3 5.9l-.1 4.5l.3 7.7l.6 5.6l.9 5.1l1.1 4.8l.8 2.5l.9 2.2l.7 1.8l1.1 2l1 1.7l1.2 1.5l2.5 2.1l1.1 .8l1.4 .7l1.3 .5l1.3 .3l2.8-.1l1.3-.2l2.8-1.2l1.4-.8l2.7-2.1l1.4-1.2l2.4-2.8l1.2-1.5l1.9-3.4l.9-1.8l1.4-3.7l1-3.6l.8-3.3l.7-4.8l.2-3.3l.1-.5l.3-.5l.4-.4l.5-.2h.6l.5 .2l.5 .3l.3 .5l.1 .6l-.1 1.9l-.4 4l-.5 2.8l-.8 3.4l-1.1 3.9l-1.5 4l-1 2.1l-2.1 3.5l-1.3 1.8l-2.6 3l-1.6 1.5l-2.9 2.3l-1.9 1l-3.1 1.3l-2.1 .4l-3.2 .2l-2.1-.4l-1.8-.7l-1.8-.9l-1.4-1l-2.8-2.3l-1.5-2l-1.3-2l-1.1-2.1l-.9-2l-.9-2.4l-.8-2.6l-.6-2.3l-1.2-5.7l-.7-5.3l-.4-5.3l-.2-5.5l.2-7l.4-5.6l.7-4.4l.8-3.8l.7-2.1l.6-.8l1.3-.9l.5-.3h.5l.6 .1l.5 .3Z" class="g0"/>
<path d="M501.2 509.1l.3 .4l-.1 .6l-.6 1.3l-.5 3.4L500 521l.2 6.5l.7 5.8l.7 4.3l.4 2.2l1.7 5.9l2 5.2l1.5 2.6l1.4 2.2l1.2 1.7l1 1.2l1.9 1.6l.1 .6l-.1 .2l-.1 .3l-.6 .2l-.5-.2l-1.8-1.6l-1.1-1.2l-1.4-1.8l-1.4-2.3l-1.5-2.8l-2.1-5.3l-1.8-6.1l-.4-2.3l-1-6.2l-.5-5.7l-.2-6.6l.3-4.8l.6-3.6l.8-1.7l.4-.3l.6-.1Z" class="g0"/>
<path d="M408.9 617.4l-.2 .5l-.2 .5l-.5 .4l-.5 .2l-1.4 .2h-.6l-.6-.2l-.4-.4l-.3-.6v-.6l.1-.6l.4-.4l1.3-1.2l5.7-3.2l5.2-2.5l9.7-4.3l6.2-2.4l9.2-3.2l9.2-2.8l6.9-1.8l3.3-.7l11.6-2.2l7.7-1.2l11.8-1.3l.5 .1l.5 .2l.4 .5l.3 .5v.5l-.1 .6l-.4 .5l-.4 .3l-.6 .1l-11.6 1.3l-7.5 1.1l-11.5 2.2l-3.3 .7l-6.7 1.8l-9.1 2.7l-9.1 3.1l-6 2.4l-9.7 4.2l-5 2.5l-5.4 3.1l-1.4-2.2l.5-.1h.6l.5 .2l.5 .4l.3 .5Z" class="g0"/>
<path d="M552.4 630l.1-.6l.4-.4l1.3-.5l3.5-.9l3.4-.5l1.9-.2h2.1l2.2 .1l2.1 .5l2.3 .8l2 1.1l2 1.7l1.6 2.2l.9 1.4l.7 1.5l.7 1.6l1.1 3.4l.9 3.7l.6 4.2l.2 4.3v4.4l-.4 4.6l-.6 4.5l-.9 4.4l-1.2 4.4l-1.3 4.2l-1.5 4l-2.5 5.6l-5.9 10.8l-4.1 6.6l-1.5 2.2l-.3 .1h-.6l-.2-.2l-.2-.5l.1-.6l4.6-7.2l5.7-10.2l2.5-5.3l2.3-5.8l1.4-4.1l1.1-4.3l.9-4.4l.6-4.4l.3-4.5l.1-4.3l-.3-4.1l-.5-4.1l-.9-3.6l-1-3.3l-1.4-2.8l-.8-1.3l-1.5-2.1l-1.7-1.4l-1.7-.9l-2.1-.8l-1.9-.3l-2-.2h-1.9l-1.8 .2l-3.2 .5l-3.4 .8l-1.1 .5l-.6 .1l-.4-.3Z" class="g0"/>
<path d="M366.8 41l-.2 .5l-.3 .5l-.5 .3l-.5 .2l-1.3 .1l-.6-.1l-.5-.2l-.4-.4l-.3-.6v-.5l.2-.6L363 39l.8-.8l1.7-.8l5.8-2.1L382 32.1l6.6-1.6l7.6-1.7l6.8-1.3l11.8-1.8l9.3-1.1l9.6-.9l7.8-.4l12.3-.2l8.8 .3l4.3 .2l10.6 1l7.2 .9l11.1 1.9l7.9 1.6l7.6 2l.5 .3l.4 .4l.2 .5l.1 .6l-.2 .5l-.3 .5l-.5 .3l-.5 .1h-.6l-7.5-2l-7.8-1.6l-7.6-1.4l-10.3-1.3l-10.6-1l-4.1-.2l-8.7-.3l-12.2 .2l-7.7 .4l-9.5 .8l-9.2 1.1l-11.7 1.9l-6.7 1.3l-7.5 1.6l-6.5 1.6l-10.4 3.1l-5.6 2l-1.1 .6l-1.2-1.7l.5-.1l.6 .1l.5 .2l.4 .4l.2 .5Z" class="g0"/>
<path d="M521 659.3l-.4-.5l-.1-.5v-.6l.2-.5l.7-1.2l.4-.4l1.2-.9l1.3-.7l2.5-1.4l4.9-2.1l4.6-1.6l5.4-1.5l5.8-1.3l5.6-.9l5.3-.4l3.1-.1l4.6 .2l1.7 .1l1.9 .3l.9 .3l.4 .4l.3 .5l.1 .6l-.2 .5l-.3 .5l-.4 .4l-.6 .1h-.8l-3.2-.5l-4.4-.1l-2.9 .1l-5.1 .4l-5.5 .8l-5.5 1.3l-5.2 1.4l-4.5 1.6l-4.6 2l-2.4 1.3l-1.8 1.2l-.5 .8l-.4 .4l-.5 .3l-.6 .1l-.5-.1Z" class="g0"/>
<path d="M521.8 657.8l.2-.6l.3-.5l.4-.3l.6-.2l10-1.1l5.2-.2l6.5 .2l.6 .2l.4 .3l.4 .5l.1 .5v.6l-.3 .5l-.4 .4l-.5 .3h-.6l-6.2-.2l-5 .2l-9.8 1h-.6l-.5-.2l-.4-.4l-.3-.5Z" class="g0"/>
<path d="M542.6 658l-.2-.6l.1-.6l.3-.5l.4-.3l1.5-1l3.3-1.3l3.2-1.1l6.3-1.6l5.5-1.1l3.5-.6h.6l.5 .2l.5 .4l.2 .5l.1 .6l-.1 .5l-.3 .5l-.5 .4l-.5 .1l-3.5 .6l-9.5 2.1l-4.9 1.6l-3 1.2l-1.1 .7l-.6 .2l-.5 .1l-.6-.2l-.4-.4Z" class="g0"/>
<path d="M569.4 650.5l-.5 .4l-.5 .2h-.6l-.5-.2l-.7-.4l-3.9 .1l-.3-3.1l1-.2l.6 2.8l-17.6 3.6l-.5 .1l-.5-.2l-.5-.3l-.3-.5l-.1-.5v-.6l.2-.5l.4-.4l.5-.2l2.7-.8l9.7-2.9l1.9 2.8l-15.5 3.4l-2-2.5l8.4-1.9l2.1 2.8l-14.4 3.1l-1.1-1.8l4.5-.7l10.6-2l1.4-.2h.6l.6 .2l.4 .4l.3 .5v.6l-.1 .5l-.3 .5l-.5 .4l-1.5 .7l-9.2 2.9l-2-2.4l5.7-1.9l2.9-.7l1.4-.2h.5l.6 .2l.5 .4l.2 .5l.1 .6l-.2 .6l-.3 .5l-.5 .3l-1.7 .6l-1.3 .2h-.5l-.6-.2l-.4-.4l-.3-.5v-.6l.1-.5l.3-.5l.4-.4l1.6-.8l4.6-1l4.3-.6l4.3-.2h1.5l.1-.5l-2.3 .1l-10 1.9l-4 .4l-5.7 1.1l-1.3 .2l-1.2 .3l-2.8 1l-1.1 .2l-2.6 .9l-1.4 .2l-.3-2.8l9.4-.6l1.4 .1l.6 .1l.5 .4l.3 .5l.1 .6l-.1 .5l-.3 .6l-.9 1.1l-.5 .4l-1.4 .7l-1.3 .5l-2.7 .9h-.5l-.6-.1l-.5-.3l-.3-.4l-.2-.6v-.5l.2-.5l.4-.5l.5-.3l3-1.1l1.9-.8l.6-.1h.6l.5 .3l.4 .4l.2 .6v.5l-.2 .6l-.3 .4l-.5 .3l-3.5 1.5l.2-2.5l-.3-.9l.3 1l-6.7 .4l-2.7 .3h-.6l-.5-.2l-.4-.5l-.3-.5v-.6l.2-.6l.4-.4l.5-.3l1.3-.5l2.8-.5l2.3-.9l1.4-.2l2.5-.9l1.5-.4l1.5-.2l5.7-1.1l2.8-.3l11.2-2l3.1-.2l1.6 .2l.9 .4l1 .9l.4 .5l.2 .5l-.1 .6l-.3 .6l-.4 .4h-.4l.6 .9l.1 .6v.5l-.3 .5l-.4 .4l-.5 .2l-.6 .1l-1.2-.2h-2.5l-4.1 .2l-3.9 .6l-4.2 .9l-1 .5l-.6 .1l-.4-3.1l.4 3.1l-1.4 .3l-4.2 1.4l-1.4 .5l-1.8 .3h-.6l-.5-.2l-.5-.4l-.2-.5l-.1-.6l.1-.6l.4-.5l.5-.3l2.7-1.1l9.2-2.9l1.2-.6l.9 3.1l-15.1 2.8l-3.1 .3l-1.2-.5l-1-.9l-.4-.4l-.2-.6l.1-.6l.2-.6l.4-.4l.6-.2l16.1-3.4l3-.6l.6-.1l.5 .2l.5 .3l.3 .5l.1 .6v.5l-.3 .5l-.4 .4l-.5 .3l-9.9 2.3l-3 .6l-1.6 .1l-.6-.1l-.5-.3l-.4-.4l-.2-.6v-.6l.2-.5l.4-.4l.6-.3l2.9-.8l15.4-3.4l2.6-.6h.5l.6 .1l.4 .4l.3 .4l.2 .6l-.1 .5l-.2 .5l-.4 .4l-.5 .3L548 653.3l.3-3.3l15-3.1l1.6-.3l.5-.1l1.4 .2l.6 .2l.4 .3l.4 .5l.1 .6l-.1 .5l-.3 .6l-.4 .3l-.5 .3l-4.3 .7h-2.1l-.5-.3l-.3-.4l-.3-.5v-.6l.2-.5l.3-.5l.4-.3l.6-.1l1.3-.2l4.6-.1l.8 .2l1.2 .6l.4 .4l.3 .5l.1 .5l-.1 .6Z" class="g0"/>
<path d="M448.3 441.4l-.3 .5l-.5 .1h-1.2l-4.2 .8l-3 .9l-3.5 1.3l-1.7 .8l-1.6 .9l-1.4 1l-1.7 1.6l-.9 .9l-1 1.5l-.8 1.3l-.2 .1l-.6 .1l-.2-.2l-.3-.5V452l.6-1.1l1.2-1.7l1-1l1.8-1.7l1.6-1.1l1.7-1l1.8-.9l3.6-1.3l4.6-1.3l3-.5h1.5l.5 .2l.2 .5Z" class="g0"/>
<path d="M777 110.1l.6-.1l.5 .1l.5 .2l.4 .4l1 1.5l.2 .6l.7 3.6l.5 5.5l.6 25.3l.5 25l.2 8.2l1.1 24.8l1.1 19.6l1.2 16.8l1.7 20.3l1.7 17l2 17.6l1.7 15l2.8 21.7l1.8 13.4v.5l-.2 .6l-.4 .4l-.5 .3h-.5l-.6-.1l-.5-.3l-.3-.4l-.2-.6l-1.9-13.4L790 311.9l-1.8-15.1l-1.9-17.5l-1.8-17.1l-1.7-20.4L781.6 225l-1.1-19.7l-1.1-24.8l-.2-8.2l-.5-25l-.6-25.2l-.5-5.4l-.5-2.9l-.8-1.3l-.2-.5l-.1-.5l.2-.6l.3-.4Z" class="g0"/>
<path d="M780.8 109.5l.1 .6l-.1 .5l-.2 .4l-.8-1.4l1.4-.1l2.9-.5l15.8-3.8L825.2 99l11.3-2.6l6-1.3L859.8 92l11.1-1.7L884 88.7l6.4-.7l10.6-.8l9-.6l12.7-.4H930l.6 .1l.5 .3l.4 .4l.1 .5v.6l-.2 .5l-.3 .5l-.5 .3h-7.8l-12.7 .5l-8.9 .6l-10.6 .8l-6.2 .6l-13.1 1.7l-11 1.6l-17.1 3.1l-6 1.3l-11.3 2.6l-25.2 6.2l-16 3.8l-3 .5l-1.8 .2l-2.3-.4l-.5-.2l-.4-.3l-.3-.5l-.1-.6l.1-.5l.3-.5l.4-.4l1.3-.8l.5-.2h.6l.6 .2l.4 .3Z" class="g0"/>
<path d="M930.8 87l.5 .3l.4 .4l.2 .6v.5l-1.7 10.5l-1.7 13.5l-.9 10.1l-1.2 17.7l-.9 20.2l-.3 16.5V186l.4 24.2l.8 23.4l.9 16.5l.5 7.8l1.5 18.9l2.8 26l2.4 18.2l.5 3.2v.6l-.2 .5l-.3 .4l-.5 .3l-.6 .1l-.6-.1l-.5-.3l-.3-.4l-.2-.6l-.5-3.2l-2.5-18.3l-2.7-26.1l-1.6-19l-.5-7.8l-.9-16.5l-.8-23.5l-.4-24.3v-8.7l.3-16.6l.9-20.3l1.2-17.7l1-10.3l1.6-13.5l1.7-10.7l.2-.5l.4-.4l.5-.3l.6-.1Z" class="g0"/>
<path d="M794.7 347.5l.2-.6l.3-.5l.4-.3l.6-.2l2.8-.3l20.9-5.5l22.2-5.7l5.3-1.3l15.3-3.2l15.2-2.8l11-1.7l5.3-.7l13.1-1.2l7.7-.4l6.3-.1H930l4 .3l.5 .1l.5 .3l.3 .5l.2 .5v.6l-.3 .5l-.4 .4l-.5 .3h-.5l-4-.2h-8.5l-6.2 .1l-7.6 .4l-13 1.2l-5.2 .7l-10.9 1.6l-15.1 2.8l-15.2 3.2l-5.3 1.2l-22 5.7l-21.2 5.7l-3.1 .3H796l-.6-.3l-.4-.4l-.2-.5Z" class="g0"/>
<path d="M829 131.9l.2 .5v.6l-.2 .5l-.3 .4l-1.1 1l-1.4 2.1l-1.6 3.4l-1.8 4.7l-1.9 6.5l-1.8 7.6l-1.2 6.4l-.9 6.9l-.6 5.7l-.3 6.8l.1 3.3l.4 5.2l.7 5.2l.8 4.3l.7 3.3l1.3 4.3l.5 1.3l.2 .6l-.1 .6l-.3 .5l-.4 .3l-.5 .3h-.6l-.6-.2l-.4-.4l-.4-.7l-1.1-3.1l-.7-2.6l-.8-3.5l-.9-4.5l-.7-5.3l-.4-5.4l-.1-3.5l.1-3.5l.2-3.5l.6-5.9l1-7l1.2-6.5l1.8-7.8l2-6.6l1.8-5.1l1.8-3.6l1.7-2.6l1.5-1.4l.5-.3l.6-.1h.5l.5 .3Z" class="g0"/>
<path d="M828.7 131.4h.6l.6 .1l.5 .3l.3 .4l.6 1.1l.7 .8l1.7 1.4l2.6 1.6l2.5 1.3l1.4 .6l2.7 .9l3.7 .8l3.7 .5l4.8 .3h5.1l7.2-.6l7.3-.9l6.7-1.1l6.5-1.5l6.1-1.7l5.5-1.9l.6-.1h.6l.5 .3l.3 .4l.2 .6l.1 .5l-.2 .6l-.4 .4l-.4 .3l-1.9 .7l-3.9 1.3l-6.2 1.8l-6.8 1.5l-6.9 1.2l-7.3 .9l-7.4 .5h-5.3l-5-.3l-3.9-.4l-2.2-.5l-2-.5l-2.9-.9l-1.6-.7l-2.8-1.4l-2.9-1.8l-1.9-1.7l-1.2-1.2l-.9-1.5l-.1-.6v-.5l.2-.6l.3-.4Z" class="g0"/>
<path d="M900 134.6h.6l.5 .2l.5 .3l.3 .5l1.9 4.2l1.5 4.1l1.2 4.2l.8 3.8l.4 2.1l.4 3.7l.3 4.8l-.1 4.2l-.4 5.1l-.4 2.6l-1 4.4l-.7 2.7l-1.6 4.2l-1.1 2.5l-1.2 2.5l-1.3 2.4l-2.4 3.9l-2.3 3.3l-1.9 2.6l-2.9 3.4l-1.5 1.5l-.5 .3l-.5 .2l-.6-.1l-.5-.2l-.4-.4l-.2-.6l-.1-.5l.2-.6l.3-.4l1.4-1.4l2.7-3.3l1.9-2.5l2.2-3.1l2.3-3.8l1.2-2.2l1.1-2.3l1-2.4l1.6-4.1l.6-2.5l1-4.1l.3-2.5l.3-2.4l.2-4l-.1-4.6l-.6-5.9l-.3-2l-.8-3.5l-1.1-4l-1.5-3.8l-1.8-4.2l-.1-.6v-.5l.3-.5l.4-.4Z" class="g0"/>
<path d="M850.5 153.9l.5 .3l.3 .5l.1 .6l-.1 .5l-.5 1.5l-.8 4.5l-.2 2.3h-1l.1-3.1l-.2-3.2l-.2-1v-.5l.2-.6l.4-.4l.5-.3l.5-.1l.6 .1l.5 .3l.4 .4l.2 .5l.2 1.1l.1 1.9l.1 1.8l-.1 3.3l-.3 1.8l-.4 1.6l-.4 .6l-.5 .4l-1.3 .6l-.5 .2l-.6-.1l-.5-.2l-.4-.4l-.3-.6l-.4-1.4l-.1-1.9l.3-3.5l.9-4.8l.6-1.8l.3-.5l.4-.4l.5-.2h.6Z" class="g0"/>
<path d="M854 151.8l.6 .2l.4 .5l.2 .5v.5l-.2 1.9l-1.4 3.5l-3 6l-3.3 5.9l-3.4-.2l4.8-8l5.1-7.8l3.3 .6l-5.4 8.3l-1.1 1.4l-1 .9l-.5 .3l-.6 .1l-.6-.1l-.5-.3l-.3-.4l-.3-.7l-.2-.5v-.6l.2-.5l.4-.4l.5-.3l.6-.1l.2 .1l5.1-7.9l.8-1.2l1-1.2l.4-.4l.5-.2h.6l.5 .1l.4 .4l.3 .4l.2 .5v.6l-.2 .5l-.7 1.1l-5.9 9.1l-3.9 6.4l-.9 1.6l-.9 1.2l-.4 .4l-.6 .2h-.6l-.6-.2l-.4-.4l-.3-.6v-.6l.1-.5l.6-1.2l4.1-7.4l3-5.8l1.1-3l.2-1.3l.1-.5l.4-.5l.4-.3l.6-.2Z" class="g0"/>
<path d="M881.1 159.7l-.2-.5v-.6l.2-.5l.4-.5l.8-.5l.5-.1l.6 .1l.5 .3l.3 .4l.2 .6v.5l-.2 .6l-.3 .4l-.8 .5l-.6 .1l-.5-.1l-.5-.3Z" class="g0"/>
<path d="M880.3 162.2l-.5-.2l-.4-.4l-.3-.5v-.6l.1-1.7l3.1-.1l-7.8 12.1l-.1 .2l-2.4-.3l3.2-4l8.7-12.5l2.9 1L881 163l-2.7 4.1l-2 3.2l-2.1-.3l2.3-4.2l.9-1.7l.3-.5l.4-.3l.6-.2l.6 .1l.5 .2l.4 .4l.2 .5l.1 .6l-.2 .5l-2.5 5.1l-.8 1.3l-1 1.5l-.7 .5l-1.4 .7l-.6 .2h-.5l-.5-.3l-.4-.3l-.3-.5l-.1-.6l.1-.5l.6-1.5l1-1.8l2.3-3.8l2.8-4.3l5.2-7l.8-1l1.3-1.3l.5-.4l.6-.1l.6 .1l.5 .3l.4 .4l.2 .6v.6l-.3 .5l-12.2 17.4l-1.6 1.9l-.5 .4l-1.4 .7l-.6 .2l-.5-.1l-.6-.2l-.4-.4l-.2-.5l-.1-.6l.2-.6l.6-1.3l.8-1.5l6.7-10.3l1.2-1.9l.7-1.4l.3-.4l.5-.3l.5-.2l.6 .1l.5 .2l.4 .4l.2 .5l.1 .5l-.1 .5l-.5 1.3l-.3 1.2l-.1 1.3l-.1 .5l-.3 .5l-.5 .4l-.5 .1Z" class="g0"/>
<path d="M823.9 246.9l-.2 .5l-.5 .3l-.5 .3h-.6l-.6-.1l-.2 .2l-.5 1.1l-.4 1.8l-.3 3.8l-.1 5.9l.1 2.2l.6 7l1 7.4l1.1 5.6l.7 2.7l1.4 4.4l.9 2.4l1.9 3.9l1.1 2.1l1.2 1.9l2.1 2.7l1.3 1.3l1.4 1.2l1.3 .8l2.6 1.1l2.4 .6l2.1 .3h1.6l1.2-.1l.5-.1l.3-.6l.4-.4l.5-.2l.6-.1l.5 .2l.5 .3l.3 .5l.2 .5l-.1 .6l-.2 1l-.5 .7l-.7 .5l-1.7 .4l-1.6 .1h-2l-2.4-.3l-2.8-.7l-3.1-1.3l-1.8-1.1l-1.6-1.4l-1.6-1.5l-1-1.2l-1.3-1.9l-1.4-2.1l-1.2-2.3l-2-4l-1-2.7l-1.4-4.6l-.8-2.8l-1.1-5.8l-1.1-7.6l-.6-7.1l-.1-2.4l.1-6.1l.4-4.1l.4-2.2l.8-2l.4-.5l1-.9l.6-.4l.8-.1l1.4 .2l.6 .2l.4 .4l.3 .4l.1 .6Z" class="g0"/>
<path d="M819.6 245.9l.1-.6l.2-.5l.5-.4l.5-.2l1.7-.3l15.3-6.9l10-3.9l8.1-2.7l7.9-2.4l5.5-1.3l2.7-.6l4-.7l7.1-1l4.3-.3h1.7l.6 .1l.5 .2l.4 .5l.2 .5v.6l-.2 .5l-.4 .5l-.5 .2l-.5 .2h-1.7l-4.1 .3l-6.9 .9l-3.9 .7l-2.6 .6l-5.4 1.3l-7.8 2.3l-7.9 2.7l-9.8 3.8l-15.4 6.9l-2.2 .5l-.6 .1l-.5-.2l-.5-.4l-.3-.4Z" class="g0"/>
<path d="M890.2 226l.5-.4l.5-.1l.6 .1l.5 .2l1.4 1l2.3 1.8l1.6 1.5l2.4 2.6l1.9 2.5l2.5 4.2l2.2 4.7L908 248l.7 2.1l1.1 5.7l.8 5.7l.2 4.2v2.1l-.2 3.5l-.6 5.5l-.6 3.5l-.4 1.5l-.2 .5l-.4 .4l-.5 .3h-.6l-.5-.1l-.5-.3l-.4-.5l-.1-.5V281l.4-1.5l.5-3.2l.6-5.3l.2-3.4v-1.9l-.2-3.9l-.7-5.4l-1.1-5.5l-.6-1.9l-1.3-3.7l-2.1-4.4l-2.3-3.9l-.9-1.2l-1.7-2l-2.8-2.7l-2.1-1.7l-1.3-.9l-.4-.4l-.2-.5l-.1-.6l.2-.6Z" class="g0"/>
<path d="M844.3 310.8v-.5l.2-.6l.3-.4l.5-.3l1.5-.5l3.7-1.8l15.4-8.3l6.8-3.5l7.1-3.3l7.6-3.1l9.9-3.4l7.1-2l2.1-.5h.6l.5 .2l.5 .3l.3 .5l.1 .6l-.1 .5l-.3 .5l-.4 .4l-.5 .2l-2.1 .5l-6.9 1.9l-9.7 3.4l-7.4 3l-7 3.3l-6.7 3.4L852 309.6l-4 1.9l-1.6 .6l-.5 .1l-.6-.1l-.5-.3l-.4-.4Z" class="g0"/>
<path d="M842 250.5h.6l.5 .1l.5 .4l.3 .5l.6 1.6l1.6 2.7l2 2.7l1.4 1.6l2.7 2.5l.4 .4l.2 .6v.5l-.2 .6l-.4 .4l-.5 .3l-.5 .1l-.6-.1l-.9-.6l-2.6-2.5l-1.5-1.6l-2.2-3.1l-1.9-3l-.7-1.9l-.1-.6l.1-.6l.3-.5l.4-.3Z" class="g0"/>
<path d="M860.8 243.3l.5-.3l.5-.1l.6 .1l.5 .3l2.4 1.8l11.5 6.9l.4 .3l.3 .5l.1 .6l-.1 .6l-.3 .4l-.4 .4l-.5 .2h-.6l-.6-.2l-7.2-4.2l-5.7-3.7l-1.4-1l-.3-.5l-.3-.5v-.6l.2-.5Z" class="g0"/>
<path d="M865.4 269.3l.3 .4l.1 .6v.6l-.3 .5l-.6 .9l-.4 1.7l-.1 1.9v2.9l.1 1.5l.3 1.5l.3 1.1l.4 1l.8 1l.8 .6l.6 .1l.9-.2l1.3-1.1L871 283l.9-1.2l1-1.7l.9-2.6l.5-2.1l.2-1.7v-2l-.5-2.5l-.5-1.5l-.5-1l-.6-.6l-.6-.4h-.9l-.7 .3l-.9 .7l-1 1.2l-1.3 2.2l-.5 .3l-.5 .2h-.6l-.5-.3l-.4-.4l-.3-.5v-.6l.1-.5l.4-.9l.9-1.4l1.3-1.6l1.4-1.1l.4-.3l1.4-.5l.6-.1h1.6l.7 .2l1.3 .7l.5 .5l.8 1l.8 1.5l.7 2l.6 2.9l.1 2.6l-.3 2l-.5 2.5l-1.1 3l-1.2 2.2l-1.1 1.5l-1.3 1.6l-1.9 1.5l-.5 .3l-1.6 .5h-.7l-1.4-.2l-.7-.3l-1.3-.9l-.4-.4l-1-1.4l-.8-1.6l-.4-1.4l-.3-1.8l-.2-1.8v-3.3l.2-2.2l.4-2.2l.3-.7l.8-1.2l.5-.4l.5-.3h.5l.6 .1Z" class="g0"/>
<path d="M794.6 119.9l.5 .3l.2 .6l-.2 12.2l-.2 12.6l-.1 8.7v9.9l.2 11.3l.2 12.8l.2 6.6l.2 7l.3 7.2l.3 7l.3 7.5l.4 7.4l.4 7.2l.9 14.5l.8 12.8l.8 10.8l.6 8.5l.9 10.8l.2 3.2l-.1 .5l-.5 .3l-.2 .1l-.6-.3l-.2-.5l-.3-3.1l-.8-10.9l-.7-8.5l-.7-10.7l-.9-12.9l-.9-14.5l-.4-7.2l-.3-7.4l-.4-7.5l-.3-7.1l-.2-7.2l-.2-7l-.2-6.5l-.3-12.9l-.1-11.3V145.6l.2-12.6l.2-12.3l.2-.5l.5-.3Z" class="g0"/>
<path d="M843.1 248.2h.6l.5 .1l.5 .4l.3 .4l.5 1.1l1.8 3.2l.9 1.3l1.9 2.3l1.6 1.7l2.7 2.3l.4 .4l.2 .5v.6l-.1 .5l-.4 .5l-.5 .3l-.5 .1h-.6l-.7-.4l-2.8-2.4l-1.7-1.8l-2.1-2.6l-1.1-1.5l-1.9-3.4l-.6-1.3l-.1-.6v-.6l.3-.5l.4-.4Z" class="g0"/>
<path d="M864.1 240.3l.6-.2h.5l.6 .2l.4 .4l.9 1.2l1.8 1.7l2 1.7l2.6 1.8l3 1.8l.4 .3l.3 .5l.1 .6l-.1 .5l-.2 .5l-.5 .4l-.5 .2h-.6l-.8-.3l-2.9-1.7L869 248l-2.3-1.9l-2-2l-1.1-1.3l-.3-.5v-.6l.1-.6l.3-.4Z" class="g0"/>
<path d="M836.9 184.8l.1-.6l.3-.5l.5-.3l.5-.2l11-1.5l10.1-.5h8l3.8 .3l3.5 .4l2.3 .5l.5 .3l.4 .4l.2 .5l.1 .6l-.2 .5l-.3 .5l-.5 .3l-.5 .2l-.6-.1l-2-.4l-3.3-.5l-3.5-.2l-7.9-.1l-9.8 .6l-10.9 1.4h-.5l-.6-.2l-.4-.4l-.2-.5Z" class="g0"/>
<path d="M840 195.9l.2-.5l.4-.5l.5-.2l.5-.1h1.5l13.7-2.3l9.2-1l3.4-.2h2.2l3 .3l1.8 .5l.7 .4l.3 .4l.2 .5v.6l-.2 .5l-.4 .5l-.5 .3H876l-2.1-.5l-1.2-.1l-3.3-.1l-3.2 .1l-9 1.1l-13.8 2.2h-1.7l-.6-.1l-.5-.2l-.4-.5l-.2-.5Z" class="g0"/>
<path d="M870.4 183.8l-.1 .5l-.2 .5l-.4 .4l-.6 .3l-1.1 .3l-1.5 .7l-.8 .5l-.8 .9l-.6 1.2l-.1 .9l.2 1.2l.1 .3l-.1 .5l-.2 .5l-.4 .4l-.6 .3h-.5l-.6-.2l-.4-.3l-.4-.6l-.3-1.9l.1-1.7l.1-.5l.8-1.7l.3-.5l1.2-1.2l1.2-.9l2-1l1.6-.4l.6-.1l.5 .2l.5 .3l.3 .5Z" class="g0"/>
<path d="M821.9 214.3v.6l-.1 .5l-.2 .2l-.7-2.5l13.9-3.9l7.2-1.7l10.1-1.7l9.9-1.3l9.1-.6h9.3l2.6 .1l3.2 .3l2.5 .4l.5 .3l.5 .3l.2 .5l.1 .6l-.1 .6l-.3 .4l-.5 .4l-.5 .2H888l-1.1-.3l-4.2-.4l-2.4-.2h-9.1l-8.9 .7l-9.7 1.2l-10 1.7l-7.1 1.6l-13.7 4l-2.4 .5h-.6l-.6-.2l-.4-.5l-.3-.5l-.1-.6l.2-.6l.4-.5l.5-.3l1.2-.5l.6-.1l.5 .1l.5 .3l.4 .4Z" class="g0"/>
<path d="M807.5 328.9l.2 .5l-.1 .6l-2.5 3.7l-4.2 5l-.5 .3l-.5-.2l-.3-.2l-.1-.5l.2-.5l4-4.9l2.5-3.6l.5-.4l.5 .1Z" class="g0"/>
<path d="M805 329.4l.5-.2l.6 .1l1.2 .7l1.5 .3l1.7 .1l4-.1l12.9-.9l11.7-1.2l9.8-1.2l6.8-.8l7-.9l11.8-1.5l11.9-1.6l.6 .1l.3 .4l.1 .3l-.3 .5l-.5 .3l-11.9 1.6l-11.8 1.5l-7 .9l-6.8 .9l-9.8 1.1L827.6 331l-13 1h-4.1l-1.9-.1l-1.8-.3l-1.6-.9l-.3-.5v-.5Z" class="g0"/>
<path d="M784.4 114.2l.4-.3h.6l1.4 .6l4 2.3l1.2 .8l2.8 2.4l.2 .5l-.2 .5l-.2 .2l-.5 .2l-.3-.1l-2.8-2.4l-1.1-.7l-3.8-2.2l-1.3-.6l-.4-.3l-.1-.6Z" class="g0"/>
<path d="M794.5 119.4l.1-.6l.4-.4l4.6-2l7-2.6l11.2-3.5l11.7-3.2l9.8-2.5l10.3-2.4l10.5-2.2l10.3-2l10.1-1.6l8.9-1l8-.6l4.4-.1l6.6 .1l4.4 .4l.5 .2l.3 .6l-.1 .2l-.3 .5l-.5 .1l-4.4-.3l-6.5-.2l-4.4 .1l-5.2 .4l-8.5 .9l-9.8 1.4l-10.1 1.8l-10.4 2.2L843 105.5l-10 2.4l-12 3.2l-12 3.6l-8.7 3.2l-4.6 2l-.6 .1l-.5-.4Z" class="g0"/>
<path d="M856.5 217h-.2l-.1-.2l-.1-.3l-.3-.1l-.4 .1l-.5 .2l-.3 .3l-.4 .3l-.5 .5l-.4 .5l-.4 .5l-.4 .7l-.3 .6l-.2 .7l-.1 1v.5l.1 .5l.2 .5l.3 .3l.3 .2l.5 .1l.6-.1l.7-.1l.7-.3l.8-.4l.8-.6l.7-.6l.7-.7l.3-.4l.4-.8l.3-.8l.2-.8v-.7l-.2-.5l-.3-.5l-.5-.3l-.6-.2l-.7-.1h-.8l-1.2 .2l-.7 .1l-.5 .2h-.1l-.2-.2V216l.2-.1l.4-.2l.8-.1l1.3-.2h.8l.8 .1l.8 .2l.6 .5l.4 .5l.3 .8v.8l-.2 .9l-.3 .9l-.5 .9l-.3 .4l-.7 .8l-.8 .7l-.9 .6l-.8 .4l-.8 .4l-.8 .1l-.7 .1l-.6-.1l-.6-.3l-.4-.4l-.3-.6l-.1-.7v-.6l.1-1.1l.3-.8l.3-.7l.4-.7l.4-.6l.5-.5l.4-.5l.5-.4l.4-.3l.6-.3l.6-.1h.1l.5 .2h.1l.1 .1l.2 .5v.2l-.2 .2Z" class="g0"/>
<path d="M850.5 221.5l.1-.2l.1-.1l4-1.6l2.5-.9l1.3-.4h.2l.2 .2v.3l-.2 .1l-1.3 .4l-2.4 .8l-4.1 1.7h-.2l-.1-.2Z" class="g0"/>
<path d="M851.5 222.4l.1-.2l.1-.2l3.7-1.6l4.3-1.6l.4-.1h.1l.1 .1l.1 .1l-.1 .2l-.1 .1l-4.6 1.7l-3.6 1.7h-.3l-.1-.1Z" class="g0"/>
<path d="M838.4 184.2l.5-.3h.6l.5 .1l.5 .4l1 1l.4 .7l1.1 3.4l1.1 5.4v.6l-.2 .5l-.4 .4l-.5 .3l-.5 .1l-.6-.1l-.5-.3l-.3-.5l-.2-.5l-1.1-5.1l-.9-2.8l-.7-.8l-.4-.5l-.1-.5v-.6l.3-.5Z" class="g0"/>
<path d="M839.8 185.8h.6l.5 .1l.5 .4l.3 .4v.1l-2.3 1.2l2.7-1.4l.2 .2l.1 .4l-3.3 .5l-.2-1.4v-.6l.1-.6l.4-.4l.5-.3l.5-.1l.6 .1l.5 .3l.4 .4l.2 .5l.3 1.6l-.1 .6l-.2 .5l-.4 .5l-.5 .2l-.6 .1l-.6-.2l-.5-.3l-.3-.5l-.5-1.2l-.1-.6l.1-.6l.3-.5l.5-.4l.6-.2l.6 .1l.5 .2l.4 .5l.7 1.1l.2 .5l.3 1.2v.6l-.1 1.3l-.1 .6l-.4 .4l-.4 .3l-.6 .2l-.6-.1l-.5-.2l-.4-.4l-.2-.5l-.3-1.2l-.5-1.1l-.2-.6l.1-.6l.3-.5l.4-.4Z" class="g0"/>
<path d="M376.1 184.3l.3-.5l.5-.4l.5-.1h.6l1.6 .3l2.1 .2l11.6 .3l23.9-.1l25.3-.1l26.3-.1l22.9-.3l21.2-.5l25.2-.9l2.5-.1l.5 .1l.5 .3l.4 .4l.2 .5l.1 .6l-.2 .5l-.3 .5l-.5 .3l-.6 .1l-2.4 .1l-25.3 .9l-21.2 .5l-23 .2l-26.2 .2l-25.4 .1l-23.9 .1l-11.8-.3l-2.3-.2l-1.9-.4l-.5-.2l-.5-.4l-.2-.5l-.1-.6Z" class="g0"/>
<path d="M493.3 89.9l-.1 .6l-.3 .5l-.5 .3l-.5 .2l-1.4 .2l-1.9 .9l-1.2 1L486.2 95l-.7 1.2l-.9 1.9l-.9 2.4l-1 4.2l-.8 5.5l-.2 2.4V120l.2 5.8l.3 3l.7 5l.6 2.8l1.2 4.6l.8 2.6l1.8 4.6l1 1.9l1.8 2.7l1 1.2l1.9 1.6l2.3 1.2l2 .5l1.5-.3l3-1.6l1-.8l1.9-2.1l2.2-3l2-3.4l2.4-5.4l1.2-3.9l1.3-4.7l.8-4.8l.2-4.3v-2.6l-.4-5.2l-.7-4.2l-.6-2.4l-.7-2.4l-1.5-3.8l-2-4.1l-1-1.8L506 94.1l-1.1-1.3l-1.8-1.7l-2.2-1.3l-1.9-.6l-1.7-.2h-1.4l-1.8 .3l-.2 .1l-.1 .4l-.3 .5l-.5 .3l-.5 .2h-.6l-.5-.3l-.4-.4l-.4-1.1l-.1-.8l.3-.6l.6-.5l1.4-.8l.5-.2l2.2-.4h1.9l2.2 .3l2.5 .7l2.8 1.7l2.3 2.1l1.4 1.5l2 2.9l1.2 2l1.1 2.1l1 2.3l1.6 4l.8 2.6l.6 2.6l.5 2.7l.5 4.5l.2 2.8v2.7l-.2 4.5l-.4 2.7l-.5 2.5l-1.3 5.1l-1.3 4l-1 2.2l-1.6 3.6l-2.2 3.7l-2.4 3.3l-2 2.3l-1.4 1.1l-3.6 2l-.5 .2l-2.2 .4h-.6l-2.6-.6l-3-1.6l-2.4-1.9l-1.4-1.7l-2-2.9l-1.2-2.3l-1-2.4l-.9-2.5l-.9-2.7l-1.2-4.8l-.6-3.1l-.8-5.1l-.2-3.1l-.3-6l.1-7.6l.4-4.9l.5-3.4l1.1-4.6l1-2.7l1.1-2.2l.9-1.6l1.5-1.7l1.7-1.5l2.6-1.2l2.1-.4h.5l.6 .2l.4 .3l.3 .5Z" class="g0"/>
<path d="M474.6 99.9l.3 .4l.2 .6l-.1 .6l-.3 .5l-.8 1.1l-.8 2.4l-1.1 4.6l-.7 4.4l-.5 7.1v4.1l.5 5.6l1.2 5.7l1.3 3.8l2.1 4.2l1.5 2.5l1.4 2l1.2 1.4l2.6 2.5l.2 .6v.5l-.2 .6l-.3 .4l-.5 .3l-.6 .1h-.5l-1.1-.8l-2-1.9l-1.3-1.7l-1.6-2.1l-1.7-2.7l-2.2-4.5L470 140l-1.2-4.3l-.7-3.8l-.6-6v-2.3l.1-4.2l.5-5.3l.7-4.5l1.2-5l.9-2.8l.2-.5l1-1.3l.4-.4l.6-.2l.5-.1l.6 .2Z" class="g0"/>
<path d="M473.5 99.5v-.6l.2-.5l.3-.5l.5-.3l1.6-.6l3-2.2l6-3.4l5-2.5l.5-.2h.6l.5 .3l.4 .4l.3 .5v.6l-.1 .5l-.3 .5l-.5 .3l-4.8 2.5l-5.8 3.3l-3.1 2.1l-2.1 .9l-.5 .2l-.6-.1l-.5-.3l-.4-.4Z" class="g0"/>
<path d="M541.2 217.8l.5-.2l.5 .2l1.6 1.3l1.1 1.8l.9 2.2l.7 2l.6 2.5l.7 4.2l.3 5.2v4.3l-.1 2.4l-.7 6.9l-1.2 7.6l-1.6 7.7l-2.3 8.7l-2.4 7.4l-1.7 4.4l-3.5 7.8l-3.2 6.4l-.7 1.1l-.5 .4h-.5l-.3-.2l-.2-.4l.1-.6l.6-1.1l3.3-6.3l3.4-7.8l1.7-4.3l2.4-7.3l2.2-8.5l1.6-7.7l1.2-7.6l.7-6.8l.1-2.2l-.1-4.3l-.3-5.1l-.6-4l-.6-2.4l-.6-1.9l-.9-2l-.9-1.5l-1.3-1l-.3-.5l.1-.6Z" class="g0"/>
<path d="M864.8 268.1l.5-.4l.5-.3h.5l.6 .1l1.7 .9l1.3 1.2L871 271l.8 1.8l.3 1.7l-.2 2l-.6 1.9l-1.2 2.3l-1 1.6l-1 1.2l-.5 .5l-.5 .2l-.6-.1l-.5-.2l-.5-.3l-.2-.5l-.1-.6l.1-.6l1.1-1.5l.9-1.4l1-2l.5-1.3v-1.2l-.2-.8l-.5-1.1l-.6-.8l-.8-.7l-1.2-.6l-.5-.3l-.3-.5l-.1-.5v-.6Z" class="g0"/>
<path d="M490.6 245.5l-.4-.4l-.1-.5V244l.2-.5l.7-1.2l.4-.4l1.2-.9l1.2-.7l2.6-1.4l4.8-2.1l4.7-1.6l5.4-1.6l5.7-1.2l5.7-.9l5.3-.4l3.1-.1l4.6 .1l1.7 .2l1.9 .3l.9 .3l.4 .4l.3 .5v.5l-.1 .6l-.3 .5l-.4 .3l-.6 .2l-.8-.1l-3.3-.4l-4.3-.2l-3 .1l-5 .5l-5.5 .8l-5.5 1.2l-5.2 1.5l-4.5 1.6l-4.6 2l-2.4 1.2l-1.8 1.2l-.5 .9l-.4 .4l-.5 .3l-.6 .1l-.5-.2Z" class="g0"/>
<path d="M491.4 244l.1-.5l.3-.5l.5-.3l.5-.2l10-1.1l5.3-.2l6.5 .2l.6 .2l.4 .3l.3 .5l.2 .5l-.1 .6l-.2 .5l-.4 .4l-.5 .3h-.6l-6.2-.2l-5 .2l-9.8 1h-.6l-.5-.2l-.4-.4l-.3-.5Z" class="g0"/>
<path d="M512.1 244.2l-.1-.5l.1-.6l.3-.5l.4-.4l1.4-.9l3.3-1.3l3.3-1.1l6.3-1.6l5.5-1.1l3.5-.6h.6l.5 .2l.4 .4l.3 .5l.1 .6l-.1 .5l-.3 .5l-.5 .3l-.5 .2l-3.5 .6l-9.5 2.1l-5 1.6l-2.9 1.2l-1.2 .7l-.5 .2h-.5l-.6-.1l-.4-.4Z" class="g0"/>
<path d="M539 236.8l-.5 .4l-.5 .2h-.6l-.5-.2l-.7-.4l-3.9 .1l-.4-3.2l1.1-.1l.6 2.8L516 240h-.5l-.6-.1l-.4-.4l-.3-.4l-.1-.5V238l.2-.5l.4-.4l.5-.2l2.7-.9l9.7-2.8l1.9 2.8L514 239.4l-2-2.5l8.4-2l2.1 2.9l-14.4 3l-1.2-1.7l4.6-.7l10.6-2l1.4-.3l.6 .1l.5 .2l.5 .4l.2 .5l.1 .6l-.1 .5l-.3 .5l-.5 .3L523 240l-9.2 2.9l-2.1-2.4l5.8-1.9l2.8-.7l1.4-.3h.6l.6 .3l.4 .4l.3 .5l.1 .6l-.2 .6l-.3 .5l-.5 .3l-1.7 .6l-1.3 .2h-.6l-.5-.2l-.4-.4l-.3-.5v-.6l.1-.6l.3-.4l.4-.4l1.6-.8l4.6-1l4.2-.6l4.4-.2H535l.1-.5l-2.4 .1l-9.9 1.9l-4 .4l-5.7 1.1l-1.3 .2l-1.2 .3l-2.8 .9l-1.1 .3l-2.6 .9l-1.5 .2l-.2-2.8l9.4-.7l1.4 .2l.6 .1l.4 .4l.4 .5l.1 .5l-.1 .6l-.3 .5l-.9 1.2l-.5 .4l-1.4 .6l-1.4 .6l-2.6 .8l-.6 .1l-.5-.1l-.5-.3l-.3-.4l-.2-.6v-.5l.2-.6l.4-.4l.5-.3l3-1.1l1.9-.8l.6-.1h.6l.5 .3l.3 .4l.3 .5v.6l-.2 .5l-.3 .5l-.5 .3l-3.5 1.4l.2-2.4l-.3-.9l.3 1l-6.7 .4l-2.7 .3h-.6l-.5-.3l-.4-.4l-.3-.5v-.6l.2-.6l.4-.5l.5-.3l1.3-.4l2.8-.6l2.3-.8l1.4-.3l2.4-.8l1.6-.4l1.5-.3l5.7-1l2.8-.3l11.2-2l3.1-.2l1.6 .2l.9 .4l1 .9l.4 .4l.1 .6v.6l-.3 .6l-.4 .4h-.4l.6 .9l.1 .6v.5l-.3 .5l-.4 .4l-.6 .2h-.5l-1.2-.1h-2.5l-4.1 .2l-3.9 .5l-4.2 1l-1 .5l-.6 .1l-.4-3.2l.4 3.2l-1.4 .3l-4.2 1.4l-1.4 .5l-1.8 .3h-.6l-.5-.2l-.5-.4l-.2-.5l-.1-.6l.1-.6l.4-.5l.5-.3l2.7-1.1l9.1-2.9l1.3-.6l.9 3.1l-15.1 2.8l-3.1 .2l-1.2-.4l-1.1-.9l-.3-.5l-.2-.5v-.6l.3-.6l.4-.4l.6-.2l16.1-3.4l3-.7h.6l.5 .2l.5 .3l.3 .5l.1 .6l-.1 .5l-.2 .5l-.4 .4l-.5 .2l-10 2.4l-2.9 .6l-1.6 .1l-.6-.1l-.5-.3l-.4-.4l-.2-.6v-.6l.2-.5l.4-.5l.5-.2l3-.8l15.3-3.5l2.6-.5h.6l.5 .1l.5 .4l.3 .4l.1 .6v.5l-.3 .5l-.4 .4l-.5 .3l-13.2 3.8l.2-3.2l15.1-3.1l1.6-.4h.5l1.4 .2l.6 .2l.4 .3l.3 .5l.2 .6l-.1 .5l-.3 .5l-.4 .4l-.5 .2l-4.3 .8h-1.6l-.5-.1l-.5-.2l-.4-.4l-.2-.5v-.6l.1-.5l.4-.5l.4-.3l.5-.1l1.4-.2l4.6-.1l.8 .2l1.2 .6l.4 .4l.3 .5l.1 .5l-.1 .6Z" class="g0"/>
<path d="M425.2 27l-.3 .5l-.5 .2l-1.3-.1l-4.1 .9l-3.1 .8l-3.4 1.3l-1.7 .8l-1.6 .9l-1.5 1L406 34.9l-.8 1l-1.1 1.4l-.7 1.3l-.3 .2h-.5l-.3-.2l-.3-.4l.1-.6l.6-1.1l1.2-1.7l.9-1l1.9-1.7l1.6-1.1l1.7-1l1.8-.9l3.6-1.3l4.5-1.3l3-.5h1.5l.5 .2l.3 .5Z" class="g0"/>
<path d="M389.9 455.4l-.1 .5l-.4 .5l-.4 .3l-.6 .2L387 457l-.6-.1l-.5-.3l-.4-.4l-.2-.6V455l.2-.5l.8-1.4l.7-.6l1.5-.7l5.4-2l8.9-2.7l8.9-2.2l10.7-2.3l7.7-1.4l8.1-1.2l9.2-1.1l8.6-.7l8.5-.5l9.2-.2l8.1 .1l8.4 .4l11 1l9.7 1.4l8.1 1.4l8.1 1.8l7.3 1.8l.5 .3l.4 .4l.3 .5v.6l-.1 .5l-.4 .5l-.4 .3l-.6 .1h-.6l-7.1-1.9l-8-1.7l-8.1-1.4l-9.5-1.3l-10.9-1l-8.2-.4l-8-.1l-9.1 .2l-8.4 .5l-8.4 .7l-9.1 1.1l-8.1 1.2l-7.6 1.3l-10.5 2.3l-8.8 2.2l-8.7 2.6l-5.2 1.9l-.3-.6l.1 .1l.3 .5Z" class="g0"/>

</g>
</svg>
