<svg x="0" y="0" width="1222" height="1463" viewBox="0 0 1222 1463" version="1.1" xmlns="http://www.w3.org/2000/svg" style="display: block;margin-left: auto;margin-right: auto;">
<defs>
<clipPath id="c_1"><path d="M0,0H1222V1463H0Z"/></clipPath>
<style>

.g0{fill:#5F6368;}

</style>

</defs>
<path d="M0 0V1463H1222V0Z" fill="#FFFFFF" stroke="none"/>
<g clip-path="url(#c_1)">
<path d="M387.5 149.5l-.4-.6l-.2-.7l.1-.7l2.9-3.9l4.9-5.7l8.1-8.4l23.6-21.6l3.2-2.5l.6-.1l.7 .1l.7 .4l.4 .5l.3 .7v.7l-.3 .6l-2.9 2.7l-23.4 21.5L395 143.8l-4.9 6.1l-.7 .2l-.7 .1l-.6-.2Z" class="g0"/>
<path d="M562.7 266.9l.7 .2l.6 .3l.5 .5l3.2 13.3L574 303l6.3 18.4l3.7 9.5l7.7 17.9l10.5 21.8l.2 .7v.7l-.3 .6l-.5 .6l-.6 .3l-.7 .1l-.7-.2l-.6-.3l-.4-.6l-10.6-22l-7.8-18l-5.5-14.6l-5.9-17.7l-7.4-27.4l-.7-4.1l.3-.7l.4-.6l.6-.3Z" class="g0"/>
<path d="M216.6 135.7l-.5-.5l-.2-.7l-.1-.7l.2-.6l1.9-3.6l7.3-6.8l9.8-8.2l2.3-1.8l7.7-5.1l5.4-3.2l5.4-2.7l5.2-2.1l2.6-.7l4.8-.8l4.6 .2l3.9 1.5l3.2 2.7l2.4 3.7l1.6 4.4l1.2 5.4l1 8.9l.5 19.7l-.8 25.2l-.2 .7l-.4 .6l-.5 .4l-.7 .2h-.7l-.7-.3l-.5-.5l-.3-.6l-.1-.7l.8-25l-.5-19.4l-.9-8.6l-1.1-4.9l-1.5-3.8l-1.9-2.9l-2.2-1.8l-2.7-.9l-3.4-.2l-4.1 .8l-2.2 .6l-4.7 1.9l-5.1 2.6l-7.7 4.7l-7.3 5.1l-9.5 7.9l-6.8 6.5l-1.4 2.7l-.5 .6l-.5 .4l-.7 .1l-.7-.1Z" class="g0"/>
<path d="M561.7 250l1.3-.4l1.4 .1l1.3 .6l1 1l1.5 2.2l3.7 4l5.2 4.4l4.7 3.3l5.9 3.7l7.3 3.9l8.3 3.8l9.7 4.1l16.4 5.6l18.4 5.7l30.7 8.2L723 310.5l1.3 .5l1 .9l.7 1.3l.2 1.4l-.3 1.3l-.7 1.2l-1.1 .9l-1.4 .4h-1.4L676.6 308l-31-8.3L626.9 294l-16.6-5.7L600.1 284l-8.7-4l-7.6-4.1l-6.4-3.9l-5.2-3.7l-5.8-4.9l-2.7-2.7l-1.8-2.1L560 256l-.5-1.3l-.2-1.4l.4-1.4l.8-1.1Z" class="g0"/>
<path d="M211 206.6l1.1 .9l.7 1.2l.2 1.4l-.2 1.4l-.6 1.6l-.6 1.1l-1.7 2.1l-1.5 1.4l-3.5 2.9l-3.9 2.7l-17 10.2L129.8 264l-17.4 9.7l-1.4 .5l-1.4-.1l-1.3-.5l-1.1-.9l-.7-1.3l-.2-1.4l.3-1.3l.7-1.3l1.1-.9l17.4-9.6l54.1-30.5l16.7-10l3.5-2.5l2.9-2.3l1-.9l.7-1l.4-1l.7-1.3l1.1-.9l1.3-.4h1.4Z" class="g0"/>
<path d="M109.6 267.5l1.4 .1l1.3 .6l1 1l.6 1.3l.4 1.5l12.3 33.2l.2 1.4l-.2 1.4l-.7 1.3l-1.1 .9l-1.3 .5h-1.4l-1.4-.5l-1.1-.9l-.7-1.2l-12.4-33.5l-.5-2l-.1-1.4l.3-1.4l.9-1.2l1.1-.8Z" class="g0"/>
<path d="M108.8 371.6l-.7 .3h-.7l-.7-.2l-.5-.5l-1.9-2.2l-1.4-2.6l-1-2.9l-.7-2.6l-.4-3.2v-3.1l.4-5.5l.9-4.8l.7-2.5l1.4-4.3l1-2.7l1.3-2.8l2.8-5l1.9-3l4.4-6.1l4.3-5l2.8-3l3.2-2.9l5.6-4.5l3.6-2.5l3.7-2.3l6.3-3.5l3.8-1.6l3.9-1.3l4-1l6.4-.5l3.9 .2l3.7 .6l3.6 .9l2.4 .9l3.4 1.7l3.3 2.2l3.1 2.8l4.6 5.7l2.6 3.9l2.5 4.2l2.2 4.4l1.5 3.2l1.9 4.9l1.8 5.2l1.7 5.4l2.4 10.1l1.9 9.2l1.4 7.9l1.6 11.3l.5 6.7l-.1 .7l-.3 .7l-.5 .5l-.7 .2l-.7 .1l-.7-.2l-.5-.5l-.4-.6l-.2-.6l-.5-6.6l-1.5-11.1l-1.4-7.7l-1.9-9.1l-2.4-9.9l-1.6-5.3l-1.7-5l-1.9-4.8l-3.5-7.2l-2.4-4l-2.4-3.7l-4.3-5.3l-2.7-2.3l-2.8-1.9l-3-1.5l-2-.7l-3.2-.9l-3.3-.4l-3.4-.2l-5.9 .4l-3.4 .9l-3.6 1.2l-3.5 1.6l-5.9 3.2l-3.5 2.2l-3.4 2.4l-5.6 4.4l-2.8 2.7l-2.7 2.8l-2.6 2.8l-3.7 4.9l-3.8 5.8l-2.7 4.7L108 339l-1.3 4l-.6 2.3l-.8 4.3l-.5 5.2l.1 2.7l.4 2.7l.5 2.3l.9 2.4l1.1 2l1.4 1.6l.4 .6l.1 .7l-.1 .7l-.3 .6Z" class="g0"/>
<path d="M31.4 332.7l.5-1.3l1-1.1l1.2-.7l1.4-.2l3 .1l6.6 1l9.5 2.2l9.6 3l7.6 3.1l7.8 3.8l8.6 4.9l9.1 6.2l8.8 6.8l9 7.8l8.6 8.2L136 389.4l11.4 12.8l9.8 12.1l5.6 7.6l4.3 6.8l3.4 5.9l2.4 4.7l2.8 6.4l.6 1.9l.2 1.4l-.3 1.4l-.8 1.2l-1.1 .8l-1.3 .5l-1.5-.1l-1.3-.5l-1-.9l-.7-1.3l-1.5-4l-3.8-7.7l-3.1-5.5l-4.1-6.5l-5.3-7.2l-9.6-11.7L130 394.9l-12.1-12.6l-8.4-8l-8.6-7.5l-8.4-6.5l-8.7-5.9l-8.1-4.6l-7.3-3.6l-7-2.8l-9-2.8l-8.8-2l-6-.9l-2.3-.1l-1.4-.3l-1.2-.7l-.9-1.1l-.4-1.4Z" class="g0"/>
<path d="M159.3 427.5l-.6-1.2l-.1-1.3l.4-1.2l.7-1.1l2.3-2.2l2.7-2l2.6-1.7l3.4-1.8l4.1-1.8l4.8-1.7l5.4-1.4l6-.8l3-.1h3.1l3.2 .2l3.1 .4l3.2 .6l3.1 .9l3 1l3 1.4l3 1.6l2.7 1.7l2.6 2.1l2.6 2.4l4.1 4.7l3.2 4.5l2.5 4l1.9 3.4l1.3 2.8l1.3 3.5l.2 1.9l-.3 1.3l-.7 1.1l-1.1 .7l-1.3 .3l-1.3-.1l-1.2-.5l-.9-.9l-.5-1.2l-1.2-3.4l-2.7-5.2l-2.3-3.6l-2.9-4.1l-3.6-4.1l-2-1.8l-2.2-1.7l-2.2-1.4l-2.4-1.3l-2.5-1.1l-2.4-.9l-2.7-.7l-2.6-.5l-2.6-.3l-5.4-.2l-5.2 .4l-4.9 1l-4.5 1.3l-5.6 2.4l-2.9 1.6l-2.2 1.4l-2.1 1.6L165 428l-1.1 .8l-1.2 .3l-1.3-.1l-1.2-.6Z" class="g0"/>
<path d="M226.9 431.1v-1.4l.5-1.4l.9-1.1l1.3-.6l17.2-6.7l11.2-3.6l9.1-2.5l10.5-2.5l11.5-2.2l12.5-1.8l13.4-1.1l6.6-.3l7-.1l7 .1l6.7 .4l7.3 .8l7.2 1l6.5 1.2l6.6 1.5l6.5 1.8l6 1.9l6.1 2.4l5.8 2.5l5.4 2.7l5.3 3.1l5 3.1l4.6 3.3l4.5 3.5l4.2 3.5l3.9 3.6l6.5 7.1l5.1 6.5l4 5.4l2.8 4.4l2 3.5l1.7 3.7l.3 1.3l-.1 1.4l-.6 1.3l-1.1 1l-1.2 .6l-1.5 .1l-1.3-.4l-1.2-.9l-.8-1.1l-.5-1.2l-2.7-5.1l-2.6-4.1l-3.7-5.1l-4.9-6l-6.1-6.7l-3.5-3.2l-3.9-3.4l-4.2-3.2l-4.3-3l-4.7-3l-5-2.8l-5-2.5l-5.4-2.4l-5.7-2.2l-5.7-1.8l-6.1-1.7l-6.3-1.5l-6.1-1.1l-6.8-.9l-7-.7l-6.4-.4l-6.7-.1h-6.7l-6.4 .3l-12.9 1.2l-12.1 1.7l-11.1 2.1L269 421.7l-8.7 2.5l-13.8 4.5l-11.6 4.6l-2.6 1l-1.4 .2l-1.4-.3l-1.2-.7l-.9-1.1Z" class="g0"/>
<path d="M435.4 446.2l.6 1.2l.1 1.4l-.3 1.3l-.8 1.1l-2.3 2.2l-1.9 1.4l-1.2 .6l-1.4 .1l-1.3-.3l-1.1-.8l-.8-1.1l-.4-1.3l.1-1.3l.6-2.5l.7-1.4l2.3-3l2.5-2.8l5.4-5.2l8.2-6.7l7.2-5.3l8.5-5.7l10.4-6.2l11.6-6.1l6.4-3.1l6.5-2.9l7.4-3.1l7.6-2.9l7.2-2.5l7.6-2.4l7.7-2.2l7.5-1.8l7.8-1.7l7.8-1.5l7.4-1.1l7.7-.9l7.5-.5l7-.3l7.1 .1l6.9 .4l6.4 .6l6.3 1.1l6 1.4l5.5 1.6l5.3 2l5.1 2.5l8 5.2l6.2 5.1l4.6 4.7l3.2 4l2.2 3.3l1.4 2.8l.7 2.1l.2 1.3l-.3 1.4l-.7 1.1l-1 .9l-1.3 .4h-1.4l-1.3-.5l-1-.9l-.6-1.2l-.7-1.9l-.9-1.7l-1.7-2.6l-2.8-3.4l-4.1-4.1l-5.6-4.6l-7.1-4.7l-4.3-2l-4.8-1.8l-4.9-1.5l-5.5-1.2l-5.9-1l-5.9-.6l-6.5-.4h-6.8l-6.7 .2l-7.2 .6l-7.3 .8l-7.2 1.1l-7.5 1.4l-7.6 1.6l-7.2 1.8l-7.5 2.2l-7.4 2.3l-7 2.4l-7.3 2.9l-7.2 2.9l-6.3 2.8l-6.2 3l-11.3 6l-10 6l-8.3 5.5l-6.8 5l-7.8 6.4l-5 4.8l-2.2 2.4l-4.2-3.6l.5-.4l1.3-.3l1.4 .1l1.2 .6Z" class="g0"/>
<path d="M635.1 397.7l-.9-1.1l-.5-1.4l.1-1.4l.5-1.3l1.3-2l1.4-1.4l5.3-2.8l3.7-1.5l7.2-2.5l5.9-1.5l6.4-1.2l6.7-.7l7.1-.2l6.8 .5l3.4 .5l3.1 .6l3.2 .9l3 1.1l2.8 1.2l2.7 1.4l2.5 1.5l2.3 1.6l2.3 2.1l4.7 5.4l2 3.3l1.5 3l1.5 4.6l.3 2.2l-.1 1.4l-.6 1.3l-.9 1l-1.3 .7l-1.4 .1l-1.4-.3l-1.2-.8l-.8-1.1l-.4-1.4l-.2-1.7l-1.1-3l-1.1-2.2l-1.6-2.5l-3.8-4.4l-3.3-2.5l-4.2-2.4l-4.8-1.8l-5.3-1.3L682 387l-6.1-.1l-6.2 .4l-6.1 .9l-8.2 2l-6.5 2.2l-3.3 1.4l-3.6 1.9l-.7 1.1l-1 1.1l-1.3 .6l-1.4 .2l-1.3-.3Z" class="g0"/>
<path d="M678.7 384.4l-.9-1.1l-.5-1.3v-1.4l.5-1.3l1.9-3.3l2.2-2.6l2.5-2.5l3.1-2.7l6.3-4.8l8.6-5.7l6.8-4.1l8-4.2l8.7-4.2l9.3-3.9l10-3.8l10.2-3.2l10.4-2.7l10.6-2l5-.8l5.1-.5l5-.3l4.7-.1l4.7 .1l4.5 .3l4.2 .6l4.1 .8l3.9 1.1l3.4 1.1l3.4 1.4l3 1.6l3 1.9l4.2 3.6l3.2 3.6l2.2 3.1l1.6 3l1.1 3.2l.2 2l-.8 1.9l-1.4 1.7l-1.1 .9l-1.3 .5l-1.4 .1l-1.4-.5l-1.1-.9l-.7-1.2l-.3-1.4l.2-1.4l.7-1.1l-.3-.8l-1-1.8l-1.7-2.4l-2.6-2.8l-3.4-2.9l-2-1.2l-2.5-1.3l-2.8-1.2l-2.9-1l-3.3-.8l-3.7-.7l-3.6-.5l-4.1-.3l-4.3-.2l-4.3 .1l-4.7 .3l-9.5 1.2l-10 2l-10 2.6l-9.8 3.1l-9.7 3.6l-8.9 3.8l-8.3 4l-11 6l-8.9 5.6l-8.4 6.3l-2.7 2.4l-2.1 2l-1.6 2l-1.4 2.3l-.9 1.1l-1.2 .7l-1.4 .3l-1.4-.3Z" class="g0"/>
<path d="M190.3 176.3l.1 1.4l-.4 1.4l-.9 1.1l-1.2 .8l-2.9 1.4l-24 13.3l-51.4 27.6l-26.8 15l-1.4 .5H80l-1.3-.5l-1.1-.9l-.7-1.2l-.3-1.4l.3-1.4l.7-1.2l1.1-.9l27-15.2l51.4-27.6l25.8-14.3l1.8-.7l1.4-.4l1.4 .2l1.3 .7l1 1Z" class="g0"/>
<path d="M112.6 207.7l1.3-.4l1.4 .2l1.3 .6l1 1l3.2 4.9l2.6 4.7l4.1 8.3l9.4 21.9l.2 1.4l-.2 1.4l-.6 1.3l-1.1 .9l-1.3 .5l-1.4 .1l-1.4-.5l-1.1-.8l-.7-1.3l-9.2-21.5l-3.9-7.9l-2.5-4.4l-2.9-4.4l-.5-1.3l-.1-1.4l.3-1.4l.9-1.1Z" class="g0"/>
<path d="M137.9 197l1.4 .1l1.3 .5l1.1 .9l.6 1.3l13.6 40.1l.2 1.4l-.3 1.4l-.7 1.2l-1.2 .9l-1.3 .4h-1.4l-1.3-.6l-1.1-.9l-.7-1.3l-13.5-40l-.2-1.4l.3-1.4l.7-1.2l1.1-.9Z" class="g0"/>
<path d="M159.9 183.3l1.4 .5l1.1 .9l.7 1.2l.3 1.4l.2 4.6l1.1 10.2l1.5 8.2l1.9 7.8l2.2 7.3l.7 2.1l.3 1.4l-.3 1.4l-.7 1.3l-1.1 .9l-1.3 .5h-1.4l-1.4-.5l-1-1l-.8-1.2l-.8-2.3l-3.3-11.6l-1.5-6.8l-1.4-8.5l-.9-8.6l-.2-5.1l.2-1.4l.7-1.2l1.1-.9l1.3-.5Z" class="g0"/>
<path d="M268.7 369.2l.4-1.5l.9-1.2l1.3-.8l1.5-.3l2.3-.1l9.7-1.8l17.2-4.4l17.3-5.5l22-8.1l33.5-13.9l60.4-27.2l59.2-27.8l61.8-30.3l2.3-.9l1.5 .1l1.4 .6l1.1 1l.7 1.3l.2 1.5l-.4 1.5l-.8 1.3l-1.2 .9l-43.4 21.5l-47.7 22.6l-62 28.8L364 345.7l-25.4 10.1l-21.4 7.7l-16.5 5l-17.9 4.3l-6.6 1.1l-3 .1l-1.5-.1l-1.3-.7l-1.1-1.1l-.5-1.4Z" class="g0"/>
<path d="M288.9 209.8l.4 1.3l-.6 1.3l-2.4 2.6l-3.6 2.5h-1.4l-1-1l-.2-1.4l.8-1.1l3.4-2.7l4.1-2l16.1-6.6l15.1-5l13.6-3.2l14.4-2.6l11.1-1.2l5.7-.3l9.4 .3l5.6 .4l5.5 .7l8.9 1.6l5 1.4l4.9 1.8l4.8 2.1l7.1 4.6l4.1 3.1l3.7 3.5l3.4 3.7l2.2 2.7l2.9 4.4l2.5 4.6l2.3 5.1l2.7 9.4l1.4 5.9l1.4 10.4l.9 11.2l.3 9.9l-.2 14.9l-.7 8.5l-.4 2.4l-.7 1.2l-1.3 .5l-.7-.1l-.6-.3l-.7-1.2l1-11.3l.3-14.5l-.4-9.8l-.8-11l-1.5-10.1l-1.3-5.7l-2.6-9l-2.1-4.6l-2.4-4.4l-2.7-4l-5.1-6l-3.5-3.2l-3.8-2.9l-6.7-4.4l-4.3-1.9l-4.6-1.6l-4.9-1.3l-8.4-1.6l-10.8-1l-9.2-.3l-5.4 .3l-10.8 1.1L334 198.5l-13.4 3.2l-14.8 4.8L290.1 213l-3.8 1.9l-5.4-.9v-.1l2.8-2l2-2.2l1.3-.7l1.3 .3Z" class="g0"/>
<path d="M295.8 205.4v1.4l-.9 1l-6.2 3.4l-2.9-2.4l5.3-2.7l19.2-7l14.5-4.6l13.8-3.6l16.2-3.4l17.4-2.9l14-1.6l7.3-.7l20.6-.8l15.5 .1l7.8 .4l13 1.1l7.7 .9l12.6 2.2l14.3 3.2l11.1 3.2l6.2 2.3l5.9 2.5l5.5 2.8l8.1 5.3l4.4 3.5l4 3.6l5.9 6.4l2.9 4l2.6 4.2l2.2 4.3l2.7 7.4l2 7.8l1.3 6.8l.7 5.6l.4 7.8l-.4 3.8l-.6 1.2l-1.2 .6l-.7-.1l-1.2-.8l-.3-.6l.3-4.3l-.3-7.3l-.7-5.3l-1.3-6.6l-2-7.4l-2.5-7l-2-4l-2.4-3.8l-2.8-3.8l-5.5-6l-3.8-3.4l-4.2-3.3l-7.7-5.1l-5.2-2.6l-5.6-2.4l-6-2.2L484 193.3l-14.1-3.1l-12.4-2.1l-7.6-.9l-12.8-1.1l-7.6-.4l-15.4-.1l-20.4 .8l-7.1 .6l-13.8 1.7l-17.3 2.9l-16 3.3l-13.6 3.6L311.6 203l-19.1 7l-4.9 1.5l-.7-.2l-.6-.4l-.5-.6l-.1-.8l.1-.7l.3-.7l6.8-3.8l1.4-.3l1.2 .8Z" class="g0"/>
<path d="M496.4 190.1l-.1 1.5l-.7 1.4l-1 1.1l-1.4 .7l-2.5 .7l-1.4 .1l-1.5-.3l-1.2-.8l-.9-1.2l-.5-1.4l.1-1.5l.5-1.4l1-1.1l2.4-2l1.2-.7l7.6-2.7l9.9-2.7l10.1-1.9l7.8-1.1l8.8-.8l9.1-.2l9.5 .4l9.7 1.1l4.5 .8l4.7 1.1l4.6 1.4l4.3 1.5l4.3 1.9l4.1 2.1l4 2.6l3.6 2.7l3.4 2.9l3 3l2.9 3.3l2.5 3.5l2.3 3.6l2 3.7l1.8 3.9l1.5 3.8l2.5 7.8l1.7 7.6l1 7.3l.4 6.5l.1 5.6l-.4 8l-.7 4.7l-.5 1.4l-1 1.2l-1.4 .7l-1.5 .3l-1.4-.3l-1.4-.8l-.9-1.2l-.5-1.4V265l.6-4.2l.2-3l.1-9.2l-.4-6.1l-.4-3.1l-1.2-6.9l-1.9-7l-2.5-6.8l-1.6-3.4l-1.8-3.3l-1.9-3l-2.3-3l-2.4-2.9l-2.6-2.5l-2.8-2.5l-3.2-2.3l-3.4-2.2l-3.5-1.8l-3.8-1.6l-3.7-1.4l-4.1-1.2l-4.2-1l-4.2-.7l-9-1l-8.8-.3l-8.6 .2l-8.3 .7l-7.3 1l-9.5 1.9l-9.4 2.5l-6.3 2.2l-3.2-6.8l1.4-.1l1.4 .4l1.3 .8l.9 1.3Z" class="g0"/>
<path d="M724.5 312l1.4 .2l1.2 .7l1 1.1l.5 1.3l6.9 26.1l.1 1.4l-.4 1.4l-.8 1.1l-1.1 .8l-1.4 .4l-1.4-.1l-1.3-.6l-1-1l-.6-1.3l-7-26.6v-1.4l.4-1.3l.9-1.1l1.2-.8Z" class="g0"/>
<path d="M270.5 368.3l1.4 .2l1.3 .6l1 1l.5 1.3l1 4.6l.6 5.3l2 31.1l-.2 1.4l-.6 1.3l-1 1l-1.3 .6l-1.4 .1l-1.4-.4l-1.1-.8l-.8-1.2l-.4-1.3l-1.9-31.2l-.6-4.7l-.8-3.9l-.1-1.4l.4-1.4l.9-1.1l1.2-.8Z" class="g0"/>
<path d="M481.3 192l-.7-1.2l-.3-1.4l.2-1.4l.6-1.3l6.8-8.4l3.5-5.1l6.9-11.8l1.1-2.1l.8-1.2l1.2-.8l1.4-.3l1.4 .2l1.3 .6l1 1l.5 1.3l.1 1.4l-.4 1.4l-1.2 2.3l-7.2 12.4l-3.9 5.6l-6.8 8.6l-1.1 .9l-1.3 .6h-1.4l-1.4-.4Z" class="g0"/>
<path d="M497.3 165.8l-.9-1l-.6-1.3l-.1-1.5l.5-1.3l.9-1.9l.8-1l1.8-1.8l3.4-2.8l3.7-2.6l4.5-2.6l2.4-1.2l2.5-1.1l2.5-.9l2.6-.7l2.5-.4h2.7l2.5 .4l1.2 .4l1.9 1l1.3 1l1.3 1.6l.7 1.4l.6 2l.2 1.3l-.2 3.3l-.7 2.2l-.9 2.3l-1.3 2.2l-1.6 2.1l-1.8 2.1l-2 2.1l-2.3 1.8l-2.4 1.7l-2.6 1.6l-2.6 1.2l-2.8 1l-2.9 .6l-2.8 .1l-1.9-.2l-1.2-.3l-3-1.3l-.9-.5l-1.8-1.5l-.8-.9l-1.1-1.6l-.7-1.8l.2-1.8l.9-1.6l1.5-1.1l1.3-.4l1.4 .1l1.3 .5l1.1 1l.6 1.3v.4l.8 .6l1.9 .9l.9 .1l1.3-.1l1.9-.5l1.8-.6l1.9-.9l2-1.2l1.8-1.3l1.8-1.5l1.5-1.6l1.4-1.5l1.1-1.6l.8-1.5l.6-1.3l.2-1l.1-1.2l-.2-.6l-.2-.2l-.6-.3l-1.4-.3l-1.2 .1l-1.6 .2l-1.8 .5l-1.9 .7l-4 1.9l-3.8 2.3l-4.6 3.3l-2.6 2.4l-.7 1.2l-.8 1.2l-1.2 .7l-1.4 .3l-1.4-.1Z" class="g0"/>
<path d="M270.2 179l1.5 .1l1.3 .6l1 1l.6 1.2l.4 1.6l2 3l2.5 3.3l3.3 3.4l4.3 3.6l4.3 2.9l1.1 .9l.7 1.3l.2 1.4l-.3 1.4l-.7 1.2l-1.1 .9l-1.4 .4h-1.4l-1.3-.5l-3.4-2.2l-3.5-2.6l-3-2.6l-2-2.1l-3.5-4l-3-4.2l-1.1-1.9l-.4-.9l-.6-2l-.1-1.5l.3-1.3l.8-1.2l1.2-.8Z" class="g0"/>
<path d="M272.5 187.2l-1.3 .7l-1.4 .2l-1.4-.3l-1.2-.7l-1.4-1.3l-1.6 .1l-4.1 1l-6.3 2.2l-6.2 3.1l-2.7 2l-1.6 2.1l-.2 .8l.6 1.1l1.7 1.2l2.6 .7l3.5 .4h2.7l3.9-.6l3.7-1.2l4.4-2.2l5.7-3.7l1.4-.2l1.4 .3l1.2 .7l.9 1.1l.4 1.4v1.4l-.5 1.3l-1 1.1l-1.8 1.5l-3.5 2.2l-5.3 2.6l-4.9 1.6l-5.1 .8l-3.8 .1l-4.6-.6l-4.1-1l-1.2-.6l-3.2-2.1l-1.4-1.5l-1.7-3.5l-.3-2.7l.7-3.1l.8-1.6l2.5-3.3l.8-.8l3.5-2.4l3.8-2.2l3.5-1.7l7.4-2.6l4.9-1.1l4.3-.3l3 1l2.6 2.3l.9 1.1l.5 1.4l-.1 1.4l-.5 1.3Z" class="g0"/>
<path d="M265.5 191.8l-.8 1.2l-1.2 .8l-1.4 .3l-1.4-.2l-3.5-1l-2.7-.5l-2.2 .2l-2 .7l-1.8 1.2l-.7 1h2.3l3-.6l2.9-1.1l2.9-1.4l2-1.3l1.3-1.6l-1.2-.2h-.2l-1.4-1.1l2.5 1.9l-3.8 .8l-2.2 1l-1.7-3.1l1.1 .9l.7 1.3l.2 1.4l-.3 1.4l-.8 1.2l-2.2 1.4l-1.5 .5l-1.7-.2l-3.4-1.2l-1.3-.7l-1-1.2l-.4-1.4l.1-1.5l.6-1.4l1.1-1l2.7-1.8l3.8-1.9l3.4-1.4l4.3-1.1l4.1-.3l2.9 1l2.5 2.2l1 1.3l.4 1.7l-.3 1.6l-1 1.4l-2.6 2.5l-3.7 2.1l-3.9 1.3l-4.7 .7l-1.9-.2l-3.4-1.3l-1.3-.8l-.9-1.2l-.5-1.4l.2-1.5l.9-3.1l1.5-2.3l3-2L256 182l4.2-.9h1.4l3.5 .6l2.4 1.3l2.2 2.6l.9 1.6V189l-.6 3.2l-.9 1.9l-2.4 2.8l-3.6 2.5l-3.6 1.8l-3.9 1.5l-4.3 .9h-4.6l-2-.5l-3.4-1.9l-1.2-1l-.7-1.3l-.2-1.6l.2-3.2l.8-2.1l2.2-2.9l.9-.9l2.8-1.9l3.9-1.6l4.4-.5l4.5 .7l4.1 1.2l1.3 .6l1 1.1l.5 1.3l.1 1.4Z" class="g0"/>
<path d="M523.3 158.2l-.5 1.3l-.9 1.1l-1.2 .7l-1.4 .3h-.6l-3.4 2.5l-1.6 1.2l-1.2 1.3l-.6 .8l.1 .3l-.2 .3l-.6-2.2l-.1-.4l1.7-.6l2.7-1.3l2.9-1.9l2.8-2.5l.5-.7l-1.9 1.1l-1.5 .9l-2.6-1.6l2 1.2l-2.8 2l-3.4 3.1l-1.1 .9l-1.3 .4h-1.5l-1.3-.6l-1-.9l-.7-1.3l-.2-1.4l.3-1.4l.7-1.2l2.1-2l2.2-1.9l2.2-1.7l2.4-1.5l2.4-1.2l2.3-.9l2.7-.5h1.5l1.4 .6l1.1 1l1.2 1.7l.7 2l-.3 2.1l-.9 1.7l-1.5 2.3l-1.9 2l-2.2 1.9l-2.4 1.6l-2.4 1.4l-2.3 1.1l-2.2 .8l-.9 .2l-2 .2l-1.6-.2l-1.4-.7l-1-1.2l-.5-1.5l-.2-1.8l.8-2.9l1.1-1.6l1.6-1.7l3.6-3.2l2.1-1.6l2.4-1.6l2.4-1.3l2.5-1.1l2.4-.8l3-.6l1.9 .2l1.9 .6l1.3 .7l1 1.2l.5 1.4l.3 1.9l-.3 2.1l-.7 1.7l-1.6 2.6l-1.4 1.8l-1.5 1.7l-1.8 1.8l-1.8 1.5l-2 1.4l-1.9 1.3l-1.9 1l-2 .8l-2.7 .9l-2.6 .4l-1.3-.1l-1.8-.3l-1.8-.9l-1.2-1.6l-.8-1.9l-.2-1.6l.3-1.5l.8-1.9l.5-.9l1.1-1.5l1.9-2l2.1-1.8l5-3.6l2.3-.7h1.9l1.4 .3l1.2 .7l1 1.1l.4 1.3Z" class="g0"/>
<path d="M132.6 306.3l-.1 1.4l-.5 1.4l-1 1l-1.2 .7l-1.4 .4l-2 2.2l-3.3 4.1l-3.8 5.7l-2.8 5l-2.5 5.5l-2.1 5.6l-1.6 6.8l-.6 4.1l-.1 2l.1 2.6l.1 1v1.4l-.6 1.3l-.9 1.1l-1.3 .6l-1.4 .2l-1.4-.3l-1.2-.8l-.9-1.1l-.4-1.3l-.1-1.3l-.1-3.4l.1-2.6l.6-4.8l.9-3.8l1-3.9l.7-2.3l1.6-4.2l2.8-6.1l3.2-5.5l4.1-6.2l3.6-4.6l3.2-3.5l1.7-1l2.3-.7l1.4-.2l1.4 .3l1.2 .7l.8 1.2Z" class="g0"/>
<path d="M119.3 380.8l-1.3-.7l-.9-1l-.5-1.4l-.1-1.4l.3-2l.7-1.8l1.5-2.1l2.2-2.3l1.9-1.8l2.4-1.8l2.7-1.5l3.2-1.2l3.5-.7h3.7l3.8 .7l3.8 1.5l3.6 2.1l3.6 2.7l3.6 3.4l3.4 3.8l6.4 8.3l12.6 19.8l1.4 2.3l.5 1.4l-.1 1.4l-.5 1.3l-.9 1.1l-1.2 .7l-1.4 .2l-1.4-.2l-1.2-.7l-.9-1.1l-1.4-2.3l-10.7-17.1l-6-8l-4.5-5.2l-3-2.9l-2.9-2.1l-2.7-1.6l-2.6-1l-2.3-.4l-2.1 .1l-2.1 .4l-1.9 .8l-1.7 1l-1.6 1.2l-1.3 1.2l-2.2 2.5l-.1 1.1l-.4 1.3l-.9 1.1l-1.2 .8l-1.4 .3Z" class="g0"/>
<path d="M143.1 367l1.3 .6l1 1l.6 1.3l.1 1.4l-.1 1.8l1.1 6.8l1.3 5.8l2 6.7l2.2 6.5l2.6 6.2l2.1 4.4l.4 1.4v1.4l-.6 1.3l-.9 1l-1.3 .7l-1.4 .2l-1.4-.3l-1.2-.8l-.9-1.1l-2.3-4.8l-2.7-6.6l-2.4-7l-2.1-7.1l-1.9-8.9l-.8-5.3l.2-3l.3-1.3l.8-1.2l1.2-.8l1.4-.4Z" class="g0"/>
<path d="M136.5 369l1.2 .7l.8 1.2l.5 1.3l-.1 1.4l-.3 1.5l.1 1.2l.3 1.3l1.6 3.7l1.9 3.7l.4 1.3v1.4l-.5 1.3l-1 1.1l-1.2 .6l-1.4 .2l-1.4-.2l-1.2-.8l-.9-1l-1.4-2.8l-1.5-5.1l-.8-4.6l-.4-4.7l.2-1.5l.8-1.3l1.1-.9l1.5-.5l1.5 .1l1.3 .6l1.1 1.1l.6 1.3l1.5 7.5l2.1 10.6l.4 2.4v1.5l-.6 1.4l-1 1.1l-1.4 .6l-1.5 .1l-1.4-.4l-1.2-.9l-.7-1.3l-3.1-8.1l-.3-.6l3.8-3l-3.8 3.1l-1.8 2.5l-1.6-2l4.6-5.2l2.4 3.7l3.9 4.9l.7 1.2l.2 1.3l-.2 1.4l-.7 1.2l-1 .9l-1.3 .5l-1.4 .1l-1.3-.4l-1.1-.8l-3.4-3.8l-2.8-3.7l-1.5-2.3l-1-2l-.4-1.4l.1-1.5l.6-1.3l1-1.1l1.3-.6l1.5-.1l1.4 .5l1.9 .9l1.2 1l4.9 6l3.5 5.2l2.8 4.8l1.2 2.5l.3 1.3v1.3l-.5 1.3l-1 1l-1.2 .7l-1.3 .2l-1.4-.2l-1.2-.6l-.9-1.1l-1.2-2L130 385l-.4-1.4l.1-1.4l.5-1.3l1-1.1l1.2-.6l1.4-.2l1.4 .3l1.2 .8l.9 1.1l7.2 13.8l1 1.6l-7.1 4l-2.2-4.3l-2.9-4.7l-3.3-4.4l6.1-2l.3-.2l-6.1 4.9l-2.7-3.6l-1.4-2.3l-2.3-4.6L123 377l-.3-1.4l.3-1.5l.8-1.3l1.1-.9l1.4-.4l1.5 .1l1.4 .6l1 1l4.9 6.8l4.6 5.8l.8 1.9l.3 2.1v1.5l-.6 1.3l-1 1.1l-1.3 .7l-1.5 .1l-1.4-.4l-1.2-.9l-1.5-1.5l-1.6-2.3l-1.4-2.6l-.9-2.2l-1.5-4.4l-.5-2.5V376l.7-1.5l1.2-1.7l1.1-1l1.4-.6h1.5l1.5 .6l1.1 1.1l1.3 1.8l1.3 2.1l2.4 5l3.2 8.5l-7.8 2.1l-3-15.1l7.9 .8l.2 1.2l1.1 3.9l-5.8 5.3l-.4 .2l-3-5.9l-.9-2.4l-.7-2.3l-.3-3.1l.1-1.1l.4-2l.6-1.3l.9-1.1l1.3-.6l1.4-.2Z" class="g0"/>
<path d="M295.1 211.6l-.2 .7l-.5 .5l-.6 .4l-.7 .1l-1.9 .1l-1.6 .7l-2.1 1.3l-1.8 1.4l-2.1 1.9l-3.7 4.1l-4.2 5.7l-4.6 7.5l-3.3 6.1l-3.3 7.1l-3.2 8l-3.1 8.9l-2.8 10.2l-1.2 5.8l-2.1 11.6l-.7 5.2l-1.1 12.4l-.6 11.3l-.3 9.7l-.1 13.9l.4 8.5l-.1 .7l-.3 .6l-.5 .5l-.7 .3h-.7l-.7-.2l-.5-.4l-.4-.6l-.2-.7l-.4-8.6l.1-14l.3-9.9l.6-11.4l1.1-12.5l1.7-11.4l1.2-5.8l1.3-5.9l1.3-5.3l3-9.8l3.3-8.8l3.3-7.7l3.4-6.7l3.4-5.9l3.1-5l4.5-6l3.9-4.3l2.3-2.2l2.1-1.6l2.5-1.6l2.4-1.1l.8-.1l2.3-.1l.7 .2l.6 .3l.4 .5l.3 .7Z" class="g0"/>
<path d="M285.6 370.4l-.7-.1l-.6-.3l-.5-.6l-.2-.6l-.4-2.1V366l.4-2.4l1.5-4.6l1-2.5l1.3-2.9l1.7-3l2-3.1l2.4-3.2l2.7-2.9l2.9-2.5l3.4-2.2l5-1.8l3.5-.4l3.3 .2l3.4 1.1l4.1 2.6l3.5 3.2l3.1 3.9l1.8 2.8l.7 1.6l.1 .6v.8l-.3 .6l-.5 .5l-.7 .3l-.7 .1l-.7-.2l-.5-.4l-.4-.6l-.7-1.4l-1.5-2.4l-2.7-3.4l-3.1-2.9l-3.4-2.1l-2.4-.7l-2.5-.1l-2.6 .3l-4.2 1.5l-2.6 1.8l-2.5 2.2l-2.4 2.6l-2.2 2.9l-1.8 2.9l-1.6 2.7l-2.1 4.9l-1.3 4.2l-.3 1.7l.3 1.7v.7l-.2 .7l-.5 .5l-.6 .4Z" class="g0"/>
<path d="M308.1 345.3l.4 1.4v1.4l-.6 1.3l-.9 1.1l-2 1.5l-3.5 2.1l-1.1 .9l-6.5-3.7l5.1-4.9l7.1 3.8l-5.4 4.9l-7.9 6.3l-1.3 .6l-1.4 .2l-1.4-.3l-1.2-.8l-.9-1.1l-.4-1.4l.1-1.4l.6-1.3l1.8-2.6l3.8-3.7l8.3-7.6l4-3.1l1.8-1.2l1.4-.7h1.6l2.2 .4l1.7 .8l1.2 1.5l.5 1.3l.2 .1l-2.4 7.4l-.6-.2l-1.8 1.2l-3.7 2.9l-2.5 1.6l-2.5 1l-2.8 .8l-.7 .8l-1.9-2.2l12.5-4.9l2.2-.7l-.4-1.3l4.3-4l.8 .7l1.4 .9l4.3 2.2l1.8 1.1l1.4 1.4l1.1 1.9l.5 1.5l-.2 1.7l-.6 2.1l-.8 1.5l-1.4 1l-2 .9l-2.7 .3l-1.4-.4l-1.1 .2l-3.7 1.5l-1.5 .3l-1.5-.2l-1.3-.8l-1-1.2l-.4-1.5l.1-1.5l.7-1.4l1.9-2.3l1.8-1.8l2.2-2.5l-1-.4l-1.3-.8l-.9-1.2l-.4-1.5l.2-1.5l.7-1.4l1.3-1.6l2.4-1.5l2.1-.4l3 .5l1.9 1.1l1 .9l1.7 2.1L327 348l1.3 2.5l.7 2l.2 1.6l-.3 1.5l-1 1.3l-1.3 .8l-2 .8l-1.8 .2l-1.7-.6l-1.4-1.3l-1.3-2.1l-2-4.1l-.4-1.4l.2-1.5l.7-1.4l1.2-.9l1.4-.5H321l1.4 .6l1.1 1.1L325 349l1.9 4l.3 1.5L327 356l-.8 1.3l-1.2 1l-2.7 1.3l-2.7 .6l-3.2 .5l-1.7 .1l-1.4-.2l-1.2-.6l-1-1l-.6-1.3v-1.5l.4-1.3l.8-1.1l1.2-.8l1.4-.3l1.4-.1l1.8-.3l-.8-1.1l1.2-2.5l5.9-1.5l-5.9 1.5l-.4-.6l5.4-3.8l.5 .5l.5 1.8l-.4 1.8l-.9 2.1l-1.7 2.5l-3.7 4.2l-4.4-4.1l1.3-.5l-.6-.3l-2.3-1.4l-2.1-1.8l-1-1.3l-1-2.1l-.4-1.9l.6-1.9l1.1-1.9l1-1.1l1.2-.7l1.4-.2l1.4 .3l1.3 .8l1.5 1.4l1 1.3l.9 1.9l1 2.6l.5 3.1l-.4 2.5l-1 2l-1 1.3l-1.5 .7l-1.9 .6l-11.7 4.4l-9.7 3.8l-2.2 .1l-2-.4l-1.4-.5l-1-1l-.7-1.2l-.2-1.4l.3-1.4l.8-1.2l1.5-1.7l3.4-3.3l2.7-3l1.7-1.2l4.2-1.4l1.4-.5l6.9-5.1l2.8-1.3l2.8-.1l2.1 .6l2 .7l1.5 .9l1.3 1.2l1.5 .9l1 .9l.7 1.2l.2 1.3l-.2 1.3l-.6 1.2l-1 1l-1.2 .5l-1.3 .2l-1.3-.4l-4.3-1.8l-2.4-1.3l-.8-.7l-1.7-1.7l-2.9 2.2l-9.6 8.9l-3.3-6.4l.4-.3l5-4.3l3.8-3.6l2.6-1.7l1.3-.6l1.5-.1l1.4 .5l1.2 1l.7 1.3l.2 1.5l-.4 1.4l-.8 1.3l-8.7 8.3l-3.4 3.4l-2.4 1.9l-1.3 .7l-1.4 .1l-1.4-.3l-1.2-.8l-.9-1.2l-.4-1.4l.2-1.4l.6-1.3l2.9-3.9l1.9-2l2.1-1.7l3.9-2.5L302 344l1.3-.7l1.4-.2l1.3 .4l1.2 .7Z" class="g0"/>
<path d="M193 129.2l1.4 .1l1.3 .7l.9 1l.6 1.4l14.9 62.5l3.5 13.7l.1 1.4l-.4 1.4l-.8 1.1l-1.2 .8l-1.3 .4l-1.5-.2l-1.2-.6l-1-1l-.6-1.3l-3.5-13.7l-15-62.8l-.1-1.4l.5-1.4l.8-1.1l1.2-.7Z" class="g0"/>
<path d="M189.5 134.9l-.8-1.2l-.3-1.4l.1-1.4l.6-1.3l1.5-1.9l13.7-13.9l7.2-6.9l6.7-5.9l10.6-8.6l8.5-6.5l7.7-5.5l12.6-8.7l12-7.7l1.3-.5h1.5l1.3 .4l1.1 .9l.7 1.2l.3 1.4l-.2 1.4l-.7 1.3l-1 .9l-11.8 7.5l-12.4 8.6l-7.6 5.4l-8.3 6.3l-10.4 8.5l-3.3 2.9l-7.7 7.1L196.8 133l-1.1 1.4l-1 1l-1.3 .6l-1.4 .1l-1.4-.4Z" class="g0"/>
<path d="M270.7 67V65.6l.5-1.4l.9-1.1l1.2-.7l13.2-4.6l7-2.2l10.4-2.9l5.8-1.5L320.5 49l6.8-1.3l6.8-1.1l11.5-1.5l6.9-.5l6.9-.3l11.7 .2l10 .6l8.2 .8l6.3 .9l4.8 .8l4.8 1.1l1.3 .6l1 1l.7 1.3l.1 1.4l-.3 1.4l-.8 1.2l-1.2 .8l-1.4 .4l-1.4-.1l-4.5-1.1l-4.4-.7l-6-.9l-7.9-.8l-9.7-.6l-11.3-.2l-6.4 .3l-6.6 .6l-11.1 1.4l-6.7 1.1L322.1 57l-10.6 2.2l-5.6 1.4l-10.1 2.8L289 65.6l-12.8 4.5l-1.4 .2l-1.4-.2l-1.2-.7l-1-1.1Z" class="g0"/>
<path d="M403.6 50.5l1.4-.4h1.4l1.3 .5l1.1 .9L421.3 66l2.5 3l7.8 10.3l6.4 9.1l5.5 8.6l3.4 5.6l3.4 5.9l5.6 10.7l3.3 6.6l5.2 11.4l5 11.9l4.2 10.4l5.6 15.2l3.4 10.1l.2 1.4l-.4 1.4l-.7 1.2l-1.2 .8l-1.3 .5l-1.4-.1l-1.3-.6l-1.1-.9l-.6-1.3l-3.3-9.8l-5.6-15l-4.1-10.2l-4.9-11.8l-5.1-11.1l-3.2-6.4l-5.5-10.5l-3.3-5.7l-3.2-5.4L431.2 93L425 84.1l-7.6-10L415 71.2L402.5 56.7l-.7-1.3l-.3-1.4l.3-1.4l.7-1.2Z" class="g0"/>
<path d="M295.4 76.5l1.4 .2l1.2 .8l.9 1.1l.5 1.3l5.7 26.5l5.9 22.2l4.8 15.7l9.8 28.3l6.7 17.8l.2 1.4l-.2 1.4l-.6 1.3l-1.1 .9l-1.3 .5l-1.4 .1l-1.4-.5l-1.1-.9l-.7-1.2l-6.8-18L308 146.8l-6.2-20.7l-4.6-17.8l-5.9-27.1V79.8l.5-1.4l1-1l1.2-.7Z" class="g0"/>
<path d="M363 59.5l.9 .1l.9 .3l.7 .6l.4 .8l10.3 27.2l15.5 37.8l16.2 38.9l4.1 10.1l.2 1l-.1 .9l-.4 .8l-.7 .6l-.9 .4h-.9l-.9-.3l-.7-.5l-.5-.8l-4.2-10.1l-16.2-38.9l-15.5-38L360.9 63.1l-.1-1l.1-.9l.5-.8l.7-.6Z" class="g0"/>
<path d="M294.9 79.9l-1.1-1l-.6-1.2l-.3-1.4l.3-1.4l.6-1.5l1.6-2l1.9-1.2l1.8-1l3.1-1.4l6.2-2.4l5.8-1.9l3.3-1l10.6-2.7L340 57.3l9.5-1.6l4.9-.6l8.2-.6l4.9-.3h7.8l8.7 .3l6.5 .6l6.8 1.1l4.9 1.1l3.8 1.1l2.8 1l2.1 .9l1.2 .6l1.1 .9l.7 1.2l.3 1.4l-.2 1.4l-.7 1.3l-1 .9l-1.3 .5l-1.4 .1l-1.4-.5L405.7 67l-2.3-.9l-3.4-.9l-4.4-1.1l-6.1-.9l-6.1-.5l-8.3-.4l-7.4 .1l-4.6 .2l-7.9 .7l-4.6 .5l-9.2 1.5L330 67.7l-10.3 2.7l-6 1.8l-8.4 3.1l-2.6 1.3l-1.7 .9l-.9 1.5l-1.1 .9l-1.3 .5h-1.5Z" class="g0"/>
<path d="M310.5 151.4l-.4-.6l-.1-.7l.1-.7l.4-.6l1.9-2.3l19.2-19L352 109.2l.6-.3l.7-.2l.7 .2l.6 .3l.5 .5l.2 .7v.7l-.2 .7l-.5 .5l-20.2 18.2l-19 18.7l-1.8 2.2l-.6 .5l-.6 .2h-.7l-.7-.2Z" class="g0"/>
<path d="M321.5 157l-.3-.6l-.1-.7l.2-.7l.3-.6l21.8-23L364.6 110l6.8-6.6l.6-.4l.7-.2h.7l.6 .4l.5 .5l.3 .6v.7l-.1 .7l-.5 .6l-6.7 6.6l-21.1 21.3l-21.8 23l-.5 .4l-.7 .2h-.7l-.7-.3Z" class="g0"/>
<path d="M403.4 156.8l-.3-.6l-.1-.7l.1-.7l.4-.6l12.3-13.3l9.4-8.9l11.5-10l25.5-19.4l.6-.3h.7l.7 .2l.6 .4l.4 .5l.2 .7l-.1 .7l-.3 .7l-.5 .5l-25.2 19.2L427.9 135l-9.2 8.8l-12.1 13.1l-.6 .4l-.7 .3l-.7-.1l-.6-.2Z" class="g0"/>
<path d="M423.7 238.4H423l-.6-.3l-.5-.5l-1-3.3l-1.2-2.7l-1.8-2.6l-2.1-2.2l-2.8-2.3l-3.3-2.2l-4.8-2.4l-3.6-.9h-3.1l-2.9 1.2l-1.7 1.5l-1.7 2.5l-1.6 3.6l-1.2 4.4l-.8 5.4l-.5 6.2l.1 6.5l.6 6.8l1.1 7l1.6 6.4l2 6.2l2.6 5.6l2.8 4.8l3.1 4.1l3.3 3.2l3.2 2.2l3.1 1.3l2.8 .2l4-1.4l2.2-1.6l1.9-1.7l2.5-3.2l1.3-2.6l.3-1l.5-.5l.6-.4l.7-.1l.7 .2l.6 .4l.4 .5l.3 .7l-.1 .7l-.1 .6l-1.7 3.6l-2.9 3.7l-2.3 2.2l-2.8 2l-5.2 1.9l-.9 .2l-3.5-.4l-4.1-1.6l-3.9-2.6l-3.9-3.7l-3.4-4.5l-3.1-5.3l-2.7-6l-2.2-6.5l-1.7-6.8l-1.2-7.2l-.6-7.1v-6.9l.4-6.5l.9-5.7l1.3-4.9l1.8-4.2l2.1-3.2l2.5-2.3l4.2-1.8l.8-.2h3.8l4.5 1.1l2.9 1.3l2.7 1.4l3.6 2.5l3.2 2.5l2.5 2.6l2.2 3.2l1.5 3.3l.9 3.8l-.2 .7l-.4 .5l-.6 .4Z" class="g0"/>
<path d="M598.2 220.2l-.7-.3l-.5-.4l-.4-.7v-3.3l-.9-2l-1.7-2.1l-6.7-6.8l-4.3-3.7l-3-1.8l-2.4-.8l-1.7 .4l-1.9 2.1l-1.3 2.4l-1.3 3.4l-1.1 4.2l-.8 4.8l-.8 8.2v8.6l.9 8.5l.5 2.6l2.4 7.4l2 4.2l2.2 3.3l2.5 2.4l2.3 1.3l3.8 .3l4.5-1.3l2.9-1.6l1.6-1.5l.6-.9l.6-.3l.7-.2l.7 .1l.6 .4l.5 .5l.3 .7v.7l-.2 .6l-.3 .6l-2.5 2.5l-3.7 2.1l-5.5 1.6l-5.3-.3l-.9-.2l-2.9-1.6l-3.3-3.1l-2.7-4l-2.2-4.6l-2.6-7.9l-1.1-6.1l-.5-6v-9l.8-8.5l.9-5.1l1.2-4.6l1.4-3.7l1.6-3.1l2.9-3.2l1.1-.6l2.8-.6l1 .1l3.2 .9l3.8 2.4l4.7 4l7.1 7.1l1.9 2.5l1.5 3l.2 .9l-.2 3.8l-.4 .6l-.5 .5l-.7 .2Z" class="g0"/>
<path d="M389.4 274.9l-.6-.2l-.6-.4l-.4-.6l-.1-4.4l.7-3.2l1-3.1l1.7-3.5l2.2-3.7l2-2.5l2.4-2.6l2.7-2.4l3.1-2.2l3.6-2.2l5.6-2.8l6.6-2.6l7.1-2.2h.7l.7 .1l.6 .5l.4 .5l.2 .7l-.1 .7l-.3 .7l-.5 .5l-7.4 2.4l-6.3 2.5l-5.4 2.6l-3.2 2l-2.9 2.1l-2.4 2.1l-2.2 2.3l-1.7 2.2l-2 3.4l-1.4 3l-.9 2.7l-.6 2.6v3.7l-.4 .6l-.5 .5l-.7 .2Z" class="g0"/>
<path d="M565 243.7l-.6-.3l-.5-.6l-.2-.6l.5-4l.3-.9l2.4-3.3l2.4-2.6l3.4-3.1l6.2-4.7l7.6-4.9l4-2.2l3.9-1.9l3.8-1.5l3.3-1l5-1l3.3-.2l.7 .1l.7 .3l.4 .6l.3 .6l.1 .7l-.3 .7l-.4 .6l-.6 .4l-3.9 .3l-4.4 .9l-3 .9l-3.4 1.3l-3.7 1.8l-7.6 4.5l-6.7 4.7l-5.9 5.1l-2.1 2.3l-1.8 2.6l-.7 3.5l-.5 .5l-.6 .4l-.7 .1Z" class="g0"/>

</g>
</svg>
