<svg x="0" y="0" width="1153" height="5000" viewBox="0 0 1153 5000" version="1.1" xmlns="http://www.w3.org/2000/svg" style="display: block;margin-left: auto;margin-right: auto;">
<defs>
<clipPath id="c_1"><path d="M0,0H1153V5000H0Z"/></clipPath>
<style>

.g0{fill:#5F6368;}
.g1{fill:#8AB4F8;}
.g2{fill:#C58AF9;}

</style>

</defs>
<path d="M0 0V5000H1153V0Z" fill="#FFFFFF" stroke="none"/>
<g clip-path="url(#c_1)">
<path d="M235 916.9l.5 .1l.4 .3l.3 .4l.1 .5l.9 9.3l.6 10l.4 8.7l.3 19v19.6l-.2 17.4l-.5 12.1l-1.2 20.7l-.2 .5l-.2 .4l-.4 .3l-.5 .1h-.5l-.5-.3l-.3-.3l-.3-.5v-.5l1.2-20.5l.5-12.1l.2-17.3V965.2l-.3-19l-.3-8.6l-.7-9.8l-.9-9.4l.1-.5l.2-.4l.3-.4l.5-.2Z" class="g0"/>
<path d="M234.8 1034.4l.5-.1l.4 .1l.5 .3l.3 .3l3.3 5.6l5.4 7.6l2.3 2.8l2.4 2.8l2.5 2.5l1.3 1.1l1.6 1.2l3 2.1l3.4 1.8l.3 .4l.1 .5v.5l-.2 .5l-.3 .4l-.5 .2h-.5l-.5-.1l-.5-.2l-2.8-1.6l-3.2-2.1l-1.7-1.3l-1.4-1.2l-2.7-2.7l-2.5-2.9L243 1050l-5.6-7.9l-3.4-5.6l-.2-.5v-.5l.2-.5l.3-.3Z" class="g0"/>
<path d="M541.4 865.9v-.5l.2-.4l.4-.4l.4-.2l1.5-.3l4-1.5l3.9-1.8l3.3-1.7l7.1-4.5l2.2-1.5l.4-.2l.5-.1l.5 .1l.4 .3l.3 .4l.2 .5v.5l-.2 .5l-.4 .3l-2.2 1.6l-7.4 4.6l-3.4 1.8l-4.1 1.8l-4.2 1.6l-1.6 .4l-.5 .1l-.5-.2l-.4-.3l-.3-.4Z" class="g1"/>
<path d="M571.9 833.3l.4 .3l.3 .5l.1 .5l-.1 .5l-5.4 18.1l-.2 .4l-.3 .4l-.5 .2h-.5l-.5-.1l-.4-.3l-.3-.4l-.1-.5v-.5l5.5-18.2l.2-.5l.4-.3l.4-.2h.5Z" class="g1"/>
<path d="M575.5 834.2l.4-.1l.5 .2l1 .8l2.8 1.3l7.1 2.4l4 1.1l6.5 1.5l9.7 1.8l9.9 1.3l7 .6l4.8 .3l4.9 .2l8.4 .2l9.1-.1l8.8-.3l6.8-.5l.5 .1l.3 .4v.3l-.2 .4l-.5 .2l-6.8 .5l-8.8 .4l-9.2 .1l-8.5-.2l-4.8-.2l-4.9-.4l-7-.6l-7.9-1l-2.1-.3l-9.7-1.8l-6.7-1.5l-4-1.1l-7.2-2.5l-3-1.3l-1.2-1.1l-.3-.4l.1-.5Z" class="g0"/>
<path d="M564.3 857.7l.1-.5l.4-.3l1.3-.5l3.9-.7l4.1-.5l6-.4l5.1-.1l5.5 .3l5.9 .6l4.6 .8l8.7 2l9 2.3l9.6 2.4l9.2 1.8l8.3 1.2l7.6 .5l5.8 .2l6.7-.2l4.6-.3l7-.9l4.4-.9l3.7-1l5.4-1.6l3.5-1.4h.5l.4 .3l.1 .2v.3l-.2 .4l-2.1 .9l-4.1 1.4l-3.1 .9l-3.8 1l-4.4 .9l-1.8 .3l-5.3 .6l-4.7 .3l-6.8 .2l-5.8-.1l-4.9-.3l-4.8-.5l-6.5-1l-9.2-1.8l-9.6-2.4l-9.1-2.3l-8.6-1.9l-4.5-.8l-5.8-.7l-5.4-.2h-5l-6 .4l-4 .5l-3.8 .7l-1.2 .4h-.5l-.3-.3Z" class="g0"/>
<path d="M610.8 987.1l.4-.2h.5l.5 .1l.4 .3l.8 .9l.4 .7l.2 1.5v2l-.4 4l-1 5.5l-2 7.8l-1.6 5.8l-4 12.7l-5.7 16.1l-.2 .5l-.4 .3l-.5 .1h-.5l-.5-.2l-.3-.3l-.3-.4l-.1-.5l.1-.5l5.7-16.1l3.9-12.6l1.7-5.7l1.9-7.7l1-5.2l.4-3.8v-1.7l-.2-.6l-.5-.6l-.2-.4l-.2-.5l.1-.5l.2-.4Z" class="g0"/>
<path d="M580.5 892.5l.5-.1h.5l.4 .3l.4 .4l2.2 3.9l2.1 4.2l4.8 11.7l5.5 15.1l6.6 19.8l5.7 18l5 16.3l.1 .6l-.1 .5l-.3 .4l-.4 .3l-.5 .1h-.5l-.5-.2l-.4-.4l-.2-.4l-5-16.3l-5.7-18l-6.6-19.8L588.6 914l-4.8-11.6l-1.9-4l-2.1-3.8l-.2-.4l-.1-.6l.2-.5l.3-.4Z" class="g1"/>
<path d="M700.7 876.1l.5 .1l.4 .3l.3 .4l.1 .4l1.7 17.1l1.1 17.1l.8 21.6l.5 18l.4 21.7v5.4l-.1 .5l-.2 .4l-.4 .4l-.4 .1h-.5l-.5-.1l-.3-.3l-.3-.5l-.1-.4v-5.4l-.4-21.8l-.5-17.9l-.8-21.6l-1.1-17l-1.7-16.9l.1-.5l.2-.4l.3-.4l.4-.2Z" class="g1"/>
<path d="M706 975.7l.5 .2l.4 .5l.2 .5v.5l-4.1 23.4l-4.1 23.1l-3.7 22.9L694 1055l-.2 .5l-.3 .4l-.5 .3l-.6 .1l-.5-.1l-.5-.2l-.4-.4l-.2-.6v-.5l1.2-8.2l3.7-23l4.2-23l4-23.4l.2-.5l.4-.4l.4-.3l.6-.1Z" class="g1"/>
<path d="M607.1 986.2l.1-.5l.2-.4l.3-.4l.5-.2l4.2-1.3l21.7-8.8l9.7-4l2.5-1.2l.5-.1h.5l.5 .2l.3 .4l.2 .5l.1 .5l-.1 .5l-.3 .4l-.4 .3l-2.6 1.1l-9.8 4.2l-21.8 8.7l-4.4 1.4h-.5l-.5-.1l-.4-.3l-.3-.4Z" class="g1"/>
<path d="M614.3 985.5v.3l-1.5-1.3l12.4-2.8l9.5-1.4l7.2-.7l5.1-.2l4.8 .1l5.1 .4l5.5 .9l1.8 .4l.4 .2l.4 .4l.2 .4v.5l-.1 .5l-.3 .4l-.4 .3l-.5 .1h-.5l-1.7-.4l-5.2-.9l-4.9-.3l-4.6-.1l-4.9 .2l-7.1 .7l-9.3 1.4l-10.2 2.2l-2.1 .5l-1.6 .3h-.5l-.5-.2l-.4-.4l-.2-.4l-.1-.6l.2-.5l.3-.4l.5-.3l1.2-.4l.5-.1l.5 .1l.5 .2l.3 .4Z" class="g1"/>
<path d="M615.9 982.2l-.4 .2H615l-.5-.1l-.4-.3l-1.2-1.1l-1.6-2.3l-1.7-2.9l-.9-2.1l-.7-2.1l-.6-3l-.3-2.3l-.1-2.1v-2.2l.3-2.7l.3-1.8l.4-1.9l1.1-3.2l.6-1.3l1-2.1l.7-1.2l1.4-1.9l2.2-2.2l1.4-1l1.4-.9l2.3-.9l1.9-.3l2.1 .1l2.2 .6l1.5 .8l2 1.5l1.6 1.5l1.4 1.8l1.5 2.6l1.1 2.3l1.4 3.5l.9 3.1l.9 4l.7 3.8l.3 4.2v4.2l-.2 .5l-.3 .4l-.4 .3l-.5 .1h-.5l-.4-.2l-.4-.4l-.2-.4v-4.4l-.3-4l-.6-3.5l-.9-3.9l-.9-2.9l-1.2-3.3l-1.1-2.2l-1.3-2.2l-1.2-1.5l-1.3-1.3l-1.7-1.2l-1.1-.5l-1.6-.5h-1.4l-1.3 .3l-1.8 .7l-1.1 .6l-1.1 .8l-1.8 1.9l-1.2 1.6l-.6 1.1l-.9 1.9l-.5 1.1l-1 2.9l-.4 1.7l-.3 1.6l-.2 2.5V964l.1 1.9l.3 2.2l.5 2.6l.7 2l.7 1.8l1.5 2.6l1.4 1.9l1 1l.3 .4l.1 .5v.5l-.2 .4Z" class="g1"/>
<path d="M614.5 985.2l.5 .2l.4 .3l.2 .4l.1 .5v1.3l.2 1.9l.6 3.8l.8 3.2l.6 2l1.1 2.5l.7 1.2l1 1.6l.9 1.1l.9 .7l.9 .5l1.5 .2l1.4-.4l1-.5l1.3-1.1l1-1.1l1.4-2.2l.9-2.1l.8-2l.9-3.6l.7-4l.3-.4l.4-.3l.5-.2l.5 .1l.5 .2l.3 .3l.2 .5l.1 .5l-.6 3.9l-1.1 3.8l-.8 2.3l-1.1 2.3l-1.5 2.5l-1.3 1.5L629 1008l-1.5 .8l-2.1 .6l-.5 .1l-2-.2l-.6-.2l-1.4-.7l-1.3-1.2l-1.2-1.3l-1.2-1.9l-.7-1.3l-1.2-2.9l-.8-2.2l-.8-3.4l-.7-3.9l-.2-2.1v-1.6l.1-.5l.2-.4l.4-.3l.5-.2Z" class="g1"/>
<path d="M665.2 889.4l.1-.5l.3-.4l.4-.3l.5-.2l1.2-.1l2.8-.6l5.7-1.8l5.9-2.2l13.8-5.9l6.9-3.3l5.1-2.7l3.3-1.9l4.2-2.7l6.6-4.5l5.5-4.2l.5-.2l.5-.1l.5 .1l.4 .3l.3 .4l.2 .4v.5l-.2 .5l-.3 .4l-5.7 4.3l-6.7 4.5l-4.3 2.7l-3.4 2l-5.2 2.8l-7 3.3l-13.9 6l-7.5 2.8l-4.4 1.3l-3.1 .7l-1.5 .1h-.5l-.4-.2l-.4-.4l-.2-.4Z" class="g0"/>
<path d="M711.4 847.7h.5l.5 .2l.4 .3l.2 .4l.4 1l.9 1l2.3 1.8l2.7 1.9l2.1 1.1l1.6 .8l2 .6l2.3 .5l2.7 .3l.4 .2l.3 .4l.2 .5v.5l-.2 .5l-.4 .3l-.4 .3l-.5 .1h-.8l-1.7-.3l-2.6-.5l-2.3-.7l-1.8-.8l-2.4-1.3l-1.8-1.2l-1.2-.9l-2.4-1.9l-1.3-1.4l-.3-.5l-.5-1.3l-.1-.5l.1-.5l.3-.4l.3-.3Z" class="g0"/>
<path d="M674.5 893.2l.5 .1l.3 .5l2.5 10.3l2.1 10.9l1.6 9.5l.9 7l.9 8.4l.8 9l.2 5.2l.1 7.5l-.1 4.4l-.5 6.3l-.7 4.3l-.2 .5l-.5 .1h-.3l-.3-.3l-.1-.5l.6-4.3l.5-6.2l.2-4.3l-.1-7.4l-.3-5.2l-.7-9l-.9-8.3l-1-7l-1.5-9.5l-2.2-10.8l-2.4-10.3v-.5l.4-.3Z" class="g0"/>
<path d="M675.5 977.9l.5-.1l.4 .3l.5 .7l1.6 .2H681l6.4-.5h1.5l1.6 .1l1.1 .5l.3 .2l.1 .2v.3l-.1 .3l-.6 1.1l-.3 .3l-1.1 .6l-1.1 .5l-1.2 .4l-1.2 .2l-1.4 .1l-6.4-.3l-2.5 .1l-1 .1l-.3-.5l7.7 .6l3.2 .4l2.9 .7l1.1 .5l.3 .2l1 1.1v.5l-.2 .2l-.2 .2l-1 .5l-.5-.1l-.2-.2l-.1-.2v-.5l.1-.2l.2-.2l-1-.4l-2.6-.7l-3.1-.4l-6.6-.5l-1.5-.2l-1.4-.7l-.2-.2v-.5l.1-.2l.2-.2l1.5-.4l1.5-.1l2.6-.1l6.4 .3l1.2-.1l1.1-.2l2-.8l.8-.5l.2-.2l-.3-.1l-1.1-.1h-1.5l-6.3 .5h-2.7l-1.9-.2l-.5-.3l-.8-.9l-.1-.5l.2-.5Z" class="g0"/>
<path d="M681.2 989.3l.3 .3l.1 .5l-3 11l-2.4 10.1l-1.9 7.9l-2.4 10.1l-1.4 5.8l-.3 .4l-.5 .2l-.2-.1l-.4-.3v-.5l1.4-5.8l2.4-10.1l1.9-7.9l2.4-10.2l3-11l.3-.4l.4-.1Z" class="g0"/>
<path d="M709.7 827.8l.4 .3l.4 .4l.1 .4v.5l-.3 2.7l-.2 2.8l.1 3.2l.3 3.7l1.8 12v.5l-.2 .5l-.3 .4l-.4 .2l-.5 .1l-.5-.1l-.5-.2l-.3-.4l-.2-.5l-1.8-12.1l-.3-3.9v-3.4l.1-3l.4-2.9l.2-.5l.3-.4l.4-.2l.5-.1Z" class="g0"/>
<path d="M311.1 337.1h-1l-.8-.6l-1.3-2.4l-2.3-5.2l-1.3-4.8l-.5-2.7l-.3-3.7v-2.9l.1-4.5l.9-6.8l1.8-7.8l1.7-5.4l3.2-8.5l4.6-10.2l5.7-10.8l5.2-8.3l3.9-5.6l4.3-5.5l8.2-9.5l6.1-6.4l7.8-7.1l6.8-5.5l4.2-3.1l5.9-3.7l6-3.4l6.1-2.9l4.7-2l7.6-2.7l4.5-1.3l7.6-1.5l4.6-.5l4.6-.3l6 .4l6 .9l5.9 1.5l4.3 1.5l6.9 2.9l4 2.2l6.4 4.3l3.7 2.9l3.5 3.2l4.5 4.6l3.2 3.7l4.9 6.3l2.7 4l4.2 6.8l4.4 8.4l3.2 7.2l1.6 4.4l3.1 9.9l1.7 6.9l1.8 10.4l.8 9.6l-.1 6.7l-.8 9.5l-1.4 7.3l-.7 2.5l-1 2.8l-.3 .7l-.4 .3l-1 .1l-.4-.2l-.4-.3l-.3-1l1.1-3.3l.6-2.3l1.4-7.1l.8-9.2v-6.4l-.7-9.4L497.1 274l-1.7-6.6l-3-9.8l-1.6-4.2l-3.1-7.1l-4.3-8.2l-4.1-6.7l-2.7-3.8l-4.8-6.2l-3.1-3.5l-4.3-4.6l-3.4-3l-3.6-2.9l-6.1-4l-3.8-2.1l-6.6-2.8l-4.2-1.4l-5.6-1.5l-5.8-.9l-5.7-.3l-4.3 .2l-4.4 .5l-7.3 1.5l-4.4 1.2l-7.4 2.7l-4.5 1.9l-6 2.9l-5.9 3.3l-5.7 3.6l-4.1 3l-6.6 5.4l-7.7 7l-6 6.2l-8 9.4l-4.3 5.5l-3.8 5.4l-5.1 8.2l-5.6 10.6l-3 6.3l-3.5 8.6l-2.8 8.7l-1.7 7.6l-.9 6.5l-.1 7l.3 3.5l.4 2.4l1.3 4.5l2.1 4.8l1.2 2.3l.2 .9l-.5 .9Z" class="g1"/>
<path d="M314.3 348.4l.9 .4l.5 .9l1.8 21.4l1.4 22.4l1 21.7l.7 22.5l.3 15.8l.2 17l.1 22.9l-.1 3.2l-.7 .8l-.5 .1h-.5l-.4-.2l-.7-.7v-3.2l-.1-22.8l-.2-17.1l-.3-15.8l-.7-22.4l-1-21.7l-1.3-22.3L312.8 350l.2-.9l.8-.6Z" class="g1"/>
<path d="M500.5 344.2l.8 .5l.3 1l-1 19.6l-1.2 19l-1.5 21.5l-1.3 17L495 444l-1.4 20.6l-.9 17.6l-.3 17.5l-.4 1l-.8 .5h-.5l-.9-.5l-.3-.9l.3-17.7l.9-17.7l1.4-20.6l1.6-21.2l1.3-17l1.6-21.5l1.1-19l1.1-19.6l.3-.9l.9-.4Z" class="g1"/>
<path d="M488.9 532.9l.8 .6l.2 .9l-.4 2.8l-.9 2.7l-1.4 2.3l-1.6 1.9l-2.1 1.9l-2 1.5l-3.1 2l-6.4 3.3l-6.1 2.6h-1l-.8-.6l-.1-.5l.1-1l.3-.3l6.4-2.9l6.2-3.2l2.9-1.8l1.8-1.4l1.9-1.7l1.4-1.6l1.1-1.9l.6-2l.3-2.4l.5-.9l.9-.4Z" class="g1"/>
<path d="M325.2 531.7l.5 .2l.4 .3l.2 .4l.1 .5v1.3l.4 2.9l.3 1.4l.8 2.6l.4 1.1l1.4 2.6l.7 1.1l2.2 2.6l1.9 1.8l1.3 .9l1.9 1.3l2.1 1.1l3 1.3l2.8 1.1l4.3 1.3l1.4 .3l1.9 .3l.5 .2l.4 .3l.3 .4l.1 .5l-.1 .5l-.2 .4l-.4 .4l-.4 .2h-.5l-2.1-.4l-3.7-.9l-2.4-.8l-3-1.1l-3.1-1.4l-2.3-1.2l-2.2-1.4l-1.4-1.1l-2.1-2l-2.5-2.8l-.8-1.4l-1.6-2.9l-.9-2.4l-.5-1.8l-.4-1.6l-.2-1.6l-.2-1.6v-1.5l.1-.5l.3-.4l.4-.3l.4-.2Z" class="g0"/>
<path d="M308.3 203.8l.3-.9l.8-.6l2.5-.6l18.1-1.6l23-1.1l19.7-1.2l21.8-2.3l1 .2l.6 .8l.1 .5l-.4 .9l-.9 .4l-22 2.4l-19.7 1.2l-23 1.1l-17.8 1.6l-2.3 .5l-1-.1l-.7-.7Z" class="g1"/>
<path d="M313.9 204.9l-.8-.5l-.3-.9v-1.1l-.9-.1l-1.9 .6l-2.8 1.6l-2.4 1.6l-3.5 2.7l-7.5 6.6l-5.5 5.5l-7.1 7.8l-5.3 6.2l-8.4 11.2l-8.2 12.3l-5.7 9.6l-5.8 11.4l-3.5 7.8l-3.3 8.6l-1.8 6.6l-.8 3.5l-.6 5.8v4.6l.3 3.4l.4 2.4l1.2 3.1l-.2 1l-.4 .3l-.4 .3h-.5l-.9-.3l-.4-.6l-1.1-2.9l-.6-2.8l-.3-3.8v-4.8l.7-6l.7-3.8l2-6.9l3.3-8.8l3.6-7.9l5.8-11.5l5.8-9.8l8.3-12.5l8.6-11.3l5.3-6.2l7.2-8l5.6-5.6l7.7-6.7l3.6-2.8l2.6-1.7l3-1.7l2.5-1l.8-.1l3.1 .8l.4 .3l.2 .5l-.1 2.7l-.3 .9l-.9 .5Z" class="g1"/>
<path d="M236.6 344.7l.9 .5l.4 .9l1.7 19.5l.9 22.6l.4 21.3v21.7l-.2 21.6l-.7 23l-1.2 21.8l-.5 7.5l-.5 .9l-.9 .4h-.5l-.8-.6l-.2-1l.5-7.4l1.2-21.7l.7-23l.3-21.5l-.1-21.6l-.4-21.3l-.7-19.1L235 346.3l.3-.9l.8-.6Z" class="g1"/>
<path d="M245.3 529.6h1.1l.8 .6l4.2 6.9l5.6 7.5l4.6 5.2l2.1 2l3.3 2.5l4.7 2.7l.3 .5l.1 1l-.3 .5l-.9 .6l-1-.1l-2-.9l-2.6-1.7l-3.6-2.7l-2.3-2.1l-2.5-2.7l-2.4-2.8l-5.7-7.7l-4.3-7.1l-.2-1l.6-1Z" class="g1"/>
<path d="M189.9 264.5l.8-.6h.9l2.5 .9l3.1 .7l3.5 .5l6.5 .2l14.6-.7l20.4-1.7l10-1l1 .3l.5 .8l.1 .5l-.4 .9l-.9 .4l-10 .9L222 268.4l-14.8 .7l-6.8-.3l-3.7-.5l-3.4-.7l-2.7-1l-.7-.6l-.2-1Z" class="g1"/>
<path d="M194.1 265.4l-.2 .9l-.8 .7l-1.9 .7l-1.7 2.6l-1.8 4.1L182.8 288l-2.2 7.6l-4.1 16l-1.8 9.1l-1.6 9.9l-.8 6.4l-.9 11.2l-.2 7v7.2l.4 9.9l.6 7.4l1.5 12.1l1.2 7.1l2.5 11.5l1.8 6.7l3.4 10.5l2.3 5.9l2.5 5.5l3.4 6.8l2.6 4.7l4.4 7l2.7 3.6l2.5 3.1l4.6 4.7l3.9 3.4l3.2 2.3l2.4 1.5l3.5 1.4l.3 .4l.1 1l-.1 .4l-.8 .6h-1l-3.1-1.3l-2.8-1.6l-3.4-2.4l-4.1-3.6l-4.7-4.8l-2.8-3.4l-2.7-3.7L191 452l-2.7-4.8l-3.5-6.9l-2.5-5.7l-2.3-6l-3.5-10.7l-1.9-6.7l-2.5-11.7l-1.2-7.3l-1.5-12.3l-.6-7.4l-.4-10v-7.3l.2-7.2l.9-11.3l.8-6.4l1.6-10.1l1.9-9.2l4-16.1l2.3-7.8l5-13.8l1.9-4.2l2-3.4l.8-.5l2.4-.9h1l.7 .6Z" class="g1"/>
<path d="M213.7 478.6l.5-.5h.7l1.4 .5l9.4-3l4.7-1.1l2.7-.3l2-.1l.5 .1l.3 .2l.4 .6v.4l-.4 .6l-.3 .1l-2.4 .2l-2.4 .3l-4.5 1l-9.7 3.1H216l-1.8-.6l-.5-.5l-.1-.7Z" class="g1"/>
<path d="M228.2 468.7l.5-.2h.6l.5 .2l.4 .4l3 3.2l.7 .8l.8 1.1l.9 1.6l.2 .2l.1 .5v.6l-.2 .5l-.4 .4l-.5 .3h-.5l-.5-.1l-.5-.3l-.3-.4l-1-1.5l-.6-1l-.6-.6l-3.1-3.4l-.2-.4l-.1-.6l.1-.5l.3-.5Z" class="g0"/>
<path d="M358.1 195.9l-.5 .2l-.4-.1l-1.2-1h-2.2l-2.3 .6l-4.2 1.9l-4.2 2.4l-4.5 3l-6.1 4.9l-6.9 6.1l-6.9 6.9l-6.3 6.9l-4.2 5.2l-4.2 5.8l-4.1 6.1l-2.9 4.8l-4.5 8.1l-2.5 5.1l-3.7 8.6l-3 9.2l-2 7.4l-1.3 5.6l-1.6 8.9l-.6 5.2l-.6 8.4l.3 8.6l.8 7.3l.9 6l.9 4.6l.9 3.3l1.2 3.7v.5l-.3 .3l-.2 .1l-.5-.1l-.3-.3l-1.3-3.7l-.9-3.5l-1-4.6l-.9-6.1l-.7-7.4l-.3-8.6l.5-8.6l.7-5.3l1.6-9l1.3-5.6l2-7.5l3-9.3l3.8-8.7l2.5-5.1l4.5-8.2l3-4.8l4.1-6.3l4.2-5.7l4.3-5.4l6.3-6.9l7-7l6.9-6.1l6.2-4.9l4.6-3.1l4.4-2.5l4.3-1.9l2.6-.7h2.7l.4 .2l1.3 1l.3 .4l-.1 .5Z" class="g1"/>
<path d="M285.9 362.1l-.3 .4l-.5 .1l-1.6-.2l-2.1 .2l-4.4 .7l-8.9 2.1l-1.8-1h4.5l4.7 .5l4.5 .8l1.8 .5l2.1 .8l.3 .4v.3l-.2 .4l-.5 .2l-2 .1l-6.1-.8l-1.4-.2l-.9 1.2l.1 8.5l-.2 10.4l-.4 8.8l-.5 9.5l-.4 8.8l-.1 6.2l-.2 6.2v11l.2 7.4l.5 10.9l.7 6.3l1.2 8.9l1.9 9.1l1.4 5.3l.6 2.2v.3l-.3 .4h-.3l-.5-.1l-.1-.1l-.8-2.3l-1.4-5.3l-1.9-9.2l-1.3-9l-.6-6.3l-.6-11.1L270 438V427l.1-6.3l.2-6.2l.4-8.8l.4-9.5l.4-8.8l.3-10.3l-.2-8.7l.2-.4l1.3-1.9l.4-.2h.3l1.8 .3l6.1 .8l-.1 .7l-.3-.1l-3.8-.9l-4.7-.7l-4.1-.2h-2.3l-.5-.1l-.2-.5l.1-.5l.4-.3l10.5-2.5l4.5-.8l2.3-.1l1.8 .2l.5 .2l.2 .5Z" class="g1"/>
<path d="M261.3 497l-.1 .5l-.4 .3l-.6 .2l-1.2-1.1l2.3 .5l4.7-.1l4.5-.5l7.3-1.4l4.2-1l.4 .1l.4 .3l.1 .3l-.2 .4l-.4 .3l-4.1 1l-7.5 1.4l-4.6 .5l-4.9 .2l-2.5-.5l-.4-.3l-.2-.3l.1-.5l.2-.2l1.9-.7l.5 .1l.4 .3Z" class="g1"/>
<path d="M335.5 335.7l.3-1l.8-.5l2.7-.5l21.5-2.1l22.4-1.7l18.5-.7l21-.1l18.1 .5l10.6 .7l14.7 1.6l9.1 1.6l7.6 1.9l5.5 1.9l5.9 2.7l2.5 1.4l3.1 2l1.1 .8l.5 .9l-.1 .9l-.3 .4l-.4 .3h-1l-4.4-2.9l-2.4-1.3l-5.6-2.5l-5.2-1.8l-7.4-1.9l-8.9-1.5l-14.6-1.7l-10.4-.6l-18-.5l-21 .1l-18.3 .7l-22.3 1.7l-21.4 2.1l-2.5 .5l-1-.2l-.6-.7Z" class="g1"/>
<path d="M338 387.2l.4 .2l.2 .5l-.1 10.1v11.1l.1 9l.2 11l.3 7.2l.4 7.7l.8 10.8l.6 7.3l1.3 10.9l1.5 9.6l1.3 6.3l2.1 8.7l2.1 7.1v.5l-.3 .4l-.2 .1l-.5-.1l-.3-.4l-2.2-7.2l-2.1-8.8l-1.3-6.3l-1.5-9.7l-1.3-10.9l-.7-7.4l-.7-10.8l-.4-7.7l-.3-7.3l-.2-11l-.1-9L337 398l.1-10.1l.2-.5l.5-.2Z" class="g1"/>
<path d="M327.3 460.9l.4-.3l.5 .1l1.4 .6l10-1.9l.5 .1l.3 .4v.2l-.1 .5l-.5 .3l-10.2 1.9l-.5-.1l-1.5-.7l-.4-.4v-.5Z" class="g1"/>
<path d="M328.1 460l.4 .2l.2 .4l1.1 10.6l.6 8.6l.4 2.5l2.4-1.1l6-1.4l3.7-1.2l.5 .2l.1 .1l.1 .3v.5l-.4 .3l-3.6 1.2l-6 1.4l-3.2 1.6l-.5-.2l-.3-.4l-.4-1.7l-.2-2l-.7-8.6l-1-10.5l.1-.5l.4-.3Z" class="g1"/>
<path d="M191.1 281.1l.8-.6h1l2.7 1.1l2.9 2.1l3.4 3l3 3l4.4 5.2l4.8 6.6l4.9 8l7 13.1l3.9 8.7l2.5 6.4l3 9.2l2.6 10.6l.6 3.9l-.5 .8l-.5 .3l-.5 .1l-.9-.4l-.3-.4l-.7-3.8l-2.6-10.3l-2.9-9.1l-2.5-6.2l-3.8-8.6l-6.9-12.9l-4.8-7.8l-4.7-6.4l-4.2-5l-2.9-2.9l-3.2-2.9l-2.7-1.8l-2.2-.9l-.7-.6l-.2-1Z" class="g1"/>
<path d="M214.9 479.7l.4-.9l.8-.4l2.7-.3l.7 .1l.6 .4l2 2.6l1.6 2.9l1.1 2.3l1.3 3.8l.9 3.7l.6 3.4l.4 3.7l.1 4.7l-.2 4l-.4 2.5l-1.3 5.6l-.8 2.4l-1.6 3.7l-1.9 3.4l-2.9 3.5l-3 2.4l-4.7 2.1L207 536l-3.8-.3l-3.9-1l-2.4-1.2l-2.5-1.5l-4-3.3l-2.4-2.6l-3.2-4.1l-2.3-3.4l-3.7-6.3l-2.2-4.3l-3.2-7.6l-1.7-4.9l-1.6-5l-1.6-6.8l-1.3-6.7l-.9-6.5l-.6-8.4l-.2-7l.1-5.6l.5-7.4l.6-3l.8-.6l.5-.1l.5 .1l.4 .2l.5 .9l-.4 3l-.6 7v5.5l.1 6.9l.7 8.2l.8 6.4l1.3 6.6l1.6 6.6l1.5 4.9l1.7 4.7l3.2 7.4l2 4.1l3.6 6.1l2.3 3.3l3 4l2.2 2.3l3.8 3.1l2.1 1.3l2.1 1l3.4 .9l3.2 .2l3.7-.7l3.9-1.7l2.4-2l2.5-3.1l1.8-3.1l1.4-3.4l.7-2.1l1.3-5.3l.3-2.3l.2-3.8v-2.3l-.4-5.6l-.6-3.2l-.9-3.5l-1.2-3.6l-1-2l-1.5-2.6l-1.3-1.7l-1.9 .1l-.9-.2l-.6-.8Z" class="g1"/>
<path d="M166.8 438.5l.6-.7l1-.2l2.3 .5l8.2 2.9l6.6 2.1l3.3 .8l.6 .8l.1 .4l-.1 .5l-.7 .7l-.4 .2l-.9-.1l-2.6-.7l-6.8-2l-8.1-3l-2-.4l-.8-.4l-.4-.9Z" class="g1"/>
<path d="M208.9 538.3l-.4-.9l.3-.9l1.8-2.3l5.8-5.3l3.1-2.5l5-3.5l4.6-2.7l3.1-1.5l2.9-1.2l2-.6h1l.7 .7l.1 .4l-.2 1l-.3 .4l-5.1 1.9l-2.9 1.5l-4.3 2.5l-4.9 3.4l-3 2.4l-5.5 5.1l-1.6 2l-.8 .6l-1-.2Z" class="g1"/>
<path d="M189.7 451l.9 .5l.3 1l-.2 2.7l1.4 12.4l1 5.9l1.6 6.4l2.7 8.3l2.6 6.2l2 3.5l1.2 1.9l1.8 2.3l2 2l2 1.7l3.2 2.2l3.9 1.6l2.6 .7l2.2 .3l3 .1l2.3-.4l.5 .1l.6 .8l.1 .5l-.3 .9l-.8 .5l-2 .4h-3.5l-2.5-.4l-3-.7l-4.4-1.8l-3.6-2.4l-2.3-1.9l-2.1-2.3l-2-2.5l-1.4-2.1l-2-3.7l-2.8-6.4l-2.8-8.6l-1.6-6.7l-1-6l-1.4-12.6l.1-3.1l.4-.9l.8-.4Z" class="g1"/>
<path d="M214.1 303.4l.3 .4l.2 .4v.5l-.2 .5l-.5 .9l-2.5 8.4l-1.3 5.4l-1.5 8.2l-1.2 7.8l-.6 6.2l-.3 4.9l-.5 8.7v5.5l.1 9.7l.8 10.7l.9 8.7L209 399l1.3 8.6l1.1 6.2l2 9.8l1.2 5.5l2.2 8.5l1.3 4.7l1.3 4.3l1.8 5.2l1.3 3.5l2.9 7.1l1.9 4l1.8 3.2l1.5 2.3l1.2 1.6l1 1.1l.2 .4l.2 .5l-.1 .5l-.2 .4l-.4 .4l-.5 .2h-.5l-.4-.2l-.4-.3l-1.1-1.2l-1.3-1.7l-1.6-2.4l-1.9-3.4l-.8-1.6l-2.5-5.5l-1.7-4.3l-1.4-3.7l-1.7-5.2l-1.4-4.4l-1.3-4.7l-2.2-8.6l-1.2-5.5l-2-9.9l-1.1-6.3l-1.4-8.6l-1.1-8.9l-1-8.7l-.8-10.8l-.1-9.9v-5.6l.5-8.7l.4-5l.6-6.3l1.1-8l1.6-8.3l1.3-5.5l2.6-8.8l.7-1.3l.3-.3l.5-.3l.5-.1l.4 .1Z" class="g0"/>
<path d="M211.2 473.8l.5 .1l.4 .4l.3 .4l.1 .5v1l.3 .9l.9 2.3l1.4 2.5l1 1.4l1.4 1.6l1 1.1l.9 .7l1.5 .9l1.6 .7l1.8 .5l.4 .3l.2 .5l.1 .5l-.1 .5l-.2 .4l-.4 .3l-.5 .2l-.9-.1l-1.3-.3l-1.9-.9l-1.9-1.1l-1.1-.9l-1.3-1.2l-1.6-1.8l-1.1-1.7l-.7-1.2l-.9-1.6l-1-2.6l-.4-1.3l-.1-1.5v-.5l.3-.5l.4-.3l.4-.2Z" class="g1"/>
<path d="M213.6 478.3l.4-.1h.5l.5 .2l.4 .4l2.3 3.3l2.1 3.4l.2 .5v.5l-.2 .5l-.4 .4l-.4 .2l-.5 .1l-.5-.2l-.4-.2l-1.1-1l-.2-.4l-1.2-2.1l-.9-2.4l-.3-1.1l-.1-.5l.1-.5l.3-.4l.4-.3l.5-.1h.6l.4 .3l.9 .6l.4 .5l2.1 4l-1.1 1.3l-1.2-2.6l-1.1-2l-.7-.9l2.3-1.7l.6 .8l1.7 2l1.6 2.4l1.2 2.2l.1 .5v.5l-.3 .5l-.4 .4l-.5 .2l-.5-.1l-.5-.2l-1.2-.8l-1.9-2.1l-3-3.8l1.6-2l1.9 3.5l.6 .9l-2.1 1.9l-2.7-3l-.7-1l-.2-.5v-.5l.2-.5l.3-.5l.5-.2l.5-.1l.5 .2l1.3 .6l.7 .7l.7 1.5l2.2 5.2l.2 .3l-1.3 1l.1-.5l.2-.5l.3-.4l.5-.2h.5l.5 .1l.4 .3l.4 .7l.4 1.3l.1 .6v1.2l-.2 .5l-.3 .5l-.5 .2l-.5 .1l-.6-.1l-.4-.3l-.8-.9l-.9-1.3l-.6-1.3l-2.4-5.3l2.5-1.1l1.2 1.3l.9 .9l.7 1.3l.2 .5l-.1 .6l-.2 .4l-.4 .4l-.4 .2l-.6 .1l-.5-.2l-.4-.3l-.7-.9l-.9-1.3l-2.1-3.6l-.7-1.3l-.4-1.4l-.1-.6l.1-.4l.3-.5l.4-.3l.5-.1h.5l.5 .2l.3 .4l1.6 2.1l3.4 4.2l-2 .7l-1-1.5l-1.5-1.8l-.7-1l-.3-.4v-.5l.1-.5l.3-.5l.4-.3l.4-.1h.5l.5 .2l.4 .3l.7 1l.7 1.2l1.3 2.6l.7 1.4l.4 1.5l.1 .5v1.2l-.2 .5l-.3 .5l-.4 .3l-.6 .1l-.5-.2l-.5-.3l-.8-.8l-.9-1.3l-2.4-4.5l-.6-.5l2.2-1.6l.7 2.1l.9 1.9l-2.8 .2h-.1l-2.3-3.2l-.2-.5l-.1-.5l.2-.4l.2-.5Z" class="g1"/>
<path d="M235.5 476.2l-.1 .5l-.3 .4l-.4 .2l-.5 .2h-1l-8.3 2.7l-2.4 .9l-2.1 1.1l-.7 .2h-1.2l-.6-.1l-.4-.2l-.4-.5l-.1-.5v-.5l.3-.5l.4-.4l.5-.1l1.2-.3l14.3-4.5l.5-.1l.5 .1l.4 .3l.3 .4l.2 .5v.5l-.2 .4l-.4 .4l-1.2 .9l-1.2 .7l-1.3 .5l-2.5 .9l-9.9 2.8l-.5 .1l-.5-.2l-.4-.3l-.3-.4l-.1-.5l.1-.5l.2-.4l.3-.4l.5-.2l9.8-2.8l2.3-.8l1-.4l1 2l-12.1 3.8l-.8-2.6l1.9-1l2.6-1.1l8.5-2.7l1.6-.1h.5l.5 .3l.3 .3l.2 .5Z" class="g1"/>
<path d="M338.5 327.8l.4 .3l.2 .4l.1 .5l-.1 .5l-.5 1.3l-.7 4.3l-1.3 11.7l-.2 .5l-.3 .4l-.4 .3l-.5 .1l-.5-.1l-.4-.2l-.4-.4l-.2-.4v-.5l1.3-11.8l.8-4.6l.6-1.6l.3-.4l.3-.3l.5-.2h.5Z" class="g1"/>
<path d="M577 402.5l.5-.1l.5 .1l.4 .2l.3 .4l1.9 3.2l2.2 4.4l4.5 11l4.8 13.6l6.3 18.5l6.6 21l2.9 9.6v.5l-.1 .5l-.3 .4l-.4 .3l-.4 .1h-.5l-.5-.2l-.4-.4l-.2-.4l-2.9-9.5l-6.6-21l-6.2-18.5l-4.8-13.5l-4.5-10.8l-2.1-4.3l-1.7-3l-.2-.4v-.5l.1-.5l.4-.4Z" class="g0"/>
<path d="M694.1 378.2l.5 .1l.4 .3l.3 .3l.2 .5l1.7 17.1l1.1 17.2l.8 21.8l.5 18l.4 21.9v5.4l-.1 .5l-.2 .4l-.4 .4l-.5 .1h-.4l-.5-.1l-.4-.4l-.2-.4l-.1-.5v-5.4l-.4-21.8l-.5-18l-.8-21.7l-1.1-17.2l-1.7-16.9v-.5l.2-.5l.3-.3l.5-.3Z" class="g1"/>
<path d="M699.6 476.9l.4 .3l.4 .4l.2 .6v.5l-4.1 23.5l-4.1 23.2l-3.8 23l-1.2 8.2l-.2 .6l-.3 .4l-.5 .3l-.5 .1h-.6l-.5-.3l-.4-.4l-.2-.6v-.5l1.3-8.2l3.7-23.1l4.1-23.3l4.1-23.4l.2-.5l.4-.5l.4-.3l.6-.1Z" class="g1"/>
<path d="M604.3 486v-.5l.2-.4l.4-.4l.4-.2l4.5-1.4l9.9-3.9l19.6-8l7-3.1l.5-.2l.5 .1l.5 .2l.3 .3l.3 .5v.5l-.1 .5l-.3 .4l-.4 .3l-7.2 3.2l-19.6 8l-10 3.9l-4.7 1.5h-.5l-.5-.1l-.4-.3l-.3-.4Z" class="g0"/>
<path d="M608.7 486.8v.5l-.1 .5l-.4 .4l-.4 .2l-.9 .3l-.7-2.6l9-2.1l4.1-.8l8.7-1.3l8.3-.8l4.8-.1l4.9 .2l2.8 .2l3.9 .6l2.9 .7l.6 .2l.4 .4l.2 .5v.5l-.1 .4l-.3 .4l-.4 .3l-.5 .1H655l-1.6-.4l-4.9-.8l-2.7-.2l-4.7-.2l-4.7 .1l-8.1 .7l-8.5 1.3l-4 .8l-8.9 2.1l-1.5 .4h-.5l-.5-.1l-.4-.3l-.3-.4l-.1-.5v-.5l.2-.4l.3-.4l.5-.2l2.2-.8l.5-.1l.5 .1l.4 .3l.4 .3Z" class="g0"/>
<path d="M608.3 491.6l.5 .2l.4 .2l.2 .5l.2 .5l.2 4l-.1 5l-.1 1.3l-.4 3.2l-.8 4l-1.1 4.4l-1.4 3.9l-1.1 2.7l-1.4 2.8l-2.4 4.4l-1.7 2.7l-1 1.3l-.3 .4l-.5 .1l-.5 .1l-.5-.2l-.4-.3l-.2-.4l-.2-.5l.1-.5l.2-.4l.9-1.3l1.6-2.5l2.4-4.3l1.3-2.6l1-2.6l1.3-3.7l1.1-4.1l.8-3.9l.4-3.1l.1-1.1l.1-4.7l-.3-4v-.5l.3-.4l.3-.4l.5-.2Z" class="g0"/>
<path d="M584.8 380.9l.3-.4l.4-.3l.5-.1h.5l1.5 .5l2.9 .7l4.8 .5l5.8 .2l8.1-.2l12-1l10.1-1.4l9.1-1.7l7.1-1.6h.5l.5 .1l.4 .3l.2 .4l.2 .5l-.1 .5l-.2 .5l-.3 .3l-.5 .2l-7.2 1.7l-9.3 1.7l-10.2 1.4l-12.2 1l-8.2 .2l-6-.2l-5.1-.6l-3.1-.7l-1.6-.5l-.5-.2l-.3-.4l-.2-.5v-.5Z" class="g1"/>
<path d="M641.1 320.2l.5 .3l.3 .4l.2 .4v.6l-.3 1.3l.1 3.3l1.2 9.6l2.1 12.5l2.3 11l2.2 8.3l2.7 9.4l4.8 14.7l.1 .5l-.1 .5l-.3 .5l-.4 .3l-.5 .2h-.5l-.5-.2l-.4-.3l-.2-.5l-2.3-6.6l-4.2-13.5l-2.2-8.4l-1.8-7.4l-2.2-10.7l-1.9-12.6l-.9-7l-.1-3.7l.3-1.8l.2-.5l.4-.4l.4-.2l.5-.1Z" class="g1"/>
<path d="M656.8 392.5l.1-.5l.3-.4l.4-.3l.5-.1l1.3-.1l2.7-.6l5.8-1.8l5.9-2.2l13.8-6l6.9-3.3l5.1-2.7l3.3-1.9l4.2-2.7l6.6-4.4l5.6-4.3l.4-.2l.5-.1l.5 .1l.4 .3l.3 .3l.2 .5v.5l-.2 .5l-.3 .4l-5.7 4.3l-6.7 4.5l-4.3 2.7l-3.4 2l-5.2 2.8l-7 3.3l-13.9 6l-7.6 2.8l-4.4 1.3l-3 .7l-1.5 .2l-.5-.1l-.5-.2l-.3-.3l-.3-.5Z" class="g0"/>
<path d="M703.4 349.9h.5l.5 .2l.3 .3l.3 .4l.3 .9l.9 .9l3.1 2.5l2.5 1.6l2.6 1.2l1.8 .6l1.2 .3l1.8 .3h1.3l.5 .1l.4 .3l.3 .4l.2 .5v.5l-.2 .5l-.4 .3l-.4 .3h-.5l-1.4-.1l-2.1-.3l-1.4-.3l-2.1-.7l-1.7-.8l-2.3-1.2l-2.8-1.9l-2.3-1.9l-1.2-1.3l-.4-.5l-.4-1.2l-.1-.5l.1-.5l.2-.4l.4-.3Z" class="g0"/>
<path d="M553 306.5l.5-.1l.5 .1l.4 .2l.4 .4l1.4 2.4l1.2 2.6l.8 2.1l.6 2.7l.3 1.8l.1 2.5l-.2 3l-.1 1.1l-.2 .5l-.3 .3l-.4 .3l-.5 .1l-.5-.1l-.5-.2l-.3-.4l-.2-.5v-.5l.2-1l.1-2.7l-.1-2.2l-.5-2.7l-1-3.1l-1-2.3l-1.4-2.2l-.1-.4l-.1-.5l.2-.5l.3-.4Z" class="g0"/>
<path d="M669.6 393.2l.5 .1l.3 .4l2.5 10.4l2.2 11l1.5 9.6l1 7.1l.9 8.4l.7 9.1l.4 8.2v4.6l-.1 4.4l-.6 6.4l-.6 4.3l-.3 .5l-.4 .1h-.3l-.4-.3V477l.6-4.3l.5-6.3l.2-4.3v-4.6l-.4-8.1l-.8-9.1l-.9-8.4l-.9-7l-1.5-9.6l-2.2-10.8L669 394v-.4l.4-.4Z" class="g0"/>
<path d="M668.9 480.7l.4-.2l.5 .2l.9 .9l1.2 .2l3.3-.1l5.7-.4l1.5-.1l1.7 .2l.5 .2l.2 .4v1.6l-.1 .5l-1.9 1l-1.4 .5l-1.5 .4l-1.9 .1l-6.4-.3l-3.4 .2l-.1 .1l.1-.7l7.8 .6l3.9 .6l1.6 .4l1.7 .6l.2 .2l.2 .2v1.9l-.3 .4l-.2 .1h-.3l-.4-.3l-.1-.2l-.1-1.1l-1.2-.4l-1.4-.4l-3.8-.6l-7.8-.6l-1.6-.4l-.4-.4l-.1-.2l.1-.5l.2-.2l1.8-.5l1.7-.2h1.9l6.4 .3l1.7-.2l1.3-.3l1.3-.4l1.1-.6v-.4l-1.1-.1h-1.4l-5.6 .4l-3.4 .1l-1.6-.2l-.5-.2l-1-1l-.2-.5l.1-.4Z" class="g0"/>
<path d="M675.4 488.8l.3 .3l.1 .5l-2.9 11l-2.5 10.1l-1.9 8l-2.4 10.1l-1.4 5.7l-.3 .4l-.4 .2l-.3-.1l-.3-.3l-.1-.5l1.4-5.8l2.4-10.1l1.9-7.9l2.5-10.2l2.9-10.9l.3-.4l.5-.2Z" class="g0"/>
<path d="M401.1 450.5l.2-.4l.3-.2l8-.7l9.1-.4h9l6.8 .1l6.8 .3l5.7 .5l8 1l6.4 1.1l3.2 .7l1.7 .5l2.3 .8l.3 .3l.1 .4l-.1 .2l-.3 .2h-.2l-2.5-.8l-1.6-.5l-3.1-.7l-4.4-.8l-6.9-1l-6.2-.6l-9.3-.5l-6.8-.1l-8.9 .1l-9 .4l-7.9 .7l-.4-.1l-.2-.3Z" class="g1"/>
<path d="M403 484.6l.2-.4l.4-.1l8.3-.5l8.5-.5l9.1-.4l7.5-.3l8.1-.1l7.4 .1l9.2 .3l8.9 .6l2.6 .2l.4 .2l.1 .4v.2l-.2 .3l-.4 .1l-2.6-.2l-8.9-.6l-9.1-.4h-7.4l-8 .1l-7.5 .2l-9.1 .5l-8.6 .5l-8.3 .4l-.3-.1l-.2-.3Z" class="g1"/>
<path d="M472.2 457.2l.3 .2l.1 .4l-.4 3.5l-.6 8.4l-.4 7.6l-.2 .4l-.3 .2h-.2l-.4-.3l-.1-.3l.5-7.6l.5-8.5l.4-3.5l.2-.4l.4-.1Z" class="g1"/>
<path d="M400.4 451.6l.3 .2l.1 .4l-.1 3.3l.2 5.7l.7 6.9l1 8.1l.4 2.4l-.1 .4l-.3 .3h-.2l-.4-.1l-.2-.4l-.3-2.4l-1.1-8.2l-.8-9.1l-.1-5.4l.2-1.6l.1-.4l.4-.1Z" class="g1"/>
<path d="M643.6 351.7l-.2 .4l-.4 .3l-.5 .2H642l-1.8-.2l-1.6 .1l-14 2.6L607 359.2l-12 3.4l-9.4 3.1l-8.5 3.2l-9.3 4l-8.4 4.3l-5.4 3.3l-3 2.3l-2.5 2.2l-2.1 2.1l-1.2 1.5l-.9 1.4l-.9 2.2l-.1 1.7l.7 1.9l1.2 1.1l1.9 1l2.6 1l2.2 .6l4.2 .8l3 .3l5.5 .3l7.6-.2l5.6-.4l5.9-.5l18.3-2.4l15.2-2.5l17.4-3.5h.5l.5 .1l.4 .3l.2 .5l.2 .4l-.1 .5l-.2 .5l-.4 .3l-.5 .2l-17.5 3.5l-15.2 2.6L584 402.7l-6 .5l-5.7 .4l-7.7 .2l-5.7-.3l-3.1-.3l-4.5-.9l-2.4-.6l-2.9-1.1l-2.4-1.3l-1.7-1.6l-.4-.5l-1-2.5l-.1-.7l.2-2.3l1.1-2.9l1.1-1.8l1.4-1.7l2.2-2.4l2.7-2.3l3.2-2.4l5.6-3.5l8.6-4.4l9.5-4.1l8.6-3.2l9.6-3.2l12.1-3.4l17.7-4.1l14.2-2.6l2-.2l2.2 .3l.5 .1l.4 .3l.3 .5l.1 .5Z" class="g1"/>
<path d="M564.6 291.1l.3-.4l.4-.2l.5-.2l.5 .1l1.3 .3l2.8 .5l7.3 .7l5.7 .2l5-.1l12-.6l11.7-1.1l13.3-1.7l17-2.4L654 284l7.5-1.6h.5l.5 .1l.4 .3l.3 .5l.1 .5v.5l-.3 .4l-.3 .3l-.5 .2l-7.7 1.7L642.8 289l-17 2.5l-13.4 1.7l-11.7 1.1l-12.2 .6l-5.2 .1l-5.7-.2l-7.6-.7l-3-.5l-1.5-.4l-.4-.3l-.4-.3l-.2-.5v-.5Z" class="g0"/>
<path d="M703.4 332.8l.4 .2l.4 .4l.1 .5v.5l-.3 2.5l-.1 3.1l.1 3.4l.4 4.3l1.5 9.3v.5l-.2 .4l-.3 .4l-.5 .3l-.4 .1l-.5-.1l-.5-.3l-.3-.3l-.2-.5l-1.5-9.4l-.4-4.4L701 340l.1-3.4l.4-2.7l.2-.5l.3-.3l.4-.3l.5-.1Z" class="g0"/>
<path d="M595.3 337.3l.5-.3l.6-.1l.5 .1l.5 .3l1.6 1.4l2.6 3.1l1.2 1.9l1.2 2.2l.9 1.8l.8 2.2l.6 2.6l.4 2.6v2l-.1 .7l-.3 .5l-.5 .3l-.5 .2h-.6l-.5-.3l-.4-.3l-.2-.5l-.2-2.4l-.3-2.3l-.5-2.2l-.7-1.9l-.8-1.6l-1.1-2l-1.1-1.7l-2.2-2.7l-1.4-1.2l-.3-.4l-.2-.5v-.6l.2-.5Z" class="g1"/>
<path d="M634.2 326.4l.2-.5l.4-.2l1.2-.1l1.9-1.5l3.3-3.1l2.4-2.6l1.5-1.8l.9-1.2l1.8-3.1l1-2l1.1-2.7l1.4-4.5l.8-2.8l.2-1.5l.3-.4l.5-.2l.2 .1l.4 .3l.1 .5l-.3 1.5l-.8 2.9l-1.5 4.6l-1.1 2.8l-1 2l-1.9 3.3l-1 1.3l-1.5 1.9l-2.4 2.6l-3.4 3.2l-2.2 1.6l-.3 .2l-1.4 .1l-.5-.1l-.3-.4Z" class="g0"/>
<path d="M636.1 325.9l-.2-.4l.1-.5l3.3-4.7l1.5-2.7l.8-1.7l1-2.6l1.4-4.8l.6-2.7l.4-.4h.5l.4 .4v.4l-.5 2.6l-1.4 4.9l-1.1 2.8l-.8 1.7l-1.6 2.8l-3.3 4.8l-.4 .3h-.5Z" class="g0"/>
<path d="M232.9 826.1h-.5l-.4-.2l-.4-.3l-.3-.4l-.5-1.6l-.4-1.9l-.4-2.9l-.3-5.2l.2-6.7l.4-5l.6-3.9l.8-4.2l1.9-8.1l1.7-6.1l2.6-7.6l2.6-6.7l1.8-4.1l2.7-5.6l4.3-8.3l4-6.8l4.3-6.8l2.8-4l4.8-6.6l3-3.8l3.1-3.8l4.4-4.8l3.2-3.5l5.5-5.4l3.3-3.1l5.5-4.7l3.3-2.6l5.6-3.9l3.3-2l3.4-1.9l4.3-2.1l3.3-1.3l5.2-1.8l3-.8l3-.5l2-.3l2.9-.1l2.9 .1l3.7 .6l3.6 1.2l3.4 1.6l2.5 1.5l2.3 1.7l1.6 1.3l2.1 2.1l2.1 2.4L358 691l1.8 2.9l1.7 3.2l2 4.8l1.8 5.3l1.4 5.8l.9 4.4l1.3 7.7l.5 4.8l.5 8.2l.1 5l-.1 5.1l-.3 6.8l-.6 6.9l-.8 6.8l-1.4 8.9l-1.3 7.7l-1.3 6.3l-1.9 8.4l-1 3.7l-.2 .4l-.4 .4l-.5 .2h-.5l-.4-.1l-.4-.3l-.3-.4l-.1-.5v-.5l1-3.6l1.9-8.3l1.2-6.2l1.4-7.7l1.3-8.8l.8-6.7l.6-6.8l.3-6.7l.1-5l-.1-5l-.5-8l-.5-4.7l-1.2-7.4l-.9-4.4l-1.4-5.6l-1.7-5.1l-1.9-4.6l-1.6-3l-1.7-2.7l-1.2-1.6l-1.9-2.3l-2-1.9l-1.4-1.2l-2.1-1.5l-2.3-1.4l-3.2-1.5l-3.2-1l-3.3-.5l-2.6-.1l-2.6 .1l-1.8 .2l-2.8 .5l-2.9 .8l-4.9 1.7l-3.1 1.3l-4.3 2l-3.1 1.8l-3.3 2l-5.4 3.8l-3.2 2.5l-5.4 4.6l-3.2 3l-5.4 5.3l-3.2 3.4l-4.3 4.8l-3.1 3.7l-3 3.8l-4.7 6.4l-2.7 4l-4.2 6.7l-4 6.7l-4.2 8.2l-2.7 5.5l-1.8 4l-2.5 6.6l-2.6 7.5l-1.7 5.9l-1.8 8l-.8 4.1l-.5 3.7l-.5 4.9l-.1 6.5l.3 4.9l.3 2.8l.4 1.6l.4 1.3l.1 .5l-.1 .5l-.2 .4l-.4 .3Z" class="g1"/>
<path d="M345.8 670.4l.4-.3h.5l.5 .1l.4 .3l2.9 2.9l5.2 4.3l5.1 3.9l3.8 2.6l9.2 5.5l7 3.6l7.8 3.4l6.3 2.4l4.4 1.5l6.1 1.9l10 2.7l9.5 2.2l.5 .2l.3 .3l.3 .5l.1 .5l-.1 .4l-.3 .5l-.4 .3l-.4 .2l-.5-.1l-9.7-2.2l-10.1-2.8l-6.1-1.8l-4.5-1.6l-6.5-2.4l-7.9-3.5l-7.2-3.7l-9.3-5.6l-4-2.7l-5.2-3.9l-5.3-4.5l-3-2.9l-.3-.5l-.1-.4v-.5l.2-.5Z" class="g1"/>
<path d="M213.2 832.8l.2-.5l.3-.3l.4-.3l.5-.1l21-.5l12.2-.2l10.3 .2l6.8 .3l8.6 .7l10.1 1.2l7.1 1.1l8.2 1.6l6.6 1.6l3.7 1.1l4.9 1.5l6.1 2.3l5.1 2l4.1 1.8l5.2 2.6l1.9 1l.3 .3l.3 .4l.1 .5l-.1 .5l-.2 .4l-.4 .3l-.5 .2h-.5l-.4-.2l-3.9-2.1l-7-3.1l-5-2.1l-6.1-2.2l-4.7-1.5l-3.7-1l-6.4-1.6l-8.1-1.6l-6.9-1.1l-10.1-1.1l-8.5-.7l-6.7-.3l-10.2-.2l-12.1 .2l-21.1 .5l-.5-.1l-.4-.2l-.3-.4l-.2-.4Z" class="g1"/>
<path d="M214 834.9l.5 .1l.4 .2l.3 .4l.2 .5l1.5 9l4.8 20.6l3.3 13.1l4.3 15.1l3.7 12.2l6.8 20.6l5.3 15.6l6.5 17.8l6.8 17.8l.1 .5l-.1 .5l-.3 .4l-.3 .4l-.5 .1l-.5 .1l-.5-.2l-.4-.3l-.2-.4l-6.8-17.9l-6.5-17.9L237 927.6l-6.7-20.7l-3.8-12.2l-4.2-15.2l-3.4-13.1l-4.8-20.8l-1.6-9.1V836l.2-.5l.3-.3l.5-.3Z" class="g1"/>
<path d="M338.8 841.3l.4 .3l.2 .4l.2 .5l-.1 .5l-.5 1.6l-1.2 5l-.7 5.2l-.8 9.1l-.1 3.1l-.1 .5l-.2 .4l-.4 .4l-.5 .1h-.5l-.5-.2l-.4-.3l-.2-.4l-.1-.5l.6-9.7l.7-6.1l.8-4.2l.8-3.2l.5-1.7l.3-.4l.4-.4l.4-.2h.5Z" class="g1"/>
<path d="M440.3 710l.5-.1h.5l.4 .2l.4 .3l1 1.4l1.6 3l2.8 7.1l2.5 7.6l1.6 5.8l1.9 7.8l1.2 5.9l1.7 10.2l.8 8.2l.4 7.1v4.4l-.2 5.8l-.3 4.4l-.7 7.2l-.6 4.2l-1.2 6.9l-.9 4l-1.6 6.3l-2.3 7.2l-3 7.5l-2.2 4.9l-2.4 4.7l-2.3 3.8l-1.9 2.9l-2.6 3.8l-1 1.1l-.4 .3l-.5 .2H433l-.4-.2l-.4-.3l-.3-.5v-1l.3-.4l.9-1.1l2.6-3.5l1.8-2.9l2.2-3.7L442 836l2.2-4.7l2.9-7.4l2.2-7l1.6-6.2l.9-3.9l1.2-6.7l.6-4.2l.7-7l.2-4.3l.2-5.8v-4.2l-.3-7l-.8-8l-1-6.4l-1.2-6L448.8 736l-1.6-5.7l-2.4-7.4L442 716l-1.4-2.7l-.8-1.1l-.2-.5l-.1-.5l.1-.4l.3-.5Z" class="g1"/>
<path d="M440.4 847.4l.3 .4l.1 .5l-.1 .5l-.2 .4l-11.8 17L417.3 882l-8 10.4l-.4 .3l-.4 .2l-.5 .1l-.5-.2l-.4-.3l-.3-.4l-.1-.5l.1-.5l.2-.5l7.9-10.4l11.5-15.7l11.8-17l.3-.3l.5-.2h.5l.5 .1Z" class="g1"/>
<path d="M436.8 859l.4 .3l.2 .5v.5l-.2 .5l-3.9 8l-5.2 12.5l-2.1 5.9l-2.3 8.3l-2.5 10.9l-.2 .5l-.3 .4l-.5 .2l-.5 .1l-.5-.1l-.4-.2l-.3-.4l-.2-.5v-.5l2.6-11.1l2.4-8.4l2.1-6.1l5.3-12.6l4-8.2l.3-.4l.4-.3l.5-.1h.5Z" class="g1"/>
<path d="M433.8 864.7l.5 .2l.4 .3l.3 .5v2.6l.3 6.6l.9 8l.9 6.6l3.1 17l3 13.4l3.8 14.7l3.3 11.5l4.4 13.5l3.1 9.1l5.1 13.3l3.5 8l3.1 6.6l2.7 5.2l3.5 6.6l1.3 2.1l.2 .4v.6l-.2 .5l-.3 .4l-.4 .2l-.5 .1h-.6l-.4-.3l-.4-.4l-1.2-2l-3.7-6.8l-2.6-5.2l-3.2-6.7l-3.5-8.1L455 969.7l-3.2-9.2L447.5 947l-3.4-11.6l-3.8-14.8l-3-13.5L434.2 890l-1-6.7l-.9-8.2l-.3-6.7v-2.3l.1-.5l.3-.5l.4-.3l.5-.2Z" class="g1"/>
<path d="M356.5 836.8l.5 .1l.4 .3l.3 .4l.2 .5l.5 3.2l.8 2.9l1.7 5.7l2.6 7.1l2.4 5.9l5 11.1l4.8 9.5l4.8 8.4l3 5.2l7.9 12.2l5.6 8.3l9.1 12.3l6.5 8.1l4.1 4.8l3.9 4.3l3.6 3.9l4.4 4.4l3.6 3.3l4.8 4.1l1.5 1.2l.3 .4l.2 .4v.5l-.1 .5l-.3 .4l-.5 .3l-.4 .1l-.5-.1l-.5-.2l-1.5-1.2l-4.9-4.2l-3.7-3.4l-4.4-4.5l-3.7-3.9l-3.9-4.4l-4.2-4.8l-6.6-8.2l-9.1-12.4l-5.7-8.4l-7.9-12.3l-3.1-5.3l-4.8-8.5l-4.9-9.5L363.2 864l-2.4-5.9l-2.6-7.3l-1.8-5.9l-.8-2.9l-.6-3.5V838l.2-.5l.3-.3l.5-.3Z" class="g1"/>
<path d="M395.7 701.8l.5-.2l.5 .1l1.5 1.1l1.2 1.2l2.2 2.7l1.1 1.6l2.1 3.6l.9 1.9l1.6 3.5l1.6 4.2l1.9 6.1l1.2 4.7l1.1 5.1l1.7 9.8l1 7.2l.8 8.8l.2 7.4v4.5l-.2 5.8l-.8 8.4l-.3 2.8l-.6 4l-1.4 6.3l-2 6.5l-2.1 5.6l-2 4.5l-1.6 3.4l-1.4 2.5l-1.7 2.7l-.4 .3h-.5l-.2-.1l-.3-.5l.2-.5l1.7-2.6l1.3-2.5l1.6-3.4l1.9-4.4l2.1-5.5l2-6.4l1.3-6.2l.7-3.9l.3-2.7l.7-8.4l.3-5.8v-4.4l-.3-7.3l-.7-8.7l-1-7.2l-1.7-9.7l-1.1-5.1l-1.2-4.6l-1.9-6l-1.6-4.1l-1.5-3.5l-1.8-3.4l-2.2-3.5l-2.1-2.6l-1.1-1l-1.4-1l-.2-.4V702Z" class="g1"/>
<path d="M398.4 849.6l.3 .4l-.1 .5l-.6 1.3l-.3 4l.1 5.5l.4 5.6l.9 6.6l1.3 5.7l1.1 4.2l1.4 4.3l2.8 7.9l2.3 5.5l4 8.4l3 5.3l2.8 4.6l4.4 6.6l3.3 4.4l.2 .5l-.2 .4l-.2 .2l-.5 .1l-.4-.3l-3.4-4.4l-4.4-6.7l-2.8-4.6l-3.1-5.5l-4-8.4l-2.3-5.6l-2.9-7.9l-1.4-4.4l-1.1-4.2l-1.3-5.8l-.9-6.8l-.4-5.6l-.1-5.6l.3-4.3l.8-1.6l.3-.4h.5Z" class="g1"/>
<path d="M334.9 952.6h.5l.4 .3l5.8 9l5.8 9.5l4.3 7.2l.1 .5l-.2 .4l-.3 .1h-.5l-.3-.3l-4.3-7.1l-5.8-9.6l-5.8-8.9l-.1-.5l.2-.5Z" class="g0"/>
<path d="M268.5 950.5l.4 .1l.3 .4l1.5 4.5l2.3 5.3l2.9 6l2.7 4.7l4.3 6.5l1.1 1.7v.2l-.2 .5l-.2 .1l-.5 .1l-.4-.3l-3.9-5.9l-3.4-5.5l-2.1-4.1l-2.6-5.7l-2.5-6.5l-.4-1.2l.1-.5l.3-.3Z" class="g0"/>
<path d="M282.5 979.6l.3-.4h.5l1.1 .1l4.3 1l2.2 .4l5.6 .6l10.9 .5H316l5.7-.3l10.6-.8l5.6-.7l11.3-1.9l.8-.2l.4 .3l.1 .2l.1 .2l-.2 .5l-.2 .1l-1.9 .5l-10.2 1.7l-5.7 .7l-10.6 .9l-5.8 .2l-8.6 .1l-11.1-.5l-5.6-.7l-2.2-.4l-3.1-.6l-2.4-.5l-.4-.3l-.2-.4Z" class="g0"/>
<path d="M254.7 997.4l.4 .3l.1 .5l-.3 1.5l-.4 5.9l.2 7.7l.5 5.4l.9 5.1l.5 2.1l.9 3.4l.7 2l1.3 3.2l.9 1.8l1.3 2.2l1.5 2.1l2.7 3.2l1.2 1.1l2.2 1.8l1.9 1.4l1.5 1l2.1 1.1l1.1 .4l.3 .4v.3l-.1 .2l-.4 .3h-.5l-.9-.3l-2.3-1.1l-1.6-1.1l-2-1.4l-2.3-1.9l-1.2-1.2l-2.9-3.3l-1.5-2.2l-1.4-2.3l-.9-1.9l-1.3-3.3l-.7-2l-1-3.6l-.5-2.1l-.9-5.2l-.4-2.8l-.3-4.6v-5.9l.3-6.1l.3-1.6l.3-.4l.5-.2Z" class="g1"/>
<path d="M245.1 1047l.2-.4l.4-.3l10.4-1.2l10.2-1.3l10.9-1.3l10.4-1.3l2.8-.3l.2 .1l.3 .4v.3l-.2 .4l-.2 .2l-2.7 .3l-10.5 1.3l-10.8 1.4l-10.3 1.2l-10.3 1.3l-.5-.2l-.3-.3Z" class="g0"/>
<path d="M248.5 1053l.2-.4l.4-.3l10.4-1.8l8.1-1.2l10.6-1.4l8.5-1.1l10.3-1.2l2.4-.2l.3 .1l.2 .4l.1 .2l-.2 .5l-.2 .1l-2.4 .3l-10.3 1.2l-8.5 1.1l-10.6 1.5l-8.1 1.2l-10.3 1.7l-.5-.1l-.3-.3Z" class="g0"/>
<path d="M251.4 1057.1l.3-.5l.4-.1l1.8-.1l10.9-1.4l11.3-1.4l10.9-1.3l10.8-1l.5 .1l.2 .4l.1 .3l-.2 .4l-.5 .2l-10.8 1.1l-10.8 1.2l-11.3 1.5l-11 1.3l-1.8 .1l-.5-.1l-.3-.5Z" class="g0"/>
<path d="M258.1 1060.5l.1-.5l.4-.3l1.9-.4l5.7-.7l11.4-.9l10.6-.8l10.8-.9l9-.9l.5 .1l.3 .5v.2l-.2 .4l-.4 .3l-9.1 .8l-10.8 .9l-10.6 .8l-11.3 1l-5.7 .6l-1.7 .4h-.5l-.4-.4Z" class="g0"/>
<path d="M451.3 809.7v-.5l.2-.5l.3-.4l.4-.2l3.9-1.4l7.4-2l6.7-1.4l5.7-.9l7.3-.5l5.2 .1l6 .5l5.3 1.1l.5 .2l.3 .3l.2 .5l.1 .5l-.1 .4l-.3 .5l-.4 .2l-.5 .2l-5.5-1l-5.8-.6h-5l-7 .5l-5.5 .9l-6.5 1.3l-7.3 2l-3.6 1.3h-1l-.4-.3l-.4-.3Z" class="g1"/>
<path d="M500.3 804.4h.5l.5 .1l.4 .3l.3 .4l1 2.2l1.6 4.8l1.7 6.9l1.4 7.6l.8 6l1.1 11.8l.6 10.8l.2 14.1v10.4l-.6 17l-1.2 16.7l-1.2 11.8l-1.9 12.6l-1.4 8.1l-1.8 7.7l-1.7 6.3l-1.5 4.8l-2.6 7.4l-.3 .4l-.4 .3l-.5 .2h-.5l-.5-.2l-.4-.4l-.2-.4l-.1-.5l.1-.5l2.6-7.2l1.5-4.7l1.6-6.2l1.8-7.6l1.4-8l1.8-12.5l1.3-11.7l1.2-16.6l.5-16.9l.1-10.3l-.3-14.1l-.5-10.6L505.6 833l-.8-5.9l-1.4-7.4l-1.6-6.7l-1.6-4.5l-.9-2.1l-.1-.5v-.5l.2-.4l.4-.4Z" class="g1"/>
<path d="M441.2 915l-.5 .1l-.5-.2l-.4-.3l-.3-.4l-.6-1.4l-.2-.7l.5-4.7l1.3-7l1.3-6.1l1.3-4.9l2.1-6.6l.8-2.3l3.7-8.8l1.8-3.7l2-3.8l2.9-5l2.2-3.6l3.7-5.7l2.3-3.2l3.8-5l4.6-5.5l1.5-1.7l3.6-3.8l3.6-3.5l3.1-2.9l4.4-3.6l2.1-1.6l.4-.2l.5-.1l.5 .1l.4 .3l.3 .4l.2 .5l-.1 .5l-.2 .4l-.3 .4l-2.1 1.5l-4.2 3.6l-3 2.8l-3.6 3.5l-3.5 3.7l-5.9 7l-3.8 4.9l-2.2 3.2l-3.7 5.6l-2.2 3.5l-2.8 4.9l-1.9 3.7l-1.8 3.7l-3.6 8.5l-.8 2.2l-2 6.5l-1.3 4.8l-1.3 6l-1.2 6.8l-.5 4.2l.5 1l.2 .5l-.1 .5l-.2 .5l-.4 .3Z" class="g0"/>
<path d="M470.1 840.2l.5-.1l.5 .1l.4 .2l.4 .3l2.2 3.4l2.6 4.8l2 4.5l.6 1.4l2 6.4l1.8 6.6l1.2 5.2l1.6 8.3l1.1 7.5l1 7.9l.4 4.9l.5 8.4l.1 8.7l-.1 6.9l-.4 9.8l-.5 7.7l-.7 7.1l-1 7.6l-.8 4.4l-.9 4l-1.3 4.5l-1.2 3.6l-1 2.6l-.8 1.8l-.7 1.3l-.3 .4l-.5 .2l-.5 .1l-.5-.1l-.4-.2l-.3-.4l-.2-.5V979l.2-.4l.6-1.2l.8-1.7l.9-2.5l1.2-3.3l1.2-4.4l.9-3.9l.8-4.3l1-7.4l.7-7l.5-7.6l.3-9.8l.1-6.9l-.1-8.5l-.5-8.3l-.4-4.8l-.9-7.8l-.7-4.5l-1.2-7.1l-2-9.1l-1.7-6.5l-2-6.2l-.6-1.3l-1.9-4.4l-2.5-4.5l-2.1-3.2l-.2-.5l-.1-.5l.2-.5l.3-.4Z" class="g0"/>
<path d="M472 981.1v-.5l.2-.5l.3-.4l.5-.2l21.9-6.9l2.4-.7l.5-.1l.4 .1l.5 .3l.3 .4l.1 .5v.5l-.2 .5l-.4 .3l-.4 .3l-2.4 .7l-21.8 6.8l-.5 .1l-.5-.1l-.4-.3l-.3-.3Z" class="g0"/>
<path d="M500.5 966.5l.6 .5l.3 .8l.1 .8l-.2 .7l-1.1 2.5l-4.1 10.4l-.5 .7l-.6 .5l-.8 .2h-.8l-.7-.3l-.6-.5l-.4-.7l-.1-.8l.1-.8l4.2-10.5l1.2-2.6l.4-.7l.7-.5l.8-.2l.8 .1Z" class="g0"/>
<path d="M492 981.1l.4 .2l.4 .4l.2 .4v.5l-.2 6l.1 5.5l.5 6.3l.6 3.2l.4 1.8l1 2.9l.7 1.5l1.6 2.2l1 1.1l1.8 1.2l1.4 .7l1.5 .5l2.9 .4l1.9-.1l3.7-.7l2.4-.8l3.5-1.6l3.9-2.1l3.9-2.5l3-2.1l4.9-3.8l2.8-2.5l4.3-4.5l2.4-2.9l2.2-3.1l2.5-4.3l2-4.7l1.6-4.9l.9-3.7l.6-3.8l.3-2.5v-7l-.5-6.3l-.8-5.3l-.8-4.3l-.9-3.1l-.7-2.3l-1.1-2.6l.1-.5l.2-.4l.4-.4l.4-.2h.5l.5 .1l.4 .3l.3 .4l1 2.3l.8 2.4l.9 3.3l.9 4.4l.8 5.5l.5 6.5v7.3l-.3 2.8l-.7 3.9l-.9 3.9l-1.6 5.2l-2.2 4.9l-2.6 4.6l-2.4 3.3l-2.5 3.1l-4.5 4.7l-2.9 2.6l-5.1 3.9l-3 2.2l-4.1 2.6l-4 2.2l-3.8 1.6l-2.7 .9l-4.1 .8l-2.3 .1l-3.4-.4l-2-.6l-1.8-.9l-2.1-1.4l-1.5-1.4l-1.8-2.7l-.9-1.9l-1.1-3.1l-.5-2.1l-.6-3.3l-.6-6.6l-.1-7.5l.3-4.5l.1-.4l.3-.5l.4-.2l.5-.2Z" class="g1"/>
<path d="M480.4 1026.3l-.1-.4l.1-.4l.2-.3l.3-.3l1.6-.8l3.7-1.4l6.3-1.9l4.6-1.1l6.8-1.3l3.4-.6h.4l.4 .2l.3 .3l.2 .3l.1 .4l-.1 .4l-.2 .4l-.4 .2l-.4 .2l-3.4 .5l-6.6 1.3l-4.5 1.1l-6.1 1.8l-3.6 1.4l-1.4 .7l-.4 .1h-.4l-.3-.1l-.4-.3Z" class="g1"/>
<path d="M522.7 945.5l.1-.5l.3-.4l.4-.4l.5-.1l2-.3l6.6-3l15.1-8.4l.5-.2h.6l.5 .2l.4 .3l.3 .5l.1 .5l-.1 .5l-.3 .5l-.4 .3l-15.4 8.6l-6.9 3.1l-2.6 .4h-.5l-.5-.2l-.4-.4l-.2-.4Z" class="g1"/>
<path d="M523.1 943.8l.5-.1l.5 .1l.4 .2l.4 .3l4.5 6.8l1.2 2.3l1.1 2.2l1.7 4.3l1.2 4.4l.8 4.1l.4 3.6l.2 2.1v3.6l-.1 2.2l-.4 3l-.5 2.8l-1.3 4.9l-.6 2l-1.4 3.3l-2.4 5.1l-2.6 4.1l-.4 .3l-.4 .2l-.5 .1l-.5-.2l-.4-.3l-.3-.4l-.1-.5v-.5l2.6-4.2l2.4-4.8l1.3-3.2l.6-1.9l1.2-4.6l.5-2.7l.3-2.7l.1-2.1v-3.4l-.2-2l-.4-3.4l-.7-3.8l-1.2-4.2l-1.5-4l-2.2-4.3l-4.4-6.5l-.2-.5V945l.1-.5l.3-.4Z" class="g1"/>
<path d="M322.5 728.8l-.3 .3l-.5 .1l-2.6-.6l-.3-.4V728l.1-.3l.4-.3l2.3-.9l10.3-.5l10.4-.2H349l11.2 .1l10.4 .1l11.4 .3l7.4 .3l7.6 .3l10.8 .6l11.2 .6l11.4 .9l8.6 .6l8.3 .8l5.6 .5l8.1 .9l7.9 .9l5.2 .7l7.5 1l7.2 1.2l9 1.6L506 739l7.4 1.8l9.4 2.8l6.4 2.3l3 1.4l4 2.5l2.3 3.2l.2 .7l-1.4 4l-2.9 3l-5.6 3.3l-4.7 2.2l-8.1 3.1l-5.5 1.7l-3.4 .8l-.5-.1l-.3-.3l-.1-.3l.2-.5l.4-.2l3.4-.8l5.4-1.7l8-3.1l4.5-2.1l5.5-3.2l2.6-2.6l1-3.3l-2.1-2.8l-3.6-2.2l-2.9-1.4l-6.2-2.2l-9.4-2.8l-7.3-1.8l-8.2-1.8l-8.9-1.6l-7.2-1.1l-7.5-1.1l-5.1-.7l-7.9-.9l-8.2-.9l-5.5-.5l-8.4-.7l-8.5-.7l-11.4-.8l-11.2-.7l-10.7-.6l-7.7-.3l-7.3-.2l-11.4-.3l-10.5-.2H342.3l-10.3 .2l-10.2 .4v-.2l.2 .1l.4 .2l.2 .5Z" class="g1"/>
<path d="M336.7 749.5l-.3 .4l-.5 .1l-2.6-.5l-.3-.4v-.2l.2-.5l1.6-1.7l.4-.3l8.7-1.7l8.2-1.2l10.5-1.3l11.3-1.1l7.2-.6l7.8-.4l5.9-.3l10-.4l6.1-.1l10.2-.1l6.2 .1l6.1 .2l8.1 .3l7.8 .5l7.6 .7l10.5 1.1l7.9 1.1l7 1.3l7.1 1.7l3.8 1.2l3.2 1.3l2.5 1.4l2.5 2l2 2.9l.1 .5l-.1 2.4v.3l-.5 .4l-2.1 .4h-.4l-.4-.4v-.2l.3-.7l1.7-.4l.1-1.6l-1.9-2.7l-2.1-1.7l-2.4-1.3l-3-1.3l-3.7-1.2l-7-1.6l-6.9-1.3l-7.9-1.1l-10.4-1.1l-7.6-.6l-7.8-.5l-8-.4l-6.1-.2H410.9l-6.1 .1l-10 .4l-5.9 .3l-7.7 .5l-7.2 .5l-6.7 .6L356 744.4l-9 1.3l-11.3 2.1l-.6 .6l1.1 .2l.4 .2l.2 .5Z" class="g1"/>
<path d="M510.9 964.8l.5-.1l.4 .3l1.2 1.7l1 2l1.2 3.3l.8 2.9l1.3 7.8l.4 5.3l-.1 .4l-.5 .3h-.2l-.4-.2l-.2-.5l-.5-5.1l-1.2-7.7l-.8-2.8l-1.2-3.2l-.9-1.8l-1.1-1.6l-.1-.4l.2-.5Z" class="g1"/>
<path d="M520.5 952.4l.4 .1l.4 .4l1.7 4.4l1.6 5.3l1 4.9l.7 5.1l.4 8.1l.1 8l-.2 2.8l-.2 .4l-.4 .2h-.3l-.2-.1l-.3-.4l.1-3v-7.9l-.4-8l-.7-5l-1-4.8l-1.6-5.1l-1.6-4.4l-.1-.5l.3-.4Z" class="g1"/>
<path d="M513.7 805l.4 .1l.3 .4l1.5 8.8l1 8.4l1.1 10.7l.5 9.3l.2 3.4l.2 10l.1 9.6l-.1 8.3l-.1 6.8l-.2 9.4l-.2 4.2l-.2 .4l-.4 .3h-.3l-.4-.3l-.1-.5l.2-4.2l.2-9.3l.1-6.8V856.1l-.2-10l-.2-3.3l-.6-9.3l-1-10.6l-1-8.4l-1.5-8.7v-.5l.4-.3Z" class="g1"/>
<path d="M525.7 814.8l.5 .2l.2 .4l.7 5.1l.8 10.3l.5 9.9l.4 9.4l.1 3l-.2 .5l-.4 .2h-.2l-.5-.2l-.2-.5v-2.9l-.4-9.5l-.5-9.8l-.8-10.3l-.7-5l.1-.4l.3-.4Z" class="g1"/>
<path d="M228.3 1072.6l-.2 .5l-.3 .4l-.5 .2l-.5 .1l-11.3 .2l-3.1-.2l-2.6-.3l-.6-.2l-.4-.4l-.2-.6v-.6l.2-.5l.7-.9l.9-.6l3.4-.5l8.1-1.1l16.6-1.6l22.7-2.1l18.9-1.5l22.7-1.7l17.3-1.2l15-1l11.5-.8l19.7-1.2l12.3-.8l21.3-1.2l13.3-.7l22.7-1.1l14.2-.6l14.4-.6l19.6-.6l25.3-.5l10-.2l15.1-.2l15-.1l9.9-.1l14.8 .1l14.7 .2l19.3 .4l19 .6l18.7 .8l13.6 .7l13 .6l21.7 1.3l18.2 1.2l14.4 1.1l18.6 1.4l5.8 .6l.5 .1l.4 .3l.3 .4l.1 .5v.5l-.3 .4l-.3 .4l-.5 .2h-.5l-5.7-.5l-18.6-1.5l-14.4-1l-18.2-1.2l-21.6-1.3l-13.1-.7l-13.5-.6l-18.7-.8l-19-.6l-19.3-.4l-14.6-.2l-14.8-.1h-9.9l-14.9 .2l-15.1 .2l-10.1 .1l-25.2 .6l-19.6 .6l-14.4 .6l-14.1 .6l-22.8 1.1l-13.3 .7l-21.2 1.2l-12.3 .8l-19.7 1.2l-11.5 .8l-15 1l-17.3 1.2l-22.7 1.7l-18.9 1.5l-22.6 2l-16.5 1.7l-9.3 1.2l.3-1.2l2.2 .1l11.4-.2l.4 .1l.5 .3l.3 .4l.2 .4Z" class="g0"/>
<path d="M302.7 1355l-.5 .1l-.5-.1l-.4-.2l-.3-.4l-1.4-2.4l-1.2-2.7l-.8-2l-1.1-3.2l-.6-2.4l-.3-1.6l-.4-4.5v-2.9l.2-4.7l.5-4.3l.8-4.6l.7-2.9l1.4-5.3l1.1-3.4l1.3-3.5l2-5l4.3-9.4l2.1-4.2l3.9-7l2.6-4.3l2.7-4.2l4.1-5.7l4.3-5.7l4.7-5.5l3.7-4l3.6-3.9l2.6-2.6l6.8-6l2.8-2.3l4.2-3.3l4.4-3.2l6-3.8l6.2-3.4l6.3-3l4.7-2l4.5-1.7l3.2-1l4.6-1.3l4.5-1l3.2-.5l7.8-.3l6.3 .4l6.2 .9l6 1.6l4.5 1.5l4.2 1.7l2.8 1.3l4.1 2.3l3.8 2.5l2.6 1.8l3.7 3l3.5 3.2l4.5 4.8l5.2 6.5l2 2.7l2.8 4.1l2.6 4.2l1.7 2.8l2.4 4.3l2.1 4.4l1.4 2.9l1.8 4.4l1.7 4.4l1.9 5.8l1.2 4.3l1.7 6.9l1.4 9.3l.4 3.8l.4 6.2v6.8l-.3 4l-.6 5.6l-.7 4l-.7 3.1l-.6 2.4l-.5 1.7l-.5 1.1l-.3 .5l-.4 .3l-.4 .1h-.5l-.5-.2l-.4-.3l-.2-.4l-.1-.5l.1-.5l.5-1.1l.5-1.6l.5-2.2l.7-3l.7-3.9l.5-5.3l.3-4v-6.6l-.4-6l-.3-3.7l-1.5-9.1l-1.6-6.7L486 1282l-1.9-5.7l-1.6-4.2l-1.8-4.4l-1.3-2.8l-2.1-4.3l-2.3-4.2l-1.6-2.8l-2.6-4.1l-2.8-4l-1.9-2.6l-5.1-6.4l-4.3-4.6l-3.4-3.1l-3.6-2.8l-2.4-1.8l-3.8-2.4l-3.8-2.1l-2.7-1.2l-4.1-1.7l-4.2-1.4l-5.9-1.6l-5.9-.9l-6-.3l-7.5 .3l-2.9 .5l-4.4 .9l-4.4 1.2l-3 1l-4.5 1.7l-4.6 1.9l-6.1 2.9l-6 3.4l-5.9 3.7l-4.3 3.1l-4.2 3.3l-2.7 2.2l-6.7 6l-2.4 2.4l-3.6 3.8l-3.6 4l-4.6 5.5l-4.3 5.5l-4 5.6l-2.7 4.2l-2.5 4.2l-3.8 6.9l-2.1 4.1l-4.3 9.2l-1.9 4.9l-1.3 3.5l-1 3.3l-1.4 5.1l-1 4.6l-.8 5.2l-.2 3.8l-.1 5l.4 4.2l.3 1.5l.5 2.2l1 3l.8 1.8l1.1 2.5l1.3 2.2l.1 .5v.5l-.1 .5l-.3 .4Z" class="g0"/>
<path d="M305.9 1366.4l.9 .4l.4 .9l1.9 21.4l1.4 22.3l1 21.7l.7 22.5l.3 15.8l.2 17.1v22.9l-.1 3.1l-.6 .8l-.5 .2H311l-.4-.2l-.7-.8v-3.1l-.1-22.9l-.2-17.1l-.3-15.7l-.7-22.5l-1-21.6l-1.3-22.3l-1.9-21.4l.2-.9l.8-.6Z" class="g1"/>
<path d="M320.4 1549.5l.9 .5l.4 .9l.1 2.2l.4 2.4l.6 2.1l1 2.1l1.1 1.8l1.9 2.4l2.6 2.3l3.2 1.9l4.9 2l3.6 1.1l3.4 .7l.7 .7l.1 .5l-.1 .5l-.6 .8l-.5 .2l-1.3-.1l-2.3-.5l-3.9-1.2l-5.2-2.1l-3.6-2.1l-3-2.6l-2.2-2.8l-1.3-2.1l-1.1-2.4l-.8-2.5l-.5-2.6l-.1-2.6l.3-.9l.8-.6Z" class="g1"/>
<path d="M181.3 1282.5l.3-.3l.5-.3h.5l.4 .1l1.1 .5l1.4 .4l3.6 .6l2.4 .2l3.9 .1l21.9-1.5l13.3-1.2l.5 .1l.5 .2l.4 .3l.2 .5v.5l-.1 .5l-.3 .4l-.4 .3l-.5 .1l-20.7 1.9l-14.7 .8l-4.2-.1l-2.5-.2l-3.9-.7l-1.6-.5l-1.4-.5l-.4-.3l-.3-.4l-.1-.5v-.5Z" class="g0"/>
<path d="M349.7 1213.9l-.5 .1l-.5-.1l-1.1-.9l-2.2-.1l-2.3 .7l-4.2 1.8l-4.2 2.4l-4.5 3.1l-6.2 4.9l-6.8 6l-6.9 6.9l-6.3 6.9l-4.2 5.3l-4.2 5.7l-4.1 6.2l-2.9 4.7l-4.6 8.2l-2.4 5l-3.7 8.6l-3 9.2l-2 7.5l-1.3 5.5l-1.6 8.9l-.7 5.3l-.5 8.4l.3 8.5l.7 7.4l1 5.9l.9 4.6l.9 3.4l1.2 3.6v.5l-.3 .4l-.3 .1l-.4-.1l-.4-.4l-1.2-3.7l-.9-3.4l-1-4.7l-.9-6l-.7-7.5l-.3-8.6l.5-8.5l.7-5.3l1.6-9.1l1.3-5.6l2-7.5l3-9.3l3.8-8.7l2.5-5.1l4.5-8.2l3-4.8l4.1-6.2l4.2-5.8l4.3-5.3l6.3-7l7-6.9l6.9-6.1l6.2-5l4.6-3.1l4.4-2.5l4.3-1.9l2.5-.7h2.8l.4 .2l1.3 1.1l.3 .4l-.1 .5Z" class="g1"/>
<path d="M260.3 1511.6l-.1 .5l-.4 .3l-.6 .2l-1.2-1.1l2.3 .5l4.7-.1l4.6-.5l7.3-1.4l4.1-1l.5 .1l.3 .3l.1 .2l-.1 .5l-.4 .3l-4.2 1l-7.4 1.4l-4.6 .5l-4.9 .2l-2.6-.6l-.4-.2l-.1-.3l.1-.5l.1-.2l2-.7h.5l.3 .4Z" class="g1"/>
<path d="M333.7 1405.3l.4 .2l.1 .5l-.1 10.1v11.1l.1 9l.3 11l.2 7.2l.5 7.7l.7 10.8l.7 7.3l1.2 10.9l1.6 9.6l1.2 6.3l2.1 8.7l2.2 7.1v.5l-.4 .4h-.7l-.3-.4l-2.2-7.2l-2.1-8.8L338 1501l-1.6-9.7l-1.3-10.9l-.6-7.4l-.8-10.8l-.4-7.7l-.3-7.3l-.2-11l-.1-9v-11.1l.1-10.2l.2-.4l.4-.2Z" class="g1"/>
<path d="M322.9 1479l.5-.3l.4 .1l1.4 .6l10-1.9l.5 .1l.3 .4l.1 .2l-.2 .5l-.4 .2l-10.3 2l-.4-.1l-1.6-.7l-.3-.4l-.1-.5Z" class="g1"/>
<path d="M323.7 1478.1l.4 .2l.2 .4l1.1 10.6l.7 8.6l.4 2.5l2.3-1.1l6-1.4l3.8-1.2l.4 .1l.2 .2l.1 .3l-.1 .5l-.3 .3l-3.7 1.2l-6 1.4l-3.1 1.6l-.5-.2l-.3-.4l-.4-1.7l-.3-2l-.6-8.6l-1.1-10.6l.1-.4l.5-.3Z" class="g1"/>
<path d="M158.3 1456.5l.3-.5l.3-.3l.5-.2h.5l1.6 .2l1.9 .5l8.7 3.3l4.9 1.4l2.9 .7l.5 .2l.4 .4l.2 .4l.1 .5l-.1 .5l-.3 .4l-.4 .3l-.5 .2l-.5-.1l-3-.7l-5.1-1.5l-7-2.6l-3.4-1.1l-1.3-.2l-.4-.1l-.4-.3l-.3-.4l-.1-.5Z" class="g0"/>
<path d="M206.6 1551.2l-.3-.4l-.1-.5v-.5l.2-.5l1.1-1.6l4.2-3.9l3.2-2.8l4.2-3.1l4-2.4l1.9-1.1l2.8-1.4l3.6-1.4l.9-.3h.5l.5 .1l.4 .3l.3 .4l.2 .4l-.1 .5l-.2 .5l-.3 .4l-.5 .2l-2.7 1l-4.1 1.9l-1.8 1l-3.8 2.3l-4 3l-3.1 2.6l-3.9 3.8l-.9 1.2l-.3 .4l-.5 .2l-.5 .1l-.4-.2Z" class="g0"/>
<path d="M184.9 1470.5l.5 .3l.3 .4l.2 .4v.5l-.2 1l.7 7.7l.8 5.9l1 5.7l1.2 4.5l.9 3.1l2 5.4l1.9 4.3l.7 1.4l1.1 1.9l1.2 1.8l1.7 2.1l1.7 1.8l1.9 1.6l1.5 1.1l2.3 1.3l2.6 .9l2.3 .6l1.9 .2l1.5 .1l1-.1l1.9-.4l.5 .1l.5 .3l.3 .3l.2 .5v.5l-.2 .5l-.3 .4l-.7 .3l-1.7 .4l-1.4 .1l-1.8-.1l-2.2-.3l-2.6-.6l-2.9-1l-1.2-.6l-1.6-1l-1.6-1.2l-2.1-1.7l-2-2.1l-1.8-2.3l-1.3-2l-1.2-2l-1.8-3.7l-1-2.3l-2-5.5l-1-3.3l-1.2-4.7l-1-5.8l-.8-6l-.8-8.1l.2-1.5l.2-.4l.3-.4l.4-.3l.5-.1Z" class="g0"/>
<path d="M627.5 1492l.3 .4l.1 .5v.5l-.2 .4l-.5 .6v.6l.4 1.2l.5 .9l.7 .8l.3 .5l.1 .5l-.1 .5l-.3 .4l-.3 .3l-.5 .2h-.5l-.5-.2l-.4-.3l-.7-.9l-.9-1.3l-.6-1.9l-.1-.5l.1-1.3l.2-.8l.7-.9l.3-.4l.5-.2h.5l.5 .1Z" class="g0"/>
<path d="M595.1 1568.3l-.1 .5l-.2 .4l-.4 .4l-.5 .2l-1.2 .2l-.9-.1l-1.4-.7l-1.1-.9l-1.1-1.3l-.8-1.4l-.5-1.7v-.4l.1-1.5l.3-1.3l.2-.4l1-1.4l1.4-1.2l1.4-.9l1.7-.7l1.6-.5l2.9-.5l2.5-.2h2.6l3.8 .5l4 .9l3.1 .8l5.6 2l7.1 3l5.5 2.5l7.6 3l5.6 1.9l.4 .3l.3 .3l.2 .5l.1 .5l-.2 .5l-.3 .4l-.4 .2l-.5 .2l-.5-.1l-5.7-2l-7.7-3l-5.6-2.5l-7-3l-5.4-1.9l-2.9-.8l-3.8-.9l-3.5-.4h-2.3l-2.2 .2l-2.7 .4l-1.3 .4l-1.3 .6l-1 .6l-1 .9l-.6 .8l-.2 .9v.7l.4 1.4l.4 .7l.8 .9l.7 .5l.5 .3l.7-.2h.5l.5 .2l.4 .3l.2 .4Z" class="g0"/>
<path d="M571.7 1412.8l.5-.1h.5l.4 .3l.4 .3l2.2 3.9l1.9 4l4.8 11.5l5.3 14.8l6.5 19.3l5.6 17.6l4.9 16l.1 .5l-.2 .5l-.2 .4l-.4 .3l-.5 .2H603l-.5-.2l-.4-.4l-.2-.4l-4.9-16l-5.5-17.6l-6.5-19.3l-5.3-14.6l-4.7-11.4l-1.9-3.9l-2.1-3.6l-.2-.5v-.5l.1-.5l.4-.4Z" class="g1"/>
<path d="M690.9 1395.8l.5 .1l.4 .2l.3 .4l.1 .5l1.3 11.6l1 14.2l1.1 22.6l.6 21.7l.4 20.4l.1 8.9l-.1 .5l-.3 .4l-.3 .3l-.5 .2H695l-.5-.2l-.4-.3l-.2-.4l-.1-.5l-.1-8.8l-.4-20.5l-.6-21.6l-1.1-22.5l-1-14.1l-1.2-11.5v-.5l.2-.5l.3-.3l.5-.3Z" class="g0"/>
<path d="M696.2 1493.6l.5 .2l.3 .5l.2 .5v.6l-4 23.3l-4.1 23.1l-3.8 22.9l-1.2 8.2l-.2 .5l-.3 .4l-.5 .3l-.5 .1H682l-.5-.3l-.3-.4l-.3-.5v-.6l1.3-8.2l3.7-22.9l4.1-23.1l4.1-23.4l.2-.5l.3-.4l.5-.3l.5-.1Z" class="g1"/>
<path d="M597.3 1504.1v-.5l.2-.4l.4-.4l.4-.2l4.2-1.3l21.7-8.8l9.8-4l2.4-1.2l.5-.1h.5l.5 .2l.4 .4l.2 .5v.5l-.1 .5l-.3 .4l-.4 .3l-2.5 1.2l-9.9 4.1l-21.8 8.7l-4.4 1.4l-.5 .1l-.5-.2l-.4-.3l-.3-.4Z" class="g1"/>
<path d="M604.4 1503.4v.3l-1.5-1.3l12.5-2.8l9.4-1.4l7.3-.7l5.1-.2l4.7 .1l5.1 .4l5.5 .9l1.8 .4l.5 .2l.3 .4l.2 .4l.1 .5l-.2 .5l-.3 .4l-.4 .3l-.5 .1h-.5l-1.6-.4l-5.2-.9l-4.9-.3l-4.6-.1l-5 .2l-7.1 .7l-9.2 1.4l-10.3 2.2l-2.1 .5l-1.6 .3h-.5l-.5-.2l-.4-.3l-.2-.5v-.6l.1-.5l.3-.4l.5-.3l1.3-.4l.5-.1l.5 .1l.4 .2l.3 .4Z" class="g1"/>
<path d="M604.6 1503.1l.5 .2l.4 .3l.2 .5l.1 .4v1.3l.2 2l.7 3.7l.7 3.2l.7 2l1.1 2.5l.6 1.2l1.1 1.6l.8 1.1l.9 .7l1 .6l1.4 .1l1.5-.4l1-.5l1.3-1.1l1-1.1l1.3-2.2l1-2.1l.7-2l1-3.6l.7-4l.3-.4l.4-.3l.5-.2l.5 .1l.4 .2l.4 .3l.2 .5v.5l-.6 3.9l-1 3.8l-.8 2.3l-1.1 2.3l-1.6 2.5l-1.3 1.5l-1.6 1.4l-1.5 .8l-2.1 .7H615l-2-.2l-.5-.2l-1.4-.7l-1.4-1.2l-1.1-1.3l-1.2-1.9l-.8-1.3l-1.2-2.9l-.7-2.1l-.9-3.5l-.6-3.9l-.3-2.1v-1.6l.1-.5l.3-.4l.4-.3l.4-.2Z" class="g1"/>
<path d="M659.4 1407.9l.1-.5l.3-.4l.4-.3l.5-.1l1.3-.1l2.7-.7l6.9-2.1l4.8-1.9l13.9-6l7-3.3l5.1-2.7l3.3-1.9l4.3-2.7l6.6-4.5l5.6-4.2l.4-.3l.5-.1l.5 .1l.4 .3l.3 .4l.2 .4v.5l-.2 .5l-.3 .4l-5.7 4.3l-6.7 4.6l-4.4 2.7l-3.4 2l-5.2 2.8l-7 3.4l-14.1 6l-7.5 2.8l-4.5 1.3l-3.1 .7l-1.5 .1h-.5l-.4-.2l-.4-.4l-.2-.4Z" class="g0"/>
<path d="M664.7 1411.1l.4 .2l.3 .4l2.5 10.3l2.2 10.9l1.5 9.5l1 7l.9 8.4l.7 9l.3 5.2l.1 7.6l-.2 4.3l-.5 6.3l-.7 4.4l-.2 .4l-.5 .1h-.2l-.4-.3l-.1-.5l.7-4.2l.5-6.3l.1-4.3l-.1-7.4l-.2-5.2l-.8-9l-.9-8.3l-.9-7l-1.5-9.5l-2.2-10.8L664 1412l.1-.5l.3-.3Z" class="g0"/>
<path d="M665.6 1495.8l.5-.1l.4 .3l.6 .7l1.5 .2h2.5l6.4-.5H679l1.6 .1l1.2 .5l.2 .2l.2 .2v.3l-.1 .3l-.7 1.1l-.2 .3l-1.2 .6l-1.1 .5l-1.1 .4l-1.3 .2l-1.3 .1l-6.4-.2h-2.6l-.9 .1l-.4-.5l7.8 .6l3.2 .4l2.8 .7l1.2 .5l.2 .2l1 1.1v.5l-.1 .2l-.2 .2l-1.1 .5l-.5-.1l-.2-.2l-.1-.2v-.5l.1-.2l.3-.2h-.1l-1-.4l-2.6-.6l-3.1-.5l-6.6-.5l-1.5-.2l-1.4-.7l-.1-.2l-.1-.2v-.3l.2-.2l.1-.2l1.6-.3l1.4-.2l2.7-.1l6.3 .3l1.3-.1l1-.2l2-.8l.9-.5l.1-.2l-.2-.1l-1.2-.1l-1.4 .1l-6.4 .4h-2.7l-1.9-.2l-.5-.3l-.7-.9l-.2-.5l.2-.5Z" class="g0"/>
<path d="M671.3 1507.2l.4 .3v.5l-2.9 11l-2.5 10.1l-1.8 7.9l-2.5 10.1l-1.4 5.8l-.3 .4l-.4 .2l-.3-.1l-.3-.3l-.1-.5l1.4-5.8l2.5-10.1l1.8-7.9l2.5-10.2l2.9-11l.3-.4l.5-.1Z" class="g0"/>
<path d="M600.9 1505.1l.4-.3h.5l.5 .1l.4 .3l.8 .9l.4 .7l.3 1.5v2l-.4 4l-1.1 5.5l-1.9 7.8l-1.7 5.8l-3.9 12.7l-5.7 16.1l-.3 .5l-.4 .3l-.5 .1h-.5l-.4-.1l-.4-.4l-.2-.4l-.1-.5l.1-.5l5.6-16l4-12.6l1.6-5.8l1.9-7.7l1-5.2l.4-3.8v-1.7l-.1-.6l-.5-.5l-.3-.5l-.1-.4v-.5l.2-.5Z" class="g0"/>
<path d="M229.4 1590.7l-.2 .4l-.3 .4l-.5 .3l-.4 .1l-11.4 .1l-3-.1l-2.7-.4l-.6-.2l-.4-.4l-.2-.5v-.6l.3-.5l.6-1l1-.5l3.3-.6l8.2-1l16.5-1.7l22.7-2l18.9-1.5l22.7-1.7l17.3-1.2l15-1l11.5-.8l19.7-1.3l12.4-.7l21.2-1.2l13.3-.7l22.8-1.1l14.1-.6l14.4-.6l19.7-.6l25.2-.6l10.1-.2l15.1-.2l14.9-.1h9.9l14.9 .1l14.6 .1l19.3 .5l19.1 .6l18.6 .8l13.6 .6l13.1 .7l21.6 1.3l18.2 1.2l14.4 1l18.7 1.5l5.7 .5l.5 .2l.4 .2l.3 .5l.1 .4v.5l-.2 .5l-.4 .3l-.4 .3h-.5l-5.8-.5l-18.6-1.5l-14.4-1l-18.1-1.2l-21.7-1.3l-13-.7l-13.6-.6l-18.7-.8l-19-.6l-19.3-.5l-14.6-.2H550.6l-14.9 .1l-15.1 .2l-10.1 .2l-25.2 .6l-19.6 .6l-14.3 .5l-14.2 .6l-22.8 1.1l-13.3 .7l-21.2 1.3l-12.3 .7l-19.7 1.3l-11.5 .7l-15 1.1l-17.3 1.2l-22.7 1.7l-18.9 1.5l-22.6 2l-16.5 1.7l-9.3 1.2l.3-1.3l2.3 .1l11.3-.1l.5 .1l.4 .2l.3 .4l.2 .5Z" class="g0"/>
<path d="M213.4 1500.2l.2-.5l.5-.4l.5-.2h.5l1.5 .3l1.4 .4l1.4 .1l1.2-.1l1.5-.5l1-.5l1.8-1.2l1.2-1l1.1-1l1-1.2l.9-1.2l.7-1.2l.5-1.4l.5-2.1l.2-1.3l.2-2l-.1-2.2l.2-.5l.4-.4l.5-.2l.5-.1l.6 .1l.4 .3l.4 .5l.2 1v1.4l-.1 2.4l-.2 1.5l-.6 2.5l-.7 1.8l-.9 1.6l-1 1.5l-1.2 1.3l-1.3 1.3l-1.4 1.1l-2.1 1.4l-1.5 .7l-1.9 .7l-1.8 .2l-2-.2l-1.7-.4l-1.3-.2l-.5-.2l-.5-.4l-.2-.5l-.1-.5Z" class="g0"/>
<path d="M214.1 1502.3l.2-.4l.2-.4l.4-.2l.4-.1l9.6-.1l6.9-.4h.5l.3 .2l.3 .3l.2 .4l.1 .4l-.2 .4l-.2 .4l-.4 .2l-.4 .1l-7 .5l-9.6 .1l-.4-.1l-.4-.2l-.3-.3l-.2-.4Z" class="g0"/>
<path d="M185.1 1284.1l-.1 .4l-.3 .5l-.4 .2l-.5 .2l-1 .1l-.7 .6l-.8 1.3l-1.6 3.2l-1 2.4l-3.1 8.4l-1.8 5.3l-2.4 7.9l-2.9 11.2l-1.9 8.7l-1.1 5.7l-1.6 10l-1 11.6l-.3 4.7l-.2 7.3v7.4l.5 10.2l.6 7.6l.8 7.4l.7 4.9l1.2 7.3l1.5 7l1.1 4.6l1.8 6.7l2.1 6.4l1.4 4.1l4.3 9.5l3.6 7l2.7 4.9l2.7 4.4l1.8 2.7l2.7 3.7l2.6 3.2l4.5 4.6l3.9 3.4l3.1 2.2l2.4 1.4l2.7 1.2l.4 .3l.3 .4l.2 .4v.5l-.2 .5l-.3 .4l-.5 .2l-.5 .1l-.5-.1l-1-.4l-1.9-.9l-2.6-1.5l-3.3-2.5l-4.1-3.5l-4.7-4.7l-2.8-3.5l-2.7-3.7l-1.9-2.9l-2.8-4.4l-2.8-5l-3.6-7.1l-4.3-9.7l-1.5-4.3l-2.1-6.4L166 1431l-1.1-4.7l-1.5-7.2l-1.3-7.3l-.7-5l-.8-7.5l-.6-7.7l-.5-10.3v-7.5l.2-7.4l.3-4.8l1-11.6l.6-4.3l1-6l1.1-5.7l2-8.9l3-11.2l2.3-8l1.9-5.5l3.1-8.5l1-2.4l1.7-3.5l1.1-1.6l1.5-1.4l.8-.4l1.5-.1h.5l.4 .3l.4 .3l.2 .5Z" class="g0"/>
<path d="M204.6 1496.9l.5-.5h.7l1.4 .5l9.3-2.9l4.7-1.1l2.6-.3l2-.1l.5 .1l.3 .1l.3 .7v.3l-.3 .6l-.4 .2l-2.3 .1l-2.4 .3L217 1496l-9.5 3h-.7l-1.7-.6l-.5-.5l-.1-.7Z" class="g1"/>
<path d="M220.7 1486.9l.5-.2h.6l.5 .3l.5 .3l3.1 3.5l.7 .8l.9 1.2l1 1.6l.1 .3l.2 .5v.6l-.2 .6l-.4 .4l-.5 .2l-.6 .1l-.6-.1l-.5-.3l-.3-.5l-1-1.6l-.7-.9l-.6-.7l-3.2-3.6l-.3-.5l-.1-.5l.1-.6l.3-.5Z" class="g0"/>
<path d="M207.9 1499.4l-.5 .2l-.5-.1l-.4-.2l-.4-.4l-.7-1.1l-.3-.7l.2-.7l.5-1.2l.4-.4l.5-.3l.5-.1l.6 .2l1.9 1l1.4 1.4l1.5 1.8l1 1.6l1.3 2.3l1 2.2l.6 1.6l.7 2.4l1.1 4.7l.6 4.4l.2 3.9v4.1l-.2 2.5l-.4 2.5l-.7 3.3l-.7 2.4l-.8 2.3l-.6 1.6l-1.9 3.5l-.9 1.4l-1.5 1.9l-1.5 1.7l-1.2 1.1l-1.8 1.3l-2 1.2l-2.8 .9l-2.2 .5l-2.2 .2h-1.6l-2.3-.3l-2.4-.5l-1.8-.7l-4-2.6l-1.7-1.2l-2.5-2.3l-2.5-2.7l-3.3-4.2l-2.4-3.5l-2.2-3.8l-1.6-2.7l-2.1-4.3l-2-4.6l-1.3-3.2l-1.7-4.9l-1.5-5.1l-1.7-6.8l-1-5.1l-.9-6.6l-.6-8.3l-.2-7.1l.1-5.6l.3-4.4l.3-3.1l.5-2.8l.2-.5l.3-.4l.5-.2l.4-.1l.5 .1l.5 .3l.3 .3l.2 .5v.5l-.5 2.7l-.3 3l-.3 4.2l-.1 5.5l.2 7l.6 8.1l.9 6.5l1 4.9l1.6 6.7l1.5 4.9l1.6 4.9l1.3 3l1.9 4.5l2.1 4.2l1.5 2.6l2.2 3.6l2.3 3.4l3.1 4.1l2.4 2.5l2.3 2.1l1.5 1.1l3.7 2.4l1.3 .4l2.1 .5l2 .3l1.2-.1l1.9-.2l1.9-.4l2.4-.8l1.6-.9l1.6-1.2l.9-.9l1.4-1.5l1.2-1.7l.8-1.2l1.8-3.3l1.2-3.5l.7-2.2l.7-3.1l.3-2.4l.2-2.3l.1-3.8l-.3-3.7l-.6-4.2l-1-4.5l-.6-2.2l-.6-1.4l-.9-2.1l-1.1-2.1l-1-1.3l-1.5-1.9l-.1 .1l-.3 .5Z" class="g0"/>
<path d="M202.3 1492.1l.4 .2l.4 .3l.3 .4l.1 .5v1l.3 1l.9 2.2l1.4 2.5l1 1.5l1.4 1.6l1.1 1l.8 .7l1.6 1l1.6 .7l1.7 .5l.4 .3l.3 .4l.1 .5l-.1 .5l-.3 .4l-.4 .4l-.4 .1h-1l-1.3-.4l-1.9-.8l-1.8-1.2l-1.2-.9l-1.3-1.2l-1.5-1.8l-1.2-1.7l-.7-1.1l-.9-1.7l-1-2.6l-.4-1.3l-.1-1.5l.1-.5l.2-.4l.4-.4l.5-.1Z" class="g1"/>
<path d="M204.6 1496.7l.5-.2l.5 .1l.4 .2l.4 .3l2.4 3.3l2 3.4l.2 .5v.5l-.2 .5l-.3 .4l-.5 .2l-.5 .1l-.5-.1l-.4-.3l-1-1l-.3-.3l-1.1-2.2l-1-2.4l-.3-1.1l-.1-.5l.2-.5l.3-.4l.4-.3l.5-.1l.5 .1l.4 .2l1 .7l.4 .4l2 4l-1.1 1.4l-1.2-2.6l-1.1-2.1l-.7-.9l2.3-1.7l.7 .9l1.6 1.9l1.6 2.4l1.2 2.2l.2 .5l-.1 .6l-.2 .4l-.4 .4l-.5 .2h-.6l-.5-.2l-1.2-.9l-1.8-2.1l-3-3.8l1.5-2l1.9 3.5l.6 .9l-2.1 2l-2.6-3.1l-.7-1l-.3-.5v-.5l.2-.5l.3-.4l.5-.3h.6l.5 .1l1.2 .7l.7 .6l.7 1.5l2.3 5.2l.2 .4l-1.4 .9l.1-.5l.2-.5l.4-.3l.4-.2l.5-.1l.5 .2l.4 .2l.4 .7l.5 1.3l.1 .6l-.1 1.2l-.1 .5l-.4 .5l-.5 .3l-.5 .1l-.6-.2l-.4-.3l-.8-.8l-.8-1.4l-.7-1.3L206 1501l2.6-1.1l1.1 1.3l.9 1l.7 1.3l.2 .5v.5l-.2 .5l-.4 .4l-.5 .2h-.5l-.5-.2l-.4-.3l-.8-.9l-.9-1.3l-2-3.5l-.7-1.4l-.5-1.4v-.5l.1-.5l.3-.4l.4-.3l.4-.2l.6 .1l.4 .2l.4 .3l1.5 2.2l3.4 4.2l-1.9 .6l-1-1.5l-1.5-1.8l-.8-1l-.2-.4l-.1-.5l.1-.5l.3-.4l.4-.3l.5-.2h.5l.4 .2l.4 .4l.7 .9l.7 1.2l1.4 2.6l.6 1.5l.5 1.4v1.7l-.1 .5l-.3 .5l-.5 .3l-.6 .1l-.5-.1l-.5-.3l-.8-.8l-.9-1.4l-2.3-4.5l-.7-.5l2.3-1.6l.7 2.1l.9 2l-2.9 .2v-.1l-2.3-3.2l-.3-.4v-.5l.1-.5l.3-.4Z" class="g1"/>
<path d="M226.2 1494.5l-.1 .5l-.3 .4l-.4 .3l-.5 .1l-1 .1l-8.2 2.6l-2.4 .9l-2.1 1.1l-.7 .2h-1.2l-.5-.1l-.5-.2l-.3-.5l-.2-.5l.1-.5l.2-.5l.4-.3l.5-.2l1.2-.2l14.2-4.5l.5-.1l.5 .1l.4 .3l.3 .4l.2 .4l-.1 .5l-.2 .5l-.3 .4l-1.2 .8l-1.2 .7l-1.2 .6l-2.6 .8l-9.8 2.8l-.5 .1l-.4-.2l-.4-.3l-.3-.4l-.1-.5v-.5l.2-.4l.4-.3l.4-.3l9.8-2.8l2.2-.7l1-.5l1 2l-12 3.8l-.8-2.6l1.9-1l2.6-1l8.4-2.7l1.6-.2l.5 .1l.4 .2l.4 .4l.2 .4Z" class="g1"/>
<path d="M532.7 1377.3l.5-.1h.5l.5 .3l.3 .3l1.4 2l2.5 2.9l2.2 2.1l2.6 2l2.8 1.9l4.2 2.2l.4 .3l.3 .4l.1 .5v.5l-.3 .5l-.3 .3l-.5 .2l-.5 .1l-.5-.2l-2-1l-3.7-2.2l-3-2.1l-2.6-2.3l-1.2-1.2l-2.8-3.1l-1.5-2.2l-.2-.5v-.5l.1-.4l.3-.4Z" class="g2"/>
<path d="M566.7 1341.9l.3 .3l.2 .5v.5l-.1 .4l-.8 1.8l-2 5.1l-5.3 19.4l-.1 .5l-.4 .3l-.4 .2l-.5 .1l-.5-.1l-.4-.3l-.3-.4l-.1-.4v-.5l5.4-19.6l2-5.4l.9-1.9l.3-.4l.4-.3l.5-.1l.5 .1Z" class="g0"/>
<path d="M530.9 1377.6v-.5l.3-.5l.4-.3l.5-.1l1.1-.2l20.4-6.8l1.7-.7l.5-.1l.5 .1l.5 .3l.3 .3l.2 .5v.5l-.2 .5l-.3 .4l-.4 .2l-1.8 .7l-20.7 6.9l-1.4 .2H532l-.4-.2l-.4-.3l-.3-.4Z" class="g2"/>
<path d="M560.3 1370.7l.2-.5l.4-.2l1.8-.3l11.2 .3l9.4 .8l8.8 1.3l7.5 1.5l5.7 1.5l5.7 1.9l9.3 3.7l10.6 4.7l3.4 1.5l5.2 1.8l5.2 1.6l3.4 .7l3.3 .5l3.4 .2h3.4l3.5-.3l3.5-.5l3.7-.9l3.8-1.1l3.8-1.5l3.9-1.7l1.9-.9l3.7-2l6-3.6l4.8-3.3l.9-.7l.5-.2l.5 .2l.1 .2l.1 .6l-.3 .4l-.8 .7l-5 3.3l-6.1 3.7l-3.7 2.1l-3.9 1.8l-3.9 1.6l-4 1.4l-3.8 1l-3.7 .7l-3.7 .4l-3.5 .2l-3.5-.1l-3.5-.4l-3.4-.6l-3.5-.9l-3.6-1.1l-5.2-1.9l-10.6-4.6l-11-4.6l-7.4-2.5l-5.6-1.5l-7.4-1.5l-7.1-1.1l-10.9-.9l-11.1-.4l-1.5 .3l-.5-.1l-.3-.4Z" class="g2"/>
<path d="M537.3 1381.5l-.3 .4l-.4 .3l-.4 .2h-.5l-1.2-.2l-.5-.2l-.4-.3l-.2-.5l-.1-.5l.1-1.2l.2-.5l.3-.5l.5-.2l1.5-.5l4.8-1l9.7-1l5.6-.3l7.7-.1l6 .3l6 .6l4.2 .7l3.2 .7l5.8 1.7l5.7 2l15.4 7l18.6 9l7.7 3.4l6 2.2l6.2 1.6l5.5 1.2l7.4 .9l1.3 .1l.5 .1l.5 .3l.3 .4l.1 .5v.5l-.2 .5l-.4 .3l-.4 .3h-.5l-1.4-.1l-7.6-1l-5.8-1.2l-6.3-1.7l-6.2-2.2l-7.9-3.5l-18.7-9l-15.1-6.9l-5.6-2l-5.7-1.6l-2.9-.7l-4.1-.6l-5.8-.6l-5.8-.3l-7.6 .1l-5.5 .3l-9.4 1l-3.9 .7v.1l.1 .5Z" class="g2"/>
<path d="M587.9 1380.5l-.3 .4l-.4 .4l-.4 .1h-.5l-1.4-.3l-2.7 .1l-4 .5l-1.8 .2l-4.2 .9l-6.3 1.7l-1.3 .5l-3.8 1.6l-2.8 1.3l-2.1 1.3l-1.2 .8l-1.8 1.4l-.9 .9l-.8 .9l-1 1.8l-.4 1l-.3 1l-.2 1v1.7l.2 .9l.4 .9l1.2 1.6l1 1l1.1 1l2.3 1.5l1.7 .9l1.8 .8l2.1 .7l4.4 1l2.8 .5l3.1 .5l5.3 .6l7 .5l3.7 .1h10.8l10.8-.5l7.9-.6l3.9-.4l6.3-.9l6.2-1l5.3-1l7.3-1.6l4-1.1h.5l.5 .1l.4 .3l.3 .4l.1 .5v.5l-.2 .4l-.4 .4l-.4 .2l-4.1 1.1l-7.4 1.6l-5.4 1l-6.3 1.1l-6.3 .9l-4 .4l-8 .6l-11 .4l-10.8 .1l-3.8-.1l-7.1-.5l-5.5-.6l-3.1-.5l-3-.6l-4.5-1l-2.3-.8l-2.1-.9l-1.9-.9l-1.1-.7l-1.5-1.1l-1.4-1.1l-1.1-1.2l-1.5-2.1l-.7-1.5l-.3-1.3l-.1-2.3l.3-1.5l.4-1.3l.5-1.4l1.2-2l1.1-1.3l1-1.1l2.1-1.6l1.3-.9l2.3-1.4l2.9-1.5l4-1.6l3-1l5-1.3l4.3-.9l2-.3l5.8-.6h1.5l1.7 .4l.5 .2l.4 .3l.2 .4l.1 .5Z" class="g2"/>
<path d="M587.2 1390.9l.5-.2h.5l.4 .1l.4 .3l.7 .7l2.2 .7l3.2 .7l3.5 .4l6.6 .5l5.5 .1l8-.3l2.1-.2h.5l.5 .2l.3 .4l.2 .4l.1 .5l-.1 .5l-.3 .4l-.4 .3l-.5 .2l-2.2 .2l-8.2 .3l-5.6-.1l-8.1-.6l-4-.7l-3.1-.8l-1.5-.5l-.5-.4l-.9-.9l-.3-.4l-.1-.5v-.5l.2-.5Z" class="g2"/>
<path d="M591.2 1395l-.1-.5l.1-.5l.2-.5l.4-.3l1.3-.7l1.5-.5l2.8-.8l3.1-.7l1.9-.3l4.6-.4l3.6-.1h1.8l.8 .1l.5 .1l.4 .3l.3 .4l.1 .5v.5l-.2 .5l-.4 .3l-.4 .2l-.5 .1l-2.4-.1h-3.5l-4.3 .5l-1.8 .3l-4.1 .9l-2.7 .8l-.9 .6l-.5 .2h-.5l-.5-.2l-.3-.3Z" class="g2"/>
<path d="M697 1349.8l.2 .4l-.2 .4l-.9 1l-1.6 1.3l-2.4 1.4l-4.7 2.3l-5.1 2l-6.1 2.1l-9.1 2.7L661 1365h-.5l-.3-.3v-.2l.1-.4l.4-.3l6-1.6l9.1-2.6l6.1-2.1l5-2.1l4.6-2.2l2.3-1.4l1.5-1.2l.8-.8l.4-.2l.4 .1Z" class="g0"/>
<path d="M700.9 1346.1l.5 .3l.3 .4l.2 .4v.5l-.4 2.7l-.1 2.8v3.2l.3 3.7l1.8 12v.5l-.1 .5l-.4 .4l-.4 .2l-.5 .1l-.5-.1l-.4-.2l-.3-.4l-.2-.5l-1.9-12.1l-.3-3.9v-3.4l.2-3l.3-2.9l.2-.5l.3-.4l.4-.2l.5-.1Z" class="g0"/>
<path d="M227.7 574.1l-.4 .9l-1 .3l-11.4 .2l-2.4-.1l-2.8-.4l-.7-.7l-.2-.5l.1-.5l.5-.8l2-1.4l.6-.3l21.5-2.4l17.1-1.6l16.8-1.4l20.3-1.6l14.6-1.1l17.3-1.2l15-1l11.5-.8l19.7-1.2l12.3-.8l21.3-1.2l13.3-.7l22.7-1.1l14.2-.6l14.4-.6l19.6-.6l25.3-.5l10-.2L534 552l15-.1l9.9-.1l14.9 .1l14.6 .2l19.3 .4l19 .6l18.7 .8l13.6 .6l13 .7l21.7 1.3l18.2 1.2l14.4 1l18.7 1.5l5.7 .6l.9 .4l.4 .9v.5l-.6 .8l-1 .2l-5.7-.5l-18.6-1.5l-14.4-1l-18.2-1.2l-21.6-1.3l-13.1-.7l-13.5-.6l-18.7-.8l-19-.6l-19.3-.4l-14.6-.2l-14.8-.1H549l-14.9 .2L519 555l-10.1 .2l-25.2 .6l-19.6 .6l-14.4 .6l-14.1 .6l-22.8 1.1l-13.3 .7l-21.2 1.2l-12.3 .8l-19.7 1.2l-11.5 .8l-15 1l-17.3 1.2l-14.6 1.1l-20.3 1.6l-16.8 1.4l-17.1 1.6l-20.9 2.4l-1.7 1.2l-.7-2.6l4.6 .3l11.3-.2l1 .4l.4 .8Z" class="g0"/>
<path d="M418.8 957.9l.4-.3l.5-.2l.5 .1l.5 .2l10.4 6.8l5.6 3.4l3.8 2.2l7.3 3.5l2.4 1l.4 .3l.3 .4l.1 .5v.5l-.2 .4l-.3 .4l-.5 .2l-.5 .1l-.5-.1l-2.4-1.1l-7.4-3.6l-4-2.2l-5.6-3.4l-10.5-6.9l-.4-.4l-.2-.4l-.1-.5l.2-.5Z" class="g0"/>
<path d="M427.7 973.4l.4-.3l.4-.2h.5l.5 .2l5.1 2.9l7.3 3.5l10.9 4.8l.4 .2l.3 .4l.1 .5v.5l-.2 .5l-.3 .3l-.5 .3h-.5l-.4-.1l-11-4.7l-7.4-3.6l-5.3-3l-.4-.3l-.2-.5l-.1-.5l.1-.5Z" class="g0"/>
<path d="M288.1 1032.7l.5 .1l.5 .3l.3 .4l.1 .5l.2 .9l1.2 1.7l3.4 4.1l2.4 2.5l2.7 2.7l2.8 2.6l2.8 2.3l2.9 2.1l2.7 1.7l1.6 1l2.5 1.2l2.1 .9l3.1 1l1.1 .2l.5 .2l.4 .3l.2 .4l.1 .5l-.1 .5l-.3 .4l-.4 .4l-.4 .1h-.5l-1.2-.2l-2.1-.6l-1.3-.5l-2.4-.9l-2.6-1.4l-1.8-1l-2.8-1.8l-3-2.2l-3-2.4l-2.9-2.7l-2.8-2.7l-2.4-2.6l-3.6-4.3l-1.5-2.1l-.3-.6l-.1-1.3v-.5l.2-.5l.3-.4l.5-.2Z" class="g0"/>
<path d="M251.4 970.6l.4-.2h.5l.5 .2l.4 .3l11.7 14.6l13 16.3l5.9 7.4l.2 .4l.1 .5l-.1 .5l-.3 .5l-.3 .3l-.5 .1h-.5l-.5-.2l-.4-.3l-5.8-7.4l-13.1-16.3L251 972.7l-.3-.4l-.1-.5l.1-.5l.3-.4Z" class="g0"/>
<path d="M394.2 840.3l.2-.4l.5-.2l1.5 .1l7.4 .7h2.4l-1.4 1.2l-2.4-.1l-2.7 .3l-8 1.7l-.3-.3l10.1 .3l4.7 .2l.4 .2l.2 .4v.2l-.1 .3l-.3 .3l-2.3-.1l-11.2-.3l-1.8-.1l-.3-.1l-1.2-.7l-.2-.2l-.2-.2v-.3l.1-.3l.2-.2l.2-.1l1.3-.3l8.5-1.8l2.9-.3l2.5 .1l1.7 .3l.2 .1l.2 .3v.2l-.1 .3l-.1 .2l-.2 .2l-1.4 .1l-1.5-.1l-7.5-.7h-1.3l-.5-.2l-.2-.5Z" class="g0"/>
<path d="M477.7 979.1l.4 .4l.3 .4v.5l-.1 .5l-1.7 3.8l-1.3 2.4l-1.9 2.9l-2.9 3.6l-.7 .8l-.4 .3l-.4 .2h-.5l-.5-.2l-.4-.3l-.2-.5l-.1-.5l.1-.5l.3-.4l.6-.7l2.7-3.6l1.9-2.7l1.1-2.1l1.6-3.6l.3-.4l.4-.3l.5-.2l.5 .1Z" class="g0"/>
<path d="M493.3 974.4l.5 .2l.3 .3l.2 .5l.1 .5l-.2 1.6l-1.1 3.1l-.6 1.5l-1.1 2.3l-2.6 4.6l-1.4 2l-2 2.7l-2.3 2.6l-2.4 2.2l-3 2.3l-1.2 .8l-1.7 1l-.6 .3l-.5 .1h-.5l-.4-.2l-.4-.4l-.2-.4l-.1-.5l.2-.5l.2-.4l.5-.3l.5-.3l2.5-1.6l2.8-2.1l2.2-2.1l2.2-2.4l1.9-2.5l1.3-1.9l2.4-4.4l1-2.1l1.6-4.2l.1-1.1l.1-.5l.3-.4l.4-.3l.5-.1Z" class="g0"/>
<path d="M480.4 968.5l.7 .5l.5 .7l.3 .9l-.1 .9l-.4 1.4l-3.3 8.1l-2.3 4.8l-.6 .7l-.7 .5l-.9 .1l-.9-.1l-.8-.4l-.6-.6l-.3-.9v-.8l.2-.9l2.2-4.5l3.2-7.8l.2-.9l.4-.8l.6-.7l.8-.3l.9-.1Z" class="g0"/>
<path d="M637.3 974.1l.3 .4l.2 .5l-.1 .5l-.2 .4l-.4 .6v.6l.4 1.2l.5 .9l.7 .8l.2 .5l.1 .5v.5l-.3 .4l-.4 .3l-.4 .2h-.5l-.5-.2l-.4-.3l-.8-.9l-.8-1.3l-.7-1.9V976l.3-.8l.6-.9l.4-.4l.4-.2h.5l.5 .1Z" class="g0"/>
<path d="M570.2 833.2l-.2-.5v-.5l.2-.5l.4-.3l1.2-.9l.5-.3l3.3-.8l6.6-1.2l7.5-.8l7.5-.5l8.3-.3l8.8-.1l8.9 .2l8.4 .5l7.5 .9l6.5 1.1l3.4 .8l2.7 .8l3.6 1.2l1.2 .5l.4 .3l.3 .4l.1 .5v.5l-.2 .5l-.4 .3l-.4 .2l-.5 .1l-.5-.2l-1.1-.5l-3.3-1.1l-2.6-.7l-3.4-.8l-6.2-1.1l-7.4-.8l-8.2-.5l-8.8-.2l-8.8 .1l-8.2 .2l-7.4 .6l-7.3 .8l-6.4 1.1l-2.9 .7l-1 .8l-.4 .2l-.5 .1l-.5-.1l-.4-.3Z" class="g0"/>
<path d="M539.4 869.9l-.4-.4l-.2-.5v-.5l.2-.5l.7-1.4l.4-.4l.6-.3l1.4-.4l1.9-.3l2.2-.3l5-.2l5.9 .2l8.7 1.1l10.1 2l22.5 5.5l23 5.8l17.7 4.1l8.2 1.6l10.2 1.6l11.4 1.2l.6 .2l.4 .3l.3 .4l.2 .5l-.1 .6l-.2 .4l-.4 .4l-.5 .3h-.5l-11.6-1.3l-10.3-1.5l-8.3-1.6l-17.9-4.3l-22.9-5.7L575.2 871l-9.9-2l-8.4-1l-5.7-.2l-4.8 .2l-2 .2l-2.3 .5l-.4 .8l-.3 .4l-.5 .3l-.5 .1l-.6-.1Z" class="g0"/>
<path d="M567.9 869.3l-.2 .4l-.4 .2l-.4 .2h-.5l-.7-.1l-.7 .2l-.8 .4l-1.6 1.2l-.8 .8l-.8 1l-.7 1.2l-.4 .8l-.4 1.5l-.2 1.5l.1 1.7l.5 1.6l1 1.8l1.8 1.8l.8 .6l2.9 1.8l2.5 1.1l1.4 .6l5 1.5l3.9 .8l3.8 .7l4.2 .5l4.9 .4l4.9 .2h7.9l8.3-.3l11.4-.8l10.6-1.2l9.4-1.4l10.5-2h.5l.4 .1l.4 .3l.2 .4l.1 .4v.5l-.3 .4l-.3 .3l-.4 .1l-10.6 2.1l-9.5 1.4l-8.3 1l-8.5 .7l-8.5 .4l-8.3 .2l-7.8-.1l-4.8-.3l-4.4-.4l-4.6-.7l-3.8-.7l-3.8-1l-3.3-1l-1.6-.7l-2.6-1.1l-1.3-.7l-2-1.3l-1-.8l-2-2.1l-1.4-2.3l-.8-2.2l-.2-2.2l.3-2.1l.5-1.8l.5-1.2l.9-1.4l1-1.3l1-1l1.1-.8l.9-.7l1.1-.6l1.4-.5h.6l1 .2l.5 .2l.3 .3l.2 .4l.1 .4Z" class="g0"/>
<path d="M538.2 867.2l.5-.1h.5l.5 .2l.3 .4l.6 .8l1 .8l2.4 1.3l1.3 .6l1.5 .5l2.5 .8l4.4 .9l2.4 .5l.5 .1l.4 .3l.2 .4l.1 .5v.5l-.3 .5l-.4 .3l-.4 .2h-.5l-2.6-.4l-4.5-1l-2.7-.8l-1.6-.6l-2.8-1.3l-1.4-.9l-1.4-1l-.3-.3l-.7-1l-.2-.5l-.1-.5l.1-.5l.3-.4Z" class="g0"/>
<path d="M604.9 1050.4l-.1 .5l-.2 .4l-.4 .4l-.4 .2l-1.2 .2l-.9-.1l-1.4-.7l-1.2-.9l-1-1.3l-.8-1.4l-.5-1.7l-.1-.4l.1-1.5l.4-1.3l.2-.4l1-1.4l1.4-1.2l1.4-.9l1.6-.7l1.7-.5l2.9-.5l2.4-.2h2.7l3.8 .5l4 .9l3.1 .8l5.6 2l7 3l5.5 2.5l7.6 3l5.6 1.9l.5 .3l.3 .3l.2 .5v.5l-.1 .5l-.3 .4l-.4 .2l-.5 .1h-.5l-5.8-2l-7.7-3l-5.5-2.5l-7-3l-5.4-1.9l-2.9-.8l-3.9-.9l-3.5-.4h-2.3l-2.2 .1l-2.6 .5l-1.4 .4l-1.2 .6l-1.1 .6l-1 .9l-.5 .8l-.2 .9l-.1 .7l.4 1.4l.5 .7l.7 .9l.7 .5l.6 .3l.7-.2h.5l.4 .2l.4 .3l.3 .4Z" class="g0"/>
<path d="M476.7 1012.4l.6 .1l.5 .2l.4 .4l.2 .5l.4 1.4l1.7 3.3l1.3 3.1l.7 2.1l.8 3.3l.5 3.7l.1 3.8l-.2 3.7l-.8 3.6l-1.2 3.4l-1.7 3l-2.1 2.5l-1.5 1.4l-1.4 1l-2.1 1.4l-1.4 .7l-.7 .1l-.5-.1l-.5-.2l-.4-.5l-.2-.5v-.6l.2-.5l.4-.4l1.6-.9l1.8-1.1l1.2-.9l1.2-1.2l1.8-2.1l1.4-2.5l1-2.9l.7-3.2l.2-3.4l-.1-3.4l-.5-3.4l-.8-3l-.6-1.8l-1.1-2.8l-1.8-3.3l-.5-2l-.1-.6l.2-.5l.3-.4l.5-.4Z" class="g0"/>
<path d="M269 950.7l.4-.2h.5l1 .6l2.6 .7l5.2 .6l8.6 .6l11.1 .2h9.9l9.7-.1l10.2-.3l7.7-.4l.5 .1l.3 .4v.3l-.2 .4l-.5 .2l-7.7 .4l-10.2 .4l-9.8 .1h-10l-11.1-.3l-8.6-.5l-5.4-.7l-1.4-.3l-1.4-.4l-1.2-.7l-.3-.4v-.5Z" class="g0"/>
<path d="M556.8 322.6l.2 .5v.5l-.1 .4l-.3 .5l-1 .9l-2.6 2l-4 2.5l-6.2 3.2l-2.3 1l-.5 .1h-.5l-.4-.3l-.4-.3l-.2-.5v-.5l.2-.5l.3-.4l.4-.2l2.2-1l6-3.1l3.8-2.4l2.4-1.8l.8-.8l.4-.3l.5-.1h.5l.5 .2Z" class="g0"/>
<path d="M541.2 335.1l-.5-.2l-.3-.4l-.2-.5v-.5l.2-1.1l.2-.5l.3-.3l.5-.3l.5-.1l.5 .1l.4 .3l1.7 1.6l1 .6l1.7 .8l1.7 .6l2.8 .9l2.7 .6l6.5 .9l5.5 .4l4.6 .2l6.8-.1l7.1-.4l5.5-.6l2.8-.4l7.5-1.4l7.4-1.6l5.3-1.3l2.5-.8l6.5-2.1l4-1.5l5.9-2.6l4.6-2.2l.4-.1h.5l.5 .2l.4 .3l.2 .4l.1 .5l-.1 .5l-.3 .5l-.4 .3l-4.7 2.3l-6 2.5l-4.1 1.6l-6.6 2.2l-2.6 .7l-5.4 1.4l-7.5 1.7l-7.7 1.4l-2.8 .3l-5.6 .7l-7.3 .4l-6.9 .1l-4.7-.2l-5.7-.4l-6.7-1l-2.8-.6L548 338l-1.9-.7l-1.9-.9l-1.3-.9l-.6-.5l-.1 .1l-.5 .1Z" class="g0"/>
<path d="M606.4 384.4l-.4-.3l-.2-.4v-.5l.1-.4l.6-1.6l.4-.5l2.4-1.7l4.1-2.4l6.2-2.8l7.4-2.9l7.6-2.5l10.3-2.7l.5-.1l.4 .2l.4 .3l.3 .4l.1 .4l-.1 .5l-.2 .4l-.4 .3l-.4 .2L635.4 371l-7.5 2.4l-7.3 2.9l-6 2.7l-3.9 2.3l-1.8 1.3l-.5 1.2l-.3 .4l-.4 .3l-.4 .1h-.5Z" class="g0"/>
<path d="M561.4 326.3l.4-.3l.5 .1l1.1 .8l1.3 .4l2.8 .7l3.4 .5l6.1 .3l7.4-.1l11.4-.7l9.3-.9l9.4-1.3l8.2-1.4l8.9-1.9l.5 .1l.3 .3l.1 .3l-.2 .4l-.4 .3l-8.9 1.9l-8.2 1.5l-9.5 1.2l-9.4 1l-11.4 .7H577l-6.2-.3l-3.6-.5l-2.9-.7l-1.4-.5l-1.4-.9l-.3-.3l.1-.5Z" class="g0"/>
<path d="M646 315.8l.5 .4l.1 .5l-.1 1.3v4.9l.7 9.9l1.3 10.8l1.2 7.1l1.6 7.5l2 7.3l2.7 8l2.8 6.9l.7 1.9l-.1 .5l-.2 .2l-.3 .1l-.5-.1l-.4-.3l-2.3-5.6l-2.5-6.8l-1.4-4.4l-2-7.3l-1.7-7.6l-1.2-7.2l-1.3-10.9l-.7-9.9v-5l.1-1.5l.3-.5l.5-.2Z" class="g0"/>
<path d="M662.1 283.6l.5 .2l.3 .4l.2 .5v.5l-.9 9.8l-.6 13.2v5l.2 11.9l.8 18.3v.5l-.2 .4l-.4 .4l-.4 .2h-.5l-.5-.1l-.4-.3l-.3-.4l-.1-.5l-.9-18.4l-.2-12l.1-5.1l.5-13.3l.9-10.1l.2-.4l.3-.4l.5-.3l.4-.1Z" class="g0"/>
<path d="M661 342.4l.4 .2l.2 .4l.5 7.6l.7 9.5l.5 4.7l-.1 .4l-.4 .2l-.2 .1l-.4-.2l-.2-.4l-.4-4.6l-.8-9.6l-.5-7.6l.2-.4l.3-.3Z" class="g0"/>
<path d="M660.4 384.4l.3-.4l.4-.2h1.5l1.2-.2l1.7-.5l3.3-1.3l5.8-3.1l9.2-5.6l7.9-5.3l5-3.8l2.5-2.2l1.9-1.8l.5-.1l.3 .1l.2 .2l.1 .5l-.2 .4l-1.8 1.8l-2.5 2.3l-5.1 3.8l-8 5.3l-9.3 5.7l-5.9 3.1l-2 .9l-1.4 .5l-1.8 .5l-1.4 .3h-1.7l-.4-.2l-.3-.4Z" class="g0"/>
<path d="M660.8 344.6l-.3-.4l-.1-.5v-.5l.2-.5l.7-1.1l.3-.4l2-1.5l2.6-1.7l5.4-3l5.5-2.5l6.4-2.5l4.7-1.4l3.4-.9l4.1-.6l2.8-.2l2 .2l1.6 .3l.6 .3l1.5 1.2l.4 .6l.4 1.1l.1 .9l-.3 1.2l-.3 .6l-.6 .4l-.5 .2l-.5 .1h-.5l-.4-.3l-.3-.3l-.2-.5l-.1-.5l.2-.5l.3-.4l.2-.1l.1-.2l-.1-.3l-1-.7l-1.1-.3l-1.6-.1L696 330l-3.9 .6l-3.1 .8l-4.6 1.4l-6.2 2.4l-5.3 2.4l-5.2 2.9l-2.5 1.5l-1.6 1.3l-.6 1l-.3 .3l-.5 .3l-.5 .1l-.4-.2Z" class="g0"/>
<path d="M666 359.2l.2-.4l.5-.2l1.3 .1l2-.6l2.6-1.3l9.7-5.7l6.2-4.3l3-2.4l1.7-1.6l2.4-2.6l1.8-2.3l.5-.2l.2 .1l.3 .1l.2 .4l-.1 .5l-1.8 2.3l-2.4 2.7l-1.8 1.6l-1.1 1l-3.3 2.5l-5 3.4l-4.8 2.9l-6.7 3.7l-2.2 .9l-1.2 .3h-1.6l-.5-.2l-.2-.5Z" class="g0"/>
<path d="M662 356.7l.4-.3l.5 .1l2.2 1.1l1 .6l1 .8l.9 1l.9 1.4l.5 1.4l.2 1.8l-.1 1.4l-.1 1l-.3 .5l-.4 .1h-.3l-.2-.1l-.3-.5l.2-1.2v-1.1l-.2-1.6l-.3-1.1l-.8-1.1l-.7-.9l-.8-.6l-1-.6l-2.1-1l-.3-.4v-.5Z" class="g0"/>
<path d="M567 291.8l-.2 .5l-.3 .4l-.4 .2l-.5 .1h-1.3l-1.1 .1l-1.3 .3l-1.6 .5l-2.5 1.1l-1.3 .7l-1.7 1.2l-1.1 1l-.7 .8l-.7 1l-.4 1.3v.9l.6 1.7l.5 .7l1 1.2l.8 .6l.5 .3l.4 .4l.2 .4l.1 .5l-.1 .5l-.3 .4l-.3 .3l-.5 .2h-.5l-.5-.2l-.6-.3l-1.1-.9l-1.4-1.6L550 305l-.9-2.5l-.1-.5l.1-1.3l.6-2.1l.9-1.5l1-1.2l1.3-1.2l1.9-1.4l1.6-.9l1.3-.6l1.6-.6l1.9-.6l1.5-.3l1.4-.2h1.5l.5 .1l.4 .3l.3 .3l.2 .5Z" class="g0"/>
<path d="M620 554.4l-.1 .5l-.2 .4l-.3 .4l-.5 .2l-1.3 .3l-1.6 .1h-1.8l-1.2-.2l-1.8-.4l-1.4-.4l-2.9-1.2l-3.1-1.6l-2.3-1.5l-1.6-1.2l-1.4-1.1l-1.5-1.5l-1.7-2.2l-1-1.7l-.7-1.5l-.6-2l-.2-2.6l.3-1.9l.5-1.6l.9-1.7l1.1-1.4l1.6-1.4l1.6-.9l2.2-.9l1.9-.5l2.5-.4l1.4-.1l2.3 .1l2.7 .3l1.4 .3l2.3 .5l2.7 1.1l3.5 1.8l2.4 1.6l3.2 2.4l10.8 9.7l3.2 2.6l2.5 1.8l2.1 1.3l2.5 1.3l2.3 .9l3.8 1.3l1.4 .3l2.7 .6l.4 .3l.2 .4l.2 .5l-.1 .5l-.2 .4l-.4 .3l-.4 .2h-1l-2-.4l-1.5-.3l-4.1-1.4l-2.4-1l-2.8-1.4l-2.3-1.4l-2.6-1.8l-3.4-2.7l-10.8-9.8l-2.9-2.2l-2.3-1.5l-3.2-1.7l-2.4-.9l-2-.5l-2.5-.5l-3.3-.1h-1.1l-2.2 .4l-1.6 .5L600 531l-1.3 .7l-1.1 1l-.8 .9l-.6 1.3l-.3 1.1l-.2 1.4l.1 2l.5 1.4l.5 1.2l.9 1.5l1.5 1.8l1.3 1.3l1.2 1l1.5 1.1l2.1 1.3l2.8 1.5l2.6 1.1l1.3 .3l1.5 .4l1 .1H616l1.2-.1l1-.2l.5-.1l.5 .2l.4 .3l.3 .4Z" class="g0"/>
<path d="M616.4 529.6l.3 .4l.1 .4v.5l-.2 .5l-.6 .9v.7l.1 1.1l.4 1.2l.8 1.4l.8 1l1.5 1.5l2.1 1.4l2.8 1.5l1 .5l3.1 1l4 .9l2.8 .5l2 .1l.5 .2l.4 .2l.3 .4l.2 .5v.5l-.2 .5l-.4 .3l-.4 .3h-1l-1.8-.2l-3-.5l-4.2-.9l-3.3-1.1l-2.3-1l-2-1.2l-2.4-1.6l-1.8-1.8l-1.1-1.4l-.9-1.8l-.6-1.7l-.3-1.6l.1-1.5l.2-.7l.8-1.2l.3-.3l.5-.3h.5l.4 .1Z" class="g0"/>
<path d="M566 308.7l.4-.2h.5l1 .6l1.7 .5l3 .4l3.5 .3l6.2 .1l7.3-.3l8.8-.9l6.7-.9l7.9-1.5l7-1.6l6.8-2l4.3-1.6l6.5-2.6l5.4-2.6h.5l.4 .2l.1 .3v.4l-.3 .4l-5.5 2.6l-6.6 2.7l-4.3 1.5l-6.9 2.1l-7.1 1.6l-7.9 1.5l-6.9 1l-8.8 .9l-7.4 .3l-6.2-.1l-3.7-.3l-3.1-.5l-1.9-.5l-1.2-.7l-.3-.4l-.1-.5Z" class="g2"/>
<path d="M660.2 381.8l.3 .4v.5l-.4 1.1l-.8 3.2l-.1 .2l-.5 .1h-.3l-.3-.3l-.1-.5l.7-3.1l.4-1.2l.4-.4l.5-.1Z" class="g0"/>
<path d="M634.7 475.6l.3 .4l.1 .5l-.1 .5l-.2 .4l-.6 .8l-.3 .9l-.1 .8v.7l.4 .8l.6 .6l.3 .3l.2 .5v.5l-.2 .5l-.3 .4l-.5 .2l-.5 .1l-.4-.1l-.5-.3l-.8-.7l-.3-.5l-.7-1.3l-.1-.5l-.1-1.1l.2-1.5l.5-1.5l.2-.5l.7-.9l.4-.3l.5-.2h.5l.5 .2Z" class="g0"/>
<path d="M608.4 487.9l.4 .2l.4 .4l.2 .4v.5l-.2 1.4l.3 7.2l.1 2l.5 2.7l.4 2.1l.4 1.6l.7 1.6l1.1 1.8l.9 .9l.8 .6l.9 .3l1.6-.1l1.4-.6l1.2-.7l1.6-1.2l.8-.8l2.3-2.7l1.6-2.2l2-3.3l.6-1.3l1.4-3.6l.9-2.5l.7-3l.4-3.3l.2-3.1l.3-.4l.3-.4l.5-.2h.5l.5 .2l.4 .3l.2 .4l.1 .7l-.1 2.8l-.5 3.6l-.7 3.1l-.9 2.8l-1.6 3.8l-1.4 2.7l-1.3 2.2l-1.8 2.5l-2.5 2.9l-.9 .9l-1.9 1.5l-1.6 .9l-1.9 .7l-.4 .1l-2.1 .2l-.6-.1l-1.4-.5l-1.3-.9l-1.4-1.3l-1.4-2.3l-.9-2.1l-.5-1.8l-.5-2.2l-.4-3l-.2-2.1l-.3-7.4l.2-1.7l.2-.5l.3-.4l.4-.3l.5-.1Z" class="g0"/>
<path d="M644.9 832.1l-.1-.5v-.5l.2-.5l.4-.3l1.4-1l2.3-.9l7-2.1l7.9-1.9l7.7-1.4l8.5-1.2l8.3-.8l5.8-.2l5.1 .2l2.9 .3l1.3 .2l2.3 .5l2 .8l1 .8l.3 .2l1.2 1.5l.3 .6l.2 1.4v.8l-.5 .6l-.7 .6l-.5 .2l-.4 .1l-.5-.1l-.5-.3l-.3-.4l-.1-.4v-.5l.2-.5l.3-.4v-.2l-.8-1l-.7-.5l-1.4-.5l-2-.5l-1.2-.2l-2.6-.2l-4.9-.2l-5.6 .2l-8.2 .8l-8.3 1.1l-7.6 1.4l-7.8 1.9l-6.8 2l-2 .8l-1 .7l-.4 .2l-.5 .1l-.5-.1l-.4-.3Z" class="g2"/>
<path d="M683.9 840.3l.2-.5l.5-.2l1.3-.1l2.1-.5l2.5-1l5-2.3l3.9-2l3.7-2.1l5-3.4l2.3-1.8h.3l.4 .2l.2 .2l.1 .5l-.3 .4l-2.1 1.6l-5.1 3.5l-1.9 1.1l-3.9 2.1l-3.7 1.9l-3.4 1.5l-2.6 .9l-2.2 .6l-1.5 .2l-.5-.2l-.3-.4Z" class="g0"/>
<path d="M345.7 1345.3l.5 .1l.5 .3l.3 .4l.1 .4l.2 1.2v.5l-1 3.3l-1.5 3.7l-1.1 2.3l-.7 1.2l-1.4 2.1l-2.6 3.4l-1.9 2.3l-1.2 1.3l-.4 .3l-.5 .2l-.5-.1l-.5-.2l-.3-.3l-.3-.5v-.5l.1-.5l.3-.4l1.2-1.2l2.9-3.7l2.7-3.8l.6-1l1-2.1l1.4-3.4l.8-2.8l-.1-.8v-.5l.2-.5l.3-.4l.4-.2Z" class="g0"/>
<path d="M500.3 1378.1l.1 .5v.5l-.3 .5l-.3 .3l-.6 .4l-2.7 9.2l-5.3 21.8l-4.1 15.6l-.2 .5l-.4 .3l-.4 .2l-.5 .1l-.5-.2l-.4-.3l-.3-.4l-.1-.5v-.5l4.1-15.5l5.3-21.8l3-9.9l.5-.7l1-.7l.4-.2h.5l.5 .1l.4 .3Z" class="g0"/>
<path d="M486.1 1425.6l.5 .2l.4 .3l.2 .4l.1 .5v5.5l-1.6 22.3l-.7 13.9l-.2 13.1v12.6l.4 21.9l.4 12.3l-.1 .5l-.2 .4l-.4 .4l-.5 .2h-.5l-.4-.2l-.4-.3l-.3-.4l-.1-.5l-.4-12.3l-.4-21.9v-12.7l.2-13.2l.7-14l1.6-22.3l.1-5.2v-.5l.3-.5l.4-.3l.4-.2Z" class="g0"/>
<path d="M346.9 1353.6l-.1 .5l-.3 .4l-.3 .2l-.4-1.8l1.2 .3l7 .6l8.5 .3h14l9.3-.3l13.5-.9l14.4-1.3l15.8-1.8l11.7-1.6l12.8-2l7-1.3l13.1-2.7l13.5-3.2l.5-.1l.4 .2l.4 .3l.3 .4l.2 .5l-.1 .5l-.2 .4l-.4 .4l-.4 .2l-13.6 3.2l-13.1 2.7l-7.1 1.4l-12.9 2l-11.7 1.6l-15.9 1.8l-14.5 1.3l-13.5 .9l-9.4 .3H362.5l-8.6-.3l-7.4-.7l-1.6-.3l-.6-.3l-.9-.7l-.3-.4l-.2-.4l-.1-.5l.2-.5l.3-.4l.4-.3l.5-.1l1.2-.1l.5 .1l.5 .2l.3 .3l.2 .5Z" class="g0"/>
<path d="M400 1471.9l.3-.3l.5-.1l1.4 .4l1.3 .3l2.3 .2l5 .2l5.5-.2l10.5-.8l10-1l8-.9l8.4-1.2l10.9-2l.5 .1l.3 .4l.1 .2l-.2 .5l-.4 .3l-11 1.9l-8.4 1.2l-8.1 .9l-9.9 1l-10.6 .8l-5.6 .2l-5-.2l-2.5-.2l-1.4-.3l-1.5-.4l-.4-.3l-.1-.4Z" class="g0"/>
<path d="M475.9 1473.8l.4 .3l.1 .4l-.5 2.9l-.7 11.3l-.7 9.6l-.2 .4l-.4 .2h-.3l-.4-.3l-.1-.4l.7-9.6l.7-11.3l.4-3l.3-.4l.4-.2Z" class="g0"/>
<path d="M402.2 1471.1l.5 .2l.3 .4l1 5.8l.7 6.2l.2 11.1v7.7l-.1 .5l-.5 .2h-.2l-.5-.3l-.1-.4v-7.7l-.3-11l-.6-6.1l-1.1-5.8l.1-.4l.4-.4Z" class="g0"/>
<path d="M410.2 1503.6l.4-.2l.5 .1l1.1 .7l1.7 .6l1.6 .3l2.8 .4l2.8 .2l6.9-.1l8.2-.6l9-1l9.1-1.5l4.4-.9l3.4-.9l3.1-1l4.6-1.7l3.2-1.5h.3l.4 .3l.1 .2v.5l-.3 .4l-3.1 1.4l-4.7 1.7l-3.2 1.1l-3.4 .9l-4.6 .9l-9.1 1.5l-9.1 1l-8.2 .6l-7 .1l-2.9-.2l-2.9-.3l-1.7-.4l-2-.6l-1.3-.9l-.3-.4v-.4Z" class="g0"/>
<path d="M220.3 480.9l.2-.5l.4-.3l.5-.1h.5l1.3 .2l1.3 .3l1.2 .1l1.1-.1l1.4-.4l.9-.4l1.6-1.1l1.1-.9l1-1l.9-1l.8-1.1l.6-1.1l.5-1.2l.5-1.9l.1-1.2l.2-1.9l-.1-1.9l.2-.4l.3-.4l.5-.2l.5-.1l.5 .1l.4 .3l.3 .4l.2 .9v1.3l-.1 2.1l-.2 1.4l-.5 2.3l-.6 1.6l-.8 1.4l-1 1.4l-1.1 1.2l-1.2 1.1l-1.2 1.1l-1.9 1.2l-1.3 .7l-1.8 .5l-1.6 .2l-1.8-.1l-1.6-.4l-1.1-.2l-.5-.2l-.4-.3l-.2-.4l-.1-.5Z" class="g0"/>
<path d="M223.4 483.9l.2-.3l.2-.3l.3-.2l.4-.1l8.2-.1l6-.3h.3l.4 .2l.2 .2l.2 .3v.4l-.1 .4l-.2 .3l-.3 .2l-.4 .1l-6 .4l-8.3 .1l-.3-.1l-.4-.2l-.2-.2l-.1-.4Z" class="g0"/>
<path d="M342.5 1358.2h.5l.5 .1l.4 .3l.3 .5l.4 1l3.2 5.9l2.6 4l5.1 7.1l.3 .4l.1 .5l-.1 .5l-.3 .5l-.4 .3l-.5 .1h-.5l-.4-.2l-.4-.3l-5.3-7.2l-2.7-4.2l-3.3-6.2l-.5-1.2l-.1-.5l.1-.5l.2-.4l.4-.3Z" class="g0"/>
<path d="M353.2 1376.6l.4-.2l.5-.2l.5 .1l.5 .2l.9 .7l1.2 .6l2.2 .8l2.7 .7l5.4 1.1l6.7 1.1l6.2 .7l3.4 .3l10.6 .8l11.5 .5l13.7 .3l13.1-.2l12.9-.4l9.4-.5l4.6-.3l7.4-.7l4.4-.5l7.3-1.1l6.2-1l8.7-1.7l5.1-1.1l.5-.1l.5 .2l.4 .2l.3 .5l.1 .4l-.1 .5l-.2 .5l-.3 .3l-.5 .3l-5.2 1.2l-8.8 1.6l-6.3 1.1l-7.4 1l-4.4 .5l-7.5 .8l-4.6 .3l-9.5 .5l-12.9 .4l-13.1 .1l-13.9-.2l-11.6-.5l-10.6-.8l-3.5-.3l-6.2-.8l-6.9-1l-5.5-1.2l-2.9-.7l-2.5-.9l-1.5-.8l-1.2-.9l-.4-.3l-.2-.5v-.5l.1-.5Z" class="g0"/>
<path d="M472.5 1344.3l.2 .5l-.1 .5l-.2 .4l-.3 .4l-1.2 .8l-1.8 1.8L468 1350l-2.6 3.3l-2.6 4.2l-1.9 3.5l-3 6.2l-.5 1.3l-.3 .4l-.4 .3l-.5 .2l-.5-.1l-.4-.1l-.4-.4l-.2-.4l-.1-.5l.1-.5l.5-1.3l3.1-6.4l2-3.6l2.8-4.4l2.6-3.5l1.2-1.4l2.1-2.1l1.4-1l.4-.2h.5l.5 .1l.4 .3Z" class="g0"/>
<path d="M455.5 1368.9h.5l.5 .1l.4 .2l.3 .4l.6 1l.9 1.1l1.9 1.9l2.6 2.3l2.7 1.9l3.7 2.1l2.4 1l.5 .2l.3 .4l.2 .5v.5l-.2 .5l-.3 .3l-.5 .3l-.5 .1l-.5-.1l-.9-.4l-2.9-1.3l-2.8-1.6l-1.4-.9l-1.5-1.2l-2.9-2.5l-2-2.1l-1.1-1.3l-.8-1.3l-.1-.5v-.5l.1-.4l.4-.4Z" class="g0"/>
<path d="M234.3 1549.7l.5 .1l.4 .3l.3 .4l.2 .4l.3 2l.7 2.2l.7 1.8l2.3 4.3l1.6 2.6l2.6 3.7l1.1 1.3l3.4 3.5l3.7 3.1l2.9 2l1.5 .9l2.7 1.2l1.6 .6l2.9 .8l2.5 .6l3.8 .5l1.2 .1l1.4-.1l.5 .1l.5 .2l.3 .4l.2 .5v.5l-.2 .4l-.3 .4l-.4 .3l-.5 .1l-1.5 .1l-3.2-.3l-2.3-.4l-2.7-.6l-3.1-.9l-1.7-.6l-2.9-1.3l-1.7-1l-3.2-2.1l-3.9-3.4l-3.6-3.7l-1.2-1.4l-2.8-3.9l-1.7-2.7l-2.4-4.5l-.8-2l-.8-2.6l-.4-2.3v-.5l.2-.4l.4-.4l.4-.2Z" class="g0"/>
<path d="M232.4 1371.7l.5 .2l.3 .3l.3 .4l.1 .4l-.2 16.9l-.5 21.9l-.2 16.6l.2 20.1l.2 16.5l.3 13.9l.3 16.7l.3 14.5l.3 12.6l.4 18.3l.3 12.1l-.1 .5l-.2 .4l-.4 .3l-.4 .2h-.5l-.5-.2l-.3-.3l-.3-.4l-.1-.4l-.2-12.1l-.4-18.3l-.3-12.7l-.3-14.5l-.2-8.3l-.3-14l-.2-16.6l-.3-21.2v-13.7l.2-15.4l.4-16.6l.2-16.7l.1-.5l.2-.4l.4-.3l.4-.2Z" class="g0"/>
<path d="M276.5 1231.6l-.1 .5l-.4 .4l-.4 .3l-.5 .1l-1.7 .1l-1.3 .5l-2.9 1.6l-3.2 2.3l-2.8 2.3l-4.3 3.9l-1.8 1.8l-3.3 3.7l-4.1 5.1l-3.5 4.8l-2 3.2l-2.1 3.3l-2 3.6L237 1276l-1.8 4.3l-1.6 4.4l-1.5 4.5l-.9 3.1l-1.1 4.8l-1 4.8l-.7 4.9l-.7 8.4l-.2 5l-.1 5l.1 4.7l.6 8l.8 6.7l.8 5.4l.8 4.1l.6 2.9l.7 2.5l.1 .5l-.1 .6l-.3 .4l-.5 .3l-.5 .2l-.5-.1l-.5-.2l-.4-.4l-.3-.4l-.7-2.7l-.7-3l-.8-4.1l-.8-5.5l-.8-6.9l-.6-8.1l-.1-4.9l.1-5l.2-5.2l.7-8.6l.8-5l1-5l1.1-4.9l1-3.1l1.4-4.7l1.7-4.5l1.8-4.5l3.2-6.9l2.1-3.8l2.1-3.5l2.2-3.3l3.5-4.9l4.3-5.2l3.3-3.8l1.9-1.9l4.4-4.1l3-2.3l3.4-2.5l1.9-1.1l1.4-.7l1.7-.7l.5-.1l1.9-.1l.6 .1l.4 .2l.4 .4l.2 .5Z" class="g0"/>
<path d="M262.8 1383.1l.1-.4l.4-.3l1.5-.5l9.3-1.2l.5 .1l.3 .4v.3l-.2 .4l-.4 .2l-9.2 1.2l-1.4 .4h-.5l-.3-.3Z" class="g0"/>
<path d="M277.3 1382l-.2 .5l-.4 .2l-1.4 .1l-1.5 .3l-2.9 1l-2.8 1.1l-.3-.1l-.4-.3l-.1-.2l.1-.5l.4-.3l2.6-1.1l3-1l1.6-.3l1.6-.1l.4 .1l.3 .4Z" class="g0"/>
<path d="M265.1 1385.9l.2-.4l.4-.2l8.7-.9l.5 .1l.2 .4l.1 .3l-.2 .4l-.5 .2l-8.6 .9l-.5-.1l-.3-.4Z" class="g0"/>
<path d="M271.1 1392.4l.4 .2l.1 .5l-.6 10.1l-.2 9.5l-.1 9.8l.1 7.9l.1 8.4l.1 9.1l.1 9.4l.1 8.9v12.4l-.1 6.7l-.1 9.3l-.1 5.2l-.2 .5l-.4 .2h-.2l-.5-.2l-.1-.5l.1-5.2l.1-9.3v-19.1l-.1-8.9l-.1-9.4l-.1-9.1l-.1-8.4v-7.9l.1-9.8l.2-9.6l.6-10.1l.2-.5l.4-.2Z" class="g0"/>
<path d="M259.8 1507.9l.2-.4l.4-.3l3.1-.4l5.5-.3l10.2 .1l2.8 .1l.5 .2l.2 .4v.3l-.3 .4l-.4 .2l-2.8-.1L269 1508l-5.4 .3l-3 .4l-.4-.1l-.3-.4Z" class="g0"/>
<path d="M271 1231.2l.2-.5l.3-.4l.4-.2l.5-.1l3.1-.1l13.8-1.1l19.6-2.3l20.1-2.8l21-3.4l22-3.9l15.7-2.9l.5-.1l.4 .2l.4 .3l.3 .4l.1 .5l-.1 .5l-.2 .5l-.4 .3l-.5 .2l-15.6 3l-22.1 3.9l-21.1 3.3l-20.1 2.9l-19.7 2.3l-13.9 1l-3.2 .1H272l-.5-.3l-.3-.3l-.2-.5Z" class="g0"/>
<path d="M273 562.1l.2-.5l.4-.2l10.2-1l10-.8l10.2-.7l11.2-.6l11.4-.4l7.7-.2l10.2-.3l3.4-.1l.5 .1l.3 .4v.3l-.3 .4l-.4 .2l-3.5 .1l-10.2 .3l-7.7 .3l-11.3 .4l-11.2 .5l-10.2 .7l-9.9 .8l-10.2 1l-.5-.1l-.3-.4Z" class="g0"/>
<path d="M268.8 559.9l.2-.4l.5-.2h1.2l6.8-.7l9.6-1.2l9.5-1.1l10.8-1.1l10.7-1.1l8.5-1l7.8-.8l.4 .1l.3 .4l.1 .3l-.2 .4l-.5 .2l-7.8 .9l-8.5 .9l-10.6 1.1l-10.9 1.2l-9.5 1.1l-9.6 1.2l-6.8 .7h-1.3l-.5-.2l-.2-.4Z" class="g0"/>
<path d="M266.8 556.1l.2-.4l.4-.3l9.8-1.6l9.7-1.6l9.5-1.4l10.1-1.5l11-1.4l9.3-1.2l.4 .1l.3 .4l.1 .3l-.2 .4l-.5 .3l-9.2 1.1l-11 1.5l-10.1 1.4l-9.4 1.4l-9.8 1.6l-9.8 1.7l-.5-.1l-.3-.4Z" class="g0"/>
<path d="M260.3 547.5l.2-.5l.4-.2l11.2-2.1l11.3-1.9l10.5-1.6l9.7-1.4l10.6-1.5l1.2-.1h.2l.3 .4l.1 .3l-.1 .2l-.3 .4l-1.2 .2l-10.6 1.5l-9.7 1.4l-10.5 1.6l-11.2 1.9l-11.2 2.1l-.5-.1l-.3-.3Z" class="g0"/>
<path d="M248.9 535.1l.1-.5l.4-.3l4.5-1.1l11-2.2l9.5-1.5l10.8-1.4l10.3-1.1l11.5-1h1.4l.3 .1l.2 .4l.1 .2l-.3 .5l-.2 .1l-1.4 .2l-11.4 1l-10.3 1l-10.8 1.4l-9.5 1.5l-10.8 2.2l-4.5 1.1h-.5l-.4-.3Z" class="g0"/>
<path d="M242 525.3l.1-.4l.4-.3l10.7-2.2l10.6-1.8l11.2-1.8l6.4-.9l11.2-1.5l9.9-1.3l2.6-.3l.4 .3l.1 .2l.1 .3l-.2 .4l-.2 .2l-2.7 .4l-9.9 1.3l-11.1 1.5l-6.4 .9L264 522l-10.6 1.8L242.9 526l-.5-.1l-.3-.3Z" class="g0"/>
<path d="M262.7 1582.9l.1-.5l.4-.3l1.3-.4l10-1.5l11-1.2l10.5-.9l11.3-1l11.1-1.1l7.5-.8l10-1.2l3.5-.5l.4 .1l.4 .4v.2l-.2 .5l-.4 .2l-3.5 .5l-10.1 1.2l-7.4 .9l-11.1 1l-11.4 1l-10.4 1l-11 1.1l-9.9 1.5l-1.1 .4l-.5-.1l-.4-.3Z" class="g0"/>
<path d="M256.4 1581.3l.1-.5l.4-.3l1.4-.5l8.6-2l10.2-1.9l10.3-1.6l8.7-1.1l8.7-1.1l11.5-1.2l7.4-.7l9.9-1l3.3-.3l.5 .2l.3 .4v.2l-.2 .5l-.5 .2l-3.3 .3l-9.8 .9l-7.5 .8l-11.4 1.2l-8.8 1l-8.6 1.2l-10.3 1.5l-10.1 1.9l-8.5 2l-1.3 .5h-.5l-.4-.3Z" class="g0"/>
<path d="M249.5 1576.1l.1-.5l.4-.2l9.8-2.3l9.3-1.7l9.6-1.4l8.4-1.1l8.9-1.1l9-.9l10.8-1l11.5-1.1l1.2-.1l.4 .3l.1 .2v.3l-.2 .4l-.2 .2l-1.2 .1l-11.5 1.1l-10.7 1l-6 .7l-8.9 .9l-11.4 1.5l-9.5 1.5l-9.3 1.6l-9.7 2.2h-.5l-.4-.3Z" class="g0"/>
<path d="M242.5 1567.6l.1-.5l.4-.3l1.2-.4l3.3-.8l11-1.9l9.2-1.4l11-1.4l5.8-.7l6.2-.8l10.7-1.3l11.1-1.3l1-.1l.2 .1l.3 .4v.2l-.2 .5l-.2 .1l-.9 .2l-11.1 1.3l-10.7 1.4l-9.1 1.1l-11.2 1.4l-9.8 1.4l-10.9 1.8l-5.3 1.2l-1.1 .4H243l-.4-.4Z" class="g0"/>
<path d="M235 1553.8l.2-.5l.4-.2l11-1.9l10.7-1.7l8.3-1.3l10.9-1.9l10.3-1.8l3.3-.5h.5l.3 .4v.3l-.1 .4l-.5 .3l-3.2 .6l-10.4 1.8l-10.8 1.8l-8.4 1.4l-10.7 1.6l-11 1.9l-.4-.1l-.4-.4Z" class="g0"/>
<path d="M232.6 1538.5l.2-.4l.5-.2l10.4-1.5l10.1-1.3l9-1.2l10.8-1.3l1.9-.2l.4 .2l.1 .3l.1 .2l-.2 .5l-.2 .1l-1.9 .3l-10.9 1.4l-8.9 1.1l-10.1 1.4l-10.5 1.4l-.5-.1l-.2-.4Z" class="g0"/>
<path d="M484.8 1530l.5 .1l.5 .2l.3 .4l.2 .4l.3 1.6l.2 1.7l.1 3.4l-.3 2.7l-.3 2.1l-.4 2.1l-.7 2.3l-.7 2.3l-1 2.4l-1.2 2.5l-2.1 3.6l-1.7 2.3l-2 2.3l-2.2 2.1l-2.4 2l-2.7 1.8l-2.6 1.4l-2.5 1.1l-3.8 1.4l-2.3 .7l-1.3 .2l-.5-.2l-.3-.3l-.3-.5l-.1-.4l.1-.5l.2-.5l.4-.3l3.3-.9l1.5-.6l4.3-1.8l2.5-1.3l1.2-.8l2.4-1.7l2.1-1.9l1.8-2l2.5-3.2l2-3.4l1.1-2.3l.9-2.2l.7-2.1l.6-2.2l.7-3.9l.2-2.5l-.1-3l-.1-1.5l-.3-1.4v-.5l.1-.5l.3-.4l.5-.2Z" class="g0"/>
<path d="M615.5 534l.1 .5l-.2 .5l-.9 .8l-6.8 7.9L602 550l-.5 .2l-.4-.1l-.2-.2l-.2-.4l.2-.5l5.7-6.2l6.8-8l1-.9l.4-.2l.5 .2Z" class="g0"/>
<path d="M616.7 537.9l.2 .4l-.1 .5l-5.6 7l-4.9 6.1l-.4 .3l-.5-.1l-.2-.2l-.1-.4l.1-.5l3.2-4.1l7.2-9l.4-.2h.5Z" class="g0"/>
<path d="M619.7 542.4l.1 .5l-.2 .5l-1 .9l-3.8 4.9l-2.4 3.2l-.4 .3l-.5-.1l-.2-.1l-.2-.5l.1-.4l4.7-6.3l1.6-1.9l1.1-1.1l.5-.2l.4 .2Z" class="g0"/>
<path d="M624.8 542.7l.3 .4l-.1 .5l-2.2 3.9l-3.7 5.4l-.4 .3l-.5-.1l-.2-.1l-.2-.5l.2-.4l3.5-5.4l2.2-3.8l.4-.3h.5Z" class="g0"/>
<path d="M229.6 1358l.4-.1h.5l.5 .2l.3 .4l.7 1l.8 .9l2.5 2.4l.4 .4l.1 .4v.5l-.1 .5l-.3 .4l-.5 .3l-.5 .1l-.5-.1l-.4-.3l-1.6-1.4l-1.2-1.2l-1-1.1l-.8-1.2l-.2-.5v-.5l.1-.4l.3-.5Z" class="g0"/>
<path d="M229.7 1357.2l-.3 .3l-.5 .3l-.4 .1l-.5-.1l-.7-.2l-.3 .1l-.2 .3l-.2 .8v1.1l.2 1l.4 1.2l.5 1.3l.7 1.5l.9 1.6l1 1.6l1.2 1.6l1.2 1.5l2.3 2.4l2.7 2.3l.4 .4l.2 .4v.5l-.2 .5l-.3 .4l-.4 .3l-.5 .1h-.5l-.4-.3l-.6-.4l-2.4-2.1l-2.4-2.6l-1.4-1.6l-1.2-1.7l-1.2-1.8l-1-1.8l-.7-1.6l-.6-1.6l-.5-1.4l-.2-1.2l-.1-1.6l.3-1.7l.2-.6l.7-.9l.8-.6l1.2-.3h.9l1.1 .4l.4 .2l.3 .4l.2 .5v.5Z" class="g0"/>
<path d="M185.7 1293.9l.4-.4l.4-.3l.5-.1l.5 .1l1.7 .6l1.3 .8l1.5 1.2l1.9 1.6l3.6 3.8l4.2 4.9l4.8 5.9l5.2 7l3.4 4.9l5.9 9l6.6 10.8l.2 .5v.5l-.2 .5l-.3 .4l-.5 .2l-.5 .1l-.5-.1l-.4-.2l-.3-.4l-6.6-10.7l-5.8-8.9l-3.4-4.9l-5.1-6.9l-4.7-5.9l-4.2-4.7l-3.5-3.6l-1.7-1.5l-1.4-1.1l-.9-.6l-1.2-.4l-.5-.2l-.3-.4l-.2-.5v-.5Z" class="g0"/>
<path d="M211.2 1328.2l-.4-.4l-.1-.4v-.6l3 .1l-4.6 13.1l-2.3 7.4l-2.6 9.7l-2 8.4l-.6 2.9l-.8 4.8l-.7 5l-.6 5.3l-.6 9.8l-.1 6.1l.1 6.1l.3 6.3l.2 4.1l.7 6.3l.9 6.3l1.1 6.1l2.4 10.3l1.6 5.9l1.7 5.7l1.7 5.4l3.2 8.6l2.9 7.2l2.4 5.5l2 4l1.5 2.8l1.1 1.9l.2 .5v.5l-.2 .5l-.3 .4l-.4 .2l-.5 .1l-.5-.1l-.4-.2l-.4-.4l-1.1-1.9l-1.5-2.9l-2.1-4.2l-2.5-5.6l-2.9-7.2l-3.2-8.8l-1.8-5.4l-1.7-5.8l-1.6-6l-2.4-10.3l-1.2-6.4l-.8-6.3l-.7-6.4l-.3-4.3l-.3-6.3l-.1-6.2l.1-6.2l.6-9.9l.6-5.5l.8-5l.8-4.9l.6-3l2-8.5l2.6-9.8l2.4-7.5l4.2-12.3l.5-1.1l.8-1.3l.3-.4l.4-.3l.4-.1l.5 .1l.4 .2l.4 .3l.2 .4l.1 .5l-.1 .5l-.5 1l-.7 1.3l-.3 .3l-.4 .3l-.5 .1l-.5-.1Z" class="g0"/>
<path d="M599.8 1488.6h-.5l-.5-.2l-.4-.3l-.3-.4l-.5-1.4l-.9-2.9l-.6-3l-.2-1.5l-.2-2V1474l.1-2.3l.2-1.9l.5-2.3l.8-3l.9-2.1l.9-1.7l1.3-1.8l2-1.8l1.7-.9l1.3-.3h1.9l.6 .1l2.5 1.1l1.8 1.4l1 .9l1.5 1.7l1.9 2.4l2.3 4l2.2 4.2l2.1 4.9l1.6 4.2l1.5 4.8l1.2 4.6l.2 1.1v.5l-.2 .5l-.3 .3l-.4 .3l-.5 .1l-.5-.1l-.4-.2l-.4-.4l-.2-.5l-.2-1.1l-1.1-4.4l-1.4-4.6l-1.6-4.1l-2-4.7l-2.1-4.1l-2.2-3.7l-1.7-2.2l-1.4-1.5l-.7-.7l-1.6-1.1l-1.8-.8l-1.1-.1l-.8 .3l-1.2 .6l-1.4 1.3l-1 1.4l-.7 1.4l-.8 1.9l-.7 2.6l-.4 2.1l-.2 1.7l-.1 2.1v2.7l.4 3.2l.5 2.7l.8 2.7l.5 1.2l.1 .5v.5l-.3 .4l-.3 .4Z" class="g0"/>
<path d="M603.9 475h-.5l-.5-.1l-.4-.3l-.3-.4l-.6-1.2l-.4-1.3l-.4-1.5l-.3-1.6l-.2-1.9l-.1-3.2l.2-2.1l.5-2.9l.7-2.4l1.2-3.1l1.2-2.3l1.2-1.7l.8-1l1.6-1.7l1.6-1.1l1.7-.8l.5-.1l1.8-.1l2.2 .2l1.8 .7l2.1 1.1l1.1 .9l2.7 2.6l2 2.2l2.5 3.2l3.1 4.8l2.5 4.6l1.4 3l1.2 2.9l.6 1.9v.5l-.1 .4l-.3 .5l-.4 .3l-.5 .1h-.5l-.4-.3l-.4-.3l-.2-.5l-.6-1.7l-1-2.7l-1.3-2.9l-2.5-4.4l-2.9-4.5l-2.4-3.1l-1.9-2l-2.5-2.5l-.9-.6l-1.7-1l-1.3-.4L613 447l-1.1 .2l-1.3 .6l-1.1 .8l-1.4 1.4l-1.7 2.3l-.5 .9l-1.2 2.8l-.9 3.2l-.6 2.7l-.1 1.7l.1 2.9l.1 1.8l.3 1.4l.7 2.3l.5 .9l.1 .5v.5l-.2 .5l-.4 .3Z" class="g0"/>
<path d="M629.1 1351.8l.3-.4l.4-.1l1.2 .2l2.5 .7l4.9 2l5.6 2.8l4.8 2.8l4.3 3l2.9 2.2l.8 .7l1.9 1.9l1.5 1.8l.8 1l.1 .3v.4l-.2 .2l-.2 .1l-.2 .1l-.4-.2l-.9-1.2l-1.4-1.7l-1.9-1.7l-3.5-2.9l-4.3-2.9l-4.7-2.8l-5.6-2.8l-4.7-1.9l-2.4-.7l-1-.1l-.4-.2l-.2-.4Z" class="g2"/>
<path d="M649.4 1361.5v-.5l.3-.4l1.2-.5l.4-.1l1.4 .3l2.6 1l2.6 1.1l2.9 1.6l2.9 1.7l2.5 1.8l1.4 1.2l1.3 1.2l.7 .8l.2 .5l-.2 .4l-.2 .2l-.4 .1l-.3-.1l-2-2l-1.4-1.1l-2.4-1.8l-2.8-1.7l-2.8-1.5l-2.6-1.1l-2.4-.9l-1-.2l-.9 .4l-.5 .1l-.4-.3Z" class="g2"/>
<path d="M632.3 1351l-.2 .4l-.3 .4l-.5 .2l-.5 .1h-1.4l-.5-.2l-.5-.3l-.3-.4l-.1-.5l.1-.5l.2-.5l.9-1.2l.7-.4l5.8-2l6-1.7l5.9-1.4l9.4-1.7l7.1-1l5.4-.5l7.1-.4l4.9-.1l2.4 .1l5.5 .4l2.9 .5l3 .8l1.5 .5l2.4 1.4l1.2 1.1l.9 1.4l.3 .8v1.1l-.1 .6l-.4 .5l-.5 .3l-.8 .3h-.5l-.5-.1l-.4-.2l-.3-.4l-.2-.5l.1-.5l.1-.5l.4-.3l.1-.1l-.5-.7l-.7-.6l-1.9-1l-2.3-.7l-4.2-.8l-5.3-.4l-2.2-.1l-4.8 .1l-7 .4l-5.3 .5l-7 1l-9.3 1.6l-5.7 1.4l-5.9 1.6l-5.3 1.8l-.7-1.4h.4l.5 .1l.5 .3l.3 .4l.1 .5Z" class="g2"/>
<path d="M565.3 1344.2l-.3-.4l-.1-.5l.1-.5l.2-.5l.8-1l.8-.6l1.5-.3l1.5-.2l5.4-.2H581l7.6 .6l6.1 .7l7.2 1.1l12.6 2.7l6 1.6l8.9 2.7l1.5 .6l.4 .2l.3 .4l.2 .5v.5l-.2 .4l-.3 .4l-.5 .3l-.5 .1l-.4-.1l-4.8-1.6l-7.3-2.2l-10-2.3l-8.8-1.7l-8.4-1.2l-7.9-.7l-6.1-.2l-6.5 .3l-2.2 .4l-.4 .6l-.4 .3l-.4 .2h-.5l-.5-.1Z" class="g0"/>
<path d="M700.5 1368.2l.4-.2l.5-.1l.5 .1l.4 .3l.8 .7l1.1 .7l1.3 .6l2.7 1.1l3.6 1.1l3.2 .8l6.3 1.2l1.8 .2l.5 .1l.4 .3l.3 .5l.1 .5l-.1 .5l-.2 .4l-.4 .3l-.4 .2l-.5 .1l-2-.3l-6.4-1.2l-3.4-.8l-3.7-1.2l-2.9-1.1l-1.5-.8l-1.4-.8l-1.1-1l-.3-.4l-.2-.5v-.5l.2-.4Z" class="g2"/>

</g>
</svg>
