<svg x="0" y="0" width="1222" height="3965" viewBox="0 0 1222 3965" version="1.1" xmlns="http://www.w3.org/2000/svg" style="display: block;margin-left: auto;margin-right: auto;">
<defs>
<clipPath id="c_1"><path d="M0,0H1222V3965H0Z"/></clipPath>
<style>

.g0{fill:#8AB4F8;}
.g1{fill:#C58AF9;}
.g2{fill:#9AA0A6;}

</style>

</defs>
<path d="M0 0V3965H1222V0Z" fill="#FFFFFF" stroke="none"/>
<g clip-path="url(#c_1)">
<path d="M359.9 551.5l-.2 .7l-.4 .6l-.6 .4l-.7 .1l-2.2 .3l-22.6 3.8h-.7l-.7-.2l-.6-.5l-.3-.6l-.1-.7l.1-.7l.4-.6l.5-.5l.7-.2l22.8-3.9l2.4-.3l.7 .1l.7 .3l.5 .5l.3 .7Z" class="g0"/>
<path d="M256.3 661l.5-.4l.5-.2l.6-.1l.6 .2l1.7 .8l1.6 .3l4 .1l3.3-.3l6.2-1l11-2.7l10.7-3.2l17.4-5.9l20-7.5l22.1-9.1l16.8-7.5l10.6-5.3l5.7-2.9l9.8-5.4l8.4-5l12-7.4l7.4-5.1l.5-.2l.6-.1l.6 .2l.5 .3l.3 .5l.2 .6v.6l-.3 .5l-.4 .4l-7.6 5.2l-12 7.5l-8.5 4.9l-9.9 5.5l-5.7 3l-10.7 5.3l-17 7.5l-22.2 9.1l-20 7.6l-17.6 6L287.2 661L276 663.7l-6.5 1.1l-3.5 .3h-2.6l-1.9-.1l-2.2-.4l-2.3-1l-.5-.4l-.3-.4l-.2-.6l.1-.6Z" class="g0"/>
<path d="M421.7 263.6l.7 .8l.3 1v1.1l-.4 .9l-4.5 8.2l-15.2 29l-8.3 16.6l-5 10.5l-2.5 5.6l-7.1 16.4l-4.5 11.1L370 378.3l-2.4 6.7l-2.3 6.6l-3.5 11.3l-1.9 6.7l-2.7 10.9l-1.4 6.4l-1.2 6.1l-1.1 5.8l-1.3 9.6l-.9 7.9l-.5 6.2l-.2 4.6l-.1 5.1l-.2 1.1l-.5 .9l-.8 .7l-1 .4h-1l-1-.4l-.9-.7l-.5-.9l-.2-1l.1-5.4l.2-4.8l.5-6.4l.9-8.1l1.4-9.7l1.1-6l1.2-6.3l1.5-6.5L354 408l2-6.8l3.5-11.4l2.3-6.8l2.5-6.8l5.2-13.6l4.5-11.2l7.2-16.6l2.6-5.7l4.9-10.5l8.4-16.8l15.3-29.1l4.7-8.5l.7-.8l.9-.5l1.1-.1l1 .2Z" class="g0"/>
<path d="M324.6 546.4v-1.1l.4-1l.6-.8l1-.6l1.5-.5l2.9-.7l2.9-.4l5-.6l4.3-.3l4.5-.1l4.4 .1l4.1 .3l2.5 .3l3.4 .7l2.3 .8l.6 .3l1.6 1l.9 .8l.8 1.2l.6 1.6v1.2l-.2 1.5l-.6 1.3l-.5 .7l-1.7 1.7l-1.5 1.2l-1.2 .7l-1 .3h-1l-1-.4l-.8-.6l-.6-1l-.1-1l.2-1.1l.5-.9l.8-.6l1-.6l.7-.6l.7-.7l-.5-.3l-1.8-.6l-2.7-.6l-2.1-.3l-3.7-.2l-4.1-.1l-4.2 .1l-4.1 .3l-4.7 .5l-2.6 .4l-2.4 .6l-1 .4l-1 .2l-1.1-.2l-.9-.5l-.7-.8Z" class="g0"/>
<path d="M348.7 461.3l1 .4l.7 .7l.4 1l.1 1l-.1 2.5v15.6l.5 9.2l.7 7.8l1.1 8.3l1.5 8.4l1.7 7.8l2.2 8.6l2.4 7.7l.1 1l-.2 1l-.5 .9l-.8 .6l-1 .3h-1l-.9-.4l-.8-.6l-.5-.9l-.3-1l-2.1-7.1l-2.3-8.7l-1.2-5.4l-1.1-5.6l-1.4-8.8l-1-8.4l-.6-7.7l-.4-9l.1-13.7l.1-2.9l.3-1l.5-.8l.9-.6l.9-.3Z" class="g0"/>
<path d="M228.4 536.6l-.4-.2l-.4-.4l-.2-.5v-.6l.3-2l1.2-3.7l3.7-9l6.1-12.8l9.7-18.6l6.2-11.1l7.2-12.1l5.9-9.2l3-4.6l8.8-12.1l9.1-11.5l6.8-8l3.3-3.7l5.5-5.8l5.6-5.6l8.5-8.1l6.5-5.7l.5-.3l.5-.1l.5 .1l.5 .3l.3 .4l.2 .5v.6l-.2 .4l-.3 .5l-6.4 5.5l-8.5 8.1l-5.5 5.5l-5.4 5.8l-3.3 3.6l-6.7 7.9l-9.1 11.4l-8.7 12l-3 4.5l-5.8 9.2l-7.2 12.1l-6.1 11l-9.7 18.4l-6 12.7l-3.6 8.9l-1.1 3.3l-.3 1.8l-.1 .5l-.4 .4l-.4 .3l-.5 .1Z" class="g1"/>
<path d="M235.4 494.8l-.4-.2l-.3-.5l-.2-.5v-.5l.4-1.7l.9-2.4l3.4-7.1l4.3-7.5l6.3-9.9l5.6-8.2l4.9-6.7L268 440l8.6-9.9l6.6-7.1l6.6-6.8l8.7-8.4l5.2-4.8l10.4-9.1l11.8-9.7l.5-.2l.5-.1l.5 .1l.5 .3l.3 .4l.2 .5l-.1 .6l-.2 .5l-.3 .4l-11.7 9.6l-10.3 9l-5.3 4.8l-8.6 8.3l-6.5 6.7l-6.6 7.1l-8.5 9.8l-7.6 9.5l-4.8 6.5l-5.5 8.2l-6.3 9.8l-4.2 7.4l-3.3 6.9l-.8 2l-.3 1.5l-.2 .4l-.4 .4l-.4 .3l-.6 .1Z" class="g1"/>
<path d="M326.8 390.6l.6-.1l.5 .2l.4 .3l.3 .5l6.8 17.9l3.3 10.1l2 7.5l2 8l1.8 9.2l1.3 8.9l.8 6.4l.7 11.6v11.1l-.2 5l-.2 .5l-.3 .4l-.4 .3l-.5 .2l-.5-.1l-.5-.2l-.4-.3l-.2-.5l-.1-.6l.2-4.8V471.2l-.7-11.4l-.7-6.3l-1.3-8.8l-1.8-9.1l-1.9-7.9l-2.1-7.3l-3.2-10l-6.8-17.8l-.1-.5l.1-.5l.2-.5l.4-.3Z" class="g0"/>
<path d="M172.2 329.4l.7-.7l.9-.5l1.1-.2l1 .3l1.6 .7l1.4 .9l1.6 1.2l1.4 1.3l1.4 1.4l4.9 5.7l9.5 12.4l4.3 5.9l4.2 6.3l3.6 6.1l2.3 4.4l1.6 3.6l2.1 5.2l1.1 3.8l.1 1.1l-.2 1l-.6 .9l-.9 .6l-1 .2h-1.1l-1-.5l-.7-.7l-.5-1l-1-3.4l-1.9-4.9l-1.5-3.3l-2.2-4l-3.4-5.9l-4-6l-4.2-5.8l-8.2-10.7l-5.8-6.9l-2.3-2.2l-1.2-.9l-.8-.5l-.9-.4l-.9-.6l-.7-.8l-.3-1l.1-1.1Z" class="g0"/>
<path d="M135 74.2l1.1 .3l.8 .7l.6 .9l.2 1v12l-.7 12.5l-1 10.5l-6.1 46.6l-5.3 35.9l-.4 1l-.6 .8l-.9 .6l-1.1 .2l-1-.2l-1-.5l-.7-.8l-.3-.9l-.1-1.1l5.3-35.9l6.2-46.4l1-10.3l.6-12.1V77.3l.1-1l.5-1l.8-.7l1-.4Z" class="g0"/>
<path d="M225.3 318.2l-.3-1l.1-1.1l.4-1l.8-.7l1.8-1.4l6.8-4.1l8-4.2l7.7-3.6l9.3-4.1l8.2-3.2l9.1-3.4l8.1-2.8l10.3-3.3l10.9-3.2l9.2-2.6l15.5-3.9l15.3-3.5l11.2-2.2l10.7-1.9l13.3-2.1l9.3-1.2l13.8-1.3l11.6-.9h2.1l1 .1l1 .5l.7 .8l.4 1v1l-.3 1l-.7 .9l-.9 .5l-1 .3h-2l-11.4 .8l-13.7 1.4l-9 1.2l-13.2 2l-10.6 1.9l-11 2.2l-15.2 3.4l-15.4 3.9l-9.1 2.5l-10.7 3.2l-10.2 3.3l-7.9 2.8l-9 3.3l-8.1 3.2l-9.1 3.9l-7.5 3.6l-7.7 4.1l-6.4 3.8l-1.6 1.2l-.9 .4l-1.1 .2l-1-.3l-.9-.6Z" class="g0"/>
<path d="M224.9 295.3l1 .2l.9 .7l.6 .8l.2 1l.4 3l5.7 32.7v1.1l-.4 1l-.6 .8l-1 .5l-1 .2l-1-.2l-1-.5l-.6-.8l-.4-1l-5.8-32.9l-.3-3.3v-1.1l.5-.9l.7-.8l1-.4Z" class="g0"/>
<path d="M119.8 194.4l1-.4l1-.1l1 .3l.9 .6l1.2 1.2l5.9 7.8l25.7 37.8l9.1 13.9l19.6 30.9l.4 1v1l-.3 1l-.7 .9l-.9 .5l-1 .2l-1-.1l-1-.5l-.7-.8l-19.5-30.8L151.4 245l-25.7-37.7l-5.4-7.3l-.9-.9l-.6-.9l-.3-1l.1-1.1l.4-.9Z" class="g0"/>
<path d="M190.2 254.8l1 .5l.7 .8l.5 .9l.1 1.1l-.5 4.6l-1.4 9.9l-3.8 19.8l-8.3 38.5l-.4 1l-.7 .8l-1 .5l-1 .1l-1.1-.2l-.9-.6l-.6-.8l-.3-1v-1.1l1.2-5.5l9.9-46.8l1.9-12.1l.9-7.7l.3-1l.6-.9l.8-.6l1.1-.2Z" class="g0"/>
<path d="M175.7 328.6l1-.5h1.1l1 .2l.9 .6l5.5 5.9l5.8 7l4.5 6.4l5.6 8.6l7.5 12.8l5.4 10.3l4.3 9.1l2.6 6l.2 1l-.2 1.1l-.5 .9l-.8 .7l-1 .4h-1l-1.1-.3l-.8-.7l-.5-.9l-2.4-5.7l-4.2-8.9l-5.3-10L195.9 360l-5.4-8.4l-4.4-6.1l-5.5-6.6l-5.3-5.7l-.6-.8l-.3-1.1l.1-1l.5-1Z" class="g0"/>
<path d="M201.9 363.1l1 .4l.7 .7l.5 1l.2 1l-.2 3.4l-.5 4l-1.4 7.2l-1.7 7l-2.3 7.8l-6.4 19.3l-14.5 41.4L165.1 492l-3.4 9.5L157 513.6l-5.2 12.1l-.6 .9l-.8 .6l-1.1 .2h-1l-1-.5l-.7-.7l-.5-1l-.1-1l.3-1.1l5-11.8l4.7-12l3.4-9.3l12.1-35.6L186 412.8l6.4-19.1l2.2-7.5l1.7-6.7l1.3-6.9l.4-3.6l.2-3l.2-1l.6-.9l.8-.7l1-.3Z" class="g0"/>
<path d="M147.5 522.1l1-.1l1.1 .2l.9 .6l.6 .9l2.1 4.3l2.1 5.1l2.4 7.3l2.5 10.1l1.7 10.2l1.4 11.9l1 16.7l.6 28.1l-.3 45.7l-.1 6.8l-.1 1l-.6 1l-.8 .6l-1 .4h-1.1l-1-.4l-.8-.7l-.5-.9l-.2-1.1l.1-6.8l.3-45.6l-.6-27.8l-1-16.5l-1.4-11.5l-1.6-9.9l-1.7-7.2l-2-6.5l-2.9-7.6l-1.9-3.9l-.3-1v-1.1l.4-1l.7-.8Z" class="g0"/>
<path d="M356.5 549.6l1-.3l1.1 .1l.9 .4l.8 .7l.8 1l1 .9l2 1.3l2.7 1.4l4.9 2.1l6.2 2.2l10.4 3.1l18.9 4.7l12.6 2.6l4.6 .7l6.5 .9l7 .5l5 .1l4.2-.3l3.7-.3l5.1-.7l3.2-.7h1l1 .3l.9 .6l.5 .9l.3 1l-.1 1l-.5 1l-.8 .7l-.9 .4l-3.5 .7l-5.5 .8l-3.9 .3l-4.5 .3h-5.4l-7.5-.6l-6.6-.9l-11.7-2.1L401 572l-14.3-3.7L376 565.2l-6.5-2.4l-5.2-2.2l-3.2-1.7l-2.5-1.6l-1.7-1.4l-1.4-1.8l-.4-.9l-.2-1l.2-1l.6-.9Z" class="g0"/>
<path d="M459.1 574.6l-.1 1l-.4 .9l-.7 .7l-.9 .5l-1.7 .5l-3.2 2l-8.6 6.5l-14.1 12.6l-17.8 17.5l-13.7 14.9l-6.1 7.4l-5.1 6.7l-3 4.5l-3.5 6.3l-1.4 3.7l-.6 1.9l-.4 2.5v.9l-.1 1l-.5 .8l-.8 .7l-.9 .4h-1l-1-.3l-.8-.7l-.5-.8l-.2-1v-1.1l.5-3.5l.7-2.5l1.7-4.3l2.2-4.1l3.2-5.3l4.8-6.7l5.9-7.4l6.9-7.8l12.5-13.2l15-14.7l14.4-12.9l9-6.8l3.9-2.4l2.7-.9l1-.1l.9 .2l.9 .6l.6 .8Z" class="g0"/>
<path d="M110.7 672.3l.6-.9l.8-.6l1-.3h1.1l2.2 .5H125l46.2-3.8l28.2-2.3l42-2.5l23.9-.8l18.4-.4l37-.2l45.4 .5l44 1.2l48 2.1l4 .2l1 .3l.9 .5l.6 .9l.3 1v1.1l-.4 .9l-.8 .8l-.9 .5l-1.1 .1l-3.9-.2l-47.9-2.1L366 667.6l-45.4-.5l-36.8 .2l-18.4 .4l-23.7 .8L199.8 671l-28.1 2.2l-46.4 3.9h-9.4l-3-.6l-1-.4l-.8-.7l-.5-1l-.1-1Z" class="g0"/>
<path d="M181.3 441l.5-.2h.6l.5 .2l.4 .3l14.9 16.5l13.7 14.3l11.3 11l9.9 8.9l.3 .4l.2 .5v.6l-.2 .5l-.3 .4l-.5 .2l-.5 .1l-.5-.1l-.5-.3l-10-9l-11.3-11L196 459.9l-15-16.6l-.3-.4l-.1-.5l.1-.6l.2-.4Z" class="g0"/>
<path d="M169.8 471l.5-.2h.5l.5 .2l.4 .4l16.2 17.3L204.1 506l14.1 14.6l8.8 8.7l.3 .4l.1 .5v.6l-.2 .4l-.4 .4l-.5 .2l-.5 .1l-.5-.1l-.5-.3l-5.7-5.8l-15.6-15.9l-15.9-16.9L171.7 476l-2.3-2.7l-.3-.4l-.1-.6l.1-.5l.3-.4Z" class="g0"/>
<path d="M326.1 384.7h.6l.5 .1l.4 .3l7.8 15.7l4.7 11.2l2.4 6.8l2.5 8.9l1.4 6.4l1.6 10.3l.4 4.1l-.1 .8l-.2 .4l-.4 .4l-.5 .2h-.5l-.5-.1l-.4-.3l-.3-.5l-.6-4.6l-1.5-10.1l-1.4-6.3l-2.5-8.7l-2.3-6.6L332.6 402l-6.7-13.4l-.9-2.3v-.6l.3-.4l.3-.4Z" class="g0"/>
<path d="M251.8 421.8l.6 .9v1l-2.5 7.4L244.8 450l-4.6 20.4l-4.3 22.7l-3.5 21.5l-3.2 22l-1.6 11.8l-.4 .9l-1 .4h-.5l-.9-.7l-.2-1l1.6-11.9l3.2-21.9l3.5-21.6l4.3-22.8l4.7-20.5l5-19l2.6-7.7l.7-.8l1.1-.2Z" class="g0"/>
<path d="M148.9 92l1.1-.1l.8 .7l11.8 20.6l11.2 20.1l7.7 13.8L191.9 166l10.2 18.5l11.4 21.2l.1 1l-.5 .9l-.5 .2h-1l-.8-.7L199.4 186l-10.1-18.6l-10.4-18.8l-7.8-13.8l-11.2-20.2L148.2 94.2l-.2-1l.5-.9Z" class="g0"/>
<path d="M214.3 551.6l.4-.4h.6l10.7 3.4l10.9 3.2l.4 .3l.2 .5l-.1 .3l-.4 .3l-.5 .1l-11-3.2l-10.8-3.4l-.4-.4l-.1-.5Z" class="g0"/>
<path d="M237.8 557.7l-.4 .4l-.5 .1l-2.3-.7l-2.4-.1l-11.9 .5l-5.7 .1l-.5-.1l-.3-.5v-.3l.3-.4l.5-.2l5.7-.2l11.8-.5l2.6 .2l2.6 .7l.5 .3l.1 .5Z" class="g0"/>
<path d="M211.8 558.3l.3-.5l.5-.1l5.5 .4l8.4 1.4l9.4 2l.5 .3l.1 .5l-.1 .3l-.3 .4h-.5l-5.4-1.2l-9.6-1.8l-8.1-.8l-.5-.2l-.2-.4Z" class="g0"/>
<path d="M230.1 595.7l.3-.4l.4-.3l.5-.1l2.8 .7l5.1 .7l10.2 .5l7.8-.1l7-.4l11.4-1.4l18.1-3.1l10.3-2l14-3.2l18.6-4.9l9-2.8l7.2-2.5l10.7-4.2l7.7-3.5l.5-.1h.5l.5 .2l.4 .4l.2 .4l.1 .6l-.2 .5l-.2 .4l-.5 .4l-7.8 3.5l-10.8 4.3l-7.3 2.5l-4.5 1.5l-9.6 2.7l-13.8 3.6l-14.1 3.2l-10.3 2l-18.2 3.1l-11.5 1.4l-7.2 .5l-8.1 .1l-10.4-.5l-5.4-.8l-3-1l-.3-.4l-.3-.4v-.6Z" class="g0"/>
<path d="M159.2 601.1l.5-.9l.9-.4l24.2-.8l23.5-1.4l19-1.4l1 .3l.6 .8l.1 .6l-.5 .9l-.9 .4l-19.1 1.5L185 602.1l-24.2 .7l-1-.3l-.6-.9Z" class="g0"/>
<path d="M320.7 429.7l.1 .5l-.1 .5l-.2 .5l-.4 .4l-.7 .5l-3.7 8.4l-1.5 4.2l-1.1 4.1l-.3 1.7l-.3 2l-.2 1.7l.1 1.8l.1 1l.5 .8l.4-.3l1.2-1.4l1.5-2.4l1.6-3.4l1.7-4.8l1-4l.7-4.1l.1-2.1v-1.6l-.2-.9l-.1-.3h-.2l-1.5 .9l-1.4 1.1l-.9 .9l-.5 .6l-.4 .3l-.5 .2H315l-.5-.2l-.4-.3l-.3-.5l-.1-.5l.1-.5l.3-.5l.5-.7l1.1-1l1.7-1.4l2.2-1.2l.8-.2h1.5l.7 .3l.5 .5l.7 1.3l.2 .5l.2 1.2l.1 2l-.2 2.3l-.4 2.7l-.6 3.2l-1.3 4.3l-1.3 3.7l-1.7 3.6l-1.6 2.7l-1.6 1.9l-.4 .3l-1.3 .8l-.5 .2h-.6l-1.2-.4l-.5-.2l-.4-.5l-.9-1.6l-.2-.5l-.3-1.4v-2.2l.1-2l.3-2.2l1-4l.6-2.2l1.6-4.4l3.9-9.1l.6-.6l1-.7l.5-.2h.5l.6 .1l.4 .3Z" class="g2"/>
<path d="M224.2 562.2l.9 .4l.4 1l.5 5.6l1 7.3l3.5 16.9l4.6 16.4l4.8 14.5l8.8 22.4l2.9 6.5l.1 1.1l-.6 .8l-.5 .2l-1.1-.1l-.7-.7l-2.9-6.6L237 625.3l-4.8-14.6l-4.6-16.6L224 577l-1.1-7.4l-.4-5.9l.3-1l.9-.5Z" class="g0"/>
<path d="M620 590.1l.4-.5l.4-.3l.5-.1l2.8 .8l5 .7l10.2 .5l7.9-.1l7-.5l11.4-1.3l18.1-3.1l10.2-2.1l14-3.1l18.6-5l9.1-2.7l7.2-2.6l10.7-4.1l7.6-3.5l.5-.2h.6l.4 .2l.4 .4l.3 .5v.5l-.1 .5l-.3 .5l-.4 .3l-7.8 3.6l-10.8 4.2l-7.3 2.6l-4.5 1.4l-9.6 2.8l-13.8 3.5l-14.1 3.2l-10.3 2.1L666 592.3l-11.5 1.4l-7.2 .4l-8 .1l-10.4-.5l-5.4-.7l-3-1l-.4-.4l-.2-.5v-.5Z" class="g0"/>
<path d="M549.1 595.4l.5-.9l1-.4l24.2-.7l23.5-1.4l19-1.5l1 .3l.6 .9v.5l-.4 .9l-1 .5l-19 1.4L575 596.4l-24.3 .8l-1-.4l-.5-.8Z" class="g0"/>
<path d="M710.6 424l.2 .5l-.1 .6l-.2 .4l-.4 .4l-.7 .5l-3.7 8.5l-1.5 4.2l-1.1 4.1l-.4 1.7l-.3 1.9l-.1 1.8v1.7l.2 1.1l.5 .7l.4-.2l1.2-1.4L706 448l1.6-3.4l1.7-4.8l1.1-3.9l.6-4.2l.2-2.1l-.1-1.6l-.1-.8l-.2-.3h-.1l-1.5 .8l-1.4 1.2l-.9 .8l-.5 .6l-.4 .4l-.5 .2h-.6l-.5-.2l-.4-.4l-.2-.4l-.1-.5l.1-.6l.2-.4l.6-.7l1.1-1.1l1.7-1.3l2.2-1.3l.8-.2l1.4 .1l.8 .2l.5 .6l.7 1.2l.2 .5l.2 1.2v2l-.1 2.4l-.4 2.6l-.7 3.3l-1.2 4.2l-1.4 3.7l-1.7 3.6l-1.5 2.7l-1.6 1.9l-.4 .4l-1.3 .7l-.6 .2h-.6l-1.1-.3l-.6-.3l-.4-.4l-.9-1.7l-.2-.5l-.2-1.4l-.1-2.1l.2-2.1l.3-2.1l.9-4.1l.7-2.1l1.5-4.4l4-9.1l.5-.6l1.1-.7l.5-.2l.5-.1l.5 .2l.4 .3Z" class="g2"/>
<path d="M614.2 556.5l.9 .5l.4 .9l.4 5.6l1.1 7.3l3.5 16.9l4.5 16.4l4.9 14.5l8.8 22.4l2.9 6.6v1l-.6 .9l-.4 .2l-1.1-.1l-.7-.8l-2.9-6.6L627 619.7L622.1 605l-4.6-16.5L614 571.3l-1.1-7.4l-.5-5.8l.4-1l.8-.6Z" class="g0"/>
<path d="M530.5 69.8l-.3 1l-.6 .9l-.9 .6l-1 .3l-3.5 .2l-1.1-.1l-1-.6l-.8-.9l-.3-1V69l.5-1l.9-.8l1.3-.9l.9-.3l3.2-.8l7.4-1.6l8.6-1.5l11.4-1.7l14.1-1.6L586 57.3l18.8-1.1l20.2-.6l20.2-.1l20.3 .6l13.8 .8l12 1l11.3 1.3l10.3 1.4l8.8 1.4l12.4 2.4l7.1 1.6l1 .4l.7 .8l.5 .9l.1 1.1l-.3 1l-.6 .9l-.8 .6l-1 .3l-1.1-.1l-6.9-1.5l-12.2-2.3L712 66.7l-10.2-1.5L690.7 64l-11.8-1l-13.7-.8L645 61.6l-19.9 .1L605 62.3l-18.6 1.1l-16.5 1.5l-14 1.6l-11.2 1.6l-8.3 1.5l-7.3 1.5l-1-4.6l.2 .1l.9 .4l.8 .8l.4 .9Z" class="g1"/>
<path d="M743.6 66.1l1.1 .1l.9 .4l.8 .8l.5 .9l9.9 33.1l11.9 38.8L778 171l7.3 25.7l6.2 22.4l10.2 39.5l.1 1l-.3 1.1l-.7 .8l-.8 .6l-1.1 .2l-1-.1l-1-.4l-.7-.8l-.4-1l-10.2-39.3l-6.1-22.4l-7.4-25.6L762.9 142L751 103.2L741 70l-.1-1.1l.2-1l.6-.9l.9-.6Z" class="g0"/>
<path d="M562.2 323.8l.7-.8l.9-.5l1.1-.1l1 .2l1.6 .7l1.4 .9l1.6 1.2l1.4 1.3l1.4 1.4l4.9 5.8l9.5 12.3l4.3 6l4.2 6.2l3.6 6.2l2.3 4.4l1.6 3.5l2 5.3l1.2 3.7l.1 1.1l-.3 1l-.6 .9l-.8 .6l-1.1 .3l-1-.1l-1-.5l-.7-.7l-.5-1l-1-3.3l-2-4.9l-1.5-3.3l-2.1-4.1l-3.5-5.9l-3.9-6l-4.2-5.8l-8.2-10.6l-5.8-6.9l-2.3-2.3l-1.2-.9l-.9-.5l-.8-.4l-.9-.5l-.7-.9l-.3-1v-1Z" class="g0"/>
<path d="M525 68.5l1 .4l.9 .6l.5 .9l.2 1.1l.1 12L527 96l-1 10.5L519.8 153l-5.3 35.9l-.3 1.1l-.7 .8l-.9 .5l-1 .2l-1.1-.1l-.9-.5l-.7-.8l-.4-1V188l5.3-35.8l6.1-46.4l1-10.3l.7-12.2l-.1-11.7l.2-1l.5-.9l.8-.7l1-.4Z" class="g0"/>
<path d="M614.8 289.6l1.1 .3l.8 .6l.6 .9l.3 1l.6 5l5.5 30.6v1.1l-.4 1l-.7 .8l-.9 .5l-1 .2l-1.1-.1l-.9-.6l-.7-.8l-.3-1l-5.8-32.9l-.4-3.3l.1-1l.5-1l.7-.7l1-.5Z" class="g0"/>
<path d="M509.8 188.8l.9-.5l1.1-.1l1 .3l.9 .6l1.2 1.2l5.8 7.9l25.7 37.7l9.2 13.9l19.6 30.9l.4 1v1l-.3 1.1l-.7 .8l-.9 .5l-1 .3l-1.1-.2l-.9-.5l-.7-.8l-19.5-30.8l-9.2-13.8l-25.6-37.6l-5.5-7.4l-.9-.9l-.6-.9l-.2-1l.1-1l.4-1Z" class="g0"/>
<path d="M580.2 249.2l1 .4l.7 .8l.4 1l.1 1l-.4 4.7l-1.5 9.9l-3.7 19.7l-8.3 38.5l-.4 1l-.8 .8l-.9 .5l-1.1 .1l-1-.2l-.9-.6l-.6-.8l-.4-1l.1-1.1l1.2-5.5l9.8-46.7l2-12.2l.8-7.6l.3-1.1l.6-.8l.9-.6l1-.3Z" class="g0"/>
<path d="M565.7 322.9l1-.4l1-.1l1.1 .3l.8 .6l5.6 5.9l5.8 7l4.5 6.3l5.6 8.6l7.5 12.9l5.4 10.2l4.3 9.1l2.5 6l.2 1.1l-.1 1l-.5 .9l-.8 .7l-1 .4l-1.1 .1l-1-.4l-.8-.6l-.6-1l-2.4-5.7l-4.2-8.9l-5.2-10l-7.4-12.6l-5.5-8.4l-4.3-6l-5.5-6.7l-5.3-5.6l-.6-.9l-.3-1l.1-1.1l.5-.9Z" class="g0"/>
<path d="M591.8 357.5l1 .4l.8 .7l.5 .9l.2 1.1l-.2 3.3l-.5 4l-1.4 7.2l-1.7 7l-2.3 7.8l-6.4 19.3l-14.6 41.5l-12.1 35.6l-3.4 9.5L546.9 508l-5.1 12l-.6 .9l-.9 .6l-1 .3l-1.1-.1l-.9-.4l-.8-.8l-.4-1l-.1-1l.2-1l5.1-11.8l4.7-12l3.3-9.4l12.1-35.6L576 407.2l6.4-19.1l2.2-7.6l1.6-6.7l1.3-6.8l.5-3.7l.2-2.9l.2-1.1l.5-.9l.9-.6l1-.4Z" class="g0"/>
<path d="M537.5 516.5l1-.1l1 .2l.9 .6l.7 .8l2.1 4.3l2 5.2l2.5 7.3l2.4 10l1.8 10.3l1.3 11.8l1.1 16.7l.6 28.1l-.3 45.7l-.1 6.8l-.2 1.1l-.5 .9l-.8 .7l-1.1 .3h-1l-1-.4l-.8-.7l-.5-.9l-.2-1l.1-6.8l.2-45.6l-.5-27.9l-1.1-16.5l-1.3-11.5l-1.7-9.9l-1.7-7.2l-1.9-6.4l-2.9-7.7l-2-3.9l-.3-1l.1-1.1l.4-.9l.7-.8Z" class="g0"/>
<path d="M746.5 544l1-.3h1l1 .4l.8 .7l.8 1.1l1 .8l2 1.4l2.7 1.4l4.8 2l6.3 2.3l10.4 3l18.9 4.7l12.6 2.6l4.6 .8l6.4 .8l7 .6h5l4.3-.2l3.6-.4l5.2-.7l3.2-.6l1-.1l1 .3l.8 .6l.6 .9l.2 1l-.1 1.1l-.5 .9l-.7 .7l-1 .4L847 571l-5.6 .7l-3.8 .4l-4.5 .2h-5.4l-7.5-.6l-6.7-.9l-11.7-2.1L791 566.3l-14.3-3.7L766 559.5l-6.5-2.3l-5.2-2.3l-3.2-1.6l-2.5-1.7l-1.7-1.4l-1.4-1.7l-.5-.9l-.1-1.1l.2-1l.6-.9Z" class="g0"/>
<path d="M849 568.9v1l-.4 1l-.7 .7l-.9 .4l-1.7 .5l-3.2 2l-8.6 6.5l-14.1 12.6l-17.8 17.6L787.9 626l-6.2 7.4l-5 6.7l-3 4.5l-3.5 6.3l-1.5 3.7l-.5 2l-.4 2.5v.8l-.2 1l-.5 .9l-.7 .6l-1 .4h-1l-.9-.3l-.8-.6l-.5-.9l-.2-1l-.1-1.1l.6-3.4l.7-2.6l1.7-4.3l2.1-4.1l3.2-5.2l4.9-6.8l5.9-7.3l6.8-7.9l12.5-13.2l15.1-14.7l14.4-12.9l8.9-6.8l4-2.4l2.6-.8l1-.2l1 .3l.8 .5l.6 .9Z" class="g0"/>
<path d="M500.7 666.7l.5-.9l.9-.7l1-.3l1.1 .1l2.1 .4h8.6l46.3-3.8l28.2-2.3l42-2.4l23.8-.9l18.5-.4l36.9-.2l45.5 .6l44 1.2l48 2l3.9 .3l1.1 .2l.9 .6l.6 .8l.3 1l-.1 1.1l-.4 1l-.7 .8l-1 .4l-1 .2l-3.9-.3l-47.9-2l-44-1.2l-45.3-.6l-36.8 .2l-18.4 .4l-23.8 .9l-41.8 2.4l-28.1 2.3l-46.5 3.8h-9.4l-3-.6l-.9-.4l-.8-.7l-.5-.9l-.2-1.1Z" class="g0"/>
<path d="M571.3 435.4l.5-.2h.5l.5 .1l.4 .4l15 16.5l13.7 14.2l11.3 11l9.9 9l.3 .4l.2 .5v.5l-.2 .5l-.4 .4l-.4 .3l-.5 .1l-.6-.1l-.4-.3l-10-9.1l-11.3-11l-13.9-14.4l-15-16.5l-.2-.5l-.1-.5l.1-.5l.2-.5Z" class="g0"/>
<path d="M559.7 465.4l.5-.2h.6l.5 .2l.4 .3L577.8 483l16.3 17.3l14.1 14.6l8.7 8.7l.3 .4l.2 .6l-.1 .5l-.2 .5l-.3 .4l-.5 .2h-.6l-.5-.1l-.4-.3l-5.8-5.7l-15.6-16l-15.8-16.9l-15.9-16.8l-2.4-2.7l-.2-.5l-.1-.5l.1-.5l.2-.5Z" class="g0"/>
<path d="M716.1 379h.5l.5 .1l.5 .4l7.7 15.6l4.7 11.2l2.4 6.9l2.5 8.9l1.4 6.4l1.6 10.2l.4 4.1v.8l-.2 .5l-.4 .3l-.5 .3h-.5l-.6-.2l-.4-.3l-.3-.4l-.5-4.7L733.3 429l-1.3-6.3l-2.5-8.6l-2.3-6.7l-4.7-11.1L715.9 383l-1-2.4l.1-.5l.2-.5l.4-.4Z" class="g0"/>
<path d="M641.7 416.2l.7 .8l-.1 1l-2.5 7.5l-5 18.8l-4.6 20.4l-4.3 22.7L622.4 509l-3.2 21.9l-1.6 11.8l-.5 1l-.9 .4l-.6-.1l-.8-.6l-.2-1l1.6-11.9l3.2-22l3.4-21.6l4.4-22.8l4.6-20.5l5.1-19l2.6-7.7l.7-.8l1-.1Z" class="g0"/>
<path d="M538.9 86.3h1l.9 .6l11.8 20.6l11.2 20.1l7.7 13.9l10.4 18.8L592 178.8L603.4 200l.2 1l-.6 .9l-.4 .3l-1.1-.1l-.8-.6l-11.4-21.2l-10.1-18.5L568.8 143l-7.7-13.9L549.9 109L538.2 88.5l-.2-1l.4-.9Z" class="g0"/>
<path d="M604.3 545.9l.4-.3h.5l10.7 3.4l11 3.1l.4 .3l.1 .5v.3l-.4 .4h-.5l-11-3.2L604.7 547l-.4-.3l-.1-.6Z" class="g0"/>
<path d="M627.8 552.1l-.4 .4h-.5l-2.4-.7l-2.4-.1l-11.8 .5l-5.7 .2l-.5-.2l-.3-.5v-.2l.2-.5l.5-.2l5.7-.1l11.9-.5l2.6 .1l2.6 .7l.4 .3l.1 .5Z" class="g0"/>
<path d="M601.8 552.6l.3-.4l.5-.2l5.4 .5l8.5 1.3l9.4 2.1l.4 .3l.2 .5l-.1 .2l-.4 .4l-.5 .1l-5.3-1.3l-9.6-1.7l-8.1-.8l-.5-.2l-.2-.5Z" class="g0"/>
<path d="M716.8 384.9h.5l.5 .1l.4 .4l.3 .4l6.9 18l3.2 10l2.1 7.5l1.9 8l1.9 9.2l1.3 8.9l.7 6.5l.7 11.5l.1 11.2l-.3 4.9l-.1 .5l-.3 .5l-.4 .3l-.5 .1h-.6l-.5-.2l-.3-.4l-.3-.5v-.5l.2-4.8v-11l-.7-11.4l-.7-6.3l-1.4-8.8l-1.8-9l-1.8-7.9l-2.1-7.4l-3.2-9.9L715.7 387l-.1-.6l.1-.5l.2-.4l.4-.4Z" class="g0"/>
<path d="M749.9 545.8l-.2 .7l-.4 .6l-.6 .4l-.7 .2l-2.2 .2l-22.7 3.9h-.7l-.6-.3l-.6-.5l-.3-.6l-.2-.7l.2-.7l.3-.6l.6-.5l.7-.2l22.7-3.9l2.5-.2h.7l.6 .4l.5 .5l.3 .6Z" class="g0"/>
<path d="M646.3 655.4l.4-.4l.6-.3h.6l.5 .1l1.7 .8l1.6 .3l4 .1l3.3-.3l6.3-1l10.9-2.6l10.8-3.3l17.3-5.9l20-7.5l22.1-9.1l16.9-7.5l10.6-5.2l5.6-2.9l9.9-5.5l8.4-4.9l11.9-7.4l7.5-5.1l.5-.3h.6l.6 .1l.5 .3l.3 .5l.2 .6l-.1 .6l-.2 .5l-.4 .5l-7.6 5.1l-12.1 7.5l-8.4 5l-9.9 5.5l-5.7 2.9l-10.7 5.3l-17 7.6l-22.2 9.1l-20.1 7.5l-17.5 6l-10.8 3.3l-11.3 2.7l-6.4 1l-3.6 .3h-2.5l-2-.1l-2.1-.4l-2.3-1l-.5-.3l-.3-.5l-.2-.6v-.6Z" class="g0"/>
<path d="M714.6 540.7v-1.1l.3-1l.7-.8l.9-.5l1.5-.6l3-.6l2.8-.5l5-.6l4.4-.3l4.5-.1l4.4 .1l4.1 .3l2.5 .4l3.4 .7l2.3 .8l.6 .3l1.6 .9l.8 .9l.9 1.1l.5 1.6l.1 1.2l-.3 1.5l-.6 1.3l-.5 .7l-1.6 1.8l-1.5 1.2l-1.2 .6l-1 .4h-1.1l-1-.4l-.8-.7l-.5-.9l-.2-1.1l.2-1l.6-.9l.8-.7l.9-.5l.8-.6l.6-.8l-.4-.2l-1.9-.7l-2.7-.5l-2-.3l-3.8-.3l-4.1-.1l-4.2 .1l-4.1 .3l-4.7 .6l-2.6 .4l-2.3 .5l-1 .4l-1.1 .2l-1-.2l-.9-.5l-.7-.8Z" class="g0"/>
<path d="M738.2 445.4l.9 .5l.8 .7l.4 1l.1 1l-.2 10l.3 14.4l.5 7.9l1 9.8l1.4 9.6l1.8 9.3l1.3 6l2.5 9.6l2.6 8.5l.1 1.1l-.2 1l-.5 .9l-.9 .7l-1 .3h-1l-1-.4l-.8-.7l-.5-1l-.4-1l-2.3-7.8l-2.5-9.7l-1.4-6.2l-1.8-9.6l-1.5-9.7l-.4-3.6l-.6-6.6l-.5-8.1l-.3-14.7l.2-10.5l.3-1l.6-.9l.9-.6l1-.3Z" class="g0"/>
<path d="M618.4 530.9l-.5-.2l-.3-.4l-.2-.5v-.5l.3-2.1l1.2-3.6l3.6-9.1l6.1-12.8l9.8-18.6l6.1-11l7.3-12.2l5.8-9.2l3.1-4.6l8.7-12.1l9.2-11.5l6.8-8l3.3-3.7l5.5-5.8l5.6-5.6l8.5-8.1l6.5-5.7l.5-.2l.5-.1l.5 .1l.5 .2l.3 .5l.2 .5v.5l-.2 .5l-.4 .4l-6.4 5.6l-8.4 8l-5.5 5.6l-5.5 5.7l-3.2 3.7l-6.8 7.8l-9 11.5l-8.7 12l-3 4.5l-5.8 9.1l-7.2 12.1l-6.2 11l-9.6 18.5l-6.1 12.6l-3.6 8.9l-1.1 3.4l-.2 1.7l-.2 .5l-.3 .4l-.4 .3l-.6 .1Z" class="g1"/>
<path d="M625.4 489.2l-.5-.3l-.3-.4l-.1-.5v-.6l.4-1.7l.9-2.3l3.4-7.1l4.2-7.5l6.4-10l5.6-8.2l4.9-6.7l7.7-9.6l8.5-9.8l6.6-7.2l6.7-6.8l8.6-8.3l5.3-4.9l10.4-9l11.8-9.7l.4-.3h.6l.5 .1l.4 .3l.4 .4l.1 .5v.5l-.2 .5l-.3 .4l-11.7 9.6l-10.4 9l-5.2 4.8l-8.6 8.3l-6.6 6.7l-6.5 7.1l-8.5 9.8l-7.6 9.5l-4.8 6.6l-5.6 8.1l-6.3 9.9l-4.1 7.3l-3.3 6.9l-.8 2.1l-.3 1.4l-.2 .5l-.4 .4l-.5 .2l-.5 .1Z" class="g1"/>
<path d="M617.7 311.2l-.5-1l-.1-1l.2-1.1l.6-.9l1-1.1l.7-.6l6.1-3.3l9.3-4.3l12.3-5.1l26-10l12.1-4.3l8.6-2.8l7.2-2.2l7.4-2.2l13.2-3.5l9.3-2.2l10.9-2.3l9-1.6l5.2-.8l11.7-1.4l8.4-.7l7-.4l10.1-.4h5.8l1.1 .2l.9 .6l.6 .8l.4 1v1.1l-.4 1l-.7 .8l-1 .5l-1 .1h-5.6l-9.9 .4l-6.9 .4l-8.2 .7L757 267l-5.1 .8l-8.7 1.5l-10.8 2.3l-9.1 2.2l-13.1 3.4l-7.3 2.1l-7.1 2.2l-8.4 2.8l-12 4.2l-21.3 8.1l-16.6 6.9l-9.1 4.2l-5.3 2.9l-.7 .7l-.8 .7l-1.1 .3h-1l-1-.4Z" class="g0"/>
<path d="M623.8 313.2l-.3 1l-.7 .8l-.9 .5l-1.1 .2h-2.9l-1.1-.2l-.9-.6l-.7-.9l-.3-1.1l.2-1.2l.5-1l1-1.1l1-.8l3.1-1.5l5.8-2.3l7.6-2.6l9.4-3l11.4-3.2l10-2.6l13.3-3.1l25.3-5.4l17.5-3.3l13.3-2.1l15.2-2.2l10.4-1.2l10-.9l9.8-.7l14.9-.8l8.6-.2h2.7l1 .2l.9 .5l.7 .9l.3 1v1l-.3 1l-.7 .8l-.9 .6l-1.1 .1h-2.6l-8.4 .2l-14.7 .8l-9.8 .7l-9.8 .9l-10.2 1.2l-15.1 2.1L722 287.9l-17.3 3.2l-25.2 5.4l-13.1 3.1l-9.9 2.5l-11.3 3.2l-9.2 2.9l-7.4 2.5l-5.5 2.2l-1.3-3.1l.9 .5l.7 .8l.4 1Z" class="g0"/>
<path d="M807.2 276.8l.8 .7l.4 1l.1 1l-.3 1.1l-4.7 9.2l-15 26.4l-6.9 12.9L774 344.5l-6 12.9l-3.9 9.3l-2.9 7l-4.4 11.7l-4 12L749 410l-3 10.9l-2.3 8.9l-1.6 6.9L740 446.9l-.4 1l-.7 .8l-.9 .5l-1 .2l-1.1-.2l-.9-.5l-.7-.8l-.3-1v-1.1l2.1-10.4l1.7-7l2.3-9.1l3-11l3.8-12.7l4.1-12.2l4.5-11.9l2.9-7.1l4-9.4l6-13.1l7.8-15.6l6.9-13l15.1-26.5l4.5-8.8l.6-.9l.9-.6l1-.3l1.1 .1Z" class="g0"/>
<path d="M800.8 259.6l.3 1v1l-.3 1l-.7 .8l-.9 .8l-6.1 6.7l-5.1 6.3l-.8 .7l-1 .4l-1 .1l-1-.4l-.9-.6l-.5-.9l-.3-1l.2-1.1l.5-1l5.2-6.5l6.5-7.1l1.3-1.1l.9-.5l1-.2l1.1 .2l.9 .6Z" class="g0"/>
<path d="M140.5 75.4l-.2 1.1l-.6 .8l-.9 .6l-1 .3l-3.6 .3l-1.1-.2l-1-.5l-.7-.9l-.4-1.1l.1-1.1l.5-1.1l.8-.7l1.4-.9l.8-.4l3.2-.8l7.5-1.5l8.5-1.5l11.4-1.7l14.2-1.6L196.1 63l18.7-1.1l20.2-.6l20.2-.2l20.4 .7l13.7 .8l12 1l11.3 1.2L323 66.3l8.7 1.4L344.1 70l7.1 1.7l1 .4l.8 .7l.4 1l.1 1l-.2 1.1l-.6 .9l-.9 .6l-1 .3l-1.1-.1L342.8 76l-12.1-2.3L322 72.3l-10.2-1.4l-11.1-1.2l-11.8-1l-13.6-.8l-20.2-.6l-20 .1l-20 .6l-18.6 1.1l-16.6 1.4L166 72.2l-11.2 1.6l-8.4 1.5l-7.2 1.5l-1.1-4.6h.2l1 .5l.7 .7l.5 1Z" class="g1"/>
<path d="M349.3 71.5l1.1 .1l1 .5l.7 .7l.5 .9l13.1 43.5l13.2 43.3l11.6 39.7l12.3 45.4l4.7 18.7l.1 1.1l-.3 1l-.6 .9l-.9 .6l-1 .2l-1.1-.1l-.9-.5l-.8-.7l-.4-1l-4.7-18.7l-12.3-45.3l-11.5-39.5L359.9 119L346.7 75.4l-.1-1.1l.3-1l.6-.9l.8-.6Z" class="g0"/>
<path d="M389.5 1262.8l-.4-.3l-.4-.4l-.2-.5v-.5l.2-.9l.4-.4l.4-.3l.5-.1l.6 .1l.4 .2l.4 .4l.2 .5v.6l-.2 .8l-.4 .5l-.4 .2l-.6 .1Z" class="g0"/>

</g>
</svg>
