<svg xmlns="http://www.w3.org/2000/svg">
 <defs>
  

  <g id="packi_panel_3" >
   <path d="m209.1,193.15c27.33,2.71 84.75,0.76 125.22,-9.67l-13.56,24.58l15.68,13.56c-32.91,2.68 -82.34,7.06 -117.8,-4.66l-12.29,-19.49l2.74,-4.31z" 
   fill="var(--outline-color, #000)"/>
   <path d="m247.22,55.45c-25.72,7.88 -113.02,84.69 -75.47,145.68l7.34,179.66c4.14,16.57 8.85,26.93 41.24,36.16l-90.4,7.34c-16.01,-10.73 -30.32,-13.56 -32.77,-52.54c-10.1,4.44 -16.46,9.76 -26.55,18.64c-20.15,11.01 -55.78,-33.15 -46.57,-95.09l20.28,6.96c-16.42,-31.91 -33.72,-110.27 3.24,-179.55c15.25,2.82 29.83,1.58 49.6,-1.25c7.16,-15.44 18.27,-35.4 38.42,-51.41c30.43,-1.48 72.16,-7.48 111.62,-14.6zm-168.64,108.62c-17.02,37.17 -27.05,96.53 4.88,162.35l10.86,9.01l3.16,-122.88l-7.73,-14.22l4.17,-5.42l-2.13,-9.82l-13.23,-19.02zm-12.22,166.23l-17.25,-16.6l3.1,21.7l6.8,17l7.5,7.8l10.2,5.1l5.7,-0.5l-2.8,-17.6l-4.8,-1.6l-6.8,-8.8l-1.65,-6.5z" 
    fill="url(#dots)"/>
   <path d="m267.35,311.75c22.01,1.2 46.55,-1.49 74.2,-8.06l-2.91,32.23c-15.34,7.9 -54.95,12.88 -69.9,6.8l-1.38,-30.97z" 
    fill="var(--packi-logo, none)"/>

   <path  d="m167.7,194.15l-0.5,0.1l-0.5,-0.1l-0.4,-0.2l-0.3,-0.4l-1.4,-2.4l-1.2,-2.7l-0.8,-2l-1.1,-3.2l-0.6,-2.4l-0.3,-1.6l-0.4,-4.5l0,-2.9l0.2,-4.7l0.5,-4.3l0.8,-4.6l0.7,-2.9l1.4,-5.3l1.1,-3.4l1.3,-3.5l2,-5l4.3,-9.4l2.1,-4.2l3.9,-7l2.6,-4.3l2.7,-4.2l4.1,-5.7l4.3,-5.7l4.7,-5.5l3.7,-4l3.6,-3.9l2.6,-2.6l6.8,-6l2.8,-2.3l4.2,-3.3l4.4,-3.2l6,-3.8l6.2,-3.4l6.3,-3l4.7,-2l4.5,-1.7l3.2,-1l4.6,-1.3l4.5,-1l3.2,-0.5l7.8,-0.3l6.3,0.4l6.2,0.9l6,1.6l4.5,1.5l4.2,1.7l2.8,1.3l4.1,2.3l3.8,2.5l2.6,1.8l3.7,3l3.5,3.2l4.5,4.8l5.2,6.5l2,2.7l2.8,4.1l2.6,4.2l1.7,2.8l2.4,4.3l2.1,4.4l1.4,2.9l1.8,4.4l1.7,4.4l1.9,5.8l1.2,4.3l1.7,6.9l1.4,9.3l0.4,3.8l0.4,6.2l0,6.8l-0.3,4l-0.6,5.6l-0.7,4l-0.7,3.1l-0.6,2.4l-0.5,1.7l-0.5,1.1l-0.3,0.5l-0.4,0.3l-0.4,0.1l-0.5,0l-0.5,-0.2l-0.4,-0.3l-0.2,-0.4l-0.1,-0.5l0.1,-0.5l0.5,-1.1l0.5,-1.6l0.5,-2.2l0.7,-3l0.7,-3.9l0.5,-5.3l0.3,-4l0,-6.6l-0.4,-6l-0.3,-3.7l-1.5,-9.1l-1.6,-6.7l-1.2,-4.2l-1.9,-5.7l-1.6,-4.2l-1.8,-4.4l-1.3,-2.8l-2.1,-4.3l-2.3,-4.2l-1.6,-2.8l-2.6,-4.1l-2.8,-4l-1.9,-2.6l-5.1,-6.4l-4.3,-4.6l-3.4,-3.1l-3.6,-2.8l-2.4,-1.8l-3.8,-2.4l-3.8,-2.1l-2.7,-1.2l-4.1,-1.7l-4.2,-1.4l-5.9,-1.6l-5.9,-0.9l-6,-0.3l-7.5,0.3l-2.9,0.5l-4.4,0.9l-4.4,1.2l-3,1l-4.5,1.7l-4.6,1.9l-6.1,2.9l-6,3.4l-5.9,3.7l-4.3,3.1l-4.2,3.3l-2.7,2.2l-6.7,6l-2.4,2.4l-3.6,3.8l-3.6,4l-4.6,5.5l-4.3,5.5l-4,5.6l-2.7,4.2l-2.5,4.2l-3.8,6.9l-2.1,4.1l-4.3,9.2l-1.9,4.9l-1.3,3.5l-1,3.3l-1.4,5.1l-1,4.6l-0.8,5.2l-0.2,3.8l-0.1,5l0.4,4.2l0.3,1.5l0.5,2.2l1,3l0.8,1.8l1.1,2.5l1.3,2.2l0.1,0.5l0,0.5l-0.1,0.5l-0.3,0.4l-0.5,0.2z" />
   <path  d="m170.9,205.55l0.9,0.4l0.4,0.9l1.9,21.4l1.4,22.3l1,21.7l0.7,22.5l0.3,15.8l0.2,17.1l0,22.9l-0.1,3.1l-0.6,0.8l-0.5,0.2l-0.5,0l-0.4,-0.2l-0.7,-0.8l0,-3.1l-0.1,-22.9l-0.2,-17.1l-0.3,-15.7l-0.7,-22.5l-1,-21.6l-1.3,-22.3l-1.9,-21.4l0.2,-0.9l0.8,-0.6l0.5,0z" />
   <path  d="m185.4,388.65l0.9,0.5l0.4,0.9l0.1,2.2l0.4,2.4l0.6,2.1l1,2.1l1.1,1.8l1.9,2.4l2.6,2.3l3.2,1.9l4.9,2l3.6,1.1l3.4,0.7l0.7,0.7l0.1,0.5l-0.1,0.5l-0.6,0.8l-0.5,0.2l-1.3,-0.1l-2.3,-0.5l-3.9,-1.2l-5.2,-2.1l-3.6,-2.1l-3,-2.6l-2.2,-2.8l-1.3,-2.1l-1.1,-2.4l-0.8,-2.5l-0.5,-2.6l-0.1,-2.6l0.3,-0.9l0.8,-0.6l0.5,0z" />
   <path  d="m46.3,121.65l0.3,-0.3l0.5,-0.3l0.5,0l0.4,0.1l1.1,0.5l1.4,0.4l3.6,0.6l2.4,0.2l3.9,0.1l21.9,-1.5l13.3,-1.2l0.5,0.1l0.5,0.2l0.4,0.3l0.2,0.5l0,0.5l-0.1,0.5l-0.3,0.4l-0.4,0.3l-0.5,0.1l-20.7,1.9l-14.7,0.8l-4.2,-0.1l-2.5,-0.2l-3.9,-0.7l-1.6,-0.5l-1.4,-0.5l-0.4,-0.3l-0.3,-0.4l-0.1,-0.5l0,-0.5l0.2,-0.5z" />
   <path  d="m214.7,53.05l-0.5,0.1l-0.5,-0.1l-1.1,-0.9l-2.2,-0.1l-2.3,0.7l-4.2,1.8l-4.2,2.4l-4.5,3.1l-6.2,4.9l-6.8,6l-6.9,6.9l-6.3,6.9l-4.2,5.3l-4.2,5.7l-4.1,6.2l-2.9,4.7l-4.6,8.2l-2.4,5l-3.7,8.6l-3,9.2l-2,7.5l-1.3,5.5l-1.6,8.9l-0.7,5.3l-0.5,8.4l0.3,8.5l0.7,7.4l1,5.9l0.9,4.6l0.9,3.4l1.2,3.6l0,0.5l-0.3,0.4l-0.3,0.1l-0.4,-0.1l-0.4,-0.4l-1.2,-3.7l-0.9,-3.4l-1,-4.7l-0.9,-6l-0.7,-7.5l-0.3,-8.6l0.5,-8.5l0.7,-5.3l1.6,-9.1l1.3,-5.6l2,-7.5l3,-9.3l3.8,-8.7l2.5,-5.1l4.5,-8.2l3,-4.8l4.1,-6.2l4.2,-5.8l4.3,-5.3l6.3,-7l7,-6.9l6.9,-6.1l6.2,-5l4.6,-3.1l4.4,-2.5l4.3,-1.9l2.5,-0.7l2.8,0l0.4,0.2l1.3,1.1l0.3,0.4l-0.1,0.5l-0.1,0.2z" />
   <path  d="m125.3,350.75l-0.1,0.5l-0.4,0.3l-0.6,0.2l-1.2,-1.1l2.3,0.5l4.7,-0.1l4.6,-0.5l7.3,-1.4l4.1,-1l0.5,0.1l0.3,0.3l0.1,0.2l-0.1,0.5l-0.4,0.3l-4.2,1l-7.4,1.4l-4.6,0.5l-4.9,0.2l-2.6,-0.6l-0.4,-0.2l-0.1,-0.3l0.1,-0.5l0.1,-0.2l2,-0.7l0.5,0l0.3,0.4l0.1,0.2z" />
   <path  d="m198.7,244.45l0.4,0.2l0.1,0.5l-0.1,10.1l0,11.1l0.1,9l0.3,11l0.2,7.2l0.5,7.7l0.7,10.8l0.7,7.3l1.2,10.9l1.6,9.6l1.2,6.3l2.1,8.7l2.2,7.1l0,0.5l-0.4,0.4l-0.7,0l-0.3,-0.4l-2.2,-7.2l-2.1,-8.8l-1.2,-6.3l-1.6,-9.7l-1.3,-10.9l-0.6,-7.4l-0.8,-10.8l-0.4,-7.7l-0.3,-7.3l-0.2,-11l-0.1,-9l0,-11.1l0.1,-10.2l0.2,-0.4l0.4,-0.2l0.3,0z" />
   <path  d="m187.9,318.15l0.5,-0.3l0.4,0.1l1.4,0.6l10,-1.9l0.5,0.1l0.3,0.4l0.1,0.2l-0.2,0.5l-0.4,0.2l-10.3,2l-0.4,-0.1l-1.6,-0.7l-0.3,-0.4l-0.1,-0.5l0.1,-0.2z" />
   <path  d="m188.7,317.25l0.4,0.2l0.2,0.4l1.1,10.6l0.7,8.6l0.4,2.5l2.3,-1.1l6,-1.4l3.8,-1.2l0.4,0.1l0.2,0.2l0.1,0.3l-0.1,0.5l-0.3,0.3l-3.7,1.2l-6,1.4l-3.1,1.6l-0.5,-0.2l-0.3,-0.4l-0.4,-1.7l-0.3,-2l-0.6,-8.6l-1.1,-10.6l0.1,-0.4l0.5,-0.3l0.2,0z" />
   <path  d="m23.3,295.65l0.3,-0.5l0.3,-0.3l0.5,-0.2l0.5,0l1.6,0.2l1.9,0.5l8.7,3.3l4.9,1.4l2.9,0.7l0.5,0.2l0.4,0.4l0.2,0.4l0.1,0.5l-0.1,0.5l-0.3,0.4l-0.4,0.3l-0.5,0.2l-0.5,-0.1l-3,-0.7l-5.1,-1.5l-7,-2.6l-3.4,-1.1l-1.3,-0.2l-0.4,-0.1l-0.4,-0.3l-0.3,-0.4l-0.1,-0.5l0,-0.5z" />
   <path  d="m71.6,390.35l-0.3,-0.4l-0.1,-0.5l0,-0.5l0.2,-0.5l1.1,-1.6l4.2,-3.9l3.2,-2.8l4.2,-3.1l4,-2.4l1.9,-1.1l2.8,-1.4l3.6,-1.4l0.9,-0.3l0.5,0l0.5,0.1l0.4,0.3l0.3,0.4l0.2,0.4l-0.1,0.5l-0.2,0.5l-0.3,0.4l-0.5,0.2l-2.7,1l-4.1,1.9l-1.8,1l-3.8,2.3l-4,3l-3.1,2.6l-3.9,3.8l-0.9,1.2l-0.3,0.4l-0.5,0.2l-0.5,0.1l-0.4,-0.2l-0.5,-0.2z" />
   <path  d="m49.9,309.65l0.5,0.3l0.3,0.4l0.2,0.4l0,0.5l-0.2,1l0.7,7.7l0.8,5.9l1,5.7l1.2,4.5l0.9,3.1l2,5.4l1.9,4.3l0.7,1.4l1.1,1.9l1.2,1.8l1.7,2.1l1.7,1.8l1.9,1.6l1.5,1.1l2.3,1.3l2.6,0.9l2.3,0.6l1.9,0.2l1.5,0.1l1,-0.1l1.9,-0.4l0.5,0.1l0.5,0.3l0.3,0.3l0.2,0.5l0,0.5l-0.2,0.5l-0.3,0.4l-0.7,0.3l-1.7,0.4l-1.4,0.1l-1.8,-0.1l-2.2,-0.3l-2.6,-0.6l-2.9,-1l-1.2,-0.6l-1.6,-1l-1.6,-1.2l-2.1,-1.7l-2,-2.1l-1.8,-2.3l-1.3,-2l-1.2,-2l-1.8,-3.7l-1,-2.3l-2,-5.5l-1,-3.3l-1.2,-4.7l-1,-5.8l-0.8,-6l-0.8,-8.1l0.2,-1.5l0.2,-0.4l0.3,-0.4l0.4,-0.3l0.5,-0.1l0.5,0.1z" />
   <path  d="m78.4,339.35l0.2,-0.5l0.5,-0.4l0.5,-0.2l0.5,0l1.5,0.3l1.4,0.4l1.4,0.1l1.2,-0.1l1.5,-0.5l1,-0.5l1.8,-1.2l1.2,-1l1.1,-1l1,-1.2l0.9,-1.2l0.7,-1.2l0.5,-1.4l0.5,-2.1l0.2,-1.3l0.2,-2l-0.1,-2.2l0.2,-0.5l0.4,-0.4l0.5,-0.2l0.5,-0.1l0.6,0.1l0.4,0.3l0.4,0.5l0.2,1l0,1.4l-0.1,2.4l-0.2,1.5l-0.6,2.5l-0.7,1.8l-0.9,1.6l-1,1.5l-1.2,1.3l-1.3,1.3l-1.4,1.1l-2.1,1.4l-1.5,0.7l-1.9,0.7l-1.8,0.2l-2,-0.2l-1.7,-0.4l-1.3,-0.2l-0.5,-0.2l-0.5,-0.4l-0.2,-0.5l-0.1,-0.5l0.1,-0.5z" />
   <path  d="m79.1,341.45l0.2,-0.4l0.2,-0.4l0.4,-0.2l0.4,-0.1l9.6,-0.1l6.9,-0.4l0.5,0l0.3,0.2l0.3,0.3l0.2,0.4l0.1,0.4l-0.2,0.4l-0.2,0.4l-0.4,0.2l-0.4,0.1l-7,0.5l-9.6,0.1l-0.4,-0.1l-0.4,-0.2l-0.3,-0.3l-0.2,-0.4l0,-0.4z" />
   <path  d="m50.1,123.25l-0.1,0.4l-0.3,0.5l-0.4,0.2l-0.5,0.2l-1,0.1l-0.7,0.6l-0.8,1.3l-1.6,3.2l-1,2.4l-3.1,8.4l-1.8,5.3l-2.4,7.9l-2.9,11.2l-1.9,8.7l-1.1,5.7l-1.6,10l-1,11.6l-0.3,4.7l-0.2,7.3l0,7.4l0.5,10.2l0.6,7.6l0.8,7.4l0.7,4.9l1.2,7.3l1.5,7l1.1,4.6l1.8,6.7l2.1,6.4l1.4,4.1l4.3,9.5l3.6,7l2.7,4.9l2.7,4.4l1.8,2.7l2.7,3.7l2.6,3.2l4.5,4.6l3.9,3.4l3.1,2.2l2.4,1.4l2.7,1.2l0.4,0.3l0.3,0.4l0.2,0.4l0,0.5l-0.2,0.5l-0.3,0.4l-0.5,0.2l-0.5,0.1l-0.5,-0.1l-1,-0.4l-1.9,-0.9l-2.6,-1.5l-3.3,-2.5l-4.1,-3.5l-4.7,-4.7l-2.8,-3.5l-2.7,-3.7l-1.9,-2.9l-2.8,-4.4l-2.8,-5l-3.6,-7.1l-4.3,-9.7l-1.5,-4.3l-2.1,-6.4l-1.9,-6.8l-1.1,-4.7l-1.5,-7.2l-1.3,-7.3l-0.7,-5l-0.8,-7.5l-0.6,-7.7l-0.5,-10.3l0,-7.5l0.2,-7.4l0.3,-4.8l1,-11.6l0.6,-4.3l1,-6l1.1,-5.7l2,-8.9l3,-11.2l2.3,-8l1.9,-5.5l3.1,-8.5l1,-2.4l1.7,-3.5l1.1,-1.6l1.5,-1.4l0.8,-0.4l1.5,-0.1l0.5,0l0.4,0.3l0.4,0.3l0.2,0.5l0,0.5z" />
   <path  d="m69.6,336.05l0.5,-0.5l0.7,0l1.4,0.5l9.3,-2.9l4.7,-1.1l2.6,-0.3l2,-0.1l0.5,0.1l0.3,0.1l0.3,0.7l0,0.3l-0.3,0.6l-0.4,0.2l-2.3,0.1l-2.4,0.3l-4.5,1.1l-9.5,3l-0.7,0l-1.7,-0.6l-0.5,-0.5l-0.1,-0.7l0.1,-0.3z" />
   <path  d="m85.7,326.05l0.5,-0.2l0.6,0l0.5,0.3l0.5,0.3l3.1,3.5l0.7,0.8l0.9,1.2l1,1.6l0.1,0.3l0.2,0.5l0,0.6l-0.2,0.6l-0.4,0.4l-0.5,0.2l-0.6,0.1l-0.6,-0.1l-0.5,-0.3l-0.3,-0.5l-1,-1.6l-0.7,-0.9l-0.6,-0.7l-3.2,-3.6l-0.3,-0.5l-0.1,-0.5l0.1,-0.6l0.3,-0.5l0.5,-0.4z" />
   <path  d="m72.9,338.55l-0.5,0.2l-0.5,-0.1l-0.4,-0.2l-0.4,-0.4l-0.7,-1.1l-0.3,-0.7l0.2,-0.7l0.5,-1.2l0.4,-0.4l0.5,-0.3l0.5,-0.1l0.6,0.2l1.9,1l1.4,1.4l1.5,1.8l1,1.6l1.3,2.3l1,2.2l0.6,1.6l0.7,2.4l1.1,4.7l0.6,4.4l0.2,3.9l0,4.1l-0.2,2.5l-0.4,2.5l-0.7,3.3l-0.7,2.4l-0.8,2.3l-0.6,1.6l-1.9,3.5l-0.9,1.4l-1.5,1.9l-1.5,1.7l-1.2,1.1l-1.8,1.3l-2,1.2l-2.8,0.9l-2.2,0.5l-2.2,0.2l-1.6,0l-2.3,-0.3l-2.4,-0.5l-1.8,-0.7l-4,-2.6l-1.7,-1.2l-2.5,-2.3l-2.5,-2.7l-3.3,-4.2l-2.4,-3.5l-2.2,-3.8l-1.6,-2.7l-2.1,-4.3l-2,-4.6l-1.3,-3.2l-1.7,-4.9l-1.5,-5.1l-1.7,-6.8l-1,-5.1l-0.9,-6.6l-0.6,-8.3l-0.2,-7.1l0.1,-5.6l0.3,-4.4l0.3,-3.1l0.5,-2.8l0.2,-0.5l0.3,-0.4l0.5,-0.2l0.4,-0.1l0.5,0.1l0.5,0.3l0.3,0.3l0.2,0.5l0,0.5l-0.5,2.7l-0.3,3l-0.3,4.2l-0.1,5.5l0.2,7l0.6,8.1l0.9,6.5l1,4.9l1.6,6.7l1.5,4.9l1.6,4.9l1.3,3l1.9,4.5l2.1,4.2l1.5,2.6l2.2,3.6l2.3,3.4l3.1,4.1l2.4,2.5l2.3,2.1l1.5,1.1l3.7,2.4l1.3,0.4l2.1,0.5l2,0.3l1.2,-0.1l1.9,-0.2l1.9,-0.4l2.4,-0.8l1.6,-0.9l1.6,-1.2l0.9,-0.9l1.4,-1.5l1.2,-1.7l0.8,-1.2l1.8,-3.3l1.2,-3.5l0.7,-2.2l0.7,-3.1l0.3,-2.4l0.2,-2.3l0.1,-3.8l-0.3,-3.7l-0.6,-4.2l-1,-4.5l-0.6,-2.2l-0.6,-1.4l-0.9,-2.1l-1.1,-2.1l-1,-1.3l-1.5,-1.9l-0.1,0.1l-0.3,0.5l-0.4,0.2z" />
   <path  d="m67.3,331.25l0.4,0.2l0.4,0.3l0.3,0.4l0.1,0.5l0,1l0.3,1l0.9,2.2l1.4,2.5l1,1.5l1.4,1.6l1.1,1l0.8,0.7l1.6,1l1.6,0.7l1.7,0.5l0.4,0.3l0.3,0.4l0.1,0.5l-0.1,0.5l-0.3,0.4l-0.4,0.4l-0.4,0.1l-1,0l-1.3,-0.4l-1.9,-0.8l-1.8,-1.2l-1.2,-0.9l-1.3,-1.2l-1.5,-1.8l-1.2,-1.7l-0.7,-1.1l-0.9,-1.7l-1,-2.6l-0.4,-1.3l-0.1,-1.5l0.1,-0.5l0.2,-0.4l0.4,-0.4l0.5,-0.1l0.5,-0.1z" />
   <path  d="m69.6,335.85l0.5,-0.2l0.5,0.1l0.4,0.2l0.4,0.3l2.4,3.3l2,3.4l0.2,0.5l0,0.5l-0.2,0.5l-0.3,0.4l-0.5,0.2l-0.5,0.1l-0.5,-0.1l-0.4,-0.3l-1,-1l-0.3,-0.3l-1.1,-2.2l-1,-2.4l-0.3,-1.1l-0.1,-0.5l0.2,-0.5l0.3,-0.4l0.4,-0.3l0.5,-0.1l0.5,0.1l0.4,0.2l1,0.7l0.4,0.4l2,4l-1.1,1.4l-1.2,-2.6l-1.1,-2.1l-0.7,-0.9l2.3,-1.7l0.7,0.9l1.6,1.9l1.6,2.4l1.2,2.2l0.2,0.5l-0.1,0.6l-0.2,0.4l-0.4,0.4l-0.5,0.2l-0.6,0l-0.5,-0.2l-1.2,-0.9l-1.8,-2.1l-3,-3.8l1.5,-2l1.9,3.5l0.6,0.9l-2.1,2l-2.6,-3.1l-0.7,-1l-0.3,-0.5l0,-0.5l0.2,-0.5l0.3,-0.4l0.5,-0.3l0.6,0l0.5,0.1l1.2,0.7l0.7,0.6l0.7,1.5l2.3,5.2l0.2,0.4l-1.4,0.9l0.1,-0.5l0.2,-0.5l0.4,-0.3l0.4,-0.2l0.5,-0.1l0.5,0.2l0.4,0.2l0.4,0.7l0.5,1.3l0.1,0.6l-0.1,1.2l-0.1,0.5l-0.4,0.5l-0.5,0.3l-0.5,0.1l-0.6,-0.2l-0.4,-0.3l-0.8,-0.8l-0.8,-1.4l-0.7,-1.3l-2.4,-5.3l2.6,-1.1l1.1,1.3l0.9,1l0.7,1.3l0.2,0.5l0,0.5l-0.2,0.5l-0.4,0.4l-0.5,0.2l-0.5,0l-0.5,-0.2l-0.4,-0.3l-0.8,-0.9l-0.9,-1.3l-2,-3.5l-0.7,-1.4l-0.5,-1.4l0,-0.5l0.1,-0.5l0.3,-0.4l0.4,-0.3l0.4,-0.2l0.6,0.1l0.4,0.2l0.4,0.3l1.5,2.2l3.4,4.2l-1.9,0.6l-1,-1.5l-1.5,-1.8l-0.8,-1l-0.2,-0.4l-0.1,-0.5l0.1,-0.5l0.3,-0.4l0.4,-0.3l0.5,-0.2l0.5,0l0.4,0.2l0.4,0.4l0.7,0.9l0.7,1.2l1.4,2.6l0.6,1.5l0.5,1.4l0,1.7l-0.1,0.5l-0.3,0.5l-0.5,0.3l-0.6,0.1l-0.5,-0.1l-0.5,-0.3l-0.8,-0.8l-0.9,-1.4l-2.3,-4.5l-0.7,-0.5l2.3,-1.6l0.7,2.1l0.9,2l-2.9,0.2l0,-0.1l-2.3,-3.2l-0.3,-0.4l0,-0.5l0.1,-0.5l0.3,-0.4l0.4,-0.3z" />
   <path  d="m91.2,333.65l-0.1,0.5l-0.3,0.4l-0.4,0.3l-0.5,0.1l-1,0.1l-8.2,2.6l-2.4,0.9l-2.1,1.1l-0.7,0.2l-1.2,0l-0.5,-0.1l-0.5,-0.2l-0.3,-0.5l-0.2,-0.5l0.1,-0.5l0.2,-0.5l0.4,-0.3l0.5,-0.2l1.2,-0.2l14.2,-4.5l0.5,-0.1l0.5,0.1l0.4,0.3l0.3,0.4l0.2,0.4l-0.1,0.5l-0.2,0.5l-0.3,0.4l-1.2,0.8l-1.2,0.7l-1.2,0.6l-2.6,0.8l-9.8,2.8l-0.5,0.1l-0.4,-0.2l-0.4,-0.3l-0.3,-0.4l-0.1,-0.5l0,-0.5l0.2,-0.4l0.4,-0.3l0.4,-0.3l9.8,-2.8l2.2,-0.7l1,-0.5l1,2l-12,3.8l-0.8,-2.6l1.9,-1l2.6,-1l8.4,-2.7l1.6,-0.2l0.5,0.1l0.4,0.2l0.4,0.4l0.2,0.4l0,0.5z" />
   <path  d="m210.7,184.45l0.5,0.1l0.5,0.3l0.3,0.4l0.1,0.4l0.2,1.2l0,0.5l-1,3.3l-1.5,3.7l-1.1,2.3l-0.7,1.2l-1.4,2.1l-2.6,3.4l-1.9,2.3l-1.2,1.3l-0.4,0.3l-0.5,0.2l-0.5,-0.1l-0.5,-0.2l-0.3,-0.3l-0.3,-0.5l0,-0.5l0.1,-0.5l0.3,-0.4l1.2,-1.2l2.9,-3.7l2.7,-3.8l0.6,-1l1,-2.1l1.4,-3.4l0.8,-2.8l-0.1,-0.8l0,-0.5l0.2,-0.5l0.3,-0.4l0.4,-0.2l0.5,-0.1z" />
   <path  d="m365.3,217.25l0.1,0.5l0,0.5l-0.3,0.5l-0.3,0.3l-0.6,0.4l-2.7,9.2l-5.3,21.8l-4.1,15.6l-0.2,0.5l-0.4,0.3l-0.4,0.2l-0.5,0.1l-0.5,-0.2l-0.4,-0.3l-0.3,-0.4l-0.1,-0.5l0,-0.5l4.1,-15.5l5.3,-21.8l3,-9.9l0.5,-0.7l1,-0.7l0.4,-0.2l0.5,0l0.5,0.1l0.4,0.3l0.3,0.4z" />
   <path  d="m351.1,264.75l0.5,0.2l0.4,0.3l0.2,0.4l0.1,0.5l0,5.5l-1.6,22.3l-0.7,13.9l-0.2,13.1l0,12.6l0.4,21.9l0.4,12.3l-0.1,0.5l-0.2,0.4l-0.4,0.4l-0.5,0.2l-0.5,0l-0.4,-0.2l-0.4,-0.3l-0.3,-0.4l-0.1,-0.5l-0.4,-12.3l-0.4,-21.9l0,-12.7l0.2,-13.2l0.7,-14l1.6,-22.3l0.1,-5.2l0,-0.5l0.3,-0.5l0.4,-0.3l0.4,-0.2l0.5,0z" />
   <path  d="m211.9,192.75l-0.1,0.5l-0.3,0.4l-0.3,0.2l-0.4,-1.8l1.2,0.3l7,0.6l8.5,0.3l14,0l9.3,-0.3l13.5,-0.9l14.4,-1.3l15.8,-1.8l11.7,-1.6l12.8,-2l7,-1.3l13.1,-2.7l13.5,-3.2l0.5,-0.1l0.4,0.2l0.4,0.3l0.3,0.4l0.2,0.5l-0.1,0.5l-0.2,0.4l-0.4,0.4l-0.4,0.2l-13.6,3.2l-13.1,2.7l-7.1,1.4l-12.9,2l-11.7,1.6l-15.9,1.8l-14.5,1.3l-13.5,0.9l-9.4,0.3l-14.1,0l-8.6,-0.3l-7.4,-0.7l-1.6,-0.3l-0.6,-0.3l-0.9,-0.7l-0.3,-0.4l-0.2,-0.4l-0.1,-0.5l0.2,-0.5l0.3,-0.4l0.4,-0.3l0.5,-0.1l1.2,-0.1l0.5,0.1l0.5,0.2l0.3,0.3l0.2,0.5l0,0.5z" />
   <path  d="m265,311.05l0.3,-0.3l0.5,-0.1l1.4,0.4l1.3,0.3l2.3,0.2l5,0.2l5.5,-0.2l10.5,-0.8l10,-1l8,-0.9l8.4,-1.2l10.9,-2l0.5,0.1l0.3,0.4l0.1,0.2l-0.2,0.5l-0.4,0.3l-11,1.9l-8.4,1.2l-8.1,0.9l-9.9,1l-10.6,0.8l-5.6,0.2l-5,-0.2l-2.5,-0.2l-1.4,-0.3l-1.5,-0.4l-0.4,-0.3l-0.1,-0.4l0.1,-0.3z" />
   <path  d="m340.9,312.95l0.4,0.3l0.1,0.4l-0.5,2.9l-0.7,11.3l-0.7,9.6l-0.2,0.4l-0.4,0.2l-0.3,0l-0.4,-0.3l-0.1,-0.4l0.7,-9.6l0.7,-11.3l0.4,-3l0.3,-0.4l0.4,-0.2l0.3,0.1z" />
   <path  d="m267.2,310.25l0.5,0.2l0.3,0.4l1,5.8l0.7,6.2l0.2,11.1l0,7.7l-0.1,0.5l-0.5,0.2l-0.2,0l-0.5,-0.3l-0.1,-0.4l0,-7.7l-0.3,-11l-0.6,-6.1l-1.1,-5.8l0.1,-0.4l0.4,-0.4l0.2,0z" />
   <path  d="m275.2,342.75l0.4,-0.2l0.5,0.1l1.1,0.7l1.7,0.6l1.6,0.3l2.8,0.4l2.8,0.2l6.9,-0.1l8.2,-0.6l9,-1l9.1,-1.5l4.4,-0.9l3.4,-0.9l3.1,-1l4.6,-1.7l3.2,-1.5l0.3,0l0.4,0.3l0.1,0.2l0,0.5l-0.3,0.4l-3.1,1.4l-4.7,1.7l-3.2,1.1l-3.4,0.9l-4.6,0.9l-9.1,1.5l-9.1,1l-8.2,0.6l-7,0.1l-2.9,-0.2l-2.9,-0.3l-1.7,-0.4l-2,-0.6l-1.3,-0.9l-0.3,-0.4l0,-0.4l0.2,-0.3z" />
   <path  d="m207.5,197.35l0.5,0l0.5,0.1l0.4,0.3l0.3,0.5l0.4,1l3.2,5.9l2.6,4l5.1,7.1l0.3,0.4l0.1,0.5l-0.1,0.5l-0.3,0.5l-0.4,0.3l-0.5,0.1l-0.5,0l-0.4,-0.2l-0.4,-0.3l-5.3,-7.2l-2.7,-4.2l-3.3,-6.2l-0.5,-1.2l-0.1,-0.5l0.1,-0.5l0.2,-0.4l0.4,-0.3l0.4,-0.2z" />
   <path  d="m218.2,215.75l0.4,-0.2l0.5,-0.2l0.5,0.1l0.5,0.2l0.9,0.7l1.2,0.6l2.2,0.8l2.7,0.7l5.4,1.1l6.7,1.1l6.2,0.7l3.4,0.3l10.6,0.8l11.5,0.5l13.7,0.3l13.1,-0.2l12.9,-0.4l9.4,-0.5l4.6,-0.3l7.4,-0.7l4.4,-0.5l7.3,-1.1l6.2,-1l8.7,-1.7l5.1,-1.1l0.5,-0.1l0.5,0.2l0.4,0.2l0.3,0.5l0.1,0.4l-0.1,0.5l-0.2,0.5l-0.3,0.3l-0.5,0.3l-5.2,1.2l-8.8,1.6l-6.3,1.1l-7.4,1l-4.4,0.5l-7.5,0.8l-4.6,0.3l-9.5,0.5l-12.9,0.4l-13.1,0.1l-13.9,-0.2l-11.6,-0.5l-10.6,-0.8l-3.5,-0.3l-6.2,-0.8l-6.9,-1l-5.5,-1.2l-2.9,-0.7l-2.5,-0.9l-1.5,-0.8l-1.2,-0.9l-0.4,-0.3l-0.2,-0.5l0,-0.5l0.1,-0.5l0.3,-0.4z" />
   <path  d="m337.5,183.45l0.2,0.5l-0.1,0.5l-0.2,0.4l-0.3,0.4l-1.2,0.8l-1.8,1.8l-1.1,1.3l-2.6,3.3l-2.6,4.2l-1.9,3.5l-3,6.2l-0.5,1.3l-0.3,0.4l-0.4,0.3l-0.5,0.2l-0.5,-0.1l-0.4,-0.1l-0.4,-0.4l-0.2,-0.4l-0.1,-0.5l0.1,-0.5l0.5,-1.3l3.1,-6.4l2,-3.6l2.8,-4.4l2.6,-3.5l1.2,-1.4l2.1,-2.1l1.4,-1l0.4,-0.2l0.5,0l0.5,0.1l0.4,0.3l0.3,0.4z" />
   <path  d="m320.5,208.05l0.5,0l0.5,0.1l0.4,0.2l0.3,0.4l0.6,1l0.9,1.1l1.9,1.9l2.6,2.3l2.7,1.9l3.7,2.1l2.4,1l0.5,0.2l0.3,0.4l0.2,0.5l0,0.5l-0.2,0.5l-0.3,0.3l-0.5,0.3l-0.5,0.1l-0.5,-0.1l-0.9,-0.4l-2.9,-1.3l-2.8,-1.6l-1.4,-0.9l-1.5,-1.2l-2.9,-2.5l-2,-2.1l-1.1,-1.3l-0.8,-1.3l-0.1,-0.5l0,-0.5l0.1,-0.4l0.4,-0.4l0.4,-0.3z" />
   <path  d="m99.3,388.85l0.5,0.1l0.4,0.3l0.3,0.4l0.2,0.4l0.3,2l0.7,2.2l0.7,1.8l2.3,4.3l1.6,2.6l2.6,3.7l1.1,1.3l3.4,3.5l3.7,3.1l2.9,2l1.5,0.9l2.7,1.2l1.6,0.6l2.9,0.8l2.5,0.6l3.8,0.5l1.2,0.1l1.4,-0.1l0.5,0.1l0.5,0.2l0.3,0.4l0.2,0.5l0,0.5l-0.2,0.4l-0.3,0.4l-0.4,0.3l-0.5,0.1l-1.5,0.1l-3.2,-0.3l-2.3,-0.4l-2.7,-0.6l-3.1,-0.9l-1.7,-0.6l-2.9,-1.3l-1.7,-1l-3.2,-2.1l-3.9,-3.4l-3.6,-3.7l-1.2,-1.4l-2.8,-3.9l-1.7,-2.7l-2.4,-4.5l-0.8,-2l-0.8,-2.6l-0.4,-2.3l0,-0.5l0.2,-0.4l0.4,-0.4l0.4,-0.2l0.5,-0.1z" />
   <path  d="m97.4,210.85l0.5,0.2l0.3,0.3l0.3,0.4l0.1,0.4l-0.2,16.9l-0.5,21.9l-0.2,16.6l0.2,20.1l0.2,16.5l0.3,13.9l0.3,16.7l0.3,14.5l0.3,12.6l0.4,18.3l0.3,12.1l-0.1,0.5l-0.2,0.4l-0.4,0.3l-0.4,0.2l-0.5,0l-0.5,-0.2l-0.3,-0.3l-0.3,-0.4l-0.1,-0.4l-0.2,-12.1l-0.4,-18.3l-0.3,-12.7l-0.3,-14.5l-0.2,-8.3l-0.3,-14l-0.2,-16.6l-0.3,-21.2l0,-13.7l0.2,-15.4l0.4,-16.6l0.2,-16.7l0.1,-0.5l0.2,-0.4l0.4,-0.3l0.4,-0.2l0.5,0z" />
   <path  d="m141.5,70.75l-0.1,0.5l-0.4,0.4l-0.4,0.3l-0.5,0.1l-1.7,0.1l-1.3,0.5l-2.9,1.6l-3.2,2.3l-2.8,2.3l-4.3,3.9l-1.8,1.8l-3.3,3.7l-4.1,5.1l-3.5,4.8l-2,3.2l-2.1,3.3l-2,3.6l-3.1,6.9l-1.8,4.3l-1.6,4.4l-1.5,4.5l-0.9,3.1l-1.1,4.8l-1,4.8l-0.7,4.9l-0.7,8.4l-0.2,5l-0.1,5l0.1,4.7l0.6,8l0.8,6.7l0.8,5.4l0.8,4.1l0.6,2.9l0.7,2.5l0.1,0.5l-0.1,0.6l-0.3,0.4l-0.5,0.3l-0.5,0.2l-0.5,-0.1l-0.5,-0.2l-0.4,-0.4l-0.3,-0.4l-0.7,-2.7l-0.7,-3l-0.8,-4.1l-0.8,-5.5l-0.8,-6.9l-0.6,-8.1l-0.1,-4.9l0.1,-5l0.2,-5.2l0.7,-8.6l0.8,-5l1,-5l1.1,-4.9l1,-3.1l1.4,-4.7l1.7,-4.5l1.8,-4.5l3.2,-6.9l2.1,-3.8l2.1,-3.5l2.2,-3.3l3.5,-4.9l4.3,-5.2l3.3,-3.8l1.9,-1.9l4.4,-4.1l3,-2.3l3.4,-2.5l1.9,-1.1l1.4,-0.7l1.7,-0.7l0.5,-0.1l1.9,-0.1l0.6,0.1l0.4,0.2l0.4,0.4l0.2,0.5l0,0.6z" />
   <path  d="m127.8,222.25l0.1,-0.4l0.4,-0.3l1.5,-0.5l9.3,-1.2l0.5,0.1l0.3,0.4l0,0.3l-0.2,0.4l-0.4,0.2l-9.2,1.2l-1.4,0.4l-0.5,0l-0.3,-0.3l-0.1,-0.3z" />
   <path  d="m142.3,221.15l-0.2,0.5l-0.4,0.2l-1.4,0.1l-1.5,0.3l-2.9,1l-2.8,1.1l-0.3,-0.1l-0.4,-0.3l-0.1,-0.2l0.1,-0.5l0.4,-0.3l2.6,-1.1l3,-1l1.6,-0.3l1.6,-0.1l0.4,0.1l0.3,0.4l0,0.2z" />
   <path  d="m130.1,225.05l0.2,-0.4l0.4,-0.2l8.7,-0.9l0.5,0.1l0.2,0.4l0.1,0.3l-0.2,0.4l-0.5,0.2l-8.6,0.9l-0.5,-0.1l-0.3,-0.4l0,-0.3z" />
   <path  d="m136.1,231.55l0.4,0.2l0.1,0.5l-0.6,10.1l-0.2,9.5l-0.1,9.8l0.1,7.9l0.1,8.4l0.1,9.1l0.1,9.4l0.1,8.9l0,12.4l-0.1,6.7l-0.1,9.3l-0.1,5.2l-0.2,0.5l-0.4,0.2l-0.2,0l-0.5,-0.2l-0.1,-0.5l0.1,-5.2l0.1,-9.3l0,-19.1l-0.1,-8.9l-0.1,-9.4l-0.1,-9.1l-0.1,-8.4l0,-7.9l0.1,-9.8l0.2,-9.6l0.6,-10.1l0.2,-0.5l0.4,-0.2l0.3,0.1z" />
   <path  d="m124.8,347.05l0.2,-0.4l0.4,-0.3l3.1,-0.4l5.5,-0.3l10.2,0.1l2.8,0.1l0.5,0.2l0.2,0.4l0,0.3l-0.3,0.4l-0.4,0.2l-2.8,-0.1l-10.2,-0.1l-5.4,0.3l-3,0.4l-0.4,-0.1l-0.3,-0.4l-0.1,-0.3z" />
   <path  d="m136,70.35l0.2,-0.5l0.3,-0.4l0.4,-0.2l0.5,-0.1l3.1,-0.1l13.8,-1.1l19.6,-2.3l20.1,-2.8l21,-3.4l22,-3.9l15.7,-2.9l0.5,-0.1l0.4,0.2l0.4,0.3l0.3,0.4l0.1,0.5l-0.1,0.5l-0.2,0.5l-0.4,0.3l-0.5,0.2l-15.6,3l-22.1,3.9l-21.1,3.3l-20.1,2.9l-19.7,2.3l-13.9,1l-3.2,0.1l-0.5,0l-0.5,-0.3l-0.3,-0.3l-0.2,-0.5l0,-0.5z" />
   <path  d="m127.7,422.05l0.1,-0.5l0.4,-0.3l1.3,-0.4l10,-1.5l11,-1.2l10.5,-0.9l11.3,-1l11.1,-1.1l7.5,-0.8l10,-1.2l3.5,-0.5l0.4,0.1l0.4,0.4l0,0.2l-0.2,0.5l-0.4,0.2l-3.5,0.5l-10.1,1.2l-7.4,0.9l-11.1,1l-11.4,1l-10.4,1l-11,1.1l-9.9,1.5l-1.1,0.4l-0.5,-0.1l-0.4,-0.3l-0.1,-0.2z" />
   <path  d="m121.4,420.45l0.1,-0.5l0.4,-0.3l1.4,-0.5l8.6,-2l10.2,-1.9l10.3,-1.6l8.7,-1.1l8.7,-1.1l11.5,-1.2l7.4,-0.7l9.9,-1l3.3,-0.3l0.5,0.2l0.3,0.4l0,0.2l-0.2,0.5l-0.5,0.2l-3.3,0.3l-9.8,0.9l-7.5,0.8l-11.4,1.2l-8.8,1l-8.6,1.2l-10.3,1.5l-10.1,1.9l-8.5,2l-1.3,0.5l-0.5,0l-0.4,-0.3l-0.1,-0.3z" />
   <path  d="m114.5,415.25l0.1,-0.5l0.4,-0.2l9.8,-2.3l9.3,-1.7l9.6,-1.4l8.4,-1.1l8.9,-1.1l9,-0.9l10.8,-1l11.5,-1.1l1.2,-0.1l0.4,0.3l0.1,0.2l0,0.3l-0.2,0.4l-0.2,0.2l-1.2,0.1l-11.5,1.1l-10.7,1l-6,0.7l-8.9,0.9l-11.4,1.5l-9.5,1.5l-9.3,1.6l-9.7,2.2l-0.5,0l-0.4,-0.3l0,-0.3z" />
   <path  d="m107.5,406.75l0.1,-0.5l0.4,-0.3l1.2,-0.4l3.3,-0.8l11,-1.9l9.2,-1.4l11,-1.4l5.8,-0.7l6.2,-0.8l10.7,-1.3l11.1,-1.3l1,-0.1l0.2,0.1l0.3,0.4l0,0.2l-0.2,0.5l-0.2,0.1l-0.9,0.2l-11.1,1.3l-10.7,1.4l-9.1,1.1l-11.2,1.4l-9.8,1.4l-10.9,1.8l-5.3,1.2l-1.1,0.4l-0.5,0l-0.4,-0.4l-0.1,-0.2z" />
   <path  d="m100,392.95l0.2,-0.5l0.4,-0.2l11,-1.9l10.7,-1.7l8.3,-1.3l10.9,-1.9l10.3,-1.8l3.3,-0.5l0.5,0l0.3,0.4l0,0.3l-0.1,0.4l-0.5,0.3l-3.2,0.6l-10.4,1.8l-10.8,1.8l-8.4,1.4l-10.7,1.6l-11,1.9l-0.4,-0.1l-0.4,-0.4l0,-0.2z" />
   <path  d="m97.6,377.65l0.2,-0.4l0.5,-0.2l10.4,-1.5l10.1,-1.3l9,-1.2l10.8,-1.3l1.9,-0.2l0.4,0.2l0.1,0.3l0.1,0.2l-0.2,0.5l-0.2,0.1l-1.9,0.3l-10.9,1.4l-8.9,1.1l-10.1,1.4l-10.5,1.4l-0.5,-0.1l-0.2,-0.4l-0.1,-0.3z" />
   <path  d="m349.8,369.15l0.5,0.1l0.5,0.2l0.3,0.4l0.2,0.4l0.3,1.6l0.2,1.7l0.1,3.4l-0.3,2.7l-0.3,2.1l-0.4,2.1l-0.7,2.3l-0.7,2.3l-1,2.4l-1.2,2.5l-2.1,3.6l-1.7,2.3l-2,2.3l-2.2,2.1l-2.4,2l-2.7,1.8l-2.6,1.4l-2.5,1.1l-3.8,1.4l-2.3,0.7l-1.3,0.2l-0.5,-0.2l-0.3,-0.3l-0.3,-0.5l-0.1,-0.4l0.1,-0.5l0.2,-0.5l0.4,-0.3l3.3,-0.9l1.5,-0.6l4.3,-1.8l2.5,-1.3l1.2,-0.8l2.4,-1.7l2.1,-1.9l1.8,-2l2.5,-3.2l2,-3.4l1.1,-2.3l0.9,-2.2l0.7,-2.1l0.6,-2.2l0.7,-3.9l0.2,-2.5l-0.1,-3l-0.1,-1.5l-0.3,-1.4l0,-0.5l0.1,-0.5l0.3,-0.4l0.5,-0.2l0.4,-0.1z" />
   <path  d="m94.6,197.15l0.4,-0.1l0.5,0l0.5,0.2l0.3,0.4l0.7,1l0.8,0.9l2.5,2.4l0.4,0.4l0.1,0.4l0,0.5l-0.1,0.5l-0.3,0.4l-0.5,0.3l-0.5,0.1l-0.5,-0.1l-0.4,-0.3l-1.6,-1.4l-1.2,-1.2l-1,-1.1l-0.8,-1.2l-0.2,-0.5l0,-0.5l0.1,-0.4l0.3,-0.5l0.5,-0.2z" />
   <path  d="m94.7,196.35l-0.3,0.3l-0.5,0.3l-0.4,0.1l-0.5,-0.1l-0.7,-0.2l-0.3,0.1l-0.2,0.3l-0.2,0.8l0,1.1l0.2,1l0.4,1.2l0.5,1.3l0.7,1.5l0.9,1.6l1,1.6l1.2,1.6l1.2,1.5l2.3,2.4l2.7,2.3l0.4,0.4l0.2,0.4l0,0.5l-0.2,0.5l-0.3,0.4l-0.4,0.3l-0.5,0.1l-0.5,0l-0.4,-0.3l-0.6,-0.4l-2.4,-2.1l-2.4,-2.6l-1.4,-1.6l-1.2,-1.7l-1.2,-1.8l-1,-1.8l-0.7,-1.6l-0.6,-1.6l-0.5,-1.4l-0.2,-1.2l-0.1,-1.6l0.3,-1.7l0.2,-0.6l0.7,-0.9l0.8,-0.6l1.2,-0.3l0.9,0l1.1,0.4l0.4,0.2l0.3,0.4l0.2,0.5l0,0.5l-0.1,0.5z" />
   <path  d="m50.7,133.05l0.4,-0.4l0.4,-0.3l0.5,-0.1l0.5,0.1l1.7,0.6l1.3,0.8l1.5,1.2l1.9,1.6l3.6,3.8l4.2,4.9l4.8,5.9l5.2,7l3.4,4.9l5.9,9l6.6,10.8l0.2,0.5l0,0.5l-0.2,0.5l-0.3,0.4l-0.5,0.2l-0.5,0.1l-0.5,-0.1l-0.4,-0.2l-0.3,-0.4l-6.6,-10.7l-5.8,-8.9l-3.4,-4.9l-5.1,-6.9l-4.7,-5.9l-4.2,-4.7l-3.5,-3.6l-1.7,-1.5l-1.4,-1.1l-0.9,-0.6l-1.2,-0.4l-0.5,-0.2l-0.3,-0.4l-0.2,-0.5l0,-0.5l0.1,-0.5z" />
   <path  d="m76.2,167.35l-0.4,-0.4l-0.1,-0.4l0,-0.6l3,0.1l-4.6,13.1l-2.3,7.4l-2.6,9.7l-2,8.4l-0.6,2.9l-0.8,4.8l-0.7,5l-0.6,5.3l-0.6,9.8l-0.1,6.1l0.1,6.1l0.3,6.3l0.2,4.1l0.7,6.3l0.9,6.3l1.1,6.1l2.4,10.3l1.6,5.9l1.7,5.7l1.7,5.4l3.2,8.6l2.9,7.2l2.4,5.5l2,4l1.5,2.8l1.1,1.9l0.2,0.5l0,0.5l-0.2,0.5l-0.3,0.4l-0.4,0.2l-0.5,0.1l-0.5,-0.1l-0.4,-0.2l-0.4,-0.4l-1.1,-1.9l-1.5,-2.9l-2.1,-4.2l-2.5,-5.6l-2.9,-7.2l-3.2,-8.8l-1.8,-5.4l-1.7,-5.8l-1.6,-6l-2.4,-10.3l-1.2,-6.4l-0.8,-6.3l-0.7,-6.4l-0.3,-4.3l-0.3,-6.3l-0.1,-6.2l0.1,-6.2l0.6,-9.9l0.6,-5.5l0.8,-5l0.8,-4.9l0.6,-3l2,-8.5l2.6,-9.8l2.4,-7.5l4.2,-12.3l0.5,-1.1l0.8,-1.3l0.3,-0.4l0.4,-0.3l0.4,-0.1l0.5,0.1l0.4,0.2l0.4,0.3l0.2,0.4l0.1,0.5l-0.1,0.5l-0.5,1l-0.7,1.3l-0.3,0.3l-0.4,0.3l-0.5,0.1l-0.5,-0.1l-0.4,-0.3z" />
  </g>
  
  <g id="buck_panel_3" fill="var(--outline-color, #000)">

   <path d="m476.31,229.67l-18.69,3.58l27.15,0.79l-8.46,-4.37z" 
   fill="var(--outline-color, #000)"/>
   <path d="m445.58,218.28c-16.65,-2.52 -32.77,-2.78 -46.77,-0.4c4.28,5.65 8.83,10.38 15.23,14.17c6.41,-6.05 17.98,-11.3 31.54,-13.77z" 
   fill="var(--outline-color, #000)" />
   <path d="m469.64,346.99c6.03,28.05 18.03,21.99 23.07,-8.25l-1.83,-6.05c-10.09,-44.6 -25.37,-44.8 -29.96,-16.79l-22.85,-63.25c-16.69,-2.22 -44.79,-16.33 -5.88,-30.75c10.11,0.37 24.12,4.43 26.23,10.1l-0.81,1.12l27.48,1.66l26.82,10.93c5.24,1.54 13.68,3.68 17.22,1.32c5.77,30.95 12.99,50.06 8.61,91.39l-17.34,73.48l-10.05,-0.66c-18.21,-3.75 -34.01,-22.24 -57.05,-12.22l16.33,-52.02z" 
   fill="var(--cup-color, #eee)" />
   <path d="m397.37,218.01l25.28,-10.6l8.08,-26.23c19.34,-1.28 49.27,3.97 63.97,8.48c15.5,-8.34 70.2,-14.44 70.33,-3.58l1.85,23.31l21.32,6.09c-11.61,10.38 -36.34,25.92 -61.06,31.92c-42.51,-3.44 -63.17,-40.26 -129.78,-29.4z" 
   fill="url(#dots)"/>
   <path d="m462.96,321.22l0.21,-17.66l6.41,-7.3l4.8,0.36l3.56,3.74l5.34,8.9l4.8,9.79l3.38,13.17l1.48,6.41l-2.37,10.5l-3.02,10.14l-7.3,6.41l-5.16,-2.31l-6.94,-21.35l-5.19,-20.77z" 
   fill="url(#green_dots)"/>

   <path  d="m492.5,331.15l0.3,0.4l0.1,0.5l0,0.5l-0.2,0.4l-0.5,0.6l0,0.6l0.4,1.2l0.5,0.9l0.7,0.8l0.3,0.5l0.1,0.5l-0.1,0.5l-0.3,0.4l-0.3,0.3l-0.5,0.2l-0.5,0l-0.5,-0.2l-0.4,-0.3l-0.7,-0.9l-0.9,-1.3l-0.6,-1.9l-0.1,-0.5l0.1,-1.3l0.2,-0.8l0.7,-0.9l0.3,-0.4l0.5,-0.2l0.5,0l0.5,0.1l0.4,0.3z" />
   <path  d="m460.1,407.45l-0.1,0.5l-0.2,0.4l-0.4,0.4l-0.5,0.2l-1.2,0.2l-0.9,-0.1l-1.4,-0.7l-1.1,-0.9l-1.1,-1.3l-0.8,-1.4l-0.5,-1.7l0,-0.4l0.1,-1.5l0.3,-1.3l0.2,-0.4l1,-1.4l1.4,-1.2l1.4,-0.9l1.7,-0.7l1.6,-0.5l2.9,-0.5l2.5,-0.2l2.6,0l3.8,0.5l4,0.9l3.1,0.8l5.6,2l7.1,3l5.5,2.5l7.6,3l5.6,1.9l0.4,0.3l0.3,0.3l0.2,0.5l0.1,0.5l-0.2,0.5l-0.3,0.4l-0.4,0.2l-0.5,0.2l-0.5,-0.1l-5.7,-2l-7.7,-3l-5.6,-2.5l-7,-3l-5.4,-1.9l-2.9,-0.8l-3.8,-0.9l-3.5,-0.4l-2.3,0l-2.2,0.2l-2.7,0.4l-1.3,0.4l-1.3,0.6l-1,0.6l-1,0.9l-0.6,0.8l-0.2,0.9l0,0.7l0.4,1.4l0.4,0.7l0.8,0.9l0.7,0.5l0.5,0.3l0.7,-0.2l0.5,0l0.5,0.2l0.4,0.3l0.2,0.4l0.2,0.5z" />
   <path  d="m436.7,251.95l0.5,-0.1l0.5,0l0.4,0.3l0.4,0.3l2.2,3.9l1.9,4l4.8,11.5l5.3,14.8l6.5,19.3l5.6,17.6l4.9,16l0.1,0.5l-0.2,0.5l-0.2,0.4l-0.4,0.3l-0.5,0.2l-0.5,0l-0.5,-0.2l-0.4,-0.4l-0.2,-0.4l-4.9,-16l-5.5,-17.6l-6.5,-19.3l-5.3,-14.6l-4.7,-11.4l-1.9,-3.9l-2.1,-3.6l-0.2,-0.5l0,-0.5l0.1,-0.5l0.4,-0.4l0.4,-0.2z" />
   <path  d="m555.9,234.95l0.5,0.1l0.4,0.2l0.3,0.4l0.1,0.5l1.3,11.6l1,14.2l1.1,22.6l0.6,21.7l0.4,20.4l0.1,8.9l-0.1,0.5l-0.3,0.4l-0.3,0.3l-0.5,0.2l-0.5,0l-0.5,-0.2l-0.4,-0.3l-0.2,-0.4l-0.1,-0.5l-0.1,-8.8l-0.4,-20.5l-0.6,-21.6l-1.1,-22.5l-1,-14.1l-1.2,-11.5l0,-0.5l0.2,-0.5l0.3,-0.3l0.5,-0.3l0.5,0z" />
   <path  d="m561.2,332.75l0.5,0.2l0.3,0.5l0.2,0.5l0,0.6l-4,23.3l-4.1,23.1l-3.8,22.9l-1.2,8.2l-0.2,0.5l-0.3,0.4l-0.5,0.3l-0.5,0.1l-0.6,0l-0.5,-0.3l-0.3,-0.4l-0.3,-0.5l0,-0.6l1.3,-8.2l3.7,-22.9l4.1,-23.1l4.1,-23.4l0.2,-0.5l0.3,-0.4l0.5,-0.3l0.5,-0.1l0.6,0.1z" />
   <path  d="m462.3,343.25l0,-0.5l0.2,-0.4l0.4,-0.4l0.4,-0.2l4.2,-1.3l21.7,-8.8l9.8,-4l2.4,-1.2l0.5,-0.1l0.5,0l0.5,0.2l0.4,0.4l0.2,0.5l0,0.5l-0.1,0.5l-0.3,0.4l-0.4,0.3l-2.5,1.2l-9.9,4.1l-21.8,8.7l-4.4,1.4l-0.5,0.1l-0.5,-0.2l-0.4,-0.3l-0.3,-0.4l-0.1,-0.5z" />
   <path  d="m469.4,342.55l0,0.3l-1.5,-1.3l12.5,-2.8l9.4,-1.4l7.3,-0.7l5.1,-0.2l4.7,0.1l5.1,0.4l5.5,0.9l1.8,0.4l0.5,0.2l0.3,0.4l0.2,0.4l0.1,0.5l-0.2,0.5l-0.3,0.4l-0.4,0.3l-0.5,0.1l-0.5,0l-1.6,-0.4l-5.2,-0.9l-4.9,-0.3l-4.6,-0.1l-5,0.2l-7.1,0.7l-9.2,1.4l-10.3,2.2l-2.1,0.5l-1.6,0.3l-0.5,0l-0.5,-0.2l-0.4,-0.3l-0.2,-0.5l0,-0.6l0.1,-0.5l0.3,-0.4l0.5,-0.3l1.3,-0.4l0.5,-0.1l0.5,0.1l0.4,0.2l0.3,0.4l0.2,0.5z" />
   <path  d="m469.6,342.25l0.5,0.2l0.4,0.3l0.2,0.5l0.1,0.4l0,1.3l0.2,2l0.7,3.7l0.7,3.2l0.7,2l1.1,2.5l0.6,1.2l1.1,1.6l0.8,1.1l0.9,0.7l1,0.6l1.4,0.1l1.5,-0.4l1,-0.5l1.3,-1.1l1,-1.1l1.3,-2.2l1,-2.1l0.7,-2l1,-3.6l0.7,-4l0.3,-0.4l0.4,-0.3l0.5,-0.2l0.5,0.1l0.4,0.2l0.4,0.3l0.2,0.5l0,0.5l-0.6,3.9l-1,3.8l-0.8,2.3l-1.1,2.3l-1.6,2.5l-1.3,1.5l-1.6,1.4l-1.5,0.8l-2.1,0.7l-0.6,0l-2,-0.2l-0.5,-0.2l-1.4,-0.7l-1.4,-1.2l-1.1,-1.3l-1.2,-1.9l-0.8,-1.3l-1.2,-2.9l-0.7,-2.1l-0.9,-3.5l-0.6,-3.9l-0.3,-2.1l0,-1.6l0.1,-0.5l0.3,-0.4l0.4,-0.3l0.4,-0.2l0.5,0z" />
   <path  d="m524.4,247.02l0.1,-0.51l0.3,-0.41l0.4,-0.31l0.5,-0.1l1.31,-0.1l2.71,-0.71l6.94,-2.14l4.83,-1.94l13.98,-6.13l7.04,-3.37l5.13,-2.76l3.32,-1.94l4.32,-2.76l6.64,-4.6l5.63,-4.29l0.4,-0.31l0.5,-0.1l0.5,0.1l0.4,0.31l0.3,0.41l0.2,0.41l0,0.51l-0.2,0.51l-0.3,0.41l-5.73,4.39l-6.74,4.7l-4.42,2.76l-3.42,2.04l-5.23,2.86l-7.04,3.47l-14.18,6.13l-7.54,2.86l-4.52,1.33l-3.12,0.71l-1.51,0.1l-0.5,0l-0.4,-0.2l-0.4,-0.41l-0.2,-0.41l0,-0.51z" />
   <path  d="m529.7,250.25l0.4,0.2l0.3,0.4l2.5,10.3l2.2,10.9l1.5,9.5l1,7l0.9,8.4l0.7,9l0.3,5.2l0.1,7.6l-0.2,4.3l-0.5,6.3l-0.7,4.4l-0.2,0.4l-0.5,0.1l-0.2,0l-0.4,-0.3l-0.1,-0.5l0.7,-4.2l0.5,-6.3l0.1,-4.3l-0.1,-7.4l-0.2,-5.2l-0.8,-9l-0.9,-8.3l-0.9,-7l-1.5,-9.5l-2.2,-10.8l-2.5,-10.3l0.1,-0.5l0.3,-0.3l0.3,-0.1z" />
   <path  d="m530.6,334.95l0.5,-0.1l0.4,0.3l0.6,0.7l1.5,0.2l2.5,0l6.4,-0.5l1.5,0l1.6,0.1l1.2,0.5l0.2,0.2l0.2,0.2l0,0.3l-0.1,0.3l-0.7,1.1l-0.2,0.3l-1.2,0.6l-1.1,0.5l-1.1,0.4l-1.3,0.2l-1.3,0.1l-6.4,-0.2l-2.6,0l-0.9,0.1l-0.4,-0.5l7.8,0.6l3.2,0.4l2.8,0.7l1.2,0.5l0.2,0.2l1,1.1l0,0.5l-0.1,0.2l-0.2,0.2l-1.1,0.5l-0.5,-0.1l-0.2,-0.2l-0.1,-0.2l0,-0.5l0.1,-0.2l0.3,-0.2l-0.1,0l-1,-0.4l-2.6,-0.6l-3.1,-0.5l-6.6,-0.5l-1.5,-0.2l-1.4,-0.7l-0.1,-0.2l-0.1,-0.2l0,-0.3l0.2,-0.2l0.1,-0.2l1.6,-0.3l1.4,-0.2l2.7,-0.1l6.3,0.3l1.3,-0.1l1,-0.2l2,-0.8l0.9,-0.5l0.1,-0.2l-0.2,-0.1l-1.2,-0.1l-1.4,0.1l-6.4,0.4l-2.7,0l-1.9,-0.2l-0.5,-0.3l-0.7,-0.9l-0.2,-0.5l0.2,-0.5l0.2,-0.1z" />
   <path  d="m536.3,346.35l0.4,0.3l0,0.5l-2.9,11l-2.5,10.1l-1.8,7.9l-2.5,10.1l-1.4,5.8l-0.3,0.4l-0.4,0.2l-0.3,-0.1l-0.3,-0.3l-0.1,-0.5l1.4,-5.8l2.5,-10.1l1.8,-7.9l2.5,-10.2l2.9,-11l0.3,-0.4l0.5,-0.1l0.2,0.1z" />
   <path  d="m465.9,344.25l0.4,-0.3l0.5,0l0.5,0.1l0.4,0.3l0.8,0.9l0.4,0.7l0.3,1.5l0,2l-0.4,4l-1.1,5.5l-1.9,7.8l-1.7,5.8l-3.9,12.7l-5.7,16.1l-0.3,0.5l-0.4,0.3l-0.5,0.1l-0.5,0l-0.4,-0.1l-0.4,-0.4l-0.2,-0.4l-0.1,-0.5l0.1,-0.5l5.6,-16l4,-12.6l1.6,-5.8l1.9,-7.7l1,-5.2l0.4,-3.8l0,-1.7l-0.1,-0.6l-0.5,-0.5l-0.3,-0.5l-0.1,-0.4l0,-0.5l0.2,-0.5l0.4,-0.3z" />
   <path  d="m397.7,216.45l0.5,-0.1l0.5,0l0.5,0.3l0.3,0.3l1.4,2l2.5,2.9l2.2,2.1l2.6,2l2.8,1.9l4.2,2.2l0.4,0.3l0.3,0.4l0.1,0.5l0,0.5l-0.3,0.5l-0.3,0.3l-0.5,0.2l-0.5,0.1l-0.5,-0.2l-2,-1l-3.7,-2.2l-3,-2.1l-2.6,-2.3l-1.2,-1.2l-2.8,-3.1l-1.5,-2.2l-0.2,-0.5l0,-0.5l0.1,-0.4l0.3,-0.4l0.4,-0.3z" />
   <path  d="m431.7,181.05l0.3,0.3l0.2,0.5l0,0.5l-0.1,0.4l-0.8,1.8l-2,5.1l-5.3,19.4l-0.1,0.5l-0.4,0.3l-0.4,0.2l-0.5,0.1l-0.5,-0.1l-0.4,-0.3l-0.3,-0.4l-0.1,-0.4l0,-0.5l5.4,-19.6l2,-5.4l0.9,-1.9l0.3,-0.4l0.4,-0.3l0.5,-0.1l0.5,0.1l0.4,0.2z" />
   <path  d="m395.9,216.61l0,-0.55l0.32,-0.55l0.42,-0.33l0.53,-0.11l1.16,-0.22l21.49,-7.48l1.79,-0.77l0.53,-0.11l0.53,0.11l0.53,0.33l0.32,0.33l0.21,0.55l0,0.55l-0.21,0.55l-0.32,0.44l-0.42,0.22l-1.9,0.77l-21.8,7.59l-1.47,0.22l-0.53,0l-0.42,-0.22l-0.42,-0.33l-0.32,-0.44l0,-0.55z" />
   <path  d="m425.3,209.85l0.2,-0.5l0.4,-0.2l1.8,-0.3l11.2,0.3l9.4,0.8l8.8,1.3l7.5,1.5l5.7,1.5l5.7,1.9l9.3,3.7l10.6,4.7l3.4,1.5l5.2,1.8l5.2,1.6l3.4,0.7l3.3,0.5l3.4,0.2l3.4,0l3.5,-0.3l3.5,-0.5l3.7,-0.9l3.8,-1.1l3.8,-1.5l3.9,-1.7l1.9,-0.9l3.7,-2l6,-3.6l4.8,-3.3l0.9,-0.7l0.5,-0.2l0.5,0.2l0.1,0.2l0.1,0.6l-0.3,0.4l-0.8,0.7l-5,3.3l-6.1,3.7l-3.7,2.1l-3.9,1.8l-3.9,1.6l-4,1.4l-3.8,1l-3.7,0.7l-3.7,0.4l-3.5,0.2l-3.5,-0.1l-3.5,-0.4l-3.4,-0.6l-3.5,-0.9l-3.6,-1.1l-5.2,-1.9l-10.6,-4.6l-11,-4.6l-7.4,-2.5l-5.6,-1.5l-7.4,-1.5l-7.1,-1.1l-10.9,-0.9l-11.1,-0.4l-1.5,0.3l-0.5,-0.1l-0.3,-0.4l-0.1,-0.3z" />
   <path  d="m402.3,220.65l-0.3,0.4l-0.4,0.3l-0.4,0.2l-0.5,0l-1.2,-0.2l-0.5,-0.2l-0.4,-0.3l-0.2,-0.5l-0.1,-0.5l0.1,-1.2l0.2,-0.5l0.3,-0.5l0.5,-0.2l1.5,-0.5l4.8,-1l9.7,-1l5.6,-0.3l7.7,-0.1l6,0.3l6,0.6l4.2,0.7l3.2,0.7l5.8,1.7l5.7,2l15.4,7l18.6,9l7.7,3.4l6,2.2l6.2,1.6l5.5,1.2l7.4,0.9l1.3,0.1l0.5,0.1l0.5,0.3l0.3,0.4l0.1,0.5l0,0.5l-0.2,0.5l-0.4,0.3l-0.4,0.3l-0.5,0l-1.4,-0.1l-7.6,-1l-5.8,-1.2l-6.3,-1.7l-6.2,-2.2l-7.9,-3.5l-18.7,-9l-15.1,-6.9l-5.6,-2l-5.7,-1.6l-2.9,-0.7l-4.1,-0.6l-5.8,-0.6l-5.8,-0.3l-7.6,0.1l-5.5,0.3l-9.4,1l-3.9,0.7l0,0.1l0.1,0.5l-0.1,0.5z" />
   <path  d="m452.9,219.65l-0.3,0.4l-0.4,0.4l-0.4,0.1l-0.5,0l-1.4,-0.3l-2.7,0.1l-4,0.5l-1.8,0.2l-4.2,0.9l-6.3,1.7l-1.3,0.5l-3.8,1.6l-2.8,1.3l-2.1,1.3l-1.2,0.8l-1.8,1.4l-0.9,0.9l-0.8,0.9l-1,1.8l-0.4,1l-0.3,1l-0.2,1l0,1.7l0.2,0.9l0.4,0.9l1.2,1.6l1,1l1.1,1l2.3,1.5l1.7,0.9l1.8,0.8l2.1,0.7l4.4,1l2.8,0.5l3.1,0.5l5.3,0.6l7,0.5l3.7,0.1l10.8,0l10.8,-0.5l7.9,-0.6l3.9,-0.4l6.3,-0.9l6.2,-1l5.3,-1l7.3,-1.6l4,-1.1l0.5,0l0.5,0.1l0.4,0.3l0.3,0.4l0.1,0.5l0,0.5l-0.2,0.4l-0.4,0.4l-0.4,0.2l-4.1,1.1l-7.4,1.6l-5.4,1l-6.3,1.1l-6.3,0.9l-4,0.4l-8,0.6l-11,0.4l-10.8,0.1l-3.8,-0.1l-7.1,-0.5l-5.5,-0.6l-3.1,-0.5l-3,-0.6l-4.5,-1l-2.3,-0.8l-2.1,-0.9l-1.9,-0.9l-1.1,-0.7l-1.5,-1.1l-1.4,-1.1l-1.1,-1.2l-1.5,-2.1l-0.7,-1.5l-0.3,-1.3l-0.1,-2.3l0.3,-1.5l0.4,-1.3l0.5,-1.4l1.2,-2l1.1,-1.3l1,-1.1l2.1,-1.6l1.3,-0.9l2.3,-1.4l2.9,-1.5l4,-1.6l3,-1l5,-1.3l4.3,-0.9l2,-0.3l5.8,-0.6l1.5,0l1.7,0.4l0.5,0.2l0.4,0.3l0.2,0.4l0.1,0.5l-0.1,0.5z" />
   <path  d="m452.18,230.05l0.48,-0.2l0.48,0l0.38,0.1l0.38,0.3l0.67,0.7l2.11,0.7l3.07,0.7l3.36,0.4l6.34,0.5l5.28,0.1l7.69,-0.3l2.02,-0.2l0.48,0l0.48,0.2l0.29,0.4l0.19,0.4l0.1,0.5l-0.1,0.5l-0.29,0.4l-0.38,0.3l-0.48,0.2l-2.11,0.2l-7.88,0.3l-5.38,-0.1l-7.78,-0.6l-3.84,-0.7l-2.98,-0.8l-1.44,-0.5l-0.48,-0.4l-0.86,-0.9l-0.29,-0.4l-0.1,-0.5l0,-0.5l0.19,-0.5l0.38,-0.3z" />
   <path  d="m456.55,233.85l-0.09,-0.47l0.09,-0.47l0.19,-0.47l0.37,-0.28l1.21,-0.66l1.4,-0.47l2.61,-0.75l2.89,-0.66l1.77,-0.28l4.29,-0.38l3.36,-0.09l1.68,0l0.75,0.09l0.47,0.09l0.37,0.28l0.28,0.38l0.09,0.47l0,0.47l-0.19,0.47l-0.37,0.28l-0.37,0.19l-0.47,0.09l-2.24,-0.09l-3.26,0l-4.01,0.47l-1.68,0.28l-3.82,0.85l-2.52,0.75l-0.84,0.57l-0.47,0.19l-0.47,0l-0.47,-0.19l-0.28,-0.28l-0.28,-0.38z"  transform="matrix(1 0 0 1 0 0)"/>
   <path  d="m562,188.95l0.2,0.4l-0.2,0.4l-0.9,1l-1.6,1.3l-2.4,1.4l-4.7,2.3l-5.1,2l-6.1,2.1l-9.1,2.7l-6.1,1.6l-0.5,0l-0.3,-0.3l0,-0.2l0.1,-0.4l0.4,-0.3l6,-1.6l9.1,-2.6l6.1,-2.1l5,-2.1l4.6,-2.2l2.3,-1.4l1.5,-1.2l0.8,-0.8l0.4,-0.2l0.4,0.1l0.1,0.1z" />
   <path  d="m565.9,185.25l0.5,0.3l0.3,0.4l0.2,0.4l0,0.5l-0.4,2.7l-0.1,2.8l0,3.2l0.3,3.7l1.8,12l0,0.5l-0.1,0.5l-0.4,0.4l-0.4,0.2l-0.5,0.1l-0.5,-0.1l-0.4,-0.2l-0.3,-0.4l-0.2,-0.5l-1.9,-12.1l-0.3,-3.9l0,-3.4l0.2,-3l0.3,-2.9l0.2,-0.5l0.3,-0.4l0.4,-0.2l0.5,-0.1l0.5,0z" />
   <path  d="m464.8,327.75l-0.5,0l-0.5,-0.2l-0.4,-0.3l-0.3,-0.4l-0.5,-1.4l-0.9,-2.9l-0.6,-3l-0.2,-1.5l-0.2,-2l0,-2.9l0.1,-2.3l0.2,-1.9l0.5,-2.3l0.8,-3l0.9,-2.1l0.9,-1.7l1.3,-1.8l2,-1.8l1.7,-0.9l1.3,-0.3l1.9,0l0.6,0.1l2.5,1.1l1.8,1.4l1,0.9l1.5,1.7l1.9,2.4l2.3,4l2.2,4.2l2.1,4.9l1.6,4.2l1.5,4.8l1.2,4.6l0.2,1.1l0,0.5l-0.2,0.5l-0.3,0.3l-0.4,0.3l-0.5,0.1l-0.5,-0.1l-0.4,-0.2l-0.4,-0.4l-0.2,-0.5l-0.2,-1.1l-1.1,-4.4l-1.4,-4.6l-1.6,-4.1l-2,-4.7l-2.1,-4.1l-2.2,-3.7l-1.7,-2.2l-1.4,-1.5l-0.7,-0.7l-1.6,-1.1l-1.8,-0.8l-1.1,-0.1l-0.8,0.3l-1.2,0.6l-1.4,1.3l-1,1.4l-0.7,1.4l-0.8,1.9l-0.7,2.6l-0.4,2.1l-0.2,1.7l-0.1,2.1l0,2.7l0.4,3.2l0.5,2.7l0.8,2.7l0.5,1.2l0.1,0.5l0,0.5l-0.3,0.4l-0.3,0.4l-0.5,0.2z" />
   <path  d="m494.1,190.95l0.3,-0.4l0.4,-0.1l1.2,0.2l2.5,0.7l4.9,2l5.6,2.8l4.8,2.8l4.3,3l2.9,2.2l0.8,0.7l1.9,1.9l1.5,1.8l0.8,1l0.1,0.3l0,0.4l-0.2,0.2l-0.2,0.1l-0.2,0.1l-0.4,-0.2l-0.9,-1.2l-1.4,-1.7l-1.9,-1.7l-3.5,-2.9l-4.3,-2.9l-4.7,-2.8l-5.6,-2.8l-4.7,-1.9l-2.4,-0.7l-1,-0.1l-0.4,-0.2l-0.2,-0.4l0,-0.2z" />
   <path  d="m514.4,200.65l0,-0.5l0.3,-0.4l1.2,-0.5l0.4,-0.1l1.4,0.3l2.6,1l2.6,1.1l2.9,1.6l2.9,1.7l2.5,1.8l1.4,1.2l1.3,1.2l0.7,0.8l0.2,0.5l-0.2,0.4l-0.2,0.2l-0.4,0.1l-0.3,-0.1l-2,-2l-1.4,-1.1l-2.4,-1.8l-2.8,-1.7l-2.8,-1.5l-2.6,-1.1l-2.4,-0.9l-1,-0.2l-0.9,0.4l-0.5,0.1l-0.4,-0.3l-0.1,-0.2z" />
   <path  d="m497.3,190.15l-0.2,0.4l-0.3,0.4l-0.5,0.2l-0.5,0.1l-1.4,0l-0.5,-0.2l-0.5,-0.3l-0.3,-0.4l-0.1,-0.5l0.1,-0.5l0.2,-0.5l0.9,-1.2l0.7,-0.4l5.8,-2l6,-1.7l5.9,-1.4l9.4,-1.7l7.1,-1l5.4,-0.5l7.1,-0.4l4.9,-0.1l2.4,0.1l5.5,0.4l2.9,0.5l3,0.8l1.5,0.5l2.4,1.4l1.2,1.1l0.9,1.4l0.3,0.8l0,1.1l-0.1,0.6l-0.4,0.5l-0.5,0.3l-0.8,0.3l-0.5,0l-0.5,-0.1l-0.4,-0.2l-0.3,-0.4l-0.2,-0.5l0.1,-0.5l0.1,-0.5l0.4,-0.3l0.1,-0.1l-0.5,-0.7l-0.7,-0.6l-1.9,-1l-2.3,-0.7l-4.2,-0.8l-5.3,-0.4l-2.2,-0.1l-4.8,0.1l-7,0.4l-5.3,0.5l-7,1l-9.3,1.6l-5.7,1.4l-5.9,1.6l-5.3,1.8l-0.7,-1.4l0.4,0l0.5,0.1l0.5,0.3l0.3,0.4l0.1,0.5l0,0.5z" />
   <path  d="m430.3,183.35l-0.3,-0.4l-0.1,-0.5l0.1,-0.5l0.2,-0.5l0.8,-1l0.8,-0.6l1.5,-0.3l1.5,-0.2l5.4,-0.2l5.8,0l7.6,0.6l6.1,0.7l7.2,1.1l12.6,2.7l6,1.6l8.9,2.7l1.5,0.6l0.4,0.2l0.3,0.4l0.2,0.5l0,0.5l-0.2,0.4l-0.3,0.4l-0.5,0.3l-0.5,0.1l-0.4,-0.1l-4.8,-1.6l-7.3,-2.2l-10,-2.3l-8.8,-1.7l-8.4,-1.2l-7.9,-0.7l-6.1,-0.2l-6.5,0.3l-2.2,0.4l-0.4,0.6l-0.4,0.3l-0.4,0.2l-0.5,0l-0.5,-0.1l-0.4,-0.3z" />
   <path  d="m566.21,207.35l0.4,-0.2l0.5,-0.1l0.5,0.1l0.4,0.3l0.81,0.7l1.11,0.7l1.31,0.6l2.72,1.1l3.63,1.1l3.22,0.8l6.35,1.2l1.81,0.2l0.5,0.1l0.4,0.3l0.3,0.5l0.1,0.5l-0.1,0.5l-0.2,0.4l-0.4,0.3l-0.4,0.2l-0.5,0.1l-2.01,-0.3l-6.45,-1.2l-3.42,-0.8l-3.73,-1.2l-2.92,-1.1l-1.51,-0.8l-1.41,-0.8l-1.11,-1l-0.3,-0.4l-0.2,-0.5l0,-0.5l0.2,-0.4l0.4,-0.4z"  transform="matrix(1 0 0 1 0 0)"/>
  </g>

 </defs>

 <use href="#packi_panel_3"/>
 <use href="#buck_panel_3"/>

</svg>