<svg xmlns="http://www.w3.org/2000/svg">

 <g>

  <g id="packi_panel_2" >
   <g fill="url(#dots)">
    <path d="m75.25,200.37c-21.08,-37.12 30.83,-142.25 98.75,-156.37c40,10.33 43.59,70.96 19.59,156.29c32.32,91.85 73.08,123.38 113.41,166.71c5.76,5.64 26.56,33.08 6,53l-211.41,13.81c-10.39,-7.38 -19.59,-16.88 -26.81,-30.48c1.92,-30.26 3.23,-73.13 -0.19,-117.4c-8.31,-26.65 -16.62,-50.33 -22.39,-85.03l23.05,-0.53zm99.51,121.66c-22.28,-0.88 -45.87,2.2 -66.83,-2.65l14.54,29.07c22.03,2.5 44.05,1.91 67.4,-1.76l-15.11,-24.66z" />
    <path d="m273.35,243.72c16.72,-27.11 38.56,-57.21 66.82,-71.07c-13.82,-2.42 -33.62,-1.85 -47.86,4.27l-14.1,39.74l-3.42,12.82l-2.14,4.7l0.71,9.53z" />
    <path d="m310.05,211.13c5.62,-9.27 15.95,-17.68 25.84,-26.52c4.99,52.28 12.54,108.83 -2.99,159.4l-9.4,17.52l-12.39,8.97l-5.13,-5.98l11.54,-18.38l4.27,-12.82c8.48,-36.03 7.98,-91.3 -11.74,-122.2z" />
    <path d="m364.59,314.34l24.72,-12.63c10.68,22.22 6.41,64.1 -28.21,78.21c9.28,-12.88 19.84,-38.16 3.48,-65.58z" />
   </g>
   <path d="m74.45,284.85l0.5,0.1l0.4,0.3l0.3,0.4l0.1,0.5l0.9,9.3l0.6,10l0.4,8.7l0.3,19l0,19.6l-0.2,17.4l-0.5,12.1l-1.2,20.7l-0.2,0.5l-0.2,0.4l-0.4,0.3l-0.5,0.1l-0.5,0l-0.5,-0.3l-0.3,-0.3l-0.3,-0.5l0,-0.5l1.2,-20.5l0.5,-12.1l0.2,-17.3l0,-19.6l-0.3,-19l-0.3,-8.6l-0.7,-9.8l-0.9,-9.4l0.1,-0.5l0.2,-0.4l0.3,-0.4l0.5,-0.2l0.5,0z" />
   <path d="m74.25,402.35l0.5,-0.1l0.4,0.1l0.5,0.3l0.3,0.3l3.3,5.6l5.4,7.6l2.3,2.8l2.4,2.8l2.5,2.5l1.3,1.1l1.6,1.2l3,2.1l3.4,1.8l0.3,0.4l0.1,0.5l0,0.5l-0.2,0.5l-0.3,0.4l-0.5,0.2l-0.5,0l-0.5,-0.1l-0.5,-0.2l-2.8,-1.6l-3.2,-2.1l-1.7,-1.3l-1.4,-1.2l-2.7,-2.7l-2.5,-2.9l-2.3,-2.9l-5.6,-7.9l-3.4,-5.6l-0.2,-0.5l0,-0.5l0.2,-0.5l0.3,-0.3l0.5,-0.3z" />
   <path d="m72.35,194.05l-0.5,0l-0.4,-0.2l-0.4,-0.3l-0.3,-0.4l-0.5,-1.6l-0.4,-1.9l-0.4,-2.9l-0.3,-5.2l0.2,-6.7l0.4,-5l0.6,-3.9l0.8,-4.2l1.9,-8.1l1.7,-6.1l2.6,-7.6l2.6,-6.7l1.8,-4.1l2.7,-5.6l4.3,-8.3l4,-6.8l4.3,-6.8l2.8,-4l4.8,-6.6l3,-3.8l3.1,-3.8l4.4,-4.8l3.2,-3.5l5.5,-5.4l3.3,-3.1l5.5,-4.7l3.3,-2.6l5.6,-3.9l3.3,-2l3.4,-1.9l4.3,-2.1l3.3,-1.3l5.2,-1.8l3,-0.8l3,-0.5l2,-0.3l2.9,-0.1l2.9,0.1l3.7,0.6l3.6,1.2l3.4,1.6l2.5,1.5l2.3,1.7l1.6,1.3l2.1,2.1l2.1,2.4l1.3,1.8l1.8,2.9l1.7,3.2l2,4.8l1.8,5.3l1.4,5.8l0.9,4.4l1.3,7.7l0.5,4.8l0.5,8.2l0.1,5l-0.1,5.1l-0.3,6.8l-0.6,6.9l-0.8,6.8l-1.4,8.9l-1.3,7.7l-1.3,6.3l-1.9,8.4l-1,3.7l-0.2,0.4l-0.4,0.4l-0.5,0.2l-0.5,0l-0.4,-0.1l-0.4,-0.3l-0.3,-0.4l-0.1,-0.5l0,-0.5l1,-3.6l1.9,-8.3l1.2,-6.2l1.4,-7.7l1.3,-8.8l0.8,-6.7l0.6,-6.8l0.3,-6.7l0.1,-5l-0.1,-5l-0.5,-8l-0.5,-4.7l-1.2,-7.4l-0.9,-4.4l-1.4,-5.6l-1.7,-5.1l-1.9,-4.6l-1.6,-3l-1.7,-2.7l-1.2,-1.6l-1.9,-2.3l-2,-1.9l-1.4,-1.2l-2.1,-1.5l-2.3,-1.4l-3.2,-1.5l-3.2,-1l-3.3,-0.5l-2.6,-0.1l-2.6,0.1l-1.8,0.2l-2.8,0.5l-2.9,0.8l-4.9,1.7l-3.1,1.3l-4.3,2l-3.1,1.8l-3.3,2l-5.4,3.8l-3.2,2.5l-5.4,4.6l-3.2,3l-5.4,5.3l-3.2,3.4l-4.3,4.8l-3.1,3.7l-3,3.8l-4.7,6.4l-2.7,4l-4.2,6.7l-4,6.7l-4.2,8.2l-2.7,5.5l-1.8,4l-2.5,6.6l-2.6,7.5l-1.7,5.9l-1.8,8l-0.8,4.1l-0.5,3.7l-0.5,4.9l-0.1,6.5l0.3,4.9l0.3,2.8l0.4,1.6l0.4,1.3l0.1,0.5l-0.1,0.5l-0.2,0.4l-0.4,0.3l-0.5,0.2z" />
   <path d="m185.25,38.35l0.4,-0.3l0.5,0l0.5,0.1l0.4,0.3l2.9,2.9l5.2,4.3l5.1,3.9l3.8,2.6l9.2,5.5l7,3.6l7.8,3.4l6.3,2.4l4.4,1.5l6.1,1.9l10,2.7l9.5,2.2l0.5,0.2l0.3,0.3l0.3,0.5l0.1,0.5l-0.1,0.4l-0.3,0.5l-0.4,0.3l-0.4,0.2l-0.5,-0.1l-9.7,-2.2l-10.1,-2.8l-6.1,-1.8l-4.5,-1.6l-6.5,-2.4l-7.9,-3.5l-7.2,-3.7l-9.3,-5.6l-4,-2.7l-5.2,-3.9l-5.3,-4.5l-3,-2.9l-0.3,-0.5l-0.1,-0.4l0,-0.5l0.2,-0.5l0.4,-0.3z" />
   <path d="m52.65,200.75l0.2,-0.5l0.3,-0.3l0.4,-0.3l0.5,-0.1l21,-0.5l12.2,-0.2l10.3,0.2l6.8,0.3l8.6,0.7l10.1,1.2l7.1,1.1l8.2,1.6l6.6,1.6l3.7,1.1l4.9,1.5l6.1,2.3l5.1,2l4.1,1.8l5.2,2.6l1.9,1l0.3,0.3l0.3,0.4l0.1,0.5l-0.1,0.5l-0.2,0.4l-0.4,0.3l-0.5,0.2l-0.5,0l-0.4,-0.2l-3.9,-2.1l-7,-3.1l-5,-2.1l-6.1,-2.2l-4.7,-1.5l-3.7,-1l-6.4,-1.6l-8.1,-1.6l-6.9,-1.1l-10.1,-1.1l-8.5,-0.7l-6.7,-0.3l-10.2,-0.2l-12.1,0.2l-21.1,0.5l-0.5,-0.1l-0.4,-0.2l-0.3,-0.4l-0.2,-0.4l0,-0.5z" />
   <path d="m53.45,202.85l0.5,0.1l0.4,0.2l0.3,0.4l0.2,0.5l1.5,9l4.8,20.6l3.3,13.1l4.3,15.1l3.7,12.2l6.8,20.6l5.3,15.6l6.5,17.8l6.8,17.8l0.1,0.5l-0.1,0.5l-0.3,0.4l-0.3,0.4l-0.5,0.1l-0.5,0.1l-0.5,-0.2l-0.4,-0.3l-0.2,-0.4l-6.8,-17.9l-6.5,-17.9l-5.4,-15.6l-6.7,-20.7l-3.8,-12.2l-4.2,-15.2l-3.4,-13.1l-4.8,-20.8l-1.6,-9.1l0,-0.5l0.2,-0.5l0.3,-0.3l0.5,-0.3l0.5,0z" />
   <path d="m178.25,209.25l0.4,0.3l0.2,0.4l0.2,0.5l-0.1,0.5l-0.5,1.6l-1.2,5l-0.7,5.2l-0.8,9.1l-0.1,3.1l-0.1,0.5l-0.2,0.4l-0.4,0.4l-0.5,0.1l-0.5,0l-0.5,-0.2l-0.4,-0.3l-0.2,-0.4l-0.1,-0.5l0.6,-9.7l0.7,-6.1l0.8,-4.2l0.8,-3.2l0.5,-1.7l0.3,-0.4l0.4,-0.4l0.4,-0.2l0.5,0l0.5,0.2z" />
   <path d="m279.75,77.95l0.5,-0.1l0.5,0l0.4,0.2l0.4,0.3l1,1.4l1.6,3l2.8,7.1l2.5,7.6l1.6,5.8l1.9,7.8l1.2,5.9l1.7,10.2l0.8,8.2l0.4,7.1l0,4.4l-0.2,5.8l-0.3,4.4l-0.7,7.2l-0.6,4.2l-1.2,6.9l-0.9,4l-1.6,6.3l-2.3,7.2l-3,7.5l-2.2,4.9l-2.4,4.7l-2.3,3.8l-1.9,2.9l-2.6,3.8l-1,1.1l-0.4,0.3l-0.5,0.2l-0.5,0l-0.4,-0.2l-0.4,-0.3l-0.3,-0.5l0,-1l0.3,-0.4l0.9,-1.1l2.6,-3.5l1.8,-2.9l2.2,-3.7l2.3,-4.5l2.2,-4.7l2.9,-7.4l2.2,-7l1.6,-6.2l0.9,-3.9l1.2,-6.7l0.6,-4.2l0.7,-7l0.2,-4.3l0.2,-5.8l0,-4.2l-0.3,-7l-0.8,-8l-1,-6.4l-1.2,-6l-2.6,-11.2l-1.6,-5.7l-2.4,-7.4l-2.8,-6.9l-1.4,-2.7l-0.8,-1.1l-0.2,-0.5l-0.1,-0.5l0.1,-0.4l0.3,-0.5l0.4,-0.3z" />
   <path d="m279.85,215.35l0.3,0.4l0.1,0.5l-0.1,0.5l-0.2,0.4l-11.8,17l-11.4,15.8l-8,10.4l-0.4,0.3l-0.4,0.2l-0.5,0.1l-0.5,-0.2l-0.4,-0.3l-0.3,-0.4l-0.1,-0.5l0.1,-0.5l0.2,-0.5l7.9,-10.4l11.5,-15.7l11.8,-17l0.3,-0.3l0.5,-0.2l0.5,0l0.5,0.1l0.4,0.3z" />
   <path d="m276.25,226.95l0.4,0.3l0.2,0.5l0,0.5l-0.2,0.5l-3.9,8l-5.2,12.5l-2.1,5.9l-2.3,8.3l-2.5,10.9l-0.2,0.5l-0.3,0.4l-0.5,0.2l-0.5,0.1l-0.5,-0.1l-0.4,-0.2l-0.3,-0.4l-0.2,-0.5l0,-0.5l2.6,-11.1l2.4,-8.4l2.1,-6.1l5.3,-12.6l4,-8.2l0.3,-0.4l0.4,-0.3l0.5,-0.1l0.5,0l0.4,0.3z" />
   <path d="m273.25,232.65l0.5,0.2l0.4,0.3l0.3,0.5l0,2.6l0.3,6.6l0.9,8l0.9,6.6l3.1,17l3,13.4l3.8,14.7l3.3,11.5l4.4,13.5l3.1,9.1l5.1,13.3l3.5,8l3.1,6.6l2.7,5.2l3.5,6.6l1.3,2.1l0.2,0.4l0,0.6l-0.2,0.5l-0.3,0.4l-0.4,0.2l-0.5,0.1l-0.6,0l-0.4,-0.3l-0.4,-0.4l-1.2,-2l-3.7,-6.8l-2.6,-5.2l-3.2,-6.7l-3.5,-8.1l-5.2,-13.5l-3.2,-9.2l-4.3,-13.5l-3.4,-11.6l-3.8,-14.8l-3,-13.5l-3.1,-17.1l-1,-6.7l-0.9,-8.2l-0.3,-6.7l0,-2.3l0.1,-0.5l0.3,-0.5l0.4,-0.3l0.5,-0.2l0.5,0.1z" />
   <path d="m195.95,204.75l0.5,0.1l0.4,0.3l0.3,0.4l0.2,0.5l0.5,3.2l0.8,2.9l1.7,5.7l2.6,7.1l2.4,5.9l5,11.1l4.8,9.5l4.8,8.4l3,5.2l7.9,12.2l5.6,8.3l9.1,12.3l6.5,8.1l4.1,4.8l3.9,4.3l3.6,3.9l4.4,4.4l3.6,3.3l4.8,4.1l1.5,1.2l0.3,0.4l0.2,0.4l0,0.5l-0.1,0.5l-0.3,0.4l-0.5,0.3l-0.4,0.1l-0.5,-0.1l-0.5,-0.2l-1.5,-1.2l-4.9,-4.2l-3.7,-3.4l-4.4,-4.5l-3.7,-3.9l-3.9,-4.4l-4.2,-4.8l-6.6,-8.2l-9.1,-12.4l-5.7,-8.4l-7.9,-12.3l-3.1,-5.3l-4.8,-8.5l-4.9,-9.5l-5.1,-11.3l-2.4,-5.9l-2.6,-7.3l-1.8,-5.9l-0.8,-2.9l-0.6,-3.5l0,-0.5l0.2,-0.5l0.3,-0.3l0.5,-0.3l0.5,-0.1z" />
   <path d="m235.15,69.75l0.5,-0.2l0.5,0.1l1.5,1.1l1.2,1.2l2.2,2.7l1.1,1.6l2.1,3.6l0.9,1.9l1.6,3.5l1.6,4.2l1.9,6.1l1.2,4.7l1.1,5.1l1.7,9.8l1,7.2l0.8,8.8l0.2,7.4l0,4.5l-0.2,5.8l-0.8,8.4l-0.3,2.8l-0.6,4l-1.4,6.3l-2,6.5l-2.1,5.6l-2,4.5l-1.6,3.4l-1.4,2.5l-1.7,2.7l-0.4,0.3l-0.5,0l-0.2,-0.1l-0.3,-0.5l0.2,-0.5l1.7,-2.6l1.3,-2.5l1.6,-3.4l1.9,-4.4l2.1,-5.5l2,-6.4l1.3,-6.2l0.7,-3.9l0.3,-2.7l0.7,-8.4l0.3,-5.8l0,-4.4l-0.3,-7.3l-0.7,-8.7l-1,-7.2l-1.7,-9.7l-1.1,-5.1l-1.2,-4.6l-1.9,-6l-1.6,-4.1l-1.5,-3.5l-1.8,-3.4l-2.2,-3.5l-2.1,-2.6l-1.1,-1l-1.4,-1l-0.2,-0.4l0,-0.5l0.1,-0.2z" />
   <path d="m237.85,217.55l0.3,0.4l-0.1,0.5l-0.6,1.3l-0.3,4l0.1,5.5l0.4,5.6l0.9,6.6l1.3,5.7l1.1,4.2l1.4,4.3l2.8,7.9l2.3,5.5l4,8.4l3,5.3l2.8,4.6l4.4,6.6l3.3,4.4l0.2,0.5l-0.2,0.4l-0.2,0.2l-0.5,0.1l-0.4,-0.3l-3.4,-4.4l-4.4,-6.7l-2.8,-4.6l-3.1,-5.5l-4,-8.4l-2.3,-5.6l-2.9,-7.9l-1.4,-4.4l-1.1,-4.2l-1.3,-5.8l-0.9,-6.8l-0.4,-5.6l-0.1,-5.6l0.3,-4.3l0.8,-1.6l0.3,-0.4l0.5,0l0.2,0.1z" />
   <path d="m174.35,320.55l0.5,0l0.4,0.3l5.8,9l5.8,9.5l4.3,7.2l0.1,0.5l-0.2,0.4l-0.3,0.1l-0.5,0l-0.3,-0.3l-4.3,-7.1l-5.8,-9.6l-5.8,-8.9l-0.1,-0.5l0.2,-0.5l0.2,-0.1z" />
   <path d="m107.95,318.45l0.4,0.1l0.3,0.4l1.5,4.5l2.3,5.3l2.9,6l2.7,4.7l4.3,6.5l1.1,1.7l0,0.2l-0.2,0.5l-0.2,0.1l-0.5,0.1l-0.4,-0.3l-3.9,-5.9l-3.4,-5.5l-2.1,-4.1l-2.6,-5.7l-2.5,-6.5l-0.4,-1.2l0.1,-0.5l0.3,-0.3l0.3,-0.1z" />
   <path d="m121.95,347.55l0.3,-0.4l0.5,0l1.1,0.1l4.3,1l2.2,0.4l5.6,0.6l10.9,0.5l8.6,0l5.7,-0.3l10.6,-0.8l5.6,-0.7l11.3,-1.9l0.8,-0.2l0.4,0.3l0.1,0.2l0.1,0.2l-0.2,0.5l-0.2,0.1l-1.9,0.5l-10.2,1.7l-5.7,0.7l-10.6,0.9l-5.8,0.2l-8.6,0.1l-11.1,-0.5l-5.6,-0.7l-2.2,-0.4l-3.1,-0.6l-2.4,-0.5l-0.4,-0.3l-0.2,-0.4l0.1,-0.3z" />
   <path d="m94.15,365.35l0.4,0.3l0.1,0.5l-0.3,1.5l-0.4,5.9l0.2,7.7l0.5,5.4l0.9,5.1l0.5,2.1l0.9,3.4l0.7,2l1.3,3.2l0.9,1.8l1.3,2.2l1.5,2.1l2.7,3.2l1.2,1.1l2.2,1.8l1.9,1.4l1.5,1l2.1,1.1l1.1,0.4l0.3,0.4l0,0.3l-0.1,0.2l-0.4,0.3l-0.5,0l-0.9,-0.3l-2.3,-1.1l-1.6,-1.1l-2,-1.4l-2.3,-1.9l-1.2,-1.2l-2.9,-3.3l-1.5,-2.2l-1.4,-2.3l-0.9,-1.9l-1.3,-3.3l-0.7,-2l-1,-3.6l-0.5,-2.1l-0.9,-5.2l-0.4,-2.8l-0.3,-4.6l0,-5.9l0.3,-6.1l0.3,-1.6l0.3,-0.4l0.5,-0.2l0.2,0.1z" />
   <path d="m84.55,414.95l0.2,-0.4l0.4,-0.3l10.4,-1.2l10.2,-1.3l10.9,-1.3l10.4,-1.3l2.8,-0.3l0.2,0.1l0.3,0.4l0,0.3l-0.2,0.4l-0.2,0.2l-2.7,0.3l-10.5,1.3l-10.8,1.4l-10.3,1.2l-10.3,1.3l-0.5,-0.2l-0.3,-0.3l0,-0.3z" />
   <path d="m87.95,420.95l0.2,-0.4l0.4,-0.3l10.4,-1.8l8.1,-1.2l10.6,-1.4l8.5,-1.1l10.3,-1.2l2.4,-0.2l0.3,0.1l0.2,0.4l0.1,0.2l-0.2,0.5l-0.2,0.1l-2.4,0.3l-10.3,1.2l-8.5,1.1l-10.6,1.5l-8.1,1.2l-10.3,1.7l-0.5,-0.1l-0.3,-0.3l-0.1,-0.3z" />
   <path d="m90.85,425.05l0.3,-0.5l0.4,-0.1l1.8,-0.1l10.9,-1.4l11.3,-1.4l10.9,-1.3l10.8,-1l0.5,0.1l0.2,0.4l0.1,0.3l-0.2,0.4l-0.5,0.2l-10.8,1.1l-10.8,1.2l-11.3,1.5l-11,1.3l-1.8,0.1l-0.5,-0.1l-0.3,-0.5l0,-0.2z" />
   <path d="m97.55,428.45l0.1,-0.5l0.4,-0.3l1.9,-0.4l5.7,-0.7l11.4,-0.9l10.6,-0.8l10.8,-0.9l9,-0.9l0.5,0.1l0.3,0.5l0,0.2l-0.2,0.4l-0.4,0.3l-9.1,0.8l-10.8,0.9l-10.6,0.8l-11.3,1l-5.7,0.6l-1.7,0.4l-0.5,0l-0.4,-0.4l0,-0.2z" />
   <path d="m290.75,177.65l0,-0.5l0.2,-0.5l0.3,-0.4l0.4,-0.2l3.9,-1.4l7.4,-2l6.7,-1.4l5.7,-0.9l7.3,-0.5l5.2,0.1l6,0.5l5.3,1.1l0.5,0.2l0.3,0.3l0.2,0.5l0.1,0.5l-0.1,0.4l-0.3,0.5l-0.4,0.2l-0.5,0.2l-5.5,-1l-5.8,-0.6l-5,0l-7,0.5l-5.5,0.9l-6.5,1.3l-7.3,2l-3.6,1.3l-1,0l-0.4,-0.3l-0.4,-0.3l-0.2,-0.5z" />
   <path d="m339.75,172.35l0.5,0l0.5,0.1l0.4,0.3l0.3,0.4l1,2.2l1.6,4.8l1.7,6.9l1.4,7.6l0.8,6l1.1,11.8l0.6,10.8l0.2,14.1l0,10.4l-0.6,17l-1.2,16.7l-1.2,11.8l-1.9,12.6l-1.4,8.1l-1.8,7.7l-1.7,6.3l-1.5,4.8l-2.6,7.4l-0.3,0.4l-0.4,0.3l-0.5,0.2l-0.5,0l-0.5,-0.2l-0.4,-0.4l-0.2,-0.4l-0.1,-0.5l0.1,-0.5l2.6,-7.2l1.5,-4.7l1.6,-6.2l1.8,-7.6l1.4,-8l1.8,-12.5l1.3,-11.7l1.2,-16.6l0.5,-16.9l0.1,-10.3l-0.3,-14.1l-0.5,-10.6l-1.1,-11.7l-0.8,-5.9l-1.4,-7.4l-1.6,-6.7l-1.6,-4.5l-0.9,-2.1l-0.1,-0.5l0,-0.5l0.2,-0.4l0.4,-0.4l0.5,-0.2z" />
   <path d="m280.65,282.95l-0.5,0.1l-0.5,-0.2l-0.4,-0.3l-0.3,-0.4l-0.6,-1.4l-0.2,-0.7l0.5,-4.7l1.3,-7l1.3,-6.1l1.3,-4.9l2.1,-6.6l0.8,-2.3l3.7,-8.8l1.8,-3.7l2,-3.8l2.9,-5l2.2,-3.6l3.7,-5.7l2.3,-3.2l3.8,-5l4.6,-5.5l1.5,-1.7l3.6,-3.8l3.6,-3.5l3.1,-2.9l4.4,-3.6l2.1,-1.6l0.4,-0.2l0.5,-0.1l0.5,0.1l0.4,0.3l0.3,0.4l0.2,0.5l-0.1,0.5l-0.2,0.4l-0.3,0.4l-2.1,1.5l-4.2,3.6l-3,2.8l-3.6,3.5l-3.5,3.7l-5.9,7l-3.8,4.9l-2.2,3.2l-3.7,5.6l-2.2,3.5l-2.8,4.9l-1.9,3.7l-1.8,3.7l-3.6,8.5l-0.8,2.2l-2,6.5l-1.3,4.8l-1.3,6l-1.2,6.8l-0.5,4.2l0.5,1l0.2,0.5l-0.1,0.5l-0.2,0.5l-0.4,0.3l-0.4,0.2z" />
   <path d="m309.55,208.15l0.5,-0.1l0.5,0.1l0.4,0.2l0.4,0.3l2.2,3.4l2.6,4.8l2,4.5l0.6,1.4l2,6.4l1.8,6.6l1.2,5.2l1.6,8.3l1.1,7.5l1,7.9l0.4,4.9l0.5,8.4l0.1,8.7l-0.1,6.9l-0.4,9.8l-0.5,7.7l-0.7,7.1l-1,7.6l-0.8,4.4l-0.9,4l-1.3,4.5l-1.2,3.6l-1,2.6l-0.8,1.8l-0.7,1.3l-0.3,0.4l-0.5,0.2l-0.5,0.1l-0.5,-0.1l-0.4,-0.2l-0.3,-0.4l-0.2,-0.5l0,-0.5l0.2,-0.4l0.6,-1.2l0.8,-1.7l0.9,-2.5l1.2,-3.3l1.2,-4.4l0.9,-3.9l0.8,-4.3l1,-7.4l0.7,-7l0.5,-7.6l0.3,-9.8l0.1,-6.9l-0.1,-8.5l-0.5,-8.3l-0.4,-4.8l-0.9,-7.8l-0.7,-4.5l-1.2,-7.1l-2,-9.1l-1.7,-6.5l-2,-6.2l-0.6,-1.3l-1.9,-4.4l-2.5,-4.5l-2.1,-3.2l-0.2,-0.5l-0.1,-0.5l0.2,-0.5l0.3,-0.4l0.4,-0.3z" />
   <path d="m311.45,349.05l0,-0.5l0.2,-0.5l0.3,-0.4l0.5,-0.2l21.9,-6.9l2.4,-0.7l0.5,-0.1l0.4,0.1l0.5,0.3l0.3,0.4l0.1,0.5l0,0.5l-0.2,0.5l-0.4,0.3l-0.4,0.3l-2.4,0.7l-21.8,6.8l-0.5,0.1l-0.5,-0.1l-0.4,-0.3l-0.3,-0.3l-0.2,-0.5z" />
   <path d="m339.95,334.45l0.6,0.5l0.3,0.8l0.1,0.8l-0.2,0.7l-1.1,2.5l-4.1,10.4l-0.5,0.7l-0.6,0.5l-0.8,0.2l-0.8,0l-0.7,-0.3l-0.6,-0.5l-0.4,-0.7l-0.1,-0.8l0.1,-0.8l4.2,-10.5l1.2,-2.6l0.4,-0.7l0.7,-0.5l0.8,-0.2l0.8,0.1l0.7,0.4z" />
   <path d="m331.45,349.05l0.4,0.2l0.4,0.4l0.2,0.4l0,0.5l-0.2,6l0.1,5.5l0.5,6.3l0.6,3.2l0.4,1.8l1,2.9l0.7,1.5l1.6,2.2l1,1.1l1.8,1.2l1.4,0.7l1.5,0.5l2.9,0.4l1.9,-0.1l3.7,-0.7l2.4,-0.8l3.5,-1.6l3.9,-2.1l3.9,-2.5l3,-2.1l4.9,-3.8l2.8,-2.5l4.3,-4.5l2.4,-2.9l2.2,-3.1l2.5,-4.3l2,-4.7l1.6,-4.9l0.9,-3.7l0.6,-3.8l0.3,-2.5l0,-7l-0.5,-6.3l-0.8,-5.3l-0.8,-4.3l-0.9,-3.1l-0.7,-2.3l-1.1,-2.6l0.1,-0.5l0.2,-0.4l0.4,-0.4l0.4,-0.2l0.5,0l0.5,0.1l0.4,0.3l0.3,0.4l1,2.3l0.8,2.4l0.9,3.3l0.9,4.4l0.8,5.5l0.5,6.5l0,7.3l-0.3,2.8l-0.7,3.9l-0.9,3.9l-1.6,5.2l-2.2,4.9l-2.6,4.6l-2.4,3.3l-2.5,3.1l-4.5,4.7l-2.9,2.6l-5.1,3.9l-3,2.2l-4.1,2.6l-4,2.2l-3.8,1.6l-2.7,0.9l-4.1,0.8l-2.3,0.1l-3.4,-0.4l-2,-0.6l-1.8,-0.9l-2.1,-1.4l-1.5,-1.4l-1.8,-2.7l-0.9,-1.9l-1.1,-3.1l-0.5,-2.1l-0.6,-3.3l-0.6,-6.6l-0.1,-7.5l0.3,-4.5l0.1,-0.4l0.3,-0.5l0.4,-0.2l0.5,-0.2l0.5,0.1z" />
   <path d="m319.85,394.25l-0.1,-0.4l0.1,-0.4l0.2,-0.3l0.3,-0.3l1.6,-0.8l3.7,-1.4l6.3,-1.9l4.6,-1.1l6.8,-1.3l3.4,-0.6l0.4,0l0.4,0.2l0.3,0.3l0.2,0.3l0.1,0.4l-0.1,0.4l-0.2,0.4l-0.4,0.2l-0.4,0.2l-3.4,0.5l-6.6,1.3l-4.5,1.1l-6.1,1.8l-3.6,1.4l-1.4,0.7l-0.4,0.1l-0.4,0l-0.3,-0.1l-0.4,-0.3l-0.1,-0.4z" />
   <path d="m362.15,313.45l0.1,-0.5l0.3,-0.4l0.4,-0.4l0.5,-0.1l2,-0.3l6.6,-3l15.1,-8.4l0.5,-0.2l0.6,0l0.5,0.2l0.4,0.3l0.3,0.5l0.1,0.5l-0.1,0.5l-0.3,0.5l-0.4,0.3l-15.4,8.6l-6.9,3.1l-2.6,0.4l-0.5,0l-0.5,-0.2l-0.4,-0.4l-0.2,-0.4l-0.1,-0.6z" />
   <path d="m362.55,311.75l0.5,-0.1l0.5,0.1l0.4,0.2l0.4,0.3l4.5,6.8l1.2,2.3l1.1,2.2l1.7,4.3l1.2,4.4l0.8,4.1l0.4,3.6l0.2,2.1l0,3.6l-0.1,2.2l-0.4,3l-0.5,2.8l-1.3,4.9l-0.6,2l-1.4,3.3l-2.4,5.1l-2.6,4.1l-0.4,0.3l-0.4,0.2l-0.5,0.1l-0.5,-0.2l-0.4,-0.3l-0.3,-0.4l-0.1,-0.5l0,-0.5l2.6,-4.2l2.4,-4.8l1.3,-3.2l0.6,-1.9l1.2,-4.6l0.5,-2.7l0.3,-2.7l0.1,-2.1l0,-3.4l-0.2,-2l-0.4,-3.4l-0.7,-3.8l-1.2,-4.2l-1.5,-4l-2.2,-4.3l-4.4,-6.5l-0.2,-0.5l0,-0.5l0.1,-0.5l0.3,-0.4l0.4,-0.3z" />
   <path d="m161.95,96.75l-0.3,0.3l-0.5,0.1l-2.6,-0.6l-0.3,-0.4l0,-0.2l0.1,-0.3l0.4,-0.3l2.3,-0.9l10.3,-0.5l10.4,-0.2l6.7,0l11.2,0.1l10.4,0.1l11.4,0.3l7.4,0.3l7.6,0.3l10.8,0.6l11.2,0.6l11.4,0.9l8.6,0.6l8.3,0.8l5.6,0.5l8.1,0.9l7.9,0.9l5.2,0.7l7.5,1l7.2,1.2l9,1.6l8.2,1.8l7.4,1.8l9.4,2.8l6.4,2.3l3,1.4l4,2.5l2.3,3.2l0.2,0.7l-1.4,4l-2.9,3l-5.6,3.3l-4.7,2.2l-8.1,3.1l-5.5,1.7l-3.4,0.8l-0.5,-0.1l-0.3,-0.3l-0.1,-0.3l0.2,-0.5l0.4,-0.2l3.4,-0.8l5.4,-1.7l8,-3.1l4.5,-2.1l5.5,-3.2l2.6,-2.6l1,-3.3l-2.1,-2.8l-3.6,-2.2l-2.9,-1.4l-6.2,-2.2l-9.4,-2.8l-7.3,-1.8l-8.2,-1.8l-8.9,-1.6l-7.2,-1.1l-7.5,-1.1l-5.1,-0.7l-7.9,-0.9l-8.2,-0.9l-5.5,-0.5l-8.4,-0.7l-8.5,-0.7l-11.4,-0.8l-11.2,-0.7l-10.7,-0.6l-7.7,-0.3l-7.3,-0.2l-11.4,-0.3l-10.5,-0.2l-17.8,0l-10.3,0.2l-10.2,0.4l0,-0.2l0.2,0.1l0.4,0.2l0.2,0.5l-0.1,0.3z" />
   <path d="m176.15,117.45l-0.3,0.4l-0.5,0.1l-2.6,-0.5l-0.3,-0.4l0,-0.2l0.2,-0.5l1.6,-1.7l0.4,-0.3l8.7,-1.7l8.2,-1.2l10.5,-1.3l11.3,-1.1l7.2,-0.6l7.8,-0.4l5.9,-0.3l10,-0.4l6.1,-0.1l10.2,-0.1l6.2,0.1l6.1,0.2l8.1,0.3l7.8,0.5l7.6,0.7l10.5,1.1l7.9,1.1l7,1.3l7.1,1.7l3.8,1.2l3.2,1.3l2.5,1.4l2.5,2l2,2.9l0.1,0.5l-0.1,2.4l0,0.3l-0.5,0.4l-2.1,0.4l-0.4,0l-0.4,-0.4l0,-0.2l0.3,-0.7l1.7,-0.4l0.1,-1.6l-1.9,-2.7l-2.1,-1.7l-2.4,-1.3l-3,-1.3l-3.7,-1.2l-7,-1.6l-6.9,-1.3l-7.9,-1.1l-10.4,-1.1l-7.6,-0.6l-7.8,-0.5l-8,-0.4l-6.1,-0.2l-16.4,0l-6.1,0.1l-10,0.4l-5.9,0.3l-7.7,0.5l-7.2,0.5l-6.7,0.6l-11.3,1.3l-9,1.3l-11.3,2.1l-0.6,0.6l1.1,0.2l0.4,0.2l0.2,0.5l-0.1,0.2z" />
   <path d="m350.35,332.75l0.5,-0.1l0.4,0.3l1.2,1.7l1,2l1.2,3.3l0.8,2.9l1.3,7.8l0.4,5.3l-0.1,0.4l-0.5,0.3l-0.2,0l-0.4,-0.2l-0.2,-0.5l-0.5,-5.1l-1.2,-7.7l-0.8,-2.8l-1.2,-3.2l-0.9,-1.8l-1.1,-1.6l-0.1,-0.4l0.2,-0.5l0.2,-0.1z" />
   <path d="m359.95,320.35l0.4,0.1l0.4,0.4l1.7,4.4l1.6,5.3l1,4.9l0.7,5.1l0.4,8.1l0.1,8l-0.2,2.8l-0.2,0.4l-0.4,0.2l-0.3,0l-0.2,-0.1l-0.3,-0.4l0.1,-3l0,-7.9l-0.4,-8l-0.7,-5l-1,-4.8l-1.6,-5.1l-1.6,-4.4l-0.1,-0.5l0.3,-0.4l0.3,-0.1z" />
   <path d="m353.15,172.95l0.4,0.1l0.3,0.4l1.5,8.8l1,8.4l1.1,10.7l0.5,9.3l0.2,3.4l0.2,10l0.1,9.6l-0.1,8.3l-0.1,6.8l-0.2,9.4l-0.2,4.2l-0.2,0.4l-0.4,0.3l-0.3,0l-0.4,-0.3l-0.1,-0.5l0.2,-4.2l0.2,-9.3l0.1,-6.8l0,-17.9l-0.2,-10l-0.2,-3.3l-0.6,-9.3l-1,-10.6l-1,-8.4l-1.5,-8.7l0,-0.5l0.4,-0.3l0.3,0z" />
   <path d="m365.15,182.75l0.5,0.2l0.2,0.4l0.7,5.1l0.8,10.3l0.5,9.9l0.4,9.4l0.1,3l-0.2,0.5l-0.4,0.2l-0.2,0l-0.5,-0.2l-0.2,-0.5l0,-2.9l-0.4,-9.5l-0.5,-9.8l-0.8,-10.3l-0.7,-5l0.1,-0.4l0.3,-0.4l0.3,0z" />
   <path d="m258.25,325.85l0.4,-0.3l0.5,-0.2l0.5,0.1l0.5,0.2l10.4,6.8l5.6,3.4l3.8,2.2l7.3,3.5l2.4,1l0.4,0.3l0.3,0.4l0.1,0.5l0,0.5l-0.2,0.4l-0.3,0.4l-0.5,0.2l-0.5,0.1l-0.5,-0.1l-2.4,-1.1l-7.4,-3.6l-4,-2.2l-5.6,-3.4l-10.5,-6.9l-0.4,-0.4l-0.2,-0.4l-0.1,-0.5l0.2,-0.5l0.2,-0.4z" />
   <path d="m267.15,341.35l0.4,-0.3l0.4,-0.2l0.5,0l0.5,0.2l5.1,2.9l7.3,3.5l10.9,4.8l0.4,0.2l0.3,0.4l0.1,0.5l0,0.5l-0.2,0.5l-0.3,0.3l-0.5,0.3l-0.5,0l-0.4,-0.1l-11,-4.7l-7.4,-3.6l-5.3,-3l-0.4,-0.3l-0.2,-0.5l-0.1,-0.5l0.1,-0.5l0.3,-0.4z" />
   <path d="m127.55,400.65l0.5,0.1l0.5,0.3l0.3,0.4l0.1,0.5l0.2,0.9l1.2,1.7l3.4,4.1l2.4,2.5l2.7,2.7l2.8,2.6l2.8,2.3l2.9,2.1l2.7,1.7l1.6,1l2.5,1.2l2.1,0.9l3.1,1l1.1,0.2l0.5,0.2l0.4,0.3l0.2,0.4l0.1,0.5l-0.1,0.5l-0.3,0.4l-0.4,0.4l-0.4,0.1l-0.5,0l-1.2,-0.2l-2.1,-0.6l-1.3,-0.5l-2.4,-0.9l-2.6,-1.4l-1.8,-1l-2.8,-1.8l-3,-2.2l-3,-2.4l-2.9,-2.7l-2.8,-2.7l-2.4,-2.6l-3.6,-4.3l-1.5,-2.1l-0.3,-0.6l-0.1,-1.3l0,-0.5l0.2,-0.5l0.3,-0.4l0.5,-0.2l0.4,-0.1z" />
   <path d="m90.85,338.55l0.4,-0.2l0.5,0l0.5,0.2l0.4,0.3l11.7,14.6l13,16.3l5.9,7.4l0.2,0.4l0.1,0.5l-0.1,0.5l-0.3,0.5l-0.3,0.3l-0.5,0.1l-0.5,0l-0.5,-0.2l-0.4,-0.3l-5.8,-7.4l-13.1,-16.3l-11.6,-14.6l-0.3,-0.4l-0.1,-0.5l0.1,-0.5l0.3,-0.4l0.4,-0.3z" />
   <path d="m233.65,208.25l0.2,-0.4l0.5,-0.2l1.5,0.1l7.4,0.7l2.4,0l-1.4,1.2l-2.4,-0.1l-2.7,0.3l-8,1.7l-0.3,-0.3l10.1,0.3l4.7,0.2l0.4,0.2l0.2,0.4l0,0.2l-0.1,0.3l-0.3,0.3l-2.3,-0.1l-11.2,-0.3l-1.8,-0.1l-0.3,-0.1l-1.2,-0.7l-0.2,-0.2l-0.2,-0.2l0,-0.3l0.1,-0.3l0.2,-0.2l0.2,-0.1l1.3,-0.3l8.5,-1.8l2.9,-0.3l2.5,0.1l1.7,0.3l0.2,0.1l0.2,0.3l0,0.2l-0.1,0.3l-0.1,0.2l-0.2,0.2l-1.4,0.1l-1.5,-0.1l-7.5,-0.7l-1.3,0l-0.5,-0.2l-0.2,-0.5l0,-0.2z" />
   <path d="m317.15,347.05l0.4,0.4l0.3,0.4l0,0.5l-0.1,0.5l-1.7,3.8l-1.3,2.4l-1.9,2.9l-2.9,3.6l-0.7,0.8l-0.4,0.3l-0.4,0.2l-0.5,0l-0.5,-0.2l-0.4,-0.3l-0.2,-0.5l-0.1,-0.5l0.1,-0.5l0.3,-0.4l0.6,-0.7l2.7,-3.6l1.9,-2.7l1.1,-2.1l1.6,-3.6l0.3,-0.4l0.4,-0.3l0.5,-0.2l0.5,0.1l0.4,0.1z" />
   <path d="m332.75,342.35l0.5,0.2l0.3,0.3l0.2,0.5l0.1,0.5l-0.2,1.6l-1.1,3.1l-0.6,1.5l-1.1,2.3l-2.6,4.6l-1.4,2l-2,2.7l-2.3,2.6l-2.4,2.2l-3,2.3l-1.2,0.8l-1.7,1l-0.6,0.3l-0.5,0.1l-0.5,0l-0.4,-0.2l-0.4,-0.4l-0.2,-0.4l-0.1,-0.5l0.2,-0.5l0.2,-0.4l0.5,-0.3l0.5,-0.3l2.5,-1.6l2.8,-2.1l2.2,-2.1l2.2,-2.4l1.9,-2.5l1.3,-1.9l2.4,-4.4l1,-2.1l1.6,-4.2l0.1,-1.1l0.1,-0.5l0.3,-0.4l0.4,-0.3l0.5,-0.1l0.5,0.1z" />
   <path d="m319.85,336.45l0.7,0.5l0.5,0.7l0.3,0.9l-0.1,0.9l-0.4,1.4l-3.3,8.1l-2.3,4.8l-0.6,0.7l-0.7,0.5l-0.9,0.1l-0.9,-0.1l-0.8,-0.4l-0.6,-0.6l-0.3,-0.9l0,-0.8l0.2,-0.9l2.2,-4.5l3.2,-7.8l0.2,-0.9l0.4,-0.8l0.6,-0.7l0.8,-0.3l0.9,-0.1l0.9,0.2z" />
   <path d="m316.15,380.35l0.6,0.1l0.5,0.2l0.4,0.4l0.2,0.5l0.4,1.4l1.7,3.3l1.3,3.1l0.7,2.1l0.8,3.3l0.5,3.7l0.1,3.8l-0.2,3.7l-0.8,3.6l-1.2,3.4l-1.7,3l-2.1,2.5l-1.5,1.4l-1.4,1l-2.1,1.4l-1.4,0.7l-0.7,0.1l-0.5,-0.1l-0.5,-0.2l-0.4,-0.5l-0.2,-0.5l0,-0.6l0.2,-0.5l0.4,-0.4l1.6,-0.9l1.8,-1.1l1.2,-0.9l1.2,-1.2l1.8,-2.1l1.4,-2.5l1,-2.9l0.7,-3.2l0.2,-3.4l-0.1,-3.4l-0.5,-3.4l-0.8,-3l-0.6,-1.8l-1.1,-2.8l-1.8,-3.3l-0.5,-2l-0.1,-0.6l0.2,-0.5l0.3,-0.4l0.5,-0.4l0.5,-0.1z" />
   <path d="m108.45,318.65l0.4,-0.2l0.5,0l1,0.6l2.6,0.7l5.2,0.6l8.6,0.6l11.1,0.2l9.9,0l9.7,-0.1l10.2,-0.3l7.7,-0.4l0.5,0.1l0.3,0.4l0,0.3l-0.2,0.4l-0.5,0.2l-7.7,0.4l-10.2,0.4l-9.8,0.1l-10,0l-11.1,-0.3l-8.6,-0.5l-5.4,-0.7l-1.4,-0.3l-1.4,-0.4l-1.2,-0.7l-0.3,-0.4l0,-0.5l0.1,-0.2z" />
  </g>
  ``
  <g id="buck_panel_2">
   <path d="m405.15,236.02l-6.48,4.94l-1.32,3.96l-15.86,-5.29l-3.08,-4.41l8.37,-2.2l18.37,2.98z" 
   fill="var(--outline-color, #000)" />
   <path d="m447.28,334.04l-26.13,-72.37c-16.74,-1.03 -35.24,-13.51 -15.86,-25.55l87.67,19.38l14.1,1.32l6.17,-1.32c7.34,39.35 12.04,60.65 8.81,95.59l-17.62,71.81l-9.25,-0.44c-17.77,-4.26 -33.33,-21.73 -57.27,-13.22l14.98,-54.63l2.2,8.81l6.17,11.89l7.49,-1.32l6.61,-15.42l1.32,-9.25l-1.76,-5.73l3.08,-1.32l-3.96,-20.26l-6.61,-10.57l-8.81,-2.2l-7.49,7.05l-3.82,17.74z" 
   fill="var(--cup-color, rgba(255,255,255,0.15)" />
   <path d="m387.2,231.78l17.64,-10.64l5.73,-22.47c24.82,-3.38 54.04,-4.55 75.77,0.44c17.62,-5.43 56.39,-15.27 62.11,-5.73l0.88,24.67l17.18,9.25c-18.5,14.68 -35.68,23.2 -59.47,30.84c-40.39,-6.59 -79.9,-19.34 -119.85,-26.37z" 
   fill="url(#dots)" />
   <path d="m451.52,350.29l-5.26,-18.57l3.96,-14.1l5.73,-6.17l10.57,0l7.05,7.49l3.96,22.91l-3.08,3.08l1.76,3.96l-1.76,10.57l-3.08,9.69l-3.52,5.73l-6.17,2.2l-3.52,-4.41l-5.29,-18.06l-1.34,-4.34z" 
   fill="url(#green_dots)" />
   <path d="m377.97,235.59l0,-0.57l0.22,-0.45l0.45,-0.45l0.45,-0.23l1.67,-0.34l4.46,-1.7l4.34,-2.04l3.68,-1.93l7.91,-5.1l2.45,-1.7l0.45,-0.23l0.56,-0.11l0.56,0.11l0.45,0.34l0.33,0.45l0.22,0.57l0,0.57l-0.22,0.57l-0.45,0.34l-2.45,1.81l-8.24,5.21l-3.79,2.04l-4.57,2.04l-4.68,1.81l-1.78,0.45l-0.56,0.11l-0.56,-0.23l-0.45,-0.34l-0.33,-0.45l-0.11,-0.57z" />
   <path d="m411.35,200.77l0.4,0.31l0.3,0.51l0.1,0.51l-0.1,0.51l-5.4,18.51l-0.2,0.41l-0.3,0.41l-0.5,0.2l-0.5,0l-0.5,-0.1l-0.4,-0.31l-0.3,-0.41l-0.1,-0.51l0,-0.51l5.5,-18.62l0.2,-0.51l0.4,-0.31l0.4,-0.2l0.5,0l0.5,0.1z" />
   <path d="m414.95,202.15l0.4,-0.1l0.5,0.2l1,0.8l2.8,1.3l7.1,2.4l4,1.1l6.5,1.5l9.7,1.8l9.9,1.3l7,0.6l4.8,0.3l4.9,0.2l8.4,0.2l9.1,-0.1l8.8,-0.3l6.8,-0.5l0.5,0.1l0.3,0.4l0,0.3l-0.2,0.4l-0.5,0.2l-6.8,0.5l-8.8,0.4l-9.2,0.1l-8.5,-0.2l-4.8,-0.2l-4.9,-0.4l-7,-0.6l-7.9,-1l-2.1,-0.3l-9.7,-1.8l-6.7,-1.5l-4,-1.1l-7.2,-2.5l-3,-1.3l-1.2,-1.1l-0.3,-0.4l0.1,-0.5l0.2,-0.2z" />
   <path d="m403.75,225.65l0.1,-0.5l0.4,-0.3l1.3,-0.5l3.9,-0.7l4.1,-0.5l6,-0.4l5.1,-0.1l5.5,0.3l5.9,0.6l4.6,0.8l8.7,2l9,2.3l9.6,2.4l9.2,1.8l8.3,1.2l7.6,0.5l5.8,0.2l6.7,-0.2l4.6,-0.3l7,-0.9l4.4,-0.9l3.7,-1l5.4,-1.6l3.5,-1.4l0.5,0l0.4,0.3l0.1,0.2l0,0.3l-0.2,0.4l-2.1,0.9l-4.1,1.4l-3.1,0.9l-3.8,1l-4.4,0.9l-1.8,0.3l-5.3,0.6l-4.7,0.3l-6.8,0.2l-5.8,-0.1l-4.9,-0.3l-4.8,-0.5l-6.5,-1l-9.2,-1.8l-9.6,-2.4l-9.1,-2.3l-8.6,-1.9l-4.5,-0.8l-5.8,-0.7l-5.4,-0.2l-5,0l-6,0.4l-4,0.5l-3.8,0.7l-1.2,0.4l-0.5,0l-0.3,-0.3l-0.1,-0.2z" />
   <path d="m450.25,355.05l0.4,-0.2l0.5,0l0.5,0.1l0.4,0.3l0.8,0.9l0.4,0.7l0.2,1.5l0,2l-0.4,4l-1,5.5l-2,7.8l-1.6,5.8l-4,12.7l-5.7,16.1l-0.2,0.5l-0.4,0.3l-0.5,0.1l-0.5,0l-0.5,-0.2l-0.3,-0.3l-0.3,-0.4l-0.1,-0.5l0.1,-0.5l5.7,-16.1l3.9,-12.6l1.7,-5.7l1.9,-7.7l1,-5.2l0.4,-3.8l0,-1.7l-0.2,-0.6l-0.5,-0.6l-0.2,-0.4l-0.2,-0.5l0.1,-0.5l0.2,-0.4l0.4,-0.4z" />
   <path d="m419.95,260.45l0.5,-0.1l0.5,0l0.4,0.3l0.4,0.4l2.2,3.9l2.1,4.2l4.8,11.7l5.5,15.1l6.6,19.8l5.7,18l5,16.3l0.1,0.6l-0.1,0.5l-0.3,0.4l-0.4,0.3l-0.5,0.1l-0.5,0l-0.5,-0.2l-0.4,-0.4l-0.2,-0.4l-5,-16.3l-5.7,-18l-6.6,-19.8l-5.5,-14.9l-4.8,-11.6l-1.9,-4l-2.1,-3.8l-0.2,-0.4l-0.1,-0.6l0.2,-0.5l0.3,-0.4l0.5,-0.2z" />
   <path d="m540.15,244.05l0.5,0.1l0.4,0.3l0.3,0.4l0.1,0.4l1.7,17.1l1.1,17.1l0.8,21.6l0.5,18l0.4,21.7l0,5.4l-0.1,0.5l-0.2,0.4l-0.4,0.4l-0.4,0.1l-0.5,0l-0.5,-0.1l-0.3,-0.3l-0.3,-0.5l-0.1,-0.4l0,-5.4l-0.4,-21.8l-0.5,-17.9l-0.8,-21.6l-1.1,-17l-1.7,-16.9l0.1,-0.5l0.2,-0.4l0.3,-0.4l0.4,-0.2l0.5,-0.1z" />
   <path d="m545.45,343.65l0.5,0.2l0.4,0.5l0.2,0.5l0,0.5l-4.1,23.4l-4.1,23.1l-3.7,22.9l-1.2,8.2l-0.2,0.5l-0.3,0.4l-0.5,0.3l-0.6,0.1l-0.5,-0.1l-0.5,-0.2l-0.4,-0.4l-0.2,-0.6l0,-0.5l1.2,-8.2l3.7,-23l4.2,-23l4,-23.4l0.2,-0.5l0.4,-0.4l0.4,-0.3l0.6,-0.1l0.5,0.1z" />
   <path d="m446.55,354.15l0.1,-0.5l0.2,-0.4l0.3,-0.4l0.5,-0.2l4.2,-1.3l21.7,-8.8l9.7,-4l2.5,-1.2l0.5,-0.1l0.5,0l0.5,0.2l0.3,0.4l0.2,0.5l0.1,0.5l-0.1,0.5l-0.3,0.4l-0.4,0.3l-2.6,1.1l-9.8,4.2l-21.8,8.7l-4.4,1.4l-0.5,0l-0.5,-0.1l-0.4,-0.3l-0.3,-0.4l-0.2,-0.5z" />
   <path d="m453.75,353.45l0,0.3l-1.5,-1.3l12.4,-2.8l9.5,-1.4l7.2,-0.7l5.1,-0.2l4.8,0.1l5.1,0.4l5.5,0.9l1.8,0.4l0.4,0.2l0.4,0.4l0.2,0.4l0,0.5l-0.1,0.5l-0.3,0.4l-0.4,0.3l-0.5,0.1l-0.5,0l-1.7,-0.4l-5.2,-0.9l-4.9,-0.3l-4.6,-0.1l-4.9,0.2l-7.1,0.7l-9.3,1.4l-10.2,2.2l-2.1,0.5l-1.6,0.3l-0.5,0l-0.5,-0.2l-0.4,-0.4l-0.2,-0.4l-0.1,-0.6l0.2,-0.5l0.3,-0.4l0.5,-0.3l1.2,-0.4l0.5,-0.1l0.5,0.1l0.5,0.2l0.3,0.4l0.2,0.5z" />
   <path d="m455.35,350.15l-0.4,0.2l-0.5,0l-0.5,-0.1l-0.4,-0.3l-1.2,-1.1l-1.6,-2.3l-1.7,-2.9l-0.9,-2.1l-0.7,-2.1l-0.6,-3l-0.3,-2.3l-0.1,-2.1l0,-2.2l0.3,-2.7l0.3,-1.8l0.4,-1.9l1.1,-3.2l0.6,-1.3l1,-2.1l0.7,-1.2l1.4,-1.9l2.2,-2.2l1.4,-1l1.4,-0.9l2.3,-0.9l1.9,-0.3l2.1,0.1l2.2,0.6l1.5,0.8l2,1.5l1.6,1.5l1.4,1.8l1.5,2.6l1.1,2.3l1.4,3.5l0.9,3.1l0.9,4l0.7,3.8l0.3,4.2l0,4.2l-0.2,0.5l-0.3,0.4l-0.4,0.3l-0.5,0.1l-0.5,0l-0.4,-0.2l-0.4,-0.4l-0.2,-0.4l0,-4.4l-0.3,-4l-0.6,-3.5l-0.9,-3.9l-0.9,-2.9l-1.2,-3.3l-1.1,-2.2l-1.3,-2.2l-1.2,-1.5l-1.3,-1.3l-1.7,-1.2l-1.1,-0.5l-1.6,-0.5l-1.4,0l-1.3,0.3l-1.8,0.7l-1.1,0.6l-1.1,0.8l-1.8,1.9l-1.2,1.6l-0.6,1.1l-0.9,1.9l-0.5,1.1l-1,2.9l-0.4,1.7l-0.3,1.6l-0.2,2.5l0,1.9l0.1,1.9l0.3,2.2l0.5,2.6l0.7,2l0.7,1.8l1.5,2.6l1.4,1.9l1,1l0.3,0.4l0.1,0.5l0,0.5l-0.2,0.4l-0.4,0.4z" />
   <path d="m453.95,353.15l0.5,0.2l0.4,0.3l0.2,0.4l0.1,0.5l0,1.3l0.2,1.9l0.6,3.8l0.8,3.2l0.6,2l1.1,2.5l0.7,1.2l1,1.6l0.9,1.1l0.9,0.7l0.9,0.5l1.5,0.2l1.4,-0.4l1,-0.5l1.3,-1.1l1,-1.1l1.4,-2.2l0.9,-2.1l0.8,-2l0.9,-3.6l0.7,-4l0.3,-0.4l0.4,-0.3l0.5,-0.2l0.5,0.1l0.5,0.2l0.3,0.3l0.2,0.5l0.1,0.5l-0.6,3.9l-1.1,3.8l-0.8,2.3l-1.1,2.3l-1.5,2.5l-1.3,1.5l-1.7,1.4l-1.5,0.8l-2.1,0.6l-0.5,0.1l-2,-0.2l-0.6,-0.2l-1.4,-0.7l-1.3,-1.2l-1.2,-1.3l-1.2,-1.9l-0.7,-1.3l-1.2,-2.9l-0.8,-2.2l-0.8,-3.4l-0.7,-3.9l-0.2,-2.1l0,-1.6l0.1,-0.5l0.2,-0.4l0.4,-0.3l0.5,-0.2l0.5,0z" />
   <path d="m504.65,257.35l0.1,-0.5l0.3,-0.4l0.4,-0.3l0.5,-0.2l1.2,-0.1l2.8,-0.6l5.7,-1.8l5.9,-2.2l13.8,-5.9l6.9,-3.3l5.1,-2.7l3.3,-1.9l4.2,-2.7l6.6,-4.5l5.5,-4.2l0.5,-0.2l0.5,-0.1l0.5,0.1l0.4,0.3l0.3,0.4l0.2,0.4l0,0.5l-0.2,0.5l-0.3,0.4l-5.7,4.3l-6.7,4.5l-4.3,2.7l-3.4,2l-5.2,2.8l-7,3.3l-13.9,6l-7.5,2.8l-4.4,1.3l-3.1,0.7l-1.5,0.1l-0.5,0l-0.4,-0.2l-0.4,-0.4l-0.2,-0.4l0,-0.5z" />
   <path d="m549.26,214.45l0.54,0l0.54,0.22l0.43,0.33l0.22,0.44l0.43,1.09l0.97,1.09l2.49,1.97l2.92,2.08l2.27,1.2l1.73,0.88l2.16,0.66l2.49,0.55l2.92,0.33l0.43,0.22l0.32,0.44l0.22,0.55l0,0.55l-0.22,0.55l-0.43,0.33l-0.43,0.33l-0.54,0.11l-0.87,0l-1.84,-0.33l-2.81,-0.55l-2.49,-0.77l-1.95,-0.88l-2.6,-1.42l-1.95,-1.31l-1.3,-0.99l-2.6,-2.08l-1.41,-1.53l-0.32,-0.55l-0.54,-1.42l-0.11,-0.55l0.11,-0.55l0.32,-0.44l0.32,-0.33l0.54,-0.22z" />
   <path d="m513.95,261.15l0.5,0.1l0.3,0.5l2.5,10.3l2.1,10.9l1.6,9.5l0.9,7l0.9,8.4l0.8,9l0.2,5.2l0.1,7.5l-0.1,4.4l-0.5,6.3l-0.7,4.3l-0.2,0.5l-0.5,0.1l-0.3,0l-0.3,-0.3l-0.1,-0.5l0.6,-4.3l0.5,-6.2l0.2,-4.3l-0.1,-7.4l-0.3,-5.2l-0.7,-9l-0.9,-8.3l-1,-7l-1.5,-9.5l-2.2,-10.8l-2.4,-10.3l0,-0.5l0.4,-0.3l0.2,-0.1z" />
   <path d="m514.95,345.85l0.5,-0.1l0.4,0.3l0.5,0.7l1.6,0.2l2.5,0l6.4,-0.5l1.5,0l1.6,0.1l1.1,0.5l0.3,0.2l0.1,0.2l0,0.3l-0.1,0.3l-0.6,1.1l-0.3,0.3l-1.1,0.6l-1.1,0.5l-1.2,0.4l-1.2,0.2l-1.4,0.1l-6.4,-0.3l-2.5,0.1l-1,0.1l-0.3,-0.5l7.7,0.6l3.2,0.4l2.9,0.7l1.1,0.5l0.3,0.2l1,1.1l0,0.5l-0.2,0.2l-0.2,0.2l-1,0.5l-0.5,-0.1l-0.2,-0.2l-0.1,-0.2l0,-0.5l0.1,-0.2l0.2,-0.2l-1,-0.4l-2.6,-0.7l-3.1,-0.4l-6.6,-0.5l-1.5,-0.2l-1.4,-0.7l-0.2,-0.2l0,-0.5l0.1,-0.2l0.2,-0.2l1.5,-0.4l1.5,-0.1l2.6,-0.1l6.4,0.3l1.2,-0.1l1.1,-0.2l2,-0.8l0.8,-0.5l0.2,-0.2l-0.3,-0.1l-1.1,-0.1l-1.5,0l-6.3,0.5l-2.7,0l-1.9,-0.2l-0.5,-0.3l-0.8,-0.9l-0.1,-0.5l0.2,-0.5l0.2,-0.1z" />
   <path d="m520.65,357.25l0.3,0.3l0.1,0.5l-3,11l-2.4,10.1l-1.9,7.9l-2.4,10.1l-1.4,5.8l-0.3,0.4l-0.5,0.2l-0.2,-0.1l-0.4,-0.3l0,-0.5l1.4,-5.8l2.4,-10.1l1.9,-7.9l2.4,-10.2l3,-11l0.3,-0.4l0.4,-0.1l0.3,0.1z" />
   <path d="m549.15,195.75l0.4,0.3l0.4,0.4l0.1,0.4l0,0.5l-0.3,2.7l-0.2,2.8l0.1,3.2l0.3,3.7l1.8,12l0,0.5l-0.2,0.5l-0.3,0.4l-0.4,0.2l-0.5,0.1l-0.5,-0.1l-0.5,-0.2l-0.3,-0.4l-0.2,-0.5l-1.8,-12.1l-0.3,-3.9l0,-3.4l0.1,-3l0.4,-2.9l0.2,-0.5l0.3,-0.4l0.4,-0.2l0.5,-0.1l0.5,0z" />
   <path d="m476.75,342.05l0.3,0.4l0.2,0.5l-0.1,0.5l-0.2,0.4l-0.4,0.6l0,0.6l0.4,1.2l0.5,0.9l0.7,0.8l0.2,0.5l0.1,0.5l0,0.5l-0.3,0.4l-0.4,0.3l-0.4,0.2l-0.5,0l-0.5,-0.2l-0.4,-0.3l-0.8,-0.9l-0.8,-1.3l-0.7,-1.9l0,-1.8l0.3,-0.8l0.6,-0.9l0.4,-0.4l0.4,-0.2l0.5,0l0.5,0.1l0.4,0.3z" />
   <path d="m409.65,201.15l-0.2,-0.5l0,-0.5l0.2,-0.5l0.4,-0.3l1.2,-0.9l0.5,-0.3l3.3,-0.8l6.6,-1.2l7.5,-0.8l7.5,-0.5l8.3,-0.3l8.8,-0.1l8.9,0.2l8.4,0.5l7.5,0.9l6.5,1.1l3.4,0.8l2.7,0.8l3.6,1.2l1.2,0.5l0.4,0.3l0.3,0.4l0.1,0.5l0,0.5l-0.2,0.5l-0.4,0.3l-0.4,0.2l-0.5,0.1l-0.5,-0.2l-1.1,-0.5l-3.3,-1.1l-2.6,-0.7l-3.4,-0.8l-6.2,-1.1l-7.4,-0.8l-8.2,-0.5l-8.8,-0.2l-8.8,0.1l-8.2,0.2l-7.4,0.6l-7.3,0.8l-6.4,1.1l-2.9,0.7l-1,0.8l-0.4,0.2l-0.5,0.1l-0.5,-0.1l-0.4,-0.3l-0.3,-0.4z" />
   <path d="m378.85,237.85l-0.4,-0.4l-0.2,-0.5l0,-0.5l0.2,-0.5l0.7,-1.4l0.4,-0.4l0.6,-0.3l1.4,-0.4l1.9,-0.3l2.2,-0.3l5,-0.2l5.9,0.2l8.7,1.1l10.1,2l22.5,5.5l23,5.8l17.7,4.1l8.2,1.6l10.2,1.6l11.4,1.2l0.6,0.2l0.4,0.3l0.3,0.4l0.2,0.5l-0.1,0.6l-0.2,0.4l-0.4,0.4l-0.5,0.3l-0.5,0l-11.6,-1.3l-10.3,-1.5l-8.3,-1.6l-17.9,-4.3l-22.9,-5.7l-22.5,-5.5l-9.9,-2l-8.4,-1l-5.7,-0.2l-4.8,0.2l-2,0.2l-2.3,0.5l-0.4,0.8l-0.3,0.4l-0.5,0.3l-0.5,0.1l-0.6,-0.1l-0.4,-0.3z" />
   <path d="m407.35,237.25l-0.2,0.4l-0.4,0.2l-0.4,0.2l-0.5,0l-0.7,-0.1l-0.7,0.2l-0.8,0.4l-1.6,1.2l-0.8,0.8l-0.8,1l-0.7,1.2l-0.4,0.8l-0.4,1.5l-0.2,1.5l0.1,1.7l0.5,1.6l1,1.8l1.8,1.8l0.8,0.6l2.9,1.8l2.5,1.1l1.4,0.6l5,1.5l3.9,0.8l3.8,0.7l4.2,0.5l4.9,0.4l4.9,0.2l7.9,0l8.3,-0.3l11.4,-0.8l10.6,-1.2l9.4,-1.4l10.5,-2l0.5,0l0.4,0.1l0.4,0.3l0.2,0.4l0.1,0.4l0,0.5l-0.3,0.4l-0.3,0.3l-0.4,0.1l-10.6,2.1l-9.5,1.4l-8.3,1l-8.5,0.7l-8.5,0.4l-8.3,0.2l-7.8,-0.1l-4.8,-0.3l-4.4,-0.4l-4.6,-0.7l-3.8,-0.7l-3.8,-1l-3.3,-1l-1.6,-0.7l-2.6,-1.1l-1.3,-0.7l-2,-1.3l-1,-0.8l-2,-2.1l-1.4,-2.3l-0.8,-2.2l-0.2,-2.2l0.3,-2.1l0.5,-1.8l0.5,-1.2l0.9,-1.4l1,-1.3l1,-1l1.1,-0.8l0.9,-0.7l1.1,-0.6l1.4,-0.5l0.6,0l1,0.2l0.5,0.2l0.3,0.3l0.2,0.4l0.1,0.4l-0.1,0.5z" />
   <path d="m377.74,235.16l0.55,-0.11l0.55,0l0.55,0.23l0.33,0.45l0.67,0.9l1.11,0.9l2.66,1.46l1.44,0.68l1.66,0.56l2.77,0.9l4.88,1.01l2.66,0.56l0.55,0.11l0.44,0.34l0.22,0.45l0.11,0.56l0,0.56l-0.33,0.56l-0.44,0.34l-0.44,0.23l-0.55,0l-2.88,-0.45l-4.99,-1.13l-2.99,-0.9l-1.77,-0.68l-3.1,-1.46l-1.55,-1.01l-1.55,-1.13l-0.33,-0.34l-0.78,-1.13l-0.22,-0.56l-0.11,-0.56l0.11,-0.56l0.33,-0.45l0.44,-0.34z" />
   <path d="m444.35,418.35l-0.1,0.5l-0.2,0.4l-0.4,0.4l-0.4,0.2l-1.2,0.2l-0.9,-0.1l-1.4,-0.7l-1.2,-0.9l-1,-1.3l-0.8,-1.4l-0.5,-1.7l-0.1,-0.4l0.1,-1.5l0.4,-1.3l0.2,-0.4l1,-1.4l1.4,-1.2l1.4,-0.9l1.6,-0.7l1.7,-0.5l2.9,-0.5l2.4,-0.2l2.7,0l3.8,0.5l4,0.9l3.1,0.8l5.6,2l7,3l5.5,2.5l7.6,3l5.6,1.9l0.5,0.3l0.3,0.3l0.2,0.5l0,0.5l-0.1,0.5l-0.3,0.4l-0.4,0.2l-0.5,0.1l-0.5,0l-5.8,-2l-7.7,-3l-5.5,-2.5l-7,-3l-5.4,-1.9l-2.9,-0.8l-3.9,-0.9l-3.5,-0.4l-2.3,0l-2.2,0.1l-2.6,0.5l-1.4,0.4l-1.2,0.6l-1.1,0.6l-1,0.9l-0.5,0.8l-0.2,0.9l-0.1,0.7l0.4,1.4l0.5,0.7l0.7,0.9l0.7,0.5l0.6,0.3l0.7,-0.2l0.5,0l0.4,0.2l0.4,0.3l0.3,0.4l0.1,0.5z" />
   <path d="m484.73,199.34l0,-0.49l0.2,-0.49l0.4,-0.29l1.39,-0.98l2.28,-0.88l6.95,-2.06l7.84,-1.86l7.64,-1.37l8.44,-1.18l8.24,-0.78l5.76,-0.2l5.06,0.2l2.88,0.29l1.29,0.2l2.28,0.49l1.99,0.78l0.99,0.78l0.3,0.2l1.19,1.47l0.3,0.59l0.2,1.37l0,0.78l-0.5,0.59l-0.69,0.59l-0.5,0.2l-0.4,0.1l-0.5,-0.1l-0.5,-0.29l-0.3,-0.39l-0.1,-0.39l0,-0.49l0.2,-0.49l0.3,-0.39l0,-0.2l-0.79,-0.98l-0.69,-0.49l-1.39,-0.49l-1.99,-0.49l-1.19,-0.2l-2.58,-0.2l-4.86,-0.2l-5.56,0.2l-8.14,0.78l-8.24,1.08l-7.54,1.37l-7.74,1.86l-6.75,1.96l-1.99,0.78l-0.99,0.69z" />
   <path d="m523.35,208.28l0.19,-0.48l0.48,-0.19l1.24,-0.1l2.01,-0.48l2.39,-0.97l4.78,-2.22l3.73,-1.93l3.54,-2.03l4.78,-3.29l2.2,-1.74l0.29,0l0.38,0.19l0.19,0.19l0.1,0.48l-0.29,0.39l-2.01,1.55l-4.88,3.39l-1.82,1.06l-3.73,2.03l-3.54,1.84l-3.25,1.45l-2.49,0.87l-2.1,0.58l-1.43,0.19l-0.48,-0.19l-0.29,-0.39l0,-0.19z" />
  </g>

 </g>


</svg>