<svg xmlns="http://www.w3.org/2000/svg">

  <defs>

    <path d="m88.95,430.6l-0.4,0.9l-1,0.3l-11.4,0.2l-2.4,-0.1l-2.8,-0.4l-0.7,-0.7l-0.2,-0.5l0.1,-0.5l0.5,-0.8l2,-1.4l0.6,-0.3l21.5,-2.4l17.1,-1.6l16.8,-1.4l20.3,-1.6l14.6,-1.1l17.3,-1.2l15,-1l11.5,-0.8l19.7,-1.2l12.3,-0.8l21.3,-1.2l13.3,-0.7l22.7,-1.1l14.2,-0.6l14.4,-0.6l19.6,-0.6l25.3,-0.5l10,-0.2l15.1,-0.2l15,-0.1l9.9,-0.1l14.9,0.1l14.6,0.2l19.3,0.4l19,0.6l18.7,0.8l13.6,0.6l13,0.7l21.7,1.3l18.2,1.2l14.4,1l18.7,1.5l5.7,0.6l0.9,0.4l0.4,0.9l0,0.5l-0.6,0.8l-1,0.2l-5.7,-0.5l-18.6,-1.5l-14.4,-1l-18.2,-1.2l-21.6,-1.3l-13.1,-0.7l-13.5,-0.6l-18.7,-0.8l-19,-0.6l-19.3,-0.4l-14.6,-0.2l-14.8,-0.1l-9.9,0l-14.9,0.2l-15.1,0.1l-10.1,0.2l-25.2,0.6l-19.6,0.6l-14.4,0.6l-14.1,0.6l-22.8,1.1l-13.3,0.7l-21.2,1.2l-12.3,0.8l-19.7,1.2l-11.5,0.8l-15,1l-17.3,1.2l-14.6,1.1l-20.3,1.6l-16.8,1.4l-17.1,1.6l-20.9,2.4l-1.7,1.2l-0.7,-2.6l4.6,0.3l11.3,-0.2l1,0.4l0.4,0.8l0,0.5z" />

    <path id="buck_mask" d="m466.66,214.17c0.06,-5.93 -3.08,-12.92 -9.42,-19.38c-14.37,1.29 -36.56,4.01 -55.38,-4.67l16.51,-10.01l-3.07,-16.05c-4.82,-2.09 -7.32,-14.32 11.17,-16.41c15.48,3.92 64.6,3.21 96.63,-8.53l-0.16,60.16c7.48,-5.15 37.91,-22.58 42.18,-10.65c-1.18,7.77 -1.31,12.01 0.89,20.49l16.37,8.3l-26.73,19.19c1.71,32.22 4.64,66.7 4.83,99.12l-12.92,78.43c-66.38,-5.9 -88.42,4.94 -92.82,-22.88c6.59,-9.32 17.02,-25.31 13.47,-46.37c2.67,10.85 0.36,23.34 8.41,24.61c8.85,0.97 15.32,-14.01 18.64,-28.81c-3.58,-5.71 -0.41,-8.49 1.33,-10.62c-2.86,-9.33 -15.32,-31.75 -25.06,-27.93c-9.75,3.81 -9.23,21.99 -7.99,28.36c-8.76,-29.43 -12.59,-48.38 -25.85,-71.61c-49.06,3.07 -51.25,-20.83 28.95,-44.73z" />


    <path id="buck_black" d="m508,222.34l2.82,11.35c-13.81,4.2 -28.89,5.35 -41.98,6.13c1.7,-5.11 22.15,-14.71 39.17,-17.48z M463.54,405.79c3.99,-4.96 7.98,-9.92 11.96,-14.89c4.9,8.1 14.4,12.2 24.3,12.3c-2.9,-2.7 -17.36,-18.91 -26.46,-18.71c-9.9,-1.8 -28.5,5.5 -9.8,21.3z M466.08,214.62c-0.23,-6.67 -3.15,-13.71 -8.78,-20.02c13.75,-3.06 28.95,-6.31 43.42,-14.59l3.24,27.39l-37.88,7.23z" />
    <path id="buck_white" d="m441.46,222.07c18.81,-5.24 30.83,0.97 36.08,9.71l-11.02,8.05c11.81,0.3 29.84,-1.72 44.49,-5.51l5.97,16.1l12.67,-3.81c7.01,29.12 14.74,59.3 8.23,94.82l-18.82,70.43c-27.28,-5.7 -37.12,-37.56 -61.02,-24.58c6.59,-9.32 13.72,-21.31 10.17,-42.37c2.67,10.85 0.36,23.34 8.41,24.61c8.85,0.97 15.32,-14.01 18.64,-28.81c-3.58,-5.71 -0.41,-8.49 1.33,-10.62c-2.86,-9.33 -15.32,-31.75 -25.06,-27.93c-9.75,3.81 -9.23,21.99 -7.99,28.36c-8.76,-29.43 -12.59,-48.38 -25.85,-71.61c-49.06,3.07 -44.55,-17.13 3.75,-36.83z" />
    <path id="buck_lid" d="m402.18,189.32l16.91,-9.86l-4.14,-16.04c-9.37,-6.91 3.06,-15.8 11.35,-15.32c13.87,2.82 61.62,0.96 96.22,-8.29c-0.96,22.58 -1.2,38.86 0.36,59.64c6.55,-5.83 37.42,-21.38 41.26,-11.53c-0.72,8.95 -0.18,16.46 1.62,21.98l15.14,8.11c-16.82,14.95 -40.48,26.85 -63.96,31.89c-7.09,-21.68 -12.55,-44.44 -15.86,-70.45c-21.25,12.84 -69.35,24.59 -98.9,9.86z" />
    <path id="buck_logo" d="m468.55,342.73l-5.18,-14.91c0,0 -2.42,-21.72 8.44,-25.39c6.11,-4.07 22.66,13.84 24.69,27.27c-3.66,3.53 -2.04,10.18 -2.06,10.05c1.33,9.78 -8.25,29.84 -16.8,29.84c-8.55,0 -9.09,-26.87 -9.09,-26.87z" />

    <g id="buck_outline">
      <path d="m438.25,259l0.5,-0.1l0.5,0.1l0.4,0.2l0.3,0.4l1.9,3.2l2.2,4.4l4.5,11l4.8,13.6l6.3,18.5l6.6,21l2.9,9.6l0,0.5l-0.1,0.5l-0.3,0.4l-0.4,0.3l-0.4,0.1l-0.5,0l-0.5,-0.2l-0.4,-0.4l-0.2,-0.4l-2.9,-9.5l-6.6,-21l-6.2,-18.5l-4.8,-13.5l-4.5,-10.8l-2.1,-4.3l-1.7,-3l-0.2,-0.4l0,-0.5l0.1,-0.5l0.4,-0.4l0.4,-0.3z" />
      <path d="m555.35,234.7l0.5,0.1l0.4,0.3l0.3,0.3l0.2,0.5l1.7,17.1l1.1,17.2l0.8,21.8l0.5,18l0.4,21.9l0,5.4l-0.1,0.5l-0.2,0.4l-0.4,0.4l-0.5,0.1l-0.4,0l-0.5,-0.1l-0.4,-0.4l-0.2,-0.4l-0.1,-0.5l0,-5.4l-0.4,-21.8l-0.5,-18l-0.8,-21.7l-1.1,-17.2l-1.7,-16.9l0,-0.5l0.2,-0.5l0.3,-0.3l0.5,-0.3l0.4,0z" />
      <path d="m560.85,333.4l0.4,0.3l0.4,0.4l0.2,0.6l0,0.5l-4.1,23.5l-4.1,23.2l-3.8,23l-1.2,8.2l-0.2,0.6l-0.3,0.4l-0.5,0.3l-0.5,0.1l-0.6,0l-0.5,-0.3l-0.4,-0.4l-0.2,-0.6l0,-0.5l1.3,-8.2l3.7,-23.1l4.1,-23.3l4.1,-23.4l0.2,-0.5l0.4,-0.5l0.4,-0.3l0.6,-0.1l0.6,0.1z" />
      <path d="m465.55,342.5l0,-0.5l0.2,-0.4l0.4,-0.4l0.4,-0.2l4.5,-1.4l9.9,-3.9l19.6,-8l7,-3.1l0.5,-0.2l0.5,0.1l0.5,0.2l0.3,0.3l0.3,0.5l0,0.5l-0.1,0.5l-0.3,0.4l-0.4,0.3l-7.2,3.2l-19.6,8l-10,3.9l-4.7,1.5l-0.5,0l-0.5,-0.1l-0.4,-0.3l-0.3,-0.4l-0.1,-0.5z" />
      <path d="m469.95,343.3l0,0.5l-0.1,0.5l-0.4,0.4l-0.4,0.2l-0.9,0.3l-0.7,-2.6l9,-2.1l4.1,-0.8l8.7,-1.3l8.3,-0.8l4.8,-0.1l4.9,0.2l2.8,0.2l3.9,0.6l2.9,0.7l0.6,0.2l0.4,0.4l0.2,0.5l0,0.5l-0.1,0.4l-0.3,0.4l-0.4,0.3l-0.5,0.1l-0.5,0l-1.6,-0.4l-4.9,-0.8l-2.7,-0.2l-4.7,-0.2l-4.7,0.1l-8.1,0.7l-8.5,1.3l-4,0.8l-8.9,2.1l-1.5,0.4l-0.5,0l-0.5,-0.1l-0.4,-0.3l-0.3,-0.4l-0.1,-0.5l0,-0.5l0.2,-0.4l0.3,-0.4l0.5,-0.2l2.2,-0.8l0.5,-0.1l0.5,0.1l0.4,0.3l0.4,0.3l0.1,0.5z" />
      <path d="m469.55,348.1l0.5,0.2l0.4,0.2l0.2,0.5l0.2,0.5l0.2,4l-0.1,5l-0.1,1.3l-0.4,3.2l-0.8,4l-1.1,4.4l-1.4,3.9l-1.1,2.7l-1.4,2.8l-2.4,4.4l-1.7,2.7l-1,1.3l-0.3,0.4l-0.5,0.1l-0.5,0.1l-0.5,-0.2l-0.4,-0.3l-0.2,-0.4l-0.2,-0.5l0.1,-0.5l0.2,-0.4l0.9,-1.3l1.6,-2.5l2.4,-4.3l1.3,-2.6l1,-2.6l1.3,-3.7l1.1,-4.1l0.8,-3.9l0.4,-3.1l0.1,-1.1l0.1,-4.7l-0.3,-4l0,-0.5l0.3,-0.4l0.3,-0.4l0.5,-0.2l0.5,0z" />
      <path d="m446.05,237.4l0.3,-0.4l0.4,-0.3l0.5,-0.1l0.5,0l1.5,0.5l2.9,0.7l4.8,0.5l5.8,0.2l8.1,-0.2l12,-1l10.1,-1.4l9.1,-1.7l7.1,-1.6l0.5,0l0.5,0.1l0.4,0.3l0.2,0.4l0.2,0.5l-0.1,0.5l-0.2,0.5l-0.3,0.3l-0.5,0.2l-7.2,1.7l-9.3,1.7l-10.2,1.4l-12.2,1l-8.2,0.2l-6,-0.2l-5.1,-0.6l-3.1,-0.7l-1.6,-0.5l-0.5,-0.2l-0.3,-0.4l-0.2,-0.5l0,-0.5l0.1,-0.4z" />
      <path d="m502.35,176.7l0.5,0.3l0.3,0.4l0.2,0.4l0,0.6l-0.3,1.31l0.1,3.32l1.2,9.67l2.1,12.59l2.3,11.08l2.2,8.36l2.7,9.47l4.8,14.81l0.1,0.5l-0.1,0.5l-0.3,0.5l-0.4,0.3l-0.5,0.2l-0.5,0l-0.5,-0.2l-0.4,-0.3l-0.2,-0.5l-2.3,-6.65l-4.2,-13.6l-2.2,-8.46l-1.8,-7.45l-2.2,-10.78l-1.9,-12.69l-0.9,-7.05l-0.1,-3.73l0.3,-1.81l0.2,-0.5l0.4,-0.4l0.4,-0.2l0.5,-0.1l0.5,0.1z" />
      <path d="m517.12,249.47l0.1,-0.52l0.3,-0.41l0.41,-0.31l0.51,-0.1l1.32,-0.1l2.74,-0.62l5.89,-1.86l6,-2.28l14.03,-6.22l7.01,-3.42l5.18,-2.8l3.35,-1.97l4.27,-2.8l6.71,-4.56l5.69,-4.45l0.41,-0.21l0.51,-0.1l0.51,0.1l0.41,0.31l0.3,0.31l0.2,0.52l0,0.52l-0.2,0.52l-0.3,0.41l-5.79,4.45l-6.81,4.66l-4.37,2.8l-3.46,2.07l-5.29,2.9l-7.11,3.42l-14.13,6.22l-7.72,2.9l-4.47,1.35l-3.05,0.73l-1.52,0.21l-0.51,-0.1l-0.51,-0.21l-0.3,-0.31l-0.3,-0.52l0,-0.52z" />
      <path d="m564.65,206.4l0.5,0l0.5,0.2l0.3,0.3l0.3,0.4l0.3,0.9l0.9,0.9l3.1,2.5l2.5,1.6l2.6,1.2l1.8,0.6l1.2,0.3l1.8,0.3l1.3,0l0.5,0.1l0.4,0.3l0.3,0.4l0.2,0.5l0,0.5l-0.2,0.5l-0.4,0.3l-0.4,0.3l-0.5,0l-1.4,-0.1l-2.1,-0.3l-1.4,-0.3l-2.1,-0.7l-1.7,-0.8l-2.3,-1.2l-2.8,-1.9l-2.3,-1.9l-1.2,-1.3l-0.4,-0.5l-0.4,-1.2l-0.1,-0.5l0.1,-0.5l0.2,-0.4l0.4,-0.3l0.5,-0.2z" />
      <path d="m414.25,163l0.5,-0.1l0.5,0.1l0.4,0.2l0.4,0.4l1.4,2.4l1.2,2.6l0.8,2.1l0.6,2.7l0.3,1.8l0.1,2.5l-0.2,3l-0.1,1.1l-0.2,0.5l-0.3,0.3l-0.4,0.3l-0.5,0.1l-0.5,-0.1l-0.5,-0.2l-0.3,-0.4l-0.2,-0.5l0,-0.5l0.2,-1l0.1,-2.7l-0.1,-2.2l-0.5,-2.7l-1,-3.1l-1,-2.3l-1.4,-2.2l-0.1,-0.4l-0.1,-0.5l0.2,-0.5l0.3,-0.4l0.4,-0.3z" />
      <path d="m530.85,249.7l0.5,0.1l0.3,0.4l2.5,10.4l2.2,11l1.5,9.6l1,7.1l0.9,8.4l0.7,9.1l0.4,8.2l0,4.6l-0.1,4.4l-0.6,6.4l-0.6,4.3l-0.3,0.5l-0.4,0.1l-0.3,0l-0.4,-0.3l0,-0.5l0.6,-4.3l0.5,-6.3l0.2,-4.3l0,-4.6l-0.4,-8.1l-0.8,-9.1l-0.9,-8.4l-0.9,-7l-1.5,-9.6l-2.2,-10.8l-2.5,-10.5l0,-0.4l0.4,-0.4l0.2,0z" />
      <path d="m530.15,337.2l0.4,-0.2l0.5,0.2l0.9,0.9l1.2,0.2l3.3,-0.1l5.7,-0.4l1.5,-0.1l1.7,0.2l0.5,0.2l0.2,0.4l0,1.6l-0.1,0.5l-1.9,1l-1.4,0.5l-1.5,0.4l-1.9,0.1l-6.4,-0.3l-3.4,0.2l-0.1,0.1l0.1,-0.7l7.8,0.6l3.9,0.6l1.6,0.4l1.7,0.6l0.2,0.2l0.2,0.2l0,1.9l-0.3,0.4l-0.2,0.1l-0.3,0l-0.4,-0.3l-0.1,-0.2l-0.1,-1.1l-1.2,-0.4l-1.4,-0.4l-3.8,-0.6l-7.8,-0.6l-1.6,-0.4l-0.4,-0.4l-0.1,-0.2l0.1,-0.5l0.2,-0.2l1.8,-0.5l1.7,-0.2l1.9,0l6.4,0.3l1.7,-0.2l1.3,-0.3l1.3,-0.4l1.1,-0.6l0,-0.4l-1.1,-0.1l-1.4,0l-5.6,0.4l-3.4,0.1l-1.6,-0.2l-0.5,-0.2l-1,-1l-0.2,-0.5l0.1,-0.4l0.2,-0.2z" />
      <path d="m536.65,345.3l0.3,0.3l0.1,0.5l-2.9,11l-2.5,10.1l-1.9,8l-2.4,10.1l-1.4,5.7l-0.3,0.4l-0.4,0.2l-0.3,-0.1l-0.3,-0.3l-0.1,-0.5l1.4,-5.8l2.4,-10.1l1.9,-7.9l2.5,-10.2l2.9,-10.9l0.3,-0.4l0.5,-0.2l0.2,0.1z" />
      <path d="m504.85,208.2l-0.2,0.4l-0.4,0.3l-0.5,0.2l-0.5,0l-1.8,-0.2l-1.6,0.1l-14,2.6l-17.6,4.1l-12,3.4l-9.4,3.1l-8.5,3.2l-9.3,4l-8.4,4.3l-5.4,3.3l-3,2.3l-2.5,2.2l-2.1,2.1l-1.2,1.5l-0.9,1.4l-0.9,2.2l-0.1,1.7l0.7,1.9l1.2,1.1l1.9,1l2.6,1l2.2,0.6l4.2,0.8l3,0.3l5.5,0.3l7.6,-0.2l5.6,-0.4l5.9,-0.5l18.3,-2.4l15.2,-2.5l17.4,-3.5l0.5,0l0.5,0.1l0.4,0.3l0.2,0.5l0.2,0.4l-0.1,0.5l-0.2,0.5l-0.4,0.3l-0.5,0.2l-17.5,3.5l-15.2,2.6l-18.5,2.4l-6,0.5l-5.7,0.4l-7.7,0.2l-5.7,-0.3l-3.1,-0.3l-4.5,-0.9l-2.4,-0.6l-2.9,-1.1l-2.4,-1.3l-1.7,-1.6l-0.4,-0.5l-1,-2.5l-0.1,-0.7l0.2,-2.3l1.1,-2.9l1.1,-1.8l1.4,-1.7l2.2,-2.4l2.7,-2.3l3.2,-2.4l5.6,-3.5l8.6,-4.4l9.5,-4.1l8.6,-3.2l9.6,-3.2l12.1,-3.4l17.7,-4.1l14.2,-2.6l2,-0.2l2.2,0.3l0.5,0.1l0.4,0.3l0.3,0.5l0.1,0.5l-0.1,0.5z" />
      <path d="m425.85,147.6l0.3,-0.4l0.4,-0.2l0.5,-0.2l0.5,0.1l1.3,0.3l2.8,0.5l7.3,0.7l5.7,0.2l5,-0.1l12,-0.6l11.7,-1.1l13.3,-1.7l17,-2.4l11.6,-2.2l7.5,-1.6l0.5,0l0.5,0.1l0.4,0.3l0.3,0.5l0.1,0.5l0,0.5l-0.3,0.4l-0.3,0.3l-0.5,0.2l-7.7,1.7l-11.7,2.1l-17,2.5l-13.4,1.7l-11.7,1.1l-12.2,0.6l-5.2,0.1l-5.7,-0.2l-7.6,-0.7l-3,-0.5l-1.5,-0.4l-0.4,-0.3l-0.4,-0.3l-0.2,-0.5l0,-0.5l0.1,-0.5z" />
      <path d="m564.65,189.3l0.4,0.2l0.4,0.4l0.1,0.5l0,0.5l-0.3,2.5l-0.1,3.1l0.1,3.4l0.4,4.3l1.5,9.3l0,0.5l-0.2,0.4l-0.3,0.4l-0.5,0.3l-0.4,0.1l-0.5,-0.1l-0.5,-0.3l-0.3,-0.3l-0.2,-0.5l-1.5,-9.4l-0.4,-4.4l-0.1,-3.7l0.1,-3.4l0.4,-2.7l0.2,-0.5l0.3,-0.3l0.4,-0.3l0.5,-0.1l0.5,0.1z" />
      <path d="m456.55,193.8l0.5,-0.3l0.6,-0.1l0.5,0.1l0.5,0.3l1.6,1.4l2.6,3.1l1.2,1.9l1.2,2.2l0.9,1.8l0.8,2.2l0.6,2.6l0.4,2.6l0,2l-0.1,0.7l-0.3,0.5l-0.5,0.3l-0.5,0.2l-0.6,0l-0.5,-0.3l-0.4,-0.3l-0.2,-0.5l-0.2,-2.4l-0.3,-2.3l-0.5,-2.2l-0.7,-1.9l-0.8,-1.6l-1.1,-2l-1.1,-1.7l-2.2,-2.7l-1.4,-1.2l-0.3,-0.4l-0.2,-0.5l0,-0.6l0.2,-0.5l0.3,-0.4z" />
      <path d="m495.45,182.9l0.2,-0.5l0.4,-0.2l1.2,-0.1l1.9,-1.5l3.3,-3.1l2.4,-2.6l1.5,-1.8l0.9,-1.2l1.8,-3.1l1,-2l1.1,-2.7l1.4,-4.5l0.8,-2.8l0.2,-1.5l0.3,-0.4l0.5,-0.2l0.2,0.1l0.4,0.3l0.1,0.5l-0.3,1.5l-0.8,2.9l-1.5,4.6l-1.1,2.8l-1,2l-1.9,3.3l-1,1.3l-1.5,1.9l-2.4,2.6l-3.4,3.2l-2.2,1.6l-0.3,0.2l-1.4,0.1l-0.5,-0.1l-0.3,-0.4l0,-0.2z" />
      <path d="m497.35,182.4l-0.2,-0.4l0.1,-0.5l3.3,-4.7l1.5,-2.7l0.8,-1.7l1,-2.6l1.4,-4.8l0.6,-2.7l0.4,-0.4l0.5,0l0.4,0.4l0,0.4l-0.5,2.6l-1.4,4.9l-1.1,2.8l-0.8,1.7l-1.6,2.8l-3.3,4.8l-0.4,0.3l-0.5,0l-0.2,-0.2z" />
      <path d="m418.05,179.1l0.2,0.5l0,0.5l-0.1,0.4l-0.3,0.5l-1,0.9l-2.6,2l-4,2.5l-6.2,3.2l-2.3,1l-0.5,0.1l-0.5,0l-0.4,-0.3l-0.4,-0.3l-0.2,-0.5l0,-0.5l0.2,-0.5l0.3,-0.4l0.4,-0.2l2.2,-1l6,-3.1l3.8,-2.4l2.4,-1.8l0.8,-0.8l0.4,-0.3l0.5,-0.1l0.5,0l0.5,0.2l0.3,0.4z" />
      <path d="m401.65,191l-0.2,-0.5l0,-0.5l0.2,-1.1l0.2,-0.5l0.3,-0.3l0.5,-0.3l0.5,-0.1l0.5,0.1l0.4,0.3l1.7,1.6l1,0.6l1.7,0.8l1.7,0.6l2.8,0.9l2.7,0.6l6.5,0.9l5.5,0.4l4.6,0.2l6.8,-0.1l7.1,-0.4l5.5,-0.6l2.8,-0.4l7.5,-1.4l7.4,-1.6l5.3,-1.3l2.5,-0.8l6.5,-2.1l4,-1.5l5.9,-2.6l4.6,-2.2l0.4,-0.1l0.5,0l0.5,0.2l0.4,0.3l0.2,0.4l0.1,0.5l-0.1,0.5l-0.3,0.5l-0.4,0.3l-4.7,2.3l-6,2.5l-4.1,1.6l-6.6,2.2l-2.6,0.7l-5.4,1.4l-7.5,1.7l-7.7,1.4l-2.8,0.3l-5.6,0.7l-7.3,0.4l-6.9,0.1l-4.7,-0.2l-5.7,-0.4l-6.7,-1l-2.8,-0.6l-3.1,-0.9l-1.9,-0.7l-1.9,-0.9l-3.8,-1.9z" />
      <path d="m467.41,240.63l-0.42,-0.31l-0.21,-0.41l0,-0.51l0.1,-0.41l0.62,-1.63l0.42,-0.51l2.49,-1.74l4.26,-2.45l6.44,-2.86l7.69,-2.96l7.9,-2.55l10.7,-2.76l0.52,-0.1l0.42,0.2l0.42,0.31l0.31,0.41l0.1,0.41l-0.1,0.51l-0.21,0.41l-0.42,0.31l-0.42,0.2l-10.49,2.76l-7.79,2.45l-7.58,2.96l-6.23,2.76l-4.05,2.35l-1.87,1.33l-0.52,1.23l-0.31,0.41l-0.42,0.31l-0.42,0.1l-0.52,0l-0.42,-0.2z" />
      <path d="m422.65,182.8l0.4,-0.3l0.5,0.1l1.1,0.8l1.3,0.4l2.8,0.7l3.4,0.5l6.1,0.3l7.4,-0.1l11.4,-0.7l9.3,-0.9l9.4,-1.3l8.2,-1.4l8.9,-1.9l0.5,0.1l0.3,0.3l0.1,0.3l-0.2,0.4l-0.4,0.3l-8.9,1.9l-8.2,1.5l-9.5,1.2l-9.4,1l-11.4,0.7l-7.5,0l-6.2,-0.3l-3.6,-0.5l-2.9,-0.7l-1.4,-0.5l-1.4,-0.9l-0.3,-0.3l0.1,-0.5l0.1,-0.2z" />
      <path d="m507.25,172.3l0.5,0.4l0.1,0.5l-0.1,1.3l0,4.9l0.7,9.9l1.3,10.8l1.2,7.1l1.6,7.5l2,7.3l2.7,8l2.8,6.9l0.7,1.9l-0.1,0.5l-0.2,0.2l-0.3,0.1l-0.5,-0.1l-0.4,-0.3l-2.3,-5.6l-2.5,-6.8l-1.4,-4.4l-2,-7.3l-1.7,-7.6l-1.2,-7.2l-1.3,-10.9l-0.7,-9.9l0,-5l0.1,-1.5l0.3,-0.5l0.5,-0.2l0.2,0z" />
      <path d="m523.35,140.1l0.5,0.2l0.3,0.4l0.2,0.5l0,0.5l-0.9,9.8l-0.6,13.2l0,5l0.2,11.9l0.8,18.3l0,0.5l-0.2,0.4l-0.4,0.4l-0.4,0.2l-0.5,0l-0.5,-0.1l-0.4,-0.3l-0.3,-0.4l-0.1,-0.5l-0.9,-18.4l-0.2,-12l0.1,-5.1l0.5,-13.3l0.9,-10.1l0.2,-0.4l0.3,-0.4l0.5,-0.3l0.4,-0.1l0.5,0.1z" />
      <path d="m522.25,198.9l0.4,0.2l0.2,0.4l0.5,7.6l0.7,9.5l0.5,4.7l-0.1,0.4l-0.4,0.2l-0.2,0.1l-0.4,-0.2l-0.2,-0.4l-0.4,-4.6l-0.8,-9.6l-0.5,-7.6l0.2,-0.4l0.3,-0.3l0.2,0z" />
      <path d="m521.65,240.9l0.3,-0.4l0.4,-0.2l1.5,0l1.2,-0.2l1.7,-0.5l3.3,-1.3l5.8,-3.1l9.2,-5.6l7.9,-5.3l5,-3.8l2.5,-2.2l1.9,-1.8l0.5,-0.1l0.3,0.1l0.2,0.2l0.1,0.5l-0.2,0.4l-1.8,1.8l-2.5,2.3l-5.1,3.8l-8,5.3l-9.3,5.7l-5.9,3.1l-2,0.9l-1.4,0.5l-1.8,0.5l-1.4,0.3l-1.7,0l-0.4,-0.2l-0.3,-0.4l0,-0.3z" />
      <path d="m522.05,201.1l-0.3,-0.4l-0.1,-0.5l0,-0.5l0.2,-0.5l0.7,-1.1l0.3,-0.4l2,-1.5l2.6,-1.7l5.4,-3l5.5,-2.5l6.4,-2.5l4.7,-1.4l3.4,-0.9l4.1,-0.6l2.8,-0.2l2,0.2l1.6,0.3l0.6,0.3l1.5,1.2l0.4,0.6l0.4,1.1l0.1,0.9l-0.3,1.2l-0.3,0.6l-0.6,0.4l-0.5,0.2l-0.5,0.1l-0.5,0l-0.4,-0.3l-0.3,-0.3l-0.2,-0.5l-0.1,-0.5l0.2,-0.5l0.3,-0.4l0.2,-0.1l0.1,-0.2l-0.1,-0.3l-1,-0.7l-1.1,-0.3l-1.6,-0.1l-2.4,0.2l-3.9,0.6l-3.1,0.8l-4.6,1.4l-6.2,2.4l-5.3,2.4l-5.2,2.9l-2.5,1.5l-1.6,1.3l-0.6,1l-0.3,0.3l-0.5,0.3l-0.5,0.1l-0.4,-0.2l-0.5,-0.2z" />
      <path d="m527.25,215.7l0.2,-0.4l0.5,-0.2l1.3,0.1l2,-0.6l2.6,-1.3l9.7,-5.7l6.2,-4.3l3,-2.4l1.7,-1.6l2.4,-2.6l1.8,-2.3l0.5,-0.2l0.2,0.1l0.3,0.1l0.2,0.4l-0.1,0.5l-1.8,2.3l-2.4,2.7l-1.8,1.6l-1.1,1l-3.3,2.5l-5,3.4l-4.8,2.9l-6.7,3.7l-2.2,0.9l-1.2,0.3l-1.6,0l-0.5,-0.2l-0.2,-0.5l0.1,-0.2z" />
      <path d="m523.25,213.2l0.4,-0.3l0.5,0.1l2.2,1.1l1,0.6l1,0.8l0.9,1l0.9,1.4l0.5,1.4l0.2,1.8l-0.1,1.4l-0.1,1l-0.3,0.5l-0.4,0.1l-0.3,0l-0.2,-0.1l-0.3,-0.5l0.2,-1.2l0,-1.1l-0.2,-1.6l-0.3,-1.1l-0.8,-1.1l-0.7,-0.9l-0.8,-0.6l-1,-0.6l-2.1,-1l-0.3,-0.4l0,-0.5l0.1,-0.2z" />
      <path d="m428.25,148.3l-0.2,0.5l-0.3,0.4l-0.4,0.2l-0.5,0.1l-1.3,0l-1.1,0.1l-1.3,0.3l-1.6,0.5l-2.5,1.1l-1.3,0.7l-1.7,1.2l-1.1,1l-0.7,0.8l-0.7,1l-0.4,1.3l0,0.9l0.6,1.7l0.5,0.7l1,1.2l0.8,0.6l0.5,0.3l0.4,0.4l0.2,0.4l0.1,0.5l-0.1,0.5l-0.3,0.4l-0.3,0.3l-0.5,0.2l-0.5,0l-0.5,-0.2l-0.6,-0.3l-1.1,-0.9l-1.4,-1.6l-0.7,-1.1l-0.9,-2.5l-0.1,-0.5l0.1,-1.3l0.6,-2.1l0.9,-1.5l1,-1.2l1.3,-1.2l1.9,-1.4l1.6,-0.9l1.3,-0.6l1.6,-0.6l1.9,-0.6l1.5,-0.3l1.4,-0.2l1.5,0l0.5,0.1l0.4,0.3l0.3,0.3l0.2,0.5l0,0.5z" />
      <path d="m481.25,410.9l-0.1,0.5l-0.2,0.4l-12.8,-1.2l-3.1,-1.6l-2.3,-1.5l-1.6,-1.2l-1.4,-1.1l-1.5,-1.5l-1.7,-2.2l-1,-1.7l-0.7,-1.5l-0.6,-2l-0.2,-2.6l0.3,-1.9l0.5,-1.6l0.9,-1.7l1.1,-1.4l1.6,-1.4l1.6,-0.9l2.2,-0.9l1.9,-0.5l2.5,-0.4l1.4,-0.1l2.3,0.1l2.7,0.3l1.4,0.3l2.3,0.5l2.7,1.1l3.5,1.8l2.4,1.6l3.2,2.4l10.8,9.7l3.2,2.6l2.5,1.8l2.1,1.3l2.5,1.3l2.3,0.9l3.8,1.3l1.4,0.3l2.7,0.6l0.4,0.3l0.2,0.4l0.2,0.5l-0.1,0.5l-0.2,0.4l-0.4,0.3l-0.4,0.2l-1,0l-2,-0.4l-1.5,-0.3l-4.1,-1.4l-2.4,-1l-2.8,-1.4l-2.3,-1.4l-2.6,-1.8l-3.4,-2.7l-10.8,-9.8l-2.9,-2.2l-2.3,-1.5l-3.2,-1.7l-2.4,-0.9l-2,-0.5l-2.5,-0.5l-3.3,-0.1l-1.1,0l-2.2,0.4l-1.6,0.5l-1.9,0.8l-1.3,0.7l-1.1,1l-0.8,0.9l-0.6,1.3l-0.3,1.1l-0.2,1.4l0.1,2l0.5,1.4l0.5,1.2l0.9,1.5l1.5,1.8l1.3,1.3l1.2,1l1.5,1.1l2.1,1.3l2.8,1.5l2.6,1.1l1.3,0.3l1.5,0.4l1,0.1l1.5,0l1.2,-0.1l1,-0.2l0.5,-0.1l0.5,0.2l0.4,0.3l0.3,0.4l0.1,0.5z" />
      <path d="m477.65,386.1l0.3,0.4l0.1,0.4l0,0.5l-0.2,0.5l-0.6,0.9l0,0.7l0.1,1.1l0.4,1.2l0.8,1.4l0.8,1l1.5,1.5l2.1,1.4l2.8,1.5l1,0.5l3.1,1l4,0.9l2.8,0.5l2,0.1l0.5,0.2l0.4,0.2l0.3,0.4l0.2,0.5l0,0.5l-0.2,0.5l-0.4,0.3l-0.4,0.3l-1,0l-1.8,-0.2l-3,-0.5l-4.2,-0.9l-3.3,-1.1l-2.3,-1l-2,-1.2l-2.4,-1.6l-1.8,-1.8l-1.1,-1.4l-0.9,-1.8l-0.6,-1.7l-0.3,-1.6l0.1,-1.5l0.2,-0.7l0.8,-1.2l0.3,-0.3l0.5,-0.3l0.5,0l0.4,0.1l0.5,0.3z" />
      <path d="m427.25,165.2l0.4,-0.2l0.5,0l1,0.6l1.7,0.5l3,0.4l3.5,0.3l6.2,0.1l7.3,-0.3l8.8,-0.9l6.7,-0.9l7.9,-1.5l7,-1.6l6.8,-2l4.3,-1.6l6.5,-2.6l5.4,-2.6l0.5,0l0.4,0.2l0.1,0.3l0,0.4l-0.3,0.4l-5.5,2.6l-6.6,2.7l-4.3,1.5l-6.9,2.1l-7.1,1.6l-7.9,1.5l-6.9,1l-8.8,0.9l-7.4,0.3l-6.2,-0.1l-3.7,-0.3l-3.1,-0.5l-1.9,-0.5l-1.2,-0.7l-0.3,-0.4l-0.1,-0.5l0.2,-0.2z" />
      <path d="m521.45,238.3l0.3,0.4l0,0.5l-0.4,1.1l-0.8,3.2l-0.1,0.2l-0.5,0.1l-0.3,0l-0.3,-0.3l-0.1,-0.5l0.7,-3.1l0.4,-1.2l0.4,-0.4l0.5,-0.1l0.2,0.1z" />
      <path d="m495.95,332.1l0.3,0.4l0.1,0.5l-0.1,0.5l-0.2,0.4l-0.6,0.8l-0.3,0.9l-0.1,0.8l0,0.7l0.4,0.8l0.6,0.6l0.3,0.3l0.2,0.5l0,0.5l-0.2,0.5l-0.3,0.4l-0.5,0.2l-0.5,0.1l-0.4,-0.1l-0.5,-0.3l-0.8,-0.7l-0.3,-0.5l-0.7,-1.3l-0.1,-0.5l-0.1,-1.1l0.2,-1.5l0.5,-1.5l0.2,-0.5l0.7,-0.9l0.4,-0.3l0.5,-0.2l0.5,0l0.5,0.2l0.3,0.3z" />
      <path d="m469.65,344.4l0.4,0.2l0.4,0.4l0.2,0.4l0,0.5l-0.2,1.4l0.3,7.2l0.1,2l0.5,2.7l0.4,2.1l0.4,1.6l0.7,1.6l1.1,1.8l0.9,0.9l0.8,0.6l0.9,0.3l1.6,-0.1l1.4,-0.6l1.2,-0.7l1.6,-1.2l0.8,-0.8l2.3,-2.7l1.6,-2.2l2,-3.3l0.6,-1.3l1.4,-3.6l0.9,-2.5l0.7,-3l0.4,-3.3l0.2,-3.1l0.3,-0.4l0.3,-0.4l0.5,-0.2l0.5,0l0.5,0.2l0.4,0.3l0.2,0.4l0.1,0.7l-0.1,2.8l-0.5,3.6l-0.7,3.1l-0.9,2.8l-1.6,3.8l-1.4,2.7l-1.3,2.2l-1.8,2.5l-2.5,2.9l-0.9,0.9l-1.9,1.5l-1.6,0.9l-1.9,0.7l-0.4,0.1l-2.1,0.2l-0.6,-0.1l-1.4,-0.5l-1.3,-0.9l-1.4,-1.3l-1.4,-2.3l-0.9,-2.1l-0.5,-1.8l-0.5,-2.2l-0.4,-3l-0.2,-2.1l-0.3,-7.4l0.2,-1.7l0.2,-0.5l0.3,-0.4l0.4,-0.3l0.5,-0.1l0.5,0.1z" />
      <path d="m476.75,390.5l0.1,0.5l-0.2,0.5l-0.9,0.8l-6.8,7.9l-5.7,6.3l-0.5,0.2l-0.4,-0.1l-0.2,-0.2l-0.2,-0.4l0.2,-0.5l5.7,-6.2l6.8,-8l1,-0.9l0.4,-0.2l0.5,0.2l0.2,0.1z" />
      <path d="m477.95,394.4l0.2,0.4l-0.1,0.5l-5.6,7l-4.9,6.1l-0.4,0.3l-0.5,-0.1l-0.2,-0.2l-0.1,-0.4l0.1,-0.5l3.2,-4.1l7.2,-9l0.4,-0.2l0.5,0l0.2,0.2z" />
      <path d="m480.95,398.9l0.1,0.5l-0.2,0.5l-1,0.9l-3.8,4.9l-2.4,3.2l-0.4,0.3l-0.5,-0.1l-0.2,-0.1l-0.2,-0.5l0.1,-0.4l4.7,-6.3l1.6,-1.9l1.1,-1.1l0.5,-0.2l0.4,0.2l0.2,0.1z" />
      <path d="m486.05,399.2l0.3,0.4l-0.1,0.5l-2.2,3.9l-3.7,5.4l-0.4,0.3l-0.5,-0.1l-0.2,-0.1l-0.2,-0.5l0.2,-0.4l3.5,-5.4l2.2,-3.8l0.4,-0.3l0.5,0l0.2,0.1z" />
      <path d="m465.15,331.5l-0.5,0l-0.5,-0.1l-0.4,-0.3l-0.3,-0.4l-0.6,-1.2l-0.4,-1.3l-0.4,-1.5l-0.3,-1.6l-0.2,-1.9l-0.1,-3.2l0.2,-2.1l0.5,-2.9l0.7,-2.4l1.2,-3.1l1.2,-2.3l1.2,-1.7l0.8,-1l1.6,-1.7l1.6,-1.1l1.7,-0.8l0.5,-0.1l1.8,-0.1l2.2,0.2l1.8,0.7l2.1,1.1l1.1,0.9l2.7,2.6l2,2.2l2.5,3.2l3.1,4.8l2.5,4.6l1.4,3l1.2,2.9l0.6,1.9l0,0.5l-0.1,0.4l-0.3,0.5l-0.4,0.3l-0.5,0.1l-0.5,0l-0.4,-0.3l-0.4,-0.3l-0.2,-0.5l-0.6,-1.7l-1,-2.7l-1.3,-2.9l-2.5,-4.4l-2.9,-4.5l-2.4,-3.1l-1.9,-2l-2.5,-2.5l-0.9,-0.6l-1.7,-1l-1.3,-0.4l-1.6,-0.2l-1.1,0.2l-1.3,0.6l-1.1,0.8l-1.4,1.4l-1.7,2.3l-0.5,0.9l-1.2,2.8l-0.9,3.2l-0.6,2.7l-0.1,1.7l0.1,2.9l0.1,1.8l0.3,1.4l0.7,2.3l0.5,0.9l0.1,0.5l0,0.5l-0.2,0.5l-0.4,0.3l-0.4,0.3z" />

    </g>


    <g id="buck_ikon">
      <use href="#buck_black" fill="var(--outline-color, #000)"/>
      <use href="#buck_white" fill="var(--cup-color, rgba(255,255,255,0.3))" />
      <use href="#buck_lid" fill="pat(dots,1,1.3)" />
      <use href="#buck_logo" fill="var(--logo-color, #070)" />
      <use href="#buck_outline" fill="var(--outline-color, #000)" />
    </g>



    <path id="packi_mask" d="m353.78,197.26c24.33,-61.63 -9.09,-141.01 -69.92,-148.09c-14.25,-0.82 -29.55,6.06 -30.08,5.38c-0.53,-0.68 -80.36,5.49 -84.09,3.79c-0.24,0.48 -30.2,20.91 -54.17,61.57c0.2,0.63 -52.4,7.03 -63.02,1.89c-5.04,6.01 -43.94,96.77 -2.72,180.04l-20.45,-6.06c-3.85,46.36 12.94,95.79 42.83,95.75c5.34,-4.33 11.19,-9.33 25.48,-15.73c9.02,11.18 25.83,37.4 44.02,46.5c14.79,-2.38 151.63,-9.41 182.59,-10.94c13.09,-2.81 25.53,-8.41 27.05,-30.38c0.66,-47.08 8.39,-142.76 9.99,-179.38l-7.49,-4.35zm-257.75,135.55c-18.72,-15.76 -43.08,-118.5 -21.22,-171.34l22.71,47.79c4.74,40.79 5.22,118.68 -1.5,123.55zm-9.29,36.2c-17.14,0.34 -38.13,-16.57 -35.5,-64.04c9.42,14.63 17.41,24.64 30.23,32.68c4.72,8.47 8.02,19.91 5.27,31.35z" />
    <path id="packi_color" d="m174.88,199.1c-33.79,-28.51 24.04,-141.64 108.83,-148.71c-14.25,-0.82 -29.55,6.06 -30.08,5.38c-0.53,-0.68 -80.36,5.49 -84.09,3.79c-0.24,0.48 -57.32,41.82 -72.25,109.03c-14.49,-36.09 -46.19,-45.51 -44.95,-45.57c-5.04,6.01 -43.94,96.77 -2.72,180.04l-20.45,-6.06c-3.85,46.36 12.94,95.79 42.83,95.75c5.34,-4.33 10.79,-10.63 25.08,-17.03c9.02,11.18 26.23,38.7 44.42,47.8c16.89,-1.88 40.38,-3.78 71.34,-5.31c-10.32,-3.75 -23.56,-8.61 -31.72,-30.38c-0.1,-29.89 0.11,-59.32 -0.54,-90.15c-0.65,-30.83 -2.16,-63.07 -5.7,-98.58zm-79,134.93c-18.72,-15.76 -43.08,-118.5 -21.22,-171.34l22.71,47.79c4.74,40.79 5.22,118.68 -1.5,123.55zm-9.29,36.2c-17.14,0.34 -38.13,-16.57 -35.5,-64.04c9.42,14.63 17.41,24.64 30.23,32.68c4.72,8.47 8.02,19.91 5.27,31.35zm-3.55,12.19c2.84,-5.48 9.97,-20.66 2.21,-41.34c4.87,-2.31 9.94,-5.21 14.62,-12.02l-2.7,46.02c-2.61,0.55 -8.62,2.39 -14.13,7.34z" />
    <path id="packi_logo" d="m261.44,307.28c16.22,-1.96 47.08,-3.23 71.66,4.56l-1.74,27.87l-67.6,1.05l-2.33,-33.48z" />

    <g id="packi_outline">

      <path d="m169.55,60.3l0.3,-0.9l0.8,-0.6l2.5,-0.6l18.1,-1.6l23,-1.1l19.7,-1.2l21.8,-2.3l1,0.2l0.6,0.8l0.1,0.5l-0.4,0.9l-0.9,0.4l-22,2.4l-19.7,1.2l-23,1.1l-17.8,1.6l-2.3,0.5l-1,-0.1l-0.7,-0.7l-0.1,-0.5z" />
      <path d="m172.35,193.6l-1,0l-0.8,-0.6l-1.3,-2.4l-2.3,-5.2l-1.3,-4.8l-0.5,-2.7l-0.3,-3.7l0,-2.9l0.1,-4.5l0.9,-6.8l1.8,-7.8l1.7,-5.4l3.2,-8.5l4.6,-10.2l5.7,-10.8l5.2,-8.3l3.9,-5.6l4.3,-5.5l8.2,-9.5l6.1,-6.4l7.8,-7.1l6.8,-5.5l4.2,-3.1l5.9,-3.7l6,-3.4l6.1,-2.9l4.7,-2l7.6,-2.7l4.5,-1.3l7.6,-1.5l4.6,-0.5l4.6,-0.3l6,0.4l6,0.9l5.9,1.5l4.3,1.5l6.9,2.9l4,2.2l6.4,4.3l3.7,2.9l3.5,3.2l4.5,4.6l3.2,3.7l4.9,6.3l2.7,4l4.2,6.8l4.4,8.4l3.2,7.2l1.6,4.4l3.1,9.9l1.7,6.9l1.8,10.4l0.8,9.6l-0.1,6.7l-0.8,9.5l-1.4,7.3l-0.7,2.5l-1,2.8l-0.3,0.7l-0.4,0.3l-1,0.1l-0.4,-0.2l-0.4,-0.3l-0.3,-1l1.1,-3.3l0.6,-2.3l1.4,-7.1l0.8,-9.2l0,-6.4l-0.7,-9.4l-1.8,-10.2l-1.7,-6.6l-3,-9.8l-1.6,-4.2l-3.1,-7.1l-4.3,-8.2l-4.1,-6.7l-2.7,-3.8l-4.8,-6.2l-3.1,-3.5l-4.3,-4.6l-3.4,-3l-3.6,-2.9l-6.1,-4l-3.8,-2.1l-6.6,-2.8l-4.2,-1.4l-5.6,-1.5l-5.8,-0.9l-5.7,-0.3l-4.3,0.2l-4.4,0.5l-7.3,1.5l-4.4,1.2l-7.4,2.7l-4.5,1.9l-6,2.9l-5.9,3.3l-5.7,3.6l-4.1,3l-6.6,5.4l-7.7,7l-6,6.2l-8,9.4l-4.3,5.5l-3.8,5.4l-5.1,8.2l-5.6,10.6l-3,6.3l-3.5,8.6l-2.8,8.7l-1.7,7.6l-0.9,6.5l-0.1,7l0.3,3.5l0.4,2.4l1.3,4.5l2.1,4.8l1.2,2.3l0.2,0.9l-0.5,0.9l-0.4,0.2z" />
      <path d="m175.55,204.9l0.9,0.4l0.5,0.9l1.8,21.4l1.4,22.4l1,21.7l0.7,22.5l0.3,15.8l0.2,17l0.1,22.9l-0.1,3.2l-0.7,0.8l-0.5,0.1l-0.5,0l-0.4,-0.2l-0.7,-0.7l0,-3.2l-0.1,-22.8l-0.2,-17.1l-0.3,-15.8l-0.7,-22.4l-1,-21.7l-1.3,-22.3l-1.9,-21.3l0.2,-0.9l0.8,-0.6l0.5,-0.1z" />
      <path d="m361.75,200.7l0.8,0.5l0.3,1l-1,19.6l-1.2,19l-1.5,21.5l-1.3,17l-1.6,21.2l-1.4,20.6l-0.9,17.6l-0.3,17.5l-0.4,1l-0.8,0.5l-0.5,0l-0.9,-0.5l-0.3,-0.9l0.3,-17.7l0.9,-17.7l1.4,-20.6l1.6,-21.2l1.3,-17l1.6,-21.5l1.1,-19l1.1,-19.6l0.3,-0.9l0.9,-0.4l0.5,0z" />
      <path d="m350.15,389.4l0.8,0.6l0.2,0.9l-0.4,2.8l-0.9,2.7l-1.4,2.3l-1.6,1.9l-2.1,1.9l-2,1.5l-3.1,2l-6.4,3.3l-6.1,2.6l-1,0l-0.8,-0.6l-0.1,-0.5l0.1,-1l0.3,-0.3l6.4,-2.9l6.2,-3.2l2.9,-1.8l1.8,-1.4l1.9,-1.7l1.4,-1.6l1.1,-1.9l0.6,-2l0.3,-2.4l0.5,-0.9l0.9,-0.4l0.5,0.1z" />
      <path d="m186.45,388.2l0.5,0.2l0.4,0.3l0.2,0.4l0.1,0.5l0,1.3l0.4,2.9l0.3,1.4l0.8,2.6l0.4,1.1l1.4,2.6l0.7,1.1l2.2,2.6l1.9,1.8l1.3,0.9l1.9,1.3l2.1,1.1l3,1.3l2.8,1.1l4.3,1.3l1.4,0.3l1.9,0.3l0.5,0.2l0.4,0.3l0.3,0.4l0.1,0.5l-0.1,0.5l-0.2,0.4l-0.4,0.4l-0.4,0.2l-0.5,0l-2.1,-0.4l-3.7,-0.9l-2.4,-0.8l-3,-1.1l-3.1,-1.4l-2.3,-1.2l-2.2,-1.4l-1.4,-1.1l-2.1,-2l-2.5,-2.8l-0.8,-1.4l-1.6,-2.9l-0.9,-2.4l-0.5,-1.8l-0.4,-1.6l-0.2,-1.6l-0.2,-1.6l0,-1.5l0.1,-0.5l0.3,-0.4l0.4,-0.3l0.4,-0.2l0.5,0z" />
      <path d="m175.15,61.4l-0.8,-0.5l-0.3,-0.9l0,-1.1l-0.9,-0.1l-1.9,0.6l-2.8,1.6l-2.4,1.6l-3.5,2.7l-7.5,6.6l-5.5,5.5l-7.1,7.8l-5.3,6.2l-8.4,11.2l-8.2,12.3l-5.7,9.6l-5.8,11.4l-3.5,7.8l-3.3,8.6l-1.8,6.6l-0.8,3.5l-0.6,5.8l0,4.6l0.3,3.4l0.4,2.4l1.2,3.1l-0.2,1l-0.4,0.3l-0.4,0.3l-0.5,0l-0.9,-0.3l-0.4,-0.6l-1.1,-2.9l-0.6,-2.8l-0.3,-3.8l0,-4.8l0.7,-6l0.7,-3.8l2,-6.9l3.3,-8.8l3.6,-7.9l5.8,-11.5l5.8,-9.8l8.3,-12.5l8.6,-11.3l5.3,-6.2l7.2,-8l5.6,-5.6l7.7,-6.7l3.6,-2.8l2.6,-1.7l3,-1.7l2.5,-1l0.8,-0.1l3.1,0.8l0.4,0.3l0.2,0.5l-0.1,2.7l-0.3,0.9l-0.9,0.5l-0.5,-0.1z" />
      <path d="m97.85,201.2l0.9,0.5l0.4,0.9l1.7,19.5l0.9,22.6l0.4,21.3l0,21.7l-0.2,21.6l-0.7,23l-1.2,21.8l-0.5,7.5l-0.5,0.9l-0.9,0.4l-0.5,0l-0.8,-0.6l-0.2,-1l0.5,-7.4l1.2,-21.7l0.7,-23l0.3,-21.5l-0.1,-21.6l-0.4,-21.3l-0.7,-19.1l-1.9,-22.9l0.3,-0.9l0.8,-0.6l0.5,-0.1z" />
      <path d="m106.55,386.1l1.1,0l0.8,0.6l4.2,6.9l5.6,7.5l4.6,5.2l2.1,2l3.3,2.5l4.7,2.7l0.3,0.5l0.1,1l-0.3,0.5l-0.9,0.6l-1,-0.1l-2,-0.9l-2.6,-1.7l-3.6,-2.7l-2.3,-2.1l-2.5,-2.7l-2.4,-2.8l-5.7,-7.7l-4.3,-7.1l-0.2,-1l0.6,-1l0.4,-0.2z" />
      <path d="m51.15,121l0.8,-0.6l0.9,0l2.5,0.9l3.1,0.7l3.5,0.5l6.5,0.2l14.6,-0.7l20.4,-1.7l10,-1l1,0.3l0.5,0.8l0.1,0.5l-0.4,0.9l-0.9,0.4l-10,0.9l-20.5,1.8l-14.8,0.7l-6.8,-0.3l-3.7,-0.5l-3.4,-0.7l-2.7,-1l-0.7,-0.6l-0.2,-1l0.2,-0.5z" />
      <path d="m55.35,121.9l-0.2,0.9l-0.8,0.7l-1.9,0.7l-1.7,2.6l-1.8,4.1l-4.9,13.6l-2.2,7.6l-4.1,16l-1.8,9.1l-1.6,9.9l-0.8,6.4l-0.9,11.2l-0.2,7l0,7.2l0.4,9.9l0.6,7.4l1.5,12.1l1.2,7.1l2.5,11.5l1.8,6.7l3.4,10.5l2.3,5.9l2.5,5.5l3.4,6.8l2.6,4.7l4.4,7l2.7,3.6l2.5,3.1l4.6,4.7l3.9,3.4l3.2,2.3l2.4,1.5l3.5,1.4l0.3,0.4l0.1,1l-0.1,0.4l-0.8,0.6l-1,0l-3.1,-1.3l-2.8,-1.6l-3.4,-2.4l-4.1,-3.6l-4.7,-4.8l-2.8,-3.4l-2.7,-3.7l-4.5,-7.1l-2.7,-4.8l-3.5,-6.9l-2.5,-5.7l-2.3,-6l-3.5,-10.7l-1.9,-6.7l-2.5,-11.7l-1.2,-7.3l-1.5,-12.3l-0.6,-7.4l-0.4,-10l0,-7.3l0.2,-7.2l0.9,-11.3l0.8,-6.4l1.6,-10.1l1.9,-9.2l4,-16.1l2.3,-7.8l5,-13.8l1.9,-4.2l2,-3.4l0.8,-0.5l2.4,-0.9l1,0l0.7,0.6l0.2,0.5z" />
      <path d="m74.95,335.1l0.5,-0.5l0.7,0l1.4,0.5l9.4,-3l4.7,-1.1l2.7,-0.3l2,-0.1l0.5,0.1l0.3,0.2l0.4,0.6l0,0.4l-0.4,0.6l-0.3,0.1l-2.4,0.2l-2.4,0.3l-4.5,1l-9.7,3.1l-0.6,0l-1.8,-0.6l-0.5,-0.5l-0.1,-0.7l0.1,-0.3z" />
      <path d="m89.45,325.2l0.5,-0.2l0.6,0l0.5,0.2l0.4,0.4l3,3.2l0.7,0.8l0.8,1.1l0.9,1.6l0.2,0.2l0.1,0.5l0,0.6l-0.2,0.5l-0.4,0.4l-0.5,0.3l-0.5,0l-0.5,-0.1l-0.5,-0.3l-0.3,-0.4l-1,-1.5l-0.6,-1l-0.6,-0.6l-3.1,-3.4l-0.2,-0.4l-0.1,-0.6l0.1,-0.5l0.3,-0.5l0.4,-0.3z" />
      <path d="m219.35,52.4l-0.5,0.2l-0.4,-0.1l-1.2,-1l-2.2,0l-2.3,0.6l-4.2,1.9l-4.2,2.4l-4.5,3l-6.1,4.9l-6.9,6.1l-6.9,6.9l-6.3,6.9l-4.2,5.2l-4.2,5.8l-4.1,6.1l-2.9,4.8l-4.5,8.1l-2.5,5.1l-3.7,8.6l-3,9.2l-2,7.4l-1.3,5.6l-1.6,8.9l-0.6,5.2l-0.6,8.4l0.3,8.6l0.8,7.3l0.9,6l0.9,4.6l0.9,3.3l1.2,3.7l0,0.5l-0.3,0.3l-0.2,0.1l-0.5,-0.1l-0.3,-0.3l-1.3,-3.7l-0.9,-3.5l-1,-4.6l-0.9,-6.1l-0.7,-7.4l-0.3,-8.6l0.5,-8.6l0.7,-5.3l1.6,-9l1.3,-5.6l2,-7.5l3,-9.3l3.8,-8.7l2.5,-5.1l4.5,-8.2l3,-4.8l4.1,-6.3l4.2,-5.7l4.3,-5.4l6.3,-6.9l7,-7l6.9,-6.1l6.2,-4.9l4.6,-3.1l4.4,-2.5l4.3,-1.9l2.6,-0.7l2.7,0l0.4,0.2l1.3,1l0.3,0.4l-0.1,0.5l-0.1,0.2z" />
      <path d="m147.15,218.6l-0.3,0.4l-0.5,0.1l-1.6,-0.2l-2.1,0.2l-4.4,0.7l-8.9,2.1l-1.8,-1l4.5,0l4.7,0.5l4.5,0.8l1.8,0.5l2.1,0.8l0.3,0.4l0,0.3l-0.2,0.4l-0.5,0.2l-2,0.1l-6.1,-0.8l-1.4,-0.2l-0.9,1.2l0.1,8.5l-0.2,10.4l-0.4,8.8l-0.5,9.5l-0.4,8.8l-0.1,6.2l-0.2,6.2l0,11l0.2,7.4l0.5,10.9l0.7,6.3l1.2,8.9l1.9,9.1l1.4,5.3l0.6,2.2l0,0.3l-0.3,0.4l-0.3,0l-0.5,-0.1l-0.1,-0.1l-0.8,-2.3l-1.4,-5.3l-1.9,-9.2l-1.3,-9l-0.6,-6.3l-0.6,-11.1l-0.1,-7.4l0,-11l0.1,-6.3l0.2,-6.2l0.4,-8.8l0.4,-9.5l0.4,-8.8l0.3,-10.3l-0.2,-8.7l0.2,-0.4l1.3,-1.9l0.4,-0.2l0.3,0l1.8,0.3l6.1,0.8l-0.1,0.7l-0.3,-0.1l-3.8,-0.9l-4.7,-0.7l-4.1,-0.2l-2.3,0l-0.5,-0.1l-0.2,-0.5l0.1,-0.5l0.4,-0.3l10.5,-2.5l4.5,-0.8l2.3,-0.1l1.8,0.2l0.5,0.2l0.2,0.5l-0.1,0.2z" />
      <path d="m122.55,353.5l-0.1,0.5l-0.4,0.3l-0.6,0.2l-1.2,-1.1l2.3,0.5l4.7,-0.1l4.5,-0.5l7.3,-1.4l4.2,-1l0.4,0.1l0.4,0.3l0.1,0.3l-0.2,0.4l-0.4,0.3l-4.1,1l-7.5,1.4l-4.6,0.5l-4.9,0.2l-2.5,-0.5l-0.4,-0.3l-0.2,-0.3l0.1,-0.5l0.2,-0.2l1.9,-0.7l0.5,0.1l0.4,0.3l0.1,0.2z" />
      <path d="m196.75,192.2l0.3,-1l0.8,-0.5l2.7,-0.5l21.5,-2.1l22.4,-1.7l18.5,-0.7l21,-0.1l18.1,0.5l10.6,0.7l14.7,1.6l9.1,1.6l7.6,1.9l5.5,1.9l5.9,2.7l2.5,1.4l3.1,2l1.1,0.8l0.5,0.9l-0.1,0.9l-0.3,0.4l-0.4,0.3l-1,0l-4.4,-2.9l-2.4,-1.3l-5.6,-2.5l-5.2,-1.8l-7.4,-1.9l-8.9,-1.5l-14.6,-1.7l-10.4,-0.6l-18,-0.5l-21,0.1l-18.3,0.7l-22.3,1.7l-21.4,2.1l-2.5,0.5l-1,-0.2l-0.6,-0.7l-0.1,-0.5z" />
      <path d="m199.25,243.7l0.4,0.2l0.2,0.5l-0.1,10.1l0,11.1l0.1,9l0.2,11l0.3,7.2l0.4,7.7l0.8,10.8l0.6,7.3l1.3,10.9l1.5,9.6l1.3,6.3l2.1,8.7l2.1,7.1l0,0.5l-0.3,0.4l-0.2,0.1l-0.5,-0.1l-0.3,-0.4l-2.2,-7.2l-2.1,-8.8l-1.3,-6.3l-1.5,-9.7l-1.3,-10.9l-0.7,-7.4l-0.7,-10.8l-0.4,-7.7l-0.3,-7.3l-0.2,-11l-0.1,-9l-0.1,-11.1l0.1,-10.1l0.2,-0.5l0.5,-0.2l0.2,0z" />
      <path d="m188.55,317.4l0.4,-0.3l0.5,0.1l1.4,0.6l10,-1.9l0.5,0.1l0.3,0.4l0,0.2l-0.1,0.5l-0.5,0.3l-10.2,1.9l-0.5,-0.1l-1.5,-0.7l-0.4,-0.4l0,-0.5l0.1,-0.2z" />
      <path d="m189.35,316.5l0.4,0.2l0.2,0.4l1.1,10.6l0.6,8.6l0.4,2.5l2.4,-1.1l6,-1.4l3.7,-1.2l0.5,0.2l0.1,0.1l0.1,0.3l0,0.5l-0.4,0.3l-3.6,1.2l-6,1.4l-3.2,1.6l-0.5,-0.2l-0.3,-0.4l-0.4,-1.7l-0.2,-2l-0.7,-8.6l-1,-10.5l0.1,-0.5l0.4,-0.3l0.3,0z" />
      <path d="m52.35,137.6l0.8,-0.6l1,0l2.7,1.1l2.9,2.1l3.4,3l3,3l4.4,5.2l4.8,6.6l4.9,8l7,13.1l3.9,8.7l2.5,6.4l3,9.2l2.6,10.6l0.6,3.9l-0.5,0.8l-0.5,0.3l-0.5,0.1l-0.9,-0.4l-0.3,-0.4l-0.7,-3.8l-2.6,-10.3l-2.9,-9.1l-2.5,-6.2l-3.8,-8.6l-6.9,-12.9l-4.8,-7.8l-4.7,-6.4l-4.2,-5l-2.9,-2.9l-3.2,-2.9l-2.7,-1.8l-2.2,-0.9l-0.7,-0.6l-0.2,-1l0.2,-0.5z" />
      <path d="m76.15,336.2l0.4,-0.9l0.8,-0.4l2.7,-0.3l0.7,0.1l0.6,0.4l2,2.6l1.6,2.9l1.1,2.3l1.3,3.8l0.9,3.7l0.6,3.4l0.4,3.7l0.1,4.7l-0.2,4l-0.4,2.5l-1.3,5.6l-0.8,2.4l-1.6,3.7l-1.9,3.4l-2.9,3.5l-3,2.4l-4.7,2.1l-4.3,0.7l-3.8,-0.3l-3.9,-1l-2.4,-1.2l-2.5,-1.5l-4,-3.3l-2.4,-2.6l-3.2,-4.1l-2.3,-3.4l-3.7,-6.3l-2.2,-4.3l-3.2,-7.6l-1.7,-4.9l-1.6,-5l-1.6,-6.8l-1.3,-6.7l-0.9,-6.5l-0.6,-8.4l-0.2,-7l0.1,-5.6l0.5,-7.4l0.6,-3l0.8,-0.6l0.5,-0.1l0.5,0.1l0.4,0.2l0.5,0.9l-0.4,3l-0.6,7l0,5.5l0.1,6.9l0.7,8.2l0.8,6.4l1.3,6.6l1.6,6.6l1.5,4.9l1.7,4.7l3.2,7.4l2,4.1l3.6,6.1l2.3,3.3l3,4l2.2,2.3l3.8,3.1l2.1,1.3l2.1,1l3.4,0.9l3.2,0.2l3.7,-0.7l3.9,-1.7l2.4,-2l2.5,-3.1l1.8,-3.1l1.4,-3.4l0.7,-2.1l1.3,-5.3l0.3,-2.3l0.2,-3.8l0,-2.3l-0.4,-5.6l-0.6,-3.2l-0.9,-3.5l-1.2,-3.6l-1,-2l-1.5,-2.6l-1.3,-1.7l-1.9,0.1l-0.9,-0.2l-0.6,-0.8l0,-0.5z" />
      <path d="m28.05,295l0.6,-0.7l1,-0.2l2.3,0.5l8.2,2.9l6.6,2.1l3.3,0.8l0.6,0.8l0.1,0.4l-0.1,0.5l-0.7,0.7l-0.4,0.2l-0.9,-0.1l-2.6,-0.7l-6.8,-2l-8.1,-3l-2,-0.4l-0.8,-0.4l-0.4,-0.9l0.1,-0.5z" />
      <path d="m70.15,394.8l-0.4,-0.9l0.3,-0.9l1.8,-2.3l5.8,-5.3l3.1,-2.5l5,-3.5l4.6,-2.7l3.1,-1.5l2.9,-1.2l2,-0.6l1,0l0.7,0.7l0.1,0.4l-0.2,1l-0.3,0.4l-5.1,1.9l-2.9,1.5l-4.3,2.5l-4.9,3.4l-3,2.4l-5.5,5.1l-1.6,2l-0.8,0.6l-1,-0.2l-0.4,-0.3z" />
      <path d="m50.95,307.5l0.9,0.5l0.3,1l-0.2,2.7l1.4,12.4l1,5.9l1.6,6.4l2.7,8.3l2.6,6.2l2,3.5l1.2,1.9l1.8,2.3l2,2l2,1.7l3.2,2.2l3.9,1.6l2.6,0.7l2.2,0.3l3,0.1l2.3,-0.4l0.5,0.1l0.6,0.8l0.1,0.5l-0.3,0.9l-0.8,0.5l-2,0.4l-3.5,0l-2.5,-0.4l-3,-0.7l-4.4,-1.8l-3.6,-2.4l-2.3,-1.9l-2.1,-2.3l-2,-2.5l-1.4,-2.1l-2,-3.7l-2.8,-6.4l-2.8,-8.6l-1.6,-6.7l-1,-6l-1.4,-12.6l0.1,-3.1l0.4,-0.9l0.8,-0.4l0.5,0z" />
      <path d="m75.35,159.9l0.3,0.4l0.2,0.4l0,0.5l-0.2,0.5l-0.5,0.9l-2.5,8.4l-1.3,5.4l-1.5,8.2l-1.2,7.8l-0.6,6.2l-0.3,4.9l-0.5,8.7l0,5.5l0.1,9.7l0.8,10.7l0.9,8.7l1.2,8.7l1.3,8.6l1.1,6.2l2,9.8l1.2,5.5l2.2,8.5l1.3,4.7l1.3,4.3l1.8,5.2l1.3,3.5l2.9,7.1l1.9,4l1.8,3.2l1.5,2.3l1.2,1.6l1,1.1l0.2,0.4l0.2,0.5l-0.1,0.5l-0.2,0.4l-0.4,0.4l-0.5,0.2l-0.5,0l-0.4,-0.2l-0.4,-0.3l-1.1,-1.2l-1.3,-1.7l-1.6,-2.4l-1.9,-3.4l-0.8,-1.6l-2.5,-5.5l-1.7,-4.3l-1.4,-3.7l-1.7,-5.2l-1.4,-4.4l-1.3,-4.7l-2.2,-8.6l-1.2,-5.5l-2,-9.9l-1.1,-6.3l-1.4,-8.6l-1.1,-8.9l-1,-8.7l-0.8,-10.8l-0.1,-9.9l0,-5.6l0.5,-8.7l0.4,-5l0.6,-6.3l1.1,-8l1.6,-8.3l1.3,-5.5l2.6,-8.8l0.7,-1.3l0.3,-0.3l0.5,-0.3l0.5,-0.1l0.4,0.1l0.5,0.3z" />
      <path d="m72.45,330.3l0.5,0.1l0.4,0.4l0.3,0.4l0.1,0.5l0,1l0.3,0.9l0.9,2.3l1.4,2.5l1,1.4l1.4,1.6l1,1.1l0.9,0.7l1.5,0.9l1.6,0.7l1.8,0.5l0.4,0.3l0.2,0.5l0.1,0.5l-0.1,0.5l-0.2,0.4l-0.4,0.3l-0.5,0.2l-0.9,-0.1l-1.3,-0.3l-1.9,-0.9l-1.9,-1.1l-1.1,-0.9l-1.3,-1.2l-1.6,-1.8l-1.1,-1.7l-0.7,-1.2l-0.9,-1.6l-1,-2.6l-0.4,-1.3l-0.1,-1.5l0,-0.5l0.3,-0.5l0.4,-0.3l0.4,-0.2l0.5,0z" />
      <path d="m74.85,334.8l0.4,-0.1l0.5,0l0.5,0.2l0.4,0.4l2.3,3.3l2.1,3.4l0.2,0.5l0,0.5l-0.2,0.5l-0.4,0.4l-0.4,0.2l-0.5,0.1l-0.5,-0.2l-0.4,-0.2l-1.1,-1l-0.2,-0.4l-1.2,-2.1l-0.9,-2.4l-0.3,-1.1l-0.1,-0.5l0.1,-0.5l0.3,-0.4l0.4,-0.3l0.5,-0.1l0.6,0l0.4,0.3l0.9,0.6l0.4,0.5l2.1,4l-1.1,1.3l-1.2,-2.6l-1.1,-2l-0.7,-0.9l2.3,-1.7l0.6,0.8l1.7,2l1.6,2.4l1.2,2.2l0.1,0.5l0,0.5l-0.3,0.5l-0.4,0.4l-0.5,0.2l-0.5,-0.1l-0.5,-0.2l-1.2,-0.8l-1.9,-2.1l-3,-3.8l1.6,-2l1.9,3.5l0.6,0.9l-2.1,1.9l-2.7,-3l-0.7,-1l-0.2,-0.5l0,-0.5l0.2,-0.5l0.3,-0.5l0.5,-0.2l0.5,-0.1l0.5,0.2l1.3,0.6l0.7,0.7l0.7,1.5l2.2,5.2l0.2,0.3l-1.3,1l0.1,-0.5l0.2,-0.5l0.3,-0.4l0.5,-0.2l0.5,0l0.5,0.1l0.4,0.3l0.4,0.7l0.4,1.3l0.1,0.6l0,1.2l-0.2,0.5l-0.3,0.5l-0.5,0.2l-0.5,0.1l-0.6,-0.1l-0.4,-0.3l-0.8,-0.9l-0.9,-1.3l-0.6,-1.3l-2.4,-5.3l2.5,-1.1l1.2,1.3l0.9,0.9l0.7,1.3l0.2,0.5l-0.1,0.6l-0.2,0.4l-0.4,0.4l-0.4,0.2l-0.6,0.1l-0.5,-0.2l-0.4,-0.3l-0.7,-0.9l-0.9,-1.3l-2.1,-3.6l-0.7,-1.3l-0.4,-1.4l-0.1,-0.6l0.1,-0.4l0.3,-0.5l0.4,-0.3l0.5,-0.1l0.5,0l0.5,0.2l0.3,0.4l1.6,2.1l3.4,4.2l-2,0.7l-1,-1.5l-1.5,-1.8l-0.7,-1l-0.3,-0.4l0,-0.5l0.1,-0.5l0.3,-0.5l0.4,-0.3l0.4,-0.1l0.5,0l0.5,0.2l0.4,0.3l0.7,1l0.7,1.2l1.3,2.6l0.7,1.4l0.4,1.5l0.1,0.5l0,1.2l-0.2,0.5l-0.3,0.5l-0.4,0.3l-0.6,0.1l-0.5,-0.2l-0.5,-0.3l-0.8,-0.8l-0.9,-1.3l-2.4,-4.5l-0.6,-0.5l2.2,-1.6l0.7,2.1l0.9,1.9l-2.8,0.2l-0.1,0l-2.3,-3.2l-0.2,-0.5l-0.1,-0.5l0.2,-0.4l0.2,-0.5l0.5,-0.3z" />
      <path d="m96.75,332.7l-0.1,0.5l-0.3,0.4l-0.4,0.2l-0.5,0.2l-1,0l-8.3,2.7l-2.4,0.9l-2.1,1.1l-0.7,0.2l-1.2,0l-0.6,-0.1l-0.4,-0.2l-0.4,-0.5l-0.1,-0.5l0,-0.5l0.3,-0.5l0.4,-0.4l0.5,-0.1l1.2,-0.3l14.3,-4.5l0.5,-0.1l0.5,0.1l0.4,0.3l0.3,0.4l0.2,0.5l0,0.5l-0.2,0.4l-0.4,0.4l-1.2,0.9l-1.2,0.7l-1.3,0.5l-2.5,0.9l-9.9,2.8l-0.5,0.1l-0.5,-0.2l-0.4,-0.3l-0.3,-0.4l-0.1,-0.5l0.1,-0.5l0.2,-0.4l0.3,-0.4l0.5,-0.2l9.8,-2.8l2.3,-0.8l1,-0.4l1,2l-12.1,3.8l-0.8,-2.6l1.9,-1l2.6,-1.1l8.5,-2.7l1.6,-0.1l0.5,0l0.5,0.3l0.3,0.3l0.2,0.5l0,0.5z" />
      <path d="m199.75,184.3l0.4,0.3l0.2,0.4l0.1,0.5l-0.1,0.5l-0.5,1.3l-0.7,4.3l-1.3,11.7l-0.2,0.5l-0.3,0.4l-0.4,0.3l-0.5,0.1l-0.5,-0.1l-0.4,-0.2l-0.4,-0.4l-0.2,-0.4l0,-0.5l1.3,-11.8l0.8,-4.6l0.6,-1.6l0.3,-0.4l0.3,-0.3l0.5,-0.2l0.5,0l0.5,0.2z" />
      <path d="m262.35,307l0.2,-0.4l0.3,-0.2l8,-0.7l9.1,-0.4l9,0l6.8,0.1l6.8,0.3l5.7,0.5l8,1l6.4,1.1l3.2,0.7l1.7,0.5l2.3,0.8l0.3,0.3l0.1,0.4l-0.1,0.2l-0.3,0.2l-0.2,0l-2.5,-0.8l-1.6,-0.5l-3.1,-0.7l-4.4,-0.8l-6.9,-1l-6.2,-0.6l-9.3,-0.5l-6.8,-0.1l-8.9,0.1l-9,0.4l-7.9,0.7l-0.4,-0.1l-0.2,-0.3l-0.1,-0.2z" />
      <path d="m264.25,341.1l0.2,-0.4l0.4,-0.1l8.3,-0.5l8.5,-0.5l9.1,-0.4l7.5,-0.3l8.1,-0.1l7.4,0.1l9.2,0.3l8.9,0.6l2.6,0.2l0.4,0.2l0.1,0.4l0,0.2l-0.2,0.3l-0.4,0.1l-2.6,-0.2l-8.9,-0.6l-9.1,-0.4l-7.4,0l-8,0.1l-7.5,0.2l-9.1,0.5l-8.6,0.5l-8.3,0.4l-0.3,-0.1l-0.2,-0.3l-0.1,-0.2z" />
      <path d="m333.45,313.7l0.3,0.2l0.1,0.4l-0.4,3.5l-0.6,8.4l-0.4,7.6l-0.2,0.4l-0.3,0.2l-0.2,0l-0.4,-0.3l-0.1,-0.3l0.5,-7.6l0.5,-8.5l0.4,-3.5l0.2,-0.4l0.4,-0.1l0.2,0z" />
      <path d="m261.65,308.1l0.3,0.2l0.1,0.4l-0.1,3.3l0.2,5.7l0.7,6.9l1,8.1l0.4,2.4l-0.1,0.4l-0.3,0.3l-0.2,0l-0.4,-0.1l-0.2,-0.4l-0.3,-2.4l-1.1,-8.2l-0.8,-9.1l-0.1,-5.4l0.2,-1.6l0.1,-0.4l0.4,-0.1l0.2,0z" />
      <path d="m81.55,337.4l0.2,-0.5l0.4,-0.3l0.5,-0.1l0.5,0l1.3,0.2l1.3,0.3l1.2,0.1l1.1,-0.1l1.4,-0.4l0.9,-0.4l1.6,-1.1l1.1,-0.9l1,-1l0.9,-1l0.8,-1.1l0.6,-1.1l0.5,-1.2l0.5,-1.9l0.1,-1.2l0.2,-1.9l-0.1,-1.9l0.2,-0.4l0.3,-0.4l0.5,-0.2l0.5,-0.1l0.5,0.1l0.4,0.3l0.3,0.4l0.2,0.9l0,1.3l-0.1,2.1l-0.2,1.4l-0.5,2.3l-0.6,1.6l-0.8,1.4l-1,1.4l-1.1,1.2l-1.2,1.1l-1.2,1.1l-1.9,1.2l-1.3,0.7l-1.8,0.5l-1.6,0.2l-1.8,-0.1l-1.6,-0.4l-1.1,-0.2l-0.5,-0.2l-0.4,-0.3l-0.2,-0.4l-0.1,-0.5l0.1,-0.5z" />
      <path d="m84.65,340.4l0.2,-0.3l0.2,-0.3l0.3,-0.2l0.4,-0.1l8.2,-0.1l6,-0.3l0.3,0l0.4,0.2l0.2,0.2l0.2,0.3l0,0.4l-0.1,0.4l-0.2,0.3l-0.3,0.2l-0.4,0.1l-6,0.4l-8.3,0.1l-0.3,-0.1l-0.4,-0.2l-0.2,-0.2l-0.1,-0.4l-0.1,-0.4z" />
      <path d="m134.25,418.6l0.2,-0.5l0.4,-0.2l10.2,-1l10,-0.8l10.2,-0.7l11.2,-0.6l11.4,-0.4l7.7,-0.2l10.2,-0.3l3.4,-0.1l0.5,0.1l0.3,0.4l0,0.3l-0.3,0.4l-0.4,0.2l-3.5,0.1l-10.2,0.3l-7.7,0.3l-11.3,0.4l-11.2,0.5l-10.2,0.7l-9.9,0.8l-10.2,1l-0.5,-0.1l-0.3,-0.4l0,-0.2z" />
      <path d="m130.05,416.4l0.2,-0.4l0.5,-0.2l1.2,0l6.8,-0.7l9.6,-1.2l9.5,-1.1l10.8,-1.1l10.7,-1.1l8.5,-1l7.8,-0.8l0.4,0.1l0.3,0.4l0.1,0.3l-0.2,0.4l-0.5,0.2l-7.8,0.9l-8.5,0.9l-10.6,1.1l-10.9,1.2l-9.5,1.1l-9.6,1.2l-6.8,0.7l-1.3,0l-0.5,-0.2l-0.2,-0.4l0,-0.3z" />
      <path d="m128.05,412.6l0.2,-0.4l0.4,-0.3l9.8,-1.6l9.7,-1.6l9.5,-1.4l10.1,-1.5l11,-1.4l9.3,-1.2l0.4,0.1l0.3,0.4l0.1,0.3l-0.2,0.4l-0.5,0.3l-9.2,1.1l-11,1.5l-10.1,1.4l-9.4,1.4l-9.8,1.6l-9.8,1.7l-0.5,-0.1l-0.3,-0.4l0,-0.3z" />
      <path d="m121.55,404l0.2,-0.5l0.4,-0.2l11.2,-2.1l11.3,-1.9l10.5,-1.6l9.7,-1.4l10.6,-1.5l1.2,-0.1l0.2,0l0.3,0.4l0.1,0.3l-0.1,0.2l-0.3,0.4l-1.2,0.2l-10.6,1.5l-9.7,1.4l-10.5,1.6l-11.2,1.9l-11.2,2.1l-0.5,-0.1l-0.3,-0.3l-0.1,-0.3z" />
      <path d="m110.15,391.6l0.1,-0.5l0.4,-0.3l4.5,-1.1l11,-2.2l9.5,-1.5l10.8,-1.4l10.3,-1.1l11.5,-1l1.4,0l0.3,0.1l0.2,0.4l0.1,0.2l-0.3,0.5l-0.2,0.1l-1.4,0.2l-11.4,1l-10.3,1l-10.8,1.4l-9.5,1.5l-10.8,2.2l-4.5,1.1l-0.5,0l-0.4,-0.3l0,-0.3z" />
      <path d="m103.25,381.8l0.1,-0.4l0.4,-0.3l10.7,-2.2l10.6,-1.8l11.2,-1.8l6.4,-0.9l11.2,-1.5l9.9,-1.3l2.6,-0.3l0.4,0.3l0.1,0.2l0.1,0.3l-0.2,0.4l-0.2,0.2l-2.7,0.4l-9.9,1.3l-11.1,1.5l-6.4,0.9l-11.2,1.7l-10.6,1.8l-10.5,2.2l-0.5,-0.1l-0.3,-0.3l-0.1,-0.3z" />

    </g>

    <g id="packi_ikon">
      <use href="#packi_color" fill="var(--packi-color, hsla(325, 80%, 82%, 0.25)" />
      <use href="#packi_logo" fill="var(--packi-logo, none)" />
      <use href="#packi_outline" fill="var(--outline-color, #000)" />
    </g>  

  </defs>

  <use href="#packi_ikon" style="
    --x-packi-color: pink;
    --packi-logo: rgba(255,255,255,0.15);
  "/>
  <use href="#buck_ikon"/>

</svg>