<svg xmlns="http://www.w3.org/2000/svg" xmlns:xlink="http://www.w3.org/1999/xlink" style="isolation:isolate"
 viewBox="0 0 700 375"
 width="600"
 height="375">

<g>
<ellipse cx="104" cy="219" rx="98" ry="3" fill="rgb(55,33,0)"/>

<path d=" M 58.4 8 C 80 36.55 87.27 93 65 125 Q 72 124 77 124 L 76 132 L 85 137 Q 87 138 83.92 141 C 81 145 72 152 68 154 C 85 154 112.93 168 121 188 C 154.47 195 180 195 199 188 L 215 126 L 195 97 L 154 78.55 L 166 41 L 152 4 C 119.19 2 88 4 58.4 8 Z " fill="rgb(97,58,0)"/>

<path d=" M 103 75 C 97 82 85 82 82 78.09 C 80 103 75 115 64 125 L 82 122 L 80 134 L 86 135 L 89.07 127 L 94 126 L 99 125 L 92 128 L 92 141 Q 83.32 148 76 154 C 93 157 110 170 121 188 L 138 148 L 141 131 L 159 136 C 148 132 139 124 143 124 C 126 119 101 85 103 75 Z " fill="rgb(85,52,2)"/>

<path d=" M 32 7 L 38 17 Q -6 75 44 119 C 42.18 123 40 126 38 130 C 47 120 56 112 65 105 C 75 77.21 71.76 51 58 25 L 32 7 Z " fill="rgb(185,185,185)"/>

<path d=" M 62 156 C 82 150 108.16 161 121 188 C 145 193 171 195 199 188 L 183.23 213 L 125 212.27 L 70 181 L 62 156 Z " fill="rgb(185,185,185)"/>

<path d=" M 47 20 L 56 7 C 86 28 93 98 62 125 C 58 124 54 121 52 117 C 55 113 59 108.99 64 106 C 72 85 70 59 56 25 L 47 20 Z " fill="rgb(235,213,179)"/>

<path d=" M 77 123 L 76 132.25 L 85 136 L 84 141 L 67 154 L 81 156 L 94 141 L 99 126 L 89.07 127 L 83 122 L 77 123 Z " fill="rgb(235,213,179)"/>

<path d=" M 39 18 L 33 8.5 C 1 49 6 91 39 130 L 46 120 C 13 103.21 11.4 39 39 18 Z " fill="rgb(40,40,40)"/>

<path d=" M 168 47 L 158 80 L 195 100 L 168 47 Z " fill="rgb(0,0,0)"/>

<path d=" M 162 34 L 158 52 L 147 68 L 141 78.09 L 144 94 L 150 100 L 163 94 L 184 106 L 203 110 L 203 109 L 195 98 L 166 80 L 164 75 L 169 50 L 162 34 Z " fill="#ea0" x-fill="rgb(249,202,131)"/>

<path d=" M 24 67 C 31 73 39 73 48 67 C 47 116 29 104 27 73 L 21 68 L 24 67 Z " fill="rgb(0,0,0)"/>

<path d=" M 33 7 C 59.27 41 65.5 78 52 117 L 37 127 C 66 107 60 41 30 7 L 33 7 Z " fill="rgb(0,0,0)"/>

<path d=" M 40 19 C 31 27 24 39 20.87 53 C 21 39 27 26 37 16 Z " fill="rgb(0,0,0)"/>

<path d=" M 24 93.01 C 31 106 37 115 46 118 L 45 121 C 36.47 119 30 109 24 93.01 Z " fill="rgb(0,0,0)"/>

<path d=" M 60 113 C 70.35 79.81 68 49 53 21 L 54 16.59 C 73 50 77 84 61 116 L 60 113 Z " fill="rgb(0,0,0)"/>

<path d=" M 50 119 Q 57 126 61 127 C 68 127 82 108 82 78.09 C 78 110 66 122 61 123 C 57 123 54 121 52 117 L 50 119 Z " fill="rgb(55,33,0)"/>

<path d=" M 45 18 Q 51 6 57 6 C 65 6 76 21 80 51 C 72 22 61 10 58 10 C 55 10 52 14 50 21 Z " fill="rgb(55,33,0)"/>

<path d=" M 85 119 C 78.03 122 71 124 64 123 L 62.36 127 C 70 127 76 125 83 121 L 85 119 Z " fill="rgb(55,33,0)"/>

<path d=" M 75 123 L 74 133 L 85 138 L 87 134 L 78 131 L 80 121 L 75 123 Z " fill="rgb(55,33,0)"/>

<path d=" M 101 190 C 89.41 179 81 170 73 172 C 91 162.41 102 204 141 211 C 152 212 165 212 179 211 L 183.23 215 L 125 212.27 C 117.91 205 107 196 101 190 Z " fill="rgb(55,33,0)"/>

<path d=" M 78 172 Q 81 178 96 184 Q 81 170 78 172 Z " fill="rgb(55,33,0)"/>

<path d=" M 82 125 L 82 123 Q 101 95 103 66.99 Q 106 94.83 82 125 Z " fill="rgb(55,33,0)"/>

<path d=" M 69 153 C 91 151.95 108 162 119 183 L 115.27 181 C 98.35 160 84 154 68 157 L 69 153 Z " fill="rgb(55,33,0)"/>

<path d=" M 195 190 C 173 196 150 196 124 188 L 125 188 C 154.39 194 180 193 199 184.95 L 195 190 Z " fill="rgb(55,33,0)"/>

<path d=" M 181 215 L 183.23 215 L 179 211 C 165 212 152 212 141 211 C 136 210 127 210 120 207.3 C 98 197 79 184 75 179 C 70 172.09 68 165 68 157 L 87 141 L 91 126 L 87 127 L 82 142 L 61.75 154 C 62 164.75 65 177 69 185 Q 93 205 124 219 L 182 219 L 181 215 Z " fill="rgb(55,33,0)"/>

<path d=" M 85 141 C 88 141 91 140.84 95 141 C 90 141 87 142 83 143 L 85 141 Z " fill="rgb(0,0,0)"/>

<path d=" M 116 122 C 136 125.8 154 131 170 141 L 166 142 C 148 132 125 126 102 124 L 116 122 Z " fill="rgb(55,33,0)"/>

<path d=" M 121 187 L 126 183 L 121 185 L 125 181 L 123.97 181 L 118 186 L 123 185 L 121 187 Z " fill="rgb(55,33,0)"/>

<path d=" M 168 82 C 168 86 167 89 166 92 L 166 92 L 166 92 L 166 92 C 176 99 189 106 203 110 L 206 115 C 187 109 173 103 163 96 C 160 99 155 102 151 102 C 146 102 134.01 84.55 142 72 C 146.18 67 162 47 162 25 L 166 36 C 163.08 50 153 62 146 73 C 141.01 82 144 94 152 96 C 160 98 163 87 164 81 C 164 71 151 70 153 84.61 C 150 80 152 75 154 73 C 157 71 159 70 162 71 C 164 64 166 57 168 48 L 170 52 C 169 62 166 66 165 74 C 166 75 167 77 167 79 C 169 80.8 172 83 174 84 Q 176 72 173.89 59 L 176 62 Q 177 71.2 176 84 L 176 84 C 177 85 178 86 179 86.13 C 179 81 179 75 179 68 L 180 70 C 181 75 181 81 180 87 C 181 87 182 88 183 88 C 183 85 183 81 183.23 77 L 185 77 C 185 81 185 84.27 184 88 C 187 90 191 91 194 92.84 L 198 100
Z " fill-rule="evenodd" fill="rgb(217,138,19)"/>

<path d=" M 155 0 C 128 -3.11 95 -1 56 6 L 61 10 C 97 4 127 2 152 6 C 165 52 187 91 212 128 C 205 149 200 170 195 190 C 190 199 183 208.53 176 213 L 182 219 Q 197 203 203 190 C 206 168 212 146 218.58 125 C 192 96 171 54 155 0 Z " fill="rgb(55,33,0)"/>

<path d=" M 77 11 C 103 7 130 7 149 10 Q 171 74 203 122 L 198 119 Q 172 83 147 16.59 C 131 12 115 11 83 13 L 77 11 Z " fill="rgb(255,255,255)" fill-opacity="0.22"/>

<path d=" M 145.43 126 Q 159 128 172 131 L 168 132 Q 159 130 146 127 C 145.44 127 143 126 145.43 126 Z " fill="rgb(255,255,255)" fill-opacity="0.22"/>

<path d=" M 196 111 C 181 85 169 61 160.36 39 L 158 45 L 191 110 L 196 111 Z " fill="rgb(255,255,255)" fill-opacity="0.48"/>

<path d=" M 145 134 C 154 136 163 140 171 147 L 169 147 C 161 141 153 138 144 135 C 143 134 143 133 145 134 Z " fill="rgb(255,255,255)" fill-opacity="0.22"/>

<path d=" M 83.89 127.47 L 85 129 Q 120 119 156 127 Q 124 114 83.89 127.47 Z " fill="rgb(55,33,0)"/>

<path d=" M 58 27 C 49 23 40 17 34 9 C 4 43 6 88 38 127 C 46 118 57 108 67 101 L 64 109 C 50 116 40 135 38 133 C 8 97 -1 48.37 33 1 C 40.62 11 48 18 56 22 L 58 27 L 58 27 Z " fill="rgb(0,0,0)"/>

</g>

</svg>
