<svg xmlns="http://www.w3.org/2000/svg">

  <style id="config_styles" type="text/css">
  
    :root {

        --outline-color: rgb(64,31,16);
        --x-shade-color: rgb(106,54,30);
        --x-box-color: rgb(200,133,32);
        --shade-color: hsl(38,80%,30%);
        --box-color: none;
        --bowl-color: rgb(255,255,255);

			--accent-color: hsl(40,70%,50%);
			--title-color: var(--outline-color);
			--border-color: var(--outline-color);
			--bg-opacity: 0.8;

      --font-size: 40px;

    }
    
  </style>

  <style id="comic_styles" type="text/css">
  
    @font-face {
      font-family: 'Comic Neue';
      src: url('neue.ttf') format('truetype');
    }
  
    text {
      font-family: 'Comic Neue';
      font-size: var(--font-size, 24px);
			fill: var(--text-color, var(--outline-color, #000));
    }
  
    #title_line {
      fill: var(--border-color, var(--outline-color, #000));
      height: 2px;
    }

		.border, .obj {
			fill: var(--border-color, var(--outline-color), #000);
		}
    
    #copyright {
      font-family:'Times New Roman';
      font-weight: 300;
      font-size:17px;
      fill:var(--text-color, var(--outline-color, #000));
    }
  
    @media (orientation: portrait) {
      .land { display: none; }
      #title_line {width: 625px; }
    }
  
    @media (orientation: landscape) {
      .port {display: none; }
      #title_line {width: 1275px; }
    }
  
  </style>

  <defs id="copyright_defs">
    <text id="copyright" transform="rotate(270)">
      <tspan letter-spacing="-0.04em">&#xA9;MCMLXXXVIII</tspan>
      <tspan letter-spacing="0.03em">&#xB7; Trilobyte</tspan>
    </text>
  </defs>

  <defs id="pattern_defs">
    <pattern id="dotty" fill="pat(livingthings,4.5,var(--outline-color,#000))"/>
  </defs>

	<defs id="clip_and_masks">

		<clipPath id="clip_port">
			<rect x="12.5" y="0" width="625" height="787.5" />
		</clipPath>

    <mask id="fade_mask"
     maskUnits="objectBoundingBox"
     maskContentUnits="objectBoundingBox"
    >
      <linearGradient id="fade_gradient"
       x1="0%" y1="100%"
       x2="90%" y2="0%"
      >
        <stop offset="0%" stop-color="#fff" stop-opacity="1" />
        <stop offset="70%" stop-color="#fff" stop-opacity="0.1" />
      </linearGradient>
      <rect width="1" height="1" fill="url(#fade_gradient)" />
    </mask>

	</defs>
  
  <defs id="title_defs">
    <g id="title">
      <rect id="title_line" x="12.5" y="12.5" />
      <use href="title-test.svg#ikon" transform="translate(25 20) scale(2.5)"/>
    </g>
  </defs>

  <defs id="dialog_defs">
		
    <text id="dialog_1">
      <tspan>
        Have yourself a  
      </tspan>
      <tspan x="0" dy="1em">
        <tspan font-style="italic">BERRY</tspan> Little 
      </tspan>
      <tspan x="0" dy="1em">
        Breakfast
      </tspan>
    </text>

    <text id="dialog_2" text-anchor="end">
      <tspan>
        Make your heart
      </tspan>
      <tspan x="0" dy="1em">
        beat <tspan font-style="italic">riiight</tspan> ...
      </tspan>
    </text>

    <text id="dialog_3">
      <tspan>
        Healthy, fruity,
      </tspan>
      <tspan x="0" dy="1em">
        cereal with ev'ry
        <tspan font-style="italic">biiite...</tspan>
      </tspan>
    </text>

    <text id="dialog_4">
      <tspan font-size="20" font-style="italic">
        So have yourself a Berry Little Breakfast-time!
      </tspan>
    </text>
  </defs>

  <defs id="character_defs">

    <g id="bowl">
      <path id="bowl_fill" d=" M 134.2 210.6 C 59.0 222.1 14.9 266.2 2.0 342.8 C 19.4 358.0 46.7 366.5 83.9 368.5 L 165.8 292.0 C 164.5 264.1 153.9 236.9 134.2 210.6 Z M 136.9 255.5 L 143.9 239.8 C 98.3 249.1 67.4 283.2 33.2 342.5 L 33.2 342.5 L 50.4 346.2 C 74.2 300.8 104.3 260.1 136.9 255.5 Z " fill-rule="evenodd"
        fill="var(--bowl-color, #eee)"
      />
      <ellipse fill="var(--shade-color, #ccc)" cx="116" cy="328" rx="49" ry="11" transform="rotate(-46 116 328)" />
      <g id="bowl_lines" fill="var(--outline-color, #111)" >
        <path d="M 137.1 241.4 L 133.1 246.1 C 88.3 267.0 48.0 304.9 23.3 370.4 L 20.7 364.5 C 46.8 304.1 85.6 263.0 137.1 241.4 Z" />
        <path d="M 137.4 254.4 L 133.7 258.6 C 84.3 284.6 58.7 323.2 39.0 371.7 L 38.5 365.4 C 63.2 311.1 88.9 273.9 137.4 254.4 Z" />
        <path d="M 125.9 260.5 Q 189.8 300.2 218.1 384.3 Q 192.4 302.3 133.4 263.6 L 125.9 260.5 Z" />
        <path d="M 106.2 259.7 Q 158.9 290.4 184.1 352.6 Q 161.0 292.0 112.3 262.1 L 106.2 259.7 Z" />
        <path d="M 72.5 360.3 C 49.4 362.8 27.6 356.4 6.9 341.2 C 7.0 282.7 86.5 207.0 132.7 215.0 C 152.8 234.9 156.8 254.4 158.6 279.8 C 125.3 289.6 78.7 346.2 78.8 363.1 Q 79.0 385.2 160.7 303.8 L 163.3 292.6 C 130.5 334.0 97.9 355.3 93.5 353.8 C 79.8 349.2 145.8 279.6 162.6 287.8 C 165.0 264.6 159.5 235.8 135.1 206.3 C 58.8 218.1 7.6 274.3 -0.6 344.1 C 17.1 358.6 41.0 365.3 71.0 364.2 L 72.5 360.3 Z" />
        <path d="M 144.5 389.1 C 169.7 372.7 222.5 351.3 231.4 361.3 C 242.4 340.7 248.2 314.3 236.8 277.7 C 161.6 259.9 93.0 292.6 59.0 354.0 C 70.0 374.2 89.6 389.5 117.8 399.8 L 120.9 398.9 C 98.6 392.5 76.8 376.7 62.2 352.6 C 95.3 292.6 173.7 258.5 235.3 282.2 C 246.3 308.2 241.0 332.1 233.0 356.4 C 205.7 353.6 158.3 373.7 136.5 390.0 L 144.5 389.1 L 144.5 389.1 Z" />
        <path d="M 238.3 417.5 C 249.5 418.7 257.0 418.3 260.9 416.6 C 267.4 407.7 273.5 396.9 279.0 384.4 C 271.4 398.7 265.0 408.7 259.6 414.5 C 255.7 416.1 248.6 417.1 238.3 417.5 Z" />
        <path d="M 245.3 423.6 C 253.9 424.2 259.7 424.1 262.7 423.1 C 267.7 418.4 272.4 412.7 276.7 406.0 C 270.8 413.6 265.8 419.0 261.7 422.0 C 258.7 422.9 253.2 423.4 245.3 423.6 Z" />
        <ellipse id="bowl_shadow" cx="106.6" cy="429.6" rx="80" ry="3" />
        <path d="M 220.6 409.5 C 181.5 418.1 147.0 427.1 143.9 422.4 C 137.3 412.8 209.5 397.5 250.3 408.8 C 265.8 391.4 278.2 366.0 275.7 327.7 C 206.9 292.7 132.5 308.3 85.0 360.1 C 90.9 382.3 106.4 401.7 131.3 418.4 L 134.8 417.7 C 114.6 406.3 96.9 385.4 89.0 360.9 C 130.8 303.6 241.8 299.2 274.5 332.7 C 279.2 360.6 264.3 385.3 250.8 407.0 C 218.1 395.4 148.1 408.2 138.3 422.0 C 134.4 427.8 159.7 424.8 214.3 413.1 L 220.6 409.5 L 220.6 409.5 Z" />
      </g>
    </g>

    <g id="king">


      <path id="body" d="
        M 509.6 334.2 C 510.5 334.6 511.3 335.1 512.2 335.5 L 512.2 335.5 L 512.2 335.5 L 512.2 335.5 L 512.2 335.5 C 512.2 335.5 512.2 335.5 512.2 335.5 C 543.0 288.8 565.6 214.9 588.2 184.2 L 612.6 174.4 L 633.0 180.5 C 620.3 247.7 599.6 327.5 571.1 420.0 C 516.9 397.6 468.5 387.4 386.9 387.4 C 362.1 379.4 347.8 362.8 344.1 337.5 C 351.3 351.1 360.2 358.8 368.4 363.5 C 373.7 361.3 378.8 358.9 383.9 356.4 C 411.5 375.6 438.1 363.3 445.2 357.2 C 449.0 354.0 448.2 350.2 444.1 346.8 C 444.9 345.4 445.4 343.8 445.4 342.0 C 445.4 336.6 440.9 332.1 435.5 332.1 C 433.6 332.1 431.9 332.6 430.4 333.5 C 430.3 331.8 429.7 330.2 428.8 328.8 C 434.9 324.2 440.9 319.3 446.8 314.2 C 464.0 316.6 481.1 321.4 498.1 328.8 C 462.9 310.3 416.7 304.3 359.4 310.9 C 357.9 295.0 350.6 280.1 337.7 266.1 C 381.8 259.4 428.4 262.6 477.7 275.7 C 493.5 294.3 504.1 313.8 509.6 334.2 L 509.6 334.2 Z 
        M 313.6 333.1 L 249.6 342.9 L 268.3 290.0 L 326.4 282.2 L 313.6 333.1 L 313.6 333.1 L 313.6 333.1 Z 
        M 545.2 131.1 L 500.4 201.9 L 441.7 185.0 L 427.4 188.5 L 380.9 179.2 L 376.1 169.7 L 327.8 166.5 C 344.8 147.9 359.7 128.3 372.6 107.7 L 534.2 72.4 C 593.3 71.9 649.4 78.4 702.4 91.8 C 655.2 99.4 598.4 113.0 545.5 130.1 C 545.4 130.4 545.3 130.7 545.2 131.1 L 545.2 131.1 L 545.2 131.1 L 545.2 131.1 Z 
        M 136.9 255.5 L 143.9 239.8 C 98.3 249.1 67.4 283.2 33.2 342.5 L 33.2 342.5 L 50.4 346.2 C 74.2 300.8 104.3 260.1 136.9 255.5 Z
      "
        fill="var(--box-color, #eee)"
      />

      <path id="shade" d="
                  
        M 704.9 91.4 C 698.7 205.6 682.7 315.9 658.5 420.7 L 571.1 420.0 C 599.6 327.5 620.3 247.7 633.0 180.5 L 612.6 174.4 L 596.3 181.0 L 588.2 184.2 C 565.6 214.9 543.0 288.8 512.2 335.5 C 535.9 266.5 543.7 199.1 545.5 130.1 C 599.3 112.7 657.2 99.0 704.9 91.4 L 704.9 91.4 L 704.9 91.4 L 704.9 91.4 L 704.9 91.4 L 704.9 91.4 L 704.9 91.4 L 704.9 91.4 L 704.9 91.4 L 704.9 91.4 L 704.9 91.4 L 704.9 91.4 Z 

        M 596.8 182.1 C 596.6 181.7 596.5 181.3 596.3 181.0 C 596.3 181.0 596.3 181.0 596.3 181.0 L 596.8 182.1 L 596.8 182.1 L 596.8 182.1 L 596.8 182.1 L 596.8 182.1 L 596.8 182.1 L 596.8 182.1 L 596.8 182.1 L 596.8 182.1 L 596.8 182.1 L 596.8 182.1 Z 

        M 84.5 96.8 a 8 8 0 1 1 0 .1 z
        M 162.3 178.5 a 8 8 0 1 1 0 .1 z
        M 289.3 195.4 a 8 8 0 1 1 0 .1 z
        M 768.3 354.3 a 8 8 0 1 1 0 .1 z
        M 297.3 59.2 a 8 8 0 1 1 0 .1 z
        M 338.5 9.8 a 8 8 0 1 1 0 .1 z 
        M 496.1 38.1 a 8 8 0 1 1 0 .1 z
        
        M 327.8 332.5 Q 327.1 329.6 325.6 327.0 C 329.4 320.9 329.8 311.3 326.7 298.3 C 329.2 317.8 325.6 329.7 316.0 334.2 C 319.7 333.1 322.6 331.1 324.7 328.4 Q 329.9 340.2 322.8 357.2 Q 329.6 344.2 328.1 334.3 Q 330.7 334.4 333.9 335.8 Q 331.2 332.9 327.8 332.5 L 327.8 332.5 L 327.8 332.5 Z 
        M 383.1 340.7 C 382.7 339.6 382.5 338.4 382.5 337.1 C 382.5 331.7 386.9 327.2 392.4 327.2 C 394.7 327.2 396.8 328.0 398.5 329.3 C 398.4 329.1 398.4 328.8 398.4 328.5 C 398.4 323.0 402.8 318.6 408.3 318.6 C 412.5 318.6 416.0 321.1 417.5 324.8 C 418.5 324.5 419.5 324.3 420.5 324.3 C 425.8 324.3 430.1 328.4 430.4 333.5 C 431.9 332.6 433.6 332.1 435.5 332.1 C 440.9 332.1 445.4 336.6 445.4 342.0 C 445.4 344.2 445.1 345.6 443.9 347.3 C 429.3 332.1 381.3 338.2 383.1 340.7 L 383.1 340.7 Z 
        M 249.1 340.5 L 314.0 333.2 L 320.3 364.8 L 274.9 364.3 L 249.1 340.5 Z
        
        "

        fill="var(--shade-color, #ccc)" />

      <g id="outlines" fill="var(--outline-color, #111)">

        <path d="M 397.5 336.7 C 397.7 336.0 397.8 335.2 397.8 334.4 C 397.8 333.2 397.6 332.1 397.2 331.0 C 398.3 331.7 399.2 332.8 399.8 334.0 L 397.5 336.7 L 397.5 336.7 Z" />

        <path d="M 412.5 333.8 C 414.6 332.6 416.0 330.3 416.0 327.7 C 416.0 325.3 414.7 323.1 412.8 321.9 C 413.2 322.9 413.4 324.1 413.4 325.3 C 413.4 328.0 412.3 330.5 410.4 332.3 L 412.5 333.8 L 412.5 333.8 Z" />

        <path d="M 427.6 338.2 C 428.3 337.1 428.7 335.9 428.7 334.5 C 428.7 331.1 426.2 328.3 423.0 327.7 C 423.2 328.3 423.2 329.1 423.2 329.8 C 423.2 331.7 422.7 333.6 421.7 335.1 L 427.6 338.2 L 427.6 338.2 Z" />

        <path d="M 441.0 345.7 C 442.1 344.5 442.7 343.0 442.7 341.3 C 442.7 337.6 439.8 334.6 436.1 334.6 C 435.9 334.6 435.6 334.7 435.4 334.7 C 435.9 335.8 436.1 337.0 436.1 338.3 C 436.1 339.9 435.7 341.5 435.0 342.8 L 441.0 345.7 L 441.0 345.7 Z" />

        <path d="M 412.9 338.6 C 412.7 336.7 411.5 334.9 409.6 333.8 C 409.5 333.7 409.4 333.7 409.3 333.6 C 409.1 334.7 408.6 335.8 408.0 336.8 C 407.6 337.4 407.1 337.9 406.6 338.4 L 412.9 338.6 L 412.9 338.6 Z" />



        <path d="M 336.5 9.8 C 336.5 4.4 340.9 -0.0 346.4 -0.0 C 351.8 -0.0 356.3 4.4 356.3 9.8 C 356.3 15.3 351.8 19.7 346.4 19.7 C 340.9 19.7 336.5 15.3 336.5 9.8 Z M 339.1 9.8 C 339.1 7.9 339.8 6.0 341.2 4.7 C 342.6 3.3 344.4 2.5 346.4 2.5 C 348.3 2.5 350.2 3.3 351.5 4.7 C 352.9 6.0 353.7 7.9 353.7 9.8 C 353.7 11.8 352.9 13.6 351.5 15.0 C 350.2 16.4 348.3 17.1 346.4 17.1 C 344.4 17.1 342.6 16.4 341.2 15.0 C 339.8 13.6 339.1 11.8 339.1 9.8 Z" fill-rule="evenodd" />

        <path d="M 350.3 4.7 C 351.8 5.8 352.9 7.7 352.9 9.8 C 352.9 13.4 350.0 16.3 346.4 16.3 C 346.0 16.3 345.7 16.3 345.3 16.2 C 348.5 14.5 350.6 11.2 350.6 7.4 C 350.6 6.4 350.5 5.5 350.3 4.7 Z" />

        <path d="M 494.0 38.1 C 494.0 32.7 498.4 28.2 503.9 28.2 C 509.4 28.2 513.8 32.7 513.8 38.1 C 513.8 43.6 509.4 48.0 503.9 48.0 C 498.4 48.0 494.0 43.6 494.0 38.1 Z M 496.6 38.1 C 496.6 36.2 497.4 34.4 498.7 33.0 C 500.1 31.6 502.0 30.8 503.9 30.8 C 505.8 30.8 507.7 31.6 509.1 33.0 C 510.4 34.4 511.2 36.2 511.2 38.1 C 511.2 40.1 510.4 41.9 509.1 43.3 C 507.7 44.7 505.8 45.4 503.9 45.4 C 502.0 45.4 500.1 44.7 498.7 43.3 C 497.4 41.9 496.6 40.1 496.6 38.1 Z" fill-rule="evenodd" />

        <path d="M 507.8 33.0 C 509.4 34.1 510.4 36.0 510.4 38.1 C 510.4 41.7 507.5 44.6 503.9 44.6 C 503.6 44.6 503.2 44.6 502.8 44.5 C 506.0 42.9 508.2 39.5 508.2 35.7 C 508.2 34.8 508.0 33.8 507.8 33.0 Z" />

        <path d="M 287.2 195.4 C 287.2 189.9 291.6 185.5 297.1 185.5 C 302.6 185.5 307.0 189.9 307.0 195.4 C 307.0 200.8 302.6 205.3 297.1 205.3 C 291.6 205.3 287.2 200.8 287.2 195.4 Z M 289.8 195.4 C 289.8 193.4 290.6 191.6 291.9 190.2 C 293.3 188.8 295.2 188.1 297.1 188.1 C 299.0 188.1 300.9 188.8 302.3 190.2 C 303.6 191.6 304.4 193.4 304.4 195.4 C 304.4 197.3 303.6 199.2 302.3 200.5 C 300.9 201.9 299.0 202.7 297.1 202.7 C 295.2 202.7 293.3 201.9 291.9 200.5 C 290.6 199.2 289.8 197.3 289.8 195.4 Z" fill-rule="evenodd" />

        <path d="M 766.1 354.3 C 766.1 348.8 770.6 344.4 776.0 344.4 C 781.5 344.4 785.9 348.8 785.9 354.3 C 785.9 359.7 781.5 364.2 776.0 364.2 C 770.6 364.2 766.1 359.7 766.1 354.3 Z M 768.7 354.3 C 768.7 352.3 769.5 350.5 770.9 349.1 C 772.2 347.7 774.1 347.0 776.0 347.0 C 778.0 347.0 779.8 347.7 781.2 349.1 C 782.6 350.5 783.3 352.3 783.3 354.3 C 783.3 356.2 782.6 358.1 781.2 359.4 C 779.8 360.8 778.0 361.6 776.0 361.6 C 774.1 361.6 772.2 360.8 770.9 359.4 C 769.5 358.1 768.7 356.2 768.7 354.3 Z" fill-rule="evenodd" />

        <path d="M 301.0 190.2 C 302.6 191.4 303.6 193.2 303.6 195.4 C 303.6 198.9 300.7 201.8 297.1 201.8 C 296.8 201.8 296.4 201.8 296.0 201.7 C 299.2 200.1 301.4 196.8 301.4 192.9 C 301.4 192.0 301.2 191.1 301.0 190.2 Z" />

        <path d="M 779.9 349.1 C 781.5 350.3 782.5 352.2 782.5 354.3 C 782.5 357.8 779.6 360.7 776.1 360.7 C 775.7 360.7 775.3 360.7 775.0 360.6 C 778.1 359.0 780.3 355.7 780.3 351.9 C 780.3 350.9 780.2 350.0 779.9 349.1 Z" />

        <path d="M 295.3 59.2 C 295.3 53.7 299.7 49.3 305.2 49.3 C 310.6 49.3 315.1 53.7 315.1 59.2 C 315.1 64.7 310.6 69.1 305.2 69.1 C 299.7 69.1 295.3 64.7 295.3 59.2 Z M 297.9 59.2 C 297.9 57.3 298.6 55.4 300.0 54.0 C 301.4 52.7 303.2 51.9 305.2 51.9 C 307.1 51.9 309.0 52.7 310.3 54.0 C 311.7 55.4 312.5 57.3 312.5 59.2 C 312.5 61.1 311.7 63.0 310.3 64.4 C 309.0 65.7 307.1 66.5 305.2 66.5 C 303.2 66.5 301.4 65.7 300.0 64.4 C 298.6 63.0 297.9 61.1 297.9 59.2 Z" fill-rule="evenodd" />

        <path d="M 309.0 54.0 C 310.6 55.2 311.7 57.1 311.7 59.2 C 311.7 62.8 308.8 65.7 305.2 65.7 C 304.8 65.7 304.4 65.6 304.1 65.5 C 307.3 63.9 309.4 60.6 309.4 56.8 C 309.4 55.8 309.3 54.9 309.0 54.0 Z" />

        <path d="M 280.8 201.3 C 282.0 207.5 286.9 210.8 295.2 211.0 Q 289.8 211.9 285.8 210.2 Q 280.8 208.0 280.8 201.3 Z" />

        <path d="M 279.6 207.1 C 280.7 212.4 284.9 215.1 292.0 215.3 Q 287.3 216.1 283.9 214.6 Q 279.6 212.8 279.6 207.1 Z" />

        <path d="M 279.0 216.1 C 280.0 219.1 283.7 220.7 290.1 220.8 Q 286.5 221.6 283.5 220.8 Q 279.7 219.7 279.0 216.1 Z" />

        <path d="M 82.5 96.8 C 82.5 91.4 86.9 86.9 92.4 86.9 C 97.8 86.9 102.3 91.4 102.3 96.8 C 102.3 102.3 97.8 106.7 92.4 106.7 C 86.9 106.7 82.5 102.3 82.5 96.8 Z M 85.1 96.8 C 85.1 94.9 85.8 93.1 87.2 91.7 C 88.6 90.3 90.4 89.5 92.4 89.5 C 94.3 89.5 96.1 90.3 97.5 91.7 C 98.9 93.1 99.7 94.9 99.7 96.8 L 99.7 96.8 C 99.7 98.8 98.9 100.6 97.5 102.0 C 96.1 103.4 94.3 104.1 92.4 104.1 C 90.4 104.1 88.6 103.4 87.2 102.0 C 85.8 100.6 85.1 98.8 85.1 96.8 Z" fill-rule="evenodd" />

        <path d="M 96.2 91.7 C 97.8 92.8 98.9 94.7 98.9 96.8 C 98.9 100.4 96.0 103.3 92.4 103.3 C 92.0 103.3 91.6 103.3 91.3 103.2 C 94.5 101.6 96.6 98.2 96.6 94.4 C 96.6 93.5 96.5 92.5 96.2 91.7 Z" />

        <path d="M 160.3 178.5 C 160.3 173.1 164.7 168.6 170.2 168.6 C 175.6 168.6 180.1 173.1 180.1 178.5 C 180.1 184.0 175.6 188.4 170.2 188.4 C 164.7 188.4 160.3 184.0 160.3 178.5 Z M 162.9 178.5 C 162.9 176.6 163.6 174.8 165.0 173.4 C 166.4 172.0 168.2 171.2 170.2 171.2 C 172.1 171.2 174.0 172.0 175.3 173.4 C 176.7 174.8 177.5 176.6 177.5 178.5 C 177.5 180.5 176.7 182.3 175.3 183.7 C 174.0 185.1 172.1 185.8 170.2 185.8 C 168.2 185.8 166.4 185.1 165.0 183.7 C 163.6 182.3 162.9 180.5 162.9 178.5 Z" fill-rule="evenodd" />

        <path d="M 174.0 173.4 C 175.6 174.5 176.7 176.4 176.7 178.5 C 176.7 182.1 173.8 185.0 170.2 185.0 C 169.8 185.0 169.4 185.0 169.1 184.9 C 172.3 183.3 174.4 179.9 174.4 176.1 C 174.4 175.2 174.3 174.2 174.0 173.4 Z" />

        <path d="M 184.6 190.4 L 269.0 253.8 L 191.5 193.3 L 184.6 190.4 Z" />

        <path d="M 199.6 208.7 C 204.1 206.7 205.8 203.1 204.7 197.7 Q 206.2 201.0 205.6 203.9 Q 204.7 207.4 199.6 208.7 Z" />

        <path d="M 205.9 213.4 C 210.2 211.6 211.8 208.4 210.9 203.9 Q 212.3 206.7 211.6 209.1 Q 210.7 212.2 205.9 213.4 Z" />

        <path d="M 118.7 99.1 Q 201.3 117.3 244.5 188.6 Q 200.8 116.8 126.8 99.7 L 118.7 99.1 Z" />

        <path d="M 485.8 43.9 C 466.3 59.8 452.3 80.0 443.8 104.6 C 445.1 42.2 427.9 18.5 403.0 43.4 C 425.1 15.5 443.0 35.5 446.2 90.1 C 457.0 73.4 467.3 58.1 479.7 47.3 L 485.8 43.9 Z" />

        <path d="M 760.0 356.3 C 758.9 362.6 762.2 367.4 769.9 370.7 Q 764.4 369.6 761.4 366.5 Q 757.5 362.6 760.0 356.3 Z" />

        <path d="M 755.6 363.5 C 755.9 368.9 759.5 372.3 766.5 373.6 Q 761.8 373.6 758.6 371.6 Q 754.7 369.1 755.6 363.5 Z" />

        <path d="M 752.7 373.6 C 753.4 376.7 757.0 378.6 763.3 379.3 Q 759.1 379.4 756.1 378.2 Q 752.4 376.8 752.7 373.6 Z" />

        <path d="M 758.5 374.3 C 748.7 399.8 745.4 425.3 742.5 446.1 Q 729.3 350.8 715.2 346.6 Q 701.2 342.4 672.0 438.6 C 673.5 327.9 653.8 290.1 625.5 334.2 C 650.7 284.7 671.2 317.5 674.8 414.3 Q 699.1 350.5 713.2 339.9 Q 727.2 329.3 742.8 410.8 C 746.6 400.1 749.5 392.8 758.5 374.3 Z" />

        <path d="M 440.0 348.6 C 442.7 351.4 442.2 354.7 437.9 357.5 C 431.1 361.8 414.6 365.0 404.7 362.1 C 403.1 361.6 401.7 361.1 400.5 360.4 C 412.4 361.6 428.2 357.4 435.5 352.8 C 437.7 351.5 439.1 350.0 440.0 348.6 Z" />

        <path id="box_outlines" d="M 384.1 339.6 C 383.8 338.8 383.7 338.0 383.7 337.2 C 383.7 337.2 383.7 337.2 383.7 337.2 L 383.7 337.2 L 383.7 337.2 C 383.7 334.9 384.6 332.7 386.3 331.1 C 387.9 329.5 390.1 328.6 392.3 328.6 C 394.3 328.6 396.1 329.3 397.6 330.4 Q 398.7 331.2 399.5 332.6 C 398.2 333.8 397.4 335.3 396.9 336.9 C 392.7 337.5 388.6 338.4 384.5 339.5 C 384.4 339.6 384.2 339.6 384.1 339.6 Z 
        M 399.8 336.6 C 400.3 335.4 401.2 334.4 402.3 333.7 L 402.3 333.7 C 403.5 333.0 404.9 332.5 406.3 332.5 C 408.8 332.5 411.1 333.8 412.4 335.9 C 412.5 336.0 412.6 336.1 412.6 336.2 C 411.4 336.1 410.2 336.1 408.9 336.1 C 405.9 336.1 402.8 336.3 399.8 336.6 Z
        M 417.8 336.6 C 418.7 336.2 419.6 336.0 420.5 336.0 C 422.2 336.0 423.8 336.6 425.1 337.6 C 424.8 337.6 424.6 337.5 424.4 337.5 C 422.2 337.1 420.0 336.8 417.8 336.6 Z 
        M 429.2 338.6 C 429.1 338.3 428.9 338.1 428.8 337.8 C 425.7 333.3 419.6 332.1 415.0 335.1 C 415.0 335.1 415.0 335.1 415.0 335.1 C 414.9 334.9 414.7 334.7 414.6 334.4 C 411.6 329.9 405.5 328.6 400.9 331.5 L 400.9 331.5 C 400.6 331.7 400.4 331.9 400.2 332.1 Q 399.7 330.6 399.7 328.5 C 399.7 326.2 400.6 324.0 402.2 322.4 C 403.8 320.8 406.0 319.9 408.3 319.9 L 408.3 319.9 L 408.3 319.9 L 408.3 319.9 C 410.2 319.9 412.1 320.6 413.6 321.8 C 415.2 323.0 416.2 324.7 416.7 326.6 C 417.8 326.0 419.2 325.7 420.5 325.7 C 423.2 325.7 425.8 327.0 427.4 329.1 C 429.0 331.3 429.5 334.1 428.7 336.7 C 430.4 334.7 432.8 333.5 435.4 333.5 C 435.4 333.5 435.4 333.5 435.4 333.5 L 435.4 333.5 L 435.4 333.5 C 437.7 333.5 439.9 334.4 441.5 336.0 C 443.1 337.6 444.0 339.8 444.0 342.1 C 444.0 343.0 443.9 343.9 443.6 344.8 C 443.0 344.4 442.4 344.0 441.8 343.6 C 440.2 342.7 438.6 341.9 436.9 341.2 C 434.4 340.1 431.8 339.3 429.2 338.6 Z 
        M 445.7 346.5 C 446.3 345.1 446.6 343.6 446.6 342.1 C 446.6 339.1 445.4 336.3 443.3 334.2 C 441.2 332.1 438.4 330.9 435.4 330.9 C 434.0 330.9 432.7 331.2 431.4 331.7 C 431.2 331.1 431.0 330.5 430.8 329.9 C 437.2 325.4 443.3 320.7 449.3 315.7 C 474.6 320.4 495.9 329.1 513.0 342.0 C 546.5 289.9 563.5 228.8 586.7 189.3 Q 597.3 183.3 609.4 178.4 L 609.4 178.4 Q 620.1 180.6 631.0 181.8 L 631.0 181.8 Q 621.6 246.6 580.6 385.7 Q 621.1 257.0 635.4 182.2 Q 656.0 184.0 677.4 182.3 Q 638.1 181.2 618.6 175.0 L 618.6 175.0 Q 628.0 171.6 638.3 168.9 L 638.3 168.9 L 633.7 173.5 L 642.6 167.9 C 667.6 151.1 680.4 134.8 687.7 118.1 C 674.9 136.2 659.6 151.8 644.5 163.7 Q 612.0 171.2 592.8 179.6 C 598.0 171.9 603.7 165.3 610.0 160.1 L 598.2 167.4 C 555.6 213.8 542.9 285.1 518.8 319.7 L 518.8 319.7 C 534.6 265.7 543.5 202.6 545.5 130.2 L 545.5 130.2 L 545.5 130.2 C 524.2 151.9 507.2 174.0 499.8 193.3 C 437.1 172.7 440.2 185.3 425.2 184.7 C 409.9 184.2 381.9 178.1 381.3 173.6 C 380.2 164.7 369.2 165.0 332.8 163.5 Q 359.6 137.8 370.9 112.8 C 411.2 129.8 461.3 137.2 521.4 135.0 C 464.1 136.7 415.9 128.2 376.8 109.4 L 376.8 109.4 L 376.8 109.4 C 437.6 97.8 489.3 86.3 532.1 74.9 Q 605.0 75.2 693.7 90.5 L 693.7 90.5 L 693.7 90.5 C 655.5 98.8 616.0 109.0 578.0 120.2 C 619.6 110.1 662.4 100.7 701.8 93.1 C 699.7 183.8 681.2 292.9 653.3 415.9 L 574.4 415.5 L 574.4 415.5 Q 513.1 384.1 394.7 386.3 C 376.0 382.8 359.4 369.1 347.1 345.1 L 347.1 345.1 C 356.9 359.5 368.1 367.2 378.4 370.1 L 371.0 363.8 C 375.2 361.9 379.5 359.9 383.6 357.9 L 383.6 357.9 C 384.0 358.1 384.3 358.3 384.6 358.5 C 388.0 360.8 391.6 362.7 395.3 364.2 C 401.7 366.8 408.5 368.1 415.4 368.1 C 421.9 368.1 428.4 366.9 434.5 364.6 C 436.9 363.8 439.2 362.7 441.4 361.5 C 443.0 360.6 444.6 359.5 446.0 358.3 C 446.9 357.6 447.6 356.7 448.2 355.7 C 448.7 354.8 448.9 353.8 448.9 352.8 C 448.9 351.6 448.6 350.4 448.0 349.4 C 447.4 348.3 446.6 347.4 445.7 346.5 Z 
        M 428.5 326.4 C 428.1 326.1 427.8 325.8 427.4 325.5 C 425.5 323.9 423.0 323.1 420.5 323.1 C 419.7 323.1 419.0 323.2 418.2 323.3 C 416.3 319.6 412.4 317.3 408.3 317.3 L 408.3 317.3 L 408.3 317.3 L 408.3 317.3 C 405.6 317.3 402.9 318.3 400.9 320.1 C 398.8 321.9 397.5 324.4 397.2 327.1 C 395.7 326.4 394.0 326.0 392.3 326.0 C 389.4 326.0 386.5 327.2 384.4 329.3 C 382.3 331.4 381.1 334.2 381.1 337.2 C 381.1 338.1 381.2 338.9 381.4 339.8 C 379.8 339.7 378.3 339.5 376.7 339.1 C 374.3 338.5 371.9 337.8 369.5 337.0 C 366.5 336.0 363.6 334.9 360.6 333.8 C 357.1 332.5 353.6 331.1 350.1 329.7 C 346.5 328.3 342.8 326.9 339.2 325.5 C 338.5 324.0 337.9 322.4 337.2 320.7 L 337.2 320.7 C 333.3 308.4 330.1 294.3 327.9 278.5 L 266.8 288.3 L 260.7 303.8 C 249.4 301.7 239.1 299.7 224.1 299.5 C 199.7 299.2 185.1 320.4 217.7 319.8 C 234.9 319.5 241.8 319.7 253.7 321.4 L 253.7 321.4 L 244.8 342.5 L 274.4 366.8 L 319.8 369.1 L 328.8 356.5 Q 345.9 371.5 353.4 394.7 C 430.6 381.8 489.7 394.2 526.1 415.3 L 322.8 426.7 L 767.6 426.7 L 662.3 416.2 C 691.2 294.6 707.2 182.1 709.0 87.5 Q 615.0 68.4 531.2 70.0 C 480.5 83.7 426.1 95.8 367.9 106.2 Q 352.4 138.5 319.8 169.1 C 359.2 168.6 377.8 165.9 376.9 176.6 C 376.5 181.5 387.6 185.6 403.3 188.4 L 403.3 188.4 C 411.3 210.4 410.0 234.0 399.4 259.4 L 399.4 259.4 L 399.4 259.4 C 390.2 258.8 381.4 258.6 373.0 258.8 L 373.0 258.8 C 358.0 259.2 344.2 260.8 331.6 263.6 C 346.1 277.0 353.9 294.0 354.9 314.6 C 387.9 310.7 417.0 310.7 442.3 314.5 L 442.3 314.5 L 442.3 314.5 C 438.0 318.6 433.3 322.6 428.5 326.4 Z 
        M 259.7 306.3 C 257.1 305.8 254.1 305.3 251.5 304.9 C 248.8 304.4 246.0 304.0 243.2 303.6 C 240.2 303.2 237.2 302.9 234.2 302.7 C 230.8 302.4 227.5 302.3 224.1 302.2 L 223.5 302.2 C 220.5 302.2 217.4 302.6 214.4 303.3 C 213.1 303.7 211.8 304.1 210.5 304.6 C 209.4 305.0 208.3 305.5 207.2 306.1 C 206.3 306.7 205.5 307.3 204.6 307.9 C 204.0 308.4 203.3 309.0 202.8 309.7 C 202.4 310.2 202.1 310.7 201.8 311.3 C 201.6 311.7 201.6 312.0 201.5 312.4 C 201.6 312.6 201.6 312.8 201.6 313.0 C 201.7 313.2 201.8 313.4 202.0 313.6 C 202.2 313.9 202.4 314.1 202.7 314.3 C 203.1 314.7 203.6 314.9 204.1 315.2 C 204.7 315.5 205.4 315.7 206.1 315.9 C 207.0 316.2 207.9 316.4 208.8 316.5 C 210.0 316.7 211.1 316.9 212.3 316.9 C 213.7 317.1 215.1 317.1 216.4 317.1 C 216.9 317.1 217.3 317.1 217.7 317.1 C 221.3 317.0 224.8 317.0 228.4 317.0 C 231.0 317.0 233.6 317.0 236.1 317.1 C 238.4 317.2 240.7 317.3 243.0 317.5 C 245.3 317.6 247.6 317.9 249.9 318.2 C 251.5 318.4 253.1 318.6 254.8 318.8 L 259.7 306.3 L 259.7 306.3 Z 
        M 346.1 338.8 C 349.1 339.7 352.2 340.7 355.3 341.8 C 359.3 343.1 363.2 344.6 367.1 346.2 C 368.5 346.8 369.9 347.5 371.3 348.3 C 372.2 348.7 373.1 349.3 373.9 349.9 C 375.9 351.9 378.1 353.7 380.3 355.5 C 376.1 357.5 371.7 359.4 367.3 361.2 L 367.3 361.2 C 359.4 355.5 352.4 349.1 346.1 338.8 L 346.1 338.8 L 346.1 338.8 Z 
        M 329.4 324.6 C 336.0 327.1 342.6 329.6 349.1 332.2 C 352.7 333.5 356.2 334.9 359.7 336.2 C 362.7 337.4 365.7 338.5 368.7 339.5 C 371.1 340.3 373.6 341.0 376.1 341.6 C 378.1 342.1 380.1 342.4 382.1 342.4 C 383.1 342.4 384.2 342.3 385.2 342.0 C 392.9 339.8 400.9 338.7 408.9 338.7 C 414.0 338.7 419.0 339.2 423.9 340.1 C 428.0 340.8 432.0 342.0 435.9 343.6 C 437.5 344.2 439.0 345.0 440.4 345.8 C 441.6 346.5 442.7 347.3 443.8 348.3 C 444.5 349.0 445.2 349.8 445.7 350.7 C 446.1 351.3 446.3 352.1 446.3 352.8 C 446.3 353.4 446.2 354.0 445.9 354.5 C 445.5 355.2 445.0 355.8 444.4 356.3 C 443.1 357.4 441.6 358.4 440.1 359.2 C 438.0 360.4 435.9 361.4 433.6 362.2 C 427.8 364.4 421.6 365.5 415.4 365.5 C 408.9 365.5 402.4 364.2 396.3 361.8 C 392.7 360.3 389.3 358.5 386.1 356.4 C 382.3 353.9 378.8 351.1 375.6 347.9 C 374.7 347.2 373.6 346.5 372.5 345.9 C 371.1 345.2 369.6 344.5 368.1 343.8 C 364.1 342.2 360.1 340.7 356.1 339.3 C 351.4 337.7 346.7 336.2 342.0 334.8 C 342.0 334.8 342.0 334.8 342.0 334.8 L 329.6 331.2 C 329.4 329.8 328.9 328.5 328.3 327.4 C 328.6 326.9 329.1 325.7 329.4 324.6 L 329.4 324.6 L 329.4 324.6 Z 
        M 512.3 327.3 C 504.5 305.3 491.2 286.1 479.5 271.7 C 452.6 265.5 427.9 261.5 405.4 259.8 C 416.2 231.5 418.0 208.1 410.6 189.6 C 416.2 190.4 422.2 191.0 428.3 191.5 C 432.5 191.8 434.4 190.3 437.2 188.9 C 455.4 228.3 473.1 261.7 521.6 292.5 C 519.4 302.8 516.3 314.5 512.3 327.3 L 512.3 327.3 L 512.3 327.3 L 512.3 327.3 L 512.3 327.3 L 512.3 327.3 L 512.3 327.3 L 512.3 327.3 L 512.3 327.3 L 512.3 327.3 L 512.3 327.3 L 512.3 327.3 L 512.3 327.3 Z 
        M 386.2 280.9 C 403.9 278.1 421.5 279.5 439.1 284.9 L 435.9 286.5 C 424.1 281.5 406.5 280.1 386.2 280.9 L 386.2 280.9 L 386.2 280.9 L 386.2 280.9 L 386.2 280.9 L 386.2 280.9 L 386.2 280.9 L 386.2 280.9 L 386.2 280.9 L 386.2 280.9 L 386.2 280.9 L 386.2 280.9 L 386.2 280.9 L 386.2 280.9 L 386.2 280.9 L 386.2 280.9 L 386.2 280.9 Z 
        M 327.7 332.6 Q 327.0 329.7 325.6 327.1 C 329.3 320.9 329.7 311.4 326.7 298.4 C 329.2 317.8 325.6 329.8 315.9 334.3 C 319.7 333.2 322.6 331.2 324.7 328.4 Q 329.8 340.3 322.8 357.3 Q 329.6 344.2 328.1 334.4 Q 330.7 334.4 333.9 335.9 Q 331.2 333.1 327.7 332.6 L 327.7 332.6 L 327.7 332.6 L 327.7 332.6 L 327.7 332.6 L 327.7 332.6 L 327.7 332.6 Z 
        M 271.0 292.1 L 324.0 284.2 L 310.6 333.3 L 318.0 363.1 L 276.9 362.4 L 251.5 340.6 L 271.0 292.1 L 271.0 292.1 L 271.0 292.1 L 271.0 292.1 Z 
        M 374.0 265.6 C 363.6 265.8 353.5 266.5 343.9 267.7 C 350.7 276.2 357.9 290.9 360.8 306.8 C 422.8 304.5 474.2 310.4 505.9 328.9 C 496.9 306.7 487.1 289.9 476.4 278.5 C 442.9 268.9 406.9 264.8 374.0 265.6 L 374.0 265.6 L 374.0 265.6 L 374.0 265.6 L 374.0 265.6 L 374.0 265.6 L 374.0 265.6 L 374.0 265.6 L 374.0 265.6 L 374.0 265.6 L 374.0 265.6 L 374.0 265.6 L 374.0 265.6 L 374.0 265.6 L 374.0 265.6 L 374.0 265.6 L 374.0 265.6 L 374.0 265.6 L 374.0 265.6 L 374.0 265.6 L 374.0 265.6 L 374.0 265.6 L 374.0 265.6 L 374.0 265.6 L 374.0 265.6 L 374.0 265.6 L 374.0 265.6 Z" fill-rule="evenodd" />

        <g id="logos_and_lines" opacity="0.7">

          <g>

            <path d="M 580.8 287.6 C 574.8 290.7 568.3 291.7 561.6 290.2 L 558.8 313.6 L 574.5 297.3 C 578.0 333.2 598.0 329.7 583.9 296.9 C 582.6 294.0 581.6 290.9 580.8 287.6 L 580.8 287.6 L 580.8 287.6 L 580.8 287.6 L 580.8 287.6 Z" fill="none" stroke-width="1" stroke="rgb(64,31,16)" stroke-linejoin="miter" stroke-linecap="square" stroke-miterlimit="300" />

            <path d="M 616.2 177.9 C 623.2 193.6 622.0 216.6 615.5 237.7 L 615.5 237.7 Q 618.0 239.4 620.0 242.6 M 572.0 212.7 L 566.6 243.6 L 566.6 243.6 C 590.3 217.1 600.5 191.4 596.8 182.1 M 476.9 320.0 L 475.5 334.3 L 449.0 337.9 L 449.0 337.9 L 449.0 337.9 L 452.0 314.7 M 605.2 301.1 C 600.6 287.2 595.1 288.6 595.7 300.9 C 595.8 303.3 596.2 306.2 596.9 309.5 C 597.5 312.9 598.7 316.3 600.0 319.7 M 579.1 393.5 C 567.6 391.8 558.2 372.8 554.2 351.2 L 552.0 369.1 L 523.8 353.7 L 523.8 353.7 L 530.3 323.5 C 515.4 351.7 500.0 365.9 490.0 357.8 C 483.8 352.6 480.6 339.4 480.4 321.3" fill-rule="evenodd" fill="none" stroke-width="1" stroke="rgb(64,31,16)" stroke-linejoin="miter" stroke-linecap="square" stroke-miterlimit="300" />

          </g>

          <path d="M 582.8 118.8 C 556.3 117.8 540.5 114.8 538.6 111.7 C 525.0 112.1 513.5 111.4 506.8 109.7 C 501.1 108.2 499.6 106.0 501.9 103.6 L 501.9 103.6 L 501.9 103.6 L 501.9 103.6 C 465.6 100.3 451.7 96.0 451.6 92.2 M 659.1 82.2 C 647.1 89.8 623.9 99.4 608.4 103.0 C 611.4 103.0 614.5 103.0 617.7 103.0 L 664.7 83.1 M 573.8 104.1 C 553.2 107.9 529.2 109.0 520.1 106.6 C 511.0 104.2 555.4 84.5 576.0 80.8 C 596.5 77.0 620.5 75.9 629.6 78.3 C 638.7 80.7 594.3 100.3 573.8 104.1 L 573.8 104.1 L 573.8 104.1 Z M 556.9 77.7 C 507.0 78.3 460.3 98.0 499.5 99.3 L 556.9 77.7 L 556.9 77.7 Z M 608.8 107.6 C 558.9 108.2 547.3 113.3 586.5 114.6 L 608.8 107.6 Z" fill-rule="evenodd" fill="none" stroke-width="0.7" stroke="rgb(64,31,16)" stroke-linejoin="miter" stroke-linecap="square" stroke-miterlimit="300" />

          <path d="M 591.7 397.9 C 592.0 394.8 596.4 392.8 601.7 393.3 C 606.9 393.8 610.8 396.7 610.5 399.8 C 610.2 402.8 605.8 404.9 600.5 404.4 C 595.3 403.8 591.4 400.9 591.7 397.9 Z M 645.5 404.4 C 651.2 389.6 656.0 373.1 659.7 355.0 L 618.1 352.5 L 612.2 377.5 M 644.4 192.7 L 617.1 304.8 L 667.8 307.4 C 680.3 253.4 685.8 233.5 689.4 180.7 C 683.4 165.9 681.1 145.2 685.6 124.3 M 650.4 190.3 L 645.7 211.0 L 683.5 212.2 L 684.1 189.7 L 672.3 190.3 M 643.9 228.7 L 664.0 229.9 M 643.0 241.3 L 663.1 242.5 M 657.1 252.5 L 677.1 253.7 M 635.0 266.8 L 655.1 268.0 M 641.4 234.3 L 652.5 234.3 M 640.6 246.9 L 651.6 246.9 M 632.6 272.4 L 643.6 272.4 M 665.9 230.2 L 677.7 230.9 M 665.1 242.8 L 676.8 243.5 M 635.0 262.2 L 646.8 263.0 M 668.6 236.1 L 676.9 236.6 M 641.1 250.9 L 649.5 251.4 M 667.8 248.6 L 676.1 249.2 M 659.7 274.1 L 668.1 274.6 M 652.9 235.1 L 664.7 235.8 M 652.1 247.7 L 663.8 248.4 M 644.1 273.2 L 655.8 273.9" fill-rule="evenodd" fill="none" stroke-width="0.7" stroke="rgb(64,31,16)" stroke-linejoin="miter" stroke-linecap="square" stroke-miterlimit="3" />

        </g>


      </g>

    </g>

  </defs>

  <g id="haxxor" style="
    filter: var(--bg-filter, none);
    opacity: var(--bg-opacity, 1);
  ">

  <svg class="land" viewBox="0 0 1300 480">
    <use href="#title" />
    <g transform="translate(0 80)">

      <path class="border" d=" M 12.5 0 h 280 l -4 2 h -274 v 198 l -2 4 z M 1287.5 400 v -280 l -2 4 v 274 h -600 l-4 2 z " />
      <use href="#copyright" transform="translate(1281 390)" />

      <use href="#dialog_1" transform="translate(52 75)" />
      <use href="#dialog_2" transform="translate(1250 150)" />

			<use href="#king" transform="translate(200 -55) scale(1)" />
			<use href="#bowl" transform="translate(200 -55) scale(1)" />

    </g>
  </svg>

  <svg class="port" viewBox="0 0 650 880">

    <use href="#title" transform="translate(0 0)" 
			style="
        --circ1-color: var(--shade-color);
        --circ2-color: var(--shade-color);
			"
		/>

		<path class="border" d=" 
			M 637.5 867.5 v -380 l -2 4 v 374 H 490 l -4 2  z 
			M 12.5 80 h 280 l -4 2 h -274 v 198 l -2 4 z " />
    <use href="#copyright" transform="translate(632 860)" />

    <g transform="translate(0 80)" xxx-clip-path="url(#clip_port)">


      <use href="#dialog_1" transform="translate(42.5 60)" />
      <use href="#dialog_2" transform="translate(620 165)" />
      <use href="#dialog_3" transform="translate(80 250)" />
      <use href="#dialog_4" transform="translate(150 340)" />

      <use href="#king" transform="translate(-57 380) scale(0.9)" />
      <use href="#bowl" transform="translate(10 420) scale(0.85)" />

    </g>
  </svg>

  </g>

</svg>