<svg 
 xmlns="http://www.w3.org/2000/svg"
 xmlns:xlink="http://www.w3.org/1999/xlink"
 style="isolation:isolate;overflow:visible;"
 viewBox="0 0 1300 480"
>
    
  <style id="comic_styles">

    :root {

      --show-hearts: 0;
      --bg-fill: url(#newsprint);
      --bg-opacity: 0.85;
      --bg-mask: url(#fade_mask);
      /*
      --bg-filter: url(#shake);
      */
      /*
      --bg-fill: url(#newsprint);
      --bg-opacity: 0.7;
      --bg-filter: url(#shake);
      --bg-mask: url(#fade_mask);
      --outline-color: #000;
      --border-color: #000;
      --border-size: 2;
      --text-color: #000;
      --dot-color: #000;
      --circ-color: #000;
      --circ-1-color: #000;
      --circ-2-color: #000;
      --show-hearts: 1;
      */
      
    }
      
    @font-face {
      font-family: 'Comic Neue';
      /*src: url('neue.ttf') format('truetype');*/
      src: url('ComingSoon.ttf') format('truetype');
    }

    text {
      font-family:'Comic Neue';
      font-weight: 400;
      font-size:22px;
      fill: var(--text-color, var(--outline-color, #000));
    }
    
    .text-bubble {
      fill: none;
      stroke: var(--text-color, var(--outline-color, #000));
      stroke-width: 1px;
    }
    
    .bub-line {
      fill: var(--text-color, var(--outline-color, #000));
    }

    #copyright {
      font-family:'Times New Roman';
      font-weight: 300;
      font-size:17px;
      fill:var(--text-color, var(--outline-color, #000));
    }

    @media(orientation: portrait) {
      #ikon {
        transform: scale(2) translate(0, -400px);
      }

      .land_only {
        display: none;
      }
    }

    @media(orientation: landscape) {
      #ikon {
        transform: scale(1) translate(0, 0);
      }
      .port_only {
        display: none;
      }
    }

  </style>
    
  <style id="title_styles">

    #title_line {
      fill: var(--border-color, var(--outline-color, #000));
      height: 2px;
    }

    #LIVING {
      fill: var(--title-color, var(--outline-color, #000));
    }

    #THINGS {
      fill: var(--title-color, var(--outline-color, #000));
    }

    #heart {
      fill: var(--heart-color, var(--outline-color, #000));
    }

    #square {
      fill: var(--square-color, var(--outline-color, #000));
    }

    #title_hearts {
      opacity: var(--show-hearts, 1);
    }

    #title_circs {
      opacity: calc(1 - var(--show-hearts, 1));
      fill: var(--circ-color, var(--outline-color, #000));
    }
    
    #title_circs > circle:nth-of-type(1) {
      fill: var(--circ-1-color, var(--circ-color, var(--outline-color, #000)));
    }
    
    #title_circs > circle:nth-of-type(2) {
      fill: var(--circ-2-color, var(--circ-color, var(--outline-color, #000)));
    }
    
  </style>

  <style id="four_panel_port_styles">
        
    #bg_rect[data_no_port] {
        width: 1300px;
        height: 480px;
    }
    
    .bottom_half[data_no_port] {
      transform: translate(650px, 0);
    }
    
    #title_line[data_no_port] {
        width: 1275px;
    }
    
    @media(orientation: portrait) {
      #bg_rect:not([data_no_port]) {
        width: 650px;
        height: 882.5px;
      }
      .bottom_half:not([data_no_port]) {
        transform: translate(0, 400px);
      }
      #title_line:not([data_no_port]) {
        width: 625px;
      }
    }

    @media(orientation: landscape) {
      #bg_rect:not([data_no_port]) {
        width: 1300px;
        height: 480px;
      }
      .bottom_half:not([data_no_port]) {
        transform: translate(650px, 0);
      }
      #title_line:not([data_no_port]) {
        width: 1275px;
      }
    }
    
  </style>
  
  <style id="border_styles">
    #borders path {
      fill: none;
      stroke: var(--border-color, var(--outline-color, #000));
      stroke-width: var(--border-size, 2);
    }
    #borders path.slants {
      marker-start: url(#slant_cap);
      marker-end: url(#slant_cap);
    }
  </style>
  
  <defs id="patterns_and_filters">

    <pattern id="hatch" viewBox="-2 -2 4 4" width="4" height="4" patternUnits="userSpaceOnUse" patternTransform="rotate(45) scale(3)">
      <path d="M-2 0 H2 M0 -2 V2"
       fill="none"
       stroke="var(--dot-color, var(--outline-color, #000))"
       stroke-width="12.5"
       transform="scale(1)"
      />
    </pattern>

    <pattern id="dotz" viewBox="-2 -2 4 4" width="4" height="4"
      patternUnits="userSpaceOnUse" patternTransform="rotate(45) scale(1)">
      <circle r="1.5" fill="var(--dot-color, var(--outline-color, #000))" transform="scale(1.5)"/>
    </pattern>
    
    <pattern id="xdotz" viewBox="-2 -2 4 4" width="4" height="4" patternUnits="userSpaceOnUse" patternTransform="rotate(45) scale(1.5)">
      <path d="M1 0 A1 1 0 1 0 1 0.01H9V9H-9V-9H9V0Z"
      fill="var(--dot-color,var(--outline-color, #000))" transform="scale(1.5)"/>
    </pattern>

    <linearGradient id="fade" gradientUnits="objectBoundingBox">
      <stop offset="0%" stop-color="#000" stop-opacity="0"/>
      <stop offset="100%" stop-color="#000" />
    </linearGradient>

    <filter id="blur">
      <feGaussianBlur in="SourceGraphic" stdDeviation="0.3" />
    </filter>

    <filter id="shake" width="120%" height="220%" color-interpolation-filters="sRGB">
      <feImage href="newsprint.jpg" x="0" y="0" width="220%" height="120%" preserveAspectRatio="xMidYMid slice" result="mig" />
      <feDisplacementMap in="SourceGraphic" in2="mig" result="rat" scale="5" xChannelSelector="R" yChannelSelector="B" />
      <feGaussianBlur in="rat" stdDeviation="0.3" result="blur" />
      <!-- shift image back based on displacement's scale -->
      <feOffset in="blurred" dx="0.5" dy="5" result="final" />
    </filter>
    
    <pattern id="newsprint" patternUnits="userSpaceOnUse" width="100%" height="100%">
      <image href="newsprint.jpg" width="100%" height="100%" preserveAspectRatio="none" />
    </pattern>

  </defs>

  <defs id="clips_n_masks">
    
    <clipPath id="clip1thru2of4">
      <path d="M12.5 12.5 H 637.5 V387.5 H12.5Z"/>
    </clipPath>
    
    <clipPath id="clip1and2of4">
      <path d="
      M12.5 12.5 H312.5 V387.5 H12.5Z
      M337.5 12.5 H637.5 V387.5 H337.5Z
      "/>
    </clipPath>
    
    <clipPath id="clip1of4">
      <path d="M12.5 12.5 H312.5 V387.5 H12.5Z"/>
    </clipPath>

    <clipPath id="clip2of4">
      <path d="M337.5 12.5 H637.5 V387.5 H337.5Z"/>
    </clipPath>

    <clipPath id="clip3of4">
      <path d="M12.5 12.5 H312.5 V387.5 H12.5Z"/>
    </clipPath>

    <clipPath id="clip4of4">
      <path d="M337.5 12.5 H637.5 V387.5 H337.5Z"/>
    </clipPath>

    <clipPath id="clip1of3">
      <path d="M13 12.5 H421 V387.5 H 13Z"/>
    </clipPath>

    <clipPath id="clip2of3">
      <path d="M446 12.5 H854 V387.5 H 446Z"/>
    </clipPath>

    <clipPath id="clip3of3">
      <path d="M879 12.5 H1287 V387.5 H 879Z"/>
    </clipPath>

    <clipPath id="full_wide">
      <path d="M12.5 12.5 H1287.5 V387.5 H12.5Z"/>
    </clipPath>

    <clipPath id="full_wide_low">
      <path d="M12.5 212.5 H1287.5 V587.5 H12.5Z"/>
    </clipPath>

    <clipPath id="full_high">
      <path d="M337.5 -187.5 H962.5 V587.5 H337.5 Z"/>
    </clipPath>

    <mask id="fade_mask"
     maskUnits="objectBoundingBox"
     maskContentUnits="objectBoundingBox"
    >
      <linearGradient id="fade_gradient"
       x1="0%" y1="100%"
       x2="90%" y2="0%"
      >
        <stop offset="0%" stop-color="#fff" stop-opacity="1" />
        <stop offset="100%" stop-color="#fff" stop-opacity="0.2" />
      </linearGradient>
      <rect width="1" height="1" fill="url(#fade_gradient)" />
    </mask>

  </defs>

  <defs id="line_caps">
      
    <marker id="slant_cap" markerWidth="3" markerHeight="1"
            refX="1" refY="0.5" orient="auto-start-reverse" markerUnits="strokeWidth">
      <path d=" M 0 0 L 1 0 L 3 1 L 0 1 Z" fill="context-stroke"/>
    </marker>
    
    <marker id="point_cap"
      markerWidth="4" markerHeight="1"
      refX="1" refY="0.5"
      orient="auto-start-reverse"
      markerUnits="strokeWidth"
    >
      <path d="M0 0.5 L1 0 L4 0.5 L1 1 Z" fill="context-stroke"/>
    </marker>
    
  </defs>
  
  <defs id="copyright_defs">
      
    <text id="copyright" transform="rotate(270)">
      <tspan letter-spacing="-0.04em">&#xA9;MCMLXXXVIII</tspan>
      <tspan letter-spacing="0.03em">&#xB7; Trilobyte</tspan>
    </text>
    
    <mask id="copyright_mask">
        <rect width="100%" height="100%" fill="#fff"/>
        <use href="#copyright" fill="#000"
          transform="translate(416 385)"
        />
    </mask>
          
  </defs>
  
  <defs id="ikon_def">
    <g id="ikon" class="P2">

      <rect id="bg_rect" x-data_no_port="1" x="0" y="0" width="100%" height="100%" fill="var(--bg-fill, none)"/>
      
      <g id="entire_comic"
       opacity="var(--bg-opacity, 1)"
       filter="var(--bg-filter, none)"
       mask="var(--bg-mask, none)"
      >

        <g id="panels" transform="translate(0 80)">

        
          <g id="four_panel_layout" class="P2">
            <g class="top_half" x-clip-path="url(#clip1and2of4)">
              
              <g id="panel1of4" clip-path="url(#clip1of4)">
               <g transform="translate(165 42)">
                <text text-anchor="middle">
                    <tspan>Do you know the special</tspan>
                    <tspan x="-0.4ch" dy="1em">perfume that</tspan>
                    <tspan font-weight="600" font-style="italic">Cafe Nero</tspan>
                    <tspan x="0" dy="1em">sprays on everything?</tspan>
                </text>
               </g>
               <use transform="translate(20 170) scale(1.6)" href="friar.svg#ikon" />
               <use transform="translate(140 140) scale(1.2)" href="blendifer.svg#ikon" />
               <path d="M12 374 Q 148 360 312 374 V388 H12 Z"/>
              
              </g>
              
              <g id="panel2of4" clip-path="url(#clip2of4)">
               
               <g transform="translate(490 42)">
               <text text-anchor="middle">
                  <tspan>No, I don't believe I'm</tspan>
                  <tspan x="0" dy="1em" font-style="italic">familiar</tspan>
                  with that.
               </text>
               </g>
               <use transform="translate(360 115) scale(2.5)" href="friar.svg#ikon" />
              </g>
            
            </g>
            <g class="bottom_half" x-clip-path="url(#clip1and2of4)">
              
              <g id="panel3of4" clip-path="url(#clip3of4)">
                               
               <g transform="translate(160 42)">
               <text text-anchor="middle">
                  It's harvested from a
                  <tspan x="-0.5ch" dy="1em" 
                   font-size="25"
                   font-weight="700"
                   font-style="italic"
                  >
                  Homeless Guy's Crotch
                  </tspan>
               </text>
               </g>
               
               <mask id="base_mask">
                <rect width="100%" height="100%" fill="#fff" />
                <path d="M126 336q40 -10 82 -4l6 8l-8 50h-96l-10 -18z" fill="#000" />
                <path fill="#000" 
                 
                 transform="scale(0.25) translate(156 396) scale(1.49 1.49)" d="m454.7,701.9l0.7,-0.4l0.8,-0.2l0.7,0.2l0.7,0.4l2.4,1.9l2.7,1.5l2.9,1.1l5.4,1.3l7.4,0.6l3.2,0.1l10.1,-0.9l8.2,-1.3l4.3,-0.9l12.4,-3.5l12.3,-4.7l8.6,-4l3.9,-2.1l5.8,-4.2l3.2,-2.6l2.8,-2.8l2.3,-2.8l3.2,-5.1l1.3,-3.1l0.8,-3.3l0.2,-6.6l-0.4,-4.2l-0.7,-4.3l-2,-7.6l-1.8,-4.7l-3.7,-8.2l-2.8,-5l-3.1,-5l-3.4,-5.1l-7.4,-9.8l-6.6,-7.8l-10.7,-11.5l-13.3,-13.4l-5.7,-6.4l-2.4,-3l-1.9,-3.2l-1.3,-4l0,-1.2l1.5,-5.9l0.5,-1l4.2,-4.4l3,-2l3.7,-1.9l8,-3l5.4,-1.7l11,-2.8l14.7,-3l16.2,-2.7l24.2,-2.8l25.3,-1.8l24.6,-0.7l17.1,0.1l8,0.2l12.1,0.8l6.8,0.6l9.7,1.4l8.9,1.8l6.8,1.7l5,1.6l5.4,2.1l0.6,0.4l0.5,0.7l0.2,0.7l0,0.8l-0.3,0.7l-0.5,0.6l-0.7,0.4l-0.8,0.1l-6,-2.3l-4.7,-1.4l-6.6,-1.7l-8.6,-1.7l-9.5,-1.4l-6.6,-0.6l-11.9,-0.8l-7.9,-0.2l-16.9,-0.1l-24.6,0.7l-25,1.8l-24,2.8l-16,2.6l-14.5,3l-10.8,2.7l-5.2,1.7l-7.7,2.9l-3.2,1.7l-2.4,1.7l-3.3,3.4l-1.2,4.7l1,3.1l1.5,2.3l4.6,5.6l16.2,16.5l10.9,11.6l6.7,8l7.6,10.1l3.5,5.2l3.2,5.2l2.9,5.2l3.9,8.5l1.9,5l2.1,8.1l0.8,4.7l0.4,4.5l-0.2,7.2l-1,4.2l-1.5,3.8l-3.5,5.8l-2.8,3.2l-3,3.1l-3.4,2.8l-6.2,4.4l-4.2,2.4l-4.4,2.2l-9.3,3.9l-8,2.9l-12.6,3.6l-4.6,0.9l-8.5,1.4l-10.5,0.9l-3.5,-0.1l-7.8,-0.6l-6.1,-1.4l-3.4,-1.3l-3.3,-1.8l-3,-2.4l-0.5,-0.6l-0.3,-0.7l0,-0.8l0.3,-0.7l0.5,-0.6z"/>
               </mask>


               <path d="M 12 375 L 409 300 V 400 H 12 Z" mask="url(#base_mask)" />

               <use href="blendifer.svg#ikon" transform="translate(40 100) scale(1.5)"/>
                  
              </g>
              
              <g id="panel4of4" clip-path="url(#clip4of4)">
                  
               <g transform="translate(490 47)">
                <rect class="text-bubble" width="275" height="60"
                x="-140" y="-25" />
                <path d="m-50 60 l -20 -25 h5 z"/>

                <text text-anchor="middle">
                  Oh yeah - <tspan font-style="italic">now</tspan>
                  I know
                   <tspan x="0" dy="0.9em">
                    what you're talking about.
                   </tspan>
                </text>
               </g>
               
               <use href="friar.svg#ikon" transform="translate(440 220) scale(1)"/>
               
               
               <defs>
                <mask id="shadow_mask">
                 <rect height="100%" width="100%" fill="#fff"/>
                 <ellipse cx="485.5" cy="347.7" rx="35" ry="2"/>
                </mask>
               </defs>
               <ellipse mask="url(#shadow_mask)" cx="475" cy="350" rx="55" ry="3"/>

              </g>
            
            </g>
          </g>
          
        </g>

        <g id="titles">

          <rect id="title_line" x-data_no_port="1" x="12.5" y="12.5" />

          <g id="title_graphics" transform="translate(25 20) scale(2.5)">

            <path id="LIVING" d="

                M 0 4.62 L 8.528 3.998 L 8.626 16.959 L 13.18 16.44 L 13.18 19.654 L 1.169 19.654 L 0 4.62 Z

                M 13.305 11.772 L 20.473 11.443 L 18.912 20.218 L 13.789 19.955 L 13.305 11.772 Z


                M 20.273 5.271 L 24.817 20.217 L 29.177 19.937 L 28.002 3.998 Z
                M 27.064 19.937 L 30.31 20.217 L 34.392 4.532 L 30.96 3.348 L 27.064 19.937 Z


                M 41.761 4.006 L 33.678 5.153 L 35.064 19.717 L 40.372 20.076 L 41.761 4.006 Z


                M 41.761 5.271 L 47.812 3.998 L 55.237 19.073 L 49.943 20.31 L 41.761 5.271 Z
                M 41.761 5.271 L 45.543 5.99 L 45.77 19.754 L 42.896 19.783 L 41.761 5.271 Z
                M 50.234 3.998 L 54.745 4.532 L 55.237 19.073 L 51.243 17.206 L 50.234 3.998 Z


                M 64.07 10.583 C 62.647 8.968 59.953 10.222 59.958 12.001 C 59.97 16.5 64.895 16.109 65.403 13.375 L 66.298 17.409 C 64.372 21.631 57.533 22.182 54.962 15.637 C 51.963 8.002 60.087 2.105 67.134 4.694 L 64.07 10.583 Z
                M 69.317 20.502 L 64.681 20.046 L 65.038 13.279 L 63.132 13.878 L 62.587 11.473 L 68.319 11.473 L 69.317 20.502 Z

            "/>

            <path id="THINGS" d="

                M 92.019 6.86 L 87.447 6.208 L 88.457 19.198 L 80.182 19.792 L 80.084 6.832 L 75.53 7.35 L 75.53 4.136 L 92.492 3.861 L 92.019 6.86 Z

                M 90.907 4.728 L 98.109 3.543 L 98.109 19.762 L 92.296 20.132 L 90.907 4.728 Z
                M 96.562 10.003 L 102.376 9.511 L 102.376 14.208 L 96.562 15.287 L 96.562 10.003 Z
                M 99.939 3.543 L 104.899 3.543 L 104.899 19.573 L 101.179 19.762 L 99.939 3.543 Z


                M 105.771 10.957 L 112.343 10.492 L 111.636 20.249 L 106.339 20.169 L 105.771 10.957 Z


                M 113.154 5.278 L 119.204 4.006 L 126.137 18.786 L 120.843 20.25 L 113.154 5.278 Z
                M 113.154 5.278 L 116.935 5.988 L 117.219 19.803 L 113.871 20.076 L 113.154 5.278 Z
                M 121.85 4.147 L 126.137 4.154 L 126.137 18.786 L 122.636 17.213 L 121.85 4.147 Z

                M 141.076 20.076 L 136.283 20.751 L 136.817 13.437 L 133.781 14.336 L 133.235 11.931 L 140.079 11.721 L 141.076 20.076 Z

                M 135.83 10.503 C 134.407 8.889 131.718 10.143 131.718 11.921 C 131.718 16.704 135.775 16.905 137.573 14.602 L 138.058 17.329 C 136.132 21.551 128.383 22.151 126.235 15.557 C 123.7 7.774 131.847 2.025 138.894 4.615 L 135.83 10.503 Z

                M 143.459 13.968 C 144.883 15.583 148.273 15.488 147.431 13.896 C 146.519 12.171 143.148 13.04 141.184 10.852 C 136.708 5.864 147.021 0 153.531 7.142 L 150.332 10.852 C 147.576 8.182 144.383 8.94 146.235 10.533 C 147.582 11.692 152.274 11.525 153.167 13.968 C 155.383 20.029 145.636 23.018 140.027 18.484 L 143.459 13.968 Z


            " />
            
            <g id="title_circs">
              <circle cx="17" cy="7.3" r="3.8" />
              <circle cx="109.2" cy="6.5" r="3.8" />
              <!--
              <defs>
              <g id="pop" transform="scale(0.45)">
                <path d="
                M 10 0 A 10 10 0 1 0 10 0.01Z
                M 7 0 A 7 7 0 1 0 7 0.01Z
                " fill-rule="evenodd" />
                <path d="M 0 -6 A 6 6 0 1 1 0 6 A 10 8 0 0 0 0 -6 Z " transform="rotate(30)"/>
              </g>
              </defs>
              <use href="#pop" x="16" y="7"/>
              <use href="#pop" x="109" y="6"/>
              -->
            </g>

            <g id="title_hearts">
              <path id="heart" d="M 16.089 4.464 C 20.26 0.852 25.207 8.953 14.734 12.088 C 6.118 5.836 13.26 -0.162 16.089 4.464 Z  M 15.831 6.053 C 19.07 2.662 22.505 8.426 14.986 10.611 C 8.76 5.827 13.959 2.006 15.831 6.053 Z" fill-rule="evenodd" />
              <path id="square" d=" M 105.92 9.623 L 105.528 2.75 L 113.085 3.039 L 112.365 9.623 L 105.92 9.623 Z  M 107.159 8.337 L 106.917 4.07 L 111.655 4.251 L 111.208 8.337 L 107.159 8.337 Z " fill-rule="evenodd" />
            </g>

          </g>
        </g>

        <g id="borders" transform="translate(0 80)" >

          <g class="P2 top-half">
            <path d="M12.5 12.5 H312.5 V388 H12.5Z"/>
            <path d="M337.5 12.5 H637.5 V388 H337.5Z"/>
          </g>
          <g class="P2 bottom_half">
            <!--<path d="M12.5 12.5 H312.5 V388 H12.5Z"/>-->
            <use href="#copyright" transform="translate(330.3 370)"/>
            <path d="M337.5 12.5 H637.5 V388 H337.5Z"/>
          </g>

          
        </g>
        
      </g>
    </g>
  </defs>

  <use href="#ikon"/>

</svg>
