<svg xmlns="http://www.w3.org/2000/svg">
 
 <defs>
  <path id="mask" transform="scale(0.25)" d=" M228 630 q100 -25 218 -14 l18 25 l-20 140 h-261 l-29 -55 z " />
  <g id="pattern_elements" transform="scale(0.25)">
   <path id="lid_fill" d="m199.01,100.37c-36.03,16.98 -70.97,34.66 -106.9,57.24c-11.55,13.59 0.45,26.01 3.99,21.72l65.92,2.79l38.55,-25.14c56.61,13.22 99.81,74.49 164.8,44.69l5.03,-46.93c8.01,-10.99 22.16,-29.24 25.7,-48.04l-84.92,-11.73l-8.38,40.78c-39.56,8.12 -85.19,12.27 -111.69,-18.19c5.6,-2.06 9.7,-12.43 7.9,-17.19z" />
   <path id="cup_fill" d="m243.14,502.75c13.19,-10.87 125.43,-39.36 208.43,-3.38c-17.82,37.95 -29.98,75.58 -38.36,112.89c-42.66,-1.57 -89.1,-0.94 -140.25,7.55c2.95,-32.42 6.54,-70.49 -29.82,-117.06z" />
  </g>
 </defs>
 
 <g id="ikon" fill="var(--outline-color, #000)">
 
  <g transform="scale(0.25)">

   <path id="cord" d="m454.7,701.9l0.7,-0.4l0.8,-0.2l0.7,0.2l0.7,0.4l2.4,1.9l2.7,1.5l2.9,1.1l5.4,1.3l7.4,0.6l3.2,0.1l10.1,-0.9l8.2,-1.3l4.3,-0.9l12.4,-3.5l12.3,-4.7l8.6,-4l3.9,-2.1l5.8,-4.2l3.2,-2.6l2.8,-2.8l2.3,-2.8l3.2,-5.1l1.3,-3.1l0.8,-3.3l0.2,-6.6l-0.4,-4.2l-0.7,-4.3l-2,-7.6l-1.8,-4.7l-3.7,-8.2l-2.8,-5l-3.1,-5l-3.4,-5.1l-7.4,-9.8l-6.6,-7.8l-10.7,-11.5l-13.3,-13.4l-5.7,-6.4l-2.4,-3l-1.9,-3.2l-1.3,-4l0,-1.2l1.5,-5.9l0.5,-1l4.2,-4.4l3,-2l3.7,-1.9l8,-3l5.4,-1.7l11,-2.8l14.7,-3l16.2,-2.7l24.2,-2.8l25.3,-1.8l24.6,-0.7l17.1,0.1l8,0.2l12.1,0.8l6.8,0.6l9.7,1.4l8.9,1.8l6.8,1.7l5,1.6l5.4,2.1l0.6,0.4l0.5,0.7l0.2,0.7l0,0.8l-0.3,0.7l-0.5,0.6l-0.7,0.4l-0.8,0.1l-6,-2.3l-4.7,-1.4l-6.6,-1.7l-8.6,-1.7l-9.5,-1.4l-6.6,-0.6l-11.9,-0.8l-7.9,-0.2l-16.9,-0.1l-24.6,0.7l-25,1.8l-24,2.8l-16,2.6l-14.5,3l-10.8,2.7l-5.2,1.7l-7.7,2.9l-3.2,1.7l-2.4,1.7l-3.3,3.4l-1.2,4.7l1,3.1l1.5,2.3l4.6,5.6l16.2,16.5l10.9,11.6l6.7,8l7.6,10.1l3.5,5.2l3.2,5.2l2.9,5.2l3.9,8.5l1.9,5l2.1,8.1l0.8,4.7l0.4,4.5l-0.2,7.2l-1,4.2l-1.5,3.8l-3.5,5.8l-2.8,3.2l-3,3.1l-3.4,2.8l-6.2,4.4l-4.2,2.4l-4.4,2.2l-9.3,3.9l-8,2.9l-12.6,3.6l-4.6,0.9l-8.5,1.4l-10.5,0.9l-3.5,-0.1l-7.8,-0.6l-6.1,-1.4l-3.4,-1.3l-3.3,-1.8l-3,-2.4l-0.5,-0.6l-0.3,-0.7l0,-0.8l0.3,-0.7l0.5,-0.6z"/>
   <path id="under_lid" d="M115 165Q 150 145 200 157L166 183Z"/>
-
   <path d="m445.8,615.2l0.7,-0.3l0.8,0l0.8,0.3l0.6,0.5l3.8,5.1l13.4,20.1l0.3,0.8l0.1,0.7l-0.3,0.8l-0.4,0.6l-0.7,0.5l-0.7,0.1l-0.8,0l-0.7,-0.4l-0.6,-0.6l-11.5,-17.4l-5.5,-7.4l-0.3,-0.7l-0.2,-0.8l0.2,-0.8l0.4,-0.6l0.6,-0.5z" id="svg_1"/>
   <path d="m97.9,178.9l0.2,-0.8l0.4,-0.6l0.7,-0.5l0.7,-0.2l15.6,-0.8l13,0.3l12.1,0.9l23.8,3.5l0.7,0.3l0.6,0.5l0.4,0.6l0.2,0.8l-0.2,0.8l-0.4,0.7l-0.6,0.5l-0.7,0.3l-0.8,0l-23.6,-3.5l-11.7,-0.9l-12.7,-0.3l-15.2,0.8l-0.8,0l-0.7,-0.4l-0.5,-0.5l-0.4,-0.7l-0.1,-0.8z"/>
   <path d="m425.3,498.9l0.4,0.6l-0.1,0.8l-7.7,16l-4.7,10.4l-5.9,14.4l-4.2,11.8l-4,13l-3.7,13.8l-3,13.2l-0.4,0.7l-0.7,0.2l-0.4,0l-0.6,-0.6l-0.1,-0.7l3,-13.3l3.8,-13.9l4,-13.1l4.2,-11.9l5.9,-14.5l4.8,-10.5l7.7,-16.1l0.5,-0.5l0.8,0l0.4,0.2z"/>
   <path d="m386.8,562.5l0.1,-0.8l0.6,-0.5l2.6,-1.1l9.4,-1.2l11.4,-0.6l2.5,0l2.6,0.4l0.5,0.7l0.1,0.4l-0.4,0.7l-3,1.4l-14,2.5l-15.9,4.4l-7.3,2.2l-0.8,0l-0.6,-0.5l-0.1,-0.4l0.2,-0.7l0.6,-0.5l7.3,-2.3l16.1,-4.4l14,-2.5l2.3,-1l-1.1,2l-0.7,-0.1l-2.3,-0.1l-11.2,0.6l-9.1,1.2l-2.2,0.9l-0.8,0.1l-0.6,-0.5l-0.2,-0.3z"/>
   <path d="m374.7,571.7l0.1,-0.7l0.6,-0.5l2.2,-0.9l6.2,-1.9l3.2,-0.7l12.2,-1.6l11.3,-1.1l0.7,0.3l0.5,0.6l0,0.4l-0.3,0.7l-0.7,0.3l-11.2,1l-12.1,1.6l-6,1.5l-5.2,1.9l-0.8,0l-0.6,-0.5l-0.1,-0.4z"/>
   <path d="m148.1,212.8l0.8,-0.3l0.8,0l0.7,0.3l0.6,0.6l18.9,22.5l11.8,15l13.4,18.3l15.6,22.9l12.2,18.8l6.1,9.8l10.3,17.5l6,10.7l9.6,18.4l5.5,11l5.1,10.9l4.7,10.5l4.4,10.4l5.9,16.6l5.1,16.4l3.7,13.7l2.6,10.9l1.7,8.2l0.9,5.9l0.4,3.8l0,0.8l-0.3,0.7l-0.6,0.6l-0.7,0.3l-0.8,0.1l-0.7,-0.2l-0.7,-0.4l-0.4,-0.6l-0.3,-0.8l-0.4,-3.8l-0.9,-5.6l-1.6,-8.1l-2.5,-10.7l-3.7,-13.6l-5.1,-16.3l-5.9,-16.3l-4.2,-10.2l-4.7,-10.5l-5.1,-10.7l-5.4,-11l-9.6,-18.3l-6,-10.6l-10.2,-17.4l-6.1,-9.7l-12.1,-18.7l-15.5,-22.8l-13.4,-18.2l-11.6,-14.9l-19,-22.6l-0.3,-0.6l-0.1,-0.8l0.1,-0.8l0.4,-0.7l0.6,-0.4z"/>
   <path d="m167.3,198.8l0.6,-0.5l0.7,-0.3l0.8,-0.1l0.8,0.3l1.5,0.8l6.7,2.8l6.8,2.4l9.5,2.7l8.8,2.2l13.6,2.9l15.3,2.6l12.6,1.8l6.5,0.8l18.3,1.7l18.1,1.4l12,0.5l19.4,0.5l17.9,-0.1l0.7,0.1l0.7,0.4l0.6,0.5l0.2,0.8l0.1,0.8l-0.3,0.7l-0.5,0.6l-0.6,0.4l-0.8,0.2l-18.1,0.1l-19.4,-0.5l-12.1,-0.5l-18.3,-1.3l-18.4,-1.8l-6.6,-0.8l-12.6,-1.8l-15.6,-2.7l-13.7,-2.9l-8.9,-2.2l-9.7,-2.8l-7.1,-2.4l-7.1,-3l-1.7,-0.9l-0.6,-0.5l-0.4,-0.7l-0.2,-0.7l0.1,-0.8l0.4,-0.7z"/>
   <path d="m101.5,168.1l-0.1,-0.7l0.1,-0.8l0.4,-0.7l0.7,-0.5l2.3,-1.2l11.3,-3.8l9.2,-2.7l7.3,-1.8l4.2,-0.9l8.1,-1.3l5.2,-0.7l5.4,-0.6l9.3,-0.6l5.8,0l5.9,0.1l6.1,0.5l10.4,1.6l6.3,1.2l6.2,1.5l6,1.7l6.1,2l9.7,4l5.8,2.6l9.2,4.6l10.7,5.8l22.4,12.9l12.1,6.4l7.5,3.4l4.5,1.8l4.3,1.6l4.3,1.4l4.2,1.2l7.1,1.2l4.1,0.4l7.1,0l4.1,-0.3l7.3,-1.2l6.4,-1.5l5.2,-1.6l4,-1.4l2.9,-1.2l2,-1l1.5,-0.8l0.7,-0.3l0.8,0l0.7,0.2l0.6,0.5l0.4,0.7l0.2,0.8l-0.2,0.8l-0.4,0.7l-0.6,0.5l-1.5,0.9l-2.3,1.1l-3.2,1.3l-4.2,1.5l-5.4,1.6l-6.6,1.6l-7.7,1.3l-4.5,0.3l-7.4,0l-4.6,-0.4l-7.4,-1.3l-4.5,-1.2l-4.5,-1.5l-4.5,-1.6l-4.6,-1.9l-7.7,-3.5l-12.4,-6.5l-22.5,-13l-10.5,-5.7l-9.1,-4.6l-5.6,-2.5l-9.5,-3.9l-5.8,-1.9l-5.9,-1.6l-6,-1.5l-6.1,-1.2l-10.2,-1.5l-5.8,-0.4l-5.7,-0.2l-5.7,0.1l-9,0.5l-5.2,0.6l-5.1,0.6l-7.9,1.3l-4.1,0.9l-7.1,1.8l-9,2.6l-10.9,3.7l-1.9,1l-0.8,0.3l-0.7,0l-0.8,-0.3l-0.6,-0.6l-0.3,-0.7z"/>
   <path d="m87.2,161.2l-0.3,-0.7l-0.1,-0.8l0.3,-0.8l0.5,-0.6l2.2,-2l20.1,-12.4l11,-6.4l23.3,-12.8l19,-9.9l31,-15l3.3,-1.5l0.8,-0.2l0.7,0.1l0.8,0.3l0.5,0.6l0.3,0.7l0.1,0.8l-0.2,0.7l-0.5,0.7l-0.6,0.4l-3.3,1.5l-30.8,15l-19,9.8l-23.2,12.7l-10.9,6.4l-19.8,12.2l-1.8,1.7l-0.7,0.4l-0.7,0.1l-0.8,-0.1l-0.7,-0.3l-0.5,-0.6z"/>
   <path d="m313.7,85.1l0.6,0.4l0.5,0.7l0.2,0.7l0,0.8l-4.9,18l-2.1,10.2l-2.1,16.7l-0.2,2.3l-0.2,0.8l-0.4,0.7l-0.6,0.4l-0.8,0.2l-0.8,0l-0.7,-0.3l-0.6,-0.6l-0.3,-0.7l-0.1,-0.8l0.2,-2.3l2.2,-17.1l2.1,-10.5l4.9,-18.1l0.3,-0.7l0.5,-0.6l0.7,-0.3l0.8,-0.1l0.8,0.2z"/>
   <path d="m309.8,95.5l0.5,-0.6l0.6,-0.5l0.8,-0.2l0.8,0.1l5.8,1.4l7,1.1l34.7,3.2l11.8,1.5l16.2,2.7l7.6,1.6l0.7,0.3l0.6,0.6l0.4,0.7l0.1,0.7l-0.2,0.8l-0.4,0.7l-0.7,0.4l-0.7,0.3l-0.8,-0.1l-7.5,-1.5l-15.9,-2.7l-11.7,-1.5l-34.7,-3.2l-7.3,-1.1l-6.2,-1.6l-0.7,-0.3l-0.6,-0.5l-0.3,-0.8l-0.1,-0.7l0.2,-0.8z"/>
   <path d="m396.5,106.9l0.6,0.3l0.4,0.5l0.3,0.6l0,0.7l-0.3,1.7l-1.1,3.7l-1.8,4.7l-3.2,6.5l-4.8,8.8l-14,23.4l-0.5,0.5l-0.6,0.3l-0.6,0.1l-0.7,-0.1l-0.5,-0.4l-0.4,-0.5l-0.2,-0.7l0,-0.6l0.2,-0.6l15.5,-25.9l4.8,-9.2l2.6,-5.8l1.1,-3.4l0.7,-3.2l0.2,-0.6l0.5,-0.5l0.5,-0.3l0.7,-0.1l0.6,0.1z"/>
   <path d="m466.1,305.1l0.6,0.4l0.5,0.6l0.2,0.8l0,0.7l-5.4,23l-3.7,12.9l-10.2,31.9l-7.2,21.3l-10.3,28.6l-8.1,21.1l-11.3,28.2l-4.6,10.9l-0.4,0.6l-0.6,0.5l-0.8,0.2l-0.8,0l-0.7,-0.3l-0.6,-0.6l-0.3,-0.7l-0.1,-0.8l0.2,-0.7l2.3,-5.4l13.5,-33.6l8,-21l10.3,-28.5l7.3,-21.2l10.1,-31.8l3.6,-12.8l5.4,-22.7l0.3,-0.7l0.5,-0.6l0.7,-0.4l0.8,-0.1l0.8,0.2z"/>
   <path d="m452.9,498.6l0.5,0.6l0.3,0.7l0,0.8l-0.3,0.8l-2.5,4.8l-6.4,14.3l-4.4,10.8l-4.9,13.2l-6.9,21.1l-4.7,16l-7.9,30.8l-0.3,0.7l-0.5,0.6l-0.7,0.4l-0.8,0.1l-0.8,-0.2l-0.6,-0.4l-0.5,-0.6l-0.2,-0.8l0,-0.8l8,-31l4.7,-16.2l7,-21.1l4.9,-13.4l4.4,-10.9l6.5,-14.6l2.7,-5l0.5,-0.6l0.6,-0.4l0.8,-0.2l0.8,0.1l0.7,0.4z"/>
   <path d="m241.3,500.3l0.7,-0.3l0.8,0l0.8,0.2l0.6,0.5l2.2,2.3l5.9,7.5l3.8,5.7l1.5,2.6l4.5,8.5l4.3,9.7l3.1,8.1l1.4,4.3l2.1,7.8l2.1,9.6l1.3,8.1l0.5,4.9l0.4,5l0.2,8.5l-0.2,7.4l-0.3,6.1l-0.9,8.3l-0.6,4l-0.3,0.7l-0.5,0.6l-0.7,0.4l-0.8,0.1l-0.7,-0.1l-0.7,-0.4l-0.5,-0.6l-0.3,-0.7l0,-0.8l1.1,-7.2l0.7,-10.6l0.1,-7.3l-0.1,-8.3l-0.4,-4.7l-0.5,-4.8l-1.3,-7.8l-2,-9.3l-2.1,-7.6l-1.3,-4.2l-3,-7.9l-4.2,-9.4l-4.3,-8.2l-1.5,-2.4l-3.6,-5.5l-5.6,-7.1l-2.1,-2.2l-0.4,-0.7l-0.2,-0.8l0.1,-0.7l0.3,-0.7l0.6,-0.6z"/>
   <path d="m236.2,627.7l0,0.8l-0.4,0.7l-0.6,0.6l-0.7,0.3l-1.8,0.5l-0.6,-3.7l29.3,-6.1l17.4,-3l20.6,-2.9l24.6,-2.7l22.9,-1.6l22.9,-0.8l21.3,-0.1l14.7,0.3l21.3,1.4l19.6,2.1l0.8,0.2l0.6,0.5l0.4,0.7l0.2,0.7l-0.1,0.8l-0.4,0.7l-0.6,0.5l-0.7,0.3l-0.8,0.1l-19.4,-2.1l-21.2,-1.4l-14.4,-0.3l-21.3,0.1l-22.7,0.8l-22.7,1.6l-24.4,2.7l-20.5,2.8l-17.3,3.1l-29.3,6.1l-4,0.4l-0.9,-0.1l-0.7,-0.3l-0.5,-0.6l-0.4,-0.8l0,-0.8l0.3,-0.8l0.5,-0.6l0.7,-0.4l2.6,-0.9l2.9,-0.8l0.8,0l0.8,0.2l0.6,0.4l0.4,0.7l0.2,0.7z"/>
   <path d="m464.5,642.9l0.6,0.5l0.4,0.7l0.2,0.7l-0.9,3.3l-5.6,33.8l-4.5,30.8l-4.4,31.5l-4.4,31.7l-0.2,0.7l-0.5,0.7l-0.7,0.4l-0.8,0.1l-0.7,-0.1l-0.7,-0.3l-0.6,-0.6l-0.3,-0.7l0,-0.8l4.5,-31.7l4.3,-31.5l4.5,-30.9l5.7,-34.1l0.9,-2.8l0.3,-0.7l0.6,-0.6l0.7,-0.3l0.8,0l0.8,0.2z"/>
   <path d="m229.1,628l0.6,0.6l0.3,0.7l0.1,0.7l-0.2,0.8l-1.4,3.2l-3.9,6.4l-7.9,10.9l-21.8,27.2l-19.5,23.7l-19,23.3l-0.6,0.5l-0.7,0.3l-0.8,0l-0.7,-0.3l-0.7,-0.5l-0.4,-0.7l-0.1,-0.7l0.1,-0.8l0.4,-0.7l19,-23.2l19.5,-23.8l21.8,-27l7.6,-10.7l3.7,-6l1.3,-2.9l0.4,-0.7l0.7,-0.4l0.7,-0.2l0.8,0l0.7,0.3z"/>
   <path d="m152.1,725.8l0.8,-0.2l0.8,0.1l0.7,0.4l0.5,0.5l15.7,23.7l4.2,7.2l3.9,7.7l4,9.6l2.4,6.7l1.4,4.5l0,0.8l-0.2,0.7l-0.4,0.7l-0.6,0.4l-0.8,0.3l-0.8,-0.1l-0.7,-0.3l-0.5,-0.6l-1.7,-5l-2.3,-6.5l-4,-9.3l-3.7,-7.5l-4,-7l-15.6,-23.5l-0.4,-0.7l0,-0.8l0.2,-0.7l0.5,-0.7l0.6,-0.4z"/>
   <path d="m203.5,159.9l-0.3,0.8l-0.4,0.6l-0.7,0.4l-0.8,0.2l-1.7,0.1l-6.5,3.2l-5,2.7l-6.2,3.8l-7,5.2l-5.2,4.3l-2.4,2.3l-3.9,4.2l-2,2.4l-2.9,4.3l-1.5,2.4l-1.9,4.3l-1.3,3.7l-0.8,2.9l-0.4,2.3l-0.2,1.5l0.1,1.7l-0.2,0.7l-0.3,0.7l-0.6,0.5l-0.8,0.3l-0.7,0l-0.8,-0.2l-0.6,-0.5l-0.4,-0.7l-0.2,-0.7l0,-1.8l0.2,-2.1l0.5,-2.6l0.8,-3.3l1.5,-4l2.1,-4.7l1.6,-2.8l3.1,-4.5l2.3,-2.8l4,-4.3l2.6,-2.5l5.5,-4.6l7.2,-5.3l6.5,-4l5.1,-2.8l7.2,-3.5l0.9,-0.2l2.1,-0.1l0.8,0.1l0.7,0.4l0.5,0.5l0.3,0.8l0.1,0.7z"/>
   <path d="m191.8,114.2l0.8,0.2l0.6,0.4l0.5,0.6l0.2,0.8l0.2,1.3l1.3,1.8l1.7,1.8l3.5,3.1l1.6,1.2l3.7,2.3l2.3,1.4l4.8,2.3l3.1,1.3l6.8,2.3l3.7,1l6.9,1.4l4.2,0.7l7.7,0.7l9.2,0.5l9,0l11.5,-0.8l6.5,-0.8l6.2,-1.1l4.9,-1l6.6,-1.8l2.8,-1l0.8,-0.1l0.8,0.1l0.6,0.4l0.6,0.6l0.2,0.8l0,0.7l-0.2,0.8l-0.6,0.6l-0.6,0.4l-3,1l-6.9,1.8l-5.1,1.1l-6.4,1.2l-6.6,0.8l-4.4,0.4l-7.5,0.4l-9.3,0l-9.5,-0.5l-7.8,-0.7l-4.5,-0.7l-7.1,-1.5l-3.9,-1l-3.7,-1.2l-3.5,-1.3l-3.3,-1.4l-5,-2.3l-2.6,-1.6l-3.9,-2.4l-1.9,-1.4l-3.8,-3.4l-2,-2.2l-1.9,-2.5l-0.4,-1l-0.2,-1.9l0,-0.8l0.3,-0.7l0.5,-0.6l0.7,-0.4l0.8,-0.1z"/>
   <path d="m217.5,251.7l0.7,0l0.5,0.5l0.8,1.9l4.7,6.8l8,10.6l7.4,9.8l7.8,10.6l8.7,12.5l6.7,10.1l6.5,10.4l8.3,14.4l4.9,9.6l4.1,8.5l5.7,12.5l3.5,8.4l0,0.7l-0.5,0.6l-0.3,0.1l-0.7,-0.1l-0.5,-0.6l-3.4,-8.3l-5.7,-12.4l-4.1,-8.4l-4.9,-9.6l-8.2,-14.3l-6.5,-10.4l-6.7,-10l-8.6,-12.4l-7.8,-10.6l-7.4,-9.8l-8,-10.6l-4.8,-7l-0.9,-2.1l-0.1,-0.7l0.4,-0.6l0.4,-0.1z"/>
   <path d="m240.8,303.4l0.5,-0.7l0.7,-0.1l2.2,0.2l5.3,-0.1l17.5,-2l2,-0.2l0.7,0.4l0.2,0.4l0,0.3l-0.2,0.8l-0.4,0.2l-2,0.4l-17.6,2l-5.5,0.1l-2.4,-0.3l-0.7,-0.3l-0.3,-0.7l0,-0.4z"/>
   <path d="m253.7,316.7l0.4,-0.6l0.8,-0.2l2.3,0.1l16.7,-3l2.5,-0.5l0.4,0.2l0.5,0.5l0.1,0.4l-0.1,0.4l-0.5,0.6l-2.5,0.6l-16.9,3.1l-2.7,-0.2l-0.7,-0.3l-0.4,-0.7l0.1,-0.4z"/>
   <path d="m260.4,331.8l0.4,-0.6l0.7,-0.3l2.4,0.1l17.3,-2.5l3.8,-0.4l0.6,0.5l0.2,0.3l0,0.4l-0.1,0.4l-0.5,0.6l-3.7,0.4l-17.3,2.6l-2.7,-0.1l-0.8,-0.3l-0.3,-0.7l0,-0.4z"/>
   <path d="m266.1,344.9l0.7,-0.3l0.7,0.2l1.6,1.1l2.1,-0.2l11.6,-2.3l6,-1.4l0.8,0.1l0.5,0.5l0.1,0.4l-0.2,0.7l-0.6,0.5l-6.1,1.4l-11.8,2.4l-2.6,0.2l-0.8,-0.2l-1.9,-1.4l-0.4,-0.6l0,-0.8l0.3,-0.3z"/>
   <path d="m294.7,408.9l0.3,-0.7l0.7,-0.3l2.3,-0.1l3.6,-1l0.7,0.3l0.3,0.4l0.1,0.3l0,0.4l-0.4,0.7l-3.8,1.1l-2.6,0.2l-0.8,-0.2l-0.4,-0.7l0,-0.4z"/>
   <path d="m294.2,423l0.2,-0.8l0.7,-0.4l7.8,-1.4l8.6,-0.9l0.8,0.2l0.4,0.7l0,0.4l-0.3,0.7l-0.7,0.3l-8.5,0.8l-7.6,1.4l-0.8,-0.1l-0.5,-0.5l-0.1,-0.4z"/>
   <path d="m290.3,442.6l0.7,-0.3l0.7,0.2l1.7,1.2l2.1,0.4l2.9,0.2l7.3,-0.6l9.3,-1.6l0.8,0.1l0.5,0.6l0.1,0.4l-0.2,0.7l-0.7,0.4l-4.7,0.9l-7.8,1l-4.5,0.3l-3.3,-0.2l-2.5,-0.5l-2.2,-1.4l-0.5,-0.7l0.1,-0.7l0.2,-0.4z"/>
   <path d="m379,144.1l0.6,-0.4l0.8,-0.1l0.8,0.2l0.7,0.4l11.2,9.8l6.5,6.3l4.7,5.1l3,3.4l5.1,6.4l6.1,8.3l2.9,4.3l2.9,4.6l4.5,7.9l2.5,4.8l3.9,8.2l3.6,8.3l2.8,7.3l3.7,10.5l1.7,5.7l0.3,1.5l-0.2,0.8l-0.5,0.6l-0.6,0.5l-0.8,0.2l-0.8,-0.1l-0.7,-0.3l-0.5,-0.6l-0.3,-0.7l-1.9,-6.3l-3.6,-10.2l-2.8,-7.2l-3.6,-8.2l-3.7,-8l-2.5,-4.7l-4.4,-7.7l-5.7,-8.7l-5.9,-8.1l-5,-6.3l-7.4,-8.2l-6.4,-6.1l-11.2,-9.8l-0.5,-0.6l-0.2,-0.7l0,-0.8l0.3,-0.7l0.6,-0.6z"/>
   <path d="m454.3,266.6l0.8,0.2l0.6,0.4l0.5,0.6l0.3,0.8l0.3,2.6l1.3,4.7l8.3,28.4l0.8,3l0,0.8l-0.2,0.8l-0.4,0.6l-0.7,0.5l-0.8,0.1l-0.7,0l-0.7,-0.4l-0.6,-0.6l-0.3,-0.7l-0.8,-2.9l-8.3,-28.3l-1.3,-5l-0.4,-3l0,-0.8l0.3,-0.7l0.5,-0.6l0.7,-0.4l0.8,-0.1z"/>
   <path d="m512.2,315.9l0.7,-0.4l0.7,0l1.7,0.8l1.9,0.6l2.6,0.5l3.3,0.3l2.8,0.1l3,0l2.5,-0.3l2.8,-0.6l3.5,-1.1l1.7,-0.7l2.4,-1.2l1.7,-1l0.3,0l0.7,0.3l0.3,0.3l0,0.8l-0.4,0.6l-1.4,0.9l-2.6,1.4l-1.9,0.8l-3.7,1.1l-3.1,0.6l-2.6,0.3l-3.2,0.1l-2.9,-0.1l-3.5,-0.3l-2.8,-0.6l-2.1,-0.6l-1.9,-0.9l-0.6,-0.6l0,-0.7l0.1,-0.4z"/>
   <path d="m499,336l0.6,-0.4l0.8,0.2l1.8,1l1.8,0.6l1.8,0.5l1.8,0.3l2.5,0.2l2.9,-0.1l2.6,-0.2l2.7,-0.3l3.2,-0.7l4,-1.5l3.6,-2.2l3,-2.6l1.6,-1.8l0.9,-1.2l0.8,-0.3l0.4,0.1l0.3,0.2l0.3,0.7l-0.1,0.8l-0.7,1l-1.8,2.1l-1.5,1.3l-1.9,1.5l-3.8,2.3l-4.3,1.7l-3.6,0.8l-2.9,0.4l-2.7,0.2l-3,0l-2.7,-0.2l-2,-0.3l-2,-0.5l-2,-0.7l-2.2,-1.2l-0.4,-0.6l0,-0.8l0.2,-0.3z"/>
   <path d="m194.7,209.2l-0.8,0.3l-0.7,0l-0.8,-0.2l-0.6,-0.5l-0.8,-0.8l-0.4,-0.7l-0.2,-0.8l0.1,-0.7l0.3,-0.7l0.6,-0.6l0.7,-0.3l0.8,0l0.8,0.2l0.6,0.5l0.8,0.8l0.4,0.7l0.2,0.8l-0.1,0.7l-0.4,0.7l-0.5,0.6z"/>
   <path d="m195.9,206.5l-0.3,0.8l-0.4,0.6l-0.7,0.5l-0.7,0.1l-1.9,0.2l-0.8,-0.1l-0.7,-0.4l-0.6,-0.6l-0.2,-0.8l0,-0.8l0.3,-1.9l0.4,-0.8l1.1,-1.7l3.5,-4.4l5.4,-5.5l5.4,-4.8l4.2,-3.1l9,-6l2.2,-1.3l0.8,-0.2l0.7,0l0.8,0.3l0.6,0.5l0.4,0.7l0.1,0.7l-0.2,0.8l-0.4,0.7l-0.6,0.5l-2.1,1.2l-8.7,5.8l-4,3l-3.9,3.3l-4.7,4.7l-3.2,3.6l-1.8,2.4l0.1,0l0.5,0.5l0.3,0.8l0.1,0.7z"/>
   <path d="m200.2,99.1l0.7,0.4l0.3,0.7l0.1,1.5l1.3,1.4l1.4,1l3,1.5l4.5,1.5l6.4,1.5l7,1.1l11.3,0.9l15.2,0.5l9.1,-0.1l14.2,-0.9l2.7,-0.3l0.8,0.2l0.4,0.6l0.1,0.4l-0.3,0.7l-0.7,0.3l-2.8,0.3l-14.3,0.9l-15.8,0l-14.1,-0.7l-8.8,-1l-6.7,-1.1l-4.3,-1.1l-4.7,-1.6l-3.3,-1.6l-1.7,-1.2l-1.9,-1.9l-0.3,-0.7l-0.1,-2l0.3,-0.7l0.6,-0.5l0.4,0z"/>
   <path d="m208.8,79l-0.6,0.6l-0.8,0.1l-2.1,-0.7l-0.3,-0.3l-0.1,-0.4l0,-0.4l0.2,-0.4l0.3,-0.3l2.3,-1.6l4.5,-1.4l3.6,-1l6.6,-1.3l12,-1.8l7.3,-0.7l10.5,-0.6l10.3,0.1l9.4,0.6l6,0.9l2.7,0.5l4,1l3.2,1.1l2.4,0.9l2.9,1.6l0.5,0.7l-0.1,0.7l-0.2,0.4l-0.6,0.3l-0.4,0l-3.1,-1.6l-2.2,-0.9l-3,-1l-3.9,-1l-2.6,-0.5l-5.9,-0.8l-9.2,-0.6l-10.2,-0.1l-10.3,0.5l-7.3,0.8l-11.8,1.7l-6.5,1.3l-6.1,1.8l-1.7,0.6l0.2,0.1l0.2,0.8l-0.1,0.3z"/>
   <path d="m478.2,222.3l0,0.7l-0.5,0.6l-1.9,1l-1.6,1.1l-3,2.6l-1.8,1.8l-2.3,3.2l-2,3.8l-0.9,3l-0.5,3l0.2,2.5l1.3,3.9l1.7,2.6l3.3,3.1l2.2,1.6l3.5,1.9l2.3,0.9l1.3,0.4l0.5,0.6l0,0.4l-0.1,0.4l-0.5,0.5l-0.7,0.1l-1.1,-0.3l-2.5,-0.9l-1.8,-0.9l-2.1,-1.2l-2.4,-1.7l-3.5,-3.3l-2.1,-3.1l-1.5,-4.4l-0.3,-3l0.6,-3.5l1,-3.4l2.1,-4.1l2.5,-3.4l2,-2.1l3.2,-2.8l1.8,-1.2l2,-1.1l0.8,-0.1l0.7,0.4l0.1,0.4z"/>
   <path d="m187.6,728l0.8,0l0.6,0.5l6.5,11.7l5.6,11.2l7.1,15.6l0.8,2l-0.2,0.8l-0.3,0.2l-0.4,0.2l-0.4,0l-0.7,-0.3l-0.9,-2l-7,-15.5l-5.6,-11.2l-6.5,-11.5l-0.1,-0.8l0.4,-0.7l0.3,-0.2z"/>
   <path d="m196.6,725.3l0.8,0l0.6,0.5l8,13.3l6.4,11l8.1,13.9l5.4,9.3l0.2,0.7l-0.4,0.7l-0.3,0.2l-0.8,0l-0.6,-0.5l-5.5,-9.3l-8.1,-13.9l-6.4,-10.9l-7.9,-13.3l-0.2,-0.8l0.4,-0.7l0.3,-0.2z"/>
   <path d="m400.4,643.5l0.2,0.7l0.1,0.8l-0.3,0.8l-0.5,0.6l-1.3,1.1l-20.9,27.1l-6.5,8.3l-18.6,21.9l-0.6,0.5l-0.8,0.2l-0.7,0l-0.8,-0.3l-0.5,-0.6l-0.4,-0.7l-0.1,-0.7l0.1,-0.8l0.5,-0.7l18.4,-21.7l6.5,-8.2l21,-27.3l1.7,-1.5l0.7,-0.4l0.8,-0.2l0.8,0.1l0.6,0.4l0.6,0.6z"/>
   <path d="m240.4,640.8l-0.2,-0.7l0,-0.8l0.3,-0.7l0.6,-0.6l3,-2.1l12.8,-4l18.7,-4.3l13,-2.4l31.4,-4.4l35.2,-3.1l18.7,-0.7l20.3,0.3l0.7,0.2l0.7,0.4l0.5,0.7l0.2,0.7l0,0.8l-0.3,0.7l-0.6,0.6l-0.7,0.4l-0.8,0.1l-20,-0.4l-18.4,0.7l-34.9,3l-31.3,4.5l-12.8,2.3l-18.5,4.3l-12.1,3.8l-2.2,1.6l-0.7,0.3l-0.8,0.1l-0.7,-0.2l-0.7,-0.4l-0.4,-0.7z"/>
   <path d="m241.4,640.4l0.4,0.6l0.2,0.8l-0.1,0.8l-0.4,0.7l-1.1,1.5l-2.7,3.7l-6.4,7.4l-16.9,18.6l-15.1,18.2l-0.6,0.5l-0.7,0.3l-0.8,0l-0.8,-0.2l-0.6,-0.5l-0.4,-0.7l-0.2,-0.7l0.2,-0.8l0.3,-0.7l15.3,-18.4l17,-18.6l6.2,-7.2l2.4,-3.5l1.3,-1.7l0.6,-0.5l0.7,-0.3l0.8,0l0.8,0.2l0.6,0.5z"/>
   <path d="m193.3,691.6l0.8,0.1l0.7,0.3l0.6,0.6l0.3,0.7l0.7,2.8l4.5,13.9l0.1,0.8l-0.2,0.7l-0.5,0.7l-0.6,0.4l-0.7,0.3l-0.8,-0.1l-0.7,-0.3l-0.6,-0.5l-0.4,-0.8l-4.4,-13.7l-0.8,-3.1l-0.1,-0.8l0.3,-0.7l0.4,-0.7l0.7,-0.4l0.7,-0.2z"/>
   <path d="m281.8,633.7l0.4,0.7l-0.2,0.8l-2.1,3.4l-7.9,10.2l-11.1,13.7l-9.1,11.3l-10.6,13.2l-0.7,0.4l-0.7,-0.1l-0.3,-0.3l-0.3,-0.7l0.2,-0.7l10.7,-13.3l9,-11.2l11.2,-13.7l7.8,-10.1l2,-3.3l0.6,-0.5l0.8,0l0.3,0.2z"/>
   <path d="m213,690.4l-0.3,0.7l-0.7,0.3l-2,0.1l-0.8,-0.2l-0.4,-0.7l0,-0.3l0.3,-0.7l0.6,-0.4l1.9,-0.3l16.3,-2.7l10.7,-1.6l12.1,-1.6l13.8,-1.7l14.3,-1.6l15.8,-1.8l13.4,-1.4l15.4,-1.5l16.4,-1.4l0.8,0.2l0.4,0.6l0.1,0.4l-0.4,0.7l-0.7,0.3l-16.3,1.5l-15.5,1.5l-13.3,1.4l-15.9,1.7l-14.2,1.7l-13.8,1.7l-12.1,1.6l-10.6,1.6l-16.3,2.6l-0.3,-2l0.2,0l0.7,0.3l0.4,0.6l0,0.4z"/>
   <path d="m391,618.8l0.2,0.7l-0.3,0.7l-10.1,11l-11.9,13.2l-10.4,12.1l-10,11.9l-4.8,5.8l-0.7,0.4l-0.7,-0.1l-0.3,-0.2l-0.3,-0.8l0.3,-0.7l4.8,-5.9l10,-11.9l10.4,-12.1l11.9,-13.2l10.2,-11.1l0.7,-0.3l0.7,0.2l0.3,0.3z"/>
   <path d="m340.1,625.1l0.5,0.6l0,0.8l-1.5,3.9l-1.3,2.6l-3,5l-6.4,8.8l-9.5,11.9l-11.3,13.4l-3.2,3.9l-0.7,0.4l-0.8,-0.2l-0.3,-0.2l-0.2,-0.8l0.2,-0.7l3.3,-3.8l11.2,-13.4l9.5,-11.8l6.4,-8.7l2.8,-4.8l1.2,-2.5l1.5,-3.8l0.5,-0.6l0.8,-0.1l0.3,0.1z"/>
   <path d="m242,685.1l0.8,0.3l0.4,0.6l1.1,4l4.3,12.3l0,0.8l-0.5,0.6l-0.4,0.1l-0.7,-0.1l-0.5,-0.6l-4.4,-12.4l-1.1,-4.2l0.1,-0.7l0.6,-0.6l0.3,-0.1z"/>
   <path d="m302.3,678l0.7,0.3l0.4,0.7l0.4,2.4l1,4.1l5.4,16.4l2.1,6l0,0.8l-0.5,0.6l-0.4,0.1l-0.8,-0.1l-0.4,-0.6l-4.2,-11.9l-3.4,-10.6l-1.1,-4.3l-0.4,-2.6l0.2,-0.7l0.6,-0.5l0.4,-0.1z"/>
   <path d="m225.9,665l-0.2,0.8l-0.6,0.4l-1.7,0.4l-5.2,2.2l-1.5,-1.3l3.9,-1.8l12.4,-3l14.2,-2.8l17.7,-3l10.8,-1.5l15.7,-2l15.7,-1.8l17.2,-1.6l9.1,-0.7l16.7,-1.1l16.5,-0.8l0.7,0.3l0.4,0.6l0,0.4l-0.4,0.7l-0.7,0.3l-16.4,0.7l-16.7,1.1l-9.1,0.7l-17.1,1.7l-15.7,1.7l-15.6,2l-10.8,1.6l-13.1,2.1l-15.4,2.9l-12.2,2.8l-6.4,1.8l-0.7,0l-0.6,-0.5l-0.1,-0.8l0.3,-0.6l5.6,-2.4l1.9,-0.5l0.8,0.1l0.5,0.5l0.1,0.4z"/>
   <path d="m198.6,708.2l0.2,-0.8l0.4,-0.6l0.7,-0.5l0.8,-0.2l35.3,-2.3l32.9,-1l27.3,-0.2l26.5,0.8l24.6,1.7l0.8,0.2l0.6,0.4l0.5,0.7l0.2,0.7l-0.1,0.8l-0.3,0.7l-0.6,0.6l-0.7,0.3l-0.8,0.1l-24.4,-1.7l-21.5,-0.7l-28.6,0l-36.1,1.1l-35.3,2.4l-0.8,-0.1l-0.7,-0.4l-0.6,-0.5l-0.3,-0.7l0,-0.8z"/>
   <path d="m177,728.9l-0.3,0.7l-0.7,0.3l-6,0.9l-0.7,-2.1l17,-2.9l16.4,-2.1l14.8,-1.4l12.7,-0.8l12,-0.5l14.9,-0.2l14.9,0.1l12.6,0.4l14.6,0.9l17.9,1.4l16.3,1.8l14.8,2.1l10.2,1.7l0.7,0.4l0.2,0.7l0,0.4l-0.5,0.6l-0.8,0.1l-10.2,-1.7l-14.7,-2l-16.2,-1.8l-17.9,-1.5l-14.5,-0.8l-12.5,-0.5l-14.9,-0.1l-14.8,0.3l-12,0.4l-12.7,0.9l-14.7,1.4l-16.2,2l-16.7,2.8l-0.8,-0.2l-0.4,-0.6l0,-0.7l0.5,-0.6l2.4,-0.5l4.1,-0.5l0.7,0.2l0.5,0.6l0,0.4z"/>
   <path d="m436.8,627.3l0.4,0.7l-0.1,0.7l-2.8,4.7l-5.7,8.5l-6.2,8.6l-9.5,12.3l-6,7.6l-9,11.4l-9.6,12.1l-7,8.8l-11.1,13.6l-11.2,13.6l-0.8,0.9l-0.3,0.1l-0.8,-0.1l-0.3,-0.3l-0.3,-0.7l0.1,-0.4l0.7,-0.9l11.2,-13.6l11,-13.6l7.1,-8.9l9.5,-12l9.1,-11.4l5.9,-7.6l9.5,-12.3l6.2,-8.5l5.5,-8.4l2.8,-4.6l0.6,-0.5l0.8,0l0.3,0.2z"/>
   <path d="m358,730.1l0.7,0l0.6,0.6l2.7,6.1l6.1,16.2l4.9,13.3l5.2,14.7l0,0.8l-0.5,0.5l-0.3,0.2l-0.8,-0.2l-0.5,-0.6l-5.3,-14.7l-4.8,-13.2l-6.1,-16.2l-2.7,-6l0,-0.7l0.4,-0.7l0.4,-0.1z"/>
   <path d="m98.6,155.1l-0.2,0.8l-0.4,0.7l-0.6,0.5l-0.7,0.2l-1.2,0.2l-1.3,1l-1.9,1.9l-1,1.2l-0.9,1.3l-1,2.1l-0.6,2.3l-0.2,1.7l0.1,2l0.7,1.9l0.8,1.1l2.4,1.8l2.6,1l1.8,0.5l1.4,0.1l0.7,0.2l0.7,0.5l0.4,0.6l0.2,0.8l0,0.8l-0.4,0.7l-0.5,0.5l-0.7,0.4l-0.8,0l-1.6,-0.1l-2.5,-0.6l-3.3,-1.4l-3.4,-2.4l-0.4,-0.5l-1.2,-1.6l-1.2,-2.9l-0.2,-0.7l-0.1,-2.7l0.2,-2.4l0.8,-3l1.3,-2.8l1.2,-1.8l1.3,-1.6l2.2,-2.2l2.1,-1.6l1,-0.4l1.7,-0.3l0.8,0l0.8,0.3l0.6,0.5l0.3,0.7l0.2,0.7z"/>
   <path d="m430.2,281l-0.4,-0.6l-0.2,-0.8l0.2,-0.8l0.3,-0.7l1.6,-2l3.2,-2.7l5.4,-3.8l7.8,-4.8l9.9,-5.2l8.1,-3.5l7.6,-2.7l5.1,-1.4l3.5,-0.7l2.7,-0.3l3,0l2.4,0.1l2.6,0.6l2.8,1.4l1.9,1.5l1.8,2.3l1,2.1l0.7,2.9l0.4,2.4l0.2,4.7l-0.5,7.4l-0.9,6.7l-1.1,5.5l-1.6,5.8l-4.1,12.6l-8.3,22.5l-5.7,17.5l-3.2,11.9l-1.6,8.2l-0.6,4.9l0,3.1l0.2,2.2l0.6,2.2l0.7,1.5l1,1.3l2,1.3l3,0.8l2.2,0.1l4.1,-0.1l2.7,-0.3l1.6,-0.4l0.8,0l0.7,0.2l0.6,0.4l0.5,0.7l0.2,0.8l-0.1,0.7l-0.4,0.7l-0.5,0.6l-0.8,0.3l-1.7,0.4l-3.1,0.4l-4.7,0.2l-2.7,-0.2l-3.9,-1l-0.6,-0.3l-2.7,-1.7l-0.6,-0.5l-1.4,-1.9l-1.1,-2.3l-0.8,-3l-0.4,-2.7l0.1,-3.6l0.6,-5.5l1.7,-8.5l3.3,-12.2l5.7,-17.7l8.4,-22.5l4,-12.4l2,-8l1.1,-6.5l0.7,-7.6l0,-4.5l-0.4,-3.8l-0.6,-2.3l-0.7,-1.3l-1.2,-1.5l-1,-0.8l-1.9,-0.9l-1.8,-0.3l-1.8,-0.1l-2.6,0.1l-2.3,0.2l-3.1,0.6l-4.7,1.3l-7.4,2.6l-7.8,3.4l-9.6,5l-7.5,4.6l-5.2,3.7l-2.7,2.3l-1.2,1.6l-0.6,0.5l-0.7,0.3l-0.8,0.1l-0.8,-0.3l-0.6,-0.5z"/>
   <path d="m341.3,671.2l0.8,0.1l0.5,0.6l1.7,5.9l2.3,11l2.8,16.5l-0.2,0.8l-0.6,0.5l-0.4,0l-0.7,-0.3l-0.4,-0.7l-2.7,-16.4l-2.3,-10.9l-1.7,-5.7l0,-0.7l0.6,-0.6l0.3,-0.1z"/>
   <path d="m394.1,616.3l0.7,0.3l0.6,0.6l0.3,0.7l0.1,0.8l-0.3,2.7l3.4,24.7l0,0.8l-0.3,0.7l-0.5,0.6l-0.7,0.4l-0.8,0.1l-0.8,-0.1l-0.6,-0.4l-0.5,-0.6l-0.3,-0.8l-3.5,-25.2l0.4,-3.4l0.2,-0.8l0.4,-0.6l0.7,-0.4l0.7,-0.2l0.8,0.1z"/>
   <path d="m365.8,646l0.6,0.4l0.2,0.8l-0.5,17.7l-0.3,16l-0.1,6.8l-0.2,0.7l-0.7,0.4l-0.4,0l-0.6,-0.4l-0.3,-0.7l0,-6.9l0.3,-16l0.6,-17.7l0.3,-0.7l0.7,-0.4l0.4,0z"/>
   <path d="m421.7,266l-0.5,-0.6l-0.2,-0.8l0.1,-0.8l0.4,-0.7l1.7,-2.2l0.5,-0.5l17.3,-11.8l16.2,-10l10.5,-5.8l10.7,-5l7.7,-2.8l5.6,-1.5l2.9,-0.5l4.4,-0.3l2.7,0l2.6,0.3l2.6,0.4l4,1.4l2.3,1.2l2.4,1.8l3.3,3.5l1.9,2.6l1.7,2.9l1.7,3.1l1.6,3.6l2.3,6.9l1.3,4.6l1.8,8.4l0.9,5.3l0.8,5.4l0.7,5.5l0.5,5.7l0.4,9.6l0.1,5.9l-0.3,9.5l-0.3,5.7l-1,9.1l-0.7,5.2l-0.9,5.1l-0.9,4.8l-1.1,4.6l-2.2,7.1l-1.5,4.1l-2.7,6.1l-1.8,3.4l-1.8,3.3l-2,3l-2.1,2.8l-3.7,3.9l-2.4,2.1l-2.5,1.9l-2.5,1.6l-1.8,0.9l-2.7,1.1l-2.8,0.8l-2.9,0.5l-4.9,0l-4.3,-0.6l-3.6,-0.8l-2.9,-0.9l-2.3,-0.9l-2.8,-1.6l-0.7,-0.5l-0.5,-0.6l-0.3,-0.7l0,-0.8l0.3,-0.7l0.5,-0.6l0.6,-0.5l0.8,-0.1l0.8,0.1l1.2,0.8l2.1,1.1l1.8,0.8l2.6,0.8l3.3,0.7l3.8,0.4l4.3,0.1l2.3,-0.4l2.2,-0.7l2.3,-0.9l1.4,-0.8l2.2,-1.4l2.2,-1.6l2.1,-1.9l3.4,-3.6l1.8,-2.5l1.8,-2.7l1.8,-3.1l1.6,-3.2l2.7,-5.9l1.3,-3.8l2.1,-6.8l1.1,-4.4l0.9,-4.7l0.8,-4.9l0.7,-5.1l1,-8.9l0.3,-5.5l0.3,-9.4l-0.1,-5.7l-0.4,-9.4l-0.5,-5.5l-0.7,-5.4l-0.8,-5.3l-0.9,-5.2l-1.7,-8.2l-1.3,-4.3l-2.2,-6.7l-1.4,-3.2l-1.5,-2.8l-1.6,-2.6l-1.7,-2.3l-2.9,-3.1l-1.6,-1.2l-1.8,-0.9l-3.3,-1.1l-2.1,-0.4l-2.2,-0.2l-2.3,0l-4.1,0.3l-2.4,0.5l-5.2,1.4l-7.3,2.6l-10.4,4.9l-10.2,5.6l-16,9.9l-16.9,11.4l-1.5,2l-0.6,0.6l-0.7,0.3l-0.8,0l-0.7,-0.2l-0.6,-0.5z"/>
   <path d="m426.7,262.3l0.3,0.8l0.1,0.7l-0.2,0.8l-0.5,0.6l-1.2,1.2l-0.4,1.3l-0.2,1.5l0.1,1.8l0.4,2l0.8,1.7l0.9,1.2l1.6,0.8l1.8,0.1l1.2,-0.2l0.7,0l0.8,0.2l0.6,0.5l0.4,0.7l0.1,0.8l-0.1,0.7l-0.4,0.7l-0.6,0.5l-0.7,0.3l-1.4,0.3l-3.1,-0.2l-0.9,-0.2l-2.4,-1.2l-0.7,-0.6l-1.5,-1.7l-1.3,-2.8l-0.7,-2.8l-0.1,-2.6l0.3,-2.4l0.7,-2.3l0.5,-0.9l1.6,-1.5l0.6,-0.5l0.8,-0.2l0.8,0.1l0.7,0.3l0.6,0.5z"/>
   <path d="m177.5,68.1l-0.5,-0.6l-0.3,-0.7l0,-0.8l0.3,-0.7l1,-1.9l1.3,-1l2.9,-1l3.6,-0.8l5.6,-1l9.5,-1.3l12.6,-1l10.9,-0.4l13.6,0l12.6,0.5l8,0.6l9.3,1.1l4.6,0.6l7.2,1.4l8.2,2l6.1,1.8l3.4,1.2l5.1,2.1l2.6,1.4l2.4,1.5l2.1,1.5l1.8,1.6l1.6,1.7l1.4,2.1l0.8,2.6l0.1,0.9l-0.3,4l-0.2,0.9l-1.9,3.3l-2.3,2.5l-1.8,1.3l-2.1,1.2l-2.5,1.1l-4.6,1.5l-3.2,0.9l-5.9,1l-7.7,1l-8.2,0.6l-12.2,0.2l-12.6,-0.5l-9.3,-0.6l-4.5,-0.5l-7.2,-1l-4.2,-0.8l-6.8,-1.6l-5.7,-1.6l-4.5,-1.4l-5.8,-2.3l-1.9,-0.9l-0.7,-0.4l-0.4,-0.7l-0.2,-0.7l0.1,-0.8l0.3,-0.7l0.6,-0.6l0.7,-0.3l0.8,-0.1l0.7,0.3l1.8,0.8l5.5,2.1l4.3,1.4l5.5,1.5l6.7,1.6l4,0.7l7,1l4.4,0.5l9.1,0.6l12.4,0.4l11.9,-0.1l8,-0.6l7.4,-1l5.7,-1l2.9,-0.7l4.3,-1.4l2,-0.9l1.7,-1l1.3,-1l1.7,-1.8l1.2,-2.2l0.2,-3.1l-0.6,-1.8l-0.8,-1.1l-1.2,-1.3l-1.5,-1.3l-1.8,-1.3l-2.1,-1.3l-4.1,-2l-6.1,-2.3l-5.9,-1.8l-7.9,-1.8l-7.1,-1.4l-4.4,-0.6l-9.2,-1.1l-7.7,-0.5l-12.5,-0.5l-13.5,-0.1l-10.7,0.5l-12.4,0.9l-9.2,1.2l-5.4,1l-3.4,0.8l-1.8,0.6l-0.6,1.1l-0.5,0.6l-0.6,0.4l-0.8,0.1l-0.8,-0.1l-0.7,-0.4z"/>
   <path d="m191.3,81.3l0.1,-0.7l0.4,-0.7l0.6,-0.5l0.8,-0.2l1.7,-0.3l1.2,0.1l0.9,0.6l1.6,1.9l1.3,2.1l2.3,4.4l1.5,3.7l1.9,6.5l1.2,4.9l0,0.8l-0.2,0.8l-0.5,0.6l-0.7,0.4l-0.8,0.2l-0.7,-0.1l-0.7,-0.4l-0.6,-0.6l-0.3,-0.7l-1.1,-4.8l-1.8,-6.1l-1.3,-3.4l-2.1,-4l-1.6,-2.3l-1.3,0.1l-0.7,-0.3l-0.6,-0.5l-0.4,-0.7l-0.1,-0.8z"/>
   <path d="m200.7,100.9l0.8,0.3l0.6,0.5l0.3,0.7l0.2,0.8l-0.1,2.3l-0.6,2.1l-0.8,2.3l-1.2,2.2l-2,2.7l-1.6,1.9l-1.5,1.4l-0.7,0.5l-0.8,0.1l-0.8,-0.1l-0.6,-0.4l-0.6,-0.6l-0.2,-0.7l-0.1,-0.8l0.3,-0.7l0.6,-0.7l2.5,-2.8l1.7,-2.3l0.9,-1.7l0.6,-1.7l0.4,-1.6l0,-1.5l0.2,-0.8l0.4,-0.7l0.6,-0.5l0.7,-0.2l0.8,0z"/>
   <path d="m390.4,342.4l0.7,0.2l0.5,0.5l0.9,2.2l0.6,2.2l0.7,3.4l0.8,6.9l0.3,6.7l-0.1,8.3l-0.6,9.8l-1.2,11.1l-1.7,11.7l-2.1,11.6l-2.7,11.1l-2.1,7.1l-2.1,5.8l-1.9,4.7l-3,6.6l-1.8,3.3l-0.6,0.5l-0.8,0l-0.3,-0.2l-0.4,-0.6l0.1,-0.8l0.8,-1.4l2.3,-4.6l3.5,-8.4l2,-5.7l2.1,-6.9l2.7,-11l2.1,-11.5l1.7,-11.6l1.1,-11l0.6,-9.7l0.1,-8.2l-0.3,-6.6l-0.7,-6.7l-0.7,-3.2l-0.6,-2l-0.8,-2l0,-0.8l0.5,-0.6l0.4,-0.2z"/>
   <path d="m376.4,343.5l0.2,-0.7l0.7,-0.4l5.5,-1.3l7.3,-2.1l8.6,-3.1l10.6,-4.5l0.7,-0.1l0.7,0.5l0.1,0.3l0,0.8l-0.6,0.6l-10.6,4.5l-8.8,3.1l-7.4,2.2l-5.6,1.3l-0.8,-0.1l-0.5,-0.6l-0.1,-0.4z"/>
   <path d="m381.7,344.1l-0.5,0.6l-0.4,0.1l0.2,-1.3l3.8,-0.2l2.4,-0.3l4.1,-0.9l7.5,-2.2l7.8,-2.9l0.7,0l0.6,0.4l0.2,0.4l-0.1,0.8l-0.6,0.5l-7.9,2.9l-7.6,2.3l-4.3,0.9l-2.5,0.4l-2.1,0.1l-2.3,0l-0.6,-0.1l-2.2,-1.3l-0.2,-0.7l0.2,-0.8l0.3,-0.2l0.7,-0.2l1.9,0.3l0.7,0.3l0.3,0.7l-0.1,0.4z"/>
   <path d="m300,386.6l0.8,0.2l0.4,0.7l0.4,1.9l1.1,15.7l1.1,17.1l1,14.8l-0.2,0.8l-0.6,0.4l-0.4,0.1l-0.7,-0.4l-0.3,-0.7l-1.1,-14.9l-1.1,-17l-1,-15.6l-0.4,-1.7l0.1,-0.8l0.6,-0.5l0.3,-0.1z"/>
   <path d="m301.9,378.5l-0.2,0.5l-0.4,0.3l-11.1,3.1l-2.2,0.6l-1.3,-1.2l1.7,0.1l4.4,-0.3l9.5,-1.4l10.8,-1.7l1.7,-0.1l0.5,0.1l0.2,0.2l0.1,0.6l-0.3,0.5l-1.7,1.1l-11.5,2.6l-10.9,2.5l-6.7,1.8l-0.4,0.1l-1.7,-1.1l7.2,-1.3l11,-1.3l9.3,-1l0.5,0.2l0.3,0.4l0,0.3l-0.2,0.4l-0.4,0.3l-9.3,0.9l-10.9,1.3l-5.6,1l-1.6,0.3l-0.5,0l-0.3,-0.4l-0.1,-0.3l0.1,-0.4l0.4,-0.3l1.7,-0.6l6.8,-1.8l11,-2.5l11.3,-2.6l0.2,0.7l-10.8,1.6l-9.5,1.4l-4.5,0.3l-1.9,0l-0.5,-0.2l-0.2,-0.5l0.1,-0.5l0.2,-0.2l3.6,-1.1l11.1,-3l0.5,0l0.4,0.4l0.1,0.2z"/>
   <path d="m348.4,262.7l0.8,0.1l0.5,0.6l0.9,2.1l9,14.5l7.3,12.6l6.8,12.5l6.9,13.5l7,14.3l3,6.1l0.1,0.8l-0.5,0.6l-0.3,0.2l-0.8,-0.1l-0.6,-0.5l-7.1,-14.7l-7.9,-15.6l-8.6,-16l-7.2,-12.5l-9.1,-14.6l-1,-2.4l0,-0.8l0.5,-0.6l0.3,-0.1z"/>
   <path d="m363.7,129.3l0.8,-0.1l0.8,0.2l0.6,0.5l0.4,0.6l3.1,7l0.9,2.7l1.5,6.3l1.2,8.2l0.4,4.8l0.2,6.8l-0.2,5.2l-0.7,6.9l-1.3,7.3l-2.6,10.4l-1.4,4.6l-0.4,0.8l-0.6,0.5l-0.7,0.2l-0.8,0.1l-0.7,-0.3l-0.7,-0.5l-0.4,-0.7l-0.1,-0.8l0.1,-0.7l1.4,-4.4l2.5,-10.1l1.2,-7.1l0.7,-6.6l0.1,-4.9l-0.1,-6.5l-0.4,-4.6l-1.1,-7.8l-1.5,-5.9l-0.8,-2.4l-2.9,-6.6l-0.2,-0.8l0.1,-0.8l0.4,-0.7l0.5,-0.5l0.7,-0.3z"/>
   <path d="m335.8,224.8l-0.3,-0.8l0,-0.7l0.2,-0.8l0.5,-0.6l2.6,-2.5l2.3,-3l2.2,-3.6l3.3,-6.9l0.4,-0.6l0.6,-0.5l0.8,-0.3l0.7,0.1l0.8,0.3l0.5,0.5l0.4,0.7l0.1,0.8l-0.1,0.7l-3.5,7.4l-2.4,4l-2.7,3.4l-1.4,1.5l-1.6,1.4l-0.7,0.4l-0.7,0.1l-0.8,-0.1l-0.7,-0.3l-0.5,-0.6z"/>
   <path d="m241.1,505.3l-0.5,-0.5l-0.3,-0.8l-0.1,-0.7l0.3,-0.8l1.1,-2.2l0.7,-0.9l2.7,-1.7l3.3,-1.7l5.5,-2.1l6.6,-2.2l9.3,-2.3l11.9,-2.3l15.5,-2.5l21.2,-2.6l16.8,-1.3l13.1,-0.6l6.7,-0.1l18.1,0.2l17.4,0.9l15.9,1.7l10.8,1.8l9.6,2.1l7,2l6.2,2.3l4.9,2.2l3.7,1.9l2.7,1.6l2.5,1.8l0.5,0.6l0.3,0.7l0,0.8l-0.2,0.7l-0.5,0.7l-0.7,0.4l-0.7,0.1l-0.8,-0.1l-0.7,-0.3l-2.3,-1.7l-2.3,-1.4l-3.5,-1.8l-4.6,-2.1l-6,-2.2l-6.7,-1.8l-9.3,-2.1l-10.5,-1.7l-15.7,-1.7l-17.1,-0.9l-18,-0.2l-6.6,0.1l-13,0.6l-10.4,0.8l-16,1.6l-16.5,2.2l-17.7,3.2l-13.1,3.1l-6.4,2l-5.1,2.1l-3,1.5l-1.7,1.1l-0.9,1.7l-0.5,0.6l-0.6,0.5l-0.8,0.2l-0.8,-0.1l-0.7,-0.4z"/>

  </g>

 </g>

 <use href="#pattern_elements" fill="#888" />
 

</svg>