<?xml version="1.0" encoding="UTF-8" standalone="no"?><!-- Generator: Gravit.io --><svg xmlns="http://www.w3.org/2000/svg" xmlns:xlink="http://www.w3.org/1999/xlink" style="isolation:isolate" viewBox="0 199.629 936 288" width="936pt" height="288pt"><defs><clipPath id="_clipPath_sOsdyffXplhE5Dqd3MpNlhDlNbhff8yx"><rect x="0" y="199.629" width="936" height="288"/></clipPath></defs><g clip-path="url(#_clipPath_sOsdyffXplhE5Dqd3MpNlhDlNbhff8yx)"><clipPath id="_clipPath_Q1CnNmHDoM7qjzz5T63nXueujey9Lrgm"><rect x="0" y="199.629" width="936" height="288" transform="matrix(1,0,0,1,0,0)" fill="rgb(255,255,255)"/></clipPath><g clip-path="url(#_clipPath_Q1CnNmHDoM7qjzz5T63nXueujey9Lrgm)"><g><path d=" M 307.999 199.032 L 281.92 201.54 L 461.195 414.613 Q 478.577 416.325 485.814 415.978 C 519.67 413.163 543.963 403.659 601.434 359.24 L 640.58 362.14 L 658.879 355.872 L 665.687 151.56 L 650.129 130.197 L 619.619 130.197 L 586.601 87.037 L 549.843 31.651 L 456.89 30.639 L 307.999 199.032 Z " fill="rgb(162,162,162)"/><path d=" M 614.37 130.197 L 650.129 130.197 L 639.752 362.14 L 600.141 359.24 L 614.37 130.197 Z " fill="rgb(70,70,70)"/><path d=" M 610.422 333.294 L 609.567 358.193 L 632.917 360.69 L 632.756 333.294 C 625.153 329.601 617.718 329.611 610.422 333.294 Z " fill="rgb(0,0,0)"/><g opacity="0.54"><path d=" M 459.373 415.978 C 287.758 394.964 258.618 328.058 184.375 359.888 C 198.114 346.764 226.419 334.065 240.772 334.495 C 305.772 333.628 376.888 381.634 459.373 415.978 Z " fill="rgb(162,162,162)"/></g><g opacity="0.54"><path d=" M 151.425 393.642 Q 113.375 397.961 75.875 392.336 C 68.651 388.25 52.536 382.857 27.5 376.126 C 50.375 377.711 63.166 375.219 70.651 370.638 L 81.975 369.232 L 81.975 364.898 C 107.322 379.317 130.482 388.908 151.425 393.642 Z " fill="rgb(162,162,162)"/></g><g opacity="0.61"><path d=" M 601.434 359.888 L 640.58 363.343 C 659.751 353.734 681.886 349.261 692.224 351.1 C 654.93 354.686 620.529 404.805 516.525 413.032 C 535.994 404.245 564.307 386.54 601.434 359.888 Z " fill="rgb(162,162,162)"/></g><path d=" M 744.113 352.58 C 844.818 395.794 574.15 450.052 903.123 496.554 L 935.425 496.554 L 935.425 265.703 L 860.804 341.498 Q 785.61 330.901 744.113 352.58 Z " fill="rgb(200,200,200)"/><path d=" M 307.999 199.032 L 281.92 201.54 L 281.92 338.554 L 265.558 337.673 C 326.777 345.929 397.061 396.033 460.209 414.613 L 456.89 29.894 L 307.999 199.032 Z " fill="rgb(70,70,70)"/><path d=" M 654.924 357.23 L 662.232 355.872 L 671.883 149.511 L 654.084 123.762 L 619.619 125.956 L 588.329 82.608 L 549.843 25.789 L 452.373 23 L 363.972 136.07 L 307.999 196.011 L 279.849 193.755 L 257.705 219.284 L 263.06 337.673 L 267.904 337.673 L 284.906 338.141 L 283.906 203.029 L 311.132 203.029 L 367.782 143.124 L 456.89 33.651 L 547.049 33.807 L 583.56 88.18 L 615.085 132.971 L 649.553 132.971 L 664.136 151.56 L 653.805 357.23 L 654.924 357.23 Z " fill="rgb(0,0,0)"/><path d=" M 710.164 324.248 L 706.575 323.236 L 706.197 292.04 L 703.595 288.842 C 724.888 269.617 739.4 262.374 747.876 263.768 C 757.935 265.422 751.602 273.756 744.306 270.084 C 734.351 266.06 722.026 271.903 710.268 288.422 L 710.164 324.248 Z " fill="rgb(0,0,0)"/><path d=" M 698.519 323.039 Q 707.281 323.36 718.887 327.23 Q 710.413 321.421 698.519 323.039 Z " fill="rgb(0,0,0)"/><path d=" M 595.155 103.283 L 590.815 91.189 L 630.227 75.468 L 647.73 98.192 L 644.685 127.956 L 617.696 127.708 L 595.155 103.283 Z " fill="rgb(0,0,0)"/><path d=" M 321.381 151.749 Q 317.045 151.089 311.692 149.743 L 323.435 143.592 L 332.103 152.188 Q 329.418 152.54 325.804 152.265 L 323.45 163.375 C 323.125 164.912 324.113 165.921 325.657 165.626 Q 329.004 164.987 332.782 164.323 Q 335.81 163.79 332.782 176.992 L 328.367 178.694 L 330.227 169.582 Q 318.735 173.327 318.44 170.885 Q 318.146 168.444 318.44 152.835 C 319.456 152.336 320.437 151.974 321.381 151.749 Z " fill-rule="evenodd" fill="rgb(0,0,0)"/><path d=" M 830.398 188.086 L 832.604 341.261 L 851.496 342.053 L 867.191 188.086 L 830.398 188.086 Z " fill="rgb(0,0,0)"/><path d=" M 516.525 403.856 C 502.563 400.54 489.159 400.55 476.281 403.856 L 476.281 415.978 C 489.072 417.5 502.496 414.663 516.525 411.167 L 516.525 403.856 Z " fill="rgb(0,0,0)"/><path d=" M 461.451 380.166 L 528.839 378.944 L 566.884 389.419 L 567.433 384.898 L 528.304 373.489 L 461.451 373.489 L 416.326 385.133 L 416.326 390.313 L 461.451 380.166 Z " fill="rgb(0,0,0)"/><path d=" M 416.326 268.016 L 458.804 244.808 L 528.304 243.863 L 564.9 270.106 L 564.9 278.113 L 528.304 250.192 L 458.804 252.61 L 416.326 275.396 L 416.326 268.016 Z " fill="rgb(0,0,0)"/><path d=" M 382.696 289.912 L 417.326 270.014 L 417.326 277.113 L 383.271 295.95 L 382.696 289.912 Z " fill="rgb(0,0,0)"/><path d=" M 602.921 312.803 L 642.039 313.802 L 655.587 322.744 L 655.587 324.505 L 642.039 316.319 L 602.921 316.319 L 563.9 280.576 L 563.9 274.396 L 602.921 312.803 Z " fill="rgb(0,0,0)"/><path d=" M 475.289 280.498 L 475.289 345.809 L 517.206 344.486 L 517.206 280.498 C 503.447 273.721 489.484 273.731 475.289 280.498 Z " fill="rgb(0,0,0)"/><path d=" M 617.696 169.874 L 613.758 220.305 L 640.031 219.284 L 640.031 169.874 L 617.696 169.874 Z " fill="rgb(0,0,0)"/><path d=" M 654.084 174.306 L 658.879 181.843 L 657.023 226.629 L 651.686 221.888 L 654.084 174.306 Z " fill="rgb(0,0,0)"/><path d=" M 650.129 244.479 L 654.924 252.016 L 653.068 296.803 L 647.73 292.062 L 650.129 244.479 Z " fill="rgb(0,0,0)"/><path d=" M 644.685 362.008 L 646.532 334.497 L 652.103 336.554 L 650.471 359.888 L 644.685 362.008 L 644.685 362.008 Z " fill="rgb(0,0,0)"/><path d=" M 613.758 239.283 L 610.432 289.714 L 636.705 288.692 L 636.705 239.283 L 613.758 239.283 Z " fill="rgb(0,0,0)"/><path d=" M 478.216 161.098 L 477.278 226.371 L 520.878 225.047 L 520.878 161.059 L 478.216 161.098 Z " fill="rgb(0,0,0)"/><path d=" M 481.379 163.205 L 477.278 149.54 L 520.878 149.54 L 516.824 163.205 L 481.379 163.205 Z " fill="rgb(0,0,0)"/><path d=" M 444.795 178.733 L 446.543 165.756 L 444.142 164.938 L 424.161 180.921 L 427.13 191.268 L 444.795 178.733 Z " fill="rgb(0,0,0)"/><path d=" M 547.452 177.13 L 546.444 166.782 L 548.974 165.96 L 561.138 178.013 L 559.265 186.99 L 547.452 177.13 Z " fill="rgb(0,0,0)"/><path d=" M 483.814 167.887 L 509.743 167.887 L 507.634 218.883 L 483.814 221.305 L 483.814 167.887 Z " fill="rgb(70,70,70)"/><path d=" M 483.814 159.626 L 481.379 152.43 L 515.315 152.43 L 513.359 159.626 L 483.814 159.626 Z " fill="rgb(70,70,70)"/><path d=" M 550.371 176.86 L 549.843 169.874 L 559.265 179.391 L 557.955 182.739 L 550.371 176.86 Z " fill="rgb(70,70,70)"/><path d=" M 480.684 70.307 L 480.684 138.584 L 521.878 137.261 L 523.338 71.628 L 480.684 70.307 Z " fill="rgb(0,0,0)"/><path d=" M 292.191 213.344 L 292.191 242.117 L 304.256 242.117 L 304.256 213.344 L 292.191 213.344 Z " fill="rgb(0,0,0)"/><path d=" M 292.191 255.044 L 292.191 283.816 L 304.256 283.816 L 304.256 255.044 L 292.191 255.044 Z " fill="rgb(0,0,0)"/><path d=" M 292.191 295.047 L 292.191 323.819 L 304.256 323.819 L 304.256 295.047 L 292.191 295.047 Z " fill="rgb(0,0,0)"/><path d=" M 242.177 334.495 C 342.342 333.327 388.331 399.614 465.431 413.032 C 516.141 421.857 563.155 385.556 600.488 356.889 Q 620.117 353.288 640.146 361.126 Q 663.488 348.222 686.173 348.527 L 698.988 351.703 Q 670.155 348.889 640.576 366.018 C 626.935 362.336 613.917 359.8 601.434 361.726 C 566.914 385.953 529.498 423.175 467.148 417.299 C 409.962 411.91 296.532 323.447 228.671 337.573 C 232.693 335.802 237.303 335.164 242.177 334.495 Z " fill="rgb(0,0,0)"/><path d=" M 424.161 191.268 L 447.507 174.465 L 447.507 190.445 L 430.939 200.54 L 430.939 243.972 L 424.161 247.53 L 424.161 191.268 Z " fill="rgb(0,0,0)"/><path d=" M 427.832 222.418 L 447.507 210.501 L 447.507 216.725 L 427.832 227.79 L 427.832 222.418 Z " fill="rgb(0,0,0)"/><path d=" M 423.197 112.243 L 446.543 90.44 L 446.543 107.725 L 429.975 120.515 L 430.045 160.744 L 423.197 165.96 L 423.197 112.243 Z " fill="rgb(0,0,0)"/><path d=" M 427.832 142.124 L 446.543 127.956 L 446.543 132.197 L 427.832 148.218 L 427.832 142.124 Z " fill="rgb(0,0,0)"/><path d=" M 426.315 294.924 C 432.464 288.175 439.754 284.483 448.155 283.816 L 448.155 305.714 L 446.523 292.908 L 434.599 300.195 L 434.599 345.684 L 428.135 348.393 L 426.315 294.924 Z " fill="rgb(0,0,0)"/><path d=" M 346.71 183.046 L 356.242 174.843 L 356.242 181.558 L 351.325 185.94 L 351.325 218.536 L 347.504 220.537 L 346.71 183.046 Z " fill="rgb(0,0,0)"/><path d=" M 320.361 207.174 L 329.973 199.029 L 329.973 208.059 L 324.007 212.091 L 324.007 235.257 L 321.162 236.756 L 320.361 207.174 Z " fill="rgb(0,0,0)"/><path d=" M 482.256 193.548 L 479.684 197.268 L 515.315 197.011 L 515.315 190.044 L 482.256 193.548 Z " fill="rgb(0,0,0)"/><g><path d=" M 83.409 367.593 L 84.843 353.831 L 80.262 354.596 L 73.5 359.223 L 72.589 369.417 L 83.409 367.593 Z " fill="rgb(0,0,0)"/><path d=" M 73.953 369.736 L 74.934 362.365 L 80.606 359.223 L 81.19 368.405 L 73.953 369.736 Z " fill="rgb(70,70,70)"/><path d=" M 70.076 369.408 L 66.096 373.22 C 74.17 369.348 80.026 368.616 83.605 370.964 L 83.409 367.593 C 79.865 366.468 75.431 367.083 70.076 369.408 Z " fill="rgb(0,0,0)"/><path d=" M 76.155 362.952 L 75.806 369.417 L 81.86 368.575 L 81.234 361.241 L 76.155 362.952 Z " fill="rgb(0,0,0)"/><path d=" M 80.16 362.923 L 78.8 335.818 L 149.142 303.463 L 206.858 314.603 L 198.926 376.959 L 153.014 388.713 L 80.16 362.923 Z " fill="rgb(0,0,0)"/><path d=" M 86.536 366.644 L 83.605 339.92 L 149.142 310.622 L 151.107 387.923 C 134.005 387.455 112.487 380.368 86.536 366.644 Z " fill="rgb(70,70,70)"/><path d=" M 195.044 378.301 L 202.049 320.127 L 155.575 310.622 L 155.575 388.608 L 195.044 378.301 Z " fill="rgb(162,162,162)"/><path d=" M 91.173 350.606 L 96.136 349.595 L 96.136 340.698 L 86.015 344.783 L 86.015 344.783 L 86.015 344.783 L 86.015 344.783 L 86.015 344.783 L 86.015 344.783 L 86.015 344.783 L 86.015 344.783 L 86.733 351.511 L 89.629 350.921 L 91.29 368.759 L 93.321 369.754 L 93.321 369.754 L 91.173 350.606 Z  M 100.31 360.197 L 99.691 348.491 Q 102.835 349.009 103.125 352.696 Q 103.632 359.146 100.31 360.197 L 100.31 360.197 L 100.31 360.197 L 100.31 360.197 L 100.31 360.197 L 100.31 360.197 Z  M 137.228 377.664 L 137.919 388.713 L 135.089 388.713 L 131.233 328.906 L 134.134 328.175 L 135.936 356.992 L 139.388 327.223 L 142.79 326.355 L 136.846 366.511 L 144.114 388.713 L 141.086 387.755 L 137.228 377.664 L 137.228 377.664 L 137.228 377.664 L 137.228 377.664 L 137.228 377.664 L 137.228 377.664 L 137.228 377.664 L 137.228 377.664 Z  M 122.508 384.056 C 120.147 362.954 119.577 350.767 120.784 347.428 C 122.513 342.649 124.647 342.331 127.175 346.463 L 127.833 333.274 C 123.626 327.849 116.42 332.697 117.923 351.011 L 119.476 382.539 L 122.508 384.056 L 122.508 384.056 L 122.508 384.056 L 122.508 384.056 L 122.508 384.056 L 122.508 384.056 Z  M 111.133 378.482 L 109.13 336.861 L 107.135 337.789 L 108.787 377.333 L 111.133 378.482 L 111.133 378.482 L 111.133 378.482 L 111.133 378.482 Z  M 117.528 381.616 L 115.422 335.334 L 113.064 336.076 L 115.22 380.485 L 117.528 381.616 L 117.528 381.616 L 117.528 381.616 Z  M 103.291 367.241 Q 105.892 363.314 105.87 353.171 C 105.86 348.4 106.25 335.299 99.197 339.43 L 99.197 339.437 L 98.065 339.92 L 99.213 372.641 L 101.014 373.524 L 101.014 373.524 L 101.014 373.524 L 100.795 369.385 L 100.795 369.385 L 100.795 369.385 Q 101.594 369.069 102.267 368.455 L 103.064 374.528 L 104.606 375.284 L 104.606 375.284 L 103.291 367.241 L 103.291 367.241 L 103.291 367.241 L 103.291 367.241 Z " fill-rule="evenodd" fill="rgb(0,0,0)"/><path d=" M 80.971 366.046 C 118.248 385.012 141.041 394.316 149.553 394.091 Q 164.521 393.697 220.618 369.842 L 210.067 370.92 Q 170.296 387.164 144.507 385.537 C 129.829 384.611 109.336 380.112 80.971 360.984 L 80.971 366.046 L 80.971 366.046 Z " fill="rgb(0,0,0)"/></g><g><g opacity="0.54"><path d=" M 419.326 444.699 C 407.342 442.584 395.163 438.868 382.728 433.492 L 381.077 430.265 C 377.168 424.91 366.287 418.047 350.293 410.124 L 328.849 403.762 L 323.29 416.238 C 346.62 423.982 363.001 432.279 372.403 439.052 L 379.551 435.787 C 389.214 440.272 408.392 446.074 431.477 450.286 L 419.326 444.699 Z " fill="rgb(162,162,162)"/></g><path d=" M 408.916 333.454 L 408.916 329.973 L 421.874 323.223 L 442.182 326.973 L 443.902 329.306 L 450.507 331.13 L 447.545 403.721 L 427.74 406.48 L 405.916 403.721 L 404.539 336.284 L 408.916 333.454 Z " fill="rgb(0,0,0)"/><path d=" M 431.961 449.398 L 432.056 411.746 L 433.963 410.398 L 433.963 399.481 L 418.323 403.262 L 418.323 409.734 L 419.851 410.52 L 420.434 446.829 L 431.961 449.398 L 431.961 449.398 Z " fill="rgb(0,0,0)"/><path d=" M 429.915 414.852 Q 428.852 418.958 426.466 420.589 L 426.358 446.829 L 429.806 448.813 L 429.915 414.852 Z " fill="rgb(70,70,70)"/><path d=" M 412.694 442.055 Q 424.117 447.327 439.933 450.286 Q 424.117 453.258 412.694 442.055 Z " fill="rgb(0,0,0)"/><g><ellipse vector-effect="non-scaling-stroke" cx="435.5678992689944" cy="366.11248855900783" rx="6.425478672116583" ry="9.086251983088346" fill="rgb(162,162,162)"/><ellipse vector-effect="non-scaling-stroke" cx="437.30288094250693" cy="344.0963954668196" rx="6.368733384576103" ry="9.086251983088403" fill="rgb(94,0,0)"/><ellipse vector-effect="non-scaling-stroke" cx="433.58728876079067" cy="387.5243648671812" rx="7.348291222324349" ry="9.021341133305043" fill="rgb(70,70,70)"/><g opacity="0.26"><path d=" M 431.744 343.213 C 432.31 352.346 437.771 353.879 439.395 351.103 C 440.39 349.404 433.567 353.627 434.009 342.866 L 431.744 343.213 Z " fill="rgb(0,0,0)"/></g><g opacity="0.26"><path d=" M 429.87 364.661 C 430.436 373.795 435.896 375.327 437.521 372.551 C 438.516 370.852 431.692 375.075 432.135 364.314 L 429.87 364.661 Z " fill="rgb(70,70,70)"/></g><g opacity="0.4"><path d=" M 427.683 386.11 C 428.25 395.243 433.71 396.775 435.335 393.999 C 436.329 392.3 429.506 396.523 429.948 385.762 L 427.683 386.11 Z " fill="rgb(0,0,0)"/></g><g opacity="0.55"><path d=" M 437.651 337.82 Q 441.315 339.748 442.726 348.147 Q 443.234 339.334 439.395 336.58 L 437.651 337.82 Z " fill="rgb(255,255,255)"/></g><g opacity="0.55"><path d=" M 435.62 359.77 Q 439.284 361.698 440.695 370.098 Q 441.203 361.285 437.364 358.53 L 435.62 359.77 Z " fill="rgb(255,255,255)"/></g><g opacity="0.16"><path d=" M 434.36 381.218 Q 438.024 383.146 439.435 391.546 Q 439.943 382.733 436.105 379.979 L 434.36 381.218 Z " fill="rgb(255,255,255)"/></g><path d=" M 442.726 332.881 Q 436.516 344.695 428.799 346.316 L 427.506 334.966 L 442.726 332.881 Z " fill="rgb(0,0,0)"/><path d=" M 440.029 354.898 Q 433.819 366.711 426.103 368.332 L 424.81 356.982 L 440.029 354.898 Z " fill="rgb(0,0,0)"/><path d=" M 438.762 376.524 Q 432.552 388.337 424.836 389.958 L 423.542 378.608 L 438.762 376.524 Z " fill="rgb(0,0,0)"/></g></g><path d=" M 847.879 188.086 L 848.38 342.108 L 935.425 360.243 L 935.425 188.086 L 847.879 188.086 Z " fill="rgb(70,70,70)"/><path d=" M 794.764 338.594 Q 875.004 331.391 935.425 353.881 L 935.425 375.854 Q 897.34 341.207 782.74 340.175 L 794.764 338.594 Z " fill="rgb(0,0,0)"/><path d=" M 863.216 188.086 L 863.719 344.327 L 934.865 321.408 L 935.425 188.086 L 863.216 188.086 Z " fill="rgb(0,0,0)"/><path d=" M 487.596 78.7 L 510.743 78.7 L 512.193 131.889 L 487.596 131.118 L 487.596 78.7 Z " fill="rgb(70,70,70)"/><path d=" M 480.635 288.864 L 506.355 288.864 L 506.173 338.377 L 480.635 340.356 L 480.635 288.864 Z " fill="rgb(70,70,70)"/><path d=" M 516.525 104.361 L 519.097 108.081 L 483.466 107.823 L 483.466 100.856 L 516.525 104.361 Z " fill="rgb(0,0,0)"/><path d=" M 481.004 312.599 L 478.432 316.319 L 511.634 317.757 L 512.607 312.599 L 481.004 312.599 Z " fill="rgb(0,0,0)"/><path d=" M 537.807 286.032 C 544.006 287.355 549.312 291.594 553.697 298.717 L 549.978 354.015 L 535.434 346.866 L 537.807 286.032 Z " fill="rgb(0,0,0)"/><path d=" M 537.807 296.336 L 535.434 346.866 L 544.062 351.156 L 545.752 302.422 L 537.807 296.336 Z " fill="rgb(70,70,70)"/><path d=" M 536.508 316.061 L 546.809 322.508 L 546.809 325.784 L 536.508 319.898 L 536.508 316.061 Z " fill="rgb(0,0,0)"/><path d=" M 545.248 174.306 L 561.138 186.99 L 557.419 248.858 L 542.875 238.854 L 545.248 180.905 L 545.248 174.306 Z " fill="rgb(0,0,0)"/><path d=" M 545.248 180.905 L 542.875 238.854 L 551.503 244.801 L 553.193 186.99 L 545.248 180.905 Z " fill="rgb(70,70,70)"/><path d=" M 543.949 207.741 L 554.25 214.188 L 554.25 217.464 L 543.949 211.577 L 543.949 207.741 Z " fill="rgb(0,0,0)"/><path d=" M 548.125 80.201 L 564.015 98.192 L 560.296 160.059 L 545.752 149.055 L 548.125 86.801 L 548.125 80.201 Z " fill="rgb(0,0,0)"/><path d=" M 548.125 90.404 L 545.752 149.055 L 554.38 156.003 L 556.07 98.192 L 548.125 90.404 Z " fill="rgb(70,70,70)"/><path d=" M 546.826 118.942 L 557.127 125.389 L 557.127 128.665 L 546.826 122.778 L 546.826 118.942 Z " fill="rgb(0,0,0)"/><path d=" M 588.386 127.684 L 600.335 138.124 L 597.538 189.044 L 586.601 179.81 L 588.386 133.115 L 588.386 127.684 Z " fill="rgb(0,0,0)"/><path d=" M 588.386 133.115 L 586.601 179.81 L 593.089 185.705 L 594.36 138.124 L 588.386 133.115 Z " fill="rgb(70,70,70)"/><path d=" M 587.409 155.202 L 595.155 160.508 L 595.155 163.205 L 587.409 158.36 L 587.409 155.202 Z " fill="rgb(0,0,0)"/><g><path d=" M 584.915 209.332 L 596.864 220.261 L 594.068 273.568 L 583.13 264.948 L 584.915 215.018 L 584.915 209.332 Z " fill="rgb(0,0,0)"/><path d=" M 584.915 215.018 L 583.13 264.948 L 589.619 270.073 L 590.89 220.261 L 584.915 215.018 Z " fill="rgb(70,70,70)"/><path d=" M 583.938 238.14 L 591.685 243.695 L 591.685 246.518 L 583.938 241.446 L 583.938 238.14 Z " fill="rgb(0,0,0)"/></g><g><path d=" M 576.464 310.18 C 581.266 311.08 585.259 313.772 588.413 318.226 L 585.501 365.856 L 574.564 357.366 L 576.464 317.781 L 576.464 310.18 Z " fill="rgb(0,0,0)"/><path d=" M 576.464 316.874 L 574.564 357.366 L 581.052 362.413 L 582.438 321.132 L 576.464 316.874 Z " fill="rgb(70,70,70)"/><path d=" M 575.765 334.093 L 583.118 339.564 L 583.118 342.344 L 575.765 337.349 L 575.765 334.093 Z " fill="rgb(0,0,0)"/></g><g><g opacity="0.54"><path d=" M 566.14 453.14 C 553.253 456.705 538.665 458.133 521.998 458.422 Q 518.285 457.518 516.818 457.457 C 499.69 456.752 485.254 455.979 471.289 453.434 L 523.761 465.306 C 533.267 465.222 547.164 466.061 555.923 465.306 L 531.949 460.585 C 544.244 459.163 560.825 457.18 574.419 452.604 L 566.14 453.14 Z " fill="rgb(162,162,162)"/></g><path d=" M 574.419 451.286 L 575.427 397.054 L 588.491 395.543 C 589.587 395.416 590.516 394.418 590.564 393.315 L 592.796 342.099 C 593.045 338.984 590.733 336.8 587.638 337.224 L 562.686 341.271 C 560.966 341.506 559.53 343.106 559.481 344.841 L 558.036 395.731 C 557.989 397.386 559.289 398.602 560.937 398.443 L 568.25 397.742 L 566.14 453.434 L 574.419 451.286 L 574.419 451.286 Z " fill="rgb(0,0,0)"/><path d=" M 568.25 391.362 L 568.25 377.668 C 569.11 375.48 573.328 374.695 575.964 376.439 L 575.964 390.952 L 584.45 390.289 C 585.551 390.203 586.482 389.238 586.529 388.135 L 588.452 342.948 C 588.511 341.561 587.444 340.6 586.07 340.805 L 564.914 343.952 C 563.197 344.208 561.795 345.824 561.786 347.56 L 561.549 391.223 C 561.546 391.775 561.988 392.166 562.536 392.096 L 568.25 391.362 Z " fill="rgb(255,255,255)"/><path d=" M 572.542 452.215 L 574.013 378.668 C 573.318 378.249 572.377 378.179 571.17 378.437 L 570.157 453.408 L 572.921 452.132 L 572.542 452.215 Z " fill="rgb(70,70,70)"/><path d=" M 580.387 448.833 Q 570.442 452.481 557.079 455.084 Q 573.834 456.944 580.387 448.833 Z " fill="rgb(0,0,0)"/></g><rect x="272.861" y="269.43" width="109.835" height="148.808" transform="matrix(1,0,0,1,0,0)" fill="rgb(255,255,255)" vector-effect="non-scaling-stroke" stroke-width="4" stroke="rgb(0,0,0)" stroke-linejoin="miter" stroke-linecap="square" stroke-miterlimit="2"/><rect x="733.961" y="303.463" width="188.768" height="103.42" transform="matrix(1,0,0,1,0,0)" fill="rgb(255,255,255)" vector-effect="non-scaling-stroke" stroke-width="4" stroke="rgb(0,0,0)" stroke-linejoin="miter" stroke-linecap="square" stroke-miterlimit="2"/><rect x="260.763" y="523.796" width="414.475" height="78.258" transform="matrix(1,0,0,1,0,0)" fill="rgb(255,255,255)" vector-effect="non-scaling-stroke" stroke-width="4" stroke="rgb(0,0,0)" stroke-linejoin="miter" stroke-linecap="square" stroke-miterlimit="2"/><g clip-path="url(#_clipPath_WffAOH0ThO32mkkNMjTUmIBrdeA0FTUw)"><text transform="matrix(1,0,0,1,274.033,575.655)" style="font-family:'Cinzel Decorative';font-weight:400;font-size:35px;font-style:normal;word-spacing:10;fill:#000000;stroke:none;">BOsToN AvalAnCHE</text></g><defs><clipPath id="_clipPath_WffAOH0ThO32mkkNMjTUmIBrdeA0FTUw"><rect x="0" y="0" width="407.982" height="42.859" transform="matrix(1,0,0,1,264.009,541.495)"/></clipPath></defs><g clip-path="url(#_clipPath_c1t9yW752ea6zP8dtt44ZbWn6ZqLtLcO)"><text transform="matrix(1,0,0,1,759.224,340.447)" style="font-family:'Cinzel Decorative';font-weight:400;font-size:30px;font-style:normal;fill:#000000;stroke:none;">BOstoN</text><text transform="matrix(1,0,0,1,742.379,384.931)" style="font-family:'Cinzel Decorative';font-weight:400;font-size:30px;font-style:normal;fill:#000000;stroke:none;">AvaLaNche</text></g><defs><clipPath id="_clipPath_c1t9yW752ea6zP8dtt44ZbWn6ZqLtLcO"><rect x="0" y="0" width="163" height="97.52" transform="matrix(1,0,0,1,742.079,311.167)"/></clipPath></defs><path d=" M 356.242 270.014 L 410.015 234.687 L 374.989 269.106 L 356.242 270.014 Z " fill="rgb(0,0,0)"/><path d=" M 358.71 273.613 L 380.536 258.657 L 360.198 278.113 L 358.71 273.613 Z " fill="rgb(255,255,255)"/><g clip-path="url(#_clipPath_QKd7j42YQCG1FKvVmSld8alAHSpyTbfP)"><text transform="matrix(1,0,0,1,281.778,291.253)" style="font-family:'Comic Neue';font-weight:400;font-size:14px;font-style:normal;fill:#000000;stroke:none;">The good news</text><text transform="matrix(1,0,0,1,281.778,307.353)" style="font-family:'Comic Neue';font-weight:400;font-size:14px;font-style:normal;fill:#000000;stroke:none;">is, I remember</text><text transform="matrix(1,0,0,1,281.778,323.453)" style="font-family:'Comic Neue';font-weight:400;font-size:14px;font-style:normal;fill:#000000;stroke:none;">where we park-</text><text transform="matrix(1,0,0,1,281.778,339.553)" style="font-family:'Comic Neue';font-weight:400;font-size:14px;font-style:normal;fill:#000000;stroke:none;">ed.</text><text transform="matrix(1,0,0,1,281.778,358.068)" style="font-family:'Comic Neue';font-weight:400;font-size:14px;font-style:normal;fill:#000000;stroke:none;">The bad news</text><text transform="matrix(1,0,0,1,281.778,374.168)" style="font-family:'Comic Neue';font-weight:400;font-size:14px;font-style:normal;fill:#000000;stroke:none;">is,  I have to</text><text transform="matrix(1,0,0,1,281.778,390.268)" style="font-family:'Comic Neue';font-weight:400;font-size:14px;font-style:normal;fill:#000000;stroke:none;">move the car</text><text transform="matrix(1,0,0,1,281.778,406.368)" style="font-family:'Comic Neue';font-weight:400;font-size:14px;font-style:italic;fill:#000000;stroke:none;">every 2 hours.</text></g><defs><clipPath id="_clipPath_QKd7j42YQCG1FKvVmSld8alAHSpyTbfP"><rect x="0" y="0" width="94" height="130.363" transform="matrix(1,0,0,1,281.778,278.653)"/></clipPath></defs><path d=" M 376.019 156.671 L 392.855 141.584 L 392.855 167.866 L 391.597 154.58 L 382.405 162.14 L 382.405 196.011 L 377.422 198.821 L 376.019 156.671 Z " fill="rgb(0,0,0)"/><path d=" M 392.855 190.044 L 392.855 174.843 L 383.653 170.81 L 364.949 185.705 L 364.949 199.821 L 372.297 202.036 L 392.855 190.044 Z " fill="rgb(0,0,0)"/><path d=" M 366.804 190.668 L 382.579 178.694 L 382.406 180.363 L 366.033 192.722 L 366.804 190.668 Z " fill="rgb(70,70,70)"/><path d=" M 367.017 192.824 L 382.546 181.294 L 382.123 183.467 L 366.246 194.877 L 367.017 192.824 Z " fill="rgb(70,70,70)"/><path d=" M 366.957 186.183 L 382.417 173.862 L 382.101 176.009 L 366.185 188.236 L 366.957 186.183 Z " fill="rgb(70,70,70)"/><path d=" M 367.05 195.017 L 382.606 183.769 L 381.881 186.184 L 366.278 197.071 L 367.05 195.017 Z " fill="rgb(70,70,70)"/><path d=" M 366.99 188.403 L 382.245 177.13 L 382.04 178.733 L 366.106 190.331 L 366.99 188.403 Z " fill="rgb(70,70,70)"/></g></g></g></svg>