<svg xmlns="http://www.w3.org/2000/svg" xmlns:xlink="http://www.w3.org/1999/xlink" style="isolation:isolate" viewBox="0 0 178.825 252.782"><defs>    <pattern id="dotz" viewBox="-2 -2 4 4" width="4" height="4"      patternUnits="userSpaceOnUse" patternTransform="rotate(45) scale(0.9)">      <circle r="1" fill="var(--dot-color,var(--outline-color, #000))" transform="scale(1.6)"/>     </pattern></defs><g id="ikon"><g><path d=" M 128.359 3.019 C 115.115 8.054 102.096 14.823 89.271 23.294 C 67.176 22.613 45.067 26.05 22.914 33.575 C 24.965 35.025 26.315 35.901 28.042 36.573 L 27.24 40.618 C 27.925 47.05 25.833 52.317 22.598 57.452 Q 20.486 55.499 19.308 56.092 C 19.615 63.933 19.209 92.715 10.733 92.898 C 23.772 102.561 45.882 99.965 76.414 82.062 C 101.734 65.147 127.819 56.719 146.933 52.062 L 163.864 63.312 Q 166.599 61.359 173.37 51.125 C 170.105 49.744 161.43 49.362 147.316 49.948 C 143.48 47.719 140.578 45.306 138.583 42.681 C 141.594 41.201 144.918 40.287 148.525 39.91 C 152.074 44.292 157.815 47.645 161.738 49.033 L 175.599 49.541 L 155.18 39.487 C 164.284 24.681 160.072 16.987 142.514 16.374 L 140.79 19.58 C 147.151 20.39 151.197 23.938 152.901 30.192 C 149.43 29.725 145.497 30.381 141.073 32.131 C 139.249 27.524 135.93 24.743 131.088 23.758 L 124.787 24.185 C 120.954 21.054 117.591 16.659 114.668 10.972 L 124.078 7.185 C 126.953 11.986 130.594 16.17 134.971 19.708 L 140.79 18.304 L 141.683 15.59 C 137.784 13.871 133.352 9.69 128.359 3.019 L 128.359 3.019 L 128.359 3.019 L 128.359 3.019 Z " fill="url(#dotz)" x-fill="rgb(162,162,162)"/><path d=" M 117.341 155.056 C 117.26 115.728 83.439 133.652 82.418 174.535 L 82.418 182.306 C 97.439 204.437 116.853 198.021 112.85 179.977 L 117.341 155.056 Z " fill="url(#dotz)" x-fill="rgb(162,162,162)"/><path d=" M 106.042 226.507 L 126.561 207.089 L 146.646 204.119 L 136.185 225.593 L 114.668 243.724 L 104.63 248.323 L 80.004 249.486 L 106.042 226.507 Z " fill="url(#dotz)" x-fill="rgb(162,162,162)"/><path d=" M 142.514 14.683 C 138.567 13.149 134.088 7.4 130.108 0 C 117.963 3.624 103.611 10.84 87.036 21.632 C 68.131 20.391 45.758 23.716 19.902 31.589 C 20.416 34.945 20.222 38.728 19.308 42.92 C -0.206 45.789 -4.362 66.523 8.02 77.256 C 5.851 80.326 3.182 82.506 0 83.78 C 33.702 140.359 95.891 53.006 155.18 53.298 C 161.833 56.219 164.982 59.11 163.864 66.021 C 169.369 63.134 177.091 53.869 178.825 47.04 C 171.563 46.532 164.537 44.02 157.734 39.487 C 168.748 26.767 159.954 10.832 142.514 14.683 Z  M 22.914 55.847 C 22.044 55.177 21.179 54.462 20.32 53.697 C 23.301 50.313 24.845 40.951 25.046 35.148 C 38.716 28.6 66.655 24.057 85.764 25.018 L 82.139 28.547 C 65.128 28.049 40.11 32.859 32.476 36.773 C 30.756 37.655 28.969 36.731 27.1 36.075 C 33.023 42.342 62.382 45.966 71.253 45.383 C 69.284 48.376 67.986 51.142 67.373 53.697 C 82.2 29.444 102.518 13.43 128.359 5.689 Q 135.288 15.879 140.307 17.813 L 140.307 17.813 L 140.307 17.813 L 140.307 17.813 L 140.307 17.813 C 117.6 23.047 89.008 51.573 61.372 60.739 C 63.399 57.511 65.365 53.328 66.083 48.362 C 50.573 48.717 37.002 46.352 27.173 40.618 C 25.942 46.784 24.526 51.864 22.914 55.847 L 22.914 55.847 Z  M 6.202 87.087 C 5.794 86.57 5.401 86.027 5.017 85.467 C 8.261 84.186 10.584 82.428 11.999 80.212 L 11.999 80.212 L 11.999 80.212 L 11.999 80.212 L 11.999 80.212 C 12.9 80.823 13.816 81.397 14.757 81.914 C 12.162 84.344 9.077 85.817 6.202 87.087 L 6.202 87.087 Z  M 58.358 90.259 C 61.964 88.441 65.732 86.27 69.642 83.778 C 111.502 57.098 145.611 44.676 171.605 48.764 C 166.071 46.581 152.203 41.142 148.448 35.676 C 127.552 41.127 101.506 56.965 67.91 77.155 C 49.657 88.125 33.382 89.91 19.914 84.443 C 27.026 90.552 42.448 92.119 63.52 82.062 C 62.246 85.113 60.526 87.845 58.358 90.259 L 58.358 90.259 Z  M 17.476 54.721 C 16.684 53.522 16.045 52.203 15.571 50.762 L 17.682 51.888 L 19.468 47.947 L 19.468 47.947 L 19.468 47.947 L 19.468 47.947 C 4.801 50.864 3.307 64.936 10.667 73.657 C 5.812 61.657 8.463 52.784 17.476 54.721 L 17.476 54.721 Z  M 19.691 57.452 C 32.055 69.975 63.805 66.016 77.761 57.144 C 93.998 46.821 131.67 19.794 146.933 18.104 C 157.41 18.515 160.897 30.75 153.83 37.095 C 152.955 37.173 151.43 36.065 150.043 34.574 Q 153.063 33.75 154.335 33.575 C 140.115 29.999 100.076 54.883 77.916 69.317 C 73.648 72.096 69.404 74.383 65.239 76.226 C 61.904 74.834 60.986 67.755 64.849 64.243 C 47.533 69.132 24.622 68.871 19.691 57.452 L 19.691 57.452 Z  M 165.117 60.44 C 167.843 57.373 169.6 54.409 170.374 51.532 C 165.555 50.461 160.059 50.563 153.872 51.824 C 158.879 54.724 162.632 57.6 165.117 60.44 L 165.117 60.44 L 165.117 60.44 L 165.117 60.44 Z  M 79.264 32.131 C 76.681 34.643 73.741 38.826 71.834 42.344 C 59.685 43.853 47.536 41.764 38.199 38.746 C 48.602 34.353 65.986 32.241 79.264 32.131 L 79.264 32.131 L 79.264 32.131 Z " fill-rule="evenodd" fill="rgb(0,0,0)"/><path d=" M 81.682 248.634 C 98.05 242.136 118.409 224.68 125.483 212.089 C 126.913 209.544 144.587 205.869 142.12 210.198 C 135.931 221.059 123.578 234.37 107.437 246.058 L 81.682 248.634 L 81.682 248.634 Z  M 140.14 53.67 C 140.808 53.934 141.436 54.17 142.036 54.385 C 182.1 64.658 154.904 97.83 80.769 100.088 C 97.446 101.891 117.909 101.712 136.185 96.754 C 129.109 114.616 124.466 128.385 117.919 146.838 C 115.76 109.734 78.251 138.203 80.684 175.271 C 84.246 176.686 82.731 181.841 80.004 182.63 C 94.163 209.285 122.15 198.372 115.181 183.345 C 122.69 189.144 126.156 190.805 143.238 195.297 C 110.122 202.823 87.919 246.476 70.232 249.486 L 50.664 250.239 C 45.902 231.428 38.245 212.984 28.461 191.157 C 24.531 158.052 19.698 121.806 21.876 83.917 C 19.402 83.453 16.915 81.95 14.7 79.785 C 13.62 120.598 18.672 159.254 23.186 193.496 C 31.459 209.145 38.789 228.903 45.189 252.782 L 116.088 246.059 C 138.415 232.513 151.977 211.953 152.464 190.751 C 140.501 188.852 125.665 184.951 113.726 178.407 C 125.808 142.677 134.632 116.366 142.967 94.814 C 173.374 86.418 175.887 60.934 157.103 54.043 C 155.313 52.777 153.404 51.603 151.333 50.554 L 140.14 53.67 L 140.14 53.67 L 140.14 53.67 Z  M 110.841 180.654 L 110.124 172.906 L 115.49 154.529 C 116.704 120.393 85.807 137.798 83.713 175.372 C 89.093 175.728 87.448 181.096 84.401 181.79 C 95.462 200.621 117.947 195.28 110.841 180.654 Z " fill-rule="evenodd" fill="rgb(0,0,0)"/><path d=" M 32.76 102.72 C 30.921 126.003 32.126 151.637 36.348 179.594 L 37.544 176.368 C 33.704 151.529 33.415 125.376 36.647 97.882 L 32.76 102.72 Z " fill="rgb(0,0,0)"/><path d=" M 30.51 189.018 L 42.374 184.539 L 36.794 187.826 L 48.262 187.4 L 40.437 190.441 L 32.695 192.477 L 38.907 189.34 L 30.51 189.018 Z " fill="rgb(0,0,0)"/><path d=" M 58.89 248.323 L 58.89 245.31 L 42.589 188.226 L 40.597 188.865 L 58.89 248.323 Z " fill="rgb(0,0,0)"/><path d=" M 112.85 181.802 C 109.423 180.132 102.645 180.733 95.227 181.221 C 85.108 181.886 72.582 184.041 61.213 186.267 C 76.405 181.239 95.289 177.282 106.042 176.851 C 105.977 176.128 76.605 175.061 51.45 178.009 C 75.438 173.01 99.619 171.158 112.776 173.28 C 122.943 174.884 117.122 182.209 112.85 181.802 Z " fill="rgb(0,0,0)"/><g><path d=" M 80.606 80.974 C 83.81 81.68 86.862 82.193 89.689 82.333 C 116.267 83.646 133.484 78.302 137.124 64.532 C 134.854 67.006 132.526 69.074 130.022 70.79 C 124.771 67.847 116.45 65.804 106.25 65.12 L 99.325 69.401 L 85.729 77.806 L 80.606 80.974 L 80.606 80.974 Z " fill="rgb(0,0,0)"/></g></g></g></svg>