<svg 
 xmlns="http://www.w3.org/2000/svg" 
 viewBox="0 0 179 253"
>
 
 <style>
  :root {
    --outline-color: #000;
    --dot-color: #000;
    --shade-color: url(#dotz);
  }
 </style>

 <defs>
  <pattern id="dotz" viewBox="-2 -2 4 4" width="4" height="4"
   patternUnits="userSpaceOnUse" patternTransform="rotate(45) scale(0.3)">
   <circle r="1" fill="var(--dot-color,var(--outline-color, #000))" transform="scale(1.5)"/>
  </pattern>
 </defs>
 
 <g id="ikon" fill-rule="evenodd" fill="var(--outline-color, #000)">
 
  <g id="shades" fill="var(--shade-color, #888)">

   <path d="M 128 3 C 115 8 102 15 89 23 C 67 23 45 26 23 34 C 25 35 26 36 28 37 L 27 41 C 28 47 26 52 23 57 Q 20 55 19 56 C 20 64 19 93 11 93 C 24 103 46 100 76 82 C 102 65 128 57 147 52 L 164 63 Q 167 61 173 51 C 170 50 161 49 147 50 C 143 48 141 45 139 43 C 142 41 145 40 149 40 C 152 44 158 48 162 49 L 176 50 L 155 39 C 164 25 160 17 143 16 L 141 20 C 147 20 151 24 153 30 C 149 30 145 30 141 32 C 139 28 136 25 131 24 L 125 24 C 121 21 118 17 115 11 L 124 7 C 127 12 131 16 135 20 L 141 18 L 142 16 C 138 14 133 10 128 3 L 128 3 L 128 3 L 128 3 Z"/>
  
   <path d="M 117 155 C 117 116 83 134 82 175 L 82 182 C 97 204 117 198 113 180 L 117 155 Z"/>
  
   <path d="M 106 227 L 127 207 L 147 204 L 136 226 L 115 244 L 105 248 L 80 249 L 106 227 Z"/>

  </g>
  
  <path d="M 143 15 C 139 13 134 7 130 0 C 118 4 104 11 87 22 C 68 20 46 24 20 32 C 20 35 20 39 19 43 C 0 46 -4 67 8 77 C 6 80 3 83 0 84 C 34 140 96 53 155 53 C 162 56 165 59 164 66 C 169 63 177 54 179 47 C 172 47 165 44 158 39 C 169 27 160 11 143 15 Z M 23 56 C 22 55 21 54 20 54 C 23 50 25 41 25 35 C 39 29 67 24 86 25 L 82 29 C 65 28 40 33 32 37 C 31 38 29 37 27 36 C 33 42 62 46 71 45 C 69 48 68 51 67 54 C 82 29 103 13 128 6 Q 135 16 140 18 L 140 18 L 140 18 L 140 18 L 140 18 C 118 23 89 52 61 61 C 63 58 65 53 66 48 C 51 49 37 46 27 41 C 26 47 25 52 23 56 L 23 56 Z M 6 87 C 6 87 5 86 5 85 C 8 84 11 82 12 80 L 12 80 L 12 80 L 12 80 L 12 80 C 13 81 14 81 15 82 C 12 84 9 86 6 87 L 6 87 Z M 58 90 C 62 88 66 86 70 84 C 112 57 146 45 172 49 C 166 47 152 41 148 36 C 128 41 102 57 68 77 C 50 88 33 90 20 84 C 27 91 42 92 64 82 C 62 85 61 88 58 90 L 58 90 Z M 17 55 C 17 54 16 52 16 51 L 18 52 L 19 48 L 19 48 L 19 48 L 19 48 C 5 51 3 65 11 74 C 6 62 8 53 17 55 L 17 55 Z M 20 57 C 32 70 64 66 78 57 C 94 47 132 20 147 18 C 157 19 161 31 154 37 C 153 37 151 36 150 35 Q 153 34 154 34 C 140 30 100 55 78 69 C 74 72 69 74 65 76 C 62 75 61 68 65 64 C 48 69 25 69 20 57 L 20 57 Z M 165 60 C 168 57 170 54 170 52 C 166 50 160 51 154 52 C 159 55 163 58 165 60 L 165 60 L 165 60 L 165 60 Z M 79 32 C 77 35 74 39 72 42 C 60 44 48 42 38 39 C 49 34 66 32 79 32 L 79 32 L 79 32 Z"/>
  
  <path d="M 82 249 C 98 242 118 225 125 212 C 127 210 145 206 142 210 C 136 221 124 234 107 246 L 82 249 L 82 249 Z M 140 54 C 141 54 141 54 142 54 C 182 65 155 98 81 100 C 97 102 118 102 136 97 C 129 115 124 128 118 147 C 116 110 78 138 81 175 C 84 177 83 182 80 183 C 94 209 122 198 115 183 C 123 189 126 191 143 195 C 110 203 88 246 70 249 L 51 250 C 46 231 38 213 28 191 C 25 158 20 122 22 84 C 19 83 17 82 15 80 C 14 121 19 159 23 193 C 31 209 39 229 45 253 L 116 246 C 138 233 152 212 152 191 C 141 189 126 185 114 178 C 126 143 135 116 143 95 C 173 86 176 61 157 54 C 155 53 153 52 151 51 L 140 54 L 140 54 L 140 54 Z M 111 181 L 110 173 L 115 155 C 117 120 86 138 84 175 C 89 176 87 181 84 182 C 95 201 118 195 111 181 Z"/>
  
  <path d="M 33 103 C 31 126 32 152 36 180 L 38 176 C 34 152 33 125 37 98 L 33 103 Z"/>
  
  <path d="M 31 189 L 42 185 L 37 188 L 48 187 L 40 190 L 33 192 L 39 189 L 31 189 Z"/>
  
  <path d="M 59 248 L 59 245 L 43 188 L 41 189 L 59 248 Z"/>
  
  <path d="M 113 182 C 109 180 103 181 95 181 C 85 182 73 184 61 186 C 76 181 95 177 106 177 C 106 176 77 175 51 178 C 75 173 100 171 113 173 C 123 175 117 182 113 182 Z"/>
  
  <path d="M 81 81 C 84 82 87 82 90 82 C 116 84 133 78 137 65 C 135 67 133 69 130 71 C 125 68 116 66 106 65 L 99 69 L 86 78 L 81 81 L 81 81 Z"/>
  
 </g>
 

</svg>