<svg xmlns="http://www.w3.org/2000/svg"
 style="isolation:isolate;"
 viewBox="0 0 200 200"
>
  <!--rect width="200" height="200" fill="orange"/-->

  <g id="item0"
   transform="translate(-350 -570)"
  >
    <g id="sellfie" opacity="1">
      <path d=" M 487.334 595.753 C 478.152 588.117 436.699 576.066 430.431 578.268 C 423.655 580.132 421.957 586.899 409.385 590.966 C 405.25 592.304 407.54 603.823 409.832 612.303 C 421.386 655.051 404.3 723.785 398.543 737.025 C 394.884 745.439 398.543 757.734 408.836 762.918 L 469.391 759.674 C 474.014 759.459 477.785 753.475 479.13 748.69 C 489.243 712.714 492.206 657.977 493.381 611.658 C 493.52 606.203 492.62 600.149 487.334 595.753 Z "
        fill="rgb(0,0,0)" />
      <linearGradient id="_lgradient_0" x1="0.26627395495150713" y1="0.7230840155806207" x2="0.7149756366753297" y2="0.17372722122181217" gradientTransform="matrix(-89.729,0,0,180.432,491.12,581.608)" gradientUnits="userSpaceOnUse">
        <stop offset="1.7391304347826086%" stop-opacity="1" style="stop-color:rgb(185,185,185)" />
        <stop offset="98.69565217391305%" stop-opacity="1" style="stop-color:rgb(255,255,255)" />
      </linearGradient>
      <path d=" M 426.907 657.822 C 429.541 620.206 425.836 601.985 424.876 595.05 C 423.972 588.521 429.235 580.574 437.393 581.719 C 449.605 583.432 476.332 590.008 485.24 597.429 C 490.368 601.7 491.241 607.584 491.107 612.886 C 489.966 657.898 487.857 708.904 478.046 743.866 C 476.741 748.516 472.006 755.925 467.521 756.134 Q 436.271 755.128 427.243 749.785 C 422.225 746.814 414.687 742.226 416.751 731.505 C 418.843 720.633 420.569 710.547 421.975 701.219 C 419.113 716.272 415.762 727.041 413.847 732.279 C 410.148 742.399 417.737 756.525 458.354 758.656 C 448.978 758.92 428.698 760.123 413.851 762.04 C 403.446 756.023 399.575 746.984 402.173 737.849 C 416.956 685.073 420.799 642.722 413.694 610.807 C 411.987 603.143 407.28 593.734 413.867 591.255 C 416.157 590.393 421.452 587.077 426.873 582.673 C 422.675 587.484 422.576 591.141 423.854 599.797 C 426.968 620.896 427.628 640.476 426.907 657.822 Z "
        fill="url(#_lgradient_0)" />
      <path d=" M 450.946 731.044 C 461.887 732.967 468.662 733.368 471.592 732.366 C 474.743 731.288 477 725.774 478.06 722.106 C 486.108 694.261 488.264 653.324 487.344 616.632 C 487.237 612.355 485.54 608.878 482.608 606.529 C 476.274 601.454 448.64 595.759 440.885 594.607 C 435.564 593.817 433.885 597.53 434.612 600.066 C 439.105 615.736 439.379 664.759 432.875 700.401 L 450.946 731.044 L 450.946 731.044 Z "
        fill="rgb(0,0,0)" />
      <path d=" M 416.566 707.163 L 412.384 709.254 C 411.047 719.127 409.259 724.74 406.29 731.087 L 410.282 730.137 C 413.071 724.623 414.281 718.51 416.566 707.163 Z "
        fill="rgb(0,0,0)" />
      <path d=" M 464.685 743.502 C 465.005 740.635 460.391 737.706 454.386 736.965 C 448.382 736.224 443.247 737.95 442.927 740.817 C 442.606 743.683 447.221 746.613 453.225 747.354 C 459.23 748.095 464.365 746.369 464.685 743.502 Z "
        fill="rgb(0,0,0)" />
      <path d=" M 467.208 595.07 C 467.609 593.762 465.968 592.099 463.547 591.359 C 461.127 590.619 458.837 591.08 458.437 592.389 C 458.037 593.697 459.677 595.36 462.098 596.1 C 464.518 596.841 466.808 596.379 467.208 595.07 Z "
        fill="rgb(0,0,0)" />

      <path id="screen" d=" M 478.893 608.822 C 473.283 603.898 451.057 598.981 441.119 597.618 C 437.504 597.123 435.97 599.557 436.614 602.018 C 441.209 619.57 439.989 682.304 432.341 714.34 C 430.756 720.979 436.114 726.38 438.512 726.38 Q 462.42 732.165 467.9 730.111 C 470.692 729.065 474.211 724.007 475.102 720.425 C 481.752 693.69 483.425 654.505 483.089 618.624 C 483.05 614.473 481.491 611.102 478.893 608.822 Z "
        xxx-fill="rgb(70,70,70)" 
        fill="img(building0.png,0.3)"
        />

      <path d=" M 484.327 639.338 C 484.637 638.298 484.838 635.419 484.498 633.886 C 477.418 656.107 445.168 632.583 437.189 612.37 C 454.242 651.146 479.759 646.944 482.282 641.042 C 477.853 665.939 449.908 662.515 438.491 647.858 C 438.737 649.516 438.153 654.104 437.95 655.265 C 443.47 681.969 469.236 702.818 482.543 665.929 C 470.155 693.695 450.059 688.981 439.992 652.934 C 452.826 666.465 478.998 667.987 484.327 639.338 Z "
        fill="rgb(0,0,0)" />
      <path d=" M 463.327 743.535 C 463.57 741.391 459.821 739.086 454.961 738.392 C 450.1 737.698 445.956 738.875 445.713 741.019 C 445.47 743.162 449.219 745.467 454.079 746.161 C 458.94 746.855 463.084 745.678 463.327 743.535 Z "
        fill="rgb(70,70,70)" />
      <path d=" M 460.842 759.2 L 460.108 757.364 L 439.047 755.186 L 407.799 760.485 L 411.562 762.871 L 460.842 759.2 Z "
        fill="rgb(0,0,0)" />
      <path d=" M 437.168 754.246 L 407.251 759.477 L 404.222 756.908 L 430.377 752.136 L 437.168 754.246 Z "
        fill="rgb(0,0,0)" />
      <path d=" M 426.337 750.392 L 403.302 754.705 L 402.476 753.617 L 424.226 749.304 L 426.337 750.392 Z "
        fill="rgb(0,0,0)" />
      <path d=" M 420.28 746.365 L 400.549 750.495 L 400.274 749.302 L 418.995 745.447 L 420.28 746.365 Z "
        fill="rgb(0,0,0)" />
    </g>

    <g id="apron" opacity="1">
      <path d=" M 437.183 716.004 L 420.048 711.628 C 413.274 713.44 408.7 714.084 406.295 713.53 L 405.971 712.557 L 399.853 719.219 L 402.369 725.576 L 405.324 724.472 L 405.324 723.328 C 409.292 722.839 414.21 721.397 420.048 718.972 L 436.812 723.328 L 437.183 716.004 Z "
        fill="rgb(0,0,0)" />
      <path d=" M 434.718 716.806 L 419.958 713.589 C 412.965 715.303 407.967 716.067 404.935 715.853 L 401.495 719.079 L 403 722.95 L 403.206 721.278 C 408.527 720.555 414.049 719.22 419.743 717.245 L 433.233 720.473 L 434.718 716.806 Z "
        fill="rgb(4,89,47)" />
      <path d=" M 419.743 714.43 L 408.64 717.441 L 419.605 715.231 L 410.712 718.488 L 419.678 715.814 L 428.075 718.273 L 420.553 715.523 L 425.598 716.087 L 419.743 714.43 Z "
        fill="rgb(0,0,0)" />
      <path d=" M 408.525 665.752 L 414.366 665.006 L 415.074 673.503 C 418.116 677.662 426.464 684.618 440.057 694.311 L 466.43 702.386 L 486.513 701.011 L 487.138 695.303 L 492.734 698.096 L 485.804 721.404 L 487.537 724.553 L 484.889 726.543 L 492.182 747.1 L 465.714 738.842 L 424.244 739.254 L 432.194 718.161 L 432.566 693.479 C 420.52 688.026 410.813 681.374 406.211 675.712 L 408.525 665.752 Z "
        fill="rgb(0,0,0)" />
      <path d=" M 412.511 666.757 L 412.216 669.991 L 410.321 667.194 L 412.511 666.757 Z "
        fill="rgb(4,89,47)" />
      <path d=" M 409.611 669.57 C 413.869 675.748 423.52 684.04 437.442 693.06 C 431.527 690.165 425.279 686.251 418.668 681.288 C 423.154 685.78 428.267 689.715 433.977 693.06 C 421.132 686.665 412.413 680.566 408.823 676.028 L 409.611 669.57 Z "
        fill="rgb(4,89,47)" />
      <path d=" M 465.519 736.125 L 427.472 736.736 L 434.6 719.063 L 435.581 695.996 L 469.111 705.318 L 487.665 704.465 L 490.04 700.215 L 482.738 723.188 L 462.235 721.404 L 484.665 724.798 L 454.382 725.861 L 482.738 726.629 L 488.115 743.276 L 465.519 736.125 Z "
        fill="rgb(4,89,47)" />
    </g>
    
    <g id="little_cups"
      transform="translate(24 70)"
    >
      <g id="mid_cup">

        <path d=" M 327.747 663.76 C 325.583 663.649 325.43 661.698 326.471 660.782 C 335.007 653.269 356.457 659.355 348.349 662.658 C 347.004 666.851 346.04 674.698 345.433 686.172 L 330.598 684.865 C 330.463 677.02 329.738 670.484 327.747 663.76 Z "
          fill="rgb(0,0,0)" />
        <linearGradient id="_lgradient_1" x1="0.26627395495150713" y1="0.7230840155806207" x2="0.7149756366753297" y2="0.17372722122181217" gradientTransform="matrix(18.409,0,0,25.931,329.152,658.794)" gradientUnits="userSpaceOnUse">
          <stop offset="1.7391304347826086%" stop-opacity="1" style="stop-color:rgb(185,185,185)" />
          <stop offset="98.69565217391305%" stop-opacity="1" style="stop-color:rgb(255,255,255)" />
        </linearGradient>
        <path d=" M 333.923 684.024 L 331.102 665.097 C 332.459 663.362 334.659 662.029 339.203 661.074 C 335.026 661.296 332.033 662.006 330.747 662.658 C 328.61 662.889 328.666 661.29 330.644 660.434 C 339.542 656.585 351.9 660.525 346.042 661.997 C 344.769 665.994 343.891 674.452 343.401 684.726 L 333.923 684.024 Z "
          fill="url(#_lgradient_1)" />
        <path d=" M 343.861 677.524 C 343.343 678.698 342.675 679.359 342.028 679.238 C 340.867 679.02 340.211 676.364 340.565 673.31 C 340.919 670.256 342.149 667.954 343.31 668.172 C 343.873 668.278 344.317 668.956 344.562 670.019 L 343.861 677.524 L 343.861 677.524 Z "
          fill="rgb(0,0,0)" />
        <path d=" M 343.971 676.344 C 343.596 677.311 343.061 677.907 342.513 677.839 C 341.611 677.728 341.014 675.859 341.181 673.668 C 341.348 671.478 342.216 669.789 343.118 669.901 C 343.719 669.975 344.185 670.83 344.372 672.047 L 343.971 676.344 L 343.971 676.344 Z "
          fill="rgb(4,89,47)" />
      </g>

      <g id="baby_cup"
      >
        <path d=" M 324.371 678.556 C 324.694 680.692 324.84 682.926 324.885 685.365 L 334.835 686.172 C 335.242 679.084 335.888 674.237 336.791 671.646 C 341.615 669.836 330.853 666.673 324.375 669.241 L 324.371 678.556 L 324.371 678.556 Z "
          fill="rgb(0,0,0)" />
        <linearGradient id="_lgradient_2" x1="0.26627395495150713" y1="0.7230840155806207" x2="0.7149756366753297" y2="0.17372722122181217" gradientTransform="matrix(11.906,0,0,16.019,324.356,669.26)" gradientUnits="userSpaceOnUse">
          <stop offset="1.7391304347826086%" stop-opacity="1" style="stop-color:rgb(185,185,185)" />
          <stop offset="98.69565217391305%" stop-opacity="1" style="stop-color:rgb(255,255,255)" />
        </linearGradient>
        <path d=" M 329.15 670.811 C 327.075 671.037 325.689 671.318 324.985 671.646 C 324.713 671.673 324.494 671.66 324.356 671.602 L 324.356 671.602 L 324.375 670.568 C 324.509 670.462 324.695 670.361 324.916 670.273 C 330.884 667.895 339.172 670.329 335.243 671.238 C 335.149 671.201 334.526 670.99 333.962 670.962 C 334.639 671.124 335.172 671.453 335.161 671.486 C 334.352 674.047 333.79 679.138 333.472 685.279 L 327.115 684.845 L 325.223 673.153 C 325.854 672.299 327.185 671.593 329.206 671.026 L 329.15 670.811 Z  M 329.489 670.776 C 329.858 670.738 330.247 670.702 330.657 670.668 C 330.279 670.75 329.92 670.836 329.578 670.925 L 329.489 670.776 Z "
          fill-rule="evenodd"
          fill="url(#_lgradient_2)" />
        <g>
          <path d=" M 326.548 678.386 C 326.469 676.474 327.262 674.851 328.318 674.764 C 329.374 674.677 330.295 676.159 330.374 678.071 C 330.453 679.983 329.66 681.605 328.604 681.692 C 327.549 681.779 326.627 680.297 326.548 678.386 Z "
            fill="rgb(0,0,0)" />
          <path d=" M 326.987 678.551 C 326.853 677.196 327.373 676.016 328.146 675.918 C 328.92 675.821 329.656 676.842 329.79 678.197 C 329.924 679.552 329.404 680.732 328.63 680.829 C 327.857 680.927 327.12 679.906 326.987 678.551 Z "
            fill="rgb(4,89,47)" />
        </g>
      </g>

      <g id="pappa_cup"
        transform="translate(150 2)"

      >
        <path d=" M 345.897 662.353 C 343.349 662.223 343.169 659.925 344.394 658.846 C 354.447 649.999 379.707 657.166 370.159 661.055 C 368.574 665.994 367.439 675.234 366.724 688.746 L 349.254 687.206 C 349.095 677.968 348.242 670.272 345.897 662.353 Z "
          fill="rgb(0,0,0)" />
        <linearGradient id="_lgradient_3" x1="0.26627395495150713" y1="0.7230840155806207" x2="0.7149756366753297" y2="0.17372722122181217" gradientTransform="matrix(21.678,0,0,30.537,347.552,656.506)" gradientUnits="userSpaceOnUse">
          <stop offset="1.7391304347826086%" stop-opacity="1" style="stop-color:rgb(185,185,185)" />
          <stop offset="98.69565217391305%" stop-opacity="1" style="stop-color:rgb(255,255,255)" />
        </linearGradient>

        <path d=" M 353.772 661.087 C 352.22 661.862 350.924 662.809 349.848 663.928 L 353.17 686.216 L 364.331 687.043 C 364.88 675.538 365.843 665.966 367.224 661.006 C 367.189 660.759 366.659 660.354 365.666 659.821 C 366.68 659.966 367.262 660.108 367.441 660.277 C 374.34 658.543 359.787 653.904 349.308 658.437 C 346.979 659.444 346.914 661.327 349.429 661.055 C 350.257 660.636 351.952 660.186 354.007 659.834 C 355.034 659.922 354.896 660.352 353.772 661.087 Z  M 356.063 660.117 C 357.077 659.75 358.186 659.443 359.388 659.191 C 358.308 659.252 357.199 659.359 356.137 659.513 C 355.605 659.74 355.599 660.074 356.063 660.117 Z "
          fill-rule="evenodd"
          fill="url(#_lgradient_3)" />
        <path d=" M 359.428 673.6 C 359.959 670.004 361.802 667.292 363.541 667.549 C 365.281 667.805 366.263 670.933 365.733 674.529 C 365.202 678.125 363.359 680.837 361.62 680.58 C 359.88 680.324 358.898 677.196 359.428 673.6 Z "
          fill="rgb(0,0,0)" />
        <path d=" M 360.351 674.021 C 360.601 671.442 361.902 669.454 363.254 669.585 C 364.605 669.716 365.5 671.917 365.249 674.496 C 364.999 677.076 363.699 679.064 362.347 678.933 C 360.995 678.802 360.101 676.601 360.351 674.021 Z "
          fill="rgb(4,89,47)" />
      </g>

    </g>

  </g>

</svg>