<svg xmlns="http://www.w3.org/2000/svg">

  <g transform="translate(-35.6164 -195.89) translate(-6.84932 -290.411)" fill="var(--outline-color, #000)">

    <path d="m91.81,622.27l22.03,-3.03c-6.21,-5.02 -8.98,-14.16 -8.52,-26.71l-16.73,1.71c-1.76,10.82 -0.77,20.55 3.22,28.03z"
      fill="url(#dots)" mask="url(#vert_fade_mask)"
    />

    <path d="m181.87,567.43c-1.95,5.4 -1.77,9.56 0.53,12.47c-11.78,3.89 -19.75,5.26 -27.43,3.58l9.12,14.2l-9.16,2.52c-1.55,-0.35 -2.47,-1.58 -2.78,-3.71l5.04,-1.33l-9.95,-15.79c11.41,-7.81 22.96,-11.79 34.63,-11.94z"
      fill-opacity="0.5" fill="var(--accent-color, #700)" />
    <path d="m98.13,646.28c0.85,-0.49 2.09,-0.89 3.71,-1.2l-1.85,3.45c9.99,-5.27 19.06,-8.05 27.2,-8.36c-5.24,3.76 -7.09,7.4 -5.58,10.88c-6.76,1.68 -15.17,2.48 -25.25,2.39c1.13,-2.53 1.72,-4.91 1.77,-7.16z"
      fill-opacity="0.5" fill="var(--accent-color, #700)" />

    <path d="m92.84,622.84l-0.78,0.18l-0.36,-1.55l0.77,-0.18c3.97,-0.91 7.97,-1.64 12,-2.17c3.51,-0.47 7.04,-0.71 10.58,-0.73c0.01,0 0.01,0 0.01,0l0.72,0.01l0.8,0l-0.01,1.59l-0.8,0l-0.71,-0.01c-3.47,0.02 -6.94,0.26 -10.38,0.72c-3.98,0.52 -7.93,1.24 -11.84,2.14z" />
    <path d="m75.36,545.52l-0.09,0.04l-0.22,-0.48l0.24,-0.11c0.49,-0.23 1,-0.42 1.52,-0.56c0.44,-0.12 0.9,-0.18 1.36,-0.19c0.52,-0.01 1.03,0.11 1.5,0.35c0.45,0.24 0.83,0.61 1.09,1.05c0.24,0.38 0.37,0.82 0.38,1.27c-0.01,0.52 -0.19,1.02 -0.5,1.44c-0.31,0.44 -0.71,0.81 -1.17,1.1c-0.47,0.31 -0.97,0.55 -1.5,0.72c-0.49,0.17 -1.01,0.26 -1.53,0.27c0,0 -0.01,0 -0.01,0l-0.29,-0.01c-0.01,0 -0.01,0 -0.01,0c-0.57,-0.05 -1.12,-0.28 -1.54,-0.67c-0.4,-0.4 -0.63,-0.94 -0.62,-1.51c0.01,-0.46 0.13,-0.91 0.34,-1.32c0.27,-0.52 0.63,-0.98 1.05,-1.39zm0.28,-0.13l0.29,0.32l-0.19,0.18c-0.39,0.37 -0.71,0.8 -0.96,1.27c-0.18,0.33 -0.28,0.7 -0.28,1.08c-0.01,0.41 0.16,0.82 0.46,1.12c0.33,0.3 0.76,0.48 1.21,0.52l0.27,0.01c0.46,-0.01 0.93,-0.09 1.36,-0.24c0.49,-0.16 0.96,-0.38 1.38,-0.66c0.4,-0.26 0.75,-0.59 1.04,-0.97c0.24,-0.33 0.38,-0.72 0.39,-1.13c-0.01,-0.35 -0.11,-0.69 -0.3,-0.99c-0.22,-0.36 -0.52,-0.66 -0.89,-0.87c-0.39,-0.19 -0.81,-0.29 -1.25,-0.28c-0.41,0 -0.82,0.06 -1.22,0.17c-0.45,0.13 -0.89,0.28 -1.31,0.47zm0,0c-0.05,0.02 -0.08,0.04 -0.13,0.06" fill-rule="evenodd" />
    <path d="m80.8,564.71l0.21,-0.18q-0.55,1.1 -1.95,1.85c-0.67,0.25 -1.39,0.38 -2.12,0.39c-1.15,-0.02 -2.29,-0.35 -3.27,-0.96c-1.06,-0.66 -1.99,-1.53 -2.7,-2.54c-0.81,-1.13 -1.43,-2.37 -1.84,-3.69c-0.46,-1.44 -0.69,-2.93 -0.69,-4.44q-0.05,-1.67 1.03,-4.05q-0.55,2.26 -0.46,4.05c0,1.45 0.22,2.89 0.66,4.26c0.39,1.27 0.99,2.46 1.76,3.54c0.68,0.95 1.54,1.77 2.54,2.39c0.89,0.55 1.92,0.85 2.98,0.87c0.65,-0.01 1.3,-0.13 1.91,-0.36c0.7,-0.27 1.35,-0.66 1.94,-1.13z" />
    <path d="m91.85,585.83l0.21,0.17l-0.33,0.41l-0.21,-0.17c-0.89,-0.72 -1.7,-1.55 -2.39,-2.46c-0.81,-1.05 -1.52,-2.17 -2.13,-3.35c-0.7,-1.36 -1.32,-2.77 -1.85,-4.22c-0.6,-1.68 -1.13,-3.37 -1.58,-5.11l-0.06,-0.25l0.51,-0.13l0.06,0.25c0.45,1.71 0.97,3.4 1.57,5.06c0.52,1.42 1.13,2.81 1.83,4.16c0.58,1.15 1.28,2.24 2.07,3.26c0.67,0.89 1.44,1.68 2.3,2.38z" />
    <path d="m121.94,582.81l-0.1,0.59l-0.21,-0.16c-2.74,-2 -5.32,-4.21 -7.71,-6.62c-0.57,-3.09 -1.29,-6.15 -2.17,-9.17c-0.96,-3.35 -2.06,-6.65 -3.28,-9.91l0.4,-0.44l0.1,0.25c1.23,3.28 2.32,6.6 3.29,9.95c0.87,2.99 1.58,6.01 2.15,9.07c2.34,2.33 4.86,4.49 7.53,6.44z" />
    <path d="m182.98,579.66l0.15,0.22l-0.44,0.3l-0.15,-0.22c-0.67,-0.98 -1.19,-2.07 -1.53,-3.21c-0.35,-1.17 -0.52,-2.39 -0.52,-3.61c0.02,-2.06 0.47,-4.1 1.35,-5.96l0.11,-0.24l0.48,0.23l-0.11,0.24c-0.84,1.79 -1.28,3.75 -1.3,5.73c0,1.17 0.17,2.34 0.51,3.46c0.32,1.09 0.81,2.13 1.45,3.06z" />
    <path d="m154.73,585.17l-0.15,-0.21l0.43,-0.31l0.15,0.22l8.98,12.65c0.06,0.08 0.07,0.18 0.03,0.26c-0.04,0.09 -0.12,0.15 -0.22,0.16c-1.1,0.1 -2.2,0.26 -3.29,0.48c-0.97,0.2 -1.93,0.46 -2.87,0.78c-0.85,0.29 -1.67,0.64 -2.46,1.07c-0.73,0.38 -1.41,0.84 -2.05,1.35c-1.21,0.97 -2.19,2.19 -2.89,3.57c-0.36,0.71 -0.64,1.46 -0.85,2.23c-0.26,0.96 -0.42,1.96 -0.48,2.95c-1.01,-0.6 -1.95,-1.33 -2.79,-2.16c-0.7,-0.71 -1.32,-1.49 -1.84,-2.34c-0.53,-0.86 -0.96,-1.78 -1.28,-2.73c-0.34,-1.01 -0.58,-2.06 -0.71,-3.12l-0.03,-0.26l0.52,-0.07l0.04,0.26c0.12,1.03 0.35,2.04 0.68,3.02c0.31,0.92 0.72,1.8 1.23,2.62c0.5,0.81 1.1,1.57 1.77,2.24c0.6,0.6 1.26,1.15 1.96,1.62c0.08,-0.73 0.23,-1.45 0.42,-2.17c0.22,-0.8 0.51,-1.58 0.88,-2.33c0.74,-1.45 1.77,-2.72 3.03,-3.74c0.67,-0.54 1.38,-1.01 2.14,-1.41c0.82,-0.43 1.67,-0.81 2.54,-1.1c0.96,-0.33 1.94,-0.6 2.94,-0.8c0.96,-0.19 1.92,-0.34 2.89,-0.44l-8.72,-12.29z" />
    <path d="m146.77,598.18l-0.07,-0.25l0.51,-0.14l0.07,0.26c0.33,1.25 0.75,2.48 1.26,3.67c0.21,0.5 0.45,0.99 0.7,1.47c-0.09,-0.41 -0.17,-0.82 -0.25,-1.23c-0.16,-0.96 -0.25,-1.94 -0.25,-2.91c-0.01,-1.02 0.1,-2.04 0.32,-3.03c0.14,1.49 0.54,2.94 1.18,4.3c0.35,0.71 0.79,1.38 1.33,1.97l0.18,0.2l-0.39,0.35l-0.18,-0.2c-0.57,-0.62 -1.05,-1.33 -1.41,-2.1c-0.19,-0.39 -0.35,-0.79 -0.5,-1.19c0.02,0.84 0.1,1.69 0.25,2.52c0.28,1.68 0.76,3.33 1.4,4.91c-1.16,-1.48 -2.13,-3.12 -2.87,-4.85c-0.52,-1.22 -0.95,-2.47 -1.28,-3.75z" />
    <path d="m121.99,650.99l0.17,0.21l-0.41,0.33l-0.17,-0.21c-0.29,-0.34 -0.5,-0.74 -0.65,-1.16c-0.15,-0.42 -0.22,-0.88 -0.22,-1.32c0.01,-0.71 0.16,-1.41 0.42,-2.07c0.32,-0.78 0.74,-1.52 1.24,-2.2c0.6,-0.82 1.27,-1.58 2,-2.28c0.86,-0.82 1.77,-1.59 2.73,-2.29l0.22,-0.16l0.31,0.43l-0.22,0.15c-0.94,0.69 -1.83,1.45 -2.67,2.25c-0.71,0.68 -1.36,1.42 -1.94,2.21c-0.48,0.65 -0.87,1.35 -1.17,2.09c-0.25,0.6 -0.38,1.23 -0.39,1.87c0,0.39 0.06,0.78 0.19,1.15c0.12,0.36 0.31,0.7 0.56,1z" />
    <path d="m92.38,641.32l-0.24,0.11l-0.24,-0.47l0.24,-0.12c2.69,-1.32 5.5,-2.38 8.39,-3.15c2.85,-0.76 5.77,-1.22 8.7,-1.38l0.27,-0.01l0.03,0.53l-0.27,0.02c-2.9,0.15 -5.78,0.61 -8.6,1.35c-2.85,0.77 -5.63,1.81 -8.28,3.12z" />
    <path d="m94.62,640.25l-0.22,-0.16l0.31,-0.43l0.22,0.15c0.55,0.39 1.07,0.84 1.53,1.34c0.44,0.47 0.81,0.99 1.11,1.54c0.3,0.55 0.52,1.12 0.66,1.73c0.15,0.62 0.23,1.26 0.23,1.9c-0.01,0.99 -0.16,1.97 -0.42,2.92c-0.32,1.11 -0.73,2.19 -1.24,3.23l-0.12,0.24l-0.48,-0.24l0.12,-0.23c0.5,-1.01 0.9,-2.06 1.21,-3.15c0.25,-0.9 0.39,-1.83 0.4,-2.77c0,-0.6 -0.07,-1.2 -0.21,-1.78c-0.13,-0.56 -0.34,-1.09 -0.62,-1.6c-0.28,-0.51 -0.62,-0.99 -1.03,-1.43c-0.44,-0.47 -0.92,-0.89 -1.45,-1.26z" />
    <path d="m96.8,642.92l-0.26,0.07l-0.15,-0.51l0.26,-0.07c1.15,-0.34 2.33,-0.63 3.52,-0.85c2.02,-0.38 4.06,-0.63 6.11,-0.76c-2.07,0.63 -4.08,1.45 -6.01,2.44c-0.54,0.27 -1.08,0.57 -1.6,0.88c0.44,-0.13 0.89,-0.25 1.34,-0.36c0.96,-0.23 1.95,-0.38 2.94,-0.43l0.26,-0.02l0.03,0.54l-0.26,0.01c-0.96,0.05 -1.91,0.19 -2.85,0.42c-1.84,0.44 -3.63,1.07 -5.34,1.89c1.62,-1.31 3.38,-2.46 5.24,-3.41c0.69,-0.35 1.39,-0.68 2.1,-1c-0.62,0.1 -1.24,0.21 -1.86,0.32c-1.17,0.22 -2.33,0.5 -3.47,0.84z" />
    <path d="m82.36,611.31l-0.16,0.21l-0.42,-0.32l0.16,-0.21c0.4,-0.52 0.84,-1.01 1.32,-1.46c0.43,-0.41 0.9,-0.78 1.4,-1.1c0.93,-0.58 1.98,-0.95 3.08,-1.07l0.26,-0.03l0.06,0.53l-0.27,0.03c-1.01,0.11 -1.99,0.45 -2.85,0.99c-0.47,0.3 -0.91,0.65 -1.32,1.04c-0.45,0.43 -0.88,0.89 -1.26,1.39z" />
    <path d="m83.02,613.58l-0.1,0.24l-0.49,-0.22l0.11,-0.24c0.22,-0.48 0.52,-0.93 0.87,-1.33c0.38,-0.43 0.81,-0.81 1.27,-1.15c0.48,-0.35 1,-0.63 1.54,-0.86c0.53,-0.23 1.08,-0.38 1.65,-0.44l0.26,-0.03l0.06,0.53l-0.26,0.03c-0.52,0.05 -1.02,0.19 -1.5,0.39c-0.51,0.22 -0.99,0.49 -1.43,0.81c-0.44,0.32 -0.84,0.68 -1.2,1.08c-0.32,0.35 -0.58,0.75 -0.78,1.19z" />
    <path d="m120.4,527.56l0.19,-0.19l0.36,0.39l-0.19,0.18l-11.12,10.53l-0.19,0.18l-0.37,-0.39l0.2,-0.18l11.12,-10.52z" />
    <path d="m122.68,530.28l0.2,-0.19l0.37,0.38l-0.19,0.18l-10.02,9.94l-0.18,0.18l-0.38,-0.37l0.19,-0.19l10.01,-9.93z" />
    <path d="m125.88,535.14l0.16,-0.2l0.43,0.31l-0.16,0.22c-1.73,2.27 -3.64,4.4 -5.72,6.36c-1.16,1.09 -2.39,2.1 -3.67,3.03l-0.22,0.15l-0.31,-0.43l0.21,-0.16c1.27,-0.91 2.48,-1.91 3.63,-2.98c2.06,-1.94 3.95,-4.04 5.65,-6.3z" />
    <path d="m129.04,541.66l0.19,-0.2l0.38,0.37l-0.18,0.19l-8.4,8.92l-0.19,0.19l-0.38,-0.36l0.18,-0.2l8.4,-8.91z" />
    <path d="m131.36,554.71l0.2,-0.17l0.34,0.4l-0.2,0.17l-6.2,5.27l-0.2,0.17l-0.34,-0.41l0.2,-0.16l6.2,-5.27z" />
    <path d="m112.83,576.35c-0.27,-1.36 0.19,-2.61 1.04,-2.78c0.85,-0.17 1.76,0.8 2.03,2.16c0.27,1.36 -0.2,2.6 -1.04,2.77c-0.85,0.17 -1.76,-0.8 -2.03,-2.15z" />
    <path d="m107.03,537.42l10.78,-12.4l-4.33,-1.95l-5.35,4.58l-2.88,10.45l1.78,-0.68z" />
    <path d="m94.06,624.5l0.19,0.19l-0.38,0.37l-0.19,-0.19c-1.07,-1.11 -1.99,-2.35 -2.73,-3.7c-0.81,-1.47 -1.47,-3.03 -1.95,-4.65c-0.54,-1.83 -0.93,-3.71 -1.16,-5.61c-0.27,-2.17 -0.4,-4.36 -0.39,-6.55c0.01,-2.44 0.13,-4.87 0.37,-7.3c0.27,-2.74 0.63,-5.48 1.09,-8.2l0.05,-0.26l0.52,0.09l-0.04,0.26c-0.46,2.71 -0.83,5.43 -1.09,8.17c-0.24,2.4 -0.36,4.82 -0.37,7.24c-0.01,2.17 0.12,4.34 0.39,6.49c0.23,1.87 0.61,3.72 1.14,5.52c0.47,1.58 1.11,3.1 1.9,4.55c0.73,1.3 1.62,2.51 2.65,3.58z" />
    <path d="m102.19,586.72l0.26,-0.02l0.05,0.53l-0.27,0.02l-17,1.21c-0.06,0.01 -0.13,-0.01 -0.18,-0.05c-0.05,-0.04 -0.09,-0.1 -0.1,-0.17c-0.01,-0.06 0,-0.13 0.04,-0.18c0.03,-0.06 0.09,-0.1 0.16,-0.12c3.33,-0.88 6.65,-1.88 9.91,-3.01c1.38,-0.48 2.76,-0.99 4.12,-1.55c1.2,-0.48 2.39,-1.01 3.56,-1.57l0.24,-0.12l0.23,0.48l-0.24,0.12c-1.18,0.57 -2.38,1.09 -3.59,1.58c-1.37,0.56 -2.75,1.08 -4.15,1.56c-2.42,0.84 -4.87,1.61 -7.34,2.31l14.3,-1.02z" />
    <path d="m77.69,546.13l0.48,0.64l-1.27,0.96l-0.47,-0.63c-1.45,-1.9 -2.57,-4.04 -3.33,-6.31c-0.68,-2.11 -1.02,-4.31 -1.02,-6.53c0,-1.5 0.15,-2.99 0.44,-4.46c0.28,-1.47 0.68,-2.92 1.2,-4.33c1.05,-2.81 2.46,-5.47 4.22,-7.92c1.67,-2.36 3.62,-4.51 5.81,-6.4c1.02,-0.88 2.09,-1.7 3.21,-2.44c1.04,-0.69 2.13,-1.29 3.27,-1.81c0.85,-0.39 1.74,-0.69 2.65,-0.91c0.79,-0.19 1.62,-0.29 2.44,-0.29c0.96,-0.01 1.92,0.14 2.83,0.44c0.87,0.29 1.69,0.69 2.44,1.21c0.74,0.51 1.41,1.11 2.02,1.77c0.6,0.67 1.15,1.39 1.64,2.15c1.22,2.42 1.92,5.83 2.06,10.18c-1.04,-4.75 -2.54,-7.96 -3.41,-9.33c-0.43,-0.68 -0.93,-1.33 -1.47,-1.93c-0.53,-0.57 -1.11,-1.09 -1.75,-1.53c-0.62,-0.43 -1.3,-0.77 -2.02,-1.01c-0.75,-0.24 -1.54,-0.36 -2.33,-0.36c-0.7,0 -1.4,0.09 -2.08,0.25c-0.81,0.19 -1.6,0.46 -2.36,0.81c-1.06,0.48 -2.08,1.05 -3.05,1.69c-1.06,0.7 -2.08,1.47 -3.04,2.31c-2.1,1.81 -3.96,3.87 -5.57,6.13c-1.67,2.33 -3.02,4.87 -4.02,7.54c-0.49,1.33 -0.86,2.7 -1.13,4.08c-0.27,1.38 -0.4,2.77 -0.4,4.17c-0.01,2.04 0.31,4.08 0.94,6.03c0.7,2.1 1.73,4.07 3.07,5.83z" />
    <path d="m107.71,526.8l0.45,-0.65l1.31,0.92l-0.46,0.65c-0.99,1.42 -2.09,2.76 -3.29,4.02c-1.25,1.32 -2.56,2.58 -3.93,3.76c-1.29,1.13 -2.62,2.19 -4,3.19c-1.11,0.83 -2.28,1.59 -3.49,2.28l-0.69,0.38l-0.79,-1.38l0.7,-0.4c1.15,-0.65 2.27,-1.37 3.33,-2.16c1.35,-0.98 2.64,-2.01 3.89,-3.11c1.34,-1.15 2.61,-2.37 3.82,-3.66c1.15,-1.2 2.2,-2.48 3.15,-3.84z" />
    <path d="m99.93,615.89l-0.71,-0.36l0.71,-1.43l0.71,0.36c1.65,0.84 3.25,1.78 4.78,2.83c1.46,1 2.85,2.1 4.15,3.31c2.71,2.5 4.98,5.44 6.72,8.7c-1.74,1.18 -3.38,2.51 -4.89,3.98c-1.41,1.37 -2.71,2.83 -3.91,4.38c-1.27,1.65 -2.45,3.37 -3.51,5.17c-0.76,1.29 -1.48,2.61 -2.15,3.95c2.43,-1.14 4.89,-2.19 7.39,-3.16c2.58,-1.01 5.2,-1.88 7.86,-2.61c2.13,-0.59 4.28,-1.04 6.46,-1.36c1.73,-0.25 3.49,-0.38 5.23,-0.39c2.1,0 4.2,0.23 6.25,0.68c0.46,0.1 0.92,0.24 1.36,0.42c0.37,0.14 0.72,0.34 1.05,0.58c0.29,0.21 0.54,0.49 0.73,0.81c0.18,0.32 0.28,0.68 0.28,1.04c-0.01,0.38 -0.1,0.75 -0.27,1.09c-0.17,0.35 -0.39,0.68 -0.66,0.98c-0.29,0.34 -0.62,0.65 -0.97,0.93c-0.41,0.34 -0.83,0.64 -1.27,0.93c-1.1,0.69 -2.24,1.3 -3.43,1.82c-1.48,0.66 -2.98,1.23 -4.52,1.73c-1.81,0.6 -3.64,1.11 -5.5,1.55c-2.11,0.49 -4.24,0.91 -6.39,1.24c-4.94,0.76 -9.93,1.14 -14.93,1.13c-0.66,0 -1.33,-0.01 -2,-0.02l-0.8,-0.01l0.03,-1.59l0.8,0.01c0.66,0.01 1.32,0.02 1.97,0.02c4.92,0.01 9.83,-0.36 14.69,-1.12c2.11,-0.32 4.19,-0.73 6.26,-1.21c1.82,-0.43 3.61,-0.93 5.38,-1.51c1.48,-0.48 2.94,-1.04 4.37,-1.68c1.11,-0.49 2.18,-1.05 3.21,-1.71c0.39,-0.25 0.77,-0.52 1.13,-0.81c0.28,-0.23 0.54,-0.48 0.78,-0.76c0.17,-0.18 0.31,-0.4 0.42,-0.62c0.06,-0.13 0.1,-0.26 0.1,-0.4c0,-0.09 -0.02,-0.17 -0.06,-0.24c-0.07,-0.13 -0.18,-0.23 -0.29,-0.32c-0.21,-0.16 -0.45,-0.29 -0.7,-0.38c-0.36,-0.14 -0.73,-0.26 -1.12,-0.34c-1.93,-0.44 -3.91,-0.65 -5.89,-0.64c-1.67,0 -3.35,0.13 -5.01,0.37c-2.11,0.31 -4.21,0.75 -6.27,1.31c-2.61,0.72 -5.18,1.58 -7.7,2.56c-3.83,1.49 -7.59,3.19 -11.25,5.07c1.15,-2.81 2.51,-5.53 4.06,-8.15c1.09,-1.85 2.31,-3.64 3.62,-5.34c1.24,-1.61 2.6,-3.13 4.06,-4.54c1.23,-1.19 2.53,-2.29 3.91,-3.31c-1.56,-2.62 -3.48,-4.99 -5.71,-7.06c-1.24,-1.15 -2.57,-2.21 -3.97,-3.17c-1.47,-1 -3.01,-1.91 -4.59,-2.71 z" />
    <path d="m132.2,604.95l-0.73,0.31l-0.62,-1.47l0.73,-0.31l0.34,-0.14c2.36,-1.01 4.73,-2 7.09,-2.98c2.1,-0.88 4.2,-1.72 6.32,-2.53c1.91,-0.73 3.84,-1.41 5.78,-2.04c1.49,-0.48 3,-0.91 4.53,-1.29c-0.85,-1.83 -1.82,-3.59 -2.93,-5.27c-0.52,-0.81 -1.08,-1.6 -1.65,-2.37c-0.5,-0.67 -1,-1.34 -1.52,-2c-0.36,-0.47 -0.73,-0.95 -1.08,-1.43c-0.32,-0.42 -0.61,-0.84 -0.89,-1.28c-0.25,-0.38 -0.45,-0.79 -0.62,-1.21
    c-0.16,-0.4 -0.24,-0.82 -0.25,-1.25c0,-0.02 0,-0.03 0,-0.04l0,-0.13c0,-0.02 0,-0.04 0,-0.05c0.02,-0.18 0.07,-0.35 0.15,-0.51c0.06,-0.14 0.15,-0.28 0.24,-0.4c0.21,-0.29 0.46,-0.55 0.72,-0.78c0.33,-0.3 0.67,-0.58 1.03,-0.84c0.44,-0.32 0.88,-0.63 1.35,-0.92c1.14,-0.73 2.32,-1.41 3.54,-2.03c1.47,-0.77 2.98,-1.47 4.51,-2.13c3.6,-1.54 7.31,-2.78 11.11,-3.71c2.03,-0.5 4.09,-0.89 6.17,-1.17c2.08,-0.29 4.18,-0.44 6.29,-0.45c1.8,0 3.6,0.13 5.38,0.39c1.1,0.15 2.19,0.38 3.26,0.68c0.81,0.21 1.59,0.53 2.33,0.92c0.3,0.17 0.59,0.37 0.85,0.58c0.25,0.2 0.46,0.42 0.64,0.67c0.36,0.48 0.55,1.05 0.56,1.64c-0.01,0.44 -0.11,0.88 -0.29,1.28c-0.18,0.42 -0.43,0.81 -0.72,1.16c-0.33,0.41 -0.69,0.78 -1.08,1.12c-0.44,0.39 -0.91,0.75 -1.39,1.09c-1.15,0.79 -2.36,1.5 -3.61,2.11c-1.47,0.73 -2.97,1.39 -4.51,1.97c-3.47,1.32 -7.03,2.36 -10.67,3.11c-1.87,0.38 -3.75,0.69 -5.65,0.91c-1.82,0.21 -3.65,0.32 -5.48,0.33c-3.98,-0.04 -6.75,-0.96 -8.34,-2.81c1.92,1.06 5.96,1.52 8.21,1.34c1.77,0 3.67,-0.23 5.43,-0.44c1.85,-0.21 3.68,-0.51 5.5,-0.89c3.56,-0.73 7.05,-1.75 10.44,-3.04c1.49,-0.56 2.94,-1.2 4.36,-1.91c1.19,-0.58 2.33,-1.25 3.41,-1.99c0.44,-0.3 0.85,-0.63 1.25,-0.98c0.33,-0.28 0.62,-0.59 0.9,-0.92c0.2,-0.25 0.37,-0.52 0.5,-0.82c0.1,-0.19 0.14,-0.41 0.15,-0.62c-0.01,-0.25 -0.09,-0.49 -0.24,-0.68c-0.11,-0.15 -0.24,-0.28 -0.38,-0.39c-0.18,-0.16 -0.39,-0.3 -0.6,-0.42c-0.63,-0.34 -1.3,-0.6 -1.99,-0.79c-1.01,-0.28 -2.03,-0.49 -3.06,-0.64c-1.71,-0.25 -3.43,-0.37 -5.15,-0.36c-2.04,0 -4.07,0.15 -6.08,0.42c-2.03,0.28 -4.03,0.66 -6.01,1.15c-3.71,0.91 -7.35,2.13 -10.87,3.63c-1.49,0.64 -2.96,1.32 -4.41,2.07c-1.17,0.6 -2.3,1.26 -3.41,1.96c-0.43,0.28 -0.85,0.56 -1.26,0.87c-0.31,0.23 -0.62,0.47 -0.91,0.74c-0.19,0.16 -0.36,0.35 -0.5,0.55c-0.03,0.03 -0.06,0.07 -0.08,0.11l0,0.04c0.01,0.24 0.05,0.46 0.14,0.68c0.13,0.33 0.3,0.65 0.49,0.95c0.25,0.4 0.52,0.8 0.81,1.18c0.35,0.47 0.71,0.94 1.07,1.4c0.52,0.67 1.04,1.35 1.54,2.03c0.6,0.8 1.16,1.61 1.7,2.44c1.51,2.29 2.78,4.73 3.81,7.27c-2.11,0.47 -4.2,1.03 -6.25,1.69c-1.92,0.62 -3.82,1.29 -5.7,2.01c-2.1,0.8 -4.19,1.64 -6.28,2.51c-2.36,0.98 -4.72,1.97 -7.07,2.97c-0.01,0 -0.01,0 -0.01,0l-0.34,0.15z"   />
    <path d="m103.14,620.51l0.19,-0.78l1.55,0.38l-0.19,0.78c-0.33,1.31 -0.79,2.59 -1.39,3.81c-0.64,1.34 -1.41,2.62 -2.29,3.82c-0.87,1.21 -1.87,2.31 -3,3.28c-0.54,0.45 -1.11,0.87 -1.71,1.23c-0.7,0.42 -1.44,0.75 -2.22,0.98c-1.19,-0.77 -2.3,-1.67 -3.31,-2.66c-0.96,-0.93 -1.85,-1.94 -2.65,-3.01c-0.83,-1.12 -1.59,-2.29 -2.27,-3.51c-0.71,-1.28 -1.35,-2.59 -1.9,-3.94c-1.17,-2.88 -2.04,-5.86 -2.6,-8.92c-0.6,-3.25 -0.91,-6.56 -0.9,-9.87c0,-4.97 0.65,-9.92 1.95,-14.72c-0.61,-0.68 -1.16,-1.4 -1.65,-2.16c-0.66,-1.04 -1.25,-2.13 -1.75,-3.25c-0.6,-1.34 -1.13,-2.7 -1.59,-4.09c-0.55,-1.66 -1.04,-3.34 -1.47,-5.03l-0.19,-0.78l1.54,-0.39l0.2,0.78c0.41,1.65 0.9,3.29 1.43,4.92c0.44,1.34 0.96,2.65 1.53,3.94c0.48,1.05 1.02,2.06 1.64,3.04c0.6,0.93 1.29,1.8 2.08,2.58c-1.41,4.93 -2.13,10.03 -2.13,15.16c0,3.22 0.29,6.42 0.87,9.58c0.54,2.95 1.38,5.83 2.51,8.61c0.53,1.29 1.14,2.55 1.82,3.76c0.64,1.16 1.37,2.28 2.16,3.34c0.75,1 1.58,1.95 2.48,2.82c0.75,0.74 1.57,1.42 2.44,2.04c0.4,-0.16 0.78,-0.36 1.15,-0.58c0.53,-0.32 1.03,-0.68 1.5,-1.08c1.03,-0.89 1.96,-1.9 2.75,-3.01c0.83,-1.12 1.55,-2.32 2.15,-3.58c0.55,-1.11 0.97,-2.29 1.27,-3.49z" />
    <path d="m108.39,579.64c-8.04,-9.68 -8.1,-39.5 0.01,-53.53c9.43,-16.32 26.79,22.21 30.08,40.82c2.16,12.21 -3.02,42.86 -17.97,51.97c-10.64,6.48 -19.41,-12.63 -13.97,-32.63c-3.23,21.16 5.02,36.79 13.19,30.87c15.18,-11.01 19.35,-36.11 16.8,-49.81c-3.12,-16.72 -18.08,-55.31 -27.22,-38.08c-6.71,12.65 -8.14,30.24 -0.92,50.39z" />
    <path d="m94.58,558.01c3.9,-11.97 0.69,-18.67 -6.6,-22.92c-9.37,-5.48 -30.03,14.66 -21.32,30.51c10.12,18.44 27.98,0.86 27.21,-13.17c0.39,10.26 -16.3,26.96 -24.34,14.49c-11.35,-17.62 9.73,-32.76 16.89,-30.15c7.07,2.59 10.33,9.66 8.16,21.24z" />
    <path d="m126.04,593.92c-2.13,6.26 -9.72,22.09 -13.87,14.94c5.9,4.99 12.63,-15.68 13.5,-20.44c1.65,-8.98 1.47,-20.74 -2.04,-29.52c-4.68,-11.68 -14.26,-24.86 -18.78,-18.65l0,-1.95c3.92,-6.3 14.32,7.54 18.07,14.51c3.76,6.96 8.4,25.65 3.12,41.11z" />

    <ellipse cx="98.27" cy="654.7" rx="49.67" ry="1.68" />

  </g>

</svg>