<?xml version="1.0" encoding="UTF-8" standalone="no"?><!-- Generator: Gravit.io --><svg xmlns="http://www.w3.org/2000/svg" xmlns:xlink="http://www.w3.org/1999/xlink" style="isolation:isolate" viewBox="-11.09 -14.675 487.859 637.186" width="487.859pt" height="637.186pt"><defs><clipPath id="_clipPath_QIyK8dtptm1IelwJHbqt6VKOs9djV4ur"><rect x="-11.09" y="-14.675" width="487.859" height="637.186"/></clipPath></defs><g clip-path="url(#_clipPath_QIyK8dtptm1IelwJHbqt6VKOs9djV4ur)"><rect x="-11.09" y="-14.675" width="487.859" height="637.186" style="fill:rgb(96,125,139)"/><rect x="-11.09" y="-14.675" width="487.859" height="637.186" transform="matrix(1,0,0,1,0,0)" fill="rgb(96,125,139)"/><g><g><mask id="_mask_iieKil2X6CUd36gaUEirDnnsg4fDg4a0"><path d=" M 151.553 192.437 L 357.522 192.437 C 409.938 192.437 452.494 160.874 452.494 121.997 L 452.494 121.997 C 452.494 83.12 409.938 51.557 357.522 51.557 L 104.153 51.557 C 51.737 51.557 9.181 83.12 9.181 121.997 L 9.181 121.997 C 9.181 153.772 37.61 180.661 76.622 189.414 C 76.463 190.387 76.385 191.378 76.385 192.381 L 76.385 192.381 C 76.385 207.098 93.226 219.047 113.969 219.047 L 113.969 219.047 C 134.686 219.047 151.511 207.128 151.553 192.437 Z " fill-rule="evenodd" fill="white" stroke="none"/></mask><path d=" M 151.553 192.437 L 357.522 192.437 C 409.938 192.437 452.494 160.874 452.494 121.997 L 452.494 121.997 C 452.494 83.12 409.938 51.557 357.522 51.557 L 104.153 51.557 C 51.737 51.557 9.181 83.12 9.181 121.997 L 9.181 121.997 C 9.181 153.772 37.61 180.661 76.622 189.414 C 76.463 190.387 76.385 191.378 76.385 192.381 L 76.385 192.381 C 76.385 207.098 93.226 219.047 113.969 219.047 L 113.969 219.047 C 134.686 219.047 151.511 207.128 151.553 192.437 Z " fill-rule="evenodd" fill="rgb(255,255,255)"/><path d=" M 151.553 192.437 L 357.522 192.437 C 409.938 192.437 452.494 160.874 452.494 121.997 L 452.494 121.997 C 452.494 83.12 409.938 51.557 357.522 51.557 L 104.153 51.557 C 51.737 51.557 9.181 83.12 9.181 121.997 L 9.181 121.997 C 9.181 153.772 37.61 180.661 76.622 189.414 C 76.463 190.387 76.385 191.378 76.385 192.381 L 76.385 192.381 C 76.385 207.098 93.226 219.047 113.969 219.047 L 113.969 219.047 C 134.686 219.047 151.511 207.128 151.553 192.437 Z " fill-rule="evenodd" fill="rgb(255,255,255)" mask="url(#_mask_iieKil2X6CUd36gaUEirDnnsg4fDg4a0)" vector-effect="non-scaling-stroke" stroke-width="10" stroke="rgb(0,0,0)" stroke-linejoin="miter" stroke-linecap="square" stroke-miterlimit="3"/><g clip-path="url(#_clipPath_fXXHfeVyYGotNaypKYick3hjDCVSSX7V)"><text transform="matrix(1.071,0,0,1.071,49.362,113.164)" style="font-family:'Comic Neue';font-weight:400;font-size:33px;font-style:normal;fill:#000000;stroke:none;">If I just keep scrolling,</text><text transform="matrix(1.071,0,0,1.071,49.362,153.795)" style="font-family:'Comic Neue';font-weight:400;font-size:33px;font-style:italic;fill:#000000;stroke:none;">one of these </text><text transform="matrix(1.071,0,0,1.071,250.222,153.795)" style="font-family:'Comic Neue';font-weight:400;font-size:33px;font-style:normal;fill:#000000;stroke:none;">won't suck.</text></g><defs><clipPath id="_clipPath_fXXHfeVyYGotNaypKYick3hjDCVSSX7V"><rect x="0" y="0" width="339" height="75.9" transform="matrix(1.071,0,0,1.071,49.362,81.366)"/></clipPath></defs><path d=" M 147.354 201.634 Q 151.375 190.056 145.125 179.484" fill="none" vector-effect="non-scaling-stroke" stroke-width="5" stroke="rgb(0,0,0)" stroke-linejoin="miter" stroke-linecap="square" stroke-miterlimit="3"/><path d="M 147.839 198.744 L 147.839 198.744 C 158.846 198.744 167.782 205.97 167.782 214.871 L 167.782 214.871 C 167.782 223.773 158.846 230.999 147.839 230.999 L 147.839 230.999 C 136.831 230.999 127.895 223.773 127.895 214.871 L 127.895 214.871 C 127.895 205.97 136.831 198.744 147.839 198.744 Z" style="stroke:none;fill:#FFFFFF;stroke-miterlimit:10;"/><path d="M 147.839 198.744 L 147.839 198.744 C 158.846 198.744 167.782 205.97 167.782 214.871 L 167.782 214.871 C 167.782 223.773 158.846 230.999 147.839 230.999 L 147.839 230.999 C 136.831 230.999 127.895 223.773 127.895 214.871 L 127.895 214.871 C 127.895 205.97 136.831 198.744 147.839 198.744 Z" style="fill:none;stroke:#000000;stroke-width:10;stroke-linecap:square;stroke-miterlimit:2;"/></g><g><path d=" M 0 214.496 L 0 36 L 143.77 36" fill="none" vector-effect="non-scaling-stroke" stroke-width="1" stroke="rgb(0,0,0)" stroke-linejoin="miter" stroke-linecap="square" stroke-miterlimit="3"/><path d=" M 468 407.858 L 468 612 L 365.818 612" fill="none" vector-effect="non-scaling-stroke" stroke-width="1" stroke="rgb(0,0,0)" stroke-linejoin="miter" stroke-linecap="butt" stroke-miterlimit="3"/><g clip-path="url(#_clipPath_sP2PRylli2W02jzjEN2T2zZcrmw00qrI)"><text transform="matrix(0,-0.576,0.576,0,459.668,605.913)" style="font-family:'Libre Caslon Text';font-weight:400;font-size:20px;font-style:normal;fill:#000000;stroke:none;">©MCMLXXXVIII</text><text transform="matrix(0,-0.576,0.576,0,459.668,507.416)" style="font-family:'Libre Caslon Text';font-weight:400;font-size:16px;font-style:normal;fill:#000000;stroke:none;">•</text><text transform="matrix(0,-0.576,0.576,0,459.668,503.637)" style="font-family:'Libre Caslon Text';font-weight:400;font-size:20px;font-style:normal;fill:#000000;stroke:none;">Trilobyte</text></g><defs><clipPath id="_clipPath_sP2PRylli2W02jzjEN2T2zZcrmw00qrI"><rect x="0" y="0" width="267" height="24.6" transform="matrix(0,-0.576,0.576,0,448.494,605.913)"/></clipPath></defs><line x1="0" y1="0" x2="468" y2="0" vector-effect="non-scaling-stroke" stroke-width="1" stroke="rgb(0,0,0)" stroke-linejoin="miter" stroke-linecap="square" stroke-miterlimit="3"/><path d=" M 132.568 17.272 L 131.961 12.194 L 125.954 12.378 L 125.954 12.378 L 126.433 14.489 L 129.098 13.7 L 128.97 15.456 L 128.97 15.456 L 128.97 15.456 L 128.97 15.456 L 128.97 15.456 L 128.97 15.456 L 128.97 15.456 C 127.228 16.609 124.622 15.961 124.622 12.369 C 124.622 10.808 126.982 9.707 128.231 11.125 L 130.921 5.956 C 126.266 4.245 121.065 6.679 119.723 10.9 L 119.723 5.551 L 115.96 5.545 L 116.293 11.082 L 113.638 5.421 L 108.326 6.538 L 108.326 6.538 L 108.326 6.538 L 108.326 6.538 L 108.956 19.527 L 111.895 19.288 L 111.771 13.245 L 111.771 13.245 L 115.076 19.68 L 119.723 18.395 L 119.723 18.395 L 119.723 18.395 L 119.723 18.395 L 119.723 18.395 L 119.723 18.395 L 119.723 18.395 L 119.723 18.395 L 119.723 18.395 L 119.723 18.395 L 119.723 18.395 L 119.723 18.395 L 119.723 18.395 L 119.723 15.282 C 119.75 15.374 119.779 15.467 119.809 15.56 C 121.333 20.238 126.067 20.792 128.72 18.877 L 128.629 20.12 L 132.837 19.527 L 132.74 18.715 C 137.73 21.82 145.291 19.2 143.45 14.166 C 142.666 12.022 138.548 12.168 137.365 11.151 C 135.739 9.752 138.542 9.087 140.962 11.43 L 143.77 8.174 C 138.055 1.905 129.003 7.052 132.932 11.43 C 134.656 13.352 137.614 12.589 138.415 14.103 C 139.154 15.5 136.178 15.583 134.929 14.166 L 132.568 17.272 Z  M 97.138 10.399 L 95.121 10.569 L 95.121 5.015 L 90.104 5.84 L 90.104 5.84 L 90.104 5.84 L 90.19 5.294 L 75.3 5.535 L 75.3 8.357 L 79.298 7.902 L 79.384 19.278 L 86.648 18.757 L 85.761 7.355 L 88.956 7.81 L 90.018 19.577 L 95.121 19.251 L 95.121 15.071 L 95.121 15.071 L 95.121 15.071 L 95.121 15.071 L 95.121 15.071 L 97.462 14.636 L 97.815 19.251 L 101.081 19.086 L 101.081 5.015 L 96.726 5.015 L 97.138 10.399 L 97.138 10.399 Z  M 57.487 18.647 L 52.84 19.733 L 49.071 12.805 L 49.071 12.805 L 49.177 19.245 L 46.654 19.27 L 45.658 6.532 L 45.658 6.532 L 45.658 6.532 L 45.658 6.532 L 50.97 5.414 L 53.486 10.524 L 53.096 5.414 L 57.055 5.883 L 57.202 10.222 C 58.763 6.512 63.58 4.427 67.93 6.026 L 65.241 11.195 C 63.991 9.777 61.627 10.878 61.631 12.439 C 61.641 15.858 64.881 16.06 66.041 14.495 L 66.041 14.495 L 66.041 14.495 L 66.041 14.495 L 66.041 14.495 L 66.041 14.495 L 66.09 13.561 L 64.418 14.087 L 63.939 11.976 L 63.939 11.976 L 68.971 11.976 L 69.846 19.901 L 65.777 19.502 L 65.807 18.941 C 63.409 20.798 59.298 20.304 57.398 15.995 L 57.487 18.647 L 57.487 18.647 L 57.487 18.647 L 57.487 18.647 L 57.487 18.647 L 57.487 18.647 L 57.487 18.647 L 57.487 18.647 L 57.487 18.647 L 57.487 18.647 L 57.487 18.647 L 57.487 18.647 L 57.487 18.647 L 57.487 18.647 Z  M 22.897 7.218 C 25.74 4.242 28.755 9.301 22.155 11.219 C 16.69 7.02 21.253 3.665 22.897 7.218 L 22.897 7.218 L 22.897 7.218 L 22.897 7.218 L 22.897 7.218 L 22.897 7.218 L 22.897 7.218 L 22.897 7.218 L 22.897 7.218 L 22.897 7.218 L 22.897 7.218 L 22.897 7.218 L 22.897 7.218 L 22.897 7.218 L 22.897 7.218 L 22.897 7.218 L 22.897 7.218 L 22.897 7.218 L 22.897 7.218 L 22.897 7.218 L 22.897 7.218 L 22.897 7.218 L 22.897 7.218 Z  M 9 5.96 L 16.486 5.414 L 16.572 16.791 L 20.57 16.336 L 20.57 19.157 L 10.027 19.157 L 9 5.96 L 9 5.96 L 9 5.96 L 9 5.96 L 9 5.96 L 9 5.96 L 9 5.96 L 9 5.96 L 9 5.96 L 9 5.96 Z  M 101.846 11.524 L 107.615 11.116 L 106.994 19.68 L 102.344 19.61 L 101.846 11.524 L 101.846 11.524 L 101.846 11.524 L 101.846 11.524 Z  M 103.064 9.224 L 102.852 5.478 L 107.011 5.638 L 106.618 9.224 L 103.064 9.224 L 103.064 9.224 L 103.064 9.224 L 103.064 9.224 Z  M 21.512 12.199 C 14.61 6.829 20.688 1.841 23.124 5.823 L 23.124 5.823 C 24.775 4.393 26.566 5.056 27.189 6.467 L 27.189 6.467 L 33.581 5.414 L 34.169 13.394 L 36.177 4.843 L 39.189 5.883 L 39.066 6.357 L 39.066 6.357 L 39.066 6.357 L 39.066 6.357 L 45.658 5.421 L 44.439 19.527 L 39.779 19.212 L 38.693 7.792 L 35.607 19.651 L 33.549 19.474 L 33.549 19.474 L 33.549 19.474 L 33.549 19.474 L 33.549 19.474 L 33.549 19.474 L 33.549 19.474 L 33.549 19.474 L 33.549 19.474 L 33.549 19.474 L 33.549 19.474 L 33.549 19.474 L 33.549 19.474 L 33.549 19.474 L 30.785 19.651 L 27.331 8.291 C 27.009 9.619 25.769 11.083 23.071 12.128 L 26.971 11.949 L 25.602 19.651 L 21.105 19.42 L 20.679 12.238 L 21.512 12.199 L 21.512 12.199 L 21.512 12.199 L 21.512 12.199 L 21.512 12.199 Z  M 101.977 10.353 L 101.633 4.32 L 108.266 4.573 L 107.634 10.353 L 101.977 10.353 L 101.977 10.353 L 101.977 10.353 L 101.977 10.353 Z " fill-rule="evenodd" fill="rgb(0,0,0)"/></g><g><path d=" M 39.837 588.479 C 39.489 581.278 124.791 571.299 230.208 566.208 C 335.624 561.118 421.491 562.831 421.838 570.032 C 422.186 577.233 336.884 587.212 231.468 592.302 C 126.051 597.393 40.185 595.679 39.837 588.479 Z " fill="rgb(0,0,0)"/><path d=" M 99.768 327.114 C 96.692 354.773 98.918 380.926 106.433 405.561 C 97.501 451.077 97.163 492.783 105.408 530.665 L 97.204 536.305 C 98.903 540.691 101.053 544.69 103.644 548.29 C 94.716 564.149 90.352 575.743 90.539 583.059 C 140.681 588.997 193.621 583.723 243.843 573.734 L 343.919 567.023 C 358.567 570.804 389.157 571.668 401.003 569.51 C 393.587 526.949 365.662 461.782 317.2 373.984 C 318.579 366.314 319.4 358.586 318.701 351.212 C 294.437 343.245 264.703 342.907 229.487 350.186 C 187.762 333.848 144.527 326.161 99.768 327.114 Z " fill="rgb(232,224,212)"/><path d=" M 340.245 576.347 L 329.566 545.183 L 310.112 575.901 L 312.029 576.094 Q 325.34 575.853 340.245 576.347 Z " fill="rgb(255,188,255)"/><path d=" M 312.194 541.79 L 302.444 597.54 C 347.057 533.768 387.278 460.137 411.24 416.042 L 408.402 416.11 C 382.727 423.43 364.376 419.301 353.318 403.695 L 351.808 406.006 C 356.781 429.254 369.265 438.827 389.231 434.696 C 370.858 490.883 345.189 526.591 312.194 541.79 Z " fill="rgb(123,109,123)"/><path d=" M 389.468 434.093 C 387.264 453.8 351.6 527.883 312.53 542.121 C 308.837 555.268 305.462 573.472 302.394 596.721 L 291.384 575.901 L 249.232 583.837 Q 236.404 559.308 230.759 545.183 C 232.422 503.4 228.729 475.404 203.985 435.457 C 203.557 424.853 202.546 414.662 200.94 402.872 C 200.955 387.921 202.279 374.845 204.901 363.629 C 238.207 367.171 268.269 368.618 295.057 367.941 L 295.057 367.941 L 312.45 389.925 C 293.324 416.01 284.873 446.393 287.085 481.059 Q 310.27 490.499 342.498 489.06 C 364.708 475.783 379.615 449.696 384.092 434.71 L 389.468 434.093 Z " fill="rgb(255,188,255)"/><path d=" M 386.04 398.213 L 353.318 403.695 C 364.345 419.736 382.716 423.884 408.402 416.11 L 386.04 398.213 Z " fill="rgb(255,188,255)"/><path d=" M 204.902 362.771 L 228.884 393.317 C 219.335 428.821 223.294 470.669 240.75 518.849 C 247.419 501.992 257.605 486.765 271.296 473.155 C 287.79 535.519 299.191 557.835 312.117 542.327 C 308.056 559.139 305.275 577.656 302.095 597.866 Q 295.039 587.598 280.914 549.045 Q 262.847 555.756 249.789 566.908 L 249.08 583.981 C 242.554 573.369 236.5 559.657 230.904 542.831 C 232.064 503.251 227.061 471.383 204.387 435.571 C 206.421 425.527 204.668 414.255 201.115 401.743 C 200.286 389.34 201.553 376.353 204.902 362.771 Z " fill="rgb(0,0,0)" fill-opacity="0.41"/><path d=" M 203.296 368.379 C 197.552 369.147 189.496 363.963 179.116 352.816 C 194.701 395.12 192.297 415.148 179.116 406.006 C 190.777 415.864 199.583 426.66 205.502 438.365 L 201.958 402.095 L 203.296 368.379 Z " fill="rgb(0,0,0)" fill-opacity="0.1"/><path d=" M 98.552 324.614 C 144.549 320.525 206.535 337.594 238.999 354.243 L 235.664 353.409 C 187.375 334.811 142.739 325.62 100.91 329.157 C 99.155 355.944 101.102 381.436 107.572 402.286 L 105.213 406.331 C 99.087 381.619 93.73 348.685 98.552 324.614 Z " fill="rgb(0,0,0)"/><path d=" M 106.94 528.987 L 104.243 531.009 C 93.535 462.177 99.288 405.85 121.477 362.005 C 99.37 405.142 97.873 493.325 106.94 528.987 Z " fill="rgb(0,0,0)"/><path d=" M 138.403 518.501 C 120.566 521.593 106.345 527.322 95.726 535.676 C 98.431 541.968 100.951 546.569 103.273 549.468 L 104.834 546.865 C 102.083 544.176 100.093 540.798 98.849 536.717 C 107.216 530.724 120.404 524.656 138.403 518.501 Z " fill="rgb(0,0,0)"/><path d=" M 224.525 348.68 L 230.588 351.434 C 266.683 343.014 307.096 346.443 316.788 351.103 C 318.667 352.006 318.28 364.523 316.602 372.538 L 318.112 376.224 C 320.535 360.753 321.817 350.812 318.466 349.425 C 297.161 340.611 264.841 343.38 224.525 348.68 Z " fill="rgb(0,0,0)"/><path d=" M 200.74 404.22 C 199.721 386.27 200.551 371.825 203.217 360.875 C 237.446 366.408 268.4 368.2 296.065 366.236 C 301.215 374.535 307.545 382.393 315.041 389.798 C 296.675 410.712 287.913 441.362 288.741 481.736 L 285.447 479.482 C 286.235 441.49 294.865 411.767 311.324 390.298 C 304.988 383.283 299.249 376.191 294.095 369.01 C 270.679 370.146 241.38 368.936 206.185 365.368 C 203.166 375.625 201.899 390.071 202.371 408.695 L 200.74 404.22 Z " fill="rgb(0,0,0)"/><path d=" M 367.631 466.705 C 366.255 463.606 364.85 460.49 363.418 457.364 L 363.418 457.364 L 361.202 462.888 C 362.35 465.434 363.486 467.977 364.608 470.51 L 367.631 466.705 Z  M 374.497 482.601 C 392.416 525.254 403.661 561.669 402.356 569.961 C 401.63 574.579 360.41 574.2 338.79 569.347 L 337.203 564.519 C 365.042 570.67 396.543 569.996 397.254 567.537 C 399.666 559.188 388.162 525.719 371.866 487.256 L 374.497 482.601 Z  M 343.89 417.702 C 334.883 400.718 325.299 384.425 315.487 370.127 L 312.772 368.893 C 320.79 381.615 330.161 398.763 339.692 417.702 L 343.89 417.702 L 343.89 417.702 Z  M 381.955 527.361" fill-rule="evenodd" fill="rgb(0,0,0)"/><path d=" M 209.328 367.644 L 228.792 392.375 C 253.458 395.637 277.65 395.685 301.356 392.504 L 294.593 394.065 C 274.334 397.065 252.415 396.943 228.826 393.686 C 220.488 420.748 223.245 459.672 237.071 510.432 L 236.551 511.472 C 221.438 460.314 218.502 420.847 227.716 393.047 L 209.805 369.963 L 209.328 367.644 Z " fill="rgb(0,0,0)"/><path d=" M 355.775 406.653 Q 370.446 426.364 403.352 417.702 Q 373.641 424.995 355.775 406.653 Z " fill="rgb(0,0,0)"/><path d=" M 412.764 415.222 C 400.976 406.819 391.585 401.796 386.56 396.124 C 378.089 398.534 366.316 400.136 349.212 400.899 Q 359.47 448.738 398.147 431.457 Q 359.892 443.834 353.318 403.695 C 365.433 403.461 376.875 401.426 385.612 399.561 L 408.402 416.11 C 385.884 459.163 335.569 551.822 302.465 595.029 C 286.95 566.419 276.024 533.072 269.657 494.96 L 269.321 499.106 C 275.55 542.078 286.477 575.915 302.072 600.588 C 346.839 537.398 387.127 461.922 412.764 415.222 Z " fill="rgb(0,0,0)"/><g style="opacity:0.52;"><linearGradient id="_lgradient_12" x1="0.4737331482012497" y1="0.29487190207060965" x2="1.0453856795416048" y2="1.2048451584615814" gradientTransform="matrix(29.877,0,0,47.36,369.531,368.147)" gradientUnits="userSpaceOnUse"><stop offset="1.25%" stop-opacity="0.79" style="stop-color:rgb(255,188,255)"/><stop offset="61.66666666666667%" stop-opacity="0" style="stop-color:rgb(255,188,255)"/></linearGradient><path d=" M 370.022 368.147 C 374.937 375.16 383.57 380.806 395.91 385.075 L 398.337 401.911 C 401.574 414.808 397.473 418.533 386.022 413.074 C 373.13 399.94 367.8 384.968 370.022 368.147 Z " fill="url(#_lgradient_12)"/><linearGradient id="_lgradient_13" x1="0.4737331482012497" y1="0.29487190207060965" x2="1.0453856795416048" y2="1.2048451584615814" gradientTransform="matrix(20.046,0,0,38.261,385.338,348.382)" gradientUnits="userSpaceOnUse"><stop offset="1.25%" stop-opacity="0.79" style="stop-color:rgb(255,188,255)"/><stop offset="61.66666666666667%" stop-opacity="0" style="stop-color:rgb(255,188,255)"/></linearGradient><path d=" M 385.8 348.382 C 391.302 354.698 397.357 358.848 403.955 360.823 L 405.385 386.643 C 389.989 378.225 383.464 365.474 385.8 348.382 Z " fill="url(#_lgradient_13)"/><linearGradient id="_lgradient_14" x1="0.18090930742026423" y1="0.3578059610763701" x2="0.23037710312080623" y2="0.9177237555981036" gradientTransform="matrix(15.909,0,0,41.777,382.252,348.574)" gradientUnits="userSpaceOnUse"><stop offset="1.25%" stop-opacity="0.53" style="stop-color:rgb(0,0,0)"/><stop offset="62.083333333333336%" stop-opacity="0" style="stop-color:rgb(0,0,0)"/></linearGradient><path d=" M 383.298 386.352 C 392.273 392.901 397.231 391.407 398.162 381.859 C 388.682 373.279 385.012 362.975 385.987 350.376 C 386.026 349.872 385.494 349.084 385.55 348.574 C 382.112 362.629 381.364 375.226 383.298 386.352 Z " fill="url(#_lgradient_14)"/><linearGradient id="_lgradient_15" x1="0.3130239680236586" y1="0.28414146898201115" x2="0.22085459645189945" y2="0.9752130183105463" gradientTransform="matrix(11.112,0,0,32.64,364.72,368.022)" gradientUnits="userSpaceOnUse"><stop offset="1.25%" stop-opacity="0.53" style="stop-color:rgb(0,0,0)"/><stop offset="62.083333333333336%" stop-opacity="0" style="stop-color:rgb(0,0,0)"/></linearGradient><path d=" M 369.544 368.022 L 369.941 369.406 C 368.536 379.915 370.503 390.337 375.832 400.663 L 365.126 398.818 C 363.92 389.264 365.396 379.002 369.544 368.022 Z " fill="url(#_lgradient_15)"/><path d=" M 399.319 406.187 C 397.824 398.683 396.829 391.772 396.325 385.443 L 395.282 384.768 C 395.725 391.587 396.802 398.153 398.506 404.455 L 399.319 406.187 Z " fill="rgb(0,0,0)"/><path d=" M 405.235 382.245 Q 404.332 369.173 404.486 360.763 L 403.443 360.087 Q 402.626 372.747 405.235 382.245 Z " fill="rgb(0,0,0)"/><path d=" M 371.201 411.404 C 363.477 402.778 363.038 388.583 369.873 368.808 C 375.472 377.217 385.936 383.236 401.255 386.855 L 402.108 385.986 C 386.738 382.846 375.965 375.441 369.779 366.482 C 361.745 386.585 362.222 402.47 371.201 411.404 Z " fill="rgb(0,0,0)"/><path d=" M 393.67 419.317 C 375.665 406.225 367.957 389.247 370.537 368.373 L 369.684 368.47 C 366.846 389.58 374.845 406.532 393.67 419.317 Z " fill="rgb(0,0,0)"/><path d=" M 419.217 347.307 C 395.248 357.067 378.198 375.307 368.058 402.016 L 368.528 403.094 C 376.403 378.57 393.302 359.978 419.217 347.307 Z " fill="rgb(0,0,0)"/><path d=" M 410.223 353.901 C 393.251 364.01 377.053 385.411 369.873 413.074 L 370.206 414.19 C 375.782 388.79 391.873 367.025 410.223 353.901 Z " fill="rgb(0,0,0)"/><path d=" M 375.232 363.259 C 380.033 374.792 391.17 381.38 408.632 383.012 L 407.927 383.73 C 389.972 381.775 379.077 374.954 375.232 363.259 Z " fill="rgb(0,0,0)"/><path d=" M 385.393 394.308 Q 380.275 375.611 385.882 349.08 C 389.934 355.191 397.509 359.564 408.598 362.194 L 409.215 361.562 C 398.09 359.281 389.957 353.56 385.479 347.05 Q 378.095 374.223 385.393 394.308 Z " fill="rgb(0,0,0)"/><path d=" M 403.107 385.782 C 390.074 376.268 384.495 363.932 386.363 348.765 L 385.745 348.835 C 383.691 364.174 389.481 376.492 403.107 385.782 Z " fill="rgb(0,0,0)"/><path d=" M 389.761 345.048 C 393.236 353.429 401.297 358.215 413.938 359.401 L 413.427 359.923 C 400.43 358.502 392.544 353.546 389.761 345.048 Z " fill="rgb(0,0,0)"/></g><path d=" M 275.014 526.678 L 276.61 534.583 C 267.64 523.674 262.786 511.032 262.035 496.644 C 264.505 508.883 268.835 518.898 275.014 526.678 Z " fill="rgb(0,0,0)"/><path d=" M 291.387 578.215 C 275.822 579.609 261.648 582.295 248.869 586.275 C 241.141 572.185 234.765 557.607 230.381 544.649 L 230.381 544.649 L 230.959 539.104 C 235.552 554.518 241.891 569.06 249.359 582.007 C 261.101 579.006 275.121 576.566 290.362 575.161 L 291.387 578.215 Z  M 317.029 577.086 C 325.215 577.066 333.723 577.345 342.551 577.921 L 333.32 552.347 L 330.556 555.575 L 338.886 574.532 C 332.256 574.074 325.652 573.857 319.14 573.849 L 317.029 577.086 Z " fill-rule="evenodd" fill="rgb(0,0,0)"/><path d=" M 265.612 512.045 L 266.757 515.152 C 254.644 540.202 249.197 563.321 250.402 584.497 L 248.276 582.207 C 247.077 561.989 252.859 538.606 265.612 512.045 Z " fill="rgb(0,0,0)"/><path d=" M 390.624 433.882 C 386.389 455.243 351.853 530.356 313.975 543.121 C 309.44 559.982 306.08 577.344 303.908 595.219 L 300.895 595.029 C 303.033 577.674 306.245 560.675 310.544 544.046 C 300.31 557.977 286.81 534.187 270.055 472.69 L 272.731 472.901 C 288.787 533.583 298.588 551.566 311.697 540.225 C 344.854 525.994 373.93 483.451 388.53 434.249 L 390.624 433.882 L 390.624 433.882 Z " fill="rgb(0,0,0)"/><path d=" M 226.752 562.579 C 243.144 501.831 222.737 437.705 167.843 396.124 C 215.285 434.964 238.93 495.591 226.752 562.579 Z " fill="rgb(0,0,0)"/><path d=" M 205.702 437.894 C 206.658 410.577 199.528 386.37 184.299 365.261 C 197.225 391.099 204.344 415.065 202.032 432.401 L 205.702 437.894 L 205.702 437.894 Z " fill="rgb(0,0,0)"/><path d=" M 112.112 539.044 C 100.363 554.421 91.917 570.258 92.918 581.32 C 93.465 587.37 186.789 583.328 242.378 571.905 L 243.798 575.062 L 243.798 575.062 C 183.892 587.049 129.218 589.567 90.057 584.279 C 84.601 583.543 94.621 558.381 107.284 540.886 L 112.112 539.044 Z " fill="rgb(0,0,0)"/><path d=" M 104.024 540.886 L 106.501 542.327 C 112.939 539.057 118.22 537.337 125.669 535.602 L 125.756 533.648 C 118.489 534.968 110.593 537.642 104.024 540.886 Z " fill="rgb(0,0,0)"/><g><path d=" M 343.396 488.954 L 353.932 481.279 L 375.266 425.024 L 363.889 418.369 C 342.36 416.957 323.96 417.788 308.676 420.851 L 294.58 483.747 C 309.229 487.363 320.24 488.73 343.396 488.954 Z " fill="rgb(167,217,212)"/><path d=" M 349.667 484.128 Q 373.243 429.36 372.475 425.768 C 372.111 424.067 365.15 420.208 363.307 419.73 C 361.654 419.302 313.432 416.372 309.827 422.996 C 307.174 427.869 302.324 446.706 296.144 483.747 L 296.144 483.747 L 293.181 482.995 C 299.973 445.668 304.841 424.748 307.778 420.168 C 311.587 414.229 364.183 417.032 365.626 417.65 C 366.312 417.944 376.581 422.521 376.151 425.988 C 375.991 427.28 369.089 445.041 355.163 479.962 L 351.759 482.369 L 349.667 484.128 Z " fill="rgb(0,0,0)"/><path d=" M 301.755 445.028 L 313.94 460.767 L 313.854 462.331 L 301.498 446.978 L 301.755 445.028 Z " fill="rgb(0,0,0)"/><path d=" M 300.187 453.571 L 311.716 468.348 L 311.659 470.329 L 299.989 456.352 L 300.187 453.571 Z " fill="rgb(0,0,0)"/><path d=" M 298.989 460.007 L 310.727 475.017 L 309.944 478.772 L 298.489 464.851 L 298.989 460.007 Z " fill="rgb(0,0,0)"/><path d=" M 307.926 486.737 L 309.314 481.762 L 297.442 466.634 L 294.58 483.35 L 307.926 486.737 L 307.926 486.737 Z " fill="rgb(0,0,0)"/><path d=" M 341.686 428.086 C 333.163 428.848 324.897 430.058 323.857 431.34 C 320.832 435.069 315.785 452.719 308.953 483.526 C 315.178 449.982 321.057 434.336 323.333 430.727 C 323.964 429.728 329.727 428.751 341.061 427.8 L 341.686 428.086 L 341.686 428.086 Z " fill="rgb(0,0,0)"/><path d=" M 324.661 436.316 C 325.609 434.029 327.387 432.589 328.629 433.104 C 329.87 433.619 330.109 435.893 329.161 438.181 C 328.213 440.468 326.436 441.908 325.194 441.393 C 323.952 440.879 323.713 438.604 324.661 436.316 Z " fill="rgb(0,0,0)"/><path d=" M 332.99 435.982 C 333.938 433.695 335.716 432.256 336.957 432.77 C 338.199 433.285 338.438 435.559 337.49 437.847 C 336.542 440.134 334.764 441.574 333.523 441.059 C 332.281 440.545 332.042 438.27 332.99 435.982 Z " fill="rgb(0,0,0)"/><path d=" M 326.602 445.559 C 327.55 443.272 329.328 441.832 330.569 442.347 C 331.811 442.861 332.05 445.136 331.102 447.424 C 330.154 449.711 328.376 451.15 327.135 450.636 C 325.893 450.121 325.654 447.847 326.602 445.559 Z " fill="rgb(0,0,0)"/></g><path d=" M 384.838 434.696 L 382.734 435.281 C 371.786 465.513 349.404 489.28 324.51 497.136 L 327.476 497.124 C 352.984 487.652 374.652 467.306 384.838 434.696 Z " fill="rgb(0,0,0)"/><path d=" M 343.823 488.056 Q 298.77 489.393 270.572 470.138 C 253.571 489.008 242.554 508.136 237.533 527.535 L 238.824 526.956 C 246.541 503.789 257.599 486.402 272.012 474.806 C 286.367 484.836 308.693 490.206 340.228 490.962 L 343.823 488.056 L 343.823 488.056 Z " fill="rgb(0,0,0)"/><path d=" M 100.829 328.862 Q 103.642 346.928 126.416 350.827 C 118.915 408.894 124.095 472.244 144.823 525.186 L 151.85 523.787 L 139.426 529.135 L 147.58 528.027 Q 227.035 556.743 224.144 481.859 C 230.375 497.66 231.78 522.766 230.675 541.036 L 244.805 576.575 L 106.501 589.207 L 88.946 582.784 C 92.631 567.988 96.797 557.122 103.098 548.507 L 97.104 536.1 L 106.501 530.117 C 96.753 496.087 96.757 454.236 106.501 404.552 C 98.898 385.783 97.011 360.557 100.829 328.862 Z " fill-rule="evenodd" fill="rgb(0,0,0)" fill-opacity="0.1"/></g></g></g></svg>