<svg xmlns="http://www.w3.org/2000/svg" xmlns:xlink="http://www.w3.org/1999/xlink" style="isolation:isolate" viewBox="0 0 600 800" width="600pt" height="800pt">
    
<style type="text/css">
    
  @font-face {
    font-family: 'Comic Neue';
    src: url('neue.ttf') format('truetype');
  }

  text {
    font-family: 'Comic Neue', sans-serif;
    font-weight: bold;
    font-style: italic;
    font-size: 20px;
    fill: #909;
  }
</style>

<defs>
    <pattern id="dotz" x="0" y="0" width="4" height="4" patternUnits="userSpaceOnUse" patternTransform="rotate(45)">
      <circle cx="2" cy="2" r="1" fill="#000" transform="scale(1)" transform-origin="2 2" />
    </pattern>
    <filter id="blur">
      <feGaussianBlur in="SourceGraphic" stdDeviation="0.9" />
    </filter>
</defs>

<defs>
<g id="ikon" opacity="1.0">
    <path id="pillowFill" d=" M 137.119 430.387 C 133.398 463.855 136.091 495.501 145.184 525.309 C 134.377 580.385 133.968 630.849 143.944 676.688 L 134.017 683.513 C 136.072 688.819 138.675 693.658 141.81 698.014 C 131.007 717.203 125.726 731.232 125.952 740.086 C 186.626 747.27 250.684 740.889 311.454 728.802 C 304.472 714.376 299.058 701.309 295.177 689.565 C 298.428 637.893 287.739 594.985 263.074 560.803 C 263.325 548.425 262.317 534.827 260.015 519.974 C 259.108 502.841 260.759 487.824 264.934 474.886 C 304.754 479.57 340.836 481.222 373.145 479.805 L 395.24 506.858 C 373.91 532.157 363.131 570.733 363.698 615.069 L 372.325 618.348 C 378.239 590.858 383.594 564.941 390.36 544.177 C 395.232 540.277 408.692 539.716 430.705 540.036 L 400.217 487.101 Q 402.879 468.469 402.033 459.546 C 372.673 449.905 336.695 449.497 294.082 458.305 C 243.594 438.535 191.278 429.234 137.119 430.387 L 137.119 430.387 Z  M 466.907 620.09 C 481.019 648.362 492.83 682.448 500.948 723.382 C 473.956 726.892 450.038 726.357 426.738 721.742 L 418.54 705.347 L 466.907 620.09 L 466.907 620.09 Z  M 454.869 590.416 L 459.322 601.195 C 455.71 605.862 450.801 611.029 444.559 616.661 L 454.869 590.416 Z " fill-rule="evenodd" fill="url(#dotz)"/>
    <path id ="shadow" d=" M 375.684 746.455 C 351.148 748.29 324.396 749.922 296.479 751.27 C 168.923 757.429 65.023 755.356 64.602 746.643 C 64.4 742.466 88.023 737.515 126.774 732.815 C 126.158 735.56 125.898 737.97 125.952 740.086 C 186.626 747.27 250.684 740.889 311.454 728.802 L 318.76 740.712 L 368.825 731.899 L 375.684 746.455 L 375.684 746.455 Z  M 388.637 745.478 C 470.322 739.114 527.143 730.792 526.831 724.322 C 526.705 721.712 517.292 719.698 500.625 718.333 C 500.978 720.142 501.313 721.933 501.619 723.691 C 487.286 726.302 442.587 725.023 424.864 720.447 L 428.661 731.839 L 396.823 730.963 Q 390.981 740.894 388.637 745.478 Z " fill-rule="evenodd" fill="rgb(0,0,0)"/>
    <path id="shade" d="M 262.39 480.319 C 255.44 481.247 245.692 474.975 233.132 461.486 C 251.99 512.675 249.081 536.91 233.132 525.848 C 247.243 537.776 257.897 550.84 265.059 565.002 L 260.771 521.116 L 262.39 480.319 Z  M 138.403 432.502 Q 141.807 454.362 169.365 459.08 C 160.288 529.342 166.556 605.997 191.637 670.058 L 200.14 668.366 L 185.106 674.836 L 194.973 673.495 Q 291.499 709.781 288.001 619.17 C 295.541 638.289 296.857 667.13 295.52 689.237 C 299.336 701.331 304.454 714.229 310.837 727.896 C 243.095 742.685 180.837 746.649 124.024 739.753 C 128.484 721.849 133.525 708.702 141.149 698.276 L 133.896 683.265 L 145.267 676.025 C 133.471 634.847 133.476 584.207 145.267 524.088 C 136.067 501.377 133.784 470.854 138.403 432.502 Z M 418 705 L 426 721 Q 460 730 500 724 Q 500 700 492 684 Q 472 712 438 670 Z " fill-rule="evenodd" fill="rgb(0,0,0)" fill-opacity="0.1"/>
    <g id="motionLines">
        <path d=" M 499.582 526.066 C 497.773 516.987 496.569 508.624 495.959 500.966 L 494.697 500.149 C 495.233 508.401 496.537 516.346 498.598 523.971 L 499.582 526.066 Z " fill="rgb(0,0,0)"/>
        <path d=" M 506.74 497.096 Q 505.647 481.279 505.835 471.103 L 504.573 470.285 Q 503.584 485.604 506.74 497.096 Z " fill="rgb(0,0,0)"/>
        <path d=" M 496.331 501.183 C 498.106 501.725 499.983 502.216 501.925 502.674 L 502.957 501.623 C 500.897 501.202 498.904 500.718 497.02 500.14 L 496.331 501.183 L 496.331 501.183 Z " fill="rgb(0,0,0)"/>
        <path d=" M 465.558 532.379 C 456.213 521.942 455.681 504.766 463.952 480.837 C 470.726 491.013 483.388 498.296 501.925 502.674 L 502.957 501.623 C 484.359 497.824 471.323 488.864 463.838 478.023 C 454.116 502.348 454.694 521.569 465.558 532.379 Z " fill="rgb(0,0,0)"/>
        <path d=" M 465.558 532.379 C 456.213 521.942 455.681 504.766 463.952 480.837 C 470.726 491.013 483.388 498.296 501.925 502.674 L 502.957 501.623 C 484.359 497.824 471.323 488.864 463.838 478.023 C 454.116 502.348 454.694 521.569 465.558 532.379 Z " fill="rgb(0,0,0)"/>
        <path d=" M 492.747 541.955 C 470.96 526.112 461.634 505.569 464.755 480.312 L 463.723 480.428 C 460.289 505.971 469.968 526.484 492.747 541.955 Z " fill="rgb(0,0,0)"/>
        <path d=" M 523.659 454.82 C 494.656 466.631 474.026 488.702 461.756 521.02 L 462.325 522.324 C 471.853 492.649 492.302 470.153 523.659 454.82 Z " fill="rgb(0,0,0)"/>
        <path d=" M 512.776 462.8 C 492.239 475.032 472.64 500.927 463.952 534.4 L 464.355 535.751 C 471.102 505.016 490.572 478.68 512.776 462.8 Z " fill="rgb(0,0,0)"/>
        <path d=" M 470.436 474.123 C 476.246 488.078 489.721 496.049 510.852 498.024 L 509.998 498.893 C 488.272 496.527 475.089 488.274 470.436 474.123 Z " fill="rgb(0,0,0)"/>
        <path d=" M 482.732 511.693 Q 476.538 489.069 483.323 456.966 C 488.227 464.36 497.392 469.652 510.809 472.834 L 511.557 472.07 C 498.095 469.31 488.254 462.387 482.836 454.51 Q 473.9 487.39 482.732 511.693 Z " fill="rgb(0,0,0)"/>
        <path d=" M 504.166 501.376 C 488.396 489.865 481.645 474.937 483.905 456.585 L 483.157 456.669 C 480.672 475.23 487.678 490.135 504.166 501.376 Z " fill="rgb(0,0,0)"/>
        <path d=" M 488.017 452.088 C 492.222 462.228 501.976 468.02 517.271 469.455 L 516.653 470.087 C 500.927 468.367 491.385 462.371 488.017 452.088 Z " fill="rgb(0,0,0)"/>
    </g>
    <path id="pillowOutLine" d=" M 265.371 561.862 C 296.248 607.313 305.056 662.369 290.772 715.304 C 305.508 634.247 276.898 560.888 219.492 513.891 C 235.939 526.349 249.829 540.481 261.096 555.818 C 263.117 535.01 254.56 506.841 239.404 476.545 C 257.351 501.423 266.003 529.858 265.371 561.862 Z  M 145.059 690.677 C 144.054 692.11 143.065 693.579 142.094 695.072 C 139.354 692.04 137.331 688.354 136.008 684.01 C 146.131 676.759 162.09 669.417 183.868 661.969 C 169.082 664.532 156.349 668.592 145.673 674.152 C 134.841 630.687 136.74 524.602 163.388 472.605 C 156.092 487.022 150.264 502.553 145.911 519.204 L 145.911 519.204 C 138.605 494.378 136.438 464.358 138.502 432.859 C 189.116 428.579 243.126 439.701 301.556 462.204 L 305.591 463.213 C 303.069 461.92 300.4 460.624 297.535 459.336 C 340.659 449.76 388.18 453.866 399.719 459.414 C 401.936 460.48 401.544 474.921 399.637 484.624 C 399.14 483.889 398.642 483.159 398.144 482.433 L 394.859 480.94 C 404.56 496.335 415.899 517.083 427.432 540 L 432.512 540 L 432.512 540 L 432.512 540 L 432.512 540 L 432.512 540 L 432.512 540 C 422.691 521.481 412.303 503.642 401.656 487.648 C 404.366 470.152 405.642 458.995 401.748 457.384 C 376.381 446.889 338.111 449.965 290.402 456.18 L 290.402 456.18 C 249.052 438.592 184.805 422.992 135.649 427.361 L 135.649 427.361 C 129.814 456.488 136.296 496.339 143.708 526.241 L 144.477 524.923 C 134.217 568.012 133.508 618.353 142.36 675.959 L 142.36 675.959 C 138.721 678.032 135.347 680.298 132.229 682.751 C 135.085 689.393 137.77 694.478 140.272 697.981 L 140.272 697.981 C 127.978 717.854 119.652 740.79 125.369 741.562 C 172.755 747.96 238.911 744.913 311.399 730.409 L 311.399 730.409 L 309.68 726.589 C 242.417 740.411 129.493 745.302 128.831 737.981 C 127.647 724.895 137.389 706.287 151.115 688.075 C 156.549 685.761 161.786 684.216 168.461 682.661 L 168.565 680.297 C 159.772 681.894 150.218 685.129 142.269 689.056 L 145.059 690.677 L 145.059 690.677 Z  M 461.239 599.294 C 459.574 595.545 457.874 591.775 456.141 587.992 L 456.141 587.992 L 453.46 594.676 C 454.849 597.757 456.224 600.833 457.581 603.899 L 461.239 599.294 L 461.239 599.294 L 461.239 599.294 L 461.239 599.294 L 461.239 599.294 L 461.239 599.294 L 461.239 599.294 L 461.239 599.294 Z  M 469.547 618.529 C 491.23 670.14 504.835 714.203 503.257 724.236 C 502.378 729.824 452.501 729.366 426.341 723.493 L 424.421 717.651 C 458.107 725.095 496.223 724.279 497.083 721.303 C 500.001 711.201 486.082 670.703 466.363 624.162 L 469.547 618.529 L 469.547 618.529 L 469.547 618.529 L 469.547 618.529 L 469.547 618.529 L 469.547 618.529 L 469.547 618.529 L 469.547 618.529 Z " fill-rule="evenodd" fill="rgb(0,0,0)"/>
    <g id="pinkie">
        <path d=" M 263.581 474 L 259.22 523 C 262.533 535.075 264.023 547.802 263.661 561.152 C 290.256 605.488 300.947 648.812 295.705 691.095 C 303.862 713.529 311.446 730.348 318.428 741.524 L 368.823 732.731 L 382.158 757.427 Q 388.435 747.894 401.772 730.07 L 428.821 731.469 L 417.254 705.696 C 459.174 637.266 491.236 581.269 513.381 537.645 L 483.108 516.156 L 441.476 521.69 L 447.01 541.437 L 458.333 542.231 L 468.461 550.022 L 466.221 559.614 L 480.537 561.27 C 471.928 591.504 455.115 613.462 430.069 627.116 C 405.721 626.542 383.623 622.892 363.745 616.134 C 360.476 582.897 370.949 546.397 395.135 506.603 L 373.764 479.691 C 337.775 480.744 301.058 478.857 263.581 474 Z "
        x-fill="var(--pinkie-color, #fff)"
        y-fill="hsl(320,100%,99%)"
        fill="#fff" />
        <path id="footBottom" d=" M 446.601 540.305 C 444.759 536.105 443.257 531.285 442.093 525.848 L 443.92 523.051 C 457.301 541.936 479.506 546.931 510.573 538.074 L 514.006 537.991 C 485.013 591.347 436.344 680.442 382.362 757.608 L 394.16 690.149 C 434.084 671.758 465.144 628.551 487.375 560.563 C 479.515 562.19 472.612 562.061 466.67 560.177 L 470.305 549.402 L 458.646 541.1 L 446.601 540.305 Z " fill-rule="evenodd" fill="rgb(0,0,0)"/>
        <path d=" M 259.298 523.687 C 258.065 501.967 259.069 484.489 262.294 471.238 C 303.713 477.934 341.167 480.101 374.643 477.726 C 380.875 487.767 388.534 497.276 397.604 506.236 C 375.381 531.542 364.779 568.629 365.781 617.482 L 361.795 614.755 C 362.748 568.784 373.191 532.818 393.107 506.841 C 385.439 498.352 378.495 489.771 372.259 481.081 C 343.926 482.456 308.473 480.992 265.887 476.675 C 262.233 489.086 260.7 506.567 261.271 529.101 L 259.298 523.687 Z " fill="rgb(0,0,0)"/>
        <path d=" M 269.689 479.429 L 293.242 509.353 C 323.088 513.301 352.36 513.359 381.045 509.51 L 372.862 511.398 C 348.347 515.029 321.826 514.881 293.282 510.94 C 283.193 543.686 286.529 590.785 303.259 652.205 L 302.629 653.464 C 284.343 591.562 280.79 543.806 291.939 510.167 L 270.266 482.235 L 269.689 479.429 Z " fill="rgb(0,0,0)"/>
        <path d=" M 445.587 540.305 Q 441.529 531.684 438.952 519.668 C 459.648 518.744 473.894 516.807 484.144 513.891 C 490.224 520.754 501.587 526.831 515.85 536.999 C 484.83 593.507 436.08 684.834 381.911 761.296 C 363.041 731.441 349.82 690.497 342.282 638.501 L 342.689 633.484 C 350.392 679.601 363.613 719.95 382.387 754.57 C 422.443 702.288 483.325 590.169 510.573 538.074 L 482.997 518.049 C 472.424 520.306 458.58 522.768 443.92 523.051 Q 445.576 533.162 448.893 540.519 L 445.587 540.305 Z  M 466.405 560.821 Q 479.57 564.952 498.164 556.644 Q 479.609 562.647 467.214 558.441 L 466.405 560.821 Z " fill-rule="evenodd" fill="rgb(0,0,0)"/>
        <path d=" M 349.171 671.863 L 351.102 681.428 C 340.248 668.228 334.374 652.931 333.466 635.521 C 336.454 650.331 341.694 662.45 349.171 671.863 Z " fill="rgb(0,0,0)"/>
        <path d=" M 368.982 734.224 C 350.149 735.911 332.998 739.16 317.535 743.977 C 308.183 726.928 300.41 709.446 295.105 693.766 L 295.105 693.766 L 295.804 687.056 C 301.362 705.708 309.091 723.146 318.128 738.812 C 332.335 735.181 349.3 732.229 367.742 730.528 L 368.982 734.224 Z  M 400.009 732.857 C 409.915 732.834 420.209 733.171 430.892 733.868 L 419.722 702.923 L 416.378 706.83 L 426.457 729.767 C 418.435 729.214 410.443 728.951 402.564 728.941 L 400.009 732.857 Z " fill-rule="evenodd" fill="rgb(0,0,0)"/>
        <path d=" M 337.794 654.157 L 339.179 657.917 C 324.523 688.228 317.932 716.202 319.39 741.825 L 316.817 739.054 C 315.366 714.59 322.363 686.296 337.794 654.157 Z " fill="rgb(0,0,0)"/>
        <path d=" M 489.061 559.578 C 483.936 585.426 442.147 676.314 396.315 691.759 C 390.826 712.162 386.761 733.171 384.133 754.8 L 380.487 754.57 C 383.074 733.569 386.961 713 392.162 692.879 C 379.78 709.735 363.444 680.95 343.17 606.537 L 346.408 606.792 C 365.836 680.219 377.696 701.978 393.558 688.255 C 433.678 671.035 468.861 619.557 486.528 560.022 L 489.061 559.578 L 489.061 559.578 Z " fill="rgb(0,0,0)"/>
        <path d=" M 482.06 560.563 L 479.337 561.622 C 468.09 598.156 439.184 626.611 409.062 636.117 L 412.651 636.102 C 443.516 624.641 469.734 600.022 482.06 560.563 Z " fill="rgb(0,0,0)"/>
        <path d=" M 432.431 625.13 Q 377.915 626.748 343.796 603.449 C 323.225 626.282 309.893 649.427 303.817 672.9 L 305.38 672.199 C 314.718 644.167 328.099 623.129 345.538 609.098 C 362.908 621.234 389.923 627.731 428.081 628.646 L 432.431 625.13 L 432.431 625.13 Z " fill="rgb(0,0,0)"/>
    </g>
    <path id="circles" d=" M 190.506 244.89 C 193.243 242.638 197.294 243.032 199.546 245.769 C 201.798 248.506 201.404 252.557 198.667 254.809 C 195.93 257.061 191.879 256.667 189.627 253.93 C 187.375 251.193 187.768 247.142 190.506 244.89 L 190.506 244.89 L 190.506 244.89 L 190.506 244.89 Z  M 200.01 256.442 C 202.108 254.716 205.212 255.018 206.938 257.115 C 208.664 259.213 208.362 262.317 206.264 264.043 C 204.167 265.769 201.062 265.467 199.336 263.37 C 197.61 261.272 197.912 258.168 200.01 256.442 L 200.01 256.442 L 200.01 256.442 L 200.01 256.442 Z  M 207.413 265.44 C 209.129 264.028 211.668 264.275 213.079 265.991 C 214.491 267.706 214.244 270.245 212.528 271.657 C 210.813 273.068 208.274 272.821 206.862 271.106 C 205.451 269.39 205.697 266.851 207.413 265.44 L 207.413 265.44 L 207.413 265.44 Z  M 213.535 272.88 C 214.868 271.783 216.842 271.975 217.939 273.308 C 219.037 274.642 218.845 276.616 217.511 277.713 C 216.177 278.81 214.204 278.618 213.107 277.285 C 212.009 275.951 212.201 273.977 213.535 272.88 L 213.535 272.88 Z  M 219.011 279.537 C 219.963 278.754 221.371 278.891 222.154 279.842 C 222.937 280.794 222.8 282.202 221.849 282.985 C 220.897 283.768 219.489 283.631 218.706 282.679 C 217.923 281.728 218.06 280.32 219.011 279.537 Z " fill-rule="evenodd" fill="rgb(0,0,0)"/>
    <path d=" M 583.144 523.25 L 583.144 770.266 L 459.502 770.266" fill="none" vector-effect="non-scaling-stroke" stroke-width="1" stroke="rgb(0,0,0)" stroke-linejoin="miter" stroke-linecap="butt" stroke-miterlimit="3"/>
    <path d=" M 16.855 289.279 L 16.855 73.295 L 190.82 73.295" fill="none" vector-effect="non-scaling-stroke" stroke-width="1" stroke="rgb(0,0,0)" stroke-linejoin="miter" stroke-linecap="square" stroke-miterlimit="3"/>
    <line x1="16.855" y1="29.734" x2="583.145" y2="29.734" vector-effect="non-scaling-stroke" stroke-width="1" stroke="rgb(0,0,0)" stroke-linejoin="miter" stroke-linecap="square" stroke-miterlimit="3"/>
    <path id="LivingThingsTitle" d=" M 177.265 50.634 L 176.531 44.489 L 169.262 44.712 L 169.262 44.712 L 169.841 47.266 L 173.066 46.311 L 172.911 48.436 L 172.911 48.436 L 172.911 48.436 L 172.911 48.436 L 172.911 48.436 L 172.911 48.436 L 172.911 48.436 C 170.804 49.832 167.651 49.047 167.651 44.701 C 167.651 42.812 170.506 41.48 172.018 43.195 L 175.273 36.94 C 169.64 34.87 163.346 37.816 161.723 42.923 L 161.723 36.451 L 157.17 36.444 L 157.572 43.144 L 154.359 36.293 L 147.932 37.645 L 147.932 37.645 L 147.932 37.645 L 147.932 37.645 L 148.694 53.363 L 152.25 53.073 L 152.1 45.76 L 152.1 45.76 L 156.1 53.547 L 161.723 51.993 L 161.723 51.993 L 161.723 51.993 L 161.723 51.993 L 161.723 51.993 L 161.723 51.993 L 161.723 51.993 L 161.723 51.993 L 161.723 51.993 L 161.723 51.993 L 161.723 51.993 L 161.723 51.993 L 161.723 51.993 L 161.723 48.225 C 161.756 48.337 161.79 48.45 161.827 48.563 C 163.671 54.222 169.399 54.893 172.609 52.575 L 172.5 54.08 L 177.591 53.363 L 177.474 52.38 C 183.511 56.137 192.66 52.966 190.433 46.875 C 189.484 44.281 184.501 44.458 183.07 43.227 C 181.103 41.534 184.494 40.73 187.422 43.565 L 190.819 39.625 C 183.905 32.039 172.951 38.268 177.705 43.565 C 179.792 45.89 183.371 44.966 184.34 46.799 C 185.234 48.49 181.634 48.59 180.122 46.875 L 177.265 50.634 Z  M 134.395 42.317 L 131.953 42.523 L 131.953 35.802 L 125.883 36.801 L 125.883 36.801 L 125.883 36.801 L 125.987 36.139 L 107.97 36.432 L 107.97 39.846 L 112.807 39.295 L 112.912 53.061 L 121.701 52.43 L 120.628 38.633 L 124.494 39.184 L 125.779 53.423 L 131.953 53.029 L 131.953 47.97 L 131.953 47.97 L 131.953 47.97 L 131.953 47.97 L 131.953 47.97 L 134.787 47.444 L 135.214 53.029 L 139.165 52.829 L 139.165 35.802 L 133.896 35.802 L 134.395 42.317 L 134.395 42.317 Z  M 86.416 52.297 L 80.793 53.612 L 76.232 45.228 L 76.232 45.228 L 76.361 53.021 L 73.308 53.051 L 72.103 37.637 L 72.103 37.637 L 72.103 37.637 L 72.103 37.637 L 78.53 36.286 L 81.575 42.468 L 81.102 36.286 L 85.894 36.853 L 86.071 42.102 C 87.96 37.614 93.789 35.091 99.053 37.025 L 95.798 43.28 C 94.286 41.565 91.426 42.897 91.431 44.786 C 91.442 48.923 95.363 49.167 96.766 47.274 L 96.766 47.274 L 96.766 47.274 L 96.766 47.274 L 96.766 47.274 L 96.766 47.274 L 96.826 46.143 L 94.802 46.78 L 94.223 44.226 L 94.223 44.226 L 100.311 44.226 L 101.371 53.815 L 96.447 53.331 L 96.483 52.653 C 93.581 54.9 88.607 54.303 86.308 49.088 L 86.416 52.297 L 86.416 52.297 L 86.416 52.297 L 86.416 52.297 L 86.416 52.297 L 86.416 52.297 L 86.416 52.297 L 86.416 52.297 L 86.416 52.297 L 86.416 52.297 L 86.416 52.297 L 86.416 52.297 L 86.416 52.297 L 86.416 52.297 Z  M 44.561 38.468 C 48.001 34.867 51.65 40.988 43.664 43.31 C 37.051 38.228 42.572 34.169 44.561 38.468 L 44.561 38.468 L 44.561 38.468 L 44.561 38.468 L 44.561 38.468 L 44.561 38.468 L 44.561 38.468 L 44.561 38.468 L 44.561 38.468 L 44.561 38.468 L 44.561 38.468 L 44.561 38.468 L 44.561 38.468 L 44.561 38.468 L 44.561 38.468 L 44.561 38.468 L 44.561 38.468 L 44.561 38.468 L 44.561 38.468 L 44.561 38.468 L 44.561 38.468 L 44.561 38.468 L 44.561 38.468 Z  M 27.746 36.946 L 36.804 36.286 L 36.908 50.051 L 41.745 49.501 L 41.745 52.915 L 28.988 52.915 L 27.746 36.946 L 27.746 36.946 L 27.746 36.946 L 27.746 36.946 L 27.746 36.946 L 27.746 36.946 L 27.746 36.946 L 27.746 36.946 L 27.746 36.946 L 27.746 36.946 Z  M 140.091 43.678 L 147.071 43.185 L 146.32 53.547 L 140.694 53.462 L 140.091 43.678 L 140.091 43.678 L 140.091 43.678 L 140.091 43.678 Z  M 141.565 40.895 L 141.308 36.363 L 146.341 36.556 L 145.866 40.895 L 141.565 40.895 L 141.565 40.895 L 141.565 40.895 L 141.565 40.895 Z  M 42.886 44.496 C 34.534 37.997 41.888 31.961 44.835 36.78 L 44.835 36.78 C 46.834 35.049 49.001 35.851 49.755 37.559 L 49.755 37.559 L 57.489 36.286 L 58.2 45.941 L 60.63 35.595 L 64.275 36.853 L 64.126 37.426 L 64.126 37.426 L 64.126 37.426 L 64.126 37.426 L 72.103 36.293 L 70.627 53.363 L 64.989 52.981 L 63.674 39.163 L 59.94 53.512 L 57.45 53.297 L 57.45 53.297 L 57.45 53.297 L 57.45 53.297 L 57.45 53.297 L 57.45 53.297 L 57.45 53.297 L 57.45 53.297 L 57.45 53.297 L 57.45 53.297 L 57.45 53.297 L 57.45 53.297 L 57.45 53.297 L 57.45 53.297 L 54.105 53.512 L 49.926 39.767 C 49.537 41.373 48.037 43.145 44.772 44.409 L 49.491 44.192 L 47.834 53.512 L 42.393 53.233 L 41.878 44.542 L 42.886 44.496 L 42.886 44.496 L 42.886 44.496 L 42.886 44.496 L 42.886 44.496 Z  M 140.249 42.261 L 139.833 34.961 L 147.859 35.268 L 147.094 42.261 L 140.249 42.261 L 140.249 42.261 L 140.249 42.261 L 140.249 42.261 Z " fill-rule="evenodd" fill="rgb(0,0,0)"/>
    <path id="cellfone" d=" M 395.688 593.407 L 382.895 577.509 C 382.336 579.98 381.763 582.604 381.177 585.384 L 393.581 601.283 L 393.529 603.089 C 394.26 599.658 394.981 596.434 395.688 593.407 L 395.688 593.407 L 395.688 593.407 L 395.688 593.407 Z  M 393.425 603.576 L 380.59 588.203 C 380.269 589.765 379.944 591.372 379.616 593.026 L 392.261 609.196 C 392.652 607.265 393.04 605.392 393.425 603.576 L 393.425 603.576 L 393.425 603.576 L 393.425 603.576 Z  M 391.351 613.791 L 378.593 598.286 C 378.399 599.3 378.205 600.33 378.009 601.375 L 390.645 617.476 C 390.88 616.226 391.116 614.998 391.351 613.791 L 391.351 613.791 L 391.351 613.791 L 391.351 613.791 Z  M 409.245 562.524 C 410.392 559.756 412.543 558.014 414.045 558.637 C 415.548 559.259 415.837 562.012 414.69 564.78 C 413.543 567.548 411.392 569.289 409.889 568.667 C 408.387 568.044 408.098 565.292 409.245 562.524 L 409.245 562.524 L 409.245 562.524 Z  M 419.323 562.12 C 420.47 559.352 422.621 557.61 424.123 558.233 C 425.626 558.855 425.915 561.608 424.768 564.376 C 423.621 567.144 421.47 568.885 419.967 568.263 C 418.465 567.64 418.176 564.888 419.323 562.12 L 419.323 562.12 Z  M 396.059 591.834 L 383.368 575.442 C 387.081 559.371 390.134 550.188 392.019 546.724 C 396.382 538.709 454.113 542.609 456.113 543.127 C 458.344 543.705 466.426 548.91 466.866 550.968 Q 467.795 555.315 440.417 619.32 L 446.153 615.336 C 463.004 573.081 471.355 551.59 471.548 550.027 C 472.069 545.831 459.643 540.293 458.813 539.937 C 457.066 539.189 393.425 535.798 388.816 542.984 C 385.261 548.526 379.371 573.84 371.153 619.005 L 374.739 619.916 L 374.739 619.916 C 374.739 619.916 374.739 619.915 374.739 619.915 L 388.995 623.533 L 388.995 623.533 L 390.56 617.925 C 390.453 618.495 390.345 619.07 390.238 619.648 C 398.505 582.371 404.611 561.015 408.272 556.502 C 409.529 554.952 419.532 553.488 429.845 552.565 L 429.845 552.565 L 429.089 552.219 C 415.374 553.37 408.401 554.551 407.638 555.761 C 405.612 558.972 401.231 570.056 396.059 591.834 L 396.059 591.834 L 396.059 591.834 L 396.059 591.834 Z  M 411.593 573.708 C 412.74 570.94 414.891 569.198 416.394 569.821 C 417.896 570.443 418.185 573.196 417.038 575.964 C 415.891 578.732 413.74 580.473 412.238 579.851 C 410.735 579.228 410.446 576.476 411.593 573.708 Z " fill-rule="evenodd" fill="rgb(0,0,0)"/>
    
<g id="dialog">
    <text transform="matrix(1.373,0,0,1.373,67.339,167.223)" style="font-family:'Comic Neue';font-weight:400;font-size:33px;font-style:normal;fill:#000000;stroke:none;">If I just keep scrolling,</text>
    <text transform="matrix(1.373,0,0,1.373,67.339,219.315)" style="font-family:'Comic Neue';font-weight:400;font-size:33px;font-style:italic;fill:#000000;stroke:none;">one of these </text>
    <text transform="matrix(1.373,0,0,1.373,324.852,219.315)" style="font-family:'Comic Neue';font-weight:400;font-size:33px;font-style:normal;fill:#000000;stroke:none;">won't suck.</text>
</g>
    
<g id="copyright" transform="translate(578 765) rotate(270)">
    <text style="font-family:'Times New Roman';font-weight:400;font-size:19px;font-style:normal;fill:#000000;stroke:none;">©MCMLXXXVIII</text>
    <text transform="translate(150 0)" style="font-family:'Times New Roman';font-weight:400;font-size:17.4px;font-style:normal;fill:#000000;stroke:none;">•</text>
    <text transform="translate(160 0)" style="font-family:'Times New Roman';font-weight:400;font-size:19px;font-style:normal;fill:#000000;stroke:none;">Trilobyte</text>
</g>
    
</g>
</defs>

<use href="#ikon"/>
</svg>