<?xml version="1.0" encoding="UTF-8" standalone="no"?><!-- Generator: Gravit.io --><svg xmlns="http://www.w3.org/2000/svg" xmlns:xlink="http://www.w3.org/1999/xlink" style="isolation:isolate" viewBox="-36 -72 540 684" width="540pt" height="684pt"><defs><clipPath id="_clipPath_slrHZ8OTIioIS1geKLzj7BQLXzMsvkwy"><rect x="-36" y="-72" width="540" height="684"/></clipPath></defs><g clip-path="url(#_clipPath_slrHZ8OTIioIS1geKLzj7BQLXzMsvkwy)"><rect x="-36" y="-72" width="540" height="684" style="fill:rgb(96,125,139)"/><rect x="0" y="0" width="468" height="576" transform="matrix(1,0,0,1,0,0)" fill="rgb(96,125,139)"/><rect x="-36" y="-72" width="540" height="684" transform="matrix(1,0,0,1,0,0)" fill="rgb(96,125,139)"/><g><ellipse vector-effect="non-scaling-stroke" cx="90.43573007321767" cy="565.3777812700515" rx="67.85858396353326" ry="2.5850341584016405" fill="rgb(0,0,0)"/><path d=" M 104.811 373.22 L 83.545 371.526 L 95.035 378.199 L 98.625 377.353 L 104.729 377.226 C 105.852 388.265 102.937 393.82 95.963 393.871 C 98.103 401.079 100.552 404.424 103.307 403.905 C 111.712 404.159 116.39 395.187 117.318 376.964 L 104.811 373.22 Z  M 117.591 536.226 L 125.383 536.576 C 121.752 504.803 122.827 471.204 128.613 435.783 L 108.484 434.121 C 103.368 475.92 104.889 510.624 113.053 536.022 L 117.591 536.226 L 122.387 562.446 L 105.935 562.446 L 102.634 546.41 L 105.031 546.41 C 102.699 483.866 96.465 452.62 101.968 425.713 L 99.267 412.24 L 100.026 404.139 L 123.726 407.012 L 121.425 415.23 L 133.632 416.877 L 139.613 429.925 L 133.632 430.223 C 126.945 466.35 126.414 505.081 132.031 546.41 L 136.59 547.425 L 139.613 561.526 L 122.387 562.446 L 117.591 536.226 Z " fill-rule="evenodd" fill="rgb(159,172,179)"/><path d=" M 82.149 537.099 L 100.526 535.304 C 97.006 496.064 90.81 470.325 95.963 433.15 L 71.448 434.441 C 70.185 469.248 71.685 503.667 75.952 537.705 L 82.149 537.099 L 80.623 564.91 L 53.813 564.525 L 55.891 549.414 L 61.741 549.115 L 64.746 430.621 L 55.644 429.158 C 56.844 424.784 59.876 420.177 64.746 415.342 L 76.611 416.049 L 74.335 406.551 L 95.371 405.168 C 88.126 402.809 82.519 396.522 82.149 386.884 C 81.12 382.049 81.237 377.733 83.81 371.73 L 95.035 378.199 C 93.625 392.006 96.473 400.791 103.561 404.535 L 100.178 404.275 L 99.365 412.092 C 101.12 418.339 101.889 422.883 101.663 425.713 C 96.519 455.594 105.462 498.458 105.031 546.41 L 102.761 546.529 L 105.935 562.446 L 80.623 564.91 L 82.149 537.099 Z " fill="rgb(93,93,93)"/><path d=" M 116.589 377.085 C 116.918 390.848 110.593 403.496 104.109 403.588 C 98.418 403.669 95.383 395.411 95.801 379.353 C 95.856 377.243 102.588 377.61 117.318 378.199 L 116.589 376.424 C 103.388 376.278 93.955 376.488 93.911 377.746 C 93.462 390.768 95.968 399.892 100.526 404.535 L 107.071 404.535 C 111.916 403.28 118.038 392.369 118.384 375.951 C 113.112 375.129 108.666 373.897 105.031 372.241 C 96.183 372.134 86.797 370.659 84.705 369.975 C 79.399 368.239 77.523 403.893 94.593 404.535 L 101.663 404.698 L 99.658 402.826 L 95.035 403.004 C 80.035 402.497 81.755 369.346 86.072 372.078 C 87.57 373.025 97.565 373.793 104.655 373.84 L 116.589 377.085 Z " fill="rgb(0,0,0)"/><path d=" M 75.449 415.108 Q 74.384 410.627 72.75 405.828 C 92.165 403.387 109.714 403.192 125.383 406.703 Q 122.891 411.439 122.876 416.049 L 119.874 416.049 Q 120.383 411.781 122.181 408.304 C 109.289 404.785 93.883 404.994 75.952 407.441 Q 76.777 410.627 77.352 415.108 L 75.449 415.108 Z " fill="rgb(0,0,0)"/><path d=" M 55.891 427.381 L 55.686 429.927 C 71.499 430.77 88.608 428.679 102.197 426.722 L 139.213 429.286 L 139.613 427.489 L 102.172 424.726 C 86.974 427.519 69.946 429.43 55.891 427.381 Z " fill="rgb(0,0,0)"/><path d=" M 64.544 413.89 Q 76.301 416.292 99.267 411.771 Q 122.493 417.059 133.632 414.875 C 139.155 420.625 141.825 426.097 141.637 431.286 L 133.632 431.873 L 133.925 428.271 Q 138.118 428.723 138.127 428.341 C 138.207 424.628 136.177 420.808 132.031 416.877 Q 120.538 418.511 99.658 413.398 Q 75.792 418.512 65.82 416.292 C 60.676 420.062 57.676 423.559 56.815 428.993 L 64.742 429.362 L 64.742 433.071 L 53.813 431.101 C 54.299 425.619 57.878 419.883 64.544 413.89 Z " fill="rgb(0,0,0)"/><path d=" M 99.793 414.875 C 101.19 416.989 101.917 419.631 101.968 422.795 L 101.524 423.412 C 101.805 420.732 101.005 417.342 99.401 415.423 L 99.793 414.875 Z " fill="rgb(0,0,0)"/><path d=" M 128.613 435.783 C 122.827 471.204 121.752 504.803 125.383 536.576 L 113.053 536.022 C 104.889 510.624 103.368 475.92 108.484 434.121 L 128.613 435.783 Z  M 110.195 437.981 L 122.712 437.235 C 118.823 467.967 117.26 500.641 119.864 534.884 L 114.525 534.715 C 106.452 500.742 105.257 469.115 110.195 437.981 Z " fill-rule="evenodd" fill="rgb(0,0,0)"/><path d=" M 71.448 434.441 L 95.963 433.15 C 90.81 470.325 97.006 496.064 100.526 535.304 L 75.952 537.705 C 71.685 503.667 70.185 469.248 71.448 434.441 Z  M 73.659 436.865 L 89.591 437.789 C 89.105 458.93 89.978 525.948 90.774 534.346 L 78.381 535.269 C 73.968 497.85 71.903 464.681 73.659 436.865 Z " fill-rule="evenodd" fill="rgb(0,0,0)"/><path d=" M 135.651 428.271 C 128.453 461.126 127.74 502.884 133.632 546.41 L 130.161 546.41 C 124.12 506.121 124.908 464.734 133.261 427.605 L 135.651 428.271 Z " fill="rgb(0,0,0)"/><path d=" M 66.662 428.932 C 65.722 467.288 64.592 507.698 63.269 548.306 L 59.831 548.306 C 61.975 505.281 63.12 464.84 63.259 428.829 L 66.662 428.932 L 66.662 428.932 Z " fill="rgb(0,0,0)"/><path d=" M 52.151 562.552 L 55.152 548.354 L 101.968 544.933 L 138.035 545.643 L 142.007 561.817 L 138.173 561.817 L 135.218 548.648 L 101.968 547.383 L 56.815 550.677 L 55.153 562.552 L 52.151 562.552 Z " fill="rgb(0,0,0)"/><path d=" M 47.99 561.817 L 147.58 560.208 L 151.501 565.378 L 46.356 565.378 L 47.99 561.817 Z " fill="rgb(0,0,0)"/><path d=" M 102.652 548.306 L 104.255 557.211 L 105.963 560.208 L 104.106 550.901 L 102.652 548.306 Z " fill="rgb(0,0,0)"/><path d=" M 65.82 486.496 L 83.52 476.011 L 88.991 471.512 L 70.571 482.62 L 65.82 486.496 Z " fill="rgb(0,0,0)"/><path d=" M 106.366 485.109 L 128.734 474.043 L 135.504 469.608 L 112.248 481.283 L 106.366 485.109 Z " fill="rgb(0,0,0)"/><path d=" M 67.83 491.229 L 82.358 482.711 L 86.875 479.098 L 71.751 488.116 L 67.83 491.229 Z " fill="rgb(0,0,0)"/><path d=" M 104.308 493.269 L 126.675 482.203 L 133.446 477.768 L 110.19 489.443 L 104.308 493.269 Z " fill="rgb(0,0,0)"/><path d=" M 103.924 376.716 L 105.385 376.716 C 106.872 388.784 103.154 394.911 95.963 394.456 L 95.371 392.954 C 102.699 393.409 105.77 387.906 103.924 376.716 Z " fill="rgb(0,0,0)"/><path d=" M 86.203 372.843 L 92.983 376.424 L 92.983 377.085 L 86.203 373.512 L 86.203 372.843 Z " fill="rgb(0,0,0)"/><path d=" M 112.274 524.417 C 110.723 516.638 109.539 508.974 108.715 501.404 C 110.823 501.631 112.987 501.949 115.204 502.36 Q 112.145 510.785 112.274 524.417 Z  M 89.857 501.821 C 90.11 517.685 90.449 530.913 90.774 534.346 L 86.13 534.692 Q 85.324 517.774 79.059 504.772 C 82.396 503.472 85.995 502.47 89.857 501.821 Z " fill-rule="evenodd" fill="rgb(0,0,0)"/><path d=" M 117.318 377.085 Q 112.214 384.086 104.255 387.514 C 104.951 384.663 105.217 381.283 105.031 377.353 L 117.318 377.085 Z " fill="rgb(0,0,0)"/><path d=" M 101.524 429.156 C 96.583 457.3 105.462 510.624 105.963 539.103 L 104.811 541.819 C 105.521 508.91 95.27 459.627 100.86 427.694 L 101.524 429.156 Z " fill="rgb(0,0,0)"/></g><g><path d=" M 308.942 559.95 C 276.25 551.395 249.676 533.253 239.618 526.52 L 232.718 542.708 L 269.347 561.589 L 306.164 563.125 L 308.942 559.95 L 308.942 559.95 Z " fill="rgb(232,232,232)"/><path d=" M 249.539 513.503 Q 255.06 528.605 276.346 529.812 C 297.631 531.02 353.647 502.189 368.283 498.006 C 386.542 492.789 403.631 491.167 419.564 493.108 C 414.644 474.184 404.275 457.51 386.704 441.193 C 361.298 436.917 337.607 434.635 312.457 438.28 L 312.457 455.162 C 304.748 470.073 290.01 481.202 272.416 487.533 C 269.675 476.616 269.88 461.28 275.367 445.717 C 254.416 465.404 246.463 490.08 249.539 513.503 Z " fill="rgb(159,172,179)"/><path d=" M 428.619 495.305 L 419.104 516.257 L 404.37 561.589 L 339.881 561.589 C 268.828 562.081 265.726 531.572 226.599 521.866 Q 241.505 511.037 253.155 512.136 C 266.792 567.634 342.742 478.699 428.619 495.305 Z " fill="rgb(150,128,82)"/><ellipse vector-effect="non-scaling-stroke" cx="334.77783046370564" cy="564.5755646415939" rx="113.58029674047924" ry="3.3872507868592265" fill="rgb(0,0,0)"/><path d=" M 280.133 441.623 C 279.31 441.459 278.542 441.208 277.829 440.86 C 274.966 439.461 273.093 437.388 272.85 434.93 C 272.341 429.786 279.165 424.893 288.08 424.011 C 288.511 423.969 288.939 423.936 289.362 423.919 L 280.133 441.623 L 280.133 441.623 Z " fill="rgb(0,0,0)"/><path d=" M 245.66 413.752 C 259.022 400.53 290.693 389.056 291.61 392.256 Q 297.639 394.945 300.25 399.036 C 292.343 418.785 282.964 425.385 277.829 441.92 C 274.494 452.659 270.08 471.06 271.764 486.317 C 283.937 481.936 300.454 471.58 312.061 456.661 C 308.387 423.782 332.133 379.158 295.028 378.06 C 274.819 377.463 249.824 382.746 236.42 392.847 C 237.754 394.869 241.879 396.269 248.772 397.023 C 246.008 405.307 244.967 410.887 245.66 413.752 Z " fill="rgb(232,232,232)"/><path d=" M 303.167 423.046 Q 397.305 424.463 401.659 438.28 C 403.23 443.266 401.191 446.848 395.553 449.015 L 387.571 441.92 C 360.591 437.434 335.197 435.74 308.971 438.28 L 303.167 423.046 Z " fill="rgb(232,232,232)"/><path d=" M 391.89 430.757 C 401.39 423.664 423.805 425.929 424.372 434.853 C 425.083 446.016 423.188 472.304 416.367 484.614 C 411.204 470.489 404.262 458.75 395.553 449.386 C 403.571 444.863 399.511 436.072 391.89 430.757 Z " fill="rgb(232,232,232)"/><path d=" M 327.51 421.664 C 324.854 420.558 323.266 419.179 323.342 417.762 C 323.501 414.795 330.892 412.776 339.838 413.255 C 348.783 413.735 355.917 416.533 355.758 419.5 C 355.678 420.983 353.79 422.23 350.804 423.046 C 347.818 423.861 343.768 423.622 339.295 423.382 C 334.623 423.131 330.413 422.873 327.51 421.664 Z " fill="rgb(0,0,0)"/><path d=" M 404.113 457.522 Q 406.148 446.638 411.77 439.269 Q 406.784 452.457 406.348 465.962 L 404.113 457.522 Z " fill="rgb(0,0,0)"/><path d=" M 415.071 487.375 C 426.458 465.975 430.977 448.177 428.648 433.971 C 424.667 422.755 396.613 421.894 388.975 429.441 L 394.901 432.764 L 394.901 432.764 C 402.923 425.039 421.699 426.954 423.308 440.161 Q 425.352 456.933 412.88 479.308 L 415.071 487.375 L 415.071 487.375 Z " fill="rgb(0,0,0)"/><path d=" M 395.553 450.894 C 401.106 448.195 404.303 445.021 404.37 441.578 C 404.58 430.842 374.288 421.531 336.768 420.799 C 328.799 420.643 321.14 420.887 314.018 421.47 L 313.173 426.478 C 320.321 425.95 328.076 425.735 336.173 425.893 C 371.548 426.583 400.131 434.133 399.963 442.742 C 399.919 445.015 397.875 447.136 394.246 449.015 L 395.553 450.894 L 395.553 450.894 Z " fill="rgb(0,0,0)"/><path d=" M 312.061 435.24 C 339.929 432.483 392.809 438.098 396.142 444.631 C 394.753 444.108 392.265 443.531 388.979 442.952 C 386.96 442.596 396.797 449.733 394.246 449.386 C 377.508 439.85 326.04 436.979 311.78 441.578 L 312.061 435.24 Z " fill="rgb(0,0,0)"/><path d=" M 419.104 501.315 C 418.739 517.804 413.365 542.017 399.24 558.865 L 406.812 564.535 C 417.927 545.249 422.208 519.655 421.758 502.568 Q 420.988 501.918 419.104 501.315 Z " fill="rgb(0,0,0)"/><path d=" M 422.649 503.343 C 419.974 501.617 416.519 500.458 412.79 499.546 C 416.756 500.155 420.195 500.898 422.649 502.051 L 422.649 503.343 Z " fill="rgb(0,0,0)"/><path d=" M 420.927 493.969 C 417.859 473.777 407.145 456.184 388.786 441.193 L 382.513 439.652 C 401.836 456.223 413.119 474.041 416.367 493.108 L 420.927 493.969 L 420.927 493.969 Z " fill="rgb(0,0,0)"/><path d=" M 253.233 504.94 C 254.574 511.549 255.756 515.424 256.755 516.542 C 279.704 555.093 364.427 472.477 433.167 493.665 C 426.974 503.183 422.278 514.014 419.104 527.295 L 419.104 521.686 L 425.299 496.739 C 350.5 478.4 280.52 560.301 255.494 523.645 C 253.196 520.278 252.45 514.05 253.233 504.94 Z " fill="rgb(0,0,0)"/><path d=" M 277.921 534.908 C 304.773 536.19 329.593 540.831 340.082 546.723 C 329.752 537.681 304.971 533.082 277.921 534.908 Z " fill="rgb(0,0,0)"/><path d=" M 318.275 539.383 Q 330.229 539.76 351.882 530.8 Q 338.245 539.527 326.24 541.126 L 318.275 539.383 Z " fill="rgb(0,0,0)"/><path d=" M 315.731 449.246 C 305.388 467.363 287.799 478.56 267.188 487.533 L 266.244 492.543 C 291.895 482.437 310.491 469.284 315.731 449.246 Z " fill="rgb(0,0,0)"/><path d=" M 311.78 443.961 L 319.881 444.729 C 320.278 452.058 319.313 460.798 316.976 470.94 C 318.334 460.923 318.497 452.875 317.455 446.787 L 312.457 446.975 L 311.78 443.961 Z " fill="rgb(0,0,0)"/><path d=" M 360.353 438.28 Q 377.948 466.947 380.654 484.103 L 375.094 485.826 Q 374.096 462.133 352.676 438.28 L 360.353 438.28 Z " fill="rgb(0,0,0)"/><path d=" M 371.198 483.601 C 375.84 483.38 378.888 483.221 382.877 481.945 C 385.984 484.237 385.553 489.442 383.954 490.426 C 381.825 489.794 376.592 489.156 374.413 491.941 C 370.341 492.387 368.52 485.958 371.198 483.601 Z " fill="rgb(0,0,0)"/><path d=" M 383.427 500.624 C 392.572 477.251 364.329 483.289 372.468 504.526 L 362.958 509.18 C 363.401 495.243 369.579 485.084 377.893 483.886 C 383.755 483.042 392.874 487.707 390.679 499.056 L 383.427 500.624 Z " fill="rgb(0,0,0)"/><path d=" M 319.187 452.123 L 318.833 458.079 C 321.428 463.352 323.804 470.862 325.951 480.6 C 325.577 471.109 323.325 461.62 319.187 452.123 Z " fill="rgb(0,0,0)"/><path d=" M 260.314 392.691 C 256.606 396.45 252.927 400.947 249.268 406.171 C 251.812 400.874 254.898 396.406 258.518 392.758 L 260.314 392.691 Z " fill="rgb(0,0,0)"/><path d=" M 259.251 392.781 C 260.896 392.97 262.481 393.26 264.131 393.601 L 263.425 392.574 C 258.968 391.371 250.63 390.88 241.34 392.641 L 253.693 394.487 L 252.323 401.678 L 259.251 392.781 Z " fill="rgb(0,0,0)"/><path d=" M 293.798 392.487 C 299.859 397.19 304.244 401.748 306.944 406.152 C 302.761 400.806 293.214 394.944 286.438 392.618 L 293.798 392.487 Z " fill="rgb(0,0,0)"/><g><path d=" M 264.811 346.987 L 267.855 374.481 L 274.458 378.09 L 286.414 375.927 C 300.043 378.691 310.151 383.777 316.716 391.161 L 316.699 402.844 L 332.963 402.652 L 342.411 377.118 C 336.944 375.915 333.71 373.001 330.523 372.98 C 333.328 361.432 311.413 348.313 302.694 356.984 C 296.324 352.608 287.508 346.81 281.829 343.822 L 280.004 351.846 L 264.811 346.987 Z " fill="rgb(93,93,93)"/><path d=" M 316.422 395.488 L 322.773 394.696 L 315.508 388.272 L 316.422 395.488 Z " fill="rgb(0,0,0)"/><path d=" M 274.659 371.018 L 276.212 373.21 C 302.939 381.13 318.754 389.239 323.613 397.495 L 326.367 397.391 C 321.961 388.588 304.736 379.808 274.659 371.018 Z " fill="rgb(0,0,0)"/><path d=" M 278.083 379.328 L 267.807 373.526 C 267.285 367.789 266.518 359.57 265.497 348.86 C 269.983 349.611 275.4 350.977 280.419 352.987 L 280.313 350.178 C 275.962 348.663 269.786 347.274 263.088 345.95 C 265.18 358.495 265.892 368.222 265.211 375.124 L 274.509 379.462 L 278.083 379.328 Z " fill="rgb(0,0,0)"/><path d=" M 326.001 374.905 C 328.37 374.1 333.799 376.353 340.734 378.555 C 338.791 388.791 334.539 395.919 331.046 401.458 L 316.656 400.013 L 316.202 403.598 L 333.713 404.304 C 334.991 402.07 340.157 393.941 344.521 376.779 C 335.98 374.853 328.459 371.755 325.08 372.145 L 326.001 374.905 L 326.001 374.905 Z " fill="rgb(0,0,0)"/><path d=" M 320.819 368.9 L 321.424 374.156 L 322.595 376.282 L 321.977 369.868 L 320.819 368.9 Z " fill="rgb(0,0,0)"/><path d=" M 318.344 368.234 Q 321.605 365.664 322.127 366.658 C 322.844 368.023 325.74 377.396 326.864 380.048 L 327.629 378.417 C 325.999 375.675 324.417 365.558 322.89 364.665 Q 321.954 364.118 316.618 366.6" fill="rgb(0,0,0)"/><path d=" M 279.054 373.103 C 280.747 375.252 282.556 377.006 284.472 378.356 L 292.348 378.06 L 279.054 373.103 Z " fill="rgb(0,0,0)"/><path d=" M 267.595 351.383 C 270.219 373.624 275.405 370.189 280.5 341.147 Q 300.019 352.117 321.265 369.937 L 321.684 372.332 Q 297.149 354.183 282.165 346.335 C 275.232 374.423 267.522 375.997 267.595 351.383 Z " fill="rgb(0,0,0)"/><path d=" M 328.856 373.043 C 333.8 365.725 311.456 347.888 304.33 358.048 L 304.33 358.048 L 301.419 355.626 C 308.478 347.418 332.452 358.521 332.903 373.572 L 328.856 373.043 Z " fill="rgb(0,0,0)"/></g><path d=" M 295.044 378.541 C 295.039 378.54 295.033 378.54 295.028 378.54 C 274.819 377.942 249.824 382.746 236.42 392.847 Q 241.75 395.469 249.832 396.216 L 249.832 396.216 Q 245.934 407.823 246.73 410.636 C 269.992 393.334 289.171 387.666 304.278 393.643 C 285.999 391.267 266.859 398.733 244.273 415.506 Q 243.424 411.075 246.608 398.659 Q 236.142 395.365 232.718 392.986 C 244.273 382.18 266.701 376.104 287.634 375.868 C 290.241 376.755 292.706 377.646 295.044 378.541 Z  M 312.513 386.701 C 321.383 401.482 307.779 433.42 310.542 458.146 L 314.476 452.429 C 308.177 433.33 321.833 406.401 317.676 390.111 C 316.161 388.969 314.446 387.832 312.513 386.701 Z " fill-rule="evenodd" fill="rgb(0,0,0)"/><path d=" M 231.581 520.309 Q 243.726 511.647 254.474 513.862 L 252.795 508.96 Q 242.886 508.624 231.001 513.824 L 231.581 520.309 L 231.581 520.309 Z " fill="rgb(0,0,0)"/><path d=" M 244.116 512.563 C 242.382 486.624 261.968 451.483 279.713 440.251 L 276.067 449.886 C 263.815 459.544 247.756 488.639 249.539 511.143 L 244.116 512.563 L 244.116 512.563 Z " fill="rgb(0,0,0)"/><path d=" M 226.462 520.627 C 259.262 528.728 276.585 561.589 337.591 561.589 L 337.162 564.419 C 258.745 556.652 268.053 534.675 224.563 522.462 L 226.462 520.627 Z " fill="rgb(0,0,0)"/><g><path d=" M 175.389 486.86 C 178.931 479.162 185.867 473.914 196.188 471.106 C 214.559 475.164 233.842 477.445 254.015 477.928 C 264.031 491.826 261.197 512.488 254.015 539.895 C 231.344 531.31 213.654 528.728 192.4 530.575 L 204.849 489.183 L 175.389 486.86 Z " fill="rgb(232,232,232)"/><path d=" M 228.698 494.772 Q 239.998 476.308 254.015 477.928 C 264.031 491.826 261.197 512.488 254.015 539.895 C 231.344 531.31 213.654 528.728 192.4 530.575 L 204.849 489.183 L 228.698 494.772 Z " fill="rgb(185,185,185)"/><path d=" M 228.698 495.752 Q 249.831 467.741 258.206 485.631 C 261.979 493.693 259.228 517.873 253.111 538.123 C 231.042 533.589 209.835 526.922 194.293 528.721 C 199.609 516.2 205.227 501.102 206.229 489.813 L 202.095 489.78 C 200.124 502.683 194.837 519.77 186.916 534.471 C 205.818 531.415 230.075 535.555 256.931 543.602 C 261.659 516.157 264.857 492.654 260.118 481.809 C 254.663 469.324 240.433 476.367 228.346 492.176 C 216.458 489.481 199.411 486.055 177.429 486.179 C 180.253 479.979 188.474 473.831 198.897 472.005 C 212.132 474.654 228.348 478.203 245.716 477.958 L 251.219 475.411 C 231.145 476.731 214.356 473.482 195.714 469.27 C 182.434 473.469 175.648 480.164 170.086 490.181 C 198.051 487.121 228.062 495.63 228.698 495.752 Z " fill="rgb(0,0,0)"/><path d=" M 222.236 509.259 L 248.25 494.772 L 233.243 505.272 L 252.759 503.125 L 222.236 509.259 Z " fill="rgb(0,0,0)"/></g><path d=" M 208.598 543.898 L 209.699 512.734 C 220.04 489.065 240.618 497.823 214.029 543.898 L 208.598 543.898 Z " fill="rgb(232,232,232)"/><path d=" M 404.371 557.883 L 406.812 564.535 L 257.634 564.535 C 240.516 553.877 216.879 547.439 204.993 546.479 L 206.869 510.106 C 225.06 485.768 242.442 497.356 242.277 541.472 Q 262.533 555.088 284.561 557.883 C 312.915 559.841 352.859 559.848 404.371 557.883 Z  M 211.799 512.734 L 209.696 542.058 C 230.639 519.649 232.617 485.334 211.799 512.734 L 211.799 512.734 Z " fill-rule="evenodd" fill="rgb(0,0,0)"/><g><path d=" M 382.538 503.385 C 383.295 499.973 385.842 497.633 388.222 498.161 C 390.601 498.689 391.919 501.887 391.162 505.298 C 390.405 508.709 387.858 511.05 385.479 510.522 C 383.099 509.994 381.781 506.796 382.538 503.385 Z " fill="rgb(70,70,70)"/><path d=" M 381.212 502.528 C 382.143 498.332 385.325 495.464 388.314 496.127 C 391.303 496.79 392.974 500.735 392.043 504.931 C 391.112 509.127 387.929 511.995 384.94 511.332 C 381.952 510.669 380.281 506.724 381.212 502.528 Z  M 383.414 503.491 C 384.192 500.585 386.464 498.655 388.484 499.184 C 390.504 499.713 391.512 502.501 390.734 505.407 C 389.955 508.314 387.683 510.244 385.663 509.715 C 383.643 509.186 382.635 506.397 383.414 503.491 Z " fill-rule="evenodd" fill="rgb(0,0,0)"/><path d=" M 386.686 506.218 C 386.885 506.144 387.068 506.04 387.238 505.915 C 387.194 506.029 387.157 506.151 387.128 506.28 L 387.128 506.28 L 387.128 506.28 C 386.95 507.085 387.169 507.821 387.618 507.92 C 388.068 508.02 388.577 507.447 388.756 506.641 C 388.915 505.924 388.759 505.264 388.407 505.056 C 388.411 504.906 388.407 504.758 388.395 504.615 C 388.834 504.672 389.318 504.109 389.491 503.328 C 389.67 502.522 389.451 501.787 389.001 501.687 C 388.552 501.588 388.042 502.161 387.863 502.967 L 387.863 502.967 L 387.863 502.967 C 387.862 502.975 387.86 502.983 387.858 502.991 C 387.747 502.817 387.619 502.65 387.474 502.49 C 387.503 501.874 387.29 501.375 386.925 501.294 C 386.476 501.194 385.966 501.768 385.787 502.573 L 385.787 502.573 C 385.609 503.379 385.828 504.114 386.277 504.214 C 386.438 504.25 386.606 504.199 386.765 504.083 L 386.865 504.347 L 386.458 504.765 C 386.382 504.684 386.292 504.629 386.19 504.607 C 385.741 504.507 385.231 505.08 385.052 505.886 C 384.874 506.692 385.093 507.427 385.542 507.527 C 385.992 507.626 386.501 507.053 386.68 506.247 C 386.682 506.237 386.684 506.228 386.686 506.218 Z " fill="rgb(0,0,0)"/></g><g><path d=" M 363.384 508.05 C 364.169 504.513 366.809 502.087 369.276 502.634 C 371.743 503.181 373.109 506.497 372.324 510.034 C 371.539 513.57 368.899 515.997 366.432 515.449 C 363.965 514.902 362.599 511.586 363.384 508.05 Z " fill="rgb(70,70,70)"/><path d=" M 362.009 507.162 C 362.974 502.812 366.273 499.838 369.372 500.526 C 372.47 501.213 374.202 505.303 373.237 509.653 C 372.272 514.003 368.973 516.977 365.874 516.289 C 362.776 515.602 361.044 511.512 362.009 507.162 Z  M 364.292 508.16 C 365.099 505.147 367.454 503.146 369.548 503.695 C 371.642 504.243 372.687 507.134 371.88 510.147 C 371.073 513.16 368.718 515.16 366.624 514.612 C 364.529 514.064 363.485 511.173 364.292 508.16 Z " fill-rule="evenodd" fill="rgb(0,0,0)"/><path d=" M 367.684 510.987 C 367.89 510.91 368.08 510.803 368.256 510.673 C 368.21 510.791 368.172 510.918 368.143 511.051 L 368.143 511.051 L 368.143 511.051 C 367.957 511.886 368.185 512.649 368.65 512.752 C 369.116 512.855 369.645 512.261 369.83 511.425 C 369.995 510.683 369.833 509.998 369.468 509.783 C 369.473 509.627 369.468 509.474 369.456 509.325 C 369.911 509.384 370.412 508.801 370.592 507.991 C 370.777 507.156 370.55 506.394 370.084 506.29 C 369.619 506.187 369.09 506.781 368.905 507.617 L 368.905 507.617 L 368.905 507.617 C 368.903 507.625 368.901 507.634 368.899 507.642 C 368.784 507.461 368.651 507.288 368.501 507.122 C 368.531 506.483 368.31 505.966 367.932 505.882 C 367.466 505.779 366.938 506.373 366.752 507.209 L 366.752 507.209 C 366.567 508.044 366.795 508.806 367.26 508.91 C 367.427 508.947 367.601 508.894 367.765 508.774 L 367.869 509.048 L 367.447 509.481 C 367.369 509.397 367.275 509.34 367.17 509.317 C 366.704 509.213 366.176 509.808 365.99 510.643 C 365.805 511.479 366.033 512.241 366.498 512.344 C 366.964 512.447 367.492 511.853 367.678 511.018 C 367.68 511.007 367.682 510.997 367.684 510.987 Z " fill="rgb(0,0,0)"/></g><g><path d=" M 262.513 448.829 L 274.561 445.803 L 269.853 471.999 L 265.713 470.832 L 262.513 448.829 Z " fill="rgb(159,172,179)"/><path d=" M 277.031 443.403 L 260.097 448.204 C 262.787 454.59 264.666 461.693 265.713 469.488 C 266.178 461.274 265.889 454.516 264.823 449.191 L 274.561 446.39 L 277.031 443.403 Z " fill="rgb(0,0,0)"/></g><path d=" M 298.866 397.72 L 300.431 399.05 C 300.139 415.249 264.751 444.218 274.006 486.233 L 269.191 487.457 C 261.178 446.092 294.999 417.355 298.866 397.72 Z " fill="rgb(0,0,0)"/><path d=" M 367.944 459.408 Q 372.307 465.807 377.252 465.322 C 378.949 464.74 379.989 464.57 381.456 464.695 Q 382.842 462.673 382.668 460.348 Q 380.154 457.364 377.202 460.771 C 377.061 461.59 376.78 462.711 376.389 463.249 Q 374.198 462.947 371.521 458.137 L 367.944 459.408 Z " fill="rgb(0,0,0)"/><path d=" M 363.487 453.931 L 369.679 453.675 L 371.586 456.481 L 365.494 456.892 L 363.487 453.931 Z " fill="rgb(0,0,0)"/></g><path d=" M 0 346.147 L 0 0 L 468 0 L 468 346.147" fill="none" vector-effect="non-scaling-stroke" stroke-width="1.4" stroke="rgb(0,0,0)" stroke-linejoin="miter" stroke-linecap="butt" stroke-miterlimit="3"/><line x1="0" y1="-36" x2="468" y2="-34.398" vector-effect="non-scaling-stroke" stroke-width="1" stroke="rgb(0,0,0)" stroke-linejoin="miter" stroke-linecap="butt" stroke-miterlimit="3"/><g clip-path="url(#_clipPath_DX34yzUIvpnPbdXeGuFiaFLbeNu1oUIQ)"><text transform="matrix(1,0,0,1,60.585,23.193)" style="font-family:'Comic Neue';font-weight:400;font-size:14px;font-style:normal;fill:#000000;stroke:none;">Well, </text><text transform="matrix(1,0,0,1,93.832,23.193)" style="font-family:'Comic Neue';font-weight:400;font-size:14px;font-style:normal;fill:#000000;stroke:none;">it's </text><text transform="matrix(1,0,0,1,116.201,23.193)" style="font-family:'Comic Neue';font-weight:400;font-size:14px;font-style:normal;fill:#000000;stroke:none;">definitely </text><text transform="matrix(1,0,0,1,175.194,23.193)" style="font-family:'Comic Neue';font-weight:400;font-size:14px;font-style:normal;fill:#000000;stroke:none;">an </text><text transform="matrix(1,0,0,1,196.779,23.193)" style="font-family:'Comic Neue';font-weight:400;font-size:14px;font-style:normal;fill:#000000;stroke:none;">impressive </text><text transform="matrix(1,0,0,1,265.025,23.193)" style="font-family:'Comic Neue';font-weight:400;font-size:14px;font-style:normal;fill:#000000;stroke:none;">resume, </text><text transform="matrix(1,0,0,1,317.816,23.193)" style="font-family:'Comic Neue';font-weight:400;font-size:14px;font-style:normal;fill:#000000;stroke:none;">your </text><text transform="matrix(1,0,0,1,350.601,23.193)" style="font-family:'Comic Neue';font-weight:400;font-size:14px;font-style:italic;fill:#000000;stroke:none;">quill-menship </text><text transform="matrix(1,0,0,1,437.356,23.193)" style="font-family:'Comic Neue';font-weight:400;font-size:14px;font-style:normal;fill:#000000;stroke:none;">is </text><text transform="matrix(1,0,0,1,60.585,39.293)" style="font-family:'Comic Neue';font-weight:400;font-size:14px;font-style:normal;fill:#000000;stroke:none;">excellent, </text><text transform="matrix(1,0,0,1,120.811,39.293)" style="font-family:'Comic Neue';font-weight:400;font-size:14px;font-style:normal;fill:#000000;stroke:none;">but </text><text transform="matrix(1,0,0,1,145.392,39.293)" style="font-family:'Comic Neue';font-weight:400;font-size:14px;font-style:normal;fill:#000000;stroke:none;">this </text><text transform="matrix(1,0,0,1,171.836,39.293)" style="font-family:'Comic Neue';font-weight:400;font-size:14px;font-style:normal;fill:#000000;stroke:none;">position </text><text transform="matrix(1,0,0,1,223.843,39.293)" style="font-family:'Comic Neue';font-weight:400;font-size:14px;font-style:normal;fill:#000000;stroke:none;">is </text><text transform="matrix(1,0,0,1,238.779,39.293)" style="font-family:'Comic Neue';font-weight:400;font-size:14px;font-style:normal;fill:#000000;stroke:none;">for </text><text transform="matrix(1,0,0,1,261.33,39.293)" style="font-family:'Comic Neue';font-weight:400;font-size:14px;font-style:normal;fill:#000000;stroke:none;">the </text><text transform="matrix(1,0,0,1,285.786,39.293)" style="font-family:'Comic Neue';font-weight:400;font-size:14px;font-style:normal;fill:#000000;stroke:none;">chief </text><text transform="matrix(1,0,0,1,320.069,39.293)" style="font-family:'Comic Neue';font-weight:400;font-size:14px;font-style:italic;fill:#000000;stroke:none;">LIGHTHOUSE </text><text transform="matrix(1,0,0,1,410.703,39.293)" style="font-family:'Comic Neue';font-weight:400;font-size:14px;font-style:normal;fill:#000000;stroke:none;">of </text><text transform="matrix(1,0,0,1,427.836,39.293)" style="font-family:'Comic Neue';font-weight:400;font-size:14px;font-style:normal;fill:#000000;stroke:none;">the </text><text transform="matrix(1,0,0,1,60.585,55.393)" style="font-family:'Comic Neue';font-weight:400;font-size:14px;font-style:normal;fill:#000000;stroke:none;">entire </text><text transform="matrix(1,0,0,1,99.239,55.393)" style="font-family:'Comic Neue';font-weight:400;font-size:14px;font-style:normal;fill:#000000;stroke:none;">Massachusettes </text><text transform="matrix(1,0,0,1,196.343,55.393)" style="font-family:'Comic Neue';font-weight:400;font-size:14px;font-style:normal;fill:#000000;stroke:none;">Bay </text><text transform="matrix(1,0,0,1,223.181,55.393)" style="font-family:'Comic Neue';font-weight:400;font-size:14px;font-style:normal;fill:#000000;stroke:none;">Colony.</text></g><defs><clipPath id="_clipPath_DX34yzUIvpnPbdXeGuFiaFLbeNu1oUIQ"><rect x="0" y="0" width="387.773" height="56.532" transform="matrix(1,0,0,1,60.585,10.593)"/></clipPath></defs><g clip-path="url(#_clipPath_Bm2B5xy1AUxR7tay4f0r2H5gb6i5t9Cj)"><text transform="matrix(1,0,0,1,26.524,83.855)" style="font-family:'Comic Neue';font-weight:400;font-size:14px;font-style:normal;fill:#000000;stroke:none;">It's </text><text transform="matrix(1,0,0,1,49.623,83.855)" style="font-family:'Comic Neue';font-weight:400;font-size:14px;font-style:normal;fill:#000000;stroke:none;">true </text><text transform="matrix(1,0,0,1,78.393,83.855)" style="font-family:'Comic Neue';font-weight:400;font-size:14px;font-style:normal;fill:#000000;stroke:none;">that </text><text transform="matrix(1,0,0,1,106.168,83.855)" style="font-family:'Comic Neue';font-weight:400;font-size:14px;font-style:normal;fill:#000000;stroke:none;">most </text><text transform="matrix(1,0,0,1,139.922,83.855)" style="font-family:'Comic Neue';font-weight:400;font-size:14px;font-style:normal;fill:#000000;stroke:none;">of </text><text transform="matrix(1,0,0,1,156.161,83.855)" style="font-family:'Comic Neue';font-weight:400;font-size:14px;font-style:normal;fill:#000000;stroke:none;">my </text><text transform="matrix(1,0,0,1,179.037,83.855)" style="font-family:'Comic Neue';font-weight:400;font-size:14px;font-style:normal;fill:#000000;stroke:none;">experience </text><text transform="matrix(1,0,0,1,249.415,83.855)" style="font-family:'Comic Neue';font-weight:400;font-size:14px;font-style:normal;fill:#000000;stroke:none;">has </text><text transform="matrix(1,0,0,1,275.006,83.855)" style="font-family:'Comic Neue';font-weight:400;font-size:14px;font-style:normal;fill:#000000;stroke:none;">been </text><text transform="matrix(1,0,0,1,309.306,83.855)" style="font-family:'Comic Neue';font-weight:400;font-size:14px;font-style:normal;fill:#000000;stroke:none;">in </text><text transform="matrix(1,0,0,1,325.265,83.855)" style="font-family:'Comic Neue';font-weight:400;font-size:14px;font-style:normal;fill:#000000;stroke:none;">facilities </text><text transform="matrix(1,0,0,1,26.524,99.955)" style="font-family:'Comic Neue';font-weight:400;font-size:14px;font-style:normal;fill:#000000;stroke:none;">managment, </text><text transform="matrix(1,0,0,1,105.742,99.955)" style="font-family:'Comic Neue';font-weight:400;font-size:14px;font-style:normal;fill:#000000;stroke:none;">but </text><text transform="matrix(1,0,0,1,129.787,99.955)" style="font-family:'Comic Neue';font-weight:400;font-size:14px;font-style:normal;fill:#000000;stroke:none;">I'm </text><text transform="matrix(1,0,0,1,154.993,99.955)" style="font-family:'Comic Neue';font-weight:400;font-size:14px;font-style:normal;fill:#000000;stroke:none;">young, </text><text transform="matrix(1,0,0,1,198.456,99.955)" style="font-family:'Comic Neue';font-weight:400;font-size:14px;font-style:normal;fill:#000000;stroke:none;">and </text><text transform="matrix(1,0,0,1,226.238,99.955)" style="font-family:'Comic Neue';font-weight:400;font-size:14px;font-style:normal;fill:#000000;stroke:none;">I </text><text transform="matrix(1,0,0,1,237.123,99.955)" style="font-family:'Comic Neue';font-weight:400;font-size:14px;font-style:normal;fill:#000000;stroke:none;">have </text><text transform="matrix(1,0,0,1,269.554,99.955)" style="font-family:'Comic Neue';font-weight:400;font-size:14px;font-style:normal;fill:#000000;stroke:none;">a </text><text transform="matrix(1,0,0,1,282.174,99.955)" style="font-family:'Comic Neue';font-weight:400;font-size:14px;font-style:normal;fill:#000000;stroke:none;">lot </text><text transform="matrix(1,0,0,1,301.795,99.955)" style="font-family:'Comic Neue';font-weight:400;font-size:14px;font-style:normal;fill:#000000;stroke:none;">of </text><text transform="matrix(1,0,0,1,318.391,99.955)" style="font-family:'Comic Neue';font-weight:400;font-size:14px;font-style:normal;fill:#000000;stroke:none;">ambition. </text><text transform="matrix(1,0,0,1,26.524,116.055)" style="font-family:'Comic Neue';font-weight:400;font-size:14px;font-style:normal;fill:#000000;stroke:none;">I </text><text transform="matrix(1,0,0,1,38.75,116.055)" style="font-family:'Comic Neue';font-weight:400;font-size:14px;font-style:normal;fill:#000000;stroke:none;">think </text><text transform="matrix(1,0,0,1,74.691,116.055)" style="font-family:'Comic Neue';font-weight:400;font-size:14px;font-style:normal;fill:#000000;stroke:none;">that </text><text transform="matrix(1,0,0,1,104.165,116.055)" style="font-family:'Comic Neue';font-weight:400;font-size:14px;font-style:normal;fill:#000000;stroke:none;">I </text><text transform="matrix(1,0,0,1,116.391,116.055)" style="font-family:'Comic Neue';font-weight:400;font-size:14px;font-style:normal;fill:#000000;stroke:none;">could </text><text transform="matrix(1,0,0,1,154.922,116.055)" style="font-family:'Comic Neue';font-weight:400;font-size:14px;font-style:normal;fill:#000000;stroke:none;">really </text><text transform="matrix(1,0,0,1,193.58,116.055)" style="font-family:'Comic Neue';font-weight:400;font-size:14px;font-style:normal;fill:#000000;stroke:none;">do </text><text transform="matrix(1,0,0,1,215.144,116.055)" style="font-family:'Comic Neue';font-weight:400;font-size:14px;font-style:normal;fill:#000000;stroke:none;">well </text><text transform="matrix(1,0,0,1,243.148,116.055)" style="font-family:'Comic Neue';font-weight:400;font-size:14px;font-style:normal;fill:#000000;stroke:none;">with </text><text transform="matrix(1,0,0,1,272.943,116.055)" style="font-family:'Comic Neue';font-weight:400;font-size:14px;font-style:normal;fill:#000000;stroke:none;">something </text><text transform="matrix(1,0,0,1,341.309,116.055)" style="font-family:'Comic Neue';font-weight:400;font-size:14px;font-style:normal;fill:#000000;stroke:none;">more </text><text transform="matrix(1,0,0,1,26.524,132.155)" style="font-family:'Comic Neue';font-weight:400;font-size:14px;font-style:normal;fill:#000000;stroke:none;">along </text><text transform="matrix(1,0,0,1,64.058,132.155)" style="font-family:'Comic Neue';font-weight:400;font-size:14px;font-style:normal;fill:#000000;stroke:none;">the </text><text transform="matrix(1,0,0,1,87.256,132.155)" style="font-family:'Comic Neue';font-weight:400;font-size:14px;font-style:normal;fill:#000000;stroke:none;">lines </text><text transform="matrix(1,0,0,1,118.756,132.155)" style="font-family:'Comic Neue';font-weight:400;font-size:14px;font-style:normal;fill:#000000;stroke:none;">of </text><text transform="matrix(1,0,0,1,134.632,132.155)" style="font-family:'Comic Neue';font-weight:400;font-size:14px;font-style:italic;fill:#000000;stroke:none;">signaling </text><text transform="matrix(1,0,0,1,191.878,132.155)" style="font-family:'Comic Neue';font-weight:400;font-size:14px;font-style:italic;fill:#000000;stroke:none;">people </text><text transform="matrix(1,0,0,1,236.062,132.155)" style="font-family:'Comic Neue';font-weight:400;font-size:14px;font-style:normal;fill:#000000;stroke:none;">with </text><text transform="matrix(1,0,0,1,263.796,132.155)" style="font-family:'Comic Neue';font-weight:400;font-size:14px;font-style:normal;fill:#000000;stroke:none;">light. </text></g><defs><clipPath id="_clipPath_Bm2B5xy1AUxR7tay4f0r2H5gb6i5t9Cj"><rect x="0" y="0" width="347.809" height="71.972" transform="matrix(1,0,0,1,26.524,71.255)"/></clipPath></defs><g clip-path="url(#_clipPath_5pRdgJkTbdUqpknPrQutfJPzGYdIu4gm)"><text transform="matrix(1,0,0,1,103.25,159.601)" style="font-family:'Comic Neue';font-weight:400;font-size:14px;font-style:normal;fill:#000000;stroke:none;">Hmm </text><text transform="matrix(1,0,0,1,142.025,159.601)" style="font-family:'Comic Neue';font-weight:400;font-size:14px;font-style:normal;fill:#000000;stroke:none;">- </text><text transform="matrix(1,0,0,1,153.15,159.601)" style="font-family:'Comic Neue';font-weight:400;font-size:14px;font-style:normal;fill:#000000;stroke:none;">look, </text><text transform="matrix(1,0,0,1,185.597,159.601)" style="font-family:'Comic Neue';font-weight:400;font-size:14px;font-style:normal;fill:#000000;stroke:none;">I </text><text transform="matrix(1,0,0,1,196.582,159.601)" style="font-family:'Comic Neue';font-weight:400;font-size:14px;font-style:normal;fill:#000000;stroke:none;">don't </text><text transform="matrix(1,0,0,1,231.395,159.601)" style="font-family:'Comic Neue';font-weight:400;font-size:14px;font-style:normal;fill:#000000;stroke:none;">think </text><text transform="matrix(1,0,0,1,266.095,159.601)" style="font-family:'Comic Neue';font-weight:400;font-size:14px;font-style:normal;fill:#000000;stroke:none;">the </text><text transform="matrix(1,0,0,1,290.114,159.601)" style="font-family:'Comic Neue';font-weight:400;font-size:14px;font-style:normal;fill:#000000;stroke:none;">lighthouse </text><text transform="matrix(1,0,0,1,355.601,159.601)" style="font-family:'Comic Neue';font-weight:400;font-size:14px;font-style:normal;fill:#000000;stroke:none;">opportunity </text><text transform="matrix(1,0,0,1,428.676,159.601)" style="font-family:'Comic Neue';font-weight:400;font-size:14px;font-style:normal;fill:#000000;stroke:none;">will </text><text transform="matrix(1,0,0,1,103.25,175.701)" style="font-family:'Comic Neue';font-weight:400;font-size:14px;font-style:normal;fill:#000000;stroke:none;">be </text><text transform="matrix(1,0,0,1,124.505,175.701)" style="font-family:'Comic Neue';font-weight:400;font-size:14px;font-style:normal;fill:#000000;stroke:none;">a </text><text transform="matrix(1,0,0,1,138.48,175.701)" style="font-family:'Comic Neue';font-weight:400;font-size:14px;font-style:normal;fill:#000000;stroke:none;">good </text><text transform="matrix(1,0,0,1,174.883,175.701)" style="font-family:'Comic Neue';font-weight:400;font-size:14px;font-style:normal;fill:#000000;stroke:none;">fit </text><text transform="matrix(1,0,0,1,192.722,175.701)" style="font-family:'Comic Neue';font-weight:400;font-size:14px;font-style:normal;fill:#000000;stroke:none;">for </text><text transform="matrix(1,0,0,1,216.091,175.701)" style="font-family:'Comic Neue';font-weight:400;font-size:14px;font-style:normal;fill:#000000;stroke:none;">you, </text><text transform="matrix(1,0,0,1,245.746,175.701)" style="font-family:'Comic Neue';font-weight:400;font-size:14px;font-style:normal;fill:#000000;stroke:none;">but </text><text transform="matrix(1,0,0,1,271.145,175.701)" style="font-family:'Comic Neue';font-weight:400;font-size:14px;font-style:normal;fill:#000000;stroke:none;">if </text><text transform="matrix(1,0,0,1,284.979,175.701)" style="font-family:'Comic Neue';font-weight:400;font-size:14px;font-style:normal;fill:#000000;stroke:none;">you're </text><text transform="matrix(1,0,0,1,327.122,175.701)" style="font-family:'Comic Neue';font-weight:400;font-size:14px;font-style:normal;fill:#000000;stroke:none;">willing </text><text transform="matrix(1,0,0,1,369.895,175.701)" style="font-family:'Comic Neue';font-weight:400;font-size:14px;font-style:normal;fill:#000000;stroke:none;">to </text><text transform="matrix(1,0,0,1,387.244,175.701)" style="font-family:'Comic Neue';font-weight:400;font-size:14px;font-style:normal;fill:#000000;stroke:none;">werk </text><text transform="matrix(1,0,0,1,421.463,175.701)" style="font-family:'Comic Neue';font-weight:400;font-size:14px;font-style:normal;fill:#000000;stroke:none;">in </text><text transform="matrix(1,0,0,1,439.134,175.701)" style="font-family:'Comic Neue';font-weight:400;font-size:14px;font-style:normal;fill:#000000;stroke:none;">a </text><text transform="matrix(1,0,0,1,103.25,191.801)" style="font-family:'Comic Neue';font-weight:400;font-size:14px;font-style:italic;fill:#000000;stroke:none;">church, </text><text transform="matrix(1,0,0,1,152.668,191.801)" style="font-family:'Comic Neue';font-weight:400;font-size:14px;font-style:normal;fill:#000000;stroke:none;">I </text><text transform="matrix(1,0,0,1,164.244,191.801)" style="font-family:'Comic Neue';font-weight:400;font-size:14px;font-style:normal;fill:#000000;stroke:none;">have </text><text transform="matrix(1,0,0,1,197.366,191.801)" style="font-family:'Comic Neue';font-weight:400;font-size:14px;font-style:normal;fill:#000000;stroke:none;">a </text><text transform="matrix(1,0,0,1,210.678,191.801)" style="font-family:'Comic Neue';font-weight:400;font-size:14px;font-style:normal;fill:#000000;stroke:none;">small </text><text transform="matrix(1,0,0,1,247.524,191.801)" style="font-family:'Comic Neue';font-weight:400;font-size:14px;font-style:normal;fill:#000000;stroke:none;">part-time </text><text transform="matrix(1,0,0,1,309.234,191.801)" style="font-family:'Comic Neue';font-weight:400;font-size:14px;font-style:normal;fill:#000000;stroke:none;">opening </text><text transform="matrix(1,0,0,1,363.258,191.801)" style="font-family:'Comic Neue';font-weight:400;font-size:14px;font-style:normal;fill:#000000;stroke:none;">that </text><text transform="matrix(1,0,0,1,392.082,191.801)" style="font-family:'Comic Neue';font-weight:400;font-size:14px;font-style:normal;fill:#000000;stroke:none;">might </text><text transform="matrix(1,0,0,1,431.854,191.801)" style="font-family:'Comic Neue';font-weight:400;font-size:14px;font-style:normal;fill:#000000;stroke:none;">be </text><text transform="matrix(1,0,0,1,103.25,207.901)" style="font-family:'Comic Neue';font-weight:400;font-size:14px;font-style:normal;fill:#000000;stroke:none;">better... </text><text transform="matrix(1,0,0,1,147.63,207.901)" style="font-family:'Comic Neue';font-weight:400;font-size:14px;font-style:normal;fill:#000000;stroke:none;">depending </text><text transform="matrix(1,0,0,1,214.69,207.901)" style="font-family:'Comic Neue';font-weight:400;font-size:14px;font-style:normal;fill:#000000;stroke:none;">on... </text><text transform="matrix(1,0,0,1,240.94,207.901)" style="font-family:'Comic Neue';font-weight:400;font-size:14px;font-style:normal;fill:#000000;stroke:none;">a </text><text transform="matrix(1,0,0,1,252.84,207.901)" style="font-family:'Comic Neue';font-weight:400;font-size:14px;font-style:normal;fill:#000000;stroke:none;">few </text><text transform="matrix(1,0,0,1,276.556,207.901)" style="font-family:'Comic Neue';font-weight:400;font-size:14px;font-style:normal;fill:#000000;stroke:none;">other </text><text transform="matrix(1,0,0,1,312.592,207.901)" style="font-family:'Comic Neue';font-weight:400;font-size:14px;font-style:normal;fill:#000000;stroke:none;">factors.</text></g><defs><clipPath id="_clipPath_5pRdgJkTbdUqpknPrQutfJPzGYdIu4gm"><rect x="0" y="0" width="345.108" height="78.499" transform="matrix(1,0,0,1,103.25,147.001)"/></clipPath></defs><g clip-path="url(#_clipPath_xnq2b8nBuRoBOLRdf0SKrQh5XhhEBTUm)"><text transform="matrix(1,0,0,1,286.632,261.9)" style="font-family:'Comic Neue';font-weight:400;font-size:14px;font-style:normal;fill:#000000;stroke:none;">What are your feelings on </text><text transform="matrix(1,0,0,1,186.636,283.1)" style="font-family:'Comic Neue';font-weight:400;font-size:18px;font-style:italic;fill:#000000;stroke:none;">Taxation Without Representation?</text></g><defs><clipPath id="_clipPath_xnq2b8nBuRoBOLRdf0SKrQh5XhhEBTUm"><rect x="0" y="0" width="299.83" height="54.1" transform="matrix(1,0,0,1,148.528,243.9)"/></clipPath></defs><g clip-path="url(#_clipPath_qeJ43jrq0mXjVAIAI07SuasvLq69io9t)"><text transform="matrix(1,0,0,1,26.524,241.1)" style="font-family:'Comic Neue';font-weight:400;font-size:14px;font-style:normal;fill:#000000;stroke:none;">I'm listening.</text></g><defs><clipPath id="_clipPath_qeJ43jrq0mXjVAIAI07SuasvLq69io9t"><rect x="0" y="0" width="97.943" height="22.319" transform="matrix(1,0,0,1,26.524,228.5)"/></clipPath></defs><path d=" M 53.038 260.475 L 66.529 312.839 L 57.401 267.73 L 53.038 260.475 Z " fill="rgb(0,0,0)"/><path d=" M 386.3 299.585 L 369.507 328.69 L 380.127 304.925 L 386.3 299.585 Z " fill="rgb(0,0,0)"/><g><path d=" M 24.783 -29.533 C 28.954 -33.145 33.901 -25.044 23.428 -21.909 C 14.812 -28.161 21.954 -34.159 24.783 -29.533 Z  M 24.525 -27.944 C 27.764 -31.335 31.199 -25.571 23.68 -23.386 C 17.454 -28.17 22.653 -31.991 24.525 -27.944 Z " fill-rule="evenodd" fill="rgb(0,0,0)"/><path d=" M 28.967 -28.726 L 36.696 -29.999 L 37.871 -14.06 L 33.511 -13.78 L 28.967 -28.726 Z " fill="rgb(0,0,0)"/><path d=" M 35.758 -14.06 L 39.004 -13.78 L 43.086 -29.465 L 39.654 -30.649 L 35.758 -14.06 Z " fill="rgb(0,0,0)"/><path d=" M 71.281 -22.524 L 71.826 -20.119 L 73.732 -20.718 L 73.375 -13.951 L 78.011 -13.495 L 77.013 -22.524 L 71.281 -22.524 Z " fill="rgb(0,0,0)"/><path d=" M 72.764 -23.414 L 75.828 -29.303 C 68.781 -31.892 60.657 -25.995 63.656 -18.36 C 66.227 -11.815 73.066 -12.366 74.992 -16.588 L 74.097 -20.622 C 73.589 -17.888 68.664 -17.497 68.652 -21.996 C 68.647 -23.775 71.341 -25.029 72.764 -23.414 Z " fill="rgb(0,0,0)"/><path d=" M 141.929 -22.066 L 142.475 -19.661 L 145.511 -20.56 L 144.977 -13.246 L 149.77 -13.921 L 148.773 -22.276 L 141.929 -22.066 Z " fill="rgb(0,0,0)"/><path d=" M 144.524 -23.494 L 147.588 -29.382 C 140.541 -31.972 132.394 -26.223 134.929 -18.44 C 137.077 -11.846 144.826 -12.446 146.752 -16.668 L 146.267 -19.395 C 144.469 -17.092 140.412 -17.293 140.412 -22.076 C 140.412 -23.854 143.101 -25.108 144.524 -23.494 Z " fill="rgb(0,0,0)"/><path d=" M 50.455 -28.726 L 56.506 -29.999 L 63.931 -14.924 L 58.637 -13.687 L 50.455 -28.726 Z " fill="rgb(0,0,0)"/><path d=" M 50.455 -28.726 L 54.237 -28.007 L 54.464 -14.243 L 51.59 -14.214 L 50.455 -28.726 Z " fill="rgb(0,0,0)"/><path d=" M 58.928 -29.999 L 63.439 -29.465 L 63.931 -14.924 L 59.937 -16.791 L 58.928 -29.999 Z " fill="rgb(0,0,0)"/><path d=" M 121.848 -28.719 L 127.898 -29.991 L 134.831 -15.211 L 129.537 -13.747 L 121.848 -28.719 Z " fill="rgb(0,0,0)"/><path d=" M 121.848 -28.719 L 125.629 -28.009 L 125.913 -14.194 L 122.565 -13.921 L 121.848 -28.719 Z " fill="rgb(0,0,0)"/><path d=" M 130.544 -29.85 L 134.831 -29.843 L 134.831 -15.211 L 131.33 -16.784 L 130.544 -29.85 Z " fill="rgb(0,0,0)"/><path d=" M 8.694 -29.377 L 17.222 -29.999 L 17.32 -17.038 L 21.874 -17.557 L 21.874 -14.343 L 9.863 -14.343 L 8.694 -29.377 Z " fill="rgb(0,0,0)"/><path d=" M 100.713 -27.137 L 96.141 -27.789 L 97.151 -14.799 L 88.876 -14.205 L 88.778 -27.165 L 84.224 -26.647 L 84.224 -29.861 L 101.186 -30.136 L 100.713 -27.137 Z " fill="rgb(0,0,0)"/><path d=" M 50.455 -29.991 L 42.372 -28.844 L 43.758 -14.28 L 49.066 -13.921 L 50.455 -29.991 Z " fill="rgb(0,0,0)"/><path d=" M 99.601 -29.269 L 106.803 -30.454 L 106.803 -14.235 L 100.99 -13.865 L 99.601 -29.269 Z " fill="rgb(0,0,0)"/><path d=" M 105.256 -23.995 L 111.07 -24.487 L 111.07 -19.79 L 105.256 -18.711 L 105.256 -23.995 Z " fill="rgb(0,0,0)"/><path d=" M 21.999 -22.226 L 29.167 -22.555 L 27.606 -13.78 L 22.483 -14.043 L 21.999 -22.226 Z " fill="rgb(0,0,0)"/><path d=" M 114.465 -23.039 L 121.037 -23.504 L 120.33 -13.747 L 115.033 -13.827 L 114.465 -23.039 Z " fill="rgb(0,0,0)"/><path d=" M 114.614 -24.373 L 114.222 -31.246 L 121.779 -30.957 L 121.059 -24.373 L 114.614 -24.373 Z  M 115.853 -25.659 L 115.611 -29.926 L 120.349 -29.745 L 119.902 -25.659 L 115.853 -25.659 Z " fill-rule="evenodd" fill="rgb(0,0,0)"/><path d=" M 108.633 -30.454 L 113.593 -30.454 L 113.593 -14.424 L 109.873 -14.235 L 108.633 -30.454 Z " fill="rgb(0,0,0)"/><path d=" M 152.153 -20.029 L 148.721 -15.513 C 154.33 -10.979 164.077 -13.968 161.861 -20.029 C 160.968 -22.472 156.276 -22.305 154.929 -23.464 C 153.077 -25.057 156.27 -25.815 159.026 -23.145 L 162.225 -26.855 C 155.715 -33.997 145.402 -28.133 149.878 -23.145 C 151.842 -20.957 155.213 -21.826 156.125 -20.101 C 156.967 -18.509 153.577 -18.414 152.153 -20.029 Z " fill="rgb(0,0,0)"/></g><g clip-path="url(#_clipPath_E8ZBFjo1N9y7AdFvBNVeIBa37U4e2ZQF)"><text transform="matrix(0,-0.576,0.576,0,12.783,517.003)" style="font-family:'Libre Caslon Text';font-weight:400;font-size:20px;font-style:normal;fill:#000000;stroke:none;">©MCMLXXXVIII Trilobyte</text></g><defs><clipPath id="_clipPath_E8ZBFjo1N9y7AdFvBNVeIBa37U4e2ZQF"><rect x="0" y="0" width="266" height="24.6" transform="matrix(0,-0.576,0.576,0,1.609,517.003)"/></clipPath></defs></g></svg>