<?xml version="1.0" encoding="UTF-8" standalone="no"?><!-- Generator: Gravit.io --><svg xmlns="http://www.w3.org/2000/svg" xmlns:xlink="http://www.w3.org/1999/xlink" style="isolation:isolate" viewBox="-1349.911 1302.249 5178.248 2619.874" width="5178.248pt" height="2619.874pt"><defs><clipPath id="_clipPath_MSzmXwkk3VELE47Wk95tYBGMoWbYcBF7"><rect x="-1349.911" y="1302.249" width="5178.248" height="2619.874"/></clipPath></defs><g clip-path="url(#_clipPath_MSzmXwkk3VELE47Wk95tYBGMoWbYcBF7)"><rect x="-1349.911" y="1302.249" width="5178.248" height="2619.874" style="fill:rgb(116,116,116)"/><rect x="-1349.911" y="1302.249" width="5178.248" height="2619.874" transform="matrix(1,0,0,1,0,0)" fill="rgb(116,116,116)"/><path d=" M -108.296 2623.834 C -484.259 2681.599 -704.632 2902.045 -769.525 3285.063 C -682.394 3360.718 -545.828 3403.587 -359.938 3413.561 L 49.649 3030.744 C 42.948 2891.199 -9.664 2755.6 -108.296 2623.834 Z  M -94.753 2848.184 L -60.055 2769.908 C -287.756 2816.601 -442.494 2987.03 -613.489 3283.476 L -613.489 3283.476 L -527.181 3301.971 C -408.547 3074.722 -257.932 2871.211 -94.753 2848.184 Z " fill-rule="evenodd" fill="rgb(255,255,255)"/><path d=" M 1768.717 3241.961 C 1772.973 3244.096 1777.227 3246.267 1781.48 3248.471 L 1781.48 3248.471 L 1781.48 3248.471 L 1781.48 3248.471 L 1781.48 3248.471 C 1781.48 3248.471 1781.48 3248.471 1781.48 3248.471 C 1935.609 3014.901 2048.671 2645.411 2161.801 2491.85 L 2283.918 2443.003 L 2385.683 2473.532 C 2321.949 2809.512 2218.74 3208.553 2076.167 3670.764 C 1805.418 3558.736 1563.29 3508.02 1155.037 3507.672 C 1031.145 3468.024 959.868 3384.869 941.234 3258.236 C 977.269 3326.164 1021.579 3364.883 1062.829 3388.402 C 1089.008 3377.229 1114.78 3365.344 1140.141 3352.735 C 1278.215 3449.034 1411.363 3387.26 1446.849 3357.056 C 1465.701 3341.009 1461.569 3321.933 1441.405 3304.804 C 1445.277 3297.767 1447.471 3289.684 1447.471 3281.092 C 1447.471 3253.772 1425.29 3231.591 1397.969 3231.591 C 1388.731 3231.591 1380.081 3234.126 1372.676 3238.54 C 1372.088 3229.777 1369.213 3221.637 1364.639 3214.716 C 1395.39 3191.77 1425.397 3167.525 1454.661 3141.98 C 1540.724 3153.722 1626.273 3178.087 1711.255 3215.032 C 1535.377 3122.25 1304.157 3092.366 1017.679 3125.455 C 1010.028 3046.023 973.882 2971.32 909.352 2901.456 C 1129.551 2868.088 1362.847 2883.964 1609.349 2949.193 C 1688.033 3042.177 1741.126 3139.732 1768.717 3241.961 L 1768.717 3241.961 Z  M 788.857 3236.214 L 468.895 3285.143 L 562.337 3020.8 L 852.434 2982.114 L 788.857 3236.214 L 788.857 3236.214 L 788.857 3236.214 Z  M 1946.634 2226.195 L 1722.726 2580.146 L 1428.957 2495.687 L 1357.529 2513.172 L 1124.989 2466.928 L 1101.206 2419.363 L 859.748 2403.343 C 944.508 2310.485 1019.222 2212.473 1083.778 2109.197 L 1891.643 1932.935 C 2187.419 1930.445 2467.86 1962.853 2732.862 2030.053 C 2496.766 2068.067 2212.458 2135.671 1948.243 2221.386 C 1947.705 2222.99 1947.169 2224.593 1946.634 2226.195 L 1946.634 2226.195 L 1946.634 2226.195 L 1946.634 2226.195 Z  M -94.753 2848.184 L -60.055 2769.908 C -287.756 2816.601 -442.494 2987.03 -613.489 3283.476 L -613.489 3283.476 L -527.181 3301.971 C -408.547 3074.722 -257.932 2871.211 -94.753 2848.184 Z " fill-rule="evenodd" fill="rgb(200,133,32)"/><path d=" M 3062.415 3342.262 C 3062.415 3320.603 3079.999 3303.018 3101.659 3303.018 C 3123.318 3303.018 3140.903 3320.603 3140.903 3342.262 C 3140.903 3363.922 3123.318 3381.506 3101.659 3381.506 C 3079.999 3381.506 3062.415 3363.922 3062.415 3342.262 L 3062.415 3342.262 L 3062.415 3342.262 L 3062.415 3342.262 L 3062.415 3342.262 L 3062.415 3342.262 L 3062.415 3342.262 L 3062.415 3342.262 L 3062.415 3342.262 L 3062.415 3342.262 L 3062.415 3342.262 L 3062.415 3342.262 Z  M 2745.104 2028.104 C 2714.348 2598.875 2634.21 3150.341 2513.149 3674.437 L 2076.167 3670.764 C 2218.74 3208.553 2321.949 2809.512 2385.683 2473.532 L 2283.918 2443.003 L 2202.008 2475.767 L 2161.801 2491.85 C 2048.671 2645.411 1935.609 3014.901 1781.48 3248.471 C 1900.13 2903.481 1939.349 2566.473 1948.243 2221.386 C 2217.044 2134.183 2506.641 2065.726 2745.104 2028.104 L 2745.104 2028.104 L 2745.104 2028.104 L 2745.104 2028.104 L 2745.104 2028.104 L 2745.104 2028.104 L 2745.104 2028.104 L 2745.104 2028.104 L 2745.104 2028.104 L 2745.104 2028.104 L 2745.104 2028.104 L 2745.104 2028.104 Z  M 2204.666 2481.215 C 2203.914 2479.24 2203.021 2477.43 2202.008 2475.767 C 2202.006 2475.764 2202.003 2475.76 2202.001 2475.757 L 2204.666 2481.215 L 2204.666 2481.215 L 2204.666 2481.215 L 2204.666 2481.215 L 2204.666 2481.215 L 2204.666 2481.215 L 2204.666 2481.215 L 2204.666 2481.215 L 2204.666 2481.215 L 2204.666 2481.215 L 2204.666 2481.215 Z  M -356.796 2055.127 C -356.796 2033.467 -339.212 2015.883 -317.552 2015.883 C -295.893 2015.883 -278.308 2033.467 -278.308 2055.127 C -278.308 2076.786 -295.893 2094.371 -317.552 2094.371 C -339.212 2094.371 -356.796 2076.786 -356.796 2055.127 L -356.796 2055.127 L -356.796 2055.127 L -356.796 2055.127 L -356.796 2055.127 L -356.796 2055.127 L -356.796 2055.127 L -356.796 2055.127 L -356.796 2055.127 L -356.796 2055.127 Z  M 32.231 2463.626 C 32.231 2441.966 49.815 2424.381 71.475 2424.381 C 93.134 2424.381 110.719 2441.966 110.719 2463.626 C 110.719 2485.285 93.134 2502.869 71.475 2502.869 C 49.815 2502.869 32.231 2485.285 32.231 2463.626 L 32.231 2463.626 L 32.231 2463.626 L 32.231 2463.626 L 32.231 2463.626 L 32.231 2463.626 L 32.231 2463.626 L 32.231 2463.626 L 32.231 2463.626 Z  M 666.986 2547.726 C 666.986 2526.067 684.57 2508.482 706.23 2508.482 C 727.889 2508.482 745.474 2526.067 745.474 2547.726 C 745.474 2569.385 727.889 2586.97 706.23 2586.97 C 684.57 2586.97 666.986 2569.385 666.986 2547.726 L 666.986 2547.726 L 666.986 2547.726 L 666.986 2547.726 L 666.986 2547.726 L 666.986 2547.726 L 666.986 2547.726 L 666.986 2547.726 Z  M 707.239 1866.837 C 707.239 1845.178 724.823 1827.593 746.483 1827.593 C 768.142 1827.593 785.726 1845.178 785.726 1866.837 C 785.726 1888.496 768.142 1906.081 746.483 1906.081 C 724.823 1906.081 707.239 1888.496 707.239 1866.837 L 707.239 1866.837 L 707.239 1866.837 L 707.239 1866.837 L 707.239 1866.837 L 707.239 1866.837 L 707.239 1866.837 Z  M 913.305 1620.034 C 913.305 1598.374 930.89 1580.79 952.549 1580.79 C 974.208 1580.79 991.793 1598.374 991.793 1620.034 C 991.793 1641.693 974.208 1659.278 952.549 1659.278 C 930.89 1659.278 913.305 1641.693 913.305 1620.034 L 913.305 1620.034 L 913.305 1620.034 L 913.305 1620.034 L 913.305 1620.034 L 913.305 1620.034 Z  M 1700.939 1761.61 C 1700.939 1739.951 1718.523 1722.366 1740.183 1722.366 C 1761.842 1722.366 1779.427 1739.951 1779.427 1761.61 C 1779.427 1783.27 1761.842 1800.854 1740.183 1800.854 C 1718.523 1800.854 1700.939 1783.27 1700.939 1761.61 L 1700.939 1761.61 L 1700.939 1761.61 L 1700.939 1761.61 L 1700.939 1761.61 Z  M -366.928 3383.778 C -392.023 3360.159 -338.829 3262.818 -248.215 3166.54 C -157.6 3070.262 -63.659 3011.272 -38.564 3034.891 C -13.469 3058.51 -66.662 3155.851 -157.276 3252.129 C -247.891 3348.407 -341.832 3407.397 -366.928 3383.778 L -366.928 3383.778 L -366.928 3383.778 L -366.928 3383.778 Z  M 859.44 3233.334 Q 855.997 3218.978 848.781 3206.091 C 867.61 3175.265 869.497 3127.468 854.363 3062.622 C 866.666 3159.655 848.833 3219.591 800.566 3242.13 C 819.203 3236.413 833.771 3226.62 844.259 3212.74 Q 870.017 3271.842 834.638 3357.056 Q 868.729 3291.673 861.229 3242.484 Q 874.356 3242.695 890.174 3249.93 Q 876.835 3235.583 859.44 3233.334 L 859.44 3233.334 L 859.44 3233.334 Z  M 1136.238 3274.138 C 1134.167 3268.691 1133.036 3262.782 1133.036 3256.612 C 1133.036 3229.291 1155.217 3207.11 1182.538 3207.11 C 1194.022 3207.11 1204.597 3211.029 1212.986 3217.616 C 1212.816 3216.156 1212.749 3214.666 1212.749 3213.16 C 1212.749 3185.839 1234.93 3163.658 1262.25 3163.658 C 1283.084 3163.658 1300.93 3176.557 1308.203 3194.811 C 1312.953 3193.247 1318.032 3192.421 1323.302 3192.421 C 1349.485 3192.421 1370.947 3212.792 1372.676 3238.54 C 1380.081 3234.126 1388.731 3231.591 1397.969 3231.591 C 1425.29 3231.591 1447.471 3253.772 1447.471 3281.092 C 1447.471 3292.129 1446.159 3299.129 1440.043 3307.364 C 1367.074 3231.606 1127.139 3261.845 1136.238 3274.138 L 1136.238 3274.138 Z  M 466.335 3273.59 L 790.913 3236.905 L 822.035 3395.093 L 595.281 3392.542 L 466.335 3273.59 Z " fill-rule="evenodd" fill="rgb(106,54,30)"/><g><path d=" M 1208.358 3254.348 C 1209.253 3250.679 1209.715 3246.843 1209.715 3242.9 C 1209.715 3236.907 1208.648 3231.161 1206.708 3225.834 C 1212.349 3229.48 1216.847 3234.721 1219.568 3240.925 L 1208.358 3254.348 L 1208.358 3254.348 Z " fill="rgb(64,31,16)"/><path d=" M 1283.023 3239.755 C 1293.469 3233.692 1300.493 3222.382 1300.493 3209.445 C 1300.493 3197.213 1294.214 3186.435 1284.643 3180.249 C 1286.582 3185.576 1287.649 3191.322 1287.649 3197.315 C 1287.649 3211.085 1282.015 3223.549 1272.926 3232.52 L 1283.023 3239.755 L 1283.023 3239.755 Z " fill="rgb(64,31,16)"/><path d=" M 1358.777 3261.95 C 1362.093 3256.596 1364.009 3250.283 1364.009 3243.527 C 1364.009 3226.494 1351.833 3212.282 1335.7 3209.176 C 1336.499 3212.62 1336.902 3216.211 1336.902 3219.895 C 1336.902 3229.608 1334.099 3238.671 1329.237 3246.303 L 1358.777 3261.95 L 1358.777 3261.95 Z " fill="rgb(64,31,16)"/><path d=" M 1425.835 3299.38 C 1431.118 3293.506 1434.337 3285.739 1434.337 3277.225 C 1434.337 3258.946 1419.496 3244.105 1401.217 3244.105 C 1400.046 3244.105 1398.889 3244.166 1397.757 3244.312 C 1400.104 3249.837 1401.383 3255.917 1401.383 3262.294 C 1401.383 3270.54 1399.245 3278.29 1395.481 3285.012 L 1425.835 3299.38 L 1425.835 3299.38 Z " fill="rgb(64,31,16)"/><path d=" M 1285.286 3263.774 C 1284.063 3254.247 1278.328 3245.318 1268.853 3239.913 C 1268.267 3239.578 1267.674 3239.262 1267.077 3238.96 C 1266.042 3244.456 1263.883 3249.861 1260.551 3254.902 C 1258.586 3257.875 1256.314 3260.568 1253.791 3262.959 L 1285.286 3263.774 L 1285.286 3263.774 Z " fill="rgb(64,31,16)"/><path d=" M -93.868 2777.707 L -113.574 2801.137 C -337.606 2906.084 -539.347 3095.44 -662.734 3423.086 L -675.663 3393.245 C -545.088 3091.181 -351.117 2886.043 -93.868 2777.707 Z " fill="rgb(64,31,16)"/><path d=" M -92.392 2843.048 L -110.981 2864.095 C -357.984 2994.032 -485.781 3187.008 -584.206 3429.445 L -586.646 3397.766 C -463.471 3126.435 -335.06 2940.361 -92.392 2843.048 Z " fill="rgb(64,31,16)"/><path d=" M -149.75 2873.552 Q 169.878 3071.861 311.328 3492.347 Q 182.736 3082.527 -112.35 2888.913 L -149.75 2873.552 Z " fill="rgb(64,31,16)"/><path d=" M -248.24 2869.27 Q 15.186 3022.869 141.006 3333.66 Q 25.858 3031.01 -217.633 2881.519 L -248.24 2869.27 Z " fill="rgb(64,31,16)"/><path d=" M -416.928 3372.288 C -532.297 3384.89 -641.515 3353.137 -744.802 3276.808 C -744.302 2984.166 -346.705 2605.863 -115.838 2645.952 C -15.474 2745.347 4.722 2842.655 13.632 2970.041 C -152.901 3018.823 -385.791 3301.899 -385.126 3386.495 Q -384.261 3496.683 24.039 3089.842 L 37.075 3033.974 C -126.805 3240.686 -289.856 3347.304 -311.684 3339.982 C -380.074 3317.039 -50.563 2968.833 33.785 3009.926 C 45.694 2893.821 18.338 2750.075 -103.789 2602.408 C -485.228 2661.573 -741.334 2942.409 -782.634 3291.22 C -693.633 3363.85 -574.096 3397.514 -424.134 3392.104 L -416.928 3372.288 Z " fill="rgb(64,31,16)"/><path d=" M -56.672 3516.159 C 69.328 3434.254 332.993 3327.52 377.828 3377.599 C 432.702 3274.589 461.773 3142.467 404.455 2959.614 C 28.918 2870.35 -314.28 3033.674 -484.247 3341.059 C -429.264 3441.921 -331.293 3518.235 -190.392 3569.858 L -174.777 3565.402 C -286.362 3533.503 -395.072 3454.636 -468.565 3333.711 C -302.629 3033.933 89.405 2863.471 396.955 2982.115 C 452.351 3112.052 425.57 3231.48 385.714 3352.799 C 249.25 3338.791 11.994 3439.428 -96.783 3521.005 L -56.672 3516.159 L -56.672 3516.159 Z " fill="rgb(64,31,16)"/><path d=" M 412.273 3658.472 C 467.973 3664.137 505.581 3662.618 524.985 3653.804 C 557.755 3609.206 588.048 3555.532 615.755 3492.672 C 577.71 3564.208 545.47 3614.564 518.815 3643.52 C 499.284 3651.417 463.807 3656.438 412.273 3658.472 Z " fill="rgb(64,31,16)"/><path d=" M 447.096 3689.057 C 490.097 3692.069 519.129 3691.261 534.11 3686.574 C 559.407 3662.858 582.793 3634.314 604.183 3600.885 C 574.813 3638.928 549.924 3665.707 529.346 3681.105 C 514.268 3685.305 486.88 3687.975 447.096 3689.057 Z " fill="rgb(64,31,16)"/><ellipse vector-effect="non-scaling-stroke" cx="-246.31125827416327" cy="3718.8860539206103" rx="389.2444362639237" ry="14.688469292978425" fill="rgb(64,31,16)"/><path d=" M 323.659 3618.199 C 128.375 3661.262 -44.385 3706.307 -59.646 3682.75 C -92.808 3634.998 268.167 3558.237 472.245 3614.982 C 549.814 3527.774 611.68 3400.817 598.991 3209.611 C 254.997 3034.5 -116.992 3112.494 -354.508 3371.262 C -324.799 3482.229 -247.532 3579.451 -122.732 3662.774 L -105.444 3659.441 C -206.392 3602.185 -295.061 3497.712 -334.194 3375.389 C -125.554 3088.823 429.564 3067.071 593.375 3234.619 C 616.645 3373.942 542.023 3497.202 474.743 3605.738 C 311.133 3547.902 -38.871 3612.035 -87.812 3681.04 C -107.429 3709.943 19.302 3695.115 292.272 3636.447 L 323.659 3618.199 L 323.659 3618.199 Z " fill="rgb(64,31,16)"/><path d=" M 903.047 1620.034 C 903.047 1592.713 925.228 1570.532 952.549 1570.532 C 979.87 1570.532 1002.051 1592.713 1002.051 1620.034 C 1002.051 1647.355 979.87 1669.536 952.549 1669.536 C 925.228 1669.536 903.047 1647.355 903.047 1620.034 Z  M 916.052 1620.038 C 916.052 1610.358 919.892 1601.068 926.742 1594.228 C 933.582 1587.378 942.872 1583.528 952.552 1583.528 C 962.222 1583.528 971.522 1587.378 978.362 1594.228 C 985.202 1601.068 989.052 1610.358 989.052 1620.038 C 989.052 1629.708 985.202 1638.998 978.362 1645.848 C 971.522 1652.688 962.222 1656.538 952.552 1656.538 C 942.872 1656.538 933.582 1652.688 926.742 1645.848 C 919.892 1638.998 916.052 1629.708 916.052 1620.038 Z " fill-rule="evenodd" fill="rgb(64,31,16)"/><path d=" M 971.945 1594.141 C 979.902 1599.982 985.035 1609.413 985.035 1620.034 C 985.035 1637.875 970.55 1652.36 952.709 1652.36 C 950.83 1652.36 948.989 1652.199 947.229 1651.804 C 963.09 1643.572 973.918 1626.992 973.918 1607.904 C 973.918 1603.124 973.239 1598.502 971.945 1594.141 Z " fill="rgb(64,31,16)"/><path d=" M 1690.681 1761.61 C 1690.681 1734.29 1712.862 1712.108 1740.183 1712.108 C 1767.503 1712.108 1789.685 1734.29 1789.685 1761.61 C 1789.685 1788.931 1767.503 1811.112 1740.183 1811.112 C 1712.862 1811.112 1690.681 1788.931 1690.681 1761.61 Z  M 1703.682 1761.608 C 1703.682 1751.938 1707.532 1742.638 1714.372 1735.798 C 1721.212 1728.958 1730.502 1725.108 1740.182 1725.108 C 1749.862 1725.108 1759.152 1728.958 1765.992 1735.798 C 1772.832 1742.638 1776.682 1751.938 1776.682 1761.608 C 1776.682 1771.288 1772.832 1780.578 1765.992 1787.418 C 1759.152 1794.268 1749.862 1798.108 1740.182 1798.108 C 1730.502 1798.108 1721.212 1794.268 1714.372 1787.418 C 1707.532 1780.578 1703.682 1771.288 1703.682 1761.608 Z " fill-rule="evenodd" fill="rgb(64,31,16)"/><path d=" M 1759.578 1735.718 C 1767.535 1741.558 1772.668 1750.99 1772.668 1761.61 C 1772.668 1779.451 1758.183 1793.936 1740.342 1793.936 C 1738.464 1793.936 1736.622 1793.776 1734.863 1793.38 C 1750.723 1785.149 1761.551 1768.569 1761.551 1749.48 C 1761.551 1744.701 1760.873 1740.079 1759.578 1735.718 Z " fill="rgb(64,31,16)"/><path d=" M 656.728 2547.726 C 656.728 2520.405 678.909 2498.224 706.23 2498.224 C 733.551 2498.224 755.732 2520.405 755.732 2547.726 C 755.732 2575.047 733.551 2597.228 706.23 2597.228 C 678.909 2597.228 656.728 2575.047 656.728 2547.726 Z  M 669.732 2547.728 C 669.732 2538.048 673.572 2528.758 680.422 2521.918 C 687.262 2515.068 696.552 2511.228 706.232 2511.228 C 715.912 2511.228 725.202 2515.068 732.042 2521.918 C 738.882 2528.758 742.732 2538.048 742.732 2547.728 C 742.732 2557.408 738.882 2566.698 732.042 2573.538 C 725.202 2580.378 715.912 2584.228 706.232 2584.228 C 696.552 2584.228 687.262 2580.378 680.422 2573.538 C 673.572 2566.698 669.732 2557.408 669.732 2547.728 Z " fill-rule="evenodd" fill="rgb(64,31,16)"/><path d=" M 3051.356 3342.279 C 3051.356 3314.959 3073.537 3292.778 3100.858 3292.778 C 3128.179 3292.778 3150.36 3314.959 3150.36 3342.279 C 3150.36 3369.6 3128.179 3391.781 3100.858 3391.781 C 3073.537 3391.781 3051.356 3369.6 3051.356 3342.279 Z  M 3064.36 3342.281 C 3064.36 3332.601 3068.2 3323.311 3075.05 3316.471 C 3081.89 3309.621 3091.18 3305.781 3100.86 3305.781 C 3110.54 3305.781 3119.83 3309.621 3126.67 3316.471 C 3133.51 3323.311 3137.36 3332.601 3137.36 3342.281 C 3137.36 3351.961 3133.51 3361.251 3126.67 3368.091 C 3119.83 3374.931 3110.54 3378.781 3100.86 3378.781 C 3091.18 3378.781 3081.89 3374.931 3075.05 3368.091 C 3068.2 3361.251 3064.36 3351.961 3064.36 3342.281 Z " fill-rule="evenodd" fill="rgb(64,31,16)"/><path d=" M 725.625 2521.833 C 733.582 2527.674 738.715 2537.105 738.715 2547.726 C 738.715 2565.567 724.231 2580.052 706.389 2580.052 C 704.511 2580.052 702.669 2579.891 700.91 2579.496 C 716.77 2571.264 727.598 2554.685 727.598 2535.596 C 727.598 2530.816 726.92 2526.194 725.625 2521.833 Z " fill="rgb(64,31,16)"/><path d=" M 3120.254 3316.387 C 3128.211 3322.228 3133.344 3331.659 3133.344 3342.279 C 3133.344 3360.121 3118.859 3374.605 3101.018 3374.605 C 3099.139 3374.605 3097.298 3374.445 3095.538 3374.05 C 3111.399 3365.818 3122.227 3349.238 3122.227 3330.149 C 3122.227 3325.37 3121.548 3320.748 3120.254 3316.387 Z " fill="rgb(64,31,16)"/><path d=" M 696.981 1866.837 C 696.981 1839.516 719.162 1817.335 746.483 1817.335 C 773.803 1817.335 795.984 1839.516 795.984 1866.837 C 795.984 1894.158 773.803 1916.339 746.483 1916.339 C 719.162 1916.339 696.981 1894.158 696.981 1866.837 Z  M 709.982 1866.838 C 709.982 1857.158 713.832 1847.868 720.672 1841.028 C 727.512 1834.188 736.802 1830.338 746.482 1830.338 C 756.162 1830.338 765.452 1834.188 772.292 1841.028 C 779.132 1847.868 782.982 1857.158 782.982 1866.838 C 782.982 1876.518 779.132 1885.808 772.292 1892.648 C 765.452 1899.488 756.162 1903.338 746.482 1903.338 C 736.802 1903.338 727.512 1899.488 720.672 1892.648 C 713.832 1885.808 709.982 1876.518 709.982 1866.838 Z " fill-rule="evenodd" fill="rgb(64,31,16)"/><path d=" M 765.878 1840.944 C 773.835 1846.785 778.968 1856.216 778.968 1866.837 C 778.968 1884.678 764.483 1899.163 746.642 1899.163 C 744.764 1899.163 742.922 1899.002 741.163 1898.607 C 757.023 1890.375 767.851 1873.796 767.851 1854.707 C 767.851 1849.928 767.172 1845.306 765.878 1840.944 Z " fill="rgb(64,31,16)"/><path d=" M 624.447 2577.277 C 630.925 2608.613 655.055 2624.84 696.742 2625.886 Q 669.499 2630.593 649.457 2621.896 Q 624.514 2611.072 624.447 2577.277 Z " fill="rgb(64,31,16)"/><path d=" M 618.82 2606.249 C 624.369 2632.796 645.037 2646.543 680.744 2647.428 Q 657.41 2651.417 640.243 2644.049 Q 618.877 2634.879 618.82 2606.249 Z " fill="rgb(64,31,16)"/><path d=" M 615.755 2651.311 C 620.713 2666.365 639.184 2674.162 671.096 2674.664 Q 653.43 2678.842 638.088 2674.664 Q 618.994 2669.463 615.755 2651.311 Z " fill="rgb(64,31,16)"/><path d=" M -367.054 2055.127 C -367.054 2027.806 -344.873 2005.625 -317.552 2005.625 C -290.232 2005.625 -268.05 2027.806 -268.05 2055.127 C -268.05 2082.448 -290.232 2104.629 -317.552 2104.629 C -344.873 2104.629 -367.054 2082.448 -367.054 2055.127 Z  M -354.058 2055.128 C -354.058 2045.448 -350.208 2036.158 -343.358 2029.318 C -336.518 2022.478 -327.228 2018.628 -317.548 2018.628 C -307.878 2018.628 -298.588 2022.478 -291.738 2029.318 C -284.898 2036.158 -281.048 2045.448 -281.048 2055.128 L -281.048 2055.128 C -281.048 2064.808 -284.898 2074.098 -291.738 2080.938 C -298.588 2087.778 -307.878 2091.628 -317.548 2091.628 C -327.228 2091.628 -336.518 2087.778 -343.358 2080.938 C -350.208 2074.098 -354.058 2064.808 -354.058 2055.128 Z " fill-rule="evenodd" fill="rgb(64,31,16)"/><path d=" M -298.157 2029.234 C -290.2 2035.075 -285.067 2044.506 -285.067 2055.127 C -285.067 2072.968 -299.552 2087.453 -317.393 2087.453 C -319.271 2087.453 -321.113 2087.292 -322.872 2086.897 C -307.012 2078.665 -296.184 2062.085 -296.184 2042.997 C -296.184 2038.217 -296.862 2033.595 -298.157 2029.234 Z " fill="rgb(64,31,16)"/><path d=" M 21.973 2463.626 C 21.973 2436.305 44.154 2414.124 71.475 2414.124 C 98.796 2414.124 120.977 2436.305 120.977 2463.626 C 120.977 2490.946 98.796 2513.127 71.475 2513.127 C 44.154 2513.127 21.973 2490.946 21.973 2463.626 Z  M 34.972 2463.628 C 34.972 2453.948 38.822 2444.658 45.662 2437.818 C 52.512 2430.968 61.802 2427.128 71.472 2427.128 C 81.152 2427.128 90.442 2430.968 97.282 2437.818 C 104.132 2444.658 107.982 2453.948 107.982 2463.628 C 107.982 2473.308 104.132 2482.598 97.282 2489.438 C 90.442 2496.278 81.152 2500.128 71.472 2500.128 C 61.802 2500.128 52.512 2496.278 45.662 2489.438 C 38.822 2482.598 34.972 2473.308 34.972 2463.628 Z " fill-rule="evenodd" fill="rgb(64,31,16)"/><path d=" M 90.87 2437.733 C 98.827 2443.574 103.96 2453.005 103.96 2463.626 C 103.96 2481.467 89.476 2495.951 71.635 2495.951 C 69.756 2495.951 67.915 2495.791 66.155 2495.396 C 82.015 2487.164 92.843 2470.584 92.843 2451.495 C 92.843 2446.716 92.165 2442.094 90.87 2437.733 Z " fill="rgb(64,31,16)"/><path d=" M 143.645 2522.996 L 565.856 2839.9 L 178.359 2537.216 L 143.645 2522.996 Z " fill="rgb(64,31,16)"/><path d=" M 218.862 2614.445 C 241.414 2604.508 249.833 2586.179 244.08 2559.531 Q 251.894 2575.943 248.497 2590.278 Q 244.269 2608.12 218.862 2614.445 Z " fill="rgb(64,31,16)"/><path d=" M 250.423 2637.909 C 271.686 2628.921 279.909 2612.99 275.054 2590.18 Q 282.034 2604.145 278.581 2616.543 Q 274.283 2631.972 250.423 2637.909 Z " fill="rgb(64,31,16)"/><path d=" M -185.703 2066.337 Q 227.33 2157.165 443.064 2513.723 Q 224.813 2154.647 -145.392 2069.476 L -185.703 2066.337 Z " fill="rgb(64,31,16)"/><path d=" M 1649.803 1790.477 C 1552.123 1869.958 1482.089 1971.068 1439.607 2093.746 C 1446.292 1781.921 1360.006 1663.604 1235.521 1787.83 C 1346.356 1648.204 1435.876 1748.495 1451.806 2021.239 C 1505.659 1937.918 1557.345 1861.295 1619.204 1807.199 L 1649.803 1790.477 Z " fill="rgb(64,31,16)"/><path d=" M 3020.75 3352.544 C 3015.189 3384.056 3031.614 3408.052 3069.964 3424.429 Q 3042.91 3418.736 3027.501 3403.248 Q 3008.323 3383.972 3020.75 3352.544 Z " fill="rgb(64,31,16)"/><path d=" M 2998.717 3388.332 C 3000.011 3415.421 3018.254 3432.254 3053.376 3438.758 Q 3029.704 3439.018 3013.913 3429.036 Q 2994.26 3416.612 2998.717 3388.332 Z " fill="rgb(64,31,16)"/><path d=" M 2984.403 3438.876 C 2987.859 3454.345 3005.474 3463.918 3037.182 3467.553 Q 3016.206 3467.755 3001.349 3462.09 Q 2982.858 3455.038 2984.403 3438.876 Z " fill="rgb(64,31,16)"/><path d=" M 3013.106 3442.587 C 2964.396 3569.947 2947.863 3697.367 2932.986 3801.295 Q 2867.023 3325.114 2796.791 3303.971 Q 2726.559 3282.827 2580.497 3763.955 C 2588.104 3210.349 2489.918 3021.581 2348.263 3242.13 C 2474.385 2994.24 2576.519 3158.19 2594.647 3642.413 Q 2716.252 3323.41 2786.484 3270.516 Q 2856.716 3217.622 2934.843 3624.697 C 2953.678 3571.255 2968.267 3534.894 3013.106 3442.587 Z " fill="rgb(64,31,16)"/><path d=" M 1420.68 3313.647 C 1434.426 3327.809 1431.625 3344.574 1410.106 3358.183 C 1376.072 3379.705 1293.826 3396.001 1244.044 3381.287 C 1236.024 3378.917 1228.965 3376.165 1222.992 3373.098 C 1282.816 3378.931 1361.702 3358.123 1398.394 3334.92 C 1408.938 3328.252 1416.3 3321.048 1420.68 3313.647 Z " fill="rgb(64,31,16)"/><path d=" M 1141.073 3269.035 C 1139.919 3265.131 1139.334 3261.041 1139.334 3256.95 C 1139.334 3256.95 1139.334 3256.95 1139.334 3256.95 L 1139.334 3256.95 L 1139.334 3256.95 C 1139.334 3245.55 1143.834 3234.55 1151.934 3226.55 C 1160.034 3218.45 1170.934 3213.95 1182.334 3213.95 C 1191.934 3213.95 1201.234 3217.15 1208.834 3223.051 Q 1214.253 3226.998 1218.296 3234.006 C 1211.929 3239.99 1207.462 3247.431 1205.217 3255.506 C 1184.249 3258.325 1163.507 3262.7 1143.134 3268.55 C 1142.447 3268.727 1141.76 3268.887 1141.073 3269.035 Z  M 1219.616 3253.787 C 1222.408 3248.064 1226.755 3243.114 1232.234 3239.55 L 1232.234 3239.55 C 1238.134 3235.65 1245.034 3233.55 1252.134 3233.55 C 1264.434 3233.55 1276.034 3239.85 1282.733 3250.15 C 1283.105 3250.712 1283.458 3251.282 1283.794 3251.862 C 1277.641 3251.539 1271.485 3251.426 1265.334 3251.45 C 1250.033 3251.414 1234.773 3252.182 1219.616 3253.787 Z  M 1309.784 3253.69 C 1314.08 3251.967 1318.686 3251.05 1323.333 3251.05 C 1331.736 3251.05 1339.76 3253.944 1346.174 3259.062 C 1344.93 3258.811 1343.683 3258.577 1342.433 3258.351 C 1331.626 3256.351 1320.729 3254.785 1309.784 3253.69 Z  M 1366.699 3263.716 C 1366.031 3262.48 1365.292 3261.266 1364.495 3260.073 C 1349.307 3237.363 1318.539 3231.255 1295.828 3246.443 C 1295.797 3246.464 1295.766 3246.484 1295.738 3246.508 C 1295.079 3245.345 1294.392 3244.191 1293.653 3243.057 C 1278.731 3220.171 1248.036 3213.704 1225.15 3228.625 L 1225.15 3228.625 C 1223.903 3229.439 1222.705 3230.299 1221.556 3231.201 Q 1218.956 3223.669 1219.034 3213.351 C 1219.134 3201.951 1223.634 3191.05 1231.734 3183.051 C 1239.734 3174.951 1250.734 3170.451 1262.034 3170.451 L 1262.034 3170.451 L 1262.034 3170.451 L 1262.034 3170.451 C 1271.834 3170.451 1281.234 3173.751 1288.834 3179.851 C 1296.433 3185.951 1301.733 3194.351 1303.933 3203.851 C 1309.834 3200.851 1316.433 3199.251 1323.133 3199.251 C 1336.633 3199.251 1349.433 3205.651 1357.533 3216.45 C 1365.633 3227.351 1368.133 3241.45 1364.333 3254.45 C 1372.433 3244.25 1384.833 3238.45 1397.733 3238.45 C 1397.733 3238.45 1397.733 3238.45 1397.733 3238.45 L 1397.733 3238.45 L 1397.733 3238.45 C 1409.133 3238.45 1420.133 3242.95 1428.233 3251.05 C 1436.233 3259.05 1440.733 3270.05 1440.733 3281.45 C 1440.733 3286.039 1440.004 3290.547 1438.548 3294.798 C 1435.62 3292.656 1432.571 3290.676 1429.433 3288.85 C 1421.633 3284.15 1413.533 3280.15 1405.233 3276.65 C 1392.639 3271.501 1379.776 3267.199 1366.699 3263.716 Z  M 1449.133 3303.471 C 1452.162 3296.591 1453.733 3289.087 1453.733 3281.45 C 1453.733 3266.55 1447.833 3252.35 1437.333 3241.85 C 1426.833 3231.35 1412.633 3225.45 1397.733 3225.45 C 1390.833 3225.45 1384.033 3226.651 1377.533 3229.151 C 1376.836 3226.215 1375.901 3223.356 1374.718 3220.609 C 1406.466 3198.027 1437.37 3174.278 1467.244 3149.342 C 1593.821 3172.684 1699.947 3216.59 1785.745 3280.963 C 1953.173 3020.562 2038.425 2714.85 2154.074 2517.137 Q 2207.13 2487.418 2267.679 2463.067 L 2267.679 2463.067 Q 2320.977 2473.938 2375.567 2479.797 L 2375.567 2479.797 Q 2328.515 2803.791 2123.532 3499.566 Q 2326.072 2856.091 2397.794 2481.97 Q 2500.51 2491.036 2607.759 2482.527 Q 2410.999 2476.867 2313.713 2445.711 L 2313.713 2445.711 Q 2360.839 2429.076 2412.113 2415.413 L 2412.113 2415.413 L 2389.316 2438.162 L 2433.801 2410.616 C 2558.648 2326.307 2622.854 2245.032 2659.183 2161.212 C 2595.099 2251.959 2518.663 2330.106 2443.334 2389.211 Q 2280.92 2426.643 2184.548 2468.78 C 2210.926 2430.178 2239.185 2397.269 2270.473 2371.613 L 2211.835 2407.913 C 1998.891 2639.69 1935.197 2996.357 1814.68 3169.404 L 1814.68 3169.404 C 1893.705 2899.535 1938.218 2583.69 1948.054 2221.705 L 1948.054 2221.705 L 1948.054 2221.705 C 1841.698 2330.179 1756.695 2440.871 1719.719 2537.141 C 1406.248 2434.589 1421.913 2497.252 1346.82 2494.629 C 1269.975 2491.946 1129.994 2461.507 1127.072 2438.644 C 1121.432 2394.507 1066.856 2395.7 884.553 2388.155 Q 1018.684 2260.022 1075.033 2134.912 C 1276.556 2219.836 1527.323 2256.827 1827.444 2245.993 C 1541.019 2254.538 1300.025 2211.878 1104.567 2118.116 L 1104.567 2118.116 L 1104.567 2118.116 C 1408.576 2060.023 1667.331 2002.381 1881.136 1945.281 Q 2245.509 1946.739 2689.193 2023.428 L 2689.193 2023.428 L 2689.193 2023.428 C 2498.185 2064.868 2300.822 2115.66 2110.68 2171.918 C 2318.806 2121.47 2532.553 2074.599 2729.898 2036.261 C 2719.238 2489.992 2626.473 3035.461 2486.934 3650.147 L 2092.744 3648.197 L 2092.744 3648.197 Q 1786.207 3491.396 1193.962 3502.192 C 1100.498 3484.855 1017.805 3416.223 956.23 3296.187 L 956.23 3296.187 C 1005.373 3368.522 1061.388 3406.878 1112.783 3421.512 L 1075.734 3389.851 C 1096.917 3380.452 1117.964 3370.606 1138.77 3360.142 L 1138.77 3360.142 C 1140.449 3361.29 1142.136 3362.427 1143.834 3363.55 C 1160.734 3374.65 1178.634 3384.15 1197.334 3391.75 C 1229.234 3404.65 1263.334 3411.35 1297.733 3411.35 C 1330.333 3411.35 1362.733 3405.45 1393.233 3394.05 C 1405.133 3389.65 1416.633 3384.25 1427.633 3378.15 C 1435.833 3373.65 1443.533 3368.35 1450.833 3362.35 C 1455.133 3358.85 1458.833 3354.45 1461.533 3349.55 C 1463.933 3345.05 1465.233 3339.95 1465.333 3334.85 C 1465.133 3328.85 1463.533 3322.95 1460.533 3317.75 C 1457.46 3312.443 1453.607 3307.655 1449.133 3303.471 Z  M 1363 3202.892 C 1361.373 3201.251 1359.652 3199.698 1357.833 3198.251 C 1347.933 3190.451 1335.733 3186.251 1323.133 3186.251 C 1319.233 3186.251 1315.434 3186.651 1311.634 3187.451 C 1301.933 3169.051 1282.833 3157.451 1262.034 3157.451 L 1262.034 3157.451 L 1262.034 3157.451 L 1262.034 3157.451 C 1248.434 3157.451 1235.234 3162.451 1225.034 3171.451 C 1214.834 3180.451 1208.234 3192.95 1206.534 3206.451 C 1198.934 3202.851 1190.734 3200.95 1182.334 3200.95 C 1167.534 3200.95 1153.234 3206.851 1142.734 3217.351 C 1132.234 3227.851 1126.334 3242.05 1126.334 3256.95 C 1126.334 3261.316 1126.827 3265.627 1127.84 3269.838 C 1119.91 3269.427 1112.008 3268.269 1104.334 3266.35 C 1092.134 3263.45 1080.134 3259.95 1068.234 3255.95 C 1053.234 3250.851 1038.434 3245.55 1023.735 3239.95 C 1006.134 3233.25 988.635 3226.45 971.135 3219.55 C 953 3212.43 934.813 3205.388 916.569 3198.48 C 913.234 3190.849 909.936 3182.876 906.689 3174.354 L 906.689 3174.354 C 886.933 3112.64 871.288 3042.205 860.418 2963.146 L 554.637 3012.612 L 524.099 3089.896 C 467.75 3079.226 416.2 3069.283 341.195 3068.303 C 218.952 3066.705 146.147 3172.879 309.429 3169.955 C 394.947 3168.424 429.873 3169.606 489.287 3177.998 L 489.287 3177.998 L 444.724 3283.286 L 592.824 3404.83 L 819.593 3416.439 L 864.74 3353.294 Q 950.168 3428.419 987.869 3544.384 C 1373.486 3479.944 1669.154 3541.653 1850.962 3647.296 L 834.449 3704.392 L 3058.554 3704.392 L 2532.239 3651.672 C 2676.797 3043.963 2756.883 2481.317 2765.534 2008.17 Q 2295.492 1913.065 1876.466 1920.791 C 1623.277 1989.36 1351.171 2049.762 1060.257 2102.106 Q 982.627 2263.262 819.593 2416.533 C 1016.913 2413.851 1109.502 2400.597 1105.174 2453.942 C 1103.199 2478.28 1158.927 2498.935 1237.065 2512.89 L 1237.065 2512.89 C 1277.407 2622.656 1270.913 2740.963 1217.547 2867.722 L 1217.547 2867.722 L 1217.547 2867.722 C 1171.517 2864.786 1127.539 2863.92 1085.471 2864.979 L 1085.471 2864.979 C 1010.482 2866.736 941.604 2874.654 878.756 2888.651 C 951.272 2955.908 990.082 3040.902 995.296 3143.741 C 1160.086 3124.319 1305.684 3124.17 1432.154 3143.251 L 1432.154 3143.251 L 1432.154 3143.251 C 1410.433 3164.108 1387.355 3184.004 1363 3202.892 Z  M 519.119 3102.499 C 505.973 3100.015 491.278 3097.606 478.249 3095.296 C 464.436 3092.867 450.569 3090.71 436.647 3088.827 C 421.743 3086.834 406.811 3085.278 391.824 3084.159 C 374.927 3082.903 358.003 3082.166 341.078 3081.948 L 338.403 3081.921 C 323.035 3081.893 307.693 3083.777 292.789 3087.544 C 286.21 3089.209 279.741 3091.284 273.408 3093.795 C 267.73 3096.006 262.243 3098.627 256.92 3101.629 C 252.334 3104.195 247.966 3107.144 243.844 3110.419 C 240.487 3113.067 237.402 3116.07 234.672 3119.373 C 232.652 3121.775 230.96 3124.45 229.704 3127.344 C 228.913 3129.145 228.476 3131.111 228.421 3133.076 C 228.449 3134.032 228.585 3134.987 228.913 3135.888 C 229.295 3136.953 229.841 3137.963 230.523 3138.891 C 231.615 3140.283 232.898 3141.538 234.317 3142.603 C 236.419 3144.186 238.685 3145.551 241.087 3146.643 C 244.39 3148.199 247.775 3149.482 251.269 3150.492 C 255.746 3151.775 260.305 3152.812 264.918 3153.577 C 270.596 3154.532 276.328 3155.215 282.088 3155.624 C 289.022 3156.143 295.955 3156.388 302.889 3156.361 C 304.991 3156.361 307.066 3156.334 309.167 3156.307 C 326.938 3155.952 344.709 3155.761 362.48 3155.733 C 375.473 3155.706 388.44 3155.897 401.406 3156.307 C 412.926 3156.661 424.418 3157.317 435.883 3158.19 C 447.32 3159.118 458.758 3160.292 470.141 3161.684 C 478.243 3162.712 486.345 3163.784 494.447 3164.939 L 519.119 3102.499 L 519.119 3102.499 Z  M 950.987 3264.872 C 966.38 3269.614 981.696 3274.582 996.934 3279.75 C 1016.934 3286.45 1036.534 3293.85 1055.934 3302.05 C 1063.134 3305.05 1070.234 3308.45 1077.234 3312.15 C 1081.834 3314.45 1086.134 3317.15 1090.234 3320.35 C 1100.402 3330.21 1111.102 3339.5 1122.297 3348.166 C 1101.101 3358.396 1079.388 3367.977 1057.369 3377.096 L 1057.369 3377.096 C 1017.489 3348.629 982.571 3316.231 950.987 3264.872 L 950.987 3264.872 L 950.987 3264.872 Z  M 867.901 3194.025 C 900.834 3206.268 933.67 3218.788 966.335 3231.651 C 983.934 3238.55 1001.434 3245.351 1019.034 3252.05 C 1033.934 3257.75 1048.934 3263.15 1064.034 3268.25 C 1076.234 3272.45 1088.734 3276.05 1101.234 3278.95 C 1111.034 3281.45 1121.034 3282.75 1131.034 3282.95 C 1136.334 3283.05 1141.534 3282.45 1146.634 3281.05 C 1185.234 3269.95 1225.134 3264.35 1265.334 3264.45 C 1290.434 3264.35 1315.434 3266.65 1340.134 3271.15 C 1360.733 3274.85 1380.833 3280.65 1400.233 3288.65 C 1408.033 3291.85 1415.633 3295.65 1422.833 3299.95 C 1428.833 3303.45 1434.333 3307.55 1439.433 3312.25 C 1443.333 3315.65 1446.733 3319.75 1449.333 3324.25 C 1451.133 3327.55 1452.233 3331.15 1452.333 3334.95 C 1452.233 3337.85 1451.533 3340.75 1450.133 3343.25 C 1448.233 3346.75 1445.633 3349.85 1442.533 3352.35 C 1435.933 3357.85 1428.833 3362.65 1421.333 3366.75 C 1410.833 3372.65 1399.933 3377.65 1388.733 3381.85 C 1359.633 3392.75 1328.833 3398.35 1297.733 3398.35 C 1264.934 3398.35 1232.534 3391.95 1202.134 3379.65 C 1184.234 3372.35 1167.134 3363.35 1151.034 3352.75 C 1132.334 3340.35 1114.834 3326.25 1098.834 3310.55 C 1093.934 3306.75 1088.734 3303.35 1083.134 3300.55 C 1075.934 3296.75 1068.534 3293.25 1061.034 3290.05 C 1041.334 3281.75 1021.335 3274.25 1001.134 3267.45 C 977.765 3259.542 954.24 3252.096 930.58 3245.12 C 930.576 3245.112 930.572 3245.102 930.568 3245.092 L 868.555 3226.945 C 867.518 3219.934 865.214 3213.299 861.996 3207.804 C 863.737 3205.148 866.042 3199.563 867.901 3194.025 L 867.901 3194.025 L 867.901 3194.025 Z  M 1782.398 3207.393 C 1743.071 3097.28 1676.594 3001.567 1618.347 2929.285 C 1483.673 2898.271 1360.036 2878.383 1247.549 2869.736 C 1301.841 2728.157 1310.662 2611.149 1273.911 2518.648 C 1301.752 2522.713 1331.74 2525.886 1362.31 2528.149 C 1382.975 2529.679 1392.832 2522.472 1406.445 2515.366 C 1497.823 2712.175 1586.2 2879.28 1828.642 3033.374 C 1817.658 3085.121 1802.287 3143.197 1782.398 3207.393 L 1782.398 3207.393 L 1782.398 3207.393 L 1782.398 3207.393 L 1782.398 3207.393 L 1782.398 3207.393 L 1782.398 3207.393 L 1782.398 3207.393 L 1782.398 3207.393 L 1782.398 3207.393 L 1782.398 3207.393 L 1782.398 3207.393 L 1782.398 3207.393 Z  M 1151.634 2975.367 C 1239.962 2961.508 1328.255 2968.258 1416.404 2995.505 L 1400.107 3003.366 C 1341.035 2978.383 1253.351 2971.535 1151.634 2975.367 L 1151.634 2975.367 L 1151.634 2975.367 L 1151.634 2975.367 L 1151.634 2975.367 L 1151.634 2975.367 L 1151.634 2975.367 L 1151.634 2975.367 L 1151.634 2975.367 L 1151.634 2975.367 L 1151.634 2975.367 L 1151.634 2975.367 L 1151.634 2975.367 L 1151.634 2975.367 L 1151.634 2975.367 L 1151.634 2975.367 L 1151.634 2975.367 Z  M 859.295 3233.837 Q 855.854 3219.38 848.591 3206.412 C 867.421 3175.586 869.308 3127.789 854.174 3062.942 C 866.476 3159.975 848.644 3219.911 800.376 3242.45 C 819.014 3236.734 833.581 3226.94 844.069 3213.06 Q 869.827 3272.162 834.449 3357.376 Q 868.54 3291.994 861.039 3242.804 Q 874.166 3243.016 889.985 3250.25 Q 876.485 3236.18 859.295 3233.837 L 859.295 3233.837 L 859.295 3233.837 L 859.295 3233.837 L 859.295 3233.837 L 859.295 3233.837 L 859.295 3233.837 Z  M 575.777 3031.403 L 840.856 2991.811 L 773.513 3237.603 L 810.793 3386.217 L 605.274 3382.717 L 478.306 3273.891 L 575.777 3031.403 L 575.777 3031.403 L 575.777 3031.403 L 575.777 3031.403 Z  M 1090.498 2898.847 C 1038.439 2899.688 988.113 2903.27 940.217 2909.204 C 974.332 2951.822 1010.07 3025.557 1024.68 3104.79 C 1334.784 3093.619 1591.58 3122.799 1750.226 3215.628 C 1705.178 3104.279 1655.977 3020.166 1602.544 2963.146 C 1435.273 2915.629 1255.026 2894.854 1090.498 2898.847 L 1090.498 2898.847 L 1090.498 2898.847 L 1090.498 2898.847 L 1090.498 2898.847 L 1090.498 2898.847 L 1090.498 2898.847 L 1090.498 2898.847 L 1090.498 2898.847 L 1090.498 2898.847 L 1090.498 2898.847 L 1090.498 2898.847 L 1090.498 2898.847 L 1090.498 2898.847 L 1090.498 2898.847 L 1090.498 2898.847 L 1090.498 2898.847 L 1090.498 2898.847 L 1090.498 2898.847 L 1090.498 2898.847 L 1090.498 2898.847 L 1090.498 2898.847 L 1090.498 2898.847 L 1090.498 2898.847 L 1090.498 2898.847 L 1090.498 2898.847 L 1090.498 2898.847 Z " fill-rule="evenodd" fill="rgb(64,31,16)"/><path d=" M 2124.89 3008.837 C 2094.561 3024.206 2062.189 3029.636 2028.822 3021.832 L 2014.563 3139.06 L 2093.391 3057.282 C 2110.695 3237.024 2210.619 3219.556 2139.95 3055.142 C 2133.918 3041.107 2128.698 3025.483 2124.89 3008.837 L 2124.89 3008.837 L 2124.89 3008.837 L 2124.89 3008.837 L 2124.89 3008.837 Z " fill="none" vector-effect="non-scaling-stroke" stroke-width="0.5" stroke="rgb(64,31,16)" stroke-linejoin="miter" stroke-linecap="square" stroke-miterlimit="300"/><path d=" M 2301.78 2460.202 C 2336.465 2539.062 2330.46 2653.847 2297.963 2759.401 L 2297.963 2759.401 Q 2310.483 2767.664 2320.758 2784.053 M 2080.622 2634.453 L 2053.86 2788.775 L 2053.86 2788.775 C 2172.341 2656.371 2223.174 2527.975 2204.666 2481.215 M 1605.227 3170.815 L 1598.124 3242.626 L 1465.855 3260.189 L 1465.855 3260.189 L 1465.855 3260.189 L 1480.928 3144.6 M 2246.583 3076.326 C 2223.542 3007.03 2196.23 3014.016 2199.271 3075.418 C 2199.874 3087.6 2201.673 3101.924 2204.936 3118.219 C 2208.399 3135.516 2214.157 3152.413 2220.748 3169.414 M 2115.961 3538.528 C 2058.798 3529.858 2011.545 3434.7 1991.71 3326.931 L 1980.843 3416.271 L 1839.573 3339.398 L 1839.573 3339.398 L 1872.17 3188.177 C 1797.522 3329.155 1720.623 3400.501 1670.804 3359.687 C 1639.499 3334.041 1623.66 3268.017 1622.455 3177.365" fill-rule="evenodd" fill="none" vector-effect="non-scaling-stroke" stroke-width="0.5" stroke="rgb(64,31,16)" stroke-linejoin="miter" stroke-linecap="square" stroke-miterlimit="300"/><path d=" M 2134.786 2164.662 C 2002.377 2159.885 1922.976 2145.035 1913.578 2129.497 C 1845.474 2131.337 1788.195 2128.124 1754.727 2119.283 C 1725.98 2111.689 1718.883 2101.022 1730.364 2089.001 L 1730.364 2089.001 L 1730.364 2089.001 L 1730.364 2089.001 C 1548.626 2072.627 1479.301 2051.036 1478.81 2032.1 M 2516.36 1981.799 C 2455.991 2019.772 2340.049 2068.003 2262.893 2086.041 C 2277.719 2085.903 2293.115 2085.835 2309.03 2085.834 L 2543.934 1986.287 M 2089.453 2091.314 C 1986.786 2110.231 1866.516 2115.836 1821.042 2103.824 C 1775.569 2091.811 1997.814 1993.595 2100.48 1974.678 C 2203.146 1955.761 2323.417 1950.156 2368.89 1962.168 C 2414.364 1974.181 2192.119 2072.397 2089.453 2091.314 L 2089.453 2091.314 L 2089.453 2091.314 Z  M 2005.285 1959.53 C 1755.913 1962.489 1522.19 2061.114 1718.15 2067.168 L 2005.285 1959.53 L 2005.285 1959.53 Z  M 2264.467 2109.134 C 2015.095 2112.093 1957.184 2137.612 2153.143 2143.666 L 2264.467 2109.134 Z " fill-rule="evenodd" fill="none" vector-effect="non-scaling-stroke" stroke-width="0.5" stroke="rgb(64,31,16)" stroke-linejoin="miter" stroke-linecap="square" stroke-miterlimit="300"/><path d=" M 2178.98 3560.29 C 2180.509 3544.999 2202.896 3534.7 2228.942 3537.304 C 2254.988 3539.909 2274.892 3554.438 2273.363 3569.728 C 2271.834 3585.019 2249.447 3595.318 2223.401 3592.714 C 2197.355 3590.109 2177.451 3575.58 2178.98 3560.29 Z  M 2448.366 3593.117 C 2476.909 3518.84 2500.647 3436.495 2519.361 3345.861 L 2311.275 3333.62 L 2281.841 3458.306 M 2442.624 2534.432 L 2306.42 3095.086 L 2559.823 3107.756 C 2622.209 2837.701 2649.698 2738.489 2667.518 2474.249 C 2637.637 2400.394 2626.341 2296.868 2648.513 2192.339 M 2472.61 2522.333 L 2448.973 2625.748 L 2638.074 2631.658 L 2641.029 2519.379 L 2581.935 2522.333 M 2440.108 2714.43 L 2540.569 2720.34 M 2435.814 2777.415 L 2536.275 2783.324 M 2505.956 2833.242 L 2606.417 2839.152 M 2395.733 2904.816 L 2496.193 2910.725 M 2427.868 2742.583 L 2483.007 2742.637 M 2423.574 2805.568 L 2478.713 2805.622 M 2383.492 2932.969 L 2438.632 2933.023 M 2550.272 2721.774 L 2609.083 2725.5 M 2545.978 2784.759 L 2604.789 2788.485 M 2395.673 2882.099 L 2454.484 2885.825 M 2563.736 2751.151 L 2605.411 2753.653 M 2426.315 2825.588 L 2467.99 2828.09 M 2559.442 2814.136 L 2601.117 2816.638 M 2519.361 2941.537 L 2561.036 2944.039 M 2485.398 2746.255 L 2544.209 2749.981 M 2481.104 2809.24 L 2539.915 2812.966 M 2441.022 2936.641 L 2499.834 2940.367" fill-rule="evenodd" fill="none" vector-effect="non-scaling-stroke" stroke-width="0.5" stroke="rgb(64,31,16)" stroke-linejoin="miter" stroke-linecap="square" stroke-miterlimit="3"/></g></g></svg>