<svg xmlns="http://www.w3.org/2000/svg" xmlns:xlink="http://www.w3.org/1999/xlink" style="isolation:isolate" viewBox="0 0 600 242" width="600" height="242"
>
    
<style type="text/css">
    
  @font-face {
    font-family: 'Comic Neue';
    src: url('neue.ttf') format('truetype');
  }

  :root {
    --dd-pink: hsl(330, 80%, 57%);
    --dd-pink-dark: hsl(330, 80%, 37%);
    --dd-orange: hsl(31, 95%, 48.5%);
    --dd-brown: hsl(36, 100%, 19%);
    --outline-color: var(--dd-brown);
    --donut-dark: rgb(213,170,106);
    --donut-lite: rgb(242,225,200);
    --show-decor: 0.0;
  }
  
</style>

<defs>
    
    <pattern id="dotz" width="4" height="4" patternUnits="userSpaceOnUse" patternTransform="rotate(45) scale(0.4)">
      <circle cx="2" cy="2" r="1" fill="var(--dot-color,var(--outline-color, #000))" transform="scale(2)" transform-origin="2 2" />
    </pattern>
    
    <pattern id="orangeDotz" width="4" height="4" viewBox="-2 -2 4 4" patternUnits="userSpaceOnUse" patternTransform="rotate(45) scale(1)">
      <path d="M-2 -2h4v4h-4z" fill="var(--dd-orange)" />
      <circle r="0.5" fill="#fff" />
    </pattern>
    
    <pattern id="pinkDotz" width="4" height="4" viewBox="-2 -2 4 4" patternUnits="userSpaceOnUse" patternTransform="rotate(45) scale(1)">
      <path d="M-2 -2h4v4h-4z" fill="var(--dd-pink)" />
      <circle r="0.8" fill="#fff" />
    </pattern>
    
    
    <linearGradient id="donutFade" gradientUnits="objectBoundingBox">
      <stop offset="0%" stop-color="var(--donut-lite)" />
      <stop offset="90%" stop-color="var(--donut-dark)" />
    </linearGradient>

    <linearGradient id="fade6" href="#donutFade" gradientTransform="rotate(-45)" />
    <linearGradient id="fade7" href="#donutFade" gradientTransform="translate(-0.5 0)" />
    <linearGradient id="fade8" href="#donutFade" gradientTransform="rotate(45) translate(-0.25 0)" />
    
    <mask id="fade-mask" maskUnits="objectBoundingBox" maskContentUnits="objectBoundingBox">
      <linearGradient id="fade-gradient" gradientTransform="rotate(-30)">
        <stop offset="0%" stop-color="#fff" stop-opacity="1" />
        <stop offset="20%" stop-color="#fff" stop-opacity="0" />
      </linearGradient>
      <rect width="1" height="1" fill="url(#fade-gradient)" />
    </mask>

</defs>
 
<defs>
  <g id="ikon">
    
    <rect width="600" height="800" fill="url(#orangeDotz)" />
    <g>
      <defs>
        <rect id="rex" x="17" y="55" width="134" height="170" fill="none" stroke="#909"/>
        <clipPath id="panel1" maskUnits="userSpaceOnUse">
          <path d="M17 55h134v170H17Z" />
        </clipPath>
      </defs>
      <use href="#rex" />
      <use href="#rex" x="144" />
      <use href="#rex" x="288" />
      <use href="#rex" x="432" />
    </g>
            
      <g clip-path="url(#panel1)" transform="translate(0 105) scale(0.13)">
    <g id="boxDude">
        <ellipse id="shadow" cx="395" cy="482" rx="350" ry="16" fill="rgb(97,58,0)" />
                
        <clipPath id="nutClip">
            <path d="m640 85 h210 v150 h-50 l-56 -38q-25 28 -18 60v8H640z"/>
        </clipPath>
        
        <g id="nut" clip-path="url(#nutClip)">
            
            <path id="nutFill" d="M 657 200 a 99 72 -38 1 1 0 0.01z M762 154 q-50 25 -33 56 Q785 194 762 154Z " fill="url(#fade8)"/>
        
            <path id="nutOutlinez" d="M 642 199 a 108 78 -30 1 1 0 0.01 z M 659 200 a 96 68 -38 1 1 0 0.01 z  M 735 205 C 726 196 723 177 758 158 C 769 168 768 179 763 189 C 765 188 767 187 768 187 C 771 176 771 164 767 153 C 770 152 774 150 777 149 L 786 144 C 724 158 711 198 729 213 Z" fill-rule="evenodd" fill="rgb(97,58,0)"/>
        </g>
            
        <defs>
        <path id="frontPanel" d="M 374 487 L 622 359 L 815 301 C 783 272 758 240 740 205 C 720 224 720 255 739 300 C 684 318 634 331 588 338 L 590 322 L 564 326 L 581 265 C 477 315 363 336 239 328 C 255 363 264 387 267 404 L 257 411 L 282 408 L 275 414 C 274 445 271 472 264 487 Z "
        />
        </defs>
        
        <use href="#frontPanel" fill="var(--dd-pink)" />
        <use href="#frontPanel"
            fill="url(#pinkDotz)" mask="url(#fade-mask)"
        />
            
        <path id="sidePanel" d="m 160 475 l -9 -76 l 7 -16 l -60 -102 c 30 26 77 41 141 47 c 16 35 25 59 28 76 l -10 7 l 25 -3 l -7 6 c -1 31 -4 58 -11 73 z" fill="url(#orangeDotz)" x-fill="var(--dd-orange,#fff)" />
        
        <g id="panelDecor" opacity="var(--show-decor,0)" fill="#fff" fill-opacity="0.5" stroke="#fff" stroke-width="2">
            
            <path d="M 381 484 C 387 456 342 434 274 437 C 248 421 218 445 239 487 L 160 479 L 159 427 C 159 418 161 405 172 401 L 178 402 C 188 372 231 355 262 383 C 380 348 503 371 501 423 L 381 484 Z " />
                
            <path d="M 192 324 C 211 344 218 372 212 408 L 201 407 C 193 444 179 461 158 458 L 151 400 L 159 383 C 171 365 169 341 155 312 L 192 324 Z " />
            
            <path d="M 314 492 C 322 418 380 345 456 312 L 529 287 C 535 300 535 316 529 335 C 537 334 543 339 546 350 Q 600 344 600 368 L 525 410 C 516 341 440 347 410 479 L 314 492 Z " />
        </g>
        
        <path id="throat" d=" M 168 163 C 205 145 242 134 277 130 L 314 179 C 379 176 442 166 502 151 C 462 178 441 211 438 250 C 468 269 506 278 554 277 C 359 349 207 351 99 282 C 116 243 139 203 168 163 Z " fill="var(--outline-color,#000)"/>
        
        <path id="lidTop" d=" M 233 89 C 341 47 455 34 577 49 L 578 53 Q 396 41 273 130 C 238 134 203 146 170 166 L 233 89 Z " fill="url(#fade6)"/>
            
        <path id="lidFace" d="M 592 111 L 587 52 L 578 53 Q 396 41 273 129 Q 291 155 314 182 C 426 174 518 150 592 111 Z " fill="url(#fade7)"/>
            
        <g id="boxOutline" fill="var(--outline-color,#000)">
            
            <path d=" M 250 350 C 259 369 265 386 269 403 L 279 400 L 261 410 C 272 407 285 406 301 407 C 290 408 283 411 277 414 C 277 434 275 452 272 467 L 267 474 C 272 454 274 435 273 416 L 259 423 L 278 410 C 272 410 262 411 247 414 L 265 405 C 262 387 256 368 246 347 L 250 350 Z " fill="var(--dd-pink-dark,rgba(0,0,0,0.4))" />
            
            <path d="
            M 104 287 C 127 323 151 359 171 400 L 164 400 C 146 365 120 330 93 284 C 114 225 164 153 231 85 C 354 39 474 26 592 48 L 597 111 C 541 150 445 175 310 187 L 269 136 C 225 139 184 159 145 197 L 171 158 C 213 137 246 128 280 124 L 320 175 C 431 167 519 143 585 105 L 578 53 C 472 38 359 52 237 97 C 175 152 128 220 104 287 Z
            
            M 158 398 L 198 403 L 192 405 L 161 401 L 158 398 Z
            
            M 571 324 L 558 327 C 562 308 567 289 574 270 C 398 354 185 356 103 290 L 102 280 C 181 343 398 346 590 256 C 578 283 572 306 571 324 Z
            
            M 513 340 C 537 331 565 323 594 318 C 595 325 595 332 593 338 L 582 339 C 584 334 585 329 584 325 C 565 328 541 332 513 340 Z
            
            M 267 497 L 155 484
            C 156 450 153 422 143 401
            L 155 373
            L 160 385 L 152 401 C 160 425 164 448 164 470 L 271 483 C 326 483 360 483 394 471 C 481 434 602 340 797 299 C 767 282 748 250 741 210 C 723 217 724 250 742 302 l2 5 l-5 -4.5 C 687 322 595 341 558 345 L 567 339 C 605 335 688 317 735 297 C 715 251 719 218 740 197 C 768 185 791 180 816 183 Q 797 223 798 245 Q 791 234 780 228 C 799 246 820 278 831 312 C 502 366 532 450 379 492 C 362 494 324 496 267 497 Z
        
            M 534 353 L 580 331 L 577 335 L 541 354 L 534 353 Z
        
            M 512 142 C 468 186 446 222 446 251 C 480 268 518 275 561 270 L 541 281 C 490 281 454 271 430 255 C 434 225 449 192 486 152 Z

            M 365 80 Q 470 40 585 50 V55 Q475 42 365 80 Z
            " />
            <!--
            M 265 128 C 317 93 372 72 429 62 C 370 79 320 103 279 134 L 265 128 Z
            -->
        
        </g>
      </g>
       </g>
       
    <g id="border">
    
      <path d="M 17 17 H 583" stroke-width="1" stroke="var(--border-color,var(--outline-color,#000))" fill="none" />
    
      <path id="LivingThingsTitle" d="M 149 19 L 149 12 L 141 13 L 141 13 L 142 15 L 145 14 L 145 16 L 145 16 C 143 18 140 17 140 13 C 140 11 143 9 144 11 L 147 5 C 142 3 135 6 134 11 L 134 4 L 129 4 L 130 11 L 126 4 L 120 6 L 121 21 L 124 21 L 124 14 L 124 14 L 128 22 L 134 20 L 134 16 C 134 16 134 16 134 17 C 136 22 141 23 145 21 L 144 22 L 150 21 L 149 20 C 156 24 165 21 162 15 C 161 12 157 12 155 11 C 153 10 156 9 159 12 L 163 8 C 156 0 145 6 150 12 C 152 14 155 13 156 15 C 157 16 154 17 152 15 L 149 19 Z M 106 10 L 104 11 L 104 4 L 98 5 L 98 5 L 98 5 L 98 4 L 80 4 L 80 8 L 85 7 L 85 21 L 94 20 L 93 7 L 96 7 L 98 21 L 104 21 L 104 16 L 104 16 L 104 16 L 104 16 L 104 16 L 107 15 L 107 21 L 111 21 L 111 4 L 106 4 L 106 10 L 106 10 Z M 58 20 L 53 22 L 48 13 L 48 21 L 45 21 L 44 6 L 51 4 L 54 10 L 53 4 L 58 5 L 58 10 C 60 6 66 3 71 5 L 68 11 C 66 10 63 11 63 13 C 63 17 67 17 69 15 L 69 14 L 67 15 L 66 12 L 66 12 L 72 12 L 73 22 L 68 21 C 66 23 61 22 58 17 Z M 17 6 C 20 3 24 9 16 11 C 9 6 15 2 17 6 Z M 0 5 L 9 4 L 9 18 L 14 17 L 14 21 L 1 22 Z M 112 12 L 119 11 L 118 22 L 113 21.6 Z M 113 9 L 113 4 L 118.5 4 L 118 9 Z M 15 12 C 7 6 14 0 17 5 C 19 3 21 4 22 6 L 29 4 L 30 14 L 33 4 L 36 5 L 44 4 L 43 21 L 37 21 L 36 7 L 32 22 L 29 21.4 L 26 22 L 22 8 C 22 9 20 11 17 12 L 21 12 L 20 22 L 15 22.5 L 14 12 Z M 112 10 L 112 3 L 120 3 L 119 10 Z" fill-rule="evenodd" fill="var(--title-color,var(--border-color,var(--outline-color,#000)))" transform="translate(28 20)" />
    
    </g>
                 
    <!-- DEBUGG -->
    <!--<rect width="600" height="800" fill="rgba(200,0,0,0.4)" x="0" y="0" />-->
    <!--<circle r="10" fill="#909" cx="00" cy="00" />-->
    
    
    <path id="test" fill="none" stroke="blue" stroke-width="1" opacity="0.5" d="

            
    " />
    
    
  </g>
    
</defs>

<use href="#ikon"/>

</svg>