<svg xmlns="http://www.w3.org/2000/svg" xmlns:xlink="http://www.w3.org/1999/xlink" style="isolation:isolate" viewBox="-1347.087 -494.691 801.744 375" width="801.744pt" height="375pt">
    
    <defs><clipPath id="_clipPath_am48ig1oyacKFQbo7clEgEmWImiDxidi"><rect x="-1347.087" y="-494.691" width="801.744" height="375"/></clipPath></defs><g clip-path="url(#_clipPath_am48ig1oyacKFQbo7clEgEmWImiDxidi)"><rect x="-1347.087" y="-494.691" width="801.744" height="375" transform="matrix(1,0,0,1,0,0)" fill="rgb(255,255,255)"/><path d=" M -1305.826 -224.037 C -1305.826 -227.054 -1222.197 -229.503 -1119.189 -229.503 C -1016.181 -229.503 -932.552 -227.054 -932.552 -224.037 C -932.552 -221.02 -1023.923 -215.474 -1126.93 -215.474 C -1229.938 -215.474 -1305.826 -221.02 -1305.826 -224.037 Z " fill="rgb(97,58,0)"/><path d=" M -1129.004 -223.408 L -995.264 -292.368 L -891.279 -323.727 C -908.39 -339.175 -921.835 -356.378 -931.617 -375.343 C -942.238 -365.098 -942.4 -348.035 -932.105 -324.161 C -961.778 -314.148 -988.928 -307.336 -1013.56 -303.73 L -1012.703 -312.474 L -1026.247 -310.245 L -1017.205 -342.86 C -1073.218 -316.24 -1134.625 -304.944 -1201.429 -308.975 C -1193.118 -289.914 -1187.909 -277.492 -1186.223 -268.157 L -1191.8 -264.579 L -1178.33 -265.737 L -1182.014 -262.475 C -1182.41 -245.992 -1184.116 -231.366 -1187.854 -223.327 L -1129.004 -223.408 Z " fill="rgb(233,56,140)"/><mask id="_mask_x3rOfLqp6iHvphXIa1oQHnsI8zzQaO9x"><path d=" M -1243.974 -230.109 L -1248.888 -270.87 L -1244.841 -279.253 L -1277.507 -334.179 C -1261.364 -320.475 -1236.004 -312.073 -1201.429 -308.975 C -1193.118 -289.914 -1187.909 -277.492 -1186.223 -268.157 L -1191.8 -264.579 L -1178.33 -265.737 L -1182.014 -262.475 C -1182.41 -245.992 -1184.116 -231.366 -1187.854 -223.327 L -1243.974 -230.109 Z " fill="white" stroke="none"/></mask><path d=" M -1243.974 -230.109 L -1248.888 -270.87 L -1244.841 -279.253 L -1277.507 -334.179 C -1261.364 -320.475 -1236.004 -312.073 -1201.429 -308.975 C -1193.118 -289.914 -1187.909 -277.492 -1186.223 -268.157 L -1191.8 -264.579 L -1178.33 -265.737 L -1182.014 -262.475 C -1182.41 -245.992 -1184.116 -231.366 -1187.854 -223.327 L -1243.974 -230.109 Z " fill="rgb(241,126,6)"/><path d=" M -1243.974 -230.109 L -1248.888 -270.87 L -1244.841 -279.253 L -1277.507 -334.179 C -1261.364 -320.475 -1236.004 -312.073 -1201.429 -308.975 C -1193.118 -289.914 -1187.909 -277.492 -1186.223 -268.157 L -1191.8 -264.579 L -1178.33 -265.737 L -1182.014 -262.475 C -1182.41 -245.992 -1184.116 -231.366 -1187.854 -223.327 L -1243.974 -230.109 Z " fill="rgb(241,126,6)" mask="url(#_mask_x3rOfLqp6iHvphXIa1oQHnsI8zzQaO9x)" vector-effect="non-scaling-stroke" stroke-width="2" stroke="rgb(241,128,11)" stroke-linejoin="miter" stroke-linecap="square" stroke-miterlimit="3"/><g opacity="0.48"><path d=" M -1125.013 -224.754 C -1121.573 -240.265 -1145.991 -251.808 -1182.729 -250.504 C -1196.825 -258.69 -1213.03 -245.815 -1201.376 -223.422 L -1243.747 -227.668 L -1244.426 -255.499 C -1244.794 -260.559 -1243.322 -267.55 -1237.711 -269.758 L -1234.423 -269.179 C -1228.68 -285.335 -1205.578 -294.204 -1189.139 -279.39 C -1125.568 -298.325 -1059.171 -286.112 -1060.416 -258.024 L -1125.013 -224.754 Z " fill="rgb(255,255,255)" fill-opacity="0.24" vector-effect="non-scaling-stroke" stroke-width="2" stroke="rgb(255,255,255)" stroke-linejoin="miter" stroke-linecap="square" stroke-miterlimit="3"/></g><path d=" M -1239.818 -397.984 C -1219.586 -407.729 -1200.038 -413.644 -1181.179 -415.733 L -1161.183 -388.997 C -1126.087 -391.031 -1092.347 -396.047 -1059.97 -404.05 C -1081.178 -389.505 -1092.55 -371.905 -1094.092 -351.253 C -1078.314 -340.738 -1057.586 -335.766 -1031.914 -336.34 C -1137.117 -297.691 -1218.731 -296.762 -1276.762 -333.558 C -1267.474 -354.946 -1255.158 -376.42 -1239.818 -397.984 Z " fill="rgb(97,58,0)"/><linearGradient id="_lgradient_3" x1="0.33119806058020096" y1="0.4971506619912192" x2="0.8802217489950968" y2="0.1374093053065057" gradientTransform="matrix(220.036,0,0,66.193,-1238.735,-462.504)" gradientUnits="userSpaceOnUse"><stop offset="0%" stop-opacity="1" style="stop-color:rgb(213,170,106)"/><stop offset="98.33333333333333%" stop-opacity="1" style="stop-color:rgb(242,225,200)"/></linearGradient><path d=" M -1204.495 -437.423 C -1146.701 -460.104 -1085.039 -467.401 -1019.514 -459.318 L -1018.698 -456.934 Q -1116.856 -463.574 -1183.139 -415.557 C -1202.069 -413.556 -1220.599 -407.139 -1238.735 -396.311 L -1204.495 -437.423 Z " fill="url(#_lgradient_3)"/><linearGradient id="_lgradient_4" x1="-0.7847664223015374" y1="1.741193049400023" x2="0.8842023973742719" y2="0.20528097931138478" gradientTransform="matrix(171.562,0,0,69.956,-1183.139,-457.741)" gradientUnits="userSpaceOnUse"><stop offset="0%" stop-opacity="1" style="stop-color:rgb(213,170,106)"/><stop offset="98.33333333333333%" stop-opacity="1" style="stop-color:rgb(242,225,200)"/></linearGradient><path d=" M -1011.578 -426.042 L -1013.979 -457.569 L -1018.698 -456.934 Q -1116.856 -463.574 -1183.139 -415.557 Q -1173.395 -402.178 -1161.144 -387.785 C -1100.845 -392.07 -1050.988 -404.821 -1011.578 -426.042 Z " fill="url(#_lgradient_4)"/><linearGradient id="_lgradient_5" x1="0.18889272027815993" y1="0.7491600909498923" x2="0.9091905553784791" y2="0.19657752045150256" gradientTransform="matrix(101.478,0,0,89.07,-979.999,-436.158)" gradientUnits="userSpaceOnUse"><stop offset="0%" stop-opacity="1" style="stop-color:rgb(213,170,106)"/><stop offset="100%" stop-opacity="1" style="stop-color:rgb(242,226,201)"/></linearGradient><path d=" M -899.774 -433.7 L -910.258 -436.158 L -926.311 -434.683 L -950.882 -424.855 L -971.112 -404.543 L -979.999 -382.306 L -976.722 -364.451 L -970.662 -356.916 L -962.307 -350.528 L -946.91 -347.088 L -939.211 -347.088 L -940.112 -361.585 L -935.361 -372.068 L -939.129 -377.965 L -937.736 -388.367 L -929.71 -397.049 L -919.39 -402.454 L -916.605 -394.755 L -917.097 -384.927 L -919.226 -379.849 L -900.552 -362.813 L -888.676 -373.133 L -879.012 -388.531 L -878.52 -410.809 L -888.84 -428.172 L -899.774 -433.7 Z " fill="url(#_lgradient_5)"/><path d=" M -1274.247 -331.334 C -1261.517 -311.864 -1248.653 -292.426 -1238.207 -270.381 L -1242.014 -270.381 C -1251.627 -288.853 -1265.312 -307.945 -1280.08 -332.562 C -1268.668 -364.283 -1242.006 -403.404 -1205.932 -439.975 C -1139.737 -464.833 -1074.837 -471.389 -1011.236 -459.648 L -1008.523 -425.729 C -1038.982 -404.754 -1090.537 -391.184 -1163.194 -385.026 L -1185.36 -412.31 C -1208.786 -410.863 -1231.029 -399.926 -1252.092 -379.504 L -1237.906 -400.41 C -1215.464 -411.764 -1197.853 -416.771 -1179.294 -419.076 L -1157.767 -391.131 C -1098.26 -395.817 -1050.771 -408.479 -1015.306 -429.121 L -1018.698 -456.934 C -1075.832 -465.313 -1137.111 -457.397 -1202.541 -433.191 C -1235.991 -403.772 -1261.144 -367.253 -1274.247 -331.334 Z " fill="rgb(97,58,0)"/><path d=" M -1195.538 -296.998 C -1190.722 -287.164 -1187.347 -277.761 -1185.416 -268.793 L -1180.065 -270.239 L -1189.465 -265.032 C -1183.724 -266.432 -1176.655 -266.961 -1168.261 -266.623 C -1173.842 -265.676 -1178.034 -264.372 -1180.842 -262.718 C -1180.832 -251.88 -1181.843 -242.423 -1183.879 -234.351 L -1186.193 -230.59 C -1183.523 -241.259 -1182.461 -251.624 -1183.012 -261.688 L -1190.531 -257.782 L -1180.698 -264.725 C -1183.487 -264.889 -1188.981 -264.165 -1197.183 -262.555 L -1187.205 -267.329 C -1188.885 -276.997 -1192.451 -287.445 -1197.906 -298.679 L -1195.538 -296.998 Z " fill="rgb(186,56,91)"/><path d=" M -1244.911 -271.167 L -1223.711 -268.657 L -1226.64 -267.401 L -1243.516 -269.633 L -1244.911 -271.167 Z " fill="rgb(97,58,0)"/><path d=" M -1022.787 -310.906 C -1022.257 -320.844 -1018.91 -333.216 -1012.744 -348.017 C -1115.852 -299.117 -1232.566 -300.957 -1275.093 -334.757 L -1274.457 -329.641 C -1230.671 -293.88 -1115.836 -294.878 -1021.189 -340.164 C -1025.014 -330.156 -1027.815 -319.939 -1029.592 -309.511 L -1022.787 -310.906 L -1022.787 -310.906 Z " fill="rgb(97,58,0)"/><path d=" M -1054.111 -302.747 C -1040.844 -307.639 -1026.185 -311.586 -1010.14 -314.592 C -1009.763 -310.621 -1009.972 -306.936 -1010.771 -303.542 L -1016.77 -303.227 C -1015.701 -305.851 -1015.278 -308.27 -1015.507 -310.488 C -1025.972 -309.225 -1038.838 -306.643 -1054.111 -302.747 Z " fill="rgb(97,58,0)"/><path d=" M -1186.484 -217.943 L -1246.952 -225.209 C -1246.303 -243.251 -1247.733 -258.134 -1251.245 -269.863 L -1246.522 -284.708 L -1243.822 -278.298 L -1248.208 -269.863 C -1244.186 -256.925 -1242.03 -244.528 -1241.744 -232.677 L -1184.114 -225.53 C -1154.397 -225.522 -1136.065 -225.667 -1117.757 -231.79 C -1071.417 -252.185 -1005.945 -302.808 -900.86 -324.645 C -917.232 -333.717 -927.481 -351.047 -931.192 -372.484 C -940.684 -368.882 -940.28 -350.97 -930.403 -322.908 C -960.078 -312.195 -1009.926 -301.923 -1029.479 -299.864 L -1024.848 -303.209 C -1004.524 -305.01 -959.758 -314.786 -934.287 -325.849 C -945.444 -350.358 -943.288 -368.126 -931.86 -379.503 C -916.456 -385.956 -904.184 -388.636 -891.013 -387.206 Q -901.143 -365.647 -900.517 -353.918 Q -904.062 -359.548 -910.436 -362.79 C -900.187 -353.225 -888.819 -335.953 -882.689 -317.624 C -1059.674 -288.317 -1043.513 -243.497 -1126.36 -220.815 C -1135.407 -219.438 -1155.447 -218.479 -1186.484 -217.943 Z " fill="rgb(97,58,0)"/><path d=" M -1042.745 -295.381 L -1018.119 -307.588 L -1019.382 -305.273 L -1039.061 -294.749 L -1042.745 -295.381 Z " fill="rgb(97,58,0)"/><path d=" M -1054.326 -408.98 C -1078.342 -385.694 -1089.962 -365.929 -1089.881 -350.46 C -1071.818 -341.105 -1051.149 -337.749 -1027.878 -340.398 L -1038.832 -334.343 C -1066.496 -334.558 -1085.522 -339.953 -1096.211 -349.776 C -1096.391 -364.675 -1088.164 -382.238 -1068.511 -403.594 L -1054.326 -408.98 Z " fill="rgb(97,58,0)"/><path d=" M -1187.359 -416.911 L -1179.716 -413.46 C -1157.752 -430.292 -1130.889 -443.192 -1099.133 -452.165 C -1130.016 -447.034 -1159.423 -435.281 -1187.359 -416.911 Z " fill="rgb(97,58,0)"/><path d=" M -935.593 -375.092 C -939.135 -379.986 -940.791 -390.403 -921.918 -400.784 L -921.918 -400.784 L -921.918 -400.784 C -916.374 -395.186 -916.708 -389.09 -919.366 -384.09 C -918.395 -384.389 -917.434 -384.667 -916.482 -384.927 L -916.482 -384.927 C -914.926 -390.801 -914.877 -397.379 -917.181 -403.181 C -915.497 -403.969 -913.683 -404.755 -911.732 -405.535 L -906.846 -407.978 C -940.179 -400.464 -947.407 -378.924 -938.159 -370.77 C -937.416 -372.283 -936.56 -373.724 -935.593 -375.092 Z  M -897.864 -370.077 C -882.019 -386.893 -877.314 -408.82 -887.841 -422.791 C -900.157 -439.137 -928.69 -438.442 -951.518 -421.241 C -974.346 -404.04 -982.88 -376.805 -970.564 -360.459 L -970.564 -360.459 L -970.564 -360.459 L -970.564 -360.459 C -964.151 -351.949 -953.343 -348.058 -941.232 -348.712 C -941.103 -347.678 -940.942 -346.625 -940.747 -345.555 C -957.33 -344.495 -971.955 -350.237 -979.046 -362.281 L -979.046 -362.281 L -979.046 -362.281 L -979.046 -362.281 C -990.642 -381.978 -977.723 -411.119 -950.214 -427.314 C -922.704 -443.51 -890.955 -440.667 -879.359 -420.97 C -868.985 -403.349 -878.23 -378.171 -899.99 -361.463 Q -899.322 -365.409 -897.864 -370.077 Z " fill-rule="evenodd" fill="rgb(97,58,0)"/><path d=" M -787.713 -431.949 C -766.388 -403.272 -758.843 -347.209 -781.261 -314.356 Q -773.785 -315.591 -769.537 -315.644 L -769.794 -308.043 L -761.291 -303.147 Q -758.994 -302.198 -762.193 -298.541 C -765.51 -294.751 -774.285 -288.107 -777.911 -285.529 C -761.25 -286.236 -733.183 -272.213 -724.972 -252.198 C -691.643 -244.69 -665.621 -244.451 -646.917 -251.493 L -631.327 -313.37 L -651.432 -342.821 L -691.618 -361.272 L -680.549 -398.77 L -694 -436.706 C -726.923 -438.873 -758.158 -437.284 -787.713 -431.949 Z " fill="rgb(97,58,0)"/><path d=" M -742.845 -364.914 C -749.556 -358.178 -760.712 -357.925 -764.278 -361.732 C -765.756 -336.998 -771.286 -325.308 -782.254 -314.847 L -764.436 -317.794 L -765.704 -306.718 L -760.184 -305.25 L -757.043 -312.808 L -752.564 -314.075 L -747.432 -314.847 L -753.948 -311.511 L -754.392 -298.659 Q -762.793 -291.844 -770.476 -285.503 C -752.821 -282.464 -735.944 -270.153 -724.972 -252.198 L -707.656 -292.317 L -705.005 -308.864 L -687.077 -304.246 C -698.398 -307.868 -706.908 -315.958 -702.771 -315.369 C -719.781 -321.18 -745.601 -354.483 -742.845 -364.914 Z " fill="rgb(85,52,2)"/><ellipse vector-effect="non-scaling-stroke" cx="-742.5267711848485" cy="-220.7666194610448" rx="97.60764161283714" ry="2.823277278714329" fill="rgb(55,33,0)"/><path d=" M -813.939 -432.947 C -811.728 -429.208 -809.683 -425.504 -807.804 -421.835 C -838.485 -383.134 -836.598 -349.299 -802.157 -320.346 C -803.933 -316.868 -805.939 -313.438 -808.174 -310.056 C -799.214 -319.976 -789.852 -328.245 -780.096 -334.875 C -771.599 -362.612 -774.353 -389.278 -788.367 -414.883 L -813.939 -432.947 Z " fill="rgb(185,185,185)"/><path d=" M -799.054 -420.265 L -790.125 -432.947 C -759.646 -411.488 -753.598 -342.274 -783.616 -314.385 C -788.472 -315.927 -792.132 -318.756 -794.607 -322.881 C -790.924 -327.079 -786.679 -330.832 -781.882 -334.153 C -773.894 -354.344 -776.478 -381.251 -789.644 -414.883 L -799.054 -420.265 Z " fill="rgb(235,213,179)"/><path d=" M -768.699 -316.564 L -769.677 -307.572 L -760.698 -304.093 L -761.709 -298.659 L -779.026 -285.503 L -765.438 -284.199 L -751.74 -298.659 L -747.595 -314.709 L -757.043 -312.808 L -763.206 -318.699 L -768.699 -316.564 Z " fill="rgb(235,213,179)"/><path d=" M -807.059 -421.603 L -813.284 -431.322 C -844.676 -391.015 -839.979 -348.71 -807.059 -310.056 L -800.399 -319.471 C -832.972 -336.612 -834.713 -401.187 -807.059 -421.603 Z " fill="rgb(40,40,40)"/><path d=" M -678.206 -393.227 L -687.712 -359.725 L -650.805 -339.734 L -678.206 -393.227 Z " fill="rgb(0,0,0)"/><path d=" M -783.616 -283.686 C -763.647 -289.988 -737.953 -278.886 -724.972 -253.462 C -701.112 -245.207 -675.091 -244.548 -646.917 -251.493 L -662.883 -226.899 L -720.648 -227.552 L -776.239 -259.251 L -783.616 -283.686 Z " fill="rgb(185,185,185)"/><path d=" M -684.172 -405.774 L -687.712 -387.936 L -698.74 -371.593 L -705.005 -361.732 L -702.576 -346.3 L -695.383 -340.706 L -683.397 -346.3 L -662.164 -334.153 L -642.641 -329.663 L -642.641 -329.663 L -651.432 -341.665 L -680.549 -359.725 L -682.597 -364.914 L -676.684 -390.251 L -684.172 -405.774 Z " fill="rgb(249,202,131)"/><path d=" M -822.158 -373.143 C -815.212 -366.405 -807.417 -366.489 -797.884 -372.822 C -799.326 -324.291 -817.196 -335.876 -819.381 -366.751 L -824.83 -371.879 L -822.158 -373.143 Z " fill="rgb(0,0,0)"/><path d=" M -813.279 -432.947 C -786.843 -398.905 -780.613 -362.21 -794.607 -322.881 L -808.851 -313.048 C -779.84 -332.876 -786.488 -398.824 -816.431 -432.947 L -813.279 -432.947 Z " fill="rgb(0,0,0)"/><path d=" M -826.113 -386.344 C -825.018 -400.367 -818.833 -413.393 -808.839 -424.133 L -806.646 -420.265 C -815.33 -413.009 -822.241 -401.266 -826.113 -386.344 Z " fill="rgb(0,0,0)"/><path d=" M -821.946 -346.812 C -815.581 -334.164 -808.8 -325.297 -799.78 -321.576 L -801.488 -319.257 C -809.642 -321.758 -815.848 -331.391 -821.946 -346.812 Z " fill="rgb(0,0,0)"/><path d=" M -785.914 -327.004 C -775.763 -360.012 -777.952 -390.623 -793.366 -418.86 L -792.087 -423.232 C -772.726 -390.006 -768.636 -355.347 -784.632 -323.405 L -785.914 -327.004 Z " fill="rgb(0,0,0)"/><path d=" M -796.499 -320.993 Q -789.091 -313.435 -785.156 -313.053 C -778.078 -312.365 -764.511 -332.188 -764.278 -361.732 C -768.036 -329.445 -779.791 -317.78 -785.156 -317.157 C -788.11 -316.813 -791.474 -319.024 -792.7 -323.799 L -796.499 -320.993 Z " fill="rgb(55,33,0)"/><path d=" M -801.358 -420.156 Q -794.728 -434.265 -789.339 -434.087 C -781.345 -433.822 -769.772 -418.899 -766.052 -389.305 C -773.999 -418.153 -785.225 -430.316 -788.368 -430.027 C -791.375 -429.751 -794.082 -425.997 -796.499 -418.775 L -801.358 -420.156 Z " fill="rgb(55,33,0)"/><path d=" M -760.698 -320.993 C -768.083 -317.35 -775.261 -315.867 -782.254 -316.564 L -783.753 -313.171 C -775.7 -312.931 -769.78 -314.341 -763.206 -317.659 L -760.698 -320.993 Z " fill="rgb(55,33,0)"/><path d=" M -771.095 -316.564 L -771.969 -307.15 L -760.698 -301.457 L -759.046 -305.668 L -767.724 -308.353 L -766.052 -317.659 L -771.095 -316.564 Z " fill="rgb(55,33,0)"/><path d=" M -745.339 -249.75 C -756.703 -261.32 -765.591 -269.423 -772.632 -268.194 C -755.372 -277.412 -744.211 -235.773 -705.005 -229.19 C -693.822 -227.408 -680.701 -227.405 -666.918 -229.19 L -662.883 -224.759 L -720.648 -227.552 C -728.203 -234.798 -739.285 -243.585 -745.339 -249.75 Z " fill="rgb(55,33,0)"/><path d=" M -767.724 -268.194 Q -765.312 -261.634 -750.465 -256.139 L -757.043 -262.541 L -767.724 -268.194 Z " fill="rgb(55,33,0)"/><path d=" M -764.278 -314.375 L -764.278 -317.139 Q -745.487 -345.215 -742.845 -372.832 Q -739.897 -344.992 -764.278 -314.375 Z " fill="rgb(55,33,0)"/><path d=" M -777.425 -287.306 C -755.481 -287.872 -738.595 -277.658 -726.798 -256.694 L -730.843 -259.251 C -747.763 -280.3 -762.081 -285.59 -778.227 -282.629 L -777.425 -287.306 Z " fill="rgb(55,33,0)"/><path d=" M -650.805 -249.589 C -673.48 -243.731 -696.487 -244.89 -722.38 -251.493 L -720.648 -252.198 C -691.723 -246.076 -666.486 -247.175 -646.917 -254.872 L -650.805 -249.589 Z " fill="rgb(55,33,0)"/><path d=" M -664.98 -224.861 L -662.883 -224.759 L -666.918 -229.19 C -680.701 -227.405 -693.822 -227.408 -705.005 -229.19 C -710.045 -229.905 -719.2 -230.22 -726.065 -232.522 C -748.137 -243.18 -767.399 -255.781 -771.526 -260.956 C -776.372 -267.732 -778.602 -274.953 -778.227 -282.629 L -759.046 -298.659 L -755.49 -313.37 L -759.046 -312.808 L -764.278 -298.058 L -784.363 -285.926 C -784.399 -275.072 -780.862 -263.144 -776.739 -255.291 Q -753.506 -235.247 -722.26 -220.767 L -664.332 -220.767 L -664.98 -224.861 Z " fill="rgb(55,33,0)"/><path d=" M -760.698 -298.659 C -757.885 -298.985 -754.668 -298.982 -751.057 -298.659 C -754.991 -298.598 -758.539 -298.146 -761.709 -297.311 L -760.698 -298.659 Z " fill="rgb(0,0,0)"/><path d=" M -729.707 -317.345 C -710.369 -314.022 -692.44 -308.854 -676.136 -298.659 L -679.727 -298.058 C -698.336 -308.146 -720.807 -314.121 -744.12 -315.534 L -729.707 -317.345 Z " fill="rgb(55,33,0)"/><path d=" M -725.037 -252.666 L -719.649 -256.843 L -725.037 -255.151 L -721.261 -259.025 L -722.143 -259.025 L -728.037 -253.833 L -722.955 -255.151 L -725.037 -252.666 Z " fill="rgb(55,33,0)"/><path d=" M -678.11 -357.337 C -677.895 -354.268 -678.721 -351.048 -680.299 -348.128 L -680.299 -348.128 L -680.299 -348.128 L -680.299 -348.128 C -669.921 -340.438 -657.571 -334.286 -643.241 -329.663 L -640.472 -325.149 C -659.088 -331.005 -673.315 -337.3 -683.141 -344.028 C -686.331 -340.431 -690.744 -337.889 -695.551 -337.698 C -700.025 -337.52 -712.103 -355.272 -703.806 -367.458 C -699.933 -373.145 -684.362 -393.083 -684.172 -414.54 L -680.549 -404.066 C -683.033 -389.475 -692.965 -377.644 -699.79 -366.398 C -705.103 -357.643 -702.276 -346.231 -694 -344.221 C -685.774 -342.223 -682.662 -352.951 -682.505 -358.734 C -682.236 -368.658 -694.775 -369.413 -692.962 -355.212 C -696.286 -360.198 -694.606 -364.829 -692.452 -366.398 C -689.442 -368.59 -686.764 -369.521 -684.537 -369.001 C -682.245 -376.124 -678.98 -381.814 -678.206 -391.664 L -676.136 -387.936 C -676.884 -377.949 -679.814 -373.478 -680.641 -365.909 C -679.849 -364.606 -679.191 -362.904 -678.691 -360.754 C -676.8 -359.022 -674.389 -357.21 -671.666 -355.407 Q -670.394 -366.666 -672.223 -379.998 L -670.476 -376.875 Q -669.138 -367.622 -670.398 -354.583 L -670.398 -354.583 C -669.402 -353.947 -668.371 -353.314 -667.296 -352.691 C -666.721 -358.301 -666.722 -364.295 -667.299 -370.675 L -665.707 -368.499 L -665.707 -368.499 L -665.707 -368.499 L -665.707 -368.499 C -665.361 -363.636 -665.471 -358.109 -666.027 -351.931 C -665.102 -351.404 -664.164 -350.88 -663.206 -350.37 C -662.831 -354.164 -662.725 -358.137 -662.883 -362.286 L -661.462 -360.507 L -661.462 -360.507 L -661.462 -360.507 C -661.437 -357.163 -661.596 -353.552 -661.936 -349.675 C -658.712 -347.973 -655.387 -346.377 -652.164 -344.982 L -648.577 -336.728 C -660.342 -343.68 -670.189 -350.552 -678.11 -357.337 Z " fill-rule="evenodd" fill="rgb(217,138,19)"/><path d=" M -690.967 -439.822 C -718.397 -442.932 -751.446 -441.017 -790.125 -434.087 L -785.156 -429.759 C -749.598 -436.21 -719.209 -437.649 -694 -434.087 C -681.605 -388.016 -659.55 -348.965 -634.23 -311.511 C -640.914 -290.501 -646.435 -269.857 -650.805 -249.589 C -656.019 -240.655 -662.617 -231.292 -670.476 -226.899 L -664.332 -220.767 Q -648.94 -236.479 -643.241 -249.589 C -639.777 -272.693 -634.534 -294.659 -627.533 -315.507 C -654.344 -345.116 -675.485 -386.551 -690.967 -439.822 Z " fill="rgb(55,33,0)"/><path d=" M -768.699 -429.318 C -743.019 -432.447 -715.688 -432.731 -696.937 -430.183 Q -674.845 -365.327 -643.241 -317.659 L -648.577 -320.511 Q -673.956 -356.695 -698.74 -423.232 C -715.438 -427.64 -731.465 -429.195 -763.589 -426.718 L -768.699 -429.318 Z " fill="rgb(255,255,255)" fill-opacity="0.22"/><path d=" M -700.683 -314.709 Q -687.501 -312.444 -674.151 -309.516 L -678.206 -308.353 Q -686.755 -310.849 -700.312 -313.37 C -700.673 -313.706 -703.041 -314.618 -700.683 -314.709 Z " fill="rgb(255,255,255)" fill-opacity="0.22"/><path d=" M -650.398 -328.759 C -665.041 -355.274 -676.81 -379.247 -685.753 -400.725 L -688.132 -395.134 L -655.305 -330.313 L -650.398 -328.759 Z " fill="rgb(255,255,255)" fill-opacity="0.48"/><path d=" M -701.608 -306.285 C -692.4 -303.814 -683.421 -299.43 -674.69 -293.159 L -677.337 -292.484 C -685.34 -298.479 -692.989 -301.553 -702.447 -304.876 C -702.699 -305.407 -703.566 -306.353 -701.608 -306.285 Z " fill="rgb(255,255,255)" fill-opacity="0.22"/><path d=" M -762.223 -312.352 L -760.698 -311.225 Q -726.078 -320.58 -688.987 -313.053 Q -722.298 -325.98 -762.223 -312.352 Z " fill="rgb(55,33,0)"/><path d=" M -787.85 -412.419 C -796.895 -416.451 -806.575 -422.978 -812.165 -430.901 C -842.118 -397.303 -839.995 -352.116 -808.174 -313.048 C -799.812 -321.768 -789.485 -331.603 -779.388 -339.076 L -781.882 -331.714 C -795.846 -324.425 -806.444 -305.381 -808.174 -307.438 C -838.439 -343.438 -846.769 -392.452 -813.125 -438.435 C -805.493 -428.803 -797.91 -422.018 -790.369 -418.076 L -787.85 -412.419 L -787.85 -412.419 Z " fill="rgb(0,0,0)"/><g><path d=" M -887.303 -145.092 C -890.693 -145.092 -891.9 -145.322 -893.108 -146.031 C -894.608 -146.804 -895.679 -148.214 -896.019 -149.867 C -896.297 -151.36 -896.38 -152.882 -896.267 -154.396 L -896.267 -177.481 C -896.415 -179.078 -896.331 -180.685 -896.019 -182.258 C -895.06 -185.365 -892.38 -186.805 -888.511 -186.805 L -879.797 -186.805 C -874.14 -187.039 -868.602 -185.138 -864.283 -181.477 C -859.803 -177.552 -857.218 -171.896 -857.183 -165.939 C -857.275 -160.066 -859.717 -154.475 -863.964 -150.418 C -866.909 -147.951 -870.403 -146.228 -874.152 -145.393 C -876.559 -145.074 -878.984 -144.92 -881.411 -144.931 L -887.303 -145.092 Z  M -882.458 -157.753 C -877.612 -157.753 -876.388 -157.983 -874.703 -159.173 C -872.261 -160.786 -870.877 -163.588 -871.079 -166.508 C -871.281 -169.427 -873.038 -172.011 -875.679 -173.273 C -877.423 -174.044 -879.332 -174.374 -881.234 -174.232 L -882.458 -174.232 L -882.458 -157.753 Z " fill-rule="evenodd" fill="rgb(233,56,140)"/><path d=" M -856.048 -166.097 C -855.701 -178.481 -845.387 -188.236 -833.01 -187.887 C -821.125 -187.552 -811.568 -177.99 -811.233 -166.097 C -811.582 -153.716 -821.896 -143.961 -834.271 -144.31 C -846.157 -144.645 -855.713 -154.207 -856.048 -166.098 L -856.048 -166.097 Z  M -841.991 -166.098 C -842.136 -161.45 -838.512 -157.551 -833.865 -157.356 C -829.218 -157.162 -825.281 -160.744 -825.038 -165.389 C -824.941 -167.698 -825.789 -169.946 -827.388 -171.615 C -828.986 -173.284 -831.196 -174.228 -833.507 -174.231 C -838.093 -174.32 -841.887 -170.683 -841.992 -166.097 L -841.991 -166.098 Z " fill-rule="evenodd" fill="rgb(233,56,140)"/><path d=" M -783.421 -147.47 L -794.567 -161.801 L -794.567 -152.726 C -794.332 -150.742 -794.944 -148.75 -796.253 -147.239 C -797.533 -145.595 -799.495 -144.627 -801.578 -144.611 C -803.762 -144.713 -805.794 -145.756 -807.152 -147.47 C -808.359 -148.908 -808.607 -150.099 -808.607 -153.207 L -808.607 -179.967 C -808.693 -181.907 -807.948 -183.791 -806.558 -185.147 C -805.168 -186.504 -803.266 -187.203 -801.329 -187.07 C -799.297 -187.108 -797.382 -186.12 -796.236 -184.441 L -784.859 -170.592 L -784.859 -178.708 C -785.037 -180.657 -784.521 -182.606 -783.403 -184.213 C -782.15 -185.925 -780.188 -186.975 -778.069 -187.068 C -775.95 -187.161 -773.903 -186.287 -772.505 -184.692 C -771.201 -183.168 -770.562 -181.185 -770.731 -179.186 L -770.731 -153.438 C -770.498 -151.22 -771.134 -148.998 -772.506 -147.24 C -773.743 -145.545 -775.733 -144.563 -777.831 -144.612 C -780.043 -144.602 -782.122 -145.668 -783.404 -147.471 L -783.421 -147.47 Z " fill-rule="evenodd" fill="rgb(233,56,140)"/><path d=" M -762.832 -151.288 C -765.495 -154.644 -766.223 -157.753 -766.223 -163.239 L -766.223 -178.05 C -766.223 -182.116 -765.974 -183.074 -765.015 -184.495 C -763.605 -186.109 -761.585 -187.062 -759.442 -187.123 C -757.512 -187.187 -755.651 -186.402 -754.349 -184.975 C -752.856 -183.462 -752.142 -181.347 -752.414 -179.239 L -752.414 -162.53 C -752.414 -159.42 -750.959 -157.503 -748.527 -157.503 C -746.095 -157.503 -744.409 -159.421 -744.409 -162.28 L -744.409 -179.186 C -744.409 -182.294 -744.179 -183.022 -742.954 -184.692 C -741.61 -186.222 -739.666 -187.09 -737.63 -187.069 C -735.604 -187.036 -733.681 -186.178 -732.304 -184.691 C -730.849 -183.252 -730.53 -181.814 -730.53 -178.226 L -730.53 -163.204 C -729.805 -153.267 -737.269 -144.622 -747.202 -143.896 C -747.619 -143.865 -748.038 -143.849 -748.456 -143.847 C -754.119 -143.949 -759.41 -146.688 -762.762 -151.253 L -762.832 -151.288 Z " fill-rule="evenodd" fill="rgb(233,56,140)"/><path d=" M -716.561 -147.47 C -717.573 -149.11 -717.999 -151.045 -717.768 -152.958 L -717.768 -174.267 L -721.638 -174.267 C -723.496 -174.071 -725.35 -174.678 -726.732 -175.937 C -728.069 -177.075 -728.862 -178.727 -728.915 -180.482 C -728.884 -182.899 -727.517 -185.1 -725.364 -186.2 C -723.909 -186.929 -723.431 -186.929 -717.609 -186.929 L -698.725 -186.929 C -695.544 -186.599 -693.133 -183.91 -693.151 -180.712 C -693.103 -178.801 -693.895 -176.965 -695.317 -175.687 C -696.868 -174.597 -698.755 -174.093 -700.643 -174.266 L -704.032 -174.266 L -704.032 -153.241 C -703.821 -151.329 -704.245 -149.402 -705.239 -147.755 C -706.414 -145.804 -708.535 -144.621 -710.812 -144.646 C -713.081 -144.687 -715.215 -145.735 -716.633 -147.506 L -716.561 -147.47 Z " fill-rule="evenodd" fill="rgb(233,56,140)"/><path d=" M -693.79 -154.396 C -693.79 -156.044 -693.136 -157.625 -691.971 -158.79 C -690.807 -159.956 -689.226 -160.611 -687.579 -160.612 L -687.49 -160.612 C -685.619 -160.59 -683.816 -159.911 -682.396 -158.694 C -679.485 -156.313 -679.005 -156.065 -677.799 -156.065 C -677.302 -156.063 -676.828 -156.27 -676.49 -156.634 C -676.153 -156.999 -675.983 -157.488 -676.023 -157.983 C -675.932 -158.761 -676.317 -159.517 -676.999 -159.901 C -677.921 -160.409 -678.898 -160.808 -679.911 -161.091 C -681.118 -161.57 -682.326 -161.802 -683.3 -162.28 C -689.602 -164.43 -692.496 -168.496 -692.496 -174.231 C -692.496 -182.346 -686.193 -187.851 -677 -187.851 C -669.245 -187.851 -663.422 -184.015 -663.422 -178.759 C -663.379 -177.32 -663.921 -175.924 -664.924 -174.89 C -665.927 -173.856 -667.307 -173.273 -668.747 -173.273 C -670.915 -173.293 -672.992 -174.144 -674.551 -175.651 C -676.006 -176.859 -676.734 -177.09 -677.462 -177.09 C -677.93 -177.133 -678.397 -176.988 -678.759 -176.686 C -679.121 -176.385 -679.348 -175.953 -679.391 -175.484 L -679.397 -175.421 C -679.397 -173.984 -678.438 -173.503 -675.047 -172.313 C -671.824 -171.421 -668.784 -169.966 -666.066 -168.016 C -663.213 -165.474 -661.623 -161.804 -661.719 -157.983 C -661.733 -154.298 -663.215 -150.771 -665.836 -148.181 C -668.499 -145.322 -672.369 -143.882 -677.71 -143.882 C -686.585 -143.882 -693.685 -148.66 -693.685 -154.396 L -693.79 -154.396 Z " fill-rule="evenodd" fill="rgb(233,56,140)"/></g><g><path d=" M -1028.182 -170.7 C -1032.702 -171.551 -1032.702 -177.002 -1032.702 -180.453 C -1032.702 -183.905 -1030.34 -187.654 -1027.111 -187.654 C -1023.883 -187.654 -1021.52 -184.267 -1021.52 -180.88 C -1021.52 -177.901 -1023.458 -170.48 -1027.537 -170.48 C -1027.774 -170.449 -1028.012 -170.531 -1028.181 -170.7" fill-rule="evenodd" fill="rgb(241,126,6)"/><path d=" M -1030.148 -170.942 C -1034.668 -171.793 -1034.668 -177.244 -1034.668 -180.695 C -1034.668 -184.147 -1032.306 -187.896 -1029.077 -187.896 C -1025.849 -187.896 -1023.486 -184.509 -1023.486 -181.121 C -1023.486 -178.143 -1025.424 -170.722 -1029.503 -170.722 C -1029.74 -170.691 -1029.978 -170.773 -1030.147 -170.942" fill-rule="evenodd" fill="rgb(241,126,6)"/><path d=" M -1264.373 -149.871 C -1267.38 -149.871 -1268.671 -150.076 -1269.758 -150.927 C -1271.01 -151.694 -1271.926 -152.903 -1272.325 -154.315 C -1272.571 -155.645 -1272.645 -157.001 -1272.546 -158.35 L -1272.546 -178.912 C -1272.664 -180.328 -1272.59 -181.754 -1272.325 -183.15 C -1271.254 -185.907 -1269.175 -187.167 -1265.458 -187.167 L -1257.709 -187.167 C -1252.696 -187.374 -1247.788 -185.687 -1243.962 -182.441 C -1240.014 -178.851 -1237.733 -173.784 -1237.662 -168.449 C -1237.747 -163.239 -1240.037 -158.309 -1243.962 -154.883 C -1246.392 -152.508 -1249.443 -150.87 -1252.765 -150.155 C -1254.906 -149.881 -1257.062 -149.744 -1259.222 -149.745 L -1264.373 -149.871 Z  M -1260.072 -161.311 C -1255.773 -161.531 -1254.702 -161.531 -1253.205 -162.587 C -1251.35 -163.999 -1250.243 -166.181 -1250.198 -168.512 C -1250.155 -171.245 -1251.765 -173.734 -1254.276 -174.815 C -1255.744 -175.524 -1257.378 -175.819 -1259.002 -175.666 L -1260.073 -175.666 L -1260.073 -161.248 L -1260.072 -161.311 Z " fill-rule="evenodd" fill="rgb(241,126,6)"/><path d=" M -1264.373 -150.113 C -1267.38 -150.113 -1268.671 -150.318 -1269.758 -151.169 C -1271.01 -151.935 -1271.926 -153.145 -1272.325 -154.557 C -1272.571 -155.887 -1272.645 -157.243 -1272.546 -158.591 L -1272.546 -179.154 C -1272.664 -180.57 -1272.59 -181.996 -1272.325 -183.392 C -1271.254 -186.149 -1269.175 -187.409 -1265.458 -187.409 L -1257.709 -187.409 C -1252.696 -187.616 -1247.788 -185.929 -1243.962 -182.683 C -1240.014 -179.093 -1237.733 -174.026 -1237.662 -168.691 C -1237.747 -163.481 -1240.037 -158.551 -1243.962 -155.125 C -1246.392 -152.75 -1249.443 -151.112 -1252.765 -150.397 C -1254.906 -150.123 -1257.062 -149.986 -1259.222 -149.987 L -1264.373 -150.113 Z  M -1260.072 -161.553 C -1255.773 -161.773 -1254.702 -161.773 -1253.205 -162.829 C -1251.35 -164.241 -1250.243 -166.423 -1250.198 -168.754 C -1250.155 -171.487 -1251.765 -173.976 -1254.276 -175.057 C -1255.744 -175.766 -1257.378 -176.061 -1259.002 -175.908 L -1260.073 -175.908 L -1260.073 -161.49 L -1260.072 -161.553 Z " fill-rule="evenodd" fill="rgb(241,126,6)"/><path d=" M -1198.819 -155.431 C -1201.181 -158.584 -1201.969 -161.168 -1201.969 -166.241 L -1201.969 -179.398 C -1201.969 -182.787 -1201.544 -183.842 -1200.393 -185.118 C -1199.201 -186.627 -1197.371 -187.49 -1195.448 -187.451 C -1193.751 -187.448 -1192.127 -186.76 -1190.944 -185.544 C -1189.653 -184.267 -1189.212 -182.991 -1189.212 -180.233 L -1189.212 -165.611 C -1189.212 -162.854 -1187.937 -161.168 -1185.779 -161.168 C -1183.621 -161.168 -1182.63 -162.854 -1182.63 -165.406 L -1182.63 -180.233 C -1182.819 -182.04 -1182.248 -183.845 -1181.053 -185.215 C -1179.858 -186.584 -1178.146 -187.394 -1176.33 -187.451 C -1174.514 -187.406 -1172.795 -186.62 -1171.574 -185.275 C -1170.487 -183.794 -1169.999 -182.739 -1169.999 -179.351 L -1169.999 -166.209 C -1169.999 -161.121 -1171.29 -157.513 -1174.078 -154.55 C -1177.038 -151.054 -1181.386 -149.036 -1185.967 -149.034 C -1191.023 -148.975 -1195.807 -151.313 -1198.867 -155.337 L -1198.819 -155.431 Z " fill-rule="evenodd" fill="rgb(241,126,6)"/><path d=" M -1198.819 -155.673 C -1201.181 -158.826 -1201.969 -161.41 -1201.969 -166.483 L -1201.969 -179.64 C -1201.969 -183.029 -1201.544 -184.084 -1200.393 -185.36 C -1199.201 -186.869 -1197.371 -187.732 -1195.448 -187.693 C -1193.751 -187.69 -1192.127 -187.002 -1190.944 -185.786 C -1189.653 -184.509 -1189.212 -183.233 -1189.212 -180.475 L -1189.212 -165.853 C -1189.212 -163.096 -1187.937 -161.41 -1185.779 -161.41 C -1183.621 -161.41 -1182.63 -163.096 -1182.63 -165.648 L -1182.63 -180.475 C -1182.819 -182.282 -1182.248 -184.087 -1181.053 -185.457 C -1179.858 -186.826 -1178.146 -187.636 -1176.33 -187.693 C -1174.514 -187.648 -1172.795 -186.862 -1171.574 -185.517 C -1170.487 -184.036 -1169.999 -182.981 -1169.999 -179.593 L -1169.999 -166.451 C -1169.999 -161.363 -1171.29 -157.755 -1174.078 -154.792 C -1177.038 -151.296 -1181.386 -149.278 -1185.967 -149.276 C -1191.023 -149.217 -1195.807 -151.555 -1198.867 -155.579 L -1198.819 -155.673 Z " fill-rule="evenodd" fill="rgb(241,126,6)"/><path d=" M -1142.124 -152.28 L -1151.999 -164.792 L -1151.999 -156.913 C -1151.857 -155.078 -1152.42 -153.258 -1153.573 -151.823 C -1154.787 -150.493 -1156.497 -149.724 -1158.298 -149.697 C -1160.274 -149.702 -1162.153 -150.551 -1163.464 -152.03 C -1164.441 -153.614 -1164.893 -155.466 -1164.755 -157.323 L -1164.755 -180.88 C -1164.876 -182.673 -1164.21 -184.43 -1162.93 -185.692 C -1161.65 -186.954 -1159.884 -187.596 -1158.093 -187.45 C -1156.291 -187.48 -1154.593 -186.605 -1153.573 -185.117 L -1143.683 -173.033 L -1143.683 -180.028 C -1143.81 -181.75 -1143.355 -183.464 -1142.391 -184.897 C -1141.175 -186.515 -1139.266 -187.462 -1137.242 -187.45 C -1135.431 -187.47 -1133.703 -186.692 -1132.518 -185.322 C -1131.365 -183.974 -1130.798 -182.221 -1130.942 -180.453 L -1130.942 -157.56 C -1130.942 -154.597 -1131.367 -153.321 -1132.518 -152.044 C -1133.654 -150.587 -1135.394 -149.729 -1137.242 -149.713 C -1139.181 -149.666 -1141.014 -150.595 -1142.124 -152.186 L -1142.124 -152.28 Z " fill-rule="evenodd" fill="rgb(241,126,6)"/><path d=" M -1142.124 -152.522 L -1151.999 -165.034 L -1151.999 -157.155 C -1151.857 -155.32 -1152.42 -153.5 -1153.573 -152.065 C -1154.787 -150.735 -1156.497 -149.966 -1158.298 -149.939 C -1160.274 -149.944 -1162.153 -150.793 -1163.464 -152.272 C -1164.441 -153.856 -1164.893 -155.708 -1164.755 -157.565 L -1164.755 -181.121 C -1164.876 -182.915 -1164.21 -184.672 -1162.93 -185.934 C -1161.65 -187.196 -1159.884 -187.838 -1158.093 -187.692 C -1156.291 -187.722 -1154.593 -186.847 -1153.573 -185.359 L -1143.683 -173.275 L -1143.683 -180.27 C -1143.81 -181.992 -1143.355 -183.706 -1142.391 -185.139 C -1141.175 -186.757 -1139.266 -187.704 -1137.242 -187.692 C -1135.431 -187.712 -1133.703 -186.934 -1132.518 -185.564 C -1131.365 -184.216 -1130.798 -182.463 -1130.942 -180.695 L -1130.942 -157.802 C -1130.942 -154.839 -1131.367 -153.563 -1132.518 -152.286 C -1133.654 -150.829 -1135.394 -149.971 -1137.242 -149.955 C -1139.181 -149.908 -1141.014 -150.837 -1142.124 -152.428 L -1142.124 -152.522 Z " fill-rule="evenodd" fill="rgb(241,126,6)"/><path d=" M -1103.209 -151.634 L -1112.452 -163.216 L -1112.452 -156.645 C -1112.452 -152.406 -1115.035 -149.649 -1118.893 -149.649 C -1122.752 -149.649 -1125.192 -152.406 -1125.192 -156.645 L -1125.192 -180.658 C -1125.192 -184.693 -1122.61 -187.45 -1118.893 -187.45 C -1117.123 -187.496 -1115.412 -186.806 -1114.169 -185.544 C -1113.004 -184.188 -1112.392 -182.444 -1112.452 -180.658 L -1112.452 -174.734 L -1105.571 -184.692 C -1104.465 -186.467 -1102.496 -187.518 -1100.405 -187.45 C -1096.987 -187.51 -1094.166 -184.788 -1094.106 -181.369 L -1094.105 -181.305 C -1094.166 -180.206 -1094.455 -179.132 -1094.956 -178.152 L -1101.413 -169.029 L -1093.665 -159.293 C -1092.877 -158.342 -1092.493 -157.12 -1092.593 -155.889 C -1092.627 -152.461 -1095.433 -149.71 -1098.86 -149.743 L -1098.893 -149.744 C -1100.55 -149.65 -1102.15 -150.359 -1103.192 -151.65 L -1103.209 -151.634 Z " fill-rule="evenodd" fill="rgb(241,126,6)"/><path d=" M -1103.209 -151.876 L -1112.452 -163.458 L -1112.452 -156.887 C -1112.452 -152.648 -1115.035 -149.891 -1118.893 -149.891 C -1122.752 -149.891 -1125.192 -152.648 -1125.192 -156.887 L -1125.192 -180.9 C -1125.192 -184.935 -1122.61 -187.692 -1118.893 -187.692 C -1117.123 -187.738 -1115.412 -187.048 -1114.169 -185.786 C -1113.004 -184.43 -1112.392 -182.686 -1112.452 -180.9 L -1112.452 -174.976 L -1105.571 -184.934 C -1104.465 -186.709 -1102.496 -187.76 -1100.405 -187.692 C -1096.987 -187.752 -1094.166 -185.03 -1094.106 -181.611 L -1094.105 -181.547 C -1094.166 -180.448 -1094.455 -179.374 -1094.956 -178.394 L -1101.413 -169.271 L -1093.665 -159.535 C -1092.877 -158.584 -1092.493 -157.362 -1092.593 -156.131 C -1092.627 -152.703 -1095.433 -149.952 -1098.86 -149.985 L -1098.893 -149.986 C -1100.55 -149.892 -1102.15 -150.601 -1103.192 -151.892 L -1103.209 -151.876 Z " fill-rule="evenodd" fill="rgb(241,126,6)"/><path d=" M -1087.082 -151.634 C -1088.374 -152.911 -1088.657 -154.187 -1088.657 -156.724 L -1088.657 -179.808 C -1088.657 -182.959 -1088.437 -184.046 -1087.082 -185.544 C -1085.927 -186.8 -1084.285 -187.495 -1082.578 -187.45 C -1080.801 -187.531 -1079.077 -186.835 -1077.853 -185.544 C -1076.562 -184.267 -1076.137 -182.991 -1076.137 -179.808 L -1076.137 -156.709 C -1075.989 -154.915 -1076.613 -153.144 -1077.853 -151.839 C -1079.014 -150.554 -1080.643 -149.788 -1082.373 -149.713 C -1084.126 -149.761 -1085.803 -150.437 -1087.098 -151.618 L -1087.082 -151.634 Z " fill-rule="evenodd" fill="rgb(241,126,6)"/><path d=" M -1087.082 -151.876 C -1088.374 -153.153 -1088.657 -154.429 -1088.657 -156.966 L -1088.657 -180.05 C -1088.657 -183.201 -1088.437 -184.288 -1087.082 -185.786 C -1085.927 -187.042 -1084.285 -187.737 -1082.578 -187.692 C -1080.801 -187.772 -1079.077 -187.077 -1077.853 -185.786 C -1076.562 -184.509 -1076.137 -183.233 -1076.137 -180.05 L -1076.137 -156.951 C -1075.989 -155.157 -1076.613 -153.386 -1077.853 -152.081 C -1079.014 -150.796 -1080.643 -150.03 -1082.373 -149.955 C -1084.126 -150.003 -1085.803 -150.679 -1087.098 -151.86 L -1087.082 -151.876 Z " fill-rule="evenodd" fill="rgb(241,126,6)"/><path d=" M -1047.962 -152.185 L -1057.853 -164.792 L -1057.853 -156.913 C -1057.621 -155.114 -1058.083 -153.294 -1059.145 -151.823 C -1060.437 -150.505 -1062.196 -149.747 -1064.042 -149.713 C -1065.963 -149.68 -1067.79 -150.542 -1068.987 -152.045 C -1070.059 -153.525 -1070.263 -154.598 -1070.263 -157.339 L -1070.263 -180.88 C -1070.403 -182.639 -1069.774 -184.372 -1068.539 -185.632 C -1067.303 -186.892 -1065.582 -187.555 -1063.821 -187.45 C -1061.961 -187.485 -1060.2 -186.615 -1059.098 -185.117 L -1049.207 -173.032 L -1049.207 -180.028 C -1049.386 -181.724 -1049.01 -183.432 -1048.135 -184.897 C -1046.881 -186.476 -1044.987 -187.412 -1042.971 -187.45 C -1041.141 -187.564 -1039.373 -186.768 -1038.246 -185.322 C -1037.087 -183.977 -1036.52 -182.222 -1036.671 -180.453 L -1036.671 -157.56 C -1036.671 -154.597 -1036.891 -153.321 -1037.962 -152.044 C -1039.185 -150.574 -1040.996 -149.721 -1042.908 -149.713 C -1044.897 -149.655 -1046.787 -150.58 -1047.962 -152.186" fill-rule="evenodd" fill="rgb(241,126,6)"/><path d=" M -1047.962 -152.427 L -1057.853 -165.034 L -1057.853 -157.155 C -1057.621 -155.356 -1058.083 -153.536 -1059.145 -152.065 C -1060.437 -150.747 -1062.196 -149.989 -1064.042 -149.955 C -1065.963 -149.922 -1067.79 -150.784 -1068.987 -152.287 C -1070.059 -153.767 -1070.263 -154.84 -1070.263 -157.581 L -1070.263 -181.121 C -1070.403 -182.881 -1069.774 -184.614 -1068.539 -185.874 C -1067.303 -187.134 -1065.582 -187.797 -1063.821 -187.692 C -1061.961 -187.727 -1060.2 -186.857 -1059.098 -185.359 L -1049.207 -173.274 L -1049.207 -180.27 C -1049.386 -181.966 -1049.01 -183.674 -1048.135 -185.139 C -1046.881 -186.718 -1044.987 -187.654 -1042.971 -187.692 C -1041.141 -187.806 -1039.373 -187.01 -1038.246 -185.564 C -1037.087 -184.219 -1036.52 -182.464 -1036.671 -180.695 L -1036.671 -157.802 C -1036.671 -154.839 -1036.891 -153.563 -1037.962 -152.286 C -1039.185 -150.816 -1040.996 -149.963 -1042.908 -149.955 C -1044.897 -149.897 -1046.787 -150.822 -1047.962 -152.428" fill-rule="evenodd" fill="rgb(241,126,6)"/><path d=" M -1207.15 -159.417 C -1206.745 -158.802 -1206.442 -158.126 -1206.247 -157.418 C -1206.06 -156.72 -1205.966 -156.057 -1205.966 -155.419 C -1205.949 -153.795 -1206.602 -152.235 -1207.772 -151.109 C -1208.346 -150.558 -1209.017 -150.119 -1209.751 -149.813 C -1210.5 -149.495 -1211.312 -149.335 -1212.179 -149.335 C -1214.436 -149.335 -1216.151 -150.291 -1217.318 -152.207 L -1222.458 -160.712 L -1222.458 -155.584 C -1222.44 -153.925 -1223.08 -152.326 -1224.237 -151.136 C -1225.367 -149.966 -1226.931 -149.314 -1228.558 -149.335 C -1229.499 -149.335 -1230.402 -149.53 -1231.265 -149.927 C -1232.105 -150.298 -1232.844 -150.867 -1233.415 -151.587 C -1234.392 -152.826 -1234.882 -154.59 -1234.882 -156.879 L -1234.882 -180.032 C -1234.882 -181.383 -1234.731 -182.484 -1234.427 -183.324 C -1234.11 -184.193 -1233.565 -184.962 -1232.851 -185.55 C -1232.132 -186.187 -1231.391 -186.618 -1230.62 -186.845 C -1229.845 -187.073 -1228.707 -187.184 -1227.202 -187.184 L -1222.005 -187.184 C -1220.462 -187.184 -1219.276 -187.136 -1218.448 -187.043 C -1217.619 -186.949 -1216.791 -186.81 -1215.962 -186.618 C -1213.127 -185.838 -1210.627 -184.147 -1208.848 -181.806 C -1207.975 -180.65 -1207.289 -179.367 -1206.814 -178.001 C -1206.323 -176.609 -1206.075 -175.142 -1206.08 -173.667 C -1206.08 -171.863 -1206.391 -170.222 -1207.011 -168.734 C -1207.631 -167.257 -1208.655 -165.708 -1210.087 -164.089 L -1207.153 -159.417 L -1207.15 -159.417 Z  M -1221.1 -171.636 C -1219.22 -171.562 -1218.276 -172.218 -1218.276 -173.609 C -1218.276 -175.033 -1219.238 -175.711 -1221.158 -175.638 L -1221.694 -175.638 L -1222.458 -175.691 L -1222.458 -171.638 L -1221.1 -171.638 L -1221.1 -171.636 Z " fill-rule="evenodd" fill="rgb(241,126,6)"/></g></g></svg>