<svg xmlns="http://www.w3.org/2000/svg" xmlns:xlink="http://www.w3.org/1999/xlink" style="isolation:isolate" viewBox="-33.996 -17.027 988.708 612.969" width="988.708pt" height="612.969pt">
<style type="text/css">
    
  @font-face {
    font-family: 'Comic Neue';
    src: url('neue.ttf') format('truetype');
  }
</style>


<defs>
<clipPath id="_clipPath_DjyqAVtzj2nuQnXg5A3nalFTvFfJSm7E">
<rect x="-33.996" y="-17.027" width="988.708" height="612.969"/>
</clipPath>
</defs>
<g clip-path="url(#_clipPath_DjyqAVtzj2nuQnXg5A3nalFTvFfJSm7E)">
<rect x="-33.996" y="-17.027" width="988.708" height="612.969" transform="matrix(1,0,0,1,0,0)" fill="rgb(255,255,255)"/>
<rect x="322.5" y="295.5" width="602.785" height="273" transform="matrix(1,0,0,1,0,0)" fill="transparent" stroke-width="3" stroke="rgb(30,30,30)" stroke-linejoin="miter" stroke-linecap="square" stroke-miterlimit="2"/>
<rect x="324" y="297" width="599.785" height="270" transform="matrix(1,0,0,1,0,0)" fill="none"/>
<clipPath id="_clipPath_fR2uCOuhPNOUUA8xLlMPJxxaVwVm3ECy">
<rect x="322.5" y="295.5" width="602.785" height="273" transform="matrix(1,0,0,1,0,0)" fill="transparent" stroke-width="3" stroke="rgb(30,30,30)" stroke-linejoin="miter" stroke-linecap="square" stroke-miterlimit="2"/>
<rect x="324" y="297" width="599.785" height="270" transform="matrix(1,0,0,1,0,0)" fill="none"/>
</clipPath>
<g clip-path="url(#_clipPath_fR2uCOuhPNOUUA8xLlMPJxxaVwVm3ECy)">
<g>
<g>
<g>
<path d=" M 832.64 459.492 L 929.693 470.23 C 923.492 496.26 912.98 526.163 898.421 545.136 L 624.495 544.866 C 608.915 529.122 596.399 508.644 593.814 482.787 Q 674.013 480.231 703.997 455.301 L 712.653 460.247 C 764.098 457.644 803.353 456.638 832.64 459.492 Z " fill="rgb(96,125,139)"/>
<path d=" M 718.765 431.453 C 687.669 405.521 638.375 390.321 579.614 387.328 C 574.662 398.654 566.923 410.709 556.377 423.475 Q 569.064 445.943 588.758 456.523 L 594.439 453.941 Q 574.709 443.523 565.005 422.442 C 571.913 412.511 577.944 402.535 583.078 392.492 C 634.8 391.88 680.677 406.586 717.42 436.108 L 718.765 431.453 Z " fill="rgb(0,0,0)"/>
<path d=" M 573.719 421.786 C 627.481 425.129 673.387 438.425 711.416 461.652 C 748.463 458.22 789.491 457.761 834.48 460.254 L 932.989 472.004 L 937.922 470.562 L 833.939 456.954 C 788.271 453.756 747.622 453.882 711.969 457.311 C 675.686 434.065 630.991 421.709 577.863 420.223 L 573.719 421.786 Z " fill="rgb(0,0,0)"/>
<path d=" M 606.293 446.178 C 594.469 451.441 583.509 457.617 573.393 464.684 L 585.73 483.705 C 641.028 484.842 681.417 476.117 706.857 457.487 L 701.716 453.375 C 676.013 471.834 638.072 480.019 587.851 477.889 L 580.397 465.809 C 587.187 458.644 595.826 452.107 606.293 446.178 Z " fill="rgb(0,0,0)"/>
<path d=" M 597.65 422.5 C 602.015 431.534 609.323 440.097 619.557 448.167 C 617.61 449.954 616 452.078 614.706 454.519 L 607.761 453.796 L 609.025 456.048 C 633.707 458.395 656.462 454.049 677.272 442.989 C 655.225 432.106 628.691 425.284 597.65 422.5 Z " fill="rgb(0,0,0)"/>
<path d=" M 694.352 544.517 C 703.47 538.66 710.228 529.947 714.585 518.334 C 718.449 528.983 724.293 537.775 732.097 544.687 L 694.352 544.517 Z " fill="rgb(0,0,0)"/>
<path d=" M 708.804 482.289 C 705.052 480.114 701.149 480.858 697.073 484.499 C 701.947 482.23 705.574 483.649 708.124 487.73 L 708.804 482.289 Z " fill="rgb(0,0,0)"/>
<path d=" M 707.384 501.734 L 708.193 504 C 706.479 515.955 700.174 526.913 689.258 536.854 L 687.316 537.015 C 699.174 527.562 705.871 515.809 707.384 501.734 Z " fill="rgb(0,0,0)"/>
<path d=" M 820.901 477.01 L 821.813 480.846 C 819.88 501.084 812.772 519.635 800.464 536.463 L 798.275 536.737 C 811.645 520.735 819.195 500.838 820.901 477.01 Z " fill="rgb(0,0,0)"/>
<path d=" M 718.135 433.224 C 716.488 438.147 715.125 443.195 714.051 448.368 C 714.521 442.995 715.568 437.764 717.204 432.676 L 718.135 433.224 L 718.135 433.224 Z " fill="rgb(0,0,0)"/>
<path d=" M 719.888 433.291 C 722.454 425.679 725.71 418.368 729.668 411.365 C 724.88 418.2 721.301 425.322 718.957 432.743 L 719.888 433.291 L 719.888 433.291 Z " fill="rgb(0,0,0)"/>
<path d=" M 815.557 374.29 C 821.356 388.725 825.462 404.205 827.896 420.706 C 826.869 404.176 822.743 388.722 815.557 374.29 Z " fill="rgb(0,0,0)"/>
<path d=" M 832.681 431.233 C 834.844 438.974 835.028 446.862 833.787 455.92 C 836.847 446.923 835.362 438.973 832.681 431.233 Z " fill="rgb(0,0,0)"/>
<path d=" M 591.087 481.497 L 598.19 481.941 C 602.327 512.058 613.549 532.255 628.857 545.287 L 622.371 544.401 C 610.451 534.37 597.225 513.199 591.087 481.497 Z " fill="rgb(0,0,0)"/>
<path d=" M 710.163 468.79 L 707.366 477.181 C 709.185 516.009 717.379 530.989 731.606 545.239 L 735.1 544.534 C 716.59 527.305 712.64 514.538 710.163 468.79 Z " fill="rgb(0,0,0)"/>
<path d=" M 623.837 543.282 L 898.765 543.418 L 933.094 546.597 L 572.375 546.597 L 623.837 543.282 Z " fill="rgb(0,0,0)"/>
<path d=" M 736.209 371.189 C 739.151 364.566 754.535 367.096 774.181 381.412 C 754.687 372.274 744.152 372.565 746.465 378.648 L 736.209 371.189 Z " fill="rgb(0,0,0)"/>
<path d=" M 754.622 372.191 L 762.972 375.653 C 778.734 375.45 795.848 373.895 814.293 370.969 C 854.759 376.543 890.439 384.122 917.582 392.53 C 919.64 393.167 921.681 395.394 922.137 397.5 C 924.617 408.95 927.115 424.614 928.783 440.657 L 934.242 441.939 C 932.339 428.068 928.704 409.535 924.242 391.885 C 923.823 390.227 922.145 388.509 920.498 388.052 C 890.792 379.798 855.711 372.333 814.022 366.462 C 795.306 369.687 775.52 371.61 754.622 372.191 Z " fill="rgb(0,0,0)"/>
<path d=" M 718.765 431.453 Q 763.161 420.694 830.387 423.926 C 875.24 429.428 912.064 435.48 941.892 442.424 C 944.58 456.125 944.45 467.348 942.838 475.175 C 939.033 476.439 934.355 477.809 928.783 479.265 L 929.427 475.175 C 934.02 474.397 937.679 473.58 940.384 472.703 C 941.247 463.894 941.339 454.909 939.243 445.727 C 908.389 439.809 873.497 432.198 831.414 429.052 Q 765.424 424.573 717.42 436.108 L 718.765 431.453 Z " fill="rgb(0,0,0)"/>
<path d=" M 899.495 544.349 C 912.231 534.311 922.919 509.804 931.538 470.806 L 927.336 470.806 C 923.171 504.316 912.584 528.75 895.555 544.086 L 899.495 544.349 Z " fill="rgb(0,0,0)"/>
<path d=" M 853.793 545.662 C 867.372 533.38 876.485 510.011 881.109 475.534 L 878.745 473.17 C 875.33 507.577 866.145 531.661 851.166 545.399 L 853.793 545.662 Z " fill="rgb(0,0,0)"/>
<path d=" M 878.658 482.677 C 884.985 476.074 893.63 476.298 892.328 483.458 C 887.915 477.798 883.018 480.192 877.617 490.618 L 878.658 482.677 Z " fill="rgb(0,0,0)"/>
<path d=" M 856.535 503.14 L 855.625 504.216 C 863.672 504.644 870.189 505.92 875.152 508.022 L 875.897 507.277 C 871.485 505.46 865.038 504.088 856.535 503.14 Z " fill="rgb(0,0,0)"/>
<path d=" M 905.782 499.594 L 904.872 500.67 C 912.92 501.098 919.436 502.374 924.4 504.476 L 925.144 503.732 C 920.733 501.915 914.286 500.542 905.782 499.594 Z " fill="rgb(0,0,0)"/>
<path d=" M 852.983 510.339 L 851.984 511.415 C 860.82 511.843 867.974 513.119 873.425 515.221 L 874.242 514.476 C 869.398 512.659 862.32 511.287 852.983 510.339 Z " fill="rgb(0,0,0)"/>
<path d=" M 902.93 503.996 L 901.93 505.072 C 910.767 505.5 917.921 506.776 923.371 508.878 L 924.189 508.134 C 919.345 506.316 912.266 504.944 902.93 503.996 Z " fill="rgb(0,0,0)"/>
<path d=" M 833.569 479.683 C 839.896 473.08 848.855 470.475 849.125 479.151 C 845.627 471.954 837.197 478.757 832.781 489.605 L 833.569 479.683 Z " fill="rgb(0,0,0)"/>
<path d=" M 810.696 544.664 Q 832.379 517.452 834.262 474.872 L 832.164 473.473 Q 830.291 519.888 806.151 545.144 L 810.696 544.664 Z " fill="rgb(0,0,0)"/>
<path d=" M 767.018 392.361 C 738.728 361.753 690.264 346.972 621.604 347.997 C 612.625 363.827 602.598 377.873 591.5 390.116 L 598.542 390.82 L 624.597 353.499 C 676.488 349.252 723.969 362.213 767.018 392.361 Z " fill="rgb(0,0,0)"/>
</g>
</g>
<path d=" M 285.689 551.837 C 379.852 546.2 493.474 544.342 590.027 546.252 L 579.121 547.628 C 480.891 546.842 374.029 550.001 275.888 555.813 L 285.689 551.837 Z " fill="rgb(0,0,0)"/>
<g>
<g>
<path d=" M 322.38 491.446 L 322.1 515.81 L 311.458 519.171 L 313.419 534.993 L 302.217 539.614 L 304.177 552.356 L 414.043 547.77 C 419.001 539.616 424.223 526.551 426.913 512.296 C 424.542 504.882 419.719 499.859 415.201 493.47 L 390.77 500.663 L 366.068 516.44 L 351.015 517.42 L 338.183 514.537 L 331.922 491.342 L 335.668 481.915 L 322.38 491.446 Z " fill="rgb(96,125,139)"/>
<path d=" M 303.605 552.276 C 302.305 549.129 301.607 545.478 301.5 541.314 L 299.47 541.527 L 298.978 539.936 L 312.948 533.387 L 313.384 535.788 L 303.125 540.59 C 303.238 544.285 304.114 548.29 305.745 552.595 L 303.605 552.276 Z " fill="rgb(0,0,0)"/>
<path d=" M 311.983 537.553 Q 313.026 528.691 310.77 521.104 L 307.056 520.573 L 306.791 518.539 L 322.886 514.029 L 323.859 516.682 L 312.628 519.866 Q 313.858 526.976 314.46 537.553 L 311.983 537.553 Z " fill="rgb(0,0,0)"/>
<path d=" M 313.726 495.178 L 336.637 478.793 L 378.684 471.644 L 399.507 480.225 C 395.374 483.526 392.997 486.802 392.368 490.041 L 395.678 500.331 L 393.196 501.509 L 390.377 488.496 C 391.118 485.473 392.639 483.067 394.928 481.266 L 377.592 475.734 L 336.611 483.298 L 314.505 499.389 L 313.726 495.178 Z " fill="rgb(0,0,0)"/>
<path d=" M 323.474 490.554 L 322.805 515.99 L 320.261 516.257 L 321.198 509.564 L 317.316 499.389 L 318.387 498.185 L 321.332 508.225 L 321.064 501.13 L 320.127 498.72 L 321.332 496.98 L 320.663 492.562 L 323.474 490.554 Z " fill="rgb(0,0,0)"/>
<path d=" M 342.123 490.063 L 375.688 482.459 L 391.196 487.069 L 391.235 490.4 L 375.868 486.249 L 339.237 495.435 L 342.123 490.063 Z " fill="rgb(0,0,0)"/>
<path d=" M 339.838 501.533 L 376.386 492.937 L 393.291 497.281 L 392.363 493.701 L 376.386 489.724 L 342.073 498.04 L 339.838 501.533 Z " fill="rgb(0,0,0)"/>
<path d=" M 341.605 504.535 L 377.777 496.649 L 392.952 500.49 L 390.061 502.446 L 378.629 499.572 L 338.811 509.403 L 341.605 504.535 Z " fill="rgb(0,0,0)"/>
<path d=" M 338.085 481.069 L 333.493 490.979 L 338.382 512.338 C 348.809 518.71 360.218 517.638 365.574 514.37 C 384.368 502.904 394.074 494.356 415.598 491.437 C 420.437 495.604 425.417 503.091 428.106 512.631 C 424.099 527.508 418.98 540.546 415.506 547.987 L 412.217 548.137 C 417.236 539.987 422.717 526.713 425.863 512.033 C 422.303 503.812 418.665 498.356 414.938 495.657 C 396.477 498.26 386.387 505.536 367.667 517.042 C 363.594 519.546 342.082 520.803 336.513 514.262 L 330.913 492.098 L 335.306 482.519 L 338.085 481.069 Z " fill="rgb(0,0,0)"/>
<path d=" M 285.758 552.138 C 285.469 546.704 284.866 540.685 283.248 535.328 C 284.81 532.115 293.712 533.002 293.528 534.566 C 292.671 540.412 292.547 546.317 293.147 552.27 L 285.758 552.138 Z " fill="rgb(0,0,0)"/>
<path d=" M 294.181 536.581 C 304.303 548.525 315.082 548.6 326.508 536.798 L 326.399 537.991 C 313.958 549.239 303.403 549.134 294.723 537.666 L 294.181 536.581 Z " fill="rgb(0,0,0)"/>
<path d=" M 275.646 545.948 C 278.088 544.593 280.614 542.734 283.223 540.375 L 283.331 539.182 C 280.74 541.859 278.182 543.925 275.657 545.367 L 275.646 545.948 L 275.646 545.948 Z " fill="rgb(0,0,0)"/>
<path d=" M 339.692 535.097 C 354.249 547.041 369.75 547.116 386.181 535.314 L 386.025 536.507 C 368.133 547.755 352.954 547.65 340.472 536.182 L 339.692 535.097 Z " fill="rgb(0,0,0)"/>
<path d=" M 327.296 534.455 C 329.217 539.673 329.935 545.183 329.441 550.974 L 338.237 550.974 C 337.231 543.424 337.305 537.349 338.452 532.738 C 333.387 531.235 329.672 531.81 327.296 534.455 Z " fill="rgb(0,0,0)"/>
<path d=" M 387.313 532.792 C 392.488 531.416 395.924 531.205 397.611 532.148 C 397.067 538.474 397.571 543.841 399.113 548.239 L 390.961 548.453 C 390.694 544.676 389.482 539.459 387.313 532.792 Z " fill="rgb(0,0,0)"/>
<path d=" M 400.877 504.496 L 403.633 503.446 C 394.445 512.765 401.139 518.278 408.883 504.496 C 405.47 516.571 391.558 516.44 400.877 504.496 Z " fill="rgb(0,0,0)"/>
<path d=" M 393.656 514.988 L 392.337 517.028 L 402.533 516.428 L 403.373 515.468 L 404.978 514.889 C 400.697 515.052 396.93 515.092 393.656 514.988 Z " fill="rgb(0,0,0)"/>
<path d=" M 390.297 526.744 L 399.722 513.203 C 396.533 512.32 401.246 509.265 403.204 509.917 C 400.559 510.382 400.064 511.569 400.78 511.869 C 401.59 512.209 403.778 511.546 402.994 509.86 C 405.467 510.117 404.283 513.105 400.948 513.4 L 391.737 527.104 L 390.297 526.744 Z " fill="rgb(0,0,0)"/>
<path d=" M 389.863 518.378 C 388.61 523.563 389.039 526.297 391.138 526.569 C 393.528 526.879 396.172 525.312 399.182 521.174 L 400.31 520.389 C 397.438 526.544 394.024 529.327 390.059 528.727 C 386.204 528.145 385.552 524.899 387.705 520.683 L 389.863 518.378 Z " fill="rgb(0,0,0)"/>
<path d=" M 323.906 465.289 L 323.132 467.069 C 324.579 468.322 325.382 476.246 325.531 490.832 L 326.383 489.594 C 326.081 475.476 325.259 467.377 323.906 465.289 Z " fill="rgb(0,0,0)"/>
<path d=" M 327.002 463.277 L 328.55 462.116 L 328.705 486.885 L 327.776 487.504 L 327.002 463.277 Z " fill="rgb(0,0,0)"/>
<path d=" M 353.512 464.883 L 352.893 466.741 L 352.119 465.628 L 353.435 460.364 L 354.209 460.829 L 356.144 478.09 L 355.293 478.012 L 353.512 464.883 Z " fill="rgb(0,0,0)"/>
<path d=" M 358.621 453.427 L 359.937 453.969 C 358.675 461.716 358.342 469.821 358.93 478.274 L 358.079 478.351 C 357.66 469.584 357.844 461.279 358.621 453.427 Z " fill="rgb(0,0,0)"/>
<path d=" M 407.108 547.413 C 412.78 532.486 414.812 512.746 415.683 494.657 L 414.44 493.641 C 413.36 511.24 411.333 531.324 405.865 547.413 L 407.108 547.413 Z " fill="rgb(0,0,0)"/>
</g>
</g>
<g>
<path d=" M 471.879 512.135 C 465.555 508.036 473.003 503.757 494.206 499.28 L 472.476 485.826 C 443.404 495.315 435.966 517.76 454.914 527.974 L 459.998 529.471 C 475.087 530.948 487.097 530.813 496.011 529.048 L 508.663 530.834 L 521.91 530.983 L 510.187 526.983 L 513.048 523.225 L 511.817 522.673 L 530.7 503.211 L 522.941 502.763 L 508.104 513.361 Q 495.575 512.477 471.879 512.135 Z " fill="rgb(96,125,139)"/>
<path d=" M 472.321 512.606 C 483.896 512.62 498.935 513.143 517.338 514.16 Q 493.111 511.664 471.343 511.568 L 472.321 512.606 L 472.321 512.606 Z " fill="rgb(0,0,0)"/>
<path d=" M 441.309 523.007 L 430.266 529.776 L 433.532 532.644 L 455.517 528.502 C 450.955 527.753 447.637 523.853 445.528 516.768 C 441.886 517.076 440.283 517.341 437.27 518.413 L 441.309 523.007 Z " fill="rgb(0,0,0)"/>
<path d=" M 453.876 528.706 C 439.49 522.081 435.499 495.278 473.352 485.361 C 477.949 489.795 485.024 492.368 495.062 499.788 C 469.758 504.509 465.226 510.385 477.345 515.18 C 462.852 510.266 467.775 504.509 492.451 499.207 C 483.855 492.719 477.115 491.042 472.867 487.689 C 437.966 494.239 443.044 524.553 455.091 527.281 C 465.626 529.667 481.003 530.497 493.886 528.354 L 496.734 529.36 C 482.016 532.517 458.067 530.636 453.876 528.706 Z " fill="rgb(0,0,0)"/>
<path d=" M 477.09 489.437 Q 471.66 489.838 465.927 492.318 L 470.366 496.448 Q 475.695 494.078 481.869 492.778 L 477.09 489.437 Z " fill="rgb(0,0,0)"/>
<path d=" M 483.445 493.102 C 476.307 496.567 474.212 500.202 477.133 503.977 L 477.509 503.798 C 474.335 500.284 476.213 497 483.445 493.102 Z " fill="rgb(0,0,0)"/>
<path d=" M 510.477 527.176 L 509.519 526.937 L 512.113 523.311 L 480.5 519.084 L 481.341 527.003 L 465.616 524.592 C 468.454 522.289 470.392 519.827 471.415 517.19 L 514.003 522.975 L 510.477 527.176 Z " fill="rgb(0,0,0)"/>
<path d=" M 512.345 523.026 C 517.747 518.397 521.604 512.344 532.104 502.638 L 518.163 501.544 L 518.811 504.435 C 514.985 507.803 510.272 510.787 504.664 513.38 L 508.491 513.555 L 522.266 503.271 L 529.719 503.74 C 521.205 511.546 517.946 516.934 510.706 522.753 L 512.345 523.026 L 512.345 523.026 Z " fill="rgb(0,0,0)"/>
<path d=" M 487.262 529.254 C 488.657 529.766 490.227 530.592 491.011 531.401 C 486.283 536.009 465.054 535.721 460.612 532.621 C 461.625 531.424 463.006 530.486 463.776 529.818 C 472.866 530.79 480.372 530.608 487.262 529.254 L 487.262 529.254 Z " fill="rgb(0,0,0)"/>
<path d=" M 508.973 531.302 C 508.915 531.266 508.859 531.237 508.804 531.209 C 515.083 531.537 516.24 531.522 525.473 531.618 L 510.973 526.772 Q 499.721 524.202 483.267 524.559 Q 502.902 526.072 510.154 527.534 L 519.897 530.736 C 512.149 529.984 510.072 529.045 508.017 530.414 L 483.097 525.984 Q 483.783 526.903 485.604 527.534 L 508.973 531.302 L 508.973 531.302 Z " fill="rgb(0,0,0)"/>
<path d=" M 482.427 539.577 C 479.436 537.532 475.475 539.844 476.181 543.674 C 476.797 547.017 484.275 546.885 484.231 542.547 Q 484.214 540.866 481.943 533.573 L 480.272 533.617 C 481.656 536.26 482.377 538.249 482.427 539.577 Z  M 478.204 542.662 C 478.204 541.327 479.17 540.243 480.36 540.243 C 481.549 540.243 482.515 541.327 482.515 542.662 C 482.515 543.997 481.549 545.082 480.36 545.082 C 479.17 545.082 478.204 543.997 478.204 542.662 Z " fill-rule="evenodd" fill="rgb(0,0,0)"/>
<path d=" M 472.883 539.577 C 469.892 537.532 465.931 539.844 466.637 543.674 C 467.253 547.017 474.731 546.885 474.687 542.547 Q 474.67 540.866 472.399 533.573 L 470.728 533.617 C 472.112 536.26 472.834 538.249 472.883 539.577 Z  M 468.66 542.662 C 468.66 541.327 469.626 540.243 470.816 540.243 C 472.005 540.243 472.971 541.327 472.971 542.662 C 472.971 543.997 472.005 545.082 470.816 545.082 C 469.626 545.082 468.66 543.997 468.66 542.662 Z " fill-rule="evenodd" fill="rgb(0,0,0)"/>
<ellipse  cx="480.3597224981761" cy="542.6621465680573" rx="2.155431290509" ry="2.4193616526121104" fill="rgb(96,125,139)"/>
<ellipse  cx="470.81577069964715" cy="542.6621465680573" rx="2.155431290509" ry="2.4193616526121104" fill="rgb(96,125,139)"/>
</g>
</g>
</g>
<rect x="322.5" y="295.5" width="602.785" height="273" transform="matrix(1,0,0,1,0,0)" fill="transparent"  stroke-width="3" stroke="rgb(30,30,30)" stroke-linejoin="miter" stroke-linecap="square" stroke-miterlimit="2"/>
<rect x="12.9" y="295.5" width="291" height="273" transform="matrix(1,0,0,1,0,0)" fill="transparent"  stroke-width="3" stroke="rgb(30,30,30)" stroke-linejoin="miter" stroke-linecap="square" stroke-miterlimit="2"/>
<rect x="14.4" y="297" width="288" height="270" transform="matrix(1,0,0,1,0,0)" fill="none"/>
<rect x="634.285" y="7.5" width="291" height="273" transform="matrix(1,0,0,1,0,0)" fill="transparent"  stroke-width="3" stroke="rgb(30,30,30)" stroke-linejoin="miter" stroke-linecap="square" stroke-miterlimit="2"/>
<rect x="635.785" y="9" width="288" height="270" transform="matrix(1,0,0,1,0,0)" fill="none"/>
<g>
<path d=" M 718.677 162.485 L 718.167 206.905 L 698.765 213.032 L 702.339 241.88 L 681.916 250.304 L 685.49 273.535 L 885.796 265.175 C 894.835 250.307 904.355 226.488 909.26 200.498 C 904.938 186.981 896.145 177.823 887.907 166.174 L 843.365 179.288 L 798.327 208.054 L 770.884 209.841 L 747.489 204.584 L 736.073 162.295 L 742.904 145.108 L 718.677 162.485 Z " fill="rgb(96,125,139)"/>
<path d=" M 684.446 273.39 C 682.077 267.651 680.803 260.995 680.608 253.403 L 676.908 253.791 L 676.011 250.89 L 701.48 238.952 L 702.276 243.329 L 683.572 252.084 C 683.776 258.82 685.374 266.121 688.348 273.971 L 684.446 273.39 Z " fill="rgb(0,0,0)"/>
<path d=" M 699.722 246.546 Q 701.622 230.389 697.51 216.557 L 690.738 215.589 L 690.255 211.881 L 719.6 203.658 L 721.374 208.495 L 700.896 214.299 Q 703.14 227.263 704.236 246.546 L 699.722 246.546 Z " fill="rgb(0,0,0)"/>
<path d=" M 702.899 169.288 L 744.669 139.416 L 821.33 126.382 L 859.293 142.026 C 851.758 148.046 847.425 154.017 846.278 159.923 L 852.312 178.683 L 847.787 180.832 L 842.647 157.106 C 843.999 151.595 846.771 147.208 850.946 143.926 L 819.338 133.839 L 744.622 147.629 L 704.318 176.967 L 702.899 169.288 Z " fill="rgb(0,0,0)"/>
<path d=" M 720.671 160.858 L 719.451 207.232 L 714.814 207.72 L 716.522 195.517 L 709.444 176.967 L 711.397 174.77 L 716.766 193.076 L 716.278 180.14 L 714.57 175.747 L 716.766 172.574 L 715.546 164.519 L 720.671 160.858 Z " fill="rgb(0,0,0)"/>
<path d=" M 754.671 159.963 L 815.867 146.099 L 844.142 154.505 L 844.212 160.578 L 816.195 153.01 L 749.41 169.758 L 754.671 159.963 Z " fill="rgb(0,0,0)"/>
<path d=" M 750.506 180.874 L 817.141 165.204 L 847.961 173.123 L 846.269 166.596 L 817.141 159.345 L 754.581 174.506 L 750.506 180.874 Z " fill="rgb(0,0,0)"/>
<path d=" M 753.728 186.348 L 819.675 171.97 L 847.343 178.974 L 842.072 182.54 L 821.23 177.301 L 748.634 195.223 L 753.728 186.348 Z " fill="rgb(0,0,0)"/>
<path d=" M 747.31 143.566 L 738.937 161.634 L 747.852 200.574 C 766.862 212.192 787.662 210.237 797.428 204.279 C 831.692 183.375 849.388 167.79 888.631 162.468 C 897.454 170.065 906.532 183.715 911.434 201.11 C 904.13 228.232 894.797 252.002 888.462 265.57 L 882.466 265.843 C 891.617 250.983 901.609 226.782 907.346 200.02 C 900.855 185.03 894.222 175.083 887.427 170.162 C 853.769 174.908 835.373 188.173 801.244 209.151 C 793.817 213.716 754.597 216.008 744.445 204.083 L 734.233 163.674 L 742.243 146.21 L 747.31 143.566 Z " fill="rgb(0,0,0)"/>
<path d=" M 651.908 273.137 C 651.381 263.231 650.282 252.256 647.333 242.489 C 650.18 236.632 666.41 238.249 666.074 241.101 C 664.512 251.759 664.286 262.524 665.38 273.378 L 651.908 273.137 Z " fill="rgb(0,0,0)"/>
<path d=" M 667.265 244.774 C 685.719 266.55 705.371 266.687 726.202 245.17 L 726.004 247.345 C 703.322 267.853 684.078 267.661 668.254 246.752 L 667.265 244.774 Z " fill="rgb(0,0,0)"/>
<path d=" M 633.472 261.853 C 637.925 259.382 642.53 255.992 647.286 251.692 L 647.484 249.516 C 642.759 254.397 638.095 258.163 633.493 260.792 L 633.472 261.853 L 633.472 261.853 Z " fill="rgb(0,0,0)"/>
<path d=" M 750.24 242.069 C 776.78 263.844 805.04 263.982 834.997 242.464 L 834.713 244.64 C 802.094 265.147 774.418 264.955 751.662 244.046 L 750.24 242.069 Z " fill="rgb(0,0,0)"/>
<path d=" M 727.639 239.898 C 731.142 249.411 732.452 259.457 731.55 270.016 L 747.587 270.016 C 745.752 256.25 745.889 245.174 747.978 236.768 C 738.745 234.028 731.971 235.077 727.639 239.898 Z " fill="rgb(0,0,0)"/>
<path d=" M 837.062 237.866 C 846.497 235.358 852.761 234.973 855.838 236.693 C 854.846 248.226 855.764 258.011 858.576 266.029 L 843.712 266.42 C 843.226 259.534 841.016 250.022 837.062 237.866 Z " fill="rgb(0,0,0)"/>
<path d=" M 853.058 238.307 L 849.548 238.21 L 853.582 265.643 L 856.664 265.608 C 854.833 256.62 853.641 247.53 853.058 238.307 Z " fill="rgb(70,70,70)"/>
<path d=" M 744.173 238.903 L 739.895 237.747 L 742.582 266.643 L 745.422 266.66 C 743.591 257.672 744.756 248.126 744.173 238.903 Z " fill="rgb(70,70,70)"/>
<path d=" M 663.789 242.25 C 663.064 240.91 661.695 240.328 659.102 241.25 L 661.137 271.733 L 663.977 271.75 C 662.145 262.762 664.372 251.473 663.789 242.25 Z " fill="rgb(70,70,70)"/>
<path d=" M 861.79 186.277 L 866.816 184.363 C 850.065 201.353 862.269 211.404 876.388 186.277 C 870.166 208.293 844.8 208.054 861.79 186.277 Z " fill="rgb(0,0,0)"/>
<path d=" M 848.627 205.407 L 846.221 209.125 L 864.811 208.031 L 866.342 206.282 L 869.268 205.226 C 861.463 205.523 854.595 205.596 848.627 205.407 Z " fill="rgb(0,0,0)"/>
<path d=" M 842.503 226.84 L 859.685 202.152 C 853.872 200.543 862.463 194.972 866.034 196.161 C 861.212 197.008 860.31 199.172 861.615 199.72 C 863.091 200.339 867.08 199.131 865.65 196.056 C 870.159 196.526 868.001 201.974 861.92 202.51 L 845.127 227.497 L 842.503 226.84 Z " fill="rgb(0,0,0)"/>
<path d=" M 841.71 211.587 C 839.427 221.041 840.208 226.025 844.035 226.521 C 848.393 227.086 853.213 224.228 858.701 216.684 L 860.758 215.253 C 855.521 226.475 849.297 231.548 842.068 230.455 C 835.039 229.393 833.851 223.475 837.776 215.79 L 841.71 211.587 Z " fill="rgb(0,0,0)"/>
<path d=" M 721.458 114.796 L 720.047 118.042 C 722.686 120.326 724.15 134.773 724.422 161.366 L 725.974 159.108 C 725.425 133.368 723.925 118.603 721.458 114.796 Z " fill="rgb(0,0,0)"/>
<path d=" M 727.103 111.127 L 729.926 109.01 L 730.208 154.169 L 728.514 155.298 L 727.103 111.127 Z " fill="rgb(0,0,0)"/>
<path d=" M 775.437 114.055 L 774.308 117.442 L 772.897 115.414 L 775.296 105.817 L 776.707 106.664 L 780.235 138.134 L 778.682 137.993 L 775.437 114.055 Z " fill="rgb(0,0,0)"/>
<path d=" M 784.751 93.17 L 787.15 94.157 C 784.849 108.282 784.243 123.058 785.315 138.469 L 783.763 138.61 C 782.999 122.626 783.334 107.485 784.751 93.17 Z " fill="rgb(0,0,0)"/>
<path d=" M 873.151 264.523 C 883.493 237.308 887.197 201.319 888.786 168.34 L 886.519 166.487 C 884.549 198.573 880.855 235.191 870.885 264.523 L 873.151 264.523 Z " fill="rgb(0,0,0)"/>
</g>
<g clip-path="url(#_clipPath_MYqwtSsbW04p2yrA4BgsGV5p6EDvMBSn)">
<text transform="matrix(1,0,0,1,647.024,37.888)" style="font-family:'Comic Neue';font-weight:400;font-size:18px;font-style:normal;fill:#000000;stroke:none;">I'm so expensive, a BILLIONAIRE
</text>
<text transform="matrix(1,0,0,1,647.024,58.588)" style="font-family:'Comic Neue';font-weight:400;font-size:18px;font-style:normal;fill:#000000;stroke:none;">lost me in his divorce.
</text>
</g>
<defs>
<clipPath id="_clipPath_MYqwtSsbW04p2yrA4BgsGV5p6EDvMBSn">
<rect x="0" y="0" width="265.522" height="41.4" transform="matrix(1,0,0,1,647.024,21.688)"/>
</clipPath>
</defs>
<path d=" M 12.441 537.904 C 110.21 534.232 209.665 532.524 303.735 533.276 L 303.735 531.255 C 209.188 529.384 106.586 529.971 12.551 533.037 L 12.441 537.904 L 12.441 537.904 Z " fill="rgb(0,0,0)"/>
<g>
<g>
<path d=" M 99.521 457.81 L 55.903 493.463 L 55.903 498.472 L 92.364 495.444 L 93.518 505.373 L 109.879 503.381 L 105.645 496.664 L 144.86 500.091 L 145.392 503.052 L 204.315 501.81 L 203.97 499.274 L 232.816 498.797 L 264.973 491.626 L 237.941 488.496 C 264.653 465.003 280.302 449.069 292.538 435.838 L 266.431 437.367 L 236.394 458.583 C 187.736 455.154 142.118 454.902 99.521 457.81 Z " fill="rgb(96,125,139)"/>
<path d=" M 257.209 460.385 Q 171.674 451.573 99.604 455.911 L 46.512 498.472 L 55.903 499.887 C 80.517 500.287 103.036 497.781 123.788 493.192 L 122.005 490.43 C 104.469 493.238 77.375 496.407 57.577 496.168 L 100.569 459.772 C 123.523 455.675 175.743 455.886 257.209 460.385 Z " fill="rgb(0,0,0)"/>
<path d=" M 92.022 497.342 L 95.876 505.051 L 111.826 504.386 L 106.376 495.747 L 103.984 496.013 L 108.636 502.791 L 97.205 503.057 L 94.414 496.81 L 92.022 497.342 Z " fill="rgb(0,0,0)"/>
<path d=" M 90.862 496.643 L 87.181 507.562 L 103.375 505.476 L 101.99 504.519 L 95.876 503.988 L 93.484 497.076 L 90.862 496.643 Z " fill="rgb(0,0,0)"/>
<path d=" M 114.852 463.022 L 93.146 464.076 L 83.662 472.716 C 89.905 472.508 97.435 472.66 106.233 473.152 L 114.852 463.022 Z " fill="rgb(0,0,0)"/>
<path d=" M 73.939 482.192 C 73.957 482.024 74.162 481.999 74.278 481.964 Q 90.042 482.971 93.64 492.515 C 90.33 487.044 86.234 483.294 73.939 482.192 Z " fill="rgb(0,0,0)"/>
<path d=" M 226.391 479.228 Q 189.992 478.87 136.787 487.962 L 147.745 501.238 L 108.006 498.978 L 104.998 495.067 L 121.881 493.402 L 115.474 484.62 Q 192.976 474.768 235.655 478.764 L 226.391 479.228 Z " fill="rgb(0,0,0)"/>
<path d=" M 240.098 488.679 C 247.998 479.796 255.832 475.753 296.48 434.096 L 256.149 435.123 L 263.085 438.463 C 254.46 446.054 243.836 452.781 231.193 458.626 L 239.82 459.023 L 270.403 437.151 L 290.23 436.896 C 253.936 474.11 243.449 479.543 235.509 488.577 L 240.098 488.679 Z " fill="rgb(0,0,0)"/>
<path d=" M 204.315 499.274 C 207.937 500.127 213.638 502.099 215.675 503.451 C 203.428 511.136 146.999 510.72 137.026 505.054 Q 140.068 502.128 143.896 500.379 L 204.315 499.274 Z " fill="rgb(0,0,0)"/>
<path d=" M 234.252 499.446 C 244.63 499.446 248.052 495.271 275.987 491.765 L 229.542 486.857 Q 204.321 486.042 154.826 493.463 Q 204.784 488.558 227.485 488.878 L 258.665 492.054 C 240.907 492.249 234.464 494.254 231.437 497.999 L 155.095 496.692 C 157.248 498.403 159.581 499.577 162.06 500.178 Q 234.423 499.484 234.252 499.446 Z " fill="rgb(0,0,0)"/>
<path d=" M 178.509 517.685 C 171.766 513.074 162.837 518.287 164.428 526.92 C 165.816 534.457 182.674 534.159 182.575 524.379 Q 182.537 520.59 177.418 504.149 L 173.65 504.249 C 176.771 510.206 178.397 514.691 178.509 517.685 Z  M 168.989 524.639 C 168.989 521.629 171.167 519.185 173.848 519.185 C 176.53 519.185 178.708 521.629 178.708 524.639 C 178.708 527.65 176.53 530.093 173.848 530.093 C 171.167 530.093 168.989 527.65 168.989 524.639 Z " fill-rule="evenodd" fill="rgb(0,0,0)"/>
<path d=" M 105.117 517.685 C 98.373 513.074 89.445 518.287 91.035 526.92 C 92.424 534.457 109.282 534.159 109.182 524.379 Q 109.144 520.59 104.026 504.149 L 100.258 504.249 C 103.379 510.206 105.005 514.691 105.117 517.685 Z  M 95.597 524.639 C 95.597 521.629 97.774 519.185 100.456 519.185 C 103.138 519.185 105.315 521.629 105.315 524.639 C 105.315 527.65 103.138 530.093 100.456 530.093 C 97.774 530.093 95.597 527.65 95.597 524.639 Z " fill-rule="evenodd" fill="rgb(0,0,0)"/>
<path d=" M 166.478 517.685 C 159.734 513.074 150.806 518.287 152.396 526.92 C 153.785 534.457 170.643 534.159 170.543 524.379 Q 170.505 520.59 165.387 504.149 L 161.619 504.249 C 164.74 510.206 166.366 514.691 166.478 517.685 Z " fill-rule="evenodd" fill="rgb(0,0,0)"/>
<ellipse  cx="100.45594849095292" cy="524.6394071947755" rx="4.859092974733983" ry="5.454083951231951" fill="rgb(96,125,139)"/>
<ellipse  cx="173.84847495528257" cy="524.6394071947755" rx="4.859092974733983" ry="5.454083951231951" fill="rgb(96,125,139)"/>
</g>
</g>
<g clip-path="url(#_clipPath_5X8bONy0zFjjULiABl0tirQ0jFZ5YtS3)">
<text transform="matrix(1,0,0,1,37.522,337.63)" style="font-family:'Comic Neue';font-weight:400;font-size:20px;font-style:normal;fill:#000000;stroke:none;">I'm so expensive I
</text>
<text transform="matrix(1,0,0,1,37.522,360.63)" style="font-family:'Comic Neue';font-weight:400;font-size:20px;font-style:normal;fill:#000000;stroke:none;">bankrupted a nation.
</text>
</g>
<defs>
<clipPath id="_clipPath_5X8bONy0zFjjULiABl0tirQ0jFZ5YtS3">
<rect x="0" y="0" width="179" height="46" transform="matrix(1,0,0,1,37.522,319.63)"/>
</clipPath>
</defs>
<g clip-path="url(#_clipPath_aPegEZLNqfXXXk9MT28DEHjpFOuByJwf)">
<text transform="matrix(1,0,0,1,389.086,332.63)" style="font-family:'Comic Neue';font-weight:400;font-size:20px;font-style:normal;fill:#000000;stroke:none;">n'Egger, 
</text>
<text transform="matrix(1,0,0,1,461.246,332.63)" style="font-family:'Comic Neue';font-weight:400;font-size:20px;font-style:italic;fill:#000000;stroke:none;">please...
</text>
</g>
<defs>
<clipPath id="_clipPath_aPegEZLNqfXXXk9MT28DEHjpFOuByJwf">
<rect x="0" y="0" width="137" height="23" transform="matrix(1,0,0,1,389.086,314.63)"/>
</clipPath>
</defs>
<g clip-path="url(#_clipPath_nrXqia74UVke4AMAJSYwpjtQHB5XZD9u)">
<text transform="matrix(0,-0.576,0.576,0,316.683,494.47)" style="font-family:'Libre Caslon Text';font-weight:400;font-size:20px;font-style:normal;fill:#000000;stroke:none;">©MCMLXXXVIII
</text>
<text transform="matrix(0,-0.576,0.576,0,316.683,395.973)" style="font-family:'Libre Caslon Text';font-weight:400;font-size:16px;font-style:normal;fill:#000000;stroke:none;">•
</text>
<text transform="matrix(0,-0.576,0.576,0,316.683,392.194)" style="font-family:'Libre Caslon Text';font-weight:400;font-size:20px;font-style:normal;fill:#000000;stroke:none;">Trilobyte
</text>
</g>
<defs>
<clipPath id="_clipPath_nrXqia74UVke4AMAJSYwpjtQHB5XZD9u">
<rect x="0" y="0" width="267" height="24.6" transform="matrix(0,-0.576,0.576,0,305.509,494.47)"/>
</clipPath>
</defs>
<path d=" M 265.302 19.237 L 321.203 10.032 L 329.699 125.305 L 298.166 127.329 L 265.302 19.237 Z " fill="rgb(0,0,0)"/>
<path d=" M 314.416 125.305 L 337.897 127.329 L 363.765 27.917 C 362.616 24.09 363.685 20.031 366.942 15.709 L 367.415 13.893 L 342.593 5.327 L 314.416 125.305 Z " fill="rgb(0,0,0)"/>
<path d=" M 571.328 64.095 L 575.274 81.488 L 589.055 77.153 L 586.473 126.098 L 620 129.39 L 612.785 64.095 L 571.328 64.095 Z " fill="rgb(0,0,0)"/>
<path d=" M 582.054 57.657 L 604.215 15.068 C 553.25 -3.663 494.497 38.988 516.185 94.204 C 534.779 141.543 584.24 137.56 598.171 107.022 L 591.693 77.846 C 588.019 97.622 552.405 100.448 552.317 67.912 C 552.282 55.047 571.761 45.979 582.054 57.657 Z " fill="rgb(0,0,0)"/>
<path d=" M 420.714 19.237 L 464.473 10.032 L 518.174 119.056 L 479.884 128.007 L 420.714 19.237 Z " fill="rgb(0,0,0)"/>
<path d=" M 420.714 19.237 L 448.063 24.435 L 449.705 123.984 L 428.919 124.189 L 420.714 19.237 Z " fill="rgb(0,0,0)"/>
<path d=" M 481.991 10.032 L 514.615 13.893 L 518.174 119.056 L 489.29 105.555 L 481.991 10.032 Z " fill="rgb(0,0,0)"/>
<path d=" M 118.68 14.531 L 180.357 10.032 L 181.067 103.765 L 214.005 100.016 L 214.005 123.261 L 127.138 123.261 L 118.68 14.531 Z " fill="rgb(0,0,0)"/>
<path d=" M 269.401 10.085 L 210.939 18.384 L 220.963 123.714 L 259.354 126.311 L 269.401 10.085 Z " fill="rgb(0,0,0)"/>
<path d=" M 373.44 66.25 L 425.28 63.869 L 413.995 127.329 L 376.945 125.429 L 373.44 66.25 Z " fill="rgb(0,0,0)"/>
<path d=" M 393.578 13.401 C 423.739 -12.72 459.517 45.867 383.772 68.54 C 321.46 23.326 373.115 -20.056 393.578 13.401 Z  M 391.71 24.892 C 415.132 0.37 439.98 42.054 385.602 57.86 C 340.571 23.257 378.167 -4.38 391.71 24.892 Z " fill-rule="evenodd" fill="rgb(0,0,0)"/>
<path d=" M 235.911 196.649 L 226.218 147.815 L 280.634 142.313 L 282.071 190.193 L 235.911 196.649 Z  M 243.478 185.916 L 237.468 155.596 L 271.587 152.151 L 272.479 181.86 L 243.478 185.916 Z " fill-rule="evenodd" fill="rgb(0,0,0)"/>
<path d=" M 429.782 210.182 L 433.729 227.575 L 455.688 221.071 L 451.827 273.971 L 486.495 269.086 L 479.279 208.663 L 429.782 210.182 Z " fill="rgb(0,0,0)"/>
<path d=" M 448.549 199.855 L 470.71 157.265 C 419.745 138.535 360.824 180.116 379.158 236.402 C 394.692 284.092 450.735 279.758 464.666 249.22 L 461.156 229.496 C 448.152 246.156 418.812 244.701 418.812 210.11 C 418.812 197.245 438.256 188.176 448.549 199.855 Z " fill="rgb(0,0,0)"/>
<path d=" M 284.548 162.065 L 328.308 152.86 L 378.45 259.758 L 340.16 270.344 L 284.548 162.065 Z " fill="rgb(0,0,0)"/>
<path d=" M 284.548 162.065 L 311.898 167.195 L 313.95 267.115 L 289.737 269.086 L 284.548 162.065 Z " fill="rgb(0,0,0)"/>
<path d=" M 347.445 153.886 L 378.45 153.934 L 378.45 259.758 L 353.125 248.383 L 347.445 153.886 Z " fill="rgb(0,0,0)"/>
<path d=" M 131.694 173.502 L 98.631 168.792 L 105.939 262.735 L 46.089 267.032 L 45.379 173.299 L 12.441 177.048 L 12.441 153.802 L 135.121 151.812 L 131.694 173.502 Z " fill="rgb(0,0,0)"/>
<path d=" M 123.653 158.082 L 175.744 149.516 L 175.744 266.813 L 133.7 269.494 L 123.653 158.082 Z " fill="rgb(0,0,0)"/>
<path d=" M 164.556 196.227 L 206.6 192.671 L 206.6 226.643 L 164.556 234.445 L 164.556 196.227 Z " fill="rgb(0,0,0)"/>
<path d=" M 282.684 203.145 L 235.157 199.782 L 240.27 270.344 L 278.58 269.765 L 282.684 203.145 Z " fill="rgb(0,0,0)"/>
<path d=" M 188.974 149.516 L 224.85 149.516 L 224.85 265.451 L 197.948 266.813 L 188.974 149.516 Z " fill="rgb(0,0,0)"/>
<path d=" M 497.729 223.91 L 472.906 256.569 C 513.468 289.365 583.964 267.746 567.935 223.91 C 561.475 206.245 527.545 207.452 517.804 199.071 C 504.408 187.545 527.501 182.066 547.434 201.373 L 570.57 174.545 C 523.486 122.894 448.903 165.302 481.274 201.373 C 495.48 217.202 519.853 210.916 526.451 223.393 C 532.539 234.906 508.022 235.588 497.729 223.91 Z " fill="rgb(0,0,0)"/>
<g>
<ellipse  cx="575.1109612356589" cy="272.46869943672857" rx="42.951535015767945" ry="2.252601713598551" fill="rgb(0,0,0)"/>
<path d=" M 583.968 261.364 L 597.38 261.364 L 598.716 233.785 L 583.54 240.313 C 583.317 248.606 583.464 255.628 583.968 261.364 Z " fill="rgb(255,255,255)"/>
<path d=" M 568.395 205.628 L 557.965 224.254 L 560.177 251.057 L 555.422 253.636 C 557.807 256.606 567.327 259.186 583.968 261.364 C 583.104 253.932 582.965 246.919 583.54 240.313 C 581.099 227.904 576.055 216.347 568.395 205.628 Z " fill="rgb(255,255,255)"/>
<path d=" M 613.168 147.401 L 572.441 151.179 L 559.798 190.117 L 556.512 189.864 L 558.534 225.515 L 568.648 205.288 C 576.988 218.459 582.133 230.262 584.072 240.686 L 600.001 232.848 C 602.087 214.218 610.182 191.719 624.274 165.338 L 613.168 147.401 Z " fill="rgb(118,0,0)"/>
<path d=" M 554.868 253.297 L 539.444 263.158 L 545.766 266.95 L 584.957 270.996 L 599.116 270.237 L 598.104 260.882 L 583.187 261.135 C 569.521 260.199 560.086 257.591 554.868 253.297 Z " fill="rgb(118,0,0)"/>
<path d=" M 600.448 272.469 C 595.223 242.281 603.505 206.714 625.283 165.753 L 614.694 144.289 C 598.565 148.013 584.243 149.655 571.702 149.189 L 557.965 188.552 L 562.544 188.552 L 574.755 153.339 C 585.787 153.183 598.599 151.462 613.168 148.15 L 622.835 165.753 C 602.361 201.709 593.546 237.286 596.378 272.469 L 600.448 272.469 Z " fill="rgb(0,0,0)"/>
<path d=" M 595.641 192.492 L 597.396 191.715 C 597.534 195.813 597.348 199.335 596.825 202.268 L 595.188 203.084 C 595.884 199.646 596.04 196.12 595.641 192.492 Z " fill="rgb(0,0,0)"/>
<path d=" M 596.378 196.947 C 584.402 192.872 570.33 189.315 554.15 186.263 L 557.965 249.999 L 536.342 262.392 L 551.351 272.469 L 555.422 272.469 L 541.715 263.089 L 562.544 251.408 L 557.965 190.986 C 570.039 191.495 582.848 194.589 596.378 200.254 L 596.378 196.947 Z " fill="rgb(0,0,0)"/>
<path d=" M 546.947 267.876 L 550.955 272.469 L 553.349 272.469 L 600.448 272.469 L 596.378 267.876 C 574.241 268.603 556.205 267.012 542.258 263.089 L 546.947 267.876 Z " fill="rgb(0,0,0)"/>
<path d=" M 597.396 184.641 C 597.122 175.95 602.384 163.093 613.168 146.057 L 614.694 148.15 C 607.259 159.337 601.497 171.505 597.396 184.641 Z " fill="rgb(0,0,0)"/>
<path d=" M 585.694 214.913 C 582.117 233.566 581.919 251.929 583.796 269.988 L 586.468 269.988 C 582.634 253.409 583.051 235.055 585.694 214.913 Z " fill="rgb(0,0,0)"/>
<path d=" M 557.965 226.79 C 560.469 218.025 563.95 210.128 568.395 203.084 C 577.79 216.543 583.358 228.423 583.796 238.712 L 599.176 232.065 L 599.176 234.883 L 583.15 242.802 C 580.317 228.24 575.185 216.2 568.395 207.334 C 564.313 212.756 560.841 221.004 557.965 232.065 L 557.965 226.79 Z " fill="rgb(0,0,0)"/>
<path d=" M 554.725 254.641 L 556.783 252.696 C 562.329 259.575 577.846 261.347 597.396 260.576 L 597.396 261.962 C 580.502 261.35 564.631 261.544 554.725 254.641 Z " fill="rgb(0,0,0)"/>
<path d=" M 565.493 219.634 C 565.374 217.486 566.187 215.692 567.308 215.63 C 568.43 215.567 569.437 217.26 569.557 219.407 C 569.677 221.555 568.863 223.349 567.742 223.411 C 566.62 223.473 565.613 221.781 565.493 219.634 Z " fill="rgb(0,0,0)"/>
</g>
<path d=" M 705.898 96.743 L 687.767 76.842 L 677.519 72.192 L 705.898 96.743 Z " fill="rgb(0,0,0)"/>
<path d=" M 137.842 407.124 L 119.712 387.223 L 109.463 382.573 L 137.842 407.124 Z " fill="rgb(0,0,0)"/>
<path d=" M 508.823 372.905 L 490.692 353.004 L 480.444 348.354 L 508.823 372.905 Z " fill="rgb(0,0,0)"/>
<path d=" M 924.57 280.075 C 826.809 281.777 727.422 275.967 633.472 281.532 L 635.714 273.205 C 725.834 263.717 833.433 261.74 924.57 265.895 L 924.57 280.075 Z " fill="rgb(0,0,0)"/>
<g>
<path d=" M 219.826 71.878 C 225.575 77.579 258.495 112.54 269.944 125.311 L 269.944 132.819 C 243.815 134.001 217.885 131.571 192.125 125.5 L 175.909 130.29 L 170.862 136.4 L 131.612 135.603 L 129.046 130.622 L 34.163 127.519 L 4.127 119.059 L 53.377 116.794 L 44.086 104.312 L 48.966 103.936 C 41.689 97.902 36.111 89.049 32.202 77.347 C 127.556 66.184 187.203 65.101 219.826 71.878 Z " fill="rgb(96,125,139)"/>
<path d=" M 45.998 76.606 L 21.743 38.323 L 46.608 38.414 Q 53.486 49.486 77.505 72.366 L 45.998 76.606 Z " fill="rgb(96,125,139)"/>
<path d=" M 35.216 78.885 C 37.938 88.2 41.915 96.963 50.549 103.907 L 46.78 103.907 C 38.695 96.571 33.295 86.295 29.833 76.253 Q 136.92 62.529 219.73 69.031 C 239.304 85.077 259.62 106.359 280.734 132.819 C 258.453 138.277 228.836 136.296 191.942 126.819 L 193.991 122.68 C 219.557 129.888 250.671 132.742 268.021 129.365 C 250.95 105.869 234.464 87.706 218.621 74.818 Q 129.885 64.304 35.216 78.885 Z " fill="rgb(0,0,0)"/>
<path d=" M 196.842 82.905 C 211.026 77.586 220.361 76.829 228.193 81.671 L 238.458 92.437 Q 223.068 87.934 207.055 95.159 L 196.842 82.905 Z " fill="rgb(0,0,0)"/>
<path d=" M 253.328 107.989 C 253.304 107.73 253.026 107.691 252.868 107.637 C 243.933 100.24 232.155 106.228 226.583 123.891 C 232.079 109.088 242.633 100.173 253.328 107.989 Z " fill="rgb(0,0,0)"/>
<path d=" M 52.908 116.982 L 56.662 116.888 L 46.714 104.593 Q 106.933 101.421 168.068 115.047 L 156.689 133.662 L 212.458 128.833 L 219.482 128.606 L 194.133 125.221 L 201.495 112.057 Q 112.443 97.293 41.348 103.922 L 52.908 116.982 Z " fill="rgb(0,0,0)"/>
<path d=" M 44.87 76.74 L 20.278 36.471 L 53.373 34.641 L 50.411 41.988 C 60.321 53.365 67.833 64.286 82.36 73.046 L 74.833 72.748 C 59.795 58.922 52.57 49.091 44.491 38.768 L 25.566 39.913 L 48.827 76.349 L 44.87 76.74 L 44.87 76.74 Z " fill="rgb(0,0,0)"/>
<path d=" M 127.075 127.029 C 122.687 128.016 117.517 129.85 114.93 131.806 C 128.149 145.212 191.229 148.701 205.008 140.848 Q 197.525 132.746 183.001 128.837 L 127.075 127.029 C 127.075 127.029 127.075 127.029 127.075 127.029 L 127.075 127.029 Z " fill="rgb(0,0,0)"/>
<path d=" M 34.68 129.588 C 12.685 126.889 7.682 124.537 -8.529 119.268 L 69.062 115.116 Q 96.186 112.809 137.391 122.445 Q 96.732 116.079 82.444 116.818 L 14.857 120.159 C 25.39 120.635 33.482 120.467 37.914 126.073 L 137.082 127.284 Q 135.269 131.173 129.92 132.446 L 34.68 129.588 Z " fill="rgb(0,0,0)"/>
<path d=" M 39.066 57.3 L -26.544 54.665 L 48.787 60.171 L 39.066 57.3 Z " fill="rgb(0,0,0)"/>
<path d=" M -32.543 86.865 L 68.581 94.704 L 51.431 91.833 L -32.537 86.515 L -32.543 86.865 L -32.543 86.865 Z " fill="rgb(0,0,0)"/>
</g>
</g>
</svg>