<svg xmlns="http://www.w3.org/2000/svg" style="isolation:isolate;">

  <style id="config_styles" type="text/css">
  
    :root {

        --outline-color: #707;
        --x-accent-color: none;
        --accent-color: hsla(40, 100%, 100%, 0.2);

        --bg-fill: url(newsprint.jpg);
        --bg-mask: url(#fade_mask);
        /*
        --bg-filter: url(#shake);
        --bg-opacity: 0.85;
        */

        /*
        --show-hearts: 1;
        --title-color: orange;
        --living-color: yellow;
        --things-color: blue;
        --circ1-color: green;
        --circ2-color: white;
        --heart-color: green;
        --square-color: purple;

        --border-color: red;
        --border-width: 9;

        --copy-color: brown;

        --outline-color: pink;
        */

    }
  </style>

  <style id="svg_styles" type="text/css">

    svg {
      background-image: var(--bg-fill, none);
      mask: var(--bg-mask, none);
    }
  
  </style>

  <style id="comic_styles" type="text/css">

    @font-face {
      font-family: 'Comic Neue';
      /* src: url('neue.ttf') format('truetype'); */
      src: url('ComingSoon.ttf') format('truetype');
    }
  
    text {
      font-family:'Comic Neue';
      font-weight: 400;
      font-size: 28px;
      fill: var(--text-color, var(--outline-color, #000));
    }
  
    .text-bubble {
      fill: none;
      stroke: var(--outline-color, #000);
      stroke-width: 1px;
    }

    .text-bubble + path {
      fill: var(--outline-color, #000);
    }

    #copyright {
      font-family:'Times New Roman';
      font-weight: 300;
      font-size:17px;
      fill:var(--copy-color, var(--outline-color, #000));
    }

    .border {
      fill: none;
      stroke: var(--border-color, var(--outline-color, #000));
      stroke-width: var(--border-width, 2); 
    }

    .obj {
      fill: var(--outline-color, #000);
    }
  
    @media (orientation: portrait) {
      .land { display: none; }
    }
  
    @media (orientation: landscape) {
      .port { display: none; }
    }
  
  </style>

  <defs id="pats_and_filters">

    <linearGradient id="fade" gradientUnits="objectBoundingBox">
      <stop offset="0%" stop-color="#000" stop-opacity="0"/>
      <stop offset="100%" stop-color="#000" />
    </linearGradient>

    <filter id="blur">
      <feGaussianBlur in="SourceGraphic" stdDeviation="0.3" />
    </filter>

    <filter id="shake" width="120%" height="220%" color-interpolation-filters="sRGB">
      <feImage href="newsprint.jpg" x="0" y="0" width="220%" height="120%" preserveAspectRatio="xMidYMid slice" result="mig" />
      <feDisplacementMap in="SourceGraphic" in2="mig" result="rat" scale="5" xChannelSelector="R" yChannelSelector="B" />
      <feGaussianBlur in="rat" stdDeviation="0.3" result="blur" />
      <!-- shift image back based on displacement's scale -->
      <feOffset in="blurred" dx="0.5" dy="5" result="final" />
    </filter>
    
    <pattern id="newsprint" patternUnits="userSpaceOnUse" width="100%" height="100%">
      <image href="newsprint.jpg" width="100%" height="100%" preserveAspectRatio="none" />
    </pattern>

    <pattern id="dots" viewBox="-2 -2 4 4" width="4" height="4"
     patternUnits="userSpaceOnUse" patternTransform="rotate(45) scale(1)">
     <circle r="1" fill="var(--outline-color, #000)" transform="scale(1.5)"/>
    </pattern>

    <pattern id="dots_big" viewBox="-2 -2 4 4" width="4" height="4"
     patternUnits="userSpaceOnUse" patternTransform="rotate(45) scale(2.5)">
     <circle r="1" fill="var(--outline-color, #000)" transform="scale(1.5)"/>
    </pattern>

  </defs>

  <defs id="clips_and_masks">

    <clipPath id="one_of_three_clip">
        <path d="M 0 0 H 400 V 400 H 0 Z"/>
    </clipPath>

    <clipPath id="two_of_three_clip">
        <path d="M 0 0 H 825 V 400 H 0 Z"/>
    </clipPath>

    <mask id="fade_mask"
     maskUnits="objectBoundingBox"
     maskContentUnits="objectBoundingBox"
    >
      <linearGradient id="fade_gradient"
       x1="0%" y1="100%"
       x2="90%" y2="0%"
      >
        <stop offset="0%" stop-color="#fff" stop-opacity="1" />
        <stop offset="100%" stop-color="#fff" stop-opacity="0.5" />
      </linearGradient>
      <rect width="1" height="1" fill="url(#fade_gradient)" />
    </mask>

  </defs>

  <defs id="copyright_defs">
    <text id="copyright" transform="rotate(270)">
      <tspan letter-spacing="-0.04em">&#xA9;MCMLXXXVIII</tspan>
      <tspan letter-spacing="0.03em">&#xB7; Trilobyte</tspan>
    </text>
  </defs>
  
  <defs id="border_defs">
      <path id="one_of_three_border" class="border" d=" M 0 0 H 400 V 400 H 0 Z " />
      <path id="two_of_three_border" class="border" d=" M 0 0 H 825 V 400 H 0 Z " />
  </defs>

  <defs id="character_defs">

    <defs>
      <path id="title_jet_mask" d="m219.83,71.88c5.74,5.7 38.67,40.66 50.11,53.43l0,7.51c-26.13,1.18 -52.06,-1.25 -77.81,-7.32l-16.22,4.79l-5.05,6.11l-39.25,-0.8l-2.56,-4.98l-94.89,-3.1l-30.03,-8.46l49.25,-2.27l-9.29,-12.48l4.88,-0.37c-7.28,-6.04 -12.86,-14.89 -16.77,-26.59c95.36,-11.17 155,-12.25 187.63,-5.47z M46,76.61l-24.26,-38.29l24.87,0.09q6.88,11.08 30.89,33.96l-31.5,4.24z " />
    </defs>

    <g id="char_1" fill="var(--outline-color, #000)">

      <use href="#title_jet_mask" fill="var(--accent-color)" />

      <path d="m35.22,78.89c2.72,9.31 6.69,18.07 15.33,25.02l-3.77,0c-8.08,-7.34 -13.48,-17.61 -16.95,-27.66q107.09,-13.72 189.9,-7.22c19.57,16.05 39.89,37.33 61,63.79c-22.28,5.46 -51.89,3.48 -88.79,-6l2.05,-4.14c25.57,7.21 56.68,10.06 74.03,6.69c-17.07,-23.5 -33.56,-41.66 -49.4,-54.55q-88.74,-10.52 -183.4,4.07z" />
      <path d="m196.84,82.91c14.19,-5.32 23.52,-6.08 31.35,-1.24l10.27,10.77q-15.39,-4.51 -31.4,2.72l-10.22,-12.25z" />
      <path d="m253.33,107.99c-0.03,-0.26 -0.3,-0.3 -0.46,-0.35c-8.94,-7.4 -20.71,-1.41 -26.29,16.25c5.5,-14.8 16.05,-23.72 26.75,-15.9z" />
      <path d="m52.91,116.98l3.75,-0.09l-9.95,-12.3q60.22,-3.17 121.36,10.46l-11.38,18.61l55.77,-4.83l7.02,-0.22l-25.35,-3.39l7.37,-13.16q-89.06,-14.77 -160.15,-8.14l11.56,13.06z" />
      <path d="m44.87,76.74l-24.59,-40.27l33.09,-1.83l-2.96,7.35c9.91,11.38 17.42,22.3 31.95,31.06l-7.53,-0.3c-15.03,-13.83 -22.26,-23.66 -30.34,-33.98l-18.92,1.14l23.26,36.44l-3.96,0.39l0,0z" />
      <path d="m127.08,127.03c-4.39,0.99 -9.56,2.82 -12.15,4.78c13.22,13.4 76.3,16.89 90.08,9.04q-7.48,-8.1 -22.01,-12.01l-55.92,-1.81c0,0 0,0 0,0l0,0z" />
      <path d="m34.68,129.59c-21.99,-2.7 -27,-5.05 -43.21,-10.32l77.59,-4.15q27.13,-2.31 68.33,7.32q-40.66,-6.36 -54.95,-5.62l-67.58,3.34c10.53,0.48 18.62,0.31 23.05,5.91l99.17,1.21q-1.81,3.89 -7.16,5.17l-95.24,-2.86z" />
      <path d="m39.07,57.3l-65.61,-2.64l75.33,5.51l-9.72,-2.87z" />
      <path d="m-32.54,86.86l101.12,7.84l-17.15,-2.87l-83.97,-5.31l0,0.34l0,0z" />
    </g>

    <defs> 
        <path id="boat_mask" d="m718.68,162.49l-0.51,44.42l-19.41,6.12l3.58,28.85l-20.42,8.42l3.57,23.24l200.31,-8.36c9.04,-14.87 18.56,-38.69 23.46,-64.68c-4.32,-13.52 -13.12,-22.68 -21.35,-34.33l-44.54,13.12l-45.04,28.76l-27.45,1.79l-23.39,-5.26l-11.42,-42.29l6.83,-17.18l-24.22,17.38z"/>
    </defs>

    <g id="char_2" transform="translate(-604 -71)">
      <g id="svg_88" fill="var(--outline-color, #000">

        <use href="#boat_mask" fill="var(--accent-color)" />

        <path d="m684.45,273.39c-2.37,-5.74 -3.65,-12.39 -3.84,-19.99l-3.7,0.39l-0.9,-2.9l25.47,-11.94l0.8,4.38l-18.71,8.75c0.21,6.74 1.8,14.04 4.78,21.89l-3.9,-0.58z" />
        <path d="m699.72,246.55q1.9,-16.16 -2.21,-29.99l-6.77,-0.97l-0.49,-3.71l29.35,-8.22l1.77,4.84l-20.47,5.8q2.24,12.96 3.34,32.25l-4.52,0z" />
        <path d="m702.9,169.29l41.77,-29.87l76.66,-13.04l37.96,15.65c-7.53,6.02 -11.87,11.99 -13.01,17.89l6.03,18.76l-4.52,2.15l-5.14,-23.72c1.35,-5.52 4.12,-9.9 8.3,-13.18l-31.61,-10.09l-74.72,13.79l-40.3,29.34l-1.42,-7.68z" />
        <path d="m720.67,160.86l-1.22,46.37l-4.64,0.49l1.71,-12.2l-7.08,-18.55l1.96,-2.2l5.37,18.31l-0.49,-12.94l-1.71,-4.39l2.2,-3.18l-1.22,-8.05l5.12,-3.66z" />
        <path d="m754.67,159.96l61.2,-13.86l28.27,8.4l0.07,6.08l-28.01,-7.57l-66.79,16.75l5.26,-9.8z" />
        <path d="m750.51,180.87l66.63,-15.67l30.82,7.92l-1.69,-6.52l-29.13,-7.26l-62.56,15.17l-4.07,6.36z" />
        <path d="m753.73,186.35l65.94,-14.38l27.67,7l-5.27,3.57l-20.84,-5.24l-72.6,17.92l5.1,-8.87z" />
        <path d="m747.31,143.57l-8.37,18.06l8.91,38.94c19.01,11.62 39.81,9.67 49.58,3.71c34.26,-20.9 51.96,-36.49 91.2,-41.81c8.82,7.59 17.9,21.25 22.8,38.64c-7.3,27.12 -16.63,50.89 -22.97,64.46l-5.99,0.27c9.15,-14.86 19.14,-39.06 24.88,-65.82c-6.49,-14.99 -13.13,-24.94 -19.92,-29.86c-33.66,4.75 -52.06,18.01 -86.19,38.99c-7.42,4.57 -46.64,6.86 -56.79,-5.07l-10.22,-40.41l8.01,-17.46l5.07,-2.64z" />
        <path d="m651.91,273.14c-0.53,-9.91 -1.63,-20.88 -4.58,-30.65c2.85,-5.86 19.08,-4.24 18.74,-1.39c-1.56,10.66 -1.78,21.42 -0.69,32.28l-13.47,-0.24z" />
        <path d="m667.26,244.77c18.46,21.78 38.11,21.92 58.94,0.4l-0.2,2.17c-22.68,20.51 -41.92,20.32 -57.75,-0.59l-0.99,-1.98z" />
        <path d="m633.47,261.85c4.45,-2.47 9.06,-5.86 13.82,-10.16l0.19,-2.17c-4.72,4.88 -9.38,8.64 -13.99,11.27l-0.02,1.06l0,0z" />
        <path d="m750.24,242.07c26.54,21.77 54.8,21.91 84.76,0.39l-0.29,2.18c-32.62,20.51 -60.29,20.31 -83.05,-0.59l-1.42,-1.98z" />
        <path d="m727.64,239.9c3.5,9.51 4.81,19.56 3.91,30.12l16.04,0c-1.84,-13.77 -1.7,-24.85 0.39,-33.25c-9.23,-2.74 -16.01,-1.69 -20.34,3.13z" />
        <path d="m837.06,237.87c9.44,-2.51 15.7,-2.9 18.78,-1.18c-0.99,11.54 -0.08,21.32 2.74,29.34l-14.87,0.39c-0.48,-6.89 -2.69,-16.4 -6.65,-28.55z" />
        <path d="m853.06,238.31l-3.51,-0.1l4.03,27.43l3.08,-0.03c-1.83,-8.99 -3.02,-18.08 -3.6,-27.3z"
          fill="#fff" fill-opacity="0.3" />
        <path d="m744.17,238.9l-4.28,-1.15l2.69,28.89l2.84,0.02c-1.83,-8.99 -0.66,-18.53 -1.25,-27.76z"
          fill="#fff" fill-opacity="0.3" />
        <path d="m663.79,242.25c-0.73,-1.34 -2.09,-1.92 -4.69,-1l2.04,30.48l2.84,0.02c-1.84,-8.99 0.39,-20.28 -0.19,-29.5z"
          fill="#fff" fill-opacity="0.3" />
        <path d="m861.79,186.28l5.03,-1.92c-16.75,16.99 -4.55,27.04 9.57,1.92c-6.22,22.01 -31.59,21.77 -14.6,0z" />
        <path d="m848.63,205.41l-2.41,3.72l18.59,-1.1l1.53,-1.75l2.93,-1.05c-7.81,0.29 -14.67,0.37 -20.64,0.18z" />
        <path d="m842.5,226.84l17.18,-24.69c-5.81,-1.61 2.78,-7.18 6.35,-5.99c-4.82,0.85 -5.72,3.01 -4.41,3.56c1.47,0.62 5.46,-0.59 4.03,-3.66c4.51,0.47 2.35,5.91 -3.73,6.45l-16.79,24.99l-2.63,-0.66z" />
        <path d="m841.71,211.59c-2.28,9.45 -1.5,14.44 2.32,14.93c4.36,0.57 9.18,-2.29 14.67,-9.84l2.06,-1.43c-5.24,11.22 -11.46,16.3 -18.69,15.21c-7.03,-1.07 -8.22,-6.99 -4.29,-14.67l3.93,-4.2z" />
        <path d="m721.46,114.8l-1.41,3.24c2.64,2.29 4.1,16.73 4.37,43.33l1.55,-2.26c-0.55,-25.74 -2.05,-40.51 -4.51,-44.31z" />
        <path d="m727.1,111.13l2.83,-2.12l0.28,45.16l-1.7,1.13l-1.41,-44.17z" />
        <path d="m775.44,114.06l-1.13,3.38l-1.41,-2.03l2.4,-9.59l1.41,0.84l3.53,31.47l-1.56,-0.14l-3.24,-23.93z" />
        <path d="m784.75,93.17l2.4,0.99c-2.3,14.12 -2.91,28.9 -1.83,44.31l-1.56,0.14c-0.76,-15.98 -0.43,-31.13 0.99,-45.44z" />
        <path d="m873.15,264.52c10.34,-27.21 14.05,-63.2 15.64,-96.18l-2.27,-1.85c-1.97,32.08 -5.66,68.7 -15.64,98.03l2.27,0z" />
      </g>
      <path class="obj" d="m924.57,280.07c-97.76,1.71 -197.15,-4.1 -291.1,1.46l2.24,-8.33c90.12,-9.48 197.72,-11.46 288.86,-7.31l0,14.18z" />
    </g>

    <defs>
      <path id="jet_mask" d="m99.52,457.81l-43.62,35.65l0,5.01l36.46,-3.03l1.16,9.93l16.36,-1.99l-4.24,-6.72l39.22,3.43l0.53,2.96l58.92,-1.24l-0.34,-2.54l28.85,-0.47l32.15,-7.17l-27.03,-3.13c26.71,-23.5 42.36,-39.43 54.6,-52.66l-26.11,1.53l-30.04,21.21c-48.65,-3.43 -94.27,-3.68 -136.87,-0.77z" />
    </defs>

    <g id="char_3" transform="translate(0 -300)">

      <g id="svg_121">
        <g id="svg_122" fill="var(--outline-color, #000)" >

          <use href="#jet_mask" fill="var(--accent-color)" />

          <path d="m257.21,460.38q-85.54,-8.81 -157.61,-4.47l-53.09,42.56l9.39,1.42c24.62,0.4 47.14,-2.11 67.89,-6.7l-1.79,-2.76c-17.53,2.81 -44.62,5.98 -64.42,5.74l42.99,-36.4c22.95,-4.09 75.17,-3.88 156.64,0.61z" />
          <path d="m92.02,497.34l3.86,7.71l15.95,-0.66l-5.45,-8.64l-2.4,0.26l4.66,6.78l-11.44,0.27l-2.79,-6.25l-2.39,0.53z" />
          <path d="m90.86,496.64l-3.68,10.92l16.2,-2.08l-1.39,-0.96l-6.11,-0.53l-2.4,-6.91l-2.62,-0.44z" />
          <path d="m114.85,463.02l-21.7,1.06l-9.49,8.64c6.25,-0.21 13.78,-0.06 22.57,0.43l8.62,-10.13z" />
          <path d="m73.94,482.19c0.02,-0.17 0.22,-0.19 0.34,-0.23q15.76,1.01 19.36,10.55c-3.31,-5.47 -7.41,-9.22 -19.7,-10.32z" />
          <path d="m226.39,479.23q-36.4,-0.36 -89.6,8.73l10.96,13.28l-39.74,-2.26l-3.01,-3.91l16.88,-1.67l-6.41,-8.78q77.51,-9.85 120.19,-5.86l-9.27,0.47z" />
          <path d="m240.1,488.68c7.9,-8.88 15.73,-12.93 56.38,-54.58l-40.33,1.02l6.93,3.34c-8.62,7.59 -19.24,14.32 -31.89,20.17l8.63,0.39l30.58,-21.87l19.83,-0.25c-36.29,37.21 -46.78,42.64 -54.72,51.68l4.59,0.1z" />
          <path d="m204.31,499.27c3.63,0.86 9.33,2.83 11.37,4.18c-12.25,7.69 -68.68,7.27 -78.65,1.6q3.04,-2.92 6.87,-4.67l60.41,-1.11z" />
          <path d="m234.25,499.45c10.38,0 13.8,-4.18 41.74,-7.69l-46.45,-4.9q-25.22,-0.82 -74.71,6.6q49.95,-4.9 72.66,-4.58l31.18,3.17c-17.76,0.2 -24.21,2.2 -27.23,5.95l-76.35,-1.31c2.16,1.71 4.49,2.89 6.97,3.49q72.36,-0.7 72.19,-0.73z" />
          <path d="m178.51,517.68c-6.74,-4.61 -15.67,0.61 -14.08,9.24c1.39,7.54 18.24,7.24 18.14,-2.54q-0.03,-3.79 -5.15,-20.23l-3.77,0.1c3.12,5.96 4.75,10.44 4.86,13.43zm-9.52,6.96c0,-3.01 2.18,-5.46 4.86,-5.46c2.68,0 4.86,2.45 4.86,5.46c0,3.01 -2.18,5.45 -4.86,5.45c-2.68,0 -4.86,-2.44 -4.86,-5.45z" fill-rule="evenodd" id="svg_133" />
          <path d="m105.12,517.68c-6.75,-4.61 -15.68,0.61 -14.09,9.24c1.39,7.54 18.25,7.24 18.15,-2.54q-0.04,-3.79 -5.15,-20.23l-3.77,0.1c3.12,5.96 4.74,10.44 4.86,13.43zm-9.52,6.96c0,-3.01 2.17,-5.46 4.86,-5.46c2.68,0 4.85,2.45 4.85,5.46c0,3.01 -2.17,5.45 -4.85,5.45c-2.69,0 -4.86,-2.44 -4.86,-5.45z" fill-rule="evenodd" id="svg_134" />
          <path d="m165,517.68c-6.75,-4.61 -15.67,0.61 -14.08,9.24c1.38,7.54 18.24,7.24 18.14,-2.54q-0.04,-3.79 -5.15,-20.23l-3.77,0.1c3.12,5.96 4.75,10.44 4.86,13.43z" fill-rule="evenodd" />
          <ellipse cx="100.46" cy="524.64"
            fill="var(--accent-color)" id="svg_136" rx="4.86" ry="5.45" />
          <ellipse cx="173.85" cy="524.64"
            fill="var(--accent-color)" id="svg_137" rx="4.86" ry="5.45" />
        </g>
      </g>
    </g>

    <g id="char_4" transform="translate(-7 -58) translate(-127 -10) matrix(1 0 0 1 -1 -323)">
      <path class="obj" d="m163.69,524.84c94.16,-5.64 207.78,-7.5 304.34,-5.59l-10.91,1.38c-98.23,-0.79 -205.09,2.37 -303.23,8.18l9.8,-3.97z" />

      <g id="svg_42" transform="matrix(1 0 0 1 -122 -27)">
        <g id="svg_43" fill="var(--outline-color, #000)">
          <path d="m322.38,491.45l-0.28,24.36l-10.64,3.36l1.96,15.82l-11.2,4.62l1.96,12.75l109.86,-4.59c4.96,-8.15 10.18,-21.22 12.87,-35.47c-2.37,-7.42 -7.19,-12.44 -11.71,-18.83l-24.43,7.19l-24.7,15.78l-15.06,0.98l-12.83,-2.88l-6.26,-23.2l3.75,-9.42l-13.29,9.53z"
            fill="url(#dots)" data-fill="var(--accent-color)" id="svg_44" />
          <path d="m303.61,552.28c-1.3,-3.15 -2,-6.8 -2.11,-10.97l-2.03,0.22l-0.49,-1.59l13.97,-6.55l0.43,2.4l-10.25,4.8c0.11,3.69 0.98,7.7 2.62,12.01l-2.14,-0.32z" />
          <path d="m311.98,537.55q1.05,-8.86 -1.21,-16.45l-3.71,-0.53l-0.27,-2.03l16.1,-4.51l0.97,2.65l-11.23,3.19q1.23,7.11 1.83,17.68l-2.48,0z" />
          <path d="m313.73,495.18l22.91,-16.39l42.04,-7.15l20.83,8.59c-4.14,3.3 -6.51,6.57 -7.14,9.81l3.31,10.29l-2.48,1.18l-2.82,-13.01c0.74,-3.03 2.26,-5.43 4.55,-7.23l-17.34,-5.54l-40.98,7.57l-22.11,16.09l-0.77,-4.21z" />
          <path d="m323.47,490.55l-0.66,25.44l-2.55,0.27l0.94,-6.7l-3.88,-10.17l1.07,-1.2l2.94,10.04l-0.27,-7.1l-0.93,-2.41l1.2,-1.74l-0.67,-4.42l2.81,-2.01z" />
          <path d="m342.12,490.06l33.57,-7.6l15.51,4.61l0.04,3.33l-15.37,-4.15l-36.63,9.19l2.88,-5.38z" />
          <path d="m339.84,501.53l36.55,-8.59l16.9,4.34l-0.93,-3.58l-15.97,-3.98l-34.32,8.32l-2.23,3.49z" />
          <path d="m341.61,504.54l36.17,-7.89l15.17,3.84l-2.89,1.96l-11.43,-2.88l-39.82,9.83l2.8,-4.86z" />
          <path d="m338.08,481.07l-4.59,9.91l4.89,21.36c10.43,6.37 21.84,5.3 27.19,2.03c18.8,-11.47 28.5,-20.01 50.03,-22.93c4.84,4.16 9.82,11.65 12.51,21.19c-4.01,14.88 -9.13,27.92 -12.6,35.36l-3.29,0.15c5.02,-8.15 10.5,-21.43 13.64,-36.11c-3.56,-8.22 -7.19,-13.67 -10.92,-16.37c-18.46,2.6 -28.55,9.88 -47.27,21.38c-4.08,2.51 -25.59,3.76 -31.16,-2.78l-5.6,-22.16l4.4,-9.58l2.77,-1.45z" />
          <path d="m285.76,552.14c-0.29,-5.44 -0.89,-11.46 -2.51,-16.81c1.56,-3.21 10.46,-2.33 10.28,-0.76c-0.86,5.84 -0.98,11.75 -0.38,17.7l-7.39,-0.13z" />
          <path d="m294.18,536.58c10.12,11.94 20.9,12.02 32.33,0.22l-0.11,1.19c-12.44,11.25 -23,11.14 -31.68,-0.32l-0.54,-1.09z" />
          <path d="m275.65,545.95c2.44,-1.36 4.96,-3.22 7.57,-5.57l0.11,-1.2c-2.59,2.68 -5.15,4.74 -7.67,6.19l-0.01,0.58l0,0z" />
          <path d="m339.69,535.1c14.56,11.94 30.06,12.02 46.49,0.21l-0.16,1.2c-17.89,11.24 -33.07,11.14 -45.55,-0.33l-0.78,-1.08z" />
          <path d="m327.3,534.46c1.92,5.21 2.64,10.72 2.14,16.51l8.8,0c-1.01,-7.55 -0.93,-13.62 0.21,-18.23c-5.06,-1.5 -8.78,-0.93 -11.15,1.72z" />
          <path d="m387.31,532.79c5.18,-1.37 8.61,-1.58 10.3,-0.64c-0.54,6.32 -0.04,11.69 1.5,16.09l-8.15,0.21c-0.27,-3.77 -1.48,-8.99 -3.65,-15.66z" />
          <path d="m400.88,504.5l2.75,-1.05c-9.19,9.31 -2.49,14.83 5.25,1.05c-3.41,12.07 -17.32,11.94 -8,0z" />
          <path d="m393.66,514.99l-1.32,2.04l10.19,-0.6l0.84,-0.96l1.61,-0.58c-4.28,0.16 -8.05,0.2 -11.32,0.1z" />
          <path d="m390.3,526.74l9.42,-13.54c-3.19,-0.88 1.53,-3.94 3.48,-3.28c-2.64,0.46 -3.14,1.65 -2.42,1.95c0.81,0.34 3,-0.32 2.21,-2.01c2.48,0.26 1.29,3.25 -2.04,3.54l-9.21,13.7l-1.44,-0.36z" />
          <path d="m389.86,518.38c-1.25,5.18 -0.82,7.92 1.28,8.19c2.39,0.31 5.03,-1.26 8.04,-5.4l1.13,-0.78c-2.87,6.15 -6.29,8.94 -10.25,8.34c-3.86,-0.59 -4.51,-3.83 -2.36,-8.05l2.16,-2.3z" />
          <path d="m323.91,465.29l-0.78,1.78c1.45,1.25 2.25,9.18 2.4,23.76l0.85,-1.24c-0.3,-14.11 -1.12,-22.21 -2.47,-24.3z" />
          <path d="m327,463.28l1.55,-1.16l0.15,24.76l-0.92,0.62l-0.78,-24.22z" />
          <path d="m353.51,464.88l-0.62,1.86l-0.77,-1.11l1.32,-5.27l0.77,0.47l1.93,17.26l-0.85,-0.08l-1.78,-13.13z" />
          <path d="m358.62,453.43l1.32,0.54c-1.26,7.75 -1.6,15.85 -1.01,24.3l-0.85,0.08c-0.42,-8.77 -0.24,-17.07 0.54,-24.92z" />
          <path d="m407.11,547.41c5.67,-14.92 7.7,-34.66 8.57,-52.75l-1.24,-1.02c-1.08,17.6 -3.11,37.68 -8.57,53.77l1.24,0z" />
        </g>
      </g>

      <g fill="var(--outline-color, #000)" transform="matrix(1 0 0 1 -122 -27)" >
        <path d="m471.88,512.13c-6.32,-4.09 1.12,-8.37 22.33,-12.85l-21.73,-13.45c-29.08,9.48 -36.51,31.93 -17.57,42.14l5.09,1.5c15.09,1.48 27.1,1.34 36.01,-0.42l12.65,1.78l13.25,0.15l-11.72,-4l2.86,-3.75l-1.23,-0.56l18.88,-19.46l-7.76,-0.45l-14.84,10.6q-12.53,-0.88 -36.22,-1.23z"
          fill="url(#dots)" xxx-fill="var(--accent-color)" id="svg_69" />
        <path d="m472.32,512.61c11.58,0.01 26.62,0.53 45.02,1.55q-24.23,-2.5 -46,-2.59l0.98,1.04l0,0z" />
        <path d="m441.31,523.01l-11.04,6.77l3.26,2.86l21.99,-4.14c-4.57,-0.75 -7.88,-4.65 -9.99,-11.73c-3.64,0.31 -5.25,0.57 -8.26,1.64l4.04,4.6z" />
        <path d="m453.88,528.71c-14.39,-6.63 -18.38,-33.43 19.47,-43.35c4.6,4.44 11.67,7.01 21.71,14.43c-25.3,4.72 -29.83,10.59 -17.71,15.39c-14.5,-4.91 -9.58,-10.67 15.1,-15.97c-8.59,-6.49 -15.33,-8.17 -19.58,-11.52c-34.9,6.55 -29.83,36.86 -17.78,39.59c10.54,2.39 25.91,3.22 38.8,1.07l2.84,1.01c-14.71,3.16 -38.66,1.28 -42.85,-0.65z" />
        <path d="m477.09,489.44q-5.43,0.4 -11.16,2.88l4.44,4.13q5.32,-2.37 11.5,-3.67l-4.78,-3.34z" />
        <path d="m483.44,493.1c-7.13,3.47 -9.23,7.1 -6.31,10.88l0.38,-0.18c-3.18,-3.52 -1.3,-6.8 5.93,-10.7z" />
        <path d="m510.48,527.18l-0.96,-0.24l2.59,-3.63l-31.61,-4.23l0.84,7.92l-15.72,-2.41c2.83,-2.3 4.77,-4.76 5.8,-7.4l42.58,5.79l-3.52,4.2z" />
        <path d="m512.35,523.03c5.4,-4.63 9.25,-10.69 19.75,-20.39l-13.94,-1.1l0.65,2.9c-3.82,3.36 -8.54,6.35 -14.15,8.94l3.83,0.17l13.78,-10.28l7.45,0.47c-8.51,7.81 -11.77,13.19 -19.01,19.01l1.64,0.28l0,0z" />
        <path d="m487.26,529.25c1.4,0.52 2.97,1.34 3.75,2.15c-4.73,4.61 -25.96,4.32 -30.4,1.22c1.02,-1.2 2.4,-2.13 3.17,-2.8c9.09,0.97 16.59,0.79 23.48,-0.57l0,0z" />
        <path d="m508.97,531.3c-0.05,-0.03 -0.11,-0.06 -0.17,-0.09c6.28,0.33 7.44,0.31 16.67,0.41l-14.5,-4.85q-11.25,-2.57 -27.7,-2.21q19.63,1.51 26.88,2.97l9.75,3.21c-7.75,-0.76 -9.83,-1.7 -11.88,-0.33l-24.92,-4.43q0.68,0.92 2.5,1.55l23.37,3.77l0,0z" />
        <path d="m482.43,539.58c-2.99,-2.05 -6.95,0.26 -6.25,4.09c0.62,3.35 8.09,3.21 8.05,-1.12q-0.02,-1.68 -2.29,-8.98l-1.67,0.05c1.39,2.64 2.11,4.63 2.16,5.96zm-4.23,3.08c0,-1.33 0.97,-2.42 2.16,-2.42c1.19,0 2.15,1.09 2.15,2.42c0,1.34 -0.96,2.42 -2.15,2.42c-1.19,0 -2.16,-1.08 -2.16,-2.42z" fill="rgb(0,0,0)" fill-rule="evenodd" id="svg_79" />
        <path d="m472.88,539.58c-2.99,-2.05 -6.95,0.26 -6.24,4.09c0.61,3.35 8.09,3.21 8.05,-1.12q-0.02,-1.68 -2.29,-8.98l-1.67,0.05c1.38,2.64 2.1,4.63 2.15,5.96zm-4.22,3.08c0,-1.33 0.97,-2.42 2.16,-2.42c1.18,0 2.15,1.09 2.15,2.42c0,1.34 -0.97,2.42 -2.15,2.42c-1.19,0 -2.16,-1.08 -2.16,-2.42z" fill="rgb(0,0,0)" fill-rule="evenodd" id="svg_80" />
        <ellipse cx="480.36" cy="542.66"
          fill="var(--accent-color)" id="svg_81" rx="2.16" ry="2.42" />
        <ellipse cx="470.82" cy="542.66"
          fill="var(--accent-color)" id="svg_82" rx="2.16" ry="2.42" />
      </g>

    </g>

    <g id="egger" transform="translate(-275 -142) translate(-146 -165) matrix(1 0 0 1 -122 -27)">
      <g id="svg_11" fill="var(--outline-color, #000)">
        <path d="m832.64,459.49l97.05,10.74c-6.2,26.03 -16.71,55.93 -31.27,74.91l-273.92,-0.27c-15.59,-15.75 -28.1,-36.23 -30.69,-62.08q80.2,-2.56 110.19,-27.49l8.65,4.95c51.45,-2.61 90.7,-3.61 119.99,-0.76z"
          fill="url(#dots)" data-fill="var(--accent-color)" id="svg_12" />
        <path d="m718.76,431.45c-31.09,-25.93 -80.38,-41.13 -139.15,-44.12c-4.95,11.32 -12.69,23.38 -23.23,36.15q12.68,22.46 32.38,33.04l5.68,-2.58q-19.73,-10.42 -29.44,-31.5c6.91,-9.93 12.94,-19.9 18.08,-29.95c51.72,-0.61 97.6,14.1 134.34,43.62l1.34,-4.66z" />
        <path d="m573.72,421.79c53.76,3.34 99.67,16.64 137.7,39.86c37.04,-3.43 78.07,-3.89 123.06,-1.4l98.51,11.75l4.93,-1.44l-103.98,-13.61c-45.67,-3.19 -86.32,-3.07 -121.97,0.36c-36.28,-23.25 -80.98,-35.6 -134.11,-37.09l-4.14,1.57z" />
        <path d="m606.29,446.18c-11.82,5.26 -22.78,11.44 -32.9,18.5l12.34,19.02c55.3,1.14 95.69,-7.58 121.13,-26.21l-5.14,-4.11c-25.71,18.45 -63.65,26.64 -113.87,24.51l-7.45,-12.08c6.79,-7.17 15.43,-13.7 25.89,-19.63z" />
        <path d="m597.65,422.5c4.36,9.03 11.67,17.6 21.91,25.67c-1.95,1.78 -3.56,3.91 -4.85,6.35l-6.95,-0.72l1.26,2.25c24.69,2.34 47.44,-2 68.25,-13.06c-22.04,-10.88 -48.58,-17.71 -79.62,-20.49z" />
        <path d="m694.35,544.52c9.12,-5.86 15.88,-14.57 20.24,-26.19c3.86,10.65 9.7,19.44 17.51,26.36l-37.75,-0.17z" />
        <path d="m708.8,482.29c-3.75,-2.18 -7.65,-1.43 -11.73,2.21c4.88,-2.27 8.5,-0.85 11.05,3.23l0.68,-5.44z" />
        <path d="m707.38,501.73l0.81,2.27c-1.71,11.96 -8.02,22.91 -18.93,32.85l-1.94,0.16c11.85,-9.45 18.55,-21.2 20.06,-35.28z" />
        <path d="m820.9,477.01l0.91,3.84c-1.93,20.23 -9.04,38.78 -21.35,55.61l-2.19,0.28c13.37,-16 20.93,-35.9 22.63,-59.73z" />
        <path d="m718.13,433.22c-1.64,4.93 -3,9.97 -4.08,15.15c0.47,-5.37 1.52,-10.61 3.15,-15.69l0.93,0.54l0,0z" />
        <path d="m719.89,433.29c2.56,-7.61 5.82,-14.92 9.78,-21.92c-4.79,6.83 -8.37,13.95 -10.71,21.37l0.93,0.55l0,0z" />
        <path d="m815.56,374.29c5.8,14.44 9.9,29.91 12.34,46.42c-1.03,-16.53 -5.16,-31.99 -12.34,-46.42z" />
        <path d="m832.68,431.23c2.16,7.74 2.35,15.63 1.11,24.69c3.06,-9 1.57,-16.95 -1.11,-24.69z" />
        <path d="m591.09,481.5l7.1,0.44c4.14,30.12 15.36,50.31 30.67,63.35l-6.49,-0.89c-11.92,-10.03 -25.14,-31.2 -31.28,-62.9z" />
        <path d="m710.16,468.79l-2.79,8.39c1.81,38.83 10.01,53.81 24.24,68.06l3.49,-0.71c-18.51,-17.23 -22.46,-29.99 -24.94,-75.74z" />
        <path d="m623.84,543.28l274.92,0.14l34.33,3.18l-360.71,0l51.46,-3.32z" />
        <path d="m736.21,371.19c2.94,-6.62 18.32,-4.09 37.97,10.22c-19.49,-9.14 -30.03,-8.85 -27.71,-2.76l-10.26,-7.46z" />
        <path d="m754.62,372.19l8.35,3.46c15.76,-0.2 32.88,-1.76 51.32,-4.68c40.47,5.57 76.15,13.15 103.29,21.56c2.06,0.64 4.1,2.86 4.56,4.97c2.48,11.45 4.98,27.11 6.64,43.16l5.46,1.28c-1.9,-13.87 -5.54,-32.4 -10,-50.06c-0.42,-1.65 -2.1,-3.37 -3.74,-3.83c-29.71,-8.25 -64.79,-15.72 -106.48,-21.59c-18.71,3.23 -38.5,5.15 -59.4,5.73z" />
        <path d="m718.76,431.45q44.4,-10.76 111.63,-7.52c44.85,5.5 81.67,11.55 111.5,18.49c2.69,13.71 2.56,24.93 0.95,32.76c-3.81,1.26 -8.48,2.63 -14.06,4.08l0.65,-4.08c4.59,-0.78 8.25,-1.6 10.95,-2.48c0.87,-8.81 0.96,-17.79 -1.14,-26.97c-30.85,-5.92 -65.74,-13.53 -107.83,-16.68q-65.99,-4.48 -113.99,7.06l1.34,-4.66z" />
        <path d="m899.5,544.35c12.73,-10.04 23.42,-34.55 32.04,-73.54l-4.2,0c-4.17,33.51 -14.76,57.94 -31.79,73.28l3.95,0.26z" />
        <path d="m853.79,545.66c13.58,-12.28 22.7,-35.65 27.32,-70.13l-2.36,-2.36c-3.42,34.41 -12.61,58.49 -27.58,72.23l2.62,0.26z" />
        <path d="m878.66,482.68c6.33,-6.61 14.97,-6.38 13.67,0.78c-4.42,-5.66 -9.31,-3.27 -14.71,7.16l1.04,-7.94z" />
        <path d="m856.53,503.14l-0.9,1.08c8.04,0.42 14.56,1.7 19.52,3.8l0.75,-0.74c-4.41,-1.82 -10.86,-3.19 -19.37,-4.14z" />
        <path d="m905.78,499.59l-0.91,1.08c8.05,0.43 14.57,1.7 19.53,3.81l0.74,-0.75c-4.41,-1.81 -10.85,-3.19 -19.36,-4.14z" />
        <path d="m852.98,510.34l-1,1.08c8.84,0.42 15.99,1.7 21.44,3.8l0.82,-0.74c-4.84,-1.82 -11.92,-3.19 -21.26,-4.14z" />
        <path d="m902.93,504l-1,1.07c8.84,0.43 15.99,1.71 21.44,3.81l0.82,-0.75c-4.84,-1.81 -11.92,-3.19 -21.26,-4.13z" />
        <path d="m833.57,479.68c6.33,-6.6 15.29,-9.2 15.56,-0.53c-3.5,-7.2 -11.93,-0.39 -16.35,10.46l0.79,-9.93z" />
        <path d="m810.7,544.66q21.68,-27.21 23.56,-69.79l-2.1,-1.4q-1.87,46.42 -26.01,71.67l4.55,-0.48z" />
        <path d="m767.02,392.36c-28.29,-30.61 -76.76,-45.39 -145.42,-44.36c-8.97,15.83 -19,29.87 -30.1,42.12l7.04,0.7l26.06,-37.32c51.89,-4.25 99.37,8.71 142.42,38.86z" />
      </g>
    </g>

  </defs>

  <defs id="panel_defs">

    <g id="panel_1">

      <g clip-path="url(#two_of_three_clip)">


        <mask id="panel_1_mask">
          <rect width="900" height="400" fill="#fff"/>
          <use href="#title_jet_mask" fill="#000"
            transform="translate(22 5)"
          />
          <use href="lil-morris.svg#matte" fill="#000"
            transform="translate(826 207) scale(-1 1) scale(1.75)"
          />
        </mask>

        <g mask="url(#panel_1_mask)" >

          <use href="title-sunday.svg#solid" fill="url(#dots)" />
          <use href="title-sunday.svg#outline" style=" --outline-width: 6; "/>

        </g>

        <use href="#char_1"
          transform="translate(22 5)"
        />

        <use href="lil-morris.svg#ikon"
          transform="translate(826 207) scale(-1 1) scale(1.75)"
          style="
            --chest-color: var(--accent-color);
          "
        />

      </g>

      <!--<use href="#two_of_three_border" />-->

    </g>

    <g id="panel_2">

      <g clip-path="url(#one_of_three_clip)">

        <g transform="translate(200 40)">
          <text text-anchor="middle">
            <tspan>I'm so expensive a 
              <tspan font-style="italic">billionaire</tspan>
            </tspan>
            <tspan x="0" dy="1em">lost me in his divorce.</tspan>
          </text>
        </g>
        <path class="text-bubble" d=" M 7 7 H 393 V 85 H 7 Z "/>
        <path d=" m 300 85 h 4 l -7 22 z"/>

        <g transform="translate(-45 108) scale(1.40)">
          <use href="#boat_mask" fill="url(#dots)" transform="translate(-604 -71)" />
          <use href="#char_2" style="--accent-color: none"/>
        </g>

      </g>

      <use href="#one_of_three_border" />

    </g>

    <g id="panel_3">

      <g clip-path="url(#one_of_three_clip)">

        <mask id="dot_mask_panel_3">
          <rect width="400" height="400" fill="#000" />
          <use href="#jet_mask" fill="#fff"
            transform="translate(-55 -30) scale(1.5) translate(0 -300)"
          />
        </mask>

        <rect width="400" height="400" fill="url(#dots)"
          mask="url(#dot_mask_panel_3)"
        />

        <g transform="translate(200 40)">
          <text text-anchor="middle">
            <tspan>
              <tspan font-style="italic">I'm</tspan> 
              so expensive
            </tspan>
            <tspan x="0" dy="1em">I bankrupted a nation!</tspan>
          </text>
        </g>
        <path class="text-bubble" d=" M 7 7 H 393 V 85 H 7 Z "/>
        <path d=" m 300 85 h 4 l -7 22 z"/>

        <g transform="translate(-55 -30) scale(1.5)" >
          <use href="#char_3" style="--accent-color: none;" />
        </g>

        <ellipse class="obj" 
          cx="190" cy="360"
          rx="150" ry="3"
        />
      </g>

      <use href="#one_of_three_border" />

    </g>

    <g id="panel_4">

      <g clip-path="url(#two_of_three_clip)">


        <text transform="translate(20 60)" >
          <tspan
            font-size="40"
            font-weight="700"
          >
            n'Egger, <tspan font-style="italic">please...</tspan>
          </tspan>
        </text>

        <use href="#char_4" 
          transform="translate(-20 190) scale(1.1)"
        />
 
        <use href="#egger" 
          transform="translate(220 10) scale(1.6)"
        />

      </g>

      <use href="#two_of_three_border" /> 

    </g>

  </defs>

  <g id="haxxor" style="
    filter: var(--bg-filter, none);
    opacity: var(--bg-opacity, 1);
  ">

  <svg class="land" viewBox="0 0 1300 875">
    <g transform="translate(0 25)">
      <use href="#copyright" transform="translate(442.5 820)" />
      <use href="#panel_1" transform="translate(25 0)" />
      <use href="#panel_2" transform="translate(875 0)" />
      <use href="#panel_3" transform="translate(25 425)" />
      <use href="#panel_4" transform="translate(450 425)" />
    </g>
  </svg>

  <svg class="port" viewBox="0 0 875 1300"> 
    <g transform="translate(0 25)">
      <use href="#copyright" transform="translate(443.5 825)" />
      <use href="#panel_1" transform="translate(25 0)" />
      <use href="#panel_2" transform="translate(25 425)" />
      <use href="#panel_3" transform="translate(450 425)" />
      <use href="#panel_4" transform="translate(25 850)" />
    </g>
  </svg>
  
  </g>

</svg>
