<svg xmlns="http://www.w3.org/2000/svg" xmlns:xlink="http://www.w3.org/1999/xlink" style="isolation:isolate" viewBox="0 0 500 500" width="500pt" height="500pt">
    
<g>

<rect height="100%" width="100%" fill="none" />

<path d=" M 185.333 77.778 C 322.222 -38.889 488.889 233.333 138.889 338.889 C -150 127.778 88.889 -72.222 185.333 77.778 Z  M 172.222 133.333 C 283.333 27.778 400 216.667 144.444 288.889 C -61.111 127.778 113.167 5.556 172.222 133.333 Z "
 fill-rule="evenodd"
 fill="#900"
/>

<path d=" M 296.911 170.793 L 188.889 166.667 L 204.822 446 L 204.822 446 L 466.756 446 L 496.022 178.4 L 344.972 172.629 C 341.655 189.009 334.765 205.97 323.605 222.806 L 435.556 226.667 L 415.556 393.333 L 248.889 393.333 L 248.889 393.333 L 242.222 220 L 270.644 220.98 C 286.157 204.096 294.383 186.792 296.911 170.793 Z "
 fill-rule="evenodd"
 fill="#111"
/>

</g>

</svg>