<?xml version="1.0"?>
<svg width="955.725" height="604.346" xmlns="http://www.w3.org/2000/svg" xmlns:svg="http://www.w3.org/2000/svg">
 <style type="text/css">@font-face {
    font-family: &#x27;Coming Soon&#x27;;
    src: url(&#x27;ComingSoon.ttf&#x27;) format(&#x27;truetype&#x27;);
  }</style>
 <defs>
  <clipPath id="_clipPath_wki8sQsedKT26uBcujkoNAHg6KR0wX0D">
   <rect height="604.35" id="svg_1" width="955.73" x="101.63" y="109.32"/>
  </clipPath>
 </defs>
 <g class="layer">
  <title>Layer 1</title>
  <g id="svg_376" transform="matrix(1 0 0 1 0 0)">
   <g clip-path="url(#_clipPath_xzeSd8NeupNMERninNmV0oEz6mkKFIIs)" id="svg_8" transform="translate(-104.545 -109.091)">
    <g id="svg_9">
     <g id="svg_10">
      <path d="m490.14,544.59l-12.84,0l-1.28,-26.39l14.53,6.25c0.21,7.93 0.07,14.65 -0.41,20.14z" fill="rgb(255,255,255)" id="svg_11"/>
      <path d="m505.04,491.25l9.99,17.82l-2.12,25.66l4.55,2.47c-2.28,2.84 -11.39,5.31 -27.32,7.39c0.82,-7.11 0.96,-13.82 0.41,-20.14c2.33,-11.88 7.16,-22.94 14.49,-33.2z" fill="rgb(232,232,232)" id="svg_12"/>
      <path d="m462.19,435.51l38.98,3.62l12.1,37.27l3.15,-0.24l-1.94,34.12l-9.68,-19.36c-7.98,12.61 -12.91,23.91 -14.76,33.88l-15.25,-7.5c-1.99,-17.83 -9.74,-39.37 -23.23,-64.62l10.63,-17.17z" fill="rgb(118,0,0)" id="svg_13"/>
      <path d="m517.99,536.87l14.76,9.44l-6.05,3.63l-37.51,3.87l-13.55,-0.72l0.97,-8.96l14.28,0.25c13.08,-0.9 22.11,-3.4 27.1,-7.51z" fill="rgb(118,0,0)" id="svg_14"/>
      <path d="m474.36,555.22c5.01,-28.89 -2.92,-62.93 -23.77,-102.14l10.14,-20.54c15.44,3.56 29.15,5.13 41.15,4.69l13.15,37.67l-4.39,0l-11.68,-33.7c-10.56,-0.15 -22.83,-1.8 -36.77,-4.97l-9.25,16.85c19.59,34.42 28.03,68.47 25.32,102.14l-3.9,0z" fill="rgb(0,0,0)" id="svg_15"/>
      <path d="m478.96,478.67l-1.67,-0.74c-0.14,3.92 0.04,7.29 0.54,10.1l1.57,0.78c-0.67,-3.29 -0.82,-6.66 -0.44,-10.14z" fill="rgb(0,0,0)" id="svg_16"/>
      <path d="m478.26,482.94c11.46,-3.9 24.93,-7.31 40.42,-10.23l-3.65,61.01l20.69,11.86l-14.36,9.64l-3.9,0l13.12,-8.97l-19.94,-11.18l4.39,-57.84c-11.56,0.49 -23.82,3.45 -36.77,8.87l0,-3.16z" fill="rgb(0,0,0)" id="svg_17"/>
      <path d="m525.57,550.83l-3.83,4.39l-47.38,0l3.9,-4.39c21.19,0.69 38.45,-0.83 51.8,-4.58l-4.49,4.58z" fill="rgb(0,0,0)" id="svg_18"/>
      <path d="m477.29,471.16c0.26,-8.32 -4.78,-20.62 -15.1,-36.93l-1.46,2c7.12,10.71 12.63,22.36 16.56,34.93z" fill="rgb(0,0,0)" id="svg_19"/>
      <path d="m488.49,500.13c3.42,17.86 3.61,35.43 1.81,52.72l-2.55,0c3.67,-15.87 3.27,-33.44 0.74,-52.72z" fill="rgb(0,0,0)" id="svg_20"/>
      <path d="m515.03,511.5c-2.4,-8.39 -5.73,-15.95 -9.99,-22.69c-8.99,12.88 -14.32,24.26 -14.74,34.1l-14.72,-6.36l0,2.7l15.34,7.58c2.71,-13.94 7.62,-25.46 14.12,-33.95c3.91,5.19 7.23,13.08 9.99,23.67l0,-5.05z" fill="rgb(0,0,0)" id="svg_21"/>
      <path d="m518.13,538.16l-1.97,-1.86c-5.31,6.58 -20.16,8.28 -38.87,7.54l0,1.33c16.16,-0.59 31.36,-0.4 40.84,-7.01z" fill="rgb(0,0,0)" id="svg_22"/>
      <path d="m507.82,504.65c0.12,-2.05 -0.66,-3.77 -1.74,-3.83c-1.07,-0.06 -2.03,1.56 -2.15,3.62c-0.11,2.05 0.67,3.77 1.74,3.83c1.07,0.06 2.04,-1.56 2.15,-3.62z" fill="rgb(0,0,0)" id="svg_23"/>
     </g>
     <g id="svg_24">
      <g id="svg_25">
       <path d="m720.34,437.41l19.98,-25.56l-92.43,-2.73l-24.93,22.48c4.38,15.79 11.43,28.48 21.16,38.07c25.38,-6.5 50.79,-17.25 76.22,-32.26z" fill="rgb(255,255,255)" id="svg_26"/>
       <path d="m643.26,536.65l70.38,-4.55l-13.03,27.75l-113.14,-8.17c9.42,-6.37 16.01,-15.24 19.8,-26.63l35.99,11.6z" fill="rgb(255,255,255)" id="svg_27"/>
       <path d="m622.91,433.35c4.74,13.85 11.8,26.32 21.21,37.41c26.28,-7.72 51.6,-18.83 75.98,-33.35q13.82,-3.4 39.26,-7.59l4.73,108.68l-50.47,-6.4l-70.36,5.24l-41.99,-14.19c-11.39,-33.31 -0.18,-63.24 21.64,-89.8z" fill="rgb(185,185,185)" id="svg_28"/>
       <path d="m613.38,444.56q-0.3,7.41 3.79,12.38c4.1,4.97 7.31,3.8 9.89,6.95c2.46,3.02 1.94,8.13 0.3,11.58c-2.06,4.36 -3.69,15.58 -0.3,14.8c3.04,-0.7 -3.16,-21.69 7.69,-16.44q3.66,1.77 8.51,-3.07l-20.3,-33.35l-9.58,7.15z" fill="rgb(116,116,116)" id="svg_29"/>
       <path d="m600.44,506.78c-8.09,-33.02 10.31,-64.42 47.08,-94.19l0.37,-9.11c-39.92,35.4 -60.51,69.63 -53.83,102.7l6.38,0.6l0,0z" fill="rgb(0,0,0)" id="svg_30"/>
       <path d="m743,436.49c-10.91,2.11 -21.94,4.82 -32.89,8.07q6.08,-13.95 22.09,-36.84l8.57,4.13q-3.46,9.76 -8.57,19.83c3.09,-0.57 6.18,-1.11 9.27,-1.6l1.53,6.41l0,0z" fill="rgb(0,0,0)" id="svg_31"/>
       <path d="m722.43,432.33c-31.44,18.43 -57.3,30.07 -77.56,34.92c-8.26,-8.8 -15.13,-21.29 -20.61,-37.5l2.63,-3.28l-3.98,-1.21l-4.09,7.07c6.08,16.38 14.22,30.37 24.44,41.96c23.54,-6.4 47.93,-16.89 73.17,-31.48l6,-10.48z" fill="rgb(0,0,0)" id="svg_32"/>
      </g>
     </g>
    </g>
   </g>
   <g clip-path="url(#_clipPath_KaLHNZ4akd6kuMzIQ40dK06xfStV3uiC)" id="svg_38" transform="matrix(1 0 0 1 -104.545 -109.091)">
    <g id="svg_39">
     <g id="svg_40">
      <path d="m590.13,591.11l144.89,10l-4,111l-228,1l87.11,-122z" fill="rgb(185,185,185)" id="svg_41"/>
      <path d="m618.18,515.61q-1.15,28.01 14.33,46.78c15.48,18.77 27.61,14.36 37.34,26.28c9.3,11.41 7.33,30.71 1.15,43.75c-7.8,16.47 -12.23,54.8 0.57,51.86c11.51,-2.64 -13.66,-77.89 27.36,-58.06q13.82,6.69 32.13,-11.59l-76.69,-126.01l-36.19,26.99z" fill="rgb(116,116,116)" id="svg_42"/>
      <path d="m590.13,606.76l-73.84,117.07l-24.9,0l69.82,-117.63l28.92,0.56l0,0z" fill="rgb(0,0,0)" id="svg_43"/>
     </g>
     <g id="svg_44">
      <path d="m514.23,859.59l-37.57,0l-3.74,-77.24l42.5,18.28c0.63,23.23 0.22,42.89 -1.19,58.96z" fill="rgb(255,255,255)" id="svg_45"/>
      <path d="m557.84,703.49l29.21,52.16l-6.19,75.07l13.32,7.23c-6.68,8.31 -33.34,15.54 -79.95,21.64c2.42,-20.82 2.8,-40.46 1.19,-58.96c6.84,-34.75 20.97,-67.12 42.42,-97.14z" fill="rgb(232,232,232)" id="svg_46"/>
      <path d="m432.44,540.4l114.07,10.58l35.41,109.06l9.21,-0.71l-5.67,99.85l-28.33,-56.65c-23.35,36.89 -37.76,69.95 -43.19,99.14l-44.62,-21.95c-5.84,-52.18 -28.51,-115.19 -67.98,-189.08l31.1,-50.24z" fill="rgb(118,0,0)" id="svg_47"/>
      <path d="m595.73,836.99l43.2,27.62l-17.71,10.63l-109.76,11.33l-39.66,-2.13l2.83,-26.2l41.78,0.71c38.28,-2.62 64.71,-9.93 79.32,-21.96z" fill="rgb(118,0,0)" id="svg_48"/>
      <path d="m468.07,890.69q10.27,-59.35 -25.1,-200.36l-12.6,-0.45l-0.06,-31.67q-19.71,-43.68 -31.8,-66.41l29.66,-60.11c45.17,10.43 85.29,15.03 120.41,13.72l38.47,110.25l-12.82,0l-34.2,-98.63c-30.9,-0.43 -66.78,-5.25 -107.59,-14.53l-27.07,49.3c57.34,100.71 82.03,200.35 74.1,298.89l-11.4,0z" fill="rgb(0,0,0)" id="svg_49"/>
      <path d="m481.53,666.69l-4.91,-2.17c-0.39,11.48 0.13,21.34 1.6,29.55l4.58,2.29c-1.95,-9.63 -2.38,-19.51 -1.27,-29.67z" fill="rgb(0,0,0)" id="svg_50"/>
      <path d="m479.47,679.17c33.54,-11.41 72.95,-21.37 118.27,-29.92l-10.69,178.51l60.57,34.71l-42.04,28.22l-11.4,0l38.39,-26.27l-58.34,-32.72l12.82,-169.23c-33.81,1.43 -69.69,10.1 -107.58,25.96l0,-9.26z" fill="rgb(0,0,0)" id="svg_51"/>
      <path d="m617.91,877.83l-11.22,12.86l-138.62,0l11.4,-12.86c62,2.03 112.51,-2.42 151.58,-13.41l-13.14,13.41z" fill="rgb(0,0,0)" id="svg_52"/>
      <path d="m476.62,644.71c0.76,-24.35 -13.97,-60.36 -44.18,-108.07l-4.27,5.86c20.82,31.33 36.96,65.41 48.45,102.21z" fill="rgb(0,0,0)" id="svg_53"/>
      <path d="m509.39,729.49c10.02,52.24 10.57,103.67 5.32,154.25l-7.49,0c10.74,-46.43 9.57,-97.84 2.17,-154.25z" fill="rgb(0,0,0)" id="svg_54"/>
      <path d="m587.05,762.75c-7.01,-24.54 -16.76,-46.66 -29.21,-66.39c-26.31,37.69 -41.91,70.97 -43.13,99.78l-43.08,-18.61l0,7.89l44.89,22.18c7.93,-40.78 22.3,-74.51 41.32,-99.34c11.44,15.19 21.16,38.29 29.21,69.27l0,-14.78z" fill="rgb(0,0,0)" id="svg_55"/>
      <path d="m596.13,840.76l-5.77,-5.45c-15.53,19.27 -58.99,24.23 -113.74,22.07l0,3.88c47.31,-1.71 91.76,-1.17 119.51,-20.5z" fill="rgb(0,0,0)" id="svg_56"/>
      <path d="m565.97,742.71c0.33,-6.01 -1.94,-11.04 -5.08,-11.21c-3.14,-0.18 -5.97,4.56 -6.3,10.58c-0.34,6.01 1.94,11.04 5.08,11.21c3.14,0.18 5.96,-4.56 6.3,-10.58z" fill="rgb(0,0,0)" id="svg_57"/>
     </g>
    </g>
   </g>
   <g clip-path="url(#_clipPath_bIqCq3eI1oaYcI3taNbgNY6uLpFNi8jJ)" id="svg_63" transform="matrix(1 0 0 1 -104.545 -109.091)">
    <g id="svg_64">
     <g id="svg_65">
      <path d="m510.37,693.79l-23.84,0l-2.37,-49.01l26.97,11.6c0.4,14.74 0.13,27.22 -0.76,37.41z" fill="rgb(255,255,255)" id="svg_66"/>
      <path d="m538.04,594.74l18.54,33.1l-3.93,47.63l8.45,4.59c-4.24,5.28 -21.16,9.86 -50.73,13.73c1.53,-13.21 1.78,-25.67 0.76,-37.41c4.34,-22.05 13.3,-42.59 26.91,-61.64z" fill="rgb(232,232,232)" id="svg_67"/>
      <path d="m458.47,491.26l72.38,6.71l22.47,69.2l5.84,-0.45l-3.59,63.36l-17.98,-30.28c-14.82,23.41 -23.96,38.72 -27.41,57.24l-28.31,-13.93c-3.7,-33.11 -18.09,-73.09 -43.13,-119.98l19.73,-31.87z" fill="rgb(118,0,0)" id="svg_68"/>
      <path d="m562.08,679.45l27.42,17.53l-11.24,6.74l-69.65,7.19l-25.16,-1.35l1.8,-16.63l26.51,0.45c24.28,-1.66 41.05,-6.29 50.32,-13.93z" fill="rgb(118,0,0)" id="svg_69"/>
      <path d="m481.08,713.53c9.29,-53.65 -5.43,-116.86 -44.14,-189.66l18.82,-38.14c28.67,6.61 54.12,9.53 76.41,8.7l24.41,69.96l-8.14,0l-21.7,-62.58c-19.6,-0.28 -42.37,-3.34 -68.27,-9.22l-17.17,31.28c36.38,63.9 52.05,127.13 47.01,189.66l-7.23,0z" fill="rgb(0,0,0)" id="svg_70"/>
      <path d="m489.62,571.39l-3.12,-1.38c-0.24,7.28 0.09,13.54 1.02,18.75l2.91,1.46c-1.24,-6.11 -1.52,-12.38 -0.81,-18.83z" fill="rgb(0,0,0)" id="svg_71"/>
      <path d="m488.31,579.31c21.29,-7.24 46.3,-13.56 75.05,-18.99l-6.78,113.27l38.43,22.03l-26.68,17.91l-7.23,0l24.36,-16.67l-37.02,-20.76l8.14,-107.38c-21.46,0.9 -44.22,6.4 -68.27,16.47l0,-5.88z" fill="rgb(0,0,0)" id="svg_72"/>
      <path d="m576.16,705.37l-7.12,8.16l-87.96,0l7.23,-8.16c39.34,1.29 71.4,-1.54 96.19,-8.51l-8.34,8.51z" fill="rgb(0,0,0)" id="svg_73"/>
      <path d="m486.5,557.44c0.49,-15.45 -8.86,-38.3 -28.03,-68.57l-2.71,3.72c13.22,19.88 23.45,41.5 30.74,64.85z" fill="rgb(0,0,0)" id="svg_74"/>
      <path d="m507.3,611.24c6.36,33.15 6.71,65.78 3.37,97.88l-4.74,0c6.81,-29.47 6.07,-62.09 1.37,-97.88z" fill="rgb(0,0,0)" id="svg_75"/>
      <path d="m556.58,632.35c-4.45,-15.58 -11.09,-22.43 -18.99,-34.95c-16.69,23.92 -26.14,37.85 -26.92,56.13l-27.33,-11.81l0,5.01l28.48,14.07c5.04,-25.88 13.71,-40.09 25.77,-55.85c7.26,9.64 13.88,17.11 18.99,36.77l0,-9.37z" fill="rgb(0,0,0)" id="svg_76"/>
      <path d="m562.34,681.84l-3.66,-3.45c-9.85,12.22 -37.43,15.37 -72.18,14l0,2.47c30.03,-1.09 58.23,-0.75 75.84,-13.02z" fill="rgb(0,0,0)" id="svg_77"/>
      <path d="m543.2,619.63c0.21,-3.82 -1.23,-7.01 -3.22,-7.12c-2,-0.11 -3.79,2.9 -4,6.72c-0.21,3.81 1.23,7 3.23,7.11c1.99,0.11 3.78,-2.9 3.99,-6.71z" fill="rgb(0,0,0)" id="svg_78"/>
     </g>
     <g id="svg_79">
      <path d="m1002.61,625.79c-14.08,15.82 -26.25,20.04 -36.48,12.63c9.25,10.3 21.93,8.19 38.07,-6.36l-1.59,-6.27z" fill="rgb(0,0,0)" id="svg_80"/>
      <path d="m1025.03,502.36l-18.03,118.7l-25.57,7.33l-21.4,-31.2c0.71,-48.95 22.37,-80.56 65,-94.83z" fill="rgb(232,232,232)" id="svg_81"/>
      <path d="m819.98,485.2l37.11,-47.47l0,-50.83l104.94,22.82l30.92,-73.16l-204.11,24.54l-14.8,28.04l-86.68,7.08l-1.9,36.45l-46.29,41.73c8.13,29.32 21.22,52.88 39.29,70.68c47.14,-12.06 94.3,-32.01 141.52,-59.88z" fill="rgb(255,255,255)" id="svg_82"/>
      <path d="m676.86,669.45l130.69,-8.44l-24.21,51.52l-210.06,-15.17c17.48,-11.83 29.72,-28.3 36.76,-49.44l66.82,21.53z" fill="rgb(255,255,255)" id="svg_83"/>
      <path d="m995.68,336.56l52.19,63.44l-18.28,74.4c-58.42,-9.52 -127.08,-7.25 -205.95,6.78l35.47,-43.45l0,-53.46l102.01,24.98l34.56,-72.69z" fill="rgb(232,232,232)" id="svg_84"/>
      <path d="m998.78,685.93l-6.34,33.19l-209.45,-10.21l28.1,-45.98l187.69,23z" fill="rgb(232,232,232)" id="svg_85"/>
      <path d="m639.09,477.65c8.79,25.71 21.91,48.88 39.37,69.47c48.79,-14.34 95.81,-34.97 141.08,-61.92c88.41,-21.8 160.69,-24.3 216.87,-7.55l-5.61,24.71c-85.03,9.64 -87.35,157.67 -22.05,118.7l-4.55,64.87l-196.7,-24.92l-130.64,9.73l-90.2,-24.47c-21.15,-61.84 1.36,-129.5 52.43,-168.62z" fill="rgb(185,185,185)" id="svg_86"/>
      <path d="m1036.41,474.4c5.69,-26.1 12.02,-52.16 18.99,-78.18l-58.34,-69.04c-79.62,2.45 -151.94,12.42 -216.94,29.91l-16.43,32.05l16.43,3.28l14.79,-27.11c67.4,-14.42 133.41,-21.84 198.04,-22.3l49,56.99c-5.38,19.05 -11.01,42.96 -16.92,71.95l11.38,2.45l0,0z" fill="rgb(0,0,0)" id="svg_87"/>
      <path d="m1004.15,685.93c-1.14,13.23 -2.14,26.47 -2.97,39.72l-453.52,-21.57l32.43,-9.44l208.75,7.24l196.52,8.91c1.33,-9.31 2.65,-18.44 3.96,-27.24l14.83,2.38l0,0z" fill="rgb(0,0,0)" id="svg_88"/>
      <path d="m1012.5,682.72l-207.11,-29.81l-126.93,13l-60.66,-25.73l-13.1,-4.49l-8.05,18.33l8.91,5.69l1.28,-7.78l70.02,23.56l132.93,-11.92l187.27,25.93l15.44,-6.78z" fill="rgb(0,0,0)" id="svg_89"/>
      <path d="m853.85,384.09l-0.85,56.3c-80.1,81.85 -96.59,155.39 -49.45,220.62l-32.86,49.33l22.69,0l26.6,-51.82c-53.54,-63.31 -38.67,-136.01 44.64,-218.13l0,-53.49l-10.77,-2.81z" fill="rgb(0,0,0)" id="svg_90"/>
      <path d="m961.45,362.59c-0.25,-5.38 -10.13,-9.29 -22.05,-8.72c-11.91,0.57 -21.37,5.41 -21.11,10.79c0.26,5.39 10.14,9.29 22.05,8.72c11.91,-0.57 21.37,-5.4 21.11,-10.79l0,0zm5.94,1.97c-0.35,-7.29 -12.21,-12.65 -26.48,-11.97c-14.26,0.69 -25.56,7.16 -25.21,14.45c0.35,7.29 12.22,12.65 26.48,11.97c14.27,-0.69 25.56,-7.16 25.21,-14.45l0,0zm-66.2,7.36l2.29,-4.68l0,0c-17.58,1.3 -34.28,2.96 -50.13,5.01l3.27,3.76c13.3,-1.36 33.99,-3.33 44.57,-4.09l0,0zm-2.38,4.89l-2.56,5.23l-32.32,2.37l-3.9,-4.49c4.65,-0.48 9.45,-0.95 14.42,-1.39c7.71,-0.69 15.81,-1.29 24.36,-1.72l0,0zm6.4,-13.13l2.52,-5.15c-21.55,1.78 -41.46,4.27 -59.78,7.51l2.76,3.17c17.74,-2.51 35.92,-4.36 54.5,-5.53l0,0l0,0z" fill="rgb(232,232,232)" fill-rule="evenodd" id="svg_91"/>
      <path d="m957.7,580.3c-14.96,16.89 -26.8,72.94 10.16,85.61c9.2,3.15 24.2,5.08 31.46,-17.99l1.86,-22.63c-29.39,12.08 -37.72,-1.92 -43.48,-44.99z" fill="rgb(116,116,116)" id="svg_92"/>
      <path d="m621.39,498.46q-0.57,13.76 7.04,22.99c7.61,9.22 13.57,7.05 18.35,12.91c4.57,5.61 3.6,15.09 0.56,21.5c-3.83,8.1 -6.85,28.92 -0.56,27.47c5.66,-1.3 -5.87,-40.26 14.29,-30.51q6.79,3.28 15.79,-5.7l-37.69,-61.92l-17.78,13.26z" fill="rgb(116,116,116)" id="svg_93"/>
      <path d="m1004.2,475.59c-8.59,2.58 -9.45,7.16 -18.55,9.61c-8.69,2.34 -10.25,-3.21 -19.73,-1.7c-9.48,1.51 -18.45,7.4 -23.92,8.01c-12.64,1.41 -23.77,-18.34 -38.59,-15.75c18.57,-9 71.06,-7.48 100.79,-0.17z" fill="rgb(116,116,116)" id="svg_94"/>
      <path d="m1032,481.18l9.95,-10.2l-8.76,34.93c-86.6,-1.27 -78.55,159.09 -20.3,105.96l4.48,6.68l-2.05,7.54l2.03,5.79l-3.6,3.56l1.57,59.2l-22.57,1.2l6.03,-67.45c-56.1,29.98 -66.45,-97.35 27,-130.22l6.22,-16.99z" fill="rgb(0,0,0)" id="svg_95"/>
      <path d="m934.65,621.06l1.72,-6.88c8.62,39.14 40.54,57.45 62.95,21.51l2.93,4.79c-36.4,38.28 -55.1,18.42 -67.6,-19.42z" fill="rgb(0,0,0)" id="svg_96"/>
      <path d="m835.29,608.11l-1.2,4.8l18.42,3.76l-5,2.19l-14.09,-3.28l-3.43,13.64l-0.29,-7.33l1.08,-6.92l-5.22,-1.22l-1.52,11.54l-4.5,4.04l2.74,-16.34l-23.18,-5.4l8.4,-0.09l15.18,3.09l0.72,-4.31l-18.54,-2.85l-4.85,-5.05l23.86,5.1l1.68,-10.04l3.47,-6.14l-2.2,16.81l5.48,1.17l2.94,-18.82l4.14,5.41l-3.56,14.17l8.29,1.77l8.57,2.98l-17.39,-2.68zm-3.36,-0.51l-0.73,4.72l-5.32,-1.08l0.59,-4.49l5.46,0.85z" fill="rgb(0,0,0)" fill-rule="evenodd" id="svg_97"/>
      <path d="m718.93,409.72l-1.55,18.51l-3.09,-0.48l1.36,-18.5l3.28,0.47l0,0l0,0l0,0zm-6.08,-0.47l-1.86,15.17l-2.42,-0.39l0.72,-15.09l3.56,0.31l0,0l0,0zm3.57,23.42l0.21,-1.99l-14.07,-2.45l0.79,6.82l13.07,-2.38l0,0zm4.76,-26.6l-21.36,-0.51l2.04,29.49l16.14,1.07l3.18,-30.05l0,0l0,0l0,0l0,0zm2.77,-3.11l-27.76,0l3.63,34.77l21.36,1.1l2.77,-35.87l0,0l0,0l0,0l0,0zm-18.94,5.7l-0.83,12.5l-1.62,-0.31l-0.14,-12.19l2.59,0z" fill="rgb(232,232,232)" fill-rule="evenodd" id="svg_98"/>
      <path d="m685.46,422.19l-0.69,16.91c-86.26,57.85 -123.64,132.03 -90.35,202.97c-4.55,33.04 3.1,52.46 -23.75,62.01l-29.91,0c34.77,-11.68 39.34,-31.08 41.43,-62.01c-31.9,-69.81 18.1,-144.35 103.27,-219.88z" fill="rgb(0,0,0)" id="svg_99"/>
      <path d="m990.1,333.17l-30.07,71.23l-100.92,-24.53l-176.55,10.68l0,57.39l6.33,5.54l2.38,-53.48l165.82,-10.86l108.43,25.16l31.54,-74.4l-6.96,-6.73z" fill="rgb(0,0,0)" id="svg_100"/>
      <g id="svg_101">
       <path d="m978.84,404.01l-23.19,-7.82c-5.38,0.14 -7.5,2.86 -6.32,8.11l20.82,13.16c-3.47,-6.89 -0.86,-13.56 8.69,-13.45z" fill="rgb(223,178,110)" id="svg_102"/>
       <path d="m1005.73,413.42l-28.65,-9.52c-7.85,1.98 -10.58,5.99 -8.16,11.98l24.74,16.32c20.17,14.33 30.56,-11.1 12.07,-18.78z" fill="rgb(255,255,255)" id="svg_103"/>
       <path d="m1015.38,435.07c3.65,-5.28 1.39,-13.19 -5.05,-17.66c-6.44,-4.47 -14.64,-3.81 -18.3,1.46c-3.66,5.27 -1.4,13.18 5.04,17.65c6.44,4.47 14.65,3.82 18.31,-1.45z" fill="rgb(93,93,93)" id="svg_104"/>
       <path d="m976.98,404.72l24.97,8.78c-8.11,-0.65 -14.31,2.25 -14.24,9.06c0.02,1.27 0.13,2.47 0.32,3.6l0,0l-17.42,-10.59c-2.63,-5.45 -0.22,-10.11 6.37,-10.85zm-1.89,-0.66l-18.32,-6.44c-4.24,-0.28 -6.23,1.71 -5.95,5.93l17.38,10.56c-1.6,-4.67 1.21,-9.19 6.89,-10.05zm39.53,14.73c-9.29,-3.58 -15.55,-2.35 -18.79,3.69c6.15,-5.16 12.75,-5.62 19.8,-1.39l-1.01,-2.3l0,0l0,0zm-24.63,13.09c6.17,11.32 22.98,11.64 25.67,6.13c7.66,-15.71 -8.59,-18.92 -12.1,-17.1c-13.48,6.99 0.38,25.91 5.54,7.45c-9.54,13.15 -13.81,-0.45 -5.44,-4.4c5.9,-2.78 14.88,6.62 9.87,11.79c-6.56,6.78 -21.29,3.58 -21.74,-13.33c-0.15,-5.9 8.7,-9.25 20.48,-4.87l0,0l-2.99,-2.64c-0.84,-0.25 -1.67,-0.47 -2.49,-0.66l3.7,-0.12l-54.38,-18.95c-6.46,-1.04 -10.72,4.1 -8.12,9.16l42,27.54l0,0z" fill="rgb(0,0,0)" fill-rule="evenodd" id="svg_105"/>
      </g>
      <path d="m1041.95,470.98c-62.92,-14.14 -135.07,-11.91 -216.43,6.67l-10.28,17.57c83.61,-24.83 155.86,-29.5 216.76,-14.04l9.95,-10.2z" fill="rgb(0,0,0)" id="svg_106"/>
      <path d="m823.86,475.76c-58.37,34.22 -106.38,55.84 -144.01,64.83c-15.33,-16.33 -28.09,-39.53 -38.26,-69.61l4.89,-6.1l-7.39,-2.25l-7.6,13.13c11.28,30.42 26.39,56.39 45.37,77.91c43.72,-11.89 89,-31.36 135.87,-58.45l11.13,-19.46z" fill="rgb(0,0,0)" id="svg_107"/>
      <path d="m997.98,626.1c7.2,-46.32 14.08,-86.81 20.66,-121.56l12.16,-3.42l0,0c-8.13,40.3 -14.76,80.7 -19.85,121.21l-12.97,3.77l0,0z" fill="rgb(0,0,0)" id="svg_108"/>
     </g>
    </g>
   </g>
  </g>
  <clipPath id="_clipPath_xzeSd8NeupNMERninNmV0oEz6mkKFIIs">
   <rect fill="transparent" height="84.19" id="svg_6" stroke="rgb(0,0,0)" stroke-linecap="square" stroke-miterlimit="2" stroke-width="3" transform="matrix(1,0,0,1,0,0)" width="291" x="430.34" y="417.36"/>
   <rect fill="none" height="81.19" id="svg_7" transform="matrix(1,0,0,1,0,0)" width="288" x="431.84" y="418.86"/>
  </clipPath>
  <rect fill="none" height="81.19" id="svg_35" width="288" x="327.3" y="498.58"/>
  <clipPath id="_clipPath_KaLHNZ4akd6kuMzIQ40dK06xfStV3uiC">
   <rect fill="transparent" height="84.19" id="svg_36" stroke="rgb(0,0,0)" stroke-linecap="square" stroke-miterlimit="2" stroke-width="3" transform="matrix(1,0,0,1,0,0)" width="291" x="430.34" y="606.17"/>
   <rect fill="none" height="81.19" id="svg_37" transform="matrix(1,0,0,1,0,0)" width="288" x="431.84" y="607.67"/>
  </clipPath>
  <clipPath id="_clipPath_bIqCq3eI1oaYcI3taNbgNY6uLpFNi8jJ">
   <rect fill="transparent" height="84.19" id="svg_61" stroke="rgb(0,0,0)" stroke-linecap="square" stroke-miterlimit="2" stroke-width="3" transform="matrix(1,0,0,1,0,0)" width="291" x="430.34" y="511.76"/>
   <rect fill="none" height="81.19" id="svg_62" transform="matrix(1,0,0,1,0,0)" width="288" x="431.84" y="513.26"/>
  </clipPath>
  <clipPath id="_clipPath_gpknTNoTYiMP4q9Khb8EZO4IUeSRaMns">
   <rect fill="transparent" height="273" id="svg_112" stroke="rgb(0,0,0)" stroke-linecap="square" stroke-miterlimit="2" stroke-width="3" transform="matrix(1,0,0,1,0,0)" width="291" x="123.54" y="417.36"/>
   <rect fill="none" height="270" id="svg_113" transform="matrix(1,0,0,1,0,0)" width="288" x="125.04" y="418.86"/>
  </clipPath>
  <g id="svg_116" transform="matrix(1 0 0 1 -104.545 -109.091)">
   <ellipse cx="159.01" cy="673.99" fill="rgb(0,0,0)" id="svg_117" rx="29.33" ry="1.34"/>
   <path d="m157.56,667.39l-7.97,0l-0.79,-16.39l9.02,3.88c0.13,4.93 0.04,9.1 -0.26,12.51z" fill="rgb(255,255,255)" id="svg_118"/>
   <path d="m166.81,634.27l6.2,11.07l-1.31,15.92l2.82,1.54c-1.42,1.76 -7.07,3.3 -16.96,4.59c0.51,-4.42 0.6,-8.58 0.26,-12.51c1.45,-7.37 4.44,-14.24 8.99,-20.61z" fill="rgb(232,232,232)" id="svg_119"/>
   <path d="m140.21,599.68l24.2,2.24l7.51,23.14l1.96,-0.15l-1.21,21.18l-6.01,-12.02c-4.95,7.83 -8.01,14.84 -9.16,21.03l-9.47,-4.65c-1.23,-11.07 -6.04,-24.44 -14.42,-40.12l6.6,-10.65z" fill="rgb(118,0,0)" id="svg_120"/>
   <path d="m174.85,662.6l9.17,5.85l-3.76,2.26l-23.29,2.4l-8.41,-0.45l0.6,-5.56l8.87,0.15c8.12,-0.55 13.72,-2.1 16.82,-4.65z" fill="rgb(118,0,0)" id="svg_121"/>
   <path d="m147.2,673.87c3.11,-17.94 -2.06,-39.15 -15,-63.49l7.11,-12.55c10.05,0.3 18.57,1.29 25.54,2.91l8.16,23.39l-2.72,0l-7.26,-20.92c-6.58,-1.37 -14.18,-2.38 -22.82,-3.09l-5.74,10.46c12.16,21.36 17.4,42.5 15.72,63.41l-2.99,-0.12z" fill="rgb(0,0,0)" id="svg_122"/>
   <path d="m150.63,626.47l-1.05,-0.46c-0.08,2.43 0.03,4.52 0.34,6.27l0.98,0.48c-0.42,-2.04 -0.51,-4.14 -0.27,-6.29z" fill="rgb(0,0,0)" id="svg_123"/>
   <path d="m150.19,629.12c7.11,-2.43 15.47,-4.54 25.09,-6.35l-2.27,37.87l12.85,7.36l-8.92,5.99l-2.42,0l8.15,-5.58l-12.38,-6.94l2.72,-35.9c-7.17,0.31 -14.78,2.14 -22.82,5.51l0,-1.96z" fill="rgb(0,0,0)" id="svg_124"/>
   <path d="m179.56,671.26l-2.38,2.73l-1.43,0l-27.98,0l2.42,-2.73c13.15,0.43 23.87,-0.52 32.15,-2.85l-2.78,2.85z" fill="rgb(0,0,0)" id="svg_125"/>
   <path d="m149.58,621.8c0.17,-5.16 -2.96,-12.8 -9.37,-22.92l-0.9,1.24c4.41,6.65 7.84,13.88 10.27,21.68z" fill="rgb(0,0,0)" id="svg_126"/>
   <path d="m156.54,639.79c2.12,11.08 2.24,21.99 1.12,32.72l-1.58,0c2.27,-9.85 2.03,-20.75 0.46,-32.72z" fill="rgb(0,0,0)" id="svg_127"/>
   <path d="m173.01,646.85c-1.49,-5.21 -3.55,-9.9 -6.2,-14.09c-5.58,8 -8.89,15.06 -9.15,21.17l-9.13,-3.95l0,1.67l9.52,4.71c1.68,-8.65 4.73,-15.81 8.76,-21.07c2.43,3.22 4.49,8.12 6.2,14.69l0,-3.13z" fill="rgb(0,0,0)" id="svg_128"/>
   <path d="m174.94,663.39l-1.23,-1.15c-3.29,4.09 -12.51,5.14 -24.13,4.68l0,0.82c10.04,-0.36 19.47,-0.24 25.36,-4.35z" fill="rgb(0,0,0)" id="svg_129"/>
   <path d="m168.54,642.59c0.07,-1.27 -0.41,-2.34 -1.08,-2.37c-0.67,-0.04 -1.27,0.96 -1.34,2.24c-0.07,1.28 0.42,2.34 1.08,2.38c0.67,0.04 1.27,-0.97 1.34,-2.25z" fill="rgb(0,0,0)" id="svg_130"/>
  </g>
  <g id="svg_140" transform="matrix(1 0 0 1 0 0) matrix(1 0 0 1 -104.545 -109.091)">
   <path d="m388.75,645.92c-4.69,5.27 -8.75,6.67 -12.15,4.2c3.08,3.44 7.3,2.73 12.69,-2.12l-0.54,-2.08z" fill="rgb(0,0,0)" id="svg_141"/>
   <path d="m396.23,604.78l-6.01,39.56l-8.53,2.44l-7.13,-10.4c0.24,-16.31 7.46,-26.84 21.67,-31.6z" fill="rgb(232,232,232)" id="svg_142"/>
   <path d="m327.89,599.06l12.18,-15.36l0.19,-17.11l34.97,7.32l10.14,-22.24c-17.39,-2.42 -40.01,-0.41 -67.86,6.03l-4.93,9.35l-28.89,2.36l-0.63,12.14l-15.43,13.91c2.71,9.77 7.07,17.63 13.1,23.56c15.71,-4.02 31.42,-10.67 47.16,-19.96z" fill="rgb(255,255,255)" id="svg_143"/>
   <path d="m280.3,660.09l43.55,-2.82c-0.69,2.9 -2.5,7.68 -8.78,15.97l-67.56,-3.7l-3.23,-3.96l16,-11.35l20.02,5.86z" fill="rgb(255,255,255)" id="svg_144"/>
   <path d="m386.45,549.52l17.39,21.15l-6.09,24.79c-19.47,-3.17 -44.56,-1.81 -70.85,2.86l13.17,-14.5l0.19,-17.23l34.67,7.16l11.52,-24.23z" fill="rgb(232,232,232)" id="svg_145"/>
   <path d="m387.48,665.96l-2.11,11.06l-70.4,-3.4l9.96,-15.33l62.55,7.67z" fill="rgb(232,232,232)" id="svg_146"/>
   <path d="m256.55,646.87c-6.49,-17.18 -2.58,-32.61 11.05,-50.33c2.93,8.57 7.31,16.29 13.13,23.16c16.26,-4.78 31.93,-11.66 47.02,-20.64c29.46,-7.26 53.55,-8.1 72.27,-2.52l-1.87,8.24c-28.34,3.21 -29.11,52.55 -7.35,39.56l-1.51,21.62l-65.56,-8.31l-43.54,3.24l-20.02,-6.28l-4.34,3.38l-4.36,-6.95l5.08,-4.17z" fill="rgb(185,185,185)" id="svg_147"/>
   <path d="m400.02,595.46c1.89,-8.7 4.01,-17.38 6.33,-26.05l-19.45,-23.01c-26.53,0.81 -50.63,4.14 -72.29,9.97l-5.48,10.68l5.48,1.09l4.93,-9.04c22.46,-4.8 44.46,-7.27 66,-7.43l16.33,19c-1.8,6.34 -3.67,14.31 -5.64,23.98l3.79,0.81l0,0z" fill="rgb(0,0,0)" id="svg_148"/>
   <path d="m425.06,678.31c0.04,-1.59 -46.85,-3.99 -104.65,-5.37c-57.79,-1.37 -104.74,-1.2 -104.78,0.39c-0.03,1.58 46.86,3.99 104.65,5.36c57.79,1.38 104.74,1.21 104.78,-0.38z" fill="rgb(0,0,0)" id="svg_149"/>
   <path d="m323.67,657.59c-1.18,4.48 -3.45,8.6 -6.78,12.33l1.95,-1.05c2.39,-3.07 4.49,-6.69 6.31,-10.88l-1.48,-0.4z" fill="rgb(185,185,185)" id="svg_150"/>
   <path d="m322.22,657.38c-12.28,-17.21 -11.31,-36.15 2.93,-56.82l0,0l4.06,-0.89c-15.27,21.09 -15.71,40.14 -1.32,57.15l-0.39,0.77l-5.28,-0.21l0,0z" fill="rgb(0,0,0)" id="svg_151"/>
   <path d="m325.15,600.56c3.69,-5.36 9.08,-11.09 14.55,-16.68l-0.15,-13.8l0.71,-1.06l0.2,15.11c-5.38,5.3 -9.9,10.48 -13.56,15.54l-1.75,0.89l0,0z" fill="rgb(185,185,185)" id="svg_152"/>
   <path d="m384.97,553.06l-9.23,18.98l-0.81,-0.39l8.77,-18.18l1.27,-0.41z" fill="rgb(185,185,185)" id="svg_153"/>
   <path d="m375.04,558.2c-0.09,-1.8 -3.38,-3.1 -7.35,-2.91c-3.97,0.2 -7.12,1.81 -7.04,3.6c0.09,1.79 3.38,3.1 7.35,2.91c3.97,-0.19 7.13,-1.81 7.04,-3.6l0,0zm1.98,0.66c-0.12,-2.43 -4.07,-4.22 -8.83,-3.99c-4.75,0.23 -8.51,2.38 -8.4,4.81c0.12,2.43 4.07,4.22 8.83,3.99c4.75,-0.23 8.51,-2.39 8.4,-4.81l0,0zm-21.6,1.53l0.76,-1.56l0,0c-5.86,0.43 -11.43,0.98 -16.71,1.67l1.09,1.25c4.44,-0.45 11.33,-1.11 14.86,-1.36l0,0zm-0.8,1.62l-0.85,1.75l-10.77,0.79l-1.3,-1.5c1.55,-0.16 3.15,-0.31 4.81,-0.46c2.56,-0.23 5.26,-0.43 8.11,-0.58l0,0zm2.14,-4.37l0.84,-1.72c-7.18,0.6 -13.82,1.43 -19.93,2.51l0.92,1.05c5.92,-0.83 11.97,-1.45 18.17,-1.84l0,0l0,0z" fill="rgb(185,185,185)" fill-rule="evenodd" id="svg_154"/>
   <path d="m373.79,630.76c-4.99,5.62 -8.93,24.31 3.39,28.53c3.06,1.05 8.06,1.69 10.48,-6l0.62,-7.54c-9.8,4.03 -12.57,-0.64 -14.49,-14.99z" fill="rgb(116,116,116)" id="svg_155"/>
   <path d="m261.71,603.48q-0.19,4.59 2.34,7.66c2.54,3.08 4.52,2.35 6.12,4.31c1.52,1.86 1.2,5.02 0.19,7.16c-1.28,2.7 -2.29,9.64 -0.19,9.16c1.88,-0.44 -1.96,-13.42 4.76,-10.17q2.26,1.09 5.26,-1.9l-12.56,-20.64l-5.92,4.42z" fill="rgb(116,116,116)" id="svg_156"/>
   <path d="m389.29,595.86c-2.87,0.86 -3.16,2.38 -6.19,3.2c-2.89,0.78 -3.41,-1.07 -6.57,-0.57c-3.16,0.51 -6.15,2.47 -7.98,2.67c-4.21,0.47 -7.92,-6.11 -12.85,-5.25c6.18,-2.99 23.68,-2.49 33.59,-0.05z" fill="rgb(116,116,116)" id="svg_157"/>
   <path d="m398.55,597.72l3.32,-3.4l-2.92,11.64c-28.87,-0.42 -26.18,53.02 -6.77,35.31l1.5,2.23l-0.69,2.51l0.68,1.94l-1.2,1.18l1.01,19.73l-5.48,0.15l-0.52,-22.23c-18.7,9.99 -22.15,-32.44 9,-43.4l2.07,-5.66z" fill="rgb(0,0,0)" id="svg_158"/>
   <path d="m366.11,644.34l0.57,-2.29c2.87,13.04 13.51,19.14 20.98,7.16l0.97,1.6c-12.13,12.76 -18.36,6.14 -22.52,-6.47z" fill="rgb(0,0,0)" id="svg_159"/>
   <path d="m332.99,640.02l-0.4,1.6l6.14,1.25l-1.66,0.74l-4.7,-1.1l-1.14,4.55l-0.1,-2.44l0.36,-2.31l-1.74,-0.41l-0.51,3.85l-1.49,1.35l0.91,-5.45l-7.73,-1.8l2.8,-0.03l5.06,1.03l0.24,-1.44l-6.18,-0.95l-1.62,-1.68l7.96,1.7l0.56,-3.35l1.15,-2.04l-0.73,5.6l1.83,0.39l0.98,-6.27l1.38,1.8l-1.19,4.72l2.76,0.59l2.86,1l-5.8,-0.9zm-1.11,-0.17l-0.25,1.58l-1.77,-0.36l0.19,-1.5l1.83,0.28z" fill="rgb(0,0,0)" fill-rule="evenodd" id="svg_160"/>
   <path d="m294.21,573.91l-0.51,6.16l-1.03,-0.16l0.45,-6.16l1.09,0.16l0,0l0,0l0,0zm-2.02,-0.16l-0.62,5.06l-0.81,-0.14l0.24,-5.02l1.19,0.1l0,0l0,0zm1.19,7.8l0.07,-0.66l-4.69,-0.82l0.26,2.28l4.36,-0.8l0,0zm1.58,-8.86l-7.12,-0.17l0.69,9.83l5.37,0.35l1.06,-10.01l0,0l0,0l0,0l0,0zm0.92,-1.04l-9.25,0l1.21,11.59l7.12,0.37l0.92,-11.96l0,0l0,0l0,0l0,0zm-6.31,1.9l-0.27,4.17l-0.54,-0.1l-0.05,-4.07l0.86,0z" fill="rgb(232,232,232)" fill-rule="evenodd" id="svg_161"/>
   <path d="m255.3,648.01c-8.78,-22.44 0.47,-45.75 27.76,-69.95l-0.23,5.64c-24.05,19.47 -32.21,40.06 -24.48,61.77l-3.05,2.54l0,0z" fill="rgb(0,0,0)" id="svg_162"/>
   <path d="m262.18,654.95l-16.4,11.82l7.9,5.76l-6.27,0l-5.66,-6.57l16.79,-12l3.64,0.99z" fill="rgb(0,0,0)" id="svg_163"/>
   <path d="m374.56,572.13l-33.63,-8.17l-58.84,3.56l0,19.12l2.11,1.85l0.8,-17.82l55.26,-4.08l36.13,8.84l-1.83,-3.3z" fill="rgb(0,0,0)" id="svg_164"/>
   <g id="svg_165">
    <path d="m380.83,572l-7.72,-2.6c-1.8,0.05 -2.5,0.95 -2.11,2.7l6.94,4.39c-1.16,-2.3 -0.29,-4.52 2.89,-4.49z" fill="rgb(223,178,110)" id="svg_166"/>
    <path d="m389.8,575.14l-9.55,-3.17c-2.62,0.66 -3.53,1.99 -2.72,3.99l8.24,5.44c6.73,4.77 10.19,-3.7 4.03,-6.26z" fill="rgb(255,255,255)" id="svg_167"/>
    <path d="m393.33,582.84c1.3,-1.88 1.03,-4.76 -1.26,-6.35c-2.29,-1.59 -5.75,-1.29 -7.05,0.59c-1.3,1.87 -0.5,4.69 1.79,6.28c2.3,1.59 5.21,1.36 6.52,-0.52z" fill="rgb(93,93,93)" id="svg_168"/>
    <path d="m392.22,576.61c-4.19,-1.56 -7.34,-0.37 -7.28,1.73c0.16,6.02 5.39,7.16 7.73,4.74c1.78,-1.84 -1.41,-5.18 -3.51,-4.19c-2.98,1.4 -1.46,6.24 1.93,1.56c-1.83,6.57 -6.76,-0.16 -1.97,-2.65c1.25,-0.65 7.03,0.5 4.31,6.08c-1.17,2.4 -9.87,1.7 -9.94,-5.49c-0.04,-3.11 3.62,-3.93 7.67,-2.72l1.06,0.94z" fill="rgb(0,0,0)" id="svg_169"/>
    <path d="m392.82,577.19c-3.1,-1.19 -5.19,-0.78 -6.27,1.23c2.05,-1.72 4.25,-1.88 6.6,-0.47l-0.33,-0.76z" fill="rgb(0,0,0)" id="svg_170"/>
    <path d="m386.17,583.28l-15.62,-10.25c-0.86,-1.68 0.73,-4.97 2.89,-4.62l18.12,6.32l-1.65,0.96l-16.58,-6.04c-1.41,-0.09 -1.93,0.79 -1.83,2.2l13.65,8.3l1.02,3.13z" fill="rgb(0,0,0)" id="svg_171"/>
    <path d="m380.83,572c-3.25,-0.36 -4.73,2.31 -2.89,4.49l0.97,0.58c-2.28,-2.64 -1.13,-5.2 2.65,-4.83l-0.73,-0.24z" fill="rgb(0,0,0)" id="svg_172"/>
   </g>
   <path d="m387.21,646.02c2.4,-15.44 4.69,-28.93 6.89,-40.52l4.05,-1.13l0,0c-2.71,13.43 -4.92,26.89 -6.62,40.39l-4.32,1.26l0,0z" fill="rgb(0,0,0)" id="svg_173"/>
   <path d="m389.27,665.96c-0.38,4.41 -0.71,8.82 -0.99,13.24l-138.11,-6.67l-4.39,-5.76l32.78,3.15l38.95,1.35l65.49,2.97c0.45,-3.1 0.89,-6.14 1.32,-9.08l4.95,0.8l0,0z" fill="rgb(0,0,0)" id="svg_174"/>
   <path d="m392.05,664.89l-69.02,-9.94l-42.3,4.34l-24.23,-6.53l2.64,1.85l21.05,7.87l44.3,-3.97l62.41,8.64l5.15,-2.26z" fill="rgb(0,0,0)" id="svg_175"/>
   <path d="m260.97,643.04l-11.31,7.39l6.17,8.86l1.99,-2.47l-4.13,-4.71l6.48,-7.99l0.8,-1.08z" fill="rgb(0,0,0)" id="svg_176"/>
   <path d="m401.87,594.32c-20.97,-4.71 -45.65,-4.6 -72.76,1.59l-4.18,6.49c27.87,-8.27 53.32,-9.83 73.62,-4.68l3.32,-3.4z" fill="rgb(0,0,0)" id="svg_177"/>
   <path d="m329.18,595.91c-19.45,11.41 -35.45,18.61 -47.99,21.61c-5.11,-5.44 -9.36,-13.17 -12.75,-23.2l1.63,-2.03l-2.47,-0.75l-2.53,4.37c3.76,10.14 8.8,18.8 15.12,25.97c14.57,-3.96 29.66,-10.45 45.28,-19.48l3.71,-6.49z" fill="rgb(0,0,0)" id="svg_178"/>
  </g>
  <rect fill="none" height="270" id="svg_181" width="288" x="642.1" y="21.77"/>
  <defs>
   <clipPath id="_clipPath_aML7do5NEqcdPxlKV2Tmi0kt2GuXOm9u">
    <rect height="24.6" id="svg_215" transform="matrix(0,-0.576,0.576,0,727.641,630.466)" width="266" x="0" y="0"/>
   </clipPath>
  </defs>
  <g id="svg_253" transform="matrix(1 0 0 1 0 0) matrix(1 0 0 1 -104.545 -109.091)">
   <ellipse cx="940.68" cy="389.84" fill="rgb(0,0,0)" id="svg_254" rx="86.8" ry="2.78"/>
   <path d="m1017.09,271.04l-9.83,-7.34l-7.62,14.84l-54.23,10.51l-0.41,20.22c-13.96,17.67 -19.11,40.3 -16.27,70.09l-4.28,9.24l81.56,0l-0.89,-51.88l6.52,-44.64l5.45,-21.04z" fill="rgb(232,232,232)" id="svg_255"/>
   <path d="m836.86,362.43l-17.53,-11.74l17.53,1.01l0.1,-1.96l4.52,0.48l4.83,-1.57c-2.88,-23.69 9.38,-37.9 36.79,-42.63l-1.19,-21.92l63.93,-8.66l6.97,-8.67l54.83,-3.14l-8,14.68c-17.91,4.6 -33.16,7.85 -44.81,9.39c-3.29,0.44 -6.3,0.74 -8.99,0.9l-0.84,20.9c-12.58,14.78 -17.97,38.11 -16.13,69.98l-5.09,10.36l-38.32,-2.21l-48.6,-25.2z" fill="rgb(255,255,255)" id="svg_256"/>
   <path d="m791.7,301.88l22.22,13.35l-9.8,26.4l0,0l4.23,6.16l10.98,2.77l18.55,12.51c-17.29,-5.98 -30.56,-9.15 -39.81,-9.49l-5.11,-3.36l-9.32,-0.96l1.92,-16.52c3.96,-4.45 7.7,-10.29 11.22,-17.51c-0.9,-4.83 -2.6,-9.28 -5.08,-13.35z" fill="rgb(232,232,232)" id="svg_257"/>
   <path d="m1010.4,302.5c-37.09,2.91 -61.07,8.65 -71.91,17.19c-17.29,8.84 -34.51,14.08 -51.65,15.69c-8.33,-8.63 -14.17,-16.97 -17.5,-25.03c-13.56,4.14 -21.79,17.04 -24.69,38.71l-8.02,1.16l0,1.4c17.26,11.72 47.97,20.97 92.1,27.74c28.77,-2.71 55.95,-3.49 81.56,-2.36l-4.19,-24.57c-24.89,18.77 -27.13,-34.69 4.02,-41.4l0.28,-8.53z" fill="rgb(185,185,185)" id="svg_258"/>
   <path d="m987.17,337.22c-4.12,7.49 -1.86,31.24 10.53,34.42c3.08,0.79 8.59,0.82 9.98,-8.75l-1.67,-9.82c-12.86,7.02 -19.14,1.74 -18.84,-15.85z" fill="rgb(116,116,116)" id="svg_259"/>
   <path d="m859.15,315.49q-0.27,4.77 3.35,7.97c3.63,3.2 6.47,2.44 8.74,4.48c2.18,1.94 1.72,5.22 0.27,7.44c-1.82,2.81 -3.26,10.02 -0.27,9.52c2.7,-0.45 -2.79,-13.95 6.81,-10.57q3.23,1.14 7.52,-1.97l-17.95,-21.46l-8.47,4.59z" fill="rgb(116,116,116)" id="svg_260"/>
   <path d="m997.72,305.49c-3.65,0.95 -4.02,3.73 -7.89,4.63c-3.7,0.85 -4.36,-1.18 -8.39,-0.62c-4.03,0.55 -7.85,2.7 -10.18,2.93c-5.37,0.51 -7.5,-1.3 -13.8,-0.36c7.9,-3.29 27.29,-6.58 40.26,-6.58z" fill="rgb(116,116,116)" id="svg_261"/>
   <path d="m1002.26,355.49c0.52,-14.03 1.88,-28.27 4.08,-42.73l3.78,-0.69l0,0c-2.2,14.03 -3.39,27.87 -3.57,41.51l-4.29,1.91l0,0z" fill="rgb(0,0,0)" id="svg_262"/>
   <path d="m889.64,285.76c17.54,-0.46 36.23,0.3 56.06,2.25c22.54,-2.74 39.96,-5.77 53.39,-9.76l6.32,-11.53l0.4,1.59l-5.89,10.42c-13.08,3.67 -30.96,7.58 -53.65,10.32l0,17.89l-1.27,-0.92l0.41,-16.97c-19.64,-1.93 -38.65,-2.82 -57.02,-2.68l1.25,-0.61z" fill="rgb(185,185,185)" id="svg_263"/>
   <path d="m969.21,277.61l30.93,0.21l-1.22,0.72l-29.97,-0.23l0.26,-0.7z" fill="rgb(185,185,185)" id="svg_264"/>
   <path d="m932.97,278.73l-49.87,6.55c0.34,7.28 1.16,16.07 2.47,26.33l-2.78,-1.49c-1.13,-9.86 -1.89,-18.89 -2.26,-27.1l51.16,-6.42l1.28,2.13z" fill="rgb(0,0,0)" id="svg_265"/>
   <path d="m1010.12,303.66l0,-3.31l2.95,0.59l-0.38,11.17c-31.83,1.02 -31.92,61.66 -6.35,38.11l2.91,2.22l-0.41,2.95l1.56,2.04l-1.56,1.56l3.22,18.41l-3.22,-0.32l-2.83,-22.43c-26.48,14.75 -26.41,-35.55 3.7,-44.98l0.41,-6.01z" fill="rgb(0,0,0)" id="svg_266"/>
   <path d="m1006.55,352.12c-3.61,11.64 -7.09,15.44 -10.43,11.4c3.15,6.04 6.87,3.58 11.14,-7.39l-0.71,-4.01z" fill="rgb(0,0,0)" id="svg_267"/>
   <path d="m985.49,354.38l0.97,-1.31c4.33,19.41 14.54,24.37 20.23,4.58l1.13,2.25c-10.06,21.89 -16.82,12.97 -22.33,-5.52z" fill="rgb(0,0,0)" id="svg_268"/>
   <path d="m843.7,347.26l-1.38,1.27l-0.84,0.12l-0.54,0.73l-4.31,-0.45l-2.23,3.19l2.82,-1.56l40.83,7.74l-31.74,-8.92l29.31,0.84l-31.92,-2.96z" fill="rgb(0,0,0)" id="svg_269"/>
   <path d="m837.78,351c-10.4,-0.08 -20.56,-1.47 -30.48,-4.16l1.87,2.22c10.3,2.49 21.05,3.69 32.27,3.58l-3.66,-1.64l0,0z" fill="rgb(0,0,0)" id="svg_270"/>
   <path d="m809.17,315.69c-4.19,1.69 -8.42,2 -12.68,0.94l0,1.51c4.02,0.84 8.24,0.03 12.68,-2.45z" fill="rgb(0,0,0)" id="svg_271"/>
   <path d="m796.66,325.34c-0.7,9.97 -0.16,18.42 1.41,28.4l-1.29,-1.37c-1.77,-8.9 -2.34,-17.13 -1.57,-25.48l1.45,-1.55z" fill="rgb(0,0,0)" id="svg_272"/>
   <path d="m785.34,339.42c-2.04,5.68 -2.85,8.96 -2.41,9.84c0.49,0.96 3.96,1.64 11.21,1.74l-1.82,-1.74c-5.2,0.2 -7.65,-0.15 -8.06,-0.7c-0.41,-0.56 0.25,-3.3 2.01,-8.23l-0.93,-0.91z" fill="rgb(0,0,0)" id="svg_273"/>
   <path d="m804.75,340.84c1.64,4.11 4,7.59 7.09,10.43l-1.21,0.35c-2.49,-2.07 -4.71,-5.06 -6.65,-8.98l0.77,-1.8z" fill="rgb(0,0,0)" id="svg_274"/>
   <path d="m938.77,318.95c-12.91,20.58 -13.52,41.1 -10.85,60.41l1.15,0.53c-3.34,-17.5 -2.48,-38.16 9.98,-58.54l-0.28,-2.4z" fill="rgb(0,0,0)" id="svg_275"/>
   <path d="m848.07,348.55c-1.17,-25.11 10.75,-38.1 35.79,-41.18l0,-2.56c-28.85,4.98 -41.92,18.83 -39.21,43.74l3.42,0z" fill="rgb(0,0,0)" id="svg_276"/>
   <path d="m881.59,309.1l8.31,3.66l0.52,1.2l-8.51,-4.09l-0.32,-0.77z" fill="rgb(232,232,232)" id="svg_277"/>
   <path d="m978.06,272.25l0.75,-1.37l0,0c-5.26,0.13 -10.27,0.39 -15.03,0.78l0.92,1.16c3.99,-0.21 10.2,-0.5 13.36,-0.57zm-0.78,1.42l-0.83,1.52l-9.69,0.25l-1.1,-1.4c1.4,-0.07 2.84,-0.15 4.33,-0.21c2.31,-0.09 4.74,-0.16 7.29,-0.16zm2.1,-3.83l0.83,-1.5c-6.46,0.22 -12.44,0.68 -17.95,1.39l0.77,0.98c5.34,-0.49 10.79,-0.78 16.35,-0.87l0,0z" fill="rgb(185,185,185)" fill-rule="evenodd" id="svg_278"/>
   <g id="svg_279">
    <ellipse cx="990.2" cy="271" fill="rgb(185,185,185)" id="svg_280" rx="7.73" ry="3.95"/>
    <ellipse cx="989.73" cy="270.32" fill="rgb(255,255,255)" id="svg_281" rx="6.46" ry="2.92"/>
   </g>
   <path d="m890.67,291.08l-0.41,8l-0.81,-0.21l0.35,-7.99l0.87,0.2l0,0l0,0l0,0zm-1.6,-0.2l-0.5,6.55l-0.64,-0.17l0.19,-6.52l0.95,0.14l0,0l0,0zm0.94,10.12l0.05,-0.86l-3.72,-1.06l0.21,2.94l3.46,-1.02l0,0zm1.26,-11.07l-5.66,-0.65l0.54,13.54l4.11,0.84l1.01,-13.73l0,0l0,0l0,0l0,0zm0.73,-0.65l-7.35,-1.12l0.96,15.03l5.39,1.14l1,-15.05l0,0l0,0l0,0l0,0zm-5.01,1.34l-0.22,5.4l-0.43,-0.13l-0.04,-5.27l0.69,0z" fill="rgb(232,232,232)" fill-rule="evenodd" id="svg_282"/>
   <path d="m1007.68,304.33c1.86,-10.82 4.18,-21.76 6.96,-32.82l-7.8,-6.19c-13.14,-0.37 -35.48,1.01 -50.88,2.99l-2.02,-2.67c14.67,-1.93 37.65,-3.74 53.32,-3.79l12.23,8.32c-3.22,11.13 -5.84,22.14 -7.85,33.04l-3.96,1.12l0,0z" fill="rgb(0,0,0)" id="svg_283"/>
   <path d="m944.27,309.42l-3.54,-2.76l8.42,2.87l-6.01,-1.57l4.94,3.24l-8.16,-2.77l4.35,0.99z" fill="rgb(185,185,185)" id="svg_284"/>
   <path d="m865.1,309.72q12.6,20.75 21.74,27.5c12.69,-2.6 32.62,-7.18 50.96,-14.96c11.69,-10.44 36.44,-16.25 74.26,-17.45l1.01,-3.2c-41.44,2.58 -61.72,7.58 -74.83,17.1c-18.86,9.14 -37.09,13.83 -49.23,14.95c-6.08,-3.16 -12.7,-11.32 -19.86,-24.47l1.05,-0.79l-1.88,-0.51l-3.22,1.83z" fill="rgb(0,0,0)" id="svg_285"/>
   <path d="m939.12,366.32l-0.31,1.19l4.56,0.97l-1.24,0.53l-3.49,-0.84l-0.88,3.38l-0.05,-1.82l0.28,-1.72l-1.29,-0.31l-0.4,2.86l-1.13,0.99l0.71,-4.04l-5.73,-1.39l2.08,0l3.76,0.79l0.18,-1.06l-4.59,-0.75l-1.19,-1.26l5.91,1.31l0.43,-2.48l0.88,-1.52l-0.58,4.16l1.35,0.31l0.77,-4.67l1.01,1.36l-0.91,3.5l2.05,0.45l2.13,0.76l-4.31,-0.7zm-0.83,-0.13l-0.19,1.17l-1.32,-0.28l0.16,-1.11l1.35,0.22z" fill="rgb(0,0,0)" fill-rule="evenodd" id="svg_286"/>
   <path d="m928.43,379.49c-0.94,2.8 -2.48,5.34 -4.59,7.62l2.02,0.45c1.61,-1.9 2.78,-4.54 3.51,-7.92l-1.45,-0.15l0.51,0z" fill="rgb(185,185,185)" id="svg_287"/>
   <path d="m977.05,280.43l-31.35,5.24c-13.72,-2.04 -27.94,-2.46 -42.64,-1.27l1.4,-0.6l28.51,-3.23l40.98,-0.48l3.1,0.34z" fill="rgb(0,0,0)" id="svg_288"/>
   <path d="m972.65,278.78l-1.9,2.07l-32.21,-13.8l2.13,-11.24c13.79,7.31 23.76,15.65 31.98,22.97z" fill="rgb(232,232,232)" id="svg_289"/>
   <path d="m918.13,263.12c7.02,-0.7 14.87,-4.66 22.54,-5.94l-2.03,9.88c-6.18,1.44 -12.58,5.08 -19.37,5.15c-6.41,0.06 -13.23,-3.38 -18.39,-4.83l-1.57,-6.5c4.41,0.47 11.12,3.02 18.82,2.24z" fill="rgb(255,255,255)" id="svg_290"/>
   <path d="m901.78,267.24c4.7,1.33 10.55,3.63 17.9,3.25c5.7,-0.29 12.5,-2.84 19.07,-4.65c15.98,4.32 26.77,9.35 32.39,15.07l-32.9,-0.06q-18.15,-6.78 -38.24,-11.49l-2.71,-9.11c5.56,0.18 13.38,2.01 21.99,1.09c7.04,-0.76 14.61,-4.06 21.91,-5.7c13.39,6.51 23.66,14.67 32.85,22.4l-0.82,2.39l-2.87,0.65l1.8,-2.47c-8.71,-7.01 -18.53,-14.83 -31.48,-21.43c-6.79,1.69 -14.34,5.36 -21.4,6.23c-7.56,0.93 -14.56,-1 -19.41,-1.56l1.92,5.39z" fill="rgb(0,0,0)" id="svg_291"/>
   <path d="m1002.46,386.63c-0.16,-3.17 -0.28,-6.36 -0.36,-9.55l0,0l5.16,0.25c0.3,4.11 0.7,8.19 1.19,12.26l-83.18,0.95l0,-3.91l77.19,0z" fill="rgb(0,0,0)" id="svg_292"/>
   <path d="m925.54,390.54l0.46,-3.91c-37.6,1.91 -94.92,-33.55 -128.45,-34.51l-7.87,-6.21l-1.25,0.49l9.12,8.25c24.61,1.24 56.69,14.87 86.31,34.94l41.68,0.95z" fill="rgb(0,0,0)" id="svg_293"/>
   <path d="m1014.64,376.24l-1.57,3.12c-19.94,-2.95 -60.65,-1.83 -84.2,1.54l-0.95,-2.26c22.66,-2.97 64.54,-4.14 86.72,-2.4z" fill="rgb(0,0,0)" id="svg_294"/>
   <path d="m928.87,380.9c-37.72,-3.65 -71.07,-16.53 -93.56,-30.21l2.57,-0.13c21.16,11.02 53.55,22.5 91.29,28.08l-0.3,2.26z" fill="rgb(0,0,0)" id="svg_295"/>
   <g id="svg_296">
    <path d="m972.2,280.01l-7.49,-1.52c-1.67,0.26 -2.22,1.18 -1.65,2.76l6.97,3.27c-1.34,-2.01 -0.79,-4.17 2.17,-4.51z" fill="rgb(223,178,110)" id="svg_297"/>
    <path d="m980.91,281.87l-9.26,-1.83c-2.35,0.92 -3.04,2.27 -2.06,4.03l8.31,4.09c6.82,3.66 9.04,-4.64 3.01,-6.29z" fill="rgb(255,255,255)" id="svg_298"/>
    <path d="m985.1,288.62c0.99,-1.9 0.4,-4.56 -1.92,-5.77c-2.32,-1.21 -5.49,-0.52 -6.48,1.38c-0.99,1.9 0.08,4.42 2.4,5.64c2.32,1.2 5.01,0.65 6,-1.25z" fill="rgb(93,93,93)" id="svg_299"/>
    <path d="m983.34,282.95c-4.09,-0.96 -6.87,0.52 -6.58,2.47c0.86,5.58 5.87,6.02 7.76,3.5c1.44,-1.92 -1.92,-4.66 -3.76,-3.49c-2.61,1.66 -0.63,5.98 1.98,1.23c-0.93,6.33 -6.31,0.65 -2.14,-2.23c1.08,-0.75 6.59,-0.37 4.72,5.15c-0.81,2.37 -8.98,2.73 -9.9,-3.95c-0.4,-2.89 2.91,-4.08 6.82,-3.43l1.1,0.75z" fill="rgb(0,0,0)" id="svg_300"/>
    <path d="m983.96,283.42c-3.02,-0.75 -4.92,-0.12 -5.68,1.88c1.7,-1.84 3.73,-2.24 6.08,-1.21l-0.4,-0.67z" fill="rgb(0,0,0)" id="svg_301"/>
    <path d="m978.49,289.87l-15.73,-7.69c-1.01,-1.47 0.09,-4.72 2.14,-4.65l17.6,3.75l-1.42,1.09l-16.14,-3.67c-1.32,0.08 -1.7,0.96 -1.44,2.26l13.68,6.12l1.31,2.79z" fill="rgb(0,0,0)" id="svg_302"/>
    <path d="m972.2,280.01c-3.06,0.04 -4.13,2.7 -2.17,4.51l0.98,0.43c-2.43,-2.19 -1.66,-4.71 1.89,-4.81l-0.7,-0.13z" fill="rgb(0,0,0)" id="svg_303"/>
   </g>
   <g id="svg_304">
    <path d="m805.91,312.76c-7.53,17.14 -17.05,30.31 -28.57,39.5l-40.7,-9.89c13.6,-8.52 21.69,-17.22 24.27,-26.09c10.87,1.38 25.87,0.21 45,-3.52z" fill="rgb(0,0,0)" id="svg_305"/>
    <path d="m757.06,330.89c2.71,-3.77 4.82,-7.63 6.3,-11.62l7.58,0l-1.32,3.62l-4.89,-0.45l-4.04,9.21l-3.63,-0.76z" fill="rgb(118,0,0)" id="svg_306"/>
    <path d="m779.38,335.22l5.42,-15.12c12.86,-4.55 14.99,3.24 5.18,9.28l-0.2,7.48l-4.38,-0.55l1.18,-10.54c7.05,0.71 9.27,-5.95 0.79,-3.8l-4.08,14.34l-3.91,-1.09z" fill="rgb(118,0,0)" id="svg_307"/>
    <path d="m743.42,341.3l9.3,-8.65q5.57,-0.51 6.39,0.91q0.81,1.42 -4.86,4.46l-2.1,5.18l-2.7,-0.85l2.7,-5.5l0,0c2.33,-1.41 2.87,-2.71 1.21,-2.88l0,0l-5.84,7.33l-4.1,0z" fill="rgb(118,0,0)" id="svg_308"/>
    <path d="m761.36,334.29l-8.11,9.41l6.54,1.22l2.16,-2.57l-3.26,-0.57l3.26,-4.31l3.42,0.55l1.92,-2.4l-5.93,-1.33z" fill="rgb(118,0,0)" id="svg_309"/>
    <path d="m759.21,339.85l3.26,0.39l0.44,-1.06l-1.89,-0.77l-1.81,1.44z" fill="rgb(118,0,0)" id="svg_310"/>
    <path d="m761.5,345.73l7.12,-8.88l2.55,0.62l-0.67,4.31l3.33,-4.31l3.11,0l-7,10.39l-2.65,-1.22l0.61,-5.34l-2.53,5.34l-3.87,-0.91z" fill="rgb(118,0,0)" id="svg_311"/>
    <path d="m777.92,338.02l9.08,1.53l-2.2,3.24l-2.33,-0.44l-5.53,7.34l-3.69,-0.81l5.58,-7l-2.7,-0.71l1.79,-3.15z" fill="rgb(118,0,0)" id="svg_312"/>
    <path d="m769.24,323.31q-2.26,2.07 -3.34,7.58l1.09,2.05q4.75,1.84 7.34,1.1q2.55,-0.73 5.39,-4.66q2.69,-6.38 0,-8.73c-3.33,-2.91 -7.63,0.05 -10.48,2.66zm2.51,1.65c-1.16,2.05 -1.46,3.78 -0.92,5.15q1.94,0.98 3,0.58q1.04,-0.39 2.2,-2.49q1.1,-3.41 0,-4.67c-1.36,-1.56 -3.12,0.03 -4.28,1.43z" fill="rgb(118,0,0)" fill-rule="evenodd" id="svg_313"/>
    <path d="m762.75,324.81l2.99,0.34l-0.68,2.06l-3.27,-0.2l0.96,-2.2z" fill="rgb(118,0,0)" id="svg_314"/>
   </g>
   <g id="svg_315">
    <path d="m786,329.22c4.62,-10.3 6.5,-19.42 5.63,-27.34c-3.99,4.48 -8.94,8.22 -14.85,11.2c0.32,8.42 2.61,14.68 6.86,18.75q0.65,-1.04 2.36,-2.61z" fill="rgb(255,255,255)" id="svg_316"/>
    <path d="m784.84,331.14c4.73,-9.3 7.46,-19.15 6.86,-28.32c3.49,2.67 5.18,5.87 5.08,9.61c-1.2,7.91 -5.66,14.49 -11.94,18.71z" fill="rgb(232,232,232)" id="svg_317"/>
    <path d="m775.76,312.43c5.72,-2.46 11,-6.66 15.87,-12.61l24.16,14.36c-6.2,10.89 -10.1,22.1 -11.67,33.61l-1.28,-2.46c1.42,-10.19 4.68,-20.22 9.8,-30.1l-21.01,-12.14c-4.6,4.89 -9.24,8.32 -13.88,10.27q-0.31,11.62 6.54,17.26q16.34,-15.08 10.15,-21.12l1.63,1.4q6.15,3.39 -10.73,22.76q-9.63,-6.22 -9.58,-21.23z" fill="rgb(0,0,0)" id="svg_318"/>
    <path d="m790.91,301.61c1.11,6.36 -0.17,14.72 -3.83,25.07c4.01,-8.8 5.97,-17.16 5.88,-25.07l-2.05,0z" fill="rgb(0,0,0)" id="svg_319"/>
   </g>
  </g>
  <g id="svg_377">
   <g id="svg_182" transform="translate(-104.545 -109.091)">
    <g id="svg_183">
     <ellipse cx="776.42" cy="678.54" fill="rgb(0,0,0)" id="svg_184" rx="27.03" ry="1.08"/>
     <path d="m768.92,598.44l-10.46,8.86l4.37,17.08l1.21,10.42l1.27,26.18q-2.77,17.13 -3.23,18.64l30.55,-1.52c0.69,-1.57 3.71,-5.12 9.05,-10.63c-4.03,0.14 -7.42,-0.4 -9.83,-1.45l-0.22,-1.34l-1.39,-0.61l2.32,-20.55l0.83,-5.99l-3.53,-0.68l-1.25,-4.58l5.37,-3.06l-0.38,-25.17l-24.68,-5.6z" fill="rgb(0,0,0)" id="svg_185"/>
     <path d="m773.35,670.7l-7.69,1.56c0.72,-3.16 1.22,-6.6 1.5,-10.33l5.8,-1.75l0.39,10.52z" fill="rgb(255,255,255)" id="svg_186"/>
     <path d="m775.35,670.7l-0.28,-11.6c3.47,-7.27 7.87,-11.68 9.39,-13q3.28,3.84 5.19,11.31l-0.61,6.9l-11.41,1.04l10.98,0.03l-7.29,0.84l8.54,0.22l2.7,1.46c-5.2,1.88 -10.94,2.82 -17.21,2.8z" fill="rgb(255,255,255)" id="svg_187"/>
     <path d="m798.83,668.82l-4.67,-0.28c-5.31,2.11 -11.76,3.41 -19.31,3.88l0.14,5.03c9.56,-2.31 17.5,-5.18 23.84,-8.63z" fill="rgb(118,0,0)" id="svg_188"/>
     <path d="m773.4,672.6l-8.22,1.63l-0.61,3.67l8.83,-0.45l0,-4.85z" fill="rgb(118,0,0)" id="svg_189"/>
     <path d="m785.46,652.12c-0.12,-1.4 -0.57,-2.51 -1,-2.48c-0.44,0.03 -0.71,1.2 -0.59,2.61c0.11,1.4 0.56,2.51 1,2.48c0.43,-0.04 0.7,-1.21 0.59,-2.61z" fill="rgb(0,0,0)" id="svg_190"/>
     <path d="m761.23,625.8l4.48,10.81l1.22,22.61l6.12,-1.69l1.31,-10.9l0,9.99c3.25,-5.35 7.19,-9.52 10.02,-12.07q3.22,3.34 5.55,9.22l1.76,-14.77l-21.1,1.02l-1.8,-10.81l23.83,-0.21l-0.6,-23.49l-21.12,-4.35l1.85,16.06l-3.83,-15.83l-8.61,6.3l3.77,15.33l-2.85,2.78z" fill="rgb(118,0,0)" id="svg_191"/>
     <path d="m766.57,620l-6.38,5.08l7.31,17.42l0,-1.8l-5.25,-15.18l4.32,-5.52z" fill="rgb(0,0,0)" id="svg_192"/>
     <path d="m766.99,630.9l3.08,-2.88l0.09,0.78l-2.48,2.25l-0.69,-0.15z" fill="rgb(0,0,0)" id="svg_193"/>
    </g>
   </g>
   <g id="svg_217" transform="translate(-104.545 -109.091)">
    <g id="svg_218">
     <path d="m835.42,580.88l7.39,-3.03c1.76,-0.07 2.51,0.77 2.23,2.51l-6.51,4.72c0.99,-2.32 0,-4.43 -3.11,-4.2z" fill="rgb(223,178,110)" id="svg_219"/>
     <path d="m826.85,584.51l9.14,-3.7c2.6,0.48 3.57,1.73 2.91,3.73l-7.73,5.84c2.58,-3.19 1.44,-5.74 -4.32,-5.87z" fill="rgb(255,255,255)" id="svg_220"/>
     <path d="m824.15,591.76c-1.3,-1.64 -0.73,-4.26 1.28,-5.86c2.01,-1.59 4.69,-1.55 6,0.1c1.3,1.64 0.73,4.27 -1.28,5.86c-2.01,1.59 -4.69,1.55 -6,-0.1z" fill="rgb(93,93,93)" id="svg_221"/>
     <path d="m836.02,581.08l-6.89,2.92c1.63,0.11 3.1,1.11 3.78,3.11c0.12,0.34 0.2,0.67 0.25,0.99l0,0l5.03,-3.52c0.72,-1.92 -0.12,-3.47 -2.17,-3.5zm0.61,-0.26l5.85,-2.48c1.38,-0.18 2.07,0.42 2.06,1.8l-5.7,3.99c0.47,-1.64 -0.46,-3.18 -2.21,-3.31zm-12.57,5.62c2.95,-1.36 5.02,-1.09 6.2,0.81c-2.11,-1.55 -4.27,-1.56 -6.48,-0.04l0.28,-0.77l0,0l0,0zm9.02,3.36c-1.04,3.89 -7.95,4.71 -8.96,2.93c-2.82,-4.96 2.41,-6.35 3.59,-5.83c4.54,2 0.42,8.46 -1.65,2.55c3.38,4.09 4.49,-0.44 1.68,-1.55c-1.98,-0.79 -4.71,2.47 -2.97,4.05c2.28,2.07 7.02,0.72 6.81,-4.8c-0.07,-1.93 -3.03,-2.83 -6.78,-1.16l0,0l0.92,-0.92c0.18,-0.13 0.37,-0.25 0.55,-0.35l-1.05,-0.07l17.36,-7.26c2.08,-0.47 3.59,1.56 2.85,3.26l-12.35,9.15l0,0z" fill="rgb(0,0,0)" fill-rule="evenodd" id="svg_222"/>
    </g>
    <g id="svg_223">
     <path d="m818.99,564.46c-12.94,-30.85 5.5,-42.72 18.17,-40.47c22.81,4.05 24.84,24.85 10.88,31.77c-21.31,10.58 -4.52,-23.88 8.42,-34.93c12.06,-10.3 40.85,1.63 12.25,14.83c29.04,-6.51 6.81,-30.6 -14.28,-15.4c-10.17,7.33 -35.3,50.14 -3.26,37.44c11.03,-4.37 9.5,-41.34 -20.69,-34.78c-16.62,3.62 -21.7,20.91 -15.05,36.07l3.56,5.47z" fill="rgb(0,0,0)" id="svg_224"/>
     <path d="m811.54,568.71l15.06,-7.19l-0.94,0.18l-12.95,5.97l-1.17,1.04z" fill="rgb(0,0,0)" id="svg_225"/>
     <path d="m816.72,575.96l14.22,-8.72l-0.92,0.27l-12.25,7.31l-1.05,1.14z" fill="rgb(0,0,0)" id="svg_226"/>
     <path d="m809.1,563.64l16.13,-4.24l-0.96,0l-13.84,3.45l-1.33,0.79z" fill="rgb(0,0,0)" id="svg_227"/>
    </g>
   </g>
   <g id="svg_228" transform="translate(-104.545 -109.091)">
    <path d="m976.18,569.82l21.84,-14.38l-2.48,-7.85l-45.35,8.72l0,10.57l25.99,2.94z" fill="rgb(0,0,0)" id="svg_229"/>
    <path d="m973.59,568.5l21.25,-14.19l-1.74,-3.72l-34.72,8.08l13.85,14.76l1.36,-4.93z" fill="rgb(255,255,255)" id="svg_230"/>
    <path d="m968.99,567.7l24.11,-17.11l-34.72,8.08l10.61,9.03z" fill="rgb(232,232,232)" id="svg_231"/>
    <path d="m968.71,566.88l21.67,-14.55l-1.91,1.98l-20.71,14.96l0.95,-2.39z" fill="rgb(185,185,185)" id="svg_232"/>
    <path d="m884.9,564.73l7.63,25.86c12.4,22.44 17.04,50.22 13.88,83.3l16.05,0l92.6,-19.87c-9.57,-7.01 -22.63,-14.62 -39.2,-22.87c-1,-15.99 -6.89,-30.95 -17.69,-44.92l-3.27,-36.34l-70,14.84z" fill="rgb(232,232,232)" id="svg_233"/>
    <path d="m998.58,566.07l-30.04,2.43l-3.91,-14.91l-9.73,-4.3l3.27,36.94c11.83,14.15 15.43,27.52 18.32,44.8l38.32,22.99l23.41,-22.58c-7.12,-0.31 -14.56,-1.62 -19.18,-3.97c4.25,-16.65 -3.01,-32.81 -21.83,-48.54l1.37,-12.86z" fill="rgb(255,255,255)" id="svg_234"/>
    <path d="m914.7,664.32c14.22,-8.23 21.73,-12.58 22.52,-13.08c12.13,-4.01 23.41,-10.37 38.53,-20.21c-0.45,-12.28 -6.56,-30.54 -17.91,-44.05l-59.15,2.4l-1.13,-1.24l59.59,-2.49l-1.89,-30.54l1.89,5.15l1.32,25.39c10.88,13.52 16.9,28.66 18.02,45.38c12.96,6.26 23.97,12.51 33.02,18.73l0.48,1.25c-10.83,-6.89 -22.26,-13.29 -33.81,-19.46c-12.09,8.4 -24.45,16 -37.41,21.09l-26.72,15.06l2.65,-3.38z" fill="rgb(185,185,185)" id="svg_235"/>
    <path d="m894.83,599.62l2.55,12.76c14.7,12.08 15.31,24.15 3.96,27.91l4.05,14.57l30.12,-15.89c11.24,-7.59 24.6,-12.09 40.05,-13.54l28.76,8.52l11.47,-7.38l6.32,2.36l2.94,-7.54l-5.23,-1.07q1.05,-9.07 -6.71,-25.26q-26.65,-5.26 -47.95,-3.42l1.02,5.52c9.08,2.17 17.01,4.82 21.48,8.4c4.51,3.99 7.39,9.18 0.28,13.04c-2.2,1.22 -7.01,-0.36 -10.69,0.66q-2.57,0.72 -4.37,1.37q-3.87,-3.12 -5.76,-7.67c-1.76,-4.36 -2.61,-9.54 -2.56,-15.59l2.28,0l-0.39,-6.5l-4.21,0.64c-28.02,9.26 -50.48,11.97 -67.41,8.11z" fill="rgb(185,185,185)" id="svg_236"/>
    <path d="m988.73,606.36q10.69,8.45 9.8,11.75c-0.39,1.44 -1.26,2.94 -2.61,4.52c-1.78,0.33 -0.33,1.97 0.25,2.16c-6.82,1.21 -10.64,-2.56 -19.68,-2.42q-2.76,-0.52 -4.24,-1.66c1.45,0.13 2.68,-1.1 6.05,-1.7c4.33,1.73 8.39,0.57 12.1,-1.58c2.74,-3.88 1.98,-6.1 -1.67,-11.07z" fill="rgb(116,116,116)" id="svg_237"/>
    <path d="m926.03,643.31c-2.16,0.57 -4.43,-1.42 -6.68,-0.76c-2.15,0.64 -1.63,2.14 -3.82,3.07c-2.19,0.94 -6.38,0.79 -7.61,1.39c-2.82,1.39 -3.56,4.44 -3.93,7.92c5.21,-0.43 15.74,-7.48 22.04,-11.62z" fill="rgb(116,116,116)" id="svg_238"/>
    <path d="m1014.48,626.78q13.51,6.9 20.71,6.89l-23.26,19.53l-90.41,18.64l-13.18,0.14c0.78,-6.85 1.17,-13.56 1.13,-20.15l0,0l-3.73,1.83c-0.33,7.87 -1.67,15.74 -4.09,23.6l19.14,0l92.77,-19.36l31.23,-29.29c-5.97,2.52 -15.41,1.64 -28.37,-2.67l-1.94,0.84l0,0z" fill="rgb(0,0,0)" id="svg_239"/>
    <path d="m1021.47,620.59c1.27,-17.44 -6.81,-31.34 -22.89,-43.21l3.87,-13.55l-32.37,2.31l-5.07,-15.27l-9.77,-3.94l-73.94,14.57l8.13,27.88c2.14,4.14 4.09,8.28 5.78,12.42l5.93,0.49l0,0c-1.73,-4.79 -3.7,-9.52 -5.93,-14.15l-7.1,-22.77l67.02,-13.76l7.85,3.12l4.21,15.09l30.09,-2.74l-2.82,13.04c16.96,10.94 24.91,24.23 23.85,39.89l3.16,0.58l0,0z" fill="rgb(0,0,0)" id="svg_240"/>
    <path d="m907.03,635.56l-3.04,-16.88l-4.33,-4.51l3.88,24.66l3.49,-3.27z" fill="rgb(0,0,0)" id="svg_241"/>
    <path d="m855.7,676.97c56.32,-3.34 107.34,-2.83 153.03,-0.93l-55.59,4.81l-97.44,-3.88z" fill="rgb(0,0,0)" id="svg_242"/>
    <path d="m902.91,658.25l-3.73,-19.2c16.79,-5.73 6.01,-19.61 -3.97,-26.6l-3.93,-13.91l3.62,-1.3c18.1,4.12 36.19,3 67.17,-6.65q25.32,-1.88 50.55,3.28l2.44,3.37q-27.48,-6.51 -51.48,-4.7c-27.57,8.15 -49.63,13.41 -66.13,10.38l1.18,6.33c11.78,13.56 15.68,27.37 4.45,31.9l2.92,14.15l-3.09,2.95z" fill="rgb(0,0,0)" id="svg_243"/>
    <path d="m998.11,625.82c-5.75,-3.76 -30.48,-4.57 -49.26,0.17q12,-4.91 23.4,-4.84c9.58,-0.76 19.89,0.81 25.86,4.67z" fill="rgb(0,0,0)" id="svg_244"/>
    <path d="m973.11,620.01l2.08,2.36c-3.05,-0.98 -8,-1.45 -14.87,-1.45c6.55,-0.94 10.82,-1.23 12.79,-0.91z" fill="rgb(0,0,0)" id="svg_245"/>
    <path d="m1021.1,619.01l-0.28,1.05l-6.01,-0.72l8.18,2.5l-2.98,6.36l3.23,1.36l2.72,-9.01l-4.86,-1.54z" fill="rgb(0,0,0)" id="svg_246"/>
    <path d="m964.82,595.74c36.45,8.52 34.01,21.85 21.86,24.66c-1.35,0.31 -5.52,-0.24 -7.87,-0.6c-2.13,-0.32 -3.99,1.72 -5.3,1.62c-8.24,-0.65 -12.9,-26.38 -8.69,-25.68zm6.88,23.27c-5.39,-5.79 -7.89,-20.97 -4.8,-20.46c26.74,6.12 28.76,15.59 19.14,19.85c-2.71,1.2 -6.71,-0.22 -8.62,0.03c-1.17,0.16 -4.66,1.71 -5.72,0.58z" fill="rgb(0,0,0)" fill-rule="evenodd" id="svg_247"/>
    <path d="m919.28,605.06l12.07,-1.93l-0.6,0.72l-9.86,1.64l-1.61,-0.43l0,0zm-0.04,1.36l12.06,-1.93l-0.59,0.72l-9.87,1.64l-1.6,-0.43l0,0zm-0.05,1.36l12.07,-1.93l-0.6,0.72l-9.87,1.64l-1.6,-0.43z" fill="rgb(116,116,116)" fill-rule="evenodd" id="svg_248"/>
    <path d="m932.96,640.95c0.04,-2.46 1.7,-5.26 4.95,-8.39c-1.55,2.32 -2.51,4.6 -2.83,6.85l-2.12,1.54l0,0z" fill="rgb(0,0,0)" id="svg_249"/>
    <path d="m932.96,640.95c-0.06,2 0.94,3.78 3,5.33c-0.95,-2.26 -1.25,-4.55 -0.88,-6.87l-2.12,1.54l0,0z" fill="rgb(185,185,185)" id="svg_250"/>
    <path d="m988.37,622.67l3.26,0.82l8,-1.25l-11.26,0.43z" fill="rgb(0,0,0)" id="svg_251"/>
    <path d="m900.98,661.44q18.31,-9.71 33.23,-19.39c9.59,-8.34 31.63,-15.42 41.54,-15.25c11.79,4.49 21.49,7.24 29.12,8.28c4.29,-3.48 7.67,-6.18 13.88,-9.79l0.98,-1.44c-4.1,1.64 -11.38,5.07 -15.23,7.87c-19.62,-3.67 -29.17,-6.1 -28.64,-7.29c-12.67,-0.82 -27.06,4.11 -41.26,13.19q-17.89,11.69 -34.44,18.28l0.82,5.54z" fill="rgb(0,0,0)" id="svg_252"/>
   </g>
  </g>
 </g>
</svg>