<svg xmlns="http://www.w3.org/2000/svg" xmlns:xlink="http://www.w3.org/1999/xlink" style="isolation:isolate" viewBox="348 584 614 592.262" width="614pt" height="592.262pt">
<style type="text/css">
    
  @font-face {
    font-family: 'Coming Soon';
    src: url('ComingSoon.ttf') format('truetype');
  }
</style>

    <defs><clipPath id="_clipPath_nLxtt4mUMMKLKO4OD96cCMArwWbE49bk"><rect x="348" y="584" width="614" height="592.262"/></clipPath></defs><g clip-path="url(#_clipPath_nLxtt4mUMMKLKO4OD96cCMArwWbE49bk)"><linearGradient id="_lgradient_0" x1="-0.00012689897726536614" y1="1.2782098001627136" x2="0.4203141509979577" y2="-0.15882068656434534" gradientTransform="matrix(288,0,0,169,360,698)" gradientUnits="userSpaceOnUse"><stop offset="0%" stop-opacity="1" style="stop-color:rgb(172,6,6)"/><stop offset="97.91666666666666%" stop-opacity="0" style="stop-color:rgb(255,255,255)"/></linearGradient><rect x="360" y="698" width="288" height="169" transform="matrix(1,0,0,1,0,0)" fill="url(#_lgradient_0)"/><linearGradient id="_lgradient_1" x1="-0.00012689897726536614" y1="1.2782098001627136" x2="0.4203141509979577" y2="-0.15882068656434534" gradientTransform="matrix(288,0,0,169,655,698)" gradientUnits="userSpaceOnUse"><stop offset="2.5%" stop-opacity="1" style="stop-color:rgb(255,153,0)"/><stop offset="97.91666666666666%" stop-opacity="0" style="stop-color:rgb(255,255,255)"/></linearGradient>
    
    <rect x="662" y="698" width="288" height="169" transform="matrix(1,0,0,1,0,0)" fill="url(#_lgradient_1)"/>
    
    <linearGradient id="_lgradient_2" x1="-0.00012689897726536614" y1="1.2782098001627136" x2="0.4203141509979577" y2="-0.15882068656434534" gradientTransform="matrix(288,0,0,169,662,991)" gradientUnits="userSpaceOnUse"><stop offset="2.5%" stop-opacity="1" style="stop-color:rgb(255,153,0)"/><stop offset="97.91666666666666%" stop-opacity="0" style="stop-color:rgb(255,255,255)"/></linearGradient><rect x="662" y="991" width="288" height="169" transform="matrix(1,0,0,1,0,0)" fill="url(#_lgradient_2)"/><rect x="348" y="584" width="614" height="592.262" transform="matrix(1,0,0,1,0,0)" fill="none"/><rect x="660.5" y="595.5" width="291" height="273" transform="matrix(1,0,0,1,0,0)" fill="transparent" vector-effect="non-scaling-stroke" stroke-width="3" stroke="rgb(0,0,0)" stroke-linejoin="miter" stroke-linecap="square" stroke-miterlimit="2"/><rect x="662" y="597" width="288" height="270" transform="matrix(1,0,0,1,0,0)" fill="none"/><clipPath id="_clipPath_J64erU1oZqSowsyfSqG1cnYem32TgSd5"><rect x="660.5" y="595.5" width="291" height="273" transform="matrix(1,0,0,1,0,0)" fill="transparent" vector-effect="non-scaling-stroke" stroke-width="3" stroke="rgb(0,0,0)" stroke-linejoin="miter" stroke-linecap="square" stroke-miterlimit="2"/><rect x="662" y="597" width="288" height="270" transform="matrix(1,0,0,1,0,0)" fill="none"/></clipPath><g clip-path="url(#_clipPath_J64erU1oZqSowsyfSqG1cnYem32TgSd5)"><g><g><ellipse vector-effect="non-scaling-stroke" cx="695.9712133022209" cy="852.1289981706724" rx="29.33152599708569" ry="1.3384024830687622" fill="rgb(0,0,0)"/><path d=" M 694.52 845.531 L 686.551 845.531 L 685.758 829.145 L 694.775 833.023 C 694.907 837.951 694.82 842.123 694.52 845.531 Z " fill="rgb(255,255,255)"/><path d=" M 703.773 812.415 L 709.97 823.482 L 708.656 839.407 L 711.481 840.939 C 710.064 842.704 704.408 844.237 694.52 845.531 C 695.034 841.115 695.116 836.949 694.775 833.023 C 696.225 825.651 699.222 818.784 703.773 812.415 Z " fill="rgb(232,232,232)"/><path d=" M 677.171 777.819 L 701.369 780.064 L 708.881 803.199 L 710.834 803.049 L 709.632 824.231 L 703.623 812.213 C 698.668 820.038 695.61 827.052 694.459 833.245 L 684.994 828.588 C 683.755 817.519 678.945 804.151 670.572 788.476 L 677.171 777.819 Z " fill="rgb(118,0,0)"/><path d=" M 711.81 840.738 L 720.974 846.597 L 717.219 848.85 L 693.933 851.254 L 685.52 850.803 L 686.121 845.245 L 694.984 845.395 C 703.104 844.839 708.71 843.289 711.81 840.738 Z " fill="rgb(118,0,0)"/><path d=" M 684.162 852.007 C 687.267 834.071 682.101 812.86 669.161 788.523 L 676.264 775.97 C 686.321 776.273 694.841 777.258 701.808 778.881 L 709.97 802.269 L 707.249 802.269 L 699.994 781.347 C 693.412 779.986 685.809 778.974 677.171 778.264 L 671.427 788.723 C 683.592 810.087 688.829 831.225 687.147 852.129 L 684.162 852.007 Z " fill="rgb(0,0,0)"/><path d=" M 687.584 804.61 L 686.542 804.148 C 686.46 806.584 686.571 808.676 686.881 810.418 L 687.854 810.904 C 687.44 808.861 687.348 806.766 687.584 804.61 Z " fill="rgb(0,0,0)"/><path d=" M 687.147 807.257 C 694.262 804.836 702.623 802.723 712.237 800.909 L 709.97 838.778 L 722.817 846.142 L 713.9 852.129 L 711.481 852.129 L 719.625 846.556 L 707.249 839.615 L 709.97 803.715 C 702.796 804.018 695.186 805.856 687.147 809.222 L 687.147 807.257 Z " fill="rgb(0,0,0)"/><path d=" M 716.516 849.4 L 714.135 852.129 L 712.713 852.129 L 684.728 852.129 L 687.147 849.4 C 700.3 849.832 711.016 848.887 719.303 846.556 L 716.516 849.4 Z " fill="rgb(0,0,0)"/><path d=" M 686.542 799.946 C 686.705 794.782 683.578 787.143 677.171 777.021 L 676.264 778.264 C 680.682 784.911 684.105 792.141 686.542 799.946 Z " fill="rgb(0,0,0)"/><path d=" M 693.495 817.932 C 695.62 829.015 695.737 839.925 694.622 850.655 L 693.035 850.655 C 695.313 840.805 695.065 829.899 693.495 817.932 Z " fill="rgb(0,0,0)"/><path d=" M 709.97 824.989 C 708.482 819.781 706.414 815.089 703.773 810.904 C 698.191 818.9 694.883 825.959 694.622 832.072 L 685.484 828.123 L 685.484 829.797 L 695.006 834.503 C 696.689 825.85 699.739 818.696 703.773 813.429 C 706.199 816.65 708.262 821.551 709.97 828.123 L 709.97 824.989 Z " fill="rgb(0,0,0)"/><path d=" M 711.895 841.536 L 710.672 840.381 C 707.377 844.468 698.158 845.521 686.542 845.063 L 686.542 845.887 C 696.579 845.523 706.009 845.638 711.895 841.536 Z " fill="rgb(0,0,0)"/><path d=" M 705.497 820.737 C 705.568 819.461 705.085 818.395 704.419 818.358 C 703.752 818.321 703.154 819.326 703.083 820.602 C 703.012 821.878 703.495 822.944 704.161 822.981 C 704.828 823.018 705.426 822.012 705.497 820.737 Z " fill="rgb(0,0,0)"/></g><g><g clip-path="url(#_clipPath_xDQuEbpLxYRsUH8oGenwrdPUAT7vPCjU)"><text transform="matrix(1,0,0,1,670.919,614.378)" style="font-family:'Coming Soon';font-weight:400;font-size:12px;font-style:normal;fill:#000000;stroke:none;">You'll get evicted if you even slightly violate the </text><text transform="matrix(1,0,0,1,670.919,632.554)" style="font-family:'Coming Soon';font-weight:400;font-size:12px;font-style:normal;fill:#000000;stroke:none;">rules, but no one else will, no matter what they </text><text transform="matrix(1,0,0,1,670.919,650.73)" style="font-family:'Coming Soon';font-weight:400;font-size:12px;font-style:normal;fill:#000000;stroke:none;">constantly do to make your life a living hell.</text><text transform="matrix(1,0,0,1,670.919,668.906)" style="font-family:'Coming Soon';font-weight:400;font-size:12px;font-style:normal;fill:#000000;stroke:none;">There's nowhere to park, and it's painted with </text><text transform="matrix(1,0,0,1,670.919,687.081)" style="font-family:'Coming Soon';font-weight:400;font-size:12px;font-style:normal;fill:#000000;stroke:none;">actual poison.</text></g><defs><clipPath id="_clipPath_xDQuEbpLxYRsUH8oGenwrdPUAT7vPCjU"><rect x="0" y="0" width="275.28" height="92.576" transform="matrix(1,0,0,1,669.36,602.039)"/></clipPath></defs><path d=" M 845.969 704.493 L 835.755 694.614 L 831.133 692.457 L 845.969 704.493 Z " fill="rgb(0,0,0)"/></g><g><path d=" M 925.712 824.058 C 921.021 829.331 916.964 830.735 913.555 828.265 C 916.639 831.699 920.864 830.995 926.245 826.148 L 925.712 824.058 Z " fill="rgb(0,0,0)"/><path d=" M 933.186 782.921 L 927.178 822.481 L 918.654 824.923 L 911.522 814.526 C 911.761 798.212 918.979 787.679 933.186 782.921 Z " fill="rgb(232,232,232)"/><path d=" M 864.85 777.202 L 877.027 761.839 L 877.215 744.727 L 912.19 752.049 L 922.325 729.817 C 904.941 727.391 882.318 729.405 854.469 735.846 L 849.54 745.188 L 820.651 747.55 L 820.016 759.697 L 804.59 773.603 C 807.3 783.374 811.663 791.229 817.686 797.16 C 833.393 793.14 849.112 786.49 864.85 777.202 Z " fill="rgb(255,255,255)"/><path d=" M 817.253 838.227 L 860.809 835.414 C 860.123 838.316 858.308 843.089 852.031 851.378 L 784.467 847.684 L 781.239 843.721 L 797.234 832.371 L 817.253 838.227 Z " fill="rgb(255,255,255)"/><path d=" M 923.404 727.667 L 940.798 748.809 L 934.706 773.603 C 915.237 770.431 890.15 771.79 863.863 776.465 L 877.027 761.964 L 877.215 744.727 L 911.888 751.891 L 923.404 727.667 Z " fill="rgb(232,232,232)"/><path d=" M 924.438 844.101 L 922.325 855.163 L 851.928 851.758 L 861.886 836.435 L 924.438 844.101 Z " fill="rgb(232,232,232)"/><path d=" M 793.505 825.01 C 787.02 807.835 790.933 792.398 804.563 774.687 C 807.492 783.256 811.864 790.976 817.686 797.84 C 833.946 793.061 849.616 786.184 864.704 777.202 C 894.165 769.94 918.254 769.104 936.979 774.687 L 935.109 782.921 C 906.772 786.134 905.998 835.469 927.759 822.481 L 926.245 844.101 L 860.691 835.794 L 817.151 839.037 L 797.132 832.751 L 792.789 836.133 L 788.432 829.18 L 793.505 825.01 Z " fill="rgb(185,185,185)"/><path d=" M 936.979 773.603 C 938.873 764.904 940.985 756.22 943.308 747.55 L 923.864 724.541 C 897.328 725.355 873.226 728.68 851.566 734.508 L 846.089 745.188 L 851.566 746.284 L 856.495 737.247 C 878.957 732.442 900.954 729.968 922.495 729.817 L 938.823 748.809 C 937.033 755.156 935.155 763.125 933.186 772.788 L 936.979 773.603 L 936.979 773.603 Z " fill="rgb(0,0,0)"/><path d=" M 962.016 856.452 C 962.054 854.866 915.165 852.461 857.373 851.086 C 799.581 849.711 752.631 849.882 752.593 851.468 C 752.556 853.054 799.445 855.459 857.236 856.834 C 915.028 858.209 961.979 858.038 962.016 856.452 Z " fill="rgb(0,0,0)"/><path d=" M 860.624 835.73 C 859.446 840.212 857.183 844.328 853.849 848.066 L 855.801 847.009 C 858.192 843.944 860.29 840.323 862.106 836.133 L 860.624 835.73 Z " fill="rgb(185,185,185)"/><path d=" M 859.182 835.521 C 846.895 818.313 847.873 799.371 862.106 778.699 L 862.106 778.699 L 866.169 777.817 C 850.897 798.905 850.461 817.953 864.85 834.966 L 864.457 835.73 L 859.182 835.521 L 859.182 835.521 Z " fill="rgb(0,0,0)"/><path d=" M 862.106 778.699 C 865.798 773.339 871.188 767.615 876.662 762.022 L 876.505 748.217 L 877.215 747.162 L 877.421 762.269 C 872.043 767.57 867.521 772.753 863.863 777.817 L 862.106 778.699 L 862.106 778.699 Z " fill="rgb(185,185,185)"/><path d=" M 921.924 731.199 L 912.702 750.186 L 911.888 749.792 L 920.656 731.616 L 921.924 731.199 Z " fill="rgb(185,185,185)"/><path d=" M 911.998 736.342 C 911.912 734.548 908.619 733.246 904.649 733.436 C 900.68 733.627 897.527 735.238 897.613 737.032 C 897.699 738.827 900.992 740.128 904.962 739.938 C 908.931 739.747 912.084 738.136 911.998 736.342 L 911.998 736.342 Z  M 913.977 736.998 C 913.86 734.568 909.906 732.781 905.153 733.009 C 900.399 733.238 896.634 735.395 896.751 737.825 C 896.867 740.254 900.822 742.041 905.575 741.813 C 910.329 741.585 914.094 739.427 913.977 736.998 L 913.977 736.998 Z  M 892.375 738.53 L 893.138 736.968 L 893.138 736.968 C 887.278 737.401 881.713 737.954 876.432 738.638 L 877.521 739.89 C 881.953 739.439 888.85 738.783 892.375 738.53 L 892.375 738.53 Z  M 891.581 740.158 L 890.73 741.9 L 879.958 742.69 L 878.657 741.196 C 880.206 741.036 881.808 740.878 883.465 740.73 C 886.033 740.502 888.734 740.3 891.581 740.158 L 891.581 740.158 Z  M 893.716 735.784 L 894.555 734.064 C 887.374 734.658 880.738 735.488 874.632 736.57 L 875.55 737.624 C 881.465 736.79 887.524 736.173 893.716 735.784 L 893.716 735.784 L 893.716 735.784 Z " fill-rule="evenodd" fill="rgb(185,185,185)"/><path d=" M 910.747 808.898 C 905.761 814.525 901.816 833.207 914.134 837.429 C 917.198 838.479 922.198 839.122 924.617 831.432 L 925.239 823.89 C 915.443 827.918 912.666 823.25 910.747 808.898 Z " fill="rgb(116,116,116)"/><path d=" M 798.664 781.622 Q 798.476 786.209 801.011 789.284 C 803.546 792.358 805.532 791.635 807.126 793.588 C 808.65 795.456 808.327 798.616 807.315 800.753 C 806.037 803.45 805.031 810.39 807.126 809.908 C 809.012 809.475 805.171 796.489 811.888 799.737 Q 814.153 800.832 817.151 797.84 L 804.59 777.202 L 798.664 781.622 Z " fill="rgb(116,116,116)"/><path d=" M 926.245 773.999 C 923.381 774.859 923.094 776.385 920.062 777.202 C 917.166 777.982 916.646 776.132 913.487 776.636 C 910.327 777.139 907.339 779.104 905.513 779.307 C 901.3 779.775 897.591 773.195 892.655 774.057 C 898.844 771.058 916.334 771.565 926.245 773.999 Z " fill="rgb(116,116,116)"/><path d=" M 935.51 775.863 L 938.823 772.463 L 935.907 784.106 C 907.043 783.681 909.726 837.124 929.14 819.417 L 930.634 821.643 L 929.951 824.158 L 930.627 826.087 L 929.426 827.272 L 930.44 847.007 L 924.954 847.151 L 924.438 824.923 C 905.74 834.916 902.291 792.481 933.434 781.525 L 935.51 775.863 Z " fill="rgb(0,0,0)"/><path d=" M 903.065 822.481 L 903.636 820.188 C 906.512 833.232 917.15 839.335 924.617 827.357 L 925.593 828.952 C 913.461 841.713 907.231 835.094 903.065 822.481 Z " fill="rgb(0,0,0)"/><path d=" M 869.953 818.166 L 869.55 819.766 L 875.689 821.017 L 874.024 821.748 L 869.327 820.655 L 868.184 825.2 L 868.088 822.757 L 868.449 820.45 L 866.707 820.045 L 866.203 823.89 L 864.704 825.237 L 865.615 819.791 L 857.891 817.993 L 860.691 817.961 L 865.748 818.991 L 865.988 817.556 L 859.811 816.604 L 858.193 814.924 L 866.144 816.623 L 866.704 813.275 L 867.863 811.231 L 867.129 816.833 L 868.954 817.223 L 869.935 810.949 L 871.313 812.754 L 870.127 817.474 L 872.889 818.064 L 875.748 819.059 L 869.953 818.166 Z  M 868.833 817.994 L 868.587 819.57 L 866.817 819.209 L 867.013 817.714 L 868.833 817.994 Z " fill-rule="evenodd" fill="rgb(0,0,0)"/><path d=" M 831.171 752.049 L 830.657 758.215 L 829.627 758.057 L 830.078 751.891 L 831.171 752.049 L 831.171 752.049 L 831.171 752.049 L 831.171 752.049 Z  M 829.147 751.891 L 828.525 756.948 L 827.719 756.818 L 827.959 751.788 L 829.147 751.891 L 829.147 751.891 L 829.147 751.891 Z  M 830.334 759.697 L 830.405 759.034 L 825.716 758.215 L 825.978 760.489 L 830.334 759.697 L 830.334 759.697 Z  M 831.923 750.831 L 824.803 750.661 L 825.484 760.489 L 830.861 760.846 L 831.923 750.831 L 831.923 750.831 L 831.923 750.831 L 831.923 750.831 L 831.923 750.831 Z  M 832.844 749.795 L 823.594 749.795 L 824.803 761.384 L 831.923 761.748 L 832.844 749.795 L 832.844 749.795 L 832.844 749.795 L 832.844 749.795 L 832.844 749.795 Z  M 826.534 751.694 L 826.257 755.862 L 825.716 755.757 L 825.669 751.694 L 826.534 751.694 Z " fill-rule="evenodd" fill="rgb(232,232,232)"/><path d=" M 792.256 826.152 C 783.475 803.716 792.729 780.402 820.016 756.205 L 819.787 761.839 C 795.743 781.31 787.58 801.904 795.313 823.614 L 792.256 826.152 L 792.256 826.152 Z " fill="rgb(0,0,0)"/><path d=" M 799.134 833.096 L 782.734 844.91 L 790.643 850.676 L 784.364 850.676 L 778.704 844.101 L 795.494 832.106 L 799.134 833.096 Z " fill="rgb(0,0,0)"/><path d=" M 911.522 750.276 L 877.891 742.099 L 819.052 745.66 L 819.052 764.784 L 821.162 766.63 L 821.953 748.809 L 877.215 744.727 L 913.352 753.573 L 911.522 750.276 Z " fill="rgb(0,0,0)"/><g><path d=" M 917.793 750.146 L 910.065 747.54 C 908.272 747.587 907.566 748.491 907.959 750.24 L 914.895 754.628 C 913.739 752.33 914.61 750.11 917.793 750.146 Z " fill="rgb(223,178,110)"/><path d=" M 926.754 753.282 L 917.205 750.109 C 914.59 750.769 913.68 752.104 914.485 754.102 L 922.733 759.54 C 929.454 764.316 932.917 755.839 926.754 753.282 Z " fill="rgb(255,255,255)"/><path d=" M 930.285 760.982 C 931.586 759.106 931.318 756.218 929.026 754.628 C 926.734 753.038 923.282 753.344 921.98 755.22 C 920.679 757.096 921.482 759.91 923.774 761.5 C 926.066 763.09 928.983 762.858 930.285 760.982 Z " fill="rgb(93,93,93)"/><path d=" M 929.182 754.749 C 924.988 753.192 921.84 754.383 921.895 756.484 C 922.053 762.498 927.293 763.637 929.63 761.224 C 931.411 759.385 928.217 756.041 926.117 757.031 C 923.139 758.436 924.658 763.275 928.052 758.595 C 926.218 765.163 921.285 758.434 926.081 755.946 C 927.33 755.298 933.109 756.442 930.385 762.028 C 929.214 764.428 920.518 763.719 920.444 756.532 C 920.412 753.42 924.069 752.603 928.117 753.813 L 929.182 754.749 Z " fill="rgb(0,0,0)"/><path d=" M 929.775 755.329 C 926.679 754.138 924.59 754.548 923.511 756.559 C 925.561 754.841 927.76 754.687 930.109 756.096 L 929.775 755.329 Z " fill="rgb(0,0,0)"/><path d=" M 923.127 761.419 L 907.51 751.177 C 906.644 749.492 908.242 746.205 910.397 746.551 L 928.52 752.868 L 926.866 753.836 L 910.288 747.793 C 908.876 747.701 908.359 748.585 908.454 749.991 L 922.113 758.292 L 923.127 761.419 Z " fill="rgb(0,0,0)"/><path d=" M 917.793 750.146 C 914.543 749.782 913.06 752.451 914.895 754.628 L 915.867 755.215 C 913.588 752.576 914.741 750.014 918.515 750.384 L 917.793 750.146 Z " fill="rgb(0,0,0)"/></g><path d=" M 924.171 824.16 C 926.57 808.723 928.864 795.231 931.055 783.648 L 935.109 782.508 L 935.109 782.508 C 932.398 795.939 930.191 809.404 928.492 822.905 L 924.171 824.16 L 924.171 824.16 Z " fill="rgb(0,0,0)"/><path d=" M 926.226 844.101 C 925.846 848.509 925.516 852.921 925.239 857.337 L 787.131 850.676 L 782.734 844.91 L 815.516 848.065 L 854.469 849.414 L 919.964 852.384 C 920.408 849.281 920.849 846.238 921.283 843.306 L 926.226 844.101 L 926.226 844.101 Z " fill="rgb(0,0,0)"/><path d=" M 929.01 843.03 L 859.985 833.096 L 817.686 837.429 L 793.462 830.901 L 796.095 832.751 L 817.151 840.621 L 861.453 836.648 L 923.864 845.29 L 929.01 843.03 Z " fill="rgb(0,0,0)"/><path d=" M 797.932 821.181 L 786.62 828.576 L 792.789 837.429 L 794.784 834.966 L 790.645 830.255 L 797.132 822.258 L 797.932 821.181 Z " fill="rgb(0,0,0)"/><path d=" M 938.823 772.463 C 917.856 767.751 893.183 767.865 866.068 774.057 L 861.886 780.541 C 889.753 772.269 915.213 770.712 935.51 775.863 L 938.823 772.463 Z " fill="rgb(0,0,0)"/><path d=" M 866.141 774.057 C 846.689 785.463 830.688 792.667 818.148 795.663 C 813.038 790.219 808.785 782.489 805.396 772.463 L 807.026 770.433 L 804.563 769.68 L 802.031 774.057 C 805.789 784.194 810.826 792.852 817.151 800.022 C 831.72 796.061 846.812 789.57 862.433 780.541 L 866.141 774.057 Z " fill="rgb(0,0,0)"/></g></g></g><rect x="660.5" y="595.5" width="291" height="273" transform="matrix(1,0,0,1,0,0)" fill="transparent" vector-effect="non-scaling-stroke" stroke-width="3" stroke="rgb(0,0,0)" stroke-linejoin="miter" stroke-linecap="square" stroke-miterlimit="2"/><g><rect x="358.5" y="888.5" width="291" height="84.186" transform="matrix(1,0,0,1,0,0)" fill="transparent" vector-effect="non-scaling-stroke" stroke-width="3" stroke="rgb(0,0,0)" stroke-linejoin="miter" stroke-linecap="square" stroke-miterlimit="2"/><rect x="360" y="890" width="288" height="81.186" transform="matrix(1,0,0,1,0,0)" fill="none"/><clipPath id="_clipPath_SynM1x3VLmObu6XvTKEf3GOq3gPWV1M9"><rect x="358.5" y="888.5" width="291" height="84.186" transform="matrix(1,0,0,1,0,0)" fill="transparent" vector-effect="non-scaling-stroke" stroke-width="3" stroke="rgb(0,0,0)" stroke-linejoin="miter" stroke-linecap="square" stroke-miterlimit="2"/><rect x="360" y="890" width="288" height="81.186" transform="matrix(1,0,0,1,0,0)" fill="none"/></clipPath><g clip-path="url(#_clipPath_SynM1x3VLmObu6XvTKEf3GOq3gPWV1M9)"><g><g><path d=" M 418.294 1015.736 L 405.457 1015.736 L 404.178 989.34 L 418.704 995.588 C 418.917 1003.526 418.776 1010.246 418.294 1015.736 Z " fill="rgb(255,255,255)"/><path d=" M 433.199 962.389 L 443.182 980.217 L 441.065 1005.872 L 445.617 1008.34 C 443.334 1011.183 434.222 1013.652 418.294 1015.736 C 419.121 1008.623 419.254 1001.911 418.704 995.588 C 421.04 983.711 425.867 972.649 433.199 962.389 Z " fill="rgb(232,232,232)"/><path d=" M 390.345 906.658 L 429.327 910.273 L 441.428 947.543 L 444.574 947.301 L 442.638 981.424 L 432.957 962.063 C 424.975 974.67 420.05 985.968 418.195 995.945 L 402.948 988.442 C 400.952 970.611 393.203 949.076 379.715 923.826 L 390.345 906.658 Z " fill="rgb(118,0,0)"/><path d=" M 446.147 1008.015 L 460.909 1017.453 L 454.859 1021.084 L 417.348 1024.956 L 403.795 1024.23 L 404.763 1015.275 L 419.042 1015.517 C 432.122 1014.622 441.153 1012.125 446.147 1008.015 Z " fill="rgb(118,0,0)"/><path d=" M 402.52 1026.366 C 407.521 997.472 399.594 963.428 378.749 924.223 L 388.884 903.678 C 404.322 907.243 418.03 908.814 430.034 908.368 L 443.182 946.045 L 438.799 946.045 L 427.112 912.34 C 416.553 912.192 404.289 910.544 390.345 907.374 L 381.093 924.223 C 400.689 958.638 409.126 992.69 406.415 1026.366 L 402.52 1026.366 Z " fill="rgb(0,0,0)"/><path d=" M 407.12 949.816 L 405.441 949.072 C 405.309 952.995 405.487 956.366 405.988 959.173 L 407.554 959.954 C 406.888 956.664 406.739 953.288 407.12 949.816 Z " fill="rgb(0,0,0)"/><path d=" M 406.415 954.08 C 417.878 950.18 431.347 946.775 446.834 943.854 L 443.182 1004.859 L 463.878 1016.72 L 449.513 1026.366 L 445.617 1026.366 L 458.736 1017.388 L 438.799 1006.207 L 443.182 948.374 C 431.626 948.862 419.366 951.823 406.415 957.246 L 406.415 954.08 Z " fill="rgb(0,0,0)"/><path d=" M 453.728 1021.97 L 449.892 1026.366 L 402.52 1026.366 L 406.415 1021.97 C 427.604 1022.665 444.867 1021.142 458.217 1017.388 L 453.728 1021.97 Z " fill="rgb(0,0,0)"/><path d=" M 405.441 942.302 C 405.703 933.983 400.667 921.677 390.345 905.371 L 388.884 907.374 C 396.001 918.082 401.516 929.728 405.441 942.302 Z " fill="rgb(0,0,0)"/><path d=" M 416.642 971.277 C 420.066 989.13 420.255 1006.706 418.458 1023.992 L 415.901 1023.992 C 419.571 1008.123 419.171 990.555 416.642 971.277 Z " fill="rgb(0,0,0)"/><path d=" M 443.182 982.644 C 440.786 974.255 437.454 966.696 433.199 959.954 C 424.207 972.836 418.877 984.207 418.458 994.055 L 403.737 987.693 L 403.737 990.39 L 419.077 997.97 C 421.788 984.032 426.7 972.508 433.199 964.022 C 437.107 969.211 440.43 977.106 443.182 987.693 L 443.182 982.644 Z " fill="rgb(0,0,0)"/><path d=" M 446.284 1009.302 L 444.313 1007.44 C 439.006 1014.024 424.154 1015.72 405.441 1014.983 L 405.441 1016.309 C 421.611 1015.723 436.802 1015.909 446.284 1009.302 Z " fill="rgb(0,0,0)"/><path d=" M 435.977 975.795 C 436.091 973.739 435.313 972.022 434.239 971.962 C 433.166 971.903 432.202 973.523 432.087 975.578 C 431.973 977.633 432.751 979.35 433.825 979.41 C 434.898 979.47 435.862 977.85 435.977 975.795 Z " fill="rgb(0,0,0)"/></g><g><g><path d=" M 648.495 908.555 L 668.477 882.992 L 576.042 880.266 L 551.114 902.739 C 555.493 918.529 562.543 931.223 572.277 940.807 C 597.661 934.311 623.062 923.565 648.495 908.555 Z " fill="rgb(255,255,255)"/><path d=" M 571.413 1007.788 L 641.799 1003.241 L 628.763 1030.993 L 515.628 1022.823 C 525.042 1016.451 531.636 1007.578 535.425 996.192 L 571.413 1007.788 Z " fill="rgb(255,255,255)"/><path d=" M 551.069 904.49 C 555.804 918.338 562.869 930.815 572.277 941.906 C 598.553 934.184 623.876 923.071 648.259 908.555 Q 662.076 905.149 687.517 900.961 L 692.246 1009.637 L 641.774 1003.241 L 571.413 1008.482 L 529.425 994.29 C 518.034 960.985 529.245 931.056 551.069 904.49 Z " fill="rgb(185,185,185)"/><path d=" M 541.538 915.698 Q 541.233 923.111 545.33 928.08 C 549.427 933.048 552.636 931.879 555.211 935.035 C 557.675 938.055 557.153 943.161 555.517 946.614 C 553.452 950.973 551.825 962.187 555.211 961.409 C 558.259 960.709 552.053 939.723 562.908 944.972 Q 566.567 946.742 571.413 941.906 L 551.114 908.555 L 541.538 915.698 Z " fill="rgb(116,116,116)"/><path d=" M 528.591 977.926 C 520.509 944.907 538.902 913.506 575.673 883.728 L 576.042 874.623 C 536.122 910.023 515.54 944.253 522.214 977.321 L 528.591 977.926 L 528.591 977.926 Z " fill="rgb(0,0,0)"/><path d=" M 671.155 907.632 C 660.25 909.737 649.212 912.449 638.265 915.698 Q 644.342 901.751 660.352 878.859 L 668.93 882.992 Q 665.47 892.748 660.352 902.82 C 663.443 902.248 666.537 901.713 669.628 901.226 L 671.155 907.632 L 671.155 907.632 Z " fill="rgb(0,0,0)"/><path d=" M 650.582 903.472 C 619.146 921.904 593.289 933.547 573.023 938.388 C 564.766 929.591 557.893 917.098 552.417 900.896 L 555.05 897.616 L 551.069 896.4 L 546.979 903.472 C 553.051 919.854 561.192 933.846 571.413 945.433 C 594.957 939.032 619.345 928.542 644.59 913.951 L 650.582 903.472 Z " fill="rgb(0,0,0)"/></g></g></g></g><rect x="358.5" y="888.5" width="291" height="84.186" transform="matrix(1,0,0,1,0,0)" fill="transparent" vector-effect="non-scaling-stroke" stroke-width="3" stroke="rgb(0,0,0)" stroke-linejoin="miter" stroke-linecap="square" stroke-miterlimit="2"/><rect x="358.5" y="1077.314" width="291" height="84.186" transform="matrix(1,0,0,1,0,0)" fill="transparent" vector-effect="non-scaling-stroke" stroke-width="3" stroke="rgb(0,0,0)" stroke-linejoin="miter" stroke-linecap="square" stroke-miterlimit="2"/><rect x="360" y="1078.814" width="288" height="81.186" transform="matrix(1,0,0,1,0,0)" fill="none"/><clipPath id="_clipPath_dV2MOZASCmv1GEmyIJ0UhK0ZC3Fdn1ei"><rect x="358.5" y="1077.314" width="291" height="84.186" transform="matrix(1,0,0,1,0,0)" fill="transparent" vector-effect="non-scaling-stroke" stroke-width="3" stroke="rgb(0,0,0)" stroke-linejoin="miter" stroke-linecap="square" stroke-miterlimit="2"/><rect x="360" y="1078.814" width="288" height="81.186" transform="matrix(1,0,0,1,0,0)" fill="none"/></clipPath><g clip-path="url(#_clipPath_dV2MOZASCmv1GEmyIJ0UhK0ZC3Fdn1ei)"><g><g><path d=" M 518.289 1062.25 L 663.172 1072.25 L 659.172 1183.25 L 431.172 1184.25 L 518.289 1062.25 Z " fill="rgb(185,185,185)"/><path d=" M 546.338 986.754 Q 545.186 1014.762 560.666 1033.535 C 576.147 1052.308 588.271 1047.891 598.002 1059.817 C 607.31 1071.225 605.337 1090.518 599.157 1103.564 C 591.354 1120.035 586.929 1158.364 599.722 1155.425 C 611.239 1152.779 586.07 1077.528 627.082 1097.362 Q 640.909 1104.049 659.217 1085.777 L 582.521 959.765 L 546.338 986.754 Z " fill="rgb(116,116,116)"/><path d=" M 518.289 1077.899 L 444.443 1194.969 L 419.546 1194.969 L 489.362 1077.344 L 518.289 1077.899 L 518.289 1077.899 Z " fill="rgb(0,0,0)"/></g><g><path d=" M 442.381 1330.73 L 404.817 1330.73 L 401.075 1253.49 L 443.581 1271.771 C 444.206 1295 443.794 1314.665 442.381 1330.73 Z " fill="rgb(255,255,255)"/><path d=" M 485.997 1174.627 L 515.209 1226.794 L 509.014 1301.864 L 522.334 1309.087 C 515.653 1317.406 488.99 1324.633 442.381 1330.731 C 444.802 1309.916 445.19 1290.275 443.581 1271.772 C 450.417 1237.018 464.544 1204.649 485.997 1174.627 Z " fill="rgb(232,232,232)"/><path d=" M 360.599 1011.546 L 474.667 1022.126 L 510.075 1131.184 L 519.281 1130.475 L 513.616 1230.327 L 485.289 1173.674 C 461.932 1210.563 447.52 1243.623 442.091 1272.817 L 397.477 1250.864 C 391.635 1198.686 368.962 1135.672 329.493 1061.783 L 360.599 1011.546 Z " fill="rgb(118,0,0)"/><path d=" M 523.884 1308.137 L 567.082 1335.755 L 549.378 1346.377 L 439.613 1357.708 L 399.955 1355.584 L 402.788 1329.382 L 444.57 1330.09 C 482.845 1327.468 509.271 1320.163 523.884 1308.137 Z " fill="rgb(118,0,0)"/><path d=" M 396.223 1361.834 Q 406.498 1302.478 371.122 1161.476 L 358.528 1161.021 L 358.469 1129.354 Q 338.751 1085.674 326.667 1062.945 L 356.324 1002.828 C 401.498 1013.258 441.611 1017.857 476.735 1016.552 L 515.209 1126.801 L 502.384 1126.801 L 468.185 1028.175 C 437.288 1027.74 401.402 1022.92 360.599 1013.642 L 333.524 1062.945 C 390.867 1163.651 415.554 1263.293 407.623 1361.834 L 396.223 1361.834 Z " fill="rgb(0,0,0)"/><path d=" M 409.686 1137.835 L 404.773 1135.659 C 404.386 1147.138 404.907 1157.002 406.372 1165.215 L 410.956 1167.502 C 409.006 1157.873 408.571 1147.996 409.686 1137.835 Z " fill="rgb(0,0,0)"/><path d=" M 407.623 1150.314 C 441.165 1138.901 480.577 1128.938 525.896 1120.389 L 515.209 1298.9 L 575.77 1333.609 L 533.734 1361.834 L 522.334 1361.834 L 560.723 1335.564 L 502.384 1302.846 L 515.209 1133.616 C 481.393 1135.044 445.519 1143.71 407.623 1159.576 L 407.623 1150.314 Z " fill="rgb(0,0,0)"/><path d=" M 546.068 1348.971 L 534.844 1361.834 L 396.223 1361.834 L 407.623 1348.971 C 469.625 1351.006 520.139 1346.549 559.203 1335.564 L 546.068 1348.971 Z " fill="rgb(0,0,0)"/><path d=" M 404.773 1115.847 C 405.54 1091.505 390.803 1055.496 360.599 1007.782 L 356.324 1013.642 C 377.148 1044.975 393.286 1079.055 404.773 1115.847 Z " fill="rgb(0,0,0)"/><path d=" M 437.548 1200.633 C 447.566 1252.876 448.119 1304.306 442.863 1354.887 L 435.38 1354.887 C 446.119 1308.452 444.95 1257.046 437.548 1200.633 Z " fill="rgb(0,0,0)"/><path d=" M 515.209 1233.897 C 508.196 1209.349 498.447 1187.23 485.997 1167.502 C 459.686 1205.196 444.089 1238.47 442.863 1267.287 L 399.786 1248.671 L 399.786 1256.563 L 444.673 1278.744 C 452.607 1237.957 466.98 1204.236 485.997 1179.405 C 497.431 1194.59 507.156 1217.691 515.209 1248.671 L 515.209 1233.897 Z " fill="rgb(0,0,0)"/><path d=" M 524.286 1311.901 L 518.52 1306.454 C 502.988 1325.72 459.528 1330.684 404.773 1328.525 L 404.773 1332.408 C 452.088 1330.693 496.539 1331.237 524.286 1311.901 Z " fill="rgb(0,0,0)"/><path d=" M 494.126 1213.853 C 494.461 1207.839 492.182 1202.815 489.041 1202.64 C 485.9 1202.465 483.078 1207.205 482.743 1213.219 C 482.408 1219.234 484.687 1224.258 487.828 1224.433 C 490.969 1224.608 493.791 1219.868 494.126 1213.853 Z " fill="rgb(0,0,0)"/></g></g></g><rect x="358.5" y="1077.314" width="291" height="84.186" transform="matrix(1,0,0,1,0,0)" fill="transparent" vector-effect="non-scaling-stroke" stroke-width="3" stroke="rgb(0,0,0)" stroke-linejoin="miter" stroke-linecap="square" stroke-miterlimit="2"/><rect x="358.5" y="982.907" width="291" height="84.186" transform="matrix(1,0,0,1,0,0)" fill="transparent" vector-effect="non-scaling-stroke" stroke-width="3" stroke="rgb(0,0,0)" stroke-linejoin="miter" stroke-linecap="square" stroke-miterlimit="2"/><rect x="360" y="984.407" width="288" height="81.186" transform="matrix(1,0,0,1,0,0)" fill="none"/><clipPath id="_clipPath_dKkWtIi1BExg0t71olEd0r89ZM4xYphS"><rect x="358.5" y="982.907" width="291" height="84.186" transform="matrix(1,0,0,1,0,0)" fill="transparent" vector-effect="non-scaling-stroke" stroke-width="3" stroke="rgb(0,0,0)" stroke-linejoin="miter" stroke-linecap="square" stroke-miterlimit="2"/><rect x="360" y="984.407" width="288" height="81.186" transform="matrix(1,0,0,1,0,0)" fill="none"/></clipPath><g clip-path="url(#_clipPath_dKkWtIi1BExg0t71olEd0r89ZM4xYphS)"><g><g><path d=" M 438.523 1164.933 L 414.688 1164.933 L 412.313 1115.921 L 439.285 1127.521 C 439.681 1142.261 439.42 1154.739 438.523 1164.933 Z " fill="rgb(255,255,255)"/><path d=" M 466.199 1065.88 L 484.735 1098.981 L 480.804 1146.616 L 489.256 1151.2 C 485.017 1156.478 468.098 1161.063 438.523 1164.933 C 440.06 1151.725 440.306 1139.263 439.285 1127.521 C 443.622 1105.469 452.586 1084.93 466.199 1065.88 Z " fill="rgb(232,232,232)"/><path d=" M 386.63 962.4 L 459.01 969.113 L 481.477 1038.314 L 487.319 1037.864 L 483.724 1101.223 L 465.75 1070.942 C 450.929 1094.349 441.784 1109.66 438.339 1128.185 L 410.03 1114.255 C 406.323 1081.146 391.936 1041.161 366.892 994.277 L 386.63 962.4 Z " fill="rgb(118,0,0)"/><path d=" M 490.24 1150.596 L 517.65 1168.121 L 506.417 1174.861 L 436.767 1182.051 L 411.603 1180.703 L 413.4 1164.077 L 439.912 1164.526 C 464.199 1162.863 480.967 1158.227 490.24 1150.596 Z " fill="rgb(118,0,0)"/><path d=" M 409.235 1184.669 C 418.522 1131.02 403.802 1067.809 365.099 995.014 L 383.917 956.868 C 412.582 963.486 438.035 966.404 460.322 965.576 L 484.735 1035.533 L 476.597 1035.533 L 454.897 972.951 C 435.292 972.675 412.521 969.617 386.63 963.729 L 369.45 995.014 C 405.836 1058.915 421.501 1122.141 416.468 1184.669 L 409.235 1184.669 Z " fill="rgb(0,0,0)"/><path d=" M 417.777 1042.534 L 414.66 1041.153 C 414.415 1048.437 414.745 1054.696 415.674 1059.907 L 418.583 1061.359 C 417.346 1055.249 417.07 1048.982 417.777 1042.534 Z " fill="rgb(0,0,0)"/><path d=" M 416.468 1050.452 C 437.752 1043.21 462.76 1036.889 491.517 1031.464 L 484.735 1144.735 L 523.163 1166.76 L 496.49 1184.669 L 489.256 1184.669 L 513.615 1168 L 476.597 1147.239 L 484.735 1039.857 C 463.278 1040.763 440.514 1046.262 416.468 1056.329 L 416.468 1050.452 Z " fill="rgb(0,0,0)"/><path d=" M 504.316 1176.507 L 497.194 1184.669 L 409.235 1184.669 L 416.468 1176.507 C 455.81 1177.799 487.864 1174.97 512.651 1168 L 504.316 1176.507 Z " fill="rgb(0,0,0)"/><path d=" M 414.66 1028.582 C 415.146 1013.136 405.795 990.287 386.63 960.011 L 383.917 963.729 C 397.131 983.611 407.371 1005.237 414.66 1028.582 Z " fill="rgb(0,0,0)"/><path d=" M 435.456 1082.382 C 441.814 1115.531 442.164 1148.165 438.829 1180.261 L 434.081 1180.261 C 440.895 1150.796 440.153 1118.177 435.456 1082.382 Z " fill="rgb(0,0,0)"/><path d=" M 484.735 1103.489 C 480.285 1087.912 473.65 1081.059 465.75 1068.541 C 449.055 1092.459 439.607 1106.39 438.829 1124.676 L 411.495 1112.863 L 411.495 1117.871 L 439.977 1131.946 C 445.012 1106.065 453.683 1091.85 465.75 1076.094 C 473.006 1085.729 479.625 1093.205 484.735 1112.863 L 484.735 1103.489 Z " fill="rgb(0,0,0)"/><path d=" M 490.494 1152.985 L 486.836 1149.528 C 476.981 1161.754 449.404 1164.903 414.66 1163.533 L 414.66 1165.997 C 444.683 1164.909 472.888 1165.254 490.494 1152.985 Z " fill="rgb(0,0,0)"/><path d=" M 471.357 1090.77 C 471.57 1086.954 470.124 1083.766 468.131 1083.655 C 466.138 1083.544 464.347 1086.552 464.135 1090.368 C 463.922 1094.184 465.368 1097.373 467.361 1097.484 C 469.354 1097.595 471.144 1094.587 471.357 1090.77 Z " fill="rgb(0,0,0)"/></g><g><path d=" M 930.761 1096.934 C 916.686 1112.755 904.511 1116.968 894.281 1109.558 C 903.536 1119.861 916.214 1117.747 932.359 1103.204 L 930.761 1096.934 Z " fill="rgb(0,0,0)"/><path d=" M 953.187 973.5 L 935.159 1092.201 L 909.583 1099.529 L 888.183 1068.333 C 888.899 1019.38 910.559 987.777 953.187 973.5 Z " fill="rgb(232,232,232)"/><path d=" M 748.137 956.339 L 785.24 908.875 L 785.24 858.043 L 890.185 880.865 L 921.106 807.704 L 716.991 832.246 L 702.199 860.279 L 615.517 867.366 L 613.61 903.813 L 567.325 945.54 C 575.455 974.858 588.546 998.427 606.62 1016.223 C 653.751 1004.162 700.915 984.208 748.137 956.339 Z " fill="rgb(255,255,255)"/><path d=" M 605.014 1140.591 L 735.706 1132.148 L 711.5 1183.677 L 501.437 1168.506 C 518.915 1156.675 531.16 1140.2 538.194 1119.059 L 605.014 1140.591 Z " fill="rgb(255,255,255)"/><path d=" M 923.836 807.704 L 976.028 871.143 L 957.748 945.54 C 899.328 936.022 830.669 938.29 751.793 952.32 L 787.268 908.875 L 787.268 855.409 L 889.279 880.391 L 923.836 807.704 Z " fill="rgb(232,232,232)"/><path d=" M 926.937 1157.074 L 920.596 1190.266 L 711.15 1180.049 L 739.246 1134.073 L 926.937 1157.074 Z " fill="rgb(232,232,232)"/><path d=" M 567.242 948.791 C 576.033 974.504 589.151 997.669 606.62 1018.264 C 655.408 1003.925 702.427 983.291 747.699 956.339 C 836.1 934.547 908.382 932.039 964.568 948.791 L 958.957 973.5 C 873.931 983.14 871.605 1131.173 936.903 1092.201 L 932.359 1157.074 L 735.658 1132.148 L 605.014 1141.879 L 514.818 1117.415 C 493.669 1055.577 516.172 987.911 567.242 948.791 Z " fill="rgb(185,185,185)"/><path d=" M 964.568 945.54 C 970.251 919.439 976.587 893.381 983.557 867.366 L 925.215 798.326 C 845.592 800.767 773.272 810.744 708.279 828.232 L 691.845 860.279 L 708.279 863.566 L 723.07 836.449 C 790.469 822.033 856.473 814.61 921.106 814.156 L 970.102 871.143 C 964.73 890.189 959.096 914.099 953.187 943.095 L 964.568 945.54 L 964.568 945.54 Z " fill="rgb(0,0,0)"/><path d=" M 932.303 1157.074 C 931.161 1170.302 930.171 1183.541 929.34 1196.79 L 475.813 1175.217 L 508.245 1165.785 L 716.991 1173.018 L 913.513 1181.929 C 914.845 1172.617 916.167 1163.488 917.471 1154.689 L 932.303 1157.074 L 932.303 1157.074 Z " fill="rgb(0,0,0)"/><path d=" M 940.656 1153.861 L 733.542 1124.053 L 606.62 1137.054 L 545.955 1111.323 L 532.851 1106.832 L 524.807 1125.168 L 533.72 1130.848 L 534.996 1123.073 L 605.014 1146.632 L 737.946 1134.711 L 925.215 1160.643 L 940.656 1153.861 Z " fill="rgb(0,0,0)"/><path d=" M 782.001 855.231 L 781.157 911.532 C 701.059 993.377 684.569 1066.924 731.709 1132.148 L 698.846 1181.479 L 721.537 1181.479 L 748.137 1129.665 C 694.593 1066.354 709.465 993.651 792.777 911.532 L 792.777 858.043 L 782.001 855.231 Z " fill="rgb(0,0,0)"/><path d=" M 889.61 833.734 C 889.351 828.35 879.471 824.444 867.56 825.016 C 855.649 825.588 846.189 830.423 846.447 835.806 C 846.706 841.19 856.586 845.096 868.497 844.524 C 880.408 843.953 889.868 839.118 889.61 833.734 L 889.61 833.734 Z  M 895.549 835.702 C 895.199 828.413 883.334 823.051 869.07 823.735 C 854.806 824.42 843.51 830.894 843.86 838.184 C 844.21 845.473 856.074 850.835 870.338 850.15 C 884.602 849.465 895.899 842.991 895.549 835.702 L 895.549 835.702 Z  M 829.347 843.067 L 831.635 838.38 L 831.635 838.38 C 814.052 839.68 797.355 841.338 781.507 843.392 L 784.777 847.149 C 798.075 845.796 818.77 843.825 829.347 843.067 L 829.347 843.067 Z  M 826.962 847.951 L 824.411 853.179 L 792.087 855.55 L 788.185 851.065 C 792.834 850.586 797.639 850.112 802.61 849.67 C 810.316 848.985 818.421 848.378 826.962 847.951 L 826.962 847.951 Z  M 833.369 834.827 L 835.887 829.668 C 814.34 831.448 794.427 833.939 776.106 837.185 L 778.861 840.35 C 796.609 837.848 814.789 835.995 833.369 834.827 L 833.369 834.827 L 833.369 834.827 Z " fill-rule="evenodd" fill="rgb(232,232,232)"/><path d=" M 885.856 1051.445 C 870.894 1068.331 859.059 1124.387 896.019 1137.054 C 905.213 1140.205 920.217 1142.134 927.475 1119.059 L 929.34 1096.429 C 899.947 1108.517 891.613 1094.51 885.856 1051.445 Z " fill="rgb(116,116,116)"/><path d=" M 549.544 969.602 Q 548.977 983.366 556.585 992.591 C 564.192 1001.816 570.15 999.646 574.932 1005.506 C 579.506 1011.112 578.537 1020.594 575.5 1027.004 C 571.665 1035.099 568.646 1055.921 574.932 1054.477 C 580.592 1053.176 569.069 1014.21 589.223 1023.957 Q 596.018 1027.243 605.014 1018.264 L 567.325 956.339 L 549.544 969.602 Z " fill="rgb(116,116,116)"/><path d=" M 932.359 946.729 C 923.765 949.308 922.905 953.888 913.806 956.339 C 905.118 958.68 903.558 953.127 894.077 954.639 C 884.595 956.151 875.63 962.046 870.15 962.655 C 857.51 964.058 846.381 944.314 831.571 946.901 C 850.139 937.903 902.622 939.423 932.359 946.729 Z " fill="rgb(116,116,116)"/><path d=" M 960.159 952.32 L 970.102 942.118 L 961.351 977.054 C 874.742 975.779 882.792 1136.141 941.045 1083.009 L 945.53 1089.688 L 943.479 1097.233 L 945.507 1103.021 L 941.903 1106.579 L 943.479 1165.785 L 920.906 1166.978 L 926.937 1099.529 C 870.834 1129.515 860.483 1002.185 953.931 969.312 L 960.159 952.32 Z " fill="rgb(0,0,0)"/><path d=" M 862.806 1092.201 L 864.521 1085.322 C 873.15 1124.462 905.07 1142.775 927.475 1106.832 L 930.403 1111.619 C 894.001 1149.908 875.307 1130.047 862.806 1092.201 Z " fill="rgb(0,0,0)"/><path d=" M 763.45 1079.256 L 762.243 1084.055 L 780.663 1087.808 L 775.668 1090.004 L 761.572 1086.722 L 758.144 1100.36 L 757.855 1093.031 L 758.938 1086.109 L 753.712 1084.893 L 752.199 1096.429 L 747.699 1100.471 L 750.433 1084.129 L 727.257 1078.734 L 735.658 1078.639 L 750.834 1081.731 L 751.555 1077.424 L 733.018 1074.568 L 728.165 1069.528 L 752.023 1074.625 L 753.703 1064.58 L 757.181 1058.444 L 754.976 1075.256 L 760.453 1076.426 L 763.398 1057.599 L 767.533 1063.015 L 763.972 1077.178 L 772.261 1078.949 L 780.839 1081.934 L 763.45 1079.256 Z  M 760.091 1078.738 L 759.352 1083.466 L 754.041 1082.384 L 754.629 1077.897 L 760.091 1078.738 Z " fill-rule="evenodd" fill="rgb(0,0,0)"/><path d=" M 647.081 880.865 L 645.539 899.367 L 642.451 898.893 L 643.803 880.391 L 647.081 880.865 L 647.081 880.865 L 647.081 880.865 L 647.081 880.865 Z  M 641.009 880.391 L 639.144 895.564 L 636.724 895.173 L 637.445 880.082 L 641.009 880.391 L 641.009 880.391 L 641.009 880.391 Z  M 644.572 903.813 L 644.783 901.825 L 630.715 899.367 L 631.502 906.188 L 644.572 903.813 L 644.572 903.813 Z  M 649.338 877.209 L 627.973 876.699 L 630.019 906.188 L 646.151 907.262 L 649.338 877.209 L 649.338 877.209 L 649.338 877.209 L 649.338 877.209 L 649.338 877.209 Z  M 652.102 874.101 L 624.346 874.101 L 627.973 908.875 L 649.338 909.969 L 652.102 874.101 L 652.102 874.101 L 652.102 874.101 L 652.102 874.101 L 652.102 874.101 Z  M 633.168 879.799 L 632.337 892.306 L 630.715 891.992 L 630.574 879.799 L 633.168 879.799 Z " fill-rule="evenodd" fill="rgb(232,232,232)"/><path d=" M 613.61 893.336 L 612.925 910.242 C 526.662 968.096 489.29 1042.27 522.579 1113.21 C 518.022 1146.25 525.68 1165.668 498.827 1175.217 L 468.919 1175.217 C 503.69 1163.545 508.251 1144.143 510.344 1113.21 C 478.446 1043.4 528.444 968.858 613.61 893.336 Z " fill="rgb(0,0,0)"/><path d=" M 918.259 804.312 L 888.183 875.545 L 787.268 851.009 L 610.718 861.694 L 610.718 919.077 L 617.049 924.618 L 619.424 871.143 L 785.24 860.279 L 893.674 885.439 L 925.215 811.039 L 918.259 804.312 Z " fill="rgb(0,0,0)"/><g><path d=" M 906.999 875.156 L 883.811 867.336 C 878.43 867.477 876.311 870.19 877.49 875.438 L 898.302 888.604 C 894.834 881.709 897.449 875.047 906.999 875.156 Z " fill="rgb(223,178,110)"/><path d=" M 933.886 884.563 L 905.233 875.045 C 897.387 877.025 894.656 881.031 897.074 887.025 L 921.821 903.342 C 941.989 917.673 952.38 892.238 933.886 884.563 Z " fill="rgb(255,255,255)"/><path d=" M 943.531 906.21 C 947.19 900.936 944.931 893.026 938.489 888.556 C 932.047 884.086 923.846 884.738 920.187 890.011 C 916.527 895.285 918.787 903.195 925.229 907.665 C 931.671 912.135 939.872 911.483 943.531 906.21 Z " fill="rgb(93,93,93)"/><path d=" M 905.139 875.865 L 930.109 884.64 C 921.998 883.996 915.798 886.897 915.868 893.701 C 915.881 894.973 915.99 896.173 916.184 897.303 L 916.184 897.303 L 898.766 886.717 C 896.13 881.264 898.549 876.607 905.139 875.865 Z  M 903.248 875.2 L 884.922 868.759 C 880.685 868.482 878.691 870.471 878.975 874.689 L 896.353 885.251 C 894.755 880.583 897.57 876.057 903.248 875.2 Z  M 942.779 889.928 C 933.488 886.354 927.222 887.586 923.983 893.62 C 930.134 888.463 936.732 888.001 943.78 892.229 L 942.779 889.928 L 942.779 889.928 L 942.779 889.928 Z  M 918.141 903.024 C 924.319 914.34 941.124 914.66 943.812 909.149 C 951.471 893.446 935.224 890.23 931.713 892.052 C 918.233 899.046 932.099 917.961 937.255 899.5 C 927.715 912.655 923.444 899.052 931.815 895.104 C 937.719 892.319 946.697 901.72 941.691 906.889 C 935.122 913.672 920.392 910.472 919.947 893.565 C 919.791 887.659 928.641 884.311 940.431 888.689 L 940.431 888.689 L 937.438 886.055 C 936.599 885.805 935.766 885.585 934.943 885.397 L 938.648 885.273 L 884.269 866.32 C 877.804 865.281 873.545 870.425 876.144 875.483 L 918.141 903.024 L 918.141 903.024 Z " fill-rule="evenodd" fill="rgb(0,0,0)"/></g><path d=" M 970.102 942.118 C 907.188 927.981 835.04 930.213 753.68 948.791 L 743.39 966.358 C 827.008 941.537 899.256 936.866 960.159 952.32 L 970.102 942.118 Z " fill="rgb(0,0,0)"/><path d=" M 752.013 946.901 C 693.645 981.125 645.634 1002.743 608.004 1011.731 C 592.674 995.398 579.912 972.202 569.744 942.118 L 574.632 936.027 L 567.242 933.769 L 559.646 946.901 C 570.922 977.319 586.037 1003.298 605.014 1024.813 C 648.731 1012.927 694.014 993.45 740.887 966.358 L 752.013 946.901 Z " fill="rgb(0,0,0)"/><path d=" M 926.137 1097.24 C 933.335 1050.919 940.218 1010.437 946.792 975.679 L 958.957 972.259 L 958.957 972.259 C 950.821 1012.561 944.2 1052.965 939.103 1093.473 L 926.137 1097.24 L 926.137 1097.24 Z " fill="rgb(0,0,0)"/></g></g></g><rect x="358.5" y="982.907" width="291" height="84.186" transform="matrix(1,0,0,1,0,0)" fill="transparent" vector-effect="non-scaling-stroke" stroke-width="3" stroke="rgb(0,0,0)" stroke-linejoin="miter" stroke-linecap="square" stroke-miterlimit="2"/></g><g><g><g><ellipse vector-effect="non-scaling-stroke" cx="690.2782158477967" cy="1149.6721796928036" rx="27.034391962408563" ry="1.0797969085751902" fill="rgb(0,0,0)"/><path d=" M 682.778 1069.574 L 672.314 1078.428 L 676.686 1095.516 L 677.897 1105.935 L 679.169 1132.11 Q 676.395 1149.244 675.936 1150.752 L 706.488 1149.231 C 707.174 1147.662 710.195 1144.113 715.536 1138.601 C 711.506 1138.737 708.118 1138.2 705.708 1137.147 L 705.491 1135.81 L 704.1 1135.199 L 706.42 1114.653 L 707.25 1108.663 L 703.719 1107.983 L 702.472 1103.402 L 707.834 1100.341 L 707.456 1075.176 L 682.778 1069.574 Z " fill="rgb(0,0,0)"/><path d=" M 687.211 1141.834 L 679.523 1143.388 C 680.241 1140.229 680.734 1136.794 681.018 1133.066 L 686.817 1131.309 L 687.211 1141.834 Z " fill="rgb(255,255,255)"/><path d=" M 689.212 1141.834 L 688.926 1130.236 C 692.398 1122.957 696.796 1118.555 698.316 1117.231 Q 701.598 1121.068 703.511 1128.547 L 702.903 1135.439 L 691.494 1136.486 L 702.472 1136.507 L 695.179 1137.352 L 703.719 1137.569 L 706.42 1139.031 C 701.215 1140.91 695.474 1141.851 689.212 1141.834 Z " fill="rgb(255,255,255)"/><path d=" M 712.691 1139.947 L 708.021 1139.677 C 702.705 1141.781 696.261 1143.079 688.705 1143.554 L 688.85 1148.578 C 698.405 1146.275 706.347 1143.404 712.691 1139.947 Z " fill="rgb(118,0,0)"/><path d=" M 687.259 1143.733 L 679.036 1145.364 L 678.427 1149.029 L 687.259 1148.578 L 687.259 1143.733 Z " fill="rgb(118,0,0)"/><path d=" M 699.314 1123.251 C 699.201 1121.847 698.754 1120.736 698.315 1120.771 C 697.876 1120.807 697.612 1121.975 697.725 1123.378 C 697.837 1124.782 698.285 1125.893 698.724 1125.858 C 699.162 1125.822 699.427 1124.654 699.314 1123.251 Z " fill="rgb(0,0,0)"/><path d=" M 675.09 1096.93 L 679.567 1107.736 L 680.792 1130.355 L 686.912 1128.663 L 688.215 1117.758 L 688.215 1127.747 C 691.473 1122.405 695.409 1118.234 698.237 1115.678 Q 701.46 1119.018 703.787 1124.899 L 705.552 1110.132 L 684.446 1111.156 L 682.647 1100.341 L 706.475 1100.132 L 705.882 1076.642 L 684.757 1072.294 L 686.607 1088.352 L 682.782 1072.526 L 674.169 1078.825 L 677.94 1094.153 L 675.09 1096.93 Z " fill="rgb(118,0,0)"/><path d=" M 680.425 1091.128 L 674.051 1096.214 L 681.359 1113.635 L 681.359 1111.833 L 676.108 1096.651 L 680.425 1091.128 Z " fill="rgb(0,0,0)"/><path d=" M 680.85 1102.029 L 683.925 1099.157 L 684.019 1099.93 L 681.544 1102.182 L 680.85 1102.029 Z " fill="rgb(0,0,0)"/></g></g><g><g clip-path="url(#_clipPath_994sLsQ0tnZpUv6OkMvgmcdz98cUoV1J)"><text transform="matrix(1,0,0,1,678.395,915.367)" style="font-family:'Coming Soon';font-weight:400;font-size:12px;font-style:normal;fill:#000000;stroke:none;">I'll take it.</text></g><defs><clipPath id="_clipPath_994sLsQ0tnZpUv6OkMvgmcdz98cUoV1J"><rect x="0" y="0" width="70.824" height="20.393" transform="matrix(1,0,0,1,678.395,903.028)"/></clipPath></defs><g clip-path="url(#_clipPath_Tg61ZWjL19gWcuiLDbQ2gB40yjawUauG)"><text transform="matrix(1,0,0,1,777.13,927.766)" style="font-family:'Coming Soon';font-weight:400;font-size:12px;font-style:normal;fill:#000000;stroke:none;">Ofcourse you will - that's the </text><text transform="matrix(1,0,0,1,777.13,945.942)" style="font-family:'Coming Soon';font-weight:400;font-size:12px;font-style:normal;fill:#000000;stroke:none;">power of not having options.</text></g><defs><clipPath id="_clipPath_Tg61ZWjL19gWcuiLDbQ2gB40yjawUauG"><rect x="0" y="0" width="184.082" height="42.797" transform="matrix(1,0,0,1,777.13,915.426)"/></clipPath></defs><path d=" M 881.653 975.434 L 886.76 968.869 L 891.866 962.303 L 896.489 959.436 L 881.653 975.434 Z " fill="rgb(0,0,0)"/><path d=" M 695.076 956.022 L 697.08 939.429 L 694.933 926.998 L 695.076 956.022 Z " fill="rgb(0,0,0)"/></g><path d=" M 792.989 1160.262 L 808.168 1163.262 L 659 1163.262 L 659 886.738 L 869.918 886.738 L 876.504 889.738 L 662 889.738 L 662 1160.262 L 792.989 1160.262 Z " fill="rgb(0,0,0)"/><g><g><path d=" M 749.276 1052.011 L 756.672 1048.979 C 758.43 1048.913 759.177 1049.754 758.902 1051.489 L 752.391 1056.215 C 753.378 1053.894 752.387 1051.777 749.276 1052.011 Z " fill="rgb(223,178,110)"/><path d=" M 740.706 1055.638 L 749.849 1051.938 C 752.448 1052.421 753.422 1053.67 752.758 1055.674 L 745.03 1061.509 C 747.609 1058.325 746.468 1055.777 740.706 1055.638 Z " fill="rgb(255,255,255)"/><path d=" M 738.012 1062.895 C 736.71 1061.252 737.282 1058.626 739.289 1057.035 C 741.296 1055.444 743.983 1055.486 745.286 1057.129 C 746.588 1058.772 746.016 1061.397 744.009 1062.989 C 742.002 1064.58 739.315 1064.538 738.012 1062.895 Z " fill="rgb(93,93,93)"/><path d=" M 749.884 1052.209 L 742.993 1055.136 C 744.621 1055.236 746.084 1056.24 746.77 1058.242 C 746.888 1058.585 746.969 1058.915 747.017 1059.231 L 747.017 1059.231 L 752.053 1055.712 C 752.77 1053.789 751.929 1052.24 749.884 1052.209 Z  M 750.486 1051.953 L 756.34 1049.466 C 757.715 1049.288 758.407 1049.895 758.402 1051.276 L 752.699 1055.26 C 753.171 1053.616 752.235 1052.078 750.486 1051.953 Z  M 737.918 1057.572 C 740.873 1056.213 742.942 1056.484 744.123 1058.384 C 742.01 1056.831 739.85 1056.817 737.64 1058.343 L 737.918 1057.572 L 737.918 1057.572 L 737.918 1057.572 Z  M 746.939 1060.928 C 745.902 1064.82 738.994 1065.637 737.982 1063.859 C 735.158 1058.899 740.388 1057.513 741.57 1058.034 C 746.111 1060.033 741.984 1066.488 739.919 1060.577 C 743.303 1064.667 744.412 1060.144 741.601 1059.031 C 739.618 1058.246 736.887 1061.497 738.626 1063.078 C 740.909 1065.153 745.644 1063.803 745.438 1058.282 C 745.366 1056.354 742.411 1055.446 738.658 1057.119 L 738.658 1057.119 L 739.579 1056.198 C 739.761 1056.07 739.945 1055.953 740.132 1055.847 L 739.081 1055.786 L 756.436 1048.521 C 758.522 1048.048 760.032 1050.084 759.29 1051.787 L 746.939 1060.928 L 746.939 1060.928 Z " fill-rule="evenodd" fill="rgb(0,0,0)"/></g><g><path d=" M 732.849 1035.594 C 719.904 1004.744 738.344 992.875 751.018 995.124 C 773.826 999.173 775.857 1019.968 761.899 1026.895 C 740.584 1037.472 757.375 1003.008 770.317 991.962 C 782.383 981.664 811.164 993.59 782.567 1006.795 C 811.608 1000.282 789.382 976.191 768.288 991.392 C 758.12 998.719 732.994 1041.528 765.031 1028.83 C 776.055 1024.461 774.529 987.494 744.341 994.055 C 727.718 997.669 722.638 1014.962 729.287 1030.121 L 732.849 1035.594 Z " fill="rgb(0,0,0)"/><path d=" M 725.402 1039.836 L 740.455 1032.651 L 739.52 1032.829 L 726.566 1038.804 L 725.402 1039.836 Z " fill="rgb(0,0,0)"/><path d=" M 730.58 1047.096 L 744.795 1038.368 L 743.883 1038.643 L 731.629 1045.947 L 730.58 1047.096 Z " fill="rgb(0,0,0)"/><path d=" M 722.956 1034.775 L 739.086 1030.527 L 738.134 1030.527 L 724.292 1033.978 L 722.956 1034.775 Z " fill="rgb(0,0,0)"/></g></g><g><path d=" M 890.042 1040.949 L 911.876 1026.568 L 909.399 1018.723 L 864.047 1027.445 L 864.047 1038.01 L 890.042 1040.949 Z " fill="rgb(0,0,0)"/><path d=" M 887.449 1039.631 L 908.694 1025.444 L 906.961 1021.725 L 872.24 1029.798 L 886.084 1044.562 L 887.449 1039.631 Z " fill="rgb(255,255,255)"/><path d=" M 882.849 1038.832 L 906.961 1021.725 L 872.24 1029.798 L 882.849 1038.832 Z " fill="rgb(232,232,232)"/><path d=" M 882.568 1038.01 L 904.242 1023.462 L 902.331 1025.444 L 881.622 1040.406 L 882.568 1038.01 Z " fill="rgb(185,185,185)"/><path d=" M 798.763 1035.857 L 806.386 1061.719 C 818.791 1084.163 823.431 1111.943 820.27 1145.023 L 836.317 1145.023 L 928.923 1125.15 C 919.347 1118.145 906.292 1110.534 889.722 1102.282 C 888.718 1086.294 882.832 1071.333 872.027 1057.363 L 868.76 1021.019 L 798.763 1035.857 Z " fill="rgb(232,232,232)"/><path d=" M 912.438 1037.201 L 882.395 1039.631 L 878.486 1024.72 L 868.76 1020.424 L 872.027 1057.363 C 883.862 1071.508 887.454 1084.878 890.347 1102.163 L 928.666 1125.15 L 952.079 1102.571 C 944.96 1102.266 937.518 1100.956 932.896 1098.603 C 937.145 1081.949 929.89 1065.788 911.067 1050.057 L 912.438 1037.201 Z " fill="rgb(255,255,255)"/><path d=" M 828.559 1135.45 C 842.78 1127.221 850.29 1122.868 851.076 1122.376 C 863.21 1118.364 874.484 1111.996 889.604 1102.163 C 889.157 1089.88 883.046 1071.619 871.697 1058.108 L 812.552 1060.509 L 811.42 1059.267 L 871.01 1056.787 L 869.123 1026.24 L 871.01 1031.393 L 872.331 1056.787 C 883.209 1070.304 889.226 1085.441 890.347 1102.163 C 903.304 1108.417 914.323 1114.672 923.367 1120.89 L 923.85 1122.145 C 913.02 1115.251 901.585 1108.853 890.042 1102.686 C 877.948 1111.077 865.59 1118.681 852.629 1123.773 L 825.905 1138.835 L 828.559 1135.45 Z " fill="rgb(185,185,185)"/><path d=" M 808.685 1070.747 L 811.241 1083.506 C 825.934 1095.591 826.544 1107.663 815.195 1111.426 L 819.248 1125.986 L 849.374 1110.098 C 860.605 1102.515 873.967 1098.017 889.421 1096.565 L 918.179 1105.086 L 929.649 1097.699 L 935.965 1100.063 L 938.913 1092.522 L 933.678 1091.451 Q 934.725 1082.38 926.97 1066.189 Q 900.316 1060.929 879.016 1062.77 L 880.041 1068.288 C 889.123 1070.466 897.045 1073.115 901.519 1076.695 C 906.03 1080.684 908.905 1085.87 901.8 1089.731 C 899.602 1090.948 894.794 1089.37 891.111 1090.396 Q 888.543 1091.111 886.743 1091.765 Q 882.869 1088.64 880.983 1084.086 C 879.217 1079.731 878.374 1074.547 878.417 1068.496 L 880.694 1068.496 L 880.303 1062.006 L 876.1 1062.641 C 848.074 1071.9 825.615 1074.614 808.685 1070.747 Z " fill="rgb(185,185,185)"/><path d=" M 902.587 1077.491 Q 913.282 1085.944 912.39 1089.24 C 912 1090.678 911.131 1092.187 909.783 1093.765 C 908.001 1094.096 909.445 1095.735 910.028 1095.926 C 903.207 1097.134 899.388 1093.363 890.347 1093.501 Q 887.589 1092.979 886.104 1091.844 C 887.561 1091.975 888.792 1090.744 892.16 1090.139 C 896.488 1091.873 900.547 1090.716 904.256 1088.565 C 906.995 1084.684 906.236 1082.463 902.587 1077.491 Z " fill="rgb(116,116,116)"/><path d=" M 839.892 1114.446 C 837.724 1115.013 835.462 1113.018 833.209 1113.684 C 831.058 1114.32 831.581 1115.819 829.392 1116.755 C 827.203 1117.691 823.007 1117.54 821.782 1118.142 C 818.957 1119.532 818.22 1122.58 817.848 1126.065 C 823.054 1125.633 833.593 1118.583 839.892 1114.446 Z " fill="rgb(116,116,116)"/><path d=" M 928.342 1097.912 Q 941.845 1104.808 949.047 1104.803 L 925.793 1124.331 L 835.381 1142.969 L 822.198 1143.111 C 822.98 1136.266 823.365 1129.547 823.323 1122.966 L 823.323 1122.966 L 819.6 1124.787 C 819.265 1132.666 817.931 1140.535 815.508 1148.394 L 834.645 1148.394 L 927.42 1129.036 L 958.644 1099.745 C 952.679 1102.264 943.235 1101.384 930.281 1097.074 L 928.342 1097.912 L 928.342 1097.912 Z " fill="rgb(0,0,0)"/><path d=" M 935.33 1091.716 C 936.601 1074.281 928.52 1060.383 912.438 1048.508 L 916.31 1034.957 L 883.94 1037.276 L 878.865 1021.998 L 869.096 1018.058 L 795.156 1032.634 L 803.286 1060.509 C 805.424 1064.653 807.38 1068.793 809.067 1072.928 L 814.994 1073.426 L 814.994 1073.426 C 813.271 1068.627 811.302 1063.906 809.072 1059.267 L 801.969 1036.506 L 868.989 1022.744 L 876.834 1025.859 L 881.052 1040.949 L 911.14 1038.209 L 908.321 1051.255 C 925.275 1062.192 933.225 1075.478 932.171 1091.143 L 935.33 1091.716 L 935.33 1091.716 Z " fill="rgb(0,0,0)"/><path d=" M 820.886 1106.691 L 817.848 1089.81 L 813.517 1085.299 L 817.395 1109.957 L 820.886 1106.691 Z " fill="rgb(0,0,0)"/><path d=" M 769.563 1148.098 C 825.877 1144.757 876.897 1145.276 922.588 1147.167 L 867.002 1151.978 L 769.563 1148.098 Z " fill="rgb(0,0,0)"/><path d=" M 816.774 1129.382 L 813.035 1110.177 C 829.824 1104.45 819.046 1090.575 809.072 1083.585 L 805.143 1069.669 L 808.754 1068.367 C 826.854 1072.487 844.95 1071.37 875.923 1061.719 Q 901.252 1059.837 926.478 1064.999 L 928.923 1068.367 Q 901.435 1061.859 877.434 1063.673 C 849.864 1071.823 827.811 1077.077 811.31 1074.051 L 812.489 1080.378 C 824.27 1093.942 828.173 1107.752 816.936 1112.282 L 819.858 1126.435 L 816.774 1129.382 Z " fill="rgb(0,0,0)"/><path d=" M 911.973 1096.951 C 906.218 1093.189 881.484 1092.381 862.705 1097.122 Q 874.705 1092.211 886.104 1092.279 C 895.683 1091.522 905.996 1093.092 911.973 1096.951 Z " fill="rgb(0,0,0)"/><path d=" M 886.965 1091.147 L 889.052 1093.501 C 885.996 1092.524 881.049 1092.053 874.173 1092.057 C 880.725 1091.112 885.001 1090.819 886.965 1091.147 Z " fill="rgb(0,0,0)"/><path d=" M 934.958 1090.139 L 934.678 1091.191 L 928.666 1090.475 L 936.845 1092.973 L 933.867 1099.335 L 937.097 1100.694 L 939.815 1091.686 L 934.958 1090.139 Z " fill="rgb(0,0,0)"/><path d=" M 878.676 1066.869 C 915.131 1075.391 912.692 1088.72 900.539 1091.53 C 899.184 1091.844 895.019 1091.292 892.671 1090.934 C 890.543 1090.609 888.674 1092.651 887.367 1092.548 C 879.13 1091.897 874.472 1066.168 878.676 1066.869 Z  M 885.561 1090.139 C 880.168 1084.351 877.671 1069.176 880.763 1069.681 C 907.495 1075.804 909.518 1085.27 899.903 1089.532 C 897.189 1090.735 893.185 1089.311 891.284 1089.566 C 890.104 1089.724 886.617 1091.273 885.561 1090.139 Z " fill-rule="evenodd" fill="rgb(0,0,0)"/><path d=" M 833.142 1076.194 L 845.21 1074.265 L 844.614 1074.979 L 834.746 1076.622 L 833.142 1076.194 L 833.142 1076.194 Z  M 833.094 1077.555 L 845.163 1075.625 L 844.566 1076.34 L 834.699 1077.982 L 833.094 1077.555 L 833.094 1077.555 Z  M 833.047 1078.915 L 845.115 1076.985 L 844.518 1077.7 L 834.651 1079.342 L 833.047 1078.915 Z " fill-rule="evenodd" fill="rgb(116,116,116)"/><path d=" M 846.815 1112.083 C 846.864 1109.623 848.518 1106.825 851.771 1103.693 C 850.214 1106.01 849.263 1108.292 848.941 1110.541 L 846.815 1112.083 L 846.815 1112.083 Z " fill="rgb(0,0,0)"/><path d=" M 846.815 1112.083 C 846.76 1114.081 847.763 1115.856 849.816 1117.409 C 848.866 1115.151 848.569 1112.864 848.941 1110.541 L 846.815 1112.083 L 846.815 1112.083 Z " fill="rgb(185,185,185)"/><path d=" M 902.228 1093.797 L 905.491 1094.623 L 913.491 1093.369 L 902.228 1093.797 Z " fill="rgb(0,0,0)"/><path d=" M 814.842 1132.571 Q 833.144 1122.856 848.066 1113.185 C 857.655 1104.839 879.701 1097.764 889.604 1097.93 C 901.396 1102.425 911.094 1105.177 918.724 1106.215 C 923.017 1102.734 926.401 1100.037 932.611 1096.418 L 933.584 1094.977 C 929.488 1096.625 922.206 1100.054 918.357 1102.851 C 898.74 1099.184 889.19 1096.748 889.722 1095.558 C 877.052 1094.736 862.663 1099.672 848.455 1108.752 Q 830.566 1120.44 814.015 1127.027 L 814.842 1132.571 Z " fill="rgb(0,0,0)"/></g></g><g><rect x="358.5" y="595.5" width="291" height="273" transform="matrix(1,0,0,1,0,0)" fill="transparent" vector-effect="non-scaling-stroke" stroke-width="3" stroke="rgb(0,0,0)" stroke-linejoin="miter" stroke-linecap="square" stroke-miterlimit="2"/><rect x="360" y="597" width="288" height="270" transform="matrix(1,0,0,1,0,0)" fill="none"/><g><g clip-path="url(#_clipPath_dJ0xlhbXh1WzRWSZPWNEnHWWHWifEjz1)"><text transform="matrix(1,0,0,1,368.453,617.893)" style="font-family:'Coming Soon';font-weight:400;font-size:12px;font-style:normal;fill:#000000;stroke:none;">It's one room, on the fourth floor, that costs half </text><text transform="matrix(1,0,0,1,368.453,636.069)" style="font-family:'Coming Soon';font-weight:400;font-size:12px;font-style:normal;fill:#000000;stroke:none;">your salary - nothing werks, if anything that </text><text transform="matrix(1,0,0,1,368.453,654.245)" style="font-family:'Coming Soon';font-weight:400;font-size:12px;font-style:normal;fill:#000000;stroke:none;">does werk breaks, I won't fix it - no hot water </text><text transform="matrix(1,0,0,1,368.453,672.42)" style="font-family:'Coming Soon';font-weight:400;font-size:12px;font-style:normal;fill:#000000;stroke:none;">Tuesdays or Thursdays, electricity cuts out when </text><text transform="matrix(1,0,0,1,368.453,690.596)" style="font-family:'Coming Soon';font-weight:400;font-size:12px;font-style:normal;fill:#000000;stroke:none;">you sneeze.</text></g><defs><clipPath id="_clipPath_dJ0xlhbXh1WzRWSZPWNEnHWWHWifEjz1"><rect x="0" y="0" width="275.28" height="92.455" transform="matrix(1,0,0,1,366.895,605.553)"/></clipPath></defs><path d=" M 485.799 703.571 L 475.585 693.692 L 470.963 691.535 L 485.799 703.571 Z " fill="rgb(0,0,0)"/></g><g><ellipse vector-effect="non-scaling-stroke" cx="554.0339096976069" cy="855.9805092475244" rx="86.80321162469954" ry="2.7809448688997236" fill="rgb(0,0,0)"/><path d=" M 630.446 737.179 L 620.62 729.846 L 612.999 744.678 L 558.773 755.192 L 558.355 775.411 C 544.401 793.081 539.254 815.711 542.091 845.505 L 537.805 854.741 L 619.371 854.741 L 618.48 802.859 L 624.999 758.226 L 630.446 737.179 Z " fill="rgb(232,232,232)"/><path d=" M 450.217 828.568 L 432.691 816.831 L 450.217 817.845 L 450.315 815.877 L 454.836 816.366 L 459.672 814.793 C 456.794 791.099 469.053 776.895 496.46 772.167 L 495.269 750.245 L 559.195 741.58 L 566.171 732.914 L 620.995 729.777 L 612.999 744.455 C 595.09 749.056 579.843 752.3 568.189 753.845 C 564.898 754.281 561.893 754.582 559.195 754.739 L 558.355 775.639 C 545.777 790.42 540.394 813.756 542.231 845.62 L 537.142 855.981 L 498.82 853.769 L 450.217 828.568 Z " fill="rgb(255,255,255)"/><path d=" M 405.056 768.018 L 427.277 781.37 L 417.481 807.771 L 417.481 807.771 L 421.705 813.928 L 432.691 816.702 L 451.242 829.217 C 433.949 823.229 420.677 820.064 411.427 819.72 L 406.313 816.366 L 397 815.405 L 398.916 798.881 C 402.88 794.427 406.622 788.59 410.143 781.37 C 409.239 776.54 407.543 772.09 405.056 768.018 Z " fill="rgb(232,232,232)"/><path d=" M 623.761 768.638 C 586.669 771.552 562.693 777.289 551.846 785.836 C 534.557 794.674 517.338 799.908 500.201 801.527 C 491.869 792.895 486.031 784.555 482.702 776.496 C 469.142 780.627 460.907 793.532 458.011 815.197 L 449.987 816.366 L 449.987 817.757 C 467.253 829.48 497.954 838.73 542.091 845.505 C 570.856 842.795 598.041 842.007 623.648 843.141 L 619.459 818.568 C 594.564 837.341 592.325 783.883 623.482 777.169 L 623.761 768.638 Z " fill="rgb(185,185,185)"/><path d=" M 600.532 803.366 C 596.414 810.856 598.668 834.603 611.057 837.784 C 614.138 838.575 619.651 838.604 621.042 829.036 L 619.371 819.215 C 606.511 826.23 600.227 820.951 600.532 803.366 Z " fill="rgb(116,116,116)"/><path d=" M 472.509 781.635 Q 472.24 786.405 475.863 789.601 C 479.486 792.798 482.323 792.046 484.601 794.077 C 486.779 796.02 486.318 799.305 484.871 801.527 C 483.045 804.332 481.607 811.547 484.601 811.047 C 487.296 810.596 481.808 797.093 491.407 800.471 Q 494.643 801.61 498.928 798.498 L 480.978 777.039 L 472.509 781.635 Z " fill="rgb(116,116,116)"/><path d=" M 611.08 771.635 C 607.425 772.578 607.059 775.364 603.19 776.26 C 599.494 777.116 598.831 775.086 594.798 775.639 C 590.766 776.191 586.952 778.347 584.622 778.569 C 579.246 779.083 577.12 777.27 570.82 778.216 C 578.718 774.926 598.111 771.635 611.08 771.635 Z " fill="rgb(116,116,116)"/><path d=" M 615.616 821.636 C 616.143 807.604 617.502 793.358 619.696 778.899 L 623.482 778.216 L 623.482 778.216 C 621.284 792.246 620.092 806.081 619.905 819.72 L 615.616 821.636 L 615.616 821.636 Z " fill="rgb(0,0,0)"/><path d=" M 502.999 751.9 C 520.543 751.444 539.224 752.201 559.057 754.155 C 581.596 751.417 599.02 748.385 612.45 744.396 L 618.764 732.866 L 619.166 734.447 L 613.28 744.872 C 600.202 748.543 582.313 752.454 559.627 755.192 L 559.627 773.087 L 558.355 772.167 L 558.773 755.192 C 539.131 753.261 520.116 752.374 501.744 752.517 L 502.999 751.9 Z " fill="rgb(185,185,185)"/><path d=" M 582.567 743.75 L 613.496 743.96 L 612.277 744.678 L 582.309 744.455 L 582.567 743.75 Z " fill="rgb(185,185,185)"/><path d=" M 546.33 744.872 L 496.46 751.419 C 496.803 758.704 497.621 767.487 498.928 777.755 L 496.152 776.26 C 495.022 766.4 494.263 757.37 493.886 749.159 L 545.049 742.737 L 546.33 744.872 Z " fill="rgb(0,0,0)"/><path d=" M 623.482 769.8 L 623.482 766.488 L 626.424 767.086 L 626.046 778.251 C 594.217 779.269 594.125 839.916 619.696 816.366 L 622.607 818.581 L 622.203 821.533 L 623.761 823.571 L 622.203 825.129 L 625.415 843.539 L 622.203 843.224 L 619.371 820.79 C 592.891 835.546 592.958 785.239 623.064 775.815 L 623.482 769.8 Z " fill="rgb(0,0,0)"/><path d=" M 619.905 818.259 C 616.296 829.899 612.816 833.705 609.475 829.665 C 612.634 835.699 616.345 833.239 620.62 822.27 L 619.905 818.259 Z " fill="rgb(0,0,0)"/><path d=" M 598.851 820.518 L 599.822 819.215 C 604.154 838.621 614.362 843.579 620.047 823.795 L 621.173 826.047 C 611.123 847.934 604.364 839.013 598.851 820.518 Z " fill="rgb(0,0,0)"/><path d=" M 457.057 813.407 L 455.674 814.672 L 454.836 814.793 L 454.296 815.519 L 449.987 815.076 L 447.755 818.259 L 450.582 816.702 L 491.407 824.44 L 459.672 815.519 L 488.977 816.366 L 457.057 813.407 Z " fill="rgb(0,0,0)"/><path d=" M 451.136 817.137 C 440.738 817.06 430.579 815.67 420.66 812.98 L 422.528 815.197 C 432.827 817.688 443.58 818.887 454.796 818.782 L 451.136 817.137 L 451.136 817.137 Z " fill="rgb(0,0,0)"/><path d=" M 422.528 781.837 C 418.34 783.517 414.11 783.832 409.853 782.77 L 409.853 784.288 C 413.866 785.123 418.086 784.311 422.528 781.837 Z " fill="rgb(0,0,0)"/><path d=" M 410.023 791.483 C 409.317 801.455 409.861 809.901 411.427 819.879 L 410.143 818.515 C 408.366 809.612 407.802 801.378 408.572 793.03 L 410.023 791.483 Z " fill="rgb(0,0,0)"/><path d=" M 398.697 805.561 C 396.655 811.241 395.85 814.526 396.293 815.405 C 396.779 816.365 400.252 817.04 407.501 817.142 L 405.682 815.405 C 400.477 815.602 398.029 815.256 397.617 814.701 C 397.204 814.145 397.869 811.406 399.626 806.471 L 398.697 805.561 Z " fill="rgb(0,0,0)"/><path d=" M 418.11 806.983 C 419.753 811.092 422.11 814.573 425.193 817.414 L 423.991 817.757 C 421.498 815.687 419.276 812.701 417.338 808.786 L 418.11 806.983 Z " fill="rgb(0,0,0)"/><path d=" M 552.125 785.088 C 539.216 805.674 538.605 826.19 541.278 845.505 L 542.431 846.036 C 539.086 828.535 539.948 807.874 552.408 787.493 L 552.125 785.088 Z " fill="rgb(0,0,0)"/><path d=" M 461.427 814.691 C 460.257 789.581 472.183 776.591 497.219 773.511 L 497.219 770.949 C 468.37 775.928 455.296 789.781 458.011 814.691 L 461.427 814.691 Z " fill="rgb(0,0,0)"/><path d=" M 494.944 775.24 L 503.256 778.899 L 503.775 780.1 L 495.269 776.009 L 494.944 775.24 Z " fill="rgb(232,232,232)"/><path d=" M 591.423 738.387 L 592.173 737.021 L 592.173 737.021 C 586.906 737.157 581.898 737.413 577.138 737.799 L 578.06 738.967 C 582.049 738.754 588.255 738.462 591.423 738.387 Z  M 590.641 739.811 L 589.804 741.335 L 580.122 741.58 L 579.021 740.185 C 580.416 740.108 581.857 740.036 583.347 739.975 C 585.657 739.881 588.085 739.816 590.641 739.811 Z  M 592.741 735.985 L 593.567 734.482 C 587.11 734.704 581.13 735.162 575.615 735.868 L 576.392 736.853 C 581.725 736.36 587.179 736.068 592.741 735.985 L 592.741 735.985 Z " fill-rule="evenodd" fill="rgb(185,185,185)"/><g><ellipse vector-effect="non-scaling-stroke" cx="603.5568751990616" cy="737.1376552931807" rx="7.732253779827261" ry="3.9514525689082802" fill="rgb(185,185,185)"/><ellipse vector-effect="non-scaling-stroke" cx="603.0877946019496" cy="736.4650996400869" rx="6.456759712336407" ry="2.9183295303683963" fill="rgb(255,255,255)"/></g><path d=" M 504.032 757.224 L 503.623 765.219 L 502.805 765.014 L 503.163 757.019 L 504.032 757.224 L 504.032 757.224 L 504.032 757.224 L 504.032 757.224 Z  M 502.423 757.019 L 501.929 763.575 L 501.288 763.406 L 501.479 756.885 L 502.423 757.019 L 502.423 757.019 L 502.423 757.019 Z  M 503.367 767.139 L 503.423 766.281 L 499.697 765.219 L 499.906 768.166 L 503.367 767.139 L 503.367 767.139 Z  M 504.629 756.07 L 498.971 755.423 L 499.513 768.962 L 503.623 769.8 L 504.629 756.07 L 504.629 756.07 L 504.629 756.07 L 504.629 756.07 L 504.629 756.07 Z  M 505.361 755.423 L 498.01 754.301 L 498.971 769.327 L 504.361 770.475 L 505.361 755.423 L 505.361 755.423 L 505.361 755.423 L 505.361 755.423 L 505.361 755.423 Z  M 500.347 756.763 L 500.127 762.167 L 499.697 762.032 L 499.66 756.763 L 500.347 756.763 Z " fill-rule="evenodd" fill="rgb(232,232,232)"/><path d=" M 621.042 770.475 C 622.9 759.654 625.222 748.713 628.004 737.655 L 620.195 731.462 C 607.053 731.097 584.715 732.471 569.319 734.447 L 567.295 731.787 C 581.966 729.855 604.95 728.039 620.62 727.992 L 632.851 736.309 C 629.632 747.439 627.012 758.455 624.999 769.352 L 621.042 770.475 L 621.042 770.475 Z " fill="rgb(0,0,0)"/><path d=" M 557.631 775.56 L 554.086 772.806 L 562.506 775.676 L 556.503 774.101 L 561.443 777.344 L 553.274 774.571 L 557.631 775.56 Z " fill="rgb(185,185,185)"/><path d=" M 478.458 775.859 Q 491.063 796.613 500.201 803.366 C 512.891 800.762 532.815 796.186 551.161 788.401 C 562.853 777.962 587.6 772.149 625.415 770.949 L 626.424 767.756 C 584.994 770.332 564.711 775.336 551.597 784.85 C 532.739 793.99 514.505 798.685 502.367 799.8 C 496.29 796.637 489.671 788.481 482.511 775.329 L 483.557 774.547 L 481.683 774.029 L 478.458 775.859 Z " fill="rgb(0,0,0)"/><path d=" M 552.479 832.466 L 552.17 833.653 L 556.73 834.62 L 555.487 835.155 L 551.999 834.313 L 551.122 837.688 L 551.065 835.87 L 551.347 834.156 L 550.054 833.844 L 549.656 836.702 L 548.532 837.695 L 549.242 833.649 L 543.507 832.266 L 545.59 832.258 L 549.346 833.055 L 549.533 831.988 L 544.943 831.244 L 543.75 829.985 L 549.655 831.295 L 550.091 828.808 L 550.965 827.294 L 550.386 831.458 L 551.741 831.758 L 552.508 827.096 L 553.523 828.447 L 552.612 831.952 L 554.664 832.407 L 556.785 833.164 L 552.479 832.466 Z  M 551.647 832.331 L 551.455 833.502 L 550.14 833.223 L 550.295 832.112 L 551.647 832.331 Z " fill-rule="evenodd" fill="rgb(0,0,0)"/><path d=" M 541.788 845.627 C 540.844 848.43 539.311 850.974 537.196 853.255 L 539.214 853.699 C 540.832 851.802 542 849.166 542.724 845.782 L 541.278 845.627 L 541.788 845.627 Z " fill="rgb(185,185,185)"/><path d=" M 590.404 746.568 L 559.057 751.815 C 545.339 749.769 531.121 749.351 516.419 750.544 L 517.815 749.946 L 546.33 746.714 L 587.305 746.233 L 590.404 746.568 Z " fill="rgb(0,0,0)"/><path d=" M 586.01 744.922 L 584.108 746.996 L 551.897 733.195 L 554.034 721.956 C 567.818 729.26 577.79 737.602 586.01 744.922 Z " fill="rgb(232,232,232)"/><path d=" M 531.487 729.266 C 538.51 728.558 546.358 724.601 554.034 723.324 L 552 733.204 C 545.817 734.638 539.415 738.284 532.631 738.349 C 526.216 738.41 519.395 734.971 514.24 733.518 L 512.669 727.027 C 517.074 727.49 523.785 730.042 531.487 729.266 Z " fill="rgb(255,255,255)"/><path d=" M 515.144 733.383 C 519.838 734.708 525.69 737.012 533.042 736.633 C 538.74 736.339 545.542 733.795 552.111 731.984 C 568.088 736.306 578.88 741.333 584.504 747.049 L 551.597 746.996 Q 533.447 740.211 513.354 735.503 L 510.648 726.389 C 516.211 726.576 524.03 728.405 532.643 727.481 C 539.68 726.726 547.246 723.421 554.545 721.78 C 567.942 728.298 578.207 736.45 587.4 744.178 L 586.576 746.568 L 583.712 747.227 L 585.505 744.755 C 576.797 737.742 566.982 729.923 554.034 723.324 C 547.244 725.011 539.687 728.677 532.631 729.55 C 525.064 730.485 518.073 728.548 513.217 727.992 L 515.144 733.383 Z " fill="rgb(0,0,0)"/><path d=" M 615.821 852.771 C 615.656 849.6 615.535 846.417 615.454 843.224 L 615.454 843.224 L 620.62 843.476 C 620.92 847.579 621.318 851.663 621.811 855.729 L 538.626 856.683 L 538.626 852.771 L 615.821 852.771 Z " fill="rgb(0,0,0)"/><path d=" M 538.902 856.683 L 539.363 852.771 C 501.756 854.685 444.443 819.219 410.913 818.259 L 403.042 812.054 L 401.789 812.546 L 410.913 820.79 C 435.516 822.036 467.6 835.663 497.219 855.729 L 538.902 856.683 Z " fill="rgb(0,0,0)"/><path d=" M 628.004 842.384 L 626.424 845.505 C 606.49 842.555 565.778 843.671 542.231 847.044 L 541.278 844.779 C 563.942 841.814 605.815 840.647 628.004 842.384 Z " fill="rgb(0,0,0)"/><path d=" M 542.231 847.044 C 504.506 843.39 471.163 830.516 448.673 816.831 L 451.242 816.702 C 472.403 827.718 504.786 839.201 542.526 844.779 L 542.231 847.044 Z " fill="rgb(0,0,0)"/><g><path d=" M 585.561 746.148 L 578.065 744.633 C 576.402 744.888 575.852 745.812 576.423 747.393 L 583.392 750.659 C 582.047 748.657 582.596 746.489 585.561 746.148 Z " fill="rgb(223,178,110)"/><path d=" M 594.267 748.011 L 585.01 746.183 C 582.655 747.105 581.965 748.454 582.95 750.218 L 591.263 754.306 C 598.078 757.959 600.302 749.665 594.267 748.011 Z " fill="rgb(255,255,255)"/><path d=" M 598.458 754.759 C 599.449 752.861 598.859 750.206 596.54 748.996 C 594.22 747.786 591.044 748.477 590.054 750.376 C 589.064 752.274 590.143 754.798 592.462 756.007 C 594.781 757.217 597.468 756.658 598.458 754.759 Z " fill="rgb(93,93,93)"/><path d=" M 596.699 749.091 C 592.614 748.135 589.825 749.614 590.124 751.562 C 590.979 757.139 595.988 757.581 597.878 755.061 C 599.318 753.141 595.953 750.405 594.116 751.574 C 591.511 753.231 593.494 757.555 596.1 752.801 C 595.167 759.127 589.786 753.448 593.954 750.568 C 595.04 749.819 600.552 750.203 598.674 755.72 C 597.868 758.091 589.694 758.455 588.779 751.778 C 588.383 748.886 591.689 747.695 595.598 748.344 L 596.699 749.091 Z " fill="rgb(0,0,0)"/><path d=" M 597.319 749.56 C 594.298 748.816 592.403 749.444 591.636 751.442 C 593.341 749.601 595.368 749.199 597.72 750.234 L 597.319 749.56 Z " fill="rgb(0,0,0)"/><path d=" M 591.851 756.008 L 576.116 748.318 C 575.112 746.851 576.212 743.606 578.257 743.674 L 595.861 747.418 L 594.436 748.513 L 578.302 744.842 C 576.978 744.922 576.601 745.806 576.854 747.103 L 590.539 753.219 L 591.851 756.008 Z " fill="rgb(0,0,0)"/><path d=" M 585.561 746.148 C 582.494 746.192 581.429 748.85 583.392 750.659 L 584.366 751.091 C 581.935 748.904 582.706 746.384 586.261 746.284 L 585.561 746.148 Z " fill="rgb(0,0,0)"/></g><g><path d=" M 419.267 778.908 C 411.741 796.044 402.217 809.211 390.699 818.407 L 350 808.514 C 363.597 799.99 371.687 791.292 374.271 782.418 C 385.14 783.799 400.138 782.629 419.267 778.908 Z " fill="rgb(0,0,0)"/><path d=" M 370.42 797.033 C 373.126 793.265 375.234 789.399 376.713 785.408 L 384.298 785.408 L 382.981 789.031 L 378.091 788.578 L 374.05 797.795 L 370.42 797.033 Z " fill="rgb(118,0,0)"/><path d=" M 392.739 801.358 L 398.161 786.238 C 411.024 781.693 413.151 789.48 403.34 795.524 L 403.134 803.005 L 398.763 802.455 L 399.934 791.918 C 406.984 792.621 409.204 785.96 400.725 788.116 L 396.646 802.455 L 392.739 801.358 Z " fill="rgb(118,0,0)"/><path d=" M 356.778 807.442 L 366.075 798.791 Q 371.653 798.284 372.469 799.704 Q 373.284 801.124 367.613 804.166 L 365.511 809.339 L 362.807 808.489 L 365.511 802.996 L 365.511 802.996 C 367.838 801.58 368.381 800.286 366.722 800.109 L 366.722 800.109 L 360.884 807.442 L 356.778 807.442 Z " fill="rgb(118,0,0)"/><path d=" M 374.713 800.43 L 366.613 809.846 L 373.15 811.063 L 375.309 808.489 L 372.05 807.919 L 375.309 803.615 L 378.724 804.166 L 380.647 801.758 L 374.713 800.43 Z " fill="rgb(118,0,0)"/><path d=" M 372.571 805.994 L 375.83 806.378 L 376.265 805.321 L 374.374 804.552 L 372.571 805.994 Z " fill="rgb(118,0,0)"/><path d=" M 374.853 811.874 L 381.981 802.996 L 384.527 803.615 L 383.857 807.919 L 387.188 803.615 L 390.298 803.615 L 383.298 814.004 L 380.647 812.787 L 381.262 807.442 L 378.724 812.787 L 374.853 811.874 Z " fill="rgb(118,0,0)"/><path d=" M 391.282 804.166 L 400.354 805.688 L 398.161 808.933 L 395.826 808.489 L 390.298 815.83 L 386.609 815.019 L 392.184 808.02 L 389.493 807.31 L 391.282 804.166 Z " fill="rgb(118,0,0)"/><path d=" M 382.597 789.454 Q 380.338 791.526 379.264 797.033 L 380.351 799.082 Q 385.101 800.918 387.685 800.181 Q 390.237 799.452 393.079 795.524 Q 395.766 789.142 393.079 786.793 C 389.746 783.879 385.444 786.843 382.597 789.454 Z  M 385.107 791.099 C 383.943 793.155 383.647 794.881 384.188 796.249 Q 386.131 797.231 387.188 796.836 Q 388.231 796.447 389.393 794.346 Q 390.492 790.932 389.393 789.676 C 388.03 788.117 386.271 789.702 385.107 791.099 Z " fill-rule="evenodd" fill="rgb(118,0,0)"/><path d=" M 376.108 790.954 L 379.095 791.292 L 378.418 793.35 L 375.15 793.152 L 376.108 790.954 Z " fill="rgb(118,0,0)"/></g><g><path d=" M 399.361 795.363 C 403.983 785.059 405.86 775.945 404.994 768.018 C 401 772.505 396.044 776.246 390.14 779.226 C 390.463 787.644 392.745 793.898 397 797.975 Q 397.646 796.932 399.361 795.363 Z " fill="rgb(255,255,255)"/><path d=" M 398.201 797.285 C 402.933 787.985 405.656 778.134 405.056 768.962 C 408.546 771.632 410.241 774.835 410.143 778.569 C 408.933 786.481 404.475 793.066 398.201 797.285 Z " fill="rgb(232,232,232)"/><path d=" M 389.124 778.569 C 394.836 776.109 400.122 771.913 404.994 765.966 L 429.15 780.32 C 422.946 791.211 419.052 802.418 417.481 813.928 L 416.197 811.477 C 417.617 801.286 420.88 791.255 425.999 781.37 L 404.994 769.234 C 400.386 774.126 395.753 777.553 391.107 779.503 Q 390.796 791.127 397.647 796.766 Q 413.994 781.678 407.795 775.639 L 409.429 777.039 Q 415.58 780.428 398.697 799.8 Q 389.064 793.582 389.124 778.569 Z " fill="rgb(0,0,0)"/><path d=" M 404.269 767.756 C 405.374 774.114 404.097 782.469 400.437 792.82 C 404.451 784.019 406.409 775.664 406.313 767.756 L 404.269 767.756 Z " fill="rgb(0,0,0)"/></g></g></g></g></svg>