<svg xmlns="http://www.w3.org/2000/svg" xmlns:xlink="http://www.w3.org/1999/xlink" style="isolation:isolate" viewBox="101.634 109.321 955.725 604.346" width="955.725pt" height="604.346pt">

<style type="text/css">
    
  @font-face {
    font-family: 'Coming Soon';
    src: url('ComingSoon.ttf') format('truetype');
  }

</style>
 
    

<defs>

<clipPath id="_clipPath_wki8sQsedKT26uBcujkoNAHg6KR0wX0D">

<rect x="101.634" y="109.321" width="955.725" height="604.346"/>

</clipPath>

</defs>

<g clip-path="url(#_clipPath_wki8sQsedKT26uBcujkoNAHg6KR0wX0D)">

<rect x="101.634" y="109.321" width="955.725" height="604.346" transform="matrix(1,0,0,1,0,0)" fill="rgb(96,125,139)"/>

<rect x="430.344" y="417.358" width="291" height="84.186" transform="matrix(1,0,0,1,0,0)" fill="transparent" stroke-width="3" stroke="rgb(0,0,0)" stroke-linejoin="miter" stroke-linecap="square" stroke-miterlimit="2"/>

<rect x="431.844" y="418.858" width="288" height="81.186" transform="matrix(1,0,0,1,0,0)" fill="none"/>

<clipPath id="_clipPath_xzeSd8NeupNMERninNmV0oEz6mkKFIIs">

<rect x="430.344" y="417.358" width="291" height="84.186" transform="matrix(1,0,0,1,0,0)" fill="transparent" stroke-width="3" stroke="rgb(0,0,0)" stroke-linejoin="miter" stroke-linecap="square" stroke-miterlimit="2"/>

<rect x="431.844" y="418.858" width="288" height="81.186" transform="matrix(1,0,0,1,0,0)" fill="none"/>

</clipPath>

<g clip-path="url(#_clipPath_xzeSd8NeupNMERninNmV0oEz6mkKFIIs)">

<g>

<g>

<path d=" M 490.138 544.594 L 477.301 544.594 L 476.022 518.198 L 490.548 524.445 C 490.762 532.383 490.621 539.104 490.138 544.594 Z " fill="rgb(255,255,255)"/>

<path d=" M 505.043 491.247 L 515.026 509.074 L 512.91 534.729 L 517.461 537.198 C 515.178 540.041 506.066 542.51 490.138 544.594 C 490.965 537.481 491.098 530.769 490.548 524.445 C 492.884 512.568 497.712 501.507 505.043 491.247 Z " fill="rgb(232,232,232)"/>

<path d=" M 462.19 435.515 L 501.171 439.131 L 513.272 476.4 L 516.418 476.158 L 514.482 510.282 L 504.802 490.921 C 496.819 503.528 491.894 514.826 490.039 524.802 L 474.792 517.3 C 472.796 499.469 465.048 477.934 451.559 452.683 L 462.19 435.515 Z " fill="rgb(118,0,0)"/>

<path d=" M 517.991 536.873 L 532.754 546.311 L 526.704 549.941 L 489.192 553.813 L 475.639 553.087 L 476.607 544.133 L 490.886 544.375 C 503.966 543.479 512.997 540.983 517.991 536.873 Z " fill="rgb(118,0,0)"/>

<path d=" M 474.364 555.223 C 479.366 526.329 471.438 492.286 450.594 453.08 L 460.729 432.536 C 476.167 436.1 489.875 437.672 501.878 437.226 L 515.026 474.903 L 510.644 474.903 L 498.956 441.198 C 488.398 441.049 476.134 439.402 462.19 436.231 L 452.937 453.08 C 472.534 487.496 480.97 521.548 478.26 555.223 L 474.364 555.223 Z " fill="rgb(0,0,0)"/>

<path d=" M 478.965 478.673 L 477.286 477.93 C 477.154 481.853 477.332 485.224 477.832 488.03 L 479.399 488.812 C 478.732 485.521 478.584 482.146 478.965 478.673 Z " fill="rgb(0,0,0)"/>

<path d=" M 478.26 482.938 C 489.723 479.038 503.191 475.633 518.679 472.711 L 515.026 533.716 L 535.723 545.578 L 521.357 555.223 L 517.461 555.223 L 530.581 546.246 L 510.644 535.065 L 515.026 477.232 C 503.47 477.72 491.21 480.681 478.26 486.103 L 478.26 482.938 Z " fill="rgb(0,0,0)"/>

<path d=" M 525.572 550.828 L 521.736 555.223 L 474.364 555.223 L 478.26 550.828 C 499.448 551.523 516.711 550 530.061 546.246 L 525.572 550.828 Z " fill="rgb(0,0,0)"/>

<path d=" M 477.286 471.159 C 477.548 462.841 472.512 450.535 462.19 434.229 L 460.729 436.231 C 467.845 446.939 473.36 458.586 477.286 471.159 Z " fill="rgb(0,0,0)"/>

<path d=" M 488.486 500.134 C 491.91 517.988 492.099 535.564 490.303 552.849 L 487.745 552.849 C 491.415 536.98 491.016 519.413 488.486 500.134 Z " fill="rgb(0,0,0)"/>

<path d=" M 515.026 511.502 C 512.63 503.113 509.298 495.554 505.043 488.812 C 496.052 501.694 490.722 513.065 490.303 522.913 L 475.581 516.551 L 475.581 519.248 L 490.921 526.828 C 493.633 512.889 498.544 501.365 505.043 492.88 C 508.951 498.069 512.275 505.964 515.026 516.551 L 515.026 511.502 Z " fill="rgb(0,0,0)"/>

<path d=" M 518.128 538.159 L 516.158 536.298 C 510.85 542.882 495.998 544.578 477.286 543.84 L 477.286 545.167 C 493.455 544.581 508.646 544.767 518.128 538.159 Z " fill="rgb(0,0,0)"/>

<path d=" M 507.821 504.652 C 507.936 502.597 507.157 500.88 506.084 500.82 C 505.01 500.76 504.046 502.38 503.932 504.436 C 503.817 506.491 504.596 508.208 505.669 508.268 C 506.742 508.328 507.707 506.707 507.821 504.652 Z " fill="rgb(0,0,0)"/>

</g>

<g>

<g>

<path d=" M 720.339 437.413 L 740.322 411.85 L 647.886 409.124 L 622.958 431.597 C 627.337 447.387 634.387 460.08 644.122 469.665 C 669.505 463.169 694.907 452.423 720.339 437.413 Z " fill="rgb(255,255,255)"/>

<path d=" M 643.257 536.646 L 713.644 532.099 L 700.607 559.851 L 587.473 551.68 C 596.886 545.308 603.481 536.436 607.269 525.05 L 643.257 536.646 Z " fill="rgb(255,255,255)"/>

<path d=" M 622.914 433.348 C 627.648 447.196 634.713 459.672 644.122 470.764 C 670.398 463.041 695.721 451.929 720.103 437.413 Q 733.92 434.007 759.362 429.818 L 764.091 538.495 L 713.618 532.099 L 643.257 537.34 L 601.269 523.147 C 589.879 489.843 601.09 459.914 622.914 433.348 Z " fill="rgb(185,185,185)"/>

<path d=" M 613.382 444.556 Q 613.077 451.969 617.174 456.937 C 621.271 461.906 624.48 460.737 627.056 463.893 C 629.519 466.912 628.997 472.019 627.361 475.471 C 625.296 479.831 623.67 491.045 627.056 490.267 C 630.104 489.567 623.898 468.581 634.752 473.83 Q 638.412 475.6 643.257 470.764 L 622.958 437.413 L 613.382 444.556 Z " fill="rgb(116,116,116)"/>

<path d=" M 600.436 506.784 C 592.353 473.765 610.746 442.363 647.517 412.586 L 647.886 403.481 C 607.966 438.881 587.384 473.111 594.058 506.178 L 600.436 506.784 L 600.436 506.784 Z " fill="rgb(0,0,0)"/>

<path d=" M 743 436.49 C 732.094 438.595 721.056 441.307 710.109 444.556 Q 716.186 430.609 732.197 407.717 L 740.774 411.85 Q 737.314 421.606 732.197 431.677 C 735.287 431.106 738.382 430.571 741.472 430.084 L 743 436.49 L 743 436.49 Z " fill="rgb(0,0,0)"/>

<path d=" M 722.426 432.33 C 690.991 450.762 665.134 462.405 644.867 467.246 C 636.611 458.449 629.738 445.956 624.261 429.754 L 626.894 426.474 L 622.914 425.257 L 618.823 432.33 C 624.896 448.712 633.036 462.703 643.257 474.291 C 666.802 467.89 691.19 457.4 716.434 442.809 L 722.426 432.33 Z " fill="rgb(0,0,0)"/>

</g>

</g>

</g>

</g>

<rect x="430.344" y="417.358" width="291" height="84.186" transform="matrix(1,0,0,1,0,0)" fill="transparent" stroke-width="3" stroke="rgb(0,0,0)" stroke-linejoin="miter" stroke-linecap="square" stroke-miterlimit="2"/>

<rect x="430.344" y="606.172" width="291" height="84.186" transform="matrix(1,0,0,1,0,0)" fill="transparent" stroke-width="3" stroke="rgb(0,0,0)" stroke-linejoin="miter" stroke-linecap="square" stroke-miterlimit="2"/>

<rect x="431.844" y="607.672" width="288" height="81.186" transform="matrix(1,0,0,1,0,0)" fill="none"/>

<clipPath id="_clipPath_KaLHNZ4akd6kuMzIQ40dK06xfStV3uiC">

<rect x="430.344" y="606.172" width="291" height="84.186" transform="matrix(1,0,0,1,0,0)" fill="transparent" stroke-width="3" stroke="rgb(0,0,0)" stroke-linejoin="miter" stroke-linecap="square" stroke-miterlimit="2"/>

<rect x="431.844" y="607.672" width="288" height="81.186" transform="matrix(1,0,0,1,0,0)" fill="none"/>

</clipPath>

<g clip-path="url(#_clipPath_KaLHNZ4akd6kuMzIQ40dK06xfStV3uiC)">

<g>

<g>

<path d=" M 590.134 591.108 L 735.016 601.108 L 731.016 712.108 L 503.016 713.108 L 590.134 591.108 Z " fill="rgb(185,185,185)"/>

<path d=" M 618.183 515.612 Q 617.03 543.62 632.511 562.393 C 647.991 581.165 660.116 576.748 669.847 588.675 C 679.155 600.083 677.182 619.376 671.002 632.421 C 663.198 648.892 658.773 687.221 671.566 684.283 C 683.083 681.637 657.914 606.386 698.927 626.22 Q 712.754 632.907 731.061 614.635 L 654.366 488.622 L 618.183 515.612 Z " fill="rgb(116,116,116)"/>

<path d=" M 590.134 606.756 L 516.288 723.826 L 491.39 723.826 L 561.206 606.202 L 590.134 606.756 L 590.134 606.756 Z " fill="rgb(0,0,0)"/>

</g>

<g>

<path d=" M 514.225 859.588 L 476.662 859.588 L 472.92 782.347 L 515.425 800.629 C 516.05 823.858 515.638 843.523 514.225 859.588 Z " fill="rgb(255,255,255)"/>

<path d=" M 557.841 703.485 L 587.053 755.651 L 580.859 830.722 L 594.178 837.945 C 587.498 846.264 560.835 853.49 514.225 859.588 C 516.647 838.774 517.034 819.133 515.425 800.629 C 522.261 765.876 536.388 733.506 557.841 703.485 Z " fill="rgb(232,232,232)"/>

<path d=" M 432.443 540.404 L 546.511 550.984 L 581.919 660.041 L 591.126 659.333 L 585.46 759.185 L 557.134 702.531 C 533.776 739.42 519.365 772.48 513.936 801.674 L 469.321 779.721 C 463.479 727.544 440.806 664.529 401.337 590.641 L 432.443 540.404 Z " fill="rgb(118,0,0)"/>

<path d=" M 595.729 836.994 L 638.927 864.613 L 621.223 875.235 L 511.457 886.566 L 471.8 884.441 L 474.632 858.239 L 516.414 858.947 C 554.689 856.326 581.115 849.021 595.729 836.994 Z " fill="rgb(118,0,0)"/>

<path d=" M 468.068 890.691 Q 478.342 831.336 442.967 690.333 L 430.372 689.879 L 430.313 658.212 Q 410.596 614.532 398.511 591.802 L 428.168 531.686 C 473.343 542.116 513.455 546.715 548.579 545.41 L 587.053 655.659 L 574.229 655.659 L 540.029 557.033 C 509.132 556.598 473.246 551.777 432.443 542.499 L 405.369 591.802 C 462.712 692.509 487.399 792.151 479.468 890.691 L 468.068 890.691 Z " fill="rgb(0,0,0)"/>

<path d=" M 481.531 666.693 L 476.618 664.517 C 476.231 675.996 476.752 685.86 478.217 694.072 L 482.8 696.36 C 480.851 686.731 480.415 676.854 481.531 666.693 Z " fill="rgb(0,0,0)"/>

<path d=" M 479.468 679.171 C 513.01 667.758 552.422 657.796 597.741 649.247 L 587.053 827.758 L 647.615 862.467 L 605.578 890.691 L 594.178 890.691 L 632.567 864.422 L 574.229 831.704 L 587.053 662.474 C 553.237 663.902 517.363 672.567 479.468 688.434 L 479.468 679.171 Z " fill="rgb(0,0,0)"/>

<path d=" M 617.913 877.829 L 606.688 890.691 L 468.068 890.691 L 479.468 877.829 C 541.469 879.864 591.984 875.407 631.047 864.422 L 617.913 877.829 Z " fill="rgb(0,0,0)"/>

<path d=" M 476.618 644.705 C 477.384 620.363 462.647 584.354 432.443 536.64 L 428.168 542.499 C 448.993 573.833 465.13 607.913 476.618 644.705 Z " fill="rgb(0,0,0)"/>

<path d=" M 509.392 729.491 C 519.411 781.733 519.964 833.164 514.707 883.744 L 507.224 883.744 C 517.963 837.309 516.794 785.903 509.392 729.491 Z " fill="rgb(0,0,0)"/>

<path d=" M 587.053 762.755 C 580.041 738.207 570.291 716.087 557.841 696.36 C 531.53 734.054 515.934 767.328 514.707 796.145 L 471.63 777.528 L 471.63 785.421 L 516.517 807.602 C 524.451 766.815 538.824 733.093 557.841 708.263 C 569.276 723.448 579.001 746.548 587.053 777.528 L 587.053 762.755 Z " fill="rgb(0,0,0)"/>

<path d=" M 596.13 840.759 L 590.364 835.312 C 574.833 854.578 531.373 859.542 476.618 857.382 L 476.618 861.265 C 523.932 859.55 568.384 860.094 596.13 840.759 Z " fill="rgb(0,0,0)"/>

<path d=" M 565.97 742.711 C 566.305 736.697 564.027 731.672 560.886 731.497 C 557.745 731.323 554.923 736.063 554.588 742.077 C 554.253 748.091 556.531 753.116 559.672 753.291 C 562.813 753.466 565.635 748.725 565.97 742.711 Z " fill="rgb(0,0,0)"/>

</g>

</g>

</g>

<rect x="430.344" y="606.172" width="291" height="84.186" transform="matrix(1,0,0,1,0,0)" fill="transparent" stroke-width="3" stroke="rgb(0,0,0)" stroke-linejoin="miter" stroke-linecap="square" stroke-miterlimit="2"/>

<rect x="430.344" y="511.765" width="291" height="84.186" transform="matrix(1,0,0,1,0,0)" fill="transparent" stroke-width="3" stroke="rgb(0,0,0)" stroke-linejoin="miter" stroke-linecap="square" stroke-miterlimit="2"/>

<rect x="431.844" y="513.265" width="288" height="81.186" transform="matrix(1,0,0,1,0,0)" fill="none"/>

<clipPath id="_clipPath_bIqCq3eI1oaYcI3taNbgNY6uLpFNi8jJ">

<rect x="430.344" y="511.765" width="291" height="84.186" transform="matrix(1,0,0,1,0,0)" fill="transparent" stroke-width="3" stroke="rgb(0,0,0)" stroke-linejoin="miter" stroke-linecap="square" stroke-miterlimit="2"/>

<rect x="431.844" y="513.265" width="288" height="81.186" transform="matrix(1,0,0,1,0,0)" fill="none"/>

</clipPath>

<g clip-path="url(#_clipPath_bIqCq3eI1oaYcI3taNbgNY6uLpFNi8jJ)">

<g>

<g>

<path d=" M 510.368 693.79 L 486.532 693.79 L 484.158 644.779 L 511.129 656.379 C 511.526 671.118 511.264 683.597 510.368 693.79 Z " fill="rgb(255,255,255)"/>

<path d=" M 538.043 594.738 L 556.579 627.839 L 552.649 675.474 L 561.1 680.057 C 556.861 685.336 539.943 689.921 510.368 693.79 C 511.904 680.583 512.15 668.12 511.129 656.379 C 515.467 634.327 524.431 613.787 538.043 594.738 Z " fill="rgb(232,232,232)"/>

<path d=" M 458.474 491.257 L 530.854 497.971 L 553.322 567.171 L 559.163 566.722 L 555.569 630.081 L 537.594 599.799 C 522.773 623.207 513.629 638.518 510.184 657.042 L 481.874 643.112 C 478.168 610.004 463.781 570.019 438.736 523.135 L 458.474 491.257 Z " fill="rgb(118,0,0)"/>

<path d=" M 562.084 679.454 L 589.495 696.979 L 578.261 703.719 L 508.611 710.909 L 483.447 709.561 L 485.245 692.935 L 511.757 693.384 C 536.043 691.721 552.811 687.085 562.084 679.454 Z " fill="rgb(118,0,0)"/>

<path d=" M 481.079 713.526 C 490.366 659.877 475.646 596.667 436.943 523.871 L 455.762 485.726 C 484.426 492.344 509.879 495.262 532.166 494.434 L 556.579 564.391 L 548.442 564.391 L 526.741 501.809 C 507.136 501.533 484.365 498.474 458.474 492.587 L 441.295 523.871 C 477.68 587.773 493.345 650.999 488.313 713.526 L 481.079 713.526 Z " fill="rgb(0,0,0)"/>

<path d=" M 489.622 571.392 L 486.504 570.011 C 486.259 577.295 486.589 583.554 487.519 588.765 L 490.427 590.217 C 489.19 584.107 488.914 577.84 489.622 571.392 Z " fill="rgb(0,0,0)"/>

<path d=" M 488.313 579.31 C 509.596 572.068 534.605 565.746 563.361 560.322 L 556.579 673.593 L 595.008 695.617 L 568.334 713.526 L 561.1 713.526 L 585.46 696.857 L 548.442 676.097 L 556.579 568.715 C 535.122 569.621 512.359 575.119 488.313 585.187 L 488.313 579.31 Z " fill="rgb(0,0,0)"/>

<path d=" M 576.161 705.365 L 569.038 713.526 L 481.079 713.526 L 488.313 705.365 C 527.655 706.656 559.708 703.828 584.495 696.857 L 576.161 705.365 Z " fill="rgb(0,0,0)"/>

<path d=" M 486.504 557.44 C 486.991 541.994 477.64 519.145 458.474 488.869 L 455.762 492.587 C 468.975 512.469 479.215 534.094 486.504 557.44 Z " fill="rgb(0,0,0)"/>

<path d=" M 507.301 611.239 C 513.658 644.389 514.009 677.023 510.673 709.118 L 505.925 709.118 C 512.739 679.654 511.998 647.035 507.301 611.239 Z " fill="rgb(0,0,0)"/>

<path d=" M 556.579 632.347 C 552.13 616.77 545.494 609.916 537.594 597.399 C 520.899 621.317 511.452 635.248 510.673 653.534 L 483.34 641.721 L 483.34 646.729 L 511.822 660.804 C 516.856 634.922 525.527 620.707 537.594 604.951 C 544.85 614.587 551.47 622.063 556.579 641.721 L 556.579 632.347 Z " fill="rgb(0,0,0)"/>

<path d=" M 562.339 681.843 L 558.68 678.386 C 548.825 690.611 521.248 693.761 486.504 692.391 L 486.504 694.855 C 516.527 693.766 544.733 694.112 562.339 681.843 Z " fill="rgb(0,0,0)"/>

<path d=" M 543.201 619.628 C 543.414 615.812 541.968 612.624 539.975 612.513 C 537.982 612.402 536.192 615.41 535.979 619.226 C 535.766 623.042 537.212 626.23 539.205 626.341 C 541.198 626.452 542.989 623.444 543.201 619.628 Z " fill="rgb(0,0,0)"/>

</g>

<g>

<path d=" M 1002.605 625.792 C 988.53 641.613 976.355 645.825 966.125 638.416 C 975.381 648.719 988.058 646.605 1004.203 632.061 L 1002.605 625.792 Z " fill="rgb(0,0,0)"/>

<path d=" M 1025.031 502.358 L 1007.004 621.059 L 981.427 628.387 L 960.027 597.191 C 960.743 548.237 982.403 516.634 1025.031 502.358 Z " fill="rgb(232,232,232)"/>

<path d=" M 819.982 485.197 L 857.085 437.733 L 857.085 386.901 L 962.03 409.723 L 992.951 336.562 L 788.835 361.104 L 774.043 389.137 L 687.362 396.224 L 685.455 432.67 L 639.169 474.398 C 647.3 503.716 660.39 527.285 678.464 545.08 C 725.595 533.019 772.76 513.066 819.982 485.197 Z " fill="rgb(255,255,255)"/>

<path d=" M 676.859 669.449 L 807.55 661.006 L 783.344 712.535 L 573.281 697.364 C 590.76 685.532 603.004 669.058 610.038 647.917 L 676.859 669.449 Z " fill="rgb(255,255,255)"/>

<path d=" M 995.681 336.562 L 1047.872 400.001 L 1029.592 474.398 C 971.173 464.88 902.513 467.148 823.637 481.177 L 859.113 437.733 L 859.113 384.266 L 961.123 409.248 L 995.681 336.562 Z " fill="rgb(232,232,232)"/>

<path d=" M 998.782 685.932 L 992.44 719.124 L 782.994 708.907 L 811.091 662.931 L 998.782 685.932 Z " fill="rgb(232,232,232)"/>

<path d=" M 639.086 477.649 C 647.877 503.362 660.995 526.527 678.464 547.121 C 727.253 532.782 774.271 512.149 819.544 485.197 C 907.945 463.405 980.226 460.897 1036.412 477.649 L 1030.802 502.358 C 945.775 511.998 943.45 660.031 1008.747 621.059 L 1004.203 685.932 L 807.503 661.006 L 676.859 670.736 L 586.663 646.272 C 565.514 584.434 588.017 516.769 639.086 477.649 Z " fill="rgb(185,185,185)"/>

<path d=" M 1036.412 474.398 C 1042.096 448.296 1048.431 422.239 1055.402 396.224 L 997.059 327.184 C 917.436 329.625 845.116 339.601 780.124 357.09 L 763.689 389.137 L 780.124 392.424 L 794.915 365.307 C 862.314 350.891 928.318 343.468 992.951 343.014 L 1041.946 400.001 C 1036.574 419.046 1030.94 442.956 1025.031 471.953 L 1036.412 474.398 L 1036.412 474.398 Z " fill="rgb(0,0,0)"/>

<path d=" M 1004.147 685.932 C 1003.006 699.16 1002.015 712.398 1001.185 725.648 L 547.658 704.075 L 580.09 694.643 L 788.835 701.875 L 985.357 710.787 C 986.689 701.475 988.012 692.345 989.316 683.546 L 1004.147 685.932 L 1004.147 685.932 Z " fill="rgb(0,0,0)"/>

<path d=" M 1012.501 682.719 L 805.386 652.911 L 678.464 665.912 L 617.799 640.18 L 604.696 635.689 L 596.652 654.025 L 605.564 659.706 L 606.841 651.93 L 676.859 675.489 L 809.79 663.569 L 997.059 689.501 L 1012.501 682.719 Z " fill="rgb(0,0,0)"/>

<path d=" M 853.845 384.088 L 853.002 440.389 C 772.904 522.235 756.413 595.781 803.554 661.006 L 770.69 710.337 L 793.382 710.337 L 819.982 658.523 C 766.437 595.212 781.31 522.509 864.622 440.389 L 864.622 386.901 L 853.845 384.088 Z " fill="rgb(0,0,0)"/>

<path d=" M 961.454 362.592 C 961.196 357.208 951.316 353.302 939.404 353.874 C 927.493 354.445 918.033 359.28 918.292 364.664 C 918.55 370.048 928.43 373.954 940.341 373.382 C 952.252 372.81 961.713 367.975 961.454 362.592 L 961.454 362.592 Z  M 967.393 364.56 C 967.043 357.27 955.178 351.908 940.914 352.593 C 926.651 353.278 915.354 359.752 915.704 367.041 C 916.054 374.331 927.919 379.693 942.183 379.008 C 956.447 378.323 967.743 371.849 967.393 364.56 L 967.393 364.56 Z  M 901.191 371.924 L 903.479 367.237 L 903.479 367.237 C 885.897 368.538 869.199 370.196 853.352 372.249 L 856.621 376.007 C 869.919 374.654 890.614 372.683 901.191 371.924 L 901.191 371.924 Z  M 898.807 376.809 L 896.255 382.036 L 863.932 384.408 L 860.029 379.923 C 864.678 379.444 869.483 378.969 874.454 378.527 C 882.16 377.843 890.265 377.236 898.807 376.809 L 898.807 376.809 Z  M 905.213 363.684 L 907.732 358.526 C 886.185 360.306 866.272 362.797 847.951 366.042 L 850.705 369.208 C 868.454 366.705 886.634 364.853 905.213 363.684 L 905.213 363.684 L 905.213 363.684 Z " fill-rule="evenodd" fill="rgb(232,232,232)"/>

<path d=" M 957.701 580.303 C 942.739 597.188 930.903 653.244 967.864 665.912 C 977.057 669.062 992.062 670.991 999.32 647.917 L 1001.185 625.287 C 971.792 637.374 963.458 623.368 957.701 580.303 Z " fill="rgb(116,116,116)"/>

<path d=" M 621.388 498.46 Q 620.822 512.223 628.429 521.449 C 636.037 530.674 641.995 528.503 646.777 534.364 C 651.351 539.97 650.381 549.451 647.344 555.862 C 643.51 563.956 640.49 584.778 646.777 583.334 C 652.436 582.034 640.913 543.068 661.067 552.815 Q 667.862 556.101 676.859 547.121 L 639.169 485.197 L 621.388 498.46 Z " fill="rgb(116,116,116)"/>

<path d=" M 1004.203 475.586 C 995.61 478.166 994.749 482.745 985.651 485.197 C 976.962 487.537 975.402 481.985 965.921 483.497 C 956.44 485.009 947.474 490.904 941.995 491.512 C 929.355 492.916 918.226 473.172 903.415 475.758 C 921.984 466.76 974.466 468.281 1004.203 475.586 Z " fill="rgb(116,116,116)"/>

<path d=" M 1032.003 481.177 L 1041.946 470.976 L 1033.195 505.911 C 946.587 504.637 954.636 664.998 1012.889 611.867 L 1017.374 618.546 L 1015.323 626.091 L 1017.351 631.879 L 1013.748 635.437 L 1015.323 694.643 L 992.75 695.836 L 998.782 628.387 C 942.678 658.373 932.328 531.043 1025.775 498.169 L 1032.003 481.177 Z " fill="rgb(0,0,0)"/>

<path d=" M 934.65 621.059 L 936.365 614.18 C 944.994 653.319 976.915 671.632 999.32 635.689 L 1002.247 640.477 C 965.846 678.765 947.151 658.904 934.65 621.059 Z " fill="rgb(0,0,0)"/>

<path d=" M 835.294 608.113 L 834.087 612.913 L 852.507 616.666 L 847.512 618.861 L 833.417 615.58 L 829.988 629.218 L 829.7 621.889 L 830.783 614.967 L 825.556 613.75 L 824.043 625.287 L 819.544 629.329 L 822.278 612.987 L 799.102 607.592 L 807.503 607.496 L 822.679 610.588 L 823.399 606.281 L 804.862 603.426 L 800.009 598.385 L 823.867 603.483 L 825.548 593.437 L 829.025 587.302 L 826.82 604.114 L 832.297 605.284 L 835.242 586.456 L 839.377 591.873 L 835.816 606.036 L 844.106 607.807 L 852.684 610.792 L 835.294 608.113 Z  M 831.935 607.596 L 831.196 612.324 L 825.885 611.242 L 826.474 606.755 L 831.935 607.596 Z " fill-rule="evenodd" fill="rgb(0,0,0)"/>

<path d=" M 718.926 409.723 L 717.384 428.225 L 714.295 427.751 L 715.648 409.248 L 718.926 409.723 L 718.926 409.723 L 718.926 409.723 L 718.926 409.723 Z  M 712.853 409.248 L 710.988 424.422 L 708.568 424.031 L 709.289 408.94 L 712.853 409.248 L 712.853 409.248 L 712.853 409.248 Z  M 716.416 432.67 L 716.628 430.683 L 702.559 428.225 L 703.346 435.046 L 716.416 432.67 L 716.416 432.67 Z  M 721.182 406.067 L 699.818 405.557 L 701.863 435.046 L 717.995 436.12 L 721.182 406.067 L 721.182 406.067 L 721.182 406.067 L 721.182 406.067 L 721.182 406.067 Z  M 723.947 402.959 L 696.19 402.959 L 699.818 437.733 L 721.182 438.827 L 723.947 402.959 L 723.947 402.959 L 723.947 402.959 L 723.947 402.959 L 723.947 402.959 Z  M 705.013 408.656 L 704.182 421.163 L 702.559 420.85 L 702.418 408.656 L 705.013 408.656 Z " fill-rule="evenodd" fill="rgb(232,232,232)"/>

<path d=" M 685.455 422.194 L 684.769 439.099 C 598.507 496.954 561.135 571.127 594.424 642.068 C 589.866 675.107 597.524 694.526 570.671 704.075 L 540.764 704.075 C 575.535 692.403 580.096 673 582.189 642.068 C 550.291 572.258 600.288 497.716 685.455 422.194 Z " fill="rgb(0,0,0)"/>

<path d=" M 990.104 333.169 L 960.027 404.403 L 859.113 379.867 L 682.562 390.552 L 682.562 447.935 L 688.894 453.475 L 691.268 400.001 L 857.085 389.137 L 965.518 414.297 L 997.059 339.897 L 990.104 333.169 Z " fill="rgb(0,0,0)"/>

<g>

<path d=" M 978.843 404.013 L 955.655 396.194 C 950.274 396.334 948.155 399.047 949.334 404.295 L 970.147 417.462 C 966.679 410.566 969.293 403.904 978.843 404.013 Z " fill="rgb(223,178,110)"/>

<path d=" M 1005.73 413.421 L 977.078 403.903 C 969.232 405.883 966.5 409.889 968.918 415.883 L 993.665 432.2 C 1013.833 446.53 1024.224 421.095 1005.73 413.421 Z " fill="rgb(255,255,255)"/>

<path d=" M 1015.375 435.067 C 1019.035 429.794 1016.775 421.884 1010.333 417.413 C 1003.891 412.943 995.69 413.595 992.031 418.869 C 988.372 424.142 990.631 432.053 997.073 436.523 C 1003.515 440.993 1011.716 440.341 1015.375 435.067 Z " fill="rgb(93,93,93)"/>

<path d=" M 976.983 404.722 L 1001.954 413.498 C 993.842 412.854 987.642 415.755 987.712 422.559 C 987.725 423.831 987.835 425.031 988.029 426.161 L 988.029 426.161 L 970.61 415.575 C 967.975 410.122 970.394 405.465 976.983 404.722 Z  M 975.092 404.058 L 956.766 397.617 C 952.53 397.34 950.536 399.329 950.819 403.547 L 968.198 414.108 C 966.599 409.441 969.414 404.915 975.092 404.058 Z  M 1014.624 418.786 C 1005.333 415.212 999.066 416.443 995.828 422.477 C 1001.979 417.321 1008.576 416.858 1015.625 421.087 L 1014.624 418.786 L 1014.624 418.786 L 1014.624 418.786 Z  M 989.986 431.882 C 996.163 443.197 1012.969 443.518 1015.657 438.007 C 1023.315 422.304 1007.068 419.088 1003.557 420.909 C 990.077 427.904 1003.943 446.819 1009.1 428.357 C 999.559 441.513 995.289 427.91 1003.659 423.961 C 1009.563 421.177 1018.541 430.577 1013.535 435.747 C 1006.966 442.53 992.236 439.33 991.791 422.423 C 991.636 416.517 1000.486 413.169 1012.275 417.547 L 1012.275 417.547 L 1009.282 414.913 C 1008.443 414.663 1007.611 414.443 1006.788 414.255 L 1010.492 414.131 L 956.113 395.178 C 949.648 394.139 945.39 399.283 947.988 404.34 L 989.986 431.882 L 989.986 431.882 Z " fill-rule="evenodd" fill="rgb(0,0,0)"/>

</g>

<path d=" M 1041.946 470.976 C 979.033 456.839 906.884 459.071 825.524 477.649 L 815.235 495.216 C 898.852 470.395 971.101 465.723 1032.003 481.177 L 1041.946 470.976 Z " fill="rgb(0,0,0)"/>

<path d=" M 823.857 475.759 C 765.489 509.983 717.478 531.601 679.849 540.589 C 664.518 524.256 651.757 501.059 641.588 470.976 L 646.477 464.885 L 639.086 462.627 L 631.491 475.759 C 642.767 506.177 657.881 532.155 676.859 553.67 C 720.576 541.785 765.858 522.308 812.731 495.216 L 823.857 475.759 Z " fill="rgb(0,0,0)"/>

<path d=" M 997.981 626.098 C 1005.18 579.777 1012.063 539.295 1018.637 504.537 L 1030.802 501.117 L 1030.802 501.117 C 1022.666 541.418 1016.044 581.822 1010.948 622.33 L 997.981 626.098 L 997.981 626.098 Z " fill="rgb(0,0,0)"/>

</g>

</g>

</g>

<rect x="430.344" y="511.765" width="291" height="84.186" transform="matrix(1,0,0,1,0,0)" fill="transparent" stroke-width="3" stroke="rgb(0,0,0)" stroke-linejoin="miter" stroke-linecap="square" stroke-miterlimit="2"/>

<rect x="123.541" y="417.358" width="291" height="273" transform="matrix(1,0,0,1,0,0)" fill="transparent" stroke-width="3" stroke="rgb(0,0,0)" stroke-linejoin="miter" stroke-linecap="square" stroke-miterlimit="2"/>

<rect x="125.041" y="418.858" width="288" height="270" transform="matrix(1,0,0,1,0,0)" fill="none"/>

<clipPath id="_clipPath_gpknTNoTYiMP4q9Khb8EZO4IUeSRaMns">

<rect x="123.541" y="417.358" width="291" height="273" transform="matrix(1,0,0,1,0,0)" fill="transparent" stroke-width="3" stroke="rgb(0,0,0)" stroke-linejoin="miter" stroke-linecap="square" stroke-miterlimit="2"/>

<rect x="125.041" y="418.858" width="288" height="270" transform="matrix(1,0,0,1,0,0)" fill="none"/>

</clipPath>

<g clip-path="url(#_clipPath_gpknTNoTYiMP4q9Khb8EZO4IUeSRaMns)">

<g>

<g>

<ellipse cx="159.0125076762858" cy="673.9866935606476" rx="29.33152599708572" ry="1.3384024830687622" fill="rgb(0,0,0)"/>

<path d=" M 157.561 667.389 L 149.593 667.389 L 148.799 651.003 L 157.816 654.881 C 157.949 659.809 157.861 663.98 157.561 667.389 Z " fill="rgb(255,255,255)"/>

<path d=" M 166.814 634.273 L 173.011 645.339 L 171.697 661.265 L 174.523 662.797 C 173.105 664.562 167.449 666.095 157.561 667.389 C 158.075 662.973 158.157 658.806 157.816 654.881 C 159.266 647.508 162.263 640.642 166.814 634.273 Z " fill="rgb(232,232,232)"/>

<path d=" M 140.212 599.677 L 164.411 601.921 L 171.922 625.057 L 173.875 624.906 L 172.673 646.089 L 166.664 634.071 C 161.709 641.896 158.652 648.909 157.5 655.103 L 148.035 650.446 C 146.796 639.377 141.986 626.009 133.613 610.334 L 140.212 599.677 Z " fill="rgb(118,0,0)"/>

<path d=" M 174.852 662.595 L 184.016 668.454 L 180.26 670.708 L 156.974 673.112 L 148.561 672.661 L 149.162 667.102 L 158.026 667.253 C 166.145 666.697 171.751 665.147 174.852 662.595 Z " fill="rgb(118,0,0)"/>

<path d=" M 147.203 673.865 C 150.308 655.929 145.142 634.718 132.203 610.381 L 139.305 597.828 C 149.363 598.131 157.882 599.116 164.849 600.739 L 173.011 624.127 L 170.29 624.127 L 163.035 603.205 C 156.453 601.844 148.85 600.831 140.212 600.121 L 134.469 610.581 C 146.633 631.944 151.87 653.082 150.188 673.987 L 147.203 673.865 Z " fill="rgb(0,0,0)"/>

<path d=" M 150.626 626.468 L 149.583 626.006 C 149.501 628.441 149.612 630.534 149.923 632.276 L 150.895 632.761 C 150.481 630.719 150.389 628.623 150.626 626.468 Z " fill="rgb(0,0,0)"/>

<path d=" M 150.188 629.115 C 157.304 626.694 165.664 624.58 175.278 622.767 L 173.011 660.636 L 185.859 667.999 L 176.941 673.987 L 174.523 673.987 L 182.666 668.414 L 170.29 661.473 L 173.011 625.573 C 165.837 625.876 158.227 627.714 150.188 631.08 L 150.188 629.115 Z " fill="rgb(0,0,0)"/>

<path d=" M 179.558 671.258 L 177.176 673.987 L 175.754 673.987 L 147.77 673.987 L 150.188 671.258 C 163.341 671.69 174.057 670.744 182.344 668.414 L 179.558 671.258 Z " fill="rgb(0,0,0)"/>

<path d=" M 149.583 621.803 C 149.746 616.639 146.62 609 140.212 598.878 L 139.305 600.121 C 143.723 606.768 147.146 613.998 149.583 621.803 Z " fill="rgb(0,0,0)"/>

<path d=" M 156.536 639.79 C 158.661 650.872 158.779 661.783 157.664 672.513 L 156.076 672.513 C 158.354 662.662 158.106 651.757 156.536 639.79 Z " fill="rgb(0,0,0)"/>

<path d=" M 173.011 646.846 C 171.524 641.639 169.455 636.946 166.814 632.761 C 161.233 640.758 157.924 647.816 157.664 653.93 L 148.525 649.98 L 148.525 651.655 L 158.048 656.36 C 159.731 647.708 162.78 640.554 166.814 635.286 C 169.24 638.508 171.303 643.408 173.011 649.98 L 173.011 646.846 Z " fill="rgb(0,0,0)"/>

<path d=" M 174.937 663.394 L 173.713 662.238 C 170.419 666.326 161.199 667.379 149.583 666.921 L 149.583 667.744 C 159.621 667.38 169.051 667.496 174.937 663.394 Z " fill="rgb(0,0,0)"/>

<path d=" M 168.539 642.594 C 168.61 641.318 168.126 640.253 167.46 640.215 C 166.794 640.178 166.195 641.184 166.124 642.46 C 166.053 643.736 166.536 644.802 167.202 644.839 C 167.869 644.876 168.467 643.87 168.539 642.594 Z " fill="rgb(0,0,0)"/>

</g>

<g>

<g clip-path="url(#_clipPath_JGrbWYwPj3qFNYWrRJy2eNnkEX6bIU6M)">

<text transform="matrix(1,0,0,1,133.96,436.236)" style="font-family:'Coming Soon';font-weight:400;font-size:12px;font-style:normal;fill:#000000;stroke:none;">You'll get evicted if you even slightly violate the 

</text>

<text transform="matrix(1,0,0,1,133.96,454.412)" style="font-family:'Coming Soon';font-weight:400;font-size:12px;font-style:normal;fill:#000000;stroke:none;">rules, but no one else will, no matter what they 

</text>

<text transform="matrix(1,0,0,1,133.96,472.588)" style="font-family:'Coming Soon';font-weight:400;font-size:12px;font-style:normal;fill:#000000;stroke:none;">constantly do to make your life a living hell.

</text>

<text transform="matrix(1,0,0,1,133.96,490.763)" style="font-family:'Coming Soon';font-weight:400;font-size:12px;font-style:normal;fill:#000000;stroke:none;">There's nowhere to park, and it's painted with 

</text>

<text transform="matrix(1,0,0,1,133.96,508.939)" style="font-family:'Coming Soon';font-weight:400;font-size:12px;font-style:normal;fill:#000000;stroke:none;">actual poison.

</text>

</g>

<defs>

<clipPath id="_clipPath_JGrbWYwPj3qFNYWrRJy2eNnkEX6bIU6M">

<rect x="0" y="0" width="275.28" height="92.576" transform="matrix(1,0,0,1,132.401,423.896)"/>

</clipPath>

</defs>

<path d=" M 309.01 526.351 L 298.796 516.472 L 294.174 514.315 L 309.01 526.351 Z " fill="rgb(0,0,0)"/>

</g>

<g>

<path d=" M 388.754 645.916 C 384.063 651.188 380.005 652.592 376.596 650.123 C 379.68 653.557 383.905 652.852 389.286 648.005 L 388.754 645.916 Z " fill="rgb(0,0,0)"/>

<path d=" M 396.227 604.779 L 390.219 644.339 L 381.695 646.781 L 374.564 636.384 C 374.802 620.069 382.021 609.537 396.227 604.779 Z " fill="rgb(232,232,232)"/>

<path d=" M 327.891 599.06 L 340.068 583.697 L 340.256 566.585 L 375.231 573.907 L 385.366 551.675 C 367.982 549.248 345.359 551.263 317.511 557.703 L 312.581 567.046 L 283.693 569.408 L 283.057 581.554 L 267.632 595.461 C 270.341 605.232 274.704 613.086 280.727 619.017 C 296.435 614.998 312.153 608.348 327.891 599.06 Z " fill="rgb(255,255,255)"/>

<path d=" M 280.295 660.085 L 323.85 657.271 C 323.164 660.173 321.349 664.947 315.072 673.235 L 247.508 669.542 L 244.28 665.578 L 260.276 654.229 L 280.295 660.085 Z " fill="rgb(255,255,255)"/>

<path d=" M 386.446 549.524 L 403.84 570.667 L 397.747 595.461 C 378.278 592.289 353.192 593.647 326.905 598.323 L 340.068 583.822 L 340.256 566.585 L 374.929 573.749 L 386.446 549.524 Z " fill="rgb(232,232,232)"/>

<path d=" M 387.479 665.959 L 385.366 677.02 L 314.969 673.616 L 324.928 658.293 L 387.479 665.959 Z " fill="rgb(232,232,232)"/>

<path d=" M 256.546 646.868 C 250.062 629.693 253.975 614.256 267.604 596.544 C 270.534 605.114 274.906 612.834 280.727 619.697 C 296.987 614.919 312.657 608.042 327.745 599.06 C 357.206 591.797 381.295 590.961 400.02 596.544 L 398.151 604.779 C 369.814 607.992 369.039 657.327 390.8 644.339 L 389.286 665.959 L 323.732 657.652 L 280.192 660.894 L 260.173 654.609 L 255.83 657.991 L 251.473 651.037 L 256.546 646.868 Z " fill="rgb(185,185,185)"/>

<path d=" M 400.02 595.461 C 401.914 586.762 404.026 578.078 406.349 569.408 L 386.905 546.399 C 360.369 547.213 336.267 550.537 314.607 556.366 L 309.13 567.046 L 314.607 568.142 L 319.537 559.104 C 341.999 554.3 363.996 551.826 385.536 551.675 L 401.865 570.667 C 400.074 577.014 398.197 584.982 396.227 594.646 L 400.02 595.461 L 400.02 595.461 Z " fill="rgb(0,0,0)"/>

<path d=" M 425.058 678.309 C 425.095 676.723 378.206 674.319 320.414 672.944 C 262.623 671.569 215.672 671.74 215.635 673.326 C 215.597 674.912 262.486 677.316 320.278 678.692 C 378.07 680.067 425.02 679.896 425.058 678.309 Z " fill="rgb(0,0,0)"/>

<path d=" M 323.665 657.588 C 322.487 662.069 320.224 666.186 316.891 669.923 L 318.842 668.867 C 321.234 665.802 323.331 662.181 325.147 657.991 L 323.665 657.588 Z " fill="rgb(185,185,185)"/>

<path d=" M 322.223 657.378 C 309.937 640.171 310.914 621.229 325.147 600.557 L 325.147 600.557 L 329.21 599.675 C 313.938 620.763 313.502 639.811 327.891 656.824 L 327.499 657.588 L 322.223 657.378 L 322.223 657.378 Z " fill="rgb(0,0,0)"/>

<path d=" M 325.147 600.557 C 328.84 595.196 334.229 589.472 339.703 583.879 L 339.546 570.075 L 340.256 569.019 L 340.462 584.127 C 335.085 589.428 330.563 594.611 326.905 599.675 L 325.147 600.557 L 325.147 600.557 Z " fill="rgb(185,185,185)"/>

<path d=" M 384.966 553.057 L 375.744 572.044 L 374.929 571.65 L 383.698 553.474 L 384.966 553.057 Z " fill="rgb(185,185,185)"/>

<path d=" M 375.039 558.199 C 374.953 556.405 371.66 555.103 367.691 555.294 C 363.721 555.485 360.568 557.096 360.654 558.89 C 360.741 560.684 364.033 561.986 368.003 561.796 C 371.972 561.605 375.125 559.994 375.039 558.199 L 375.039 558.199 Z  M 377.018 558.855 C 376.902 556.426 372.948 554.639 368.194 554.867 C 363.44 555.095 359.675 557.253 359.792 559.682 C 359.909 562.112 363.863 563.899 368.617 563.67 C 373.37 563.442 377.135 561.285 377.018 558.855 L 377.018 558.855 Z  M 355.416 560.388 L 356.179 558.825 L 356.179 558.825 C 350.319 559.259 344.754 559.811 339.473 560.496 L 340.563 561.748 C 344.995 561.297 351.891 560.64 355.416 560.388 L 355.416 560.388 Z  M 354.622 562.015 L 353.771 563.757 L 342.999 564.548 L 341.698 563.053 C 343.248 562.893 344.849 562.735 346.506 562.588 C 349.074 562.36 351.775 562.158 354.622 562.015 L 354.622 562.015 Z  M 356.757 557.641 L 357.596 555.922 C 350.415 556.516 343.779 557.346 337.673 558.427 L 338.591 559.482 C 344.506 558.648 350.565 558.031 356.757 557.641 L 356.757 557.641 L 356.757 557.641 Z " fill-rule="evenodd" fill="rgb(185,185,185)"/>

<path d=" M 373.788 630.756 C 368.802 636.383 364.857 655.065 377.175 659.286 C 380.239 660.337 385.24 660.979 387.659 653.289 L 388.28 645.748 C 378.484 649.776 375.707 645.108 373.788 630.756 Z " fill="rgb(116,116,116)"/>

<path d=" M 261.706 603.48 Q 261.517 608.067 264.052 611.142 C 266.588 614.216 268.573 613.493 270.167 615.446 C 271.691 617.314 271.368 620.474 270.356 622.61 C 269.078 625.308 268.072 632.247 270.167 631.766 C 272.053 631.333 268.213 618.346 274.93 621.595 Q 277.194 622.69 280.192 619.697 L 267.632 599.06 L 261.706 603.48 Z " fill="rgb(116,116,116)"/>

<path d=" M 389.286 595.857 C 386.422 596.717 386.135 598.243 383.103 599.06 C 380.207 599.84 379.688 597.99 376.528 598.493 C 373.368 598.997 370.38 600.962 368.554 601.165 C 364.341 601.632 360.632 595.052 355.696 595.914 C 361.885 592.916 379.376 593.422 389.286 595.857 Z " fill="rgb(116,116,116)"/>

<path d=" M 398.551 597.72 L 401.865 594.32 L 398.948 605.963 C 370.084 605.539 372.767 658.982 392.181 641.275 L 393.676 643.501 L 392.992 646.015 L 393.668 647.945 L 392.467 649.13 L 393.482 668.864 L 387.995 669.009 L 387.479 646.781 C 368.782 656.774 365.332 614.339 396.475 603.383 L 398.551 597.72 Z " fill="rgb(0,0,0)"/>

<path d=" M 366.106 644.339 L 366.678 642.046 C 369.553 655.09 380.192 661.193 387.659 649.214 L 388.634 650.81 C 376.503 663.57 370.272 656.951 366.106 644.339 Z " fill="rgb(0,0,0)"/>

<path d=" M 332.994 640.024 L 332.592 641.624 L 338.731 642.874 L 337.066 643.606 L 332.368 642.513 L 331.226 647.058 L 331.13 644.615 L 331.49 642.308 L 329.749 641.903 L 329.244 645.748 L 327.745 647.095 L 328.656 641.648 L 320.932 639.85 L 323.732 639.818 L 328.79 640.849 L 329.03 639.414 L 322.852 638.462 L 321.234 636.782 L 329.186 638.481 L 329.746 635.133 L 330.905 633.088 L 330.17 638.691 L 331.995 639.081 L 332.977 632.807 L 334.355 634.612 L 333.168 639.332 L 335.931 639.922 L 338.789 640.917 L 332.994 640.024 Z  M 331.875 639.852 L 331.628 641.427 L 329.858 641.067 L 330.054 639.571 L 331.875 639.852 Z " fill-rule="evenodd" fill="rgb(0,0,0)"/>

<path d=" M 294.212 573.907 L 293.698 580.073 L 292.669 579.915 L 293.119 573.749 L 294.212 573.907 L 294.212 573.907 L 294.212 573.907 L 294.212 573.907 Z  M 292.188 573.749 L 291.567 578.806 L 290.76 578.675 L 291 573.646 L 292.188 573.749 L 292.188 573.749 L 292.188 573.749 Z  M 293.376 581.554 L 293.446 580.892 L 288.757 580.073 L 289.02 582.346 L 293.376 581.554 L 293.376 581.554 Z  M 294.964 572.688 L 287.844 572.518 L 288.526 582.346 L 293.902 582.704 L 294.964 572.688 L 294.964 572.688 L 294.964 572.688 L 294.964 572.688 L 294.964 572.688 Z  M 295.885 571.653 L 286.635 571.653 L 287.844 583.242 L 294.964 583.606 L 295.885 571.653 L 295.885 571.653 L 295.885 571.653 L 295.885 571.653 L 295.885 571.653 Z  M 289.575 573.551 L 289.298 577.72 L 288.757 577.615 L 288.711 573.551 L 289.575 573.551 Z " fill-rule="evenodd" fill="rgb(232,232,232)"/>

<path d=" M 255.297 648.01 C 246.516 625.573 255.77 602.26 283.057 578.063 L 282.829 583.697 C 258.784 603.168 250.621 623.762 258.354 645.472 L 255.297 648.01 L 255.297 648.01 Z " fill="rgb(0,0,0)"/>

<path d=" M 262.175 654.954 L 245.776 666.768 L 253.684 672.534 L 247.405 672.534 L 241.746 665.959 L 258.536 653.963 L 262.175 654.954 Z " fill="rgb(0,0,0)"/>

<path d=" M 374.564 572.134 L 340.932 563.957 L 282.093 567.518 L 282.093 586.642 L 284.203 588.488 L 284.995 570.667 L 340.256 566.585 L 376.394 575.431 L 374.564 572.134 Z " fill="rgb(0,0,0)"/>

<g>

<path d=" M 380.834 572.004 L 373.107 569.398 C 371.313 569.445 370.607 570.349 371 572.098 L 377.936 576.486 C 376.78 574.188 377.652 571.968 380.834 572.004 Z " fill="rgb(223,178,110)"/>

<path d=" M 389.795 575.139 L 380.246 571.967 C 377.631 572.627 376.721 573.962 377.527 575.96 L 385.774 581.398 C 392.495 586.174 395.958 577.697 389.795 575.139 Z " fill="rgb(255,255,255)"/>

<path d=" M 393.326 582.84 C 394.628 580.964 394.359 578.076 392.067 576.486 C 389.776 574.896 386.323 575.202 385.022 577.077 C 383.72 578.953 384.524 581.767 386.815 583.358 C 389.107 584.948 392.024 584.716 393.326 582.84 Z " fill="rgb(93,93,93)"/>

<path d=" M 392.223 576.607 C 388.029 575.05 384.881 576.241 384.936 578.342 C 385.095 584.356 390.335 585.495 392.672 583.081 C 394.452 581.243 391.258 577.898 389.158 578.889 C 386.181 580.294 387.7 585.133 391.094 580.453 C 389.259 587.02 384.327 580.292 389.122 577.803 C 390.371 577.155 396.151 578.299 393.426 583.885 C 392.256 586.285 383.56 585.577 383.485 578.39 C 383.453 575.277 387.11 574.461 391.158 575.67 L 392.223 576.607 Z " fill="rgb(0,0,0)"/>

<path d=" M 392.817 577.187 C 389.72 575.995 387.632 576.406 386.552 578.417 C 388.602 576.698 390.801 576.544 393.15 577.953 L 392.817 577.187 Z " fill="rgb(0,0,0)"/>

<path d=" M 386.169 583.277 L 370.551 573.035 C 369.685 571.35 371.284 568.063 373.438 568.409 L 391.561 574.726 L 389.907 575.693 L 373.329 569.651 C 371.917 569.558 371.4 570.443 371.495 571.849 L 385.154 580.15 L 386.169 583.277 Z " fill="rgb(0,0,0)"/>

<path d=" M 380.834 572.004 C 377.584 571.64 376.101 574.309 377.936 576.486 L 378.908 577.073 C 376.629 574.434 377.782 571.872 381.557 572.242 L 380.834 572.004 Z " fill="rgb(0,0,0)"/>

</g>

<path d=" M 387.212 646.018 C 389.611 630.58 391.905 617.089 394.096 605.505 L 398.151 604.365 L 398.151 604.365 C 395.439 617.797 393.232 631.262 391.534 644.762 L 387.212 646.018 L 387.212 646.018 Z " fill="rgb(0,0,0)"/>

<path d=" M 389.267 665.959 C 388.887 670.367 388.557 674.779 388.28 679.195 L 250.172 672.534 L 245.776 666.768 L 278.557 669.922 L 317.511 671.272 L 383.005 674.242 C 383.449 671.139 383.89 668.096 384.325 665.164 L 389.267 665.959 L 389.267 665.959 Z " fill="rgb(0,0,0)"/>

<path d=" M 392.051 664.888 L 323.027 654.954 L 280.727 659.286 L 256.503 652.758 L 259.136 654.609 L 280.192 662.478 L 324.494 658.506 L 386.905 667.148 L 392.051 664.888 Z " fill="rgb(0,0,0)"/>

<path d=" M 260.973 643.039 L 249.662 650.433 L 255.83 659.286 L 257.825 656.824 L 253.686 652.112 L 260.173 644.116 L 260.973 643.039 Z " fill="rgb(0,0,0)"/>

<path d=" M 401.865 594.32 C 380.898 589.609 356.224 589.723 329.109 595.914 L 324.928 602.399 C 352.795 594.127 378.254 592.57 398.551 597.72 L 401.865 594.32 Z " fill="rgb(0,0,0)"/>

<path d=" M 329.182 595.914 C 309.73 607.32 293.73 614.525 281.189 617.52 C 276.08 612.077 271.827 604.346 268.438 594.32 L 270.067 592.291 L 267.604 591.538 L 265.073 595.914 C 268.83 606.052 273.868 614.71 280.192 621.88 C 294.762 617.919 309.853 611.428 325.474 602.399 L 329.182 595.914 Z " fill="rgb(0,0,0)"/>

</g>

</g>

</g>

<rect x="123.541" y="417.358" width="291" height="273" transform="matrix(1,0,0,1,0,0)" fill="transparent" stroke-width="3" stroke="rgb(0,0,0)" stroke-linejoin="miter" stroke-linecap="square" stroke-miterlimit="2"/>

<rect x="745.141" y="129.358" width="291" height="273" transform="matrix(1,0,0,1,0,0)" fill="transparent" stroke-width="3" stroke="rgb(0,0,0)" stroke-linejoin="miter" stroke-linecap="square" stroke-miterlimit="2"/>

<rect x="746.641" y="130.858" width="288" height="270" transform="matrix(1,0,0,1,0,0)" fill="none"/>

<g>

<g>

<ellipse cx="776.4195102218634" cy="678.5408766696935" rx="27.034391962408563" ry="1.0797969085753039" fill="rgb(0,0,0)"/>

<path d=" M 768.919 598.442 L 758.456 607.296 L 762.827 624.385 L 764.038 634.804 L 765.311 660.979 Q 762.537 678.113 762.077 679.621 L 792.629 678.099 C 793.315 676.531 796.336 672.982 801.677 667.47 C 797.647 667.606 794.26 667.069 791.849 666.016 L 791.632 664.678 L 790.241 664.068 L 792.561 643.521 L 793.391 637.532 L 789.861 636.852 L 788.613 632.271 L 793.975 629.21 L 793.597 604.045 L 768.919 598.442 Z " fill="rgb(0,0,0)"/>

<path d=" M 773.352 670.703 L 765.665 672.257 C 766.382 669.098 766.875 665.663 767.159 661.935 L 772.958 660.178 L 773.352 670.703 Z " fill="rgb(255,255,255)"/>

<path d=" M 775.354 670.703 L 775.067 659.104 C 778.539 651.826 782.937 647.424 784.457 646.1 Q 787.739 649.937 789.652 657.415 L 789.044 664.308 L 777.635 665.354 L 788.613 665.376 L 781.321 666.22 L 789.861 666.438 L 792.561 667.899 C 787.356 669.779 781.615 670.72 775.354 670.703 Z " fill="rgb(255,255,255)"/>

<path d=" M 798.833 668.816 L 794.162 668.545 C 788.846 670.649 782.403 671.948 774.846 672.422 L 774.992 677.447 C 784.546 675.144 792.488 672.273 798.833 668.816 Z " fill="rgb(118,0,0)"/>

<path d=" M 773.401 672.602 L 765.178 674.233 L 764.568 677.897 L 773.401 677.447 L 773.401 672.602 Z " fill="rgb(118,0,0)"/>

<path d=" M 785.455 652.119 C 785.343 650.716 784.895 649.605 784.456 649.64 C 784.018 649.675 783.753 650.844 783.866 652.247 C 783.979 653.651 784.426 654.762 784.865 654.726 C 785.304 654.691 785.568 653.523 785.455 652.119 Z " fill="rgb(0,0,0)"/>

<path d=" M 761.231 625.798 L 765.708 636.605 L 766.933 659.223 L 773.053 657.532 L 774.357 646.626 L 774.357 656.616 C 777.614 651.273 781.551 647.102 784.378 644.546 Q 787.601 647.887 789.929 653.768 L 791.693 639.001 L 770.588 640.025 L 768.788 629.21 L 792.617 629.001 L 792.024 605.511 L 770.898 601.163 L 772.748 617.221 L 768.923 601.395 L 760.31 607.694 L 764.082 623.022 L 761.231 625.798 Z " fill="rgb(118,0,0)"/>

<path d=" M 766.567 619.997 L 760.192 625.082 L 767.5 642.504 L 767.5 640.701 L 762.249 625.52 L 766.567 619.997 Z " fill="rgb(0,0,0)"/>

<path d=" M 766.992 630.898 L 770.066 628.025 L 770.161 628.798 L 767.685 631.051 L 766.992 630.898 Z " fill="rgb(0,0,0)"/>

</g>

</g>

<g>

<g clip-path="url(#_clipPath_82vUk7lxUDnhaaGliaQzXAkWhpCJwrN7)">

<text transform="matrix(1,0,0,1,755.095,151.751)" style="font-family:'Coming Soon';font-weight:400;font-size:12px;font-style:normal;fill:#000000;stroke:none;">It's one room, on the fourth floor, that costs half 

</text>

<text transform="matrix(1,0,0,1,755.095,169.927)" style="font-family:'Coming Soon';font-weight:400;font-size:12px;font-style:normal;fill:#000000;stroke:none;">your salary - nothing werks, if anything that 

</text>

<text transform="matrix(1,0,0,1,755.095,188.102)" style="font-family:'Coming Soon';font-weight:400;font-size:12px;font-style:normal;fill:#000000;stroke:none;">does werk breaks, I won't fix it - no hot water 

</text>

<text transform="matrix(1,0,0,1,755.095,206.278)" style="font-family:'Coming Soon';font-weight:400;font-size:12px;font-style:normal;fill:#000000;stroke:none;">Tuesdays or Thursdays, electricity cuts out when 

</text>

<text transform="matrix(1,0,0,1,755.095,224.454)" style="font-family:'Coming Soon';font-weight:400;font-size:12px;font-style:normal;fill:#000000;stroke:none;">you sneeze.

</text>

</g>

<defs>

<clipPath id="_clipPath_82vUk7lxUDnhaaGliaQzXAkWhpCJwrN7">

<rect x="0" y="0" width="275.28" height="92.455" transform="matrix(1,0,0,1,753.536,139.411)"/>

</clipPath>

</defs>

<path d=" M 872.44 237.428 L 862.227 227.549 L 857.604 225.392 L 872.44 237.428 Z " fill="rgb(0,0,0)"/>

</g>

<g>

<g clip-path="url(#_clipPath_RDoXjSXoDympByjT9HBEawBDdCMS35l7)">

<text transform="matrix(1,0,0,1,764.536,444.236)" style="font-family:'Coming Soon';font-weight:400;font-size:12px;font-style:normal;fill:#000000;stroke:none;">I'll take it.

</text>

</g>

<defs>

<clipPath id="_clipPath_RDoXjSXoDympByjT9HBEawBDdCMS35l7">

<rect x="0" y="0" width="70.824" height="20.393" transform="matrix(1,0,0,1,764.536,431.896)"/>

</clipPath>

</defs>

<g clip-path="url(#_clipPath_Tk0hPvmY4KLr2YdoKSJrezJN8UZKTBGO)">

<text transform="matrix(1,0,0,1,863.271,456.635)" style="font-family:'Coming Soon';font-weight:400;font-size:12px;font-style:normal;fill:#000000;stroke:none;">Ofcourse you will - that's the 

</text>

<text transform="matrix(1,0,0,1,863.271,474.811)" style="font-family:'Coming Soon';font-weight:400;font-size:12px;font-style:normal;fill:#000000;stroke:none;">power of not having options.

</text>

</g>

<defs>

<clipPath id="_clipPath_Tk0hPvmY4KLr2YdoKSJrezJN8UZKTBGO">

<rect x="0" y="0" width="184.082" height="42.797" transform="matrix(1,0,0,1,863.271,444.295)"/>

</clipPath>

</defs>

<path d=" M 967.794 504.303 L 972.901 497.737 L 978.008 491.172 L 982.63 488.305 L 967.794 504.303 Z " fill="rgb(0,0,0)"/>

<path d=" M 781.217 484.89 L 783.221 468.297 L 781.075 455.867 L 781.217 484.89 Z " fill="rgb(0,0,0)"/>

</g>

<g clip-path="url(#_clipPath_aML7do5NEqcdPxlKV2Tmi0kt2GuXOm9u)">

<text transform="matrix(0,-0.576,0.576,0,738.816,630.466)" style="font-family:'Times New Roman';font-weight:400;font-size:20px;font-style:normal;fill:#000000;stroke:none;">&#xA9;MCMLXXXVIII &#xB7; Trilobyte</text>

</g>

<defs>

<clipPath id="_clipPath_aML7do5NEqcdPxlKV2Tmi0kt2GuXOm9u">

<rect x="0" y="0" width="266" height="24.6" transform="matrix(0,-0.576,0.576,0,727.641,630.466)"/>

</clipPath>

</defs>

<path d=" M 879.13 689.131 L 894.31 692.131 L 745.141 692.131 L 745.141 415.607 L 956.059 415.607 L 962.645 418.607 L 748.141 418.607 L 748.141 689.131 L 879.13 689.131 Z " fill="rgb(0,0,0)"/>

<g>

<g>

<path d=" M 835.417 580.88 L 842.814 577.848 C 844.571 577.782 845.318 578.622 845.043 580.358 L 838.532 585.083 C 839.519 582.763 838.528 580.646 835.417 580.88 Z " fill="rgb(223,178,110)"/>

<path d=" M 826.848 584.506 L 835.99 580.807 C 838.589 581.289 839.563 582.538 838.9 584.543 L 831.171 590.377 C 833.751 587.194 832.609 584.645 826.848 584.506 Z " fill="rgb(255,255,255)"/>

<path d=" M 824.154 591.764 C 822.851 590.121 823.423 587.495 825.43 585.904 C 827.437 584.312 830.124 584.354 831.427 585.997 C 832.729 587.64 832.158 590.266 830.15 591.857 C 828.143 593.449 825.456 593.407 824.154 591.764 Z " fill="rgb(93,93,93)"/>

<path d=" M 836.025 581.078 L 829.134 584.005 C 830.762 584.105 832.226 585.108 832.912 587.11 C 833.029 587.454 833.11 587.784 833.158 588.099 L 833.158 588.099 L 838.194 584.581 C 838.911 582.657 838.07 581.109 836.025 581.078 Z  M 836.627 580.822 L 842.481 578.335 C 843.856 578.157 844.548 578.764 844.543 580.145 L 838.841 584.129 C 839.313 582.485 838.376 580.946 836.627 580.822 Z  M 824.06 586.44 C 827.014 585.082 829.083 585.353 830.264 587.253 C 828.152 585.7 825.991 585.686 823.781 587.211 L 824.06 586.44 L 824.06 586.44 L 824.06 586.44 Z  M 833.08 589.797 C 832.043 593.689 825.135 594.506 824.123 592.728 C 821.3 587.768 826.529 586.382 827.712 586.902 C 832.252 588.902 828.125 595.357 826.06 589.446 C 829.444 593.536 830.553 589.012 827.742 587.899 C 825.759 587.114 823.028 590.366 824.768 591.947 C 827.05 594.022 831.786 592.672 831.579 587.151 C 831.507 585.222 828.552 584.315 824.8 585.988 L 824.8 585.988 L 825.721 585.067 C 825.902 584.938 826.086 584.821 826.274 584.716 L 825.223 584.655 L 842.578 577.39 C 844.664 576.917 846.173 578.952 845.431 580.655 L 833.08 589.797 L 833.08 589.797 Z " fill-rule="evenodd" fill="rgb(0,0,0)"/>

</g>

<g>

<path d=" M 818.991 564.462 C 806.046 533.613 824.485 521.743 837.159 523.993 C 859.967 528.041 861.999 548.837 848.04 555.764 C 826.726 566.341 843.516 531.876 856.458 520.83 C 868.524 510.532 897.306 522.459 868.708 535.664 C 897.749 529.151 875.523 505.06 854.429 520.26 C 844.261 527.587 819.135 570.397 851.172 557.699 C 862.196 553.33 860.67 516.362 830.482 522.924 C 813.859 526.537 808.779 543.831 815.429 558.989 L 818.991 564.462 Z " fill="rgb(0,0,0)"/>

<path d=" M 811.543 568.705 L 826.597 561.52 L 825.661 561.698 L 812.708 567.673 L 811.543 568.705 Z " fill="rgb(0,0,0)"/>

<path d=" M 816.721 575.964 L 830.936 567.237 L 830.024 567.512 L 817.771 574.815 L 816.721 575.964 Z " fill="rgb(0,0,0)"/>

<path d=" M 809.097 563.644 L 825.228 559.396 L 824.275 559.396 L 810.434 562.847 L 809.097 563.644 Z " fill="rgb(0,0,0)"/>

</g>

</g>

<g>

<path d=" M 976.184 569.818 L 998.017 555.437 L 995.541 547.591 L 950.188 556.314 L 950.188 566.878 L 976.184 569.818 Z " fill="rgb(0,0,0)"/>

<path d=" M 973.59 568.5 L 994.835 554.313 L 993.102 550.594 L 958.382 558.667 L 972.225 573.431 L 973.59 568.5 Z " fill="rgb(255,255,255)"/>

<path d=" M 968.99 567.7 L 993.102 550.594 L 958.382 558.667 L 968.99 567.7 Z " fill="rgb(232,232,232)"/>

<path d=" M 968.709 566.878 L 990.383 552.33 L 988.472 554.313 L 967.763 569.275 L 968.709 566.878 Z " fill="rgb(185,185,185)"/>

<path d=" M 884.905 564.725 L 892.527 590.588 C 904.932 613.032 909.573 640.812 906.411 673.892 L 922.458 673.892 L 1015.064 654.018 C 1005.488 647.013 992.434 639.403 975.863 631.151 C 974.859 615.163 968.973 600.202 958.168 586.232 L 954.902 549.887 L 884.905 564.725 Z " fill="rgb(232,232,232)"/>

<path d=" M 998.58 566.069 L 968.537 568.5 L 964.627 553.589 L 954.902 549.293 L 958.168 586.232 C 970.004 600.377 973.596 613.746 976.488 631.032 L 1014.807 654.018 L 1038.22 631.44 C 1031.101 631.135 1023.659 629.824 1019.037 627.472 C 1023.286 610.817 1016.032 594.657 997.208 578.926 L 998.58 566.069 Z " fill="rgb(255,255,255)"/>

<path d=" M 914.7 664.319 C 928.921 656.09 936.432 651.736 937.218 651.244 C 949.352 647.232 960.626 640.865 975.746 631.032 C 975.298 618.749 969.187 600.488 957.838 586.976 L 898.694 589.378 L 897.561 588.136 L 957.151 585.655 L 955.264 555.108 L 957.151 560.262 L 958.472 585.655 C 969.35 599.172 975.368 614.31 976.488 631.032 C 989.445 637.286 1000.464 643.54 1009.509 649.759 L 1009.991 651.013 C 999.162 644.119 987.726 637.722 976.184 631.555 C 964.089 639.946 951.731 647.549 938.771 652.642 L 912.047 667.704 L 914.7 664.319 Z " fill="rgb(185,185,185)"/>

<path d=" M 894.827 599.616 L 897.382 612.375 C 912.075 624.459 912.686 636.531 901.336 640.295 L 905.389 654.855 L 935.515 638.967 C 946.746 631.384 960.108 626.885 975.563 625.434 L 1004.321 633.954 L 1015.791 626.568 L 1022.107 628.932 L 1025.054 621.391 L 1019.82 620.32 Q 1020.866 611.249 1013.111 595.058 Q 986.457 589.798 965.157 591.639 L 966.182 597.157 C 975.264 599.334 983.187 601.983 987.66 605.564 C 992.171 609.552 995.046 614.739 987.941 618.6 C 985.744 619.816 980.935 618.239 977.252 619.265 Q 974.684 619.98 972.885 620.634 Q 969.011 617.509 967.124 612.955 C 965.358 608.6 964.515 603.416 964.558 597.365 L 966.836 597.365 L 966.445 590.874 L 962.241 591.51 C 934.216 600.768 911.757 603.483 894.827 599.616 Z " fill="rgb(185,185,185)"/>

<path d=" M 988.728 606.359 Q 999.424 614.812 998.531 618.109 C 998.142 619.547 997.273 621.055 995.924 622.634 C 994.142 622.964 995.586 624.603 996.169 624.795 C 989.348 626.003 985.529 622.231 976.488 622.369 Q 973.73 621.848 972.245 620.713 C 973.702 620.844 974.934 619.613 978.301 619.008 C 982.63 620.741 986.688 619.584 990.398 617.434 C 993.137 613.553 992.377 611.332 988.728 606.359 Z " fill="rgb(116,116,116)"/>

<path d=" M 926.034 643.314 C 923.866 643.882 921.603 641.887 919.35 642.553 C 917.199 643.189 917.722 644.688 915.533 645.624 C 913.344 646.559 909.148 646.409 907.923 647.011 C 905.098 648.401 904.362 651.448 903.989 654.934 C 909.195 654.501 919.734 647.451 926.034 643.314 Z " fill="rgb(116,116,116)"/>

<path d=" M 1014.483 626.78 Q 1027.987 633.676 1035.188 633.672 L 1011.935 653.199 L 921.522 671.837 L 908.34 671.98 C 909.121 665.134 909.507 658.416 909.465 651.834 L 909.465 651.834 L 905.741 653.656 C 905.406 661.535 904.073 669.403 901.649 677.262 L 920.786 677.262 L 1013.562 657.904 L 1044.785 628.613 C 1038.821 631.133 1029.376 630.252 1016.422 625.942 L 1014.483 626.78 L 1014.483 626.78 Z " fill="rgb(0,0,0)"/>

<path d=" M 1021.471 620.585 C 1022.742 603.15 1014.662 589.251 998.58 577.376 L 1002.451 563.826 L 970.081 566.145 L 965.006 550.866 L 955.237 546.926 L 881.297 561.503 L 889.427 589.378 C 891.565 593.522 893.521 597.662 895.209 601.797 L 901.136 602.294 L 901.136 602.294 C 899.412 597.496 897.444 592.775 895.214 588.136 L 888.111 565.374 L 955.13 551.612 L 962.975 554.727 L 967.193 569.818 L 997.281 567.077 L 994.463 580.124 C 1011.417 591.061 1019.366 604.346 1018.312 620.012 L 1021.471 620.585 L 1021.471 620.585 Z " fill="rgb(0,0,0)"/>

<path d=" M 907.027 635.56 L 903.989 618.679 L 899.658 614.168 L 903.536 638.825 L 907.027 635.56 Z " fill="rgb(0,0,0)"/>

<path d=" M 855.704 676.966 C 912.018 673.625 963.039 674.145 1008.729 676.036 L 953.143 680.846 L 855.704 676.966 Z " fill="rgb(0,0,0)"/>

<path d=" M 902.915 658.251 L 899.176 639.046 C 915.965 633.319 905.187 619.444 895.214 612.454 L 891.285 598.538 L 894.896 597.236 C 912.995 601.355 931.091 600.238 962.065 590.588 Q 987.393 588.706 1012.619 593.868 L 1015.064 597.236 Q 987.577 590.728 963.575 592.542 C 936.006 600.692 913.952 605.946 897.451 602.92 L 898.63 609.247 C 910.411 622.811 914.314 636.621 903.077 641.151 L 905.999 655.304 L 902.915 658.251 Z " fill="rgb(0,0,0)"/>

<path d=" M 998.114 625.82 C 992.36 622.058 967.626 621.249 948.846 625.991 Q 960.846 621.08 972.245 621.148 C 981.825 620.391 992.137 621.96 998.114 625.82 Z " fill="rgb(0,0,0)"/>

<path d=" M 973.106 620.015 L 975.193 622.369 C 972.138 621.393 967.19 620.922 960.315 620.925 C 966.867 619.981 971.143 619.688 973.106 620.015 Z " fill="rgb(0,0,0)"/>

<path d=" M 1021.099 619.008 L 1020.82 620.06 L 1014.807 619.344 L 1022.987 621.842 L 1020.009 628.203 L 1023.238 629.563 L 1025.956 620.554 L 1021.099 619.008 Z " fill="rgb(0,0,0)"/>

<path d=" M 964.818 595.737 C 1001.272 604.259 998.833 617.589 986.68 620.399 C 985.325 620.712 981.16 620.161 978.812 619.803 C 976.685 619.478 974.815 621.52 973.508 621.417 C 965.271 620.766 960.613 595.036 964.818 595.737 Z  M 971.702 619.008 C 966.309 613.219 963.813 598.044 966.905 598.549 C 993.637 604.672 995.659 614.138 986.044 618.401 C 983.33 619.604 979.326 618.18 977.425 618.435 C 976.246 618.593 972.758 620.141 971.702 619.008 Z " fill-rule="evenodd" fill="rgb(0,0,0)"/>

<path d=" M 919.284 605.063 L 931.352 603.133 L 930.755 603.848 L 920.888 605.49 L 919.284 605.063 L 919.284 605.063 Z  M 919.236 606.423 L 931.304 604.494 L 930.707 605.209 L 920.84 606.851 L 919.236 606.423 L 919.236 606.423 Z  M 919.188 607.784 L 931.256 605.854 L 930.66 606.569 L 920.792 608.211 L 919.188 607.784 Z " fill-rule="evenodd" fill="rgb(116,116,116)"/>

<path d=" M 932.956 640.952 C 933.005 638.492 934.659 635.694 937.913 632.562 C 936.355 634.879 935.404 637.161 935.082 639.41 L 932.956 640.952 L 932.956 640.952 Z " fill="rgb(0,0,0)"/>

<path d=" M 932.956 640.952 C 932.901 642.95 933.905 644.725 935.957 646.277 C 935.007 644.02 934.711 641.732 935.082 639.41 L 932.956 640.952 L 932.956 640.952 Z " fill="rgb(185,185,185)"/>

<path d=" M 988.37 622.666 L 991.632 623.492 L 999.633 622.237 L 988.37 622.666 Z " fill="rgb(0,0,0)"/>

<path d=" M 900.983 661.44 Q 919.286 651.725 934.207 642.054 C 943.796 633.708 965.842 626.632 975.746 626.799 C 987.538 631.293 997.235 634.045 1004.865 635.084 C 1009.158 631.603 1012.542 628.905 1018.752 625.287 L 1019.725 623.846 C 1015.629 625.494 1008.347 628.922 1004.499 631.72 C 984.881 628.053 975.331 625.617 975.863 624.427 C 963.193 623.605 948.804 628.54 934.597 637.621 Q 916.707 649.309 900.156 655.896 L 900.983 661.44 Z " fill="rgb(0,0,0)"/>

</g>

<g>

<ellipse cx="940.6752040716738" cy="389.8382046374995" rx="86.80321162469954" ry="2.7809448688996667" fill="rgb(0,0,0)"/>

<path d=" M 1017.088 271.037 L 1007.262 263.704 L 999.64 278.535 L 945.414 289.05 L 944.996 309.269 C 931.042 326.939 925.895 349.569 928.732 379.362 L 924.447 388.598 L 1006.013 388.598 L 1005.121 336.717 L 1011.64 292.084 L 1017.088 271.037 Z " fill="rgb(232,232,232)"/>

<path d=" M 836.858 362.426 L 819.332 350.689 L 836.858 351.702 L 836.957 349.735 L 841.477 350.223 L 846.313 348.65 C 843.435 324.957 855.694 310.753 883.101 306.025 L 881.91 284.103 L 945.837 275.437 L 952.813 266.772 L 1007.636 263.635 L 999.64 278.312 C 981.732 282.914 966.484 286.158 954.831 287.702 C 951.539 288.139 948.534 288.439 945.837 288.597 L 944.996 309.496 C 932.418 324.278 927.035 347.614 928.872 379.478 L 923.783 389.838 L 885.461 387.627 L 836.858 362.426 Z " fill="rgb(255,255,255)"/>

<path d=" M 791.698 301.876 L 813.919 315.228 L 804.122 341.629 L 804.122 341.629 L 808.346 347.786 L 819.332 350.56 L 837.883 363.074 C 820.59 357.086 807.318 353.921 798.068 353.577 L 792.955 350.223 L 783.641 349.262 L 785.558 332.739 C 789.521 328.285 793.263 322.448 796.785 315.228 C 795.88 310.398 794.184 305.947 791.698 301.876 Z " fill="rgb(232,232,232)"/>

<path d=" M 1010.402 302.496 C 973.31 305.41 949.334 311.146 938.488 319.693 C 921.199 328.531 903.979 333.766 886.842 335.385 C 878.51 326.752 872.673 318.413 869.343 310.354 C 855.783 314.485 847.549 327.389 844.652 349.055 L 836.628 350.223 L 836.628 351.615 C 853.895 363.338 884.596 372.588 928.732 379.362 C 957.497 376.652 984.682 375.865 1010.289 376.999 L 1006.101 352.426 C 981.206 371.199 978.966 317.74 1010.123 311.027 L 1010.402 302.496 Z " fill="rgb(185,185,185)"/>

<path d=" M 987.173 337.224 C 983.055 344.714 985.309 368.46 997.698 371.641 C 1000.779 372.432 1006.292 372.461 1007.683 362.893 L 1006.013 353.073 C 993.153 360.087 986.868 354.809 987.173 337.224 Z " fill="rgb(116,116,116)"/>

<path d=" M 859.151 315.493 Q 858.881 320.262 862.504 323.459 C 866.127 326.656 868.965 325.904 871.242 327.935 C 873.421 329.877 872.959 333.163 871.513 335.385 C 869.686 338.189 868.248 345.405 871.242 344.905 C 873.938 344.454 868.449 330.951 878.048 334.328 Q 881.284 335.467 885.569 332.356 L 867.619 310.897 L 859.151 315.493 Z " fill="rgb(116,116,116)"/>

<path d=" M 997.722 305.492 C 994.067 306.435 993.701 309.221 989.831 310.118 C 986.135 310.974 985.472 308.943 981.439 309.496 C 977.407 310.049 973.594 312.205 971.263 312.427 C 965.887 312.94 963.761 311.128 957.462 312.074 C 965.359 308.783 984.752 305.492 997.722 305.492 Z " fill="rgb(116,116,116)"/>

<path d=" M 1002.257 355.493 C 1002.784 341.461 1004.144 327.216 1006.338 312.756 L 1010.123 312.074 L 1010.123 312.074 C 1007.925 326.104 1006.733 339.939 1006.546 353.577 L 1002.257 355.493 L 1002.257 355.493 Z " fill="rgb(0,0,0)"/>

<path d=" M 889.64 285.758 C 907.185 285.302 925.865 286.059 945.698 288.012 C 968.237 285.275 985.661 282.243 999.092 278.254 L 1005.406 266.724 L 1005.807 268.305 L 999.922 278.73 C 986.843 282.4 968.955 286.312 946.268 289.05 L 946.268 306.945 L 944.996 306.025 L 945.414 289.05 C 925.772 287.119 906.757 286.232 888.386 286.374 L 889.64 285.758 Z " fill="rgb(185,185,185)"/>

<path d=" M 969.208 277.607 L 1000.137 277.818 L 998.918 278.535 L 968.95 278.312 L 969.208 277.607 Z " fill="rgb(185,185,185)"/>

<path d=" M 932.971 278.73 L 883.101 285.277 C 883.444 292.562 884.262 301.345 885.569 311.612 L 882.793 310.118 C 881.664 300.258 880.904 291.228 880.527 283.017 L 931.69 276.595 L 932.971 278.73 Z " fill="rgb(0,0,0)"/>

<path d=" M 1010.123 303.657 L 1010.123 300.346 L 1013.065 300.943 L 1012.687 312.109 C 980.858 313.127 980.766 373.773 1006.338 350.223 L 1009.248 352.439 L 1008.844 355.391 L 1010.402 357.428 L 1008.844 358.987 L 1012.057 377.397 L 1008.844 377.082 L 1006.013 354.647 C 979.532 369.403 979.6 319.097 1009.705 309.673 L 1010.123 303.657 Z " fill="rgb(0,0,0)"/>

<path d=" M 1006.546 352.117 C 1002.938 363.757 999.457 367.563 996.117 363.522 C 999.275 369.557 1002.986 367.096 1007.262 356.128 L 1006.546 352.117 Z " fill="rgb(0,0,0)"/>

<path d=" M 985.492 354.376 L 986.463 353.073 C 990.795 372.479 1001.003 377.437 1006.688 357.652 L 1007.815 359.905 C 997.764 381.792 991.005 372.871 985.492 354.376 Z " fill="rgb(0,0,0)"/>

<path d=" M 843.698 347.264 L 842.315 348.529 L 841.477 348.65 L 840.937 349.376 L 836.628 348.934 L 834.396 352.117 L 837.224 350.56 L 878.048 358.298 L 846.313 349.376 L 875.618 350.223 L 843.698 347.264 Z " fill="rgb(0,0,0)"/>

<path d=" M 837.778 350.995 C 827.38 350.918 817.22 349.528 807.302 346.838 L 809.169 349.055 C 819.468 351.545 830.221 352.745 841.438 352.64 L 837.778 350.995 L 837.778 350.995 Z " fill="rgb(0,0,0)"/>

<path d=" M 809.169 315.695 C 804.981 317.375 800.751 317.69 796.494 316.628 L 796.494 318.145 C 800.508 318.981 804.728 318.169 809.169 315.695 Z " fill="rgb(0,0,0)"/>

<path d=" M 796.665 325.341 C 795.959 335.313 796.502 343.758 798.068 353.737 L 796.785 352.372 C 795.008 343.469 794.443 335.235 795.213 326.888 L 796.665 325.341 Z " fill="rgb(0,0,0)"/>

<path d=" M 785.339 339.419 C 783.297 345.099 782.491 348.384 782.935 349.262 C 783.42 350.223 786.893 350.898 794.143 350.999 L 792.323 349.262 C 787.118 349.46 784.67 349.114 784.258 348.559 C 783.845 348.002 784.51 345.263 786.267 340.329 L 785.339 339.419 Z " fill="rgb(0,0,0)"/>

<path d=" M 804.752 340.84 C 806.394 344.949 808.751 348.431 811.835 351.272 L 810.633 351.615 C 808.139 349.545 805.917 346.559 803.979 342.643 L 804.752 340.84 Z " fill="rgb(0,0,0)"/>

<path d=" M 938.766 318.946 C 925.858 339.532 925.246 360.048 927.919 379.362 L 929.072 379.894 C 925.727 362.393 926.589 341.732 939.049 321.351 L 938.766 318.946 Z " fill="rgb(0,0,0)"/>

<path d=" M 848.069 348.549 C 846.898 323.439 858.824 310.448 883.861 307.369 L 883.861 304.806 C 855.011 309.786 841.937 323.639 844.652 348.549 L 848.069 348.549 Z " fill="rgb(0,0,0)"/>

<path d=" M 881.585 309.098 L 889.897 312.756 L 890.416 313.958 L 881.91 309.867 L 881.585 309.098 Z " fill="rgb(232,232,232)"/>

<path d=" M 978.064 272.245 L 978.814 270.879 L 978.814 270.879 C 973.547 271.015 968.539 271.27 963.779 271.656 L 964.702 272.825 C 968.69 272.611 974.896 272.32 978.064 272.245 Z  M 977.282 273.669 L 976.446 275.193 L 966.763 275.437 L 965.663 274.043 C 967.057 273.966 968.498 273.893 969.988 273.833 C 972.298 273.739 974.726 273.674 977.282 273.669 Z  M 979.383 269.843 L 980.208 268.339 C 973.751 268.562 967.771 269.02 962.256 269.726 L 963.033 270.71 C 968.367 270.218 973.82 269.925 979.383 269.843 L 979.383 269.843 Z " fill-rule="evenodd" fill="rgb(185,185,185)"/>

<g>

<ellipse cx="990.1981695731283" cy="270.99535068315674" rx="7.732253779827261" ry="3.9514525689082802" fill="rgb(185,185,185)"/>

<ellipse cx="989.7290889760167" cy="270.3227950300625" rx="6.456759712336293" ry="2.918329530368453" fill="rgb(255,255,255)"/>

</g>

<path d=" M 890.673 291.081 L 890.264 299.076 L 889.447 298.871 L 889.805 290.876 L 890.673 291.081 L 890.673 291.081 L 890.673 291.081 L 890.673 291.081 Z  M 889.065 290.876 L 888.571 297.433 L 887.93 297.264 L 888.121 290.743 L 889.065 290.876 L 889.065 290.876 L 889.065 290.876 Z  M 890.008 300.997 L 890.064 300.138 L 886.338 299.076 L 886.547 302.024 L 890.008 300.997 L 890.008 300.997 Z  M 891.27 289.928 L 885.612 289.281 L 886.154 302.819 L 890.264 303.657 L 891.27 289.928 L 891.27 289.928 L 891.27 289.928 L 891.27 289.928 L 891.27 289.928 Z  M 892.003 289.281 L 884.652 288.159 L 885.612 303.185 L 891.002 304.332 L 892.003 289.281 L 892.003 289.281 L 892.003 289.281 L 892.003 289.281 L 892.003 289.281 Z  M 886.988 290.62 L 886.768 296.025 L 886.338 295.889 L 886.301 290.62 L 886.988 290.62 Z " fill-rule="evenodd" fill="rgb(232,232,232)"/>

<path d=" M 1007.683 304.332 C 1009.541 293.511 1011.864 282.571 1014.645 271.513 L 1006.837 265.319 C 993.695 264.955 971.356 266.329 955.96 268.305 L 953.936 265.645 C 968.607 263.713 991.591 261.896 1007.262 261.849 L 1019.492 270.166 C 1016.274 281.297 1013.653 292.312 1011.64 303.21 L 1007.683 304.332 L 1007.683 304.332 Z " fill="rgb(0,0,0)"/>

<path d=" M 944.272 309.417 L 940.727 306.664 L 949.147 309.534 L 943.144 307.958 L 948.084 311.202 L 939.916 308.429 L 944.272 309.417 Z " fill="rgb(185,185,185)"/>

<path d=" M 865.1 309.716 Q 877.704 330.471 886.842 337.224 C 899.532 334.62 919.457 330.044 937.802 322.259 C 949.494 311.82 974.241 306.007 1012.057 304.806 L 1013.065 301.613 C 971.635 304.19 951.352 309.193 938.238 318.707 C 919.38 327.848 901.147 332.543 889.009 333.658 C 882.932 330.495 876.312 322.338 869.152 309.186 L 870.199 308.405 L 868.324 307.887 L 865.1 309.716 Z " fill="rgb(0,0,0)"/>

<path d=" M 939.12 366.324 L 938.812 367.511 L 943.371 368.478 L 942.128 369.012 L 938.64 368.171 L 937.763 371.546 L 937.706 369.728 L 937.988 368.014 L 936.695 367.702 L 936.297 370.559 L 935.174 371.553 L 935.883 367.506 L 930.148 366.123 L 932.231 366.116 L 935.988 366.912 L 936.175 365.846 L 931.584 365.102 L 930.391 363.842 L 936.296 365.153 L 936.733 362.666 L 937.607 361.151 L 937.027 365.315 L 938.383 365.616 L 939.15 360.954 L 940.164 362.305 L 939.254 365.809 L 941.305 366.265 L 943.426 367.022 L 939.12 366.324 Z  M 938.288 366.189 L 938.096 367.359 L 936.781 367.081 L 936.936 365.969 L 938.288 366.189 Z " fill-rule="evenodd" fill="rgb(0,0,0)"/>

<path d=" M 928.43 379.485 C 927.485 382.288 925.952 384.832 923.837 387.113 L 925.855 387.557 C 927.473 385.66 928.642 383.024 929.365 379.64 L 927.919 379.485 L 928.43 379.485 Z " fill="rgb(185,185,185)"/>

<path d=" M 977.046 280.426 L 945.698 285.673 C 931.98 283.627 917.762 283.208 903.06 284.402 L 904.456 283.804 L 932.971 280.571 L 973.947 280.09 L 977.046 280.426 Z " fill="rgb(0,0,0)"/>

<path d=" M 972.652 278.78 L 970.749 280.854 L 938.538 267.053 L 940.675 255.813 C 954.459 263.118 964.432 271.46 972.652 278.78 Z " fill="rgb(232,232,232)"/>

<path d=" M 918.128 263.124 C 925.151 262.416 932.999 258.459 940.675 257.181 L 938.641 267.061 C 932.459 268.496 926.057 272.142 919.272 272.206 C 912.857 272.267 906.036 268.828 900.881 267.376 L 899.31 260.884 C 903.716 261.348 910.426 263.9 918.128 263.124 Z " fill="rgb(255,255,255)"/>

<path d=" M 901.785 267.241 C 906.479 268.566 912.331 270.87 919.683 270.491 C 925.381 270.197 932.183 267.652 938.753 265.841 C 954.729 270.163 965.522 275.19 971.145 280.907 L 938.238 280.854 Q 920.088 274.069 899.995 269.361 L 897.289 260.246 C 902.852 260.433 910.671 262.263 919.284 261.338 C 926.321 260.583 933.888 257.279 941.186 255.637 C 954.583 262.155 964.849 270.308 974.041 278.036 L 973.217 280.426 L 970.353 281.085 L 972.146 278.613 C 963.438 271.6 953.624 263.78 940.675 257.181 C 933.885 258.869 926.329 262.535 919.272 263.408 C 911.706 264.343 904.714 262.406 899.858 261.849 L 901.785 267.241 Z " fill="rgb(0,0,0)"/>

<path d=" M 1002.463 386.629 C 1002.298 383.458 1002.176 380.275 1002.095 377.082 L 1002.095 377.082 L 1007.262 377.334 C 1007.562 381.437 1007.96 385.521 1008.452 389.587 L 925.267 390.541 L 925.267 386.629 L 1002.463 386.629 Z " fill="rgb(0,0,0)"/>

<path d=" M 925.544 390.541 L 926.004 386.629 C 888.397 388.543 831.084 353.077 797.555 352.117 L 789.683 345.912 L 788.431 346.404 L 797.555 354.647 C 822.157 355.893 854.241 369.52 883.861 389.587 L 925.544 390.541 Z " fill="rgb(0,0,0)"/>

<path d=" M 1014.645 376.241 L 1013.065 379.362 C 993.131 376.413 952.419 377.529 928.872 380.902 L 927.919 378.637 C 950.583 375.672 992.456 374.505 1014.645 376.241 Z " fill="rgb(0,0,0)"/>

<path d=" M 928.872 380.902 C 891.147 377.248 857.804 364.373 835.314 350.689 L 837.883 350.56 C 859.044 361.576 891.427 373.059 929.168 378.637 L 928.872 380.902 Z " fill="rgb(0,0,0)"/>

<g>

<path d=" M 972.203 280.006 L 964.706 278.491 C 963.044 278.745 962.493 279.67 963.064 281.251 L 970.034 284.517 C 968.688 282.515 969.237 280.347 972.203 280.006 Z " fill="rgb(223,178,110)"/>

<path d=" M 980.908 281.868 L 971.651 280.041 C 969.296 280.962 968.606 282.312 969.591 284.075 L 977.904 288.164 C 984.719 291.816 986.943 283.523 980.908 281.868 Z " fill="rgb(255,255,255)"/>

<path d=" M 985.1 288.617 C 986.09 286.719 985.5 284.064 983.181 282.854 C 980.862 281.644 977.686 282.335 976.695 284.233 C 975.705 286.132 976.784 288.655 979.103 289.865 C 981.422 291.075 984.109 290.516 985.1 288.617 Z " fill="rgb(93,93,93)"/>

<path d=" M 983.34 282.948 C 979.255 281.993 976.466 283.472 976.765 285.419 C 977.62 290.996 982.629 291.439 984.519 288.919 C 985.959 286.999 982.595 284.263 980.757 285.432 C 978.152 287.089 980.135 291.412 982.742 286.659 C 981.808 292.985 976.427 287.305 980.596 284.426 C 981.681 283.676 987.193 284.061 985.316 289.578 C 984.509 291.949 976.335 292.313 975.421 285.635 C 975.024 282.743 978.331 281.553 982.239 282.202 L 983.34 282.948 Z " fill="rgb(0,0,0)"/>

<path d=" M 983.96 283.417 C 980.939 282.674 979.045 283.301 978.277 285.299 C 979.982 283.459 982.01 283.057 984.361 284.092 L 983.96 283.417 Z " fill="rgb(0,0,0)"/>

<path d=" M 978.492 289.866 L 962.757 282.175 C 961.753 280.709 962.853 277.463 964.899 277.532 L 982.503 281.276 L 981.078 282.371 L 964.943 278.7 C 963.619 278.78 963.242 279.664 963.495 280.96 L 977.181 287.076 L 978.492 289.866 Z " fill="rgb(0,0,0)"/>

<path d=" M 972.203 280.006 C 969.136 280.05 968.071 282.707 970.034 284.517 L 971.007 284.948 C 968.577 282.762 969.347 280.242 972.903 280.142 L 972.203 280.006 Z " fill="rgb(0,0,0)"/>

</g>

<g>

<path d=" M 805.909 312.765 C 798.382 329.902 788.859 343.069 777.34 352.265 L 736.641 342.371 C 750.238 333.848 758.328 325.149 760.912 316.276 C 771.781 317.657 786.779 316.487 805.909 312.765 Z " fill="rgb(0,0,0)"/>

<path d=" M 757.061 330.891 C 759.768 327.122 761.876 323.257 763.355 319.266 L 770.939 319.266 L 769.622 322.889 L 764.732 322.436 L 760.691 331.653 L 757.061 330.891 Z " fill="rgb(118,0,0)"/>

<path d=" M 779.38 335.216 L 784.802 320.095 C 797.665 315.551 799.792 323.338 789.982 329.382 L 789.776 336.862 L 785.404 336.313 L 786.575 325.775 C 793.625 326.479 795.845 319.817 787.366 321.973 L 783.287 336.313 L 779.38 335.216 Z " fill="rgb(118,0,0)"/>

<path d=" M 743.419 341.3 L 752.716 332.649 Q 758.295 332.141 759.11 333.561 Q 759.925 334.981 754.254 338.024 L 752.152 343.197 L 749.448 342.346 L 752.152 336.853 L 752.152 336.853 C 754.479 335.438 755.022 334.144 753.364 333.967 L 753.364 333.967 L 747.525 341.3 L 743.419 341.3 Z " fill="rgb(118,0,0)"/>

<path d=" M 761.355 334.288 L 753.254 343.704 L 759.791 344.921 L 761.95 342.346 L 758.691 341.777 L 761.95 337.473 L 765.365 338.024 L 767.288 335.616 L 761.355 334.288 Z " fill="rgb(118,0,0)"/>

<path d=" M 759.212 339.851 L 762.471 340.236 L 762.907 339.179 L 761.016 338.41 L 759.212 339.851 Z " fill="rgb(118,0,0)"/>

<path d=" M 761.495 345.732 L 768.622 336.853 L 771.168 337.473 L 770.499 341.777 L 773.829 337.473 L 776.939 337.473 L 769.939 347.862 L 767.288 346.645 L 767.903 341.3 L 765.365 346.645 L 761.495 345.732 Z " fill="rgb(118,0,0)"/>

<path d=" M 777.923 338.024 L 786.996 339.545 L 784.802 342.791 L 782.467 342.346 L 776.939 349.688 L 773.25 348.876 L 778.825 341.878 L 776.134 341.168 L 777.923 338.024 Z " fill="rgb(118,0,0)"/>

<path d=" M 769.238 323.311 Q 766.979 325.383 765.905 330.891 L 766.992 332.94 Q 771.742 334.776 774.327 334.038 Q 776.878 333.31 779.72 329.382 Q 782.407 323 779.72 320.651 C 776.387 317.737 772.085 320.7 769.238 323.311 Z  M 771.748 324.956 C 770.585 327.013 770.289 328.739 770.83 330.106 Q 772.772 331.089 773.829 330.694 Q 774.872 330.304 776.035 328.203 Q 777.133 324.79 776.035 323.533 C 774.671 321.974 772.912 323.56 771.748 324.956 Z " fill-rule="evenodd" fill="rgb(118,0,0)"/>

<path d=" M 762.749 324.812 L 765.736 325.15 L 765.06 327.208 L 761.791 327.009 L 762.749 324.812 Z " fill="rgb(118,0,0)"/>

</g>

<g>

<path d=" M 786.002 329.22 C 790.624 318.917 792.502 309.803 791.635 301.876 C 787.641 306.363 782.686 310.103 776.782 313.084 C 777.104 321.502 779.386 327.756 783.641 331.833 Q 784.287 330.789 786.002 329.22 Z " fill="rgb(255,255,255)"/>

<path d=" M 784.842 331.143 C 789.574 321.842 792.297 311.992 791.698 302.819 C 795.187 305.489 796.882 308.692 796.785 312.427 C 795.575 320.339 791.116 326.924 784.842 331.143 Z " fill="rgb(232,232,232)"/>

<path d=" M 775.765 312.427 C 781.477 309.967 786.763 305.77 791.635 299.824 L 815.791 314.178 C 809.587 325.069 805.693 336.276 804.122 347.786 L 802.838 345.335 C 804.258 335.144 807.521 325.112 812.641 315.228 L 791.635 303.092 C 787.027 307.983 782.394 311.411 777.749 313.361 Q 777.438 324.984 784.288 330.624 Q 800.635 315.536 794.436 309.496 L 796.07 310.897 Q 802.221 314.286 785.339 333.658 Q 775.706 327.44 775.765 312.427 Z " fill="rgb(0,0,0)"/>

<path d=" M 790.91 301.613 C 792.016 307.971 790.738 316.326 787.078 326.678 C 791.092 317.876 793.051 309.522 792.955 301.613 L 790.91 301.613 Z " fill="rgb(0,0,0)"/>

</g>

</g>

<g>

<path d=" M 375.943 148.562 L 431.844 139.358 L 440.34 254.631 L 408.807 256.654 L 375.943 148.562 Z " fill="rgb(0,0,0)"/>

<path d=" M 425.058 254.631 L 448.538 256.654 L 478.056 143.219 L 453.234 134.653 L 425.058 254.631 Z " fill="rgb(0,0,0)"/>

<path d=" M 681.969 193.421 L 685.915 210.814 L 699.696 206.479 L 697.114 255.424 L 730.641 258.716 L 723.426 193.421 L 681.969 193.421 Z " fill="rgb(0,0,0)"/>

<path d=" M 692.696 186.983 L 714.856 144.394 C 663.891 125.663 605.139 168.314 626.826 223.53 C 645.42 270.869 694.881 266.886 708.812 236.348 L 702.335 207.171 C 698.66 226.948 663.046 229.774 662.958 197.238 C 662.923 184.373 682.402 175.305 692.696 186.983 Z " fill="rgb(0,0,0)"/>

<path d=" M 531.355 148.562 L 575.115 139.358 L 628.815 248.381 L 590.525 257.332 L 531.355 148.562 Z " fill="rgb(0,0,0)"/>

<path d=" M 531.355 148.562 L 558.705 153.761 L 560.347 253.31 L 539.56 253.515 L 531.355 148.562 Z " fill="rgb(0,0,0)"/>

<path d=" M 592.632 139.358 L 625.256 143.219 L 628.815 248.381 L 599.931 234.881 L 592.632 139.358 Z " fill="rgb(0,0,0)"/>

<path d=" M 229.321 143.857 L 290.998 139.358 L 291.708 233.091 L 324.646 229.341 L 324.646 252.587 L 237.779 252.587 L 229.321 143.857 Z " fill="rgb(0,0,0)"/>

<path d=" M 380.043 139.411 L 321.58 147.709 L 331.604 253.04 L 369.995 255.637 L 380.043 139.411 Z " fill="rgb(0,0,0)"/>

<path d=" M 484.082 195.576 L 535.922 193.195 L 524.637 256.654 L 487.586 254.755 L 484.082 195.576 Z " fill="rgb(0,0,0)"/>

<path d=" M 339.111 328.038 L 329.418 279.203 L 383.834 273.701 L 385.272 321.582 L 339.111 328.038 Z " fill="rgb(0,0,0)"/>

<path d=" M 346.678 317.305 L 340.668 286.984 L 374.788 283.54 L 375.679 313.249 L 346.678 317.305 Z " fill="rgb(96,125,139)"/>

<path d=" M 532.983 341.57 L 536.929 358.963 L 558.888 352.46 L 555.028 405.36 L 589.695 400.475 L 582.48 340.052 L 532.983 341.57 Z " fill="rgb(0,0,0)"/>

<path d=" M 551.75 331.243 L 573.91 288.654 C 522.945 269.923 464.024 311.504 482.358 367.79 C 497.892 415.48 553.935 411.146 567.866 380.608 L 564.357 360.884 C 551.353 377.545 522.012 376.089 522.012 341.498 C 522.012 328.633 541.456 319.565 551.75 331.243 Z " fill="rgb(0,0,0)"/>

<path d=" M 387.749 293.453 L 431.509 284.248 L 481.65 391.147 L 443.36 401.733 L 387.749 293.453 Z " fill="rgb(0,0,0)"/>

<path d=" M 387.749 293.453 L 415.099 298.584 L 417.15 398.503 L 392.937 400.475 L 387.749 293.453 Z " fill="rgb(0,0,0)"/>

<path d=" M 450.645 285.274 L 481.65 285.322 L 481.65 391.147 L 456.325 379.771 L 450.645 285.274 Z " fill="rgb(0,0,0)"/>

<path d=" M 234.895 304.89 L 201.832 300.181 L 209.14 394.124 L 149.289 398.42 L 148.579 304.687 L 115.641 308.436 L 115.641 285.191 L 238.321 283.2 L 234.895 304.89 Z " fill="rgb(0,0,0)"/>

<path d=" M 226.853 289.471 L 278.945 280.904 L 278.945 398.201 L 236.901 400.882 L 226.853 289.471 Z " fill="rgb(0,0,0)"/>

<path d=" M 267.756 327.615 L 309.8 324.059 L 309.8 358.031 L 267.756 365.833 L 267.756 327.615 Z " fill="rgb(0,0,0)"/>

<path d=" M 385.885 334.533 L 338.358 331.171 L 343.47 401.733 L 381.78 401.154 L 385.885 334.533 Z " fill="rgb(0,0,0)"/>

<path d=" M 292.174 280.904 L 328.05 280.904 L 328.05 396.84 L 301.148 398.201 L 292.174 280.904 Z " fill="rgb(0,0,0)"/>

<path d=" M 601.93 355.298 L 577.106 387.958 C 617.669 420.753 688.165 399.135 672.135 355.298 C 665.676 337.633 631.746 338.841 622.004 330.459 C 608.609 318.933 631.702 313.454 651.634 332.761 L 674.77 305.933 C 627.687 254.282 553.103 296.691 585.474 332.761 C 599.68 348.591 624.053 342.304 630.651 354.781 C 636.74 366.295 612.223 366.977 601.93 355.298 Z " fill="rgb(0,0,0)"/>

<g id="sad_train" >

<path d=" M 270.335 237.268 L 182.375 228.764 L 133.925 236.62 L 132.576 247.449 L 271.277 248.267 L 270.335 237.268 Z " fill="rgb(96,125,139)"/>

<path d=" M 259.748 175.096 L 260.491 177.15 L 226.664 171.653 C 212.439 169.844 200.824 169.849 191.833 171.653 C 181.946 178.374 173.83 186.007 167.494 194.544 C 150.752 188.274 135.591 188.925 122.017 196.49 L 121.593 199.678 L 124.824 203.358 L 120.812 209.799 C 116.356 205.749 115.724 201.383 118.921 196.695 L 153.514 169.988 C 195.875 164.228 231.284 165.933 259.748 175.096 Z " fill="rgb(209,209,209)"/>

<path d=" M 133.422 237.226 L 136.61 222.258 L 129.412 207.921 L 125.441 203.358 L 120.568 198.433 L 126.674 194.544 L 141.598 190.628 L 163.78 192.134 L 167.888 194.736 L 191.798 171.756 C 204.196 168.727 227.198 170.549 260.774 177.194 L 273.712 179.819 C 276.273 200.811 274.947 220.321 269.704 238.319 L 182.868 228.944 L 133.422 237.226 Z " fill="rgb(96,125,139)"/>

<path d=" M 121.593 212.072 L 126.023 204.216 L 124.132 202.218 L 120.812 207.921 C 116.467 203.602 117.29 198.527 120.741 197.783 C 122.926 197.312 133.341 188.589 154.426 171.069 C 190.847 165.001 230.062 168.026 272.064 180.137 C 275.01 202.351 273.563 223.905 267.997 237.5 L 268.723 247.651 L 272.838 250.106 L 271.186 237.913 C 277.544 222.758 279.167 199.761 274.608 178.383 C 235.282 164.606 194.187 162.063 153.082 168.872 C 136.45 182.72 118.497 195.703 117.836 196.238 C 116.446 197.362 112.129 203.933 121.593 212.072 Z " fill="rgb(0,0,0)"/>

<path d=" M 191.461 171.069 C 178.066 180.261 171.372 187.465 167.494 192.667 C 160.971 186.464 110.842 188.88 121.384 200.668 C 122.877 202.339 132.11 211.228 136.304 224.316 L 136.709 220.98 C 135.29 213.894 125.422 201.651 124.132 200.668 C 115.795 194.316 152.878 186.827 168.097 196.49 C 175.485 186.861 182.893 177.706 192.673 171.653 C 202.202 170.177 213.535 170.18 226.664 171.653 C 213.05 169.76 201.318 169.568 191.461 171.069 Z " fill="rgb(0,0,0)"/>

<path d=" M 134.417 236.226 C 147.433 232.267 163.102 229.307 182.52 227.337 L 270.144 237.226 L 270.144 238.88 L 182.52 230.236 C 163.345 231.921 147.35 234.597 133.422 238.258 L 134.417 236.226 Z " fill="rgb(0,0,0)"/>

<path d=" M 146.567 227.812 C 150.572 226.767 155.822 225.847 162.13 225.239 L 162.13 225.239 L 163.834 210.271 L 150.244 195.082 C 145.762 194.941 141.725 195.317 138.479 196.112 L 147.752 211.403 L 146.567 227.812 Z  M 144.18 228.495 C 142.38 229.061 140.926 229.65 139.844 230.236 L 141.083 215.03 L 130.867 200.535 C 131.721 198.943 133.69 197.634 136.464 196.695 L 145.741 212.072 L 144.18 228.495 Z  M 165.564 224.947 C 168.197 224.753 170.989 224.613 173.93 224.537 L 173.93 211.349 L 162.746 196.695 C 159.582 195.987 156.475 195.521 153.513 195.272 L 166.317 210.722 L 165.564 224.947 L 165.564 224.947 Z " fill-rule="evenodd" fill="rgb(0,0,0)"/>

<path d=" M 249.552 179.709 C 244.094 178.378 238.632 177.329 233.164 176.563 L 233.164 176.563 C 238.121 197.333 238.492 214.524 234.266 228.124 L 247.229 229.761 C 251.088 219.267 251.866 202.585 249.552 179.709 Z  M 255.389 181.238 C 259.371 182.355 263.349 183.622 267.326 185.039 C 269.37 202.791 268.638 220.047 263.978 231.876 L 251.809 230.339 C 256.394 219.441 257.584 203.069 255.389 181.238 Z  M 228.175 175.93 C 221.361 175.188 214.54 174.878 207.711 175.004 L 207.711 175.004 C 215.774 191.582 218.291 208.492 215.253 225.722 L 229.287 227.495 C 233.972 213.733 233.607 196.55 228.175 175.93 L 228.175 175.93 Z  M 203.02 175.71 C 195.843 178.808 189.542 182.724 184.109 187.464 L 194.537 207.108 L 192.673 222.871 L 209.739 225.026 C 210.354 215.915 210.512 208.023 210.207 201.346 L 203.02 175.71 L 203.02 175.71 L 203.02 175.71 Z " fill-rule="evenodd" fill="rgb(0,0,0)"/>

<path d=" M 172.798 193.6 L 183.706 210.868 L 182.375 236.62 L 181.993 211.129 L 172.798 193.6 Z " fill="rgb(0,0,0)"/>

<path d=" M 120.568 196.088 L 117.523 198.887 L 116.787 201.834 L 119.537 208.905 L 121.108 209.799 L 124.824 202.963 L 120.568 196.088 Z " fill="rgb(0,0,0)"/>

<path d=" M 162.003 268.402 L 138.173 271.293 L 297.174 271.293 L 252.818 267.146 L 250.046 268.402 L 162.003 268.402 Z " fill="rgb(0,0,0)"/>

<path d=" M 176.141 188.464 C 176.217 186.037 174.275 184.007 170.323 182.368 L 171.568 182.368 C 175.057 183.259 176.912 185.293 177.14 188.464 L 176.141 188.464 Z " fill="rgb(0,0,0)"/>

<path d=" M 178.361 187.256 C 178.438 184.685 176.466 182.536 172.452 180.8 L 173.455 180.441 Q 178.579 182.491 179.067 186.488 L 178.361 187.256 Z " fill="rgb(0,0,0)"/>

<path d=" M 179.636 211.136 L 185.909 209.799 L 182.873 211.403 L 186.276 211.349 L 179.27 212.419 L 182.873 210.868 L 179.636 211.136 Z " fill="rgb(0,0,0)"/>

<path d=" M 232.154 260.851 C 232.493 264.382 233.795 267.257 235.507 268.402 L 235.507 268.402 L 206.15 268.402 Q 205.239 267.694 204.359 266.583 L 202.755 266.616 Q 202.173 267.626 201.268 268.402 L 201.268 268.402 L 178.708 268.402 L 178.708 268.402 Q 176.991 267.188 176.141 264.437 Q 174.734 267.255 172.804 268.402 L 162.003 268.402 C 157.899 266.858 155.371 264.352 154.426 260.891 L 142.858 259.616 C 143.338 257.148 143.577 254.066 143.581 250.377 L 130.376 247.449 C 134.428 230.483 136.832 221.923 136.61 216.027 C 137.832 218.61 136.607 226.588 133.925 245.717 L 181.553 240.67 L 270.436 247.678 L 272.829 250.106 L 261.146 251.635 L 262.292 263.652 L 254.37 263.471 Q 254.232 263.977 254.084 264.437 L 254.084 264.437 L 254.084 264.437 C 253.469 266.344 252.726 267.665 251.853 268.402 L 249.911 268.402 L 249.911 268.402 C 251.277 267.414 252.341 265.143 252.748 262.309 L 243.932 261.685 C 244.264 264.807 245.382 267.342 246.847 268.402 L 238.813 268.402 C 240.411 267.334 241.65 264.761 242.085 261.554 L 232.154 260.851 Z  M 202.869 258.778 L 202.869 258.778 C 202.422 263.173 200.137 266.522 197.388 266.522 C 194.478 266.522 192.088 262.77 191.847 257.998 L 202.869 258.778 Z  M 218.328 259.873 L 218.328 259.873 C 217.772 264.033 215.552 267.146 212.902 267.146 C 210.09 267.146 207.763 263.641 207.393 259.098 L 218.328 259.873 Z " fill-rule="evenodd" fill="rgb(0,0,0)"/>

</g>

<g>

<ellipse cx="688.1310093663737" cy="406.0099796135339" rx="40.49329257642762" ry="1.8477157764415324" fill="rgb(0,0,0)"/>

<path d=" M 686.128 396.901 L 675.127 396.901 L 674.031 374.28 L 686.479 379.634 C 686.662 386.437 686.542 392.196 686.128 396.901 Z " fill="rgb(209,209,209)"/>

<path d=" M 698.901 351.184 L 707.457 366.461 L 705.643 388.447 L 709.543 390.562 C 707.587 392.999 699.778 395.115 686.128 396.901 C 686.837 390.805 686.95 385.053 686.479 379.634 C 688.481 369.456 692.618 359.976 698.901 351.184 Z " fill="rgb(209,209,209)"/>

<path d=" M 662.177 303.422 L 695.583 306.521 L 705.953 338.46 L 708.649 338.253 L 706.99 367.496 L 698.694 350.904 C 691.854 361.708 687.633 371.39 686.043 379.94 L 672.977 373.511 C 671.266 358.23 664.626 339.775 653.067 318.135 L 662.177 303.422 Z " fill="rgb(96,125,139)"/>

<path d=" M 709.997 390.284 L 722.649 398.372 L 717.464 401.483 L 685.317 404.802 L 673.703 404.18 L 674.532 396.506 L 686.769 396.713 C 697.978 395.946 705.718 393.806 709.997 390.284 Z " fill="rgb(96,125,139)"/>

<path d=" M 672.61 406.01 C 676.896 381.248 670.102 352.074 652.239 318.475 L 660.925 300.869 C 674.155 303.924 685.902 305.271 696.189 304.889 L 707.457 337.177 L 703.701 337.177 L 693.685 308.293 C 684.636 308.165 674.126 306.753 662.177 304.036 L 654.247 318.475 C 671.041 347.969 678.271 377.151 675.948 406.01 L 672.61 406.01 Z " fill="rgb(0,0,0)"/>

<path d=" M 676.553 340.408 L 675.114 339.771 C 675 343.133 675.153 346.022 675.582 348.427 L 676.924 349.097 C 676.353 346.277 676.226 343.384 676.553 340.408 Z " fill="rgb(0,0,0)"/>

<path d=" M 675.948 344.063 C 685.772 340.72 697.314 337.803 710.587 335.299 L 707.457 387.579 L 725.193 397.744 L 712.882 406.01 L 709.543 406.01 L 720.786 398.316 L 703.701 388.735 L 707.457 339.173 C 697.553 339.591 687.047 342.129 675.948 346.775 L 675.948 344.063 Z " fill="rgb(0,0,0)"/>

<path d=" M 716.494 402.243 L 713.207 406.01 L 711.244 406.01 L 672.61 406.01 L 675.948 402.243 C 694.107 402.839 708.901 401.534 720.341 398.316 L 716.494 402.243 Z " fill="rgb(0,0,0)"/>

<path d=" M 675.114 333.969 C 675.338 326.84 671.022 316.294 662.177 302.32 L 660.925 304.036 C 667.023 313.213 671.749 323.194 675.114 333.969 Z " fill="rgb(0,0,0)"/>

<path d=" M 684.712 358.8 C 687.646 374.1 687.808 389.162 686.269 403.976 L 684.077 403.976 C 687.222 390.376 686.88 375.321 684.712 358.8 Z " fill="rgb(0,0,0)"/>

<path d=" M 707.457 368.542 C 705.403 361.352 702.548 354.874 698.901 349.097 C 691.196 360.136 686.628 369.881 686.269 378.321 L 673.653 372.868 L 673.653 375.18 L 686.799 381.676 C 689.123 369.731 693.332 359.855 698.901 352.583 C 702.25 357.03 705.098 363.795 707.457 372.868 L 707.457 368.542 Z " fill="rgb(0,0,0)"/>

<path d=" M 710.115 391.386 L 708.426 389.791 C 703.878 395.434 691.15 396.887 675.114 396.255 L 675.114 397.392 C 688.971 396.89 701.989 397.049 710.115 391.386 Z " fill="rgb(0,0,0)"/>

<path d=" M 701.282 362.672 C 701.38 360.91 700.713 359.439 699.793 359.387 C 698.873 359.336 698.047 360.725 697.949 362.486 C 697.85 364.247 698.518 365.719 699.438 365.77 C 700.357 365.821 701.184 364.433 701.282 362.672 Z " fill="rgb(0,0,0)"/>

</g>

<path d=" M 504.219 142.727 C 534.38 116.606 570.159 175.193 494.414 197.866 C 432.101 152.651 483.756 109.27 504.219 142.727 Z " fill="rgb(0,0,0)"/>

<path d=" M 502.351 154.217 C 525.773 129.696 550.621 171.38 496.243 187.186 C 451.212 152.583 488.809 124.946 502.351 154.217 Z " fill="rgb(96,125,139)"/>

</g>

</g>

</svg>
