<svg xmlns="http://www.w3.org/2000/svg">

 <g id="ikon" fill="var(--outline-color, #000)" transform="scale(0.25)">
  <path d="M85.9 35.5l-.1 .5l-.4 .5l-.4 .3l-.5 .1l-1.8 .2l-.6-.1l-.5-.2l-.4-.4l-.2-.5v-.6l.1-.5l.9-1.7l.7-.7l2.4-1.1L93 28.4l14.5-4.3l14-3.3L136 17.9l16.1-2.6l12.7-1.5l13-1.1l10.7-.6l16.7-.2l12 .3l5.8 .3l14.5 1.4l14.3 1.9l10.5 1.8L273 19.9l10.4 2.7l.5 .3l.4 .4l.2 .4v.6l-.1 .5l-.3 .5l-.5 .3l-.5 .1l-.6-.1L272.3 23l-10.6-2.3l-10.5-1.9L237.1 17l-14.3-1.3l-5.7-.3L205.2 15l-16.6 .3L178 15.8l-12.9 1.1l-12.6 1.5l-16 2.6l-14.4 2.8l-13.8 3.3L94 31.4l-7.7 2.8L84.5 35l-.8-1.2h1.1l.4 .3l.4 .4l.3 .5Z" />
  <path d="M48.8 80.7v.6l-.2 .5l-.4 .4l-1.9 .7L45.7 84l-1.6 5.2L40.7 103l-3 15.1L35 133.2l-2.9 18.5l-2.4 17.9l-2.4 20.3L26 203.3l-1.3 14.1l-1.1 14.9l-1.4 27l-.6 16.6l-.4 16.7l-.3 16.6v11.1l.2 16.4l.4 16l.6 15.7l1.8 25.2L25.2 408l1.4 13.7l2.7 21l3.5 19.7l3.3 16.1l3 12.5l2.4 9.1l3.1 9.9l.1 .5l-.1 .5l-.3 .5l-.4 .3l-.6 .2h-.5l-.5-.2l-.4-.4l-.3-.4l-3.1-10L36 491.8l-3-12.6L29.7 463l-3.5-19.8L23.5 422l-1.4-13.7l-1.3-14.5L19 368.6l-.6-15.7L18 336.8l-.2-16.5V309.2l.2-16.6l.5-16.8l.6-16.6l1.4-27.1l1.1-15L22.9 203l1.3-13.4l2.4-20.3L29 151.2l2.9-18.5l2.7-15.2l3-15.1l3.4-14l1.8-5.5l1-2l.3-.5l.6-.3l2.7-.8l.5 .2l.4 .3l.4 .4Z" />
  <path d="M44 81.4l-.1-.5v-.5l.2-.5l.4-.4l3.3-2.3L58.1 74l18.1-4.8l12.6-2.9l21.1-4l23.5-3.7l19.1-2.3l10-1l17.4-1.1l10.5-.5l20.6-.6l16.7 .1l9.7 .3l9.4 .4l14.9 1.3l8.5 1l8 1l7.5 1.2l11.9 2.3l9.5 2.2l7.2 2l5.3 1.6l5.1 1.9l.4 .2l.4 .5l.2 .5l-.1 .5l-.1 .5l-.4 .4l-.5 .3l-.5 .1l-5.5-1.9l-5.1-1.6L306.3 66l-9.4-2.2l-11.7-2.3l-7.5-1.2l-7.9-1l-8.5-.9l-14.7-1.3l-9.3-.5l-9.6-.3H211.1l-20.6 .5l-10.4 .5l-17.4 1.1l-9.9 1l-19 2.3l-23.4 3.7l-21 4L76.9 72.3l-18 4.8l-9.9 3L46.4 82l-.5 .3h-.6l-.5-.1l-.4-.3Z" />
  <path d="M107.3 446.6l.4-.3l.5-.2h.6l.5 .2l1.2 .7l1 .4l3 .8l5.2 1l5.1 .8l3 .4l10.5 1l13.8 .8l15.6 .4l13.2 .1l7-.1l20.3-.5l20.7-.9l15.4-.9l14.9-1.1l11.6-1.1l13-1.4l10.2-1.4l8.3-1.2l11.4-2l5.2-1.2h.6l.5 .2l.4 .3l.3 .5l.1 .5v.6l-.3 .4l-.4 .4l-.5 .2l-5.3 1.1l-11.4 2l-8.5 1.3l-10.2 1.4l-13 1.4l-11.8 1.1l-14.9 1.1l-15.4 .9l-20.8 .9l-20.4 .5l-7 .1l-13.2-.1l-15.8-.4l-13.8-.7l-10.6-1l-3.2-.4l-5.2-.9l-5.3-1l-3.2-.9l-1.4-.5l-1.5-.9l-.4-.3l-.3-.5l-.1-.6l.1-.5Z" />
  <path d="M72 46.6l.6 .1l.5 .3l.3 .4l.2 .5l.3 2.2l.1 2.8l-.2 2.4l-.4 2.3l-.6 2.7l-1 2.9l-.9 2.3l-1.6 3.1l-3.1 5l-.7 .9l-.4 .4l-.5 .2h-.5l-.6-.1l-.4-.3l-.3-.5l-.1-.5l.1-.6L66.6 67l1.5-2.9l.8-2l.9-2.7l.5-2.4l.4-2.2l.2-2.1l-.1-2.4l-.3-2.4l.2-.5L71 47l.5-.3Z" />
  <path d="M73.5 46.1l-.1 .5l-.2 .5l-.4 .4l-2.6 .6h-.6l-.5-.1l-.4-.3l-.3-.5l-.1-.5v-.5l.3-.5l.3-.4l2.4-1.6l9.1-3.2l11.7-3.4L106 33.6L118.6 31l7-1.4l21.1-3.3L170 23.6l17.5-1.7l8.8-.6l14.6-.7l8.6-.2h14l15.9 .4l7.4 .5l7.1 .5l10.6 1.4l6 .9l9.3 2l7.4 1.9l5.7 1.7l4 1.5l3.9 1.6l.4 .3l.3 .4l.2 .6l-.1 .5l-.2 .5l-.4 .4l-.4 .2l-.6 .1l-4.2-1.7l-3.9-1.4L296.3 31L289 29.1l-9.1-1.9l-5.9-.9L263.5 25l-6.9-.6l-7.3-.4l-15.8-.5h-14l-8.5 .3l-14.6 .6l-8.6 .7l-17.5 1.6l-23.2 2.7l-21 3.3L119.2 34l-12.5 2.7L92.9 40.1L81.3 43.5l-8.7 3.1l-.9-1.9l.5-.1l.5 .2l.4 .3l.3 .5Z" />
  <path d="M310.1 34l.5 .2l.3 .4l.3 .5v.6l-.5 6.7l-.1 5.2l.4 6.1l1 8.2l.3 1.8v.5l-.1 .5l-.4 .4l-.5 .3l-.5 .1l-.5-.1l-.5-.3l-.4-.4l-.1-.5l-.4-1.8l-1-8.4l-.4-6.3V42.3l.6-7l.1-.5l.4-.5l.4-.3l.5-.1Z" />
  <path d="M273.2 275.4v.5l-.2 .5l-.4 .4l-2.6 .7l-.5 .1l-.5-.2l-.5-.3l-.3-.4l-.1-.5v-.6l.2-.5l.4-.4l.5-.2l6.2-1.8l9-2.2l13.2-2.4l12-1.4l12.4-.8l8.4-.1l5.7 .2l6.9 .7l5.9 1.1l3.8 .9l4.1 1.4l2 .9l2.4 1.3l1 .9l.2 .5v.5l-.1 .5l-.3 .5l-.5 .3l-.5 .1l-.6-.1l-3.1-1.8l-1.7-.7l-3.8-1.3l-3.6-.9l-5.7-1l-9.3-.8H322.1l-12.2 .8l-8.8 1l-8.9 1.4l-12.8 2.7l-9.4 2.6l-.7-3l2.5-.6l.6 .2l.4 .3l.3 .4Z" />
  <path d="M360.4 272.2h.5l.5 .2l.4 .4l.9 2.5l1.5 5.6l1 6.1l1.1 9.1l.4 10.5l-.1 11.4l-.6 12.3l-1.2 12.8l-2 14.2l-1.6 8.8L358.3 379l-3 10.6l-.6 1.7l-.3 .4l-.4 .4l-.5 .2H353l-.5-.2l-.5-.3l-.2-.5l-.1-.5v-.6l.6-1.6l2.9-10.4l3-12.7l1.5-8.7l2-14l1.1-12.7l.7-12.2l.1-11.3l-.5-10.3l-1-8.9l-1.7-8.7l-1.4-5l.2-.5l.2-.5l.5-.3Z" />
  <path d="M334.3 296.5l.5 .3l.4 .3l.3 .5l-.4 11.3l-.6 7.2l-.8 6l-2.4 12.1L326 352.8l-8 23.3l-4.2 10.7l-4.1 9.1l-.3 .4l-.5 .3l-.5 .1h-.5l-.5-.3l-.4-.4l-.2-.5V395l.1-.5l4-8.9l4.2-10.6l7.9-23.2l5.2-18.4l2.4-11.8l1.1-9.6l.6-11.5l.2-3l.3-.5l.5-.3l.5-.2Z" />
  <path d="M306.1 391.7l.5-.3h.5l.5 .1l1.7 1.6l2.5 .8l1.9 .3l2.2 .2l6.9-.3l7.3-.6l16.8-2.9l4.9-1l.5 .2l.5 .3l.3 .5l.1 .5l-.1 .5l-.2 .5l-.4 .4l-.5 .2l-4.5 1l-17 2.9l-7.5 .7l-7.1 .2l-2.5-.2l-2.2-.3l-3.3-1.1l-.6-.3l-1.8-2l-.1-.5v-.6l.3-.4Z" />
  <path d="M77.2 90.6l.4 .3v.6l-.4 2l-1.7 11.4l-.9 6.3l-1.4 12.1l-1.3 11.1l-1.2 10.8l-1.3 12.5l-.8 8.4l-.8 8.9l-.8 9.6l-.9 10L65.3 205l-.5 7.1l-.7 11.1l-.7 11.3l-.4 7.6l-.5 11.8L62 265.7l-.4 11.9l-.4 20.1l-.1 11.9L61 321.1v18.3l.2 10.4l.2 9.8l.3 9.3l.7 14.3l.5 8l.6 7.5l1 11.2l1.3 11.4l.8 5l1.4 7.1l1.5 6.4l1.3 4.8l2.4 6.6v.6l-.3 .4l-.2 .1l-.6-.1l-.3-.4L69.3 445L68 440.2l-1.6-6.4l-1.3-7.2l-.8-5l-1.4-11.5l-1-11.3l-.6-7.5l-.4-8L60.1 369l-.3-9.3l-.2-9.9l-.1-10.4l-.1-7.2V321.1l.1-11.5l.1-11.9l.4-20.1l.4-12l.5-11.8l.5-11.8l.5-7.6l.6-11.3l.7-11.1l.6-7.1l.8-10.4l.8-10.1l.8-9.5l.9-9l.8-8.4l1.3-12.4l1.1-10.9l1.3-11.1L73.1 111l.8-6.3l1.7-11.5l.5-2.1l.3-.4l.5-.2Z" />
  <path d="M44.2 351.8l.3-.4l.6-.2l2.3 .2h2l6.3-.9l6.3-1.3h.5l.4 .4l.1 .3l-.2 .5l-.4 .3L56 352l-6.4 .9l-2.2 .1l-2.5-.2l-.5-.2l-.2-.5Z" />
  <path d="M43 359.1l.2-.5l.4-.3l2.4-.6l11-.2l7.7 .2l11.2 .8l.5 .2l.2 .5v.2l-.4 .5l-.5 .1l-6.9-.5L57 359.1l-10.9 .2l-2.1 .5h-.5l-.4-.4Z" />
  <path d="M111 35.3l.5 .2l.3 .4l.4 2.7l-.2 2.6l-.5 2.8l-1 3.1L108.2 52l-3.6 6l-4.1 5.6l-.4 .3l-.6-.1l-.2-.2l-.2-.5l.2-.5l4-5.4l3.5-5.9l2.2-4.8l1-2.9l.5-2.6l.1-2.4l-.4-2.4l.1-.5l.4-.4Z" />
  <path d="M268.7 275.3l.6 .1l.4 .4l.3 .4l.3 2.8l-.6 24.1l-.6 8.5l-.2 .6l-.3 .4l-.5 .4l-.5 .1H267l-.5-.3l-.4-.4l-.2-.5l-.1-.6l.6-8.4l.7-21.2l-.1-5.3l.2-.5l.4-.4l.6-.2Z" />
  <path d="M323.7 67.3h.6l.5 .2l.4 .4L330 84.3l2.6 11.2l4.3 21.5l3.6 20.7l3.4 24l3.1 24.2l2.5 23l1.7 17L352 239l.2 7.2l-.1 12.3l-.7 9.8l-.1 .5l-.3 .4l-.5 .3l-.5 .1h-.6l-.4-.3l-.4-.4l-.2-.5l-.1-.5l.7-9.5l.1-12.1l-.2-7.2l-.9-13l-1.6-16.8l-2.5-23l-3.1-24.2l-3.4-23.9l-3.6-20.7l-4.2-21.3l-2.7-11.1l-4.6-16.4l.2-.5l.3-.4l.4-.4Z" />
  <path d="M344.5 394.5l.6 .2l.4 .3l.3 .5l.1 .5v3.1l-.4 6l-1.6 11.3l-4.1 23l-2.5 12L334 465.6l-3.1 12.2l-3.1 10.8l-2.2 7.1l-3.3 9.6l-3 7.6l-.3 .4l-.4 .4l-.5 .1h-.6l-.5-.2l-.4-.4l-.2-.5l-.1-.5l.1-.5l3-7.5l3.2-9.5l2.2-7l3.1-10.8l3.1-12l3.2-14.2l2.5-11.9l4.1-22.9l1.6-11.1l.4-5.7l-.1-3l.1-.5l.3-.5l.4-.4l.5-.2Z" />
  <path d="M219.6 102.5l-.1 .6l-.4 .4l-.4 .3l-2.8 .2l-.7-.1l-.5-.4l-1.4-1.4l-.4-.5l-.1-.7l.2-.6l.4-.5l1.4-1.3l.8-.4l2.3-.5l2.5-.1l2.3 .1L225 98l3 .8l6.4 2.4l3.7 1.7l20.5 11.7l5.8 3.2l5.1 2.3l3.1 .9l2.7 .4l2.4-.2l2.1-.6l1.7-1.1l.1-.1l.5-.2h.6l.5 .2l.4 .4l.3 .4v.6l-.1 .5l-.3 .5l-2.2 1.5l-2.9 .9l-3 .3l-3.3-.4l-3.6-1l-2.9-1.3l-2.6-1.2l-6-3.3l-20.3-11.6l-3.6-1.6l-6.1-2.4l-2.7-.7l-2-.3l-2-.1l-2.6 .2h.9l.4 .3l.4 .4l.2 .5Z" />
  <path d="M229.4 104.8l.1 .5v.5l-.3 .5l-1.6 1.3l-.7 2.1l-1.1 4.5l-.9 6.2l-.7 11.2v9.6l.4 7.7l.8 6.7l1.4 7.8l1.5 6.2l1.1 3.4l2 5.1l1.4 2.7l1.6 2.5l1.6 2.1l1.8 1.9l1.8 1.5l3.2 1.9l1.9 .7l1.9 .4l3.6-.2l2-.4l3.7-1.6l2.1-1.1l2.2-1.4l2-1.6l1.9-1.7l3.1-3.6l1.7-2.2l2.5-4.2l1.4-2.7l1.2-2.7l1-2.8l1.5-5l1-4.5l1-6.7l.2-2.2l.1-3.2l.2-.4l.4-.4l.5-.2h.6l.5 .1l.4 .4l.3 .4l.1 .6v2.8l-.6 5.5l-.6 3.9l-1.1 4.6l-1.5 5.2l-1.1 3l-1.3 2.9l-1.4 2.8l-2.7 4.5l-1.9 2.5l-3.2 3.7l-2.2 2l-2.2 1.7l-2.3 1.5l-2.4 1.3l-4 1.7l-2.6 .6l-4.1 .2l-2.6-.4l-2.4-.9l-3.7-2.2l-2.2-1.8l-2-2.1l-1.8-2.4l-1.7-2.6l-1.6-3l-2.2-5.5l-1.1-3.5l-1.5-6.4l-1.5-8.1l-.8-6.8l-.4-7.9v-9.8l.7-11.4l.9-6.4l1.1-4.9l1-2.7l.6-.8l2.2-1.4h.5l.5 .1l.5 .3Z" />
  <path d="M237.7 110.6l.2 .5l-.1 .5l-.9 1.4l-.7 4.3l-.4 4.8l-.2 5.6l.3 6.8l.2 2.9l1 8.6l1.1 6.5l.7 3.3l2.4 8.3l1.7 4.6l2.1 4.9l1.1 2.1l2 3L250 181l1.5 1.6l2.6 2.2l.2 .5l-.1 .3l-.1 .2l-.5 .3l-.5-.2l-2.7-2.1l-1.6-1.7l-1.8-2.4l-2.1-3.2l-1.2-2.2l-2.2-5l-1.7-4.7l-2.4-8.4l-.7-3.3l-1.1-6.7l-1.1-8.6l-.2-3l-.2-6.9l.1-5.6l.5-4.9l.7-4.6l1.1-1.8l.4-.3h.6Z" />

  <g id="mouth_area">
  <path d="M111.1 224l.4 .3l.3 .4l.2 .6l-.1 .5l-.4 1.5l-.6 3.7l-2 21l-1.7 19.3L105.7 290l-1.3 21l-.6 17.2l-.2 9l.3 15.8l.4 9.5l1.3 16l.9 9.5l2.2 16.1l2.3 14l2.1 11.3l1.8 8.7l1.5 6.4l1.6 6.3l.1 .6l-.1 .5l-.4 .4l-.4 .3l-.5 .2l-.6-.1l-.5-.2l-.3-.4l-.3-.5l-1.7-6.4l-1.5-6.4L110 430l-2.1-11.4l-2.3-14l-2.2-16.3l-.9-9.5l-1.3-16.1l-.4-9.6l-.3-15.9l.1-9.1l.7-17.3l1.3-21l1.5-18.8l1.7-19.3l2-21l.6-4.1l.5-1.6l.2-.5l.4-.4l.5-.2l.5-.1Z" />
  <path d="M110.4 259.4l-.1 .5l-.2 .5l-.4 .3l-.6 .2l-1.4 .3h-.6l-.5-.3l-.5-.4l-.2-.6v-.6l.3-.5l.8-1.3l.5-.5l6.2-3.6l9.4-4.7l10-4.4l8.4-3.5l4.6-1.7l13.1-4.5l13.4-4.1l9.8-2.5l4.8-1.1l12.3-2.4l8.6-1.4l12.4-1.7l11.4-1.2l.5 .1l.5 .2l.4 .4l.2 .5l.1 .5l-.2 .6l-.3 .4l-.4 .3l-.6 .1l-11.2 1.2l-12.3 1.7l-8.5 1.4l-12.3 2.3l-4.7 1.1l-9.7 2.5l-13.2 4L147.1 242l-4.4 1.8l-8.4 3.4l-9.9 4.4l-9.2 4.6l-5.8 3.3l-1.2-1.6l.4-.1h.5l.5 .2l.5 .4l.2 .4Z" />
  <path d="M111.5 237.6l-.3 .5l-.3 .4l-.5 .3h-.6l-1.4-.1l-.5-.1l-.5-.3l-.3-.4l-.2-.5l.1-.6l.1-.5l.4-.4l1.5-1.1l3-1.2l2.8-.9l5.8-1.6l11.9-2.5l7.9-1.5l13.2-2l15.6-1.9l16.8-1.8l13.4-1l6.9-.4l19.6-.8l19.5-.3l14.4 .2l7 .2l18.1 1.1l12.5 1l10 1.1l14.7 1.9l10.3 1.7l.5 .1l.4 .4l.3 .5l.1 .5l-.1 .5l-.3 .5l-.4 .4l-.5 .1h-.6l-10.2-1.6L307 225.6l-9.9-1.1l-12.4-1l-18.1-1l-6.9-.3l-14.3-.1l-19.4 .2l-19.5 .8l-6.9 .4l-13.3 1.1l-16.8 1.7L154 228.2l-13.1 2l-7.8 1.4l-11.8 2.6l-5.6 1.5l-4.2 1.4Z" />
  <path d="M109 237 Q155 222 230 221 Q155 230 107 260Z"/>
  </g>

  <path id="under_handle" d="M267 313 Q 290 290 335 297 v2 L298 310 z"/>

  <path d="M265.8 313.1l-.3-.5l-.1-.5l.1-.5l1.7-2.5l.4-.4l2.9-1.8l3.4-1.8l3.3-1.5l3.9-1.6l6.5-2.2l10.4-2.7l7.6-1.5l5.6-.8l9-.6l5.5 .1l4.8 .4l2.5 .4l.8 .3l.4 .3l.2 .5l.1 .6l-.1 .5l-.3 .5l-.4 .3l-.6 .2l-3.1-.5l-4.5-.3l-5.3-.1l-8.7 .6l-5.4 .7l-7.4 1.5l-10.2 2.7l-6.3 2.1l-7 3l-3.2 1.7l-2.4 1.5l-1.7 2.2l-.5 .2h-.6l-.5-.2Z" />
  <path d="M267.1 311.5l.1-.5l.3-.5l.4-.3l13.3-1.5l8.1-.4l6.3 .1l2.3 .2l.5 .2l.5 .3l.3 .4l.1 .5v.6l-.3 .5l-.4 .4l-.4 .2l-2.8-.1l-6.1-.2l-5.3 .2l-15.7 1.5l-.5-.2l-.4-.4l-.3-.4Z" />
  <path d="M296 311l-.1-.6l.1-.6l.3-.6l.5-.4l2.2-1.4l5.4-2.2l8.3-2.6l14.7-3.2l5.5-.9h.6l.6 .2l.4 .5l.3 .5l.1 .6l-.1 .6l-.3 .6l-.5 .3l-6 1.1l-11.5 2.5l-8.4 2.3l-7.6 2.9l-2.4 1.5h-.6l-.6-.2l-.5-.4Z" />
  <path d="M165.9 16.4l-.3 .5l-.5 .1H163l-4.7 1l-2.8 .7l-6 2.1l-2.1 .9L145 23l-2.9 2l-2.4 2.2l-2 2.4L136.3 32l-.3 .2h-.5l-.2-.1l-.4-.4l.1-.5l1.4-2.4l2.1-2.6l2.6-2.4l3-2.1l2.6-1.4l4.9-2l3.4-1.1l2.9-.7l4.9-1h2.3l.5 .2l.3 .4Z" />
  <path d="M332.2 269.5l.4-.3h.5l3 1.1l1.5 .7l1.5 1.2l1.1 1.1l1.1 1.5l1 1.9l1 2.4l.8 2.9l.7 3.7l.5 4.3l.3 5.2v6l-.2 6.5l-.5 7.4l-.9 7.5l-1.2 7.6l-1.5 7.8l-1.9 7.5l-2 7l-2.3 6.8l-2.4 6l-3.6 8.1l-3.2 6.5l-3.2 5.8l-2.3 3.6l-.4 .4l-.5-.1l-.3-.1l-.2-.5l.1-.5l2.2-3.6l3.2-5.8l3.2-6.4l3.5-8l2.4-6l2.3-6.7l2-6.9l1.9-7.4l1.5-7.8l1.2-7.6l.8-7.4l.5-7.3l.3-6.5l-.1-5.9l-.3-5.1l-.5-4.2l-.6-3.5l-.8-2.8l-.9-2.2l-.9-1.8l-1-1.3l-.9-1l-1.4-1l-1.2-.6l-2.9-1l-.4-.4l-.1-.5Z" />

 </g>

</svg>
