<svg xmlns="http://www.w3.org/2000/svg">


  <style>
    :root {
      --stroke-width: 8px;
    }
  </style>
  <defs>

    <path id="outlet_matte" d="
      M14 42c53.21,-11.77 91.53,-25.4 151.24,-22.28c-5.44,65.96 -11.65,141.96 2.33,235.81c-36.59,-1.24 -87.13,7.29 -136.28,22.79c-11.34,-80.17 -15.25,-148.71 -17.29,-236.33l0,0.01z
      M59.84,65.5c17.63,11.21 48.64,11.5 75.01,1.68c6.65,20.04 10.02,48 -12.02,69.95c-19.95,-0.55 -43.17,-1.91 -68.85,9.02 c-6.52,-20.6 -8.93,-51.85 5.86,-80z
      M54.65,176.21c18.99,-7.64 45.36,-17.73 69.27,-20.45c13.84,13.84 24.68,29.33 16.94,59.56c-24.41,6.19 -46.66,16.88 -60.93,25.96c-23.18,1.26 -30.52,-36.55 -25.29,-65.07z
    " fill-rule="evenodd" />

    <path id="outlet_matte_no_heads"
      d=" M14 42c53.21,-11.77 91.53,-25.4 151.24,-22.28c-5.44,65.96 -11.65,141.96 2.33,235.81c-36.59,-1.24 -87.13,7.29 -136.28,22.79c-11.34,-80.17 -15.25,-148.71 -17.29,-236.33l0,0.01z " />

    <g id="outlet" fill="none" stroke="var(--outline-color, #000)">

      <g id="plate" stroke-width="calc(var(--line-width, 4) / 4)">
        <path
          d="m12.26,41.56 c47.18,-11.41 96.01,-23.65 151.47,-22.43 c-8.14,85 -8.63,153.32 2.63,236.95 c-42.94,-1.01 -92.16,8.9 -136.18,22.37 c-9.8,-74.87 -16.87,-153.56 -17.92,-230 z"
          stroke-width="var(--line-width, 4)" />
        <g stroke="var(--plate-line-color, var(--outline-color, #000))">
          <path d="m18.34,44.45c3.24,1.73 7.02,4 9.72,6.4c-0.58,65.37 1.1,121.14 6.73,179.17" />
          <path d="m147.39,26.94c-22.63,-4.24 -105.71,15.92 -119.4,24.33" />
          <path d="m34.07,269.48c2.25,-2.31 5.21,-6.52 6.74,-10.49c7.76,4.99 53.52,-0.48 80.29,-4.99" />
        </g>
      </g>

      <g id="screw" fill="none" stroke="var(--outline-color, #000)" stroke-width="calc(var(--line-width, 4) / 8)">
        <ellipse cx="90" cy="151" rx="5.28" ry="3.28" transform-origin="90 151" transform="rotate(-14)" />
        <path d="m85.75,153.45l8.54,-3.71l-8.54,3.71z" />
        <path d="m84.35,152.25l9.14,-2.81l-9.14,2.81z" />
      </g>

      <g id="top_head" fill="none" stroke="var(--outline-color, #000)" stroke-width="var(--line-width, 4)">
        <path d="m72.73,115.32l28.47,-1.46l-4.26,4.26l0.53,6.04l-22.38,3.02l-2.36,-11.86z" stroke="none"
          fill="var(--outline-color, #000)" />

        <path id="top_head_matte"
          d=" m59.84,65.5c17.63,11.21 48.64,11.5 75.01,1.68c6.65,20.04 10.02,48 -12.02,69.95c-19.95,-0.55 -43.17,-1.91 -68.85,9.02 c-6.52,-20.6 -8.93,-51.85 5.86,-80z " />
        <path d="m92.13,86.83l-14.7,18.92l14.7,-18.92z" />
        <path d="m113.74,88.08l-12.15,16.59l12.15,-16.59z" />

        <g stroke-width="calc(var(--line-width, 4) / 1.5)">
          <path
            d="m112.71,114.54c-13.61,-2.51 -26.82,-0.23 -39.83,0.66c1.95,3.17 2.6,7.94 2.14,12.41c12.03,-2.6 24.66,-4 35.79,-3.01" />
          <path d="m97.68,124.02c-0.7,-0.47 -3.3,-7.33 5.3,-10.34" />
        </g>

      </g>

      <g id="bottom_head" fill="none" stroke="var(--outline-color, #000)" stroke-width="var(--line-width, 4)">
        <path d="m99.19,199.73l5.21,3.82l-2.49,10.12l-3.91,2.84l-1.07,-10.12l2.25,-6.66l0.01,0z " stroke="none"
          fill="var(--outline-color, #000)" />

        <path id="bottom_head_matte" d="
        m54.65,176.21c18.99,-7.64 45.36,-17.73 69.27,-20.45c13.84,13.84 24.68,29.33 16.94,59.56c-24.41,6.19 -46.66,16.88 -60.93,25.96c-23.18,1.26 -30.52,-36.55 -25.29,-65.07z
        " />
        <path d="m92.28,192.43c-4.2,-2.83 -8.8,-7.16 -11.5,-13.39" />
        <path d="m113.49,183.90c-4.7,-2.13 -11.2,-6.16 -14.8,-10.99" />

        <g stroke-width="calc(var(--line-width, 4) / 2)">
          <ellipse fill="none" rx="5.46" ry="11.73" cx="102.5" cy="207" transform-origin="102.5 207"
            transform="rotate(10)" />
          <path d="m100.00,199.30c0,0 4.92,1.64 4.37,7.65c-0.55,6.01 -5.46,9.29 -5.59,9.19" />
        </g>

      </g>

    </g>

    <path id="friar_matte" d=" M37.90,418.60 C20.45,344.98 10.96,224.01 38.65,102.15 L56.33,94.56 L59.23,77.56 L71.93,75.18 L75.10,65.66 C113.76,53.64 162.73,41.48 220.34,60.10 C223.36,60.87 225.55,64.29 225.23,66.17 L233.83,69.62 L234.62,90.25 L 245 93.75 Q 260 160 263 240 Q 230 233 203 245 L 202 271 H 225 L 251 264 Q 248 300 232 332 L 259 332 L 264.78,329.13 L259.54,331.23 C256.52,361.16 251.55,389.14 239.99,417.68 L37.85,418.58 L37.86,418.60 Z M 180 150 a 24 35 0 1 1 0 0.1z z " fill-rule="evenodd" />

    <path id="friar_handle_matte" d=" M 259 332 L 266 330 Q 280 288 272 243 L 263 240 Q 230 233 203 245 L 202 271 H 225 L 251 264 Q 248 300 232 332 L 259 332 Z " />

    <path id="happy_eye_matte" d=" M 180 150 a 24 35 0 1 1 0 0.1z " />

    <g id="friar_body" fill="var(--outline-color, #000)" >

      <path id="under_handle"
        d="m202.90,269.91c11.44,-5.54 28.87,-12.05 48.11,-10.35l-0.42,4.74c-9.29,0.84 -19.13,3.06 -25.77,5.85l-21.92,-0.24z" />
      <path
        d="m42.44,101.15l0.1,0.5l-0.1,0.6l-0.2,0.5l-1.9,1.3l-1,2.7l-2.9,12l-4,21l-2.9,19.1l-2.9,24.1l-1.8,19.7l-1.4,19.7l-1,20.7l-0.5,23.5l0.1,21.5l0.7,20.9l1.4,21.7l1.7,18.4l2.1,16.6l2.6,14.7l2.5,12l2.2,9.4l1.8,6.9l2.4,7.7l0.1,0.5l-0.1,0.6l-0.3,0.4l-0.5,0.4l-0.5,0.2l-0.5,0l-0.6,-0.3l-0.4,-0.3l-0.3,-0.5l-2.4,-7.8l-1.9,-7l-2.2,-9.4l-2.5,-12.2l-2.6,-14.7l-2.1,-16.9l-1.8,-18.5l-1.3,-21.7l-0.7,-21.1l-0.1,-21.6l0.5,-23.5l1,-20.8l1.3,-19.8l1.9,-19.8l2.9,-24.1l3.7,-23.9l3.2,-16.5l3,-12.2l1.2,-3.5l0.7,-0.8l2.4,-1.4l0.6,0l0.5,0.1l0.5,0.4l0.3,0.5z" />
      <path
        d="m38.14,102.35l-0.2,-0.5l0.1,-0.6l0.2,-0.5l0.4,-0.4l2.1,-1.6l0.4,-0.2l7.6,-2.3l9.2,-2.5l8.5,-2.1l4.9,-1.1l9.4,-1.9l12.3,-2.1l11,-1.7l7,-0.9l7.1,-0.8l7.3,-0.7l12.7,-0.8l7.8,-0.4l7.6,-0.2l12.5,-0.2l7.3,0.1l7.1,0.2l6.9,0.3l10.9,1l6.3,0.7l5.9,0.7l5.5,0.9l8.7,1.7l7,1.6l5.3,1.5l3.9,1.2l3.7,1.3l0.5,0.3l0.4,0.5l0.2,0.5l0,0.6l-0.2,0.5l-0.4,0.4l-0.5,0.3l-0.6,0.1l-0.5,-0.1l-3.6,-1.3l-3.8,-1.2l-5.2,-1.4l-6.9,-1.6l-8.6,-1.7l-5.4,-0.8l-5.8,-0.8l-6.2,-0.7l-10.8,-0.9l-6.9,-0.3l-7,-0.2l-7.2,-0.1l-12.4,0.1l-7.6,0.3l-7.7,0.4l-12.7,0.8l-7.2,0.7l-7.1,0.8l-6.9,0.9l-10.8,1.6l-12.3,2.2l-9.4,1.8l-4.8,1.1l-8.4,2.1l-9.1,2.4l-7.2,2.2l-1.9,1.4l-0.5,0.3l-0.6,0l-0.5,-0.1l-0.5,-0.3l-0.3,-0.5z" />
      <path
        d="m90.64,371.35l0.4,-0.4l0.5,-0.2l0.6,0l0.6,0.2l1.2,0.6l1.7,0.5l6.7,1.4l4.3,0.6l8.1,0.7l14.7,0.7l12.5,0.3l10.4,-0.1l21.4,-0.6l21.5,-1.2l20.2,-1.6l9.8,-1.1l14.1,-2l12.5,-2.3l0.6,-0.1l0.6,0.2l0.5,0.4l0.3,0.5l0.1,0.6l-0.1,0.5l-0.2,0.6l-0.5,0.4l-0.5,0.2l-12.8,2.4l-14.2,2l-9.9,1.1l-20.3,1.6l-21.6,1.2l-21.4,0.6l-10.5,0.1l-12.6,-0.3l-14.9,-0.7l-8.1,-0.7l-4.5,-0.7l-7,-1.4l-2,-0.6l-1.7,-0.8l-0.5,-0.4l-0.3,-0.5l-0.1,-0.6l0.1,-0.6l0.3,-0.5z" />
      <path
        d="m59.64,77.15l0.5,0.1l0.5,0.3l0.4,0.4l0.2,0.6l0.2,1.5l0,2.9l-0.3,1.6l-0.7,3.1l-0.7,2l-0.7,1.5l-1.9,3.4l-1.4,1.9l-0.4,0.4l-0.5,0.2l-0.6,0l-0.5,-0.1l-0.5,-0.4l-0.3,-0.5l-0.1,-0.5l0.1,-0.6l2.5,-4.1l1.2,-2.5l0.7,-1.8l0.3,-1.2l0.5,-2.7l0.1,-1.3l-0.1,-1.1l-0.2,-1.2l0,-0.6l0.2,-0.5l0.4,-0.4l0.5,-0.3l0.6,-0.1z" />
      <path
        d="m61.84,78.65l-0.1,0.6l-0.3,0.5l-0.4,0.4l-0.5,0.2l-1.3,0.3l-0.6,0l-0.6,-0.2l-0.5,-0.4l-0.2,-0.6l-0.1,-0.6l0.2,-0.6l0.4,-0.5l1.2,-1l0.5,-0.2l6.7,-2.4l8.6,-2.5l10.2,-2.6l9.3,-1.9l5.1,-1l15.6,-2.4l17,-2.1l12.9,-1.2l6.5,-0.4l10.7,-0.5l6.4,-0.2l10.2,0l6,0.1l5.7,0.2l5.5,0.3l5.2,0.5l7.8,1l4.4,0.7l6.9,1.4l5.4,1.4l4.2,1.3l3,1l2.9,1.2l0.4,0.4l0.4,0.4l0.1,0.6l0,0.5l-0.3,0.6l-0.4,0.4l-0.5,0.2l-0.5,0.1l-0.6,-0.2l-2.7,-1.1l-2.8,-1l-4.1,-1.3l-5.3,-1.3l-6.7,-1.4l-4.3,-0.7l-7.7,-1l-5.1,-0.4l-5.3,-0.3l-5.7,-0.2l-5.9,-0.1l-10.2,0l-6.3,0.1l-10.7,0.5l-6.3,0.5l-12.8,1.2l-17,2l-15.4,2.4l-5.1,1l-9.2,1.9l-10.1,2.5l-8.4,2.5l-6.3,2.2l-1.1,-2.3l0.5,0l0.6,0.1l0.4,0.4l0.3,0.5l0.2,0.5z" />
      <path
        d="m234.54,68.35l0.5,0.2l0.4,0.5l0.2,0.5l0.1,0.5l-0.4,4.7l0,3.6l0.2,4.2l1,6.8l0,0.6l-0.2,0.5l-0.4,0.5l-0.5,0.3l-0.5,0.1l-0.6,-0.1l-0.5,-0.3l-0.4,-0.4l-0.2,-0.6l-0.3,-2.2l-0.6,-4.9l-0.3,-4.4l0,-3.8l0.4,-4.9l0.2,-0.6l0.3,-0.4l0.5,-0.3l0.5,-0.2l0.6,0.1z" />
      <path
        d="m202.38,244.28l0,-0.4l0.1,-0.5l0.31,-0.3l2.47,-1l6.49,-1.5l7.42,-1.4l6.59,-1l7.11,-0.8l7.11,-0.4l11.12,-0.1l5.25,0.4l4.74,0.7l2.88,0.7l2.27,0.6l1.96,0.7l2.47,1.2l1.24,0.8l0.31,0.3l0.31,0.4l0,0.5l-0.1,0.4l-0.31,0.4l-0.41,0.3l-0.41,0.1l-0.52,0l-1.55,-0.9l-2.16,-1.1l-1.75,-0.5l-4.84,-1.2l-4.53,-0.7l-5.05,-0.4l-10.82,0.1l-7,0.4l-7,0.8l-6.49,1l-7.31,1.4l-4.12,0.9l-4.43,1.3l-0.52,-0.1l-0.41,-0.3l-0.31,-0.3l-0.1,-0.5l-0.01,0z" />
      <path
        d="m270.54,241.65l0.6,0l0.5,0.3l0.4,0.3l0.9,2.6l1.1,4.7l0.9,6.4l0.7,10.9l-0.1,11.5l-1,12.9l-1.6,12.6l-1.2,6.4l-2.2,9.8l-1.7,6.2l-1,3.2l-0.3,0.5l-0.4,0.4l-0.5,0.2l-0.5,0l-0.5,-0.2l-0.5,-0.3l-0.2,-0.5l-0.1,-0.5l1.1,-3.8l1.6,-6l2.2,-9.6l1.1,-6.3l1.9,-15.8l0.8,-12.5l-0.2,-12.7l-0.9,-9.3l-1,-5.1l-1.2,-4.8l0.1,-0.5l0.3,-0.5l0.4,-0.3l0.5,-0.2z" />
      <path
        d="m251.54,259.45l0.6,0.2l0.4,0.4l0.2,0.5l-0.2,8.8l-0.9,8.1l-0.8,5l-1.2,5.4l-3.5,12.5l-6.8,19.7l-3.5,8.6l-1.3,3.1l-1,1.7l-0.5,0.3l-0.5,0.1l-0.6,-0.1l-0.5,-0.2l-0.4,-0.4l-0.2,-0.5l0,-0.6l2.1,-4.7l3.4,-8.4l6.6,-19.6l3.5,-12.3l1.2,-5.3l0.8,-4.8l0.5,-4.2l0.8,-12.3l0.3,-0.5l0.4,-0.4l0.6,-0.1l0.5,0z" />
      <path
        d="m230.34,329.45l0.5,-0.2l0.5,-0.2l0.5,0.1l2.1,1.5l1.9,0.5l2.3,0.1l5.3,-0.2l7.5,-0.8l12.9,-2.4l0.5,-0.1l0.6,0.2l0.4,0.3l0.3,0.5l0.1,0.5l-0.1,0.5l-0.2,0.5l-0.4,0.4l-0.5,0.2l-13.1,2.5l-7.8,0.8l-5.5,0.2l-2.6,-0.2l-2.6,-0.5l-0.6,-0.3l-2.2,-1.9l-0.2,-0.5l-0.1,-0.5l0.2,-0.5l0.3,-0.5z" />
      <path
        d="m27.05,368.85l0.3,0.5l0.2,0.5l-0.1,0.6l-1.7,2.6l-1.7,1.7l-1.9,1.5l-2.5,1.5l-2.2,0.9l-2.7,1l-3,0.7l-3.4,0.6l-4.3,0.4l-6.8,0.1l-7.8,-0.7l-8.7,-1.4l-3.3,-0.7l-10.1,-2.6l-10.9,-3.3l-11.4,-4.1l-11.8,-4.7l-11.6,-5.7l-7.2,-4.1l-3.9,-2.4l-6.8,-4.8l-3.5,-2.8l-6,-5.4l-3.2,-3.2l-4.9,-6l-2.6,-3.4l-3.9,-6.6l-1.9,-3.8 l-2.6,-7l-1.2,-4l-1.2,-7.3l-0.4,-4.2l0.2,-7.4l0.4,-4.1l0.7,-4.1l0.8,-3.9l0.9,-3.3l1.3,-3.8l1.5,-3.7l1.4,-3.1l1.9,-3.5l3.9,-6.3l2.4,-3.2l4.7,-5.5l2.7,-2.8l5.3,-4.7l3,-2.3l5.6,-3.8l3.2,-1.7l5.7,-2.6l3.1,-1.1l5.7,-1.5l3,-0.5l2.9,-0.2l2.5,0l2.7,0.2l2.8,0.5l4.6,1.6l2.4,1.3l3.9,3l2,2l1.8,2.3l2.7,5l1.4,3.1l1.8,6.1l0.9,3.6l0.9,6.7l0.3,3.8l0.1,6.9l-0.2,3.9l-0.9,6.7l-0.6,3.7l-1.8,6.3l-1.1,3.4l-2.5,5.5l-1.5,3l-3.2,4.4l-2,2.4l-3.8,3.3l-2.4,1.6l-4.3,2l-2.6,0.9l-4.7,0.5l-2.7,0.1l-4.9,-0.8l-2.8,-0.8l-5,-2.1l-2.8,-1.5l-5,-3.4l-5.5,-4.3l-7.9,-6.9l-16.6,-16.7l-5.8,-5.5l-6.6,-5.8l-2.9,-2.3l-3.5,-2.5l-3.6,-2.3l-3.1,-1.8l-3.8,-1.9l-3.9,-1.6l-3.3,-1.1l-4.1,-1.1l-4.1,-0.8l-3.5,-0.5l-4.3,-0.2l-4.4,0.1l-3.7,0.3l-4.4,0.7l-4.4,1l-3.7,1.1l-4.4,1.6l-4.3,2l-3.6,1.9l-4.2,2.5l-4.1,2.8l-3.4,2.6l-3.9,3.3l-3.7,3.5l-3.5,3.7l-5.8,7.8l-2.4,3.5l-2.6,4.3l-2.3,4.3l-1.8,4.2l-2.2,7.7l-0.7,3.9l0.2,6.7l0.5,3.2l2.4,5.1l3.3,4.3l3.5,3.2l3.3,2.3l2.8,1.6l2.2,0.9l2.7,0.6l0.2,-0.6l0.4,-0.4l0.4,-0.4l0.6,-0.1l0.6,0.1l0.5,0.2l1,1.4l0.2,0.6l0,0.6l-0.2,0.6l-0.4,0.4l-0.6,0.3l-2.1,0.6l-0.8,0l-3.3,-0.7l-2.7,-1.1l-3.2,-1.7l-3.6,-2.6l-3.9,-3.5l-3.6,-4.7l-2.8,-5.8l-0.7,-4l-0.2,-7.2l0.8,-4.5l2.2,-8l2.1,-4.6l2.3,-4.4l2.7,-4.5l2.5,-3.7l5.9,-7.9l3.7,-4l3.9,-3.6l4,-3.5l3.5,-2.6l4.3,-2.9l4.4,-2.7l3.7,-1.9l4.5,-2.1l4.6,-1.7l3.9,-1.2l4.6,-1l4.7,-0.8l3.9,-0.3l4.6,-0.1l4.5,0.2l3.8,0.5l4.3,0.9l4.3,1.1l3.6,1.2l4,1.7l4,2l3.3,1.8l3.7,2.5l3.7,2.6l2.9,2.3l6.8,5.9l5.9,5.7l16.6,16.6l7.7,6.8l5.3,4.1l4.9,3.3l2.5,1.3l4.7,2.1l2.4,0.6l4.4,0.7l2.3,0l4.2,-0.6l2.1,-0.7l3.9,-1.8l1.9,-1.3l3.6,-3.1l1.6,-2l3,-4.3l1.4,-2.6l2.4,-5.3l1,-3.1l1.7,-6.1l0.6,-3.4l0.8,-6.6l0.2,-3.6l0,-6.7l-0.4,-3.6l-0.9,-6.5l-0.8,-3.3l-1.7,-5.9l-1.3,-2.7l-2.5,-4.7l-1.5,-1.9l-1.7,-1.7l-3.5,-2.7l-2,-1l-4.1,-1.4l-2.4,-0.4l-2.4,-0.2l-2.2,0l-2.7,0.2l-2.7,0.4l-5.3,1.4l-2.9,1.1l-5.5,2.5l-2.9,1.6l-5.4,3.5l-2.9,2.2l-5,4.5l-2.6,2.7l-4.5,5.3l-2.3,3.1l-3.8,6l-1.8,3.4l-1.3,2.9l-1.4,3.6l-1.3,3.6l-0.8,3.1l-0.8,3.8l-0.6,3.8l-0.4,3.9l-0.2,7.2l0.3,3.8l1.2,7.1l1.1,3.6l2.5,6.8l1.8,3.5l3.7,6.3l2.5,3.2l4.8,5.9l3,2.9l5.8,5.3l3.4,2.6l6.6,4.7l3.8,2.4l7.1,4.1l11.4,5.5l11.6,4.7l11.3,3.9l10.7,3.4l10,2.5l3.2,0.7l8.4,1.4l7.5,0.6l6.6,0l4,-0.4l3.2,-0.6l2.7,-0.7l2.5,-0.9l1.8,-0.8l2.2,-1.3l1.6,-1.2l1.3,-1.4l1.7,-2.2l0.5,-0.2l0.6,-0.1l0.5,0.2l0.5,0.3z" />
      <path
        d="m62.94,108.55l0.4,0.4l0.1,0.5l-1.6,10.3l-1.6,12.3l-1.3,11.4l-1.1,10.1l-1,10.8l-1.1,12l-0.6,7.2l-0.6,7.5l-0.4,6.4l-0.6,8l-0.5,8.2l-0.3,7l-0.4,8.4l-0.4,8.6l-0.2,7.1l-0.2,8.5l-0.2,8.4l-0.1,6.9l-0.1,8.2l0,7.9l0.1,6.4l0.1,7.4l0.3,12.7l0.6,12.4l0.6,10.1l0.8,8.9l1.6,11.9l1.1,5.7l2.1,8.2l1.8,4.9l0,0.6l-0.4,0.4l-0.2,0.1l-0.6,0l-0.4,-0.5l-1.8,-5l-2.1,-8.4l-1.1,-5.7l-1.6,-12l-0.8,-8.9l-0.7,-10.2l-0.5,-12.5l-0.4,-12.7l-0.1,-7.4l0,-14.3l0.1,-8.2l0.1,-6.9l0.1,-8.4l0.3,-8.6l0.2,-7.1l0.3,-8.5l0.4,-8.5l0.4,-7l0.5,-8.2l0.5,-8l0.5,-6.4l0.6,-7.5l0.6,-7.2l1.1,-12.1l1,-10.8l1.1,-10.1l1.3,-11.4l1.6,-12.3l1.6,-10.4l0.3,-0.5l0.5,-0.1l0.3,0z" />
      <path
        d="m38.44,300.45l0.3,-0.5l0.6,-0.2l2.5,0.2l6.5,-1l3.3,-0.7l0.6,0.1l0.4,0.4l0,0.3l-0.1,0.5l-0.5,0.3l-6.3,1.3l-3.7,0.4l-2.8,-0.1l-0.5,-0.2l-0.3,-0.5l0,-0.3z" />
      <path
        d="m37.54,305.85l0.2,-0.6l0.5,-0.3l2.4,-0.5l10.6,0l10.7,0.6l0.5,0.3l0.2,0.5l0,0.3l-0.3,0.4l-0.6,0.2l-10.6,-0.7l-10.4,0.1l-2.2,0.4l-0.5,-0.1l-0.4,-0.4l-0.1,-0.2z" />
      <path
        d="m87.74,68.05l0.5,0.2l0.2,0.5l0.4,2.5l-0.4,2.9l-0.7,2.2l-1,2.6l-1.5,2.9l-3.8,5.7l-1.3,1.6l-0.4,0.3l-0.6,0l-0.2,-0.2l-0.2,-0.5l0.1,-0.6l1.3,-1.6l3.6,-5.6l1.5,-2.7l1,-2.4l0.6,-2.1l0.3,-2.6l-0.3,-2.2l0.1,-0.5l0.5,-0.4l0.3,0z" />
      <path
        d="m203.34,243.15l0.5,0.1l0.4,0.3l0.3,0.4l0.1,0.5l0,8.3l-0.4,10.4l-0.4,6.1l-0.1,0.5l-0.3,0.4l-0.4,0.3l-0.5,0.1l-0.5,-0.1l-0.5,-0.2l-0.3,-0.3l-0.3,-0.5l0,-0.5l0.4,-6l0.4,-10.2l0,-8.6l0.3,-0.5l0.3,-0.3l0.5,-0.2l0.5,0z" />
      <path
        d="m243.64,91.25l0.6,0l0.5,0.2l0.4,0.4l0.3,0.5l3.3,11.8l2,8.2l3.6,18.3l2.1,12.7l3.6,25.7l2.6,22.1l1.7,16.9l0.6,9.7l0.2,5.3l0,5l-0.2,7.1l-0.4,4.1l-0.2,0.5l-0.3,0.5l-0.5,0.3l-0.5,0.1l-0.6,0l-0.5,-0.3l-0.4,-0.4l-0.2,-0.5l-0.1,-0.6l0.4,-3.9l0.2,-7l0,-4.9l-0.1,-5.2l-0.7,-9.5l-1.6,-16.9l-2.6,-22l-3.6,-25.6l-2.1,-12.6l-3.6,-18.2l-2,-8.1l-3.3,-11.6l0,-0.6l0.1,-0.5l0.3,-0.5l0.5,-0.3l0.5,-0.2z" />
      <path
        d="m259.74,330.55l0.5,0.2l0.4,0.4l0.3,0.5l0.1,0.5l0,3.7l-0.3,3.8l-1.4,9.5l-3.3,17.8l-3.6,15.9l-4.5,16.8l-2.9,9l-3.3,8.7l-0.3,0.5l-0.5,0.3l-0.5,0.2l-0.6,-0.1l-0.5,-0.2l-0.4,-0.4l-0.3,-0.5l-0.1,-0.5l0.2,-0.6l3.2,-8.4l2.8,-8.9l4.5,-16.7l3.5,-15.7l3.3,-17.8l1.4,-9.3l0.3,-3.6l0.1,-3.4l0,-0.6l0.3,-0.5l0.5,-0.4l0.5,-0.2l0.6,0z" />
      <path
        d="m77.04,67.85l-0.2,0.5l-0.3,0.5l-0.5,0.3l-0.5,0.2l-1.3,0.1l-0.6,-0.1l-0.5,-0.2l-0.4,-0.4l-0.3,-0.6l0,-0.5l0.2,-0.6l0.6,-1.2l0.8,-0.8l1.7,-0.8l5.8,-2.1l10.7,-3.2l6.6,-1.6l7.6,-1.7l6.8,-1.3l11.8,-1.8l9.3,-1.1l9.6,-0.9l7.8,-0.4l12.3,-0.2l8.8,0.3l4.3,0.2l10.6,1l7.2,0.9l11.1,1.9l7.9,1.6l7.6,2l0.5,0.3l0.4,0.4l0.2,0.5l0.1,0.6l-0.2,0.5l-0.3,0.5l-0.5,0.3l-0.5,0.1l-0.6,0l-7.5,-2l-7.8,-1.6l-7.6,-1.4l-10.3,-1.3l-10.6,-1l-4.1,-0.2l-8.7,-0.3l-12.2,0.2l-7.7,0.4l-9.5,0.8l-9.2,1.1l-11.7,1.9l-6.7,1.3l-7.5,1.6l-6.5,1.6l-10.4,3.1l-5.6,2l-1.1,0.6l-1.2,-1.7l0.5,-0.1l0.6,0.1l0.5,0.2l0.4,0.4l0.2,0.5l0.1,0.6z" />
      <path
        d="m251.44,244.65l0.5,-0.2l0.5,0.2l1.6,1.3l1.1,1.8l0.9,2.2l0.7,2l0.6,2.5l0.7,4.2l0.3,5.2l0,4.3l-0.1,2.4l-0.7,6.9l-1.2,7.6l-1.6,7.7l-2.3,8.7l-2.4,7.4l-1.7,4.4l-3.5,7.8l-3.2,6.4l-0.7,1.1l-0.5,0.4l-0.5,0l-0.3,-0.2l-0.2,-0.4l0.1,-0.6l0.6,-1.1l3.3,-6.3l3.4,-7.8l1.7,-4.3l2.4,-7.3l2.2,-8.5l1.6,-7.7l1.2,-7.6l0.7,-6.8l0.1,-2.2l-0.1,-4.3l-0.3,-5.1l-0.6,-4l-0.6,-2.4l-0.6,-1.9l-0.9,-2l-0.9,-1.5l-1.3,-1l-0.3,-0.5l0.1,-0.6l0.2,-0.2z" />
      <path
        d="m200.84,272.35l-0.41,-0.4l-0.1,-0.5l0,-0.6l0.2,-0.5l0.71,-1.2l0.41,-0.4l1.22,-0.9l1.22,-0.7l2.65,-1.4l4.89,-2.1l4.79,-1.6l5.5,-1.6l5.8,-1.2l5.8,-0.9l5.4,-0.4l3.16,-0.1l4.68,0.1l1.73,0.2l1.93,0.3l0.92,0.3l0.41,0.4l0.31,0.5l0,0.5l-0.1,0.6l-0.31,0.5l-0.41,0.3l-0.61,0.2l-0.81,-0.1l-3.36,-0.4l-4.38,-0.2l-3.05,0.1l-5.09,0.5l-5.6,0.8l-5.6,1.2l-5.3,1.5l-4.58,1.6l-4.68,2l-2.44,1.2l-1.83,1.2l-0.51,0.9l-0.41,0.4l-0.51,0.3l-0.61,0.1l-0.51,-0.2l-0.51,-0.3l-0.01,0z" />
      <path
        d="m201.64,270.85l0.1,-0.5l0.3,-0.5l0.5,-0.3l0.5,-0.2l10,-1.1l5.3,-0.2l6.5,0.2l0.6,0.2l0.4,0.3l0.3,0.5l0.2,0.5l-0.1,0.6l-0.2,0.5l-0.4,0.4l-0.5,0.3l-0.6,0l-6.2,-0.2l-5,0.2l-9.8,1l-0.6,0l-0.5,-0.2l-0.4,-0.4l-0.3,-0.5l-0.1,-0.6z" />
      <path
        d="m223.46,270.88l-0.11,-0.49l0.11,-0.59l0.33,-0.49l0.43,-0.39l1.52,-0.88l3.58,-1.27l3.58,-1.08l6.84,-1.57l5.97,-1.08l3.8,-0.59l0.65,0l0.54,0.2l0.43,0.39l0.33,0.49l0.11,0.59l-0.11,0.49l-0.33,0.49l-0.54,0.29l-0.54,0.2l-3.8,0.59l-10.31,2.06l-5.43,1.57l-3.15,1.18l-1.3,0.69l-0.54,0.2l-0.54,0l-0.65,-0.1l-0.43,-0.39l-0.43,-0.49l-0.01,-0.02z" />
      <path
        d="m135.44,53.85l-0.3,0.5l-0.5,0.2l-1.3,-0.1l-4.1,0.9l-3.1,0.8l-3.4,1.3l-1.7,0.8l-1.6,0.9l-1.5,1l-1.7,1.6l-0.8,1l-1.1,1.4l-0.7,1.3l-0.3,0.2l-0.5,0l-0.3,-0.2l-0.3,-0.4l0.1,-0.6l0.6,-1.1l1.2,-1.7l0.9,-1l1.9,-1.7l1.6,-1.1l1.7,-1l1.8,-0.9l3.6,-1.3l4.5,-1.3l3,-0.5l1.5,0l0.5,0.2l0.3,0.5l0,0.3z" />

    </g>

    <g id="friar_face" fill="var(--outline-color, #000)" >

      <g id="happy_eye" fill="var(--outline-color, #000)">
        <path d="m197.64,120.45l-1.2,1.4l-0.7,1.2l-0.9,1.9l-0.9,2.4l-1,4.2l-0.8,5.5l-0.2,2.4l0,7.4l0.2,5.8l0.3,3l0.7,5l0.6,2.8l1.2,4.6l0.8,2.6l1.8,4.6l1,1.9l1.8,2.7l1,1.2l1.9,1.6l2.3,1.2l2,0.5l1.5,-0.3l3,-1.6l1,-0.8l1.9,-2.1l2.2,-3l2,-3.4l2.4,-5.4l1.2,-3.9l1.3,-4.7l0.8,-4.8l0.2,-4.3l0,-2.6l-0.4,-5.2l-0.7,-4.2l-0.6,-2.4l-0.7,-2.4l-1.5,-3.8l-2,-4.1l-1,-1.8l-1.9,-2.6l-1.1,-1.3l-1.8,-1.7l-2.2,-1.3l-1.9,-0.6l-1.7,-0.2l-1.4,0l-2.7,0.5c-1.6,0.53 -3,1.47 -4.5,2.5l-1.8,-2.1l4.1,-2.9l1.8,-0.7l0.5,-0.2l2.2,-0.4l1.9,0l2.2,0.3l2.5,0.7l2.8,1.7l2.3,2.1l1.4,1.5l2,2.9l1.2,2l1.1,2.1l1,2.3l1.6,4l0.8,2.6l0.6,2.6l0.5,2.7l0.5,4.5l0.2,2.8l0,2.7l-0.2,4.5l-0.4,2.7l-0.5,2.5l-1.3,5.1l-1.3,4l-1,2.2l-1.6,3.6l-2.2,3.7l-2.4,3.3l-2,2.3l-1.4,1.1l-3.6,2l-0.5,0.2l-2.2,0.4l-0.6,0l-2.6,-0.6l-3,-1.6l-2.4,-1.9l-1.4,-1.7l-2,-2.9l-1.2,-2.3l-1,-2.4l-0.9,-2.5l-0.9,-2.7l-1.2,-4.8l-0.6,-3.1l-0.8,-5.1l-0.2,-3.1l-0.3,-6l0.1,-7.6l0.4,-4.9l0.5,-3.4l1.1,-4.6l1,-2.7l1.1,-2.2l0.9,-1.6l1.5,-1.7l1.7,-1.5l5.1,-1.4l-4.4,5.1z" />
        <path d="m184.84,126.75l0.3,0.4l0.2,0.6l-0.1,0.6l-0.3,0.5l-0.8,1.1l-0.8,2.4l-1.1,4.6l-0.7,4.4l-0.5,7.1l0,4.1l0.5,5.6l1.2,5.7l1.3,3.8l2.1,4.2l1.5,2.5l1.4,2l1.2,1.4l2.6,2.5l0.2,0.6l0,0.5l-0.2,0.6l-0.3,0.4l-0.5,0.3l-0.6,0.1l-0.5,0l-1.1,-0.8l-2,-1.9l-1.3,-1.7l-1.6,-2.1l-1.7,-2.7l-2.2,-4.5l-0.8,-2.2l-1.2,-4.3l-0.7,-3.8l-0.6,-6l0,-2.3l0.1,-4.2l0.5,-5.3l0.7,-4.5l1.2,-5l0.9,-2.8l0.2,-0.5l1,-1.3l0.4,-0.4l0.6,-0.2l0.5,-0.1l0.6,0.2l0.4,0.4z" />
        <path d="m182.46,128.35l-0.07,-0.6l0.15,-0.53l0.25,-0.54l0.48,-0.36l1.58,-0.79l2.84,-2.57l5.81,-4.13l4.88,-3.11l0.49,-0.26l0.62,-0.07l0.55,0.24l-4.54,5.92l-5.61,4.01l-2.96,2.48l-2.07,1.16l-0.49,0.26l-0.63,-0.03l-0.55,-0.24l-0.46,-0.35l-0.27,-0.48l0,-0.01z" />
      </g>

      <g id="happy_mouth" fill="var(--outline-color, #000)">
        <path d="m87.84,204.05l0.5,0.3l0.4,0.5l0.1,0.5l-0.6,3.8l-1.9,20l-2.2,26l-1,16.8l-0.4,18.7l0.6,19.4l1,12.5l0.7,6.6l1.7,11.5l1.6,9.8l2.8,13.9l2.2,8.3l0.1,0.6l-0.2,0.6l-0.3,0.5l-0.5,0.3l-0.5,0.1l-0.6,0l-0.5,-0.2l-0.4,-0.4l-0.3,-0.6l-2.2,-8.5l-2.8,-14l-1.7,-9.9l-1.6,-11.6l-0.8,-6.7l-1,-12.5l-0.6,-19.6l0.4,-18.9l1,-16.9l2.2,-26.1l1.9,-20.2l0.9,-3.9l0.4,-0.5l0.5,-0.2l0.5,-0.1l0.6,0.1z" />
        <path d="m86.34,211.15l0.3,-0.5l0.5,-0.4l0.5,-0.1l0.6,0l1.6,0.3l2.1,0.2l11.6,0.3l23.9,-0.1l25.3,-0.1l26.3,-0.1l22.9,-0.3l21.2,-0.5l25.2,-0.9l2.5,-0.1l0.5,0.1l0.5,0.3l0.4,0.4l0.2,0.5l0.1,0.6l-0.2,0.5l-0.3,0.5l-0.5,0.3l-0.6,0.1l-2.4,0.1l-25.3,0.9l-21.2,0.5l-23,0.2l-26.2,0.2l-25.4,0.1l-23.9,0.1l-11.8,-0.3l-2.3,-0.2l-1.9,-0.4l-0.5,-0.2l-0.5,-0.4l-0.2,-0.5l-0.1,-0.6l0.1,-0.5z" />
      </g>

      <g id="talking_mouth" fill="var(--outline-color, #000)">
        <path d=" M 85.8 213 Q 205 195, 258 210 l -2 8 l 5 2 Q 230 240, 85 223 Z" />
        <path d="m87.84,204.05l0.5,0.3l0.4,0.5l0.1,0.5l-0.6,3.8l-1.9,20l-2.2,26l-1,16.8l-0.4,18.7l0.6,19.4l1,12.5l0.7,6.6l1.7,11.5l1.6,9.8l2.8,13.9l2.2,8.3l0.1,0.6l-0.2,0.6l-0.3,0.5l-0.5,0.3l-0.5,0.1l-0.6,0l-0.5,-0.2l-0.4,-0.4l-0.3,-0.6l-2.2,-8.5l-2.8,-14l-1.7,-9.9l-1.6,-11.6l-0.8,-6.7l-1,-12.5l-0.6,-19.6l0.4,-18.9l1,-16.9l2.2,-26.1l1.9,-20.2l0.9,-3.9l0.4,-0.5l0.5,-0.2l0.5,-0.1l0.6,0.1z" />
      </g>

      <g id="frown_eye" fill="var(--outline-color, #000)">
        <path d="m169.277446,117.007l-0.1,0.6l-0.4,0.4l-0.4,0.3l-0.6,0.2l-1.5,0.1l-0.9,-0.3l-1.2,-0.7l-0.5,-0.5l-0.3,-0.5l0,-0.7l0.3,-0.6l0.8,-1.2l0.9,-0.7l1.6,-0.4l1.8,-0.2l2.4,0.1l1.8,0.3l2,0.5l2.3,0.8l5,2.1l3.9,2.1l13.7,8l3.1,1.6l2.7,1.1l2.3,0.7l2,0.2l1.5,-0.1l1.3,-0.5l1.1,-0.7l0.1,-0.1l0.5,-0.2l0.6,0l0.5,0.2l0.5,0.3l0.3,0.5l0.1,0.6l-0.1,0.6l-0.2,0.5l-0.4,0.3l-1.3,0.9l-2.1,0.7l-2.3,0.3l-2.6,-0.3l-2.8,-0.8l-3.1,-1.3l-3.3,-1.6l-13.7,-8l-3.8,-2l-4.7,-2l-2.1,-0.8l-1.8,-0.4l-1.5,-0.2l-1.9,-0.1l0,-0.4l0.3,0.2l0.2,0.5l0,0.6z" />
        <path d="m176.377446,118.407l0.2,0.5l-0.1,0.6l-0.2,0.5l-0.4,0.4l-0.9,0.7l-0.4,1.3l-0.8,3.6l-0.8,5.9l-0.3,5.9l-0.1,4.5l0.3,7.7l0.6,5.6l0.9,5.1l1.1,4.8l0.8,2.5l0.9,2.2l0.7,1.8l1.1,2l1,1.7l1.2,1.5l2.5,2.1l1.1,0.8l1.4,0.7l1.3,0.5l1.3,0.3l2.8,-0.1l1.3,-0.2l2.8,-1.2l1.4,-0.8l2.7,-2.1l1.4,-1.2l2.4,-2.8l1.2,-1.5l1.9,-3.4l0.9,-1.8l1.4,-3.7l1,-3.6l0.8,-3.3l0.7,-4.8l0.2,-3.3l0.1,-0.5l0.3,-0.5l0.4,-0.4l0.5,-0.2l0.6,0l0.5,0.2l0.5,0.3l0.3,0.5l0.1,0.6l-0.1,1.9l-0.4,4l-0.5,2.8l-0.8,3.4l-1.1,3.9l-1.5,4l-1,2.1l-2.1,3.5l-1.3,1.8l-2.6,3l-1.6,1.5l-2.9,2.3l-1.9,1l-3.1,1.3l-2.1,0.4l-3.2,0.2l-2.1,-0.4l-1.8,-0.7l-1.8,-0.9l-1.4,-1l-2.8,-2.3l-1.5,-2l-1.3,-2l-1.1,-2.1l-0.9,-2l-0.9,-2.4l-0.8,-2.6l-0.6,-2.3l-1.2,-5.7l-0.7,-5.3l-0.4,-5.3l-0.2,-5.5l0.2,-7l0.4,-5.6l0.7,-4.4l0.8,-3.8l0.7,-2.1l0.6,-0.8l1.3,-0.9l0.5,-0.3l0.5,0l0.6,0.1l0.5,0.3l0.3,0.5z" />
        <path d="m182.477446,121.607l0.3,0.4l-0.1,0.6l-0.6,1.3l-0.5,3.4l-0.3,6.2l0.2,6.5l0.7,5.8l0.7,4.3l0.4,2.2l1.7,5.9l2,5.2l1.5,2.6l1.4,2.2l1.2,1.7l1,1.2l1.9,1.6l0.1,0.6l-0.1,0.2l-0.1,0.3l-0.6,0.2l-0.5,-0.2l-1.8,-1.6l-1.1,-1.2l-1.4,-1.8l-1.4,-2.3l-1.5,-2.8l-2.1,-5.3l-1.8,-6.1l-0.4,-2.3l-1,-6.2l-0.5,-5.7l-0.2,-6.6l0.3,-4.8l0.6,-3.6l0.8,-1.7l0.4,-0.3l0.6,-0.1l0.2,0.2z" />
      </g>

      <g id="frown_mouth" fill="var(--outline-color, #000)">
        <path d="m85.787446,214.747c29.99,-6.61 63.92,-11.06 91.57,-11.83c-35.05,5.98 -64.42,9.47 -92.9,28.06l1.32,-16.23l0.01,0z" />
        <path d="m87.777446,204.007l0.5,0.3l0.4,0.5l0.1,0.5l-0.6,3.7l-1.9,19.9l-2.2,25.6l-0.9,16.7l-0.4,18.5l0.6,19.2l1,12.3l0.7,6.5l1.6,11.4l1.6,9.6l2.8,13.8l2.2,8.3l0,0.5l-0.1,0.6l-0.3,0.5l-0.5,0.3l-0.6,0.2l-0.5,-0.1l-0.5,-0.2l-0.5,-0.4l-0.2,-0.5l-2.2,-8.4l-2.8,-14l-1.7,-9.7l-1.6,-11.5l-0.7,-6.6l-1,-12.4l-0.6,-19.4l0.4,-18.6l1,-16.8l2.1,-25.7l1.9,-20l0.9,-3.9l0.4,-0.4l0.5,-0.3l0.6,-0.1l0.5,0.1z" />
        <path d="m93.677446,218.007l-0.2,0.6l-0.4,0.4l-0.5,0.3l-3.6,0l-3,-0.3l-0.6,-0.2l-0.5,-0.4l-0.3,-0.6l-0.1,-0.6l0.2,-0.6l1.1,-2.5l0.4,-0.5l0.6,-0.3l6.8,-2l12.4,-2.6l12.8,-2l15.5,-1.9l17.6,-1.5l18.8,-1l18.8,-0.3l17.6,0.2l11.3,0.6l9,0.8l7.8,0.9l11,1.7l6.1,1.4l0.5,0.2l0.4,0.4l0.3,0.5l0,0.6l-0.1,0.5l-0.3,0.5l-0.5,0.3l-0.5,0.2l-6.5,-1.3l-10.8,-1.7l-7.8,-1l-8.9,-0.8l-17.1,-0.6l-18.1,-0.1l-18.8,0.6l-18.4,1.1l-16.9,1.7l-18.1,2.6l-13.6,2.6l-8,2.1l3.6,0.2l0.5,0.3l0.3,0.4l0.2,0.6l0,0.5z" />
        <path d="m90.177446,229.907l-0.2,0.5l-0.2,0.5l-0.5,0.4l-0.5,0.2l-1.4,0.2l-0.6,0l-0.6,-0.2l-0.4,-0.4l-0.3,-0.6l0,-0.6l0.1,-0.6l0.4,-0.4l1.3,-1.2l5.7,-3.2l5.2,-2.5l9.7,-4.3l6.2,-2.4l9.2,-3.2l9.2,-2.8l6.9,-1.8l3.3,-0.7l11.6,-2.2l7.7,-1.2l11.8,-1.3l0.5,0.1l0.5,0.2l0.4,0.5l0.3,0.5l0,0.5l-0.1,0.6l-0.4,0.5l-0.4,0.3l-0.6,0.1l-11.6,1.3l-7.5,1.1l-11.5,2.2l-3.3,0.7l-6.7,1.8l-9.1,2.7l-9.1,3.1l-6,2.4l-9.7,4.2l-5,2.5l-5.4,3.1l-1.4,-2.2l0.5,-0.1l0.6,0l0.5,0.2l0.5,0.4l0.3,0.5l0.1,0.6z" />
      </g>

    </g>


    <path id="blender_matte" transform="translate(-7.04225 36.6197) translate(-829.577 -80.2817) matrix(1 0 0 1 181.132 -3.77359)" d=" m680.12,110.54l60.41,-31.4l-4.68,-9.59c-5.16,-2 -12.71,-6.39 -6.12,-9.83c8.71,-4.48 62.75,-7.03 72.18,9.11l-0.96,8.63l47,6.47l-9.35,20.62c17.75,15.75 31.89,34.85 36.69,56.59c11.19,-6.55 26.94,-14.07 34.29,-11.75c16.39,3.44 19.82,76.42 -1.92,85.85c-42.21,19.42 6.95,-50.6 -4.32,-69.06c-2.4,-2.88 -16.79,-1.68 -24.46,5.76l6.71,23.26c-8.55,33.41 -19.74,64.67 -32.13,96.64c9.99,2.24 19.02,4 24.94,8.87c-9.75,21.66 -16.63,41.41 -21.34,62.11l18.71,1.92l9.59,15.11l-11.75,81.77l-143.17,0l-17.51,-35.25l41.49,-53.96l24.7,-5.28c3.28,-16.39 3.44,-43.57 -16.79,-65.71l28.78,-8.15c-6.71,-41.49 -37.17,-100 -80.58,-150.36c1.04,-6 2.8,-11.27 7.43,-17.99l-34.77,-1.68c-3.91,1.03 -11.42,-3.45 -3.1,-12.72z " />
    
    <path id="blender_keys_matte"
      d=" m737.8,407.3l24.26,-29.38c23.76,-7.59 50.5,-12.06 83.47,-11.38l2.71,13.96l-27.91,35.37c-25.84,-1.72 -52.76,-3.16 -79.95,0.95l-2.58,-9.5z "
      transform="translate(-7.04225 36.6197) translate(-829.577 -80.2817) matrix(1 0 0 1 181.132 -3.77359)" 
    />

    <path id="blender_lid_matte"
      d="m680.12,110.54l60.41,-31.4l-6.17,10.87c7.75,10.22 38.48,16.87 61.46,9.17l3.78,-21.45l48.36,6.2c-3.43,10.08 -9.04,17.99 -13.55,26.99l-4.17,24.78c-33.45,17.47 -60.94,-18.18 -91.82,-24.02l-20.43,13.26l-34.77,-1.68c-3.91,1.03 -11.42,-3.45 -3.1,-12.72z"
      transform="translate(-7.04225 36.6197) translate(-829.577 -80.2817) matrix(1 0 0 1 181.132 -3.77359)" 
    />

    <path id="blender_base_matte"
      d=" m875.78,364.75l9.59,15.11l-11.75,81.77l-143.17,0l-17.51,-35.25l41.49,-53.96c33.45,-6.15 73.71,-13.19 121.34,-7.67z M737.8,407.3l24.26,-29.38c23.76,-7.59 50.5,-12.06 83.47,-11.38l2.71,13.96l-27.91,35.37c-25.84,-1.72 -52.76,-3.16 -79.95,0.95l-2.58,-9.5z " 
      fill-rule="evenodd" 
      transform="translate(-7.04225 36.6197) translate(-829.577 -80.2817) matrix(1 0 0 1 181.132 -3.77359)" 
    />

    <path id="blender_cup_matte"
      d="m878.42,300.72c-9.75,21.66 -16.63,41.41 -21.34,62.11c-24.08,-0.86 -54.26,-0.1 -77.94,4.32c3.28,-16.39 3.44,-43.57 -16.79,-65.71c18.84,-9.4 80.43,-18.04 116.07,-0.72z"
      transform="translate(-7.04225 36.6197) translate(-829.577 -80.2817) matrix(1 0 0 1 181.132 -3.77359)" 
    />

    <path id="blender_chord_matte" 
      d="m628.67,330.48l0.18,-0.1l0.2,-0.05l0.18,0.05l0.17,0.1l0.6,0.47l0.67,0.38l0.73,0.28l1.35,0.32l1.85,0.15l0.8,0.03l2.52,-0.23l2.05,-0.32l1.07,-0.23l3.1,-0.88l3.08,-1.18l2.15,-1l0.98,-0.52l1.45,-1.05l0.8,-0.65l0.7,-0.7l0.58,-0.7l0.8,-1.27l0.33,-0.77l0.2,-0.83l0.05,-1.65l-0.1,-1.05l-0.17,-1.07l-0.5,-1.9l-0.45,-1.18l-0.92,-2.05l-0.7,-1.25l-0.77,-1.25l-0.85,-1.27l-1.85,-2.45l-1.65,-1.95l-2.67,-2.88l-3.33,-3.35l-1.42,-1.6l-0.6,-0.75l-0.48,-0.8l-0.32,-1l0,-0.3l0.38,-1.47l0.13,-0.25l1.05,-1.1l0.75,-0.5l0.92,-0.47l2,-0.75l1.35,-0.43l2.75,-0.7l3.68,-0.75l4.05,-0.68l6.05,-0.7l6.33,-0.45l6.15,-0.17l4.27,0.02l2,0.05l3.03,0.2l1.7,0.15l2.43,0.35l2.22,0.45l1.7,0.43l1.25,0.4l1.35,0.53l0.15,0.1l0.13,0.18l0.05,0.18l0,0.2l-0.07,0.18l-0.13,0.15l-0.18,0.1l-0.2,0.02l-1.5,-0.57l-1.18,-0.35l-1.65,-0.43l-2.15,-0.43l-2.38,-0.35l-1.65,-0.15l-2.98,-0.2l-1.98,-0.05l-4.23,-0.02l-6.15,0.17l-6.25,0.45l-6,0.7l-4,0.65l-3.63,0.75l-2.7,0.68l-1.3,0.43l-1.92,0.72l-0.8,0.43l-0.6,0.43l-0.83,0.85l-0.3,1.17l0.25,0.78l0.38,0.57l1.15,1.4l4.05,4.13l2.73,2.9l1.67,2l1.9,2.52l0.88,1.3l0.8,1.3l0.73,1.3l0.98,2.13l0.47,1.25l0.53,2.02l0.2,1.18l0.1,1.13l-0.05,1.8l-0.25,1.05l-0.38,0.95l-0.88,1.45l-0.7,0.8l-0.75,0.77l-0.85,0.7l-1.55,1.1l-1.05,0.6l-1.1,0.55l-2.33,0.98l-2,0.72l-3.15,0.9l-1.15,0.22l-2.13,0.35l-2.63,0.23l-0.88,-0.03l-1.95,-0.15l-1.52,-0.35l-0.85,-0.32l-0.83,-0.45l-0.75,-0.6l-0.13,-0.15l-0.07,-0.18l0,-0.2l0.07,-0.18l0.13,-0.15z" 
      transform="translate(-7.04225 36.6197) translate(-829.577 -80.2817) matrix(1 0 0 1 181.132 -3.77359)translate(328 86) matrix(2.21289 0 0 2.21289 -839.073 -404.687)" 
    />

    <g id="blendifer" transform="translate(-7.04225 36.6197) translate(-829.577 -80.2817) matrix(1 0 0 1 181.132 -3.77359)" >

      <g id="blender_outline" transform="translate(328 86) matrix(2.21289 0 0 2.21289 -839.073 -404.687)"
        fill="var(--outline-color, #000)"
      >
        
        <g id="blender_body_lines" fill="var(--blender-body-lines, var(--outline-color, #000))" >
      
          <path d="m598.95,211.2l-0.08,-0.2l0,-0.18l0.05,-0.2l0.13,-0.15l0.65,-0.63l0.57,-0.75l0.55,-0.9l0.82,-1.72l0.1,-0.15l0.15,-0.13l0.2,-0.07l0.17,0.03l0.2,0.07l0.13,0.13l0.1,0.18l0.02,0.2l-0.02,0.18l-0.88,1.85l-0.6,1l-0.68,0.85l-0.35,0.38l-0.4,0.35l-0.17,0.1l-0.17,0.02l-0.2,-0.02l-0.17,-0.08l-0.13,-0.15z" />
          <path d="m552.02,208.2l0.2,-0.07l0.2,0l0.18,0.07l0.15,0.15l4.73,5.63l2.95,3.75l3.35,4.58l3.9,5.72l3.05,4.7l1.52,2.45l2.58,4.38l1.5,2.67l2.4,4.6l1.38,2.75l1.27,2.73l1.17,2.63l1.1,2.6l1.48,4.15l1.27,4.1l0.93,3.43l0.65,2.73l0.42,2.05l0.23,1.47l0.1,0.95l0,0.2l-0.08,0.17l-0.15,0.15l-0.17,0.07l-0.2,0.02l-0.17,-0.05l-0.18,-0.1l-0.1,-0.15l-0.07,-0.2l-0.1,-0.95l-0.23,-1.4l-0.4,-2.03l-0.63,-2.67l-0.92,-3.4l-1.28,-4.07l-1.47,-4.07l-1.05,-2.55l-1.17,-2.63l-1.27,-2.68l-1.35,-2.75l-2.4,-4.57l-1.5,-2.65l-2.55,-4.35l-1.52,-2.43l-3.02,-4.67l-3.88,-5.7l-3.35,-4.55l-2.9,-3.72l-4.75,-5.65l-0.08,-0.15l-0.02,-0.2l0.02,-0.2l0.1,-0.17l0.15,-0.1z" />
          <path d="m621.67,220.57l0.08,0.2l0.02,0.17l-0.05,0.2l-0.13,0.15l-0.3,0.3l-0.1,0.33l-0.05,0.38l0.02,0.45l0.1,0.5l0.2,0.43l0.23,0.3l0.4,0.2l0.45,0.02l0.3,-0.05l0.17,0l0.2,0.05l0.15,0.13l0.1,0.18l0.02,0.2l-0.02,0.18l-0.1,0.18l-0.15,0.13l-0.18,0.07l-0.35,0.07l-0.78,-0.05l-0.22,-0.05l-0.6,-0.3l-0.18,-0.15l-0.38,-0.43l-0.32,-0.7l-0.18,-0.7l-0.02,-0.65l0.08,-0.6l0.17,-0.57l0.13,-0.22l0.4,-0.38l0.15,-0.13l0.2,-0.05l0.2,0.03l0.17,0.07l0.15,0.13z" />
          <path d="m620.42,221.5l-0.13,-0.15l-0.05,-0.2l0.02,-0.2l0.1,-0.17l0.42,-0.55l0.13,-0.13l4.33,-2.95l4.05,-2.5l2.63,-1.45l2.68,-1.25l1.92,-0.7l1.4,-0.38l0.73,-0.13l1.1,-0.07l0.67,0l0.65,0.07l0.65,0.1l1,0.35l0.57,0.3l0.6,0.45l0.83,0.88l0.48,0.65l0.42,0.72l0.42,0.78l0.4,0.9l0.57,1.72l0.33,1.15l0.45,2.1l0.23,1.33l0.2,1.35l0.17,1.38l0.13,1.42l0.1,2.4l0.02,1.47l-0.07,2.38l-0.08,1.43l-0.25,2.28l-0.17,1.3l-0.23,1.28l-0.23,1.2l-0.27,1.15l-0.55,1.78l-0.38,1.03l-0.67,1.53l-0.45,0.85l-0.45,0.82l-0.5,0.75l-0.52,0.7l-0.93,0.97l-0.6,0.53l-0.63,0.47l-0.63,0.4l-0.45,0.22l-0.68,0.28l-0.7,0.2l-0.73,0.13l-1.23,0l-1.07,-0.15l-0.9,-0.2l-0.72,-0.22l-0.58,-0.22l-0.7,-0.4l-0.17,-0.13l-0.13,-0.15l-0.08,-0.18l0,-0.2l0.08,-0.18l0.13,-0.15l0.15,-0.13l0.2,-0.03l0.2,0.03l0.3,0.2l0.52,0.28l0.45,0.2l0.65,0.2l0.82,0.17l0.95,0.1l1.08,0.03l0.57,-0.1l0.55,-0.18l0.57,-0.22l0.35,-0.2l0.55,-0.35l0.55,-0.4l0.52,-0.47l0.85,-0.9l0.45,-0.63l0.45,-0.68l0.45,-0.78l0.4,-0.8l0.67,-1.47l0.33,-0.95l0.52,-1.7l0.27,-1.1l0.23,-1.18l0.2,-1.22l0.17,-1.28l0.25,-2.22l0.08,-1.38l0.07,-2.35l-0.02,-1.43l-0.1,-2.35l-0.13,-1.38l-0.17,-1.35l-0.2,-1.33l-0.23,-1.3l-0.42,-2.05l-0.33,-1.07l-0.55,-1.68l-0.35,-0.8l-0.38,-0.7l-0.4,-0.65l-0.42,-0.57l-0.73,-0.78l-0.4,-0.3l-0.45,-0.22l-0.83,-0.28l-0.52,-0.1l-0.55,-0.05l-0.58,0l-1.02,0.07l-0.6,0.13l-1.3,0.35l-1.83,0.65l-2.6,1.22l-2.55,1.4l-4,2.47l-4.23,2.85l-0.38,0.5l-0.15,0.15l-0.17,0.08l-0.2,0l-0.17,-0.05l-0.15,-0.13z" />
          <path d="m622.55,225.25l-0.1,-0.15l-0.05,-0.2l0.05,-0.2l0.07,-0.17l0.4,-0.5l0.8,-0.68l1.35,-0.95l1.95,-1.2l2.48,-1.3l2.02,-0.88l1.9,-0.68l1.28,-0.35l0.88,-0.18l0.67,-0.07l0.75,0l0.6,0.03l0.65,0.15l0.7,0.35l0.47,0.38l0.45,0.57l0.25,0.53l0.17,0.72l0.1,0.6l0.05,1.18l-0.13,1.85l-0.23,1.68l-0.27,1.38l-0.4,1.45l-1.02,3.15l-2.07,5.63l-1.43,4.38l-0.8,2.97l-0.4,2.05l-0.15,1.22l0,0.78l0.05,0.55l0.15,0.55l0.17,0.38l0.25,0.32l0.5,0.33l0.75,0.2l0.55,0.03l1.02,-0.03l0.67,-0.07l0.4,-0.1l0.2,0l0.18,0.05l0.15,0.1l0.13,0.18l0.05,0.2l-0.02,0.18l-0.1,0.18l-0.13,0.15l-0.2,0.08l-0.43,0.1l-0.77,0.1l-1.17,0.05l-0.68,-0.05l-0.98,-0.25l-0.15,-0.07l-0.67,-0.43l-0.15,-0.13l-0.35,-0.47l-0.27,-0.57l-0.2,-0.75l-0.1,-0.68l0.02,-0.9l0.15,-1.38l0.42,-2.13l0.83,-3.05l1.42,-4.43l2.1,-5.63l1,-3.1l0.5,-2l0.27,-1.63l0.17,-1.9l0,-1.13l-0.1,-0.95l-0.15,-0.58l-0.17,-0.32l-0.3,-0.38l-0.25,-0.2l-0.48,-0.22l-0.45,-0.07l-0.45,-0.03l-0.65,0.03l-0.57,0.05l-0.77,0.15l-1.18,0.33l-1.85,0.65l-1.95,0.85l-2.4,1.25l-1.88,1.15l-1.3,0.93l-0.67,0.57l-0.3,0.4l-0.15,0.13l-0.17,0.08l-0.2,0.02l-0.2,-0.07l-0.15,-0.13z" />
          <path d="m564.19,207.58l-0.2,-0.03l-0.18,-0.1l-0.15,-0.16l-0.05,-0.21l0,-0.21l0.08,-0.49l0.1,-0.21l0.28,-0.44l0.9,-1.14l1.38,-1.43l1.38,-1.24l1.07,-0.8l2.3,-1.56l0.56,-0.34l0.2,-0.05l0.18,0l0.2,0.08l0.15,0.13l0.1,0.18l0.03,0.18l-0.05,0.21l-0.1,0.18l-0.15,0.13l-0.54,0.31l-2.22,1.5l-1.02,0.78l-1,0.86c-0.4,0.41 -0.8,0.81 -1.2,1.22l-0.82,0.93l-1.23,1.71z" />
          <path d="m628.58,221.65l0.2,0.05l0.15,0.1l0.13,0.15l0.08,0.2l0.08,0.65l0.32,1.17l2.08,7.1l0.2,0.75l0,0.2l-0.05,0.2l-0.1,0.15l-0.17,0.13l-0.2,0.03l-0.17,0l-0.18,-0.1l-0.15,-0.15l-0.07,-0.18l-0.2,-0.72l-2.08,-7.07l-0.32,-1.25l-0.1,-0.75l0,-0.2l0.08,-0.17l0.13,-0.15l0.17,-0.1l0.2,-0.03z" />
          <path d="m609.75,191.03l0.15,-0.1l0.2,-0.03l0.2,0.05l0.18,0.1l2.8,2.45l1.63,1.57l1.18,1.28l0.75,0.85l1.27,1.6l1.52,2.07l0.73,1.07l0.73,1.15l1.13,1.97l0.63,1.2l0.97,2.05l0.9,2.08l0.7,1.82l0.93,2.63l0.42,1.43l0.08,0.38l-0.05,0.2l-0.13,0.15l-0.15,0.13l-0.2,0.05l-0.2,-0.03l-0.18,-0.08l-0.13,-0.15l-0.07,-0.18l-0.48,-1.57l-0.9,-2.55l-0.7,-1.8l-0.9,-2.05l-0.92,-2l-0.63,-1.18l-1.1,-1.92l-1.43,-2.18l-1.47,-2.03l-1.25,-1.57l-1.85,-2.05l-1.6,-1.53l-2.8,-2.45l-0.13,-0.15l-0.05,-0.17l0,-0.2l0.08,-0.17l0.15,-0.15z" />
          <path d="m566.18,194.78l-0.08,0.2l-0.1,0.15l-0.18,0.1l-0.21,0.05l-0.44,0.03l-1.7,0.81l-1.3,0.68l-1.62,0.96l-1.83,1.31l-1.36,1.08l-0.63,0.58l-1.02,1.06l-0.52,0.6l-0.76,1.08l-0.39,0.6l-0.5,1.08l-0.34,0.93l-0.21,0.73l-0.1,0.58l-0.05,0.38l0.03,0.43l-0.05,0.18l-0.08,0.18l-0.16,0.13l-0.21,0.08l-0.18,0l-0.21,-0.05l-0.16,-0.13l-0.1,-0.18l-0.05,-0.18l0,-0.45l0.05,-0.53l0.13,-0.65l0.21,-0.83l0.39,-1.01l0.55,-1.18l0.42,-0.7l0.81,-1.13l0.6,-0.7l1.04,-1.08l0.68,-0.63l1.43,-1.16l1.88,-1.33l1.7,-1.01l1.33,-0.7l1.88,-0.88l0.23,-0.05l0.55,-0.03l0.21,0.03l0.18,0.1l0.13,0.13l0.08,0.2l0.03,0.18z" />
          <path d="m631.52,231.28l0.15,0.1l0.13,0.15l0.05,0.2l0,0.18l-1.35,5.75l-0.92,3.22l-2.55,7.97l-1.8,5.33l-2.58,7.15l-2.02,5.28l-2.83,7.05l-1.15,2.73l-0.1,0.15l-0.15,0.13l-0.2,0.05l-0.2,0l-0.17,-0.07l-0.15,-0.15l-0.07,-0.18l-0.02,-0.2l0.05,-0.18l0.58,-1.35l3.38,-8.4l2,-5.25l2.57,-7.13l1.83,-5.3l2.52,-7.95l0.9,-3.2l1.35,-5.67l0.08,-0.18l0.13,-0.15l0.17,-0.1l0.2,-0.03l0.2,0.05z" />
          <path d="m556.83,204.7l0.15,-0.13l0.17,-0.07l0.2,-0.03l0.2,0.08l0.38,0.2l1.68,0.7l1.7,0.6l2.38,0.67l2.2,0.55l3.4,0.72l3.83,0.65l3.15,0.45l1.63,0.2l4.58,0.42l4.52,0.35l3,0.13l4.85,0.13l4.47,-0.02l0.18,0.02l0.17,0.1l0.15,0.13l0.05,0.2l0.02,0.2l-0.08,0.18l-0.13,0.15l-0.15,0.1l-0.2,0.05l-4.53,0.02l-4.85,-0.13l-3.03,-0.13l-4.57,-0.32l-4.6,-0.45l-1.65,-0.2l-3.15,-0.45l-3.9,-0.68l-3.42,-0.72l-2.23,-0.55l-2.42,-0.7l-1.77,-0.6l-1.78,-0.75l-0.42,-0.22l-0.15,-0.13l-0.1,-0.18l-0.05,-0.18l0.02,-0.2l0.1,-0.18z" />
        
        </g>

        <path id="under_lid" d="m543.75,196.25q8.75,-5 21.25,-2l-8.5,6.5l-12.75,-4.5z"  />
        <path d=" M 545 196 L 558 199 L 556 201 z "/>

        <path d="m540.38,197.03l-0.02,-0.18l0.02,-0.2l0.1,-0.18l0.17,-0.13l0.58,-0.3l2.82,-0.95l2.3,-0.67l1.82,-0.45l1.05,-0.22l2.02,-0.32l1.3,-0.18l1.35,-0.15l2.33,-0.15l1.45,0l1.48,0.03l1.52,0.13l2.6,0.4l1.58,0.3l1.55,0.38l1.5,0.42l1.52,0.5l2.43,1l1.45,0.65l2.3,1.15l2.67,1.45l5.6,3.22l3.02,1.6l1.88,0.85l1.13,0.45l1.08,0.4l1.07,0.35l1.05,0.3l1.77,0.3l1.02,0.1l1.77,0l1.03,-0.08l1.82,-0.3l1.6,-0.38l1.3,-0.4l1,-0.35l0.73,-0.3l0.5,-0.25l0.38,-0.2l0.18,-0.08l0.2,0l0.18,0.05l0.15,0.13l0.1,0.17l0.05,0.2l-0.05,0.2l-0.1,0.18l-0.15,0.13l-0.38,0.22l-0.58,0.28l-0.8,0.32l-1.05,0.38l-1.35,0.4l-1.65,0.4l-1.92,0.32l-1.13,0.08l-1.85,0l-1.15,-0.1l-1.85,-0.32l-1.13,-0.3l-1.13,-0.38l-1.13,-0.4l-1.15,-0.48l-1.93,-0.88l-3.1,-1.63l-5.63,-3.25l-2.63,-1.42l-2.28,-1.15l-1.4,-0.63l-2.38,-0.97l-1.45,-0.47l-1.48,-0.4l-1.5,-0.38l-1.52,-0.3l-2.55,-0.38l-1.45,-0.1l-1.43,-0.05l-1.42,0.03l-2.25,0.13l-1.3,0.15l-1.27,0.15l-1.98,0.32l-1.02,0.22l-1.77,0.45l-2.25,0.65l-2.73,0.92l-0.48,0.25l-0.2,0.08l-0.18,0l-0.2,-0.08l-0.15,-0.15l-0.08,-0.17z" />

        <g display="none">
        <path fill="pink" d="
        M 544 196 C 570 199 590 225  606.5 205 L 570 190" />
        <path fill="none" stroke="var(--outline-color)" stroke-width="1" d="
        M 544 196 C 570 199 590 225  606.5 205 " />
        </g>

        <path d="m626.45,308.8l0.17,-0.07l0.2,0l0.2,0.07l0.15,0.13l0.95,1.27l3.35,5.03l0.07,0.2l0.03,0.18l-0.08,0.2l-0.1,0.15l-0.17,0.13l-0.18,0.03l-0.2,0l-0.18,-0.1l-0.15,-0.15l-2.88,-4.35l-1.38,-1.85l-0.07,-0.17l-0.05,-0.2l0.05,-0.2l0.1,-0.15l0.15,-0.13z" />
        <path d="m539.37,199.83l0.05,-0.2l0.1,-0.15l0.17,-0.13l0.18,-0.05l3.9,-0.2l3.25,0.07l3.02,0.23l5.95,0.88l0.17,0.07l0.15,0.13l0.1,0.15l0.05,0.2l-0.05,0.2l-0.1,0.17l-0.15,0.13l-0.17,0.08l-0.2,0l-5.9,-0.88l-2.92,-0.23l-3.18,-0.07l-3.8,0.2l-0.2,0l-0.17,-0.1l-0.13,-0.13l-0.1,-0.17l-0.02,-0.2z" />
        <path d="m621.33,279.73l0.1,0.15l-0.02,0.2l-1.92,4l-1.18,2.6l-1.47,3.6l-1.05,2.95l-1,3.25l-0.92,3.45l-0.75,3.3l-0.1,0.17l-0.17,0.05l-0.1,0l-0.15,-0.15l-0.03,-0.18l0.75,-3.32l0.95,-3.48l1,-3.27l1.05,-2.98l1.48,-3.63l1.2,-2.63l1.92,-4.02l0.13,-0.13l0.2,0l0.1,0.05z" /> 
        <path d="m611.7,295.63l0.02,-0.2l0.15,-0.13l0.65,-0.28l2.35,-0.3l2.85,-0.15l0.63,0l0.65,0.1l0.13,0.18l0.02,0.1l-0.1,0.18l-0.75,0.35l-3.5,0.63l-3.97,1.1l-1.83,0.55l-0.2,0l-0.15,-0.13l-0.02,-0.1l0.05,-0.17l0.15,-0.13l1.82,-0.58l4.02,-1.1l3.5,-0.63l0.58,-0.25l-0.27,0.5l-0.18,-0.03l-0.57,-0.02l-2.8,0.15l-2.27,0.3l-0.55,0.23l-0.2,0.02l-0.15,-0.13l-0.05,-0.07z" />
        <path d="m608.67,297.93l0.03,-0.18l0.15,-0.13l0.55,-0.23l1.55,-0.47l0.8,-0.18l3.05,-0.4l2.83,-0.28l0.17,0.07l0.13,0.15l0,0.1l-0.07,0.18l-0.18,0.07l-2.8,0.25l-3.02,0.4l-1.5,0.38l-1.3,0.47l-0.2,0l-0.15,-0.13l-0.03,-0.1z" />
        <path d="m537.8,194.61l-0.07,-0.17l-0.02,-0.19l0.07,-0.19l0.12,-0.14l0.55,-0.48l5.01,-2.97l2.74,-1.53l5.81,-3.06l4.73,-2.37l7.72,-3.59l0.82,-0.36l0.2,-0.05l0.17,0.02l0.2,0.07l0.12,0.14l0.07,0.17l0.02,0.19l-0.05,0.17l-0.12,0.17l-0.15,0.1l-0.82,0.36l-7.67,3.59l-4.73,2.34l-5.78,3.04l-2.72,1.53l-4.93,2.92l-0.45,0.41l-0.17,0.1l-0.17,0.02l-0.2,-0.02l-0.17,-0.07l-0.12,-0.14z" />
        <path d="m593.42,176.28l0.15,0.1l0.13,0.18l0.05,0.17l0,0.2l-1.23,4.5l-0.52,2.55l-0.52,4.18l-0.05,0.57l-0.05,0.2l-0.1,0.17l-0.15,0.1l-0.2,0.05l-0.2,0l-0.18,-0.07l-0.15,-0.15l-0.07,-0.18l-0.03,-0.2l0.05,-0.58l0.55,-4.27l0.52,-2.63l1.23,-4.53l0.08,-0.18l0.13,-0.15l0.17,-0.07l0.2,-0.03l0.2,0.05z" />
        <path d="m592.45,178.88l0.13,-0.15l0.15,-0.13l0.2,-0.05l0.2,0.02l1.45,0.35l1.75,0.27l8.67,0.8l2.95,0.38l4.05,0.68l1.9,0.4l0.18,0.08l0.15,0.15l0.1,0.17l0.02,0.18l-0.05,0.2l-0.1,0.18l-0.18,0.1l-0.17,0.07l-0.2,-0.02l-1.88,-0.38l-3.98,-0.68l-2.92,-0.38l-8.67,-0.8l-1.83,-0.27l-1.55,-0.4l-0.18,-0.08l-0.15,-0.13l-0.08,-0.2l-0.02,-0.18l0.05,-0.2z" />
        <path d="m614.13,181.72l0.15,0.08l0.1,0.13l0.08,0.15l0,0.18l-0.08,0.43l-0.27,0.92l-0.45,1.18l-0.8,1.63l-1.2,2.2l-3.5,5.85l-0.13,0.13l-0.15,0.08l-0.15,0.03l-0.18,-0.03l-0.13,-0.1l-0.1,-0.13l-0.05,-0.18l0,-0.15l0.05,-0.15l3.88,-6.47l1.2,-2.3l0.65,-1.45l0.28,-0.85l0.17,-0.8l0.05,-0.15l0.13,-0.13l0.13,-0.08l0.18,-0.03l0.15,0.03z" />
        <path d="m628.23,279.65l0.13,0.15l0.07,0.18l0,0.2l-0.07,0.2l-0.63,1.2l-1.6,3.57l-1.1,2.7l-1.23,3.3l-1.72,5.28l-1.18,4l-1.98,7.7l-0.07,0.18l-0.13,0.15l-0.18,0.1l-0.2,0.02l-0.2,-0.05l-0.15,-0.1l-0.13,-0.15l-0.05,-0.2l0,-0.2l2,-7.75l1.17,-4.05l1.75,-5.27l1.23,-3.35l1.1,-2.72l1.63,-3.65l0.67,-1.25l0.13,-0.15l0.15,-0.1l0.2,-0.05l0.2,0.03l0.18,0.1z" />
        <path d="m575.33,280.07l0.17,-0.07l0.2,0l0.2,0.05l0.15,0.13l0.55,0.57l1.48,1.88l0.95,1.43l0.38,0.65l1.13,2.13l1.08,2.43l0.77,2.02l0.35,1.08l0.52,1.95l0.52,2.4l0.33,2.03l0.13,1.22l0.1,1.25l0.05,2.13l-0.05,1.85l-0.08,1.52l-0.23,2.07l-0.15,1l-0.08,0.18l-0.13,0.15l-0.17,0.1l-0.2,0.03l-0.17,-0.03l-0.17,-0.1l-0.13,-0.15l-0.08,-0.18l0,-0.2l0.27,-1.8l0.18,-2.65l0.02,-1.82l-0.02,-2.07l-0.1,-1.18l-0.13,-1.2l-0.33,-1.95l-0.5,-2.32l-0.52,-1.9l-0.33,-1.05l-0.75,-1.98l-1.05,-2.35l-1.08,-2.05l-0.38,-0.6l-0.9,-1.38l-1.4,-1.77l-0.52,-0.55l-0.1,-0.18l-0.05,-0.2l0.02,-0.18l0.07,-0.17l0.15,-0.15z" />
        <path d="m574.05,311.93l0,0.2l-0.1,0.18l-0.15,0.15l-0.17,0.07l-0.45,0.13l-0.15,-0.92l7.33,-1.53l4.35,-0.75l5.15,-0.72l6.15,-0.68l5.73,-0.4l5.73,-0.2l5.32,-0.02l3.68,0.07l5.32,0.35l4.9,0.52l0.2,0.05l0.15,0.13l0.1,0.18l0.05,0.17l-0.02,0.2l-0.1,0.17l-0.15,0.13l-0.17,0.08l-0.2,0.02l-4.85,-0.52l-5.3,-0.35l-3.6,-0.07l-5.32,0.02l-5.68,0.2l-5.67,0.4l-6.1,0.68l-5.13,0.7l-4.33,0.77l-7.32,1.53l-1,0.1l-0.23,-0.02l-0.17,-0.07l-0.13,-0.15l-0.1,-0.2l0,-0.2l0.07,-0.2l0.13,-0.15l0.18,-0.1l0.65,-0.23l0.73,-0.2l0.2,0l0.2,0.05l0.15,0.1l0.1,0.18l0.05,0.18z" />
        <path d="m631.13,315.73l0.15,0.14l0.1,0.19l0.05,0.19l-0.22,0.91l-1.4,9.28l-1.13,8.46l-1.1,8.65l-1.1,8.71l-0.05,0.19l-0.13,0.19l-0.17,0.11l-0.2,0.03l-0.17,-0.03l-0.17,-0.08l-0.15,-0.16l-0.07,-0.19l0,-0.22l1.13,-8.71l1.07,-8.65l1.13,-8.49l1.43,-9.36l0.23,-0.77l0.07,-0.19l0.15,-0.16l0.18,-0.08l0.2,0l0.2,0.05z" />
        <path d="m572.27,312l0.15,0.15l0.08,0.18l0.02,0.18l-0.05,0.2l-0.35,0.8l-0.98,1.6l-1.98,2.72l-5.45,6.8l-4.88,5.93l-4.75,5.82l-0.15,0.13l-0.18,0.07l-0.2,0l-0.18,-0.07l-0.17,-0.13l-0.1,-0.18l-0.02,-0.18l0.02,-0.2l0.1,-0.18l4.75,-5.8l4.88,-5.95l5.45,-6.75l1.9,-2.67l0.92,-1.5l0.33,-0.73l0.1,-0.18l0.18,-0.1l0.17,-0.05l0.2,0l0.17,0.07z" />
        <path d="m553.02,336.45l0.2,-0.05l0.2,0.03l0.18,0.1l0.13,0.13l3.92,5.93l1.05,1.8l0.97,1.93l1,2.4l0.6,1.68l0.35,1.13l0,0.2l-0.05,0.18l-0.1,0.18l-0.15,0.1l-0.2,0.08l-0.2,-0.03l-0.17,-0.07l-0.13,-0.15l-0.42,-1.25l-0.58,-1.63l-1,-2.33l-0.92,-1.88l-1,-1.75l-3.9,-5.88l-0.1,-0.17l0,-0.2l0.05,-0.17l0.13,-0.18l0.15,-0.1z" />
        <path d="m562.95,183.55l0.2,0.05l0.15,0.1l0.13,0.15l0.05,0.2l0.05,0.32l0.33,0.45l0.42,0.45l0.88,0.78l0.4,0.3l0.93,0.58l0.57,0.35l1.2,0.57l0.77,0.33l1.7,0.57l0.92,0.25l1.73,0.35l1.05,0.18l1.93,0.17l2.3,0.13l2.25,0l2.88,-0.2l1.63,-0.2l1.55,-0.28l1.22,-0.25l1.65,-0.45l0.7,-0.25l0.2,-0.02l0.2,0.02l0.15,0.1l0.15,0.15l0.05,0.2l0,0.17l-0.05,0.2l-0.15,0.15l-0.15,0.1l-0.75,0.25l-1.72,0.45l-1.28,0.28l-1.6,0.3l-1.65,0.2l-1.1,0.1l-1.88,0.1l-2.33,0l-2.38,-0.13l-1.95,-0.17l-1.13,-0.18l-1.77,-0.38l-0.98,-0.25l-0.92,-0.3l-0.88,-0.33l-0.83,-0.35l-1.25,-0.57l-0.65,-0.4l-0.98,-0.6l-0.47,-0.35l-0.95,-0.85l-0.5,-0.55l-0.48,-0.63l-0.1,-0.25l-0.05,-0.48l0,-0.2l0.08,-0.18l0.13,-0.15l0.17,-0.1l0.2,-0.02z" />
        <path d="m643.05,233.97l0.18,-0.1l0.17,0l0.43,0.2l0.47,0.15l0.65,0.13l0.82,0.08l0.7,0.02l0.75,0l0.63,-0.07l0.7,-0.15l0.88,-0.28l0.43,-0.17l0.6,-0.3l0.42,-0.25l0.08,0l0.17,0.08l0.08,0.07l0,0.2l-0.1,0.15l-0.35,0.22l-0.65,0.35l-0.48,0.2l-0.92,0.28l-0.78,0.15l-0.65,0.07l-0.8,0.03l-0.73,-0.03l-0.88,-0.07l-0.7,-0.15l-0.52,-0.15l-0.48,-0.22l-0.15,-0.15l0,-0.18l0.02,-0.1z" />
        <path d="m639.75,239l0.15,-0.1l0.2,0.05l0.45,0.25l0.45,0.15l0.45,0.13l0.45,0.08l0.63,0.05l0.73,-0.03l0.65,-0.05l0.68,-0.08l0.8,-0.17l1,-0.38l0.9,-0.55l0.75,-0.65l0.4,-0.45l0.23,-0.3l0.2,-0.07l0.1,0.03l0.07,0.05l0.08,0.18l-0.02,0.2l-0.18,0.25l-0.45,0.53l-0.38,0.33l-0.48,0.38l-0.95,0.57l-1.07,0.43l-0.9,0.2l-0.72,0.1l-0.68,0.05l-0.75,0l-0.67,-0.05l-0.5,-0.07l-0.5,-0.13l-0.5,-0.18l-0.55,-0.3l-0.1,-0.15l0,-0.2l0.05,-0.07z" />
        <path d="m565.05,179.78l0.18,0.1l0.07,0.18l0.03,0.38l0.32,0.35l0.35,0.25l0.75,0.38l1.13,0.38l1.6,0.38l1.75,0.28l2.82,0.22l3.8,0.13l2.27,-0.03l3.55,-0.22l0.68,-0.08l0.2,0.05l0.1,0.15l0.02,0.1l-0.07,0.18l-0.18,0.07l-0.7,0.07l-3.58,0.23l-3.95,0l-3.53,-0.18l-2.2,-0.25l-1.68,-0.28l-1.07,-0.28l-1.18,-0.4l-0.82,-0.4l-0.43,-0.3l-0.47,-0.47l-0.08,-0.18l-0.02,-0.5l0.07,-0.17l0.15,-0.13l0.1,0z" />
        <path d="m567.2,174.75l-0.15,0.15l-0.2,0.03l-0.52,-0.18l-0.08,-0.07l-0.02,-0.1l0,-0.1l0.05,-0.1l0.08,-0.07l0.57,-0.4l1.13,-0.35l0.9,-0.25l1.65,-0.33l3,-0.45l1.82,-0.18l2.63,-0.15l2.58,0.03l2.35,0.15l1.5,0.22l0.67,0.13l1,0.25l0.8,0.28l0.6,0.22l0.73,0.4l0.13,0.18l-0.02,0.17l-0.05,0.1l-0.15,0.08l-0.1,0l-0.78,-0.4l-0.55,-0.22l-0.75,-0.25l-0.98,-0.25l-0.65,-0.13l-1.48,-0.2l-2.3,-0.15l-2.55,-0.03l-2.57,0.13l-1.83,0.2l-2.95,0.43l-1.63,0.32l-1.53,0.45l-0.42,0.15l0.05,0.03l0.05,0.2l-0.02,0.07z" />
        <path d="m634.55,210.57l0,0.18l-0.13,0.15l-0.47,0.25l-0.4,0.28l-0.75,0.65l-0.45,0.45l-0.58,0.8l-0.5,0.95l-0.23,0.75l-0.13,0.75l0.05,0.63l0.32,0.97l0.43,0.65l0.82,0.78l0.55,0.4l0.88,0.48l0.57,0.22l0.33,0.1l0.13,0.15l0,0.1l-0.02,0.1l-0.13,0.13l-0.18,0.03l-0.27,-0.07l-0.63,-0.23l-0.45,-0.22l-0.53,-0.3l-0.6,-0.43l-0.88,-0.82l-0.53,-0.78l-0.38,-1.1l-0.07,-0.75l0.15,-0.88l0.25,-0.85l0.52,-1.02l0.63,-0.85l0.5,-0.52l0.8,-0.7l0.45,-0.3l0.5,-0.28l0.2,-0.03l0.17,0.1l0.02,0.1z" />
        <path d="m561.9,337l0.2,0l0.15,0.13l1.63,2.93l1.4,2.8l1.77,3.9l0.2,0.5l-0.05,0.2l-0.08,0.05l-0.1,0.05l-0.1,0l-0.17,-0.07l-0.23,-0.5l-1.75,-3.88l-1.4,-2.8l-1.63,-2.88l-0.02,-0.2l0.1,-0.18l0.07,-0.05z" />
        <path d="m564.15,336.32l0.2,0l0.15,0.13l2,3.32l1.6,2.75l2.02,3.48l1.35,2.32l0.05,0.18l-0.1,0.18l-0.07,0.05l-0.2,0l-0.15,-0.13l-1.38,-2.33l-2.02,-3.47l-1.6,-2.73l-1.98,-3.32l-0.05,-0.2l0.1,-0.18l0.07,-0.05z" />
        <path d="m615.45,315.38l0.06,0.2l0.03,0.23l-0.09,0.23l-0.14,0.17l-0.37,0.31l-5.93,7.65l-1.84,2.34l-5.28,6.18l-0.17,0.14l-0.23,0.06l-0.2,0l-0.23,-0.08l-0.14,-0.17l-0.11,-0.2l-0.03,-0.2l0.03,-0.23l0.14,-0.2l5.22,-6.12l1.84,-2.31l5.96,-7.7l0.48,-0.42l0.2,-0.11l0.23,-0.06l0.23,0.03l0.17,0.11l0.17,0.17z" />
        <path d="m575.1,315.2l-0.05,-0.18l0,-0.2l0.07,-0.18l0.15,-0.15l0.74,-0.52l3.17,-1l4.63,-1.08l3.22,-0.6l7.77,-1.1l8.71,-0.77l4.63,-0.18l5.02,0.07l0.17,0.05l0.17,0.1l0.12,0.17l0.05,0.18l0,0.2l-0.07,0.18l-0.15,0.15l-0.17,0.1l-0.2,0.03l-4.95,-0.1l-4.55,0.18l-8.64,0.75l-7.74,1.13l-3.17,0.57l-4.58,1.07l-2.99,0.95l-0.54,0.4l-0.17,0.07l-0.2,0.02l-0.17,-0.05l-0.17,-0.1l-0.1,-0.18z" />
        <path d="m575.35,315.1l0.1,0.15l0.05,0.2l-0.02,0.2l-0.1,0.18l-0.27,0.38l-0.68,0.93l-1.6,1.85l-4.23,4.65l-3.77,4.55l-0.15,0.13l-0.17,0.07l-0.2,0l-0.2,-0.05l-0.15,-0.13l-0.1,-0.18l-0.05,-0.17l0.05,-0.2l0.07,-0.17l3.83,-4.6l4.25,-4.65l1.55,-1.8l0.6,-0.88l0.33,-0.43l0.15,-0.13l0.17,-0.07l0.2,0l0.2,0.05l0.15,0.13z" />
        <path d="m564.22,327.6l0.2,0.03l0.18,0.07l0.15,0.15l0.07,0.18l0.18,0.7l1.13,3.48l0.02,0.2l-0.05,0.18l-0.13,0.18l-0.15,0.1l-0.17,0.08l-0.2,-0.03l-0.17,-0.07l-0.15,-0.13l-0.1,-0.2l-1.1,-3.43l-0.2,-0.77l-0.03,-0.2l0.08,-0.17l0.1,-0.18l0.17,-0.1l0.18,-0.05z" />
        <path d="m564.65,332.05l0.05,-0.2l0.1,-0.15l0.18,-0.13l0.2,-0.05l8.83,-0.57l8.23,-0.25l6.82,-0.05l6.63,0.2l6.15,0.42l0.2,0.05l0.15,0.1l0.13,0.18l0.05,0.17l-0.02,0.2l-0.08,0.17l-0.15,0.15l-0.18,0.07l-0.2,0.02l-6.1,-0.42l-5.38,-0.18l-7.15,0l-9.02,0.27l-8.83,0.6l-0.2,-0.03l-0.17,-0.1l-0.15,-0.13l-0.08,-0.18l0,-0.2z" />
        <path d="m559.25,337.23l-0.08,0.17l-0.17,0.08l-1.5,0.22l-0.17,-0.52l4.25,-0.73l4.1,-0.52l3.7,-0.35l3.17,-0.2l3,-0.13l3.73,-0.05l3.73,0.03l3.15,0.1l3.65,0.23l4.48,0.35l4.08,0.45l3.7,0.52l2.55,0.43l0.17,0.1l0.05,0.18l0,0.1l-0.13,0.15l-0.2,0.03l-2.55,-0.43l-3.68,-0.5l-4.05,-0.45l-4.48,-0.38l-3.63,-0.2l-3.13,-0.13l-3.73,-0.02l-3.7,0.07l-3,0.1l-3.18,0.22l-3.67,0.35l-4.05,0.5l-4.17,0.7l-0.2,-0.05l-0.1,-0.15l0,-0.18l0.13,-0.15l0.6,-0.13l1.03,-0.13l0.17,0.05l0.13,0.15l0,0.1z" />
        <path d="m624.2,311.82l0.1,0.18l-0.02,0.18l-0.7,1.18l-1.43,2.13l-1.55,2.15l-2.38,3.07l-1.5,1.9l-2.25,2.85l-2.4,3.03l-1.75,2.2l-2.78,3.4l-2.8,3.4l-0.2,0.22l-0.07,0.03l-0.2,-0.03l-0.07,-0.07l-0.08,-0.18l0.02,-0.1l0.18,-0.23l2.8,-3.4l2.75,-3.4l1.77,-2.22l2.38,-3l2.27,-2.85l1.48,-1.9l2.38,-3.08l1.55,-2.13l1.38,-2.1l0.7,-1.15l0.15,-0.13l0.2,0l0.08,0.05z" />
        <path d="m604.5,337.52l0.17,0l0.15,0.15l0.67,1.52l1.52,4.05l1.23,3.32l1.3,3.68l0,0.2l-0.13,0.13l-0.07,0.05l-0.2,-0.05l-0.13,-0.15l-1.32,-3.68l-1.2,-3.3l-1.52,-4.05l-0.68,-1.5l0,-0.17l0.1,-0.18l0.1,-0.03z" />
        <path d="m539.6,193.97l-1.52,1.13l-0.25,0.3l-0.23,0.32c-0.08,0.18 -0.17,0.35 -0.25,0.53l-0.15,0.57l-0.05,0.43l0.02,0.5l0.18,0.47l0.2,0.28l0.6,0.45l0.65,0.25l0.45,0.13l0.35,0.03l0.17,0.05l0.18,0.13l0.1,0.15l0.05,0.2l0,0.2l-0.1,0.18l-0.13,0.13l-0.17,0.1l-0.2,0l-0.4,-0.03l-0.63,-0.15l-0.83,-0.35l-0.85,-0.6l-0.1,-0.13l-0.3,-0.4l-0.3,-0.72l-0.05,-0.17l-0.02,-0.68l0.05,-0.6l0.2,-0.75l0.33,-0.7l0.3,-0.45l0.33,-0.4l0.55,-0.55l0.52,-0.4l0.25,-0.1l0.43,-0.08l0.2,0l0.2,0.08l0.15,0.13l0.08,0.17z" /> <path d="m613.56,309.47l0.14,0.07l0.12,0.13l0.06,0.15l0.02,0.18l-0.06,0.59l0.68,5.41l0,0.18l-0.06,0.15l-0.1,0.13l-0.14,0.09l-0.16,0.02l-0.16,-0.02l-0.12,-0.09l-0.1,-0.13l-0.06,-0.18l-0.7,-5.52l0.08,-0.75l0.04,-0.18l0.08,-0.13l0.14,-0.09l0.14,-0.04l0.16,0.02z" />
        <path d="m559.38,172.03l-0.13,-0.15l-0.08,-0.18l0,-0.2l0.08,-0.18l0.25,-0.47l0.33,-0.25l0.72,-0.25l0.9,-0.2l1.4,-0.25l2.38,-0.33l3.15,-0.25l2.73,-0.1l3.4,0l3.15,0.13l2,0.15l2.33,0.28l1.15,0.15l1.8,0.35l2.05,0.5l1.52,0.45l0.85,0.3l1.27,0.53l0.65,0.35l0.6,0.38l0.52,0.38l0.45,0.4l0.4,0.42l0.35,0.53l0.2,0.65l0.03,0.22l-0.08,1l-0.05,0.22l-0.48,0.83l-0.58,0.63l-0.45,0.32l-0.53,0.3l-0.63,0.27l-1.15,0.38l-0.8,0.23l-1.48,0.25l-1.92,0.25l-2.05,0.15l-3.05,0.05l-3.15,-0.13l-2.33,-0.15l-1.13,-0.13l-1.8,-0.25l-1.05,-0.2l-1.7,-0.4l-1.43,-0.4l-1.13,-0.35l-1.45,-0.57l-0.48,-0.23l-0.18,-0.1l-0.1,-0.17l-0.05,-0.18l0.02,-0.2l0.08,-0.18l0.15,-0.15l0.18,-0.07l0.2,-0.03l0.18,0.07l0.45,0.2l1.38,0.53l1.08,0.35l1.38,0.38l1.67,0.4l1,0.17l1.75,0.25l1.1,0.13l2.27,0.15l3.1,0.1l2.98,-0.03l2,-0.15l1.85,-0.25l1.42,-0.25l0.73,-0.18l1.07,-0.35l0.5,-0.22l0.43,-0.25l0.32,-0.25l0.43,-0.45l0.3,-0.55l0.05,-0.78l-0.15,-0.45l-0.2,-0.27l-0.3,-0.33l-0.38,-0.32l-0.45,-0.33l-0.52,-0.32l-1.03,-0.5l-1.52,-0.57l-1.48,-0.45l-1.97,-0.45l-1.78,-0.35l-1.1,-0.15l-2.3,-0.28l-1.92,-0.13l-3.13,-0.13l-3.38,-0.03l-2.68,0.13l-3.1,0.22l-2.3,0.3l-1.35,0.25l-0.85,0.2l-0.45,0.15l-0.15,0.28l-0.13,0.15l-0.15,0.1l-0.2,0.03l-0.2,-0.03l-0.17,-0.1z" />
        <path d="m562.83,175.32l0.02,-0.17l0.1,-0.18l0.15,-0.13l0.2,-0.05l0.43,-0.08l0.3,0.03l0.23,0.15l0.4,0.47l0.33,0.53l0.57,1.1l0.38,0.93l0.48,1.63l0.3,1.22l0,0.2l-0.05,0.2l-0.13,0.15l-0.17,0.1l-0.2,0.05l-0.17,-0.03l-0.18,-0.1l-0.15,-0.15l-0.07,-0.17l-0.28,-1.2l-0.45,-1.52l-0.33,-0.85l-0.52,-1l-0.4,-0.57l-0.33,0.03l-0.17,-0.08l-0.15,-0.13l-0.1,-0.17l-0.02,-0.2z" />
        <path d="m565.17,180.22l0.2,0.08l0.15,0.13l0.08,0.17l0.05,0.2l-0.02,0.57l-0.15,0.53l-0.2,0.57l-0.3,0.55l-0.5,0.67l-0.4,0.48l-0.38,0.35l-0.18,0.13l-0.2,0.03l-0.2,-0.03l-0.15,-0.1l-0.15,-0.15l-0.05,-0.18l-0.02,-0.2l0.08,-0.18l0.15,-0.17l0.63,-0.7l0.42,-0.57l0.23,-0.43l0.15,-0.42l0.1,-0.4l0,-0.38l0.05,-0.2l0.1,-0.17l0.15,-0.13l0.18,-0.05l0.2,0z" />
        <path d="m605.92,187.32l0.2,-0.02l0.2,0.05l0.15,0.13l0.1,0.15l0.77,1.75l0.23,0.68l0.38,1.57l0.3,2.05l0.1,1.2l0.05,1.7l-0.05,1.3l-0.18,1.72l-0.32,1.83l-0.65,2.6l-0.35,1.15l-0.1,0.2l-0.15,0.13l-0.18,0.05l-0.2,0.02l-0.18,-0.07l-0.17,-0.13l-0.1,-0.18l-0.02,-0.2l0.02,-0.18l0.35,-1.1l0.63,-2.53l0.3,-1.77l0.18,-1.65l0.02,-1.22l-0.02,-1.63l-0.1,-1.15l-0.27,-1.95l-0.38,-1.47l-0.2,-0.6l-0.73,-1.65l-0.05,-0.2l0.02,-0.2l0.1,-0.17l0.13,-0.13l0.17,-0.08z" />
        <path d="m575.27,281.32l-0.13,-0.13l-0.07,-0.2l-0.03,-0.18l0.08,-0.2l0.27,-0.55l0.18,-0.22l0.67,-0.43l0.83,-0.43l1.38,-0.52l1.65,-0.55l2.32,-0.57l2.98,-0.58l3.88,-0.63l5.3,-0.65l4.2,-0.32l3.27,-0.15l1.68,-0.02l4.52,0.05l4.35,0.22l3.98,0.43l2.7,0.45l2.4,0.53l1.75,0.5l1.55,0.57l1.23,0.55l0.92,0.47l0.67,0.4l0.63,0.45l0.13,0.15l0.08,0.18l0,0.2l-0.05,0.18l-0.13,0.18l-0.18,0.1l-0.17,0.02l-0.2,-0.02l-0.17,-0.08l-0.58,-0.42l-0.57,-0.35l-0.88,-0.45l-1.15,-0.53l-1.5,-0.55l-1.67,-0.45l-2.33,-0.52l-2.63,-0.43l-3.92,-0.43l-4.27,-0.22l-4.5,-0.05l-1.65,0.02l-3.25,0.15l-2.6,0.2l-4,0.4l-4.13,0.55l-4.43,0.8l-3.27,0.77l-1.6,0.5l-1.27,0.53l-0.75,0.38l-0.42,0.27l-0.23,0.43l-0.13,0.15l-0.15,0.13l-0.2,0.05l-0.2,-0.02l-0.18,-0.1z" />
        
        <g id="blender_hilite" 
          fill="var(--hilite-color, var(--outline-color, #000))"
        >
          <path
            d="m612.6,240.6l0.17,0.05l0.13,0.13l0.23,0.55l0.15,0.55l0.18,0.85l0.2,1.72l0.08,1.68l-0.02,2.07l-0.15,2.45l-0.3,2.78l-0.42,2.93l-0.53,2.9l-0.67,2.77l-0.52,1.78l-0.52,1.45l-0.48,1.18l-0.75,1.65l-0.45,0.82l-0.15,0.13l-0.2,0l-0.07,-0.05l-0.1,-0.15l0.02,-0.2l0.2,-0.35l0.57,-1.15l0.88,-2.1l0.5,-1.42l0.53,-1.73l0.67,-2.75l0.52,-2.88l0.43,-2.9l0.27,-2.75l0.15,-2.42l0.02,-2.05l-0.07,-1.65l-0.18,-1.67l-0.17,-0.8l-0.15,-0.5l-0.2,-0.5l0,-0.2l0.13,-0.15l0.1,-0.05z"
             />
          <path
            d="m609.1,240.88l0.05,-0.18l0.18,-0.1l1.38,-0.32l1.82,-0.53l2.15,-0.78l2.65,-1.13l0.17,-0.03l0.17,0.13l0.03,0.08l0,0.2l-0.15,0.15l-2.65,1.13l-2.2,0.78l-1.85,0.55l-1.4,0.33l-0.2,-0.03l-0.13,-0.15l-0.02,-0.1z"
             />
          <path
            d="m610.42,241.03l-0.13,0.15l-0.1,0.02l0.05,-0.32l0.95,-0.05l0.6,-0.07l1.03,-0.22l1.88,-0.55l1.95,-0.72l0.18,0l0.15,0.1l0.05,0.1l-0.02,0.2l-0.15,0.13l-1.98,0.72l-1.9,0.57l-1.08,0.23l-0.63,0.1l-0.52,0.03l-0.58,0l-0.15,-0.03l-0.55,-0.33l-0.05,-0.17l0.05,-0.2l0.07,-0.05l0.18,-0.05l0.48,0.08l0.17,0.07l0.08,0.18l-0.03,0.1z"
             />
          <path
            d="m602.1,220.68l0.2,0.02l0.13,0.15l0.23,0.53l2.25,3.63l1.83,3.15l1.7,3.13l1.73,3.38l1.75,3.57l0.75,1.53l0.02,0.2l-0.13,0.15l-0.07,0.05l-0.2,-0.03l-0.15,-0.13l-1.77,-3.68l-1.98,-3.9l-2.15,-4l-1.8,-3.13l-2.27,-3.65l-0.25,-0.6l0,-0.2l0.13,-0.15l0.08,-0.02z"
             />
        </g>

        <g id="blender_grad" fill="var(--grad-color, var(--outline-color, #000))" >
          <path
            d="m569.38,217.93l0.17,0l0.13,0.13l0.2,0.47l1.17,1.7l2,2.65l1.85,2.45l1.95,2.65l2.17,3.13l1.68,2.53l1.63,2.6l2.07,3.6l1.23,2.4l1.02,2.13l1.43,3.13l0.88,2.1l0,0.18l-0.13,0.15l-0.08,0.03l-0.17,-0.03l-0.13,-0.15l-0.85,-2.07l-1.43,-3.1l-1.02,-2.1l-1.23,-2.4l-2.05,-3.57l-1.63,-2.6l-1.67,-2.5l-2.15,-3.1l-1.95,-2.65l-1.85,-2.45l-2,-2.65l-1.2,-1.75l-0.22,-0.53l-0.03,-0.18l0.1,-0.15l0.1,-0.02z"
             />
          <path
            d="m575.2,230.85l0.13,-0.17l0.17,-0.03l0.55,0.05l1.33,-0.02l4.38,-0.5l0.5,-0.05l0.17,0.1l0.05,0.1l0,0.08l-0.05,0.2l-0.1,0.05l-0.5,0.1l-4.4,0.5l-1.38,0.03l-0.6,-0.08l-0.18,-0.07l-0.07,-0.18l0,-0.1z"
             />
          <path
            d="m578.42,234.18l0.1,-0.15l0.2,-0.05l0.57,0.03l4.18,-0.75l0.63,-0.13l0.1,0.05l0.13,0.13l0.02,0.1l-0.02,0.1l-0.13,0.15l-0.63,0.15l-4.23,0.77l-0.68,-0.05l-0.17,-0.08l-0.1,-0.17l0.02,-0.1z"
             />
          <path
            d="m580.1,237.95l0.1,-0.15l0.17,-0.08l0.6,0.03l4.32,-0.63l0.95,-0.1l0.15,0.13l0.05,0.07l0,0.1l-0.03,0.1l-0.13,0.15l-0.92,0.1l-4.33,0.65l-0.67,-0.02l-0.2,-0.08l-0.07,-0.17l0,-0.1z"
             />
          <path
            d="m581.52,241.22l0.18,-0.07l0.17,0.05l0.4,0.28l0.52,-0.05l2.9,-0.58l1.5,-0.35l0.2,0.03l0.13,0.13l0.02,0.1l-0.05,0.18l-0.15,0.13l-1.52,0.35l-2.95,0.6l-0.65,0.05l-0.2,-0.05l-0.48,-0.35l-0.1,-0.15l0,-0.2l0.07,-0.08z"
             />
          <path
            d="m588.67,257.23l0.08,-0.18l0.17,-0.07l0.58,-0.03l0.9,-0.25l0.18,0.07l0.07,0.1l0.02,0.07l0,0.1l-0.1,0.18l-0.95,0.27l-0.65,0.05l-0.2,-0.05l-0.1,-0.18l0,-0.1z"
             />
          <path
            d="m588.55,260.75l0.05,-0.2l0.17,-0.1l1.95,-0.35l2.15,-0.23l0.2,0.05l0.1,0.18l0,0.1l-0.07,0.18l-0.18,0.07l-2.13,0.2l-1.9,0.35l-0.2,-0.02l-0.13,-0.13l-0.03,-0.1z"
             />
          <path
            d="m587.58,265.65l0.17,-0.07l0.17,0.05l0.43,0.3l0.52,0.1l0.73,0.05l1.82,-0.15l2.33,-0.4l0.2,0.03l0.13,0.15l0.02,0.1l-0.05,0.18l-0.17,0.1l-1.17,0.23l-1.95,0.25l-1.13,0.07l-0.83,-0.05l-0.63,-0.13l-0.55,-0.35l-0.13,-0.18l0.02,-0.18l0.05,-0.1z"
             />
          <path
            d="m590,251.65l0.2,0.05l0.1,0.18l0.1,0.47l0.27,3.92l0.28,4.28l0.25,3.7l-0.05,0.2l-0.15,0.1l-0.1,0.02l-0.17,-0.1l-0.08,-0.18l-0.27,-3.73l-0.27,-4.25l-0.25,-3.9l-0.1,-0.43l0.02,-0.2l0.15,-0.13l0.08,-0.03z"
             />
          <path
            d="m590.48,249.63l-0.05,0.13l-0.1,0.07l-2.78,0.78l-0.55,0.15l-0.33,-0.3l0.43,0.03l1.1,-0.07l2.38,-0.35l2.7,-0.43l0.43,-0.03l0.13,0.03l0.05,0.05l0.02,0.15l-0.07,0.13l-0.43,0.28l-2.88,0.65l-2.73,0.63l-1.67,0.45l-0.1,0.03l-0.42,-0.28l1.8,-0.32l2.75,-0.32l2.33,-0.25l0.13,0.05l0.07,0.1l0,0.08l-0.05,0.1l-0.1,0.07l-2.32,0.23l-2.73,0.32l-1.4,0.25l-0.4,0.07l-0.13,0l-0.07,-0.1l-0.02,-0.07l0.02,-0.1l0.1,-0.08l0.42,-0.15l1.7,-0.45l2.75,-0.63l2.82,-0.65l0.05,0.18l-2.7,0.4l-2.38,0.35l-1.13,0.07l-0.48,0l-0.13,-0.05l-0.05,-0.13l0.02,-0.13l0.05,-0.05l0.9,-0.28l2.77,-0.75l0.13,0l0.1,0.1l0.02,0.05z"
             />
        </g>
        
        <g id="blender_key_lines">
          <path
            d="m585.45,313.43l0.1,0.18l-0.05,0.2l-0.52,0.85l-1.98,2.55l-2.77,3.43l-2.27,2.82l-2.65,3.3l-0.17,0.1l-0.17,-0.03l-0.08,-0.07l-0.08,-0.18l0.05,-0.18l2.67,-3.32l2.25,-2.8l2.8,-3.42l1.95,-2.53l0.5,-0.82l0.15,-0.13l0.2,0l0.08,0.05z"
             />
          <path
            d="m568.26,327.6l-0.08,0.17l-0.18,0.08l-0.51,0.02l-0.2,-0.05l-0.1,-0.18l0,-0.07l0.08,-0.18l0.15,-0.1l0.48,-0.07l4.12,-0.68l2.71,-0.4l3.06,-0.4l3.49,-0.43l3.62,-0.4l4,-0.45l3.39,-0.35l3.9,-0.38l4.15,-0.35l0.2,0.05l0.1,0.15l0.03,0.1l-0.1,0.18l-0.18,0.07l-4.12,0.38l-3.92,0.38l-3.37,0.35l-4.02,0.43l-3.59,0.42l-3.49,0.43l-3.06,0.4l-2.68,0.4l-4.12,0.65l-0.08,-0.5l0.05,0l0.18,0.08l0.1,0.15l0,0.1z"
             />
          <path
            d="m612.75,309.7l0.05,0.18l-0.07,0.18l-2.52,2.75l-2.98,3.3l-2.6,3.02l-2.5,2.98l-1.2,1.45l-0.17,0.1l-0.17,-0.02l-0.08,-0.05l-0.08,-0.2l0.08,-0.18l1.2,-1.47l2.5,-2.98l2.6,-3.02l2.98,-3.3l2.55,-2.78l0.17,-0.07l0.17,0.05l0.08,0.07z"
             />
          <path
            d="m600.02,311.27l0.13,0.15l0,0.2l-0.38,0.98l-0.32,0.65l-0.75,1.25l-1.6,2.2l-2.38,2.98l-2.83,3.35l-0.8,0.98l-0.18,0.1l-0.2,-0.05l-0.08,-0.05l-0.05,-0.2l0.05,-0.18l0.83,-0.95l2.8,-3.35l2.38,-2.95l1.6,-2.18l0.7,-1.2l0.3,-0.63l0.38,-0.95l0.13,-0.15l0.2,-0.02l0.07,0.02z"
             />
          <path
            d="m575.5,326.27l0.2,0.08l0.1,0.15l0.28,1l1.07,3.07l0,0.2l-0.13,0.15l-0.1,0.02l-0.17,-0.02l-0.13,-0.15l-1.1,-3.1l-0.27,-1.05l0.02,-0.18l0.15,-0.15l0.08,-0.03z"
             />
          <path
            d="m590.58,324.5l0.17,0.07l0.1,0.16l0.1,0.55l0.25,0.95l1.35,3.79l0.53,1.39l0,0.18l-0.13,0.14l-0.1,0.02l-0.2,-0.02l-0.1,-0.14l-1.05,-2.75l-0.85,-2.45l-0.27,-0.99l-0.1,-0.6l0.05,-0.16l0.15,-0.12l0.1,-0.02z"
             />
          <path
            d="m571.44,320.55l-0.05,0.2l-0.15,0.1l-0.42,0.1l-1.28,0.55l-0.37,-0.32l0.96,-0.45l3.06,-0.75l3.5,-0.7l4.37,-0.75l2.66,-0.38l3.87,-0.5l3.87,-0.45l4.24,-0.4l2.24,-0.18l4.12,-0.27l4.07,-0.2l0.17,0.07l0.1,0.15l0,0.1l-0.1,0.18l-0.17,0.07l-4.05,0.18l-4.12,0.27l-2.24,0.18l-4.22,0.43l-3.87,0.42l-3.85,0.5l-2.66,0.4l-3.23,0.52l-3.8,0.73l-3.01,0.7l-1.58,0.45l-0.17,0l-0.15,-0.13l-0.02,-0.2l0.07,-0.15l1.38,-0.6l0.47,-0.13l0.2,0.02l0.12,0.13l0.02,0.1z"
             />
          <path
            d="m600.51,323.4l0.18,0.02l0.11,0.14l0.39,1.37l0.52,2.56l0.64,3.85l-0.05,0.19l-0.14,0.12l-0.09,0l-0.16,-0.07l-0.09,-0.16l-0.61,-3.82l-0.52,-2.54l-0.39,-1.33l0,-0.16l0.14,-0.14l0.07,-0.02z"
             />
          <path
            d="m606.54,316.62l0.16,0.02l0.1,0.14l0.33,1.38l0.45,2.56l0.54,3.85l-0.04,0.19l-0.12,0.12l-0.08,0l-0.14,-0.07l-0.08,-0.16l-0.52,-3.82l-0.45,-2.54l-0.33,-1.33l0,-0.16l0.12,-0.14l0.06,-0.02z"
             />
        </g>

      </g>

    </g>

  </defs>

  <!-- <use href="#friar_matte" fill="pat(dots)"/> -->
  <use href="#friar_matte" fill="red" />
  <use href="#friar_handle_matte" fill="grey" />
  <use href="#happy_eye_matte" fill="grey" />
  <use href="#friar_body" />
  <use href="#happy_eye" />
  <use href="#happy_mouth" />

  <g transform="translate(280 4)">
    <!-- <use href="#blender_matte" fill="red" /> -->
    <use href="#blender_lid_matte" fill="pink" />
    <use href="#blender_cup_matte" fill="pink" />
    <use href="#blender_base_matte" fill="pink" />
    <use href="#blender_chord_matte" fill="#700" />
    <use href="#blendifer" 
      style="
        --outline-color: #700;
        --blender-body-lines: rgba(128,128,128,0.5);
        --hilite-color: rgba(128,128,128,0.5);
        --grad-color: rgba(128,128,128,0.5);
      "
    />
</g>

</svg>