<svg xmlns="http://www.w3.org/2000/svg">

 <g >

  <path  d="m237.3,380.5l-0.1,0.5l-0.3,0.4l-0.5,0.3l-23.4,1.5l-19.7,0.9l-2.8,0.1l-2.6,-0.1l-0.6,-0.1l-0.4,-0.3l-0.4,-0.5l-0.1,-0.6l0.1,-0.5l0.3,-0.5l0.4,-0.4l2.9,-1.4l22.4,-4.1l15.7,-2.5l20,-3.1l23.7,-3.4l17.4,-2.3l9.9,-1.2l19.4,-2.3l10.9,-1.2l21.1,-2.1l11.6,-1l22.2,-1.8l12.2,-0.8l22.7,-1.3l12.4,-0.6l22.7,-0.7l12.2,-0.4l22.1,-0.3l11.8,-0.1l21.1,0l22,0.1l18.7,0.3l19.1,0.3l16.3,0.3l22.8,0.5l19.8,0.4l22.2,0.4l23.2,0.3l13.1,-0.5l2,-0.1l0.6,0l0.4,0.2l0.4,0.4l0.2,0.5l0.1,0.5l-0.1,0.5l-0.3,0.5l-0.5,0.3l-0.5,0.1l-2.1,0.2l-13.3,0.4l-23.2,-0.2l-22.2,-0.4l-19.9,-0.5l-22.8,-0.4l-16.2,-0.4l-19.1,-0.3l-18.8,-0.2l-21.9,-0.2l-21.1,0l-11.8,0.1l-22.1,0.4l-12.1,0.3l-22.7,0.8l-12.3,0.6l-22.7,1.2l-12.2,0.9l-22.1,1.7l-11.7,1.1l-21,2.1l-10.8,1.2l-19.5,2.2l-9.8,1.3l-17.4,2.3l-23.7,3.3l-19.9,3.1l-15.8,2.5l-22,4.1l-2.3,1.1l-0.6,-2.9l5.3,0.1l19.5,-1l23.5,-1.3l0.4,0.3l0.4,0.4l0.2,0.4l0,0.6z" />
  <path  d="m285.2,318.1l0.3,0.4l0.2,0.5l-0.1,0.6l-1.6,2.4l-1.5,1.6l-1.8,1.4l-2.4,1.4l-2,0.8l-2.5,0.9l-2.8,0.7l-3.2,0.6l-3.9,0.4l-6.4,0l-7.3,-0.6l-8.1,-1.3l-3,-0.7l-9.4,-2.4l-10.2,-3.1l-10.7,-3.8l-10.9,-4.4l-10.8,-5.2l-6.7,-3.9l-3.7,-2.3l-6.2,-4.4l-3.4,-2.6l-5.5,-5.1l-3,-2.9l-4.6,-5.6l-2.4,-3.2l-3.6,-6.1l-1.8,-3.5l-2.4,-6.5l-1.2,-3.8l-1.1,-6.8l-0.3,-3.9l0.2,-6.9l0.4,-3.9l0.6,-3.7l0.7,-3.7l0.9,-3l1.2,-3.6l1.4,-3.4l1.3,-2.9l1.8,-3.3l3.6,-5.8l2.2,-3l4.4,-5.2l2.5,-2.6l5,-4.4l2.7,-2.1l5.3,-3.5l2.9,-1.6l5.4,-2.4l2.9,-1.1l5.2,-1.3l2.8,-0.5l2.8,-0.2l2.2,0l2.6,0.2l2.6,0.5l4.3,1.5l2.2,1.2l3.7,2.7l1.8,1.9l1.7,2.2l2.5,4.7l1.3,2.8l1.7,5.7l0.8,3.3l0.8,6.3l0.4,3.5l0,6.5l-0.2,3.6l-0.8,6.3l-0.6,3.4l-1.6,5.8l-1,3.2l-2.4,5.1l-1.4,2.8l-3,4.1l-1.8,2.3l-3.6,3l-2.2,1.6l-4,1.8l-2.4,0.8l-4.4,0.5l-2.6,0.1l-4.5,-0.8l-2.6,-0.7l-4.6,-2l-2.6,-1.4l-4.7,-3.1l-5.2,-4l-7.3,-6.5l-15.5,-15.5l-5.4,-5.2l-6.1,-5.4l-2.7,-2.1l-3.3,-2.3l-3.3,-2.2l-2.9,-1.6l-3.5,-1.8l-3.6,-1.5l-3.1,-1.1l-3.8,-1l-3.9,-0.7l-3.3,-0.4l-4,-0.3l-4.1,0.1l-3.4,0.3l-4.1,0.7l-4.1,0.9l-3.4,1l-4.1,1.6l-4.1,1.8l-3.3,1.7l-3.9,2.4l-3.9,2.6l-3.1,2.4l-3.6,3.1l-3.5,3.3l-3.2,3.4l-5.4,7.2l-2.3,3.4l-2.4,4l-2.1,4l-1.8,3.9l-1.9,7.1l-0.7,3.7l0.2,6.2l0.4,3l2.2,4.7l3.1,4l3.3,3l3,2.2l2.7,1.4l2.1,0.9l2.5,0.5l0.2,-0.5l0.3,-0.4l0.4,-0.3l0.5,-0.1l0.6,0l0.4,0.3l1,1.2l0.2,0.6l0,0.5l-0.2,0.6l-0.4,0.4l-0.5,0.2l-2,0.6l-0.7,0l-3.1,-0.7l-2.5,-1l-3,-1.6l-3.4,-2.4l-3.5,-3.3l-3.5,-4.3l-2.6,-5.4l-0.6,-3.8l-0.2,-6.6l0.8,-4.2l2,-7.5l1.9,-4.2l2.2,-4.2l2.5,-4.2l2.4,-3.4l5.5,-7.4l3.4,-3.7l3.6,-3.4l3.8,-3.2l3.2,-2.4l4,-2.8l4.1,-2.4l3.5,-1.8l4.2,-1.9l4.3,-1.7l3.6,-1l4.3,-1l4.3,-0.7l3.6,-0.3l4.3,-0.1l4.2,0.2l3.5,0.4l4.1,0.8l4,1.1l3.3,1.1l3.8,1.6l3.7,1.8l3,1.8l3.5,2.2l3.4,2.5l2.8,2.1l6.3,5.6l5.5,5.2l15.4,15.5l7.2,6.4l5,3.8l4.5,3.1l2.3,1.2l4.4,1.9l2.2,0.5l4.2,0.7l2.1,0l3.9,-0.5l2,-0.7l3.6,-1.7l1.8,-1.2l3.3,-2.9l1.5,-1.9l2.8,-3.9l1.3,-2.5l2.2,-4.9l1,-2.9l1.6,-5.6l0.5,-3.2l0.8,-6.2l0.1,-3.3l0,-6.3l-0.3,-3.3l-0.8,-6.1l-0.8,-3.1l-1.6,-5.4l-1.2,-2.5l-2.3,-4.4l-1.5,-1.8l-1.5,-1.6l-3.3,-2.5l-1.8,-1l-3.9,-1.3l-2.1,-0.4l-2.4,-0.2l-2,0.1l-2.5,0.2l-2.5,0.4l-4.9,1.3l-2.8,0.9l-5,2.4l-2.8,1.5l-5,3.3l-2.7,2l-4.6,4.2l-2.5,2.5l-4.2,5l-2.1,2.9l-3.5,5.5l-1.7,3.2l-1.2,2.7l-1.4,3.3l-1.1,3.4l-0.8,2.9l-0.7,3.5l-0.6,3.6l-0.4,3.6l-0.2,6.7l0.4,3.6l1,6.5l1.1,3.4l2.3,6.3l1.7,3.3l3.5,5.9l2.2,3l4.5,5.4l2.8,2.7l5.4,5l3.2,2.4l6.1,4.4l3.5,2.2l6.7,3.8l10.6,5.1l10.8,4.4l10.5,3.7l10,3.1l9.3,2.4l3,0.6l7.8,1.3l7,0.6l6.1,-0.1l3.8,-0.3l2.9,-0.6l2.6,-0.6l2.3,-0.8l1.7,-0.8l2.1,-1.2l1.4,-1.2l1.2,-1.2l1.6,-2.1l0.5,-0.2l0.5,0l0.5,0.1l0.4,0.3z" />

  <g >
   <path  d="m449.1,228.3l-0.4,-0.4l-0.1,-0.6l0,-0.5l0.2,-0.5l0.7,-1l0.4,-0.4l1.1,-0.8l1.1,-0.8l2.4,-1.2l4.5,-1.9l4.3,-1.6l5,-1.4l5.4,-1.2l5.3,-0.8l4.9,-0.4l2.9,-0.1l4.3,0.2l1.5,0.1l1.9,0.3l0.7,0.3l0.4,0.3l0.3,0.5l0.1,0.5l-0.2,0.5l-0.2,0.5l-0.4,0.3l-0.6,0.2l-0.7,-0.1l-3.1,-0.4l-4,-0.1l-2.8,0l-4.7,0.5l-5.1,0.7l-5.1,1.2l-4.9,1.3l-4.1,1.5l-4.3,1.9l-2.2,1.1l-1.7,1.1l-0.5,0.9l-0.4,0.4l-0.5,0.2l-0.5,0.1l-0.5,-0.1l-0.4,-0.3z" fill="#000000" />
   <path  d="m449.8,226.9l0.2,-0.5l0.2,-0.5l0.5,-0.3l0.5,-0.2l9.3,-1l4.8,-0.2l6.1,0.2l0.5,0.2l0.5,0.3l0.3,0.4l0.1,0.5l0,0.6l-0.3,0.4l-0.3,0.4l-0.5,0.2l-0.5,0.1l-5.8,-0.2l-4.7,0.2l-9.1,0.9l-0.6,0l-0.4,-0.2l-0.4,-0.3l-0.3,-0.5l-0.1,-0.5z" fill="#000000" />
   <path  d="m469.1,227.1l-0.1,-0.6l0.1,-0.5l0.2,-0.4l0.4,-0.4l1.4,-0.9l3.1,-1.2l3,-1l5.9,-1.5l5,-1.1l3.3,-0.5l0.6,0l0.5,0.2l0.4,0.4l0.2,0.4l0.1,0.6l-0.1,0.5l-0.3,0.4l-0.4,0.3l-0.5,0.2l-3.2,0.5l-8.9,2l-4.6,1.5l-2.8,1.1l-1,0.7l-0.5,0.2l-0.5,0l-0.5,-0.2l-0.5,-0.3l-0.3,-0.4z" fill="#000000" />
   <path  d="m494.1,220.1l-0.4,0.4l-0.5,0.2l-0.5,0l-0.5,-0.2l-0.7,-0.4l-3.6,0.1l-0.3,-2.9l0.9,-0.2l0.6,2.6l-16.3,3.4l-0.6,0l-0.4,-0.1l-0.5,-0.3l-0.2,-0.4l-0.2,-0.5l0.1,-0.5l0.2,-0.5l0.3,-0.4l0.5,-0.2l2.5,-0.8l9,-2.6l1.8,2.6l-14.5,3.2l-1.8,-2.4l7.8,-1.8l2,2.7l-13.5,2.8l-1,-1.6l4.3,-0.7l9.8,-1.9l1.3,-0.2l0.6,0l0.5,0.2l0.4,0.4l0.2,0.5l0.1,0.5l-0.1,0.5l-0.3,0.5l-0.5,0.3l-1.4,0.7l-8.5,2.7l-1.9,-2.2l5.3,-1.8l2.7,-0.6l1.3,-0.3l0.5,0l0.6,0.2l0.4,0.4l0.2,0.5l0.1,0.5l-0.2,0.6l-0.3,0.4l-0.5,0.3l-1.5,0.6l-1.2,0.2l-0.5,0l-0.5,-0.2l-0.4,-0.4l-0.3,-0.5l0,-0.5l0.1,-0.5l0.3,-0.5l0.4,-0.3l1.5,-0.7l4.3,-1l3.9,-0.5l4,-0.2l1.4,0l0.1,-0.5l-2.2,0.1l-9.2,1.7l-3.8,0.5l-5.3,1l-1.2,0.1l-1.1,0.3l-2.6,0.9l-1.1,0.2l-2.4,0.9l-1.3,0.2l-0.2,-2.7l8.7,-0.5l1.3,0.1l0.6,0.1l0.4,0.4l0.3,0.4l0.1,0.6l-0.1,0.5l-0.2,0.5l-0.9,1l-0.5,0.4l-1.2,0.6l-1.3,0.6l-2.5,0.7l-0.5,0.1l-0.5,-0.1l-0.5,-0.3l-0.3,-0.4l-0.1,-0.5l0,-0.5l0.2,-0.5l0.3,-0.4l0.4,-0.3l2.9,-1l1.8,-0.8l0.5,-0.1l0.5,0.1l0.5,0.2l0.4,0.4l0.2,0.5l0,0.5l-0.2,0.5l-0.3,0.5l-0.5,0.2l-3.2,1.4l0.2,-2.3l-0.3,-0.8l0.3,0.9l-6.3,0.4l-2.5,0.3l-0.5,-0.1l-0.5,-0.2l-0.4,-0.4l-0.2,-0.5l0,-0.6l0.1,-0.5l0.4,-0.4l0.5,-0.3l1.1,-0.4l2.7,-0.5l2.1,-0.8l1.3,-0.3l2.3,-0.8l1.5,-0.4l1.4,-0.1l5.2,-1l2.7,-0.3l10.4,-1.9l2.9,-0.1l1.5,0.1l0.8,0.4l0.9,0.8l0.4,0.5l0.2,0.5l-0.1,0.6l-0.2,0.5l-0.4,0.4l-0.4,0l0.6,0.8l0.1,0.5l-0.1,0.5l-0.2,0.5l-0.4,0.4l-0.5,0.2l-0.5,0l-1.1,-0.1l-2.4,-0.1l-3.8,0.2l-3.6,0.5l-3.9,0.9l-1,0.5l-0.5,0.1l-0.4,-2.9l0.4,2.9l-1.3,0.3l-4,1.3l-1.2,0.4l-1.7,0.3l-0.5,0l-0.6,-0.2l-0.4,-0.3l-0.2,-0.5l-0.1,-0.6l0.1,-0.5l0.3,-0.4l0.5,-0.4l2.6,-1l8.5,-2.7l1.1,-0.6l0.9,2.9l-14.1,2.6l-2.9,0.3l-1.1,-0.4l-1,-0.9l-0.3,-0.4l-0.2,-0.5l0.1,-0.6l0.2,-0.5l0.4,-0.4l0.5,-0.2l15,-3.1l2.8,-0.7l0.6,0l0.5,0.2l0.4,0.3l0.3,0.4l0.1,0.6l-0.1,0.5l-0.2,0.5l-0.4,0.3l-0.5,0.2l-9.2,2.2l-2.7,0.6l-1.6,0.1l-0.5,-0.1l-0.5,-0.3l-0.4,-0.4l-0.1,-0.5l0,-0.6l0.2,-0.5l0.3,-0.4l0.5,-0.2l2.8,-0.8l14.3,-3.2l2.4,-0.5l0.5,0l0.5,0.1l0.4,0.3l0.3,0.5l0.2,0.5l-0.1,0.5l-0.2,0.5l-0.4,0.3l-0.4,0.3l-12.4,3.6l0.2,-3l14,-3l1.5,-0.3l0.5,0l1.4,0.2l0.5,0.1l0.4,0.4l0.3,0.4l0.1,0.5l-0.1,0.6l-0.2,0.4l-0.4,0.4l-0.5,0.2l-4,0.7l-1.9,0l-0.5,-0.3l-0.3,-0.4l-0.2,-0.4l-0.1,-0.6l0.2,-0.5l0.3,-0.4l0.4,-0.3l0.5,-0.1l1.2,-0.1l4.3,-0.1l0.8,0.1l1,0.6l0.5,0.3l0.2,0.5l0.1,0.5l0,0.5l-0.3,0.5z" fill="#000000" />
   <path  d="m388.2,24.7l-0.3,0.5l-0.5,0.1l-1.2,0l-3.8,0.8l-2.9,0.8l-3.2,1.2l-1.6,0.8l-1.4,0.8l-1.4,0.9l-1.6,1.5l-0.8,0.9l-1,1.4l-0.7,1.1l-0.2,0.2l-0.5,0l-0.3,-0.1l-0.2,-0.5l0,-0.5l0.6,-1l1.1,-1.6l0.9,-1l1.7,-1.5l1.5,-1.1l1.6,-0.9l1.7,-0.8l3.3,-1.2l4.2,-1.2l2.9,-0.5l1.3,0l0.5,0.2l0.3,0.5l0,0.2z" fill="#000000" />
   <path  d="m496.2,202.4l0.5,-0.1l0.5,0.1l1.4,1.3l1,1.6l0.9,2l0.7,1.9l0.5,2.3l0.6,3.9l0.3,4.9l0,4l-0.1,2.2l-0.6,6.5l-1.1,7l-1.5,7.3l-2.1,8l-2.3,6.9l-1.6,4.1l-3.2,7.3l-3.1,5.9l-0.6,1.1l-0.4,0.3l-0.5,0l-0.3,-0.1l-0.2,-0.5l0.1,-0.5l0.6,-1l3,-5.9l3.2,-7.2l1.6,-4l2.2,-6.8l2.1,-8l1.5,-7.1l1.1,-7.1l0.6,-6.3l0.1,-2.1l0,-4l-0.3,-4.7l-0.6,-3.8l-0.5,-2.2l-0.6,-1.7l-0.8,-1.9l-0.9,-1.4l-1.2,-1l-0.3,-0.4l0.1,-0.6l0.2,-0.2z" fill="#000000" />
   <path  d="m301.5,68.7l0.2,0.6l-0.1,0.5l-0.3,0.4l-1.7,1.2l-0.9,2.6l-2.8,11.1l-3.7,19.7l-2.7,17.7l-2.6,22.4l-1.8,18.4l-1.2,18.3l-1,19.4l-0.4,21.8l0.1,20l0.6,19.5l1.3,20.2l1.6,17.1l2,15.6l2.3,13.6l2.4,11.2l2,8.7l1.7,6.4l2.3,7.2l0,0.5l-0.1,0.5l-0.2,0.5l-0.4,0.3l-0.5,0.2l-0.6,0l-0.5,-0.2l-0.3,-0.4l-0.3,-0.4l-2.3,-7.3l-1.7,-6.5l-2.1,-8.8l-2.3,-11.3l-2.4,-13.7l-2,-15.7l-1.6,-17.3l-1.3,-20.2l-0.6,-19.6l-0.1,-20.1l0.4,-21.9l0.9,-19.4l1.3,-18.5l1.7,-18.4l2.7,-22.5l3.5,-22.2l3,-15.4l2.8,-11.3l1.1,-3.3l0.6,-0.7l2.3,-1.4l0.6,0l0.4,0.2l0.5,0.3l0.2,0.4z" fill="#000000" />
   <path  d="m297.5,69.9l-0.1,-0.5l0,-0.5l0.2,-0.5l0.4,-0.4l2,-1.4l0.4,-0.2l7,-2.2l8.6,-2.3l7.9,-2l4.5,-1l8.8,-1.7l11.5,-2l10.2,-1.6l6.5,-0.8l6.6,-0.8l6.8,-0.6l11.9,-0.8l7.2,-0.3l7.1,-0.3l11.6,-0.1l6.9,0l6.6,0.2l6.4,0.4l10.2,0.9l5.8,0.6l5.5,0.7l5.2,0.8l8,1.6l6.6,1.5l4.9,1.4l3.7,1.1l3.4,1.2l0.5,0.3l0.3,0.4l0.2,0.5l0,0.5l-0.2,0.5l-0.4,0.4l-0.4,0.3l-0.6,0.1l-0.5,-0.1l-3.3,-1.2l-3.5,-1.1l-4.9,-1.3l-6.4,-1.5l-8,-1.6l-5.1,-0.8l-5.4,-0.7l-5.7,-0.6l-10.1,-0.9l-6.4,-0.3l-6.5,-0.2l-6.8,-0.1l-11.5,0.2l-7.1,0.2l-7.1,0.4l-11.8,0.7l-6.8,0.7l-6.5,0.7l-6.5,0.8l-10.1,1.6l-11.4,2l-8.8,1.7l-4.4,1l-7.9,1.9l-8.5,2.3l-6.6,2.1l-1.8,1.3l-0.5,0.2l-0.5,0.1l-0.5,-0.2l-0.5,-0.3l-0.3,-0.4z" fill="#000000" />
   <path  d="m345.5,320.6l0.4,-0.4l0.4,-0.2l0.6,-0.1l3.5,1.3l3.1,0.7l6.9,1l7.5,0.7l9.7,0.5l11.7,0.3l13.3,-0.1l19.5,-0.6l23.2,-1.3l17.4,-1.6l10.9,-1.4l16.9,-3l0.5,0l0.5,0.1l0.5,0.3l0.2,0.5l0.2,0.5l-0.1,0.5l-0.3,0.5l-0.4,0.4l-0.4,0.2l-17.1,3l-11,1.4l-17.6,1.6l-23.3,1.3l-19.5,0.6l-13.4,0.1l-11.7,-0.2l-9.8,-0.6l-7.7,-0.7l-7.1,-1l-3.3,-0.7l-3.4,-1.4l-0.5,-0.2l-0.3,-0.5l-0.2,-0.5l0,-0.5l0.2,-0.5z" fill="#000000" />
   <path  d="m317.5,46.4l0.6,0.1l0.4,0.3l0.3,0.4l0.2,0.5l0.2,1.4l0.1,1.3l-0.1,1.5l-0.2,1.4l-0.7,2.9l-0.7,1.8l-0.6,1.5l-1.8,3.1l-1.2,1.8l-0.4,0.4l-0.5,0.2l-0.5,0l-0.5,-0.2l-0.5,-0.3l-0.2,-0.4l-0.2,-0.6l0.1,-0.5l2.4,-3.8l1.1,-2.3l0.6,-1.7l0.3,-1.1l0.5,-2.6l0,-2.2l-0.2,-1.1l0,-0.5l0.2,-0.5l0.3,-0.4l0.5,-0.3l0.5,-0.1z" fill="#000000" />
   <path  d="m319.6,47.9l-0.1,0.5l-0.2,0.5l-0.4,0.3l-0.5,0.2l-1.2,0.3l-0.6,0l-0.5,-0.2l-0.4,-0.4l-0.3,-0.5l0,-0.6l0.1,-0.6l0.4,-0.4l1.1,-0.9l0.4,-0.3l6.3,-2.2l8,-2.3l9.5,-2.4l8.7,-1.8l4.8,-0.9l14.4,-2.3l15.9,-1.9l12,-1.1l6,-0.4l10,-0.5l6,-0.2l9.5,0l5.6,0.2l5.3,0.2l5.1,0.2l4.8,0.4l7.3,1l4.1,0.6l6.4,1.4l5.1,1.3l3.9,1.1l2.8,1l2.6,1.2l0.5,0.3l0.3,0.4l0.1,0.5l0,0.5l-0.2,0.5l-0.4,0.4l-0.5,0.2l-0.5,0.1l-0.5,-0.2l-2.5,-1l-2.7,-1l-3.7,-1.1l-5,-1.3l-6.3,-1.3l-4,-0.6l-7.1,-0.9l-4.7,-0.4l-5,-0.3l-5.3,-0.2l-5.5,-0.1l-9.5,0l-5.9,0.2l-9.9,0.4l-5.9,0.4l-12,1.2l-15.8,1.8l-14.3,2.3l-4.7,0.9l-8.6,1.8l-9.4,2.3l-7.9,2.3l-5.8,2.1l-1.1,-2.2l0.6,0l0.5,0.2l0.4,0.3l0.3,0.4l0.1,0.6z" fill="#000000" />
   <path  d="m480.5,38.2l0.4,0.3l0.4,0.4l0.2,0.4l0.1,0.6l-0.4,4.3l0,3.3l0.2,4l0.9,6.3l0,0.5l-0.2,0.5l-0.3,0.5l-0.5,0.2l-0.5,0.1l-0.5,0l-0.5,-0.3l-0.3,-0.4l-0.2,-0.5l-0.4,-2.1l-0.5,-4.5l-0.3,-4.2l0.1,-3.5l0.3,-4.6l0.2,-0.5l0.3,-0.4l0.4,-0.3l0.5,-0.1l0.6,0z" fill="#000000" />
   <path  d="m452.2,202.5l0,-0.5l0.2,-0.4l0.3,-0.3l2.2,-0.9l5.8,-1.4l6.7,-1.3l6,-0.9l6.4,-0.8l6.4,-0.4l10.1,-0.1l4.7,0.4l4.3,0.7l2.6,0.6l2.1,0.6l1.7,0.6l2.3,1.1l1.1,0.7l0.3,0.3l0.2,0.4l0.1,0.5l-0.1,0.4l-0.3,0.4l-0.3,0.2l-0.5,0.1l-0.4,0l-1.4,-0.8l-2,-1l-1.5,-0.6l-4.4,-1l-4.1,-0.7l-4.6,-0.3l-9.8,0l-6.3,0.5l-6.3,0.7l-5.9,0.9l-6.6,1.3l-3.7,0.9l-4.1,1.1l-0.4,-0.1l-0.4,-0.2l-0.2,-0.3l-0.2,-0.4z" fill="#000000" />
   <path  d="m514,199.7l0.5,0l0.5,0.2l0.4,0.3l0.8,2.4l1,4.4l0.9,5.9l0.7,10.2l-0.2,10.7l-0.9,12.1l-1.5,11.7l-1.1,6l-2,9l-1.6,5.8l-1,3l-0.2,0.5l-0.4,0.3l-0.5,0.2l-0.5,0l-0.4,-0.2l-0.4,-0.3l-0.3,-0.4l-0.1,-0.5l1,-3.5l1.6,-5.6l2,-8.9l1,-5.9l1.9,-14.7l0.6,-11.7l-0.1,-11.8l-0.9,-8.7l-0.9,-4.7l-1.2,-4.5l0.2,-0.5l0.2,-0.4l0.4,-0.3l0.5,-0.1z" />
   <path  d="m496.3,216.2l0.5,0.2l0.4,0.4l0.3,0.4l-0.3,8.3l-0.8,7.5l-0.7,4.6l-1.2,5.1l-3.3,11.6l-6.2,18.4l-3.3,8l-1.3,2.8l-0.9,1.6l-0.4,0.3l-0.5,0.1l-0.5,0l-0.5,-0.3l-0.4,-0.4l-0.2,-0.4l0,-0.6l1.9,-4.3l3.2,-7.9l6.2,-18.2l3.3,-11.4l1.1,-5l0.7,-4.5l0.5,-3.9l0.7,-11.5l0.3,-0.4l0.4,-0.4l0.5,-0.1l0.5,0z" fill="#000000" />
   <path  d="m476.6,281.5l0.4,-0.3l0.5,-0.1l0.5,0l1.9,1.4l1.8,0.4l2.1,0.2l4.9,-0.2l7.1,-0.7l12,-2.3l0.5,0l0.4,0.1l0.4,0.3l0.3,0.4l0.1,0.5l0,0.5l-0.3,0.5l-0.3,0.3l-0.5,0.2l-12.2,2.3l-7.2,0.8l-5.2,0.2l-2.4,-0.2l-2.4,-0.5l-0.6,-0.3l-2.1,-1.7l-0.2,-0.5l0,-0.5l0.2,-0.4l0.3,-0.4z" fill="#000000" />
   <path  d="m320.6,75.7l0.4,0.3l0.1,0.5l-1.5,9.6l-1.5,11.5l-1.2,10.6l-1,9.4l-0.9,10l-1.1,11.3l-0.5,6.6l-0.6,7l-0.4,6l-0.5,7.5l-0.4,7.6l-0.4,6.4l-0.3,7.9l-0.4,8l-0.2,6.6l-0.2,8l-0.2,7.8l-0.1,6.4l0,20.9l0.1,6.9l0.3,11.8l0.6,11.6l0.6,9.5l0.7,8.2l1.5,11.1l1,5.3l2,7.6l1.6,4.6l0,0.6l-0.3,0.4l-0.3,0.1l-0.5,-0.1l-0.3,-0.4l-1.7,-4.7l-2,-7.8l-1,-5.3l-1.5,-11.2l-0.8,-8.3l-0.6,-9.5l-0.5,-11.6l-0.3,-11.9l-0.1,-6.9l0,-20.9l0.1,-6.4l0.2,-7.9l0.2,-7.9l0.2,-6.7l0.3,-7.9l0.4,-7.9l0.3,-6.5l0.5,-7.6l0.5,-7.5l0.4,-6l0.6,-7l0.5,-6.7l1,-11.2l1,-10.1l1,-9.4l1.2,-10.6l1.5,-11.5l1.5,-9.6l0.3,-0.5l0.5,-0.2l0.2,0.1z" fill="#000000" />
   <path  d="m297.8,254.4l0.3,-0.5l0.5,-0.1l2.4,0.1l6,-0.9l3.2,-0.6l0.5,0l0.3,0.4l0.1,0.3l-0.2,0.5l-0.4,0.3l-5.9,1.1l-3.5,0.4l-2.5,-0.1l-0.5,-0.2l-0.3,-0.5l0,-0.2z" fill="#000000" />
   <path  d="m297,259.4l0.2,-0.5l0.4,-0.3l2.3,-0.4l9.8,-0.1l10,0.6l0.5,0.2l0.2,0.5l0,0.3l-0.3,0.4l-0.6,0.1l-9.8,-0.6l-9.7,0.1l-2.1,0.4l-0.5,-0.1l-0.3,-0.4l-0.1,-0.2z" fill="#000000" />
   <path  d="m343.7,37.9l0.5,0.2l0.2,0.5l0.3,2.4l-0.3,2.6l-0.6,2.1l-1,2.5l-1.4,2.6l-3.5,5.3l-1.2,1.5l-0.4,0.3l-0.6,0l-0.2,-0.2l-0.2,-0.5l0.2,-0.5l1.1,-1.5l3.5,-5.2l1.3,-2.5l0.9,-2.3l0.6,-2l0.3,-2.3l-0.3,-2.1l0.1,-0.5l0.4,-0.3l0.3,-0.1z" fill="#000000" />
   <path  d="m451.4,201l0.4,0.1l0.4,0.3l0.3,0.4l0.1,0.5l0,7.7l-0.3,9.7l-0.4,5.6l-0.2,0.5l-0.2,0.4l-0.4,0.2l-0.5,0.1l-0.4,0l-0.5,-0.2l-0.3,-0.3l-0.2,-0.5l0,-0.4l0.4,-5.6l0.3,-9.6l0,-8l0.2,-0.4l0.4,-0.3l0.4,-0.2l0.5,0z" fill="#000000" />
   <path  d="m488.9,59.6l0.6,0l0.5,0.2l0.4,0.4l0.2,0.4l3.1,11l1.8,7.6l3.4,17.1l2,11.8l3.4,23.9l2.4,20.6l1.5,15.7l0.6,9l0.1,5l0.1,4.6l-0.3,6.7l-0.3,3.8l-0.2,0.5l-0.3,0.4l-0.4,0.3l-0.5,0.1l-0.6,0l-0.4,-0.3l-0.4,-0.3l-0.2,-0.5l0,-0.6l0.3,-3.6l0.2,-6.5l0,-4.6l-0.1,-4.9l-0.6,-8.8l-1.6,-15.7l-2.4,-20.5l-3.3,-23.9l-2,-11.7l-3.4,-16.9l-1.7,-7.6l-3.1,-10.8l-0.1,-0.5l0.1,-0.5l0.3,-0.5l0.4,-0.3l0.5,-0.1z" fill="#000000" />
   <path  d="m504.7,281.8l0.5,0.2l0.4,0.4l0.3,0.4l0.1,0.5l0,3l-0.3,3.1l-1.1,7.7l-2.7,14.4l-2.9,12.8l-3.6,13.6l-2.4,7.3l-2.6,7l-0.3,0.4l-0.4,0.3l-0.5,0.2l-0.6,0l-0.5,-0.2l-0.4,-0.4l-0.2,-0.5l-0.1,-0.5l0.2,-0.5l0.5,-1.2l3.1,-8.7l2.4,-8l3.1,-12.3l2.7,-12.5l3,-17.1l0.5,-5.1l0.1,-2.7l0,-0.6l0.3,-0.4l0.4,-0.4l0.5,-0.2l0.5,0z" fill="#000000" />
   <path  d="m333.7,37.8l-0.1,0.5l-0.3,0.4l-0.4,0.3l-0.6,0.1l-1.2,0.1l-0.5,0l-0.5,-0.2l-0.4,-0.4l-0.2,-0.5l0,-0.6l0.1,-0.5l0.6,-1.1l0.7,-0.7l1.7,-0.8l5.4,-2l9.9,-2.9l6.2,-1.5l7,-1.6l6.4,-1.2l10.9,-1.7l8.8,-1l8.8,-0.8l7.4,-0.4l11.4,-0.2l8.2,0.3l4,0.2l9.9,0.9l6.7,0.8l10.3,1.8l7.3,1.5l7.2,1.9l0.4,0.2l0.4,0.4l0.2,0.5l0,0.5l-0.1,0.5l-0.3,0.5l-0.5,0.2l-0.5,0.2l-0.5,-0.1l-7,-1.8l-7.2,-1.5l-7.1,-1.3l-9.6,-1.3l-9.8,-0.9l-3.9,-0.2l-8.1,-0.2l-11.3,0.2l-7.3,0.4l-8.8,0.7l-8.6,1l-10.8,1.7l-6.3,1.2l-6.9,1.5l-6.1,1.5l-9.7,2.9l-5.3,1.9l-1,0.5l-1.1,-1.6l0.5,0l0.5,0.1l0.5,0.2l0.4,0.4l0.2,0.4l0,0.6z" fill="#000000" />

  </g>

 </g>
</svg>