<svg width="800" height="500" xmlns="http://www.w3.org/2000/svg" xmlns:svg="http://www.w3.org/2000/svg">
 <g class="layer" display="inline">
  <title>Layer 1</title>
  <ellipse cx="712" cy="411" fill="#000000" id="svg_34" rx="73" ry="3" stroke="#000000" stroke-opacity="0" stroke-width="5"/>
  <ellipse cx="679" cy="406" fill="#ffffff" id="svg_57" rx="23" ry="4" stroke="#000000" stroke-opacity="0" stroke-width="5"/>
  <path d="m316,154c9,45 24,95 -10,147c110,30 205,-43 225,-70c5,-31 -2,-80 -31,-117c-37,30 -56,75 -185,40z" fill="#000000" id="svg_56" stroke="#000000" stroke-opacity="0" stroke-width="5"/>
  <path d="m617,328c-2,-8 0,-50 13,-69c13,-18 34,-43 65,-37c31,6 40,63 42,68c-14,-15 -46,-11 -65,10c-5,-5 -10,-10 -20,-11c11,7 6,12 11,18c-9,23 -38,28 -46,22z" fill="#bfbfbf" id="svg_54" stroke="#000000" stroke-opacity="0" stroke-width="5"/>
  <path d="m13,248l59,2l77,-27c23,8 50,18 72,38l11,67l-1,72l-54,-45l-72,43l-49,-18c-6,-34 -23,-92 -44,-134z" fill="#7f0000" id="svg_25" stroke="#000000" stroke-opacity="0" stroke-width="5"/>
  <path d="m150,226l17,136l-62,38l-32,-150l77,-24z" fill="#a50000" id="svg_48" stroke="#000000" stroke-opacity="0" stroke-width="5"/>
  <path d="m305,375c-6,-27 -26,-68 -48,-105l5,-6c50,75 209,39 270,-37l3,2c6,54 3,119 -7,182l-7,0c14,-60 12,-147 10,-175c-31,47 -177,114 -261,49c20,29 30,61 40,90l-6,0z" fill="#000000" id="svg_6" stroke="#000000" stroke-opacity="0" stroke-width="5"/>
  <path d="m452,411c5,-26 6,-55 6,-93c2,34 4,60 0,93c-2,0 -4,0 -6,0z" fill="#000000" id="svg_8" stroke="#000000" stroke-opacity="0" stroke-width="5"/>
  <path d="m219,167c19,-8 43,-27 49,-46c64,-18 161,-37 234,-10c26,41 32,81 31,118l-5,3c-1,-25 0,-73 -29,-116c-54,-22 -159,-12 -226,8c-10,21 -34,40 -50,44l-4,-2z" fill="#000000" id="svg_9" stroke="#000000" stroke-opacity="0" stroke-width="5"/>
  <path d="m224,173l4,-2c103,-59 159,64 273,-55l-3,-1c-116,117 -174,-16 -274,58z" fill="#000000" id="svg_10" stroke="#000000" stroke-opacity="0" stroke-width="5"/>
  <path d="m303,301c20,-25 29,-83 9,-147l5,1c13,45 22,106 -10,146l-5,-1z" fill="#000000" id="svg_12" stroke="#000000" stroke-opacity="0" stroke-width="5"/>
  <path d="m291,389l6,-16l75,2l-71,2l-5,12l-5,0z" fill="#000000" id="svg_13" stroke="#000000" stroke-opacity="0" stroke-width="5"/>
  <path d="m304,383l37,11l-5,2l-37,-10l5,-2z" fill="#000000" id="svg_14" stroke="#000000" stroke-opacity="0" stroke-width="5"/>
  <path d="m339,413c-10,-9 -89,-22 -147,-26c16,-11 24,-56 -14,-92c-8,20 -20,40 -32,54c5,14 9,30 11,49c21,-3 139,-5 146,14l18,0l18,0z" fill="#000000" id="svg_17" stroke="#000000" stroke-opacity="0" stroke-width="5" transform="matrix(1 0 0 1 0 0)"/>
  <path d="m162,393c13,-12 25,-50 16,-87c-8,16 -19,32 -28,45c4,11 9,28 12,42z" fill="#ffffff" id="svg_18" stroke="#000000" stroke-opacity="0" stroke-width="5"/>
  <path d="m231,379c28,5 56,9 87,9l11,3c-35,0 -70,-3 -99,-9l1,-4z" fill="#000000" id="svg_21" stroke="#000000" stroke-opacity="0" stroke-width="5"/>
  <path d="m198,375l31,30l6,-3l0,-74l-6,-71c-15,-13 -45,-24 -78,-36l-78,26l-62,-2l-1,3c18,34 39,80 45,134l51,21l49,-32l-1,-5l-48,31l-45,-18c-6,-31 -20,-83 -43,-129l58,3l77,-26c22,7 52,19 71,35l8,66l-2,69l-27,-27c-1,2 -2,3 -3,5z" fill="#000000" id="svg_22" stroke="#000000" stroke-opacity="0" stroke-width="5"/>
  <path d="m228,417l379,-4l-83,-4l-211,1l-85,7z" fill="#000000" id="svg_24" stroke="#000000" stroke-opacity="0" stroke-width="5"/>
  <path d="m714,250l3,-3c-16,-56 -88,-18 -100,40c-12,58 16,124 56,127c40,3 63,-37 66,-67c3,-30 3,-86 -24,-108l-6,1c29,20 28,78 26,102c-2,24 -19,72 -61,68c-42,-4 -64,-64 -55,-116c9,-51 75,-102 94,-43z" fill="#000000" id="svg_26" stroke="#000000" stroke-opacity="0" stroke-width="5"/>
  <path d="m648,286c14,0 40,15 35,51l-4,4c7,-24 -8,-52 -36,-53l5,-2z" fill="#000000" id="svg_28" stroke="#000000" stroke-opacity="0" stroke-width="5"/>
  <path d="m661,292c0,10 11,22 19,25l1,5c-19,-8 -23,-25 -24,-27c-1,-3 -5,-6 -8,-7c5,0 9,2 12,4z" fill="#000000" id="svg_29" stroke="#000000" stroke-opacity="0" stroke-width="5"/>
  <path d="m617,326c4,8 43,0 44,-23l2,4c-2,13 -33,32 -46,22l0,-3z" fill="#000000" id="svg_30" stroke="#000000" stroke-opacity="0" stroke-width="5"/>
  <path d="m671,299c13,-16 49,-29 65,-11l1,5c-7,-22 -55,-11 -65,8l-1,-2z" fill="#000000" id="svg_31" stroke="#000000" stroke-opacity="0" stroke-width="5"/>
  <path d="m662,233c28,-17 63,49 56,101c-7,53 -17,62 -29,66l-2,-2c13,-3 24,-20 30,-65c6,-44 -21,-113 -52,-100l-2,-1z" fill="#000000" id="svg_32" stroke="#000000" stroke-opacity="0" stroke-width="5"/>
  <path d="m706,353l-1,1c5,0 8,1 10,2c-4,0 -8,1 -10,2l1,1c4,0 8,0 13,3l-1,-2c-3,-1 -5,-2 -8,-2c2,-1 5,-1 9,-1l0,-1c-3,-2 -8,-3 -12,-3z" fill="#000000" id="svg_33" stroke="#000000" stroke-opacity="0" stroke-width="5"/>
  <path d="m190,318l4,-49l-1,52l9,-22l-8,25l25,2l-24,2l-9,-6l4,-4z" fill="#000000" id="svg_53" stroke="#000000" stroke-opacity="0" stroke-width="5"/>
  <path d="m228,384l0,14l-12,-13l12,0z" fill="#7f0000" id="svg_55" stroke="#000000" stroke-opacity="0" stroke-width="5"/>
  <ellipse cx="734" cy="410" fill="#ffffff" id="svg_58" rx="15" ry="1" stroke="#000000" stroke-opacity="0" stroke-width="5"/>
 </g>
</svg>
