<?xml version="1.0"?>
<svg viewBox="0 0 640 480" xmlns="http://www.w3.org/2000/svg" xmlns:svg="http://www.w3.org/2000/svg">
 <!-- Created with SVG-edit - https://github.com/SVG-Edit/svgedit-->
 <defs>undefinedundefinedundefinedundefined</defs>
 <g class="layer">
  <title>Layer 1</title>
  <g id="svg_2" transform="matrix(1 0 0 1 -575.81 -763.05)">
   <path d="m729.52,1052.84c7.6,11.02 18.03,20.14 31.26,27.36c6.12,-5.74 11.68,-10.14 20.4,-15.74c-0.07,-12.92 -5.13,-25.01 -15.2,-36.28c-18.24,5.5 -29.13,12.9 -36.46,24.66z" fill="rgb(0,0,0)" id="svg_3"/>
   <path d="m762.75,1029.84c8.51,10.99 13.05,20.83 14,25.06c3.92,17.44 -13.83,11.41 -34.13,-14.69c7.08,-4.44 13.79,-7.89 20.13,-10.37z" fill="rgb(0,0,0)" id="svg_4"/>
   <path d="m739.85,1043.85l-7.8,7.61c7.2,10.46 16.36,18.76 27.47,24.88l10.74,-8.02c-12.67,-5.91 -22.8,-14.06 -30.41,-24.47z" fill="rgb(116,116,116)" id="svg_5"/>
  </g>
  <path d="m52.06,315.84c5.08,-16.37 8.96,-30.21 19.55,-34.86c6.47,0.77 11.92,0.67 16.33,-0.33c7.5,3.83 12.42,15.34 16.75,30.84c32.96,-13.74 52.2,-15.58 54.64,-5.29c0.66,6.73 1.94,12.39 5.27,16.67c-19.45,20.3 -45.81,29.94 -69.93,32.19c-10.31,-24.07 -24.5,-37.13 -42.61,-39.22z" fill="rgb(0,0,0)" id="svg_6"/>
  <path d="m58.28,313.68c13.54,5.41 25.11,14.36 34.66,26.82c-2.76,-24.54 -7.47,-39.27 -11.03,-46.15c-7.63,-14.75 -17.5,-13.63 -23.63,19.33z" fill="rgb(116,116,116)" id="svg_7"/>
  <path d="m79.28,284.68l8.66,0c9.91,10.77 15.7,29.51 17.34,56.21l1.34,-6.57c2.61,0.93 5.17,5.06 7.63,12.37l-1.38,-8c13.21,-4.71 27.71,-12.75 43.49,-24.13l2.5,7.09c-20.28,18.61 -40.83,28.28 -61.69,28.97c0,-32.03 -5.96,-54 -17.89,-65.94z" fill="rgb(70,70,70)" id="svg_8"/>
  <path d="m106.62,315.08l0.86,16.39l4.67,5.25c23.92,-11.89 37.76,-21.2 41.5,-27.96c4.83,-8.74 -17.83,-7.67 -47.03,6.32z" fill="rgb(116,116,116)" id="svg_9"/>
  <path d="m91.98,256.51c23.65,-17.1 53.46,-35.48 89.36,-51.73c68.96,-27.84 162.65,-54.37 240.09,-72.71c52.73,11.59 91.25,24.75 115.52,39.46l10.9,-1.86c4.03,6.85 9.27,12.18 15.69,15.96l10.11,2.92c-13.4,2.24 -17.65,9.34 -12.77,21.28c-42.05,-7.93 -73.69,-5.97 -94.94,5.85l-8.25,-11.97c15.49,48.5 22.77,91.39 21.81,128.66l-53.56,8.13c-1.04,-56.41 8.33,-119.11 -6.68,-183.03l-19.78,17.72l-33.24,-8.88l-21.01,28.97l-147.63,34.35l-89.56,50.31l-16.06,-23.43z" fill="rgb(0,118,0)" id="svg_10"/>
  <path d="m116.59,120.6c-16.51,-25.15 -124.14,32.19 -108.61,56.86c44.12,27.97 65.21,52.69 98.04,104.71l221.23,-56.77l33.22,-46.72l-165.02,40.58l-87.69,52.92c-31.48,-47.21 -56.95,-73.1 -89.68,-97.43c-19.15,-14.13 72.21,-73.84 99.89,-49.76l-1.38,-4.39z" fill="rgb(0,0,0)" id="svg_11"/>
  <path d="m136.21,270.54c-3.75,12.4 -14.3,29.68 -27.52,46.21l38.91,-8.34c10.78,-31.92 49.69,-52.25 100.87,-54.23l42.72,5.93l21.09,-16.2l32.01,-41.64l-106.83,21.17l-40.91,10.86l-60.34,36.24z" fill="rgb(0,0,0)" id="svg_12"/>
  <path d="m139.54,278.15c-3.03,7.58 -10.56,20.43 -18.48,32.92c19.97,-17.1 21.12,-34.97 89.26,-56.07l-10.92,-14.86l-59.86,38.01z" fill="rgb(185,185,185)" id="svg_13"/>
  <path d="m301.87,216.11l-99.48,21.36l12.49,14.85l105.77,-17.6l-18.78,-18.61z" fill="rgb(116,116,116)" id="svg_14"/>
  <path d="m129.5,310.17l11.34,-2.57q4.69,-11.81 28.74,-34.62q-31.26,21.55 -40.08,37.19z" fill="rgb(0,0,0)" id="svg_15"/>
  <path d="m92.57,258.49l-3.25,-2.58c13.03,-9.26 45.89,-31.32 94.21,-55.51c77.02,-28.07 165.47,-51.79 230.1,-68.02l-1.22,3.5c-64.87,14.36 -152.24,38.32 -226.92,68.68c-47.37,20.7 -79.76,42.27 -92.92,53.93z" fill="rgb(0,0,0)" id="svg_17"/>
  <path d="m175.65,103.93c87.56,-39.44 168.11,-63.78 241.61,-73.04l-5.21,0q-106.48,11.25 -241.89,73.04l5.49,0z" fill="rgb(0,0,0)" id="svg_18"/>
  <path d="m147.6,133.84l-0.66,4.04c14.31,29.99 29.88,56.18 46.68,78.55l0,-4.06c-15.56,-20.65 -30.89,-46.81 -46.02,-78.53z" fill="rgb(0,0,0)" id="svg_19"/>
  <path d="m107.56,229.3c6.81,-4.77 15.57,-9.56 25.58,-14.15l0,0l-50.21,-70.77c-8.39,4.18 -17.31,10.73 -26.66,19.67l51.29,65.25zm-2.78,2.03c-2.9,2.22 -5.36,4.43 -7.3,6.61c-16.16,-19.15 -36.18,-39.2 -56.68,-57.39c4.42,-5.2 8.77,-9.91 13.03,-14.13l50.95,64.91zm32.91,-18.22c8.64,-3.77 18.06,-7.39 27.87,-10.73c-20.38,-18.17 -34.82,-38.05 -46.85,-59.68c-9.16,-5.01 -19.8,-5.08 -31.6,-0.22l50.58,70.63l0,0z" fill="rgb(0,0,0)" fill-rule="evenodd" id="svg_20"/>
  <path d="m479.39,230.84l34.8,77.65l41.23,2c26.85,-18.75 50.15,-59 69.87,-120.78c-41.6,-65.88 -101.11,-124.71 -178.56,-176.52c-72.01,-0.86 -131.7,10.63 -141.72,14.11c-164.05,65.24 -250.57,91.2 -281.1,121.21l16.1,-7.42c1.55,-3.17 11.21,-8.42 28.01,-15.8c41.68,-18.3 127.3,-49.63 242.02,-94.4c23.31,-6.25 70.23,-13.3 136.37,-10.12c76.9,46.89 130.23,106.9 164.32,168.94c-11.95,45.49 -30.67,84.65 -58.64,109.02c-21.44,-8.43 -45.67,-31.05 -72.7,-67.89z" fill="rgb(0,0,0)" id="svg_21"/>
  <path d="m392.85,186.43l24.41,-28.96c17.78,55.89 8.49,117.34 8.68,182.13l-6.68,-1.1l-26.41,-152.07z" fill="rgb(0,0,0)" id="svg_22"/>
  <g id="svg_23" transform="matrix(1 0 0 1 -575.81 -763.05)">
   <path d="m871.48,1051.46q-4.91,6.08 -9.42,8.1q1.97,14.9 12,23.86l23.41,-21.07l-25.99,-10.89z" fill="rgb(0,0,0)" id="svg_24"/>
   <path d="m865.72,1060.73q5.07,-2.04 8.34,-7.64l11.62,22.93l-7.89,5.11q-9.32,-6.06 -12.07,-20.4z" fill="rgb(116,116,116)" id="svg_25"/>
   <path d="m875.49,1053.09l21.98,9.26l-11.14,12.14q-9.74,-6.51 -10.84,-21.4z" fill="rgb(0,0,0)" id="svg_26"/>
  </g>
  <path d="m404.09,172.68l-41.33,-11.44c-8.34,26.72 -41.57,68.72 -99.73,125.95c27.85,3.79 62.29,18.43 103.29,43.9l44.89,-59.57l-18.36,-85.09l11.24,-13.75z" fill="rgb(0,0,0)" id="svg_27"/>
  <path d="m398.57,178.68l-29.32,-8.58l21.72,77.47l17.53,3.97l-17.53,-65.11l7.6,-7.75z" fill="rgb(116,116,116)" id="svg_28"/>
  <path d="m362.76,176.98l33.75,113.06l23.25,21.03l5.07,28.4l-23.35,-1.52l-57.19,-23.11c-15.56,-12.65 -31.85,-21.16 -63.12,-33.37c31.54,-31.18 58.75,-66 81.59,-104.49z" fill="rgb(185,185,185)" id="svg_29"/>
  <path d="m428.98,338.69q9.68,-106.01 -6.94,-181.02l-6.68,1.64q19.94,69.68 6.64,181.03l6.98,-1.65z" fill="rgb(0,0,0)" id="svg_30"/>
  <path d="m435.26,137l2.99,-2.07c33.17,6.99 66.36,18.84 99.54,35.55l-2.97,0c-33.19,-16.37 -66.37,-27.52 -99.56,-33.48z" fill="rgb(0,0,0)" id="svg_31"/>
  <path d="m387.44,185.71c9.15,-8.67 17.89,-20.11 26.19,-34.34c63.76,5.65 116.19,27.19 157.24,64.6c-58.79,-36.04 -110.61,-54.28 -155.51,-54.73c-7.58,10.21 -13.85,18.38 -18.85,24.47c6.76,16.93 11.24,35.09 13.43,54.42l-12.33,-3.45c0.16,-13.77 -3.22,-30.75 -10.17,-50.97z" fill="rgb(0,0,0)" id="svg_32"/>
  <g id="svg_33" transform="matrix(1 0 0 1 -575.81 -763.05)">
   <path d="m970.28,1051.71c-24.13,-14.04 -37.02,-44.42 -38.62,-67.76c8.09,-2.29 16.96,-9.31 24.11,-17.64c12.43,-8.19 33.93,11.08 44.41,42.54c7.24,21.75 2.41,34.03 -8.48,35.02q-15.68,3.2 -21.42,7.84z" fill="rgb(0,0,0)" id="svg_34"/>
   <path d="m975.18,1044.44c-15.66,-15.53 -31.31,-40.39 -27.08,-65.94c-3.88,5.33 -8.09,8.51 -12.66,9.52c3.08,22.9 13.86,42.45 32.27,58.6l7.47,-2.18z" fill="rgb(116,116,116)" id="svg_35"/>
   <path d="m982.93,1012.95l10.86,12.58l-3.09,4.94l-9.25,-14.56l1.48,-2.96z" fill="rgb(0,0,0)" id="svg_36"/>
   <g id="svg_37">
    <path d="m959.99,1015.24c-9.38,-18.43 -10.38,-37.65 -2.23,-42.89c8.15,-5.24 22.38,5.47 31.76,23.9c9.38,18.44 10.38,37.66 2.23,42.9c-8.15,5.24 -22.38,-5.47 -31.76,-23.91z" fill="rgb(70,70,70)" id="svg_38"/>
    <path d="m979.25,992.33c0.06,0.03 2.32,-1.72 2.55,-1.93c-6.96,-9.72 -15.35,-14.62 -20.58,-11.25c-6.49,4.17 -5.69,19.48 1.78,34.16c6.51,12.79 15.95,20.91 22.57,20.03c-5.93,-0.64 -13.58,-7.73 -19.06,-18.39c-7.73,-23.87 0.29,-34.5 12.74,-22.62z" fill="rgb(0,0,0)" id="svg_39"/>
    <path d="m980.68,1017.79l0,0l6.06,7.1l0,0l0,0l0,0l0,0c-0.43,1.6 -1.1,2.92 -2,3.87l-4.96,-10.43l0.9,-0.54zm-3.7,2.22l2.07,10.17c1.36,0.36 2.65,0.34 3.79,-0.11l0,0l0,0l0,0l0,0l-5.02,-10.56l-0.84,0.5zm-4.06,-1.94l-1.17,7.27c1.53,1.56 3.07,2.8 4.56,3.67l0,0l0,0l0,0l-1.97,-9.67c-0.49,-0.38 -0.96,-0.8 -1.42,-1.27zm-4.01,-5.07l-3.52,1.39c1.28,2.4 2.21,5.03 3.64,6.93l1.47,-5.39c-0.38,-0.6 -1.25,-2.29 -1.59,-2.93zm14.35,-3.96l2.77,1.19c-0.63,-2.46 -1.49,-5 -2.56,-7.54l0,0l0,0l0,0l0,0l0,0l-1.68,1.15c0.71,1.79 1.2,3.56 1.47,5.2l0,0zm-0.68,6.89l4.71,5.52c0.13,-1.98 0.03,-4.21 -0.32,-6.58l0,0l0,0l0,0l0,0l0,0l-3.55,-1.52c-0.13,1.04 -0.41,1.92 -0.84,2.58l0,0z" fill="rgb(0,0,0)" fill-rule="evenodd" id="svg_40"/>
   </g>
  </g>
  <path d="m415.36,125.68l1.9,-3.34c1.97,5.28 3.28,9.56 3.9,12.8l2.33,-21.48l1.34,-0.67c0.12,8.31 0.87,17.04 2.22,26.15l-1.11,0.78c-1.07,-5.47 -1.69,-10.21 -1.89,-14.24l-2.01,15.91l-0.88,0.76c-1.5,-6.68 -3.43,-12.23 -5.8,-16.67z" fill="rgb(0,0,0)" id="svg_41"/>
  <path d="m465.59,213.48c16.2,-6.4 46.66,-15.61 96.08,-4.13l2.27,1.4c-56.04,-10.7 -87.08,-2.7 -96.15,4.09l-2.2,-1.36z" fill="rgb(0,0,0)" id="svg_42"/>
  <path d="m454.5,200.81l3.25,3.75c15.32,36.03 23.88,92.35 23.12,127.9l-3.2,0c1.55,-32.55 -5.8,-90.88 -23.17,-131.65z" fill="rgb(0,0,0)" id="svg_43"/>
  <path d="m548.87,169.61c3.72,6.56 9.87,12.3 18.48,16.82l-3.41,-0.72c-8.07,-4.34 -13.69,-9.53 -16.89,-15.61l1.82,-0.49z" fill="rgb(0,0,0)" id="svg_44"/>
  <path d="m574.91,189.45c-14.49,1.59 -18.23,8.7 -11.24,21.3l-2.02,-1.34c-6.68,-11.93 -2.84,-19.13 11.49,-20.99l1.77,1.03z" fill="rgb(0,0,0)" id="svg_45"/>
  <path d="m423.24,318.29l-7.88,-15.99l-11.27,25.61l-2.61,11.69l17.78,0.74l-8.05,-11.25l12.84,-4.18l-0.81,-6.62z" fill="rgb(0,0,0)" id="svg_46"/>
  <path d="m401.74,327.16c-1.9,-5.92 -0.39,-11.72 3.38,-12.93c3.77,-1.21 8.38,2.61 10.29,8.54c1.9,5.92 0.39,11.71 -3.39,12.92c-3.77,1.22 -8.37,-2.61 -10.28,-8.53z" fill="rgb(0,0,0)" id="svg_47"/>
  <path d="m511.6,178.68c15.94,-7.8 34.78,-11.65 56.5,-11.58c-25.01,3.78 -41.39,9.15 -49.18,16.08l-7.32,-4.5z" fill="rgb(0,0,0)" id="svg_48"/>
  <path d="m517.97,178.68c28.55,0.61 51.17,5.62 67.86,15c-21.9,-8.65 -44.19,-12.14 -66.91,-10.5l-0.95,-4.5z" fill="rgb(0,0,0)" id="svg_49"/>
  <path d="m446.41,193.68l-2.19,-7.97c50.69,60.62 77.06,106.01 79.06,136.16l-13.94,3.04c-2.25,-36.89 -19.32,-77.66 -62.93,-131.23z" fill="rgb(0,0,0)" id="svg_50"/>
  <g id="svg_51" transform="matrix(1 0 0 1 -575.81 -763.05)">
   <path d="m672.73,1054.14c15.59,8.5 29.52,13.65 41.75,15.43l0,11.82q-11.42,11.67 -16.18,11.55q-6.8,-0.17 -17.57,-5.8c-0.59,-7.32 -2.52,-17.63 -8,-33z" fill="rgb(0,0,0)" id="svg_52"/>
   <path d="m677.88,1059.6c11.39,4.97 22.21,8.95 32.41,11.91c-3.53,4.16 -10.07,10.52 -11.59,10.6c-5.42,0.26 -12.61,-4.09 -18.98,-7.69l0,-2.02l12.6,5.3l7.9,-7.14c-4.16,-1.98 -11.6,-4.91 -22.34,-8.82l0,-2.14l0,0zm32.58,15.36l0.25,7.48c-7.45,8.92 -13.75,8.92 -16.67,7.37l-4.38,-8.27q6.94,3.34 9.14,2.79q1.88,-0.48 11.66,-9.37l0,0zm-11.48,0.03c1.27,-1.05 2.71,-1.46 3.22,-0.9c0.5,0.55 -0.12,1.86 -1.39,2.92c-1.27,1.05 -2.71,1.46 -3.22,0.9c-0.5,-0.55 0.12,-1.86 1.39,-2.92z" fill="rgb(232,232,232)" fill-rule="evenodd" id="svg_53"/>
  </g>
  <g id="svg_54" transform="matrix(1 0 0 1 -575.81 -763.05)">
   <path d="m902.24,1043.5c-10.87,-0.13 -19.1,1.01 -24.72,3.41c-9.76,-10.65 -21.88,-42.2 -18.81,-69.91c7.87,-2.68 12.69,-5.51 21.86,-10.59c22.66,15.79 33.47,60.9 21.67,77.09z" fill="rgb(0,0,0)" id="svg_55"/>
   <path d="m872.24,968.87c-3.59,3.9 -7.07,6.47 -10.45,7.65c-1.33,38.23 10.53,54.68 18.17,65.34c2.17,-0.66 5.09,-1.05 8.74,-1.2c-10.28,-8.94 -21.05,-47.74 -16.46,-71.79z" fill="rgb(116,116,116)" id="svg_56"/>
   <path d="m892.11,994.99q-7.05,-20.32 -10.75,-22.75c-7.78,-5.09 -9.25,17.25 2.25,48.5q-5.25,-31.75 -2.25,-36.75q2.17,-3.62 10.75,11z" fill="rgb(0,0,0)" id="svg_57"/>
   <path d="m887.7,1026.3c1.99,5.08 4.88,8.49 7.1,9.63c6.17,3.17 8.58,-9.16 0,-32.47q4.38,26.65 -0.79,27.55c-2.67,0.47 -4.6,-1.87 -6.31,-4.71z" fill="rgb(0,0,0)" id="svg_58"/>
   <g id="svg_59">
    <path d="m878.25,1009.13c-5.87,-19.83 -6.13,-37.78 -0.56,-40.06c5.56,-2.28 14.85,11.97 20.72,31.81c5.88,19.83 6.13,37.78 0.57,40.06c-5.57,2.28 -14.85,-11.98 -20.73,-31.81z" fill="rgb(70,70,70)" id="svg_60"/>
    <path d="m890.42,998.31c0.04,0.05 2.79,-5.09 2.96,-5.2c-4.45,-11.09 -9.95,-18.19 -13.53,-16.72c-4.43,1.81 -4.22,16.11 0.45,31.9c4.08,13.76 10.22,24.15 14.66,25.39c-3.94,-2.42 -8.91,-11.3 -12.34,-22.79c-4.66,-24.31 -0.27,-27.35 7.8,-12.58z" fill="rgb(0,0,0)" id="svg_61"/>
    <path d="m883.71,1016.28l0.55,-2.25c-0.24,-0.67 -0.78,-2.5 -1,-3.19l-1.5,0.12l1.95,5.32l0,0zm3.8,8.54l-0.75,-6.48c-0.32,-0.49 -0.63,-1.03 -0.92,-1.59l-0.54,3.63l2.21,4.44l0,0zm3.52,-5.92l0,0l3.9,8.4l0,0l0,0l0,0l0,0c-0.32,1.33 -0.8,2.33 -1.42,2.92l-3.09,-11.11l0.61,-0.21zm-2.52,0.88l0.99,8.43q1.94,2.68 2.71,2.62l0,0l0,0l0,0l0,0l-3.13,-11.25l-0.57,0.2zm4.44,-8.11l1.82,1.94c-0.37,-2.45 -0.88,-5.04 -1.54,-7.71l0,0l0,0l0,0l0,0l0,0l-1.15,0.54c0.43,1.86 0.72,3.64 0.87,5.23l0,0zm-0.61,6.11l3.03,6.53c0.14,-1.78 0.11,-3.86 -0.07,-6.14l0,0l0,0l0,0l0,0l0,0l-2.34,-2.5c-0.11,0.92 -0.32,1.64 -0.62,2.11l0,0z" fill="rgb(0,0,0)" fill-rule="evenodd" id="svg_62"/>
   </g>
  </g>
  <g id="svg_63" transform="matrix(1 0 0 1 -575.81 -763.05)">
   <path d="m833.55,976.38c9.96,20.33 24.8,38.38 44.49,54.12c-13.57,19.85 -31.8,32.87 -54.72,39.02l-12.54,-12.52c2.54,-6.85 4.21,-11.21 12.54,-18.19l-4.49,-0.3l-3.18,-25.84c-1.41,-10.08 5.23,-24.51 17.9,-36.29z" fill="rgb(0,0,0)" id="svg_64"/>
   <path d="m832.57,984.37c10.08,14.92 22.83,33.4 39.7,45.9q-17.74,3.01 -26.48,0.99c-21.3,-4.93 -36.41,-27.36 -13.22,-46.89z" fill="rgb(70,70,70)" id="svg_65"/>
   <path d="m818.83,1015.73l3.47,19.05c4.7,5.02 20.57,5.74 34.68,1.24c-3.13,2.25 -6.46,3.65 -10.02,4.19c0.63,3.15 4.78,4.06 12.41,2.7l-10.71,2.26c-7.61,8.21 -17.99,13.1 -31.17,14.63l7.68,6.86c18.65,-5.8 34.36,-16.98 47.1,-33.56c-26.2,3.31 -45.87,-3.88 -53.44,-17.37z" fill="rgb(116,116,116)" id="svg_66"/>
   <path d="m825.67,1039.37c4.67,2.22 10.72,2.85 18.12,1.88c0.49,1.82 1.19,3.23 2.06,4.19c-3.3,2.47 -7.68,5.02 -13.18,7.63l-7,-13.7z" fill="rgb(0,0,0)" id="svg_67"/>
   <g id="svg_68">
    <path d="m812.01,1067.28c-2.11,-8.53 -6.44,-15.02 -13.04,-19.51l-8.52,-0.36l-0.07,-2.47c0.49,-2.63 -0.59,-4.96 -3.28,-7.03c2.87,-7.74 11.41,-14.03 25.58,-18.9c3.21,0.26 6.45,0.55 7.24,1.79l1.87,17.08l6.93,2.4l8.77,13.02c5.13,4.62 -15.85,15.17 -25.48,13.98z" fill="rgb(0,0,0)" id="svg_69"/>
    <path d="m827.22,1042.46l-6.75,-1.81l-3.34,-13.72c-7.59,-2.4 -16.85,4.95 -21.06,14.4c8.47,7.16 13.73,13.5 15.75,18.99c7.91,-7.44 14.85,-10.08 20.79,-7.95l-5.39,-9.91z" fill="rgb(232,232,232)" id="svg_70" transform="matrix(1 0 0 1 0 0)"/>
    <path d="m816.04,1043.13c-1.22,-3.73 0.24,-7.56 3.25,-8.54c0.45,-0.14 0.91,-0.22 1.36,-0.23q0.6,-0.01 1.31,6.73q3.33,0.55 4.57,0.85c0.24,1.69 0.01,3.29 0.15,3.47c-0.59,1.55 -1.48,2.22 -2.99,2.71c-3.01,0.98 -6.44,-1.25 -7.65,-4.99z" fill="rgb(0,118,0)" id="svg_71" stroke="rgb(0,0,0)" stroke-linecap="square" stroke-miterlimit="3"/>
    <path d="m817.18,1026.15l2.52,16.27l11.1,2.9l-2.11,-4.59l-6.07,-2.4l-3.09,-11.81l-2.35,-0.37z" fill="rgb(0,0,0)" id="svg_72"/>
    <path d="m830.96,1054.39c-5.15,-0.51 -10.35,1.69 -15.64,6.57c8.24,0.77 13.47,-1.39 15.64,-6.57z" fill="rgb(70,70,70)" id="svg_73"/>
    <path d="m814.31,1065.28c4.88,0.29 13.54,-3.02 15.89,-4.74c5.42,-3.54 6.45,-5.13 2.47,-5.82c-1.49,3.54 -7.32,8.35 -17.61,7.27l-0.75,3.29z" fill="rgb(116,116,116)" id="svg_74"/>
   </g>
   <path d="m802.75,1025.29q-6.83,-8.01 -8.22,-14.37q-0.23,-1.07 11.42,-8.05c0.95,0.76 1.25,1.65 0.87,2.61q-9.57,4.66 -9.78,5.45q-0.92,3.56 10.6,14.59l-4.89,-0.23z" fill="rgb(0,0,0)" id="svg_75"/>
   <path d="m839.31,990.93q0.83,-0.72 -3.37,-3.69c-18.36,18.43 -9.37,40.44 16.32,39.9q-16.36,-1.89 -21.81,-13.49c-3.85,-8.19 0.85,-18.76 8.86,-22.72z" fill="rgb(0,0,0)" id="svg_76"/>
   <path d="m831.32,996.51l8.59,5.21l-1.56,4.43l-9.81,-1.73l2.78,-7.91z" fill="rgb(0,0,0)" id="svg_77"/>
   <path d="m828.54,1010.84l7.92,0l1.02,2.87l-6.6,3.65l-2.34,-6.52z" fill="rgb(0,0,0)" id="svg_78"/>
   <path d="m835.41,1021.37l4.09,-3.41l2.95,2.27l-1.73,4.19l-5.31,-3.05z" fill="rgb(0,0,0)" id="svg_79"/>
  </g>
  <path d="m65.05,318.29l-5.54,-2.45c8.59,-43.65 24.76,-27.14 26.28,4.03q-4.13,-16.23 -10.61,-19.04q-6.45,-2.79 -10.13,17.46z" fill="rgb(0,0,0)" id="svg_80"/>
  <path d="m84.51,314.88l-2.62,0l-0.91,-4.01l2.2,-3.75l1.33,7.76z" fill="rgb(0,0,0)" id="svg_81"/>
  <path d="m77.3,307.6l2.6,-5.3l-3.54,-3.57l-1.18,7.56l2.12,1.31z" fill="rgb(0,0,0)" id="svg_82"/>
  <path d="m71.09,299.69l1.15,7.43l-2.22,2.45l-4.6,-1.16l5.67,-8.72z" fill="rgb(0,0,0)" id="svg_83"/>
  <g id="svg_84" transform="matrix(1 0 0 1 -575.81 -763.05)">
   <path d="m930.14,1061.78c18.49,-4.46 35.25,-13.52 50.24,-27.21c18.83,10.81 30.47,25.63 34.9,44.42l-10.49,9.99l-13.51,-19.32q-4.05,19.62 -5.9,21.41c-6.35,1.42 -12.44,1.49 -16.13,3.07c-19.82,-8.43 -32.85,-19.2 -39.11,-32.36z" fill="rgb(0,0,0)" id="svg_85"/>
   <path d="m938.55,1064.13c12.65,-4.39 25.91,-11.42 39.77,-21.1c2.42,12.04 2.07,26.5 1.1,30.51c-5.21,21.45 -24.72,23.72 -40.87,-9.41z" fill="rgb(116,116,116)" id="svg_86"/>
   <path d="m983.29,1041.21c15.43,11.8 24.82,23.61 28.14,35.4l-7.58,6.81c-1.82,-8.92 -6.33,-17 -13.54,-24.28l-2.26,-7.49c1.19,15.21 -0.06,27.1 -3.76,35.63l-9.63,2.04c6.81,-1.21 9.7,-17.23 8.63,-48.11z" fill="rgb(70,70,70)" id="svg_87"/>
   <path d="m949.16,1057.89l-6.7,2.57c11.61,33.45 30.94,33.75 35.06,0.52q-4.42,19.96 -14.74,20.72q-7.28,0.53 -13.62,-23.81z" fill="rgb(0,0,0)" id="svg_88"/>
   <path d="m949.67,1062.9l4.21,-1.93l1.25,5.87l-3.79,4.38l-1.67,-8.32z" fill="rgb(0,0,0)" id="svg_89"/>
   <path d="m956.73,1071.22l3.49,2.88l-0.62,8.98l-6.15,-5.94l3.28,-5.92z" fill="rgb(0,0,0)" id="svg_90"/>
   <path d="m967.19,1074.89l-2.7,0.26l-0.89,8.27l4.62,-2.07l-1.03,-6.46z" fill="rgb(0,0,0)" id="svg_91"/>
   <path d="m971.06,1072.96l2.15,-4.34l2.05,1.97l-2.52,5.24l-1.68,-2.87z" fill="rgb(0,0,0)" id="svg_92"/>
  </g>
  <g id="svg_93" transform="matrix(1 0 0 1 -575.81 -763.05)">
   <path d="m990.62,1058.68c5.83,4.37 10.93,11.87 13.65,21.07c2.45,8.26 2.51,16.35 0.65,22.77l-8.98,0c1.64,-4.77 1.64,-11.37 -0.37,-18.19c-1.25,-4.2 -3.09,-7.94 -5.26,-10.93l0.31,-14.72z" fill="rgb(0,0,0)" id="svg_94"/>
   <path d="m991.17,1062.74c10.35,7.65 14.45,20.03 12.46,39l-4.81,0c1.43,-13.82 -1.11,-24.61 -7.65,-32.4l0,-6.6z" fill="rgb(98,61,5)" id="svg_95"/>
  </g>
  <g id="car" transform="matrix(1 0 0 1 -575.81 -763.05)">
   <path d="m1144.84,1136.94l-317.16,15.32l-17.05,16.14l10.4,17.23l109.57,17.38l162.72,-3.42l47.78,-21.29l3.74,-41.36z" fill="rgb(235,235,235)" id="svg_97"/>
   <path d="m893.44,1209.14l171.4,-9.55l144.52,5.77c-121.95,12.49 -253.44,20.68 -394.5,24.55l51.24,-13l27.34,-7.77z" fill="rgb(0,0,0)" id="svg_98"/>
   <path d="m898.03,1208.35c7.3,17.42 67.04,11.42 68.3,-3.1c10.33,-17.92 6.82,-31.71 -10.58,-41.39c-1.28,31.58 -32.23,40.66 -51.91,15.5c-6.58,10.09 -8.5,19.76 -5.81,28.99z" fill="rgb(0,0,0)" id="svg_99"/>
   <path d="m959.62,1194.34c-16.41,23.82 -77.16,2.7 -57.21,-27.44c3.9,33.13 38.54,35.25 48.5,12.82l8.71,14.62z" fill="rgb(139,139,139)" id="svg_100"/>
   <path d="m956.37,1163.04c0.67,2.33 1.02,4.75 1.03,7.18c0,3.77 -0.9,7.5 -2.61,10.86c-1.66,3.23 -3.96,6.08 -6.75,8.39c-2.78,2.33 -5.95,4.15 -9.36,5.39c-3.41,1.26 -7.02,1.91 -10.66,1.92c-2.57,0.01 -5.13,-0.35 -7.61,-1.05c-2.53,-0.72 -4.94,-1.84 -7.12,-3.31c-2.32,-1.58 -4.37,-3.53 -6.05,-5.77c-2.13,-2.85 -3.75,-6.05 -4.79,-9.46c1.07,-1.68 6.29,-0.38 5.55,0.69c0.83,2.06 1.92,4 3.24,5.77c1.35,1.8 2.99,3.36 4.85,4.63c1.74,1.17 3.67,2.06 5.69,2.64c2.03,0.58 4.12,0.87 6.22,0.86c3.06,-0.01 6.1,-0.56 8.96,-1.62c2.87,-1.04 5.54,-2.57 7.88,-4.53c2.28,-1.88 4.15,-4.2 5.5,-6.83c1.35,-2.66 2.06,-5.6 2.06,-8.58c-0.01,-1.36 -0.14,-2.72 -0.41,-4.06c-0.64,-0.4 3.31,-3.83 4.38,-3.12z" fill="rgb(0,0,0)" id="svg_101"/>
   <path d="m1086.17,1199.7c-8.91,5.47 -19.55,8.65 -30.97,8.65c-29.17,0 -53.24,-20.73 -56.48,-47.42l58.18,-0.72q43.52,30.75 29.27,39.49z" fill="rgb(0,0,0)" id="svg_102"/>
   <path d="m1149.94,1159.53c-2.55,27.35 -26.95,48.82 -56.62,48.82c-29.17,0 -53.24,-20.73 -56.48,-47.42l28.25,5.97c17.25,24.82 47.74,15.5 55.44,-14.64l29.41,7.27l0,0z" fill="rgb(0,0,0)" id="svg_103"/>
   <path d="m1113.12,1168.81l7.41,12.46c-16.41,23.82 -75.75,2.74 -57.2,-27.45c0.17,29.51 33.54,35.45 49.79,14.99z" fill="rgb(139,139,139)" id="svg_104"/>
   <path d="m1122.77,1152.26c-0.34,3.2 -1.13,6.34 -2.32,9.34c-1.63,4.1 -4.02,7.86 -7.04,11.08c-2.97,3.17 -6.54,5.72 -10.5,7.51c-4.06,1.83 -8.46,2.77 -12.91,2.77c-3.86,0 -7.69,-0.71 -11.3,-2.1c-3.51,-1.36 -6.76,-3.31 -9.6,-5.78c-2.84,-2.46 -5.25,-5.36 -7.15,-8.59l3.14,-4.7c0.35,0.7 0.72,1.39 1.12,2.07c1.63,2.8 3.72,5.31 6.17,7.44c2.4,2.09 5.15,3.75 8.12,4.9c3.03,1.16 6.26,1.76 9.5,1.76c3.74,0 7.44,-0.79 10.85,-2.32c3.36,-1.52 6.39,-3.69 8.91,-6.38c2.6,-2.76 4.65,-5.99 6.05,-9.51c1.24,-3.16 1.98,-6.48 2.17,-9.87l4.79,2.38l0,0z" fill="rgb(0,0,0)" id="svg_105"/>
   <path d="m819.14,1148.07c13.39,6.79 14.02,22.54 3.73,30.23c-2.71,0.29 -3.79,0.61 -6.74,-1.53q-4.19,2.69 -7.1,8.61c-1.82,11.91 5.87,19.02 23.07,21.28l65.93,1.69c-9.5,-43.92 65.97,-64.6 73.37,-23.47l-3.63,19.88l87.12,-7.87c-4.48,-62.01 85.87,-70.23 78.44,-11.51l31.68,-4.92c3.99,-21.53 4,-38.41 0,-50.67c-12.22,-31.61 -30,-53.82 -71.24,-56.08c-1.42,0.57 2.52,10.86 1.08,11.42c-38.15,14.86 -85.98,17.27 -117.39,17.21l0,-18.46c-16.75,-8.61 -42.08,-9.46 -76,-2.58q-0.06,0.01 -5.47,1.33l-27.11,63.51c6.59,2.05 11.27,5.37 13.99,9.92c3.1,12.37 0.85,20.2 -6.76,23.45l-11.65,-4.03c-5.65,-4.7 -7.52,-10.05 -5.65,-16.09l10.07,-11.99l28.95,-65.2l-4.64,0.89l-8.03,24.28c-17.73,7.16 -30.98,16.42 -39.75,27.75c-9.53,2.96 -18.28,7.29 -26.27,12.95z" fill="rgb(96,125,139)" id="svg_106"/>
   <path d="m835.73,1208.35c7.31,17.42 67.04,11.42 68.3,-3.1l-8.54,2.94l-59.76,0.16z" fill="rgb(0,0,0)" id="svg_107"/>
   <path d="m856.77,1162.43l10.73,-2.39c-1.01,11.71 1.6,18.16 7.77,19.32l-7.41,-2.17c-5.16,-2.95 -8.85,-7.86 -11.09,-14.76z" fill="rgb(70,70,70)" id="svg_108"/>
   <path d="m858.39,1161.6l12.11,-14.16c9.26,2 13.86,7.86 13.77,17.55c-11.06,-6.32 -19.98,-5.89 -25.88,-3.39z" fill="rgb(139,139,139)" id="svg_109"/>
   <path d="m806.33,1160.6l11.45,-12.22c9,2.01 11.09,10.47 11.01,20.17c-3.16,-11.05 -17.31,-10.45 -22.46,-7.95z" fill="rgb(139,139,139)" id="svg_110"/>
   <path d="m804.03,1162.43c4.89,-2.16 8.48,-2.94 10.73,-2.39c-1.01,11.71 1.6,18.16 7.77,19.32l-4.75,-1.43l-2.13,-1.51c-5.75,-3.84 -9.61,-8.5 -11.62,-13.99z" fill="rgb(70,70,70)" id="svg_111"/>
   <path d="m1173.26,1173.04l-1.87,13.67q-20.93,6.23 -40.63,5.6c10.88,-71.18 -86.7,-45.55 -71.28,7.45l-96.23,6.9c32.52,-63.18 -80.75,-47.88 -60.6,2.98c-9.67,7.47 -82.24,2 -91.21,-4.39c-9.92,-7.08 -10.35,-16.67 1.6,-25.89c-5.88,11.28 -0.98,18.46 6.98,21.19c7.1,2.42 34.85,6.24 72.29,4.7c-4.04,-53.37 98.6,-68.86 80.01,-4.52l76.13,-6.39c3.25,-52.07 85.49,-76.34 89.08,-14.62q15.66,1.3 31.82,-8.55l3.91,1.87z" fill="rgb(0,0,0)" id="svg_112"/>
   <path d="m1101.93,1085.65q-75.29,21.8 -129.44,19.67c2.17,-7.78 2.5,-15.95 0.93,-18.27c-0.88,-7.63 -30.57,-12.84 -78.19,-3.17l-7.74,23.49l-6.83,1.6l10.05,-26.86c54.39,-11.55 86.72,-5.8 88.98,1.89q4.18,5.77 0.85,15.94q41.24,3.86 124.27,-18.42l-2.88,4.13z" fill="rgb(0,0,0)" id="svg_113"/>
   <path d="m1087.91,1076.56c36.86,-4.82 93.12,27.21 75.2,100.87l6.9,-0.27c8.55,-61.4 -19.61,-98.59 -76.69,-107.91l-5.41,7.31l0,0z" fill="rgb(0,0,0)" id="svg_114"/>
   <path d="m1029.23,1166.72c20.18,-94.47 137.06,-82.69 126.85,1.68c16.47,-98.1 -126.43,-90.28 -126.85,-1.68z" fill="rgb(0,0,0)" id="svg_115"/>
   <path d="m845.41,1136.94c-17.8,4.78 -30.48,13.28 -38.08,25.49q2.03,9.77 8.33,13.99q-9.38,-5.59 -13.89,-15.31c12.29,-17.56 27.34,-27.51 45.12,-29.88l-1.48,5.71z" fill="rgb(0,0,0)" id="svg_116"/>
   <path d="m893.19,1106.17c-62.15,9.09 -75.09,77.15 -37.42,77.14c-35.71,-10.76 -8.66,-67.19 37.42,-77.14l0,0z" fill="rgb(0,0,0)" id="svg_117"/>
   <path d="m909.46,1104.04c-6.17,0.58 -12.45,1.44 -18.75,2.57l6.26,-17.49c8.07,-2.34 15.54,-3.85 22.4,-4.74q-2.54,9.99 -9.91,19.66zm5.17,-0.42c15.96,-1.1 31.09,-0.28 44.05,2.66q7.8,-18.04 4.68,-19.01c-8.53,-2.66 -22.11,-5.19 -40.36,-3.32q-2.63,10.16 -8.37,19.67z" fill="rgb(0,0,0)" fill-rule="evenodd" id="svg_118"/>
   <path d="m860.26,1159.71c11.83,-2.7 20.14,-0.29 24.9,7.19l0,2.5c-5.34,-6.87 -12.93,-11.16 -25.64,-6.22l0.74,-3.47z" fill="rgb(0,0,0)" id="svg_119"/>
   <path d="m809.03,1158.82c10.35,-2.7 15.64,-0.05 19.81,7.43l0,2.5c-4.68,-6.87 -10.39,-11.35 -21.51,-6.41l1.7,-3.52z" fill="rgb(0,0,0)" id="svg_120"/>
   <mask id="svg_121">
    <path d="m866.99,1160.04c-0.25,1.41 -0.38,2.9 -0.38,4.45c0,8.82 4.31,15.97 9.62,15.97c5.31,0 9.62,-7.15 9.62,-15.97c0,-8.82 -4.67,-17.69 -13.62,-17.46c-1.52,0 -2.96,0.58 -4.23,1.65l0,0c-0.17,0.13 -0.34,0.28 -0.5,0.43l1.04,1.37c0.04,-0.04 0.08,-0.07 0.12,-0.1l0,0c0.8,-0.63 1.68,-0.96 2.61,-0.96c7.01,0.28 11.21,7.62 11.21,15.18c0,7.56 -3.23,13.7 -7.21,13.7c-3.98,0 -7.21,-6.14 -7.21,-13.7c0,-1.6 0.15,-3.14 0.41,-4.56l-1.48,0z" fill="white" id="svg_122"/>
   </mask>
   <path d="m866.99,1160.04c-0.25,1.41 -0.38,2.9 -0.38,4.45c0,8.82 4.31,15.97 9.62,15.97c5.31,0 9.62,-7.15 9.62,-15.97c0,-8.82 -4.67,-17.69 -13.62,-17.46c-1.52,0 -2.96,0.58 -4.23,1.65l0,0c-0.17,0.13 -0.34,0.28 -0.5,0.43l1.04,1.37c0.04,-0.04 0.08,-0.07 0.12,-0.1l0,0c0.8,-0.63 1.68,-0.96 2.61,-0.96c7.01,0.28 11.21,7.62 11.21,15.18c0,7.56 -3.23,13.7 -7.21,13.7c-3.98,0 -7.21,-6.14 -7.21,-13.7c0,-1.6 0.15,-3.14 0.41,-4.56l-1.48,0z" fill="none" id="svg_123"/>
   <path d="m866.99,1160.04c-0.25,1.41 -0.38,2.9 -0.38,4.45c0,8.82 4.31,15.97 9.62,15.97c5.31,0 9.62,-7.15 9.62,-15.97c0,-8.82 -4.67,-17.69 -13.62,-17.46c-1.52,0 -2.96,0.58 -4.23,1.65l0,0c-0.17,0.13 -0.34,0.28 -0.5,0.43l1.04,1.37c0.04,-0.04 0.08,-0.07 0.12,-0.1l0,0c0.8,-0.63 1.68,-0.96 2.61,-0.96c7.01,0.28 11.21,7.62 11.21,15.18c0,7.56 -3.23,13.7 -7.21,13.7c-3.98,0 -7.21,-6.14 -7.21,-13.7c0,-1.6 0.15,-3.14 0.41,-4.56l-1.48,0z" fill="#000000" id="svg_124" mask="url(#_mask_7MumkjZUDqBZMBAEuwZFfYdLol8ZTIB7)" stroke="#000000" stroke-linecap="square" stroke-miterlimit="3" stroke-opacity="0" stroke-width="0" transform="matrix(1 0 0 1 0 0)"/>
   <mask id="svg_125">
    <path d="m813.39,1159.29c-0.23,1.41 -0.35,2.91 -0.35,4.45c0,8.82 3.98,15.98 8.87,15.98c4.9,0 8.88,-7.16 8.88,-15.98c0,-8.82 -5.87,-15.67 -10.77,-15.67c-1.4,0 -2.72,0.58 -3.89,1.65l0,0c-0.16,0.14 -0.31,0.28 -0.47,0.43l0.96,1.37c0.04,-0.03 0.07,-0.06 0.11,-0.09l0,0c0.74,-0.64 1.56,-0.97 2.41,-0.97c3.67,0 8.54,5.83 8.54,13.4c0,7.56 -2.98,13.7 -6.65,13.7c-3.67,0 -6.65,-6.14 -6.65,-13.7c0,-1.6 0.13,-3.14 0.38,-4.57l-1.37,0z" fill="white" id="svg_126"/>
   </mask>
   <path d="m813.39,1159.29c-0.23,1.41 -0.35,2.91 -0.35,4.45c0,8.82 3.98,15.98 8.87,15.98c4.9,0 8.88,-7.16 8.88,-15.98c0,-8.82 -5.87,-15.67 -10.77,-15.67c-1.4,0 -2.72,0.58 -3.89,1.65l0,0c-0.16,0.14 -0.31,0.28 -0.47,0.43l0.96,1.37c0.04,-0.03 0.07,-0.06 0.11,-0.09l0,0c0.74,-0.64 1.56,-0.97 2.41,-0.97c3.67,0 8.54,5.83 8.54,13.4c0,7.56 -2.98,13.7 -6.65,13.7c-3.67,0 -6.65,-6.14 -6.65,-13.7c0,-1.6 0.13,-3.14 0.38,-4.57l-1.37,0z" fill="none" id="svg_127"/>
   <path d="m813.39,1159.29c-0.23,1.41 -0.35,2.91 -0.35,4.45c0,8.82 3.98,15.98 8.87,15.98c4.9,0 8.88,-7.16 8.88,-15.98c0,-8.82 -5.87,-15.67 -10.77,-15.67c-1.4,0 -2.72,0.58 -3.89,1.65l0,0c-0.16,0.14 -0.31,0.28 -0.47,0.43l0.96,1.37c0.04,-0.03 0.07,-0.06 0.11,-0.09l0,0c0.74,-0.64 1.56,-0.97 2.41,-0.97c3.67,0 8.54,5.83 8.54,13.4c0,7.56 -2.98,13.7 -6.65,13.7c-3.67,0 -6.65,-6.14 -6.65,-13.7c0,-1.6 0.13,-3.14 0.38,-4.57l-1.37,0z" fill="#000000" id="svg_128" mask="url(#_mask_V0TLQxv3xy1NOFy0NE7Oz3xvrcQYeanT)" stroke="#000000" stroke-linecap="square" stroke-miterlimit="3" stroke-opacity="0" stroke-width="0"/>
   <path d="m853.96,1161.86c40.42,-61.69 144.29,-51.98 133.54,21.92l30.7,-4.42l4.34,3.95l-39.39,4.82c9.61,-76.88 -80.48,-85.66 -123.63,-24.95c-0.35,4.58 2.95,9.36 8.34,13.99q-7.44,-1.28 -13.9,-15.31z" fill="rgb(0,0,0)" id="svg_129"/>
  </g>
  <g id="svg_130" transform="matrix(1 0 0 1 -575.81 -763.05)">
   <path d="m905.41,1080.63c-0.41,11.39 -3.34,23.64 -8.95,33.07c-6.35,-0.1 -12.39,1.04 -18.13,3.41c-12.24,-0.21 -21.12,-9.59 -26.67,-26.04c17.17,-10.54 31.73,-22.46 43.63,-37.98c9.12,4.39 20.98,13.89 30.88,24.18c0.89,0.93 -20.71,2.07 -20.76,3.36z" fill="rgb(0,0,0)" id="svg_131"/>
   <path d="m858.11,1091.07c13.45,-6.17 25,-17.65 35.33,-30.79c-0.77,14.02 -3.5,34.59 -5.86,40.53c-8.24,20.78 -22.04,16.35 -29.47,-9.74z" fill="rgb(116,116,116)" id="svg_132"/>
   <path d="m867.79,1083.39l-6.59,3.58c4.52,29.47 18.47,32.32 25.31,5.14q-7.51,17.57 -14.53,12.73c-3.38,-2.32 -6.27,-16.08 -4.19,-21.45z" fill="rgb(0,0,0)" id="svg_133"/>
   <path d="m866.12,1091.07l4.21,-1.93l1.25,5.87l-3.79,4.37l-1.67,-8.31z" fill="rgb(0,0,0)" id="svg_134"/>
   <path d="m872.95,1098.13l3.41,1.25l0.52,8.99l-6.04,-1.69l2.11,-8.55z" fill="rgb(0,0,0)" id="svg_135"/>
   <path d="m878.99,1098.71l3.04,-2.55l2.06,1.97l-3.38,6.03l-1.72,-5.45z" fill="rgb(0,0,0)" id="svg_136"/>
   <path d="m896.4,1058.68q13.54,5.18 24.65,18.59l-15.26,1.24l-0.97,-10.65l-1.76,10.29l-2.96,-6.61c3.46,13.79 2.07,26.57 -4.19,38.29l-12.58,2.84c8.44,-5.29 10.82,-24.01 13.07,-53.99z" fill="rgb(70,70,70)" id="svg_137"/>
  </g>
  <g id="svg_1">
   <path d="m355.04,64.33q15.53,-3.34 32.17,-6.57l5.64,-2.12q-141.17,23.38 -226.12,66.67l29.21,44.79l0,-9.5l-18.04,-32.89q20.93,-13.27 52.78,-25.44l13.61,29.91l1.65,-3.35l-12.28,-27.69q24.28,-9.09 54.7,-17.56l15.7,26.21l0,-4.19l-12.11,-23.01q27.86,-7.64 60.76,-14.76l11.65,22.2l1.46,-2.07l-10.78,-20.63z" fill="rgb(0,0,0)" fill-opacity="0.2" fill-rule="evenodd" id="svg_16"/>
   <path d="m515.05,109.3c7.49,5.29 14.35,10.4 20.58,15.33l1.65,-2.45c-11.99,-9.85 -26.88,-20.37 -44.64,-31.53l0,0l0,0l0,0l-1.66,2.46c7.59,4.89 14.7,9.65 21.33,14.27l-6.72,9.52l2.73,1.93l6.73,-9.53zm-1.6,-16.53c-17.19,-10.1 -33.42,-12.98 -38.26,-6.12l0,0l0,0l0,0c-5.56,7.87 6.02,25.62 25.83,39.62c19.82,13.99 40.43,18.96 45.98,11.08c4.72,-6.68 -2.91,-20.49 -17.46,-33.07c1.64,3.13 -2.06,3.41 -3.93,0.32c5.08,3.58 2.03,-2.72 -12.16,-11.83l0,0zm0.81,-1.35c-18.98,-11.31 -37.02,-14.62 -42.34,-7.08l0,0l0,0c-6.05,8.56 6.59,27.91 28.22,43.18c21.62,15.27 44.09,20.71 50.13,12.14c5.36,-7.58 -3.94,-23.62 -21.16,-37.8l0.01,0l-0.09,-0.07c-1.35,-1.1 -2.73,-2.2 -4.17,-3.27l-18.11,-14.21l1.06,1.68l6.45,5.43l0,0l0,0z" fill="rgb(0,0,0)" fill-opacity="0.2" fill-rule="evenodd" id="svg_138"/>
  </g>
 </g>
</svg>