<?xml version="1.0"?>
<svg viewBox="0 0 600 542" xmlns="http://www.w3.org/2000/svg" xmlns:svg="http://www.w3.org/2000/svg">
 <style>:root {
        /*
        --car-color: #909;
        */
    }</style>
 <g class="layer">
  <title>Layer 1</title>
  <g id="svg_1">
   <g id="train group??">
    <g id="svg_2">
     <path d="m248.29,188.25c3.35,4.85 7.95,8.87 13.78,12.05c2.69,-2.53 5.14,-4.47 8.98,-6.93c-0.03,-5.7 -2.26,-11.02 -6.7,-15.99c-8.03,2.43 -12.83,5.68 -16.06,10.87z" fill="rgb(0,0,0)" id="svg_3"/>
     <path d="m262.93,178.11c3.75,4.84 5.75,9.18 6.17,11.04c1.72,7.69 -6.09,5.03 -15.04,-6.47c3.12,-1.96 6.08,-3.47 8.87,-4.57z" fill="rgb(0,0,0)" id="svg_4"/>
     <path d="m252.84,184.29l-3.43,3.35c3.17,4.61 7.21,8.26 12.1,10.96l4.73,-3.54c-5.58,-2.6 -10.04,-6.19 -13.4,-10.77z" fill="rgb(116,116,116)" id="svg_5"/>
    </g>
    <path d="m203.51,199.72c2.24,-7.21 3.95,-13.31 8.62,-15.36c2.84,0.34 5.25,0.3 7.19,-0.14c3.3,1.69 5.47,6.76 7.38,13.58c14.52,-6.05 22.99,-6.86 24.07,-2.32c0.29,2.96 0.85,5.45 2.32,7.34c-8.57,8.94 -20.18,13.19 -30.81,14.18c-4.54,-10.6 -10.79,-16.36 -18.77,-17.28z" fill="rgb(0,0,0)" id="svg_6"/>
    <path d="m206.25,198.77c5.97,2.38 11.06,6.32 15.27,11.82c-1.21,-10.82 -3.29,-17.3 -4.86,-20.34c-3.36,-6.5 -7.71,-6 -10.41,8.52z" fill="rgb(116,116,116)" id="svg_7"/>
    <path d="m215.5,185.99l3.82,0c4.36,4.75 6.92,13.01 7.64,24.77l0.59,-2.9c1.15,0.41 2.27,2.23 3.36,5.45l-0.61,-3.52c5.82,-2.08 12.21,-5.62 19.16,-10.63l1.1,3.12c-8.93,8.2 -17.99,12.46 -27.17,12.76c-0.01,-14.11 -2.63,-23.78 -7.89,-29.05z" fill="rgb(70,70,70)" id="svg_8"/>
    <path d="m227.55,199.38l0.38,7.23l2.06,2.31c10.53,-5.24 16.63,-9.34 18.28,-12.32c2.12,-3.85 -7.86,-3.38 -20.72,2.78z" fill="rgb(116,116,116)" id="svg_9"/>
    <path d="m221.1,173.59c10.42,-7.54 23.55,-15.64 39.36,-22.79c30.38,-12.27 71.66,-23.96 105.77,-32.03c23.23,5.1 40.2,10.9 50.89,17.38l4.8,-0.82c1.78,3.02 4.08,5.36 6.91,7.03l4.46,1.29c-5.91,0.98 -7.78,4.11 -5.63,9.37c-18.52,-3.49 -32.46,-2.63 -41.82,2.58l-3.63,-5.27c6.82,21.36 10.02,40.26 9.6,56.67l-23.59,3.59c-0.46,-24.85 3.67,-52.48 -2.94,-80.63l-8.72,7.8l-14.64,-3.91l-9.26,12.76l-65.03,15.13l-39.46,22.17l-7.07,-10.32z" fill="rgb(0,118,0)" id="svg_10"/>
    <path d="m231.94,113.71c-7.27,-11.08 -54.68,14.18 -47.84,25.05c19.43,12.32 28.72,23.21 43.18,46.13l97.46,-25.01l14.64,-20.58l-72.7,17.87l-38.63,23.32c-13.87,-20.8 -25.09,-32.21 -39.51,-42.92c-8.43,-6.23 31.81,-32.53 44.01,-21.92l-0.61,-1.94z" fill="rgb(0,0,0)" id="svg_11"/>
    <path d="m240.58,179.76c-1.65,5.47 -6.29,13.08 -12.12,20.36l17.14,-3.67c4.75,-14.06 21.89,-23.02 44.44,-23.89l18.82,2.61l9.29,-7.14l14.1,-18.34l-47.06,9.33l-18.02,4.78l-26.59,15.96z" fill="rgb(0,0,0)" id="svg_12"/>
    <path d="m242.05,183.12c-1.33,3.34 -4.65,9 -8.14,14.5c8.8,-7.53 9.3,-15.41 39.32,-24.7l-4.81,-6.54l-26.37,16.74z" fill="rgb(185,185,185)" id="svg_13"/>
    <path d="m313.56,155.79l-43.82,9.41l5.5,6.54l46.6,-7.75l-8.28,-8.2z" fill="rgb(116,116,116)" id="svg_14"/>
    <path d="m237.63,197.22l5,-1.13q2.06,-5.2 12.65,-15.25q-13.77,9.5 -17.65,16.38z" fill="rgb(0,0,0)" id="svg_15"/>
    <path d="m336.98,88.92q6.85,-1.47 14.18,-2.89l2.48,-0.93q-62.19,10.29 -99.61,29.37l12.86,19.73l0,-4.19l-7.94,-14.49q9.22,-5.84 23.25,-11.2l6,13.17l0.72,-1.47l-5.41,-12.2q10.7,-4.01 24.1,-7.74l6.92,11.55l0,-1.85l-5.34,-10.14q12.27,-3.36 26.77,-6.5l5.13,9.78l0.64,-0.91l-4.75,-9.09z" fill="rgb(0,0,0)" fill-opacity="0.2" fill-rule="evenodd" id="svg_16"/>
    <path d="m221.36,174.46l-1.43,-1.14c5.74,-4.08 20.21,-13.8 41.5,-24.45c33.93,-12.37 72.89,-22.82 101.37,-29.97l-0.54,1.54c-28.58,6.33 -67.07,16.88 -99.97,30.26c-20.86,9.12 -35.13,18.62 -40.93,23.76z" fill="rgb(0,0,0)" id="svg_17"/>
    <path d="m257.96,106.37c38.57,-17.38 74.06,-28.1 106.43,-32.18l-2.29,0q-46.91,4.96 -106.56,32.18l2.42,0z" fill="rgb(0,0,0)" id="svg_18"/>
    <path d="m245.6,119.55l-0.29,1.78c6.31,13.2 13.16,24.74 20.56,34.6l0,-1.79c-6.85,-9.1 -13.6,-20.62 -20.27,-34.59z" fill="rgb(0,0,0)" id="svg_19"/>
    <path d="m227.96,161.6c3,-2.1 6.86,-4.21 11.27,-6.23l0,0l-22.12,-31.18c-3.69,1.84 -7.62,4.73 -11.74,8.66l22.59,28.75zm-1.22,0.89c-1.28,0.98 -2.36,1.95 -3.22,2.92c-7.12,-8.44 -15.94,-17.28 -24.97,-25.29c1.95,-2.29 3.87,-4.36 5.74,-6.22l22.45,28.59zm14.5,-8.02c3.8,-1.66 7.95,-3.26 12.27,-4.73c-8.98,-8.01 -15.34,-16.76 -20.64,-26.29c-4.03,-2.21 -8.72,-2.24 -13.92,-0.1l22.29,31.12l0,0z" fill="rgb(0,0,0)" fill-rule="evenodd" id="svg_20"/>
    <path d="m391.76,162.28l15.34,34.2l18.16,0.88c11.82,-8.26 22.09,-25.99 30.78,-53.2c-18.33,-29.02 -44.54,-54.94 -78.66,-77.77c-31.73,-0.37 -58.02,4.69 -62.44,6.22c-72.26,28.74 -110.38,40.18 -123.83,53.4l7.1,-3.27c0.68,-1.4 4.93,-3.71 12.33,-6.96c18.36,-8.06 56.08,-21.87 106.62,-41.59c10.27,-2.75 30.94,-5.86 60.07,-4.46c33.88,20.66 57.37,47.1 72.39,74.43c-5.26,20.04 -13.51,37.29 -25.83,48.02c-9.45,-3.71 -20.12,-13.67 -32.03,-29.9z" fill="rgb(0,0,0)" id="svg_21"/>
    <path d="m353.64,142.71l10.75,-12.75c7.83,24.62 3.74,51.69 3.83,80.23l-2.94,-0.49l-11.64,-66.99z" fill="rgb(0,0,0)" id="svg_22"/>
    <g id="svg_23">
     <path d="m310.83,187.64q-2.16,2.68 -4.15,3.56q0.87,6.57 5.29,10.52l10.31,-9.29l-11.45,-4.79z" fill="rgb(0,0,0)" id="svg_24"/>
     <path d="m308.29,191.72q2.24,-0.9 3.68,-3.36l5.11,10.1l-3.47,2.25q-4.11,-2.67 -5.32,-8.99z" fill="rgb(116,116,116)" id="svg_25"/>
     <path d="m312.6,188.36l9.68,4.07l-4.91,5.35q-4.29,-2.87 -4.77,-9.42z" fill="rgb(0,0,0)" id="svg_26"/>
    </g>
    <path d="m358.59,136.66l-18.21,-5.05c-3.67,11.78 -18.31,30.28 -43.93,55.49c12.27,1.67 27.44,8.12 45.5,19.34l19.78,-26.25l-8.09,-37.48l4.95,-6.05z" fill="rgb(0,0,0)" id="svg_27"/>
    <path d="m356.16,139.3l-12.92,-3.78l9.57,34.13l7.73,1.74l-7.73,-28.68l3.35,-3.41z" fill="rgb(116,116,116)" id="svg_28"/>
    <path d="m340.38,138.55l14.87,49.81l10.24,9.26l2.24,12.51l-10.29,-0.67l-25.19,-10.18c-6.86,-5.57 -14.03,-9.32 -27.81,-14.7c13.9,-13.73 25.88,-29.07 35.94,-46.03z" fill="rgb(185,185,185)" id="svg_29"/>
    <path d="m369.56,209.79q4.26,-46.7 -3.06,-79.75l-2.94,0.73q8.78,30.69 2.92,79.74l3.08,-0.72z" fill="rgb(0,0,0)" id="svg_30"/>
    <path d="m372.32,120.94l1.32,-0.91c14.61,3.07 29.23,8.3 43.85,15.65l-1.31,0c-14.62,-7.21 -29.24,-12.12 -43.86,-14.74z" fill="rgb(0,0,0)" id="svg_31"/>
    <path d="m351.25,142.4c4.04,-3.83 7.89,-8.86 11.55,-15.13c28.08,2.49 51.18,11.98 69.26,28.46c-25.89,-15.88 -48.73,-23.92 -68.5,-24.12c-3.34,4.5 -6.11,8.1 -8.31,10.79c2.98,7.45 4.95,15.45 5.92,23.97l-5.43,-1.52c0.07,-6.07 -1.42,-13.55 -4.49,-22.45z" fill="rgb(0,0,0)" id="svg_32"/>
    <g id="svg_33">
     <path d="m354.36,187.75c-10.64,-6.19 -16.32,-19.57 -17.02,-29.85c3.56,-1.01 7.47,-4.1 10.62,-7.77c5.48,-3.61 14.95,4.88 19.56,18.74c3.19,9.58 1.07,14.99 -3.73,15.42q-6.91,1.41 -9.43,3.46z" fill="rgb(0,0,0)" id="svg_34"/>
     <path d="m356.51,184.54c-6.89,-6.84 -13.79,-17.79 -11.93,-29.04c-1.71,2.34 -3.56,3.75 -5.57,4.19c1.36,10.09 6.1,18.7 14.21,25.82l3.29,-0.97z" fill="rgb(116,116,116)" id="svg_35"/>
     <path d="m359.93,170.68l4.78,5.54l-1.36,2.17l-4.07,-6.41l0.65,-1.3z" fill="rgb(0,0,0)" id="svg_36"/>
     <g id="svg_37">
      <path d="m349.82,171.68c-4.13,-8.12 -4.57,-16.59 -0.98,-18.89c3.59,-2.31 9.86,2.41 13.99,10.53c4.13,8.12 4.57,16.59 0.98,18.89c-3.59,2.31 -9.86,-2.41 -13.99,-10.53z" fill="rgb(70,70,70)" id="svg_38"/>
      <path d="m358.31,161.59c0.02,0.01 1.02,-0.76 1.12,-0.85c-3.07,-4.28 -6.76,-6.44 -9.07,-4.96c-2.86,1.84 -2.5,8.58 0.79,15.05c2.86,5.64 7.02,9.21 9.94,8.83c-2.61,-0.29 -5.98,-3.41 -8.4,-8.11c-3.4,-10.51 0.13,-15.19 5.62,-9.96z" fill="rgb(0,0,0)" id="svg_39"/>
      <path d="m358.94,172.81l0,0l2.67,3.12l0,0l0,0l0,0l0,0c-0.19,0.71 -0.49,1.29 -0.89,1.71l-2.18,-4.6l0.4,-0.23zm-1.63,0.97l0.91,4.48c0.6,0.16 1.16,0.15 1.67,-0.05l0,0l0,0l0,0l0,0l-2.22,-4.65l-0.36,0.22zm-1.79,-0.85l-0.52,3.2c0.68,0.69 1.35,1.24 2.01,1.62l0,0l0,0l0,0l-0.87,-4.26c-0.21,-0.17 -0.42,-0.36 -0.62,-0.56zm-1.77,-2.24l-1.55,0.62c0.56,1.06 0.97,2.22 1.61,3.05l0.64,-2.37c-0.17,-0.27 -0.55,-1.01 -0.7,-1.3zm6.32,-1.74l1.22,0.52c-0.28,-1.08 -0.65,-2.2 -1.12,-3.32l0,0l0,0l0,0l0,0l0,0l-0.74,0.51c0.31,0.79 0.52,1.57 0.64,2.29l0,0zm-0.3,3.04l2.08,2.43c0.06,-0.88 0.01,-1.86 -0.14,-2.9l0,0l0,0l0,0l0,0l0,0l-1.57,-0.67c-0.06,0.46 -0.18,0.85 -0.37,1.14l0,0z" fill="rgb(0,0,0)" fill-rule="evenodd" id="svg_40"/>
     </g>
    </g>
    <path d="m363.56,115.95l0.83,-1.47c0.87,2.32 1.45,4.21 1.72,5.64l1.03,-9.47l0.59,-0.29c0.05,3.66 0.38,7.51 0.98,11.52l-0.49,0.34c-0.47,-2.41 -0.75,-4.49 -0.84,-6.27l-0.88,7.01l-0.39,0.33c-0.66,-2.94 -1.51,-5.38 -2.55,-7.34z" fill="rgb(0,0,0)" id="svg_41"/>
    <path d="m385.68,154.63c7.14,-2.82 20.56,-6.88 42.33,-1.82l1,0.62c-24.69,-4.72 -38.36,-1.19 -42.36,1.8l-0.97,-0.6z" fill="rgb(0,0,0)" id="svg_42"/>
    <path d="m380.8,149.05l1.43,1.65c6.75,15.87 10.52,40.68 10.18,56.34l-1.4,0c0.68,-14.33 -2.56,-40.03 -10.21,-57.99z" fill="rgb(0,0,0)" id="svg_43"/>
    <path d="m422.37,135.3c1.64,2.89 4.35,5.42 8.14,7.41l-1.5,-0.31c-3.56,-1.92 -6.03,-4.21 -7.44,-6.88l0.8,-0.22z" fill="rgb(0,0,0)" id="svg_44"/>
    <path d="m433.85,144.04c-6.39,0.7 -8.04,3.84 -4.96,9.39l-0.89,-0.59c-2.94,-5.26 -1.25,-8.43 5.06,-9.25l0.79,0.45z" fill="rgb(0,0,0)" id="svg_45"/>
    <path d="m367.03,200.8l-3.47,-7.05l-4.97,11.29l-1.15,5.15l7.84,0.32l-3.55,-4.95l5.65,-1.84l-0.35,-2.92z" fill="rgb(0,0,0)" id="svg_46"/>
    <path d="m357.56,204.71c-0.84,-2.61 -0.18,-5.16 1.49,-5.7c1.66,-0.53 3.69,1.15 4.53,3.76c0.84,2.61 0.17,5.16 -1.49,5.7c-1.66,0.53 -3.69,-1.15 -4.53,-3.76z" fill="rgb(0,0,0)" id="svg_47"/>
    <path d="m405.95,139.3c7.02,-3.44 15.32,-5.14 24.89,-5.1c-11.02,1.66 -18.23,4.03 -21.66,7.08l-3.23,-1.98z" fill="rgb(0,0,0)" id="svg_48"/>
    <path d="m408.76,139.3c12.57,0.27 22.54,2.47 29.89,6.6c-9.64,-3.81 -19.46,-5.34 -29.47,-4.62l-0.42,-1.98z" fill="rgb(0,0,0)" id="svg_49"/>
    <path d="m377.23,145.9l-0.96,-3.5c22.33,26.7 33.95,46.7 34.83,59.98l-6.14,1.34c-0.99,-16.25 -8.51,-34.22 -27.73,-57.82z" fill="rgb(0,0,0)" id="svg_50"/>
    <g id="svg_51">
     <path d="m223.28,188.82c6.86,3.74 13,6.01 18.39,6.8l0,5.2q-5.04,5.15 -7.13,5.09q-3,-0.07 -7.74,-2.56c-0.26,-3.22 -1.11,-7.76 -3.52,-14.53z" fill="rgb(0,0,0)" id="svg_52"/>
     <path d="m225.54,191.22c5.02,2.19 9.79,3.94 14.28,5.25c-1.55,1.84 -4.43,4.63 -5.11,4.67c-2.38,0.11 -5.55,-1.8 -8.35,-3.39l0,-0.89l5.54,2.34l3.48,-3.15c-1.83,-0.87 -5.11,-2.16 -9.84,-3.88l0,-0.95l0,0zm14.36,6.77l0.11,3.29c-3.28,3.93 -6.06,3.93 -7.35,3.25l-1.93,-3.64q3.06,1.47 4.03,1.23q0.83,-0.21 5.14,-4.13l0,0zm-5.06,0.01c0.56,-0.46 1.19,-0.64 1.42,-0.4c0.22,0.25 -0.05,0.83 -0.61,1.29c-0.56,0.47 -1.2,0.64 -1.42,0.4c-0.23,-0.25 0.05,-0.82 0.61,-1.29z" fill="rgb(232,232,232)" fill-rule="evenodd" id="svg_53"/>
    </g>
    <g id="svg_54">
     <path d="m324.38,184.13c-4.79,-0.06 -8.41,0.45 -10.89,1.5c-4.3,-4.69 -9.64,-18.59 -8.29,-30.79c3.47,-1.18 5.6,-2.43 9.63,-4.67c9.99,6.96 14.75,26.83 9.55,33.96z" fill="rgb(0,0,0)" id="svg_55"/>
     <path d="m311.16,151.25c-1.58,1.72 -3.11,2.85 -4.6,3.37c-0.59,16.85 4.64,24.09 8,28.79c0.96,-0.29 2.25,-0.46 3.85,-0.53c-4.52,-3.94 -9.27,-21.03 -7.25,-31.63z" fill="rgb(116,116,116)" id="svg_56"/>
     <path d="m319.92,162.76q-3.11,-8.95 -4.74,-10.02c-3.42,-2.24 -4.07,7.6 0.99,21.36q-2.31,-13.98 -0.99,-16.19q0.96,-1.59 4.74,4.85z" fill="rgb(0,0,0)" id="svg_57"/>
     <path d="m317.97,176.55c0.88,2.24 2.16,3.75 3.13,4.25c2.72,1.39 3.78,-4.04 0,-14.31q1.93,11.74 -0.34,12.14c-1.18,0.21 -2.03,-0.82 -2.79,-2.08z" fill="rgb(0,0,0)" id="svg_58"/>
     <g id="svg_59">
      <path d="m313.81,168.99c-2.58,-8.74 -2.7,-16.64 -0.25,-17.65c2.45,-1 6.55,5.28 9.13,14.01c2.59,8.74 2.7,16.65 0.25,17.65c-2.45,1.01 -6.54,-5.27 -9.13,-14.01z" fill="rgb(70,70,70)" id="svg_60"/>
      <path d="m319.17,164.22c0.02,0.02 1.23,-2.24 1.31,-2.29c-1.96,-4.88 -4.39,-8.01 -5.96,-7.36c-1.95,0.8 -1.86,7.09 0.2,14.05c1.79,6.06 4.5,10.64 6.46,11.19c-1.74,-1.07 -3.93,-4.99 -5.44,-10.05c-2.05,-10.71 -0.12,-12.04 3.43,-5.54z" fill="rgb(0,0,0)" id="svg_61"/>
      <path d="m316.22,172.14l0.24,-0.99c-0.1,-0.3 -0.34,-1.1 -0.44,-1.4l-0.66,0.05l0.86,2.34l0,0zm1.67,3.76l-0.33,-2.85c-0.14,-0.22 -0.27,-0.46 -0.41,-0.71l-0.23,1.6l0.97,1.96l0,0zm1.55,-2.61l0,0l1.72,3.7l0,0l0,0l0,0l0,0c-0.14,0.59 -0.35,1.03 -0.62,1.29l-1.37,-4.89l0.27,-0.1zm-1.11,0.39l0.44,3.72q0.85,1.18 1.19,1.15l0,0l0,0l0,0l0,0l-1.38,-4.96l-0.25,0.09zm1.96,-3.57l0.8,0.86c-0.16,-1.08 -0.39,-2.23 -0.68,-3.4l0,0l0,0l0,0l0,0l0,0l-0.51,0.24c0.2,0.81 0.32,1.6 0.39,2.3l0,0zm-0.27,2.69l1.34,2.88c0.06,-0.79 0.04,-1.7 -0.04,-2.71l0,0l0,0l0,0l0,0l0,0l-1.03,-1.1c-0.05,0.41 -0.14,0.72 -0.27,0.93l0,0z" fill="rgb(0,0,0)" fill-rule="evenodd" id="svg_62"/>
     </g>
    </g>
    <g id="svg_63">
     <path d="m294.12,154.56c4.39,8.96 10.93,16.91 19.6,23.85c-5.98,8.74 -14.01,14.47 -24.11,17.18l-5.52,-5.51c1.12,-3.02 1.85,-4.94 5.52,-8.02l-1.98,-0.13l-1.39,-11.38c-0.63,-4.44 2.3,-10.8 7.88,-15.99z" fill="rgb(0,0,0)" id="svg_64"/>
     <path d="m293.69,158.08c4.44,6.57 10.06,14.72 17.49,20.22q-7.82,1.33 -11.67,0.44c-9.38,-2.17 -16.04,-12.05 -5.82,-20.66z" fill="rgb(70,70,70)" id="svg_65"/>
     <path d="m287.63,171.9l1.54,8.39c2.07,2.21 9.05,2.53 15.27,0.55c-1.38,0.99 -2.84,1.6 -4.41,1.84c0.28,1.39 2.1,1.79 5.46,1.19l-4.71,1c-3.35,3.61 -7.93,5.77 -13.74,6.44l3.39,3.02c8.21,-2.55 15.14,-7.48 20.75,-14.78c-11.54,1.46 -20.21,-1.71 -23.55,-7.65z" fill="rgb(116,116,116)" id="svg_66"/>
     <path d="m290.65,182.31c2.05,0.98 4.72,1.26 7.98,0.83c0.22,0.8 0.52,1.42 0.91,1.85c-1.45,1.08 -3.38,2.21 -5.81,3.35l-3.08,-6.03z" fill="rgb(0,0,0)" id="svg_67"/>
     <g id="svg_68">
      <path d="m284.63,194.61c-0.93,-3.76 -2.84,-6.62 -5.74,-8.6l-3.76,-0.16l-0.03,-1.09c0.22,-1.15 -0.26,-2.18 -1.44,-3.09c1.26,-3.41 5.02,-6.18 11.27,-8.33c1.41,0.12 2.84,0.25 3.19,0.79l0.82,7.53l3.05,1.05l3.86,5.74c2.27,2.04 -6.97,6.68 -11.22,6.16z" fill="rgb(0,0,0)" id="svg_69"/>
      <path d="m291.33,183.67l-2.97,-0.79l-1.47,-6.05c-3.35,-1.06 -7.43,2.18 -9.28,6.34c3.73,3.16 6.05,5.95 6.94,8.37c3.48,-3.28 6.54,-4.44 9.16,-3.5l-2.38,-4.37z" fill="rgb(232,232,232)" id="svg_70"/>
      <path d="m286.4,183.97c-0.53,-1.65 0.11,-3.33 1.44,-3.76c0.2,-0.07 0.4,-0.1 0.6,-0.11q0.26,0 0.57,2.97q1.47,0.24 2.02,0.37c0.11,0.75 0,1.45 0.06,1.53c-0.26,0.68 -0.65,0.98 -1.31,1.2c-1.33,0.43 -2.84,-0.56 -3.38,-2.2z" fill="rgb(0,118,0)" id="svg_71" stroke="rgb(0,0,0)" stroke-linecap="square" stroke-miterlimit="3"/>
      <path d="m286.91,176.49l1.11,7.16l4.89,1.28l-0.93,-2.02l-2.68,-1.06l-1.35,-5.2l-1.04,-0.16z" fill="rgb(0,0,0)" id="svg_72"/>
      <path d="m292.98,188.93c-2.27,-0.23 -4.56,0.74 -6.89,2.89c3.63,0.34 5.94,-0.61 6.89,-2.89z" fill="rgb(70,70,70)" id="svg_73"/>
      <path d="m285.64,193.73c2.16,0.12 5.97,-1.33 7.01,-2.09c2.39,-1.56 2.84,-2.26 1.09,-2.57c-0.66,1.56 -3.23,3.68 -7.76,3.21l-0.34,1.45z" fill="rgb(116,116,116)" id="svg_74"/>
     </g>
     <path d="m280.55,176.11q-3.01,-3.53 -3.62,-6.33q-0.1,-0.47 5.03,-3.55c0.42,0.34 0.55,0.73 0.39,1.15q-4.22,2.06 -4.31,2.4q-0.41,1.57 4.67,6.43l-2.16,-0.1z" fill="rgb(0,0,0)" id="svg_75"/>
     <path d="m296.66,160.97q0.36,-0.31 -1.49,-1.63c-8.09,8.13 -4.12,17.82 7.2,17.58q-7.21,-0.83 -9.62,-5.94c-1.69,-3.61 0.38,-8.26 3.91,-10.01z" fill="rgb(0,0,0)" id="svg_76"/>
     <path d="m293.14,163.43l3.78,2.3l-0.68,1.95l-4.33,-0.77l1.23,-3.48z" fill="rgb(0,0,0)" id="svg_77"/>
     <path d="m291.91,169.74l3.49,0l0.45,1.27l-2.91,1.6l-1.03,-2.87z" fill="rgb(0,0,0)" id="svg_78"/>
     <path d="m294.94,174.38l1.8,-1.5l1.3,1l-0.76,1.85l-2.34,-1.35z" fill="rgb(0,0,0)" id="svg_79"/>
    </g>
    <path d="m209.24,200.8l-2.45,-1.08c3.79,-19.23 10.91,-11.95 11.58,1.78q-1.82,-7.15 -4.67,-8.39q-2.84,-1.23 -4.46,7.69z" fill="rgb(0,0,0)" id="svg_80"/>
    <path d="m217.81,199.3l-1.16,0l-0.4,-1.77l0.97,-1.65l0.59,3.42z" fill="rgb(0,0,0)" id="svg_81"/>
    <path d="m214.63,196.09l1.15,-2.34l-1.56,-1.57l-0.52,3.33l0.93,0.58z" fill="rgb(0,0,0)" id="svg_82"/>
    <path d="m211.9,192.6l0.5,3.28l-0.97,1.08l-2.03,-0.51l2.5,-3.85z" fill="rgb(0,0,0)" id="svg_83"/>
    <g id="svg_84">
     <path d="m336.67,192.18c8.15,-1.96 15.53,-5.95 22.14,-11.99c8.29,4.77 13.42,11.3 15.37,19.58l-4.62,4.39l-5.95,-8.5q-1.79,8.64 -2.6,9.43c-2.8,0.62 -5.48,0.65 -7.11,1.35c-8.73,-3.71 -14.47,-8.46 -17.23,-14.26z" fill="rgb(0,0,0)" id="svg_85"/>
     <path d="m340.38,193.22c5.57,-1.94 11.41,-5.03 17.52,-9.3c1.06,5.31 0.91,11.68 0.48,13.44c-2.29,9.45 -10.89,10.45 -18,-4.14z" fill="rgb(116,116,116)" id="svg_86"/>
     <path d="m360.08,183.12c6.8,5.2 10.94,10.4 12.4,15.6l-3.34,3c-0.8,-3.93 -2.78,-7.49 -5.96,-10.7l-1,-3.3c0.52,6.7 -0.02,11.94 -1.65,15.7l-4.24,0.9c3,-0.54 4.27,-7.6 3.79,-21.2z" fill="rgb(70,70,70)" id="svg_87"/>
     <path d="m345.05,190.47l-2.95,1.13c5.11,14.74 13.63,14.87 15.44,0.23q-1.95,8.8 -6.49,9.13q-3.21,0.23 -6,-10.49z" fill="rgb(0,0,0)" id="svg_88"/>
     <path d="m345.27,192.68l1.86,-0.85l0.55,2.58l-1.67,1.93l-0.74,-3.66z" fill="rgb(0,0,0)" id="svg_89"/>
     <path d="m348.39,196.34l1.53,1.27l-0.27,3.96l-2.71,-2.62l1.45,-2.61z" fill="rgb(0,0,0)" id="svg_90"/>
     <path d="m352.99,197.96l-1.19,0.11l-0.39,3.65l2.03,-0.92l-0.45,-2.84z" fill="rgb(0,0,0)" id="svg_91"/>
     <path d="m354.7,197.11l0.94,-1.92l0.91,0.88l-1.11,2.3l-0.74,-1.26z" fill="rgb(0,0,0)" id="svg_92"/>
    </g>
    <g id="svg_93">
     <path d="m363.31,190.82c2.57,1.92 4.82,5.23 6.02,9.28c1.07,3.64 1.11,7.2 0.28,10.03l-3.95,0c0.72,-2.1 0.72,-5.01 -0.17,-8.01c-0.54,-1.86 -1.36,-3.5 -2.31,-4.82l0.13,-6.48z" fill="rgb(0,0,0)" id="svg_94"/>
     <path d="m363.56,192.6c4.56,3.37 6.36,8.83 5.48,17.19l-2.11,0c0.63,-6.09 -0.49,-10.84 -3.37,-14.28l0,-2.91z" fill="rgb(98,61,5)" id="svg_95"/>
    </g>
   </g>
   <g id="car group??">
    <ellipse cx="360" cy="259" fill="#000" id="svg_96" rx="100" ry="4" transform="rotate(-3.5 360 259)"/>
    <!--<path d=" M 320.505 257.099 L 396.012 252.892 L 459.677 255.436 C 405.955 260.936 348.029 264.544 285.887 266.249 L 308.46 260.524 L 320.505 257.099 Z " fill="rgb(0,0,0)"/>-->
    <path d="m431.25,225.29l-139.71,6.75l-7.51,7.11l4.58,7.59l48.27,7.66l71.68,-1.51l21.04,-9.38l1.65,-18.22z" fill="rgb(235,235,235)" id="svg_97"/>
    <path d="m322.52,256.75c3.22,7.68 29.54,5.03 30.1,-1.37c4.55,-7.89 3,-13.96 -4.67,-18.23c-0.56,13.92 -14.2,17.91 -22.86,6.83c-2.9,4.45 -3.75,8.71 -2.57,12.77z" fill="rgb(0,0,0)" id="svg_98"/>
    <path d="m349.66,250.58c-7.23,10.49 -33.99,1.19 -25.2,-12.09c1.72,14.6 16.97,15.53 21.36,5.65l3.84,6.44z" fill="rgb(139,139,139)" id="svg_99"/>
    <path d="m348.23,236.79c0.29,1.03 0.45,2.09 0.45,3.17c0,1.66 -0.4,3.3 -1.15,4.78c-0.73,1.42 -1.74,2.68 -2.97,3.7c-1.23,1.02 -2.62,1.82 -4.13,2.37c-1.5,0.56 -3.09,0.84 -4.69,0.85c-1.13,0 -2.26,-0.16 -3.36,-0.47c-1.11,-0.31 -2.17,-0.81 -3.13,-1.45c-1.02,-0.7 -1.93,-1.56 -2.67,-2.55c-0.94,-1.25 -1.65,-2.66 -2.11,-4.16c0.47,-0.74 2.78,-0.17 2.45,0.3c0.36,0.91 0.84,1.76 1.43,2.54c0.59,0.79 1.31,1.48 2.13,2.04c0.77,0.52 1.62,0.91 2.51,1.16c0.89,0.26 1.81,0.39 2.74,0.38c1.35,0 2.69,-0.24 3.95,-0.71c1.26,-0.46 2.44,-1.13 3.47,-2c1,-0.82 1.83,-1.85 2.42,-3c0.59,-1.18 0.91,-2.47 0.91,-3.78c-0.01,-0.6 -0.06,-1.2 -0.18,-1.79c-0.29,-0.18 1.46,-1.69 1.93,-1.38z" fill="rgb(0,0,0)" id="svg_100"/>
    <path d="m405.41,252.94c-3.93,2.41 -8.62,3.81 -13.65,3.81c-12.85,0 -23.45,-9.13 -24.88,-20.89l25.63,-0.32q19.17,13.55 12.9,17.4z" fill="rgb(0,0,0)" id="svg_101"/>
    <path d="m433.5,235.24c-1.12,12.06 -11.87,21.51 -24.94,21.51c-12.85,0 -23.46,-9.13 -24.88,-20.89l12.44,2.63c7.6,10.94 21.03,6.83 24.42,-6.45l12.96,3.2l0,0z" fill="rgb(0,0,0)" id="svg_102"/>
    <path d="m417.28,239.33l3.26,5.49c-7.23,10.49 -33.37,1.21 -25.2,-12.09c0.08,13 14.78,15.61 21.94,6.6z" fill="rgb(139,139,139)" id="svg_103"/>
    <path d="m421.53,232.04c-0.15,1.41 -0.5,2.8 -1.02,4.12c-0.72,1.8 -1.77,3.46 -3.1,4.88c-1.31,1.4 -2.88,2.52 -4.63,3.31c-1.79,0.8 -3.73,1.22 -5.69,1.22c-1.7,0 -3.38,-0.32 -4.97,-0.93c-1.55,-0.6 -2.98,-1.46 -4.23,-2.54c-1.25,-1.09 -2.31,-2.37 -3.15,-3.79l1.38,-2.07c0.16,0.31 0.32,0.61 0.49,0.91c0.72,1.24 1.64,2.34 2.72,3.28c1.06,0.92 2.27,1.65 3.58,2.16c1.33,0.51 2.76,0.78 4.18,0.78c1.65,0 3.28,-0.35 4.78,-1.03c1.48,-0.67 2.82,-1.62 3.93,-2.81c1.14,-1.21 2.05,-2.64 2.66,-4.19c0.55,-1.39 0.88,-2.85 0.96,-4.34l2.11,1.04l0,0z" fill="rgb(0,0,0)" id="svg_104"/>
    <path d="m287.77,230.2c5.9,2.99 6.18,9.93 1.65,13.31c-1.2,0.13 -1.67,0.27 -2.97,-0.67q-1.85,1.19 -3.13,3.79c-0.81,5.25 2.59,8.38 10.16,9.38l29.04,0.74c-4.18,-19.35 29.07,-28.46 32.33,-10.34l-1.6,8.76l38.38,-3.46c-1.98,-27.33 37.83,-30.94 34.55,-5.08l13.96,-2.16c1.75,-9.49 1.76,-16.92 0,-22.32c-5.39,-13.93 -13.22,-23.72 -31.38,-24.71c-0.63,0.25 1.11,4.78 0.47,5.03c-16.8,6.55 -37.87,7.61 -51.71,7.58l0,-8.13c-7.38,-3.79 -18.54,-4.17 -33.48,-1.14q-0.03,0.01 -2.41,0.59l-11.94,27.97c2.9,0.91 4.96,2.37 6.16,4.38c1.36,5.45 0.37,8.9 -2.98,10.32l-5.13,-1.77c-2.49,-2.07 -3.31,-4.43 -2.49,-7.09l4.43,-5.28l12.76,-28.72l-2.05,0.39l-3.53,10.7c-7.82,3.15 -13.65,7.23 -17.52,12.22c-4.19,1.31 -8.05,3.21 -11.57,5.71z" fill="var(--car-color, rgb(96,125,139))" id="svg_105"/>
    <path d="m295.08,256.75c3.22,7.68 29.54,5.03 30.09,-1.37l-3.76,1.3l-26.33,0.07z" fill="rgb(0,0,0)" id="svg_106"/>
    <path d="m304.35,236.52l4.73,-1.05c-0.45,5.16 0.7,8 3.42,8.51l-3.26,-0.96c-2.28,-1.3 -3.9,-3.46 -4.89,-6.5z" fill="rgb(70,70,70)" id="svg_107"/>
    <path d="m305.06,236.16l5.34,-6.24c4.08,0.88 6.1,3.46 6.06,7.73c-4.87,-2.78 -8.8,-2.59 -11.4,-1.49z" fill="rgb(139,139,139)" id="svg_108"/>
    <path d="m282.13,235.72l5.05,-5.38c3.96,0.88 4.88,4.61 4.84,8.88c-1.39,-4.87 -7.62,-4.6 -9.89,-3.5z" fill="rgb(139,139,139)" id="svg_109"/>
    <path d="m281.12,236.52c2.15,-0.95 3.73,-1.29 4.72,-1.05c-0.44,5.16 0.71,8 3.43,8.51l-2.09,-0.63l-0.95,-0.66c-2.53,-1.7 -4.23,-3.75 -5.11,-6.17z" fill="rgb(70,70,70)" id="svg_110"/>
    <path d="m443.77,241.2l-0.82,6.02q-9.22,2.74 -17.9,2.47c4.79,-31.36 -38.19,-20.07 -31.4,3.28l-42.4,3.04c14.33,-27.84 -35.56,-21.09 -26.69,1.31c-4.26,3.29 -36.23,0.88 -40.18,-1.94c-4.37,-3.11 -4.56,-7.34 0.71,-11.4c-2.59,4.97 -0.43,8.13 3.07,9.33c3.13,1.07 15.35,2.75 31.84,2.07c-1.77,-23.5 43.44,-30.33 35.25,-1.99l33.54,-2.81c1.43,-22.94 37.66,-33.63 39.24,-6.44q6.9,0.57 14.02,-3.77l1.72,0.83z" fill="rgb(0,0,0)" id="svg_111"/>
    <path d="m412.35,202.7q-33.17,9.6 -57.02,8.67c0.95,-3.43 1.1,-7.03 0.41,-8.06c-0.39,-3.35 -13.47,-5.65 -34.45,-1.39l-3.41,10.35l-3.01,0.7l4.43,-11.83c23.96,-5.09 38.21,-2.56 39.2,0.83q1.84,2.54 0.38,7.03q18.16,1.69 54.74,-8.12l-1.27,1.82z" fill="rgb(0,0,0)" id="svg_112"/>
    <path d="m406.18,198.69c16.23,-2.12 41.01,11.99 33.12,44.44l3.04,-0.12c3.77,-27.05 -8.64,-43.43 -33.78,-47.54l-2.38,3.22l0,0z" fill="rgb(0,0,0)" id="svg_113"/>
    <path d="m380.32,238.41c8.89,-41.62 60.38,-36.43 55.88,0.74c7.26,-43.21 -55.69,-39.77 -55.88,-0.74z" fill="rgb(0,0,0)" id="svg_114"/>
    <path d="m299.34,225.29c-7.83,2.11 -13.42,5.86 -16.77,11.23q0.89,4.31 3.67,6.17q-4.13,-2.47 -6.12,-6.75c5.42,-7.73 12.05,-12.12 19.88,-13.16l-0.66,2.51z" fill="rgb(0,0,0)" id="svg_115"/>
    <path d="m320.39,211.74c-27.38,4 -33.07,33.98 -16.48,33.98c-15.73,-4.74 -3.82,-29.6 16.48,-33.98l0,0z" fill="rgb(0,0,0)" id="svg_116"/>
    <path d="m327.56,210.8c-2.72,0.26 -5.48,0.63 -8.26,1.13l2.76,-7.7c3.55,-1.03 6.85,-1.7 9.87,-2.09q-1.12,4.4 -4.37,8.66zm2.28,-0.19c7.03,-0.48 13.7,-0.12 19.41,1.18q3.43,-7.95 2.06,-8.38c-3.76,-1.17 -9.74,-2.28 -17.79,-1.46q-1.15,4.48 -3.68,8.66z" fill="rgb(0,0,0)" fill-rule="evenodd" id="svg_117"/>
    <path d="m305.89,235.32c5.21,-1.19 8.87,-0.12 10.97,3.17l0,1.1c-2.36,-3.03 -5.7,-4.91 -11.3,-2.74l0.33,-1.53z" fill="rgb(0,0,0)" id="svg_118"/>
    <path d="m283.32,234.93c4.56,-1.19 6.89,-0.02 8.73,3.28l0,1.1c-2.07,-3.03 -4.58,-5 -9.48,-2.83l0.75,-1.55z" fill="rgb(0,0,0)" id="svg_119"/>
    <mask id="_mask_Wn97xEccTmVw0PzxdIV02CTN0iebY4mQ">
     <path d="m308.85,235.47c-0.11,0.62 -0.16,1.28 -0.16,1.96c0,3.88 1.89,7.04 4.23,7.04c2.34,0 4.24,-3.16 4.24,-7.04c0,-3.89 -2.06,-7.79 -6,-7.69c-0.67,0 -1.3,0.26 -1.86,0.72l0,0c-0.08,0.07 -0.15,0.13 -0.22,0.2l0.45,0.6c0.02,-0.02 0.04,-0.03 0.06,-0.04l0,0c0.35,-0.28 0.74,-0.43 1.15,-0.43c3.09,0.12 4.94,3.36 4.94,6.69c0,3.33 -1.43,6.03 -3.18,6.03c-1.75,0 -3.18,-2.7 -3.18,-6.03c0,-0.71 0.07,-1.38 0.18,-2.01l-0.65,0z" fill="white" id="svg_120"/>
    </mask>
    <path d="m308.85,235.47c-0.11,0.62 -0.16,1.28 -0.16,1.96c0,3.88 1.89,7.04 4.23,7.04c2.34,0 4.24,-3.16 4.24,-7.04c0,-3.89 -2.06,-7.79 -6,-7.69c-0.67,0 -1.3,0.26 -1.86,0.72l0,0c-0.08,0.07 -0.15,0.13 -0.22,0.2l0.45,0.6c0.02,-0.02 0.04,-0.03 0.06,-0.04l0,0c0.35,-0.28 0.74,-0.43 1.15,-0.43c3.09,0.12 4.94,3.36 4.94,6.69c0,3.33 -1.43,6.03 -3.18,6.03c-1.75,0 -3.18,-2.7 -3.18,-6.03c0,-0.71 0.07,-1.38 0.18,-2.01l-0.65,0z" fill="none" id="svg_121"/>
    <mask id="_mask_4LXCNqYGuRpaqy70pAXzs1VwpPYog6iQ">
     <path d="m285.24,235.14c-0.1,0.62 -0.15,1.28 -0.15,1.96c0,3.89 1.75,7.04 3.91,7.04c2.15,0 3.9,-3.15 3.9,-7.04c0,-3.88 -2.58,-6.9 -4.74,-6.9c-0.61,0 -1.2,0.25 -1.71,0.72l0,0c-0.07,0.06 -0.14,0.13 -0.21,0.2l0.42,0.6c0.02,-0.02 0.03,-0.03 0.05,-0.04l0,0c0.33,-0.28 0.69,-0.43 1.06,-0.43c1.62,0 3.77,2.57 3.77,5.9c0,3.33 -1.32,6.04 -2.93,6.04c-1.62,0 -2.93,-2.71 -2.93,-6.04c0,-0.7 0.06,-1.38 0.16,-2.01l-0.6,0z" fill="white" id="svg_122"/>
    </mask>
    <path d="m285.24,235.14c-0.1,0.62 -0.15,1.28 -0.15,1.96c0,3.89 1.75,7.04 3.91,7.04c2.15,0 3.9,-3.15 3.9,-7.04c0,-3.88 -2.58,-6.9 -4.74,-6.9c-0.61,0 -1.2,0.25 -1.71,0.72l0,0c-0.07,0.06 -0.14,0.13 -0.21,0.2l0.42,0.6c0.02,-0.02 0.03,-0.03 0.05,-0.04l0,0c0.33,-0.28 0.69,-0.43 1.06,-0.43c1.62,0 3.77,2.57 3.77,5.9c0,3.33 -1.32,6.04 -2.93,6.04c-1.62,0 -2.93,-2.71 -2.93,-6.04c0,-0.7 0.06,-1.38 0.16,-2.01l-0.6,0z" fill="none" id="svg_123"/>
    <path d="m285.24,235.14c-0.1,0.62 -0.15,1.28 -0.15,1.96c0,3.89 1.75,7.04 3.91,7.04c2.15,0 3.9,-3.15 3.9,-7.04c0,-3.88 -2.58,-6.9 -4.74,-6.9c-0.61,0 -1.2,0.25 -1.71,0.72l0,0c-0.07,0.06 -0.14,0.13 -0.21,0.2l0.42,0.6c0.02,-0.02 0.03,-0.03 0.05,-0.04l0,0c0.33,-0.28 0.69,-0.43 1.06,-0.43c1.62,0 3.77,2.57 3.77,5.9c0,3.33 -1.32,6.04 -2.93,6.04c-1.62,0 -2.93,-2.71 -2.93,-6.04c0,-0.7 0.06,-1.38 0.16,-2.01l-0.6,0l0,0z" fill="none" id="ring" mask="url(#_mask_4LXCNqYGuRpaqy70pAXzs1VwpPYog6iQ)" stroke="rgb(0,0,0)" stroke-linecap="square" stroke-miterlimit="3" stroke-width="28"/>
    <path d="m303.11,236.27c17.81,-27.18 63.57,-22.9 58.83,9.66l13.52,-1.95l1.92,1.74l-17.36,2.12c4.24,-33.86 -35.45,-37.73 -54.46,-10.99c-0.15,2.02 1.3,4.13 3.67,6.17q-3.27,-0.57 -6.12,-6.75z" fill="rgb(0,0,0)" id="svg_124"/>
   </g>
   <g id="svg_125">
    <path d="m325.78,200.49c-0.18,5.01 -1.47,10.41 -3.94,14.57c-2.8,-0.05 -5.46,0.46 -7.99,1.5c-5.4,-0.1 -9.31,-4.23 -11.75,-11.47c7.56,-4.65 13.98,-9.9 19.22,-16.73c4.02,1.93 9.24,6.11 13.6,10.65c0.39,0.4 -9.12,0.91 -9.14,1.48z" fill="rgb(0,0,0)" id="svg_126"/>
    <path d="m304.94,205.09c5.92,-2.72 11.01,-7.78 15.56,-13.57c-0.33,6.18 -1.54,15.24 -2.58,17.86c-3.63,9.15 -9.71,7.2 -12.98,-4.29z" fill="rgb(116,116,116)" id="svg_127"/>
    <path d="m309.21,201.7l-2.91,1.58c1.99,12.98 8.14,14.24 11.15,2.26q-3.31,7.74 -6.4,5.61c-1.49,-1.02 -2.76,-7.08 -1.84,-9.45z" fill="rgb(0,0,0)" id="svg_128"/>
    <path d="m308.47,205.09l1.85,-0.85l0.56,2.58l-1.67,1.93l-0.74,-3.66z" fill="rgb(0,0,0)" id="svg_129"/>
    <path d="m311.48,208.2l1.5,0.55l0.23,3.96l-2.66,-0.75l0.93,-3.76z" fill="rgb(0,0,0)" id="svg_130"/>
    <path d="m314.14,208.45l1.34,-1.12l0.9,0.87l-1.48,2.65l-0.76,-2.4z" fill="rgb(0,0,0)" id="svg_131"/>
    <path d="m321.81,190.82q5.96,2.28 10.86,8.19l-6.73,0.54l-0.42,-4.69l-0.78,4.54l-1.3,-2.92c1.52,6.08 0.91,11.71 -1.85,16.87l-5.54,1.25c3.72,-2.33 4.77,-10.57 5.76,-23.78z" fill="rgb(70,70,70)" id="svg_132"/>
   </g>
   <path d="m407.47,108.74c3.3,2.32 6.33,4.58 9.07,6.75l0.85,-1.21c-5.28,-4.33 -11.85,-8.97 -19.67,-13.88l0,0l0,0l0,0l-0.85,1.2c3.34,2.16 6.48,4.25 9.4,6.29l-2.96,4.19l1.2,0.85l2.96,-4.19zm-0.7,-7.29c-7.58,-4.45 -14.73,-5.71 -16.86,-2.7l0,0l0,0l0,0c-2.45,3.47 2.65,11.29 11.38,17.46c8.73,6.16 17.81,8.35 20.26,4.88c2.08,-2.94 -1.29,-9.03 -7.69,-14.57c0.72,1.38 -0.91,1.5 -1.73,0.15c2.23,1.57 0.89,-1.2 -5.36,-5.22l0,0zm0.36,-0.59c-8.37,-4.99 -16.31,-6.44 -18.66,-3.12l0,0l0,0c-2.66,3.77 2.91,12.29 12.43,19.02c9.53,6.73 19.43,9.12 22.09,5.35c2.36,-3.34 -1.74,-10.41 -9.32,-16.65l0,0l-0.04,-0.03c-0.59,-0.49 -1.2,-0.97 -1.84,-1.45l-7.97,-6.25l0.46,0.74l2.85,2.39l0,0l0,0z" fill="rgb(0,0,0)" fill-opacity="0.2" fill-rule="evenodd" id="T label"/>
  </g>
 </g>
</svg>