<svg xmlns="http://www.w3.org/2000/svg">

  <style id="config_styles" type="text/css">
  
    :root {

	      --outline-color: hsla(0,80%,12%,1);
        --bg-mask: url(#fade_mask);
        --accent-color: hsla(0,80%,30%,0.5);
        --shade-color: url(#dots);

        --bg-fill: url(newsprint.jpg);
        --bg-filter: url(#shake);

        /*
        --bg-opacity: 0.7;
        */

        /*
        --show-hearts: 1;
        --title-color: orange;
        --living-color: yellow;
        --things-color: blue;
        --circ1-color: green;
        --circ2-color: white;
        --heart-color: green;
        --square-color: purple;

        --border-color: red;
        --border-width: 9;

        --copy-color: brown;

        --outline-color: pink;
        */

    }


  </style>

  <style id="svg_styles" type="text/css">

    svg {
      background-image: var(--bg-fill, none);
      mask: var(--bg-mask, none);
    }
  
  </style>

  <style id="comic_styles" type="text/css">

    @font-face {
      font-family: 'Comic Neue';
      /* src: url('neue.ttf') format('truetype'); */
      src: url('ComingSoon.ttf') format('truetype');
    }
  
    text {
      font-family:'Comic Neue';
      font-weight: 400;
      font-size: 24px;
      fill: var(--text-color, var(--outline-color, #000));
    }
  
    .text-bubble {
      fill: none;
      stroke: var(--outline-color, #000);
      stroke-width: 1px;
    }

    .text-bubble + path {
      fill: var(--outline-color, #000);
    }

    #title {
      --title-color: var(--outline-color, #000);
    }

    #title_line {
      fill: var(--title-color, var(--outline-color, #000));
      height: 2px;
    }
    
    #copyright {
      font-family:'Times New Roman';
      font-weight: 300;
      font-size:17px;
      fill:var(--copy-color, var(--outline-color, #000));
    }

    .obj {
      fill: var(--outline-color, #000);
    }
  
    @media (orientation: portrait) {
      .land { display: none; }
      #title_line {width: 625px; }
    }
  
    @media (orientation: landscape) {
      .port { display: none; }
      #title_line { width: 1275px; }
    }
  
  </style>

  <style id="border_styles">

    .border {
     fill: none ;
     stroke: var(--border-color, var(--outline-color, #000));
     stroke-width: var(--border-width, 2); 
    }

    .slant {
      marker-start: url(#slant_cap);
      marker-end: url(#slant_cap);
    }

  </style>

  <defs id="pats_and_filters">

    <linearGradient id="fade" gradientUnits="objectBoundingBox">
      <stop offset="0%" stop-color="#000" stop-opacity="0"/>
      <stop offset="100%" stop-color="#000" />
    </linearGradient>

    <filter id="blur">
      <feGaussianBlur in="SourceGraphic" stdDeviation="0.3" />
    </filter>

    <filter id="shake" width="120%" height="220%" color-interpolation-filters="sRGB">
      <feImage href="newsprint.jpg" x="0" y="0" width="220%" height="120%" preserveAspectRatio="xMidYMid slice" result="mig" />
      <feDisplacementMap in="SourceGraphic" in2="mig" result="rat" scale="5" xChannelSelector="R" yChannelSelector="B" />
      <feGaussianBlur in="rat" stdDeviation="0.3" result="blur" />
      <!-- shift image back based on displacement's scale -->
      <feOffset in="blurred" dx="0.5" dy="5" result="final" />
    </filter>
    
    <pattern id="newsprint" patternUnits="userSpaceOnUse" width="100%" height="100%">
      <image href="newsprint.jpg" width="100%" height="100%" preserveAspectRatio="none" />
    </pattern>

    <pattern id="dots" viewBox="-2 -2 4 4" width="4" height="4"
     patternUnits="userSpaceOnUse" patternTransform="rotate(45) scale(0.5)">
     <circle r="1" fill="var(--outline-color, #000)" transform="scale(1)"/>
    </pattern>

  </defs>

  <defs id="clips_and_masks">

    <clipPath id="one_of_four_clip">
        <path d="M 0 0 H 300 V 400 H 0 Z"/>
    </clipPath>

    <mask id="fade_mask"
     maskUnits="objectBoundingBox"
     maskContentUnits="objectBoundingBox"
    >
      <linearGradient id="fade_gradient"
       x1="0%" y1="100%"
       x2="90%" y2="0%"
      >
        <stop offset="0%" stop-color="#fff" stop-opacity="1" />
        <stop offset="100%" stop-color="#fff" stop-opacity="0.4" />
      </linearGradient>
      <rect width="1" height="1" fill="url(#fade_gradient)" />
    </mask>

  </defs>

  <defs id="copyright_defs">
    <text id="copyright" transform="rotate(270)">
      <tspan letter-spacing="-0.04em">&#xA9;MCMLXXXVIII</tspan>
      <tspan letter-spacing="0.03em">&#xB7; Trilobyte</tspan>
    </text>
  </defs>
  
  <defs id="title_defs">
    <g id="title">
      <rect id="title_line" x="12.5" y="12.5" />
      <use href="title-test.svg#ikon" transform="translate(30 17) scale(2.5) " />
    </g>
  </defs>

  <defs id="border_defs">
    <path class="border" id="one_of_four_border" d=" M 0 0 H 300 V 400 H 0 Z " />
    <marker id="slant_cap" markerWidth="3" markerHeight="1"
            refX="1" refY="0.5" orient="auto-start-reverse" markerUnits="strokeWidth">
      <path d=" M 0 0 L 1 0 L 3 1 L 0 1 Z" fill="context-stroke"/>
    </marker>
  </defs>

 <defs id="character_defs">

  <g id="char_1" transform="translate(14 109) translate(14 -99)" >
   
   <g fill="var(--outline-color)" id="svg_130" transform="matrix(1 0 0 1 -46 -139)">

    <path d="m171.12,384.63c11.64,2.5 28.26,2.97 49.83,1.37q4.78,0.26 7.21,0.4l8.27,1.88c-32.56,1.26 -63.55,0.35 -93,-2.79q8.36,-0.53 27.69,-0.86z" />
     <path d="m196.58,329.04c11.29,-1.48 17.17,-0.46 17.6,3.05l-7.61,17.61l-3.18,9.72l4.98,2.36c-0.57,-3.36 -1.32,-10.96 -0.36,-13.95l1.56,-4.53c14.17,-3.09 24.46,-0.14 27.24,10.19l-6.31,6.75c3.83,12.41 3.27,20.57 -1.7,24.46l-30.2,2.44c4.23,-22.27 -4.25,-31.32 -27.55,-25.55c12.96,-15.73 21.47,-26.58 25.53,-32.55z" 
      fill="var(--accent-color)" />
    <path d="m170.12,311.07c6.3,4.37 14.63,3.81 24.95,-1.76c-11.14,3.94 -19.44,4.54 -24.95,1.76z" />
    <path d="m172.13,312.09c3.88,3.41 5.07,6.26 3.54,8.53c2.13,-1.78 11.77,-2.52 16.38,-1.57c1.73,-2.9 1.99,-5.79 0.25,-8.56c-8.37,3.08 -15.08,3.63 -20.17,1.6z" />
    <path d="m195.07,309.31l-2.72,2.13l-0.29,-0.84l3.01,-1.29z" />
    <path d="m194.39,319.53l-2.93,-0.64l0.32,-0.38l2.61,1.02z" />
    <path d="m194.39,319.53c-10.49,-1.35 -17.41,-0.55 -20.81,2.36c4.63,-4.01 11.58,-4.79 20.81,-2.36z" />
    <path d="m230.58,360.76c14.59,-13.89 12.8,-23.91 8.78,-26.97c-2.55,-1.95 -17.44,-1.04 -28.49,6.41l-1.01,3.48c14.21,-10.93 27.64,-9.39 28.73,-7.84c3.47,4.98 -0.15,15.27 -9.28,22.47l1.27,2.45l0,0z" />
    <path d="m171.05,360.52c20.35,-6.56 34.73,5.71 29.97,25.38l-4.74,0.45c8.67,-20.39 -6.84,-31.93 -28.01,-21.91l2.78,-3.92z" />
    <path d="m197.1,328.21c6.12,-1.3 17.33,-1.86 18.06,2.32l-2.25,4.1c0.84,-5.01 -4.6,-6.55 -16.33,-4.64l0.52,-1.78z" />
    <path d="m210.5,343.1c11.22,-3.74 29.06,1.59 26.31,10.39l-2.97,3.44c5.13,-11.84 -11.22,-16.59 -24.68,-11.93l1.34,-1.9z" />
    <path d="m210.5,323.98q-6.37,-2.1 -12.4,-0.73l-0.15,1.73q3.29,-1.73 12.55,-1z" />
    <path d="m217.08,315.51c-5.04,13.58 -13.58,27.76 -18.93,45.16c6.28,-18.45 17.19,-37.13 18.93,-45.16z" />
    <path d="m206.57,362.71c3.15,0.2 6.01,0.75 8.79,4.1c-1.92,-4.48 -5.82,-6.93 -10.39,-6.28l1.12,2.34l0.48,-0.16z" />
    <path d="m181.29,357.75l1.87,3.63l1.4,0.36l-2.26,-3.73l-1.01,-0.26z" />
    <path d="m185.16,357.88l1.42,3.83l1.34,0.53l-1.79,-3.98l-0.97,-0.38z" />
    <path d="m188.34,358.7l1.42,3.83l1.34,0.53l-1.79,-3.98l-0.97,-0.38z" />
    <path d="m192.06,360.06l0.42,4.06l1.17,0.84l-0.74,-4.29l-0.85,-0.61z" />
    <path d="m195.56,362.34l-0.7,4.02l0.89,1.13l0.46,-4.34l-0.65,-0.81z" />
    <path d="m198.15,365.21l-1.55,3.78l0.63,1.29l1.37,-4.13l-0.45,-0.94z" />
    <path d="m200.56,369.06l-2.73,3.18l0.22,1.42l2.67,-3.57l-0.16,-1.03z" />
    <path d="m202.06,373.81l-3.96,2.47l-0.09,1.43l3.99,-2.86l0.06,-1.04z" />
    <path d="m202.65,378.02l-5.16,1.9l-0.24,1.42l5.23,-2.3l0.17,-1.02z" />
    <path d="m202.49,381.67l-5.69,1.39l-0.38,1.39l5.8,-1.78l0.27,-1z" />
    <path d="m170.31,360.07l1.87,3.63l1.4,0.36l-2.26,-3.73l-1.01,-0.26z" />
    <path d="m172.4,359.01l1.88,3.63l1.39,0.36l-2.26,-3.73l-1.01,-0.26z" />
    <path d="m175.26,358.34l1.87,3.63l1.39,0.35l-2.26,-3.72l-1,-0.26z" />
    <path d="m178.03,357.79l1.87,3.63l1.39,0.35l-2.25,-3.72l-1.01,-0.26z" />
    <path d="m208.37,346.17q-0.96,11.64 1.42,15.61l-2.76,-0.69q-0.84,-2.8 -0.77,-9.36l2.11,-5.56z" />
    <path d="m207.45,367.17q0.11,-7.4 -3.5,-9.46l-0.66,2.57q2.58,1.12 4.16,6.89z" />
    <path d="m214.24,344.57l-2.13,-2.68l0,0c0.26,-0.03 0.53,-0.07 0.79,-0.09l0,0l2.29,2.55c-0.32,0.07 -0.64,0.14 -0.95,0.22zm3.52,-0.59l-2.08,-2.42l0,0l0,0c-0.27,0.02 -0.55,0.04 -0.83,0.06l1.88,2.47c0.35,-0.04 0.69,-0.08 1.03,-0.11zm3.05,-0.04l-1.86,-2.48l0,0l0,0c-0.27,0 -0.54,0 -0.82,0.01l1.62,2.44c0.35,0 0.71,0.01 1.06,0.03zm3.49,0.47l-1.77,-2.8l0,0l0,0c-0.28,-0.03 -0.56,-0.05 -0.85,-0.06l1.46,2.64c0.39,0.06 0.78,0.13 1.16,0.22zm3.15,0.98l-1.27,-3.27l0,0l0,0c-0.25,-0.05 -0.5,-0.1 -0.76,-0.14l0.97,3.01c0.36,0.12 0.72,0.26 1.06,0.4zm2.55,1.33l-0.49,-3.7l0,0l0,0c-0.23,-0.08 -0.45,-0.16 -0.68,-0.23l0.24,3.37c0.32,0.18 0.63,0.37 0.93,0.56zm1.87,1.51l0.39,-3.98l0,0l0,0c-0.19,-0.11 -0.38,-0.21 -0.58,-0.31l-0.55,3.62c0.26,0.22 0.5,0.44 0.74,0.67zm1.27,1.58l1.36,-3.98l0,0l0,0c-0.16,-0.15 -0.33,-0.29 -0.5,-0.42l-1.43,3.61c0.21,0.26 0.4,0.52 0.57,0.79zm0.92,1.97l2.37,-3.41l-0.1,-0.35l0,0l0,0c-0.07,-0.12 -0.15,-0.24 -0.23,-0.36l-2.43,3.1c0.15,0.33 0.29,0.67 0.39,1.02zm0.36,2.23l2.92,-3.28l0,0l0,0c-0.06,-0.29 -0.12,-0.58 -0.21,-0.86l-2.81,2.96l0,0.03c0.06,0.37 0.09,0.75 0.1,1.15zm-22.2,-8.82l-0.18,0l-2.47,-3.25l0,0l0,0l0,0l0.86,0.02l2.55,2.97c-0.26,0.08 -0.51,0.17 -0.76,0.26zm-2.03,0.89l-0.33,-0.01l-0.76,-1l0,0l0,0l0,0l0.31,-0.88l1.37,1.6c-0.19,0.09 -0.39,0.19 -0.59,0.29z" fill-rule="evenodd" id="svg_170"/>
    <path d="m225.15,351.99c10.35,9.18 13.84,30.31 2.14,35.05l-56.24,0.1c-6.02,0.17 -9.34,-10.7 -7.87,-15.67c4.52,-15.37 38.06,-40.78 32.88,-48.04l3.36,-0.89c4.97,6.51 -27.62,33.14 -32.54,48.42c-0.7,2.15 -0.97,9.34 3.82,12.25c4.78,2.91 15.57,2.78 29.22,2.69c12.41,0.03 22.72,-0.46 26.16,-1.2c7.85,-1.7 7.26,-21.2 -0.93,-32.71z" />
    <path d="m170.56,360.32l-1.65,3.1l-2.05,1.02c-1.13,-1.51 1.12,-4.35 3.7,-4.12z" />
    <path d="m201.98,364.86c3.35,-23.52 23.11,-53.47 18.95,-55.55c-13.31,-6.63 -40.44,-8.77 -55.19,-0.12c-2.05,1.21 6.62,4.18 7.15,8.85c0.18,1.5 -3.14,4.14 -1.84,5.04c5.54,3.85 19.9,3.24 41.86,-6.09c-25.84,13.51 -39.16,11.05 -45.48,6.93c-1.49,-0.97 2.3,-3.8 2.1,-5.41c-0.61,-5.01 -10.3,-9.32 -7.77,-10.52c17.38,-8.26 45.95,-7.55 61.16,-0.43c4.75,2.23 -16.11,40.7 -20.94,57.3z" />
   </g>

   <g id="stitches_1">
     <path d="m129.4,328.86l-2.41,-1.1c-2.97,-0.06 -4.92,6.8 -10.59,8.01c-7.79,1.66 -23.38,-11.31 -36.59,-8.29l-2.96,1.41l-0.42,3.02c14.29,-4.84 33.07,9.13 40.3,7.67c6.8,-1.37 9.7,-9.23 13.2,-8.16l-0.53,-2.56z" />
     <path d="m133.84,353.45c-7,-4.18 -11.02,-4.46 -12.84,-4.27c-8.07,0.81 -26.83,21.39 -38.71,21.98l1.64,3.21l4.16,0.78c13.31,-5.12 26.27,-21.72 33.28,-21.83c4.83,-0.08 8.42,1.05 11.31,4.96l2,-2.36l-0.84,-2.47z" />
   </g>

   <defs>

    <mask id="stitches_1_mask">
      <rect width="300" height="400" fill="#fff" />
      <use href="#stitches_1" fill="#000" />
    </mask>
   </defs>

   <g mask="url(#stitches_1_mask)" transform="matrix(1 0 0 1 -46 -139)"
     fill="var(--outline-color)"
   >
    <path d="m79.48,332.33c-8.94,13.07 -6.53,30.96 5.91,40.95c13.08,10.5 32.3,8.32 42.9,-4.86c2.27,-2.82 3.96,-5.92 5.09,-9.15c-7.44,9.72 -21.72,13.55 -34.96,8.5c-15.41,-5.87 -23.73,-21.6 -18.94,-35.44z" 
      fill="var(--shade-color)" />
    <ellipse cx="90.51" cy="385.86"  rx="33.92" ry="1.8"/>
    <path  d="m135.97,360.17c-4.02,12.77 -14.93,22.87 -29.05,25.2c-9.65,1.59 -19.04,-0.73 -26.55,-5.81l0,0l-4.01,-0.62l-0.96,-3.4c-5.46,-5.27 -9.33,-12.28 -10.67,-20.33l0,0c-1.33,-8.05 0.09,-15.94 3.57,-22.69l-0.07,-2.8l2.81,-1.69l0,0c5.47,-7.68 13.89,-13.27 23.93,-14.93c13.58,-2.24 26.66,3.28 34.68,13.31l0,0l2.17,0.93l-0.02,2.05c2.65,4.09 4.51,8.77 5.35,13.87c0.64,3.83 0.65,7.62 0.11,11.27l0.63,4l-1.92,1.64zm-61.94,-1.14c-6.1,-16.07 2.03,-34.06 18.13,-40.16c16.11,-6.09 34.14,2.01 40.24,18.09c6.1,16.07 -2.03,34.06 -18.14,40.16c-16.1,6.09 -34.13,-2.01 -40.23,-18.09l0,0l0,0l0,0l0,0z" fill-rule="evenodd" id="svg_176"/>
    </g>
    <use transform="matrix(1 0 0 1 -46 -139)" href="#stitches_1" fill="var(--accent-color)" />
  </g>

  <g id="char_2" transform="translate(10 109) matrix(1 0 0 1 -242 -254)">
   
   <g id="svg_46" fill="var(--outline-color)">
    <path d="m437.09,299.22c17.65,-2.31 30.88,-0.73 31.57,4.75l-9.55,38.72l-4.97,15.19l9.66,4.55q-0.89,-5.26 0,-29.75c22.16,-4.82 38.25,-0.21 42.59,15.93l-9.86,10.56c5.98,19.39 5.1,32.15 -2.66,38.24l-47.21,3.82c6.61,-34.83 -10.01,-47.96 -46.43,-38.94c20.25,-24.6 30.51,-53.73 36.86,-63.07z" 
    fill="var(--accent-color)" />
    <path d="m403.69,397.3c18.19,3.91 44.18,4.64 77.91,2.15q7.47,0.4 11.27,0.62l12.92,2.94c-50.91,1.97 -99.34,0.55 -145.39,-4.37q13.06,-0.83 43.29,-1.34z" />
    <path d="m403.58,359.61c31.81,-10.26 54.3,8.92 46.86,39.68l-7.41,0.7c13.55,-31.88 -10.7,-49.92 -43.79,-34.26l4.34,-6.12z" />
    <path d="m435.74,297.94c9.57,-2.03 32.62,-3.75 33.78,2.79l-1.86,7.37c1.31,-7.83 -14.39,-10.36 -32.73,-7.37l0.81,-2.79z" />
    <path d="m465.25,332.36c17.55,-5.84 45.44,2.49 41.14,16.25l-4.64,5.38c8.02,-18.51 -17.54,-25.94 -38.58,-18.65l2.08,-2.98z" />
    <path d="m456.13,292.76q-9.96,-3.27 -19.38,-1.13l-0.24,2.7q5.15,-2.71 19.62,-1.57z" />
    <path d="m468.66,284.22c-7.89,21.22 -14.35,48.41 -22.71,75.61c9.82,-28.84 19.98,-63.06 22.71,-75.61z" />
    <path d="m459.11,363.03c4.94,0.31 12.1,2.24 16.44,7.47c-2.99,-7 -11.8,-11.9 -18.94,-10.88l1.76,3.65l0.74,-0.24z" />
    <path d="m419.59,355.28l2.93,5.67l2.18,0.56l-3.53,-5.83l-1.58,-0.4z" />
    <path d="m430.61,356.77l2.22,5.98l2.09,0.82l-2.79,-6.21l-1.52,-0.59z" />
    <path d="m436.43,358.88l0.66,6.35l1.82,1.31l-1.16,-6.71l-1.32,-0.95z" />
    <path d="m441.91,362.45l-1.1,6.29l1.39,1.76l0.72,-6.77l-1.01,-1.28z" />
    <path d="m445.95,366.95l-2.42,5.9l0.98,2.02l2.15,-6.46l-0.71,-1.46z" />
    <path d="m449.72,372.96l-4.27,4.97l0.35,2.21l4.17,-5.57l-0.25,-1.61z" />
    <path d="m452.07,380.39l-6.19,3.85l-0.15,2.24l6.23,-4.47l0.11,-1.62z" />
    <path d="m452.99,386.96l-8.08,2.98l-0.36,2.22l8.17,-3.59l0.27,-1.61z" />
    <path d="m452.73,392.67l-8.9,2.18l-0.58,2.16l9.06,-2.77l0.42,-1.57z" />
    <path d="m402.43,358.9l2.92,5.68l2.18,0.56l-3.53,-5.83l-1.57,-0.41z" />
    <path d="m405.7,357.25l2.92,5.67l2.18,0.56l-3.53,-5.82l-1.57,-0.41z" />
    <path d="m410.16,356.19l2.92,5.68l2.18,0.56l-3.53,-5.83l-1.57,-0.41z" />
    <path d="m414.49,355.33l2.93,5.68l2.17,0.56l-3.52,-5.83l-1.58,-0.41z" />
    <path d="m466.12,329.94c14.76,-11.38 34.5,-17.54 44.26,-12.13c6.28,4.78 9.08,20.45 -13.73,42.17l0,0l-1.99,-3.83c14.28,-11.25 19.95,-27.35 14.51,-35.13c-6.59,-7.56 -37.08,6.59 -41.15,12.02c-3.13,4.2 -5.58,14.42 -2.19,29.71l-4.51,-1.56c-1.92,-8.67 -1.4,-26.46 4.8,-31.25z" />
    <path d="m461.32,370q-0.65,-11.57 -6.3,-14.79l-1.04,4.02q4.05,1.76 7.34,10.77z" />
    <path d="m471.1,334.66l-3.33,-4.19l0,0c0.42,-0.05 0.83,-0.09 1.24,-0.14l0,0l3.58,3.99c-0.5,0.11 -0.99,0.22 -1.49,0.34zm5.51,-0.91l-3.25,-3.78l0,0l0,0c-0.43,0.02 -0.86,0.05 -1.3,0.09l2.95,3.86c0.53,-0.07 1.07,-0.12 1.6,-0.17zm4.77,-0.07l-2.91,-3.87l0,0l0,0c-0.42,0 -0.85,0 -1.28,0.01l2.52,3.81c0.56,0 1.12,0.02 1.67,0.05zm5.45,0.73l-2.77,-4.37l0,0l0,0c-0.43,-0.04 -0.88,-0.07 -1.32,-0.1l2.28,4.13c0.61,0.1 1.21,0.21 1.81,0.34zm4.94,1.54l-2,-5.12l0,0l0,0c-0.39,-0.08 -0.78,-0.15 -1.18,-0.22l1.52,4.71c0.56,0.2 1.12,0.4 1.66,0.63zm3.98,2.09l-0.77,-5.8l0,0l0,0c-0.35,-0.12 -0.71,-0.24 -1.07,-0.36l0.38,5.28c0.51,0.28 0.99,0.57 1.46,0.88zm2.91,2.36l0.62,-6.23l0,0l0,0c-0.3,-0.17 -0.6,-0.34 -0.91,-0.49l-0.86,5.67c0.41,0.33 0.79,0.68 1.15,1.05zm2,2.47l2.12,-6.24l0,0l0,0c-0.25,-0.22 -0.51,-0.44 -0.78,-0.65l-2.23,5.65c0.32,0.4 0.62,0.81 0.89,1.24zm1.44,3.07l3.69,-5.33l-0.15,-0.55l0,0l0,0c-0.11,-0.19 -0.23,-0.37 -0.35,-0.56l-3.81,4.84c0.24,0.52 0.45,1.05 0.62,1.6zm0.55,3.48l4.56,-5.11l0,0l0,0c-0.08,-0.46 -0.18,-0.91 -0.31,-1.35l-4.4,4.63l0,0.04c0.09,0.58 0.14,1.18 0.15,1.79zm-34.71,-13.78l-0.28,0l-1.97,-2.65l0,0l0,0l0,0l1.34,0.03l2.08,2.22c-0.39,0.13 -0.78,0.26 -1.17,0.4zm-3.16,1.38l-0.52,-0.01l-1.2,-1.56l0,0l0,0l0,0l0.5,-1.37l2.14,2.49c-0.31,0.15 -0.62,0.3 -0.92,0.45z" fill-rule="evenodd" id="svg_78"/>
    <path d="m488.17,346.27c16.18,14.35 21.63,47.39 3.34,54.8l-87.93,0.16c-9.41,0.27 -14.6,-16.73 -12.31,-24.5c7.07,-24.04 50.39,-73.47 42.29,-84.83l5.25,-1.39c7.78,10.18 -34.06,61.53 -41.76,85.42c-1.08,3.36 -1.51,14.61 5.98,19.16c7.47,4.54 24.35,4.34 45.69,4.2c19.4,0.04 35.52,-0.72 40.9,-1.88c12.27,-2.66 11.35,-33.15 -1.45,-51.14z" />
    <path d="m402.81,359.3l-2.58,4.84l-3.2,1.59c-1.77,-2.35 1.76,-6.8 5.78,-6.43z" />
    <path d="m451.94,366.38c5.24,-36.77 27.01,-93.3 20.51,-96.54c-20.82,-10.38 -63.24,-13.73 -86.3,-0.19c-3.2,1.88 10.35,6.53 11.19,13.83c0.27,2.35 -4.92,6.47 -2.88,7.89c8.66,6 31.12,5.06 65.44,-9.53c-40.39,21.12 -61.22,17.28 -71.11,10.83c-2.33,-1.51 3.6,-5.94 3.29,-8.45c-0.95,-7.84 -16.1,-14.57 -12.15,-16.45c27.17,-12.91 71.85,-11.81 95.62,-0.67c7.44,3.48 -16.06,73.34 -23.61,99.28z" />
    <path d="m428.01,283.16q1.37,-3.57 0.28,-10.4l3.72,-2.92l-0.04,0.02c0.01,-0.01 0.02,-0.02 0.04,-0.03c-18.9,4.86 -31.86,5.81 -39.01,2.75c1.19,0.82 2.43,1.54 3.73,2.13q5.41,4.89 5.88,11l-4.2,1.98c10.18,1.2 21.06,0 32.55,-3.69l0,0l0,0l-2.95,-0.84z" />

   </g>

   <g fill="var(--outline-color)">
    <defs>
      <g id="stitches_2">
        <path d="m349.32,323.47l0,4.54c-2.88,-4.66 -17.37,-10.39 -27.86,-4.54c-9.86,5.51 -24.14,25.59 -42.94,29.53c-6.04,1.26 -10.64,-1.63 -10.09,-10.26l0,-7.29l4.43,-5.47c-3.75,11.84 -0.85,15.17 0.88,15.58c13.65,3.25 36.57,-23.31 44.5,-27.13c9.33,-4.5 21.93,-4.13 31.08,5.04z" />
        <path d="m346.13,379.49c-11.08,3.12 -46.94,-15.43 -62.52,-8.94c-5.29,2.2 -7.2,5.45 -5.76,9.72l-2.83,-2.08l-1.41,-3.99c0.27,-7.77 6.99,-11.81 15.59,-11.93c20.23,-0.28 45.96,15.05 55.26,11.56c6.43,-2.41 8.7,-5.88 10.49,-12.55l-0.48,10.85q-5.84,6.66 -8.34,7.36z" />
      </g>
      <mask id="stitches_2_mask">
        <rect width="800" height="800" fill="#fff"/>
        <use href="#stitches_2" fill="#000"/>
      </mask>
    </defs>

        <g mask="url(#stitches_2_mask)" >
          <path d="m280.8,327.36c-14.26,17.35 -13.07,42.95 3.27,58.61c17.17,16.45 44.61,15.76 61.23,-1.55c3.56,-3.71 6.33,-7.87 8.32,-12.29c-11.71,12.81 -32.37,16.44 -50.45,7.67c-21.05,-10.21 -30.86,-33.48 -22.37,-52.44z"
            fill="var(--shade-color)" />
          <ellipse cx="294.23" cy="405.88" rx="48.12" ry="2.55" />
          <path d="m260.35,372.39c-10.18,-26.81 3.37,-56.85 30.23,-67.04c26.87,-10.2 56.95,3.29 67.13,30.1c10.18,26.81 -3.36,56.85 -30.23,67.04c-26.87,10.2 -56.94,-3.29 -67.13,-30.1zm14,2.7c-12.99,-20.64 -6.74,-47.94 13.95,-60.93c20.69,-12.99 48.03,-6.78 61.02,13.85c12.99,20.64 6.74,47.95 -13.95,60.94c-20.69,12.99 -48.03,6.78 -61.02,-13.86z" 
          fill-rule="evenodd" id="svg_85" />
          <path d="m345.13,316.9l7.96,3.83l0,6.78l-7.96,-10.61z" />
          <path d="m270.78,319.8l-7.2,3.67l-1.14,9.35l8.34,-13.02z" />
          <path d="m269.95,386.99l3.24,7.84l8.57,0.41l-11.81,-8.25z" />
          <path d="m357.65,368.27l0.62,6.71l-4.65,4.42l4.03,-11.13z" />
        </g>
    <use href="#stitches_2" fill="var(--accent-color)" />


   </g>
  </g>

  <g id="char_3" transform="translate(-327 12) translate(60 0) matrix(1 0 0 1 -291 -138)" fill="var(--outline-color)" >
   <g id="svg_9" transform="translate(85 -3)">
    <g id="svg_10">
     <g id="svg_11">
      <path d="m540.33,360.67c6.64,-4.46 10.98,-5.61 12.87,-2.35c-2.46,9.39 -1.65,17.09 2.41,23.09c2.2,-0.09 4.37,0.07 6.52,0.44c0.11,-0.35 0.65,-0.71 1.6,-1.11c-0.38,-0.38 -0.44,-0.76 -0.19,-1.14c8.48,-2.19 14.65,0.2 14.26,6.01c-3.31,4.28 -6.83,7.34 -10.59,9.16l-16.57,0.51c2.61,-11.59 -2.4,-16.55 -13.15,-13.55c1.89,-2.61 3.63,-4.77 5.21,-6.48c2.16,-4.95 1.33,-9.43 -2.37,-14.58z" 
      fill="var(--accent-color)" />
      <path d="m538.54,394.22c4.91,1.54 13.26,1.73 25,0.55l3.26,0.11l5.06,1.02c-6.28,0.85 -19.48,0.85 -39.62,0l-17.26,-1.52q6.88,-0.19 23.56,-0.16z" />
      <path d="m556.24,381.78c2.95,-0.13 7,0.32 9.7,1.82c-1.86,-2.01 -6.34,-3.1 -10.78,-2.81l1.08,0.99z" />
      <path d="m541.96,381.32c-0.28,0.04 -0.55,0.09 -0.83,0.15l0.3,0.58l-0.64,-0.2l-0.12,-0.27c-0.28,0.07 -0.56,0.15 -0.85,0.24l0.3,0.59l-0.64,-0.2l-0.1,-0.24c-0.21,0.07 -0.41,0.15 -0.62,0.23l0.4,0.77l-0.64,-0.19l-0.17,-0.4c-0.53,0.23 -1.07,0.49 -1.62,0.79l1.14,-1.87l-0.2,-0.46l0.46,0.14l0.02,0.05c0.24,-0.09 0.47,-0.17 0.7,-0.24l-0.22,-0.51l0.46,0.14l0.13,0.26c0.32,-0.1 0.63,-0.18 0.94,-0.24l-0.23,-0.52l0.47,0.13l0.15,0.31c0.31,-0.06 0.62,-0.11 0.92,-0.15l-0.27,-0.59l0.47,0.14l0.21,0.41c0.36,-0.03 0.71,-0.04 1.05,-0.04l-0.23,-0.53l0.46,0.14l0.21,0.4c0.45,0.03 0.88,0.07 1.3,0.15l-0.19,-0.62l0.44,0.21l0.19,0.5c0.35,0.08 0.68,0.18 1,0.29l-0.18,-0.56l0.45,0.2l0.21,0.55c0.38,0.16 0.75,0.35 1.1,0.57l-0.05,-0.6l0.38,0.33l0.08,0.54c0.38,0.26 0.74,0.56 1.06,0.88l0.08,-0.53l0.3,0.44l-0.04,0.44c0.29,0.31 0.56,0.65 0.8,1.02l0.13,-0.36l0.21,0.5l-0.08,0.27c0.29,0.48 0.55,1.01 0.77,1.57l0.2,-0.29l0.08,0.55l-0.12,0.19c0.21,0.62 0.37,1.28 0.49,1.98l0.24,-0.18l-0.03,0.56l-0.14,0.11c0.07,0.56 0.11,1.13 0.11,1.72l0.33,-0.14l-0.08,0.55l-0.25,0.13c-0.01,0.44 -0.04,0.9 -0.08,1.36l0.34,-0.09l-0.13,0.53l-0.27,0.1c-0.07,0.53 -0.16,1.07 -0.28,1.63l-2.17,0.24c0.14,-0.38 0.27,-0.76 0.38,-1.13l-0.31,0.11l0.17,-0.74l0.35,-0.1c0.09,-0.34 0.17,-0.68 0.23,-1.01l-0.37,0.19l0.1,-0.76l0.4,-0.17c0.07,-0.43 0.12,-0.85 0.15,-1.26l-0.31,0.25l0.05,-0.76l0.29,-0.21c0,-0.54 -0.03,-1.06 -0.09,-1.55l-0.23,0.36l-0.1,-0.76l0.22,-0.3c-0.09,-0.44 -0.2,-0.86 -0.35,-1.26l-0.14,0.52l-0.29,-0.69l0.17,-0.48c-0.15,-0.32 -0.32,-0.63 -0.51,-0.91l-0.05,0.58l-0.41,-0.6l0.08,-0.51c-0.22,-0.27 -0.46,-0.52 -0.71,-0.75l0.08,0.51l-0.54,-0.45l-0.04,-0.46c-0.23,-0.17 -0.48,-0.33 -0.73,-0.47l0.14,0.37l-0.62,-0.28l-0.11,-0.37c-0.3,-0.12 -0.61,-0.23 -0.93,-0.31l0.2,0.52l-0.61,-0.28l-0.12,-0.36c-0.35,-0.07 -0.7,-0.11 -1.08,-0.13l0.27,0.5l-0.64,-0.19l-0.15,-0.33c-0.31,0 -0.63,0.02 -0.96,0.05l0.25,0.49l-0.64,-0.19l-0.1,-0.24z" fill-rule="evenodd" id="svg_15"/>
      <path d="m567.04,380.74q-4.82,-0.83 -6.21,0.82l1.74,0.49q0.81,-1.22 4.47,-1.31z" />
      <path d="m563.36,378.88c-0.96,0.45 -0.87,2.03 0.37,2.1l-0.37,-2.1z" />
      <path d="m578.37,381.55c0.65,-5.48 -9.89,-18.75 -12.25,-12.6c-0.44,1.16 -2.98,9.44 -1.37,10.28c-0.69,0.7 -0.61,1.24 0.22,1.6l-1.63,0c-0.04,-0.51 0.02,-1.27 0,-1.74c-1.4,-1.49 1.59,-10.89 2.43,-12.26c2.23,-3.62 14.27,5.63 13.71,14.34c-0.31,4.85 -5.28,10.79 -12.27,14.06c-10.08,1.06 -19.61,1.09 -28.62,0.05c-3.07,0.1 -4.76,-5.82 -4.01,-8.53q1.12,-4.07 7.56,-11.5l2.94,-1.87c-6.92,7.65 -8.24,10.13 -8.62,13.09c-0.16,1.22 -0.49,5.09 1.94,6.67c2.44,1.59 7.93,1.51 14.88,1.47c6.32,0.01 11.56,-0.25 13.32,-0.66c3.38,-0.78 11.11,-6.81 11.77,-12.4z" />
      <path d="m550.09,354.32c10.2,-4.66 18.88,3.53 22.66,2.52c5.88,-1.57 6.78,-11.42 0.6,-14.18c-6.04,-2.71 -39.17,8.43 -34.19,17.61c1.64,3.01 6.53,6.04 2.52,16.27l1.41,-1.93c3.42,-6 -0.06,-11.15 -2.36,-14.8c-4.77,-7.52 25.65,-18.58 32.1,-16.18c6.25,2.32 4.64,11.17 0,11.99c-4.4,0.78 -15.11,-7.13 -22.74,-1.3z" />
      <path d="m556.17,352.47l-1.5,0.25c-5.33,12.97 -4.37,23.66 0.94,29.22l1.59,0.98c-5.26,-7.03 -7.07,-19.49 -1.03,-30.45z" />
      <path d="m566.12,346.04c-1.6,3.25 -1.7,6.01 -0.34,8.28l1.26,0.35c-1.88,-1.49 -2.17,-4.36 -0.92,-8.63z" />
      <path d="m540.79,361.49c3.21,-4.41 10.58,-6.36 12.11,-2.18l0.3,-2.08c-4.42,-3.38 -10.48,0.36 -13.27,2.88l0.86,1.38z" />
      <path d="m568.46,347.01c2.39,1.73 4.94,2.46 7.63,2.17l-0.67,0.78l0.67,1.47c-2.2,-1.37 -4.31,-1.75 -6.35,-1.16l-1.28,1.16c-0.14,-0.79 -0.12,-2.24 0,-4.42z" />
      <path d="m538.34,380.68l-0.85,1.69l-1.04,0.55c-0.57,-0.82 0.57,-2.36 1.89,-2.24z" />
      <line id="svg_25" x1="578.31" x2="576.78" y1="384.97" y2="387.2"/>
      <path d="m564.96,378.2l0.27,0.38c-0.39,0.11 -0.76,0.23 -1.12,0.36l-0.72,1.18c0.37,-0.14 0.74,-0.28 1.11,-0.39l0.26,0.39c0.16,-0.07 0.32,-0.13 0.49,-0.19l-0.29,-0.34c0.27,-0.08 0.54,-0.15 0.82,-0.21l0.22,0.33c0.17,-0.04 0.34,-0.08 0.5,-0.12l-0.23,-0.31c0.29,-0.05 0.59,-0.1 0.88,-0.14l0.21,0.31c0.18,-0.02 0.37,-0.03 0.55,-0.05l-0.24,-0.31c0.38,-0.04 0.75,-0.06 1.12,-0.06l0.21,0.36c0.19,0 0.38,0.02 0.58,0.03l-0.26,-0.39c0.44,0.01 0.87,0.04 1.29,0.1l0.23,0.48c0.21,0.05 0.42,0.1 0.63,0.16l-0.31,-0.56c0.43,0.07 0.85,0.17 1.24,0.29l0.19,0.65c0.19,0.08 0.38,0.17 0.57,0.26l-0.25,-0.75c0.36,0.14 0.72,0.29 1.05,0.46l0.05,0.78c0.17,0.11 0.34,0.23 0.49,0.36l-0.1,-0.89c0.29,0.18 0.55,0.37 0.8,0.57l-0.11,0.83c0.14,0.13 0.27,0.27 0.4,0.41l0.07,-0.91c0.2,0.2 0.39,0.41 0.55,0.64l-0.26,0.75c0.11,0.15 0.22,0.32 0.31,0.48l0.23,-0.8c0.16,0.27 0.29,0.55 0.39,0.85l-0.34,0.5l0.02,0.09c0.08,0.18 0.14,0.36 0.19,0.55l0.31,-0.5c0.05,0.26 0.08,0.54 0.09,0.83l-0.25,0.31l0,0.08c0.03,0.21 0.05,0.43 0.05,0.65l0.18,-0.24c-0.06,0.64 -0.22,1.32 -0.49,2.04l1.59,-2.13c0.14,-0.52 0.18,-1.03 0.13,-1.51l0.15,-0.19c-0.03,-0.18 -0.07,-0.36 -0.11,-0.54l-0.14,0.18c-0.08,-0.32 -0.2,-0.62 -0.35,-0.91l0.11,-0.19l-0.05,-0.22c-0.04,-0.07 -0.08,-0.15 -0.12,-0.22l-0.17,0.24c-0.22,-0.34 -0.49,-0.66 -0.81,-0.96l0.12,-0.42c-0.08,-0.08 -0.17,-0.17 -0.26,-0.26l-0.14,0.42c-0.26,-0.22 -0.53,-0.43 -0.83,-0.62l0.04,-0.51c-0.1,-0.07 -0.2,-0.13 -0.31,-0.2l-0.06,0.5c-0.33,-0.2 -0.67,-0.38 -1.04,-0.54l-0.05,-0.52c-0.12,-0.05 -0.24,-0.1 -0.37,-0.15l0.03,0.5c-0.41,-0.17 -0.84,-0.32 -1.28,-0.45l-0.16,-0.46c-0.13,-0.03 -0.26,-0.06 -0.4,-0.09l0.11,0.42c-0.47,-0.12 -0.97,-0.22 -1.47,-0.3l-0.19,-0.35c-0.14,-0.01 -0.29,-0.02 -0.45,-0.03l0.16,0.32c-0.48,-0.06 -0.96,-0.1 -1.44,-0.11l-0.17,-0.27c-0.14,0 -0.29,0.01 -0.44,0.01l0.15,0.26c-0.42,0 -0.84,0.02 -1.26,0.06l-0.19,-0.26c-0.15,0.01 -0.3,0.02 -0.45,0.03l0.19,0.29c-0.32,0.04 -0.64,0.1 -0.96,0.17l-0.27,-0.35c-0.13,0.02 -0.27,0.04 -0.42,0.06z" fill-rule="evenodd" id="svg_26"/>
     </g>
    </g>
    <g id="svg_27">
     <ellipse cx="507.68" cy="388.85"  rx="17.39" ry="0.92"/>
     <path d="m530.99,375.67c-2.06,6.55 -7.65,11.73 -14.9,12.93c-4.95,0.82 -9.77,-0.38 -13.62,-2.98l0,0l-2.05,-0.32l-0.49,-1.74c-2.8,-2.71 -4.79,-6.3 -5.47,-10.43l0,0c-0.69,-4.13 0.04,-8.17 1.83,-11.63l-0.04,-1.44l1.44,-0.87l0,0c2.81,-3.94 7.12,-6.8 12.27,-7.65c6.97,-1.15 13.68,1.68 17.79,6.82l0,0l1.11,0.48l-0.01,1.05c1.36,2.1 2.31,4.5 2.75,7.11c0.32,1.97 0.33,3.91 0.05,5.78l0.32,2.05l-0.98,0.84zm-31.77,-0.58c-3.12,-8.24 1.04,-17.47 9.3,-20.59c8.26,-3.13 17.51,1.03 20.64,9.27c3.12,8.24 -1.04,17.47 -9.3,20.6c-8.26,3.12 -17.51,-1.04 -20.64,-9.28l0,0l0,0l0,0l0,0z" fill-rule="evenodd" id="svg_29"/>
     <g id="svg_30" opacity="0.51">
      <path d="m502.02,361.4c-4.58,6.7 -3.35,15.88 3.03,21c6.71,5.38 16.56,4.26 22,-2.5c1.17,-1.44 2.03,-3.03 2.61,-4.68c-3.81,4.98 -11.14,6.94 -17.92,4.35c-7.91,-3.01 -12.18,-11.07 -9.72,-18.17z" 
      fill="var(--shade-color)" />
     </g>
     <path d="m527.62,359.62l-1.23,-0.56c-1.53,-0.04 -2.53,3.48 -5.44,4.1c-3.99,0.85 -11.99,-5.8 -18.76,-4.25l-1.52,0.72l-0.21,1.55c7.33,-2.48 16.95,4.69 20.66,3.94c3.49,-0.71 4.98,-4.74 6.77,-4.19l-0.27,-1.31z" 
     fill="var(--accent-color)" />
     <path d="m529.9,372.23c-3.59,-2.14 -5.65,-2.29 -6.59,-2.19c-4.14,0.41 -13.76,10.97 -19.85,11.27l0.84,1.65l2.14,0.4c6.82,-2.63 13.47,-11.14 17.06,-11.2c2.48,-0.04 4.32,0.54 5.8,2.55l1.03,-1.21l-0.43,-1.27z" 
     fill="var(--accent-color)" />
    </g>
    <g id="svg_34">
     <path d="m588.47,311.5l88.35,-25.45l56.6,18.69l-1.87,32.35l-54.73,-10.16l-85.51,14.08l-2.84,-29.51z" 
     xxx-fill="var(--accent-color)" 
     fill="sketch(
      fill: var(--accent-color),
      fillWeight: 8,
      hachureGap:8,
      hachureAngle: 30,
      stroke: none,
      roughness: 4,
      )"
     />
     <path d="m639.32,280.57c-7.12,1.75 -14.3,3.79 -21.52,6.13l0,0l-16.17,-87.27c7.81,-3.92 16.79,-7.15 25.38,-9.23l12.31,90.37zm4.71,-1.11c6.9,-1.58 13.75,-2.87 20.54,-3.89c-0.23,-29.44 -2.1,-57.66 -5.63,-84.71c-4.86,-3.98 -15.77,-4.03 -28,-1.54l13.09,90.14zm-30.73,8.73c-5.02,1.7 -10.06,3.54 -15.14,5.53c-0.01,-26.7 -7.96,-52.11 -18.51,-74.02c1.36,-6.24 8.07,-12.42 17.12,-17.66l16.53,86.15l0,0z" fill-rule="evenodd" id="svg_36"/>
     <path d="m703.96,219.7l0,55.87l29.46,12.66l0,-61.42l-29.46,-7.11z" />
     <path d="m562.09,213.74c18.69,28.34 26.49,71.64 26.46,130.24l15.4,1.17l-2.43,12.63l26.36,3.48c6.75,12.16 26.34,11.46 34.06,1.75c5.78,7.43 16.87,9.84 30.02,6.97q9.67,2.08 38.86,0l0.73,-35.31l-53.13,-11.81c-26.9,1.14 -54.81,5.89 -83.75,14.23c-2.15,-54.62 -12.7,-99.77 -28.67,-124.11c19.21,-37.55 99.75,-67.88 112.42,-14.16c-11.33,-63.78 -109.89,-17.34 -116.33,14.92zm155.94,134.67c0,10.5 -6.94,19.02 -15.48,19.02c-8.54,0 -16.32,-12.95 -16.32,-23.45l31.8,4.43z" fill-rule="evenodd" id="svg_38"/>
     <path d="m651.05,168.18q47.67,20.27 87.58,26.39l0,9.04q-39.31,-9.91 -69.8,-24.47c0.02,-1.26 -5.9,-4.9 -17.78,-10.96z" />
     <path d="m677.88,226.81l-1.55,8.73l0.3,48.61c-31.64,5.96 -60.08,14.5 -85.32,25.59l-2.84,5.72c24.33,-11.47 53.8,-20.53 88.35,-27.23l0,27.23l1.6,-27.23l53.13,15.13l-53.13,-19.21l-0.54,-57.34z" />
     <path d="m639.14,367.46l-66.89,3.87l145.95,0l-3.8,-3.87l-11.39,0l-63.87,0z" />
    </g>
   </g>
  </g>

  <g id="char_4" transform="translate(-544 14) translate(-79 9) matrix(1 0 0 1 -105 -163)" fill="var(--outline-color)" >
   <g id="svg_104">
    <path d="m903.26,327.68l121.72,-35.88l78,26.34l-2.59,45.61l-75.41,-14.32l-117.81,19.84l-3.91,-41.59z" 
    fill="sketch(
      fill: var(--accent-color),
      fillWeight: 4,
      hachureGap: 6,
      stroke: none,
      roughness: 4
    )" />
    
    <path d="m973.32,284.08c-9.81,2.47 -19.7,5.35 -29.65,8.64l0,0l-22.28,-123.01c10.77,-5.53 23.14,-10.07 34.97,-13.01l16.96,127.38zm6.5,-1.57c9.5,-2.22 18.93,-4.04 28.29,-5.48c-0.32,-41.49 -2.89,-81.28 -7.76,-119.4c-6.69,-5.6 -21.72,-5.68 -38.58,-2.16l18.05,127.04zm-42.34,12.3c-6.92,2.41 -13.87,5.01 -20.86,7.81c-0.01,-37.63 -10.98,-73.46 -25.51,-104.34c1.87,-8.79 11.12,-17.5 23.59,-24.88l22.78,121.41l0,0z" fill-rule="evenodd" id="svg_106"/>
    <path d="m1062.38,198.28l0,78.75l40.6,17.84l0,-86.56l-40.6,-10.03z" />
    <path d="m866.92,189.87c25.74,39.96 36.5,100.99 36.45,183.59l21.22,1.65l-3.35,17.8l36.32,4.91c9.31,17.13 36.29,16.14 46.93,2.46c7.96,10.48 23.25,13.87 41.35,9.82q13.34,2.94 53.55,0l1,-49.76l-73.2,-16.65c-37.06,1.61 -75.51,8.31 -115.39,20.06c-2.96,-76.99 -17.49,-140.63 -39.5,-174.94c26.47,-52.92 137.44,-95.68 154.89,-19.95c-15.61,-89.91 -151.4,-24.45 -160.27,21.01zm214.85,189.83c0,14.8 -9.56,26.81 -21.33,26.81c-11.77,0 -22.49,-18.25 -22.49,-33.05l43.82,6.24z" fill-rule="evenodd" id="svg_108"/>
    <path d="m989.48,125.67q65.68,28.57 120.67,37.19l0,12.74q-54.16,-13.96 -96.18,-34.48c0.03,-1.78 -8.12,-6.92 -24.49,-15.45z" />
    <path d="m1026.45,208.31l-2.14,12.31l0.42,68.51c-43.6,8.39 -82.77,20.43 -117.56,36.07l-3.91,8.06c33.53,-16.17 74.12,-28.95 121.72,-38.39l0,38.39l2.21,-38.39l73.2,21.33l-73.2,-27.07l-0.74,-80.82z" />
   </g>
   <g id="svg_111">
    <path d="m753.31,339.92c16.3,-10.96 26.95,-13.78 31.59,-5.77c-6.03,23.04 -4.05,41.94 5.92,56.68c5.39,-0.22 10.73,0.15 16,1.08c0.27,-0.86 1.59,-1.76 3.92,-2.75c-0.92,-0.93 -1.06,-1.84 -0.46,-2.78c20.82,-5.38 35.97,0.49 35,14.74c-8.11,10.51 -16.76,18.02 -25.99,22.5l-40.68,1.25c6.4,-28.45 -5.88,-40.63 -32.26,-33.26c4.62,-6.42 8.89,-11.71 12.78,-15.91c5.29,-12.15 3.26,-23.15 -5.82,-35.78z" 
    fill="var(--accent-color)" />
    <path d="m792.36,391.73c7.25,-0.32 17.19,0.78 23.81,4.46c-4.56,-4.93 -15.56,-7.6 -26.45,-6.88l2.64,2.42z" />
    <path d="m757.3,390.6c-0.66,0.09 -1.34,0.21 -2.03,0.36l0.74,1.42l-1.57,-0.47l-0.3,-0.68c-0.69,0.17 -1.38,0.37 -2.09,0.6l0.75,1.43l-1.57,-0.47l-0.26,-0.6c-0.5,0.18 -1,0.37 -1.5,0.57l0.98,1.89l-1.57,-0.47l-0.44,-0.99c-1.3,0.57 -2.62,1.22 -3.96,1.96l2.79,-4.59l-0.5,-1.14l1.14,0.34l0.06,0.12c0.57,-0.21 1.15,-0.41 1.71,-0.59l-0.55,-1.25l1.13,0.34l0.33,0.64c0.78,-0.23 1.55,-0.42 2.31,-0.59l-0.56,-1.28l1.13,0.34l0.39,0.74c0.76,-0.14 1.5,-0.26 2.24,-0.35l-0.64,-1.45l1.13,0.34l0.53,1.01c0.88,-0.07 1.74,-0.11 2.58,-0.1l-0.57,-1.3l1.13,0.34l0.52,0.99c1.09,0.05 2.15,0.17 3.19,0.36l-0.49,-1.51l1.1,0.49l0.47,1.24c0.84,0.2 1.66,0.44 2.45,0.72l-0.44,-1.38l1.09,0.5l0.52,1.33c0.94,0.41 1.84,0.87 2.71,1.4l-0.13,-1.45l0.95,0.79l0.19,1.33c0.93,0.64 1.8,1.36 2.61,2.16l0.19,-1.29l0.73,1.07l-0.1,1.07c0.71,0.78 1.36,1.62 1.97,2.51l0.31,-0.88l0.51,1.22l-0.19,0.66c0.72,1.2 1.35,2.48 1.88,3.85l0.51,-0.69l0.18,1.35l-0.29,0.45c0.52,1.53 0.92,3.15 1.2,4.87l0.6,-0.44l-0.08,1.36l-0.34,0.29c0.17,1.36 0.26,2.76 0.28,4.21l0.8,-0.35l-0.19,1.35l-0.62,0.32c-0.02,1.09 -0.09,2.21 -0.2,3.36l0.83,-0.24l-0.31,1.32l-0.67,0.24c-0.17,1.3 -0.39,2.63 -0.67,3.99l-5.33,0.59c0.34,-0.94 0.65,-1.86 0.92,-2.77l-0.76,0.27l0.42,-1.81l0.85,-0.25c0.22,-0.84 0.42,-1.67 0.58,-2.48l-0.92,0.47l0.26,-1.86l0.98,-0.42c0.17,-1.06 0.28,-2.09 0.35,-3.1l-0.74,0.62l0.1,-1.88l0.71,-0.51c0.02,-1.32 -0.05,-2.59 -0.2,-3.8l-0.56,0.88l-0.25,-1.86l0.53,-0.73c-0.21,-1.09 -0.49,-2.12 -0.85,-3.1l-0.36,1.26l-0.71,-1.69l0.42,-1.17c-0.37,-0.79 -0.78,-1.53 -1.24,-2.23l-0.13,1.42l-1,-1.47l0.19,-1.25c-0.54,-0.66 -1.12,-1.28 -1.74,-1.84l0.18,1.25l-1.31,-1.1l-0.1,-1.15c-0.57,-0.41 -1.17,-0.79 -1.8,-1.13l0.34,0.89l-1.5,-0.69l-0.29,-0.89c-0.73,-0.31 -1.49,-0.56 -2.28,-0.77l0.5,1.27l-1.51,-0.69l-0.28,-0.88c-0.85,-0.16 -1.73,-0.26 -2.64,-0.32l0.64,1.24l-1.56,-0.47l-0.36,-0.8c-0.77,0 -1.57,0.04 -2.38,0.11l0.63,1.21l-1.57,-0.47l-0.26,-0.59z" fill-rule="evenodd" id="svg_114"/>
    <path d="m818.88,389.16q-11.85,-2.03 -15.24,2.03l4.27,1.19q1.97,-2.97 10.97,-3.22z" />
    <path d="m812.61,386.72l0.11,-1.95l-2.11,-0.56c-2.37,1.1 -2.89,5.04 0.13,5.21c-0.8,-1.44 0.57,-2.35 1.87,-2.7z" />
    <path d="m846.68,391.15c2.75,-9.45 -1.22,-15.86 -16.04,-20.14c12.97,1.79 22.12,8.13 18.77,20.9c-3,11.48 -12.97,24.81 -30.12,32.83c-24.73,2.6 -48.13,2.67 -70.26,0.13c-7.53,0.23 -11.67,-14.29 -9.84,-20.94q2.75,-10 18.55,-28.23l7.24,-4.59c-17,18.78 -20.24,24.86 -21.17,32.14c-0.38,2.99 -1.21,12.48 4.78,16.37c5.97,3.88 19.45,3.71 36.51,3.59c15.51,0.04 28.38,-0.61 32.68,-1.6c8.3,-1.92 25.06,-17.24 28.9,-30.46z" id="svg_117"/>
    <path d="m777.26,324.32c25.04,-11.44 43.45,7.94 52.71,5.47c14.44,-3.86 16.65,-28.04 1.5,-34.82c-14.84,-6.64 -93.26,21.43 -81.03,43.96c4.02,7.39 16.03,14.81 6.18,39.93l3.46,-4.73c8.41,-14.72 -0.13,-27.38 -5.8,-36.33c-11.7,-18.47 60.05,-46.35 75.9,-40.45c15.34,5.7 11.38,27.41 0,29.44c-10.79,1.92 -34.18,-16.79 -52.92,-2.47z" />
    <path d="m792.19,319.79l-3.68,0.6c-13.07,31.85 -10.74,58.08 2.31,71.74l3.9,2.4c-12.92,-17.26 -17.35,-47.85 -2.53,-74.74z" />
    <path d="m814.67,307.2q-4.68,11.42 1.86,17.84l3.09,0.87q-8.67,-6.46 -4.95,-18.71z" />
    <path d="m754.44,341.91c7.89,-10.81 25.96,-15.6 29.73,-5.35l0.73,-5.1c-10.84,-8.28 -25.74,0.89 -32.56,7.08l2.1,3.37z" />
    <path d="m821.86,303.32c7.13,5.2 12.16,5.95 15.74,4.2l-1.39,3.27l1.28,7.33c-2.84,-2.86 -6.19,-3.86 -13.09,-2.25l-2.65,2.25c-2.03,-1.81 -1.91,-10.89 0.11,-14.8z" />
    <path d="m810.28,385.72q-4.43,-14.26 -3.93,-19.5c0.86,-8.85 48.69,-14.92 52.26,-8.61q2.71,4.78 -17.47,17.51l-3.65,-2.11q18.96,-9.56 17.98,-12.63c-2.28,-7.12 -42.65,-1.28 -45.62,7.37q-1.1,3.19 4.67,17.37l-4.24,0.6z" />
    <path d="m863.23,352.11c5.56,-0.19 7.65,1.36 6.05,4.63c-0.62,1.29 -2.63,3.75 -6.05,7.35c5.25,-7.14 5.75,-11.14 0,-11.98z" />
    <path d="m858.93,353.02c5.57,-0.19 7.66,1.36 6.06,4.63c-0.63,1.29 -2.64,3.75 -6.06,7.35c5.25,-7.13 5.75,-11.14 0,-11.98z" />
    <path d="m748.41,389.04l-2.06,4.13l-2.56,1.36c-1.41,-2.01 1.4,-5.81 4.62,-5.49z" />
    <line id="svg_127" x1="846.55" x2="842.79" y1="399.55" y2="405.02"/>
    <path d="m813.78,382.93l0.65,0.96c-0.95,0.24 -1.87,0.53 -2.76,0.88l-1.75,2.89c0.9,-0.36 1.81,-0.69 2.73,-0.98l0.63,0.96c0.39,-0.16 0.79,-0.31 1.19,-0.44l-0.71,-0.85c0.67,-0.18 1.34,-0.35 2.01,-0.5l0.55,0.79c0.41,-0.1 0.82,-0.2 1.24,-0.28l-0.58,-0.76c0.72,-0.14 1.45,-0.25 2.18,-0.34l0.49,0.76c0.46,-0.05 0.91,-0.09 1.36,-0.13l-0.58,-0.77c0.93,-0.08 1.84,-0.13 2.75,-0.14l0.5,0.88c0.48,0.01 0.95,0.04 1.42,0.08l-0.62,-0.96c1.07,0.03 2.12,0.11 3.15,0.23l0.57,1.2c0.52,0.11 1.03,0.23 1.54,0.38l-0.75,-1.37c1.05,0.18 2.07,0.42 3.05,0.71l0.45,1.6c0.48,0.2 0.94,0.42 1.4,0.65l-0.62,-1.85c0.91,0.33 1.77,0.7 2.58,1.12l0.12,1.92c0.43,0.28 0.84,0.57 1.23,0.87l-0.25,-2.17c0.7,0.43 1.35,0.89 1.95,1.4l-0.26,2.02c0.34,0.33 0.66,0.68 0.97,1.03l0.19,-2.23c0.49,0.48 0.93,1 1.33,1.55l-0.62,1.84c0.27,0.38 0.52,0.78 0.75,1.19l0.58,-1.96c0.38,0.66 0.7,1.35 0.95,2.09l-0.83,1.23l0.04,0.2c0.18,0.44 0.34,0.9 0.47,1.37l0.74,-1.25c0.13,0.66 0.21,1.33 0.24,2.04l-0.62,0.76l0,0.2c0.07,0.52 0.11,1.05 0.12,1.59l0.45,-0.58c-0.15,1.56 -0.54,3.23 -1.2,5l3.89,-5.21c0.34,-1.29 0.44,-2.53 0.32,-3.71l0.36,-0.48c-0.06,-0.44 -0.15,-0.88 -0.26,-1.31l-0.34,0.43c-0.2,-0.78 -0.49,-1.52 -0.87,-2.24l0.28,-0.47l-0.12,-0.52c-0.1,-0.19 -0.2,-0.37 -0.3,-0.55l-0.41,0.6c-0.55,-0.84 -1.22,-1.63 -1.99,-2.37l0.3,-1.02c-0.21,-0.21 -0.42,-0.43 -0.65,-0.63l-0.34,1.01c-0.63,-0.54 -1.31,-1.05 -2.04,-1.52l0.11,-1.25c-0.25,-0.16 -0.51,-0.32 -0.77,-0.48l-0.15,1.21c-0.8,-0.47 -1.65,-0.91 -2.54,-1.32l-0.15,-1.28c-0.29,-0.12 -0.58,-0.24 -0.89,-0.35l0.08,1.21c-1.01,-0.41 -2.07,-0.78 -3.16,-1.11l-0.38,-1.12c-0.32,-0.07 -0.65,-0.14 -0.99,-0.21l0.29,1.04c-1.18,-0.31 -2.39,-0.56 -3.61,-0.75l-0.47,-0.85c-0.36,-0.03 -0.73,-0.07 -1.11,-0.09l0.38,0.78c-1.17,-0.14 -2.34,-0.23 -3.52,-0.26l-0.42,-0.65c-0.36,0 -0.72,0 -1.08,0.01l0.36,0.63c-1.03,0.01 -2.06,0.07 -3.08,0.17l-0.48,-0.66c-0.36,0.03 -0.72,0.06 -1.09,0.09l0.46,0.7c-0.8,0.1 -1.58,0.24 -2.36,0.41l-0.65,-0.84c-0.34,0.04 -0.69,0.09 -1.03,0.13z" />
   </g>
  </g>

 </defs>

  <defs id="panel_defs">

    <g id="panel_1">

      <g clip-path="url(#one_of_four_clip)">

        <g transform="translate(150 30)">
          <text text-anchor="middle">
            <tspan>Do you know why there </tspan>
            <tspan x="0" dy="1em">
                are wheelchair exits on 
            </tspan>
            <tspan x="0" dy="1em">
                all the T-lines?
            </tspan>
          </text>
        </g>
        <rect class="text-bubble" width="286" height="80" x="7" y="7" />
        <path d="m 260 87 h5 l -15 50 z " />

        <g transform="translate(22 129)">
          <text text-anchor="start">
            <tspan>I guess so more </tspan>
            <tspan x="0" dy="1em">
                people can use
            </tspan>
            <tspan x="0" dy="1em">
                public transit?
            </tspan>
          </text>
        </g>
        <rect class="text-bubble" width="200" height="90" x="7" y="100" />
        <path d="m 30 190 h5 l 7 20 z " />

        <g transform="translate(-50 0) scale(1.5)">
          <use href="#char_1" />
        </g>

      </g>

      <use href="#one_of_four_border" />

    </g>

    <g id="panel_2">

      <g clip-path="url(#one_of_four_clip">

        <style>
          #dialog_p2 > tspan {
            font-size: 21px;
          }
        </style>

        <g transform="translate(150 32)">
          <text id="dialog_p2" text-anchor="middle" >
            <tspan>No, it's because, by the time</tspan>
            <tspan x="0" dy="1em" >
               your train gets there, most
            </tspan>
            <tspan x="0" dy="1em" >
              of the passengers will be 
            </tspan>
            <tspan x="0" dy="1.2em" font-style="italic"
              style="font-size:26px"
            >
              over the age of EIGHTY.
            </tspan>

          </text>
        </g>
        <rect class="text-bubble"
          width="286" height="110"
          x="7" y="7"
        />
        <path d="m 225 117 h5 l -15 20 z " />

        <g transform="translate(45 180)">
          <text text-anchor="middle"
          transform="rotate(-10)"
          >
            <tspan >HA</tspan>
            <tspan dx="-1ch" dy="0.4em">HA</tspan>
            <tspan dx="-1ch" dy="0.4em">HA</tspan>
          </text>
        </g>
        <use transform="translate(-60 10) scale(1.4)" 
        href="#char_2" />

      </g>

      <use href="#one_of_four_border" />

    </g>

    <g id="panel_3">

      <g clip-path="url(#one_of_four_clip">

        <g transform="translate(100 32)">
          <text text-anchor="middle">
            <tspan 
              font-size="32"
              font-weight="700"
              font-style="italic"
            >
              I don't get it.
            </tspan>
          </text>
        </g>
        <!--path class="obj" d="M80 45 h5 l10 25 z"/-->

        <g transform="translate(-25 10) scale(1.25)">
          <use href="#char_3"  />
        </g>
      </g>

      <!-- <use href="#one_of_four_border" /> -->

    </g>

    <g id="panel_4">

      <g clip-path="url(#one_of_four_clip">

        <g transform="translate(17 32)">
          <text text-anchor="start">
            That's because
            <tspan x="0" dy="1em">
              you're SLOW
            </tspan>
            <tspan x="0" dy="100">
              Which was ... 
            </tspan>
            <tspan x="4ch" dy="1em">
              <tspan font-style="italic">the point</tspan>
            </tspan>
          </text>
        </g>
        <rect class="text-bubble" width="180" height="60"
          x="7" y="7"
        />

        <path class="border" d="M40 67 V 130" />
        <path class="text-bubble" d="
        M180 130 H 7
        V 190 H 190 V 140
        "/>

        <path d="M 40 190 h5 l 20 35 z " />

        <use href="#char_4" transform="translate(0 60) scale(1.25)" />

      </g>

      <use href="#one_of_four_border" />

    </g>

  </defs>

  <g id="haxxor" style="
    filter: var(--bg-filter, none);
    opacity: var(--bg-opacity, 1);
  ">

  <svg class="land" viewBox="0 0 1300 520">

    <use href="#title"/>
    <g transform="translate(0 80)">
      <use href="#copyright" transform="translate(976 395)" />
      <use href="#panel_1" transform="translate(20 0)" />
      <use href="#panel_2" transform="translate(340 0)" />
      <use href="#panel_3" transform="translate(660 0)" />
      <use href="#panel_4" transform="translate(980 0)" />
    </g>

  </svg>

  <svg class="port" viewBox="0 0 650 905"> 
    <use href="#title" />
    <g transform="translate(0 80)">
      <use href="#copyright" transform="translate(330 814)" />
      <use href="#panel_1" transform="translate(15 0)" />
      <use href="#panel_2" transform="translate(335 0)" />
      <use href="#panel_3" transform="translate(15 420)" />
      <use href="#panel_4" transform="translate(335 420)" />
    </g>
  </svg>
  
  </g>

</svg>
