<?xml version="1.0" encoding="UTF-8" standalone="no"?><!-- Generator: Gravit.io --><svg xmlns="http://www.w3.org/2000/svg" xmlns:xlink="http://www.w3.org/1999/xlink" style="isolation:isolate" viewBox="38.4 139 913.2 276" width="913.2pt" height="276pt"><defs><clipPath id="_clipPath_oHgQUuQ6shmD8kKWS2TMvMEncndsVXQY"><rect x="38.4" y="139" width="913.2" height="276"/></clipPath></defs><g clip-path="url(#_clipPath_oHgQUuQ6shmD8kKWS2TMvMEncndsVXQY)"><g><rect x="500.7" y="140.5" width="219" height="273" transform="matrix(1,0,0,1,0,0)" fill="transparent" vector-effect="non-scaling-stroke" stroke-width="3" stroke="rgb(30,30,30)" stroke-linejoin="miter" stroke-linecap="square" stroke-miterlimit="2"/><rect x="502.2" y="142" width="216" height="270" transform="matrix(1,0,0,1,0,0)" fill="none"/><clipPath id="_clipPath_PIMJAVcNRSZ5aO0E4A4F0JzzNgU3Tn0j"><rect x="500.7" y="140.5" width="219" height="273" transform="matrix(1,0,0,1,0,0)" fill="transparent" vector-effect="non-scaling-stroke" stroke-width="3" stroke="rgb(30,30,30)" stroke-linejoin="miter" stroke-linecap="square" stroke-miterlimit="2"/><rect x="502.2" y="142" width="216" height="270" transform="matrix(1,0,0,1,0,0)" fill="none"/></clipPath><g clip-path="url(#_clipPath_PIMJAVcNRSZ5aO0E4A4F0JzzNgU3Tn0j)"><g><g><g><path d=" M 540.33 360.673 C 546.969 356.211 551.308 355.06 553.199 358.325 C 550.742 367.708 551.551 375.409 555.612 381.413 C 557.807 381.324 559.983 381.475 562.128 381.853 C 562.241 381.504 562.778 381.136 563.725 380.735 C 563.351 380.357 563.294 379.984 563.541 379.602 C 572.021 377.411 578.192 379.802 577.8 385.607 C 574.494 389.886 570.969 392.946 567.209 394.772 L 550.637 395.283 C 553.245 383.693 548.239 378.731 537.494 381.732 C 539.376 379.116 541.116 376.96 542.7 375.251 C 544.857 370.301 544.028 365.82 540.33 360.673 Z " fill="rgb(205,162,162)"/><path d=" M 538.54 394.224 C 543.453 395.761 551.796 395.953 563.541 394.772 L 566.805 394.879 L 571.86 395.903 C 565.584 396.751 552.379 396.754 532.237 395.903 L 514.977 394.382 Q 521.861 394.186 538.54 394.224 Z " fill="rgb(0,0,0)"/><path d=" M 556.238 381.781 C 559.193 381.649 563.244 382.1 565.939 383.599 C 564.082 381.592 559.6 380.503 555.161 380.794 L 556.238 381.781 Z " fill="rgb(0,0,0)"/><path d=" M 541.956 381.32 C 541.685 381.358 541.409 381.408 541.13 381.468 L 541.43 382.045 L 540.791 381.853 L 540.668 381.576 C 540.389 381.646 540.105 381.728 539.818 381.82 L 540.122 382.406 L 539.483 382.214 L 539.376 381.97 C 539.173 382.042 538.97 382.12 538.764 382.203 L 539.163 382.971 L 538.525 382.78 L 538.347 382.377 C 537.818 382.607 537.279 382.872 536.732 383.174 L 537.871 381.302 L 537.667 380.841 L 538.13 380.98 L 538.154 381.027 C 538.388 380.941 538.621 380.861 538.852 380.788 L 538.626 380.276 L 539.088 380.415 L 539.224 380.676 C 539.541 380.584 539.854 380.504 540.164 380.436 L 539.933 379.915 L 540.396 380.054 L 540.553 380.356 C 540.862 380.297 541.166 380.25 541.467 380.214 L 541.204 379.621 L 541.667 379.76 L 541.881 380.172 C 542.239 380.142 542.59 380.129 542.935 380.131 L 542.7 379.602 L 543.163 379.741 L 543.372 380.143 C 543.818 380.165 544.251 380.214 544.671 380.29 L 544.475 379.673 L 544.919 379.876 L 545.114 380.381 C 545.456 380.46 545.788 380.557 546.11 380.672 L 545.932 380.111 L 546.376 380.314 L 546.587 380.858 C 546.971 381.022 547.339 381.212 547.69 381.427 L 547.637 380.834 L 548.024 381.159 L 548.104 381.698 C 548.481 381.962 548.835 382.256 549.165 382.579 L 549.243 382.053 L 549.54 382.489 L 549.5 382.927 C 549.789 383.244 550.056 383.585 550.301 383.949 L 550.428 383.589 L 550.637 384.088 L 550.561 384.356 C 550.854 384.843 551.11 385.367 551.327 385.926 L 551.534 385.645 L 551.608 386.193 L 551.49 386.377 C 551.701 386.999 551.864 387.661 551.978 388.359 L 552.222 388.181 L 552.191 388.735 L 552.049 388.854 C 552.118 389.406 552.156 389.978 552.163 390.569 L 552.492 390.428 L 552.415 390.976 L 552.16 391.106 C 552.151 391.552 552.123 392.008 552.077 392.474 L 552.416 392.378 L 552.292 392.914 L 552.017 393.012 C 551.95 393.543 551.859 394.085 551.744 394.638 L 549.572 394.879 C 549.712 394.497 549.838 394.12 549.95 393.75 L 549.637 393.861 L 549.809 393.121 L 550.157 393.022 C 550.247 392.679 550.325 392.341 550.392 392.01 L 550.017 392.202 L 550.124 391.445 L 550.524 391.273 C 550.591 390.841 550.638 390.42 550.666 390.01 L 550.364 390.262 L 550.407 389.497 L 550.695 389.289 C 550.701 388.75 550.673 388.234 550.612 387.742 L 550.383 388.098 L 550.282 387.34 L 550.501 387.044 C 550.413 386.601 550.297 386.179 550.154 385.781 L 550.007 386.295 L 549.718 385.607 L 549.886 385.128 C 549.738 384.808 549.569 384.505 549.383 384.221 L 549.331 384.802 L 548.921 384.201 L 548.998 383.691 C 548.78 383.421 548.544 383.171 548.289 382.943 L 548.365 383.451 L 547.83 383.003 L 547.789 382.537 C 547.556 382.367 547.312 382.213 547.056 382.075 L 547.195 382.436 L 546.582 382.156 L 546.467 381.793 C 546.17 381.669 545.86 381.564 545.538 381.479 L 545.738 381.998 L 545.125 381.718 L 545.011 381.359 C 544.664 381.294 544.306 381.25 543.935 381.229 L 544.197 381.732 L 543.558 381.54 L 543.414 381.214 C 543.099 381.214 542.776 381.229 542.446 381.261 L 542.7 381.752 L 542.062 381.56 L 541.956 381.32 Z " fill-rule="evenodd" fill="rgb(0,0,0)"/><path d=" M 567.043 380.735 Q 562.216 379.908 560.833 381.56 L 562.572 382.045 Q 563.375 380.835 567.043 380.735 Z " fill="rgb(0,0,0)"/><path d=" M 563.362 378.88 C 562.397 379.329 562.494 380.908 563.725 380.98 L 563.362 378.88 Z " fill="rgb(0,0,0)"/><path d=" M 578.369 381.545 C 579.018 376.073 568.482 362.8 566.122 368.955 C 565.678 370.112 563.145 378.389 564.747 379.225 C 564.06 379.929 564.142 380.474 564.967 380.834 L 563.342 380.834 C 563.298 380.324 563.364 379.563 563.342 379.087 C 561.94 377.598 564.927 368.199 565.767 366.835 C 567.999 363.213 580.038 372.456 579.482 381.174 C 579.173 386.02 574.198 391.962 567.209 395.229 C 557.135 396.289 547.603 396.316 538.585 395.283 C 535.52 395.376 533.831 389.46 534.576 386.751 Q 535.696 382.677 542.136 375.251 L 545.082 373.38 C 538.159 381.03 536.839 383.508 536.46 386.474 C 536.304 387.692 535.967 391.56 538.405 393.144 C 540.838 394.725 546.332 394.655 553.28 394.607 C 559.597 394.622 564.842 394.358 566.596 393.953 C 569.977 393.17 577.705 387.139 578.369 381.545 Z " fill="rgb(36,21,0)"/><path d=" M 550.087 354.318 C 560.288 349.66 568.972 357.853 572.745 356.844 C 578.626 355.272 579.529 345.421 573.354 342.659 C 567.31 339.954 534.177 351.092 539.162 360.27 C 540.797 363.282 545.69 366.306 541.678 376.539 L 543.089 374.609 C 546.514 368.614 543.034 363.456 540.725 359.812 C 535.959 352.287 566.375 341.226 572.832 343.628 C 579.082 345.953 577.466 354.795 572.832 355.621 C 568.435 356.405 557.721 348.486 550.087 354.318 Z " fill="rgb(0,0,0)"/><path d=" M 556.167 352.474 L 554.669 352.72 C 549.344 365.692 550.297 376.38 555.612 381.945 L 557.199 382.923 C 551.939 375.889 550.133 363.429 556.167 352.474 Z " fill="rgb(0,0,0)"/><path d=" M 566.122 346.039 C 564.524 349.285 564.416 352.049 565.785 354.318 L 567.043 354.673 C 565.165 353.184 564.867 350.315 566.122 346.039 Z " fill="rgb(0,0,0)"/><path d=" M 540.791 361.486 C 544.004 357.081 551.367 355.129 552.9 359.305 L 553.199 357.227 C 548.783 353.854 542.715 357.59 539.933 360.113 L 540.791 361.486 Z " fill="rgb(0,0,0)"/><path d=" M 568.459 347.01 C 570.848 348.736 573.398 349.467 576.093 349.182 L 575.421 349.958 L 576.093 351.433 C 573.895 350.062 571.782 349.68 569.741 350.269 L 568.459 351.433 C 568.318 350.642 568.342 349.194 568.459 347.01 Z " fill="rgb(0,0,0)"/><path d=" M 538.335 380.684 L 537.494 382.368 L 536.452 382.923 C 535.877 382.104 537.024 380.555 538.335 380.684 Z " fill="rgb(0,0,0)"/><line x1="578.314" y1="384.967" x2="576.784" y2="387.197"/><path d=" M 564.964 378.197 L 565.229 378.585 C 564.844 378.685 564.468 378.805 564.105 378.945 L 563.393 380.122 C 563.76 379.975 564.131 379.842 564.504 379.725 L 564.761 380.116 C 564.921 380.051 565.082 379.99 565.245 379.934 L 564.957 379.59 C 565.23 379.514 565.503 379.445 565.776 379.385 L 565.998 379.708 C 566.166 379.665 566.335 379.626 566.504 379.591 L 566.267 379.284 C 566.563 379.229 566.86 379.182 567.155 379.145 L 567.358 379.454 C 567.542 379.433 567.726 379.416 567.91 379.404 L 567.675 379.088 C 568.052 379.054 568.425 379.034 568.795 379.029 L 568.999 379.388 C 569.192 379.395 569.384 379.407 569.576 379.424 L 569.322 379.032 C 569.758 379.043 570.188 379.075 570.606 379.127 L 570.837 379.613 C 571.049 379.658 571.259 379.709 571.465 379.767 L 571.161 379.209 C 571.59 379.283 572.006 379.38 572.404 379.498 L 572.586 380.153 C 572.781 380.234 572.972 380.321 573.159 380.414 L 572.906 379.663 C 573.275 379.795 573.626 379.947 573.958 380.12 L 574.006 380.9 C 574.179 381.013 574.345 381.132 574.505 381.256 L 574.404 380.371 C 574.688 380.545 574.954 380.735 575.199 380.941 L 575.093 381.766 C 575.231 381.9 575.362 382.04 575.486 382.184 L 575.564 381.274 C 575.763 381.472 575.945 381.683 576.108 381.906 L 575.854 382.656 C 575.964 382.814 576.066 382.976 576.16 383.143 L 576.394 382.343 C 576.55 382.611 576.68 382.895 576.783 383.194 L 576.444 383.695 L 576.463 383.776 C 576.536 383.957 576.599 384.144 576.652 384.335 L 576.955 383.828 C 577.008 384.093 577.041 384.37 577.053 384.656 L 576.798 384.967 L 576.8 385.049 C 576.828 385.26 576.845 385.476 576.85 385.697 L 577.031 385.461 C 576.971 386.097 576.813 386.776 576.543 387.499 L 578.126 385.373 C 578.267 384.849 578.306 384.344 578.257 383.863 L 578.406 383.669 C 578.379 383.488 578.344 383.31 578.3 383.135 L 578.159 383.307 C 578.079 382.992 577.961 382.689 577.808 382.397 L 577.921 382.206 L 577.87 381.991 C 577.832 381.916 577.792 381.841 577.75 381.768 L 577.582 382.015 C 577.359 381.673 577.087 381.35 576.773 381.047 L 576.894 380.633 C 576.809 380.545 576.72 380.459 576.628 380.374 L 576.488 380.787 C 576.233 380.568 575.956 380.361 575.659 380.166 L 575.703 379.657 C 575.601 379.591 575.497 379.527 575.39 379.464 L 575.327 379.958 C 575.001 379.763 574.656 379.584 574.295 379.419 L 574.235 378.896 C 574.117 378.847 573.996 378.801 573.873 378.755 L 573.903 379.249 C 573.49 379.079 573.059 378.927 572.615 378.796 L 572.461 378.339 C 572.329 378.309 572.195 378.28 572.058 378.253 L 572.175 378.674 C 571.696 378.55 571.204 378.448 570.704 378.372 L 570.515 378.025 C 570.367 378.011 570.216 377.998 570.063 377.987 L 570.215 378.305 C 569.741 378.247 569.262 378.213 568.783 378.201 L 568.61 377.934 C 568.465 377.934 568.319 377.935 568.172 377.938 L 568.32 378.197 C 567.899 378.201 567.479 378.223 567.064 378.264 L 566.866 377.997 C 566.72 378.007 566.573 378.019 566.425 378.032 L 566.612 378.317 C 566.287 378.36 565.965 378.417 565.649 378.485 L 565.384 378.142 C 565.245 378.16 565.105 378.178 564.964 378.197 Z " fill-rule="evenodd" fill="rgb(0,0,0)"/></g></g><g><ellipse vector-effect="non-scaling-stroke" cx="507.6764286665443" cy="388.85220154421927" rx="17.394495459642116" ry="0.9216382466156006" fill="rgb(0,0,0)"/><path d=" M 530.991 375.674 C 528.929 382.222 523.335 387.405 516.092 388.601 C 511.144 389.417 506.325 388.224 502.474 385.621 L 502.474 385.621 L 500.422 385.301 L 499.928 383.557 C 497.127 380.853 495.14 377.262 494.458 373.134 L 494.458 373.134 C 493.775 369.002 494.501 364.959 496.287 361.497 L 496.252 360.06 L 497.691 359.194 L 497.691 359.194 C 500.496 355.254 504.813 352.388 509.963 351.538 C 516.928 350.388 523.636 353.22 527.751 358.363 L 527.751 358.363 L 528.864 358.839 L 528.853 359.892 C 530.209 361.988 531.165 364.388 531.598 367.005 C 531.922 368.969 531.929 370.913 531.654 372.784 L 531.974 374.834 L 530.991 375.674 Z  M 499.224 375.093 C 496.096 366.85 500.263 357.621 508.523 354.497 C 516.784 351.373 526.03 355.528 529.157 363.771 C 532.285 372.014 528.118 381.242 519.857 384.367 C 511.597 387.491 502.351 383.335 499.224 375.093 L 499.224 375.093 L 499.224 375.093 L 499.224 375.093 L 499.224 375.093 Z " fill-rule="evenodd" fill="rgb(0,0,0)"/><g opacity="0.51"><path d=" M 502.022 361.397 C 497.436 368.099 498.672 377.277 505.053 382.4 C 511.756 387.782 521.614 386.663 527.053 379.904 C 528.216 378.458 529.084 376.871 529.661 375.216 C 525.847 380.198 518.525 382.162 511.735 379.575 C 503.831 376.563 499.562 368.495 502.022 361.397 Z " fill="rgb(185,185,185)"/></g><path d=" M 527.623 359.617 L 526.387 359.056 C 524.86 359.022 523.86 362.54 520.952 363.16 C 516.957 364.012 508.961 357.363 502.191 358.91 L 500.671 359.634 L 500.457 361.183 C 507.786 358.7 517.415 365.865 521.124 365.117 C 524.612 364.414 526.096 360.383 527.891 360.933 L 527.623 359.617 Z " fill="rgb(205,162,162)"/><path d=" M 529.9 372.228 C 526.307 370.086 524.248 369.944 523.314 370.037 C 519.173 370.454 509.554 381.01 503.461 381.312 L 504.304 382.959 L 506.436 383.357 C 513.26 380.733 519.91 372.218 523.501 372.162 C 525.98 372.123 527.822 372.701 529.304 374.707 L 530.331 373.495 L 529.9 372.228 Z " fill="rgb(205,162,162)"/></g><g><path d=" M 588.469 311.499 L 676.816 286.047 L 733.423 304.736 L 731.547 337.092 L 676.816 326.932 L 591.306 341.012 L 588.469 311.499 Z " fill="rgb(205,162,162)"/><path d=" M 639.32 280.572 C 632.197 282.321 625.023 284.362 617.796 286.698 L 617.796 286.698 L 601.628 199.426 C 609.443 195.507 618.42 192.283 627.008 190.201 L 639.32 280.572 Z  M 644.035 279.456 C 650.93 277.883 657.776 276.588 664.572 275.568 C 664.339 246.135 662.467 217.905 658.937 190.858 C 654.08 186.885 643.168 186.83 630.937 189.324 L 644.035 279.456 Z  M 613.305 288.186 C 608.282 289.889 603.235 291.734 598.164 293.72 C 598.155 267.024 590.197 241.608 579.65 219.696 C 581.009 213.46 587.722 207.285 596.768 202.044 L 613.305 288.186 L 613.305 288.186 Z " fill-rule="evenodd" fill="rgb(0,0,0)"/><path d=" M 703.958 219.696 L 703.958 275.568 L 733.423 288.225 L 733.423 226.813 L 703.958 219.696 Z " fill="rgb(0,0,0)"/><path d=" M 562.09 213.735 C 580.776 242.079 588.584 285.378 588.547 343.982 L 603.95 345.151 L 601.517 357.781 L 627.878 361.265 C 634.635 373.416 654.221 372.716 661.944 363.007 C 667.716 370.443 678.814 372.851 691.955 369.975 Q 701.634 372.062 730.821 369.975 L 731.547 334.672 L 678.42 322.859 C 651.519 324.002 623.609 328.753 594.668 337.092 C 592.519 282.473 581.97 237.318 565.998 212.977 C 585.213 175.432 665.749 145.1 678.42 198.823 C 667.088 135.036 568.527 181.477 562.09 213.735 Z  M 718.03 348.408 C 718.03 358.907 711.094 367.432 702.551 367.432 C 694.008 367.432 686.228 354.482 686.228 343.982 L 718.03 348.408 Z " fill-rule="evenodd" fill="rgb(0,0,0)"/><path d=" M 651.046 168.182 Q 698.719 188.45 738.631 194.569 L 738.631 203.607 Q 699.322 193.701 668.825 179.143 C 668.847 177.885 662.927 174.238 651.046 168.182 Z " fill="rgb(0,0,0)"/><path d=" M 677.881 226.813 L 676.33 235.545 L 676.635 284.15 C 644.99 290.108 616.554 298.646 591.306 309.743 L 588.469 315.458 C 612.805 303.989 642.268 294.926 676.816 288.225 L 676.816 315.458 L 678.42 288.225 L 731.547 303.36 L 678.42 284.15 L 677.881 226.813 Z " fill="rgb(0,0,0)"/><path d=" M 639.145 367.456 L 572.246 371.33 L 718.2 371.33 L 714.403 367.456 L 703.011 367.456 L 639.145 367.456 Z " fill="rgb(0,0,0)"/></g></g></g><rect x="500.7" y="140.5" width="219" height="273" transform="matrix(1,0,0,1,0,0)" fill="transparent" vector-effect="non-scaling-stroke" stroke-width="3" stroke="rgb(30,30,30)" stroke-linejoin="miter" stroke-linecap="square" stroke-miterlimit="2"/><clipPath id="_clipPath_CIj4k25UKEPqG4H6lGOYG9TbRGHfrZ0f"><rect x="271.8" y="142" width="216" height="270" transform="matrix(1,0,0,1,0,0)" fill="rgb(255,255,255)"/></clipPath><g clip-path="url(#_clipPath_CIj4k25UKEPqG4H6lGOYG9TbRGHfrZ0f)"><g><g><path d=" M 403.692 397.303 C 421.883 401.211 447.868 401.941 481.599 399.446 Q 489.066 399.849 492.871 400.07 L 505.791 403.01 C 454.885 404.98 406.448 403.556 360.402 398.643 Q 373.465 397.813 403.692 397.303 Z " fill="rgb(0,0,0)"/><g opacity="0"><path d=" M 466.752 329.312 C 465.495 330.083 464.328 333.936 463.167 334.76 C 482.029 330.774 504.376 333.99 501.991 351.547 C 516.882 334.826 513.056 322.82 509.394 319.866 C 503.653 315.235 481.38 320.344 466.752 329.312 Z " fill="rgb(162,162,162)"/></g><g opacity="0"><path d=" M 446.662 401.229 C 453.781 365.329 438.639 352.086 401.204 361.47 L 392.797 380.388 L 401.204 399.994 L 446.662 401.229 Z " fill="rgb(162,162,162)"/></g><path d=" M 437.088 299.224 C 454.74 296.91 467.971 298.488 468.658 303.974 L 459.11 342.694 L 454.138 357.882 L 463.799 362.428 Q 462.908 357.174 463.799 332.675 C 485.958 327.855 502.046 332.47 506.39 348.614 L 496.526 359.174 C 502.511 378.565 501.634 391.32 493.866 397.409 L 446.662 401.229 C 453.269 366.4 436.649 353.273 400.23 362.29 C 420.483 337.692 430.743 308.564 437.088 299.224 Z " fill="rgb(205,162,162)"/><g opacity="0"><path d=" M 445.632 301.613 L 444.304 310.389 C 457.432 307.797 466.347 309.025 471.019 314.043 L 484.673 279.361 C 448.454 265.94 417.542 265.96 391.878 279.361 L 403.583 293.194 L 401.204 301.613 C 412.639 306.944 427.458 306.954 445.632 301.613 Z " fill="rgb(255,255,255)"/></g><path d=" M 403.583 359.607 C 435.392 349.352 457.884 368.533 450.436 399.288 L 443.03 399.994 C 456.584 368.106 432.327 350.073 399.237 365.731 L 403.583 359.607 Z " fill="rgb(0,0,0)"/><path d=" M 435.741 297.94 C 445.308 295.913 468.364 294.187 469.519 300.725 L 467.661 308.099 C 468.973 300.266 453.272 297.743 434.933 300.725 L 435.741 297.94 Z " fill="rgb(0,0,0)"/><path d=" M 465.255 332.363 C 482.8 326.522 510.694 334.85 506.39 348.614 L 501.748 353.987 C 509.767 335.479 484.21 328.049 463.167 335.339 L 465.255 332.363 Z " fill="rgb(0,0,0)"/><path d=" M 456.135 292.763 Q 446.174 289.491 436.755 291.627 L 436.512 294.332 Q 441.659 291.619 456.135 292.763 Z " fill="rgb(0,0,0)"/><g opacity="0.61"><path d=" M 468.658 284.216 C 460.774 305.44 454.31 332.635 445.947 359.834 C 455.772 330.994 465.932 296.767 468.658 284.216 Z " fill="rgb(0,0,0)"/></g><path d=" M 459.11 363.031 C 464.046 363.337 471.214 365.268 475.553 370.496 C 472.564 363.495 463.753 358.604 456.607 359.617 L 458.37 363.272 L 459.11 363.031 Z " fill="rgb(0,0,0)"/><path d=" M 419.593 355.276 L 422.519 360.95 L 424.696 361.511 L 421.17 355.683 L 419.593 355.276 Z " fill="rgb(0,0,0)"/><path d=" M 425.644 355.484 L 427.861 361.47 L 429.953 362.29 L 427.16 356.079 L 425.644 355.484 Z " fill="rgb(0,0,0)"/><path d=" M 430.614 356.766 L 432.83 362.751 L 434.923 363.571 L 432.13 357.36 L 430.614 356.766 Z " fill="rgb(0,0,0)"/><path d=" M 436.428 358.883 L 437.088 365.231 L 438.911 366.543 L 437.749 359.834 L 436.428 358.883 Z " fill="rgb(0,0,0)"/><path d=" M 441.908 362.451 L 440.809 368.737 L 442.205 370.496 L 442.919 363.726 L 441.908 362.451 Z " fill="rgb(0,0,0)"/><path d=" M 445.947 366.946 L 443.526 372.852 L 444.512 374.868 L 446.662 368.407 L 445.947 366.946 Z " fill="rgb(0,0,0)"/><path d=" M 449.721 372.964 L 445.448 377.927 L 445.795 380.144 L 449.972 374.57 L 449.721 372.964 Z " fill="rgb(0,0,0)"/><path d=" M 452.067 380.388 L 445.875 384.241 L 445.728 386.48 L 451.961 382.01 L 452.067 380.388 Z " fill="rgb(0,0,0)"/><path d=" M 452.987 386.963 L 444.91 389.942 L 444.546 392.156 L 452.723 388.567 L 452.987 386.963 Z " fill="rgb(0,0,0)"/><path d=" M 452.728 392.672 L 443.835 394.848 L 443.251 397.014 L 452.305 394.242 L 452.728 392.672 Z " fill="rgb(0,0,0)"/><path d=" M 402.427 358.903 L 405.353 364.577 L 407.53 365.139 L 404.005 359.31 L 402.427 358.903 Z " fill="rgb(0,0,0)"/><path d=" M 405.696 357.249 L 408.622 362.923 L 410.799 363.484 L 407.273 357.656 L 405.696 357.249 Z " fill="rgb(0,0,0)"/><path d=" M 410.157 356.193 L 413.083 361.867 L 415.259 362.428 L 411.734 356.6 L 410.157 356.193 Z " fill="rgb(0,0,0)"/><path d=" M 414.491 355.333 L 417.417 361.007 L 419.593 361.569 L 416.068 355.74 L 414.491 355.333 Z " fill="rgb(0,0,0)"/><path d=" M 466.117 329.945 C 480.881 318.557 500.62 312.399 510.381 317.808 C 516.664 322.593 519.462 338.256 496.649 359.981 L 496.649 359.981 L 494.664 356.149 C 508.941 344.899 514.608 328.8 509.174 321.024 C 502.58 313.458 472.088 327.61 468.023 333.044 C 464.886 337.238 462.441 347.46 465.829 362.751 L 461.317 361.195 C 459.399 352.519 459.919 334.726 466.117 329.945 Z " fill="rgb(0,0,0)"/><path d=" M 461.317 370.003 Q 460.669 358.43 455.017 355.215 L 453.982 359.229 Q 458.027 360.987 461.317 370.003 Z " fill="rgb(0,0,0)"/><path d=" M 471.104 334.664 L 467.775 330.473 L 467.775 330.473 C 468.189 330.424 468.6 330.378 469.007 330.334 L 469.007 330.334 L 472.588 334.325 C 472.091 334.427 471.596 334.54 471.104 334.664 Z  M 476.613 333.751 L 473.356 329.966 L 473.356 329.966 L 473.356 329.966 C 472.929 329.992 472.497 330.022 472.062 330.055 L 475.006 333.922 C 475.541 333.852 476.077 333.795 476.613 333.751 Z  M 481.385 333.681 L 478.472 329.807 L 478.472 329.807 L 478.472 329.807 C 478.048 329.807 477.619 329.81 477.186 329.817 L 479.712 333.631 C 480.272 333.635 480.83 333.651 481.385 333.681 Z  M 486.831 334.413 L 484.062 330.039 L 484.062 330.039 L 484.062 330.039 C 483.626 330.002 483.184 329.969 482.736 329.941 L 485.016 334.068 C 485.628 334.166 486.234 334.282 486.831 334.413 Z  M 491.766 335.947 L 489.77 330.832 L 489.77 330.832 L 489.77 330.832 C 489.383 330.755 488.989 330.682 488.589 330.613 L 490.107 335.323 C 490.672 335.516 491.226 335.724 491.766 335.947 Z  M 495.746 338.036 L 494.975 332.239 L 494.975 332.239 L 494.975 332.239 C 494.628 332.117 494.273 331.998 493.912 331.884 L 494.294 337.16 C 494.795 337.437 495.28 337.729 495.746 338.036 Z  M 498.662 340.397 L 499.281 334.165 L 499.281 334.165 L 499.281 334.165 C 498.984 333.998 498.679 333.835 498.365 333.676 L 497.514 339.347 C 497.916 339.684 498.3 340.034 498.662 340.397 Z  M 500.66 342.867 L 502.777 336.632 L 502.777 336.632 L 502.777 336.632 C 502.527 336.409 502.267 336.19 501.997 335.976 L 499.77 341.63 C 500.09 342.029 500.388 342.442 500.66 342.867 Z  M 502.1 345.942 L 505.791 340.608 L 505.641 340.063 L 505.641 340.063 L 505.641 340.063 C 505.528 339.873 505.41 339.685 505.287 339.5 L 501.478 344.344 C 501.721 344.861 501.929 345.393 502.1 345.942 Z  M 502.654 349.423 L 507.213 344.305 L 507.213 344.305 L 507.213 344.305 C 507.134 343.848 507.03 343.398 506.901 342.956 L 502.495 347.588 L 502.496 347.627 C 502.59 348.21 502.644 348.809 502.654 349.423 Z  M 467.944 335.642 L 467.661 335.636 L 465.687 332.99 L 465.687 332.99 L 465.687 332.99 L 465.687 332.99 L 467.034 333.017 L 469.111 335.238 C 468.72 335.365 468.331 335.5 467.944 335.642 Z  M 464.778 337.025 L 464.259 337.015 L 463.065 335.447 L 463.065 335.447 L 463.065 335.447 L 463.065 335.447 L 463.558 334.079 L 465.705 336.574 C 465.393 336.719 465.084 336.869 464.778 337.025 Z " fill-rule="evenodd" fill="rgb(0,0,0)"/><path d=" M 488.166 346.275 C 504.352 360.617 509.797 393.658 491.506 401.073 L 403.583 401.229 C 394.166 401.495 388.981 384.504 391.268 376.727 C 398.337 352.687 441.661 303.257 433.562 291.903 L 438.815 290.515 C 446.586 300.693 404.749 352.038 397.054 375.929 C 395.97 379.292 395.539 390.537 403.029 395.087 C 410.501 399.626 427.378 399.427 448.721 399.288 C 468.124 399.331 484.235 398.574 489.621 397.409 C 501.893 394.754 500.966 364.264 488.166 346.275 Z " fill="rgb(0,0,0)"/><path d=" M 402.815 359.3 L 400.23 364.138 L 397.029 365.731 C 395.264 363.378 398.787 358.931 402.815 359.3 Z " fill="rgb(0,0,0)"/><path d=" M 451.941 366.385 C 457.179 329.614 478.952 273.085 472.446 269.84 C 451.629 259.457 409.214 256.113 386.152 269.652 C 382.948 271.532 396.505 276.183 397.343 283.484 C 397.613 285.829 392.424 289.953 394.463 291.368 C 403.118 297.374 425.577 296.426 459.901 281.839 C 419.509 302.959 398.68 299.118 388.794 292.674 C 386.465 291.156 392.391 286.732 392.084 284.216 C 391.126 276.382 375.975 269.652 379.932 267.771 C 407.104 254.859 451.776 255.961 475.553 267.099 C 482.985 270.581 459.491 340.441 451.941 366.385 Z " fill="rgb(0,0,0)"/><path d=" M 428.009 283.157 Q 429.38 279.592 428.287 272.759 L 432.007 269.84 L 431.969 269.856 C 431.981 269.849 431.994 269.842 432.007 269.835 C 413.11 274.688 400.148 275.641 393.002 272.577 C 394.195 273.405 395.434 274.12 396.726 274.707 Q 402.141 279.599 402.614 285.712 L 398.41 287.69 C 408.588 288.887 419.467 287.685 430.957 283.995 L 430.957 283.995 L 430.957 283.995 L 428.009 283.157 Z " fill="rgb(0,0,0)"/></g><g><ellipse vector-effect="non-scaling-stroke" cx="294.22815662795807" cy="405.87805099565014" rx="48.118187742442785" ry="2.549517017274752" fill="rgb(0,0,0)"/><path d=" M 260.354 372.39 C 250.171 345.582 263.716 315.54 290.582 305.345 C 317.448 295.151 347.527 308.639 357.709 335.448 C 367.891 362.257 354.346 392.299 327.48 402.493 C 300.614 412.688 270.536 399.199 260.354 372.39 Z  M 274.348 375.094 C 261.357 354.454 267.607 327.149 288.297 314.157 C 308.987 301.165 336.331 307.375 349.323 328.014 C 362.314 348.654 356.064 375.959 335.374 388.951 C 314.684 401.943 287.34 395.734 274.348 375.094 Z " fill-rule="evenodd" fill="rgb(0,0,0)"/><path d=" M 345.127 316.897 L 353.09 320.728 L 353.09 327.515 L 345.127 316.897 Z " fill="rgb(0,0,0)"/><path d=" M 270.784 319.803 L 263.577 323.473 L 262.442 332.816 L 270.784 319.803 Z " fill="rgb(0,0,0)"/><path d=" M 269.951 386.985 L 273.193 394.831 L 281.756 395.235 L 269.951 386.985 Z " fill="rgb(0,0,0)"/><path d=" M 357.655 368.271 L 358.271 374.976 L 353.62 379.397 L 357.655 368.271 Z " fill="rgb(0,0,0)"/><g opacity="0.51"><path d=" M 280.803 327.356 C 266.542 344.713 267.728 370.305 284.07 385.968 C 301.239 402.422 328.675 401.726 345.3 384.416 C 348.855 380.714 351.63 376.551 353.62 372.13 C 341.906 384.935 321.251 388.574 303.167 379.8 C 282.116 369.586 272.306 346.319 280.803 327.356 Z " fill="rgb(185,185,185)"/></g><path d=" M 349.323 323.473 L 349.323 328.014 C 346.44 323.35 331.947 317.624 321.464 323.473 C 311.595 328.98 297.323 349.065 278.518 352.998 C 272.481 354.261 267.878 351.365 268.426 342.737 L 268.426 335.448 L 272.857 329.979 C 269.109 341.818 272.008 345.152 273.738 345.563 C 287.388 348.805 310.315 322.252 318.238 318.43 C 327.574 313.926 340.172 314.295 349.323 323.473 Z " fill="rgb(205,162,162)"/><path d=" M 346.133 379.49 C 335.049 382.608 299.191 364.063 283.611 370.547 C 278.317 372.749 276.408 376.001 277.851 380.269 L 275.024 378.19 L 273.61 374.199 C 273.878 366.43 280.596 362.39 289.201 362.271 C 309.425 361.992 335.161 377.319 344.465 373.831 C 350.887 371.424 353.164 367.949 354.952 361.283 L 354.467 372.13 Q 348.632 378.787 346.133 379.49 Z " fill="rgb(205,162,162)"/></g></g></g><rect x="270.3" y="140.5" width="219" height="273" transform="matrix(1,0,0,1,0,0)" fill="transparent" vector-effect="non-scaling-stroke" stroke-width="3" stroke="rgb(30,30,30)" stroke-linejoin="miter" stroke-linecap="square" stroke-miterlimit="2"/><rect x="271.8" y="142" width="216" height="270" transform="matrix(1,0,0,1,0,0)" fill="none"/><rect x="39.9" y="140.5" width="219" height="273" transform="matrix(1,0,0,1,0,0)" fill="transparent" vector-effect="non-scaling-stroke" stroke-width="3" stroke="rgb(30,30,30)" stroke-linejoin="miter" stroke-linecap="square" stroke-miterlimit="2"/><rect x="41.4" y="142" width="216" height="270" transform="matrix(1,0,0,1,0,0)" fill="none"/><rect x="731.1" y="140.5" width="219" height="273" transform="matrix(1,0,0,1,0,0)" fill="transparent" vector-effect="non-scaling-stroke" stroke-width="3" stroke="rgb(30,30,30)" stroke-linejoin="miter" stroke-linecap="square" stroke-miterlimit="2"/><rect x="732.6" y="142" width="216" height="270" transform="matrix(1,0,0,1,0,0)" fill="none"/><clipPath id="_clipPath_T2ndjIff5rifnkZ6R09RlGeFouibaPky"><rect x="731.1" y="140.5" width="219" height="273" transform="matrix(1,0,0,1,0,0)" fill="transparent" vector-effect="non-scaling-stroke" stroke-width="3" stroke="rgb(30,30,30)" stroke-linejoin="miter" stroke-linecap="square" stroke-miterlimit="2"/><rect x="732.6" y="142" width="216" height="270" transform="matrix(1,0,0,1,0,0)" fill="none"/></clipPath><g clip-path="url(#_clipPath_T2ndjIff5rifnkZ6R09RlGeFouibaPky)"><g><g><path d=" M 903.26 327.675 L 1024.985 291.8 L 1102.977 318.142 L 1100.392 363.749 L 1024.985 349.429 L 907.17 369.275 L 903.26 327.675 Z " fill="rgb(205,162,162)"/><path d=" M 973.323 284.083 C 963.509 286.548 953.624 289.426 943.668 292.718 L 943.668 292.718 L 921.392 169.706 C 932.158 164.181 944.527 159.637 956.36 156.703 L 973.323 284.083 Z  M 979.819 282.51 C 989.319 280.293 998.751 278.467 1008.114 277.029 C 1007.794 235.543 1005.215 195.753 1000.351 157.629 C 993.659 152.029 978.625 151.951 961.773 155.466 L 979.819 282.51 Z  M 937.48 294.815 C 930.56 297.216 923.606 299.816 916.618 302.615 C 916.607 264.986 905.642 229.163 891.11 198.277 C 892.983 189.487 902.232 180.783 914.695 173.396 L 937.48 294.815 L 937.48 294.815 Z " fill-rule="evenodd" fill="rgb(0,0,0)"/><path d=" M 1062.38 198.277 L 1062.38 277.029 L 1102.977 294.87 L 1102.977 208.308 L 1062.38 198.277 Z " fill="rgb(0,0,0)"/><path d=" M 866.916 189.874 C 892.661 229.826 903.42 290.857 903.369 373.461 L 924.59 375.109 L 921.238 392.911 L 957.558 397.822 C 966.867 414.948 993.854 413.962 1004.494 400.277 C 1012.447 410.758 1027.737 414.152 1045.843 410.099 Q 1059.179 413.04 1099.392 410.099 L 1100.392 360.338 L 1027.194 343.688 C 990.131 345.299 951.676 351.996 911.803 363.749 C 908.841 286.762 894.306 223.115 872.301 188.806 C 898.775 135.886 1009.737 93.132 1027.194 168.856 C 1011.582 78.946 875.786 144.406 866.916 189.874 Z  M 1081.768 379.699 C 1081.768 394.499 1072.212 406.514 1060.442 406.514 C 1048.672 406.514 1037.952 388.26 1037.952 373.461 L 1081.768 379.699 Z " fill-rule="evenodd" fill="rgb(0,0,0)"/><path d=" M 989.479 125.667 Q 1055.162 154.235 1110.152 162.86 L 1110.152 175.599 Q 1055.993 161.636 1013.974 141.116 C 1014.004 139.344 1005.848 134.203 989.479 125.667 Z " fill="rgb(0,0,0)"/><path d=" M 1026.451 208.308 L 1024.314 220.616 L 1024.735 289.127 C 981.135 297.524 941.956 309.558 907.17 325.2 L 903.26 333.256 C 936.791 317.09 977.384 304.315 1024.985 294.87 L 1024.985 333.256 L 1027.194 294.87 L 1100.392 316.203 L 1027.194 289.127 L 1026.451 208.308 Z " fill="rgb(0,0,0)"/></g><g><path d=" M 753.31 339.918 C 769.607 328.965 780.256 326.138 784.899 334.153 C 778.868 357.186 780.854 376.089 790.823 390.827 C 796.209 390.608 801.552 390.979 806.817 391.908 C 807.094 391.05 808.412 390.146 810.737 389.162 C 809.819 388.234 809.679 387.319 810.285 386.381 C 831.102 381.003 846.248 386.872 845.285 401.121 C 837.171 411.626 828.517 419.137 819.29 423.619 L 778.611 424.873 C 785.012 396.424 772.725 384.243 746.348 391.61 C 750.969 385.187 755.24 379.896 759.129 375.702 C 764.422 363.551 762.386 352.55 753.31 339.918 Z " fill="rgb(205,162,162)"/><path d=" M 792.358 391.73 C 799.611 391.406 809.555 392.513 816.171 396.194 C 811.613 391.265 800.612 388.594 789.715 389.307 L 792.358 391.73 Z " fill="rgb(0,0,0)"/><path d=" M 757.301 390.598 C 756.636 390.693 755.959 390.813 755.273 390.961 L 756.009 392.379 L 754.442 391.908 L 754.141 391.226 C 753.454 391.4 752.757 391.6 752.052 391.827 L 752.799 393.265 L 751.232 392.794 L 750.967 392.195 C 750.471 392.372 749.97 392.562 749.466 392.765 L 750.446 394.652 L 748.879 394.181 L 748.442 393.193 C 747.143 393.757 745.82 394.408 744.477 395.148 L 747.275 390.555 L 746.773 389.423 L 747.909 389.764 L 747.968 389.878 C 748.544 389.668 749.116 389.473 749.683 389.294 L 749.126 388.035 L 750.261 388.377 L 750.594 389.018 C 751.373 388.792 752.142 388.596 752.903 388.429 L 752.337 387.15 L 753.472 387.491 L 753.857 388.232 C 754.615 388.088 755.363 387.972 756.1 387.885 L 755.456 386.429 L 756.591 386.77 L 757.116 387.782 C 757.995 387.707 758.858 387.674 759.704 387.68 L 759.129 386.381 L 760.264 386.722 L 760.777 387.71 C 761.871 387.763 762.935 387.884 763.965 388.07 L 763.484 386.556 L 764.575 387.054 L 765.053 388.293 C 765.893 388.487 766.708 388.726 767.499 389.008 L 767.061 387.63 L 768.152 388.129 L 768.668 389.465 C 769.611 389.866 770.514 390.332 771.375 390.86 L 771.245 389.406 L 772.196 390.204 L 772.393 391.527 C 773.317 392.173 774.186 392.895 774.996 393.689 L 775.189 392.398 L 775.917 393.467 L 775.82 394.544 C 776.527 395.321 777.184 396.158 777.786 397.051 L 778.097 396.168 L 778.611 397.393 L 778.423 398.051 C 779.143 399.247 779.771 400.534 780.303 401.905 L 780.813 401.214 L 780.994 402.561 L 780.704 403.012 C 781.221 404.54 781.623 406.164 781.901 407.876 L 782.502 407.441 L 782.425 408.801 L 782.076 409.093 C 782.245 410.446 782.34 411.85 782.356 413.302 L 783.164 412.954 L 782.973 414.3 L 782.349 414.619 C 782.325 415.714 782.258 416.834 782.146 417.979 L 782.977 417.742 L 782.673 419.058 L 781.997 419.299 C 781.832 420.601 781.609 421.932 781.327 423.29 L 775.997 423.882 C 776.34 422.943 776.649 422.019 776.925 421.109 L 776.156 421.383 L 776.577 419.566 L 777.431 419.323 C 777.652 418.48 777.845 417.652 778.009 416.838 L 777.088 417.309 L 777.35 415.453 L 778.332 415.031 C 778.497 413.969 778.612 412.935 778.68 411.93 L 777.939 412.549 L 778.045 410.671 L 778.752 410.159 C 778.768 408.838 778.699 407.571 778.549 406.362 L 777.987 407.236 L 777.738 405.377 L 778.275 404.649 C 778.06 403.561 777.776 402.527 777.425 401.548 L 777.064 402.811 L 776.354 401.121 L 776.767 399.946 C 776.402 399.16 775.99 398.417 775.532 397.719 L 775.403 399.145 L 774.399 397.67 L 774.586 396.419 C 774.052 395.756 773.471 395.143 772.847 394.581 L 773.033 395.83 L 771.72 394.729 L 771.618 393.585 C 771.048 393.17 770.448 392.791 769.82 392.452 L 770.162 393.338 L 768.656 392.65 L 768.373 391.761 C 767.644 391.455 766.883 391.197 766.093 390.988 L 766.585 392.263 L 765.079 391.575 L 764.799 390.695 C 763.949 390.534 763.069 390.426 762.16 390.374 L 762.801 391.61 L 761.235 391.139 L 760.88 390.338 C 760.106 390.338 759.313 390.376 758.504 390.454 L 759.129 391.658 L 757.562 391.187 L 757.301 390.598 Z " fill-rule="evenodd" fill="rgb(0,0,0)"/><path d=" M 818.881 389.162 Q 807.033 387.133 803.639 391.187 L 807.906 392.379 Q 809.877 389.409 818.881 389.162 Z " fill="rgb(0,0,0)"/><path d=" M 812.612 386.722 L 812.719 384.77 L 810.61 384.206 C 808.242 385.309 807.716 389.247 810.737 389.423 C 809.944 387.976 811.311 387.066 812.612 386.722 Z " fill="rgb(0,0,0)"/><path d=" M 846.683 391.15 C 849.427 381.697 845.461 375.286 830.636 371.006 C 843.611 372.8 852.757 379.137 849.415 391.908 C 846.408 403.392 836.443 416.722 819.29 424.74 C 794.56 427.341 771.162 427.409 749.027 424.873 C 741.502 425.1 737.358 410.578 739.186 403.931 Q 741.936 393.929 757.744 375.702 L 764.975 371.109 C 747.981 389.886 744.742 395.969 743.809 403.249 C 743.426 406.24 742.599 415.734 748.585 419.623 C 754.556 423.502 768.043 423.333 785.099 423.214 C 800.605 423.25 813.48 422.604 817.784 421.608 C 826.084 419.687 842.844 404.373 846.683 391.15 Z " fill="rgb(36,21,0)"/><path d=" M 777.259 324.319 C 802.3 312.884 820.71 332.263 829.971 329.787 C 844.407 325.928 846.623 301.748 831.466 294.967 C 816.628 288.329 738.207 316.399 750.442 338.929 C 754.457 346.322 766.466 353.743 756.619 378.862 L 760.082 374.126 C 768.49 359.411 759.947 346.749 754.281 337.803 C 742.582 319.333 814.334 291.45 830.184 297.347 C 845.525 303.054 841.56 324.757 830.184 326.785 C 819.392 328.71 796 310.003 777.259 324.319 Z " fill="rgb(0,0,0)"/><path d=" M 792.186 319.791 L 788.508 320.395 C 775.437 352.236 777.774 378.473 790.823 392.133 L 794.718 394.533 C 781.805 377.267 777.374 346.683 792.186 319.791 Z " fill="rgb(0,0,0)"/><path d=" M 814.669 307.2 Q 809.991 318.62 816.534 325.041 L 819.622 325.912 Q 810.954 319.446 814.669 307.2 Z " fill="rgb(0,0,0)"/><path d=" M 754.442 341.913 C 762.329 331.1 780.401 326.308 784.166 336.559 L 784.899 331.458 C 774.059 323.179 759.164 332.351 752.337 338.543 L 754.442 341.913 Z " fill="rgb(0,0,0)"/><path d=" M 821.86 303.322 C 828.991 308.519 834.024 309.268 837.596 307.52 L 836.211 310.787 L 837.491 318.12 C 834.653 315.262 831.298 314.263 824.398 315.871 L 821.755 318.12 C 819.718 316.313 819.841 307.234 821.86 303.322 Z " fill="rgb(0,0,0)"/><path d=" M 810.285 385.716 Q 805.847 371.46 806.353 366.221 C 807.208 357.374 855.044 351.3 858.614 357.606 Q 861.321 362.389 841.144 375.121 L 837.491 373.013 Q 856.454 363.45 855.47 360.38 C 853.188 353.258 812.824 359.101 809.845 367.755 Q 808.746 370.945 814.516 385.116 L 810.285 385.716 Z " fill="rgb(0,0,0)"/><path d=" M 863.228 352.111 C 868.794 351.918 870.879 353.468 869.284 356.74 C 868.657 358.027 866.648 360.488 863.228 364.091 C 868.479 356.954 868.979 352.947 863.228 352.111 Z " fill="rgb(0,0,0)"/><path d=" M 858.934 353.025 C 864.5 352.832 866.585 354.381 864.99 357.653 C 864.363 358.941 862.354 361.401 858.934 365.005 C 864.185 357.867 864.685 353.861 858.934 353.025 Z " fill="rgb(0,0,0)"/><path d=" M 748.413 389.037 L 746.348 393.172 L 743.79 394.533 C 742.379 392.522 745.194 388.721 748.413 389.037 Z " fill="rgb(0,0,0)"/><line x1="846.547" y1="399.552" x2="842.793" y2="405.025"/><path d=" M 813.778 382.934 L 814.429 383.886 C 813.483 384.131 812.56 384.424 811.669 384.768 L 809.922 387.658 C 810.823 387.296 811.733 386.971 812.649 386.684 L 813.279 387.643 C 813.672 387.483 814.069 387.334 814.468 387.197 L 813.761 386.353 C 814.43 386.165 815.101 385.997 815.772 385.848 L 816.315 386.642 C 816.728 386.535 817.142 386.44 817.559 386.355 L 816.976 385.602 C 817.704 385.465 818.432 385.351 819.156 385.259 L 819.655 386.019 C 820.106 385.966 820.557 385.925 821.009 385.895 L 820.433 385.12 C 821.357 385.035 822.274 384.987 823.181 384.975 L 823.683 385.856 C 824.157 385.873 824.628 385.902 825.098 385.944 L 824.475 384.983 C 825.547 385.009 826.6 385.087 827.627 385.215 L 828.195 386.409 C 828.716 386.519 829.23 386.645 829.736 386.786 L 828.99 385.417 C 830.043 385.599 831.063 385.836 832.041 386.127 L 832.487 387.734 C 832.966 387.933 833.435 388.147 833.893 388.375 L 833.273 386.53 C 834.178 386.855 835.041 387.229 835.854 387.652 L 835.974 389.568 C 836.397 389.845 836.806 390.136 837.199 390.442 L 836.95 388.27 C 837.647 388.696 838.3 389.162 838.902 389.668 L 838.64 391.694 C 838.979 392.023 839.302 392.365 839.607 392.72 L 839.798 390.485 C 840.287 390.972 840.733 391.489 841.133 392.037 L 840.508 393.878 C 840.779 394.265 841.03 394.664 841.26 395.074 L 841.835 393.11 C 842.217 393.769 842.537 394.465 842.79 395.2 L 841.957 396.429 L 842.004 396.627 C 842.182 397.073 842.338 397.53 842.468 397.999 L 843.211 396.754 C 843.342 397.406 843.424 398.085 843.452 398.788 L 842.826 399.552 L 842.83 399.753 C 842.901 400.271 842.943 400.8 842.954 401.342 L 843.398 400.763 C 843.252 402.323 842.864 403.992 842.202 405.765 L 846.085 400.548 C 846.432 399.261 846.529 398.022 846.408 396.841 L 846.774 396.363 C 846.708 395.92 846.621 395.483 846.513 395.054 L 846.166 395.477 C 845.971 394.704 845.68 393.958 845.304 393.243 L 845.584 392.774 L 845.458 392.245 C 845.364 392.06 845.265 391.878 845.162 391.698 L 844.752 392.304 C 844.203 391.465 843.535 390.672 842.765 389.929 L 843.062 388.913 C 842.853 388.696 842.636 388.484 842.41 388.276 L 842.065 389.291 C 841.44 388.753 840.759 388.243 840.031 387.766 L 840.138 386.518 C 839.889 386.355 839.633 386.197 839.371 386.043 L 839.215 387.254 C 838.416 386.778 837.569 386.336 836.682 385.932 L 836.535 384.648 C 836.244 384.529 835.948 384.414 835.645 384.304 L 835.721 385.515 C 834.707 385.097 833.649 384.725 832.557 384.403 L 832.18 383.282 C 831.856 383.207 831.527 383.136 831.192 383.069 L 831.48 384.105 C 830.303 383.799 829.094 383.55 827.868 383.361 L 827.404 382.512 C 827.04 382.476 826.67 382.444 826.295 382.416 L 826.667 383.197 C 825.503 383.057 824.327 382.971 823.153 382.943 L 822.728 382.287 C 822.373 382.287 822.014 382.29 821.651 382.296 L 822.015 382.934 C 820.981 382.942 819.951 382.995 818.933 383.096 L 818.447 382.441 C 818.09 382.466 817.729 382.495 817.364 382.527 L 817.823 383.226 C 817.024 383.334 816.235 383.472 815.46 383.641 L 814.809 382.798 C 814.468 382.841 814.124 382.886 813.778 382.934 Z " fill="rgb(0,0,0)"/></g></g></g><rect x="731.1" y="140.5" width="219" height="273" transform="matrix(1,0,0,1,0,0)" fill="transparent" vector-effect="non-scaling-stroke" stroke-width="3" stroke="rgb(30,30,30)" stroke-linejoin="miter" stroke-linecap="square" stroke-miterlimit="2"/><g><line x1="237.389" y1="352.71" x2="234.548" y2="355.924"/><path d=" M 171.121 384.632 C 182.757 387.131 199.377 387.598 220.951 386.002 Q 225.727 386.26 228.161 386.401 L 236.425 388.281 C 203.865 389.541 172.885 388.631 143.433 385.488 Q 151.788 384.957 171.121 384.632 Z " fill="rgb(0,0,0)"/><g opacity="0"><path d=" M 211.455 341.144 C 210.651 341.637 209.905 344.101 209.162 344.629 C 221.226 342.079 235.52 344.136 233.994 355.366 C 243.518 344.67 241.071 336.991 238.729 335.102 C 235.057 332.14 220.811 335.408 211.455 341.144 Z " fill="rgb(162,162,162)"/></g><g opacity="0"><path d=" M 198.605 387.142 C 203.159 364.181 193.474 355.71 169.53 361.712 L 164.153 373.813 L 169.53 386.353 L 198.605 387.142 Z " fill="rgb(162,162,162)"/></g><g opacity="0.6"><path d=" M 196.58 329.041 C 207.87 327.56 213.745 328.584 214.184 332.094 L 206.567 349.703 L 203.387 359.417 L 208.371 361.781 C 207.801 358.421 207.053 350.821 208.014 347.835 L 209.567 343.295 C 223.739 340.212 234.029 343.164 236.808 353.489 L 230.499 360.244 C 234.327 372.646 233.766 380.805 228.797 384.699 L 198.605 387.142 C 202.831 364.865 194.346 355.824 171.052 361.591 C 184.006 345.858 192.522 335.014 196.58 329.041 Z " fill="rgb(172,101,101)"/></g><g opacity="0"><path d=" M 197.947 323.427 L 197.097 329.041 C 205.494 327.382 211.196 328.168 214.184 331.378 L 222.917 309.195 C 199.752 300.611 179.98 300.623 163.566 309.195 L 171.052 318.043 L 169.53 323.427 C 176.844 326.837 186.323 326.843 197.947 323.427 Z " fill="rgb(255,255,255)"/></g><path d=" M 170.118 311.066 C 176.418 315.443 184.753 314.877 195.066 309.313 C 183.93 313.246 175.634 313.85 170.118 311.066 Z " fill="rgb(0,0,0)"/><path d=" M 172.125 312.094 C 176.011 315.497 177.199 318.346 175.667 320.621 C 177.801 318.842 187.435 318.095 192.049 319.046 C 193.777 316.154 194.037 313.257 192.296 310.493 C 183.926 313.574 177.215 314.121 172.125 312.094 Z " fill="rgb(0,0,0)"/><path d=" M 195.066 309.315 L 192.352 311.444 L 192.06 310.599 L 195.066 309.315 Z " fill="rgb(0,0,0)"/><path d=" M 194.394 319.532 L 191.455 318.894 L 191.776 318.511 L 194.394 319.532 Z " fill="rgb(0,0,0)"/><path d=" M 194.394 319.532 C 183.904 318.175 176.978 318.975 173.576 321.895 C 178.21 317.882 185.155 317.101 194.394 319.532 Z " fill="rgb(0,0,0)"/><path d=" M 230.578 360.76 C 245.169 346.865 243.379 336.847 239.36 333.786 C 236.805 331.839 221.917 332.745 210.865 340.199 L 209.864 343.683 C 224.071 332.745 237.5 334.285 238.589 335.843 C 242.064 340.816 238.44 351.113 229.308 358.309 L 230.578 360.76 L 230.578 360.76 Z " fill="rgb(0,0,0)"/><path d=" M 171.052 360.52 C 191.397 353.961 205.783 366.23 201.019 385.901 L 196.282 386.353 C 204.952 365.957 189.437 354.423 168.272 364.437 L 171.052 360.52 Z " fill="rgb(0,0,0)"/><path d=" M 197.097 328.208 C 203.216 326.911 214.426 326.349 215.165 330.531 L 212.906 334.635 C 213.746 329.624 208.31 328.082 196.58 329.989 L 197.097 328.208 Z " fill="rgb(0,0,0)"/><path d=" M 210.498 343.095 C 221.719 339.359 239.56 344.686 236.808 353.489 L 233.839 356.926 C 238.968 345.088 222.621 340.336 209.162 344.999 L 210.498 343.095 Z " fill="rgb(0,0,0)"/><path d=" M 210.498 323.977 Q 204.127 321.884 198.102 323.251 L 197.947 324.981 Q 201.239 323.245 210.498 323.977 Z " fill="rgb(0,0,0)"/><g opacity="0.61"><path d=" M 217.084 315.513 C 212.042 329.088 203.497 343.269 198.148 360.666 C 204.432 342.219 215.341 323.54 217.084 315.513 Z " fill="rgb(0,0,0)"/></g><path d=" M 206.567 362.711 C 209.725 362.906 212.581 363.461 215.356 366.806 C 213.445 362.328 209.537 359.879 204.966 360.527 L 206.094 362.865 L 206.567 362.711 Z " fill="rgb(0,0,0)"/><path d=" M 181.292 357.75 L 183.164 361.379 L 184.556 361.739 L 182.301 358.011 L 181.292 357.75 Z " fill="rgb(0,0,0)"/><path d=" M 185.162 357.884 L 186.58 361.712 L 187.918 362.237 L 186.132 358.264 L 185.162 357.884 Z " fill="rgb(0,0,0)"/><path d=" M 188.341 358.703 L 189.759 362.532 L 191.097 363.056 L 189.311 359.083 L 188.341 358.703 Z " fill="rgb(0,0,0)"/><path d=" M 192.06 360.058 L 192.482 364.118 L 193.648 364.957 L 192.905 360.666 L 192.06 360.058 Z " fill="rgb(0,0,0)"/><path d=" M 195.565 362.34 L 194.862 366.361 L 195.755 367.486 L 196.212 363.155 L 195.565 362.34 Z " fill="rgb(0,0,0)"/><path d=" M 198.148 365.215 L 196.599 368.992 L 197.23 370.282 L 198.605 366.149 L 198.148 365.215 Z " fill="rgb(0,0,0)"/><path d=" M 200.562 369.064 L 197.829 372.238 L 198.051 373.656 L 200.723 370.091 L 200.562 369.064 Z " fill="rgb(0,0,0)"/><path d=" M 202.063 373.813 L 198.102 376.277 L 198.008 377.709 L 201.995 374.85 L 202.063 373.813 Z " fill="rgb(0,0,0)"/><path d=" M 202.651 378.018 L 197.485 379.923 L 197.252 381.339 L 202.482 379.044 L 202.651 378.018 Z " fill="rgb(0,0,0)"/><path d=" M 202.485 381.669 L 196.798 383.061 L 196.424 384.447 L 202.215 382.673 L 202.485 381.669 Z " fill="rgb(0,0,0)"/><path d=" M 170.313 360.071 L 172.184 363.7 L 173.576 364.059 L 171.321 360.331 L 170.313 360.071 Z " fill="rgb(0,0,0)"/><path d=" M 172.404 359.012 L 174.275 362.641 L 175.667 363.001 L 173.412 359.273 L 172.404 359.012 Z " fill="rgb(0,0,0)"/><path d=" M 175.256 358.337 L 177.128 361.966 L 178.52 362.325 L 176.265 358.597 L 175.256 358.337 Z " fill="rgb(0,0,0)"/><path d=" M 178.029 357.787 L 179.9 361.416 L 181.292 361.775 L 179.037 358.047 L 178.029 357.787 Z " fill="rgb(0,0,0)"/><path d=" M 208.371 346.173 Q 207.413 357.815 209.786 361.781 L 207.028 361.089 Q 206.191 358.294 206.262 351.729 L 208.371 346.173 Z " fill="rgb(0,0,0)"/><path d=" M 207.451 367.17 Q 207.565 359.768 203.949 357.711 L 203.288 360.279 Q 205.874 361.404 207.451 367.17 Z " fill="rgb(0,0,0)"/><path d=" M 214.238 344.567 L 212.109 341.887 L 212.109 341.887 C 212.374 341.855 212.637 341.825 212.898 341.798 L 212.898 341.798 L 215.188 344.35 C 214.87 344.415 214.553 344.488 214.238 344.567 Z  M 217.762 343.983 L 215.679 341.562 L 215.679 341.562 L 215.679 341.562 C 215.406 341.579 215.13 341.598 214.851 341.619 L 216.734 344.092 C 217.077 344.048 217.419 344.011 217.762 343.983 Z  M 220.815 343.938 L 218.951 341.461 L 218.951 341.461 L 218.951 341.461 C 218.68 341.46 218.406 341.462 218.129 341.467 L 219.745 343.907 C 220.103 343.909 220.46 343.919 220.815 343.938 Z  M 224.298 344.406 L 222.527 341.609 L 222.527 341.609 L 222.527 341.609 C 222.248 341.585 221.965 341.564 221.679 341.546 L 223.137 344.186 C 223.529 344.249 223.916 344.322 224.298 344.406 Z  M 227.454 345.388 L 226.178 342.116 L 226.178 342.116 L 226.178 342.116 C 225.93 342.067 225.678 342.02 225.422 341.976 L 226.393 344.989 C 226.755 345.112 227.109 345.245 227.454 345.388 Z  M 230 346.724 L 229.507 343.016 L 229.507 343.016 L 229.507 343.016 C 229.285 342.938 229.058 342.862 228.827 342.789 L 229.071 346.163 C 229.392 346.34 229.702 346.527 230 346.724 Z  M 231.865 348.234 L 232.261 344.248 L 232.261 344.248 L 232.261 344.248 C 232.071 344.141 231.876 344.036 231.675 343.935 L 231.131 347.562 C 231.388 347.778 231.633 348.001 231.865 348.234 Z  M 233.143 349.814 L 234.497 345.826 L 234.497 345.826 L 234.497 345.826 C 234.337 345.683 234.171 345.543 233.998 345.406 L 232.573 349.023 C 232.779 349.278 232.969 349.542 233.143 349.814 Z  M 234.064 351.78 L 236.425 348.369 L 236.329 348.02 L 236.329 348.02 L 236.329 348.02 C 236.257 347.899 236.181 347.779 236.102 347.66 L 233.666 350.759 C 233.821 351.089 233.955 351.43 234.064 351.78 Z  M 234.419 354.007 L 237.335 350.733 L 237.335 350.733 L 237.335 350.733 C 237.284 350.441 237.217 350.153 237.135 349.87 L 234.316 352.833 L 234.317 352.858 C 234.377 353.231 234.412 353.614 234.419 354.007 Z  M 212.218 345.193 L 212.037 345.189 L 209.567 341.945 L 209.567 341.945 L 209.567 341.945 L 209.567 341.945 L 210.428 341.962 L 212.981 344.929 C 212.725 345.012 212.47 345.1 212.218 345.193 Z  M 210.192 346.077 L 209.861 346.071 L 209.097 345.068 L 209.097 345.068 L 209.097 345.068 L 209.097 345.068 L 209.412 344.193 L 210.785 345.788 C 210.586 345.881 210.388 345.977 210.192 346.077 Z " fill-rule="evenodd" fill="rgb(0,0,0)"/><path d=" M 225.151 351.993 C 235.504 361.166 238.987 382.3 227.288 387.043 L 171.052 387.142 C 165.029 387.313 161.712 376.445 163.175 371.471 C 167.697 356.095 201.24 330.689 196.06 323.427 L 199.42 322.539 C 204.39 329.049 171.797 355.679 166.876 370.96 C 166.183 373.111 165.907 380.304 170.698 383.214 C 175.477 386.117 186.271 385.99 199.922 385.901 C 212.333 385.928 222.637 385.444 226.083 384.699 C 233.931 383.001 233.339 363.5 225.151 351.993 Z " fill="rgb(0,0,0)"/><path d=" M 170.561 360.324 L 168.908 363.419 L 166.86 364.437 C 165.731 362.933 167.984 360.088 170.561 360.324 Z " fill="rgb(0,0,0)"/><path d=" M 201.982 364.856 C 205.332 341.337 225.092 311.391 220.93 309.315 C 207.615 302.675 180.487 300.536 165.736 309.195 C 163.687 310.398 172.358 313.372 172.894 318.043 C 173.066 319.542 169.748 322.18 171.052 323.085 C 176.588 326.926 190.952 326.32 212.906 316.99 C 187.072 330.499 173.749 328.042 167.426 323.92 C 165.936 322.949 169.727 320.12 169.53 318.511 C 168.917 313.5 159.227 309.195 161.758 307.992 C 179.137 299.733 207.71 300.438 222.917 307.563 C 227.671 309.79 206.811 348.262 201.982 364.856 Z " fill="rgb(0,0,0)"/></g><g><ellipse vector-effect="non-scaling-stroke" cx="90.51018872997984" cy="385.8634054118294" rx="33.91756397815162" ry="1.797104392411029" fill="rgb(0,0,0)"/><path d=" M 135.971 360.167 C 131.951 372.935 121.043 383.042 106.92 385.373 C 97.272 386.965 87.876 384.639 80.366 379.563 L 80.366 379.563 L 76.365 378.938 L 75.401 375.539 C 69.94 370.267 66.066 363.264 64.735 355.214 L 64.735 355.214 C 63.403 347.157 64.82 339.274 68.301 332.524 L 68.233 329.721 L 71.039 328.033 L 71.039 328.033 C 76.509 320.351 84.927 314.761 94.97 313.104 C 108.55 310.863 121.63 316.385 129.654 326.412 L 129.654 326.412 L 131.823 327.34 L 131.803 329.394 C 134.446 333.48 136.311 338.161 137.154 343.263 C 137.787 347.093 137.799 350.884 137.264 354.532 L 137.889 358.529 L 135.971 360.167 Z  M 74.028 359.034 C 67.929 342.961 76.055 324.966 92.162 318.874 C 108.269 312.782 126.297 320.885 132.396 336.957 C 138.495 353.03 130.369 371.025 114.262 377.117 C 98.155 383.209 80.127 375.106 74.028 359.034 L 74.028 359.034 L 74.028 359.034 L 74.028 359.034 L 74.028 359.034 Z " fill-rule="evenodd" fill="rgb(0,0,0)"/><g opacity="0.51"><path d=" M 79.485 332.328 C 70.542 345.396 72.953 363.293 85.395 373.282 C 98.465 383.777 117.688 381.596 128.293 368.415 C 130.561 365.596 132.253 362.502 133.377 359.275 C 125.942 368.989 111.663 372.818 98.424 367.773 C 83.012 361.9 74.688 346.168 79.485 332.328 Z " fill="rgb(185,185,185)"/></g><path d=" M 129.404 328.859 L 126.993 327.765 C 124.016 327.698 122.066 334.558 116.397 335.767 C 108.606 337.428 93.015 324.462 79.814 327.478 L 76.851 328.891 L 76.433 331.91 C 90.723 327.07 109.5 341.041 116.732 339.582 C 123.533 338.211 126.427 330.351 129.926 331.424 L 129.404 328.859 Z " fill="rgb(205,162,162)"/><path d=" M 133.845 353.447 C 126.839 349.271 122.824 348.993 121.003 349.176 C 112.927 349.988 94.171 370.571 82.29 371.161 L 83.934 374.373 L 88.091 375.149 C 101.398 370.031 114.364 353.429 121.367 353.319 C 126.201 353.243 129.791 354.37 132.683 358.283 L 134.684 355.919 L 133.845 353.447 Z " fill="rgb(205,162,162)"/></g><g><g clip-path="url(#_clipPath_yMOZXUorMLPCPqMZaNuQKGgtkKlywQ9w)"><text transform="matrix(1,0,0,1,305.806,166.319)" style="font-family:'Kalam';font-weight:400;font-size:12px;font-style:normal;fill:#000000;stroke:none;">No, it's because by the time the</text><text transform="matrix(1,0,0,1,305.806,181.621)" style="font-family:'Kalam';font-weight:400;font-size:12px;font-style:normal;fill:#000000;stroke:none;">train gets where it's going, most</text><text transform="matrix(1,0,0,1,305.806,196.924)" style="font-family:'Kalam';font-weight:400;font-size:12px;font-style:normal;fill:#000000;stroke:none;">of the passengers will be over</text><text transform="matrix(1,0,0,1,305.806,212.226)" style="font-family:'Kalam';font-weight:400;font-size:12px;font-style:normal;fill:#000000;stroke:none;">the age of </text><text transform="matrix(1,0,0,1,363.394,212.226)" style="font-family:'Kalam';font-weight:700;font-size:12px;font-style:normal;fill:#000000;stroke:none;">eighty.</text></g><defs><clipPath id="_clipPath_yMOZXUorMLPCPqMZaNuQKGgtkKlywQ9w"><rect x="0" y="0" width="181.994" height="65.035" transform="matrix(1,0,0,1,305.806,153.563)"/></clipPath></defs><g clip-path="url(#_clipPath_2CsZXHRnE7TjIJqAFZbMN802grcImAsP)"><text transform="matrix(1,0,0,1,295.019,253.587)" style="font-family:'Kalam';font-weight:400;font-size:12px;font-style:normal;fill:#000000;stroke:none;">HA!</text></g><defs><clipPath id="_clipPath_2CsZXHRnE7TjIJqAFZbMN802grcImAsP"><rect x="0" y="0" width="36.552" height="19.128" transform="matrix(1,0,0,1,295.019,240.831)"/></clipPath></defs><path d=" M 426.86 239.068 L 434.791 220.516 L 437.557 220.516 L 426.86 239.068 Z " fill="rgb(0,0,0)"/><path d=" M 311.96 278.206 L 305.806 262.147 L 307.845 262.147 L 311.96 278.206 Z " fill="rgb(0,0,0)"/></g><g><g clip-path="url(#_clipPath_ZRZatYfzuHBq5saJJVaJEhCqXA39m8Vd)"><text transform="matrix(1,0,0,1,509.509,166.319)" style="font-family:'Kalam';font-weight:400;font-size:12px;font-style:normal;fill:#000000;stroke:none;">I don't get it.</text></g><defs><clipPath id="_clipPath_ZRZatYfzuHBq5saJJVaJEhCqXA39m8Vd"><rect x="0" y="0" width="87.805" height="19.128" transform="matrix(1,0,0,1,509.509,153.563)"/></clipPath></defs><path d=" M 567.261 184.137 L 554.188 179.088 L 558.764 179.088 L 567.261 184.137 Z " fill="rgb(0,0,0)"/></g><g><g clip-path="url(#_clipPath_SpJLFyfQmpwgCo2EJLf6hgmRncAykufF)"><text transform="matrix(1,0,0,1,761.653,173.249)" style="font-family:'Kalam';font-weight:400;font-size:12px;font-style:normal;fill:#000000;stroke:none;">That's because</text><text transform="matrix(1,0,0,1,761.653,188.552)" style="font-family:'Kalam';font-weight:400;font-size:12px;font-style:normal;fill:#000000;stroke:none;">you're </text><text transform="matrix(1,0,0,1,794.413,188.552)" style="font-family:'Kalam';font-weight:700;font-size:12px;font-style:normal;fill:#000000;stroke:none;">SLOW</text><text transform="matrix(1,0,0,1,824.437,188.552)" style="font-family:'Kalam';font-weight:400;font-size:12px;font-style:normal;fill:#000000;stroke:none;">!!!</text><text transform="matrix(1,0,0,1,761.653,219.156)" style="font-family:'Kalam';font-weight:400;font-size:12px;font-style:normal;fill:#000000;stroke:none;">... which was</text><text transform="matrix(1,0,0,1,761.653,234.459)" style="font-family:'Kalam';font-weight:400;font-size:12px;font-style:normal;fill:#000000;stroke:none;">also the point.</text></g><defs><clipPath id="_clipPath_SpJLFyfQmpwgCo2EJLf6hgmRncAykufF"><rect x="0" y="0" width="87.805" height="80.338" transform="matrix(1,0,0,1,761.425,160.493)"/></clipPath></defs><path d=" M 792.929 266.362 L 786.3 248 L 783.535 248 L 792.929 266.362 Z " fill="rgb(0,0,0)"/></g><g><g clip-path="url(#_clipPath_5SlRqTTO25FIKsD0omwOvEMidcAXqR4J)"><text transform="matrix(1,0,0,1,68.326,175.868)" style="font-family:'Kalam';font-weight:400;font-size:12px;font-style:normal;fill:#000000;stroke:none;">Do you know why there are </text><text transform="matrix(1,0,0,1,68.326,191.17)" style="font-family:'Kalam';font-weight:400;font-size:12px;font-style:normal;fill:#000000;stroke:none;">handicap exits on all the T lines?</text></g><defs><clipPath id="_clipPath_5SlRqTTO25FIKsD0omwOvEMidcAXqR4J"><rect x="0" y="0" width="181.994" height="34.43" transform="matrix(1,0,0,1,68.326,163.112)"/></clipPath></defs><g clip-path="url(#_clipPath_5vD6iKPsA7hbiXnfEWTs0vRJXBh9weWV)"><text transform="matrix(1,0,0,1,49.039,228.72)" style="font-family:'Kalam';font-weight:400;font-size:12px;font-style:normal;fill:#000000;stroke:none;">I guess so that more people</text><text transform="matrix(1,0,0,1,49.039,244.023)" style="font-family:'Kalam';font-weight:400;font-size:12px;font-style:normal;fill:#000000;stroke:none;">can use public trains.</text></g><defs><clipPath id="_clipPath_5vD6iKPsA7hbiXnfEWTs0vRJXBh9weWV"><rect x="0" y="0" width="165.01" height="34.43" transform="matrix(1,0,0,1,49.039,215.964)"/></clipPath></defs><path d=" M 72.326 278.318 L 66.093 255.111 L 68.859 255.111 L 72.326 278.318 Z " fill="rgb(0,0,0)"/><path d=" M 211.277 274.224 L 231.517 218.598 L 234.282 218.598 L 211.277 274.224 Z " fill="rgb(0,0,0)"/></g></g></g></svg>