<?xml version="1.0" encoding="UTF-8" standalone="no"?><!-- Generator: Gravit.io --><svg xmlns="http://www.w3.org/2000/svg" xmlns:xlink="http://www.w3.org/1999/xlink" style="isolation:isolate" viewBox="0 0 907.483 540" width="907.483pt" height="540pt"><defs><clipPath id="_clipPath_zcm91RJn8m7sA9U8AOBxgNsJaZImc2Ul"><rect x="0" y="0" width="907.483" height="540"/></clipPath></defs><g clip-path="url(#_clipPath_zcm91RJn8m7sA9U8AOBxgNsJaZImc2Ul)"><g><g><path d=" M 895.953 467.216 L 896.453 467.216 L 896.453 468.216 L 895.953 468.216 L 7.943 468.216 L 7.443 468.216 L 7.443 467.216 L 7.943 467.216 L 895.953 467.216 Z " fill="rgb(0,0,0)"/><path d=" M 893.91 93.496 L 894.41 93.496 L 894.41 94.496 L 893.91 94.496 L 5.9 94.496 L 5.4 94.496 L 5.4 93.496 L 5.9 93.496 L 893.91 93.496 Z " fill="rgb(0,0,0)"/><g clip-path="url(#_clipPath_JIZPtSYI0fNRC8hLwW2in1rjDU7HIMiM)"><text transform="matrix(0.885,0,0,0.963,3.541,488.645)" style="font-family:'Candal';font-weight:400;font-size:20px;font-style:normal;fill:#000000;stroke:none;">DEXTRO</text></g><defs><clipPath id="_clipPath_JIZPtSYI0fNRC8hLwW2in1rjDU7HIMiM"><rect x="0" y="0" width="85" height="25.957" transform="matrix(0.885,0,0,0.963,3.541,467.714)"/></clipPath></defs><path d=" M 461.02 0 L 461.02 48.065 L 549.048 48.065 L 549.048 48.065 L 549.048 48.065 L 549.048 48.065 L 549.048 48.065 C 584.081 42.66 626.455 26.903 671.68 25.034 L 671.68 0 L 673.88 0 L 673.88 50.265 L 458.82 50.265 L 458.82 0 L 461.02 0 Z  M 684.87 0 L 684.87 48.065 L 769.1 48.065 L 769.1 48.065 L 769.1 48.065 L 769.1 48.065 L 769.1 48.065 C 769.613 29.32 746.337 32.026 759.609 18.016 Q 768.546 8.583 812.735 13.016 L 819.405 0 L 882.551 0 C 880.194 15.052 877.264 33.803 880.033 48.065 L 900.41 48.065 L 900.41 0 L 902.61 0 L 902.61 50.265 L 682.67 50.265 L 682.67 0 L 684.87 0 Z  M 2.2 0 L 2.2 48.065 L 16.631 48.065 L 16.631 48.065 L 16.631 48.065 L 16.631 48.065 L 16.631 48.065 L 16.631 48.065 L 15.545 23.925 L 9.81 21.685 C 9.21 21.475 8.64 21.155 8.13 20.755 C 7.91 20.575 7.71 20.355 7.56 20.105 C 7.39 19.825 7.3 19.515 7.3 19.185 C 7.3 18.835 7.41 18.495 7.61 18.205 C 7.79 17.955 8.02 17.735 8.29 17.565 C 8.87 17.215 9.51 16.965 10.18 16.845 L 84.4 0 L 93.432 0 L 10.6 18.795 C 10.59 18.805 10.57 18.805 10.56 18.805 L 9.42 19.225 C 9.74 19.475 10.1 19.675 10.49 19.805 C 10.5 19.805 10.51 19.815 10.52 19.815 L 82.835 48.065 L 224.41 48.065 L 224.41 0 L 226.61 0 L 226.61 50.265 L 0 50.265 L 0 0 L 2.2 0 Z  M 149.232 0 L 149.232 0 L 117.315 12.632 L 183.005 36.504 C 209.505 25.082 219.996 18.972 214.519 18.124 C 212.037 17.739 201.563 26.088 193.553 25.034 C 188.392 24.355 183.848 27.506 180.051 33.67 L 178.457 31.419 Q 187.85 22.359 193.09 23.21 Q 202.179 24.685 211.113 17.35 C 208.221 15.27 200.674 12.045 188.502 7.705 C 208.158 12.88 218.664 16.696 220.051 19.185 C 221.816 22.351 188.051 39.162 183.319 39.25 C 180.216 39.307 155.783 30.96 113.711 12.175 Q 112.65 11.701 113.418 10.203 L 143.526 0 L 149.232 0 Z  M 330.221 0 C 328.659 4.038 327.301 9.211 326.154 15.55 C 311.52 8.902 297.378 4.029 283.771 0.978 L 283.771 0.978 L 283.771 0.978 L 283.771 0.978 L 283.771 0.978 C 283.914 0.649 284.061 0.324 284.209 0 L 281.541 0 C 279.572 4.266 277.863 8.691 276.442 13.251 C 273.223 23.561 271.575 34.472 271.575 45.457 C 271.575 45.457 271.575 45.475 271.575 45.475 L 271.637 50.165 L 325.631 50.165 C 326.587 23.934 329.138 7.198 333.322 0 L 330.221 0 Z  M 446.678 0 Q 446.653 0.402 446.594 0.791 L 446.594 0.791 L 447.023 0.889 L 447.023 0.889 Q 447.14 0.102 447.322 0.102 L 447.322 0.102 L 447.322 0.102 L 447.322 0.102 L 447.322 0.102 L 447.322 0.102 Q 447.452 0.102 447.66 0.313 L 447.66 0.313 L 450.598 3.352 L 451.027 3.352 L 454.108 0.425 L 454.108 0.425 Q 454.368 0.172 454.478 0.172 L 454.478 0.172 L 454.478 0.172 Q 454.589 0.172 454.641 0.271 L 454.641 0.271 L 454.641 0.271 Q 454.667 0.313 454.686 0.362 L 454.686 0.362 L 454.686 0.362 Q 454.706 0.411 454.725 0.503 L 454.725 0.503 L 454.725 0.503 Q 454.745 0.594 454.758 0.65 L 454.758 0.65 L 454.758 0.65 Q 454.771 0.707 454.79 0.819 L 454.79 0.819 L 454.79 0.819 Q 454.81 0.932 454.823 0.988 L 454.823 0.988 L 455.252 0.861 L 455.252 0.861 Q 455.2 0.477 455.174 0 L 452.237 0 L 450.325 1.888 L 448.481 0 L 446.678 0 Z  M 275.818 33.222 C 288.734 36.211 300.222 40.67 310.253 46.562 L 322.625 46.643 C 323.359 35.357 324.399 25.738 325.746 17.812 C 310.92 10.517 296.462 6.011 282.327 4.241 C 281.243 6.907 280.289 9.681 279.491 12.583 C 292.81 15.632 306.66 20.532 320.997 27.229 L 320.997 29.683 C 306.506 22.278 292.378 17.689 278.571 15.868 C 277.884 18.644 277.306 21.51 276.867 24.492 C 289.368 27.433 302.349 32.028 315.769 38.223 L 315.769 40.581 C 302.336 33.797 289.224 29.472 276.397 27.556 C 276.152 29.402 275.953 31.285 275.818 33.222 L 275.818 33.222 L 275.818 33.222 L 275.818 33.222 L 275.818 33.222 Z  M 79.25 42.535 C 79.16 42.465 79.07 42.375 78.99 42.285 C 78.66 41.865 78.36 41.425 78.08 40.965 C 77.8 40.505 77.53 40.025 77.28 39.545 C 76.85 38.745 76.43 37.935 76.03 37.115 C 75.72 36.475 75.41 35.825 75.1 35.175 C 74.7 34.315 74.31 33.455 73.92 32.595 C 72.84 30.175 71.79 27.745 70.77 25.295 C 69.19 21.505 67.64 17.695 66.12 13.875 C 66.4 13.795 66.68 13.735 66.96 13.675 C 67.52 13.575 68.07 13.505 68.63 13.445 C 69.69 13.345 70.75 13.265 71.82 13.205 C 72.7 13.165 73.58 13.125 74.46 13.105 C 75.69 13.065 76.91 13.045 78.14 13.035 C 81.6 12.995 85.06 13.015 88.52 13.085 C 94.55 13.215 100.58 13.385 106.61 13.615 L 130.74 42.425 C 122.2 42.735 113.66 42.995 105.11 43.185 C 100.6 43.295 96.09 43.335 91.58 43.305 C 89.37 43.295 87.16 43.245 84.95 43.175 C 83.88 43.135 82.81 43.065 81.75 42.965 C 81.23 42.915 80.71 42.855 80.2 42.775 C 79.97 42.735 79.75 42.695 79.53 42.625 C 79.43 42.605 79.34 42.575 79.25 42.535 L 79.25 42.535 L 79.25 42.535 L 79.25 42.535 L 79.25 42.535 L 79.25 42.535 L 79.25 42.535 Z  M 447.712 3.549 L 447.712 3.549 L 454.134 3.549 L 454.134 3.549 Q 454.303 3.549 454.374 3.513 L 454.374 3.513 L 454.374 3.513 Q 454.446 3.478 454.511 3.337 L 454.511 3.337 L 454.511 3.337 Q 454.628 3.112 454.732 2.55 L 454.732 2.55 L 454.758 2.367 L 455.265 2.465 L 455.265 2.465 Q 455.148 3.52 455.148 4.414 L 455.148 4.414 L 455.148 4.414 Q 455.148 5.307 455.265 6.278 L 455.265 6.278 L 454.758 6.376 L 454.758 6.376 Q 454.589 5.504 454.368 5.392 L 454.368 5.392 L 454.368 5.392 Q 454.303 5.363 454.134 5.363 L 454.134 5.363 L 447.712 5.363 L 447.712 5.363 Q 447.543 5.363 447.471 5.398 L 447.471 5.398 L 447.471 5.398 Q 447.4 5.434 447.335 5.56 L 447.335 5.56 L 447.335 5.56 Q 447.218 5.8 447.114 6.236 L 447.114 6.236 L 447.088 6.376 L 446.581 6.278 L 446.581 6.278 Q 446.698 5.307 446.698 4.442 L 446.698 4.442 L 446.698 4.442 Q 446.698 3.577 446.581 2.606 L 446.581 2.606 L 447.088 2.507 L 447.088 2.507 Q 447.244 3.408 447.478 3.506 L 447.478 3.506 L 447.478 3.506 Q 447.543 3.549 447.712 3.549 L 447.712 3.549 L 447.712 3.549 L 447.712 3.549 Z  M 450.273 34.176 L 450.273 34.176 L 450.273 34.176 Q 450.533 34.317 450.988 34.317 L 450.988 34.317 L 450.988 34.317 Q 451.443 34.317 451.573 34.303 L 451.573 34.303 L 451.677 35.02 L 451.677 35.02 Q 451.43 35.133 450.832 35.281 L 450.832 35.281 L 450.832 35.281 Q 450.234 35.428 449.948 35.457 L 449.948 35.457 L 449.948 35.457 Q 449.363 33.979 449.363 33.009 L 449.363 33.009 L 449.363 33.009 Q 449.363 32.038 449.766 31.348 L 449.766 31.348 L 449.766 31.348 Q 450.169 30.659 450.936 30.659 L 450.936 30.659 L 450.936 30.659 Q 451.703 30.659 452.184 31.039 L 452.184 31.039 L 452.184 31.039 Q 452.665 31.419 453.224 32.193 L 453.224 32.193 L 453.224 32.193 Q 453.406 32.432 454.095 33.67 L 454.095 33.67 L 454.212 33.614 L 454.212 31.419 L 454.212 31.419 Q 454.095 31.278 453.724 31.032 L 453.724 31.032 L 453.724 31.032 Q 453.354 30.786 453.159 30.729 L 453.159 30.729 L 453.25 30.138 L 453.25 30.138 Q 453.458 30.153 454.18 30.272 L 454.18 30.272 L 454.18 30.272 Q 454.901 30.392 455.148 30.448 L 455.148 30.448 L 455.148 35.442 L 454.472 35.527 L 454.472 35.527 Q 453.484 34.106 452.912 33.501 L 452.912 33.501 L 452.912 33.501 Q 451.963 32.516 451.105 32.516 L 451.105 32.516 L 451.105 32.516 Q 450.637 32.516 450.357 32.713 L 450.357 32.713 L 450.357 32.713 Q 450.078 32.91 450.078 33.374 L 450.078 33.374 L 450.078 33.374 Q 450.078 33.839 450.273 34.176 L 450.273 34.176 L 450.273 34.176 L 450.273 34.176 Z  M 454.576 25.749 L 454.576 25.749 L 454.576 25.749 Q 454.576 25.06 453.997 24.581 L 453.997 24.581 L 453.997 24.581 Q 453.419 24.103 452.32 24.103 L 452.32 24.103 L 452.32 24.103 Q 451.222 24.103 450.669 24.581 L 450.669 24.581 L 450.669 24.581 Q 450.117 25.06 450.117 25.749 L 450.117 25.749 L 450.117 25.749 Q 450.117 26.438 450.669 26.924 L 450.669 26.924 L 450.669 26.924 Q 451.222 27.409 452.32 27.409 L 452.32 27.409 L 452.32 27.409 Q 453.419 27.409 453.997 26.924 L 453.997 26.924 L 453.997 26.924 Q 454.576 26.438 454.576 25.749 L 454.576 25.749 L 454.576 25.749 L 454.576 25.749 Z  M 450.273 20.107 L 450.273 20.107 L 450.273 20.107 Q 450.533 20.248 450.988 20.248 L 450.988 20.248 L 450.988 20.248 Q 451.443 20.248 451.573 20.234 L 451.573 20.234 L 451.677 20.952 L 451.677 20.952 Q 451.43 21.064 450.832 21.212 L 450.832 21.212 L 450.832 21.212 Q 450.234 21.36 449.948 21.388 L 449.948 21.388 L 449.948 21.388 Q 449.363 19.91 449.363 18.94 L 449.363 18.94 L 449.363 18.94 Q 449.363 17.969 449.766 17.28 L 449.766 17.28 L 449.766 17.28 Q 450.169 16.59 450.936 16.59 L 450.936 16.59 L 450.936 16.59 Q 451.703 16.59 452.184 16.97 L 452.184 16.97 L 452.184 16.97 Q 452.665 17.35 453.224 18.124 L 453.224 18.124 L 453.224 18.124 Q 453.406 18.363 454.095 19.601 L 454.095 19.601 L 454.212 19.545 L 454.212 17.35 L 454.212 17.35 Q 454.095 17.209 453.724 16.963 L 453.724 16.963 L 453.724 16.963 Q 453.354 16.717 453.159 16.661 L 453.159 16.661 L 453.25 16.07 L 453.25 16.07 Q 453.458 16.084 454.18 16.203 L 454.18 16.203 L 454.18 16.203 Q 454.901 16.323 455.148 16.379 L 455.148 16.379 L 455.148 21.374 L 454.472 21.458 L 454.472 21.458 Q 453.484 20.037 452.912 19.432 L 452.912 19.432 L 452.912 19.432 Q 451.963 18.447 451.105 18.447 L 451.105 18.447 L 451.105 18.447 Q 450.637 18.447 450.357 18.644 L 450.357 18.644 L 450.357 18.644 Q 450.078 18.841 450.078 19.305 L 450.078 19.305 L 450.078 19.305 Q 450.078 19.77 450.273 20.107 L 450.273 20.107 L 450.273 20.107 L 450.273 20.107 Z  M 452.444 12.721 L 452.444 12.721 L 452.444 12.721 Q 452.444 11.821 452.86 11.146 L 452.86 11.146 L 452.86 11.146 Q 453.445 10.203 454.797 10.203 L 454.797 10.203 L 454.797 10.203 Q 455.902 10.203 456.63 11.068 L 456.63 11.068 L 456.63 11.068 Q 457.358 11.934 457.358 13.186 L 457.358 13.186 L 457.358 13.186 Q 457.358 14.1 456.955 15.676 L 456.955 15.676 L 456.955 15.676 Q 456.682 15.648 455.993 15.479 L 455.993 15.479 L 455.993 15.479 Q 455.304 15.31 455.031 15.198 L 455.031 15.198 L 455.135 14.508 L 455.135 14.508 Q 455.538 14.536 455.889 14.536 L 455.889 14.536 L 455.889 14.536 Q 456.24 14.536 456.435 14.48 L 456.435 14.48 L 456.435 14.48 Q 456.643 13.903 456.643 13.333 L 456.643 13.333 L 456.643 13.333 Q 456.643 12.763 456.175 12.405 L 456.175 12.405 L 456.175 12.405 Q 455.707 12.046 455.005 12.046 L 455.005 12.046 L 455.005 12.046 Q 453.276 12.046 453.276 13.819 L 453.276 13.819 L 453.276 13.819 Q 453.276 14.128 453.328 14.494 L 453.328 14.494 L 452.808 14.958 L 449.545 14.353 L 449.402 11.638 L 449.402 11.638 Q 449.35 10.85 449.181 10.484 L 449.181 10.484 L 449.376 10.316 L 449.376 10.316 Q 449.506 10.33 449.909 10.47 L 449.909 10.47 L 449.909 10.47 Q 450.312 10.611 450.455 10.695 L 450.455 10.695 L 450.455 13.27 L 452.418 13.565 L 452.509 13.481 L 452.509 13.481 Q 452.444 13.087 452.444 12.721 L 452.444 12.721 L 452.444 12.721 L 452.444 12.721 Z  M 451.846 39.25 L 451.716 40.009 L 451.716 40.009 Q 451.599 39.995 451.43 39.995 L 451.43 39.995 L 451.43 39.995 Q 450.624 39.995 450.364 40.15 L 450.364 40.15 L 450.364 40.15 Q 450.143 40.516 450.143 41.177 L 450.143 41.177 L 450.143 41.177 Q 450.143 42.288 452.184 42.288 L 452.184 42.288 L 452.184 42.288 Q 453.25 42.288 453.796 41.838 L 453.796 41.838 L 453.796 41.838 Q 454.342 41.388 454.342 40.607 L 454.342 40.607 L 454.342 40.607 Q 454.342 39.826 453.874 38.94 L 453.874 38.94 L 454.251 38.659 L 454.251 38.659 Q 455.356 39.981 455.356 41.078 L 455.356 41.078 L 455.356 41.078 Q 455.356 42.429 454.569 43.266 L 454.569 43.266 L 454.569 43.266 Q 453.783 44.103 452.503 44.103 L 452.503 44.103 L 452.503 44.103 Q 451.222 44.103 450.344 43.28 L 450.344 43.28 L 450.344 43.28 Q 449.467 42.457 449.467 41.064 L 449.467 41.064 L 449.467 41.064 Q 449.467 40.614 449.642 39.875 L 449.642 39.875 L 449.642 39.875 Q 449.818 39.137 449.961 38.743 L 449.961 38.743 L 449.961 38.743 Q 450.247 38.771 450.917 38.947 L 450.917 38.947 L 450.917 38.947 Q 451.586 39.123 451.846 39.25 L 451.846 39.25 L 451.846 39.25 L 451.846 39.25 L 451.846 39.25 L 451.846 39.25 Z  M 118.492 24.685 L 107.86 11.995 C 107.68 11.775 107.41 11.645 107.13 11.635 C 100.94 11.395 94.76 11.215 88.57 11.085 C 85.08 11.015 81.6 10.995 78.12 11.035 C 76.88 11.045 75.64 11.065 74.41 11.105 C 73.51 11.125 72.61 11.165 71.71 11.205 C 70.62 11.265 69.53 11.345 68.44 11.455 C 67.82 11.515 67.21 11.605 66.6 11.715 C 66.17 11.795 65.75 11.895 65.33 12.015 C 65.08 12.095 64.83 12.205 64.6 12.335 C 64.51 12.395 64.42 12.455 64.33 12.525 C 64.06 12.735 63.86 13.035 63.76 13.365 C 65.45 17.615 67.17 21.845 68.93 26.065 C 69.95 28.525 71.01 30.975 72.1 33.415 C 72.49 34.285 72.89 35.155 73.29 36.015 C 73.6 36.675 73.92 37.345 74.24 37.995 C 74.65 38.835 75.07 39.665 75.51 40.485 C 75.79 41.005 76.07 41.505 76.38 42.005 C 76.69 42.525 77.04 43.025 77.41 43.505 C 77.61 43.755 77.84 43.985 78.1 44.165 C 78.22 44.255 78.35 44.325 78.49 44.385 C 78.65 44.455 78.82 44.505 78.99 44.555 C 79.29 44.635 79.59 44.705 79.9 44.755 C 80.45 44.835 81 44.905 81.56 44.955 C 82.67 45.065 83.77 45.135 84.88 45.175 C 87.11 45.245 89.34 45.295 91.56 45.305 C 96.1 45.335 100.63 45.295 105.16 45.185 C 114.39 44.975 123.63 44.695 132.86 44.355 L 132.86 44.355 L 132.86 44.355 C 133.24 44.335 133.58 44.105 133.73 43.755 C 133.89 43.405 133.83 43.005 133.59 42.705 L 120.168 26.685 L 140.43 26.685 L 161.64 47.525 L 163.05 46.095 L 141.25 24.685 L 118.492 24.685 L 118.492 24.685 L 118.492 24.685 L 118.492 24.685 L 118.492 24.685 Z  M 449.363 25.742 L 449.363 25.742 L 449.363 25.742 Q 449.363 24.173 450.162 23.196 L 450.162 23.196 L 450.162 23.196 Q 450.962 22.218 452.288 22.218 L 452.288 22.218 L 452.288 22.218 Q 453.614 22.218 454.472 23.21 L 454.472 23.21 L 454.472 23.21 Q 455.33 24.201 455.33 25.77 L 455.33 25.77 L 455.33 25.77 Q 455.33 27.339 454.504 28.317 L 454.504 28.317 L 454.504 28.317 Q 453.679 29.294 452.353 29.294 L 452.353 29.294 L 452.353 29.294 Q 451.027 29.294 450.195 28.302 L 450.195 28.302 L 450.195 28.302 Q 449.363 27.311 449.363 25.742 L 449.363 25.742 L 449.363 25.742 L 449.363 25.742 Z  M 448.46 41.175 C 448.46 40.095 448.9 39.055 449.66 38.295 C 450.43 37.525 451.47 37.095 452.55 37.095 C 453.63 37.095 454.67 37.525 455.44 38.295 C 456.2 39.055 456.63 40.095 456.63 41.175 C 456.63 42.255 456.2 43.295 455.44 44.065 C 454.67 44.825 453.63 45.265 452.55 45.265 C 451.47 45.265 450.43 44.825 449.66 44.065 C 448.9 43.295 448.46 42.255 448.46 41.175 L 448.46 41.175 L 448.46 41.175 L 448.46 41.175 Z  M 447.465 41.177 C 447.465 38.372 449.743 36.094 452.548 36.094 C 455.353 36.094 457.631 38.372 457.631 41.177 C 457.631 43.982 455.353 46.26 452.548 46.26 C 449.743 46.26 447.465 43.982 447.465 41.177 L 447.465 41.177 L 447.465 41.177 L 447.465 41.177 Z " fill-rule="evenodd" fill="rgb(0,0,0)"/><path d=" M 49.355 540 Q 48.303 539.592 47.57 539.07 L 47.57 539.07 L 47.57 539.07 Q 46.318 538.18 46.318 536.62 L 46.318 536.62 L 46.318 536.62 Q 46.318 535.56 46.933 534.73 L 46.933 534.73 L 46.933 534.73 Q 47.548 533.9 48.691 533.44 L 48.691 533.44 L 48.691 533.44 Q 49.835 532.98 51.367 532.98 L 51.367 532.98 L 51.367 532.98 Q 53.567 532.98 54.829 533.78 L 54.829 533.78 L 54.829 533.78 Q 56.091 534.58 56.091 535.92 L 56.091 535.92 L 56.091 535.92 Q 56.091 536.36 55.789 536.66 L 55.789 536.66 L 55.789 536.66 Q 55.487 536.96 55.034 536.96 L 55.034 536.96 L 55.034 536.96 Q 54.646 536.96 54.365 536.72 L 54.365 536.72 L 54.365 536.72 Q 54.085 536.48 54.042 536.12 L 54.042 536.12 L 54.042 536.12 Q 53.955 535.56 53.243 535.19 L 53.243 535.19 L 53.243 535.19 Q 52.532 534.82 51.367 534.82 L 51.367 534.82 L 51.367 534.82 Q 49.921 534.82 49.166 535.27 L 49.166 535.27 L 49.166 535.27 Q 48.411 535.72 48.411 536.48 L 48.411 536.48 L 48.411 536.48 Q 48.411 537.18 49.188 537.66 L 49.188 537.66 L 49.188 537.66 Q 49.964 538.14 51.733 538.62 L 51.733 538.62 L 51.733 538.62 Q 53.708 539.146 54.815 540 L 49.355 540 Z  M 57.779 540 Q 57.84 538.155 58.658 536.6 L 58.658 536.6 L 58.658 536.6 Q 59.543 534.92 61.021 533.95 L 61.021 533.95 L 61.021 533.95 Q 62.499 532.98 64.203 532.98 L 64.203 532.98 L 64.203 532.98 Q 65.799 532.98 67.083 533.8 L 67.083 533.8 L 67.083 533.8 Q 68.366 534.62 69.089 536.06 L 69.089 536.06 L 69.089 536.06 Q 69.812 537.5 69.812 539.3 L 69.812 539.3 L 69.812 539.3 Q 69.812 539.656 69.785 540 L 67.63 540 Q 67.655 539.697 67.655 539.38 L 67.655 539.38 L 67.655 539.38 Q 67.655 537.98 67.148 536.96 L 67.148 536.96 L 67.148 536.96 Q 66.641 535.94 65.81 535.41 L 65.81 535.41 L 65.81 535.41 Q 64.979 534.88 64.073 534.88 L 64.073 534.88 L 64.073 534.88 Q 62.952 534.88 62.002 535.58 L 62.002 535.58 L 62.002 535.58 Q 61.053 536.28 60.492 537.51 L 60.492 537.51 L 60.492 537.51 Q 59.986 538.621 59.937 540 L 57.779 540 Z  M 72.034 540 L 73.501 533.78 L 73.501 533.78 Q 73.587 533.42 73.868 533.21 L 73.868 533.21 L 73.868 533.21 Q 74.148 533 74.558 533 L 74.558 533 L 74.558 533 Q 75.313 533 75.55 533.68 L 75.55 533.68 L 77.72 540 L 75.467 540 L 74.709 537.8 L 74.19 540 L 72.034 540 Z  M 79.577 540 L 82.044 533.64 L 82.044 533.64 Q 82.303 533 83.123 533 L 83.123 533 L 83.123 533 Q 83.49 533 83.738 533.21 L 83.738 533.21 L 83.738 533.21 Q 83.986 533.42 84.072 533.78 L 84.072 533.78 L 85.577 540 L 83.436 540 L 82.842 537.5 L 81.863 540 L 79.577 540 Z  M 89.142 540 L 89.142 534.1 L 89.142 534.1 Q 89.142 533.68 89.455 533.39 L 89.455 533.39 L 89.455 533.39 Q 89.767 533.1 90.22 533.1 L 90.22 533.1 L 98.828 533.1 L 98.828 533.1 Q 99.281 533.1 99.583 533.39 L 99.583 533.39 L 99.583 533.39 Q 99.885 533.68 99.885 534.1 L 99.885 534.1 L 99.885 534.1 Q 99.885 534.52 99.583 534.81 L 99.583 534.81 L 99.583 534.81 Q 99.281 535.1 98.828 535.1 L 98.828 535.1 L 91.278 535.1 L 91.278 538.54 L 97.836 538.54 L 97.836 538.54 Q 98.289 538.54 98.591 538.82 L 98.591 538.82 L 98.591 538.82 Q 98.893 539.1 98.893 539.52 L 98.893 539.52 L 98.893 539.52 Q 98.893 539.786 98.772 540 L 89.142 540 Z  M 101.185 540 Q 101.246 538.155 102.064 536.6 L 102.064 536.6 L 102.064 536.6 Q 102.949 534.92 104.427 533.95 L 104.427 533.95 L 104.427 533.95 Q 105.904 532.98 107.609 532.98 L 107.609 532.98 L 107.609 532.98 Q 109.205 532.98 110.489 533.8 L 110.489 533.8 L 110.489 533.8 Q 111.772 534.62 112.495 536.06 L 112.495 536.06 L 112.495 536.06 Q 113.218 537.5 113.218 539.3 L 113.218 539.3 L 113.218 539.3 Q 113.218 539.656 113.191 540 L 111.036 540 Q 111.06 539.697 111.06 539.38 L 111.06 539.38 L 111.06 539.38 Q 111.06 537.98 110.553 536.96 L 110.553 536.96 L 110.553 536.96 Q 110.046 535.94 109.216 535.41 L 109.216 535.41 L 109.216 535.41 Q 108.385 534.88 107.479 534.88 L 107.479 534.88 L 107.479 534.88 Q 106.357 534.88 105.408 535.58 L 105.408 535.58 L 105.408 535.58 Q 104.459 536.28 103.898 537.51 L 103.898 537.51 L 103.898 537.51 Q 103.392 538.621 103.342 540 L 101.185 540 Z  M 115.709 540 L 115.72 533.98 L 115.72 533.98 Q 115.72 533.58 116.012 533.29 L 116.012 533.29 L 116.012 533.29 Q 116.303 533 116.756 533 L 116.756 533 L 116.756 533 Q 117.015 533 117.252 533.11 L 117.252 533.11 L 117.252 533.11 Q 117.489 533.22 117.64 533.42 L 117.64 533.42 L 122.545 540 L 119.975 540 L 117.856 537.16 L 117.849 540 L 115.709 540 Z  M 124.393 540 L 124.393 533.98 L 124.393 533.98 Q 124.393 533.58 124.706 533.28 L 124.706 533.28 L 124.706 533.28 Q 125.019 532.98 125.472 532.98 L 125.472 532.98 L 125.472 532.98 Q 125.903 532.98 126.216 533.28 L 126.216 533.28 L 126.216 533.28 Q 126.529 533.58 126.529 533.98 L 126.529 533.98 L 126.529 540 L 124.393 540 Z  M 129.765 540 L 129.765 534.1 L 129.765 534.1 Q 129.765 533.68 130.077 533.39 L 130.077 533.39 L 130.077 533.39 Q 130.39 533.1 130.843 533.1 L 130.843 533.1 L 139.451 533.1 L 139.451 533.1 Q 139.904 533.1 140.206 533.39 L 140.206 533.39 L 140.206 533.39 Q 140.508 533.68 140.508 534.1 L 140.508 534.1 L 140.508 534.1 Q 140.508 534.52 140.206 534.81 L 140.206 534.81 L 140.206 534.81 Q 139.904 535.1 139.451 535.1 L 139.451 535.1 L 131.9 535.1 L 131.9 538.54 L 138.459 538.54 L 138.459 538.54 Q 138.912 538.54 139.214 538.82 L 139.214 538.82 L 139.214 538.82 Q 139.516 539.1 139.516 539.52 L 139.516 539.52 L 139.516 539.52 Q 139.516 539.786 139.395 540 L 129.765 540 Z  M 153.193 540 L 153.193 535.1 L 149.806 535.1 L 149.806 535.1 Q 149.375 535.1 149.062 534.8 L 149.062 534.8 L 149.062 534.8 Q 148.749 534.5 148.749 534.1 L 148.749 534.1 L 148.749 534.1 Q 148.749 533.68 149.062 533.4 L 149.062 533.4 L 149.062 533.4 Q 149.375 533.12 149.806 533.12 L 149.806 533.12 L 158.738 533.12 L 158.738 533.12 Q 159.191 533.12 159.493 533.4 L 159.493 533.4 L 159.493 533.4 Q 159.795 533.68 159.795 534.1 L 159.795 534.1 L 159.795 534.1 Q 159.795 534.52 159.493 534.81 L 159.493 534.81 L 159.493 534.81 Q 159.191 535.1 158.738 535.1 L 158.738 535.1 L 155.329 535.1 L 155.329 540 L 153.193 540 Z  M 159.498 540 Q 159.559 538.155 160.377 536.6 L 160.377 536.6 L 160.377 536.6 Q 161.262 534.92 162.74 533.95 L 162.74 533.95 L 162.74 533.95 Q 164.218 532.98 165.922 532.98 L 165.922 532.98 L 165.922 532.98 Q 167.518 532.98 168.802 533.8 L 168.802 533.8 L 168.802 533.8 Q 170.086 534.62 170.808 536.06 L 170.808 536.06 L 170.808 536.06 Q 171.531 537.5 171.531 539.3 L 171.531 539.3 L 171.531 539.3 Q 171.531 539.656 171.504 540 L 169.349 540 Q 169.374 539.697 169.374 539.38 L 169.374 539.38 L 169.374 539.38 Q 169.374 537.98 168.867 536.96 L 168.867 536.96 L 168.867 536.96 Q 168.36 535.94 167.529 535.41 L 167.529 535.41 L 167.529 535.41 Q 166.698 534.88 165.792 534.88 L 165.792 534.88 L 165.792 534.88 Q 164.671 534.88 163.721 535.58 L 163.721 535.58 L 163.721 535.58 Q 162.772 536.28 162.211 537.51 L 162.211 537.51 L 162.211 537.51 Q 161.705 538.621 161.656 540 L 159.498 540 Z  M 174.012 540 L 174.012 533.98 L 174.012 533.98 Q 174.012 533.58 174.325 533.29 L 174.325 533.29 L 174.325 533.29 Q 174.638 533 175.091 533 L 175.091 533 L 175.091 533 Q 175.522 533 175.835 533.29 L 175.835 533.29 L 175.835 533.29 Q 176.148 533.58 176.148 533.98 L 176.148 533.98 L 176.148 540 L 174.012 540 Z  M 185.079 540 L 185.079 534.08 L 185.079 534.08 Q 185.079 533.66 185.392 533.38 L 185.392 533.38 L 185.392 533.38 Q 185.705 533.1 186.158 533.1 L 186.158 533.1 L 186.158 533.1 Q 188.337 533.1 190.559 533.7 L 190.559 533.7 L 190.559 533.7 Q 192.781 534.3 194.41 535.94 L 194.41 535.94 L 194.41 535.94 Q 195.901 537.442 196.027 540 L 193.865 540 Q 193.709 537.761 192.058 536.62 L 192.058 536.62 L 192.058 536.62 Q 190.235 535.36 187.236 535.14 L 187.236 535.14 L 187.236 540 L 185.079 540 Z  M 206.48 540 L 207.947 533.78 L 207.947 533.78 Q 208.033 533.42 208.314 533.21 L 208.314 533.21 L 208.314 533.21 Q 208.594 533 209.004 533 L 209.004 533 L 209.004 533 Q 209.759 533 209.997 533.68 L 209.997 533.68 L 212.166 540 L 209.913 540 L 209.155 537.8 L 208.636 540 L 206.48 540 Z  M 214.023 540 L 216.49 533.64 L 216.49 533.64 Q 216.749 533 217.569 533 L 217.569 533 L 217.569 533 Q 217.936 533 218.184 533.21 L 218.184 533.21 L 218.184 533.21 Q 218.432 533.42 218.518 533.78 L 218.518 533.78 L 220.023 540 L 217.882 540 L 217.288 537.5 L 216.309 540 L 214.023 540 Z  M 223.588 540 L 223.588 534.1 L 223.588 534.1 Q 223.588 533.68 223.901 533.39 L 223.901 533.39 L 223.901 533.39 Q 224.213 533.1 224.666 533.1 L 224.666 533.1 L 233.274 533.1 L 233.274 533.1 Q 233.727 533.1 234.029 533.39 L 234.029 533.39 L 234.029 533.39 Q 234.331 533.68 234.331 534.1 L 234.331 534.1 L 234.331 534.1 Q 234.331 534.52 234.029 534.81 L 234.029 534.81 L 234.029 534.81 Q 233.727 535.1 233.274 535.1 L 233.274 535.1 L 225.724 535.1 L 225.724 538.54 L 232.282 538.54 L 232.282 538.54 Q 232.735 538.54 233.037 538.82 L 233.037 538.82 L 233.037 538.82 Q 233.339 539.1 233.339 539.52 L 233.339 539.52 L 233.339 539.52 Q 233.339 539.786 233.218 540 L 223.588 540 Z " fill-rule="evenodd" fill="rgb(0,0,0)"/><path d=" M 386.761 540 L 382.85 534.56 L 382.85 534.56 Q 382.653 534.26 382.653 533.98 L 382.653 533.98 L 382.653 533.98 Q 382.653 533.58 383.01 533.29 L 383.01 533.29 L 383.01 533.29 Q 383.367 533 383.884 533 L 383.884 533 L 383.884 533 Q 384.179 533 384.462 533.13 L 384.462 533.13 L 384.462 533.13 Q 384.745 533.26 384.917 533.5 L 384.917 533.5 L 389.597 540 L 386.761 540 Z  M 389.886 540 L 394.638 533.48 L 394.638 533.48 Q 394.81 533.24 395.093 533.12 L 395.093 533.12 L 395.093 533.12 Q 395.376 533 395.696 533 L 395.696 533 L 395.696 533 Q 396.164 533 396.533 533.29 L 396.533 533.29 L 396.533 533.29 Q 396.902 533.58 396.902 533.98 L 396.902 533.98 L 396.902 533.98 Q 396.902 534.16 396.853 534.28 L 396.853 534.28 L 396.853 534.28 Q 396.803 534.4 396.656 534.62 L 396.656 534.62 L 392.718 540 L 389.886 540 Z  M 398.723 540 L 398.723 534.1 L 398.723 534.1 Q 398.723 533.68 399.08 533.39 L 399.08 533.39 L 399.08 533.39 Q 399.437 533.1 399.953 533.1 L 399.953 533.1 L 409.772 533.1 L 409.772 533.1 Q 410.289 533.1 410.634 533.39 L 410.634 533.39 L 410.634 533.39 Q 410.978 533.68 410.978 534.1 L 410.978 534.1 L 410.978 534.1 Q 410.978 534.52 410.634 534.81 L 410.634 534.81 L 410.634 534.81 Q 410.289 535.1 409.772 535.1 L 409.772 535.1 L 401.159 535.1 L 401.159 538.54 L 408.64 538.54 L 408.64 538.54 Q 409.157 538.54 409.502 538.82 L 409.502 538.82 L 409.502 538.82 Q 409.846 539.1 409.846 539.52 L 409.846 539.52 L 409.846 539.52 Q 409.846 539.786 409.708 540 L 398.723 540 Z  M 416.288 540 Q 415.088 539.592 414.251 539.07 L 414.251 539.07 L 414.251 539.07 Q 412.824 538.18 412.824 536.62 L 412.824 536.62 L 412.824 536.62 Q 412.824 535.56 413.525 534.73 L 413.525 534.73 L 413.525 534.73 Q 414.227 533.9 415.531 533.44 L 415.531 533.44 L 415.531 533.44 Q 416.835 532.98 418.583 532.98 L 418.583 532.98 L 418.583 532.98 Q 421.093 532.98 422.532 533.78 L 422.532 533.78 L 422.532 533.78 Q 423.972 534.58 423.972 535.92 L 423.972 535.92 L 423.972 535.92 Q 423.972 536.36 423.627 536.66 L 423.627 536.66 L 423.627 536.66 Q 423.283 536.96 422.766 536.96 L 422.766 536.96 L 422.766 536.96 Q 422.323 536.96 422.003 536.72 L 422.003 536.72 L 422.003 536.72 Q 421.683 536.48 421.634 536.12 L 421.634 536.12 L 421.634 536.12 Q 421.536 535.56 420.724 535.19 L 420.724 535.19 L 420.724 535.19 Q 419.911 534.82 418.583 534.82 L 418.583 534.82 L 418.583 534.82 Q 416.934 534.82 416.072 535.27 L 416.072 535.27 L 416.072 535.27 Q 415.211 535.72 415.211 536.48 L 415.211 536.48 L 415.211 536.48 Q 415.211 537.18 416.097 537.66 L 416.097 537.66 L 416.097 537.66 Q 416.983 538.14 419.001 538.62 L 419.001 538.62 L 419.001 538.62 Q 421.254 539.146 422.516 540 L 416.288 540 Z  M 437.409 540 L 437.409 535.1 L 435.686 535.1 L 435.686 535.1 Q 435.169 535.1 434.812 534.8 L 434.812 534.8 L 434.812 534.8 Q 434.455 534.5 434.455 534.08 L 434.455 534.08 L 434.455 534.08 Q 434.455 533.66 434.812 533.38 L 434.812 533.38 L 434.812 533.38 Q 435.169 533.1 435.686 533.1 L 435.686 533.1 L 441.568 533.1 L 441.568 533.1 Q 442.084 533.1 442.429 533.38 L 442.429 533.38 L 442.429 533.38 Q 442.773 533.66 442.773 534.08 L 442.773 534.08 L 442.773 534.08 Q 442.773 534.5 442.429 534.8 L 442.429 534.8 L 442.429 534.8 Q 442.084 535.1 441.568 535.1 L 441.568 535.1 L 439.869 535.1 L 439.869 540 L 437.409 540 Z  M 457.213 540 Q 456.013 539.592 455.176 539.07 L 455.176 539.07 L 455.176 539.07 Q 453.749 538.18 453.749 536.62 L 453.749 536.62 L 453.749 536.62 Q 453.749 535.56 454.45 534.73 L 454.45 534.73 L 454.45 534.73 Q 455.152 533.9 456.456 533.44 L 456.456 533.44 L 456.456 533.44 Q 457.76 532.98 459.508 532.98 L 459.508 532.98 L 459.508 532.98 Q 462.018 532.98 463.457 533.78 L 463.457 533.78 L 463.457 533.78 Q 464.897 534.58 464.897 535.92 L 464.897 535.92 L 464.897 535.92 Q 464.897 536.36 464.552 536.66 L 464.552 536.66 L 464.552 536.66 Q 464.208 536.96 463.691 536.96 L 463.691 536.96 L 463.691 536.96 Q 463.248 536.96 462.928 536.72 L 462.928 536.72 L 462.928 536.72 Q 462.608 536.48 462.559 536.12 L 462.559 536.12 L 462.559 536.12 Q 462.461 535.56 461.649 535.19 L 461.649 535.19 L 461.649 535.19 Q 460.836 534.82 459.508 534.82 L 459.508 534.82 L 459.508 534.82 Q 457.859 534.82 456.997 535.27 L 456.997 535.27 L 456.997 535.27 Q 456.136 535.72 456.136 536.48 L 456.136 536.48 L 456.136 536.48 Q 456.136 537.18 457.022 537.66 L 457.022 537.66 L 457.022 537.66 Q 457.908 538.14 459.926 538.62 L 459.926 538.62 L 459.926 538.62 Q 462.179 539.146 463.441 540 L 457.213 540 Z  M 471.049 540 L 471.049 535.1 L 467.186 535.1 L 467.186 535.1 Q 466.693 535.1 466.337 534.8 L 466.337 534.8 L 466.337 534.8 Q 465.98 534.5 465.98 534.1 L 465.98 534.1 L 465.98 534.1 Q 465.98 533.68 466.337 533.4 L 466.337 533.4 L 466.337 533.4 Q 466.693 533.12 467.186 533.12 L 467.186 533.12 L 477.374 533.12 L 477.374 533.12 Q 477.891 533.12 478.235 533.4 L 478.235 533.4 L 478.235 533.4 Q 478.58 533.68 478.58 534.1 L 478.58 534.1 L 478.58 534.1 Q 478.58 534.52 478.235 534.81 L 478.235 534.81 L 478.235 534.81 Q 477.891 535.1 477.374 535.1 L 477.374 535.1 L 473.486 535.1 L 473.486 540 L 471.049 540 Z  M 479.507 540 L 482.665 533.48 L 482.665 533.48 Q 482.812 533.18 483.132 533.02 L 483.132 533.02 L 483.132 533.02 Q 483.452 532.86 483.821 532.86 L 483.821 532.86 L 483.821 532.86 Q 484.215 532.86 484.511 533.02 L 484.511 533.02 L 484.511 533.02 Q 484.806 533.18 484.953 533.52 L 484.953 533.52 L 487.703 540 L 484.712 540 L 485.052 539.94 L 483.723 536.72 L 482.121 540 L 479.507 540 Z  M 492.066 540 L 492.066 534.18 L 492.066 534.18 Q 492.066 533.64 492.201 533.4 L 492.201 533.4 L 492.201 533.4 Q 492.336 533.16 492.742 533.07 L 492.742 533.07 L 492.742 533.07 Q 493.148 532.98 494.034 532.98 L 494.034 532.98 L 495.043 532.98 L 495.043 532.98 Q 499.178 532.98 501.417 534.1 L 501.417 534.1 L 501.417 534.1 Q 503.656 535.22 503.656 537.24 L 503.656 537.24 L 503.656 537.24 Q 503.656 538.872 502.176 540 L 496.321 540 Q 497.874 539.772 499.178 539.3 L 499.178 539.3 L 499.178 539.3 Q 501.22 538.56 501.22 537.24 L 501.22 537.24 L 501.22 537.24 Q 501.22 536.1 499.584 535.5 L 499.584 535.5 L 499.584 535.5 Q 497.947 534.9 494.969 534.9 L 494.969 534.9 L 494.477 534.9 L 494.477 540 L 492.066 540 Z  M 509.784 540 L 509.784 535.1 L 505.921 535.1 L 505.921 535.1 Q 505.428 535.1 505.071 534.8 L 505.071 534.8 L 505.071 534.8 Q 504.715 534.5 504.715 534.1 L 504.715 534.1 L 504.715 534.1 Q 504.715 533.68 505.071 533.4 L 505.071 533.4 L 505.071 533.4 Q 505.428 533.12 505.921 533.12 L 505.921 533.12 L 516.109 533.12 L 516.109 533.12 Q 516.626 533.12 516.97 533.4 L 516.97 533.4 L 516.97 533.4 Q 517.315 533.68 517.315 534.1 L 517.315 534.1 L 517.315 534.1 Q 517.315 534.52 516.97 534.81 L 516.97 534.81 L 516.97 534.81 Q 516.626 535.1 516.109 535.1 L 516.109 535.1 L 512.22 535.1 L 512.22 540 L 509.784 540 Z  M 519.308 540 L 519.308 534.1 L 519.308 534.1 Q 519.308 533.68 519.665 533.39 L 519.665 533.39 L 519.665 533.39 Q 520.022 533.1 520.538 533.1 L 520.538 533.1 L 530.357 533.1 L 530.357 533.1 Q 530.874 533.1 531.219 533.39 L 531.219 533.39 L 531.219 533.39 Q 531.563 533.68 531.563 534.1 L 531.563 534.1 L 531.563 534.1 Q 531.563 534.52 531.219 534.81 L 531.219 534.81 L 531.219 534.81 Q 530.874 535.1 530.357 535.1 L 530.357 535.1 L 521.744 535.1 L 521.744 538.54 L 529.225 538.54 L 529.225 538.54 Q 529.742 538.54 530.087 538.82 L 530.087 538.82 L 530.087 538.82 Q 530.431 539.1 530.431 539.52 L 530.431 539.52 L 530.431 539.52 Q 530.431 539.786 530.293 540 L 519.308 540 Z  M 533.901 540 L 533.901 534.08 L 533.901 534.08 Q 533.901 533.66 534.258 533.38 L 534.258 533.38 L 534.258 533.38 Q 534.615 533.1 535.132 533.1 L 535.132 533.1 L 535.132 533.1 Q 537.617 533.1 540.152 533.7 L 540.152 533.7 L 540.152 533.7 Q 542.687 534.3 544.545 535.94 L 544.545 535.94 L 544.545 535.94 Q 546.246 537.442 546.389 540 L 543.923 540 Q 543.745 537.761 541.862 536.62 L 541.862 536.62 L 541.862 536.62 Q 539.783 535.36 536.362 535.14 L 536.362 535.14 L 536.362 540 L 533.901 540 Z " fill-rule="evenodd" fill="rgb(0,0,0)"/><path d=" M 649.585 540 L 644.624 532.56 L 644.624 532.56 Q 644.441 532.26 644.441 531.98 L 644.441 531.98 L 644.441 531.98 Q 644.441 531.58 644.772 531.29 L 644.772 531.29 L 644.772 531.29 Q 645.103 531 645.583 531 L 645.583 531 L 645.583 531 Q 645.857 531 646.119 531.13 L 646.119 531.13 L 646.119 531.13 Q 646.382 531.26 646.542 531.5 L 646.542 531.5 L 651.016 538.2 L 655.559 531.48 L 655.559 531.48 Q 655.719 531.24 655.981 531.12 L 655.981 531.12 L 655.981 531.12 Q 656.244 531 656.541 531 L 656.541 531 L 656.541 531 Q 656.974 531 657.317 531.29 L 657.317 531.29 L 657.317 531.29 Q 657.659 531.58 657.659 531.98 L 657.659 531.98 L 657.659 531.98 Q 657.659 532.16 657.614 532.28 L 657.614 532.28 L 657.614 532.28 Q 657.568 532.4 657.431 532.62 L 657.431 532.62 L 652.421 540 L 652.421 540 L 649.585 540 Z  M 670.82 540 L 670.82 540 Q 671.288 538.743 671.288 537.3 L 671.288 537.3 L 671.288 537.3 Q 671.288 535.5 670.523 534.06 L 670.523 534.06 L 670.523 534.06 Q 669.759 532.62 668.4 531.8 L 668.4 531.8 L 668.4 531.8 Q 667.042 530.98 665.353 530.98 L 665.353 530.98 L 665.353 530.98 Q 663.549 530.98 661.985 531.95 L 661.985 531.95 L 661.985 531.95 Q 660.422 532.92 659.486 534.6 L 659.486 534.6 L 659.486 534.6 Q 658.55 536.28 658.55 538.3 L 658.55 538.3 L 658.55 538.3 Q 658.55 539.193 658.742 540 L 661.059 540 L 661.059 540 Q 660.833 539.24 660.833 538.3 L 660.833 538.3 L 660.833 538.3 Q 660.833 536.74 661.426 535.51 L 661.426 535.51 L 661.426 535.51 Q 662.02 534.28 663.024 533.58 L 663.024 533.58 L 663.024 533.58 Q 664.029 532.88 665.216 532.88 L 665.216 532.88 L 665.216 532.88 Q 666.174 532.88 667.053 533.41 L 667.053 533.41 L 667.053 533.41 Q 667.932 533.94 668.469 534.96 L 668.469 534.96 L 668.469 534.96 Q 669.005 535.98 669.005 537.38 L 669.005 537.38 L 669.005 537.38 Q 669.005 538.832 668.457 540 L 670.82 540 Z  M 685.86 540 L 685.86 540 Q 685.951 539.624 686.013 539.22 L 686.013 539.22 L 686.013 539.22 Q 686.287 537.36 686.287 535.3 L 686.287 535.3 L 686.287 535.3 Q 686.287 534.56 686.218 532.52 L 686.218 532.52 L 686.195 531.96 L 686.195 531.96 Q 686.195 531.62 685.956 531.31 L 685.956 531.31 L 685.956 531.31 Q 685.716 531 685.077 531 L 685.077 531 L 685.077 531 Q 684.438 531 684.186 531.32 L 684.186 531.32 L 684.186 531.32 Q 683.935 531.64 683.935 532 L 683.935 532 L 683.958 535.2 L 683.958 535.2 Q 683.958 537.34 683.753 539.06 L 683.753 539.06 L 683.753 539.06 Q 683.687 539.566 683.563 540 L 685.86 540 Z  M 673.858 540 Q 673.496 538.76 673.434 537.28 L 673.434 537.28 L 673.434 537.28 Q 673.388 535.6 673.388 535 L 673.388 535 L 673.411 533.46 L 673.411 533.46 Q 673.434 532.96 673.434 531.94 L 673.434 531.94 L 673.434 531.94 Q 673.434 531.62 673.719 531.31 L 673.719 531.31 L 673.719 531.31 Q 674.005 531 674.621 531 L 674.621 531 L 674.621 531 Q 675.215 531 675.466 531.31 L 675.466 531.31 L 675.466 531.31 Q 675.717 531.62 675.717 531.96 L 675.717 531.96 L 675.694 533.4 L 675.694 533.4 Q 675.671 533.82 675.671 534.68 L 675.671 534.68 L 675.671 534.68 Q 675.671 535.32 675.717 537 L 675.717 537 L 675.717 537 Q 675.778 538.708 676.206 540 L 673.858 540 Z  M 699.013 540 L 699.013 540 Q 698.797 539.36 698.797 538.6 L 698.797 538.6 L 698.797 538.6 Q 698.797 537.18 699.47 535.86 L 699.47 535.86 L 699.47 535.86 Q 700.144 534.54 701.24 533.73 L 701.24 533.73 L 701.24 533.73 Q 702.335 532.92 703.477 532.92 L 703.477 532.92 L 703.477 532.92 Q 705.052 532.92 705.897 533.7 L 705.897 533.7 L 705.897 533.84 L 705.897 533.84 Q 705.897 534.16 706.205 534.4 L 706.205 534.4 L 706.205 534.4 Q 706.513 534.64 706.97 534.64 L 706.97 534.64 L 706.97 534.64 Q 707.449 534.64 707.78 534.34 L 707.78 534.34 L 707.78 534.34 Q 708.111 534.04 708.111 533.64 L 708.111 533.64 L 708.111 532.36 L 708.111 532.36 Q 708.111 531.98 707.814 531.71 L 707.814 531.71 L 707.814 531.71 Q 707.517 531.44 707.061 531.44 L 707.061 531.44 L 707.061 531.44 Q 706.65 531.44 706.376 531.68 L 706.376 531.68 L 706.376 531.68 Q 705.805 531.38 705.086 531.18 L 705.086 531.18 L 705.086 531.18 Q 704.367 530.98 703.637 530.98 L 703.637 530.98 L 703.637 530.98 Q 701.902 530.98 700.246 532.05 L 700.246 532.05 L 700.246 532.05 Q 698.591 533.12 697.553 534.89 L 697.553 534.89 L 697.553 534.89 Q 696.514 536.66 696.514 538.6 L 696.514 538.6 L 696.514 538.6 Q 696.514 539.338 696.657 540 L 699.013 540 Z  M 720.375 540 L 720.375 540 L 717.037 531.52 L 717.037 531.52 Q 716.9 531.18 716.626 531.02 L 716.626 531.02 L 716.626 531.02 Q 716.352 530.86 715.987 530.86 L 715.987 530.86 L 715.987 530.86 Q 715.645 530.86 715.348 531.02 L 715.348 531.02 L 715.348 531.02 Q 715.051 531.18 714.914 531.48 L 714.914 531.48 L 711.535 539 L 710.691 539.16 L 710.691 539.16 Q 710.303 539.24 710.063 539.5 L 710.063 539.5 L 710.063 539.5 Q 709.864 539.716 709.83 540 L 716.847 540 L 717.882 539.8 L 717.961 540 L 720.375 540 Z  M 725.904 540 L 725.904 540 L 725.918 535.16 L 729.739 540 L 732.456 540 L 725.689 531.42 L 725.689 531.42 Q 725.529 531.22 725.278 531.11 L 725.278 531.11 L 725.278 531.11 Q 725.027 531 724.753 531 L 724.753 531 L 724.753 531 Q 724.274 531 723.966 531.29 L 723.966 531.29 L 723.966 531.29 Q 723.657 531.58 723.657 531.98 L 723.657 531.98 L 723.642 540 L 725.904 540 Z  M 732.835 540 L 732.835 531.98 L 732.835 531.98 Q 732.835 531.58 733.166 531.28 L 733.166 531.28 L 733.166 531.28 Q 733.497 530.98 733.976 530.98 L 733.976 530.98 L 733.976 530.98 Q 734.433 530.98 734.764 531.28 L 734.764 531.28 L 734.764 531.28 Q 735.095 531.58 735.095 531.98 L 735.095 531.98 L 735.095 540 L 732.835 540 Z  M 748.724 540 L 748.724 540 L 749.774 535.8 L 751.305 540 L 753.687 540 L 750.664 531.68 L 750.664 531.68 Q 750.413 531 749.614 531 L 749.614 531 L 749.614 531 Q 749.18 531 748.883 531.21 L 748.883 531.21 L 748.883 531.21 Q 748.587 531.42 748.495 531.78 L 748.495 531.78 L 746.443 540 L 748.724 540 Z  M 754.104 540 L 757.535 531.64 L 757.535 531.64 Q 757.809 531 758.677 531 L 758.677 531 L 758.677 531 Q 759.065 531 759.327 531.21 L 759.327 531.21 L 759.327 531.21 Q 759.59 531.42 759.681 531.78 L 759.681 531.78 L 761.787 540 L 759.511 540 L 758.38 535.5 L 756.514 540 L 754.104 540 Z  M 774.388 540 L 774.388 540 L 771.05 531.52 L 771.05 531.52 Q 770.913 531.18 770.639 531.02 L 770.639 531.02 L 770.639 531.02 Q 770.365 530.86 770 530.86 L 770 530.86 L 770 530.86 Q 769.658 530.86 769.361 531.02 L 769.361 531.02 L 769.361 531.02 Q 769.064 531.18 768.927 531.48 L 768.927 531.48 L 765.548 539 L 764.704 539.16 L 764.704 539.16 Q 764.316 539.24 764.076 539.5 L 764.076 539.5 L 764.076 539.5 Q 763.877 539.716 763.843 540 L 770.86 540 L 771.895 539.8 L 771.974 540 L 774.388 540 Z  M 783.732 540 L 783.732 540 L 780.661 537.9 L 787.555 532.72 L 787.555 532.72 Q 787.943 532.42 787.943 531.98 L 787.943 531.98 L 787.943 531.98 Q 787.943 531.6 787.612 531.29 L 787.612 531.29 L 787.612 531.29 Q 787.281 530.98 786.848 530.98 L 786.848 530.98 L 786.848 530.98 Q 786.437 530.98 786.117 531.22 L 786.117 531.22 L 779.885 535.9 L 779.885 531.98 L 779.885 531.98 Q 779.885 531.56 779.554 531.28 L 779.554 531.28 L 779.554 531.28 Q 779.223 531 778.766 531 L 778.766 531 L 778.766 531 Q 778.31 531 777.979 531.28 L 777.979 531.28 L 777.979 531.28 Q 777.648 531.56 777.648 531.98 L 777.648 531.98 L 777.648 540 L 779.885 540 L 779.885 539.86 L 780.089 540 L 783.732 540 Z  M 792.76 540 L 792.76 540 L 792.76 538.52 L 799.7 538.52 L 799.7 538.52 Q 800.18 538.52 800.499 538.23 L 800.499 538.23 L 800.499 538.23 Q 800.819 537.94 800.819 537.52 L 800.819 537.52 L 800.819 537.52 Q 800.819 537.1 800.499 536.82 L 800.499 536.82 L 800.499 536.82 Q 800.18 536.54 799.7 536.54 L 799.7 536.54 L 792.76 536.54 L 792.76 533.1 L 800.75 533.1 L 800.75 533.1 Q 801.23 533.1 801.549 532.81 L 801.549 532.81 L 801.549 532.81 Q 801.869 532.52 801.869 532.1 L 801.869 532.1 L 801.869 532.1 Q 801.869 531.68 801.549 531.39 L 801.549 531.39 L 801.549 531.39 Q 801.23 531.1 800.75 531.1 L 800.75 531.1 L 791.642 531.1 L 791.642 531.1 Q 791.162 531.1 790.831 531.39 L 790.831 531.39 L 790.831 531.39 Q 790.5 531.68 790.5 532.1 L 790.5 532.1 L 790.5 540 L 792.76 540 Z  M 817.552 540 L 817.552 540 L 817.552 533.1 L 821.159 533.1 L 821.159 533.1 Q 821.639 533.1 821.958 532.81 L 821.958 532.81 L 821.958 532.81 Q 822.278 532.52 822.278 532.1 L 822.278 532.1 L 822.278 532.1 Q 822.278 531.68 821.958 531.4 L 821.958 531.4 L 821.958 531.4 Q 821.639 531.12 821.159 531.12 L 821.159 531.12 L 811.708 531.12 L 811.708 531.12 Q 811.252 531.12 810.921 531.4 L 810.921 531.4 L 810.921 531.4 Q 810.59 531.68 810.59 532.1 L 810.59 532.1 L 810.59 532.1 Q 810.59 532.5 810.921 532.8 L 810.921 532.8 L 810.921 532.8 Q 811.252 533.1 811.708 533.1 L 811.708 533.1 L 815.292 533.1 L 815.292 540 L 817.552 540 Z  M 826.41 540 L 826.41 540 L 826.41 539.14 L 834.72 538.12 L 834.72 540 L 837.003 540 L 837.003 531.98 L 837.003 531.98 Q 837.003 531.56 836.66 531.28 L 836.66 531.28 L 836.66 531.28 Q 836.318 531 835.861 531 L 835.861 531 L 835.861 531 Q 835.382 531 835.051 531.28 L 835.051 531.28 L 835.051 531.28 Q 834.72 531.56 834.72 531.98 L 834.72 531.98 L 834.72 536.16 L 826.41 537.18 L 826.41 531.98 L 826.41 531.98 Q 826.41 531.56 826.068 531.28 L 826.068 531.28 L 826.068 531.28 Q 825.725 531 825.246 531 L 825.246 531 L 825.246 531 Q 824.766 531 824.447 531.28 L 824.447 531.28 L 824.447 531.28 Q 824.127 531.56 824.127 531.98 L 824.127 531.98 L 824.127 540 L 826.41 540 Z  M 849.769 540 L 849.769 540 L 846.431 531.52 L 846.431 531.52 Q 846.294 531.18 846.02 531.02 L 846.02 531.02 L 846.02 531.02 Q 845.746 530.86 845.381 530.86 L 845.381 530.86 L 845.381 530.86 Q 845.038 530.86 844.742 531.02 L 844.742 531.02 L 844.742 531.02 Q 844.445 531.18 844.308 531.48 L 844.308 531.48 L 840.929 539 L 840.084 539.16 L 840.084 539.16 Q 839.696 539.24 839.457 539.5 L 839.457 539.5 L 839.457 539.5 Q 839.258 539.716 839.224 540 L 846.241 540 L 847.276 539.8 L 847.355 540 L 849.769 540 Z  M 856.453 540 L 856.453 540 L 856.453 533.1 L 860.06 533.1 L 860.06 533.1 Q 860.539 533.1 860.859 532.81 L 860.859 532.81 L 860.859 532.81 Q 861.178 532.52 861.178 532.1 L 861.178 532.1 L 861.178 532.1 Q 861.178 531.68 860.859 531.4 L 860.859 531.4 L 860.859 531.4 Q 860.539 531.12 860.06 531.12 L 860.06 531.12 L 850.609 531.12 L 850.609 531.12 Q 850.152 531.12 849.821 531.4 L 849.821 531.4 L 849.821 531.4 Q 849.49 531.68 849.49 532.1 L 849.49 532.1 L 849.49 532.1 Q 849.49 532.5 849.821 532.8 L 849.821 532.8 L 849.821 532.8 Q 850.152 533.1 850.609 533.1 L 850.609 533.1 L 854.193 533.1 L 854.193 540 L 856.453 540 Z  M 714.183 538.5 L 717.128 537.94 L 715.896 534.72 L 714.183 538.5 L 714.183 538.5 Z  M 768.196 538.5 L 771.141 537.94 L 769.909 534.72 L 768.196 538.5 L 768.196 538.5 Z  M 843.577 538.5 L 846.522 537.94 L 845.289 534.72 L 843.577 538.5 L 843.577 538.5 Z " fill-rule="evenodd" fill="rgb(0,0,0)"/><path d=" M 289.55 540 L 289.55 507.33 L 6.54 507.33 L 6.54 507.33 L 6.54 507.33 L 6.54 507.33 L 6.54 540 L 3.541 540 L 3.541 504.327 L 3.541 504.327 L 3.541 504.327 L 3.541 504.327 L 292.553 504.327 L 292.553 540 L 289.55 540 Z  M 600.78 540 L 600.78 507.33 L 317.77 507.33 L 317.77 507.33 L 317.77 507.33 L 317.77 507.33 L 317.77 540 L 314.767 540 L 314.767 504.327 L 314.767 504.327 L 314.767 504.327 L 314.767 504.327 L 603.779 504.327 L 603.779 540 L 600.78 540 Z  M 904.48 540 L 904.48 507.33 L 628.99 507.33 L 628.99 507.33 L 628.99 507.33 L 628.99 540 L 625.993 540 L 625.993 504.327 L 625.993 504.327 L 625.993 504.327 L 907.483 504.327 L 907.483 540 L 904.48 540 Z " fill-rule="evenodd" fill="rgb(0,0,0)"/></g></g></g></svg>