<svg xmlns="http://www.w3.org/2000/svg" xmlns:xlink="http://www.w3.org/1999/xlink" style="isolation:isolate" viewBox="0 0 600 242" width="600" height="242"
>
    
<style type="text/css">
    
  @font-face {
    font-family: 'Comic Neue';
    src: url('neue.ttf') format('truetype');
  }

  :root {
    --outline-color: #909;
    --dot-color: #090;
  }
  
</style>

<defs id="patterns-filters">
    
    <pattern id="dotz" width="4" height="4" patternUnits="userSpaceOnUse" patternTransform="rotate(45) scale(0.4)">
      <circle cx="2" cy="2" r="1" fill="var(--dot-color,var(--outline-color, #000))" transform="scale(2)" transform-origin="2 2" />
    </pattern>
    
    <linearGradient id="fade" gradientUnits="objectBoundingBox">
      <stop offset="0%" stop-color="#000" stop-opacity="0"/>
      <stop offset="100%" stop-color="#000" />
    </linearGradient>

    <mask id="fade-mask"
     maskUnits="objectBoundingBox"
     maskContentUnits="objectBoundingBox"
    >
      <linearGradient id="fade-gradient"
       gradientTransform="rotate(-25 0.5 0.5)"
      >
        <stop offset="0%" stop-color="#fff" stop-opacity="1" />
        <stop offset="100%" stop-color="#fff" stop-opacity="0" />
      </linearGradient>
      <rect width="1" height="1" fill="url(#fade-gradient)" />
    </mask>
    
    <filter id="blur">
      <feGaussianBlur in="SourceGraphic" stdDeviation="0.3" />
    </filter>

    <filter id="shake" width="120%" height="120%" color-interpolation-filters="sRGB">
      <feImage href="newsprint.jpg" x="0" y="0" width="120%" height="120%" preserveAspectRatio="xMidYMid slice" result="mig" />
      <feDisplacementMap in="SourceGraphic" in2="mig" result="rat" scale="7" xChannelSelector="R" yChannelSelector="B" />
      <feGaussianBlur in="rat" stdDeviation="0.3" />
    </filter>
    
    <pattern id="newsprint" patternUnits="userSpaceOnUse" width="600" height="800">
      <image href="newsprint.jpg" width="600" height="800" preserveAspectRatio="none" />
    </pattern>

</defs>
 
<defs id="panel-clips">
    
  <clipPath id="panel_1">
    <path d="M17 55 H151 V225 H17 Z" />
  </clipPath>

  <clipPath id="panel_2">
    <path d="M161 55 H295 V225 H161 Z" />
  </clipPath>

  <clipPath id="panel_3">
    <path d="M305 55 H439 V225 H305 Z" />
  </clipPath>

  <clipPath id="panel_4">
    <path d="M449 55 H583 V225 H449 Z" />
  </clipPath>
  
  <clipPath id="panel_1and2">
    <path d="M17 55 H239 V225 H17 Z" />
  </clipPath>
  
  <clipPath id="panel_2and3">
    <path d="M161 55 H439 V225 H161 Z" />
  </clipPath>
  
  <clipPath id="panel_3and4">
    <path d="M305 55 H583 V225 H305 Z" />
  </clipPath>
  
</defs>
  
<defs>
  <g id="ikon">
    
    <path d="M0 0 H600 V242 H0Z" fill="url(#newsprint)" />
    
    
    <g opacity="0.45" filter="url(#shake)" mask="url(#fade-mask)">
        
    <!--<path d="M17 55 h566 v170 H17Z" fill="url(#fade)" />-->
    
    <g clip-path="url(#panel_1)">
        <circle r="80" fill="#909" cx="100" cy="100" />
    </g>
    <g clip-path="url(#panel_2)">
        <circle r="80" fill="#909" cx="100" cy="100" />
        <circle r="80" fill="#909" cx="260" cy="200" />
    </g>
    <g clip-path="url(#panel_3and4)">
        <circle r="80" fill="#909" cx="260" cy="200" />
        <circle r="80" fill="#909" cx="380" cy="50" />
    </g>
    <g clip-path="url(#panel_4)">
        <circle r="80" fill="#909" cx="560" cy="160" />
    </g>

    <g id="border">
    
      <path id="panel-borders" d="
        M 17 17 H 583
        M17 55h134v170H17Z
        M161 55h134v170H161Z
        M305 55h134v170H305Z
        M449 55h134v170H449Z
      " stroke-width="1" stroke="var(--border-color,var(--outline-color,#000))" fill="none" />
    
    
      <g id="title-graphic" transform="translate(28 20) scale(0.18)"
        fill="var(--title-color, var(--outline-color, #000))" >
          
        <path id="livingthings" d="
        
        M 0 7 L 51 3 L 48 82 L 80 75 L 80 98 L 4 103 Z
        
        M 81 47 L 124 45.84 L 115 102 L 84.07 101 Z
        
        M 206 20 L 184 102 L 170 101.61 L 151 102 L 123 11 L 170 3 L 174 59 L 188 0 L 209 7 L 208 10.51 L 254.6 4 L 246.13 101 L 213 99 Z
        
        M 336 95 L 336 95 L 304 103 L 278 55 L 279 100 L 261 100 L 254.6 11 L 291 3 L 308 39.45 L 306 3 L 333 7 L 334 37.76 C 345 12 379 -2 409 8 L 390 44 C 381 34 365 42 365 53 C 365 76 388 78 396 67 L 396 67 L 396 60 L 384 64.64 L 381.56 49 L 416 49 L 422 105 L 394 102 L 394 98 C 377 111 349.35 107 336 77 Z
        
        M 612 38 L 598 39 L 598 1 L 563.28 6 L 563.88 3 L 460 4 L 460 24 L 488 21.24 L 488.83 100 L 539 96 L 533 17 L 555 20 L 562 102 L 598 100 L 598 71 L 614 68 L 616.84 100 L 639 98.92 L 639 1 L 609 1 Z
        
        M 646 49 L 683 48 L 679 103 L 649 102 L 646 49 L 646 49 L 646 49 Z
        
        M 858 86 L 853 48 L 812 49.33 L 815 63 L 834 58.51 L 833 73 C 820 81 803 77 803 52.27 C 803 41 819 33 828 43 L 846 7 C 814 -4 778 12 768 42 L 768 4 L 742 4 L 745.17 43 L 726 4 L 689.84 11.77 L 694 101 L 714 100 L 713 58 L 736 103 L 768 94 L 768 72 C 769 73 769.38 73 769 74 C 780 106 813 110 831 97 L 830 106 L 860 101 L 859 96.37 C 894 117 946 99 933 64 C 928 49 899 50 891 43 C 880 34 899 29 916 45 L 936 23 C 896 -20 833.44 15 860 45 C 872 59 893 53 898.81 64.31 C 903 74 883 74.59 874 64 Z
        
        " />
    
        <!--<circle cx="106" cy="22" r="21" />-->
        <!--<circle cx="666" cy="24" r="21" />-->
        
        <path id="title-heart" d=" M 33.36 9 C 58 -12 88 37 25 56 C -27 18 16 -18 33.36 9 Z  M 31 19 C 51 -0 72 34 26 47 C -11 18 20.37 -4 31 19 Z " fill-rule="evenodd" transform="translate(70 -7)" />

        <path id="title-square" d=" M 2.39 41.9 L 0 0 L 46.07 1.76 L 41.68 41.9 L 2.39 41.9 Z  M 9 34 L 8 8 L 37 9 L 34 34 L 9 34 Z " fill-rule="evenodd" transform="translate(645 0)"
        />
        
      </g>
      
      <text id="copyright" transform="translate(447 225) rotate(270)"
        font-family="Times New Roman" font-weight="400" font-size="9"
        fill="var(--text-color,var(--outline-color,#000))"
      >&#xA9;MCMLXXXVIII &#xB7; Trilobyte</text>
    
    </g>
    
    
    <!-- DEBUGG -->
    <!-- :%s/\v(\d+\.\d{3})/\=printf("%d", float2nr(submatch(1) + 0.5))/g -->
    <!--path id="test" fill="none" stroke="blue" stroke-width="1" opacity="0.5" d="

            
    " /-->
    
    </g>

    
  </g>
    
</defs>

<use href="#ikon"/>

</svg>