<svg xmlns="http://www.w3.org/2000/svg">

  <style>
    @font-face {
      font-family: 'Comic Font';
      /* src: url('neue.ttf') format('truetype'); */
      src: url('ComicRelief-Regular.ttf') format('truetype');
    }

    .comic-text {
      font-family: 'Comic Font';
      font-weight: normal;
      font-size: 26px;
    }

    .comic-border {
      fill: none;
      stroke: #000;
      stroke-width: 4px;
    }
  </style>

  <defs>

    <path id="upper_comics"
      transform="translate(18 0) scale(1.4)"
      d=" M 461.0 0 L 461.0 48.0 L 549.0 48.0 L 549.0 48.0 L 549.0 48.0 L 549.0 48.0 L 549.0 48.0 C 584.0 42.6 626.4 26.9 671.6 25.0 L 671.6 0 L 673.8 0 L 673.8 50.2 L 458.8 50.2 L 458.8 0 L 461.0 0 Z  M 684.8 0 L 684.8 48.0 L 769.1 48.0 L 769.1 48.0 L 769.1 48.0 L 769.1 48.0 L 769.1 48.0 C 769.6 29.3 746.3 32.0 759.6 18.0 Q 768.5 8.5 812.7 13.0 L 819.4 0 L 882.5 0 C 880.1 15.0 877.2 33.8 880.0 48.0 L 900.4 48.0 L 900.4 0 L 902.6 0 L 902.6 50.2 L 682.6 50.2 L 682.6 0 L 684.8 0 Z  M 2.2 0 L 2.2 48.0 L 16.6 48.0 L 16.6 48.0 L 16.6 48.0 L 16.6 48.0 L 16.6 48.0 L 16.6 48.0 L 15.5 23.9 L 9.8 21.6 C 9.2 21.4 8.6 21.1 8.1 20.7 C 7.9 20.5 7.7 20.3 7.5 20.1 C 7.3 19.8 7.3 19.5 7.3 19.1 C 7.3 18.8 7.4 18.4 7.6 18.2 C 7.7 17.9 8.0 17.7 8.2 17.5 C 8.8 17.2 9.5 16.9 10.1 16.8 L 84.4 0 L 93.4 0 L 10.6 18.7 C 10.5 18.8 10.5 18.8 10.5 18.8 L 9.4 19.2 C 9.7 19.4 10.1 19.6 10.4 19.8 C 10.5 19.8 10.5 19.8 10.5 19.8 L 82.8 48.0 L 224.4 48.0 L 224.4 0 L 226.6 0 L 226.6 50.2 L 0 50.2 L 0 0 L 2.2 0 Z  M 149.2 0 L 149.2 0 L 117.3 12.6 L 183.0 36.5 C 209.5 25.0 219.9 18.9 214.5 18.1 C 212.0 17.7 201.5 26.0 193.5 25.0 C 188.3 24.3 183.8 27.5 180.0 33.6 L 178.4 31.4 Q 187.8 22.3 193.0 23.2 Q 202.1 24.6 211.1 17.3 C 208.2 15.2 200.6 12.0 188.5 7.7 C 208.1 12.8 218.6 16.6 220.0 19.1 C 221.8 22.3 188.0 39.1 183.3 39.2 C 180.2 39.3 155.7 30.9 113.7 12.1 Q 112.6 11.7 113.4 10.2 L 143.5 0 L 149.2 0 Z  M 330.2 0 C 328.6 4.0 327.3 9.2 326.1 15.5 C 311.5 8.9 297.3 4.0 283.7 0.9 L 283.7 0.9 L 283.7 0.9 L 283.7 0.9 L 283.7 0.9 C 283.9 0.6 284.0 0.3 284.2 0 L 281.5 0 C 279.5 4.2 277.8 8.6 276.4 13.2 C 273.2 23.5 271.5 34.4 271.5 45.4 C 271.5 45.4 271.5 45.4 271.5 45.4 L 271.6 50.1 L 325.6 50.1 C 326.5 23.9 329.1 7.1 333.3 0 L 330.2 0 Z  M 446.6 0 Q 446.6 0.4 446.5 0.7 L 446.5 0.7 L 447.0 0.8 L 447.0 0.8 Q 447.1 0.1 447.3 0.1 L 447.3 0.1 L 447.3 0.1 L 447.3 0.1 L 447.3 0.1 L 447.3 0.1 Q 447.4 0.1 447.6 0.3 L 447.6 0.3 L 450.5 3.3 L 451.0 3.3 L 454.1 0.4 L 454.1 0.4 Q 454.3 0.1 454.4 0.1 L 454.4 0.1 L 454.4 0.1 Q 454.5 0.1 454.6 0.2 L 454.6 0.2 L 454.6 0.2 Q 454.6 0.3 454.6 0.3 L 454.6 0.3 L 454.6 0.3 Q 454.7 0.4 454.7 0.5 L 454.7 0.5 L 454.7 0.5 Q 454.7 0.5 454.7 0.6 L 454.7 0.6 L 454.7 0.6 Q 454.7 0.7 454.7 0.8 L 454.7 0.8 L 454.7 0.8 Q 454.8 0.9 454.8 0.9 L 454.8 0.9 L 455.2 0.8 L 455.2 0.8 Q 455.2 0.4 455.1 0 L 452.2 0 L 450.3 1.8 L 448.4 0 L 446.6 0 Z  M 275.8 33.2 C 288.7 36.2 300.2 40.6 310.2 46.5 L 322.6 46.6 C 323.3 35.3 324.3 25.7 325.7 17.8 C 310.9 10.5 296.4 6.0 282.3 4.2 C 281.2 6.9 280.2 9.6 279.4 12.5 C 292.8 15.6 306.6 20.5 320.9 27.2 L 320.9 29.6 C 306.5 22.2 292.3 17.6 278.5 15.8 C 277.8 18.6 277.3 21.5 276.8 24.4 C 289.3 27.4 302.3 32.0 315.7 38.2 L 315.7 40.5 C 302.3 33.7 289.2 29.4 276.3 27.5 C 276.1 29.4 275.9 31.2 275.8 33.2 L 275.8 33.2 L 275.8 33.2 L 275.8 33.2 L 275.8 33.2 Z  M 79.2 42.5 C 79.1 42.4 79.0 42.3 78.9 42.2 C 78.6 41.8 78.3 41.4 78.0 40.9 C 77.8 40.5 77.5 40.0 77.2 39.5 C 76.8 38.7 76.4 37.9 76.0 37.1 C 75.7 36.4 75.4 35.8 75.1 35.1 C 74.7 34.3 74.3 33.4 73.9 32.5 C 72.8 30.1 71.7 27.7 70.7 25.2 C 69.1 21.5 67.6 17.6 66.1 13.8 C 66.4 13.7 66.6 13.7 66.9 13.6 C 67.5 13.5 68.0 13.5 68.6 13.4 C 69.6 13.3 70.7 13.2 71.8 13.2 C 72.7 13.1 73.5 13.1 74.4 13.1 C 75.6 13.0 76.9 13.0 78.1 13.0 C 81.6 12.9 85.0 13.0 88.5 13.0 C 94.5 13.2 100.5 13.3 106.6 13.6 L 130.7 42.4 C 122.2 42.7 113.6 42.9 105.1 43.1 C 100.6 43.2 96.0 43.3 91.5 43.3 C 89.3 43.2 87.1 43.2 84.9 43.1 C 83.8 43.1 82.8 43.0 81.7 42.9 C 81.2 42.9 80.7 42.8 80.2 42.7 C 79.9 42.7 79.7 42.6 79.5 42.6 C 79.4 42.6 79.3 42.5 79.2 42.5 L 79.2 42.5 L 79.2 42.5 L 79.2 42.5 L 79.2 42.5 L 79.2 42.5 L 79.2 42.5 Z  M 447.7 3.5 L 447.7 3.5 L 454.1 3.5 L 454.1 3.5 Q 454.3 3.5 454.3 3.5 L 454.3 3.5 L 454.3 3.5 Q 454.4 3.4 454.5 3.3 L 454.5 3.3 L 454.5 3.3 Q 454.6 3.1 454.7 2.5 L 454.7 2.5 L 454.7 2.3 L 455.2 2.4 L 455.2 2.4 Q 455.1 3.5 455.1 4.4 L 455.1 4.4 L 455.1 4.4 Q 455.1 5.3 455.2 6.2 L 455.2 6.2 L 454.7 6.3 L 454.7 6.3 Q 454.5 5.5 454.3 5.3 L 454.3 5.3 L 454.3 5.3 Q 454.3 5.3 454.1 5.3 L 454.1 5.3 L 447.7 5.3 L 447.7 5.3 Q 447.5 5.3 447.4 5.3 L 447.4 5.3 L 447.4 5.3 Q 447.4 5.4 447.3 5.5 L 447.3 5.5 L 447.3 5.5 Q 447.2 5.8 447.1 6.2 L 447.1 6.2 L 447.0 6.3 L 446.5 6.2 L 446.5 6.2 Q 446.6 5.3 446.6 4.4 L 446.6 4.4 L 446.6 4.4 Q 446.6 3.5 446.5 2.6 L 446.5 2.6 L 447.0 2.5 L 447.0 2.5 Q 447.2 3.4 447.4 3.5 L 447.4 3.5 L 447.4 3.5 Q 447.5 3.5 447.7 3.5 L 447.7 3.5 L 447.7 3.5 L 447.7 3.5 Z  M 450.2 34.1 L 450.2 34.1 L 450.2 34.1 Q 450.5 34.3 450.9 34.3 L 450.9 34.3 L 450.9 34.3 Q 451.4 34.3 451.5 34.3 L 451.5 34.3 L 451.6 35.0 L 451.6 35.0 Q 451.4 35.1 450.8 35.2 L 450.8 35.2 L 450.8 35.2 Q 450.2 35.4 449.9 35.4 L 449.9 35.4 L 449.9 35.4 Q 449.3 33.9 449.3 33.0 L 449.3 33.0 L 449.3 33.0 Q 449.3 32.0 449.7 31.3 L 449.7 31.3 L 449.7 31.3 Q 450.1 30.6 450.9 30.6 L 450.9 30.6 L 450.9 30.6 Q 451.7 30.6 452.1 31.0 L 452.1 31.0 L 452.1 31.0 Q 452.6 31.4 453.2 32.1 L 453.2 32.1 L 453.2 32.1 Q 453.4 32.4 454.0 33.6 L 454.0 33.6 L 454.2 33.6 L 454.2 31.4 L 454.2 31.4 Q 454.0 31.2 453.7 31.0 L 453.7 31.0 L 453.7 31.0 Q 453.3 30.7 453.1 30.7 L 453.1 30.7 L 453.2 30.1 L 453.2 30.1 Q 453.4 30.1 454.1 30.2 L 454.1 30.2 L 454.1 30.2 Q 454.9 30.3 455.1 30.4 L 455.1 30.4 L 455.1 35.4 L 454.4 35.5 L 454.4 35.5 Q 453.4 34.1 452.9 33.5 L 452.9 33.5 L 452.9 33.5 Q 451.9 32.5 451.1 32.5 L 451.1 32.5 L 451.1 32.5 Q 450.6 32.5 450.3 32.7 L 450.3 32.7 L 450.3 32.7 Q 450.0 32.9 450.0 33.3 L 450.0 33.3 L 450.0 33.3 Q 450.0 33.8 450.2 34.1 L 450.2 34.1 L 450.2 34.1 L 450.2 34.1 Z  M 454.5 25.7 L 454.5 25.7 L 454.5 25.7 Q 454.5 25.0 453.9 24.5 L 453.9 24.5 L 453.9 24.5 Q 453.4 24.1 452.3 24.1 L 452.3 24.1 L 452.3 24.1 Q 451.2 24.1 450.6 24.5 L 450.6 24.5 L 450.6 24.5 Q 450.1 25.0 450.1 25.7 L 450.1 25.7 L 450.1 25.7 Q 450.1 26.4 450.6 26.9 L 450.6 26.9 L 450.6 26.9 Q 451.2 27.4 452.3 27.4 L 452.3 27.4 L 452.3 27.4 Q 453.4 27.4 453.9 26.9 L 453.9 26.9 L 453.9 26.9 Q 454.5 26.4 454.5 25.7 L 454.5 25.7 L 454.5 25.7 L 454.5 25.7 Z  M 450.2 20.1 L 450.2 20.1 L 450.2 20.1 Q 450.5 20.2 450.9 20.2 L 450.9 20.2 L 450.9 20.2 Q 451.4 20.2 451.5 20.2 L 451.5 20.2 L 451.6 20.9 L 451.6 20.9 Q 451.4 21.0 450.8 21.2 L 450.8 21.2 L 450.8 21.2 Q 450.2 21.3 449.9 21.3 L 449.9 21.3 L 449.9 21.3 Q 449.3 19.9 449.3 18.9 L 449.3 18.9 L 449.3 18.9 Q 449.3 17.9 449.7 17.2 L 449.7 17.2 L 449.7 17.2 Q 450.1 16.5 450.9 16.5 L 450.9 16.5 L 450.9 16.5 Q 451.7 16.5 452.1 16.9 L 452.1 16.9 L 452.1 16.9 Q 452.6 17.3 453.2 18.1 L 453.2 18.1 L 453.2 18.1 Q 453.4 18.3 454.0 19.6 L 454.0 19.6 L 454.2 19.5 L 454.2 17.3 L 454.2 17.3 Q 454.0 17.2 453.7 16.9 L 453.7 16.9 L 453.7 16.9 Q 453.3 16.7 453.1 16.6 L 453.1 16.6 L 453.2 16.0 L 453.2 16.0 Q 453.4 16.0 454.1 16.2 L 454.1 16.2 L 454.1 16.2 Q 454.9 16.3 455.1 16.3 L 455.1 16.3 L 455.1 21.3 L 454.4 21.4 L 454.4 21.4 Q 453.4 20.0 452.9 19.4 L 452.9 19.4 L 452.9 19.4 Q 451.9 18.4 451.1 18.4 L 451.1 18.4 L 451.1 18.4 Q 450.6 18.4 450.3 18.6 L 450.3 18.6 L 450.3 18.6 Q 450.0 18.8 450.0 19.3 L 450.0 19.3 L 450.0 19.3 Q 450.0 19.7 450.2 20.1 L 450.2 20.1 L 450.2 20.1 L 450.2 20.1 Z  M 452.4 12.7 L 452.4 12.7 L 452.4 12.7 Q 452.4 11.8 452.8 11.1 L 452.8 11.1 L 452.8 11.1 Q 453.4 10.2 454.7 10.2 L 454.7 10.2 L 454.7 10.2 Q 455.9 10.2 456.6 11.0 L 456.6 11.0 L 456.6 11.0 Q 457.3 11.9 457.3 13.1 L 457.3 13.1 L 457.3 13.1 Q 457.3 14.1 456.9 15.6 L 456.9 15.6 L 456.9 15.6 Q 456.6 15.6 455.9 15.4 L 455.9 15.4 L 455.9 15.4 Q 455.3 15.3 455.0 15.1 L 455.0 15.1 L 455.1 14.5 L 455.1 14.5 Q 455.5 14.5 455.8 14.5 L 455.8 14.5 L 455.8 14.5 Q 456.2 14.5 456.4 14.4 L 456.4 14.4 L 456.4 14.4 Q 456.6 13.9 456.6 13.3 L 456.6 13.3 L 456.6 13.3 Q 456.6 12.7 456.1 12.4 L 456.1 12.4 L 456.1 12.4 Q 455.7 12.0 455.0 12.0 L 455.0 12.0 L 455.0 12.0 Q 453.2 12.0 453.2 13.8 L 453.2 13.8 L 453.2 13.8 Q 453.2 14.1 453.3 14.4 L 453.3 14.4 L 452.8 14.9 L 449.5 14.3 L 449.4 11.6 L 449.4 11.6 Q 449.3 10.8 449.1 10.4 L 449.1 10.4 L 449.3 10.3 L 449.3 10.3 Q 449.5 10.3 449.9 10.4 L 449.9 10.4 L 449.9 10.4 Q 450.3 10.6 450.4 10.6 L 450.4 10.6 L 450.4 13.2 L 452.4 13.5 L 452.5 13.4 L 452.5 13.4 Q 452.4 13.0 452.4 12.7 L 452.4 12.7 L 452.4 12.7 L 452.4 12.7 Z  M 451.8 39.2 L 451.7 40.0 L 451.7 40.0 Q 451.5 39.9 451.4 39.9 L 451.4 39.9 L 451.4 39.9 Q 450.6 39.9 450.3 40.1 L 450.3 40.1 L 450.3 40.1 Q 450.1 40.5 450.1 41.1 L 450.1 41.1 L 450.1 41.1 Q 450.1 42.2 452.1 42.2 L 452.1 42.2 L 452.1 42.2 Q 453.2 42.2 453.7 41.8 L 453.7 41.8 L 453.7 41.8 Q 454.3 41.3 454.3 40.6 L 454.3 40.6 L 454.3 40.6 Q 454.3 39.8 453.8 38.9 L 453.8 38.9 L 454.2 38.6 L 454.2 38.6 Q 455.3 39.9 455.3 41.0 L 455.3 41.0 L 455.3 41.0 Q 455.3 42.4 454.5 43.2 L 454.5 43.2 L 454.5 43.2 Q 453.7 44.1 452.5 44.1 L 452.5 44.1 L 452.5 44.1 Q 451.2 44.1 450.3 43.2 L 450.3 43.2 L 450.3 43.2 Q 449.4 42.4 449.4 41.0 L 449.4 41.0 L 449.4 41.0 Q 449.4 40.6 449.6 39.8 L 449.6 39.8 L 449.6 39.8 Q 449.8 39.1 449.9 38.7 L 449.9 38.7 L 449.9 38.7 Q 450.2 38.7 450.9 38.9 L 450.9 38.9 L 450.9 38.9 Q 451.5 39.1 451.8 39.2 L 451.8 39.2 L 451.8 39.2 L 451.8 39.2 L 451.8 39.2 L 451.8 39.2 Z  M 118.4 24.6 L 107.8 11.9 C 107.6 11.7 107.4 11.6 107.1 11.6 C 100.9 11.3 94.7 11.2 88.5 11.0 C 85.0 11.0 81.6 10.9 78.1 11.0 C 76.8 11.0 75.6 11.0 74.4 11.1 C 73.5 11.1 72.6 11.1 71.7 11.2 C 70.6 11.2 69.5 11.3 68.4 11.4 C 67.8 11.5 67.2 11.6 66.6 11.7 C 66.1 11.7 65.7 11.8 65.3 12.0 C 65.0 12.0 64.8 12.2 64.6 12.3 C 64.5 12.3 64.4 12.4 64.3 12.5 C 64.0 12.7 63.8 13.0 63.7 13.3 C 65.4 17.6 67.1 21.8 68.9 26.0 C 69.9 28.5 71.0 30.9 72.1 33.4 C 72.4 34.2 72.8 35.1 73.2 36.0 C 73.6 36.6 73.9 37.3 74.2 37.9 C 74.6 38.8 75.0 39.6 75.5 40.4 C 75.7 41.0 76.0 41.5 76.3 42.0 C 76.6 42.5 77.0 43.0 77.4 43.5 C 77.6 43.7 77.8 43.9 78.1 44.1 C 78.2 44.2 78.3 44.3 78.4 44.3 C 78.6 44.4 78.8 44.5 78.9 44.5 C 79.2 44.6 79.5 44.7 79.9 44.7 C 80.4 44.8 81 44.9 81.5 44.9 C 82.6 45.0 83.7 45.1 84.8 45.1 C 87.1 45.2 89.3 45.2 91.5 45.3 C 96.1 45.3 100.6 45.2 105.1 45.1 C 114.3 44.9 123.6 44.6 132.8 44.3 L 132.8 44.3 L 132.8 44.3 C 133.2 44.3 133.5 44.1 133.7 43.7 C 133.8 43.4 133.8 43.0 133.5 42.7 L 120.1 26.6 L 140.4 26.6 L 161.6 47.5 L 163.0 46.0 L 141.2 24.6 L 118.4 24.6 L 118.4 24.6 L 118.4 24.6 L 118.4 24.6 L 118.4 24.6 Z  M 449.3 25.7 L 449.3 25.7 L 449.3 25.7 Q 449.3 24.1 450.1 23.1 L 450.1 23.1 L 450.1 23.1 Q 450.9 22.2 452.2 22.2 L 452.2 22.2 L 452.2 22.2 Q 453.6 22.2 454.4 23.2 L 454.4 23.2 L 454.4 23.2 Q 455.3 24.2 455.3 25.7 L 455.3 25.7 L 455.3 25.7 Q 455.3 27.3 454.5 28.3 L 454.5 28.3 L 454.5 28.3 Q 453.6 29.2 452.3 29.2 L 452.3 29.2 L 452.3 29.2 Q 451.0 29.2 450.1 28.3 L 450.1 28.3 L 450.1 28.3 Q 449.3 27.3 449.3 25.7 L 449.3 25.7 L 449.3 25.7 L 449.3 25.7 Z  M 448.4 41.1 C 448.4 40.0 448.9 39.0 449.6 38.2 C 450.4 37.5 451.4 37.0 452.5 37.0 C 453.6 37.0 454.6 37.5 455.4 38.2 C 456.2 39.0 456.6 40.0 456.6 41.1 C 456.6 42.2 456.2 43.2 455.4 44.0 C 454.6 44.8 453.6 45.2 452.5 45.2 C 451.4 45.2 450.4 44.8 449.6 44.0 C 448.9 43.2 448.4 42.2 448.4 41.1 L 448.4 41.1 L 448.4 41.1 L 448.4 41.1 Z  M 447.4 41.1 C 447.4 38.3 449.7 36.0 452.5 36.0 C 455.3 36.0 457.6 38.3 457.6 41.1 C 457.6 43.9 455.3 46.2 452.5 46.2 C 449.7 46.2 447.4 43.9 447.4 41.1 L 447.4 41.1 L 447.4 41.1 L 447.4 41.1 Z "
      fill-rule="evenodd" fill="rgb(0,0,0)" />

    <clipPath id="lower_clip">
      <rect width="1300" height="82" />
    </clipPath>

    <g id="lower_comics" clip-path="url(#lower_clip)">

      <text font-family="Sans Serif" x="30" y="22" font-size="25" font-weight="bold">DEXTRO</text>
      <path d="M 12.5 30 H 1287.5" fill="none" stroke="#000" stroke-width="1" />
      <path class="comic-border" d="
        M 25 150
        v -100 h 400 v 100
        m 25 0 v -100 h 400 v 100 
        m 25 0 v -100 h 400 v 100 
      "/>

      <g transform="translate(0 90)">
        <text class="comic-text" text-anchor="middle" x="220">
          SOMEONE TOLD ME
        </text>
        <text class="comic-text" text-anchor="middle" x="650">
          YES, I STARTED
        </text>
        <text class="comic-text" text-anchor="middle" x="1070">
          YOU CAN MAKE THAT
        </text>
      </g>

    </g>

  </defs>

</svg>