<svg xmlns="http://www.w3.org/2000/svg" style="isolation:isolate" XXXviewBox="-36 -72 540 684" viewBox="0 0 540 684" width="540pt" height="684pt">

<style>
  :root {
    --line-color: #111;
    --pot-color: rgb(232,232,232);
    --shirt-color: rgb(159,172,179);
    --pants-color: rgb(150,128,82);
    --hat-color: rgb(93,93,93);
  }
</style>

<g id="lamp">

<ellipse cx="75.43573007321767" cy="200.3777812700515" rx="67.85858396353326" ry="2.5850341584016405" fill="rgb(0,0,0)" />

<path d="M 89.811 8.220000000000027 L 68.545 6.5260000000000105 L 80.035 13.199000000000012 L 83.625 12.353000000000009 L 89.729 12.225999999999999 C 90.852 23.264999999999986 87.937 28.819999999999993 80.963 28.87099999999998 C 83.103 36.07900000000001 85.552 39.42399999999998 88.307 38.90499999999997 C 96.712 39.15899999999999 101.39 30.187000000000012 102.318 11.963999999999999 L 89.811 8.220000000000027 Z M 102.591 171.226 L 110.383 171.57600000000002 C 106.752 139.803 107.827 106.20400000000001 113.613 70.78300000000002 L 93.484 69.12099999999998 C 88.368 110.92000000000002 89.889 145.62400000000002 98.053 171.02200000000005 L 102.591 171.226 L 107.387 197.44600000000003 L 90.935 197.44600000000003 L 87.634 181.40999999999997 L 90.031 181.40999999999997 C 87.699 118.86599999999999 81.465 87.62 86.968 60.71300000000002 L 84.267 47.24000000000001 L 85.026 39.13900000000001 L 108.726 42.012 L 106.425 50.23000000000002 L 118.632 51.87700000000001 L 124.613 64.92500000000001 L 118.632 65.22300000000001 C 111.945 101.35000000000002 111.414 140.08100000000002 117.031 181.40999999999997 L 121.59 182.42499999999995 L 124.613 196.52599999999995 L 107.387 197.44600000000003 L 102.591 171.226 Z" fill-rule="evenodd" fill="rgb(159,172,179)" />

<path d="M 67.149 172.09900000000005 L 85.526 170.30399999999997 C 82.006 131.06400000000002 75.81 105.32499999999999 80.963 68.14999999999998 L 56.44799999999999 69.44099999999997 C 55.185 104.24799999999999 56.685 138.66699999999997 60.952 172.70500000000004 L 67.149 172.09900000000005 L 65.623 199.90999999999997 L 38.813 199.52499999999998 L 40.891 184.414 L 46.741 184.115 L 49.745999999999995 65.62099999999998 L 40.644 64.15800000000002 C 41.844 59.78399999999999 44.876 55.17700000000002 49.745999999999995 50.341999999999985 L 61.611000000000004 51.04899999999998 L 59.334999999999994 41.55099999999999 L 80.371 40.168000000000006 C 73.126 37.809000000000026 67.519 31.52199999999999 67.149 21.884000000000015 C 66.12 17.048999999999978 66.237 12.733000000000004 68.81 6.730000000000018 L 80.035 13.199000000000012 C 78.625 27.005999999999972 81.473 35.791 88.561 39.535000000000025 L 85.178 39.27499999999998 L 84.365 47.091999999999985 C 86.12 53.339 86.889 57.88299999999998 86.663 60.71300000000002 C 81.519 90.594 90.462 133.45800000000003 90.031 181.40999999999997 L 87.761 181.529 L 90.935 197.44600000000003 L 65.623 199.90999999999997 L 67.149 172.09900000000005 Z" fill="rgb(93,93,93)" />

<path d="M 101.589 12.08499999999998 C 101.918 25.848000000000013 95.593 38.49599999999998 89.109 38.58800000000002 C 83.418 38.66899999999998 80.383 30.411 80.801 14.353000000000009 C 80.856 12.242999999999995 87.588 12.610000000000014 102.318 13.199000000000012 L 101.589 11.423999999999978 C 88.388 11.27800000000002 78.955 11.488 78.911 12.745999999999981 C 78.462 25.767999999999972 80.968 34.891999999999996 85.526 39.535000000000025 L 92.071 39.535000000000025 C 96.916 38.27999999999997 103.038 27.369000000000028 103.384 10.951000000000022 C 98.112 10.129000000000019 93.666 8.896999999999991 90.031 7.2409999999999854 C 81.183 7.1340000000000146 71.797 5.658999999999992 69.705 4.975000000000023 C 64.399 3.238999999999976 62.522999999999996 38.89299999999997 79.593 39.535000000000025 L 86.663 39.69799999999998 L 84.658 37.82600000000002 L 80.035 38.00400000000002 C 65.035 37.497000000000014 66.755 4.346000000000004 71.072 7.0779999999999745 C 72.57 8.024999999999977 82.565 8.793000000000006 89.655 8.839999999999975 L 101.589 12.08499999999998 Z" fill="rgb(0,0,0)" />

<path d="M 60.449 50.108000000000004 Q 59.384 45.62700000000001 57.75 40.827999999999975 C 77.165 38.387 94.714 38.19200000000001 110.383 41.702999999999975 Q 107.891 46.43900000000002 107.876 51.04899999999998 L 104.874 51.04899999999998 Q 105.383 46.781000000000006 107.181 43.303999999999974 C 94.289 39.785000000000025 78.883 39.99400000000003 60.952 42.440999999999974 Q 61.777 45.62700000000001 62.352000000000004 50.108000000000004 L 60.449 50.108000000000004 Z" fill="rgb(0,0,0)" />

<path d="M 40.891 62.38099999999997 L 40.686 64.92700000000002 C 56.498999999999995 65.76999999999998 73.608 63.678999999999974 87.197 61.72199999999998 L 124.213 64.286 L 124.613 62.488999999999976 L 87.172 59.726 C 71.974 62.519000000000005 54.946 64.43 40.891 62.38099999999997 Z" fill="rgb(0,0,0)" />

<path d="M 49.544 48.889999999999986 Q 61.301 51.29199999999997 84.267 46.771000000000015 Q 107.493 52.059000000000026 118.632 49.875 C 124.155 55.625 126.82499999999999 61.09699999999998 126.637 66.286 L 118.632 66.87299999999999 L 118.92500000000001 63.271000000000015 Q 123.118 63.72300000000001 123.12700000000001 63.34100000000001 C 123.207 59.627999999999986 121.17699999999999 55.80799999999999 117.031 51.87700000000001 Q 105.538 53.511000000000024 84.658 48.398000000000025 Q 60.792 53.512 50.81999999999999 51.29199999999997 C 45.676 55.06200000000001 42.676 58.559000000000026 41.815 63.992999999999995 L 49.742000000000004 64.36200000000002 L 49.742000000000004 68.07100000000003 L 38.813 66.101 C 39.299 60.61900000000003 42.878 54.88299999999998 49.544 48.889999999999986 Z" fill="rgb(0,0,0)" />

<path d="M 84.793 49.875 C 86.19 51.988999999999976 86.917 54.63099999999997 86.968 57.795000000000016 L 86.524 58.41199999999998 C 86.805 55.73200000000003 86.005 52.341999999999985 84.401 50.423 L 84.793 49.875 Z" fill="rgb(0,0,0)" />

<path d="M 113.613 70.78300000000002 C 107.827 106.20400000000001 106.752 139.803 110.383 171.57600000000002 L 98.053 171.02200000000005 C 89.889 145.62400000000002 88.368 110.92000000000002 93.484 69.12099999999998 L 113.613 70.78300000000002 Z M 95.195 72.981 L 107.712 72.23500000000001 C 103.823 102.96699999999998 102.26 135.64100000000002 104.864 169.88400000000001 L 99.525 169.71500000000003 C 91.452 135.74200000000002 90.257 104.11500000000001 95.195 72.981 Z" fill-rule="evenodd" fill="rgb(0,0,0)" />

<path d="M 56.44799999999999 69.44099999999997 L 80.963 68.14999999999998 C 75.81 105.32499999999999 82.006 131.06400000000002 85.526 170.30399999999997 L 60.952 172.70500000000004 C 56.685 138.66699999999997 55.185 104.24799999999999 56.44799999999999 69.44099999999997 Z M 58.659000000000006 71.86500000000001 L 74.591 72.78899999999999 C 74.105 93.93 74.978 160.94799999999998 75.774 169.346 L 63.381 170.269 C 58.968 132.85000000000002 56.903000000000006 99.68099999999998 58.659000000000006 71.86500000000001 Z" fill-rule="evenodd" fill="rgb(0,0,0)" />

<path d="M 120.65100000000001 63.271000000000015 C 113.453 96.12599999999998 112.74 137.88400000000001 118.632 181.40999999999997 L 115.161 181.40999999999997 C 109.12 141.12099999999998 109.908 99.73399999999998 118.261 62.60500000000002 L 120.65100000000001 63.271000000000015 Z" fill="rgb(0,0,0)" />

<path d="M 51.662000000000006 63.932000000000016 C 50.721999999999994 102.28800000000001 49.592 142.69799999999998 48.269 183.30600000000004 L 44.831 183.30600000000004 C 46.975 140.281 48.12 99.83999999999997 48.259 63.82900000000001 L 51.662000000000006 63.932000000000016 L 51.662000000000006 63.932000000000016 Z" fill="rgb(0,0,0)" />

<path d="M 37.151 197.55200000000002 L 40.152 183.35400000000004 L 86.968 179.933 L 123.035 180.64300000000003 L 127.007 196.817 L 123.173 196.817 L 120.21799999999999 183.64800000000002 L 86.968 182.38300000000004 L 41.815 185.67700000000002 L 40.153 197.55200000000002 L 37.151 197.55200000000002 Z" fill="rgb(0,0,0)" />

<path d="M 32.99 196.817 L 132.58 195.20799999999997 L 136.501 200.37800000000004 L 31.356 200.37800000000004 L 32.99 196.817 Z" fill="rgb(0,0,0)" />

<path d="M 87.652 183.30600000000004 L 89.255 192.211 L 90.963 195.20799999999997 L 89.106 185.90099999999995 L 87.652 183.30600000000004 Z" fill="rgb(0,0,0)" />

<path d="M 50.81999999999999 121.49599999999998 L 68.52 111.01100000000002 L 73.991 106.512 L 55.571 117.62 L 50.81999999999999 121.49599999999998 Z" fill="rgb(0,0,0)" />

<path d="M 91.366 120.10899999999998 L 113.73400000000001 109.043 L 120.50399999999999 104.608 L 97.248 116.28300000000002 L 91.366 120.10899999999998 Z" fill="rgb(0,0,0)" />

<path d="M 52.83 126.22899999999998 L 67.358 117.71100000000001 L 71.875 114.09800000000001 L 56.751000000000005 123.11599999999999 L 52.83 126.22899999999998 Z" fill="rgb(0,0,0)" />

<path d="M 89.308 128.269 L 111.675 117.20299999999997 L 118.446 112.76799999999997 L 95.19 124.44299999999998 L 89.308 128.269 Z" fill="rgb(0,0,0)" />

<path d="M 88.924 11.716000000000008 L 90.385 11.716000000000008 C 91.872 23.783999999999992 88.154 29.911 80.963 29.456000000000017 L 80.371 27.954000000000008 C 87.699 28.408999999999992 90.77 22.906000000000006 88.924 11.716000000000008 Z" fill="rgb(0,0,0)" />

<path d="M 71.203 7.843000000000018 L 77.983 11.423999999999978 L 77.983 12.08499999999998 L 71.203 8.512 L 71.203 7.843000000000018 Z" fill="rgb(0,0,0)" />

<path d="M 97.274 159.41700000000003 C 95.723 151.63800000000003 94.539 143.974 93.715 136.404 C 95.823 136.63099999999997 97.987 136.949 100.204 137.36 Q 97.145 145.78500000000003 97.274 159.41700000000003 Z M 74.857 136.82100000000003 C 75.11 152.68499999999995 75.449 165.913 75.774 169.346 L 71.13 169.692 Q 70.324 152.774 64.059 139.772 C 67.396 138.47199999999998 70.995 137.47000000000003 74.857 136.82100000000003 Z" fill-rule="evenodd" fill="rgb(0,0,0)" />

<path d="M 102.318 12.08499999999998 Q 97.214 19.086000000000013 89.255 22.51400000000001 C 89.951 19.66300000000001 90.217 16.283000000000015 90.031 12.353000000000009 L 102.318 12.08499999999998 Z" fill="rgb(0,0,0)" />

<path d="M 86.524 64.156 C 81.583 92.30000000000001 90.462 145.62400000000002 90.963 174.10299999999995 L 89.811 176.81899999999996 C 90.521 143.91000000000003 80.27 94.62700000000001 85.86 62.69400000000002 L 86.524 64.156 Z" fill="rgb(0,0,0)" />

</g>

</svg>