<svg xmlns="http://www.w3.org/2000/svg" viewBox="0 0 615 277">


<g id="ikon">

  <g>
    <path id="heart_inside" fill="var(--heart-inside-color, none)" d="M 521.3 59.1 C 554.4 27.5 587.6 83.0 513.3 106.9 C 448.3 57.8 504.0 19.5 521.3 59.1 Z" />
    <path id="rect_inside" fill="var(--rect-inside-color, none)" d="M 313.1 280.6 L 303.8 235.6 L 354.2 230.2 L 355.4 274.0 Z" />
  </g>      


  <g id="LIVING" fill="var(--living-color, var(--title-color, #000))">

    <path id="_L" d="M 169.4 185.4 L 169.9 195.8 L 285.2 191.4 L 285.2 160.5 L 241.5 165.5 L 240.5 41.1 L 158.7 47.2 Z" />

    <path id="_I1" d="M 358.6 41.2 L 281.1 52.2 L 294.4 192.0 L 345.3 195.4 L 358.6 41.2 Z" />

    <path id="_V" d="M 433.8 128.4 L 427.4 41.1 L 353.3 53.4 L 396.8 196.8 L 427.0 194.8 L 449.5 196.8 L 484.3 63.1 C 484.1 58.5 485.3 54.6 487.3 51.5 L 488.7 46.3 L 455.7 34.9 L 433.8 128.4 Z" />

    <path id="_I2" d="M 496.7 115.8 L 501.4 194.3 L 550.5 196.8 L 565.4 112.6 L 522.8 114.5 Z" />

    <path id="_N1" d="M 688.7 185.8 L 637.9 197.7 L 596.7 121.9 L 597.9 192.3 L 570.3 192.6 L 559.4 53.4 L 559.4 53.4 L 559.4 53.4 L 617.4 41.1 L 644.9 97.0 L 640.7 41.1 L 683.9 46.3 L 688.7 185.8 Z" />

    <path id="_G1" d="M 782.1 140.4 L 782.7 130.2 L 764.4 136.0 L 759.2 112.9 L 814.2 112.9 L 823.8 199.5 L 779.3 195.2 L 779.6 189.0 C 752.7 209.8 706.0 203.6 686.0 152.8 C 657.3 79.5 735.2 23.2 802.8 47.9 L 773.4 104.3 C 759.8 88.9 733.9 100.8 734.0 118.0 C 734.1 155.3 769.5 157.6 782.1 140.4 Z" />

  </g>

  <g id="THINGS" fill="var(--things-color, var(--title-color, #000))">

    <path id="_T" d="M 166.1 260.7 L 122.2 254.5 L 131.9 379.1 L 52.5 384.9 L 51.6 260.5 L 8.0 265.5 L 8.0 234.6 L 170.6 232.0 L 166.1 260.7 Z" />
    
    <path id="_H" d="M 250.1 334.1 L 224.6 338.8 L 224.6 384.6 L 168.7 388.1 L 155.5 240.3 L 224.6 228.9 L 224.6 289.6 L 246.6 287.7 L 242.1 228.9 L 289.7 228.9 L 289.7 382.8 L 254.0 384.6 L 250.1 334.1 Z" />

    <path id="_I3" d="M 366.4 300.1 L 303.4 295.7 L 310.1 389.2 L 361.0 388.4 L 366.4 300.1 Z" />

    <path id="_N2" d="M 493.4 375.2 L 493.4 375.2 L 442.7 389.2 L 406.5 318.9 L 407.9 385.0 L 375.7 387.5 L 368.9 245.6 L 368.9 245.6 L 368.9 245.6 L 426.9 233.4 L 455.9 295.3 L 452.4 234.8 L 493.4 234.8 L 493.4 375.2 L 493.4 375.2 Z" />

    <path id="_G2" d="M 594.5 343.1 L 595.9 323.9 L 566.8 332.5 L 561.6 309.4 L 627.2 307.4 L 636.8 387.5 L 590.8 394.1 L 591.8 380.4 C 562.7 401.4 511.1 395.4 494.4 344.2 C 470.1 269.5 548.2 214.4 615.8 239.2 L 586.4 295.8 C 572.7 280.2 547.0 292.3 547.0 309.3 C 547.0 348.5 575.5 355.7 594.5 343.1 Z" />

    <path id="_S" d="M 748.4 352.3 C 739.5 392.9 665.6 407.7 620.1 370.9 L 653.0 327.6 C 666.7 343.1 699.2 342.2 691.1 327.0 C 682.3 310.4 650.1 318.7 631.2 297.7 C 588.7 250.3 685.3 194.7 747.8 260.2 L 719.0 297.7 C 692.5 272.1 661.8 279.4 679.7 294.7 C 690.3 303.9 760.1 301.9 748.4 352.3 Z" />

  </g>

  <g fill-rule="evenodd"> 
    <path id="heart_outside" fill="var(--heart-outside-color, var(--title-color, #000))" d="M 510.7 117.5 C 614.1 89.6 561.7 12.7 523.3 45.6 C 496.8 2.3000000000000007 430.4 56.6 510.7 117.5 Z M 520.9 60.8 C 552.0 28.6 584.9 83.6 512.9 104.6 C 453.1 58.7 503.0 22.2 520.9 60.8 L 520.9 60.8 Z" />
    <path id="rect_outside" fill="var(--rect-outside-color, var(--title-color, #000))" d="M 314.4 277.3 L 306.4 237.0 L 351.7 232.4 L 352.9 271.8 L 314.4 277.3 L 314.4 277.3 Z M 304.4 291.5 L 291.5 226.7 L 363.7 219.3 L 365.6 282.9 L 304.4 291.5 L 304.4 291.5 Z" />
  </g>

</g>

</svg>