<svg 
 xmlns="http://www.w3.org/2000/svg" 
 xmlns:xlink="http://www.w3.org/1999/xlink"
 style="isolation:isolate" 
 viewBox="-3.065 -0.106 3932.994 2364.843" 
 width="3932.994pt" 
 height="2364.843pt"
>


<g> 

<rect x="-3.065" y="-0.106" width="3932.994" height="2364.843" style="fill:rgb(116,116,116)"/>

<path d=" M 671.272 1053.197 C 295.309 1110.961 74.936 1331.407 10.044 1714.425 C 97.175 1790.08 233.74 1832.95 419.63 1842.923 L 829.217 1460.107 C 822.516 1320.562 769.904 1184.962 671.272 1053.197 Z  M 684.816 1277.546 L 719.513 1199.271 C 491.813 1245.964 337.075 1416.393 166.08 1712.839 L 166.08 1712.839 L 252.387 1731.333 C 371.022 1504.084 521.636 1300.573 684.816 1277.546 Z " fill-rule="evenodd" fill="rgb(255,255,255)"/>

<path d=" M 2548.285 1671.324 C 2552.541 1673.458 2556.795 1675.63 2561.048 1677.833 L 2561.048 1677.833 L 2561.048 1677.833 L 2561.048 1677.833 L 2561.048 1677.833 C 2561.048 1677.833 2561.048 1677.833 2561.048 1677.833 C 2715.178 1444.263 2828.24 1074.773 2941.37 921.212 L 3063.487 872.365 L 3165.251 902.895 C 3101.517 1238.874 2998.309 1637.915 2855.736 2100.127 C 2584.987 1988.098 2342.859 1937.383 1934.606 1937.034 C 1810.714 1897.386 1739.436 1814.231 1720.802 1687.598 C 1756.838 1755.526 1801.148 1794.246 1842.397 1817.764 C 1868.576 1806.592 1894.349 1794.706 1919.709 1782.098 C 2057.784 1878.396 2190.932 1816.623 2226.418 1786.418 C 2245.27 1770.372 2241.138 1751.295 2220.973 1734.166 C 2224.845 1727.13 2227.039 1719.047 2227.039 1710.455 C 2227.039 1683.134 2204.858 1660.953 2177.537 1660.953 C 2168.299 1660.953 2159.649 1663.489 2152.245 1667.902 C 2151.656 1659.139 2148.782 1651 2144.208 1644.078 C 2174.958 1621.133 2204.966 1596.887 2234.23 1571.342 C 2320.292 1583.084 2405.841 1607.45 2490.823 1644.395 C 2314.946 1551.612 2083.726 1521.729 1797.248 1554.818 C 1789.596 1475.385 1753.45 1400.682 1688.92 1330.818 C 1909.12 1297.45 2142.415 1313.326 2388.918 1378.556 C 2467.602 1471.54 2520.694 1569.094 2548.285 1671.324 L 2548.285 1671.324 Z  M 1568.425 1665.577 L 1248.463 1714.506 L 1341.905 1450.162 L 1632.003 1411.477 L 1568.425 1665.577 L 1568.425 1665.577 L 1568.425 1665.577 Z  M 2726.202 655.558 L 2502.294 1009.508 L 2208.525 925.049 L 2137.097 942.534 L 1904.557 896.29 L 1880.775 848.725 L 1639.316 832.705 C 1724.077 739.847 1798.79 641.835 1863.346 538.559 L 2671.212 362.297 C 2966.987 359.808 3247.429 392.216 3512.43 459.415 C 3276.334 497.43 2992.027 565.033 2727.811 650.748 C 2727.273 652.353 2726.737 653.956 2726.202 655.558 L 2726.202 655.558 L 2726.202 655.558 L 2726.202 655.558 Z  M 684.816 1277.546 L 719.513 1199.271 C 491.813 1245.964 337.075 1416.393 166.08 1712.839 L 166.08 1712.839 L 252.387 1731.333 C 371.022 1504.084 521.636 1300.573 684.816 1277.546 Z " fill-rule="evenodd" fill="rgb(200,133,32)"/>

<path d=" M 3841.983 1771.625 C 3841.983 1749.965 3859.568 1732.381 3881.227 1732.381 C 3902.887 1732.381 3920.471 1749.965 3920.471 1771.625 C 3920.471 1793.284 3902.887 1810.869 3881.227 1810.869 C 3859.568 1810.869 3841.983 1793.284 3841.983 1771.625 L 3841.983 1771.625 L 3841.983 1771.625 L 3841.983 1771.625 L 3841.983 1771.625 L 3841.983 1771.625 L 3841.983 1771.625 L 3841.983 1771.625 L 3841.983 1771.625 L 3841.983 1771.625 L 3841.983 1771.625 L 3841.983 1771.625 Z  M 3524.673 457.467 C 3493.917 1028.237 3413.779 1579.703 3292.718 2103.799 L 2855.736 2100.127 C 2998.309 1637.915 3101.517 1238.874 3165.251 902.895 L 3063.487 872.365 L 2981.576 905.13 L 2941.37 921.212 C 2828.24 1074.773 2715.177 1444.263 2561.048 1677.833 C 2679.699 1332.844 2718.918 995.835 2727.811 650.748 C 2996.613 563.546 3286.209 495.089 3524.673 457.467 L 3524.673 457.467 L 3524.673 457.467 L 3524.673 457.467 L 3524.673 457.467 L 3524.673 457.467 L 3524.673 457.467 L 3524.673 457.467 L 3524.673 457.467 L 3524.673 457.467 L 3524.673 457.467 L 3524.673 457.467 Z  M 2984.235 910.578 C 2983.482 908.603 2982.589 906.792 2981.576 905.13 C 2981.574 905.126 2981.572 905.123 2981.57 905.119 L 2984.235 910.578 L 2984.235 910.578 L 2984.235 910.578 L 2984.235 910.578 L 2984.235 910.578 L 2984.235 910.578 L 2984.235 910.578 L 2984.235 910.578 L 2984.235 910.578 L 2984.235 910.578 L 2984.235 910.578 Z  M 422.772 484.489 C 422.772 462.83 440.357 445.245 462.016 445.245 C 483.675 445.245 501.26 462.83 501.26 484.489 C 501.26 506.149 483.675 523.733 462.016 523.733 C 440.357 523.733 422.772 506.149 422.772 484.489 L 422.772 484.489 L 422.772 484.489 L 422.772 484.489 L 422.772 484.489 L 422.772 484.489 L 422.772 484.489 L 422.772 484.489 L 422.772 484.489 L 422.772 484.489 Z  M 811.799 892.988 C 811.799 871.329 829.384 853.744 851.043 853.744 C 872.703 853.744 890.287 871.329 890.287 892.988 C 890.287 914.647 872.703 932.232 851.043 932.232 C 829.384 932.232 811.799 914.647 811.799 892.988 L 811.799 892.988 L 811.799 892.988 L 811.799 892.988 L 811.799 892.988 L 811.799 892.988 L 811.799 892.988 L 811.799 892.988 L 811.799 892.988 Z  M 1446.554 977.088 C 1446.554 955.429 1464.139 937.844 1485.798 937.844 C 1507.458 937.844 1525.042 955.429 1525.042 977.088 C 1525.042 998.748 1507.458 1016.332 1485.798 1016.332 C 1464.139 1016.332 1446.554 998.748 1446.554 977.088 L 1446.554 977.088 L 1446.554 977.088 L 1446.554 977.088 L 1446.554 977.088 L 1446.554 977.088 L 1446.554 977.088 L 1446.554 977.088 Z  M 1486.807 296.199 C 1486.807 274.54 1504.391 256.956 1526.051 256.956 C 1547.71 256.956 1565.295 274.54 1565.295 296.199 C 1565.295 317.859 1547.71 335.443 1526.051 335.443 C 1504.391 335.443 1486.807 317.859 1486.807 296.199 L 1486.807 296.199 L 1486.807 296.199 L 1486.807 296.199 L 1486.807 296.199 L 1486.807 296.199 L 1486.807 296.199 Z  M 1692.874 49.396 C 1692.874 27.737 1710.458 10.152 1732.117 10.152 C 1753.777 10.152 1771.361 27.737 1771.361 49.396 C 1771.361 71.056 1753.777 88.64 1732.117 88.64 C 1710.458 88.64 1692.874 71.056 1692.874 49.396 L 1692.874 49.396 L 1692.874 49.396 L 1692.874 49.396 L 1692.874 49.396 L 1692.874 49.396 Z  M 2480.507 190.973 C 2480.507 169.313 2498.092 151.729 2519.751 151.729 C 2541.41 151.729 2558.995 169.313 2558.995 190.973 C 2558.995 212.632 2541.41 230.217 2519.751 230.217 C 2498.092 230.217 2480.507 212.632 2480.507 190.973 L 2480.507 190.973 L 2480.507 190.973 L 2480.507 190.973 L 2480.507 190.973 Z  M 412.641 1813.14 C 387.546 1789.521 440.739 1692.18 531.354 1595.902 C 621.968 1499.625 715.91 1440.635 741.005 1464.254 C 766.1 1487.872 712.906 1585.213 622.292 1681.491 C 531.677 1777.769 437.736 1836.759 412.641 1813.14 L 412.641 1813.14 L 412.641 1813.14 L 412.641 1813.14 Z  M 1639.009 1662.696 Q 1635.566 1648.34 1628.349 1635.454 C 1647.179 1604.628 1649.065 1556.831 1633.932 1491.984 C 1646.234 1589.017 1628.401 1648.953 1580.134 1671.492 C 1598.772 1665.776 1613.339 1655.982 1623.827 1642.103 Q 1649.585 1701.205 1614.207 1786.418 Q 1648.298 1721.036 1640.797 1671.847 Q 1653.924 1672.058 1669.743 1679.292 Q 1656.403 1664.946 1639.009 1662.696 L 1639.009 1662.696 L 1639.009 1662.696 Z  M 1915.806 1703.501 C 1913.736 1698.053 1912.604 1692.145 1912.604 1685.974 C 1912.604 1658.653 1934.785 1636.472 1962.106 1636.472 C 1973.59 1636.472 1984.166 1640.391 1992.554 1646.979 C 1992.384 1645.518 1992.317 1644.028 1992.317 1642.522 C 1992.317 1615.202 2014.498 1593.021 2041.819 1593.021 C 2062.653 1593.021 2080.498 1605.919 2087.771 1624.173 C 2092.521 1622.609 2097.6 1621.784 2102.871 1621.784 C 2129.053 1621.784 2150.515 1642.155 2152.245 1667.902 C 2159.649 1663.489 2168.299 1660.953 2177.537 1660.953 C 2204.858 1660.953 2227.039 1683.134 2227.039 1710.455 C 2227.039 1721.491 2225.727 1728.491 2219.611 1736.727 C 2146.642 1660.969 1906.708 1691.208 1915.806 1703.501 L 1915.806 1703.501 Z  M 1245.903 1702.952 L 1570.481 1666.268 L 1601.603 1824.455 L 1374.849 1821.904 L 1245.903 1702.952 Z " fill-rule="evenodd" fill="rgb(106,54,30)"/>

<g>

<path d=" M 1987.926 1683.71 C 1988.821 1680.042 1989.283 1676.206 1989.283 1672.263 C 1989.283 1666.269 1988.216 1660.523 1986.277 1655.197 C 1991.918 1658.843 1996.415 1664.083 1999.137 1670.287 L 1987.926 1683.71 L 1987.926 1683.71 Z " fill="rgb(64,31,16)"/>

<path d=" M 2062.592 1669.117 C 2073.038 1663.055 2080.061 1651.745 2080.061 1638.808 C 2080.061 1626.575 2073.782 1615.798 2064.211 1609.611 C 2066.15 1614.938 2067.218 1620.684 2067.218 1626.677 C 2067.218 1640.447 2061.583 1652.911 2052.495 1661.883 L 2062.592 1669.117 L 2062.592 1669.117 Z " fill="rgb(64,31,16)"/>

<path d=" M 2138.345 1691.313 C 2141.662 1685.958 2143.577 1679.646 2143.577 1672.89 C 2143.577 1655.856 2131.402 1641.644 2115.269 1638.539 C 2116.067 1641.982 2116.47 1645.573 2116.47 1649.257 C 2116.47 1658.97 2113.667 1668.033 2108.805 1675.666 L 2138.345 1691.313 L 2138.345 1691.313 Z " fill="rgb(64,31,16)"/>

<path d=" M 2205.404 1728.742 C 2210.686 1722.869 2213.905 1715.101 2213.905 1706.588 C 2213.905 1688.308 2199.065 1673.468 2180.785 1673.468 C 2179.614 1673.468 2178.457 1673.529 2177.325 1673.675 C 2179.673 1679.199 2180.952 1685.28 2180.952 1691.657 C 2180.952 1699.902 2178.813 1707.652 2175.049 1714.374 L 2205.404 1728.742 L 2205.404 1728.742 Z " fill="rgb(64,31,16)"/>

<path d=" M 2064.854 1693.136 C 2063.632 1683.609 2057.896 1674.681 2048.421 1669.275 C 2047.835 1668.941 2047.243 1668.624 2046.646 1668.323 C 2045.61 1673.818 2043.451 1679.224 2040.12 1684.264 C 2038.154 1687.238 2035.883 1689.931 2033.359 1692.322 L 2064.854 1693.136 L 2064.854 1693.136 Z " fill="rgb(64,31,16)"/>

<path d=" M 685.7 1207.069 L 665.994 1230.5 C 441.962 1335.447 240.222 1524.802 116.834 1852.449 L 103.905 1822.607 C 234.481 1520.543 428.451 1315.405 685.7 1207.069 Z " fill="rgb(64,31,16)"/>

<path d=" M 687.177 1272.411 L 668.587 1293.457 C 421.584 1423.394 293.788 1616.371 195.362 1858.807 L 192.923 1827.128 C 316.097 1555.797 444.509 1369.724 687.177 1272.411 Z " fill="rgb(64,31,16)"/>

<path d=" M 629.818 1302.914 Q 949.446 1501.223 1090.897 1921.709 Q 962.304 1511.89 667.219 1318.276 L 629.818 1302.914 Z " fill="rgb(64,31,16)"/>

<path d=" M 531.328 1298.632 Q 794.755 1452.231 920.574 1763.023 Q 805.426 1460.373 561.935 1310.881 L 531.328 1298.632 Z " fill="rgb(64,31,16)"/>

<path d=" M 362.64 1801.65 C 247.271 1814.253 138.053 1782.499 34.766 1706.17 C 35.267 1413.529 432.864 1035.226 663.731 1075.314 C 764.095 1174.71 784.29 1272.017 793.201 1399.403 C 626.667 1448.186 393.778 1731.261 394.442 1815.858 Q 395.308 1926.045 803.608 1519.204 L 816.644 1463.336 C 652.764 1670.048 489.712 1776.667 467.885 1769.344 C 399.495 1746.401 729.006 1398.196 813.353 1439.288 C 825.263 1323.183 797.906 1179.438 675.779 1031.77 C 294.341 1090.936 38.234 1371.771 -3.065 1720.582 C 85.936 1793.212 205.472 1826.877 355.434 1821.467 L 362.64 1801.65 Z " fill="rgb(64,31,16)"/>

<path d=" M 722.896 1945.521 C 848.896 1863.617 1112.561 1756.882 1157.397 1806.961 C 1212.27 1703.951 1241.342 1571.829 1184.023 1388.976 C 808.487 1299.713 465.289 1463.036 295.321 1770.421 C 350.304 1871.284 448.276 1947.598 589.176 1999.22 L 604.792 1994.764 C 493.206 1962.865 384.496 1883.999 311.004 1763.074 C 476.94 1463.296 868.973 1292.833 1176.523 1411.477 C 1231.919 1541.414 1205.138 1660.843 1165.282 1782.161 C 1028.819 1768.153 791.562 1868.79 682.786 1950.367 L 722.896 1945.521 L 722.896 1945.521 Z " fill="rgb(64,31,16)"/>

<path d=" M 1191.841 2087.834 C 1247.542 2093.5 1285.149 2091.98 1304.554 2083.166 C 1337.323 2038.569 1367.616 1984.895 1395.323 1922.034 C 1357.279 1993.571 1325.039 2043.927 1298.383 2072.882 C 1278.852 2080.779 1243.375 2085.8 1191.841 2087.834 Z " fill="rgb(64,31,16)"/>

<path d=" M 1226.665 2118.419 C 1269.665 2121.432 1298.698 2120.624 1313.678 2115.937 C 1338.976 2092.22 1362.362 2063.677 1383.751 2030.248 C 1354.381 2068.291 1329.492 2095.07 1308.915 2110.468 C 1293.837 2114.667 1266.448 2117.337 1226.665 2118.419 Z " fill="rgb(64,31,16)"/>

<ellipse vector-effect="non-scaling-stroke" cx="533.2571196169231" cy="2148.248511860147" rx="389.2444362639237" ry="14.688469292978425" fill="rgb(64,31,16)"/>

<path d=" M 1103.228 2047.561 C 907.943 2090.624 735.184 2135.67 719.922 2112.113 C 686.76 2064.36 1047.736 1987.599 1251.814 2044.345 C 1329.382 1957.136 1391.249 1830.18 1378.56 1638.974 C 1034.566 1463.863 662.576 1541.856 425.06 1800.624 C 454.769 1911.591 532.036 2008.813 656.837 2092.137 L 674.124 2088.804 C 573.176 2031.547 484.507 1927.074 445.374 1804.751 C 654.015 1518.185 1209.133 1496.433 1372.943 1663.982 C 1396.214 1803.305 1321.592 1926.565 1254.311 2035.101 C 1090.702 1977.265 740.698 2041.397 691.757 2110.403 C 672.139 2139.306 798.871 2124.478 1071.84 2065.81 L 1103.228 2047.561 L 1103.228 2047.561 Z " fill="rgb(64,31,16)"/>

<path d=" M 1682.616 49.396 C 1682.616 22.075 1704.797 -0.106 1732.117 -0.106 C 1759.438 -0.106 1781.619 22.075 1781.619 49.396 C 1781.619 76.717 1759.438 98.898 1732.117 98.898 C 1704.797 98.898 1682.616 76.717 1682.616 49.396 Z  M 1695.62 49.4 C 1695.62 39.72 1699.46 30.43 1706.31 23.59 C 1713.15 16.74 1722.44 12.89 1732.12 12.89 C 1741.79 12.89 1751.09 16.74 1757.93 23.59 C 1764.77 30.43 1768.62 39.72 1768.62 49.4 C 1768.62 59.07 1764.77 68.36 1757.93 75.21 C 1751.09 82.05 1741.79 85.9 1732.12 85.9 C 1722.44 85.9 1713.15 82.05 1706.31 75.21 C 1699.46 68.36 1695.62 59.07 1695.62 49.4 Z " fill-rule="evenodd" fill="rgb(64,31,16)"/>

<path d=" M 1751.513 23.504 C 1759.47 29.344 1764.603 38.776 1764.603 49.396 C 1764.603 67.237 1750.118 81.722 1732.277 81.722 C 1730.399 81.722 1728.557 81.561 1726.798 81.166 C 1742.658 72.935 1753.486 56.355 1753.486 37.266 C 1753.486 32.487 1752.807 27.865 1751.513 23.504 Z " fill="rgb(64,31,16)"/>

<path d=" M 2470.249 190.973 C 2470.249 163.652 2492.43 141.471 2519.751 141.471 C 2547.072 141.471 2569.253 163.652 2569.253 190.973 C 2569.253 218.294 2547.072 240.475 2519.751 240.475 C 2492.43 240.475 2470.249 218.294 2470.249 190.973 Z  M 2483.25 190.97 C 2483.25 181.3 2487.1 172 2493.94 165.16 C 2500.78 158.32 2510.07 154.47 2519.75 154.47 C 2529.43 154.47 2538.72 158.32 2545.56 165.16 C 2552.4 172 2556.25 181.3 2556.25 190.97 C 2556.25 200.65 2552.4 209.94 2545.56 216.78 C 2538.72 223.63 2529.43 227.47 2519.75 227.47 C 2510.07 227.47 2500.78 223.63 2493.94 216.78 C 2487.1 209.94 2483.25 200.65 2483.25 190.97 Z " fill-rule="evenodd" fill="rgb(64,31,16)"/>

<path d=" M 2539.146 165.08 C 2547.104 170.921 2552.237 180.352 2552.237 190.973 C 2552.237 208.814 2537.752 223.299 2519.911 223.299 C 2518.032 223.299 2516.191 223.138 2514.431 222.743 C 2530.292 214.511 2541.12 197.931 2541.12 178.843 C 2541.12 174.063 2540.441 169.441 2539.146 165.08 Z " fill="rgb(64,31,16)"/>

<path d=" M 1436.296 977.088 C 1436.296 949.768 1458.477 927.586 1485.798 927.586 C 1513.119 927.586 1535.3 949.768 1535.3 977.088 C 1535.3 1004.409 1513.119 1026.59 1485.798 1026.59 C 1458.477 1026.59 1436.296 1004.409 1436.296 977.088 Z  M 1449.3 977.09 C 1449.3 967.41 1453.14 958.12 1459.99 951.28 C 1466.83 944.43 1476.12 940.59 1485.8 940.59 C 1495.48 940.59 1504.77 944.43 1511.61 951.28 C 1518.45 958.12 1522.3 967.41 1522.3 977.09 C 1522.3 986.77 1518.45 996.06 1511.61 1002.9 C 1504.77 1009.74 1495.48 1013.59 1485.8 1013.59 C 1476.12 1013.59 1466.83 1009.74 1459.99 1002.9 C 1453.14 996.06 1449.3 986.77 1449.3 977.09 Z " fill-rule="evenodd" fill="rgb(64,31,16)"/>

<path d=" M 3830.925 1771.642 C 3830.925 1744.321 3853.106 1722.14 3880.427 1722.14 C 3907.747 1722.14 3929.928 1744.321 3929.928 1771.642 C 3929.928 1798.963 3907.747 1821.144 3880.427 1821.144 C 3853.106 1821.144 3830.925 1798.963 3830.925 1771.642 Z  M 3843.928 1771.644 C 3843.928 1761.964 3847.768 1752.674 3854.618 1745.834 C 3861.458 1738.984 3870.748 1735.144 3880.428 1735.144 C 3890.108 1735.144 3899.398 1738.984 3906.238 1745.834 C 3913.078 1752.674 3916.928 1761.964 3916.928 1771.644 C 3916.928 1781.324 3913.078 1790.614 3906.238 1797.454 C 3899.398 1804.294 3890.108 1808.144 3880.428 1808.144 C 3870.748 1808.144 3861.458 1804.294 3854.618 1797.454 C 3847.768 1790.614 3843.928 1781.324 3843.928 1771.644 Z " fill-rule="evenodd" fill="rgb(64,31,16)"/>

<path d=" M 1505.194 951.196 C 1513.151 957.036 1518.284 966.468 1518.284 977.088 C 1518.284 994.929 1503.799 1009.414 1485.958 1009.414 C 1484.079 1009.414 1482.238 1009.254 1480.478 1008.858 C 1496.339 1000.627 1507.167 984.047 1507.167 964.958 C 1507.167 960.179 1506.488 955.557 1505.194 951.196 Z " fill="rgb(64,31,16)"/>

<path d=" M 3899.822 1745.749 C 3907.779 1751.59 3912.912 1761.021 3912.912 1771.642 C 3912.912 1789.483 3898.427 1803.968 3880.586 1803.968 C 3878.708 1803.968 3876.866 1803.807 3875.107 1803.412 C 3890.967 1795.18 3901.795 1778.601 3901.795 1759.512 C 3901.795 1754.732 3901.116 1750.11 3899.822 1745.749 Z " fill="rgb(64,31,16)"/>

<path d=" M 1476.549 296.199 C 1476.549 268.879 1498.73 246.698 1526.051 246.698 C 1553.372 246.698 1575.553 268.879 1575.553 296.199 C 1575.553 323.52 1553.372 345.701 1526.051 345.701 C 1498.73 345.701 1476.549 323.52 1476.549 296.199 Z  M 1489.55 296.2 C 1489.55 286.52 1493.4 277.23 1500.24 270.39 C 1507.08 263.55 1516.37 259.7 1526.05 259.7 C 1535.73 259.7 1545.02 263.55 1551.86 270.39 C 1558.7 277.23 1562.55 286.52 1562.55 296.2 C 1562.55 305.88 1558.7 315.17 1551.86 322.01 C 1545.02 328.85 1535.73 332.7 1526.05 332.7 C 1516.37 332.7 1507.08 328.85 1500.24 322.01 C 1493.4 315.17 1489.55 305.88 1489.55 296.2 Z " fill-rule="evenodd" fill="rgb(64,31,16)"/>

<path d=" M 1545.446 270.307 C 1553.403 276.148 1558.536 285.579 1558.536 296.199 C 1558.536 314.041 1544.052 328.525 1526.211 328.525 C 1524.332 328.525 1522.491 328.365 1520.731 327.97 C 1536.591 319.738 1547.42 303.158 1547.42 284.069 C 1547.42 279.29 1546.741 274.668 1545.446 270.307 Z " fill="rgb(64,31,16)"/>

<path d=" M 1404.016 1006.639 C 1410.494 1037.975 1434.623 1054.203 1476.311 1055.248 Q 1449.068 1059.956 1429.026 1051.259 Q 1404.082 1040.434 1404.016 1006.639 Z " fill="rgb(64,31,16)"/>

<path d=" M 1398.388 1035.611 C 1403.937 1062.158 1424.605 1075.905 1460.313 1076.791 Q 1436.978 1080.779 1419.811 1073.411 Q 1398.445 1064.241 1398.388 1035.611 Z " fill="rgb(64,31,16)"/>

<path d=" M 1395.323 1080.673 C 1400.282 1095.728 1418.753 1103.524 1450.664 1104.026 Q 1432.998 1108.205 1417.656 1104.026 Q 1398.562 1098.826 1395.323 1080.673 Z " fill="rgb(64,31,16)"/>

<path d=" M 412.514 484.489 C 412.514 457.168 434.695 434.987 462.016 434.987 C 489.337 434.987 511.518 457.168 511.518 484.489 C 511.518 511.81 489.337 533.991 462.016 533.991 C 434.695 533.991 412.514 511.81 412.514 484.489 Z  M 425.51 484.49 C 425.51 474.81 429.36 465.52 436.21 458.68 C 443.05 451.84 452.34 447.99 462.02 447.99 C 471.69 447.99 480.98 451.84 487.83 458.68 C 494.67 465.52 498.52 474.81 498.52 484.49 L 498.52 484.49 C 498.52 494.17 494.67 503.46 487.83 510.3 C 480.98 517.14 471.69 520.99 462.02 520.99 C 452.34 520.99 443.05 517.14 436.21 510.3 C 429.36 503.46 425.51 494.17 425.51 484.49 Z " fill-rule="evenodd" fill="rgb(64,31,16)"/>

<path d=" M 481.412 458.597 C 489.369 464.437 494.502 473.869 494.502 484.489 C 494.502 502.33 480.017 516.815 462.176 516.815 C 460.297 516.815 458.456 516.654 456.696 516.259 C 472.557 508.028 483.385 491.448 483.385 472.359 C 483.385 467.58 482.706 462.958 481.412 458.597 Z " fill="rgb(64,31,16)"/>

<path d=" M 801.541 892.988 C 801.541 865.667 823.722 843.486 851.043 843.486 C 878.364 843.486 900.545 865.667 900.545 892.988 C 900.545 920.309 878.364 942.49 851.043 942.49 C 823.722 942.49 801.541 920.309 801.541 892.988 Z  M 814.54 892.99 C 814.54 883.31 818.39 874.02 825.23 867.18 C 832.08 860.33 841.37 856.49 851.04 856.49 C 860.72 856.49 870.01 860.33 876.85 867.18 C 883.7 874.02 887.55 883.31 887.55 892.99 C 887.55 902.67 883.7 911.96 876.85 918.8 C 870.01 925.64 860.72 929.49 851.04 929.49 C 841.37 929.49 832.08 925.64 825.23 918.8 C 818.39 911.96 814.54 902.67 814.54 892.99 Z " fill-rule="evenodd" fill="rgb(64,31,16)"/>

<path d=" M 870.439 867.095 C 878.396 872.936 883.529 882.367 883.529 892.988 C 883.529 910.829 869.044 925.314 851.203 925.314 C 849.324 925.314 847.483 925.153 845.723 924.758 C 861.584 916.526 872.412 899.947 872.412 880.858 C 872.412 876.078 871.733 871.456 870.439 867.095 Z " fill="rgb(64,31,16)"/>

<path d=" M 923.214 952.358 L 1345.424 1269.263 L 957.927 966.578 L 923.214 952.358 Z " fill="rgb(64,31,16)"/>

<path d=" M 998.43 1043.808 C 1020.982 1033.871 1029.402 1015.542 1023.648 988.893 Q 1031.463 1005.306 1028.065 1019.641 Q 1023.837 1037.482 998.43 1043.808 Z " fill="rgb(64,31,16)"/>

<path d=" M 1029.991 1067.271 C 1051.254 1058.284 1059.478 1042.353 1054.622 1019.542 Q 1061.603 1033.508 1058.149 1045.905 Q 1053.851 1061.335 1029.991 1067.271 Z " fill="rgb(64,31,16)"/>

<path d=" M 593.865 495.7 Q 1006.899 586.527 1222.632 943.085 Q 1004.381 584.01 634.176 498.839 L 593.865 495.7 Z " fill="rgb(64,31,16)"/>

<path d=" M 2429.372 219.839 C 2331.691 299.321 2261.658 400.43 2219.175 523.109 C 2225.86 211.284 2139.575 92.966 2015.089 217.193 C 2125.924 77.566 2215.444 177.858 2231.375 450.602 C 2285.227 367.281 2336.913 290.657 2398.772 236.561 L 2429.372 219.839 Z " fill="rgb(64,31,16)"/>

<path d=" M 3800.319 1781.907 C 3794.758 1813.419 3811.182 1837.414 3849.532 1853.791 Q 3822.478 1848.098 3807.069 1832.61 Q 3787.891 1813.334 3800.319 1781.907 Z " fill="rgb(64,31,16)"/>

<path d=" M 3778.285 1817.694 C 3779.58 1844.783 3797.822 1861.617 3832.944 1868.12 Q 3809.272 1868.38 3793.481 1858.398 Q 3773.828 1845.975 3778.285 1817.694 Z " fill="rgb(64,31,16)"/>

<path d=" M 3763.971 1868.238 C 3767.427 1883.707 3785.042 1893.281 3816.75 1896.916 Q 3795.775 1897.118 3780.918 1891.452 Q 3762.427 1884.401 3763.971 1868.238 Z " fill="rgb(64,31,16)"/>

<path d=" M 3792.674 1871.949 C 3743.964 1999.309 3727.431 2126.73 3712.554 2230.657 Q 3646.591 1754.476 3576.359 1733.333 Q 3506.127 1712.19 3360.065 2193.318 C 3367.673 1639.711 3269.486 1450.944 3127.831 1671.492 C 3253.953 1423.602 3356.088 1587.552 3374.215 2071.775 Q 3495.821 1752.772 3566.053 1699.878 Q 3636.285 1646.985 3714.411 2054.06 C 3733.246 2000.617 3747.836 1964.256 3792.674 1871.949 Z " fill="rgb(64,31,16)"/>

<path d=" M 2200.249 1743.01 C 2213.994 1757.171 2211.193 1773.937 2189.674 1787.545 C 2155.64 1809.068 2073.395 1825.363 2023.612 1810.65 C 2015.593 1808.28 2008.533 1805.528 2002.56 1802.461 C 2062.385 1808.293 2141.271 1787.486 2177.963 1764.282 C 2188.507 1757.614 2195.868 1750.41 2200.249 1743.01 Z " fill="rgb(64,31,16)"/>

<path d=" M 1920.641 1698.397 C 1919.487 1694.494 1918.903 1690.403 1918.903 1686.313 C 1918.903 1686.313 1918.903 1686.313 1918.903 1686.313 L 1918.903 1686.313 L 1918.903 1686.313 C 1918.903 1674.913 1923.402 1663.913 1931.502 1655.913 C 1939.602 1647.813 1950.502 1643.313 1961.902 1643.313 C 1971.502 1643.313 1980.802 1646.513 1988.402 1652.413 Q 1993.821 1656.361 1997.864 1663.368 C 1991.497 1669.352 1987.03 1676.794 1984.785 1684.869 C 1963.817 1687.687 1943.075 1692.063 1922.702 1697.913 C 1922.015 1698.089 1921.328 1698.25 1920.641 1698.397 Z  M 1999.184 1683.149 C 2001.977 1677.427 2006.324 1672.477 2011.802 1668.913 L 2011.802 1668.913 C 2017.702 1665.013 2024.602 1662.913 2031.702 1662.913 C 2044.002 1662.913 2055.602 1669.213 2062.302 1679.513 C 2062.673 1680.074 2063.027 1680.645 2063.363 1681.225 C 2057.21 1680.902 2051.053 1680.789 2044.902 1680.813 C 2029.601 1680.776 2014.342 1681.545 1999.184 1683.149 Z  M 2089.353 1683.052 C 2093.648 1681.33 2098.254 1680.413 2102.902 1680.413 C 2111.305 1680.413 2119.328 1683.307 2125.742 1688.425 C 2124.499 1688.173 2123.251 1687.94 2122.002 1687.713 C 2111.195 1685.713 2100.297 1684.148 2089.353 1683.052 Z  M 2146.267 1693.079 C 2145.599 1691.843 2144.86 1690.628 2144.063 1689.436 C 2128.875 1666.725 2098.107 1660.618 2075.396 1675.805 C 2075.366 1675.826 2075.335 1675.847 2075.306 1675.87 C 2074.647 1674.707 2073.96 1673.554 2073.221 1672.42 C 2058.3 1649.534 2027.605 1643.067 2004.718 1657.988 L 2004.718 1657.988 C 2003.471 1658.801 2002.273 1659.661 2001.125 1660.564 Q 1998.525 1653.031 1998.602 1642.713 C 1998.702 1631.313 2003.202 1620.413 2011.302 1612.413 C 2019.302 1604.313 2030.302 1599.813 2041.602 1599.813 L 2041.602 1599.813 L 2041.602 1599.813 L 2041.602 1599.813 C 2051.402 1599.813 2060.802 1603.113 2068.402 1609.213 C 2076.002 1615.313 2081.302 1623.713 2083.502 1633.213 C 2089.402 1630.213 2096.002 1628.613 2102.702 1628.613 C 2116.202 1628.613 2129.002 1635.013 2137.102 1645.813 C 2145.202 1656.713 2147.702 1670.813 2143.902 1683.813 C 2152.002 1673.613 2164.402 1667.813 2177.302 1667.813 C 2177.302 1667.813 2177.302 1667.813 2177.302 1667.813 L 2177.302 1667.813 L 2177.302 1667.813 C 2188.702 1667.813 2199.702 1672.313 2207.802 1680.413 C 2215.802 1688.413 2220.302 1699.413 2220.302 1710.813 C 2220.302 1715.402 2219.572 1719.909 2218.116 1724.16 C 2215.189 1722.019 2212.139 1720.039 2209.001 1718.213 C 2201.202 1713.513 2193.102 1709.513 2184.802 1706.013 C 2172.208 1700.864 2159.345 1696.561 2146.267 1693.079 Z  M 2228.701 1732.834 C 2231.73 1725.954 2233.302 1718.45 2233.302 1710.813 C 2233.302 1695.913 2227.401 1681.713 2216.901 1671.213 C 2206.401 1660.713 2192.202 1654.813 2177.302 1654.813 C 2170.402 1654.813 2163.602 1656.013 2157.102 1658.513 C 2156.404 1655.578 2155.469 1652.718 2154.286 1649.972 C 2186.034 1627.389 2216.938 1603.64 2246.812 1578.705 C 2373.389 1602.047 2479.516 1645.953 2565.313 1710.326 C 2732.741 1449.925 2817.993 1144.213 2933.642 946.5 Q 2986.699 916.781 3047.247 892.43 L 3047.247 892.43 Q 3100.545 903.301 3155.136 909.16 L 3155.136 909.16 Q 3108.084 1233.154 2903.101 1928.928 Q 3105.64 1285.454 3177.362 911.333 Q 3280.078 920.398 3387.328 911.889 Q 3190.568 906.229 3093.281 875.074 L 3093.281 875.074 Q 3140.407 858.439 3191.682 844.775 L 3191.682 844.775 L 3168.884 867.525 L 3213.369 839.979 C 3338.216 755.67 3402.423 674.394 3438.751 590.575 C 3374.667 681.321 3298.231 759.469 3222.902 818.574 Q 3060.488 856.006 2964.117 898.142 C 2990.495 859.541 3018.754 826.632 3050.042 800.976 L 2991.403 837.276 C 2778.459 1069.053 2714.765 1425.72 2594.248 1598.767 L 2594.248 1598.767 C 2673.273 1328.898 2717.786 1013.052 2727.623 651.067 L 2727.623 651.067 L 2727.623 651.067 C 2621.266 759.542 2536.264 870.233 2499.287 966.504 C 2185.816 863.951 2201.481 926.614 2126.389 923.992 C 2049.544 921.308 1909.562 890.869 1906.641 868.007 C 1901 823.87 1846.425 825.063 1664.122 817.518 Q 1798.253 689.384 1854.601 564.274 C 2056.124 649.199 2306.892 686.19 2607.012 675.355 C 2320.587 683.9 2079.594 641.24 1884.136 547.478 L 1884.136 547.478 L 1884.136 547.478 C 2188.144 489.385 2446.899 431.744 2660.705 374.644 Q 3025.077 376.101 3468.761 452.79 L 3468.761 452.79 L 3468.761 452.79 C 3277.753 494.23 3080.39 545.023 2890.248 601.28 C 3098.374 550.833 3312.121 503.961 3509.467 465.624 C 3498.806 919.354 3406.042 1464.823 3266.503 2079.509 L 2872.312 2077.559 L 2872.312 2077.559 Q 2565.775 1920.759 1973.53 1931.554 C 1880.067 1914.217 1797.373 1845.585 1735.798 1725.55 L 1735.798 1725.55 C 1784.942 1797.884 1840.956 1836.24 1892.351 1850.875 L 1855.303 1819.213 C 1876.486 1809.814 1897.532 1799.968 1918.338 1789.504 L 1918.338 1789.504 C 1920.017 1790.653 1921.705 1791.79 1923.402 1792.912 C 1940.302 1804.012 1958.202 1813.513 1976.902 1821.112 C 2008.802 1834.012 2042.902 1840.712 2077.302 1840.712 C 2109.902 1840.712 2142.302 1834.812 2172.802 1823.412 C 2184.702 1819.012 2196.202 1813.612 2207.202 1807.513 C 2215.401 1803.013 2223.101 1797.712 2230.401 1791.712 C 2234.701 1788.212 2238.401 1783.813 2241.101 1778.913 C 2243.501 1774.413 2244.801 1769.312 2244.901 1764.213 C 2244.701 1758.212 2243.101 1752.313 2240.101 1747.113 C 2237.029 1741.805 2233.176 1737.018 2228.701 1732.834 Z  M 2142.568 1632.254 C 2140.942 1630.614 2139.22 1629.06 2137.402 1627.613 C 2127.502 1619.813 2115.302 1615.613 2102.702 1615.613 C 2098.802 1615.613 2095.002 1616.013 2091.202 1616.813 C 2081.502 1598.413 2062.402 1586.813 2041.602 1586.813 L 2041.602 1586.813 L 2041.602 1586.813 L 2041.602 1586.813 C 2028.002 1586.813 2014.802 1591.813 2004.602 1600.813 C 1994.402 1609.813 1987.802 1622.313 1986.102 1635.813 C 1978.502 1632.213 1970.302 1630.313 1961.902 1630.313 C 1947.102 1630.313 1932.802 1636.213 1922.302 1646.713 C 1911.802 1657.213 1905.903 1671.413 1905.903 1686.313 C 1905.903 1690.679 1906.395 1694.99 1907.409 1699.2 C 1899.478 1698.789 1891.576 1697.631 1883.903 1695.713 C 1871.703 1692.813 1859.703 1689.313 1847.803 1685.313 C 1832.803 1680.213 1818.003 1674.913 1803.303 1669.313 C 1785.703 1662.613 1768.203 1655.813 1750.703 1648.913 C 1732.568 1641.792 1714.381 1634.75 1696.137 1627.842 C 1692.802 1620.212 1689.504 1612.239 1686.257 1603.717 L 1686.257 1603.717 C 1666.501 1542.003 1650.856 1471.568 1639.986 1392.509 L 1334.205 1441.974 L 1303.668 1519.258 C 1247.318 1508.588 1195.769 1498.646 1120.763 1497.665 C 998.52 1496.068 925.716 1602.241 1088.997 1599.317 C 1174.515 1597.786 1209.441 1598.968 1268.856 1607.36 L 1268.856 1607.36 L 1224.292 1712.648 L 1372.392 1834.192 L 1599.162 1845.802 L 1644.308 1782.656 Q 1729.736 1857.782 1767.437 1973.747 C 2153.054 1909.307 2448.722 1971.016 2630.531 2076.658 L 1614.017 2133.755 L 3838.122 2133.755 L 3311.808 2081.035 C 3456.366 1473.325 3536.452 910.679 3545.102 437.532 Q 3075.06 342.427 2656.035 350.154 C 2402.846 418.723 2130.739 479.124 1839.825 531.468 Q 1762.196 692.624 1599.162 845.896 C 1796.481 843.213 1889.07 829.96 1884.742 883.304 C 1882.767 907.643 1938.496 928.298 2016.633 942.252 L 2016.633 942.252 C 2056.975 1052.018 2050.481 1170.325 1997.115 1297.085 L 1997.115 1297.085 L 1997.115 1297.085 C 1951.085 1294.149 1907.108 1293.283 1865.039 1294.341 L 1865.039 1294.341 C 1790.051 1296.099 1721.172 1304.016 1658.325 1318.014 C 1730.84 1385.271 1769.65 1470.264 1774.864 1573.103 C 1939.654 1553.681 2085.252 1553.532 2211.723 1572.614 L 2211.723 1572.614 L 2211.723 1572.614 C 2190.001 1593.47 2166.923 1613.366 2142.568 1632.254 Z  M 1298.688 1531.862 C 1285.541 1529.378 1270.847 1526.969 1257.817 1524.659 C 1244.004 1522.23 1230.137 1520.073 1216.215 1518.189 C 1201.311 1516.197 1186.379 1514.641 1171.393 1513.522 C 1154.496 1512.266 1137.571 1511.529 1120.647 1511.31 L 1117.971 1511.283 C 1102.603 1511.256 1087.262 1513.139 1072.357 1516.906 C 1065.779 1518.572 1059.309 1520.646 1052.976 1523.158 C 1047.298 1525.369 1041.811 1527.989 1036.488 1530.992 C 1031.902 1533.558 1027.535 1536.506 1023.413 1539.782 C 1020.055 1542.43 1016.971 1545.432 1014.241 1548.735 C 1012.221 1551.138 1010.528 1553.813 1009.273 1556.706 C 1008.481 1558.508 1008.044 1560.473 1007.99 1562.439 C 1008.017 1563.394 1008.153 1564.35 1008.481 1565.25 C 1008.863 1566.315 1009.409 1567.325 1010.092 1568.253 C 1011.183 1569.645 1012.466 1570.901 1013.886 1571.966 C 1015.988 1573.549 1018.253 1574.914 1020.656 1576.006 C 1023.959 1577.562 1027.344 1578.845 1030.838 1579.855 C 1035.314 1581.138 1039.873 1582.175 1044.486 1582.939 C 1050.164 1583.895 1055.897 1584.577 1061.657 1584.987 C 1068.59 1585.505 1075.524 1585.751 1082.457 1585.723 C 1084.559 1585.723 1086.634 1585.696 1088.736 1585.669 C 1106.507 1585.314 1124.277 1585.123 1142.048 1585.096 C 1155.042 1585.068 1168.008 1585.259 1180.974 1585.669 C 1192.494 1586.024 1203.986 1586.679 1215.451 1587.553 C 1226.889 1588.481 1238.326 1589.654 1249.71 1591.047 C 1257.812 1592.075 1265.914 1593.147 1274.016 1594.302 L 1298.688 1531.862 L 1298.688 1531.862 Z  M 1730.555 1694.234 C 1745.949 1698.976 1761.265 1703.944 1776.503 1709.113 C 1796.503 1715.813 1816.103 1723.213 1835.503 1731.413 C 1842.703 1734.413 1849.803 1737.813 1856.803 1741.513 C 1861.403 1743.813 1865.703 1746.513 1869.803 1749.713 C 1879.971 1759.572 1890.67 1768.863 1901.865 1777.529 C 1880.669 1787.759 1858.956 1797.339 1836.937 1806.458 L 1836.937 1806.458 C 1797.057 1777.991 1762.139 1745.594 1730.555 1694.234 L 1730.555 1694.234 L 1730.555 1694.234 Z  M 1647.469 1623.388 C 1680.402 1635.631 1713.238 1648.151 1745.903 1661.013 C 1763.503 1667.913 1781.003 1674.713 1798.603 1681.413 C 1813.503 1687.113 1828.503 1692.513 1843.603 1697.613 C 1855.803 1701.813 1868.303 1705.413 1880.803 1708.313 C 1890.602 1710.813 1900.602 1712.113 1910.602 1712.313 C 1915.902 1712.413 1921.102 1711.813 1926.202 1710.413 C 1964.802 1699.313 2004.702 1693.713 2044.902 1693.813 C 2070.002 1693.713 2095.002 1696.013 2119.702 1700.513 C 2140.302 1704.213 2160.402 1710.013 2179.802 1718.013 C 2187.602 1721.213 2195.201 1725.013 2202.401 1729.313 C 2208.401 1732.813 2213.901 1736.913 2219.001 1741.613 C 2222.901 1745.013 2226.301 1749.113 2228.901 1753.613 C 2230.701 1756.913 2231.801 1760.513 2231.901 1764.313 C 2231.801 1767.213 2231.101 1770.112 2229.701 1772.612 C 2227.802 1776.112 2225.201 1779.212 2222.101 1781.712 C 2215.501 1787.212 2208.401 1792.013 2200.901 1796.112 C 2190.401 1802.013 2179.502 1807.012 2168.302 1811.212 C 2139.202 1822.112 2108.402 1827.712 2077.302 1827.712 C 2044.502 1827.712 2012.102 1821.312 1981.702 1809.012 C 1963.802 1801.712 1946.702 1792.713 1930.602 1782.112 C 1911.903 1769.713 1894.403 1755.613 1878.403 1739.913 C 1873.503 1736.113 1868.303 1732.713 1862.703 1729.913 C 1855.503 1726.113 1848.103 1722.613 1840.603 1719.413 C 1820.903 1711.113 1800.903 1703.613 1780.703 1696.813 C 1757.333 1688.904 1733.809 1681.459 1710.149 1674.483 C 1710.145 1674.474 1710.141 1674.464 1710.136 1674.454 L 1648.124 1656.307 C 1647.087 1649.297 1644.783 1642.662 1641.565 1637.167 C 1643.305 1634.51 1645.611 1628.926 1647.469 1623.388 L 1647.469 1623.388 L 1647.469 1623.388 Z  M 2561.966 1636.755 C 2522.64 1526.642 2456.162 1430.929 2397.915 1358.647 C 2263.241 1327.633 2139.605 1307.745 2027.118 1299.098 C 2081.409 1157.52 2090.23 1040.512 2053.479 948.011 C 2081.321 952.075 2111.308 955.249 2141.879 957.512 C 2162.543 959.042 2172.4 951.835 2186.014 944.728 C 2277.391 1141.538 2365.768 1308.642 2608.21 1462.737 C 2597.226 1514.484 2581.855 1572.559 2561.966 1636.755 L 2561.966 1636.755 L 2561.966 1636.755 L 2561.966 1636.755 L 2561.966 1636.755 L 2561.966 1636.755 L 2561.966 1636.755 L 2561.966 1636.755 L 2561.966 1636.755 L 2561.966 1636.755 L 2561.966 1636.755 L 2561.966 1636.755 L 2561.966 1636.755 Z  M 1931.203 1404.729 C 2019.53 1390.871 2107.823 1397.62 2195.973 1424.868 L 2179.675 1432.728 C 2120.603 1407.745 2032.92 1400.897 1931.203 1404.729 L 1931.203 1404.729 L 1931.203 1404.729 L 1931.203 1404.729 L 1931.203 1404.729 L 1931.203 1404.729 L 1931.203 1404.729 L 1931.203 1404.729 L 1931.203 1404.729 L 1931.203 1404.729 L 1931.203 1404.729 L 1931.203 1404.729 L 1931.203 1404.729 L 1931.203 1404.729 L 1931.203 1404.729 L 1931.203 1404.729 L 1931.203 1404.729 Z  M 1638.863 1663.2 Q 1635.422 1648.743 1628.16 1635.774 C 1646.989 1604.948 1648.876 1557.151 1633.742 1492.304 C 1646.044 1589.337 1628.212 1649.273 1579.944 1671.812 C 1598.582 1666.096 1613.15 1656.303 1623.638 1642.423 Q 1649.395 1701.525 1614.017 1786.738 Q 1648.108 1721.356 1640.608 1672.167 Q 1653.735 1672.378 1669.554 1679.613 Q 1656.054 1665.542 1638.863 1663.2 L 1638.863 1663.2 L 1638.863 1663.2 L 1638.863 1663.2 L 1638.863 1663.2 L 1638.863 1663.2 L 1638.863 1663.2 Z  M 1355.345 1460.765 L 1620.425 1421.174 L 1553.081 1666.966 L 1590.361 1815.579 L 1384.843 1812.08 L 1257.874 1703.253 L 1355.345 1460.765 L 1355.345 1460.765 L 1355.345 1460.765 L 1355.345 1460.765 Z  M 1870.067 1328.209 C 1818.007 1329.05 1767.681 1332.632 1719.785 1338.566 C 1753.9 1381.184 1789.638 1454.919 1804.248 1534.153 C 2114.352 1522.981 2371.148 1552.161 2529.794 1644.99 C 2484.746 1533.641 2435.545 1449.528 2382.113 1392.509 C 2214.842 1344.992 2034.594 1324.216 1870.067 1328.209 L 1870.067 1328.209 L 1870.067 1328.209 L 1870.067 1328.209 L 1870.067 1328.209 L 1870.067 1328.209 L 1870.067 1328.209 L 1870.067 1328.209 L 1870.067 1328.209 L 1870.067 1328.209 L 1870.067 1328.209 L 1870.067 1328.209 L 1870.067 1328.209 L 1870.067 1328.209 L 1870.067 1328.209 L 1870.067 1328.209 L 1870.067 1328.209 L 1870.067 1328.209 L 1870.067 1328.209 L 1870.067 1328.209 L 1870.067 1328.209 L 1870.067 1328.209 L 1870.067 1328.209 L 1870.067 1328.209 L 1870.067 1328.209 L 1870.067 1328.209 L 1870.067 1328.209 Z " fill-rule="evenodd" fill="rgb(64,31,16)"/>

<g>

<g>

<path d=" M 2904.459 1438.199 C 2874.129 1453.568 2841.758 1458.999 2808.391 1451.194 L 2794.131 1568.423 L 2872.959 1486.645 C 2890.263 1666.386 2990.187 1648.918 2919.519 1484.504 C 2913.486 1470.47 2908.266 1454.846 2904.459 1438.199 L 2904.459 1438.199 L 2904.459 1438.199 L 2904.459 1438.199 L 2904.459 1438.199 Z " fill="none" vector-effect="non-scaling-stroke" stroke-width="5" stroke="rgb(64,31,16)" stroke-linejoin="miter" stroke-linecap="square" stroke-miterlimit="300"/>

<path d=" M 3081.349 889.564 C 3116.034 968.424 3110.029 1083.209 3077.531 1188.764 L 3077.531 1188.764 Q 3090.051 1197.026 3100.326 1213.416 M 2860.19 1063.816 L 2833.428 1218.137 L 2833.428 1218.137 C 2951.91 1085.733 3002.742 957.337 2984.235 910.578 M 2384.795 1600.178 L 2377.692 1671.989 L 2245.423 1689.552 L 2245.423 1689.552 L 2245.423 1689.552 L 2260.496 1573.962 M 3026.152 1505.688 C 3003.111 1436.392 2975.799 1443.378 2978.84 1504.781 C 2979.443 1516.963 2981.241 1531.286 2984.504 1547.582 C 2987.968 1564.879 2993.725 1581.775 3000.316 1598.777 M 2895.529 1967.891 C 2838.366 1959.22 2791.113 1864.062 2771.279 1756.294 L 2760.412 1845.634 L 2619.141 1768.761 L 2619.141 1768.761 L 2651.739 1617.54 C 2577.09 1758.518 2500.191 1829.864 2450.373 1789.05 C 2419.068 1763.403 2403.228 1697.38 2402.023 1606.728" fill-rule="evenodd" fill="none" vector-effect="non-scaling-stroke" stroke-width="5" stroke="rgb(64,31,16)" stroke-linejoin="miter" stroke-linecap="square" stroke-miterlimit="300"/>

</g>

<path d=" M 2914.354 594.025 C 2781.946 589.247 2702.545 574.397 2693.146 558.86 C 2625.042 560.699 2567.763 557.487 2534.295 548.645 C 2505.549 541.052 2498.452 530.385 2509.933 518.363 L 2509.933 518.363 L 2509.933 518.363 L 2509.933 518.363 C 2328.195 501.989 2258.869 480.399 2258.379 461.462 M 3295.928 411.161 C 3235.559 449.135 3119.617 497.365 3042.462 515.403 C 3057.287 515.265 3072.683 515.197 3088.599 515.197 L 3323.502 415.65 M 2869.021 520.676 C 2766.355 539.593 2646.084 545.199 2600.61 533.186 C 2555.137 521.174 2777.382 422.957 2880.048 404.04 C 2982.715 385.124 3102.985 379.518 3148.459 391.531 C 3193.933 403.543 2971.687 501.76 2869.021 520.676 L 2869.021 520.676 L 2869.021 520.676 Z  M 2784.854 388.892 C 2535.482 391.851 2301.759 490.477 2497.718 496.53 L 2784.854 388.892 L 2784.854 388.892 Z  M 3044.035 538.496 C 2794.663 541.455 2736.752 566.975 2932.712 573.028 L 3044.035 538.496 Z " fill-rule="evenodd" fill="none" vector-effect="non-scaling-stroke" stroke-width="3" stroke="rgb(64,31,16)" stroke-linejoin="miter" stroke-linecap="square" stroke-miterlimit="300"/>

<path d=" M 2958.548 1989.652 C 2960.077 1974.362 2982.465 1964.062 3008.51 1966.667 C 3034.556 1969.271 3054.461 1983.8 3052.932 1999.091 C 3051.403 2014.381 3029.015 2024.681 3002.969 2022.076 C 2976.924 2019.471 2957.019 2004.943 2958.548 1989.652 Z  M 3227.935 2022.479 C 3256.477 1948.202 3280.216 1865.857 3298.929 1775.223 L 3090.843 1762.983 L 3061.409 1887.668 M 3222.192 963.795 L 3085.988 1524.448 L 3339.391 1537.118 C 3401.777 1267.064 3429.266 1167.851 3447.087 903.612 C 3417.206 829.757 3405.909 726.23 3428.082 621.701 M 3252.179 951.696 L 3228.541 1055.111 L 3417.643 1061.02 L 3420.598 948.741 L 3361.503 951.696 M 3219.677 1143.793 L 3320.137 1149.702 M 3215.382 1206.777 L 3315.843 1212.687 M 3285.525 1262.605 L 3385.985 1268.514 M 3175.301 1334.178 L 3275.762 1340.088 M 3207.436 1171.946 L 3262.576 1171.999 M 3203.142 1234.93 L 3258.281 1234.984 M 3163.061 1362.331 L 3218.2 1362.385 M 3329.84 1151.137 L 3388.652 1154.863 M 3325.546 1214.122 L 3384.357 1217.847 M 3175.241 1311.462 L 3234.053 1315.188 M 3343.305 1180.514 L 3384.98 1183.016 M 3205.884 1254.95 L 3247.558 1257.452 M 3339.01 1243.499 L 3380.685 1246 M 3298.929 1370.9 L 3340.604 1373.401 M 3264.966 1175.618 L 3323.778 1179.344 M 3260.672 1238.602 L 3319.483 1242.328 M 3220.591 1366.003 L 3279.402 1369.729" fill-rule="evenodd" fill="none" vector-effect="non-scaling-stroke" stroke-width="3" stroke="rgb(64,31,16)" stroke-linejoin="miter" stroke-linecap="square" stroke-miterlimit="3"/>

</g>

</g>

</g>

</svg>