<svg xmlns="http://www.w3.org/2000/svg" xmlns:xlink="http://www.w3.org/1999/xlink" style="isolation:isolate" viewBox="0 0 707.447 485.872" width="707.447pt" height="485.872pt">


<g>


<path d=" M 359.233 348.192 C 354.516 336.61 332.301 291.955 315.246 274.793 C 278.584 266.35 244.926 260.935 214.278 258.556 C 229.052 220.022 231.454 188.173 221.471 162.985 C 229.066 164.078 237.215 164.94 245.522 165.555 C 251.125 165.97 253.81 164.026 257.556 162.115 C 282.337 215.478 306.318 260.834 371.782 302.655 L 359.233 348.192 L 359.233 348.192 Z  M 378.887 470.495 C 329.402 441.622 248.774 424.715 143.553 442.298 Q 133.286 410.719 110.022 390.26 L 97.728 407.456 L 33.251 402.388 L 0 362.209 L 25.575 297.485 L 108.846 284.015 C 114.405 333.986 137.655 381.986 162.694 396.656 C 201.402 380.583 236.861 359.586 264.54 333.09 L 264.54 333.09 C 230.12 327.865 190.462 327.904 145.576 333.194 C 144.156 305.189 133.587 282.043 113.84 263.728 C 140.582 257.772 171.333 255.858 206.11 258.002 L 206.11 258.002 C 220.634 223.491 222.398 191.281 211.414 161.396 C 190.134 157.599 174.96 151.974 175.498 145.347 C 176.677 130.82 151.463 134.429 97.728 135.16 Q 142.126 93.42 163.266 49.534 C 242.488 35.28 316.589 18.831 385.538 0.158 Q 499.648 -1.946 627.651 23.953 C 625.295 152.802 603.486 306.023 564.12 471.515 L 707.447 485.872 L 129.795 485.872 L 310.055 470.25 L 378.887 470.495 L 378.887 470.495 Z  M 107.274 356.139 C 106.892 353.101 106.2 350.197 105.208 347.428 C 108.445 339.397 108.491 327.65 105.336 312.175 C 107.22 338.253 103.831 353.695 95.053 358.365 C 98.602 356.768 101.404 354.302 103.457 350.963 Q 108.293 366.126 101.566 387.936 C 106.225 377.133 108.114 367.341 107.512 358.6 Q 110.394 358.903 113.839 361.085 Q 111.056 356.995 107.274 356.139 Z " fill-rule="evenodd" fill="rgb(0,0,0)"/>

<path d=" M 188.15 287.342 C 212.204 283.568 236.248 285.406 260.253 292.827 L 255.815 294.967 C 239.728 288.164 215.85 286.299 188.15 287.342 L 188.15 287.342 Z  M 351.157 352.794 C 307.976 327.493 238.037 319.545 153.578 322.587 C 149.599 301.01 139.867 280.931 130.577 269.325 C 185.046 262.576 251.049 267 310.943 284.015 C 328.445 301.166 354.071 353.801 351.157 352.794 L 351.157 352.794 Z  M 541.169 127.43 C 561.336 110.968 581.553 89.869 598.689 65.63 C 588.277 89.627 569.874 112.897 534.092 137.034 L 521.342 144.921 L 521.342 144.921 L 521.342 144.921 L 521.342 144.921 L 530.799 135.494 C 531.133 135.247 531.466 134.999 531.8 134.75 Q 517.624 138.511 504.61 143.105 L 504.61 143.105 L 504.61 143.105 Q 531.103 151.59 584.685 153.131 Q 555.479 155.448 527.507 152.98 L 527.507 152.98 Q 507.975 254.861 452.82 430.093 Q 508.641 240.619 521.454 152.388 Q 506.588 150.792 492.074 147.832 Q 474.871 153.583 461.137 162.556 C 429.643 216.398 406.427 299.65 360.832 370.563 C 336.408 352.237 310.445 340.626 273.908 334.487 C 242.502 361.691 204.43 382.223 166.647 398.494 C 168.272 401.494 171.772 405.369 173.835 406.494 C 159.901 405.354 144.203 390.218 126.71 361.056 C 138.116 398.463 160.125 421.734 192.677 430.808 Q 359.347 431.392 449.924 476.753 L 551.318 473.142 C 589.576 304.913 615.032 155.663 617.949 31.595 C 564.19 42.047 505.99 54.809 449.319 68.545 C 501.099 53.225 554.846 39.393 606.861 28.108 L 606.861 28.108 L 606.861 28.108 L 606.861 28.108 L 606.861 28.108 L 606.861 28.108 Q 486.037 7.224 386.81 6.827 C 328.58 22.378 258.106 38.077 175.348 53.898 C 228.572 79.429 294.195 91.044 372.188 88.718 C 290.459 91.668 222.169 81.595 167.29 58.468 L 167.29 58.468 Q 151.945 92.538 115.418 127.432 C 165.063 129.486 179.925 129.161 181.461 141.181 C 182.257 147.407 220.377 155.696 241.304 156.427 C 261.753 157.141 257.487 140.077 342.852 168.004 C 352.922 141.787 376.07 111.644 405.033 82.104 Q 388.808 275.784 366.009 343.902 L 366.009 343.902 C 400.621 298.348 417.305 197.641 476.866 132.812 L 492.835 122.927 C 484.315 129.914 476.619 138.876 469.436 149.388 C 468.173 151.235 494.23 136.672 541.169 127.43 L 541.169 127.43 Z  M 95.755 398.053 L 95.408 398.452 L 85.179 358.755 L 103.518 291.821 L 31.332 302.602 L 10.234 359.65 L 36.607 396.342 L 95.755 398.053 L 95.755 398.053 Z " fill-rule="evenodd" fill="rgb(200,133,32)"/>

</g>

</svg>