<svg xmlns="http://www.w3.org/2000/svg" xmlns:xlink="http://www.w3.org/1999/xlink" style="isolation:isolate" viewBox="0 0 540 684" width="540pt" height="684pt">
    
<style type="text/css">
    
  @font-face {
    font-family: 'Comic Neue';
    src: url('neue.ttf') format('truetype');
  }

</style>

    <defs><clipPath id="_clipPath_NfOsvZwurS3gIRrvHnjgH0D1WD0CKtHG"><rect x="0" y="0" width="540" height="684"/></clipPath></defs><g clip-path="url(#_clipPath_NfOsvZwurS3gIRrvHnjgH0D1WD0CKtHG)"><rect x="0" y="0" width="540" height="684" transform="matrix(1,0,0,1,0,0)" fill="rgb(210,184,144)"/><path d=" M 277.659 294.347 C 280.387 293.934 283.117 293.596 285.86 293.32 C 288.61 293.04 291.37 292.86 294.13 292.79 C 295.02 292.77 295.91 292.76 296.81 292.76 C 297.63 292.76 298.45 292.77 299.27 292.8 C 300.39 292.84 301.52 292.9 302.64 292.99 C 303.63 293.07 304.62 293.18 305.6 293.31 C 307.98 293.63 310.34 294.13 312.64 294.82 C 314.32 295.33 315.95 296.01 317.49 296.85 C 318.26 297.27 319.01 297.75 319.73 298.26 C 320.37 298.73 320.98 299.24 321.55 299.79 C 322.1 300.3 322.6 300.86 323.07 301.45 C 323.53 302.03 323.95 302.64 324.32 303.29 C 325.4 305.09 326.26 307.02 326.86 309.04 C 327.36 310.71 327.62 312.44 327.63 314.18 C 327.63 315.88 327.36 317.56 326.84 319.18 C 326.32 320.78 325.57 322.31 324.63 323.72 C 323.65 325.2 322.5 326.57 321.21 327.8 C 319.86 329.09 318.39 330.27 316.83 331.31 C 313.64 333.44 310.16 335.1 306.5 336.25 C 304.78 336.8 303.02 337.23 301.24 337.54 C 299.65 337.81 298.04 337.96 296.43 337.97 C 295.18 337.98 293.92 337.86 292.7 337.6 C 290.4 337.1 288.16 336.41 285.98 335.53 C 284.02 334.74 282.13 333.76 280.34 332.62 C 277.09 330.54 274.26 327.85 272.01 324.7 C 269.84 321.62 268.21 318.18 267.2 314.55 C 266.13 310.74 265.61 306.81 265.63 302.86 C 265.64 299.83 265.91 296.8 266.44 293.81 C 266.659 292.562 266.92 291.325 267.246 290.104 L 267.246 290.104 L 264.288 282.561 C 264.215 282.753 264.147 282.946 264.08 283.14 C 262.97 286.33 262.11 289.61 261.52 292.93 C 260.93 296.2 260.64 299.52 260.63 302.85 C 260.61 307.25 261.2 311.65 262.38 315.89 C 263.55 320.08 265.43 324.04 267.93 327.59 C 270.55 331.26 273.85 334.4 277.65 336.83 C 279.69 338.14 281.86 339.26 284.11 340.17 C 286.55 341.15 289.08 341.93 291.65 342.49 C 293.23 342.82 294.85 342.98 296.47 342.97 C 298.35 342.96 300.24 342.79 302.1 342.46 C 304.1 342.12 306.08 341.64 308.01 341.02 C 312.12 339.72 316.02 337.85 319.61 335.47 C 321.41 334.26 323.1 332.91 324.67 331.41 C 326.22 329.93 327.6 328.28 328.79 326.5 C 329.99 324.71 330.93 322.76 331.6 320.72 C 332.28 318.6 332.63 316.39 332.63 314.17 C 332.62 311.95 332.29 309.73 331.65 307.6 C 330.93 305.2 329.91 302.89 328.63 300.74 C 328.14 299.9 327.59 299.1 326.99 298.34 C 326.38 297.58 325.72 296.85 325.01 296.17 C 324.27 295.47 323.49 294.81 322.66 294.21 C 321.77 293.57 320.85 292.99 319.89 292.46 C 318.04 291.45 316.09 290.64 314.07 290.03 C 311.52 289.27 308.91 288.71 306.27 288.35 C 305.19 288.21 304.12 288.1 303.04 288.01 C 301.84 287.91 300.64 287.84 299.43 287.8 C 298.56 287.78 297.69 287.76 296.82 287.76 C 295.88 287.76 294.94 287.77 294 287.79 C 291.11 287.87 288.23 288.05 285.36 288.34 C 282.792 288.598 280.228 288.913 277.675 289.289 L 277.659 294.347 L 277.659 294.347 Z " fill="rgb(0,0,0)"/><path d=" M 504 353.166 C 503.296 352.988 502.592 352.806 501.89 352.62 C 493.26 350.33 484.79 347.5 476.51 344.15 C 473.22 342.81 469.96 341.4 466.73 339.93 C 462.84 341.47 458.83 342.68 454.74 343.56 C 450.74 344.41 446.65 344.85 442.56 344.86 C 438.86 344.86 435.16 344.48 431.54 343.72 C 428.04 342.98 424.61 341.91 421.32 340.51 C 418.03 339.12 414.85 337.47 411.83 335.57 C 408.75 333.63 405.79 331.51 402.97 329.21 C 400.07 326.85 397.28 324.37 394.61 321.76 C 391.87 319.08 389.21 316.33 386.63 313.5 C 384.01 310.61 381.44 307.69 378.92 304.72 C 376.37 301.72 373.85 298.72 371.34 295.7 C 367.6 291.17 363.8 286.69 359.94 282.25 C 356.23 277.98 352.35 273.86 348.3 269.9 C 346.35 268.01 344.35 266.19 342.28 264.44 C 340.28 262.74 338.22 261.13 336.08 259.6 C 334.02 258.13 331.88 256.76 329.68 255.51 C 327.53 254.29 325.3 253.21 323.01 252.27 C 320.53 251.25 317.96 250.47 315.34 249.93 C 312.95 249.44 310.52 249.19 308.08 249.18 C 305.09 249.18 302.11 249.58 299.23 250.35 C 296.41 251.12 293.69 252.23 291.14 253.65 C 288.56 255.09 286.13 256.81 283.91 258.77 C 281.63 260.78 279.55 263 277.68 265.4 C 274.591 269.384 272.042 273.758 270.116 278.411 L 270.116 278.411 L 267.459 272.234 C 269.221 268.743 271.324 265.429 273.73 262.33 C 275.79 259.68 278.09 257.24 280.61 255.02 C 283.09 252.82 285.81 250.9 288.7 249.28 C 291.61 247.66 294.71 246.4 297.92 245.53 C 301.24 244.63 304.65 244.18 308.09 244.18 C 310.86 244.19 313.63 244.47 316.34 245.03 C 319.28 245.63 322.15 246.51 324.92 247.65 C 327.39 248.67 329.81 249.84 332.14 251.16 C 334.5 252.5 336.79 253.96 338.99 255.53 C 341.24 257.14 343.42 258.84 345.52 260.63 C 347.67 262.46 349.76 264.35 351.78 266.32 C 355.93 270.37 359.91 274.59 363.72 278.97 C 367.6 283.44 371.43 287.95 375.19 292.51 C 377.69 295.51 380.2 298.5 382.73 301.48 C 385.21 304.41 387.75 307.29 390.33 310.13 C 392.84 312.89 395.43 315.57 398.1 318.18 C 400.67 320.68 403.35 323.07 406.13 325.34 C 408.79 327.5 411.58 329.51 414.48 331.33 C 417.28 333.09 420.22 334.62 423.26 335.91 C 426.27 337.18 429.38 338.16 432.57 338.83 C 435.85 339.52 439.2 339.86 442.55 339.86 C 446.29 339.85 450.03 339.45 453.7 338.67 C 455.94 338.19 458.16 337.6 460.34 336.9 C 456.86 335.19 453.42 333.4 450.02 331.53 C 444.88 328.71 440.09 325.3 435.74 321.36 C 431.81 317.81 428.3 313.81 425.27 309.46 C 423.9 307.48 422.65 305.42 421.52 303.28 C 420.47 301.31 419.56 299.26 418.79 297.17 C 418.07 295.25 417.51 293.27 417.1 291.26 C 416.73 289.43 416.54 287.57 416.52 285.7 C 416.5 283.7 416.79 281.71 417.37 279.8 C 417.94 277.97 418.88 276.29 420.14 274.85 C 421.44 273.4 423.07 272.28 424.89 271.57 C 426.9 270.8 429.04 270.43 431.18 270.47 C 433.39 270.49 435.58 270.78 437.72 271.31 C 440.74 272.03 443.68 273.05 446.5 274.34 C 449.29 275.62 451.97 277.14 454.51 278.88 C 459.5 282.3 463.95 286.45 467.73 291.17 C 469.56 293.44 471.23 295.84 472.72 298.34 C 474.16 300.73 475.41 303.23 476.47 305.8 C 477.48 308.23 478.27 310.74 478.85 313.31 C 479.39 315.7 479.67 318.15 479.69 320.6 C 479.7 322.59 479.47 324.57 479.02 326.5 C 478.57 328.38 477.85 330.18 476.87 331.85 C 475.88 333.53 474.62 335.03 473.13 336.3 C 472.86 336.52 472.59 336.74 472.31 336.95 C 474.33 337.83 476.36 338.69 478.4 339.52 C 486.47 342.79 494.74 345.55 503.17 347.79 C 503.446 347.863 503.723 347.935 504 348.005 L 504 353.166 L 504 353.166 Z  M 466.82 334.46 C 467.93 333.93 468.96 333.27 469.9 332.48 C 470.96 331.58 471.86 330.51 472.56 329.32 C 473.28 328.08 473.82 326.74 474.15 325.35 C 474.52 323.81 474.7 322.22 474.69 320.63 C 474.67 318.54 474.43 316.45 473.97 314.41 C 473.46 312.12 472.75 309.88 471.85 307.71 C 470.88 305.36 469.74 303.09 468.43 300.9 C 467.06 298.6 465.52 296.39 463.84 294.3 C 460.36 289.96 456.26 286.15 451.68 283 C 449.38 281.43 446.95 280.05 444.41 278.89 C 441.88 277.73 439.24 276.82 436.53 276.17 C 434.76 275.72 432.94 275.49 431.11 275.47 C 429.6 275.44 428.1 275.7 426.69 276.23 C 425.61 276.66 424.65 277.32 423.87 278.17 C 423.09 279.07 422.5 280.13 422.15 281.27 C 421.72 282.69 421.5 284.17 421.52 285.65 C 421.53 287.2 421.69 288.75 422 290.27 C 422.36 292.02 422.85 293.75 423.48 295.43 C 424.17 297.32 425 299.17 425.94 300.95 C 426.97 302.9 428.12 304.79 429.38 306.61 C 432.19 310.65 435.45 314.36 439.1 317.65 C 443.15 321.33 447.63 324.52 452.43 327.14 C 457.14 329.74 461.94 332.18 466.82 334.46 Z " fill-rule="evenodd" fill="rgb(0,0,0)"/><path d=" M 36 640.506 C 43.214 642.559 50.531 644.129 57.915 645.208 C 65.506 646.312 73.158 646.87 80.819 646.87 C 87.579 646.87 94.33 646.435 101.051 645.587 C 107.524 644.761 113.968 643.567 120.342 642.005 C 126.529 640.488 132.656 638.658 138.703 636.527 C 144.603 634.451 150.423 632.131 156.164 629.575 C 161.756 627.076 167.279 624.398 172.723 621.542 C 178.019 618.764 183.245 615.863 188.422 612.828 C 193.401 609.904 198.35 606.914 203.259 603.835 C 207.941 600.911 212.603 597.954 217.265 594.975 C 221.64 592.164 226.045 589.385 230.449 586.629 C 234.537 584.074 238.655 581.597 242.822 579.209 C 246.603 577.034 250.463 575.003 254.373 573.117 C 257.867 571.421 261.441 569.96 265.083 568.732 L 267.459 567.929 L 266.033 562.584 L 263.668 563.388 C 259.847 564.682 256.095 566.211 252.423 567.985 C 248.414 569.915 244.455 572.002 240.575 574.244 C 236.359 576.654 232.182 579.165 228.044 581.753 C 223.63 584.509 219.215 587.31 214.82 590.122 C 210.178 593.09 205.526 596.035 200.854 598.959 C 195.984 602.005 191.084 604.984 186.135 607.874 C 181.028 610.875 175.861 613.743 170.635 616.476 C 165.28 619.299 159.846 621.932 154.342 624.387 C 148.71 626.898 143.009 629.174 137.229 631.205 C 131.319 633.291 125.341 635.065 119.293 636.549 C 113.077 638.078 106.811 639.238 100.496 640.041 C 93.964 640.867 87.391 641.291 80.819 641.291 C 73.375 641.291 65.932 640.744 58.548 639.673 C 50.95 638.565 43.416 636.917 36 634.747 L 36 640.506 L 36 640.506 Z " fill="rgb(0,0,0)"/><g><path d=" M 445.663 394.801 C 449.563 433.323 447.346 442.394 443.734 479.33 L 461.394 470.192 L 458.633 373.826 L 445.663 394.801 L 445.663 394.801 Z  M 487.3 377.427 L 487.633 377.508 L 488.44 479.34 L 473.724 489.366 L 437.572 489.669 C 444.097 458.17 445.804 435.337 443.006 397.236 L 441.552 397.407 L 441.419 395.015 L 439.958 394.085 L 439.958 392.49 L 437.965 391.427 L 456.435 360.739 L 489.273 367.907 L 489.14 370.166 L 488.343 370.83 L 488.343 372.558 L 487.413 373.488 L 487.3 377.427 L 487.3 377.427 Z  M 463.288 374.915 L 483.479 378.501 L 485.419 472.75 L 465.581 470.142 C 462.275 436.218 461.399 413.581 463.288 374.915 Z " fill-rule="evenodd" fill="rgb(0,0,0)"/><g><path d=" M 451.757 458.663 C 452.182 455.676 453.526 453.379 454.755 453.536 C 455.984 453.693 456.637 456.245 456.211 459.231 C 455.786 462.217 454.442 464.514 453.213 464.358 C 451.984 464.201 451.331 461.649 451.757 458.663 Z " fill-rule="evenodd" fill="rgb(0,0,0)"/><path d=" M 433.472 448.409 C 433.223 443.634 431.959 440.283 430.001 440.034 C 427.079 439.661 423.713 446.335 422.488 454.929 C 421.263 463.522 422.641 470.801 425.562 471.174 C 427.562 471.429 429.771 468.383 431.362 463.688 C 439.303 461.353 446.601 461.049 453.053 462.73 L 453.438 459.107 L 453.823 455.483 C 448.818 454.799 441.968 452.437 433.472 448.409 Z  M 429.106 450.571 C 431.203 458.145 427.096 470.142 424.868 465.233 C 426.124 467.118 429.286 457.114 429.106 450.571 Z " fill-rule="evenodd" fill="rgb(0,0,0)"/></g><path d=" M 449.069 400.725 C 451.992 411.135 452.14 422.299 449.511 434.215 C 430.834 439.921 430.977 395.168 449.069 400.725 Z " fill="rgb(0,0,0)"/><path d=" M 447.863 404.302 C 449.991 412.614 450.099 421.527 448.185 431.041 C 434.582 435.597 434.686 399.866 447.863 404.302 Z " fill="rgb(0,0,0)"/><path d=" M 454.311 394.402 C 457.403 406.002 458.047 415.545 455.266 428.822 C 437.293 443.89 435.17 388.21 454.311 394.402 Z " fill="rgb(0,0,0)"/><path d=" M 483.609 440.897 C 483.376 440.945 483.154 440.974 482.944 440.985 C 481.547 440.709 485.918 413.648 481.168 412.73 Q 477.139 411.952 470.495 424.706 C 468.604 429.545 471.567 430.485 474.02 430.208 Q 476.961 420.191 478.643 421.023 C 480.325 421.856 476.753 445.167 481.588 446.353 Q 482.792 446.649 484.359 446.619 C 485.278 448.216 486.893 449.241 489.273 448.988 C 490.958 448.235 492.493 447.831 493.873 447.774 C 501.252 448.089 502.399 433.531 493.725 433.479 C 491.776 434.31 490.179 434.807 488.927 434.967 C 486.003 435.324 484.164 437.984 483.609 440.897 Z " fill-rule="evenodd" fill="rgb(0,0,0)"/><path d=" M 451.773 399.073 C 453.799 408.334 454.221 415.953 452.399 426.554 C 440.622 438.584 439.231 394.13 451.773 399.073 Z " fill="rgb(0,0,0)"/><path d=" M 458.867 368.292 L 444.58 391.533 C 446.878 418.961 445.621 450.238 440.777 485.333 L 463.582 472.145 L 458.867 368.292 Z " fill="rgb(0,0,0)" fill-opacity="0.27"/><path d=" M 459.977 369.401 L 463.258 477.27 L 486.294 475.267 L 486.294 374.774 L 459.977 369.401 Z " fill="rgb(0,0,0)" fill-opacity="0.64"/><path d=" M 428.359 447.844 L 433.359 453.469 L 427.859 467.594 L 423.859 467.844 L 424.109 462.344 L 428.359 447.844 Z " fill="rgb(0,0,0)" fill-opacity="0.64"/></g><g><path d=" M 295.434 532.905 L 291.404 537.253 L 297.852 556.737 L 307.737 565.546 L 311.031 561.718 L 295.434 532.905 Z " fill="rgb(0,0,0)" fill-opacity="0.64"/><path d=" M 341.235 623.713 C 313.042 624.073 292.142 625.371 292.142 626.916 C 292.142 628.738 321.245 630.218 357.092 630.218 C 392.938 630.218 422.041 628.738 422.041 626.916 C 422.041 626.342 419.159 625.803 414.091 625.333 L 414.756 626.652 L 343.572 624.98 L 341.235 623.713 Z " fill-rule="evenodd" fill="rgb(0,0,0)"/><path d=" M 383.322 491.648 L 386.148 491.798 L 380.694 483.387 L 388.944 485.333 L 389.366 478.577 C 371.444 475.293 356.301 477.086 343.905 483.925 L 344.046 490.822 L 331.379 493.355 L 320.225 505.881 L 339.789 511.37 L 343.589 536.282 L 383.322 491.648 Z " fill="rgb(0,0,0)" fill-opacity="0.27"/><path d=" M 350.734 537.253 L 343.957 546.049 L 338.622 580.657 L 343.524 583.396 L 351.023 550.231 L 350.734 537.253 Z " fill="rgb(0,0,0)" fill-opacity="0.27"/><path d=" M 381.388 483.867 L 393.819 486.586 L 411.105 487.557 C 419.428 494.806 423.906 500.513 424.506 504.649 L 385.661 491.247 L 381.388 483.867 Z " fill="rgb(0,0,0)" fill-opacity="0.64"/><path d=" M 394.54 558.132 L 389.821 601.787 L 382.21 600.168 L 397.823 548.698 L 402.015 534.836 C 390.153 558.592 380.119 582.719 371.885 607.189 L 373.028 608.171 L 370.949 618.528 L 371.567 625.438 L 414.498 626.252 L 412.476 621.871 L 408.713 621.478 L 406.971 613.276 L 403.657 613.445 L 395.792 553.385 L 394.54 558.132 Z " fill="rgb(0,0,0)" fill-opacity="0.64"/><path d=" M 278.177 567.05 C 277.659 567.209 277.135 567.374 276.605 567.542 L 276.605 567.542 C 277.1 570.74 276.65 573.205 275.227 573.916 C 272.911 575.074 268.888 571.149 266.249 565.158 C 263.61 559.167 263.347 553.363 265.663 552.205 C 267.278 551.398 269.721 553.06 271.947 556.168 C 276.127 554.101 279.754 551.726 282.832 549.045 L 278.177 567.05 Z  M 291.346 563.657 C 294.245 563.103 296.763 562.803 298.906 562.753 C 302.74 567.541 306.745 569.938 309.486 568.569 C 313.861 566.382 313.365 555.419 308.38 544.102 C 303.395 532.785 295.796 525.373 291.421 527.559 C 288.387 529.075 287.696 534.814 289.212 541.958 C 288.558 542.905 287.855 543.824 287.098 544.714 C 290.55 550.936 291.965 557.248 291.346 563.657 Z  M 294.473 535.544 C 293.955 542.786 300.615 558.974 307.737 562.475 C 306.042 563.125 294.566 539.939 294.473 535.544 L 294.473 535.544 Z " fill-rule="evenodd" fill="rgb(0,0,0)"/><path d=" M 388.592 601.109 L 387.305 586.172 C 385.258 591.966 383.827 594.811 383.381 600.224 L 388.592 601.109 L 388.592 601.109 L 388.592 601.109 L 388.592 601.109 L 388.592 601.109 L 388.592 601.109 L 388.592 601.109 L 388.592 601.109 L 388.592 601.109 L 388.592 601.109 L 388.592 601.109 L 388.592 601.109 L 388.592 601.109 L 388.592 601.109 Z  M 395.136 520.657 L 399.544 517.816 L 395.136 525.87 L 395.136 520.657 L 395.136 520.657 L 395.136 520.657 L 395.136 520.657 L 395.136 520.657 L 395.136 520.657 L 395.136 520.657 L 395.136 520.657 L 395.136 520.657 L 395.136 520.657 L 395.136 520.657 Z  M 364.813 521.103 L 380.987 525.019 L 380.646 550.046 L 373.496 564.347 C 367.137 563.909 358.219 563.648 352.693 569.331 C 353.716 575.282 357.322 582.237 357.583 591.073 C 353.521 589.33 350.271 587.48 347.827 585.516 L 352.869 555.692 L 354.176 535.094 L 364.813 521.103 L 364.813 521.103 L 364.813 521.103 L 364.813 521.103 L 364.813 521.103 L 364.813 521.103 L 364.813 521.103 L 364.813 521.103 L 364.813 521.103 L 364.813 521.103 L 364.813 521.103 L 364.813 521.103 Z  M 343.558 547.624 C 338.15 559.884 334.482 568.983 332.525 574.892 L 338.139 579.252 L 343.558 547.624 L 343.558 547.624 L 343.558 547.624 L 343.558 547.624 L 343.558 547.624 L 343.558 547.624 L 343.558 547.624 L 343.558 547.624 L 343.558 547.624 L 343.558 547.624 L 343.558 547.624 Z  M 400.203 540.313 Q 385.703 568.781 373.105 607.106 C 381.244 609.126 392.748 611.471 402.689 611.867 Q 396.905 585.431 395.543 556.737 Q 392.764 588.498 393.928 603.163 C 389.297 602.687 384.968 601.619 380.937 599.953 Q 389.953 566.281 400.203 540.313 L 400.203 540.313 L 400.203 540.313 L 400.203 540.313 L 400.203 540.313 L 400.203 540.313 L 400.203 540.313 L 400.203 540.313 L 400.203 540.313 Z  M 371.707 619.721 L 372.124 624.622 L 412.696 625.758 L 411.156 622.24 C 397.633 622.761 384.891 621.528 371.707 619.721 L 371.707 619.721 L 371.707 619.721 L 371.707 619.721 L 371.707 619.721 L 371.707 619.721 L 371.707 619.721 L 371.707 619.721 Z  M 373.592 608.903 L 371.409 617.634 C 384.337 621.082 395.835 622.154 407.898 620.843 L 406.357 614.681 C 395.919 613.787 385.666 611.863 373.592 608.903 L 373.592 608.903 L 373.592 608.903 L 373.592 608.903 L 373.592 608.903 L 373.592 608.903 L 373.592 608.903 Z  M 332.68 494.37 C 329.378 497.049 326.148 500.462 322.983 504.605 L 384.051 489.74 C 383.498 487.843 382.423 485.96 380.818 484.083 L 332.68 494.37 L 332.68 494.37 L 332.68 494.37 L 332.68 494.37 L 332.68 494.37 L 332.68 494.37 Z  M 394.033 487.702 L 382.031 484.488 Q 385.283 486.891 386.527 489.995 L 423.307 503.155 C 420.531 497.071 415.026 492.681 410.327 488.406 L 394.033 487.702 L 394.033 487.702 L 394.033 487.702 L 394.033 487.702 L 394.033 487.702 Z  M 347.376 529.979 C 346.139 531.486 344.963 532.944 343.849 534.351 L 340.104 509.456 C 348.641 505.927 361.844 501.534 378.542 495.89 C 369.871 505.1 357.742 518.536 351.377 525.87 C 355.192 520.636 361.815 510.263 363.215 505.459 L 345.202 513.858 Q 346.916 523.378 347.376 529.979 L 347.376 529.979 L 347.376 529.979 L 347.376 529.979 Z  M 348.644 551.502 L 348.748 540.313 L 345.302 545.147 L 339.764 580.309 L 341.751 581.871 L 348.644 551.502 L 348.644 551.502 L 348.644 551.502 Z  M 345.256 484.284 L 345.732 489.546 L 380.062 482.332 L 387.516 484.689 L 387.897 479.932 C 371.511 476.33 357.301 477.784 345.256 484.284 L 345.256 484.284 Z  M 380.593 503.713 L 406.835 509.878 C 387.111 538.514 372.318 567.195 362.452 595.915 C 347.705 588.496 335.79 580.455 326.699 571.786 C 341.513 545.786 359.482 523.099 380.593 503.713 L 380.593 503.713 L 380.593 503.713 L 380.593 503.713 L 380.593 503.713 L 380.593 503.713 L 380.593 503.713 L 380.593 503.713 L 380.593 503.713 L 380.593 503.713 L 380.593 503.713 Z  M 383.04 494.035 L 415.096 505.638 Q 388.749 556.442 370.757 606.968 L 366.692 606.306 L 372.124 608.239 L 370.13 617.486 C 346.431 610.21 326.227 599.077 309.488 584.058 L 314.627 584.052 L 325.123 592.831 L 313.175 581.477 L 313.835 582.996 L 311.987 582.731 L 312.119 579.431 L 325.915 588.408 L 316.079 580.289 L 316.674 574.744 L 320.489 574.323 L 319.702 575.995 L 318.719 575.159 Q 323.881 581.31 331.876 586.36 Q 326.385 583.551 317.745 576.311 C 326.833 586.201 341.763 595.792 362.527 605.079 C 340.796 593.326 326.983 583.666 321.082 576.096 C 336.739 545.824 357.393 518.472 383.04 494.035 L 383.04 494.035 L 383.04 494.035 L 383.04 494.035 L 383.04 494.035 L 383.04 494.035 L 383.04 494.035 L 383.04 494.035 L 383.04 494.035 L 383.04 494.035 L 383.04 494.035 Z  M 331.232 492.383 C 327.262 495.794 323.168 500.127 318.158 506.95 L 339.582 512.854 L 342.007 537.365 C 334.725 548.625 327.634 560.569 320.728 573.189 L 314.263 573.189 L 314.533 578.846 L 311.031 578.038 L 310.762 581.809 C 304.018 581.963 296.927 579.541 289.483 574.536 C 294.093 567.094 292.569 554.795 284.904 537.635 L 263.625 578.846 C 299.674 591.527 322.38 610.72 333.57 625.601 L 416.327 627.218 L 413.957 621.336 L 409.917 620.606 L 407.762 612.178 L 404.261 611.448 C 399.33 585.218 397.823 571.229 397.217 554.586 C 399.463 546.196 405.251 527.654 415.035 510.363 L 426.886 504.706 C 423.901 498.782 418.9 492.762 411.875 486.64 L 393.999 485.738 L 391.033 485.125 L 391.062 477.906 C 375.471 472.746 353.364 476.821 342.579 483.562 L 342.579 490.027 L 331.232 492.383 L 331.232 492.383 L 331.232 492.383 L 331.232 492.383 L 331.232 492.383 L 331.232 492.383 L 331.232 492.383 L 331.232 492.383 L 331.232 492.383 L 331.232 492.383 L 331.232 492.383 L 331.232 492.383 L 331.232 492.383 L 331.232 492.383 Z  M 306.489 583.997 C 329.314 602.494 352.215 613.932 370.601 619.088 L 370.443 624.622 C 340.428 612.968 307.98 594.336 279.159 569.762 L 285.065 544.47 C 291.126 556.805 291.978 566.645 287.617 573.983 C 292.436 579.022 299.339 582.373 306.489 583.997 Z " fill-rule="evenodd" fill="rgb(0,0,0)"/><path d=" M 323.141 505.801 L 339.029 511.164 L 338.624 508.027 L 382.589 492.437 L 418.492 505.716 L 416.457 507.976 L 423.642 505.143 L 383.771 490.938 L 323.141 505.801 Z " fill="rgb(0,0,0)"/><linearGradient id="_lgradient_3" x1="0.14779573543731317" y1="0.7122899434143616" x2="0.649525941379088" y2="0.23866000239806878" gradientTransform="matrix(105.608,0,0,123.451,309.488,494.035)" gradientUnits="userSpaceOnUse"><stop offset="0%" stop-opacity="0.3" style="stop-color:rgb(0,0,0)"/><stop offset="100%" stop-opacity="0.61" style="stop-color:rgb(0,0,0)"/></linearGradient><path d=" M 383.04 494.035 L 415.096 505.638 Q 388.749 556.442 370.757 606.968 L 366.692 606.306 L 372.124 608.239 L 370.13 617.486 C 346.431 610.21 326.227 599.077 309.488 584.058 L 314.627 584.052 L 325.123 592.831 L 313.175 581.477 L 313.835 582.996 L 311.987 582.731 L 312.119 579.431 L 325.915 588.408 L 316.079 580.289 L 316.674 574.744 L 320.489 574.323 L 319.702 575.995 L 318.719 575.159 Q 323.881 581.31 331.876 586.36 Q 326.385 583.551 317.745 576.311 C 326.833 586.201 341.763 595.792 362.527 605.079 C 340.796 593.326 326.983 583.666 321.082 576.096 C 336.739 545.824 357.393 518.472 383.04 494.035 Z  M 380.593 503.713 L 406.835 509.878 C 387.111 538.514 372.318 567.195 362.452 595.915 C 347.705 588.496 335.79 580.455 326.699 571.786 C 341.513 545.786 359.482 523.099 380.593 503.713 Z " fill-rule="evenodd" fill="url(#_lgradient_3)"/><linearGradient id="_lgradient_4" x1="0.43321720221690463" y1="0.5642618718856265" x2="0.14300479941008337" y2="0.3685118361399192" gradientTransform="matrix(94.513,0,0,85.42,276.411,540.562)" gradientUnits="userSpaceOnUse"><stop offset="0%" stop-opacity="0.3" style="stop-color:rgb(0,0,0)"/><stop offset="100%" stop-opacity="0.61" style="stop-color:rgb(0,0,0)"/></linearGradient><path d=" M 284.829 540.562 L 276.411 573.299 C 311.582 600.082 342.8 617.244 370.924 625.982 L 370.901 618.644 C 342.738 608.849 321.715 597.017 307.804 583.12 C 301.985 582.575 295.648 579.571 288.765 574.078 C 293.3 567.452 291.998 556.289 284.829 540.562 Z " fill="url(#_lgradient_4)"/><linearGradient id="_lgradient_5" x1="0.14779573543731317" y1="0.7122899434143616" x2="0.649525941379088" y2="0.23866000239806878" gradientTransform="matrix(32.888,0,0,40.272,349.862,436.939)" gradientUnits="userSpaceOnUse"><stop offset="0%" stop-opacity="0.3" style="stop-color:rgb(0,0,0)"/><stop offset="100%" stop-opacity="0.61" style="stop-color:rgb(0,0,0)"/></linearGradient><path d=" M 381.21 442.431 L 363.363 436.939 L 349.862 447.465 C 351.268 464.367 355.472 474.293 362.447 477.211 L 378.007 472.177 C 382.965 463.928 384.043 454.023 381.21 442.431 Z  M 375.562 447.861 L 363.022 448.136 L 363.16 458.471 C 370.417 464.029 374.553 460.494 375.562 447.861 Z " fill-rule="evenodd" fill="url(#_lgradient_5)"/><path d=" M 348.704 446.453 C 353.939 442.628 358.744 438.643 363.112 434.494 C 364.005 436.62 370.491 439.071 382.563 441.842 C 385.367 456.141 383.928 466.661 378.241 473.396 C 373.404 474.045 368.507 475.584 363.545 478.007 C 356.685 478.046 351.74 467.53 348.704 446.453 L 348.704 446.453 Z  M 362.665 437.7 L 351.281 446.975 C 351.422 464.261 356.338 474.715 364.21 475.785 C 368.02 473.309 372.378 471.859 377.28 471.428 C 381.823 464.471 382.996 455.198 380.793 443.602 C 370.283 441.067 364.242 439.101 362.665 437.7 L 362.665 437.7 Z " fill-rule="evenodd" fill="rgb(0,0,0)"/><path d=" M 362.524 440.37 L 361.962 441.635 C 361.998 466.069 365.7 476.33 373.064 472.412 C 366.078 473.729 362.801 465.814 363.227 448.662 L 374.61 448.1 C 374 458.404 370.126 462.771 364.83 458.833 C 366.917 465.294 376.015 463.277 376.156 448.1 L 380.231 447.537 L 379.107 447.116 L 363.508 447.256 L 362.524 440.37 Z " fill="rgb(0,0,0)"/></g><g><g opacity="0.43"><path d=" M 155.749 334.296 L 181.968 339.126 C 194.376 326.588 208.085 315.728 216.91 309.876 Q 217.461 307.379 221.648 304.504 L 232.815 301.944 L 239.916 292.898 C 244.794 277.148 251.768 268 260.807 265.423 C 253.762 276.83 247.753 290.97 242.751 307.811 C 227.181 316.979 210.748 331.637 193.42 351.756 L 158.911 348.92 L 155.749 334.296 Z " fill="rgb(118,0,0)"/></g><path d=" M 158.892 348.406 L 140.243 353.202 L 184.468 356.932 L 242.013 351 L 158.892 348.406 Z " fill="rgb(0,0,0)"/><path d=" M 156.295 333.67 L 156.595 334.771 L 182.818 339.976 C 192.74 328.715 206.419 317.498 217.641 309.625 C 218.058 307.636 219.768 305.832 222.742 304.181 L 221.421 304.486 C 218.033 306.201 216.141 308.167 215.716 310.354 C 206.628 315.921 193.358 326.176 181.417 338.675 L 156.295 333.67 Z " fill="rgb(0,0,0)"/><path d=" M 273.466 305.505 C 273.32 299.476 271.112 285.666 261.936 264.051 C 252.931 277.148 246.521 291.58 242.698 307.337 L 225.749 320.621 C 239.396 313.36 253.677 308.324 273.466 305.505 Z " fill="rgb(0,0,0)"/><g opacity="0.43"><path d=" M 150.37 311.148 L 163.365 313.536 C 159.791 296.707 161.386 282.233 168.143 270.103 C 175.253 272.074 182.502 274.512 189.792 277.27 C 198.825 280.689 207.922 284.6 216.895 288.724 L 204.192 273.144 L 204.192 241.872 L 218.09 218.419 L 213.312 211.036 L 222.433 190.188 L 208.427 160.863 C 190.5 162.714 170.197 168.734 149.901 177.593 L 139.478 228.843 L 167.274 241.004 L 160.374 259 L 142.016 261.997 Q 146.246 291.926 150.37 311.148 Z " fill="rgb(118,0,0)"/></g><path d=" M 242.814 285.267 C 240.532 284.547 238.222 283.864 235.909 283.223 C 230.389 288.845 225.073 291.578 222.127 289.729 C 217.633 286.908 220.344 274.485 228.178 262.004 L 228.178 262.004 C 236.011 249.523 246.02 241.681 250.514 244.502 C 253.608 246.443 253.288 252.935 250.227 260.866 C 252.079 263.384 253.973 265.697 255.913 267.777 C 250.467 272.629 246.102 278.46 242.814 285.267 L 242.814 285.267 Z  M 276.178 299.398 C 277.858 298.082 279.526 296.226 280.938 293.977 C 284.533 288.249 285.113 282.13 282.231 280.322 C 280.572 279.28 278.124 279.894 275.66 281.701 C 273.795 281.023 271.96 280.198 270.154 279.223 Q 275.132 291.026 276.178 299.398 L 276.178 299.398 Z  M 245.789 250.548 C 243.376 265.626 236.706 276.527 225.749 283.223 C 235.217 275.275 241.917 264.403 245.789 250.548 Z " fill-rule="evenodd" fill="rgb(0,0,0)"/><path d=" M 162.132 241.536 C 155.722 237.382 147.58 233.813 137.699 229.194 Q 143.254 199.789 148.395 175.615 Q 173.395 164.326 208.773 157.197 L 224.561 190.359 L 214.912 212.142 L 212.719 209.322 L 220.489 190.046 L 207.833 161.896 Q 180.116 166.394 150.241 179.461 Q 145.839 202.633 141.654 228.136 C 149.804 231.946 156.803 234.998 162.641 238.913 L 162.132 241.536 Z " fill="rgb(0,0,0)"/><path d=" M 150.385 225.385 C 154.976 232.958 158.361 239.884 160.531 246.155 L 155.051 259.524 C 169.26 256.873 181.319 252.897 191.219 247.587 L 195.038 218.343 C 179.799 218.542 164.195 220.892 150.385 225.385 Z " fill="rgb(0,0,0)"/><path d=" M 198.425 217.254 L 197.59 212.36 L 202.224 219.847 L 200.075 226.293 L 199.717 219.967 L 198.425 217.254 Z " fill="rgb(0,0,0)"/><path d=" M 205.878 159.725 L 198.291 195.473 L 208.702 161.265 L 205.878 159.725 Z " fill="rgb(0,0,0)"/><path d=" M 207.932 201.32 L 219.588 217.927 L 215.417 224.734 L 198.631 252.13 L 214.922 218.44 L 207.932 201.32 Z " fill="rgb(0,0,0)"/><path d=" M 151.263 283.68 C 161.479 312.791 177.888 336.161 197.142 347.911 L 192.802 351.437 C 175.71 339.633 160.753 315.094 151.263 283.68 Z " fill="rgb(0,0,0)"/><path d=" M 221.558 321.58 L 215.577 328.175 C 235.639 315.464 256.34 308.393 277.671 306.953 C 276.33 289.981 271.169 274.698 262.181 261.096 C 248.969 269.615 239.636 285.801 237.611 301.716 C 242.445 284.024 251.681 269.377 261.875 265.697 C 268.963 275.829 273.394 288.97 275.16 305.113 C 256.925 305.99 239.061 311.482 221.558 321.58 Z " fill="rgb(0,0,0)"/><path d=" M 240.373 290.982 L 239.193 295.91 C 236.578 296.725 234.244 300.985 232.183 308.682 C 232.979 298.774 235.712 292.877 240.373 290.982 Z " fill="rgb(0,0,0)"/><path d=" M 234.059 300.4 L 189.051 311.556 L 230.321 303.692 Q 219.884 307.726 201.982 315.075 Q 221.731 308.661 232.924 305.165 L 234.059 300.4 Z " fill="rgb(0,0,0)"/><path d=" M 144.226 226.284 C 157.932 221.228 177.079 217.892 199.488 216.27 L 200.772 219.352 C 179.679 219.805 160.88 222.632 146.537 227.825 L 144.226 226.284 Z " fill="rgb(0,0,0)"/><path d=" M 203.374 243.658 C 200.545 257.787 200.843 267.729 204.254 273.499 L 207.784 277.386 C 204.364 270.07 204.292 254.356 207.265 236.202 L 203.374 243.658 L 203.374 243.658 Z " fill="rgb(0,0,0)"/><path d=" M 192.271 256.491 C 205.48 275.575 218.817 289.503 233.352 302.057 L 227.189 303.597 C 213.801 289.095 202.529 274.664 192.271 256.491 Z " fill="rgb(0,0,0)"/><path d=" M 139.846 259.293 C 155.252 259.635 173.044 255.087 190.501 246.183 L 193.325 218.196 L 198.461 218.453 C 195.579 225.566 193.271 236.268 191.528 250.548 C 169.419 258.638 153.476 262.552 144.768 263.358 C 143.497 282.775 153.864 314.314 159.7 346.907 L 193.555 349.058 C 204.304 337.555 214.377 324.571 241.13 306.779 C 246.295 289.153 253.348 273.935 261.738 263.83 L 263.39 266.695 C 253.768 277.739 247.42 291.875 244.34 309.096 C 224.305 320.362 208.044 338.443 197.394 354.655 L 157.635 351.671 C 150.233 314.777 142.344 283.315 139.846 259.293 Z " fill="rgb(0,0,0)"/><path d=" M 245.789 246.183 L 230.321 266.695 L 223.416 285.031 L 240.373 278.281 L 250.227 253.031 L 245.789 246.183 Z " fill="rgb(0,0,0)" fill-opacity="0.64"/><path d=" M 218.609 288.914 C 201.783 280.758 184.75 273.846 167.501 268.167 C 161 282.278 158.978 296.112 161.429 309.66 L 148.815 303.859 L 151.092 314.485 L 167.294 320.569 C 161.738 304.527 160.432 285.527 168.007 270.697 C 183.604 274.239 202.076 282.169 223.416 294.48 L 218.609 288.914 Z " fill="rgb(0,0,0)"/><path d=" M 171.669 284.339 C 170.251 281.172 170.108 278.149 171.349 277.594 C 172.59 277.039 174.748 279.16 176.165 282.328 C 177.582 285.496 177.725 288.518 176.485 289.074 C 175.244 289.629 173.086 287.507 171.669 284.339 Z " fill="rgb(0,0,0)"/></g><g><ellipse vector-effect="non-scaling-stroke" cx="68.41628083072752" cy="351.9718326837419" rx="32.22416271022993" ry="4.213993674127721" fill="rgb(0,0,0)"/><path d=" M 94.457 241.93 L 99.49 240.169 C 102.479 226.189 94.344 211.93 75.077 197.382 L 68.533 203.423 Q 68.568 211.376 74.573 219.53 C 71.172 219.015 68.828 224.224 72.56 232.618 C 72.663 239.878 70.316 244.328 65.513 245.957 C 80.606 302.877 80.945 332.264 66.52 334.11 L 66.52 335.62 L 56.704 339.899 C 58.801 345.562 60.062 350.598 60.479 355 C 79.353 356.691 95.299 355.773 108.299 352.231 L 107.041 335.872 C 103.672 335.36 99.954 335.281 97.185 332.675 Q 96.917 332.422 97.038 330.407 C 89.879 331.772 83.819 303.143 78.852 244.51 C 74.849 244.606 74.096 241.84 76.587 236.205 C 79.374 237.678 81.726 237.25 83.634 234.915 C 87.631 238.709 91.241 241.051 94.457 241.93 Z " fill="rgb(0,0,0)"/><ellipse vector-effect="non-scaling-stroke" cx="43.39210762387735" cy="272.42514884792297" rx="2.9942512852025587" ry="7.649071934569861" fill="rgb(0,0,0)"/><ellipse vector-effect="non-scaling-stroke" cx="58.463172426063565" cy="265.9780739316426" rx="2.2955926519886276" ry="6.993437197320986" fill="rgb(0,0,0)"/><path d=" M 44.191 271.66 C 51.797 281.267 71.039 275.922 60.16 268.601 L 59.461 265.213 C 67.849 265.867 70.247 269.112 66.647 274.938 L 74.632 277.015 L 75.431 281.604 C 72.996 279.688 68.84 278.052 62.955 276.687 C 59.461 280.839 48.452 280.114 44.889 274.829 L 44.191 271.66 Z " fill="rgb(0,0,0)"/><path d=" M 82.071 213.819 C 89.66 208.096 94.729 199.613 97.27 188.361 C 105.294 180.302 123.662 212.855 112.722 216.558 C 101.57 217.979 93.509 220.98 88.531 225.55 C 83.82 222.971 81.67 219.063 82.071 213.819 Z " fill="rgb(0,0,0)"/></g><g><g clip-path="url(#_clipPath_SSOYyrN7W3cLdumZkhHscbWxKb44n9st)"><text transform="matrix(1,0,0,1,166.492,100.476)" style="font-family:'Comic Neue';font-weight:400;font-size:20px;font-style:normal;fill:#000000;stroke:none;">Hey, I'm flying to BOSTON tomorrow!</text></g><defs><clipPath id="_clipPath_SSOYyrN7W3cLdumZkhHscbWxKb44n9st"><rect x="0" y="0" width="318" height="23" transform="matrix(1,0,0,1,166.492,82.476)"/></clipPath></defs><path d=" M 234.013 145.919 L 252.578 126.775 L 243.006 132.647 L 234.013 145.919 Z " fill="rgb(0,0,0)"/><g clip-path="url(#_clipPath_O1n6QcGifWc7lT5whZEfL4Oy4Bxog2bk)"><text transform="matrix(1,0,0,1,301.492,138.477)" style="font-family:'Comic Neue';font-weight:400;font-size:20px;font-style:normal;fill:#000000;stroke:none;">I land at... wait, </text><text transform="matrix(1,0,0,1,433.072,138.477)" style="font-family:'Comic Neue';font-weight:400;font-size:20px;font-style:italic;fill:#000000;stroke:none;">what?</text></g><defs><clipPath id="_clipPath_O1n6QcGifWc7lT5whZEfL4Oy4Bxog2bk"><rect x="0" y="0" width="183" height="23" transform="matrix(1,0,0,1,301.492,120.477)"/></clipPath></defs><g clip-path="url(#_clipPath_pLQ6hswfscG381EKelDRn08ERuKjb74j)"><text transform="matrix(1,0,0,1,339.972,176.478)" style="font-family:'Comic Neue';font-weight:400;font-size:20px;font-style:normal;fill:#000000;stroke:none;">No, I </text><text transform="matrix(1,0,0,1,388.172,176.478)" style="font-family:'Comic Neue';font-weight:400;font-size:20px;font-style:italic;fill:#000000;stroke:none;">heard </text><text transform="matrix(1,0,0,1,443.312,176.478)" style="font-family:'Comic Neue';font-weight:400;font-size:20px;font-style:normal;fill:#000000;stroke:none;">you. </text><text transform="matrix(1,0,0,1,381.252,199.478)" style="font-family:'Comic Neue';font-weight:400;font-size:20px;font-style:normal;fill:#000000;stroke:none;">I just don't...</text></g><defs><clipPath id="_clipPath_pLQ6hswfscG381EKelDRn08ERuKjb74j"><rect x="0" y="0" width="145" height="46" transform="matrix(1,0,0,1,339.492,158.478)"/></clipPath></defs></g><g><g clip-path="url(#_clipPath_vSEWYm3OPNSRuN6UuGpgZamDx8mtOsOV)"><text transform="matrix(1,0,0,1,46.309,404.948)" style="font-family:'Comic Neue';font-weight:400;font-size:20px;font-style:normal;fill:#000000;stroke:none;">COOL! What time do you </text><text transform="matrix(1,0,0,1,264.149,404.948)" style="font-family:'Comic Neue';font-weight:400;font-size:20px;font-style:italic;fill:#000000;stroke:none;">one-if-by land?</text></g><defs><clipPath id="_clipPath_vSEWYm3OPNSRuN6UuGpgZamDx8mtOsOV"><rect x="0" y="0" width="350" height="23" transform="matrix(1,0,0,1,46.309,386.948)"/></clipPath></defs><path d=" M 295.945 431.099 L 310.145 449.947 L 288.635 427.223 L 295.945 431.099 Z " fill="rgb(0,0,0)"/><g clip-path="url(#_clipPath_x6Cf9EtMohyycZGOLr18ybnhEnYFlJZS)"><text transform="matrix(1,0,0,1,46.369,440.419)" style="font-family:'Comic Neue';font-weight:400;font-size:20px;font-style:normal;fill:#000000;stroke:none;">I said, what time do </text><text transform="matrix(1,0,0,1,46.369,463.419)" style="font-family:'Comic Neue';font-weight:400;font-size:20px;font-style:normal;fill:#000000;stroke:none;">you </text><text transform="matrix(1,0,0,1,82.489,463.419)" style="font-family:'Comic Neue';font-weight:700;font-size:20px;font-style:normal;fill:#000000;stroke:none;">one-if-by land</text><text transform="matrix(1,0,0,1,202.349,463.419)" style="font-family:'Comic Neue';font-weight:400;font-size:20px;font-style:normal;fill:#000000;stroke:none;">? </text></g><defs><clipPath id="_clipPath_x6Cf9EtMohyycZGOLr18ybnhEnYFlJZS"><rect x="0" y="0" width="204.739" height="46" transform="matrix(1,0,0,1,46.309,422.419)"/></clipPath></defs><g clip-path="url(#_clipPath_TrYz4JkgXYs0DdWWo3D9auQaBA1dp4Xd)"><text transform="matrix(1,0,0,1,46.309,495.89)" style="font-family:'Comic Neue';font-weight:400;font-size:20px;font-style:normal;fill:#000000;stroke:none;">I can't believe you're </text><text transform="matrix(1,0,0,1,46.309,518.89)" style="font-family:'Comic Neue';font-weight:400;font-size:20px;font-style:normal;fill:#000000;stroke:none;">coming to Boston!</text><text transform="matrix(1,0,0,1,46.309,548.29)" style="font-family:'Comic Neue';font-weight:400;font-size:22px;font-style:italic;fill:#000000;stroke:none;">Two-if-by see</text><text transform="matrix(1,0,0,1,46.309,568.53)" style="font-family:'Comic Neue';font-weight:400;font-size:22px;font-style:italic;fill:#000000;stroke:none;">y</text><text transform="matrix(1,0,0,1,56.121,568.53)" style="font-family:'Comic Neue';font-weight:400;font-size:22px;font-style:normal;fill:#000000;stroke:none;">ou soon!</text></g><defs><clipPath id="_clipPath_TrYz4JkgXYs0DdWWo3D9auQaBA1dp4Xd"><rect x="0" y="0" width="204.739" height="96.14" transform="matrix(1,0,0,1,46.309,477.89)"/></clipPath></defs></g><g><mask id="_mask_UzguDc5KID1InsFP3wROY6iEtGKLfkkP"><path d=" M 36 209.885 L 36 72 L 105.362 72" fill="white" stroke="none"/></mask><path d=" M 36 209.885 L 36 72 L 105.362 72" fill="none"/><path d=" M 36 209.885 L 36 72 L 105.362 72" fill="none" mask="url(#_mask_UzguDc5KID1InsFP3wROY6iEtGKLfkkP)" vector-effect="non-scaling-stroke" stroke-width="2" stroke="rgb(0,0,0)" stroke-linejoin="miter" stroke-linecap="square" stroke-miterlimit="3"/><mask id="_mask_JGG3MQEzeG7zG9FnH24hdV6OyppRActw"><path d=" M 504 510.115 L 504 648 L 434.638 648" fill="white" stroke="none"/></mask><path d=" M 504 510.115 L 504 648 L 434.638 648" fill="none"/><path d=" M 504 510.115 L 504 648 L 434.638 648" fill="none" mask="url(#_mask_JGG3MQEzeG7zG9FnH24hdV6OyppRActw)" vector-effect="non-scaling-stroke" stroke-width="2" stroke="rgb(0,0,0)" stroke-linejoin="miter" stroke-linecap="square" stroke-miterlimit="3"/><line x1="504" y1="36" x2="36" y2="36" vector-effect="non-scaling-stroke" stroke-width="1" stroke="rgb(0,0,0)" stroke-linejoin="miter" stroke-linecap="square" stroke-miterlimit="3"/><g><path d=" M 56.352 41.996 C 60.013 38.826 64.355 45.937 55.162 48.689 C 47.599 43.201 53.868 37.936 56.352 41.996 Z  M 56.125 43.391 C 58.968 40.415 61.984 45.474 55.384 47.392 C 49.918 43.193 54.481 39.838 56.125 43.391 Z " fill-rule="evenodd" fill="rgb(0,0,0)"/><path d=" M 60.024 42.705 L 66.809 41.587 L 67.84 55.578 L 64.013 55.824 L 60.024 42.705 Z " fill="rgb(0,0,0)"/><path d=" M 65.985 55.578 L 68.835 55.824 L 72.418 42.056 L 69.405 41.016 L 65.985 55.578 Z " fill="rgb(0,0,0)"/><path d=" M 97.167 48.149 L 97.646 50.26 L 99.319 49.734 L 99.006 55.675 L 103.075 56.074 L 102.199 48.149 L 97.167 48.149 Z " fill="rgb(0,0,0)"/><path d=" M 98.469 47.368 L 101.159 42.199 C 94.973 39.925 87.842 45.102 90.474 51.804 C 92.731 57.549 98.735 57.066 100.425 53.359 L 99.639 49.818 C 99.193 52.218 94.871 52.562 94.86 48.612 C 94.856 47.051 97.22 45.95 98.469 47.368 Z " fill="rgb(0,0,0)"/><path d=" M 159.183 48.551 L 159.662 50.662 L 162.327 49.873 L 161.858 56.293 L 166.066 55.701 L 165.19 48.367 L 159.183 48.551 Z " fill="rgb(0,0,0)"/><path d=" M 161.46 47.298 L 164.15 42.129 C 157.964 39.855 150.813 44.902 153.038 51.734 C 154.924 57.522 161.726 56.996 163.417 53.289 L 162.991 50.895 C 161.412 52.917 157.851 52.741 157.851 48.542 C 157.851 46.981 160.211 45.88 161.46 47.298 Z " fill="rgb(0,0,0)"/><path d=" M 78.887 42.705 L 84.198 41.587 L 90.716 54.82 L 86.069 55.906 L 78.887 42.705 Z " fill="rgb(0,0,0)"/><path d=" M 78.887 42.705 L 82.206 43.336 L 82.406 55.418 L 79.883 55.443 L 78.887 42.705 Z " fill="rgb(0,0,0)"/><path d=" M 86.324 41.587 L 90.284 42.056 L 90.716 54.82 L 87.21 53.181 L 86.324 41.587 Z " fill="rgb(0,0,0)"/><path d=" M 141.555 42.711 L 146.866 41.594 L 152.952 54.568 L 148.305 55.853 L 141.555 42.711 Z " fill="rgb(0,0,0)"/><path d=" M 141.555 42.711 L 144.875 43.334 L 145.124 55.461 L 142.185 55.701 L 141.555 42.711 Z " fill="rgb(0,0,0)"/><path d=" M 149.189 41.718 L 152.952 41.724 L 152.952 54.568 L 149.878 53.188 L 149.189 41.718 Z " fill="rgb(0,0,0)"/><path d=" M 42.228 42.133 L 49.714 41.587 L 49.8 52.964 L 53.798 52.509 L 53.798 55.33 L 43.255 55.33 L 42.228 42.133 Z " fill="rgb(0,0,0)"/><path d=" M 123.003 44.099 L 118.99 43.528 L 119.877 54.93 L 112.613 55.451 L 112.526 44.075 L 108.529 44.53 L 108.529 41.708 L 123.419 41.467 L 123.003 44.099 Z " fill="rgb(0,0,0)"/><path d=" M 78.887 41.594 L 71.791 42.601 L 73.008 55.385 L 77.667 55.701 L 78.887 41.594 Z " fill="rgb(0,0,0)"/><path d=" M 122.027 42.228 L 128.349 41.188 L 128.349 55.425 L 123.246 55.75 L 122.027 42.228 Z " fill="rgb(0,0,0)"/><path d=" M 126.991 46.857 L 132.094 46.426 L 132.094 50.549 L 126.991 51.496 L 126.991 46.857 Z " fill="rgb(0,0,0)"/><path d=" M 53.908 48.411 L 60.2 48.122 L 58.83 55.824 L 54.333 55.594 L 53.908 48.411 Z " fill="rgb(0,0,0)"/><path d=" M 135.075 47.697 L 140.843 47.289 L 140.223 55.853 L 135.573 55.783 L 135.075 47.697 Z " fill="rgb(0,0,0)"/><path d=" M 135.205 46.526 L 134.861 40.493 L 141.495 40.746 L 140.863 46.526 L 135.205 46.526 Z  M 136.293 45.397 L 136.08 41.651 L 140.24 41.811 L 139.847 45.397 L 136.293 45.397 Z " fill-rule="evenodd" fill="rgb(0,0,0)"/><path d=" M 129.955 41.188 L 134.309 41.188 L 134.309 55.259 L 131.044 55.425 L 129.955 41.188 Z " fill="rgb(0,0,0)"/><path d=" M 168.158 50.339 L 165.145 54.303 C 170.068 58.283 178.624 55.659 176.679 50.339 C 175.895 48.195 171.777 48.341 170.594 47.324 C 168.968 45.925 171.771 45.26 174.191 47.603 L 176.999 44.347 C 171.284 38.078 162.232 43.225 166.161 47.603 C 167.885 49.525 170.843 48.762 171.644 50.276 C 172.383 51.673 169.407 51.756 168.158 50.339 Z " fill="rgb(0,0,0)"/></g><g clip-path="url(#_clipPath_1s0dxGAsdIl6xNzzOpvhBwZmWjuag6gW)"><text transform="matrix(0,-0.576,0.576,0,498.134,644.649)" style="font-family:'Libre Caslon Text';font-weight:400;font-size:20px;font-style:normal;fill:#000000;stroke:none;">©MCMLXXXVIII Trilobyte</text></g><defs><clipPath id="_clipPath_1s0dxGAsdIl6xNzzOpvhBwZmWjuag6gW"><rect x="0" y="0" width="266" height="24.6" transform="matrix(0,-0.576,0.576,0,486.96,644.649)"/></clipPath></defs></g></g></svg>