<svg xmlns="http://www.w3.org/2000/svg" xmlns:xlink="http://www.w3.org/1999/xlink" style="isolation:isolate" viewBox="0 0 1008 396" width="1008pt" height="396pt">


<style type="text/css">
    
  @font-face {
    font-family: 'Comic Neue';
    src: url('neue.ttf') format('truetype');
  }



</style>
    
    

<defs>

<clipPath id="_clipPath_JZOvWIpDelUkZPgj5Ag4tgbzAwbzJobY">

<rect x="0" y="0" width="1008" height="396"/>

</clipPath>

</defs>

<g clip-path="url(#_clipPath_JZOvWIpDelUkZPgj5Ag4tgbzAwbzJobY)">

<rect x="0" y="0" width="1008" height="396" transform="matrix(1,0,0,1,0,0)" fill="#d9d1c1" x-fill="rgb(210,184,144)"/>

<path d=" M 267.723 285.476 C 267.285 287.007 266.942 288.562 266.67 290.13 C 266.14 293.08 265.88 296.07 265.87 299.06 C 265.85 303.03 266.38 306.98 267.43 310.8 C 268.44 314.51 270.06 318.03 272.21 321.21 C 274.44 324.48 277.25 327.33 280.49 329.6 C 282.26 330.84 284.13 331.91 286.09 332.82 C 288.24 333.82 290.47 334.64 292.75 335.27 C 296.01 336.21 299.37 336.7 302.76 336.73 C 305.05 336.75 307.33 336.45 309.54 335.84 C 311.33 335.36 313.01 334.56 314.52 333.48 C 315.75 332.6 316.77 331.46 317.49 330.13 C 318.17 328.84 318.52 327.4 318.52 325.94 C 318.51 324.88 318.36 323.82 318.06 322.8 C 317.71 321.56 317.21 320.36 316.58 319.23 C 315.81 317.84 314.91 316.53 313.89 315.31 C 312.66 313.82 311.31 312.42 309.87 311.14 C 308.14 309.59 306.32 308.15 304.42 306.82 C 302.17 305.25 299.84 303.79 297.44 302.45 C 294.64 300.89 291.77 299.44 288.85 298.12 C 285.47 296.59 282.04 295.19 278.57 293.91 L 276.22 293.04 L 277.95 288.35 L 280.29 289.22 C 283.88 290.54 287.43 291.99 290.91 293.57 C 293.96 294.95 296.95 296.45 299.88 298.09 C 302.42 299.5 304.89 301.05 307.28 302.72 C 309.35 304.16 311.33 305.73 313.2 307.41 C 314.83 308.86 316.35 310.43 317.74 312.11 C 318.95 313.57 320.02 315.14 320.95 316.8 C 321.76 318.26 322.41 319.81 322.87 321.42 C 323.29 322.88 323.51 324.39 323.52 325.92 C 323.53 328.21 322.97 330.47 321.9 332.5 C 320.81 334.5 319.28 336.23 317.43 337.55 C 315.44 338.97 313.22 340.02 310.86 340.66 C 308.21 341.39 305.47 341.75 302.72 341.73 C 298.89 341.7 295.08 341.14 291.39 340.08 C 288.85 339.38 286.37 338.47 283.98 337.36 C 281.76 336.33 279.63 335.1 277.62 333.69 C 273.88 331.07 270.65 327.8 268.07 324.02 C 265.62 320.38 263.77 316.36 262.6 312.13 C 261.44 307.86 260.85 303.47 260.87 299.05 C 260.88 295.77 261.17 292.49 261.74 289.26 C 262.32 286 263.16 282.78 264.25 279.66 C 264.389 279.26 264.532 278.862 264.679 278.465 L 267.723 285.476 L 267.723 285.476 Z " fill="rgb(0,0,0)"/>

<path d=" M 269.815 279.004 C 271.769 274.11 274.403 269.519 277.66 265.37 C 279.49 263.05 281.54 260.9 283.77 258.96 C 285.96 257.07 288.34 255.41 290.87 254.02 C 293.39 252.65 296.06 251.58 298.84 250.85 C 301.69 250.1 304.63 249.72 307.59 249.72 C 310.08 249.73 312.57 249.99 315.02 250.49 C 317.72 251.05 320.36 251.85 322.91 252.91 C 325.2 253.84 327.42 254.92 329.57 256.14 C 331.78 257.39 333.92 258.76 335.98 260.23 C 338.12 261.76 340.18 263.37 342.18 265.07 C 344.24 266.82 346.25 268.65 348.19 270.53 C 352.24 274.49 356.13 278.61 359.84 282.88 C 363.7 287.32 367.5 291.8 371.24 296.33 C 373.75 299.35 376.27 302.35 378.81 305.35 C 381.34 308.32 383.91 311.24 386.53 314.13 C 389.11 316.96 391.77 319.71 394.51 322.39 C 397.18 325 399.97 327.48 402.86 329.84 C 405.68 332.14 408.64 334.26 411.73 336.2 C 414.75 338.1 417.93 339.75 421.21 341.15 C 424.51 342.54 427.94 343.61 431.44 344.35 C 435.06 345.11 438.75 345.49 442.46 345.49 C 446.55 345.48 450.63 345.04 454.64 344.19 C 458.75 343.31 462.78 342.09 466.69 340.53 C 469.35 341.74 472.04 342.89 474.75 343.99 C 482.54 347.14 490.51 349.81 498.63 351.96 C 506.17 353.95 513.82 355.46 521.55 356.46 C 528.83 357.4 536.16 357.87 543.5 357.87 C 550.54 357.87 557.57 357.44 564.55 356.58 C 571.3 355.76 578 354.56 584.63 353 C 591.08 351.48 597.46 349.65 603.74 347.52 C 609.88 345.44 615.94 343.12 621.9 340.56 C 627.73 338.06 633.48 335.38 639.14 332.53 C 644.65 329.75 650.09 326.84 655.46 323.82 C 660.65 320.9 665.79 317.9 670.89 314.84 C 675.76 311.91 680.61 308.96 685.44 305.99 C 690.13 303.1 694.84 300.24 699.56 297.41 C 703.91 294.8 708.31 292.27 712.76 289.84 C 716.77 287.64 720.86 285.6 725.03 283.72 C 728.71 282.05 732.48 280.63 736.35 279.47 L 738.74 278.75 L 737.3 273.96 L 734.9 274.68 C 730.83 275.91 726.85 277.4 722.97 279.16 C 718.69 281.09 714.48 283.19 710.36 285.46 C 705.85 287.92 701.39 290.48 696.99 293.12 C 692.25 295.96 687.53 298.83 682.82 301.73 C 678 304.7 673.17 307.64 668.32 310.55 C 663.26 313.59 658.15 316.56 653.01 319.46 C 647.7 322.45 642.33 325.32 636.89 328.06 C 631.32 330.87 625.66 333.51 619.93 335.97 C 614.09 338.47 608.15 340.75 602.14 342.79 C 596 344.86 589.78 346.65 583.48 348.13 C 577.03 349.65 570.51 350.82 563.94 351.62 C 557.16 352.45 550.33 352.87 543.5 352.87 C 536.38 352.87 529.26 352.41 522.19 351.5 C 514.68 350.53 507.24 349.07 499.91 347.13 C 492 345.03 484.22 342.43 476.63 339.35 C 475.17 338.76 473.72 338.15 472.27 337.53 C 472.53 337.34 472.78 337.14 473.03 336.93 C 474.51 335.66 475.78 334.16 476.77 332.48 C 477.75 330.81 478.47 329.01 478.91 327.14 C 479.37 325.2 479.6 323.22 479.58 321.23 C 479.57 318.78 479.29 316.33 478.75 313.94 C 478.17 311.37 477.38 308.86 476.37 306.44 C 475.31 303.86 474.05 301.36 472.62 298.97 C 471.13 296.47 469.46 294.07 467.63 291.81 C 463.85 287.08 459.4 282.94 454.41 279.51 C 451.87 277.77 449.19 276.25 446.39 274.97 C 443.57 273.68 440.64 272.67 437.62 271.94 C 435.48 271.41 433.29 271.12 431.08 271.1 C 428.93 271.06 426.8 271.44 424.79 272.2 C 422.97 272.91 421.34 274.03 420.03 275.48 C 418.78 276.92 417.83 278.6 417.27 280.43 C 416.68 282.34 416.4 284.33 416.42 286.33 C 416.43 288.2 416.63 290.06 417 291.89 C 417.41 293.9 417.97 295.88 418.69 297.8 C 419.46 299.9 420.37 301.94 421.42 303.91 C 422.54 306.05 423.8 308.11 425.17 310.09 C 428.2 314.45 431.71 318.44 435.64 321.99 C 439.98 325.93 444.78 329.34 449.92 332.16 C 453.32 334.03 456.77 335.82 460.26 337.52 C 458.07 338.22 455.85 338.82 453.59 339.3 C 449.93 340.08 446.19 340.48 442.45 340.49 C 439.09 340.49 435.75 340.15 432.47 339.46 C 429.28 338.79 426.16 337.81 423.16 336.54 C 420.12 335.25 417.18 333.72 414.38 331.96 C 411.48 330.14 408.68 328.14 406.02 325.97 C 403.24 323.7 400.57 321.31 398 318.81 C 395.33 316.21 392.74 313.52 390.23 310.76 C 387.65 307.92 385.11 305.04 382.63 302.11 C 380.1 299.13 377.59 296.14 375.09 293.14 C 371.32 288.58 367.5 284.07 363.61 279.6 C 359.81 275.22 355.83 271 351.68 266.95 C 349.66 264.98 347.57 263.09 345.42 261.26 C 343.32 259.47 341.14 257.77 338.89 256.16 C 336.68 254.59 334.4 253.13 332.04 251.79 C 329.71 250.47 327.29 249.3 324.81 248.28 C 321.98 247.11 319.03 246.21 316.03 245.59 C 313.25 245.02 310.43 244.73 307.59 244.72 C 304.21 244.72 300.84 245.16 297.56 246.02 C 294.4 246.85 291.35 248.07 288.48 249.64 C 285.63 251.2 282.95 253.06 280.5 255.19 C 278.02 257.33 275.76 259.71 273.73 262.28 C 271.223 265.477 269.053 268.914 267.241 272.535 L 269.815 279.004 L 269.815 279.004 Z  M 466.76 335.07 C 467.85 334.55 468.87 333.89 469.8 333.11 C 470.85 332.21 471.75 331.14 472.46 329.95 C 473.18 328.71 473.72 327.37 474.05 325.98 C 474.41 324.44 474.59 322.85 474.58 321.27 C 474.57 319.17 474.33 317.08 473.87 315.04 C 473.36 312.75 472.65 310.51 471.75 308.34 C 470.78 305.99 469.64 303.72 468.33 301.54 C 466.95 299.23 465.42 297.03 463.73 294.94 C 460.26 290.59 456.16 286.78 451.58 283.63 C 449.28 282.06 446.85 280.68 444.31 279.52 C 441.78 278.36 439.14 277.45 436.43 276.8 C 434.66 276.35 432.84 276.12 431.01 276.1 C 429.5 276.07 428 276.33 426.58 276.86 C 425.51 277.29 424.55 277.95 423.77 278.81 C 422.99 279.7 422.4 280.76 422.05 281.9 C 421.61 283.32 421.4 284.8 421.42 286.29 C 421.43 287.83 421.59 289.38 421.9 290.9 C 422.26 292.65 422.75 294.38 423.37 296.06 C 424.07 297.95 424.9 299.8 425.84 301.58 C 426.87 303.53 428.02 305.42 429.28 307.24 C 432.09 311.28 435.35 314.99 439 318.28 C 443.05 321.96 447.52 325.15 452.32 327.78 C 457.05 330.38 461.87 332.81 466.76 335.07 Z " fill-rule="evenodd" fill="rgb(0,0,0)"/>

<g>

<path d=" M 913.663 106.801 C 917.563 145.323 915.346 154.394 911.734 191.33 L 929.394 182.192 L 926.633 85.826 L 913.663 106.801 L 913.663 106.801 Z  M 955.3 89.427 L 955.633 89.508 L 956.44 191.34 L 941.724 201.366 L 905.572 201.669 C 912.097 170.17 913.804 147.337 911.006 109.236 L 909.552 109.407 L 909.419 107.015 L 907.958 106.085 L 907.958 104.49 L 905.965 103.427 L 924.435 72.739 L 957.273 79.907 L 957.14 82.166 L 956.343 82.83 L 956.343 84.558 L 955.413 85.488 L 955.3 89.427 L 955.3 89.427 Z  M 931.288 86.915 L 951.479 90.501 L 953.419 184.75 L 933.581 182.142 C 930.275 148.218 929.399 125.581 931.288 86.915 Z " fill-rule="evenodd" fill="rgb(0,0,0)"/>

<g>

<path d=" M 919.757 170.663 C 920.182 167.676 921.526 165.379 922.755 165.536 C 923.984 165.693 924.637 168.245 924.211 171.231 C 923.786 174.217 922.442 176.514 921.213 176.358 C 919.984 176.201 919.331 173.649 919.757 170.663 Z " fill-rule="evenodd" fill="rgb(0,0,0)"/>

<path d=" M 901.472 160.409 C 901.223 155.634 899.959 152.283 898.001 152.034 C 895.079 151.661 891.713 158.335 890.488 166.929 C 889.263 175.522 890.641 182.801 893.562 183.174 C 895.562 183.429 897.771 180.383 899.362 175.688 C 907.303 173.353 914.601 173.049 921.053 174.73 L 921.438 171.107 L 921.823 167.483 C 916.818 166.799 909.968 164.437 901.472 160.409 Z  M 897.106 162.571 C 899.203 170.145 895.096 182.142 892.868 177.233 C 894.124 179.118 897.286 169.114 897.106 162.571 Z " fill-rule="evenodd" fill="rgb(0,0,0)"/>

</g>

<path d=" M 917.069 112.725 C 919.992 123.135 920.14 134.299 917.511 146.215 C 898.834 151.921 898.977 107.168 917.069 112.725 Z " fill="rgb(0,0,0)"/>

<path d=" M 915.863 116.302 C 917.991 124.614 918.099 133.527 916.185 143.041 C 902.582 147.597 902.686 111.866 915.863 116.302 Z " fill="rgb(0,0,0)"/>

<path d=" M 922.311 106.402 C 925.403 118.002 926.047 127.545 923.266 140.822 C 905.293 155.89 903.17 100.21 922.311 106.402 Z " fill="rgb(0,0,0)"/>

<path d=" M 951.609 152.897 C 951.376 152.945 951.154 152.974 950.944 152.985 C 949.547 152.709 953.918 125.648 949.168 124.73 Q 945.139 123.952 938.495 136.706 C 936.604 141.545 939.567 142.485 942.02 142.208 Q 944.961 132.191 946.643 133.023 C 948.325 133.856 944.753 157.167 949.588 158.353 Q 950.792 158.649 952.359 158.619 C 953.278 160.216 954.893 161.241 957.273 160.988 C 958.958 160.235 960.493 159.831 961.873 159.774 C 969.252 160.089 970.399 145.531 961.725 145.479 C 959.776 146.31 958.179 146.807 956.927 146.967 C 954.003 147.324 952.164 149.984 951.609 152.897 Z " fill-rule="evenodd" fill="rgb(0,0,0)"/>

<path d=" M 919.773 111.073 C 921.799 120.334 922.221 127.953 920.399 138.554 C 908.622 150.584 907.231 106.13 919.773 111.073 Z " fill="rgb(0,0,0)"/>

<path d=" M 926.867 80.292 L 912.58 103.533 C 914.878 130.961 913.621 162.238 908.777 197.333 L 931.582 184.145 L 926.867 80.292 Z " fill="rgb(0,0,0)" fill-opacity="0.27"/>

<path d=" M 927.977 81.401 L 931.258 189.27 L 954.294 187.267 L 954.294 86.774 L 927.977 81.401 Z " fill="rgb(0,0,0)" fill-opacity="0.64"/>

<path d=" M 896.359 159.844 L 901.359 165.469 L 895.859 179.594 L 891.859 179.844 L 892.109 174.344 L 896.359 159.844 Z " fill="rgb(0,0,0)" fill-opacity="0.64"/>

</g>

<g>

<path d=" M 763.434 244.905 L 759.404 249.253 L 765.852 268.737 L 775.737 277.546 L 779.031 273.718 L 763.434 244.905 Z " fill="rgb(0,0,0)" fill-opacity="0.64"/>

<path d=" M 809.235 335.713 C 781.042 336.073 760.142 337.371 760.142 338.916 C 760.142 340.738 789.245 342.218 825.092 342.218 C 860.938 342.218 890.041 340.738 890.041 338.916 C 890.041 338.342 887.159 337.803 882.091 337.333 L 882.756 338.652 L 811.572 336.98 L 809.235 335.713 Z " fill-rule="evenodd" fill="rgb(0,0,0)"/>

<path d=" M 851.322 203.648 L 854.148 203.798 L 848.694 195.387 L 856.944 197.333 L 857.366 190.577 C 839.444 187.293 824.301 189.086 811.905 195.925 L 812.046 202.822 L 799.379 205.355 L 788.225 217.881 L 807.789 223.37 L 811.589 248.282 L 851.322 203.648 Z " fill="rgb(0,0,0)" fill-opacity="0.27"/>

<path d=" M 818.734 249.253 L 811.957 258.049 L 806.622 292.657 L 811.524 295.396 L 819.023 262.231 L 818.734 249.253 Z " fill="rgb(0,0,0)" fill-opacity="0.27"/>

<path d=" M 849.388 195.867 L 861.819 198.586 L 879.105 199.557 C 887.428 206.806 891.906 212.513 892.506 216.649 L 853.661 203.247 L 849.388 195.867 Z " fill="rgb(0,0,0)" fill-opacity="0.64"/>

<path d=" M 862.54 270.132 L 857.821 313.787 L 850.21 312.168 L 865.823 260.698 L 870.015 246.836 C 858.153 270.592 848.119 294.719 839.885 319.189 L 841.028 320.171 L 838.949 330.528 L 839.567 337.438 L 882.498 338.252 L 880.476 333.871 L 876.713 333.478 L 874.971 325.276 L 871.657 325.445 L 863.792 265.385 L 862.54 270.132 Z " fill="rgb(0,0,0)" fill-opacity="0.64"/>

<path d=" M 746.177 279.05 C 745.659 279.209 745.135 279.374 744.605 279.542 L 744.605 279.542 C 745.1 282.74 744.65 285.205 743.227 285.916 C 740.911 287.074 736.888 283.149 734.249 277.158 C 731.61 271.167 731.347 265.363 733.663 264.205 C 735.278 263.398 737.721 265.06 739.947 268.168 C 744.127 266.101 747.754 263.726 750.832 261.045 L 746.177 279.05 Z  M 759.346 275.657 C 762.245 275.103 764.763 274.803 766.906 274.753 C 770.74 279.541 774.745 281.938 777.486 280.569 C 781.861 278.382 781.365 267.419 776.38 256.102 C 771.395 244.785 763.796 237.373 759.421 239.559 C 756.387 241.075 755.696 246.814 757.212 253.958 C 756.558 254.905 755.855 255.824 755.098 256.714 C 758.55 262.936 759.965 269.248 759.346 275.657 Z  M 762.473 247.544 C 761.955 254.786 768.615 270.974 775.737 274.475 C 774.042 275.125 762.566 251.939 762.473 247.544 L 762.473 247.544 Z " fill-rule="evenodd" fill="rgb(0,0,0)"/>

<path d=" M 856.592 313.109 L 855.305 298.172 C 853.258 303.966 851.827 306.811 851.381 312.224 L 856.592 313.109 L 856.592 313.109 L 856.592 313.109 L 856.592 313.109 L 856.592 313.109 L 856.592 313.109 L 856.592 313.109 L 856.592 313.109 L 856.592 313.109 L 856.592 313.109 L 856.592 313.109 L 856.592 313.109 L 856.592 313.109 L 856.592 313.109 Z  M 863.136 232.657 L 867.544 229.816 L 863.136 237.87 L 863.136 232.657 L 863.136 232.657 L 863.136 232.657 L 863.136 232.657 L 863.136 232.657 L 863.136 232.657 L 863.136 232.657 L 863.136 232.657 L 863.136 232.657 L 863.136 232.657 L 863.136 232.657 Z  M 832.813 233.103 L 848.987 237.019 L 848.646 262.046 L 841.496 276.347 C 835.137 275.909 826.219 275.648 820.693 281.331 C 821.716 287.282 825.322 294.237 825.583 303.073 C 821.521 301.33 818.271 299.48 815.827 297.516 L 820.869 267.692 L 822.176 247.094 L 832.813 233.103 L 832.813 233.103 L 832.813 233.103 L 832.813 233.103 L 832.813 233.103 L 832.813 233.103 L 832.813 233.103 L 832.813 233.103 L 832.813 233.103 L 832.813 233.103 L 832.813 233.103 L 832.813 233.103 Z  M 811.558 259.624 C 806.15 271.884 802.482 280.983 800.525 286.892 L 806.139 291.252 L 811.558 259.624 L 811.558 259.624 L 811.558 259.624 L 811.558 259.624 L 811.558 259.624 L 811.558 259.624 L 811.558 259.624 L 811.558 259.624 L 811.558 259.624 L 811.558 259.624 L 811.558 259.624 Z  M 868.203 252.313 Q 853.703 280.781 841.105 319.106 C 849.244 321.126 860.748 323.471 870.689 323.867 Q 864.905 297.431 863.543 268.737 Q 860.764 300.498 861.928 315.163 C 857.297 314.687 852.968 313.619 848.937 311.953 Q 857.953 278.281 868.203 252.313 L 868.203 252.313 L 868.203 252.313 L 868.203 252.313 L 868.203 252.313 L 868.203 252.313 L 868.203 252.313 L 868.203 252.313 L 868.203 252.313 Z  M 839.707 331.721 L 840.124 336.622 L 880.696 337.758 L 879.156 334.24 C 865.633 334.761 852.891 333.528 839.707 331.721 L 839.707 331.721 L 839.707 331.721 L 839.707 331.721 L 839.707 331.721 L 839.707 331.721 L 839.707 331.721 L 839.707 331.721 Z  M 841.592 320.903 L 839.409 329.634 C 852.337 333.082 863.835 334.154 875.898 332.843 L 874.357 326.681 C 863.919 325.787 853.666 323.863 841.592 320.903 L 841.592 320.903 L 841.592 320.903 L 841.592 320.903 L 841.592 320.903 L 841.592 320.903 L 841.592 320.903 Z  M 800.68 206.37 C 797.378 209.049 794.148 212.462 790.983 216.605 L 852.051 201.74 C 851.498 199.843 850.423 197.96 848.818 196.083 L 800.68 206.37 L 800.68 206.37 L 800.68 206.37 L 800.68 206.37 L 800.68 206.37 L 800.68 206.37 Z  M 862.033 199.702 L 850.031 196.488 Q 853.283 198.891 854.527 201.995 L 891.307 215.155 C 888.531 209.071 883.026 204.681 878.327 200.406 L 862.033 199.702 L 862.033 199.702 L 862.033 199.702 L 862.033 199.702 L 862.033 199.702 Z  M 815.376 241.979 C 814.139 243.486 812.963 244.944 811.849 246.351 L 808.104 221.456 C 816.641 217.927 829.844 213.534 846.542 207.89 C 837.871 217.1 825.742 230.536 819.377 237.87 C 823.192 232.636 829.815 222.263 831.215 217.459 L 813.202 225.858 Q 814.916 235.378 815.376 241.979 L 815.376 241.979 L 815.376 241.979 L 815.376 241.979 Z  M 816.644 263.502 L 816.748 252.313 L 813.302 257.147 L 807.764 292.309 L 809.751 293.871 L 816.644 263.502 L 816.644 263.502 L 816.644 263.502 Z  M 813.256 196.284 L 813.732 201.546 L 848.063 194.332 L 855.516 196.689 L 855.897 191.932 C 839.511 188.33 825.301 189.784 813.256 196.284 L 813.256 196.284 Z  M 848.593 215.713 L 874.835 221.878 C 855.111 250.514 840.318 279.195 830.452 307.915 C 815.705 300.496 803.79 292.455 794.699 283.786 C 809.513 257.786 827.482 235.099 848.593 215.713 L 848.593 215.713 L 848.593 215.713 L 848.593 215.713 L 848.593 215.713 L 848.593 215.713 L 848.593 215.713 L 848.593 215.713 L 848.593 215.713 L 848.593 215.713 L 848.593 215.713 Z  M 851.04 206.035 L 883.096 217.638 Q 856.749 268.442 838.757 318.968 L 834.692 318.306 L 840.124 320.239 L 838.13 329.486 C 814.431 322.21 794.227 311.077 777.488 296.058 L 782.627 296.052 L 793.123 304.831 L 781.175 293.477 L 781.835 294.996 L 779.987 294.731 L 780.119 291.431 L 793.915 300.408 L 784.079 292.289 L 784.674 286.744 L 788.489 286.323 L 787.702 287.995 L 786.719 287.159 Q 791.881 293.31 799.876 298.36 Q 794.385 295.551 785.745 288.311 C 794.833 298.201 809.763 307.792 830.527 317.079 C 808.796 305.326 794.983 295.666 789.082 288.096 C 804.739 257.824 825.393 230.472 851.04 206.035 L 851.04 206.035 L 851.04 206.035 L 851.04 206.035 L 851.04 206.035 L 851.04 206.035 L 851.04 206.035 L 851.04 206.035 L 851.04 206.035 L 851.04 206.035 L 851.04 206.035 Z  M 799.232 204.383 C 795.262 207.794 791.168 212.127 786.158 218.95 L 807.582 224.854 L 810.007 249.365 C 802.725 260.625 795.634 272.569 788.728 285.189 L 782.263 285.189 L 782.533 290.846 L 779.031 290.038 L 778.762 293.809 C 772.018 293.963 764.927 291.541 757.483 286.536 C 762.093 279.094 760.569 266.795 752.904 249.635 L 731.625 290.846 C 767.674 303.527 790.38 322.72 801.57 337.601 L 884.327 339.218 L 881.957 333.336 L 877.917 332.606 L 875.762 324.178 L 872.261 323.448 C 867.33 297.218 865.823 283.229 865.217 266.586 C 867.463 258.196 873.251 239.654 883.035 222.363 L 894.886 216.706 C 891.901 210.782 886.9 204.762 879.875 198.64 L 861.999 197.738 L 859.033 197.125 L 859.062 189.906 C 843.471 184.746 821.364 188.821 810.579 195.562 L 810.579 202.027 L 799.232 204.383 L 799.232 204.383 L 799.232 204.383 L 799.232 204.383 L 799.232 204.383 L 799.232 204.383 L 799.232 204.383 L 799.232 204.383 L 799.232 204.383 L 799.232 204.383 L 799.232 204.383 L 799.232 204.383 L 799.232 204.383 L 799.232 204.383 Z  M 774.489 295.997 C 797.314 314.494 820.215 325.932 838.601 331.088 L 838.443 336.622 C 808.428 324.968 775.98 306.336 747.159 281.762 L 753.065 256.47 C 759.126 268.805 759.978 278.645 755.617 285.983 C 760.436 291.022 767.339 294.373 774.489 295.997 Z " fill-rule="evenodd" fill="rgb(0,0,0)"/>

<path d=" M 791.141 217.801 L 807.029 223.164 L 806.624 220.027 L 850.589 204.437 L 886.492 217.716 L 884.457 219.976 L 891.642 217.143 L 851.771 202.938 L 791.141 217.801 Z " fill="rgb(0,0,0)"/>

<linearGradient id="_lgradient_0" x1="0.14779573543731317" y1="0.7122899434143616" x2="0.649525941379088" y2="0.23866000239806878" gradientTransform="matrix(105.608,0,0,123.451,777.488,206.035)" gradientUnits="userSpaceOnUse">

<stop offset="0%" stop-opacity="0.3" style="stop-color:rgb(0,0,0)"/>

<stop offset="100%" stop-opacity="0.61" style="stop-color:rgb(0,0,0)"/>

</linearGradient>

<path d=" M 851.04 206.035 L 883.096 217.638 Q 856.749 268.442 838.757 318.968 L 834.692 318.306 L 840.124 320.239 L 838.13 329.486 C 814.431 322.21 794.227 311.077 777.488 296.058 L 782.627 296.052 L 793.123 304.831 L 781.175 293.477 L 781.835 294.996 L 779.987 294.731 L 780.119 291.431 L 793.915 300.408 L 784.079 292.289 L 784.674 286.744 L 788.489 286.323 L 787.702 287.995 L 786.719 287.159 Q 791.881 293.31 799.876 298.36 Q 794.385 295.551 785.745 288.311 C 794.833 298.201 809.763 307.792 830.527 317.079 C 808.796 305.326 794.983 295.666 789.082 288.096 C 804.739 257.824 825.393 230.472 851.04 206.035 Z  M 848.593 215.713 L 874.835 221.878 C 855.111 250.514 840.318 279.195 830.452 307.915 C 815.705 300.496 803.79 292.455 794.699 283.786 C 809.513 257.786 827.482 235.099 848.593 215.713 Z " fill-rule="evenodd" fill="url(#_lgradient_0)"/>

<linearGradient id="_lgradient_1" x1="0.43321720221690463" y1="0.5642618718856265" x2="0.14300479941008337" y2="0.3685118361399192" gradientTransform="matrix(94.513,0,0,85.42,744.411,252.562)" gradientUnits="userSpaceOnUse">

<stop offset="0%" stop-opacity="0.3" style="stop-color:rgb(0,0,0)"/>

<stop offset="100%" stop-opacity="0.61" style="stop-color:rgb(0,0,0)"/>

</linearGradient>

<path d=" M 752.829 252.562 L 744.411 285.299 C 779.582 312.082 810.8 329.244 838.924 337.982 L 838.901 330.644 C 810.738 320.849 789.715 309.017 775.804 295.12 C 769.985 294.575 763.648 291.571 756.765 286.078 C 761.3 279.452 759.998 268.289 752.829 252.562 Z " fill="url(#_lgradient_1)"/>

<linearGradient id="_lgradient_2" x1="0.14779573543731317" y1="0.7122899434143616" x2="0.649525941379088" y2="0.23866000239806878" gradientTransform="matrix(32.888,0,0,40.272,817.862,148.939)" gradientUnits="userSpaceOnUse">

<stop offset="0%" stop-opacity="0.3" style="stop-color:rgb(0,0,0)"/>

<stop offset="100%" stop-opacity="0.61" style="stop-color:rgb(0,0,0)"/>

</linearGradient>

<path d=" M 849.21 154.431 L 831.363 148.939 L 817.862 159.465 C 819.268 176.367 823.472 186.293 830.447 189.211 L 846.007 184.177 C 850.965 175.928 852.043 166.023 849.21 154.431 Z  M 843.562 159.861 L 831.022 160.136 L 831.16 170.471 C 838.417 176.029 842.553 172.494 843.562 159.861 Z " fill-rule="evenodd" fill="url(#_lgradient_2)"/>

<path d=" M 816.704 158.453 C 821.939 154.628 826.744 150.643 831.112 146.494 C 832.005 148.62 838.491 151.071 850.563 153.842 C 853.367 168.141 851.928 178.661 846.241 185.396 C 841.404 186.045 836.507 187.584 831.545 190.007 C 824.685 190.046 819.74 179.53 816.704 158.453 L 816.704 158.453 Z  M 830.665 149.7 L 819.281 158.975 C 819.422 176.261 824.338 186.715 832.21 187.785 C 836.02 185.309 840.378 183.859 845.28 183.428 C 849.823 176.471 850.996 167.198 848.793 155.602 C 838.283 153.067 832.242 151.101 830.665 149.7 L 830.665 149.7 Z " fill-rule="evenodd" fill="rgb(0,0,0)"/>

<path d=" M 830.524 152.37 L 829.962 153.635 C 829.998 178.069 833.7 188.33 841.064 184.412 C 834.078 185.729 830.801 177.814 831.227 160.662 L 842.61 160.1 C 842 170.404 838.126 174.771 832.83 170.833 C 834.917 177.294 844.015 175.277 844.156 160.1 L 848.231 159.537 L 847.107 159.116 L 831.508 159.256 L 830.524 152.37 Z " fill="rgb(0,0,0)"/>

</g>

<g>

<g opacity="0.43">

<path d=" M 155.749 334.296 L 181.968 339.126 C 194.376 326.588 208.085 315.728 216.91 309.876 Q 217.461 307.379 221.648 304.504 L 232.815 301.944 L 239.916 292.898 C 244.794 277.148 251.768 268 260.807 265.423 C 253.762 276.83 247.753 290.97 242.751 307.811 C 227.181 316.979 210.748 331.637 193.42 351.756 L 158.911 348.92 L 155.749 334.296 Z " fill="rgb(118,0,0)"/>

</g>

<path d=" M 158.892 348.406 L 140.243 353.202 L 184.468 356.932 L 242.013 351 L 158.892 348.406 Z " fill="rgb(0,0,0)"/>

<path d=" M 156.295 333.67 L 156.595 334.771 L 182.818 339.976 C 192.74 328.715 206.419 317.498 217.641 309.625 C 218.058 307.636 219.768 305.832 222.742 304.181 L 221.421 304.486 C 218.033 306.201 216.141 308.167 215.716 310.354 C 206.628 315.921 193.358 326.176 181.417 338.675 L 156.295 333.67 Z " fill="rgb(0,0,0)"/>

<path d=" M 273.466 305.505 C 273.32 299.476 271.112 285.666 261.936 264.051 C 252.931 277.148 246.521 291.58 242.698 307.337 L 225.749 320.621 C 239.396 313.36 253.677 308.324 273.466 305.505 Z " fill="rgb(0,0,0)"/>

<g opacity="0.43">

<path d=" M 150.37 311.148 L 163.365 313.536 C 159.791 296.707 161.386 282.233 168.143 270.103 C 175.253 272.074 182.502 274.512 189.792 277.27 C 198.825 280.689 207.922 284.6 216.895 288.724 L 204.192 273.144 L 204.192 241.872 L 218.09 218.419 L 213.312 211.036 L 222.433 190.188 L 208.427 160.863 C 190.5 162.714 170.197 168.734 149.901 177.593 L 139.478 228.843 L 167.274 241.004 L 160.374 259 L 142.016 261.997 Q 146.246 291.926 150.37 311.148 Z " fill="rgb(118,0,0)"/>

</g>

<path d=" M 242.814 285.267 C 240.532 284.547 238.222 283.864 235.909 283.223 C 230.389 288.845 225.073 291.578 222.127 289.729 C 217.633 286.908 220.344 274.485 228.178 262.004 L 228.178 262.004 C 236.011 249.523 246.02 241.681 250.514 244.502 C 253.608 246.443 253.288 252.935 250.227 260.866 C 252.079 263.384 253.973 265.697 255.913 267.777 C 250.467 272.629 246.102 278.46 242.814 285.267 L 242.814 285.267 Z  M 276.178 299.398 C 277.858 298.082 279.526 296.226 280.938 293.977 C 284.533 288.249 285.113 282.13 282.231 280.322 C 280.572 279.28 278.124 279.894 275.66 281.701 C 273.795 281.023 271.96 280.198 270.154 279.223 Q 275.132 291.026 276.178 299.398 L 276.178 299.398 Z  M 245.789 250.548 C 243.376 265.626 236.706 276.527 225.749 283.223 C 235.217 275.275 241.917 264.403 245.789 250.548 Z " fill-rule="evenodd" fill="rgb(0,0,0)"/>

<path d=" M 162.132 241.536 C 155.722 237.382 147.58 233.813 137.699 229.194 Q 143.254 199.789 148.395 175.615 Q 173.395 164.326 208.773 157.197 L 224.561 190.359 L 214.912 212.142 L 212.719 209.322 L 220.489 190.046 L 207.833 161.896 Q 180.116 166.394 150.241 179.461 Q 145.839 202.633 141.654 228.136 C 149.804 231.946 156.803 234.998 162.641 238.913 L 162.132 241.536 Z " fill="rgb(0,0,0)"/>

<path d=" M 150.385 225.385 C 154.976 232.958 158.361 239.884 160.531 246.155 L 155.051 259.524 C 169.26 256.873 181.319 252.897 191.219 247.587 L 195.038 218.343 C 179.799 218.542 164.195 220.892 150.385 225.385 Z " fill="rgb(0,0,0)"/>

<path d=" M 198.425 217.254 L 197.59 212.36 L 202.224 219.847 L 200.075 226.293 L 199.717 219.967 L 198.425 217.254 Z " fill="rgb(0,0,0)"/>

<path d=" M 205.878 159.725 L 198.291 195.473 L 208.702 161.265 L 205.878 159.725 Z " fill="rgb(0,0,0)"/>

<path d=" M 207.932 201.32 L 219.588 217.927 L 215.417 224.734 L 198.631 252.13 L 214.922 218.44 L 207.932 201.32 Z " fill="rgb(0,0,0)"/>

<path d=" M 151.263 283.68 C 161.479 312.791 177.888 336.161 197.142 347.911 L 192.802 351.437 C 175.71 339.633 160.753 315.094 151.263 283.68 Z " fill="rgb(0,0,0)"/>

<path d=" M 221.558 321.58 L 215.577 328.175 C 235.639 315.464 256.34 308.393 277.671 306.953 C 276.33 289.981 271.169 274.698 262.181 261.096 C 248.969 269.615 239.636 285.801 237.611 301.716 C 242.445 284.024 251.681 269.377 261.875 265.697 C 268.963 275.829 273.394 288.97 275.16 305.113 C 256.925 305.99 239.061 311.482 221.558 321.58 Z " fill="rgb(0,0,0)"/>

<path d=" M 240.373 290.982 L 239.193 295.91 C 236.578 296.725 234.244 300.985 232.183 308.682 C 232.979 298.774 235.712 292.877 240.373 290.982 Z " fill="rgb(0,0,0)"/>

<path d=" M 234.059 300.4 L 189.051 311.556 L 230.321 303.692 Q 219.884 307.726 201.982 315.075 Q 221.731 308.661 232.924 305.165 L 234.059 300.4 Z " fill="rgb(0,0,0)"/>

<path d=" M 144.226 226.284 C 157.932 221.228 177.079 217.892 199.488 216.27 L 200.772 219.352 C 179.679 219.805 160.88 222.632 146.537 227.825 L 144.226 226.284 Z " fill="rgb(0,0,0)"/>

<path d=" M 203.374 243.658 C 200.545 257.787 200.843 267.729 204.254 273.499 L 207.784 277.386 C 204.364 270.07 204.292 254.356 207.265 236.202 L 203.374 243.658 L 203.374 243.658 Z " fill="rgb(0,0,0)"/>

<path d=" M 192.271 256.491 C 205.48 275.575 218.817 289.503 233.352 302.057 L 227.189 303.597 C 213.801 289.095 202.529 274.664 192.271 256.491 Z " fill="rgb(0,0,0)"/>

<path d=" M 139.846 259.293 C 155.252 259.635 173.044 255.087 190.501 246.183 L 193.325 218.196 L 198.461 218.453 C 195.579 225.566 193.271 236.268 191.528 250.548 C 169.419 258.638 153.476 262.552 144.768 263.358 C 143.497 282.775 153.864 314.314 159.7 346.907 L 193.555 349.058 C 204.304 337.555 214.377 324.571 241.13 306.779 C 246.295 289.153 253.348 273.935 261.738 263.83 L 263.39 266.695 C 253.768 277.739 247.42 291.875 244.34 309.096 C 224.305 320.362 208.044 338.443 197.394 354.655 L 157.635 351.671 C 150.233 314.777 142.344 283.315 139.846 259.293 Z " fill="rgb(0,0,0)"/>

<path d=" M 245.789 246.183 L 230.321 266.695 L 223.416 285.031 L 240.373 278.281 L 250.227 253.031 L 245.789 246.183 Z " fill="rgb(0,0,0)" fill-opacity="0.64"/>

<path d=" M 218.609 288.914 C 201.783 280.758 184.75 273.846 167.501 268.167 C 161 282.278 158.978 296.112 161.429 309.66 L 148.815 303.859 L 151.092 314.485 L 167.294 320.569 C 161.738 304.527 160.432 285.527 168.007 270.697 C 183.604 274.239 202.076 282.169 223.416 294.48 L 218.609 288.914 Z " fill="rgb(0,0,0)"/>

<path d=" M 171.669 284.339 C 170.251 281.172 170.108 278.149 171.349 277.594 C 172.59 277.039 174.748 279.16 176.165 282.328 C 177.582 285.496 177.725 288.518 176.485 289.074 C 175.244 289.629 173.086 287.507 171.669 284.339 Z " fill="rgb(0,0,0)"/>

</g>

<g>

<ellipse vector-effect="non-scaling-stroke" cx="68.41628083072752" cy="351.9718326837417" rx="32.22416271022993" ry="4.213993674127721" fill="rgb(0,0,0)"/>

<path d=" M 94.457 241.93 L 99.49 240.169 C 102.479 226.189 94.344 211.93 75.077 197.382 L 68.533 203.423 Q 68.568 211.376 74.573 219.53 C 71.172 219.015 68.828 224.224 72.56 232.618 C 72.663 239.878 70.316 244.328 65.513 245.957 C 80.606 302.877 80.945 332.264 66.52 334.11 L 66.52 335.62 L 56.704 339.899 C 58.801 345.562 60.062 350.598 60.479 355 C 79.353 356.691 95.299 355.773 108.299 352.231 L 107.041 335.872 C 103.672 335.36 99.954 335.281 97.185 332.675 Q 96.917 332.422 97.038 330.407 C 89.879 331.772 83.819 303.143 78.852 244.51 C 74.849 244.606 74.096 241.84 76.587 236.205 C 79.374 237.678 81.726 237.25 83.634 234.915 C 87.631 238.709 91.241 241.051 94.457 241.93 Z " fill="rgb(0,0,0)"/>

<ellipse vector-effect="non-scaling-stroke" cx="43.39210762387735" cy="272.4251488479231" rx="2.9942512852025587" ry="7.649071934569861" fill="rgb(0,0,0)"/>

<ellipse vector-effect="non-scaling-stroke" cx="58.12471313855009" cy="265.97807393164265" rx="2.6340519395021005" ry="6.993437197320986" fill="rgb(0,0,0)"/>

<path d=" M 44.191 271.66 C 51.797 281.267 71.039 275.922 60.16 268.601 L 59.461 265.213 C 67.849 265.867 70.247 269.112 66.647 274.938 L 74.632 277.015 L 75.431 281.604 C 72.996 279.688 68.84 278.052 62.955 276.687 C 59.461 280.839 48.452 280.114 44.889 274.829 L 44.191 271.66 Z " fill="rgb(0,0,0)"/>

<path d=" M 82.071 213.819 C 89.66 208.096 94.729 199.613 97.27 188.361 C 105.294 180.302 123.662 212.855 112.722 216.558 C 101.57 217.979 93.509 220.98 88.531 225.55 C 83.82 222.971 81.67 219.063 82.071 213.819 Z " fill="rgb(0,0,0)"/>

</g>

<g>

<g clip-path="url(#_clipPath_WSA9vhQYlpt3lJrCZvEain4aVt6x9ReD)">

<text transform="matrix(1,0,0,1,166.492,100.476)" style="font-family:'Comic Neue';font-weight:400;font-size:20px;font-style:normal;fill:#000000;stroke:none;">Hey, I'm flying to BOSTON tomorrow!

</text>

</g>

<defs>

<clipPath id="_clipPath_WSA9vhQYlpt3lJrCZvEain4aVt6x9ReD">

<rect x="0" y="0" width="318" height="23" transform="matrix(1,0,0,1,166.492,82.476)"/>

</clipPath>

</defs>

<g clip-path="url(#_clipPath_PnFo7qJYREfSVXbAMulTwgf5MT5tLAox)">

<text transform="matrix(1,0,0,1,514.309,116.948)" style="font-family:'Comic Neue';font-weight:400;font-size:20px;font-style:normal;fill:#000000;stroke:none;">COOL! What time do you

</text>

<text transform="matrix(1,0,0,1,732.149,116.948)" style="font-family:'Comic Neue';font-weight:400;font-size:20px;font-style:italic;fill:#000000;stroke:none;">one-if-by land?

</text>

</g>

<defs>

<clipPath id="_clipPath_PnFo7qJYREfSVXbAMulTwgf5MT5tLAox">

<rect x="0" y="0" width="350" height="23" transform="matrix(1,0,0,1,514.309,98.948)"/>

</clipPath>

</defs>

<path d=" M 763.945 143.099 L 778.145 161.947 L 756.635 139.223 L 763.945 143.099 Z " fill="rgb(0,0,0)"/>

<path d=" M 234.013 145.919 L 252.578 126.775 L 243.006 132.647 L 234.013 145.919 Z " fill="rgb(0,0,0)"/>

<g clip-path="url(#_clipPath_5xb3bTDGUMhLI4R5GdzPPwDSU5beTtsM)">

<text transform="matrix(1,0,0,1,301.492,138.477)" style="font-family:'Comic Neue';font-weight:400;font-size:20px;font-style:normal;fill:#000000;stroke:none;">I land at... wait,

</text>

<text transform="matrix(1,0,0,1,433.072,138.477)" style="font-family:'Comic Neue';font-weight:400;font-size:20px;font-style:italic;fill:#000000;stroke:none;">what?

</text>

</g>

<defs>

<clipPath id="_clipPath_5xb3bTDGUMhLI4R5GdzPPwDSU5beTtsM">

<rect x="0" y="0" width="183" height="23" transform="matrix(1,0,0,1,301.492,120.477)"/>

</clipPath>

</defs>

<g clip-path="url(#_clipPath_SvlMZ11Hx8j37UiRdgGOL0fWlUEMF5KM)">

<text transform="matrix(1,0,0,1,514.369,152.419)" style="font-family:'Comic Neue';font-weight:400;font-size:20px;font-style:normal;fill:#000000;stroke:none;">I said, what time do

</text>

<text transform="matrix(1,0,0,1,514.369,175.419)" style="font-family:'Comic Neue';font-weight:400;font-size:20px;font-style:normal;fill:#000000;stroke:none;">you

</text>

<text transform="matrix(1,0,0,1,550.489,175.419)" style="font-family:'Comic Neue';font-weight:700;font-size:20px;font-style:normal;fill:#000000;stroke:none;">one-if-by land

</text>

<text transform="matrix(1,0,0,1,670.349,175.419)" style="font-family:'Comic Neue';font-weight:400;font-size:20px;font-style:normal;fill:#000000;stroke:none;">?

</text>

</g>

<defs>

<clipPath id="_clipPath_SvlMZ11Hx8j37UiRdgGOL0fWlUEMF5KM">

<rect x="0" y="0" width="204.739" height="46" transform="matrix(1,0,0,1,514.309,134.419)"/>

</clipPath>

</defs>

<g clip-path="url(#_clipPath_m2CeKq1siB7sawh1weLh2eLyVp4X3TLF)">

<text transform="matrix(1,0,0,1,339.972,176.478)" style="font-family:'Comic Neue';font-weight:400;font-size:20px;font-style:normal;fill:#000000;stroke:none;">No, I

</text>

<text transform="matrix(1,0,0,1,388.172,176.478)" style="font-family:'Comic Neue';font-weight:400;font-size:20px;font-style:italic;fill:#000000;stroke:none;">heard

</text>

<text transform="matrix(1,0,0,1,443.312,176.478)" style="font-family:'Comic Neue';font-weight:400;font-size:20px;font-style:normal;fill:#000000;stroke:none;">you.

</text>

<text transform="matrix(1,0,0,1,381.252,199.478)" style="font-family:'Comic Neue';font-weight:400;font-size:20px;font-style:normal;fill:#000000;stroke:none;">I just don't...

</text>

</g>

<defs>

<clipPath id="_clipPath_m2CeKq1siB7sawh1weLh2eLyVp4X3TLF">

<rect x="0" y="0" width="145" height="46" transform="matrix(1,0,0,1,339.492,158.478)"/>

</clipPath>

</defs>

<g clip-path="url(#_clipPath_1DzwCZSOIfuMXVZAcmXrTiD08rXH7TYe)">

<text transform="matrix(1,0,0,1,514.309,207.89)" style="font-family:'Comic Neue';font-weight:400;font-size:20px;font-style:normal;fill:#000000;stroke:none;">I can't believe you're

</text>

<text transform="matrix(1,0,0,1,514.309,230.89)" style="font-family:'Comic Neue';font-weight:400;font-size:20px;font-style:normal;fill:#000000;stroke:none;">coming to Boston!

</text>

<text transform="matrix(1,0,0,1,514.309,260.29)" style="font-family:'Comic Neue';font-weight:400;font-size:22px;font-style:italic;fill:#000000;stroke:none;">Two-if-by see

</text>

<text transform="matrix(1,0,0,1,514.309,280.53)" style="font-family:'Comic Neue';font-weight:400;font-size:22px;font-style:italic;fill:#000000;stroke:none;">y

</text>

<text transform="matrix(1,0,0,1,524.121,280.53)" style="font-family:'Comic Neue';font-weight:400;font-size:22px;font-style:normal;fill:#000000;stroke:none;">ou soon!

</text>

</g>

<defs>

<clipPath id="_clipPath_1DzwCZSOIfuMXVZAcmXrTiD08rXH7TYe">

<rect x="0" y="0" width="204.739" height="96.14" transform="matrix(1,0,0,1,514.309,189.89)"/>

</clipPath>

</defs>

</g>

<g>

<mask id="_mask_LEPFU1xMRjZTqFaKuJXaihVtpCfuzRg3">

<path d=" M 36 209.885 L 36 72 L 105.362 72" fill="white" stroke="none"/>

</mask>

<path d=" M 36 209.885 L 36 72 L 105.362 72" fill="none"/>

<path d=" M 36 209.885 L 36 72 L 105.362 72" fill="none" mask="url(#_mask_LEPFU1xMRjZTqFaKuJXaihVtpCfuzRg3)" vector-effect="non-scaling-stroke" stroke-width="2" stroke="rgb(0,0,0)" stroke-linejoin="miter" stroke-linecap="square" stroke-miterlimit="3"/>

<mask id="_mask_AN6SIIALiXTXQojdQKqXSpCPBjGtBAzY">

<path d=" M 972 222.115 L 972 360 L 902.638 360" fill="white" stroke="none"/>

</mask>

<path d=" M 972 222.115 L 972 360 L 902.638 360" fill="none"/>

<path d=" M 972 222.115 L 972 360 L 902.638 360" fill="none" mask="url(#_mask_AN6SIIALiXTXQojdQKqXSpCPBjGtBAzY)" vector-effect="non-scaling-stroke" stroke-width="2" stroke="rgb(0,0,0)" stroke-linejoin="miter" stroke-linecap="square" stroke-miterlimit="3"/>

<line x1="972" y1="36" x2="36" y2="36" vector-effect="non-scaling-stroke" stroke-width="1" stroke="rgb(0,0,0)" stroke-linejoin="miter" stroke-linecap="square" stroke-miterlimit="3"/>

<g>

<path d=" M 56.352 41.996 C 60.013 38.826 64.355 45.937 55.162 48.689 C 47.599 43.201 53.868 37.936 56.352 41.996 Z  M 56.125 43.391 C 58.968 40.415 61.984 45.474 55.384 47.392 C 49.918 43.193 54.481 39.838 56.125 43.391 Z " fill-rule="evenodd" fill="rgb(0,0,0)"/>

<path d=" M 60.024 42.705 L 66.809 41.587 L 67.84 55.578 L 64.013 55.824 L 60.024 42.705 Z " fill="rgb(0,0,0)"/>

<path d=" M 65.985 55.578 L 68.835 55.824 L 72.418 42.056 L 69.405 41.016 L 65.985 55.578 Z " fill="rgb(0,0,0)"/>

<path d=" M 97.167 48.149 L 97.646 50.26 L 99.319 49.734 L 99.006 55.675 L 103.075 56.074 L 102.199 48.149 L 97.167 48.149 Z " fill="rgb(0,0,0)"/>

<path d=" M 98.469 47.368 L 101.159 42.199 C 94.973 39.925 87.842 45.102 90.474 51.804 C 92.731 57.549 98.735 57.066 100.425 53.359 L 99.639 49.818 C 99.193 52.218 94.871 52.562 94.86 48.612 C 94.856 47.051 97.22 45.95 98.469 47.368 Z " fill="rgb(0,0,0)"/>

<path d=" M 159.183 48.551 L 159.662 50.662 L 162.327 49.873 L 161.858 56.293 L 166.066 55.701 L 165.19 48.367 L 159.183 48.551 Z " fill="rgb(0,0,0)"/>

<path d=" M 161.46 47.298 L 164.15 42.129 C 157.964 39.855 150.813 44.902 153.038 51.734 C 154.924 57.522 161.726 56.996 163.417 53.289 L 162.991 50.895 C 161.412 52.917 157.851 52.741 157.851 48.542 C 157.851 46.981 160.211 45.88 161.46 47.298 Z " fill="rgb(0,0,0)"/>

<path d=" M 78.887 42.705 L 84.198 41.587 L 90.716 54.82 L 86.069 55.906 L 78.887 42.705 Z " fill="rgb(0,0,0)"/>

<path d=" M 78.887 42.705 L 82.206 43.336 L 82.406 55.418 L 79.883 55.443 L 78.887 42.705 Z " fill="rgb(0,0,0)"/>

<path d=" M 86.324 41.587 L 90.284 42.056 L 90.716 54.82 L 87.21 53.181 L 86.324 41.587 Z " fill="rgb(0,0,0)"/>

<path d=" M 141.555 42.711 L 146.866 41.594 L 152.952 54.568 L 148.305 55.853 L 141.555 42.711 Z " fill="rgb(0,0,0)"/>

<path d=" M 141.555 42.711 L 144.875 43.334 L 145.124 55.461 L 142.185 55.701 L 141.555 42.711 Z " fill="rgb(0,0,0)"/>

<path d=" M 149.189 41.718 L 152.952 41.724 L 152.952 54.568 L 149.878 53.188 L 149.189 41.718 Z " fill="rgb(0,0,0)"/>

<path d=" M 42.228 42.133 L 49.714 41.587 L 49.8 52.964 L 53.798 52.509 L 53.798 55.33 L 43.255 55.33 L 42.228 42.133 Z " fill="rgb(0,0,0)"/>

<path d=" M 123.003 44.099 L 118.99 43.528 L 119.877 54.93 L 112.613 55.451 L 112.526 44.075 L 108.529 44.53 L 108.529 41.708 L 123.419 41.467 L 123.003 44.099 Z " fill="rgb(0,0,0)"/>

<path d=" M 78.887 41.594 L 71.791 42.601 L 73.008 55.385 L 77.667 55.701 L 78.887 41.594 Z " fill="rgb(0,0,0)"/>

<path d=" M 122.027 42.228 L 128.349 41.188 L 128.349 55.425 L 123.246 55.75 L 122.027 42.228 Z " fill="rgb(0,0,0)"/>

<path d=" M 126.991 46.857 L 132.094 46.426 L 132.094 50.549 L 126.991 51.496 L 126.991 46.857 Z " fill="rgb(0,0,0)"/>

<path d=" M 53.908 48.411 L 60.2 48.122 L 58.83 55.824 L 54.333 55.594 L 53.908 48.411 Z " fill="rgb(0,0,0)"/>

<path d=" M 135.075 47.697 L 140.843 47.289 L 140.223 55.853 L 135.573 55.783 L 135.075 47.697 Z " fill="rgb(0,0,0)"/>

<path d=" M 135.205 46.526 L 134.861 40.493 L 141.495 40.746 L 140.863 46.526 L 135.205 46.526 Z  M 136.293 45.397 L 136.08 41.651 L 140.24 41.811 L 139.847 45.397 L 136.293 45.397 Z " fill-rule="evenodd" fill="rgb(0,0,0)"/>

<path d=" M 129.955 41.188 L 134.309 41.188 L 134.309 55.259 L 131.044 55.425 L 129.955 41.188 Z " fill="rgb(0,0,0)"/>

<path d=" M 168.158 50.339 L 165.145 54.303 C 170.068 58.283 178.624 55.659 176.679 50.339 C 175.895 48.195 171.777 48.341 170.594 47.324 C 168.968 45.925 171.771 45.26 174.191 47.603 L 176.999 44.347 C 171.284 38.078 162.232 43.225 166.161 47.603 C 167.885 49.525 170.843 48.762 171.644 50.276 C 172.383 51.673 169.407 51.756 168.158 50.339 Z " fill="rgb(0,0,0)"/>

</g>

<g clip-path="url(#_clipPath_JR2E9yxTvOhu8MeTCLmz5WXBMmVa0Dta)">

<text transform="matrix(0,-0.576,0.576,0,966.134,356.649)" style="font-family:'Times New Roman';font-weight:400;font-size:20px;font-style:normal;fill:#000000;stroke:none;">&#xA9;MCMLXXXVIII &#xB7; Trilobyte</text>

</g>

<defs>

<clipPath id="_clipPath_JR2E9yxTvOhu8MeTCLmz5WXBMmVa0Dta">

<rect x="0" y="0" width="266" height="24.6" transform="matrix(0,-0.576,0.576,0,954.96,356.649)"/>

</clipPath>

</defs>

</g>

</g>

</svg>
