<svg id="svg" 
  xmlns="http://www.w3.org/2000/svg" 
  xmlns:xlink="http://www.w3.org/1999/xlink" 
  style="
    isolation:isolate;
    overflow:hidden;
  " 
  viewBox="0 0 803 871" 
  width="803" 
  height="871"
>

<defs>
  <marker id="slant-cap" markerWidth="3" markerHeight="1"
    refX="1" refY="0.5" orient="auto-start-reverse" markerUnits="strokeWidth">
    <path d=" M 0 0 L 1 0 L 3 1 L 0 1 Z" fill="context-stroke"/>
  </marker>
</defs>
    
<!-- <image href="clock.png" transform="scale(0.5)" width="803" height="871"/> -->

<g id="ikon">

  <path id="back-leg" d="M 238 291 Q 200 300 178 316 L 147 372 Q 140 380 132 376 C 97 358 24 360 24 372 S 90 394 144 394 L 182 324 Q 205 308 235 308 Z "/>
  
  <g id="body-fills" fill-rule="evenodd" fill="hsla(40,100%,50%,0.2)">
    <path id="body-fill" d="M 180 82 Q 195 90 216 92 Q 214 100 215 108 Q 218 63 252 77 C 285 27 300 160 287 215 C 400 260 370 308 310 295 Q 300 305 295 320 L 284 314 Q 220 330 140 245 C 110 130 170 70 180 82 Z M 188 105 Q 200 138 198 228 Q 260 269 280 295 Q 225 305 172 240 C 155 200 170 97 188 105 Z " />
    <path id="bell-fill" d="M 188 80 C 192 35 100 90 138 124 Z " /> 
    <g id="test" fill="none" stroke="hsla(0, 100%, 80%, 0.4" stroke-width="22"/>
  </g>
  
  <path id="outline-strokes" d="
    M 138 238
    C 110 130 168 72 182 82
    S 205 158 205 214

    M 182 82 
    Q 195 90 214 92

    M 256 72
    C 283 27 300 160 287 215
    C 400 260 370 308 307 294

    M 268 121
    Q 280 170 276 220
    Q 321 235 339 268

    M 337 265
    Q 307 285 296 315

    M 280 295
    Q 225 305 172 240
    C 155 200 170 97 188 105

    M 146 246
    C 202 321 274 322 289 310
    S 261 262 205 227

    M 246 75
    C 229 60 209 82 213 114
    C 218 138 244 145 269 120
    C 279 104 279 67 246 70

    M 188 80
    C 192 35 100 90 138 124

    M 250 87
    C 264 6 150 15 152 70


  " fill="none"
    stroke="hsla(40,100%,20%,1)"
    stroke-width="3"
    stroke-linecap="round"
    
  />

  <g id="thin-lines"
    fill="none"
    stroke="hsla(40,100%,20%,1)"
    stroke-width="1"
    stroke-miterlimit="3"
    marker-start="url(#slant-cap)"
    marker-end="url(#slant-cap)"
  >
    <path d="M 142 239 C 119 160 160 77 179 88 S 200 200  200 210 "/>
    <path d="M 150 246 C 202 313 270 317 284 307 S 248 261 198 228 "/>
    <path d="M 284 216 L 233 229 L 283 219 L 242 234"/>
    <path d="M 239 127 C 248 131 270 121 268 100"/>
    <path d="M 292 151 L 272 167 L 292 161 L 274 172"/>
    <path d="M 100 239 A 10 7 -12 0 1 121 237 A 10 7 -12 0 1 100 239"/>
    <path d="M 105 235 L 110 238 L 106 240 "/>
  </g>

  <defs id="arm-defs">
    <mask id="watch-mask">
      <rect width="100%" height="100%" fill="#fff"/>
      <ellipse cx="111" cy="238" rx="10" ry="7" fill="#000"/>
    </mask>
  </defs>

  <g id="arms" fill="#111">
    <ellipse cx="189" cy="225" rx="5" ry="11"/>
    <path d="M 187 216 Q 183 172 179 156 L 188 142 Q 187 179 190 216 Z "/>
    <path mask="url(#watch-mask)" d="M 184 223 C 128 230 81 220 69 203 Q 110 220 112 253 L 85 253 L 93 271 L 117 258 Q 112 200 53 193 C 65 220 81 230 186 231 Z "/>
  </g>

  <g id="front-leg" fill="#111">
    <path d="M 309 265 Q 282 288 252 326 Q 279 350 290 379 C 249 366 198 370 196 382 S 230 399 239 399 L 314 404 Q 314 370 264 326 Q 291 293 315 276 C 320 273 320 260 309 265 Z "/>
  </g>

 </g> 

 <script><![CDATA[

    const NS = 'http://www.w3.org/2000/svg';
    const svg = document.getElementById('svg');
    const test = document.getElementById('test');
    let coords = [];
    let drawPath;

    const convertCoords = e => {
    
      const pt = svg.createSVGPoint();
      pt.x = e.clientX;
      pt.y = e.clientY;
      const svgCoords = pt.matrixTransform(svg.getScreenCTM().inverse());
      return { x: Math.round(svgCoords.x), y: Math.round(svgCoords.y) };

    };
    
    svg.addEventListener('pointerdown', e => {
      
      drawPath = document.createElementNS(NS, 'path');
      test.appendChild(drawPath);
      let xy = convertCoords(e);
      coords.push(`M  ${xy.x} ${xy.y}`);
      drawPath.setAttribute('d', coords.join(''));
      svg.addEventListener('pointermove', draw);

    });

    svg.addEventListener('pointerup', () => {
      console.log(test);
      coords = [];
      svg.removeEventListener('pointermove', draw);
    });

    svg.addEventListener('dblclick', () => {
      coords = [];
      test.setAttribute('d', '');
    });

const draw = e => {

  const pt = convertCoords(e); 

  const last = coords.at(-1);
  if (last) {
    const [lx, ly] = last.match(/[\d.]+/g).map(Number);
    const dx = pt.x - lx;
    const dy = pt.y - ly;
    const dist = Math.sqrt(dx * dx + dy * dy);
    if (dist < 2) return;  // skip small moves
  }

  const coordStr = `L ${Math.round(pt.x)} ${Math.round(pt.y)}`;
  coords.push(coordStr);
  drawPath.setAttribute('d', coords.join(' '));
};


    /*
    svg.addEventListener('dblclick', () => {
        coords = [];
    });

    svg.addEventListener("pointerup", e => {

      e.stopPropagation();
      e.preventDefault();

      const pt = svg.createSVGPoint();
      pt.x = e.clientX;
      pt.y = e.clientY;

      // Transform screen coords into SVG coords
      const svgCoords = pt.matrixTransform(svg.getScreenCTM().inverse());

      let d = '';
      d += coords.length === 0 ? 'M' : 'L';
      d += ` ${Math.round(svgCoords.x.toFixed(0))} ${Math.round(svgCoords.y.toFixed(0))}`;
      coords.push(d);
      console.log(coords.join('\n'));
    });
    */
  ]]></script>



</svg>