<svg xmlns="http://www.w3.org/2000/svg">

  <defs>

    <path id="mask" d=" M 12 2 Q 30 1 46 6 L 57 38 H 60 L 56 88 L 73 99 Q 50 106 24 105 Q 28 60 3 19 Z " />

    <ellipse id="shadow" cx="41" cy="106" rx="35" ry="2" />

    <path id="head" d="M 12.5 3.5 Q 31 1 45.9 6.6 L 56.3 38.5 L 59.0 38.3 L 57.3 67.6 L 49.0 51.0 C 42.2 61.8 37.9 71.5 36.4 80.0 L 23.3 73.6 C 21.6 58.3 14.9 39.9 3.4 18.2 Z" />

    <path id="chest" d=" M 23 74 L 37 80 Q 38 68  49 50 Q 53 55 57 67 V 89 L 60 91 Q 52 96.5 36.5 97 H 25 Z M 48.4 63 a 1.6 3.2 0 1 1 0 0.1 z " fill-rule="evenodd" />

    <path id="foot" d="M 60.3 90.4 L 73.0 98.5 L 67.8 101.6 L 35.6 104.9 L 24.0 104.3 L 24.8 96.6 L 37.1 96.8 C 48.3 96.0 56.0 93.9 60.3 90.4 Z" />
    
    <g id="outline">

      <path id="arc" fill="var(--arc-color, var(--outline-color, #000))" d="M 57.8 68.6 C 55.7 61.4 52.9 55.0 49.2 49.2 C 41.5 60.2 36.9 70.0 36.6 78.4 L 24.0 73 L 24.0 75.3 L 37.1 81.8 C 39.4 69.8 43.6 59.9 49.2 52.7 C 52.6 57.1 55.4 63.9 57.8 73 L 57.8 68.6 Z" />
      <path d="M 22 106.1 C 26 81 21 52.2 1 19.5 L 11.2 0.5 Q 36.2 1 46.5 5.0 L 57.8 37.3 L 54.0 37.3 L 44.0 7.4 Q 33 3 12.5 4.1 L 4.6 18.6 C 21.3 48.0 28.6 77.2 26.3 106.1 L 22.9 106.1 Z" />
      <path d="M 24 44.1 C 36.1 40.8 47.6 37.9 60.9 35.4 L 57.8 87.7 L 75.5 97.8 L 63.2 106.1 L 59.9 106.1 L 71.1 98.4 L 54.0 88.8 L 57.8 39.3 C 47.9 39.7 37.4 42.2 24 46.9 Z" />
      <path d="M 66.8 102.3 L 63.5 106.1 L 61.6 106.1 L 22.9 106.1 L 26.3 102.3 C 44.4 102.9 60.4 101.4 71.9 98.2 L 66.8 102.3 Z" />
      <path d="M 24.9 41.5 L 23.4 40.9 C 23.3 44.2 23.5 47.1 23.9 49.5 L 25.2 50.2 C 24.7 47.4 24.5 44.5 24.9 41.5 Z" />
      <path d="M 60.4 91.5 L 58.7 89.9 C 54.2 95.5 41.5 97.0 25.4 96.3 L 25.4 97.5 C 39.3 97.0 52.3 97.1 60.4 91.5 Z" />
      <path d="M 11.5 4 Q 21 16 26 31 Q 22 17 13 2 Z" />
      <path d="M 35.0 58.9 C 38.0 74.2 38.1 89.2 36.6 104.1 L 34.4 104.1 C 37.5 90.5 37.2 75.4 35.0 58.9 Z" />
      <path d="M 57 86.5 L 59 87 L 59 89 L 48 90 Z " />

    </g>

    <ellipse id="sigil" cx="50" cy="63" rx="1.6" ry="3.2" />

    <g id="ikon">
      <use href="#head" fill="var(--head-color, var(--fill-color, none))" />
      <use href="#chest" fill="var(--chest-color, none)" />
      <use href="#foot" fill="var(--foot-color, var(--fill-color, none))" />
      <use href="#outline" fill="var(--outline-color, #000)" />
      <use href="#sigil" fill="var(--sigil-color, var(--outline-color, #000))" />
      <use href="#shadow" opacity="var(--show-shadow, 1)" fill="var(--outline-color, #000)" />
    </g>

  </defs>

  <use href="#ikon" style="
  --x-head-color: red;
  --chest-color: pink;
  --x-foot-color: green;
  --x-fill-color: green;
  --arc-color: orange;
  --x-outline-color: blue;
  "/>

</svg>
