
<svg xmlns="http://www.w3.org/2000/svg"

>
  <rect fill="orange" x="2" y="2" width="100" height="200"/>

  <g id="morris" fill="var(--outline-color, #000)"
  transform="translate(-534 -169)"
  >

    <path id="foot-fill" fill="var(--foot-color, var(--fill-color, none))" d=" M 594.356 259.415 L 607.007 267.504 L 601.822 270.615 L 569.676 273.933 L 558.061 273.311 L 558.891 265.637 L 571.128 265.845 C 582.337 265.077 590.076 262.938 594.356 259.415 Z " />

    <path id="foot-fill" fill="var(--chest-color, var(--fill-color, none))" d=" M 546.535 172.554 Q 565 170 579.942 175.652 L 590.312 207.592 L 593.008 207.384 L 591.349 236.627 L 583.053 220.036 C 576.212 230.839 571.992 240.521 570.402 249.071 L 557.336 242.642 C 555.625 227.361 548.984 208.906 537.425 187.267 Z " />



    <ellipse cx="575" cy="275" rx="35" ry="2" />
    
    <path d=" M 556 275.141 C 560 250 555 221.205 535 188.5 L 545.283 169.5 Q 570.261 170 580.548 174.02 L 591.815 206.308 L 588.059 206.308 L 578.044 176.4 Q 567 172 546.535 173.168 L 538.606 187.607 C 555.4 217.1 562.63 246.282 560.307 275.141 L 556.968 275.141 Z " />

    <path d="
    M 558.911 210.54
    L 557.472 209.902
    C 557.359 213.264 557.512 216.153 557.941 218.558
    L 559.283 219.228
    C 558.712 216.408 558.585 213.516 558.911 210.54 Z " />

    <path d="
    M 558 213.194
    C 570.13 209.852 581.673 206.934 594.945 204.43
    L 591.815 256.71
    L 609.552 266.876
    L 597.241 275.141
    L 593.902 275.141 L 605.145 267.448 L 588.059 257.866 L 591.815 208.304
    C 581.912 208.722 571.405 211.26 558 215.907
    
    Z " />

    <path d=" M 600.853 271.375 L 597.566 275.141 L 595.602 275.141 L 556.968 275.141 L 560.307 271.375 C 578.465 271.971 594.485 270.422 605.926 267.205 L 600.853 271.375 Z " />

    <path d=" M 545.5 173 Q 555 185 560 200 Q 556 186 547 171 Z " />

    <path d=" M 569.071 227.931 C 572.005 243.231 572.167 258.293 570.628 273.107 L 568.436 273.107 C 571.581 259.508 571.239 244.453 569.071 227.931 Z " />

    <path d=" M 591.815 237.673 C 589.762 230.484 586.906 224.006 583.26 218.228 C 575.555 229.268 570.987 239.012 570.628 247.452 L 558.012 242 L 558.012 244.311 L 571.158 250.807 C 573.481 238.862 577.691 228.986 583.26 221.714 C 586.609 226.161 589.457 232.927 591.815 242 L 591.815 237.673 Z " />

    <path d=" M 594.474 260.518 L 592.785 258.923 C 588.236 264.565 575.508 266.019 559.472 265.386 L 559.472 266.524 C 573.329 266.021 586.348 266.181 594.474 260.518 Z " />

    <path d=" M 585.641 231.803 C 585.739 230.042 585.072 228.57 584.152 228.519 C 583.232 228.468 582.405 229.856 582.307 231.617 C 582.209 233.379 582.876 234.85 583.796 234.901 C 584.716 234.953 585.543 233.564 585.641 231.803 Z " 
      />
      

  </g>

</svg>