<svg xmlns="http://www.w3.org/2000/svg" xmlns:xlink="http://www.w3.org/1999/xlink" style="isolation:isolate" 
viewBox="0 -4 150 276">

<defs id="patterns">
  <pattern id="dotz" viewBox="-2 -2 4 4" width="4" height="4"
    patternUnits="userSpaceOnUse" patternTransform="rotate(45) scale(0.5)">
    <!--<rect x="-2" y="-2" width="4" height="4" fill="#000"/>-->
    <circle r="1" fill="#900" transform="scale(1.5)"/>
  </pattern>
    
  <pattern id="xdotz" viewBox="-2 -2 4 4" width="4" height="4" patternUnits="userSpaceOnUse" patternTransform="rotate(45) scale(0.5)">
    <path d="M1 0 A1 1 0 1 0 1 0.01H9V9H-9V-9H9V0Z"
    fill="#900" transform="scale(1.5)"/>
  </pattern>
</defs>

<defs id="perfect-fills">
  <path id="perfect-top-fill" d=" M 39.721 99.353 C 42.65 64.338 48.535 34.793 51.367 27.444 C 72.62 24.494 92.76 15.718 124.327 4.811 C 131.435 19.301 142.665 32.291 146.031 45.8 L 132.538 71.386 C 135.645 73.557 137.415 76.136 137.813 79.085 C 132.956 95.812 123.95 117.471 111.052 147.233 L 119.577 197.02 L 98.624 219.768 C 83.143 202.376 69.387 188.121 57.319 176.966 C 52.547 185.451 49.856 193.226 49.21 200.254 L 40.394 155.436 L 60.611 156.612 L 79.169 144.341 L 72.469 101.872 C 65.807 102.694 51.141 102.04 39.721 99.353 L 39.721 99.353 Z " fill="rgba(128,0,0,0.3)" />
  <path id="perfect-foot-fill" d=" M 7.229 233.971 L 26.949 231.014 L 39.381 236.628 C 56.134 242.782 75.651 246.024 96.811 248.015 L 124.145 253.634 L 124.145 266.123 L 94.65 264.263 L 31.675 259.214 L 7.229 233.971 L 7.229 233.971 Z " fill="url(#dotz)" x-fill="rgb(152,0,0)"/>
  <path id="perfect-sigil-fill" d=" M 62.772 196.224 C 62.23 193.426 60.666 191.34 59.282 191.568 C 57.898 191.795 57.215 194.252 57.757 197.049 C 58.3 199.847 59.864 201.933 61.248 201.706 C 62.632 201.478 63.315 199.022 62.772 196.224 Z " fill="url(#dotz)"/>
</defs>

<g id="ikon">

<g id="marker-strokes" fill="rgba(128,0,0,0.4)">
  
  <path id="marker-top-fill" d=" 
    M 39 99 
    L 51 25
    L 124 0 
    C 131 19 142 32 146 45.8 
    L 132 71 
    C 135 73 137 76 137 79 
    C 132 95 123.95 117 111 147 
    L 119 197.02 
    L 98 219 
    C 83 202 69 188 57 176 
    C 52 185 49 193 49.21 200 
    L 40 155 
    L 60 156 
    L 79 144 
    L 72 101 
    C 65 102 51 102.04 39 99 
    L 39 99 
    Z " />
  
  <path d="
      M 124 -3
      L 138 14
      L 123 50
      L 141 15
      L 155 40
      L 98 178 
      L 83 150 
      Z " />
  
  <path d="
      M 106 98 
      L 128 200
      L 126 203
      L 112 170
      L 120 210
      L 98 232
      L 83 144
  
      Z " />
  
  <path d="
    M 62.772 196.224 
    C 62.23 193.426 60.666 191.34 59.282 191.568 
    C 57.898 191.795 57.215 194.252 57.757 197.049 
    C 58.3 199.847 59.864 201.933 61.248 201.706 
    C 62.632 201.478 63.315 199.022 62.772 196.224 
    Z " />
  <path d=" 
    M 15 221 
    Q 70 250 124 253 
    L 112 272 
    Q 56 270 0 243
    Z " />
  <path d="
    M 100 245
    L 130 252
    L 128 285
    L 97 273
    Z" />
</g>


<path id="body-outline" d=" M 30.554 231.829 C 38.762 237.05 71.469 245.867 94.671 246.959 L 96.871 229.54 L 96.871 229.54 C 87.021 209.242 63.856 184.3 58.214 180.091 C 55.084 184.107 52.874 188.982 51.335 196.765 C 52.061 204.765 52.535 213.068 52.761 221.669 C 58.77 223.951 69.908 226.394 85.339 228.827 C 71.274 228.215 61.088 227.248 54.794 225.912 C 57.977 228.608 64.716 231.818 75.026 235.53 C 64.609 232.739 54.957 230.018 48.596 227.184 C 43.242 228.871 37.233 230.421 30.554 231.829 Z  M 28.17 232.331 C 44.768 242.821 80.559 246.384 94.502 248.3 L 92.649 262.98 C 55.547 257.618 28.585 245.958 9.428 234.734 C 16.612 234.435 22.475 233.483 28.17 232.331 Z  M 98.076 262.514 L 98.931 249.194 C 105.3 250.879 112.835 252.686 121.501 254.581 L 120.701 264.785 L 125.828 265.127 L 128.967 217.641 C 120.682 177.997 114.516 156.278 113.544 144.221 C 130.625 110.857 140.333 91.05 141.09 76.159 C 139.997 74.677 138.882 73.003 136.139 71.073 C 140.385 62.361 146.038 53.394 150.888 45.878 Q 146.525 30.964 124.652 0 C 93.904 14.574 73.527 21.66 54.76 24.916 C 52.927 25.193 51.259 25.372 49.766 25.456 Q 39.297 57.748 36.23 100.812 C 43.031 103.425 55.686 104.555 65.093 104.27 Q 73.012 127.518 72.587 145.053 C 66.905 149.758 61.77 152.705 54.318 154.538 C 48.035 154.474 40.074 153.468 37.603 152.941 C 42.748 175.797 47.612 198.861 47.863 220.018 Q 46.811 220.351 44.268 220.922 Q 44.839 223.206 45.056 224.555 C 33.674 228.473 14.099 231.714 0 231.292 C 11.374 241.02 17.809 249.55 23.314 261.448 L 102.092 264.18 L 98.076 262.514 Z  M 132.606 68.922 C 130.509 67.739 127.275 66.022 122.868 63.737 C 131.353 70.981 135.744 76.028 136.004 78.842 C 131.857 99.182 117.852 129.477 101.632 167.008 C 104.509 161.597 107.23 156.431 109.794 151.498 L 117.601 188.876 C 111.618 195.823 105.087 204.246 97.967 214.04 L 88.789 171.123 L 95.24 212.543 C 85.202 198.544 61.393 177.283 57.752 175.375 C 55.038 178.42 52.557 182.713 50.405 187.787 C 48.571 177.225 45.854 166.234 43.212 156.93 C 62.717 158.344 80.557 157.983 92.4 153.736 C 93.49 155.053 103.975 117.518 112.727 91.939 C 115.803 91.062 112.88 104.825 110.45 118.233 C 115.54 103.747 118.322 94.177 119.328 86.93 C 119.818 83.4 110.152 82.133 104.2 81.516 C 108.581 83.373 110.656 85.281 111.348 88.051 C 92.419 100.649 55.815 102.85 41.483 98.271 Q 44.037 63.781 52.523 29.644 C 65.105 28.244 90.883 23.049 118.759 8.109 L 107.102 58.74 L 123.927 8.808 Q 142.684 35.88 144.57 46.743 Q 139.465 54.902 132.606 68.922 Z  M 100.299 228.366 L 99.035 247.608 L 99.035 247.608 C 106.121 249.596 113.66 251.442 121.616 253.109 L 124.181 220.376 L 120.581 203.143 C 114.703 209.428 107.955 217.848 100.299 228.366 L 100.299 228.366 Z " 
fill-rule="evenodd" fill="rgb(0,0,0)"/>

<path id="sigil-outline" d=" M 65.149 196.231 C 64.4 192.369 62.09 189.513 59.993 189.858 C 57.897 190.203 56.803 193.619 57.552 197.481 C 58.301 201.344 60.611 204.199 62.707 203.855 C 64.804 203.51 65.898 200.094 65.149 196.231 Z  M 62.019 196.318 C 61.545 193.874 60.315 192.029 59.275 192.2 C 58.234 192.371 57.774 194.495 58.248 196.938 C 58.721 199.382 59.951 201.227 60.992 201.056 C 62.032 200.885 62.492 198.762 62.019 196.318 Z " 
fill-rule="evenodd" fill="rgb(0,0,0)"/>


</g>

</svg>