<svg xmlns="http://www.w3.org/2000/svg" xmlns:xlink="http://www.w3.org/1999/xlink" style="isolation:isolate" 
viewBox="0 -4 150 276">

<defs id="patterns">
  <pattern id="dotz" viewBox="-2 -2 4 4" width="4" height="4"
    patternUnits="userSpaceOnUse" patternTransform="rotate(45) scale(0.5)">
    <!--<rect x="-2" y="-2" width="4" height="4" fill="#000"/>-->
    <circle r="1" fill="#900" transform="scale(1.5)"/>
  </pattern>
    
  <pattern id="xdotz" viewBox="-2 -2 4 4" width="4" height="4" patternUnits="userSpaceOnUse" patternTransform="rotate(45) scale(0.5)">
    <path d="M1 0 A1 1 0 1 0 1 0.01H9V9H-9V-9H9V0Z"
    fill="#900" transform="scale(1.5)"/>
  </pattern>
</defs>

<defs id="perfect-fills">
  <path id="perfect-top-fill" d=" M 40 99 C 42.65 64 49 35 51 27 C 72.62 24 92.76 16 124 5 C 131 19 143 32 146 45.8 L 133 71 C 136 74 137 76 138 79 C 133 96 123.95 117 111 147 L 120 197.02 L 99 220 C 83 202 69 188 57 177 C 53 185 50 193 49.21 200 L 40 155 L 61 157 L 79 144 L 72 102 C 66 103 51 102.04 40 99 L 40 99 Z " fill="rgba(128,0,0,0.3)" />
  <path id="perfect-foot-fill" d=" M 7 234 L 27 231 L 39 237 C 56 243 76 246 97 248 L 124 254 L 124 266 L 94.65 264 L 32 259 L 7 234 L 7 234 Z " fill="url(#dotz)" x-fill="rgb(152,0,0)"/>
  <path id="perfect-sigil-fill" d=" M 63 196 C 62.23 193 61 191.34 59 192 C 58 192 57 194 58 197 C 58.3 200 60 202 61 202 C 63 201 63 199 63 196 Z " fill="url(#dotz)"/>
</defs>

<g id="ikon">

<g id="marker-strokes" fill="rgba(128,0,0,0.4)">
  
  <path id="marker-top-fill" d=" 
    M 39 99 
    L 51 25
    L 124 0 
    C 131 19 142 32 146 45.8 
    L 132 71 
    C 135 73 137 76 137 79 
    C 132 95 123.95 117 111 147 
    L 119 197.02 
    L 98 219 
    C 83 202 69 188 57 176 
    C 52 185 49 193 49.21 200 
    L 40 155 
    L 60 156 
    L 79 144 
    L 72 101 
    C 65 102 51 102.04 39 99 
    L 39 99 
    Z " />
  
  <path d="
      M 124 -3
      L 138 14
      L 123 50
      L 141 15
      L 155 40
      L 98 178 
      L 83 150 
      Z " />
  
  <path d="
      M 106 98 
      L 128 200
      L 126 203
      L 112 170
      L 120 210
      L 98 232
      L 83 144
  
      Z " />
  
  <path d="
    M 63 196 
    C 62.23 193 61 191.34 59 192 
    C 58 192 57 194 58 197 
    C 58.3 200 60 202 61 202 
    C 63 201 63 199 63 196 
    Z " />
  <path d=" 
    M 15 221 
    Q 70 250 124 253 
    L 112 272 
    Q 56 270 0 243
    Z " />
  <path d="
    M 100 245
    L 130 252
    L 128 285
    L 97 273
    Z" />
</g>


<path id="body-outline" d=" 
  M 31 232 
  C 39 237.05 71 246 95 247 
  L 97 229.54 
  L 97 229.54 
  C 87 209 64 184.3 58 180 
  C 55 184 53 189 51 197 
  C 52 205 53 213 53 222 
  C 58.77 224 70 226 85 229 
  C 71 228 61 227 55 226 
  C 58 229 65 232 75 235.53 
  C 65 233 55 230 49 227 
  C 43 229 37 230 31 232 
  Z  
  M 28.17 232 
  C 45 243 81 246 95 248.3 
  L 93 262.98 
  C 56 258 29 246 9 235 
  C 17 234 22 233 28.17 232 
  Z  
  M 98 263 
  L 99 249 
  C 105.3 251 113 253 122 255 
  L 121 265 
  L 126 265 
  L 129 218 
  C 121 178 115 156 114 144 
  C 131 111 140 91.05 141.09 76 
  C 140 75 139 73 136 71 
  C 140 62 146 53 151 46 
  Q 147 31 125 0 
  C 94 15 74 21.66 54.76 25 
  C 53 25 51 25 50 25 
  Q 39 58 36.23 101 
  C 43 103 56 105 65 104.27 
  Q 73 128 73 145 
  C 67 150 61.77 153 54 155 
  C 48 154 40 153 38 153 
  C 43 176 48 199 48 220 
  Q 47 220 44 221 
  Q 45 223 45 225 
  C 34 228 14 232 0 231 
  C 11 241.02 18 249.55 23 261 
  L 102 264.18 
  L 98 263 
  Z  
  M 133 69 
  C 131 68 127 66 123 64 
  C 131 71 136 76 136 79 
  C 132 99 118 129 102 167 
  C 105 162 107.23 156 110 151 
  L 118 189 
  C 112 196 105 204 98 214.04 
  L 89 171 
  L 95.24 213 
  C 85 199 61 177 58 175 
  C 55 178.42 53 183 50 188 
  C 49 177 46 166 43 156.93 
  C 63 158 81 158 92.4 154 
  C 93.49 155 104 118 113 92 
  C 116 91 112.88 105 110.45 118 
  C 115.54 104 118 94 119 86.93 
  C 120 83.4 110 82 104.2 82 
  C 109 83 111 85 111 88 
  C 92 101 56 102.85 41 98 
  Q 44 64 53 30 
  C 65 28 91 23 119 8 
  L 107 58.74 
  L 124 9 
  Q 143 35.88 144.57 47 
  Q 139 55 133 69 
  Z  
  M 100 228 
  L 99 248 
  L 99 248 
  C 106 250 113.66 251 122 253 
  L 124 220 
  L 121 203 
  C 115 209 108 218 100 228 
  L 100 228 
  Z " 
fill-rule="evenodd" fill="rgb(0,0,0)"/>

<path id="sigil-outline" d=" M 65 196 C 64.4 192 62.09 190 60 190 C 58 190 57 194 58 197 C 58 201 61 204 63 204 C 65 203.51 66 200 65 196 Z  M 62 196 C 62 194 60 192 59 192.2 C 58 192 58 194 58 197 C 59 199 60 201 61 201 C 62 201 62 199 62 196 Z " 
fill-rule="evenodd" fill="rgb(0,0,0)"/>

</g>

</svg>
