<svg viewBox="0 0 900 800" xmlns="http://www.w3.org/2000/svg" xmlns:svg="http://www.w3.org/2000/svg" display="block" version="1.1">
 
 <g>

  <g data-display="none" transform-origin="50% 50%" transform="scale(-1 1)"> 
   <path id="head_color" d="m181.26,440.85l22.61,-77.73l-27.19,-35.96l7.89,-39.47l-64.04,-94.74c5.26,-35.96 16.67,-78.07 15.79,-118.42c84.21,-17.54 144.55,-12.28 213.85,0l54.63,192.31l6.66,-2.51l7.98,2.18c-32.16,56.73 -61.24,120.97 -71.71,187.87c-0.41,-22.54 -9.4,-46.31 -21.46,-68.86c-35.06,26.44 -62.56,53.91 -91.7,109.18c-18.25,-17.34 -36.49,-32.63 -53.31,-53.85z" 
   fill="#909" />
   <path id="foot_color" d="m162.25,600.47c23.33,-1.34 46.18,0.24 70,-4.02c24.39,5.2 111.71,-5.69 149.27,-34.15c21.79,6.99 41.63,14.47 74.15,12.2c-40.98,34.96 -128.29,80.16 -201.95,90.24l-91.22,5.85l-0.24,-70.12z" 
   fill="#909" />
   <path id="chest" d="m163.72,599.13l-12.93,-74.39l19.02,-53.66c19.55,21.76 38.48,44.33 60.49,60.98c20.92,-49.16 47.19,-96.33 95.64,-139.26c11.87,24.71 21.35,64.46 22,93.89l12.12,55.61l6.83,5.37l-4.88,5.85l20.98,9.76c-32.85,17.72 -95.45,38.86 -151.22,32.68l-68.05,3.17z" 
   fill="#ffffff" />
   <path id="bottom_shade" d="m268.11,663.34c46.59,-11.57 110.24,-32.89 161.71,-66.89c-29.76,25.69 -47.32,49.43 -54.15,69.76l-107.56,-2.87z" 
   fill="#000000" />
   <path id="arch" d="m180.82,439.39c15.54,19.62 33.63,38.24 54.85,54.62c16.34,-32.4 47.31,-75.2 91.53,-109.02c10.62,22.65 18.71,37.47 22.12,58.29l-1.05,43.05c-2.23,-22.82 -5.45,-61.43 -21.87,-94.27c-35.09,31.34 -65.85,68.62 -96.59,140.98c-21.43,-18.65 -40.2,-38.93 -60,-61.46l11.01,-32.18z" 
   fill="#444" />
   <path d="m359.9,551.5l-0.2,0.7l-0.4,0.6l-0.6,0.4l-0.7,0.1l-2.2,0.3l-22.6,3.8l-0.7,0l-0.7,-0.2l-0.6,-0.5l-0.3,-0.6l-0.1,-0.7l0.1,-0.7l0.4,-0.6l0.5,-0.5l0.7,-0.2l22.8,-3.9l2.4,-0.3l0.7,0.1l0.7,0.3l0.5,0.5l0.3,0.7l0,0.7z" fill="#000000" />
   <path d="m256.3,661l0.5,-0.4l0.5,-0.2l0.6,-0.1l0.6,0.2l1.7,0.8l1.6,0.3l4,0.1l3.3,-0.3l6.2,-1l11,-2.7l10.7,-3.2l17.4,-5.9l20,-7.5l22.1,-9.1l16.8,-7.5l10.6,-5.3l5.7,-2.9l9.8,-5.4l8.4,-5l12,-7.4l7.4,-5.1l0.5,-0.2l0.6,-0.1l0.6,0.2l0.5,0.3l0.3,0.5l0.2,0.6l0,0.6l-0.3,0.5l-0.4,0.4l-7.6,5.2l-12,7.5l-8.5,4.9l-9.9,5.5l-5.7,3l-10.7,5.3l-17,7.5l-22.2,9.1l-20,7.6l-17.6,6l-10.8,3.2l-11.2,2.7l-6.5,1.1l-3.5,0.3l-2.6,0l-1.9,-0.1l-2.2,-0.4l-2.3,-1l-0.5,-0.4l-0.3,-0.4l-0.2,-0.6l0.1,-0.6l0.2,-0.6z" fill="#000000" />
   <path d="m421.7,263.6l0.7,0.8l0.3,1l0,1.1l-0.4,0.9l-4.5,8.2l-15.2,29l-8.3,16.6l-5,10.5l-2.5,5.6l-7.1,16.4l-4.5,11.1l-5.2,13.5l-2.4,6.7l-2.3,6.6l-3.5,11.3l-1.9,6.7l-2.7,10.9l-1.4,6.4l-1.2,6.1l-1.1,5.8l-1.3,9.6l-0.9,7.9l-0.5,6.2l-0.2,4.6l-0.1,5.1l-0.2,1.1l-0.5,0.9l-0.8,0.7l-1,0.4l-1,0l-1,-0.4l-0.9,-0.7l-0.5,-0.9l-0.2,-1l0.1,-5.4l0.2,-4.8l0.5,-6.4l0.9,-8.1l1.4,-9.7l1.1,-6l1.2,-6.3l1.5,-6.5l2.7,-11.1l2,-6.8l3.5,-11.4l2.3,-6.8l2.5,-6.8l5.2,-13.6l4.5,-11.2l7.2,-16.6l2.6,-5.7l4.9,-10.5l8.4,-16.8l15.3,-29.1l4.7,-8.5l0.7,-0.8l0.9,-0.5l1.1,-0.1l1,0.2l0.9,0.6z" fill="#000000" />
   <path d="m324.6,546.4l0,-1.1l0.4,-1l0.6,-0.8l1,-0.6l1.5,-0.5l2.9,-0.7l2.9,-0.4l5,-0.6l4.3,-0.3l4.5,-0.1l4.4,0.1l4.1,0.3l2.5,0.3l3.4,0.7l2.3,0.8l0.6,0.3l1.6,1l0.9,0.8l0.8,1.2l0.6,1.6l0,1.2l-0.2,1.5l-0.6,1.3l-0.5,0.7l-1.7,1.7l-1.5,1.2l-1.2,0.7l-1,0.3l-1,0l-1,-0.4l-0.8,-0.6l-0.6,-1l-0.1,-1l0.2,-1.1l0.5,-0.9l0.8,-0.6l1,-0.6l0.7,-0.6l0.7,-0.7l-0.5,-0.3l-1.8,-0.6l-2.7,-0.6l-2.1,-0.3l-3.7,-0.2l-4.1,-0.1l-4.2,0.1l-4.1,0.3l-4.7,0.5l-2.6,0.4l-2.4,0.6l-1,0.4l-1,0.2l-1.1,-0.2l-0.9,-0.5l-0.7,-0.8l-0.4,-1z" fill="#000000" />
   <path d="m348.7,461.3l1,0.4l0.7,0.7l0.4,1l0.1,1l-0.1,2.5l0,15.6l0.5,9.2l0.7,7.8l1.1,8.3l1.5,8.4l1.7,7.8l2.2,8.6l2.4,7.7l0.1,1l-0.2,1l-0.5,0.9l-0.8,0.6l-1,0.3l-1,0l-0.9,-0.4l-0.8,-0.6l-0.5,-0.9l-0.3,-1l-2.1,-7.1l-2.3,-8.7l-1.2,-5.4l-1.1,-5.6l-1.4,-8.8l-1,-8.4l-0.6,-7.7l-0.4,-9l0.1,-13.7l0.1,-2.9l0.3,-1l0.5,-0.8l0.9,-0.6l0.9,-0.3l1,0.1z" fill="#000000" />
   <path d="m228.4,536.6l-0.4,-0.2l-0.4,-0.4l-0.2,-0.5l0,-0.6l0.3,-2l1.2,-3.7l3.7,-9l6.1,-12.8l9.7,-18.6l6.2,-11.1l7.2,-12.1l5.9,-9.2l3,-4.6l8.8,-12.1l9.1,-11.5l6.8,-8l3.3,-3.7l5.5,-5.8l5.6,-5.6l8.5,-8.1l6.5,-5.7l0.5,-0.3l0.5,-0.1l0.5,0.1l0.5,0.3l0.3,0.4l0.2,0.5l0,0.6l-0.2,0.4l-0.3,0.5l-6.4,5.5l-8.5,8.1l-5.5,5.5l-5.4,5.8l-3.3,3.6l-6.7,7.9l-9.1,11.4l-8.7,12l-3,4.5l-5.8,9.2l-7.2,12.1l-6.1,11l-9.7,18.4l-6,12.7l-3.6,8.9l-1.1,3.3l-0.3,1.8l-0.1,0.5l-0.4,0.4l-0.4,0.3l-0.5,0.1l-0.6,-0.1z" fill="#000000" />
   <path d="m235.4,494.8l-0.4,-0.2l-0.3,-0.5l-0.2,-0.5l0,-0.5l0.4,-1.7l0.9,-2.4l3.4,-7.1l4.3,-7.5l6.3,-9.9l5.6,-8.2l4.9,-6.7l7.7,-9.6l8.6,-9.9l6.6,-7.1l6.6,-6.8l8.7,-8.4l5.2,-4.8l10.4,-9.1l11.8,-9.7l0.5,-0.2l0.5,-0.1l0.5,0.1l0.5,0.3l0.3,0.4l0.2,0.5l-0.1,0.6l-0.2,0.5l-0.3,0.4l-11.7,9.6l-10.3,9l-5.3,4.8l-8.6,8.3l-6.5,6.7l-6.6,7.1l-8.5,9.8l-7.6,9.5l-4.8,6.5l-5.5,8.2l-6.3,9.8l-4.2,7.4l-3.3,6.9l-0.8,2l-0.3,1.5l-0.2,0.4l-0.4,0.4l-0.4,0.3l-0.6,0.1l-0.5,-0.2z" fill="#000000" />
   <path d="m326.8,390.6l0.6,-0.1l0.5,0.2l0.4,0.3l0.3,0.5l6.8,17.9l3.3,10.1l2,7.5l2,8l1.8,9.2l1.3,8.9l0.8,6.4l0.7,11.6l0,11.1l-0.2,5l-0.2,0.5l-0.3,0.4l-0.4,0.3l-0.5,0.2l-0.5,-0.1l-0.5,-0.2l-0.4,-0.3l-0.2,-0.5l-0.1,-0.6l0.2,-4.8l0,-10.9l-0.7,-11.4l-0.7,-6.3l-1.3,-8.8l-1.8,-9.1l-1.9,-7.9l-2.1,-7.3l-3.2,-10l-6.8,-17.8l-0.1,-0.5l0.1,-0.5l0.2,-0.5l0.4,-0.3l0.5,-0.2z" fill="#000000" />
   <path d="m172.2,329.4l0.7,-0.7l0.9,-0.5l1.1,-0.2l1,0.3l1.6,0.7l1.4,0.9l1.6,1.2l1.4,1.3l1.4,1.4l4.9,5.7l9.5,12.4l4.3,5.9l4.2,6.3l3.6,6.1l2.3,4.4l1.6,3.6l2.1,5.2l1.1,3.8l0.1,1.1l-0.2,1l-0.6,0.9l-0.9,0.6l-1,0.2l-1.1,0l-1,-0.5l-0.7,-0.7l-0.5,-1l-1,-3.4l-1.9,-4.9l-1.5,-3.3l-2.2,-4l-3.4,-5.9l-4,-6l-4.2,-5.8l-8.2,-10.7l-5.8,-6.9l-2.3,-2.2l-1.2,-0.9l-0.8,-0.5l-0.9,-0.4l-0.9,-0.6l-0.7,-0.8l-0.3,-1l0.1,-1.1l0.4,-1z" fill="#000000" />
   <path d="m135,74.2l1.1,0.3l0.8,0.7l0.6,0.9l0.2,1l0,12l-0.7,12.5l-1,10.5l-6.1,46.6l-5.3,35.9l-0.4,1l-0.6,0.8l-0.9,0.6l-1.1,0.2l-1,-0.2l-1,-0.5l-0.7,-0.8l-0.3,-0.9l-0.1,-1.1l5.3,-35.9l6.2,-46.4l1,-10.3l0.6,-12.1l0,-11.7l0.1,-1l0.5,-1l0.8,-0.7l1,-0.4l1,0z" fill="#000000" />
   <path d="m225.3,318.2l-0.3,-1l0.1,-1.1l0.4,-1l0.8,-0.7l1.8,-1.4l6.8,-4.1l8,-4.2l7.7,-3.6l9.3,-4.1l8.2,-3.2l9.1,-3.4l8.1,-2.8l10.3,-3.3l10.9,-3.2l9.2,-2.6l15.5,-3.9l15.3,-3.5l11.2,-2.2l10.7,-1.9l13.3,-2.1l9.3,-1.2l13.8,-1.3l11.6,-0.9l2.1,0l1,0.1l1,0.5l0.7,0.8l0.4,1l0,1l-0.3,1l-0.7,0.9l-0.9,0.5l-1,0.3l-2,0l-11.4,0.8l-13.7,1.4l-9,1.2l-13.2,2l-10.6,1.9l-11,2.2l-15.2,3.4l-15.4,3.9l-9.1,2.5l-10.7,3.2l-10.2,3.3l-7.9,2.8l-9,3.3l-8.1,3.2l-9.1,3.9l-7.5,3.6l-7.7,4.1l-6.4,3.8l-1.6,1.2l-0.9,0.4l-1.1,0.2l-1,-0.3l-0.9,-0.6l-0.7,-0.8z" fill="#000000" />
   <path d="m224.9,295.3l1,0.2l0.9,0.7l0.6,0.8l0.2,1l0.4,3l5.7,32.7l0,1.1l-0.4,1l-0.6,0.8l-1,0.5l-1,0.2l-1,-0.2l-1,-0.5l-0.6,-0.8l-0.4,-1l-5.8,-32.9l-0.3,-3.3l0,-1.1l0.5,-0.9l0.7,-0.8l1,-0.4l1.1,-0.1z" fill="#000000" />
   <path d="m119.8,194.4l1,-0.4l1,-0.1l1,0.3l0.9,0.6l1.2,1.2l5.9,7.8l25.7,37.8l9.1,13.9l19.6,30.9l0.4,1l0,1l-0.3,1l-0.7,0.9l-0.9,0.5l-1,0.2l-1,-0.1l-1,-0.5l-0.7,-0.8l-19.5,-30.8l-9.1,-13.8l-25.7,-37.7l-5.4,-7.3l-0.9,-0.9l-0.6,-0.9l-0.3,-1l0.1,-1.1l0.4,-0.9l0.8,-0.8z" fill="#000000" />
   <path d="m190.2,254.8l1,0.5l0.7,0.8l0.5,0.9l0.1,1.1l-0.5,4.6l-1.4,9.9l-3.8,19.8l-8.3,38.5l-0.4,1l-0.7,0.8l-1,0.5l-1,0.1l-1.1,-0.2l-0.9,-0.6l-0.6,-0.8l-0.3,-1l0,-1.1l1.2,-5.5l9.9,-46.8l1.9,-12.1l0.9,-7.7l0.3,-1l0.6,-0.9l0.8,-0.6l1.1,-0.2l1,0z" fill="#000000" />
   <path d="m175.7,328.6l1,-0.5l1.1,0l1,0.2l0.9,0.6l5.5,5.9l5.8,7l4.5,6.4l5.6,8.6l7.5,12.8l5.4,10.3l4.3,9.1l2.6,6l0.2,1l-0.2,1.1l-0.5,0.9l-0.8,0.7l-1,0.4l-1,0l-1.1,-0.3l-0.8,-0.7l-0.5,-0.9l-2.4,-5.7l-4.2,-8.9l-5.3,-10l-7.4,-12.6l-5.4,-8.4l-4.4,-6.1l-5.5,-6.6l-5.3,-5.7l-0.6,-0.8l-0.3,-1.1l0.1,-1l0.5,-1l0.7,-0.7z" fill="#000000" />
   <path d="m201.9,363.1l1,0.4l0.7,0.7l0.5,1l0.2,1l-0.2,3.4l-0.5,4l-1.4,7.2l-1.7,7l-2.3,7.8l-6.4,19.3l-14.5,41.4l-12.2,35.7l-3.4,9.5l-4.7,12.1l-5.2,12.1l-0.6,0.9l-0.8,0.6l-1.1,0.2l-1,0l-1,-0.5l-0.7,-0.7l-0.5,-1l-0.1,-1l0.3,-1.1l5,-11.8l4.7,-12l3.4,-9.3l12.1,-35.6l14.5,-41.6l6.4,-19.1l2.2,-7.5l1.7,-6.7l1.3,-6.9l0.4,-3.6l0.2,-3l0.2,-1l0.6,-0.9l0.8,-0.7l1,-0.3l1.1,0z" fill="#000000" />
   <path d="m147.5,522.1l1,-0.1l1.1,0.2l0.9,0.6l0.6,0.9l2.1,4.3l2.1,5.1l2.4,7.3l2.5,10.1l1.7,10.2l1.4,11.9l1,16.7l0.6,28.1l-0.3,45.7l-0.1,6.8l-0.1,1l-0.6,1l-0.8,0.6l-1,0.4l-1.1,0l-1,-0.4l-0.8,-0.7l-0.5,-0.9l-0.2,-1.1l0.1,-6.8l0.3,-45.6l-0.6,-27.8l-1,-16.5l-1.4,-11.5l-1.6,-9.9l-1.7,-7.2l-2,-6.5l-2.9,-7.6l-1.9,-3.9l-0.3,-1l0,-1.1l0.4,-1l0.7,-0.8l1,-0.5z" fill="#000000" />
   <path d="m356.5,549.6l1,-0.3l1.1,0.1l0.9,0.4l0.8,0.7l0.8,1l1,0.9l2,1.3l2.7,1.4l4.9,2.1l6.2,2.2l10.4,3.1l18.9,4.7l12.6,2.6l4.6,0.7l6.5,0.9l7,0.5l5,0.1l4.2,-0.3l3.7,-0.3l5.1,-0.7l3.2,-0.7l1,0l1,0.3l0.9,0.6l0.5,0.9l0.3,1l-0.1,1l-0.5,1l-0.8,0.7l-0.9,0.4l-3.5,0.7l-5.5,0.8l-3.9,0.3l-4.5,0.3l-5.4,0l-7.5,-0.6l-6.6,-0.9l-11.7,-2.1l-10.9,-2.4l-14.3,-3.7l-10.7,-3.1l-6.5,-2.4l-5.2,-2.2l-3.2,-1.7l-2.5,-1.6l-1.7,-1.4l-1.4,-1.8l-0.4,-0.9l-0.2,-1l0.2,-1l0.6,-0.9l0.8,-0.7z" fill="#000000" />
   <path d="m459.1,574.6l-0.1,1l-0.4,0.9l-0.7,0.7l-0.9,0.5l-1.7,0.5l-3.2,2l-8.6,6.5l-14.1,12.6l-17.8,17.5l-13.7,14.9l-6.1,7.4l-5.1,6.7l-3,4.5l-3.5,6.3l-1.4,3.7l-0.6,1.9l-0.4,2.5l0,0.9l-0.1,1l-0.5,0.8l-0.8,0.7l-0.9,0.4l-1,0l-1,-0.3l-0.8,-0.7l-0.5,-0.8l-0.2,-1l0,-1.1l0.5,-3.5l0.7,-2.5l1.7,-4.3l2.2,-4.1l3.2,-5.3l4.8,-6.7l5.9,-7.4l6.9,-7.8l12.5,-13.2l15,-14.7l14.4,-12.9l9,-6.8l3.9,-2.4l2.7,-0.9l1,-0.1l0.9,0.2l0.9,0.6l0.6,0.8l0.3,1z" fill="#000000" />
   <path d="m110.7,672.3l0.6,-0.9l0.8,-0.6l1,-0.3l1.1,0l2.2,0.5l8.6,0l46.2,-3.8l28.2,-2.3l42,-2.5l23.9,-0.8l18.4,-0.4l37,-0.2l45.4,0.5l44,1.2l48,2.1l4,0.2l1,0.3l0.9,0.5l0.6,0.9l0.3,1l0,1.1l-0.4,0.9l-0.8,0.8l-0.9,0.5l-1.1,0.1l-3.9,-0.2l-47.9,-2.1l-43.9,-1.2l-45.4,-0.5l-36.8,0.2l-18.4,0.4l-23.7,0.8l-41.9,2.5l-28.1,2.2l-46.4,3.9l-9.4,0l-3,-0.6l-1,-0.4l-0.8,-0.7l-0.5,-1l-0.1,-1l0.2,-1.1z" fill="#000000" />
   <path d="m181.3,441l0.5,-0.2l0.6,0l0.5,0.2l0.4,0.3l14.9,16.5l13.7,14.3l11.3,11l9.9,8.9l0.3,0.4l0.2,0.5l0,0.6l-0.2,0.5l-0.3,0.4l-0.5,0.2l-0.5,0.1l-0.5,-0.1l-0.5,-0.3l-10,-9l-11.3,-11l-13.8,-14.4l-15,-16.6l-0.3,-0.4l-0.1,-0.5l0.1,-0.6l0.2,-0.4l0.4,-0.4z" fill="#000000" />
   <path d="m169.8,471l0.5,-0.2l0.5,0l0.5,0.2l0.4,0.4l16.2,17.3l16.2,17.3l14.1,14.6l8.8,8.7l0.3,0.4l0.1,0.5l0,0.6l-0.2,0.4l-0.4,0.4l-0.5,0.2l-0.5,0.1l-0.5,-0.1l-0.5,-0.3l-5.7,-5.8l-15.6,-15.9l-15.9,-16.9l-15.9,-16.9l-2.3,-2.7l-0.3,-0.4l-0.1,-0.6l0.1,-0.5l0.3,-0.4l0.4,-0.4z" fill="#000000" />
   <path d="m326.1,384.7l0.6,0l0.5,0.1l0.4,0.3l7.8,15.7l4.7,11.2l2.4,6.8l2.5,8.9l1.4,6.4l1.6,10.3l0.4,4.1l-0.1,0.8l-0.2,0.4l-0.4,0.4l-0.5,0.2l-0.5,0l-0.5,-0.1l-0.4,-0.3l-0.3,-0.5l-0.6,-4.6l-1.5,-10.1l-1.4,-6.3l-2.5,-8.7l-2.3,-6.6l-4.6,-11.1l-6.7,-13.4l-0.9,-2.3l0,-0.6l0.3,-0.4l0.3,-0.4l0.5,-0.2z" fill="#000000" />
   <path d="m251.8,421.8l0.6,0.9l0,1l-2.5,7.4l-5.1,18.9l-4.6,20.4l-4.3,22.7l-3.5,21.5l-3.2,22l-1.6,11.8l-0.4,0.9l-1,0.4l-0.5,0l-0.9,-0.7l-0.2,-1l1.6,-11.9l3.2,-21.9l3.5,-21.6l4.3,-22.8l4.7,-20.5l5,-19l2.6,-7.7l0.7,-0.8l1.1,-0.2l0.5,0.2z" fill="#000000" />
   <path d="m148.9,92l1.1,-0.1l0.8,0.7l11.8,20.6l11.2,20.1l7.7,13.8l10.4,18.9l10.2,18.5l11.4,21.2l0.1,1l-0.5,0.9l-0.5,0.2l-1,0l-0.8,-0.7l-11.4,-21.1l-10.1,-18.6l-10.4,-18.8l-7.8,-13.8l-11.2,-20.2l-11.7,-20.4l-0.2,-1l0.5,-0.9l0.4,-0.3z" fill="#000000" />
   <path d="m214.3,551.6l0.4,-0.4l0.6,0l10.7,3.4l10.9,3.2l0.4,0.3l0.2,0.5l-0.1,0.3l-0.4,0.3l-0.5,0.1l-11,-3.2l-10.8,-3.4l-0.4,-0.4l-0.1,-0.5l0.1,-0.2z" fill="#000000" />
   <path d="m237.8,557.7l-0.4,0.4l-0.5,0.1l-2.3,-0.7l-2.4,-0.1l-11.9,0.5l-5.7,0.1l-0.5,-0.1l-0.3,-0.5l0,-0.3l0.3,-0.4l0.5,-0.2l5.7,-0.2l11.8,-0.5l2.6,0.2l2.6,0.7l0.5,0.3l0.1,0.5l-0.1,0.2z" fill="#000000" />
   <path d="m211.8,558.3l0.3,-0.5l0.5,-0.1l5.5,0.4l8.4,1.4l9.4,2l0.5,0.3l0.1,0.5l-0.1,0.3l-0.3,0.4l-0.5,0l-5.4,-1.2l-9.6,-1.8l-8.1,-0.8l-0.5,-0.2l-0.2,-0.4l0,-0.3z" fill="#000000" />
   <path d="m230.1,595.7l0.3,-0.4l0.4,-0.3l0.5,-0.1l2.8,0.7l5.1,0.7l10.2,0.5l7.8,-0.1l7,-0.4l11.4,-1.4l18.1,-3.1l10.3,-2l14,-3.2l18.6,-4.9l9,-2.8l7.2,-2.5l10.7,-4.2l7.7,-3.5l0.5,-0.1l0.5,0l0.5,0.2l0.4,0.4l0.2,0.4l0.1,0.6l-0.2,0.5l-0.2,0.4l-0.5,0.4l-7.8,3.5l-10.8,4.3l-7.3,2.5l-4.5,1.5l-9.6,2.7l-13.8,3.6l-14.1,3.2l-10.3,2l-18.2,3.1l-11.5,1.4l-7.2,0.5l-8.1,0.1l-10.4,-0.5l-5.4,-0.8l-3,-1l-0.3,-0.4l-0.3,-0.4l0,-0.6l0.2,-0.5z" fill="#000000" />
   <path d="m159.2,601.1l0.5,-0.9l0.9,-0.4l24.2,-0.8l23.5,-1.4l19,-1.4l1,0.3l0.6,0.8l0.1,0.6l-0.5,0.9l-0.9,0.4l-19.1,1.5l-23.5,1.4l-24.2,0.7l-1,-0.3l-0.6,-0.9l0,-0.5z" fill="#000000" />
   <path d="m320.7,429.7l0.1,0.5l-0.1,0.5l-0.2,0.5l-0.4,0.4l-0.7,0.5l-3.7,8.4l-1.5,4.2l-1.1,4.1l-0.3,1.7l-0.3,2l-0.2,1.7l0.1,1.8l0.1,1l0.5,0.8l0.4,-0.3l1.2,-1.4l1.5,-2.4l1.6,-3.4l1.7,-4.8l1,-4l0.7,-4.1l0.1,-2.1l0,-1.6l-0.2,-0.9l-0.1,-0.3l-0.2,0l-1.5,0.9l-1.4,1.1l-0.9,0.9l-0.5,0.6l-0.4,0.3l-0.5,0.2l-0.5,0l-0.5,-0.2l-0.4,-0.3l-0.3,-0.5l-0.1,-0.5l0.1,-0.5l0.3,-0.5l0.5,-0.7l1.1,-1l1.7,-1.4l2.2,-1.2l0.8,-0.2l1.5,0l0.7,0.3l0.5,0.5l0.7,1.3l0.2,0.5l0.2,1.2l0.1,2l-0.2,2.3l-0.4,2.7l-0.6,3.2l-1.3,4.3l-1.3,3.7l-1.7,3.6l-1.6,2.7l-1.6,1.9l-0.4,0.3l-1.3,0.8l-0.5,0.2l-0.6,0l-1.2,-0.4l-0.5,-0.2l-0.4,-0.5l-0.9,-1.6l-0.2,-0.5l-0.3,-1.4l0,-2.2l0.1,-2l0.3,-2.2l1,-4l0.6,-2.2l1.6,-4.4l3.9,-9.1l0.6,-0.6l1,-0.7l0.5,-0.2l0.5,0l0.6,0.1l0.4,0.3l0.3,0.5z" fill="#000000" />
   <path d="m224.2,562.2l0.9,0.4l0.4,1l0.5,5.6l1,7.3l3.5,16.9l4.6,16.4l4.8,14.5l8.8,22.4l2.9,6.5l0.1,1.1l-0.6,0.8l-0.5,0.2l-1.1,-0.1l-0.7,-0.7l-2.9,-6.6l-8.9,-22.6l-4.8,-14.6l-4.6,-16.6l-3.6,-17.1l-1.1,-7.4l-0.4,-5.9l0.3,-1l0.9,-0.5l0.5,0z" fill="#000000" />
   <path d="m140.5,75.4l-0.2,1.1l-0.6,0.8l-0.9,0.6l-1,0.3l-3.6,0.3l-1.1,-0.2l-1,-0.5l-0.7,-0.9l-0.4,-1.1l0.1,-1.1l0.5,-1.1l0.8,-0.7l1.4,-0.9l0.8,-0.4l3.2,-0.8l7.5,-1.5l8.5,-1.5l11.4,-1.7l14.2,-1.6l16.7,-1.5l18.7,-1.1l20.2,-0.6l20.2,-0.2l20.4,0.7l13.7,0.8l12,1l11.3,1.2l10.4,1.5l8.7,1.4l12.4,2.3l7.1,1.7l1,0.4l0.8,0.7l0.4,1l0.1,1l-0.2,1.1l-0.6,0.9l-0.9,0.6l-1,0.3l-1.1,-0.1l-6.9,-1.6l-12.1,-2.3l-8.7,-1.4l-10.2,-1.4l-11.1,-1.2l-11.8,-1l-13.6,-0.8l-20.2,-0.6l-20,0.1l-20,0.6l-18.6,1.1l-16.6,1.4l-13.9,1.7l-11.2,1.6l-8.4,1.5l-7.2,1.5l-1.1,-4.6l0.2,0l1,0.5l0.7,0.7l0.5,1l0,1z" fill="#000000" />
   <path d="m349.3,71.5l1.1,0.1l1,0.5l0.7,0.7l0.5,0.9l13.1,43.5l13.2,43.3l11.6,39.7l12.3,45.4l4.7,18.7l0.1,1.1l-0.3,1l-0.6,0.9l-0.9,0.6l-1,0.2l-1.1,-0.1l-0.9,-0.5l-0.8,-0.7l-0.4,-1l-4.7,-18.7l-12.3,-45.3l-11.5,-39.5l-13.2,-43.3l-13.2,-43.6l-0.1,-1.1l0.3,-1l0.6,-0.9l0.8,-0.6l1,-0.3z" fill="#000000" />
  </g>

  <g display="none" transform-origin="50% 50%" transform="scale(-1 1)"> 
  <g  transform="translate(-390.183992 5.656792)">

   <path id="talking_head_color" d="m570.56,433.82l22.2,-75.28l-27.19,-35.96l7.89,-39.47l-64.04,-94.74c5.26,-35.96 16.67,-78.07 15.79,-118.42c84.21,-17.54 149.12,-12.28 218.42,0l57.89,190.35l-14.91,15.79l21.05,0.88c-32.16,56.73 -57.31,108.19 -71.05,170.18c-0.41,-22.54 -7.56,-45.5 -19.01,-67.02c-35.06,26.44 -65.02,54.72 -94.15,110c-18.25,-17.34 -36.09,-35.08 -52.9,-56.3z" 
   fill="#909" />
   <path id="talking_mouth_fill" d="m617.01,311.4l100.55,-27.01l68.78,-7.32l9.27,-16.1l-64.39,6.83l-56.59,16.1l-57.62,27.5z" 
   fill="#444" />
   <path d="m620,590.1l0.4,-0.5l0.4,-0.3l0.5,-0.1l2.8,0.8l5,0.7l10.2,0.5l7.9,-0.1l7,-0.5l11.4,-1.3l18.1,-3.1l10.2,-2.1l14,-3.1l18.6,-5l9.1,-2.7l7.2,-2.6l10.7,-4.1l7.6,-3.5l0.5,-0.2l0.6,0l0.4,0.2l0.4,0.4l0.3,0.5l0,0.5l-0.1,0.5l-0.3,0.5l-0.4,0.3l-7.8,3.6l-10.8,4.2l-7.3,2.6l-4.5,1.4l-9.6,2.8l-13.8,3.5l-14.1,3.2l-10.3,2.1l-18.3,3.1l-11.5,1.4l-7.2,0.4l-8,0.1l-10.4,-0.5l-5.4,-0.7l-3,-1l-0.4,-0.4l-0.2,-0.5l0,-0.5l0.1,-0.5z" />
   <path d="m549.1,595.4l0.5,-0.9l1,-0.4l24.2,-0.7l23.5,-1.4l19,-1.5l1,0.3l0.6,0.9l0,0.5l-0.4,0.9l-1,0.5l-19,1.4l-23.5,1.4l-24.3,0.8l-1,-0.4l-0.5,-0.8l-0.1,-0.6z" />
   <path d="m710.6,424l0.2,0.5l-0.1,0.6l-0.2,0.4l-0.4,0.4l-0.7,0.5l-3.7,8.5l-1.5,4.2l-1.1,4.1l-0.4,1.7l-0.3,1.9l-0.1,1.8l0,1.7l0.2,1.1l0.5,0.7l0.4,-0.2l1.2,-1.4l1.4,-2.5l1.6,-3.4l1.7,-4.8l1.1,-3.9l0.6,-4.2l0.2,-2.1l-0.1,-1.6l-0.1,-0.8l-0.2,-0.3l-0.1,0l-1.5,0.8l-1.4,1.2l-0.9,0.8l-0.5,0.6l-0.4,0.4l-0.5,0.2l-0.6,0l-0.5,-0.2l-0.4,-0.4l-0.2,-0.4l-0.1,-0.5l0.1,-0.6l0.2,-0.4l0.6,-0.7l1.1,-1.1l1.7,-1.3l2.2,-1.3l0.8,-0.2l1.4,0.1l0.8,0.2l0.5,0.6l0.7,1.2l0.2,0.5l0.2,1.2l0,2l-0.1,2.4l-0.4,2.6l-0.7,3.3l-1.2,4.2l-1.4,3.7l-1.7,3.6l-1.5,2.7l-1.6,1.9l-0.4,0.4l-1.3,0.7l-0.6,0.2l-0.6,0l-1.1,-0.3l-0.6,-0.3l-0.4,-0.4l-0.9,-1.7l-0.2,-0.5l-0.2,-1.4l-0.1,-2.1l0.2,-2.1l0.3,-2.1l0.9,-4.1l0.7,-2.1l1.5,-4.4l4,-9.1l0.5,-0.6l1.1,-0.7l0.5,-0.2l0.5,-0.1l0.5,0.2l0.4,0.3l0.3,0.4z" />
   <path d="m614.2,556.5l0.9,0.5l0.4,0.9l0.4,5.6l1.1,7.3l3.5,16.9l4.5,16.4l4.9,14.5l8.8,22.4l2.9,6.6l0,1l-0.6,0.9l-0.4,0.2l-1.1,-0.1l-0.7,-0.8l-2.9,-6.6l-8.9,-22.5l-4.9,-14.7l-4.6,-16.5l-3.5,-17.2l-1.1,-7.4l-0.5,-5.8l0.4,-1l0.8,-0.6l0.6,0z" />
   <path d="m530.5,69.8l-0.3,1l-0.6,0.9l-0.9,0.6l-1,0.3l-3.5,0.2l-1.1,-0.1l-1,-0.6l-0.8,-0.9l-0.3,-1l0,-1.2l0.5,-1l0.9,-0.8l1.3,-0.9l0.9,-0.3l3.2,-0.8l7.4,-1.6l8.6,-1.5l11.4,-1.7l14.1,-1.6l16.7,-1.5l18.8,-1.1l20.2,-0.6l20.2,-0.1l20.3,0.6l13.8,0.8l12,1l11.3,1.3l10.3,1.4l8.8,1.4l12.4,2.4l7.1,1.6l1,0.4l0.7,0.8l0.5,0.9l0.1,1.1l-0.3,1l-0.6,0.9l-0.8,0.6l-1,0.3l-1.1,-0.1l-6.9,-1.5l-12.2,-2.3l-8.6,-1.4l-10.2,-1.5l-11.1,-1.2l-11.8,-1l-13.7,-0.8l-20.2,-0.6l-19.9,0.1l-20.1,0.6l-18.6,1.1l-16.5,1.5l-14,1.6l-11.2,1.6l-8.3,1.5l-7.3,1.5l-1,-4.6l0.2,0.1l0.9,0.4l0.8,0.8l0.4,0.9l0.1,1.1z" />
   <path d="m743.6,66.1l1.1,0.1l0.9,0.4l0.8,0.8l0.5,0.9l9.9,33.1l11.9,38.8l9.3,30.8l7.3,25.7l6.2,22.4l10.2,39.5l0.1,1l-0.3,1.1l-0.7,0.8l-0.8,0.6l-1.1,0.2l-1,-0.1l-1,-0.4l-0.7,-0.8l-0.4,-1l-10.2,-39.3l-6.1,-22.4l-7.4,-25.6l-9.2,-30.7l-11.9,-38.8l-10,-33.2l-0.1,-1.1l0.2,-1l0.6,-0.9l0.9,-0.6l1,-0.3z" />
   <path d="m562.2,323.8l0.7,-0.8l0.9,-0.5l1.1,-0.1l1,0.2l1.6,0.7l1.4,0.9l1.6,1.2l1.4,1.3l1.4,1.4l4.9,5.8l9.5,12.3l4.3,6l4.2,6.2l3.6,6.2l2.3,4.4l1.6,3.5l2,5.3l1.2,3.7l0.1,1.1l-0.3,1l-0.6,0.9l-0.8,0.6l-1.1,0.3l-1,-0.1l-1,-0.5l-0.7,-0.7l-0.5,-1l-1,-3.3l-2,-4.9l-1.5,-3.3l-2.1,-4.1l-3.5,-5.9l-3.9,-6l-4.2,-5.8l-8.2,-10.6l-5.8,-6.9l-2.3,-2.3l-1.2,-0.9l-0.9,-0.5l-0.8,-0.4l-0.9,-0.5l-0.7,-0.9l-0.3,-1l0,-1l0.5,-1z" />
   <path d="m525,68.5l1,0.4l0.9,0.6l0.5,0.9l0.2,1.1l0.1,12l-0.7,12.5l-1,10.5l-6.2,46.5l-5.3,35.9l-0.3,1.1l-0.7,0.8l-0.9,0.5l-1,0.2l-1.1,-0.1l-0.9,-0.5l-0.7,-0.8l-0.4,-1l0,-1.1l5.3,-35.8l6.1,-46.4l1,-10.3l0.7,-12.2l-0.1,-11.7l0.2,-1l0.5,-0.9l0.8,-0.7l1,-0.4l1,-0.1z" />
   <path d="m614.8,289.6l1.1,0.3l0.8,0.6l0.6,0.9l0.3,1l0.6,5l5.5,30.6l0,1.1l-0.4,1l-0.7,0.8l-0.9,0.5l-1,0.2l-1.1,-0.1l-0.9,-0.6l-0.7,-0.8l-0.3,-1l-5.8,-32.9l-0.4,-3.3l0.1,-1l0.5,-1l0.7,-0.7l1,-0.5l1,-0.1z" />
   <path d="m509.8,188.8l0.9,-0.5l1.1,-0.1l1,0.3l0.9,0.6l1.2,1.2l5.8,7.9l25.7,37.7l9.2,13.9l19.6,30.9l0.4,1l0,1l-0.3,1.1l-0.7,0.8l-0.9,0.5l-1,0.3l-1.1,-0.2l-0.9,-0.5l-0.7,-0.8l-19.5,-30.8l-9.2,-13.8l-25.6,-37.6l-5.5,-7.4l-0.9,-0.9l-0.6,-0.9l-0.2,-1l0.1,-1l0.4,-1l0.8,-0.7z" />
   <path d="m580.2,249.2l1,0.4l0.7,0.8l0.4,1l0.1,1l-0.4,4.7l-1.5,9.9l-3.7,19.7l-8.3,38.5l-0.4,1l-0.8,0.8l-0.9,0.5l-1.1,0.1l-1,-0.2l-0.9,-0.6l-0.6,-0.8l-0.4,-1l0.1,-1.1l1.2,-5.5l9.8,-46.7l2,-12.2l0.8,-7.6l0.3,-1.1l0.6,-0.8l0.9,-0.6l1,-0.3l1.1,0.1z" />
   <path d="m565.7,322.9l1,-0.4l1,-0.1l1.1,0.3l0.8,0.6l5.6,5.9l5.8,7l4.5,6.3l5.6,8.6l7.5,12.9l5.4,10.2l4.3,9.1l2.5,6l0.2,1.1l-0.1,1l-0.5,0.9l-0.8,0.7l-1,0.4l-1.1,0.1l-1,-0.4l-0.8,-0.6l-0.6,-1l-2.4,-5.7l-4.2,-8.9l-5.2,-10l-7.4,-12.6l-5.5,-8.4l-4.3,-6l-5.5,-6.7l-5.3,-5.6l-0.6,-0.9l-0.3,-1l0.1,-1.1l0.5,-0.9l0.7,-0.8z" />
   <path d="m591.8,357.5l1,0.4l0.8,0.7l0.5,0.9l0.2,1.1l-0.2,3.3l-0.5,4l-1.4,7.2l-1.7,7l-2.3,7.8l-6.4,19.3l-14.6,41.5l-12.1,35.6l-3.4,9.5l-4.8,12.2l-5.1,12l-0.6,0.9l-0.9,0.6l-1,0.3l-1.1,-0.1l-0.9,-0.4l-0.8,-0.8l-0.4,-1l-0.1,-1l0.2,-1l5.1,-11.8l4.7,-12l3.3,-9.4l12.1,-35.6l14.6,-41.5l6.4,-19.1l2.2,-7.6l1.6,-6.7l1.3,-6.8l0.5,-3.7l0.2,-2.9l0.2,-1.1l0.5,-0.9l0.9,-0.6l1,-0.4l1,0.1z" />
   <path d="m537.5,516.5l1,-0.1l1,0.2l0.9,0.6l0.7,0.8l2.1,4.3l2,5.2l2.5,7.3l2.4,10l1.8,10.3l1.3,11.8l1.1,16.7l0.6,28.1l-0.3,45.7l-0.1,6.8l-0.2,1.1l-0.5,0.9l-0.8,0.7l-1.1,0.3l-1,0l-1,-0.4l-0.8,-0.7l-0.5,-0.9l-0.2,-1l0.1,-6.8l0.2,-45.6l-0.5,-27.9l-1.1,-16.5l-1.3,-11.5l-1.7,-9.9l-1.7,-7.2l-1.9,-6.4l-2.9,-7.7l-2,-3.9l-0.3,-1l0.1,-1.1l0.4,-0.9l0.7,-0.8l1,-0.5z" />
   <path d="m746.5,544l1,-0.3l1,0l1,0.4l0.8,0.7l0.8,1.1l1,0.8l2,1.4l2.7,1.4l4.8,2l6.3,2.3l10.4,3l18.9,4.7l12.6,2.6l4.6,0.8l6.4,0.8l7,0.6l5,0l4.3,-0.2l3.6,-0.4l5.2,-0.7l3.2,-0.6l1,-0.1l1,0.3l0.8,0.6l0.6,0.9l0.2,1l-0.1,1.1l-0.5,0.9l-0.7,0.7l-1,0.4l-3.4,0.8l-5.6,0.7l-3.8,0.4l-4.5,0.2l-5.4,0l-7.5,-0.6l-6.7,-0.9l-11.7,-2.1l-10.8,-2.4l-14.3,-3.7l-10.7,-3.1l-6.5,-2.3l-5.2,-2.3l-3.2,-1.6l-2.5,-1.7l-1.7,-1.4l-1.4,-1.7l-0.5,-0.9l-0.1,-1.1l0.2,-1l0.6,-0.9l0.8,-0.6z" />
   <path d="m849,568.9l0,1l-0.4,1l-0.7,0.7l-0.9,0.4l-1.7,0.5l-3.2,2l-8.6,6.5l-14.1,12.6l-17.8,17.6l-13.7,14.8l-6.2,7.4l-5,6.7l-3,4.5l-3.5,6.3l-1.5,3.7l-0.5,2l-0.4,2.5l0,0.8l-0.2,1l-0.5,0.9l-0.7,0.6l-1,0.4l-1,0l-0.9,-0.3l-0.8,-0.6l-0.5,-0.9l-0.2,-1l-0.1,-1.1l0.6,-3.4l0.7,-2.6l1.7,-4.3l2.1,-4.1l3.2,-5.2l4.9,-6.8l5.9,-7.3l6.8,-7.9l12.5,-13.2l15.1,-14.7l14.4,-12.9l8.9,-6.8l4,-2.4l2.6,-0.8l1,-0.2l1,0.3l0.8,0.5l0.6,0.9l0.3,0.9z" />
   <path d="m500.7,666.7l0.5,-0.9l0.9,-0.7l1,-0.3l1.1,0.1l2.1,0.4l8.6,0l46.3,-3.8l28.2,-2.3l42,-2.4l23.8,-0.9l18.5,-0.4l36.9,-0.2l45.5,0.6l44,1.2l48,2l3.9,0.3l1.1,0.2l0.9,0.6l0.6,0.8l0.3,1l-0.1,1.1l-0.4,1l-0.7,0.8l-1,0.4l-1,0.2l-3.9,-0.3l-47.9,-2l-44,-1.2l-45.3,-0.6l-36.8,0.2l-18.4,0.4l-23.8,0.9l-41.8,2.4l-28.1,2.3l-46.5,3.8l-9.4,0l-3,-0.6l-0.9,-0.4l-0.8,-0.7l-0.5,-0.9l-0.2,-1.1l0.3,-1z" />
   <path d="m571.3,435.4l0.5,-0.2l0.5,0l0.5,0.1l0.4,0.4l15,16.5l13.7,14.2l11.3,11l9.9,9l0.3,0.4l0.2,0.5l0,0.5l-0.2,0.5l-0.4,0.4l-0.4,0.3l-0.5,0.1l-0.6,-0.1l-0.4,-0.3l-10,-9.1l-11.3,-11l-13.9,-14.4l-15,-16.5l-0.2,-0.5l-0.1,-0.5l0.1,-0.5l0.2,-0.5l0.4,-0.3z" />
   <path d="m559.7,465.4l0.5,-0.2l0.6,0l0.5,0.2l0.4,0.3l16.1,17.3l16.3,17.3l14.1,14.6l8.7,8.7l0.3,0.4l0.2,0.6l-0.1,0.5l-0.2,0.5l-0.3,0.4l-0.5,0.2l-0.6,0l-0.5,-0.1l-0.4,-0.3l-5.8,-5.7l-15.6,-16l-15.8,-16.9l-15.9,-16.8l-2.4,-2.7l-0.2,-0.5l-0.1,-0.5l0.1,-0.5l0.2,-0.5l0.4,-0.3z" />
   <path d="m716.1,379l0.5,0l0.5,0.1l0.5,0.4l7.7,15.6l4.7,11.2l2.4,6.9l2.5,8.9l1.4,6.4l1.6,10.2l0.4,4.1l0,0.8l-0.2,0.5l-0.4,0.3l-0.5,0.3l-0.5,0l-0.6,-0.2l-0.4,-0.3l-0.3,-0.4l-0.5,-4.7l-1.6,-10.1l-1.3,-6.3l-2.5,-8.6l-2.3,-6.7l-4.7,-11.1l-6.6,-13.3l-1,-2.4l0.1,-0.5l0.2,-0.5l0.4,-0.4l0.5,-0.2z" />
   <path d="m641.7,416.2l0.7,0.8l-0.1,1l-2.5,7.5l-5,18.8l-4.6,20.4l-4.3,22.7l-3.5,21.6l-3.2,21.9l-1.6,11.8l-0.5,1l-0.9,0.4l-0.6,-0.1l-0.8,-0.6l-0.2,-1l1.6,-11.9l3.2,-22l3.4,-21.6l4.4,-22.8l4.6,-20.5l5.1,-19l2.6,-7.7l0.7,-0.8l1,-0.1l0.5,0.2z" />
   <path d="m538.9,86.3l1,0l0.9,0.6l11.8,20.6l11.2,20.1l7.7,13.9l10.4,18.8l10.1,18.5l11.4,21.2l0.2,1l-0.6,0.9l-0.4,0.3l-1.1,-0.1l-0.8,-0.6l-11.4,-21.2l-10.1,-18.5l-10.4,-18.8l-7.7,-13.9l-11.2,-20.1l-11.7,-20.5l-0.2,-1l0.4,-0.9l0.5,-0.3z" />
   <path d="m604.3,545.9l0.4,-0.3l0.5,0l10.7,3.4l11,3.1l0.4,0.3l0.1,0.5l0,0.3l-0.4,0.4l-0.5,0l-11,-3.2l-10.8,-3.4l-0.4,-0.3l-0.1,-0.6l0.1,-0.2z" />
   <path d="m627.8,552.1l-0.4,0.4l-0.5,0l-2.4,-0.7l-2.4,-0.1l-11.8,0.5l-5.7,0.2l-0.5,-0.2l-0.3,-0.5l0,-0.2l0.2,-0.5l0.5,-0.2l5.7,-0.1l11.9,-0.5l2.6,0.1l2.6,0.7l0.4,0.3l0.1,0.5l0,0.3z" />
   <path d="m601.8,552.6l0.3,-0.4l0.5,-0.2l5.4,0.5l8.5,1.3l9.4,2.1l0.4,0.3l0.2,0.5l-0.1,0.2l-0.4,0.4l-0.5,0.1l-5.3,-1.3l-9.6,-1.7l-8.1,-0.8l-0.5,-0.2l-0.2,-0.5l0,-0.3z" />
   <path d="m716.8,384.9l0.5,0l0.5,0.1l0.4,0.4l0.3,0.4l6.9,18l3.2,10l2.1,7.5l1.9,8l1.9,9.2l1.3,8.9l0.7,6.5l0.7,11.5l0.1,11.2l-0.3,4.9l-0.1,0.5l-0.3,0.5l-0.4,0.3l-0.5,0.1l-0.6,0l-0.5,-0.2l-0.3,-0.4l-0.3,-0.5l0,-0.5l0.2,-4.8l0,-11l-0.7,-11.4l-0.7,-6.3l-1.4,-8.8l-1.8,-9l-1.8,-7.9l-2.1,-7.4l-3.2,-9.9l-6.8,-17.8l-0.1,-0.6l0.1,-0.5l0.2,-0.4l0.4,-0.4l0.5,-0.2z" />
   <path d="m749.9,545.8l-0.2,0.7l-0.4,0.6l-0.6,0.4l-0.7,0.2l-2.2,0.2l-22.7,3.9l-0.7,0l-0.6,-0.3l-0.6,-0.5l-0.3,-0.6l-0.2,-0.7l0.2,-0.7l0.3,-0.6l0.6,-0.5l0.7,-0.2l22.7,-3.9l2.5,-0.2l0.7,0l0.6,0.4l0.5,0.5l0.3,0.6l0.1,0.7z" />
   <path d="m646.3,655.4l0.4,-0.4l0.6,-0.3l0.6,0l0.5,0.1l1.7,0.8l1.6,0.3l4,0.1l3.3,-0.3l6.3,-1l10.9,-2.6l10.8,-3.3l17.3,-5.9l20,-7.5l22.1,-9.1l16.9,-7.5l10.6,-5.2l5.6,-2.9l9.9,-5.5l8.4,-4.9l11.9,-7.4l7.5,-5.1l0.5,-0.3l0.6,0l0.6,0.1l0.5,0.3l0.3,0.5l0.2,0.6l-0.1,0.6l-0.2,0.5l-0.4,0.5l-7.6,5.1l-12.1,7.5l-8.4,5l-9.9,5.5l-5.7,2.9l-10.7,5.3l-17,7.6l-22.2,9.1l-20.1,7.5l-17.5,6l-10.8,3.3l-11.3,2.7l-6.4,1l-3.6,0.3l-2.5,0l-2,-0.1l-2.1,-0.4l-2.3,-1l-0.5,-0.3l-0.3,-0.5l-0.2,-0.6l0,-0.6l0.3,-0.5z" />
   <path d="m714.6,540.7l0,-1.1l0.3,-1l0.7,-0.8l0.9,-0.5l1.5,-0.6l3,-0.6l2.8,-0.5l5,-0.6l4.4,-0.3l4.5,-0.1l4.4,0.1l4.1,0.3l2.5,0.4l3.4,0.7l2.3,0.8l0.6,0.3l1.6,0.9l0.8,0.9l0.9,1.1l0.5,1.6l0.1,1.2l-0.3,1.5l-0.6,1.3l-0.5,0.7l-1.6,1.8l-1.5,1.2l-1.2,0.6l-1,0.4l-1.1,0l-1,-0.4l-0.8,-0.7l-0.5,-0.9l-0.2,-1.1l0.2,-1l0.6,-0.9l0.8,-0.7l0.9,-0.5l0.8,-0.6l0.6,-0.8l-0.4,-0.2l-1.9,-0.7l-2.7,-0.5l-2,-0.3l-3.8,-0.3l-4.1,-0.1l-4.2,0.1l-4.1,0.3l-4.7,0.6l-2.6,0.4l-2.3,0.5l-1,0.4l-1.1,0.2l-1,-0.2l-0.9,-0.5l-0.7,-0.8l-0.4,-1z" />
   <path d="m738.2,445.4l0.9,0.5l0.8,0.7l0.4,1l0.1,1l-0.2,10l0.3,14.4l0.5,7.9l1,9.8l1.4,9.6l1.8,9.3l1.3,6l2.5,9.6l2.6,8.5l0.1,1.1l-0.2,1l-0.5,0.9l-0.9,0.7l-1,0.3l-1,0l-1,-0.4l-0.8,-0.7l-0.5,-1l-0.4,-1l-2.3,-7.8l-2.5,-9.7l-1.4,-6.2l-1.8,-9.6l-1.5,-9.7l-0.4,-3.6l-0.6,-6.6l-0.5,-8.1l-0.3,-14.7l0.2,-10.5l0.3,-1l0.6,-0.9l0.9,-0.6l1,-0.3l1.1,0.1z" />
   <path d="m618.4,530.9l-0.5,-0.2l-0.3,-0.4l-0.2,-0.5l0,-0.5l0.3,-2.1l1.2,-3.6l3.6,-9.1l6.1,-12.8l9.8,-18.6l6.1,-11l7.3,-12.2l5.8,-9.2l3.1,-4.6l8.7,-12.1l9.2,-11.5l6.8,-8l3.3,-3.7l5.5,-5.8l5.6,-5.6l8.5,-8.1l6.5,-5.7l0.5,-0.2l0.5,-0.1l0.5,0.1l0.5,0.2l0.3,0.5l0.2,0.5l0,0.5l-0.2,0.5l-0.4,0.4l-6.4,5.6l-8.4,8l-5.5,5.6l-5.5,5.7l-3.2,3.7l-6.8,7.8l-9,11.5l-8.7,12l-3,4.5l-5.8,9.1l-7.2,12.1l-6.2,11l-9.6,18.5l-6.1,12.6l-3.6,8.9l-1.1,3.4l-0.2,1.7l-0.2,0.5l-0.3,0.4l-0.4,0.3l-0.6,0.1l-0.5,-0.1z" />
   <path d="m625.4,489.2l-0.5,-0.3l-0.3,-0.4l-0.1,-0.5l0,-0.6l0.4,-1.7l0.9,-2.3l3.4,-7.1l4.2,-7.5l6.4,-10l5.6,-8.2l4.9,-6.7l7.7,-9.6l8.5,-9.8l6.6,-7.2l6.7,-6.8l8.6,-8.3l5.3,-4.9l10.4,-9l11.8,-9.7l0.4,-0.3l0.6,0l0.5,0.1l0.4,0.3l0.4,0.4l0.1,0.5l0,0.5l-0.2,0.5l-0.3,0.4l-11.7,9.6l-10.4,9l-5.2,4.8l-8.6,8.3l-6.6,6.7l-6.5,7.1l-8.5,9.8l-7.6,9.5l-4.8,6.6l-5.6,8.1l-6.3,9.9l-4.1,7.3l-3.3,6.9l-0.8,2.1l-0.3,1.4l-0.2,0.5l-0.4,0.4l-0.5,0.2l-0.5,0.1l-0.5,-0.1z" />
   <path d="m617.7,311.2l-0.5,-1l-0.1,-1l0.2,-1.1l0.6,-0.9l1,-1.1l0.7,-0.6l6.1,-3.3l9.3,-4.3l12.3,-5.1l26,-10l12.1,-4.3l8.6,-2.8l7.2,-2.2l7.4,-2.2l13.2,-3.5l9.3,-2.2l10.9,-2.3l9,-1.6l5.2,-0.8l11.7,-1.4l8.4,-0.7l7,-0.4l10.1,-0.4l5.8,0l1.1,0.2l0.9,0.6l0.6,0.8l0.4,1l0,1.1l-0.4,1l-0.7,0.8l-1,0.5l-1,0.1l-5.6,0l-9.9,0.4l-6.9,0.4l-8.2,0.7l-11.5,1.4l-5.1,0.8l-8.7,1.5l-10.8,2.3l-9.1,2.2l-13.1,3.4l-7.3,2.1l-7.1,2.2l-8.4,2.8l-12,4.2l-21.3,8.1l-16.6,6.9l-9.1,4.2l-5.3,2.9l-0.7,0.7l-0.8,0.7l-1.1,0.3l-1,0l-1,-0.4l-0.8,-0.7z" />
   <path d="m623.8,313.2l-0.3,1l-0.7,0.8l-0.9,0.5l-1.1,0.2l-2.9,0l-1.1,-0.2l-0.9,-0.6l-0.7,-0.9l-0.3,-1.1l0.2,-1.2l0.5,-1l1,-1.1l1,-0.8l3.1,-1.5l5.8,-2.3l7.6,-2.6l9.4,-3l11.4,-3.2l10,-2.6l13.3,-3.1l25.3,-5.4l17.5,-3.3l13.3,-2.1l15.2,-2.2l10.4,-1.2l10,-0.9l9.8,-0.7l14.9,-0.8l8.6,-0.2l2.7,0l1,0.2l0.9,0.5l0.7,0.9l0.3,1l0,1l-0.3,1l-0.7,0.8l-0.9,0.6l-1.1,0.1l-2.6,0l-8.4,0.2l-14.7,0.8l-9.8,0.7l-9.8,0.9l-10.2,1.2l-15.1,2.1l-13.2,2.2l-17.3,3.2l-25.2,5.4l-13.1,3.1l-9.9,2.5l-11.3,3.2l-9.2,2.9l-7.4,2.5l-5.5,2.2l-1.3,-3.1l0.9,0.5l0.7,0.8l0.4,1l0,1.1z" />
   <path d="m807.2,276.8l0.8,0.7l0.4,1l0.1,1l-0.3,1.1l-4.7,9.2l-15,26.4l-6.9,12.9l-7.6,15.4l-6,12.9l-3.9,9.3l-2.9,7l-4.4,11.7l-4,12l-3.8,12.6l-3,10.9l-2.3,8.9l-1.6,6.9l-2.1,10.2l-0.4,1l-0.7,0.8l-0.9,0.5l-1,0.2l-1.1,-0.2l-0.9,-0.5l-0.7,-0.8l-0.3,-1l0,-1.1l2.1,-10.4l1.7,-7l2.3,-9.1l3,-11l3.8,-12.7l4.1,-12.2l4.5,-11.9l2.9,-7.1l4,-9.4l6,-13.1l7.8,-15.6l6.9,-13l15.1,-26.5l4.5,-8.8l0.6,-0.9l0.9,-0.6l1,-0.3l1.1,0.1l0.9,0.5z" />
   <path d="m800.8,259.6l0.3,1l0,1l-0.3,1l-0.7,0.8l-0.9,0.8l-6.1,6.7l-5.1,6.3l-0.8,0.7l-1,0.4l-1,0.1l-1,-0.4l-0.9,-0.6l-0.5,-0.9l-0.3,-1l0.2,-1.1l0.5,-1l5.2,-6.5l6.5,-7.1l1.3,-1.1l0.9,-0.5l1,-0.2l1.1,0.2l0.9,0.6l0.7,0.8z" />

  </g>
  </g>

 </g>
</svg>