<svg xmlns="http://www.w3.org/2000/svg"
>
  <defs>

    <g id="mustard" fill-opacity="0.6">

      <path d="M69.5 70l5.4 17.3l4.9 13.8l3.8 10l-19.4 7.4l-3.8-10.1L55.2 93.8L49.7 76.1Z" />
      <path d="M54 62.8l8.8-7.5L65 53.7l2.9-1.8l4.2-2.2l10-4.8L91 63.7l-9.9 4.7l-2.9 1.5l-2.4 1.5l-8.3 7.1Z" />
      <path d="M72.2 84.8L78.6 105l3.7 10.5l3.5 9.2l-17.7 6.7l-3.5-9.2l-3.9-11L54.1 90.3Z" />
      <path d="M51 71.6l7.8-9.3l2.9-3.1l3.7-3.7l7.3-6.7L85.9 63.1l-7.1 6.7l-3.2 3.1l-1.7 1.8L66 84Z" />
      <path d="M51.8 70.7l7.4-7.8L62.3 60l2-1.8l3.3-2.7l2.9-2.3l3.2-2.3l3-2.1l1.8-1.2l1.9-1.2l2-1.2l2-1.1l3.4-1.8l2.1-1.1l2.1-1l2.1-.9l2.1-.9l3.5-1.3l2.1-.7l2.1-.6l2-.6l2-.5l3.2-.7l1.9-.3l1.9-.3l1.8-.2l1.7-.2l2.9-.1l2.8-.1l2.5 .1l1.9 .1l1.6 .1l2.2 .3l9.3 1.5l-3 18.2l-9.2-1.6l-1.1-.1l-2.6-.2h-4l-1.9 .1l-2.6 .3l-2.8 .4l-2.4 .6l-1.5 .3l-1.6 .5l-1.5 .5l-1.7 .5L103 55.5l-1.7 .7L99.6 57l-1.8 .8L95 59.2l-3.4 1.9l-1.7 1l-3.1 2l-3.9 2.8l-2.6 2l-2.4 1.9l-2.6 2.1l-2.8 2.7l-7.3 7.7Z" />
      <path d="M89 132.2l4.6-5.5l.5-.5l1.4-1.4l2.2-1.8l3.3-2.4l2.6-1.8l2.6-1.6l2.1-1.3l3.3-1.8l1.9-1l2.3-1.1l3-1.4l2.2-.9l1.2-.5l1.8-.6l3-1l2.3-.6l6.7-1.7l3.2 13l-6.6 1.7l-1.8 .5l-2.5 .8l-1.5 .5l-.9 .4l-1.8 .7l-2.6 1.2l-1.9 .9l-2.7 1.4l-2.8 1.7l-2.4 1.4l-2.4 1.6l-2.3 1.7l-2.5 2l-.8 .7l-4.3 5.2Z" />
      <path d="M89.8 131.9l5.9-6.3l1-.9l2.1-1.7l2.8-1.9l2.9-1.7l2.7-1.6l3.1-1.7l2.9-1.5l3.9-1.8l2.1-.9l2.1-.9l3.7-1.4l2.3-.8l2.4-.8l2.4-.8l2.3-.7l2.4-.7l2.5-.6l3.9-.8l2.4-.5l2.3-.4l2.3-.3l2.3-.3l3.5-.3l3.5-.1l2.9-.1l2.3 .1l1.8 .1l2 .2l8 1l-1.9 16l-8.6-1.1l-2.1-.1h-4.2l-2.8 .1l-2.9 .2l-1.7 .3l-1.9 .2l-2 .4l-2 .4l-3.5 .7l-2 .5l-2.1 .6l-2.1 .6l-2 .7l-2.1 .7l-2 .7l-3.2 1.3l-3.7 1.6l-3.4 1.6l-2.6 1.2l-2.7 1.5l-2.3 1.4l-3.7 2.3l-1.9 1.4l-5.4 5.8Z" />

    </g>

    <g id="outline">

      <path d="M45.7 48.1l.4-.2l.4-.1H47l.3 .3l.9 .7l.3 .3l5.8 10l.2 .5l-.1 .4l-.1 .4l-.3 .3l-.4 .2l-.4 .1l-.4-.1l-.4-.3l-.3-.3l-5.6-9.7l-.7-.6l-.3-.3l-.2-.4v-.5l.2-.4Z" />
      <path d="M49.8 84.9l.8 .1l.6 .6l6.3 17.2l6.1 16.4l3 7.8l.1 .8l-.6 .7l-.4 .2l-.8-.2l-.6-.6l-3-7.9l-6.1-16.4L48.9 86.5l-.1-.8l.6-.7Z" />
      <path d="M50.5 88.5l-.8-.2l-.5-.7l-.5-2.2l-.2-2.1l.1-2.2l.2-2.6l.4-2.2l.6-2.6l.9-2.7l.8-2L53 66.1l1.7-2.9l1.7-2.3l2.9-3.6l3.1-3.5L65.5 51l.8-.2l.8 .2l.3 .4l.1 .8l-.1 .4l-3.2 3l-3.1 3.3l-2.8 3.5l-1.6 2.2l-1.6 2.7L53 71.9l-.8 2.5l-.6 2.4l-.3 2.1L51 81.2l.1 3.9l.5 1.9l-.1 .8l-.6 .6Z" />
      <path d="M67.1 52.4l-.2-.1l-.1-.3v-.4l.4-.8l.1-.2l1.1-1.1L70 48.2l1.7-1.3l1.8-1.1l2.3-1.4L79 42.7l3.1-1.4l1.9-.9l2.1-.9l2.2-.8l2.3-.8l3.9-1.3l2.4-.7l2.4-.7l2.5-.5l4.1-.8l2.5-.3l4.1-.4l2.4-.2l2.4-.1h4.4l3.7 .2l3 .3l2.5 .3l1.8 .3l1.3 .3l1.2 .3l.2 .1l.2 .1l.1 .3v.2l-.1 .2l-.1 .2l-.2 .2l-.2 .1l-.3-.1l-1.1-.2l-1.3-.3l-1.8-.3l-2.4-.3l-3-.3l-3.5-.2h-4.4l-2.3 .1l-2.4 .2l-4 .4l-2.5 .3l-4.1 .8l-2.4 .5l-2.4 .6l-2.3 .7L91 39.2L88.8 40l-2.2 .8l-2 .9l-2 .9L79.7 44l-3.2 1.7L74.2 47l-1.7 1.1l-1.6 1.2l-1.5 1.3l-1 .9l-.3 .6l-.1 .2l-.2 .2h-.5Z" />
      <path d="M134.6 35.8l.6-.6l.8-.2l1.9 .3l.6 .4l2.1 1.8l1.3 1.6l3.2 4.6l5.4 8.9l9 17.1l7.3 15.8l3.6 9.1l3.4 9.7l2.9 9.8l-.1 .9l-.6 .6l-.4 .1l-.8-.2l-.5-.7l-2.9-9.8l-4.8-13.5L160 76.4l-8-15.8l-7-12.4l-3.8-5.9l-2.5-3.1l-1.6-1.5l-1.5-.2l-.8-.5l-.3-.8Z" />
      <path d="M47.8 49.3l-.4-.1l-.4-.1l-.3-.3l-.2-.4l-.3-1l-.1-.5l.2-1.2l.4-1.1l.5-1.1l.9-1.7L49.2 40l1.5-2L53 35.3l2.8-3l2.8-2.7L60.4 28l2-1.6l2.1-1.6l3.8-2.6l4.2-2.5L75 18.3L77.6 17l2.6-1.2l2.6-1.1l4.3-1.5l2.5-.7l2.4-.6l2.3-.5l2.3-.3l3.3-.2l2 .1l3.1 .5l2.4 .7l1.9 .7l1.5 .7l1 .8l1 .9l.3 .4v.5l-.1 .4l-.2 .4l-.3 .2l-.4 .2h-.4l-.4-.2L111 17l-.8-.8l-.7-.4l-1.2-.6l-1.7-.7l-2.2-.6l-2.8-.4l-1.7-.1l-3.2 .1l-2 .3l-2.2 .5l-2.3 .6l-2.4 .7L83.7 17l-2.5 1.1l-2.5 1.1l-2.5 1.3l-2.5 1.4l-4.1 2.4l-1.5 1l-4.2 3L62 29.9l-1.8 1.6L57.5 34l-2.7 2.9l-2.1 2.6l-1.4 1.9l-1.1 1.7l-.8 1.5l-.4 .9l-.3 .8l-.1 .7l.3 .7v.4l-.1 .4l-.2 .4l-.4 .2Z" />
      <path d="M112.1 13.8l.4 .1l.3 .3l.2 .4l.1 .4l-.1 1l.1 1l.2 1.4l.6 2.6l.4 1.1l1.9 4.2l1 1.9l.2 .4v.5l-.2 .4l-.3 .3l-.3 .2l-.5 .1l-.4-.1l-.4-.2l-.2-.3l-.4-.7l-1.2-2.4L112 23.1l-.4-1.3l-.4-1.5l-.3-1.4l-.3-1.6V14.9l.1-.4l.3-.4l.3-.2l.4-.2Z" />
      <path d="M68.2 50v.5l-.1 .2l-.2 .2l-.4 .3l-.2 .1h-.5l-.2-.1l-.2-.2v-.7l.5-.8L68 48.4l1.3-1.3l2.4-2l2.9-2.2L78 40.5l2.8-1.8l1.5-.9l4.4-2.6l2.9-1.4l1.8-.9l2.9-1.3l3.4-1.4l3.1-1.1l2.2-.7l1.3-.3l2-.3l1.5-.2h2l.6 .1l.3 .1l.2 .1l.1 .2v.5l-.1 .2l-.2 .2l-.2 .1h-.3l-.5-.1h-1.8l-1.5 .2l-1.8 .3l-1.2 .3l-2.2 .6l-3 1.1l-3.3 1.4L92 34.2l-4.6 2.3L83.1 39l-1.5 .9l-2.8 1.8L75.4 44l-1.9 1.6l-3.2 2.6L69 49.4l-1 1l-.8-.7l.1-.1h.3l.2 .1l.2 .1Z" />
      <path d="M31.3 122.7l.5-.6l.9-.1l2.3 .6l17.6 2l11.9 1.6l12.8 2.5l8.8 2.3l2.8 .8l7.3 2.6l7.3 3.3l3 1.5l6.6 4l4.2 2.9l2.5 2.1l.2 .4l-.2 .8l-.3 .4l-.8 .2h-.4l-2.5-2l-4-2.7l-6.5-3.9l-2.9-1.5l-7.2-3.2l-7.1-2.5l-2.7-.9l-8.7-2.2l-12.6-2.4L52.3 127l-17.7-2l-2.5-.6l-.7-.5l-.2-.8Z" />
      <path d="M100.8 138.8l-.1-.9l.5-.6l4.1-2.6l5.6-2.9l9.9-4.3l8.7-3.2l13.8-4l12.8-2.9l12.4-2l10.7-1l6.5-.2l7.3 .3l5.7 .7l.7 .5l.3 .8l-.1 .4l-.6 .6l-.4 .2l-5.8-.8l-7.1-.3l-6.3 .2l-10.6 1l-9.6 1.5l-15.3 3.4l-13.7 4l-8.5 3.1L112 134l-5.5 2.9l-3.9 2.4l-.8 .2l-.8-.4Z" />
      <path d="M68.8 80.6h.5l.2 .1l.1 .2l1.8 3.5l1.9 4l3.8 9.3l3.3 8.4l3.5 9l3.7 9.5l1.5 4.1v.5l-.1 .2l-.2 .2l-.3 .1h-.2l-.2-.1l-.2-.2l-.1-.2l-1.6-4.1l-3.6-9.5l-3.5-9l-3.3-8.4L72 89l-1.9-4l-1.7-3.4l-.1-.2v-.3l.1-.2l.2-.2Z" />
      <path d="M68.9 81.8l-.2-.1l-.2-.1l-.2-.2v-.2l-.1-.7l.1-.4l.3-.5l.9-1.2l1-1.2l.6-.7l2.1-2.1l2.4-2.1L77 71.1l2.9-2.2l1.9-1.4l2-1.4l2.1-1.5l2.3-1.4l4.3-2.4l2.6-1.5L99.9 57l2.9-1.3l5.1-2l3-1.1l3.1-1l2.9-.8l3-.8l4.7-.7l2.8-.4l2.6-.1l2.5-.1l2.5 .2l3.6 .6l3.5 1.1l2.8 1.1l2.2 1l1.6 1l1.1 .8l.7 .6l.4 .4l.1 .2l.1 .2l-.1 .2l-.1 .3l-.1 .1l-.3 .1l-.2 .1l-.2-.1l-.2-.1l-1-.9l-1-.7l-1.5-.9l-2-1.1l-2.8-1l-3.3-1l-3.5-.6l-2.3-.2l-2.5 .1l-2.5 .1l-2.7 .4l-4.7 .7l-2.8 .7l-2.9 .9l-3 1l-3 1l-5.1 2l-2.8 1.3l-4.7 2.3L93.1 62L89 64.4l-2.3 1.4l-2.1 1.4l-2 1.4L80.7 70l-2.8 2.2l-1.4 1.2l-2.4 2.1l-2 2l-1.5 1.8l-.8 1l-.1 .3v.7l-.2 .2l-.1 .2l-.3 .1Z" />
      <path d="M80.4 86.5l.2-.1h.3l.2 .1l.2 .2l.4 .6l.8 1.5l.6 1.6l3.6 9.9l2.3 6.6v.4l-.2 .2l-.2 .2l-.2 .1h-.2l-.3-.1l-.2-.2l-.1-.2l-2.3-6.5l-3.5-9.9l-.6-1.5L80.5 88l-.4-.5l-.1-.2V87l.1-.2l.1-.2Z" />
      <path d="M80.8 87.3l.2-.2l.2-.1h.3l.2 .1L84 88.3l2.1 .8l3.4 1.2l.2 .1l.2 .2l.1 .2V91l-.1 .3l-.1 .2l-.2 .1l-.3 .1l-.2-.1l-1.2-.3l-3-1.1l-1.5-.7L81 88.3l-.2-.1l-.1-.2v-.5Z" />
      <path d="M88.7 92l-.2-.1l-.2-.1l-.1-.3l-.1-.2l.1-.7l.1-.8l.5-1.4l.8-1.8l2.5-4.8l.1-.2l.2-.1h.5l.2 .1l.2 .2l.1 .2v.3l-.1 .2l-2.4 4.7l-.8 1.7l-.4 1.3l-.1 .6l-.1 .5v.2l-.1 .3l-.2 .1L89 92Z" />
      <path d="M92.9 81.4h.2l.3 .1l.2 .2l.1 .2l3.4 9.5l3 8.3l.1 .3l-.1 .2l-.1 .2l-.2 .2l-.2 .1h-.2l-.3-.1l-.2-.2l-.1-.2l-3-8.3l-3.4-9.5l-.1-.3l.1-.2l.1-.2l.2-.2Z" />
      <path d="M96.3 81.3l.2-.1l.3 .1l.2 .1l.1 .2l3.8 6.8l2 3.1l1.5 2.1l.4 .5l.7 .8l.7 .6l.7 .6l.7 .3l.4 .2h.5l.3-.1l.5-.4l.4-.6l.3-.8l.2-.8l.2-1.2V91.4l-.2-1.3l-.2-.8l-.5-1.4l-.3-.8l-.7-1.5l-1-1.6l-.9-1.4L105.3 81l-.9-.9l-.9-.9l-2.8-1.9l-.2-.2l-.1-.2v-.2l.1-.3l.1-.2l.2-.1l.2-.1h.3l.2 .1l2.8 2l1.1 .9l1 1l1.3 1.7l1 1.5l1 1.8l.7 1.5l.4 .9l.5 1.5l.2 .9l.3 1.4v1.5l-.1 .7l-.1 .7l-.2 1l-.4 1.1l-.6 .8l-.8 .7l-.2 .1l-.7 .2h-.9l-.8-.3l-.8-.4l-.9-.7l-.8-.7l-.7-.8l-.9-1.1l-1.2-1.7l-2-3.2l-3.8-6.8l-.1-.2v-.3l.1-.2l.2-.2Z" />
      <path d="M113 77l-.1-.1l-.1-.3v-.2l.1-.2l.2-.5l.2-.4v-.2l-.1-.1l-.5-.1h-.5l-.6 .1l-.7 .2l-.6 .3l-.6 .4l-.6 .5l-.3 .3l-.4 .5l-.1 .3v.1l.2 .2l.6 .2l1.7 .2l3.4 .5l2.5 .5l1.4 .4l1.8 .6l.7 .3l.9 .5l.9 .6l.6 .3l.8 .8l.8 .8l.4 .8l.4 .9l.2 1v.6l-.1 1l-.4 1l-.4 .8l-.6 .8l-.8 .9l-.8 .5l-1.4 .7l-1.5 .4h-1.1l-1.2-.2l-.9-.4l-1.2-1l-.6-.6l-.5-.6l-.4-.5l-.4-.8l-.2-.3V88l.2-.2l.2-.2l.2-.1h.2l.3 .1l.2 .2l.1 .2l.1 .3l.3 .6l.7 .9l.6 .5l1 .8l.6 .2l.8 .2l.9-.1l1.2-.2l1.1-.6l.6-.4l.6-.7l.5-.7l.4-.6l.2-.8l.1-.7v-.4l-.2-.7l-.3-.7l-.3-.6l-.6-.6l-.7-.7l-.5-.3l-.8-.5l-.9-.4l-.5-.3l-1.7-.6l-1.3-.3l-2.5-.5l-3.3-.5l-1.8-.3l-.8-.2l-.2-.1l-.5-.4l-.3-.4l-.1-.7V77l.3-.5l.5-.7l.5-.4l.6-.6l.8-.5l.8-.4l.9-.2l.7-.2h.8l.9 .2l.3 .2l.4 .3l.2 .5l.1 .6v.3l-.3 .6l-.3 .6L114 77l-.3 .1l-.2 .1h-.2Z" />
      <path d="M124.4 69.6l.2-.1l.2-.1h.2l.3 .1l.7 .5l.9 1.1l.9 1.3l1 1.8l1 2.2l.8 1.9l.7 2.4l1.5 6.3l.2 1.1v.5l-.2 .1l-.2 .2h-.5l-.2-.1l-.2-.2v-.2l-1.5-6.6l-1-3.1l-.7-1.8l-1-2.1l-.9-1.7l-.9-1.2L125 71l-.5-.3l-.2-.2l-.1-.2v-.5Z" />
      <path d="M137.7 64.8l.3 .1l.2 .1l.1 .2l.1 .2l.3 1.6l.3 4.2l.5 10.9l.5 5.1v.3l-.1 .2l-.2 .2l-.2 .1H139l-.2-.2l-.1-.2l-.1-.2l-.5-5.2l-.5-10.9l-.3-4.1l-.3-1.5v-.3l.1-.2l.2-.2l.2-.1Z" />
      <path d="M137.5 64.3h.5l.2 .2l.1 .2l2.7 6.2l3.8 9.8l2.1 4.9l.3 .6l.1 .2v.3l-.1 .2l-.2 .2l-.2 .1h-.3l-.2-.1l-.2-.1l-.1-.2l-.3-.6l-2.2-5l-3.8-9.8l-2.6-6.1l-.1-.2v-.3l.1-.2l.2-.2Z" />
      <path d="M137.5 80.1l.1-.2l.1-.2l.2-.2l.2-.1h.6l.6-.1l.6-.2l1.6-.8l.8-.5h.7l.2 .2l.2 .2v.5l-.2 .2l-.1 .2l-.4 .2l-1.5 .7l-.8 .4l-.7 .2l-.7 .2l-.7 .1l-.3-.1l-.2-.1l-.2-.1l-.1-.3Z" />
      <path d="M143.3 65.5l.2-.1h.3l.2 .1l.1 .2l.7 1.1l.8 1.6l2.4 6.1l2.4 7l.6 2l.4 1.9v.3l-.1 .2l-.1 .2l-.2 .1l-.3 .1l-.2-.1l-.2-.1l-.2-.2l-.1-.2l-.2-1.2l-.7-2.6L146.7 75l-2.4-6.1l-.8-1.4l-.5-1l-.1-.2l-.1-.3l.1-.2l.2-.2Z" />
      <path d="M141.1 66.5v-.3l.1-.2l.2-.2l.2-.1l2.4-1l1.6-.5l1-.3l1-.2l1.5-.3l1.2-.1h1l.9 .1l1.1 .2l.9 .2l.8 .3l.7 .4l.4 .4l.2 .2l.3 .5l.1 .3l.1 .6v.3l-.2 .7l-.1 .2l-.5 .8l-.7 .7l-.8 .6l-1.8 1l-2 1.1l-1.5 .6l-.2 .1l-.3-.1l-.2-.1l-.1-.2l-.1-.2v-.5l.2-.2l.2-.1l1.4-.6l1.9-1l1.7-1l.7-.5l.5-.6l.4-.5l.1-.4l-.1-.4l-.2-.3l-.3-.3l-.5-.2l-.5-.2l-.8-.3l-.9-.1l-.9-.1h-.9l-1.5 .2l-1.9 .4l-1.6 .5L142.1 67h-.5l-.2-.1l-.2-.2Z" />
      <path d="M148.7 71.7l.2-.2l.2-.1h.2l.3 .1l.5 .3l5.9 3.8l1.2 .9l2.8 2.3l4.8 4.3l.1 .2l.1 .3v.2l-.1 .2l-.2 .2l-.2 .1l-.2 .1l-.3-.1l-.2-.1L159 79.8l-2.7-2.2l-1.1-.8L149.4 73l-.5-.3l-.2-.1l-.1-.2l-.1-.3l.1-.2Z" />
      <path d="M88.6 130.6l-.2-.2l-.1-.2v-.3l.1-.2l.3-.6l.1-.1l1.6-1.5l2.5-2l2.7-2l2.6-1.8l3.2-2l3.2-1.9l3.8-2l2.5-1.2l2.5-1.3l4.6-2l2.8-1.2l3-1.1l3-1.1l3-1.1l5.1-1.5l3-.8l3-.8l2.9-.6l4.8-.7l1.8-.2l2.7-.3l2.5-.1l2.4-.1l3.9 .3l3.1 .4l2.5 .4l1.8 .4l1.3 .5l.9 .3l.2 .2l.1 .2l.1 .2v.2l-.1 .3l-.2 .1l-.2 .2h-.2l-.3-.1l-.8-.3l-1.2-.4l-1.7-.4l-2.4-.5l-3.1-.3l-3.7-.3l-2.4 .1l-2.4 .1l-2.6 .3l-1.9 .2l-4.6 .7l-2.9 .6l-3 .7l-3 .8l-5 1.6l-3 1l-3 1.1l-2.9 1.1l-2.8 1.2l-4.5 2l-2.5 1.2l-2.5 1.3l-3.8 2l-3 1.8l-3.2 2l-2.6 1.8l-2.7 1.9l-2.4 2l-1.4 1.3l-.3 .5l-.1 .2l-.2 .1h-.5Z" />
      <path d="M112.6 29.6l.1-.2l.2-.2l.2-.1l.2-.1l.7 .1l.9 .2l.7 .4l.5 .4l.5 .6l.3 .7l.2 .8l.1 .8l-.1 .7V34l-.2 .2l-.2 .2h-.5l-.2-.1l-.2-.2l-.1-.3V32.4l-.2-.5l-.2-.5l-.3-.3l-.3-.3l-.3-.2l-.6-.1h-.5l-.2-.1l-.3-.1l-.1-.2l-.1-.2Z" />
      <path d="M49.7 109.8l-.2-.1l-.2-.2l-.1-.6v-.2l.2-.6l.4-.9l.7-1.1l.9-1.5l.4-.5l1.2-1.3l1-.9l.5-.5l1.3-.8l1.1-.5l.9-.4l.8-.2l.6-.1h1.3l.2 .1l.1 .2v.1l-.1 .1l-.2 .2H59.3l-.6 .1l-.7 .2l-.9 .3l-1 .5l-1.2 .8l-.4 .4l-1 .9l-1.1 1.3L52 105l-.9 1.5l-.6 1l-.4 .9l-.2 .4l.1 .6v.2l-.2 .2Z" />
      <path d="M51 114.2l-.2-.2v-.2l.1-.8l.4-.6l.8-1.4l1.2-1.7l.5-.5l1.3-1.4l1.3-1.3l2.7-2.3l1.6-1.1l1.3-.9l2.2-1.2l1.4-.7l.6-.3h.2l.2 .2l.1 .1l-.1 .2l-.2 .2l-.5 .2l-1.3 .7l-2.2 1.2l-1.4 .9l-1.5 1.1l-2.7 2.3l-1.2 1.2l-1.3 1.4l-.4 .5l-1.2 1.6l-.8 1.3l-.3 .6l-.1 .6l-.2 .2l-.2 .1Z" />
      <path d="M74.8 80.2L75 80l.2-.1l.6-.1l.2 .1l.6 .5L77 81l.2 .8l.1 .9l-.1 .8l-.3 .8l-.3 .7l-.5 .6l-.6 .5l-.2 .1l-.2-.1L75 86v-.4l.6-.5l.4-.5l.3-.6l.2-.7l.1-.6l-.1-.8l-.2-.7l-.2-.4l-.4-.2h-.5l-.2-.1l-.1-.2Z" />
      <path d="M76.2 80H76l-.2-.1l-.4-.4l-.1-.1v-.2l.1-.7l.3-.7l.8-1l1-1.2l1.1-1.2l1.9-1.8l1.2-1l2.8-2.1l2.8-1.9l1.8-1.2l2.1-1.2L95 63.1l2.4-1.3l4.3-2l2.7-1.2l2.6-1.1l2.6-1l2.5-.9l4.2-1.2l2.4-.7l2.3-.6l2.2-.4l3.6-.6l2.9-.4l2.3-.2l1.7-.1l1.8 .1h.2l.1 .3v.1l-.1 .2l-.2 .1l-1.8-.1l-1.7 .1l-2.2 .2l-2.9 .4l-3.5 .6l-2.2 .4l-2.3 .6l-2.4 .7l-4.2 1.2l-2.5 .9l-2.6 1l-2.6 1.1L102 60.4l-4.3 2l-2.4 1.3l-3.8 2.1l-2 1.2l-1.8 1.2l-2.8 1.9l-2.7 2.1l-1.2 1l-1.9 1.7L78 76l-1 1.2l-.7 1l-.2 .5l-.1 .4l.3 .3l.1 .2l-.1 .3Z" />
      <path d="M90 121.3V121l.2-.1l.6-.3l1.6-.2l1.2-.2l.7 .1l.6 .1l.6 .4l.1 .1l.2 .5v.2l-.1 .2h-.2l-.3-.1l-.2-.4l-.4-.2l-.4-.1l-.6-.1l-.5 .1l-2.1 .3l-.5 .2h-.3l-.2-.1Z" />
      <path d="M102.5 30l.2 .1l.2 .1l.1 .2l.1 .3l.1 .4l.2 .3l.4 .4l.4 .4l.7 .6l.5 .3l1.9 .8l.1 .2l.1 .2v.2l-.1 .3l-.1 .2l-.2 .1h-.5l-.9-.3l-.9-.4l-.7-.4l-.8-.7l-.5-.5l-.5-.5l-.4-.6l-.1-.3l-.1-.6v-.2l.1-.2l.2-.2l.2-.1Z" />
      <path d="M74.1 46.5l-.2-.2l-.1-.2l-.1-.2v-.3l.2-.5l.1-.3l.6-.6l1-.8l3.2-1.9l3-1.5l1.9-.9h.4l.3 .1l.1 .2l.1 .2l.1 .2l-.1 .3l-.1 .2l-.2 .1L83.1 41l-6.6 3.7l-2 1.4l-.3 .2l-1.4-.8l3.7-2.7l3.9-2.5l3-1.7l9.9-5.2l.6-.3l.2-.1h.3l.2 .1l.2 .2l.1 .2V34l-.1 .2l-.2 .1l-5.3 3l-3.2 1.9l-1.2 .7l-.6 .3l-.2 .1l-.3-.1l-.2-.1l-.2-.1l-.1-.3v-.2l.1-.3l.2-.2l.6-.5l8.6-4.7l1.4-.7l6.4-2.5h.5l.2 .2l.2 .2l.1 .3v.4l.2 .7l.1 1.1l.1 .2l-.9 1l-.5-.6l-.4-.5l-.1-.2l-.1-.6l-.1-.2l.1-.7l.1-.6l.2-.3l.2-.2l1-.4l.3-.1h.2l.2 .1l.2 .2l.1 .2v.5l-.3 .4V32l.2 .4l.8 1.5l.1 .2v.3l-.1 .2l-.1 .2l-.2 .1h-.5l-.2-.1l-.2-.2l-.4-.6l-.5-1.1l-.2-.6v-.2l.1-.3l.1-.2l.2-.1l.3-.1h.2l.5 .2l.4 .3l.4 .6l.8 1.7l.2 .5l.1 .3v.2l-.1 .3l-.3 .2h-.5l-.7-.2l-.6-.3l-.4-.1l-.7 .1l-1.3 .1l-3 .8l-2.7 .7l-1.7 .6l-2.2 1l-1-.9l7.1-3.8l1.3-.6l2.6-1h.1l.9 1.1l-4.2 1.3l-3 1.2l-2.5 1.2l-1-1l8.3-2.8l.7-.2h.2l.2 .1l.2 .1l.2 .2l.1 .2v.3l-.1 .2l-.4 .5l-.3 .3l-1.1 .5l-9.8 4l-2.6 1l-1-1.1L90.4 37l.2-.1l.3 .1l.2 .1l.1 .2l.1 .3v.2l-.1 .3l-.2 .1l-.8 .6L87.6 40l-1.8 .7l-.6 .2l-.3 .1l-.2-.1l-.2-.1l-.2-.3V40l.1-.2l.4-.4l.2-.2l1.3-.7l7.8-4l3.1-1.8l.7-.2l1-.3l.9-.5l.5-.4l.7-.4l1.1-.3h.5l.2 .2l.2 .2v.5l-.1 .2l-.2 .2l-.5 .3l-.8-.7l2.3-1.1l1.2-.3l2.5-.6l.8-.1l.9-.1l1.2 .2l1.7-.1l.5 .2l.4 .3l.3 .2l.5 .1l.3 .2l.4 .4l.2 .2l.1 .2l-.1 .3l-.1 .2l-.1 .2l-.2 .1h-.5l-.2-.1l-.3-.3l-1.6-.6l-.6-.1l-1.7-.2l-2.5-.1h-.5l-.7-1.3l3.3-.5l.5-.1h.3l.2 .1l.2 .1l.1 .2v.5l-.1 .2l-.2 .2l-.2 .1l-1.8 .4l-1.3 .1l-1.7 .1l-.5 .1l-1.7 .6l-.6 .1l-.2 .1l-.2-.1l-.2-.1l-.1-.2l-.1-.2v-.3l.1-.2l.1-.2l.2-.1l.7-.3l2-.6l1.5-.3l1.5-.2l.7-.1l.9 .1l1.7 .2h.6l.2 .1l.2 .1l.2 .2l.1 .2v.2l-.1 .3l-.1 .1l-.2 .2l-.8 .3h-.7l-1.1-.1l-.3-.1l-.2-.1l-.1-.2l-.1-.2l.1-.3v-.2l.2-.2l.2-.1h2.4l.7 .1l.2 .1l.5 .2l.3 .4l.2 .5l.1 .3l-.1 .2l-.1 .2l-.2 .2l-.2 .1h-.2l-.2-.1l-1-.5h-.4l-2.4 .4l-1 .3l-.5 .1l-.4 .3l-.4 .3l-.2 .2l-.1 .1l.1 .3l.2 .2l.2 .1l1.3 .3l.6 .1l.2 .2l.2 .1l.1 .2v.3l-.1 .2l-.1 .2l-.2 .1l-.2 .1h-.3l-.5-.1l-2 .2l-.7 .1h-.7l-.7-.1l-.7-.2l-.5-.3l-.2-.2l-.4-.4l-.2-.2v-.5l.1-.2l.4-.5l.1-.1l1-.7l.7-.8l.3-.1l.2-.1h.2l.3 .1l.2 .2l.1 .2v.3l-.1 .2l-.2 .5l-.5 1v.3l.1 .2l.2 .1h.5l.2 .1l.2 .2l.2 .2v.5l-.1 .2l-.4 .5l-.4 .2L104 36h-.3l-.3-.1l-.3-.3l-.2-.5l-.1-.4V34l.1-1.2l.2-.6V32l.2-.2l.2-.1l.2-.1l.3 .1l.2 .1l.1 .1l.1 .3l.1 .2l-.1 .5v.5l.1 .3l-.9 .8l-.8-.8l-.1-.3l-.1-.6v-.3l.1-.2l.4-.5l.2-.2l.7-.4l.6-.2l2-.5l1.5-.2l1.3-.2h.8l.5 .1l.3 .1l.2 .1l.1 .3v.5l-.1 .2l-.3 .1l-.2 .1l-.6 .1h-.2l-1.3-.3l-.5-.3l-.2-.1l-.2-.2v-.5l.1-.2l.1-.2l.5-.3l.3-.2l2-.2h.7l.6 .1l.3 .1l.2 .1l.1 .3l.2 .5v.3l-.1 .3l-.3 .5l-.2 .1l-.2 .2h-.5l-.2-.2l-.1-.1l-.1-.3v-.5l-.1-.1l-.2-.2h-1.1l-.5-.1l-.3-.1l-.2-.1l-.1-.3v-.5l.2-.2l.2-.1l.2-.1h3.6l.2 .1l.6 .2l.2 .2l.1 .3l.1 .2l-.1 .6v.3l-.2 .2l-.2 .1l-.3 .1L113 31l-.5-.2l-1.8-.3l-.7-.2l-1-.6l-.2-.1l-.1-.2l-.1-.3l.1-.2l.1-.3l.2-.1l.2-.1h.3l1.3 .4l1.8 .5l.6 .2l.2 .2l.1 .2l.1 .2v.2l-.1 .3l-.2 .1l-.2 .2h-.3l-.2-.1l-.5-.2h-1.8l-1.4 .1l-1.8 .2l-3.7 .6L99 32.7L91.4 35H91l-.3-.1l-.1-.2l-.1-.3v-.2l.1-.2l.2-.2l.2-.1l7.6-2.4l4.5-1.1l3.8-.7l1.9-.2l1.4-.1h1.6l.6 .1l-.2 1.3h-.1l-2.3-.7l.8-.9l.5 .2h.5l-.7 1h-1V28.9h.5l.7 .1h.2l.5 .3l.4 .3l.3 .5v.4l-1.4 .4l.1-.3h-.5l-1 .1l-.1-.5l.3 1.3l-.5 .1l-1.8 .2l-2 .4l-1.1 .3l-.4 .2l-.1 .2l.6 .7l.4 .5l.1 .2l.2 .6l.1 .3l-.1 .2l-.1 .2l-.3 .2h-.5l-.2-.1l-.4-.4l-.2-.2l-.3-.5l-.2-.9L103 33l.1-.7l1.3 .2l-.1 1.1l-.1 1l-.9 .3h-.1l-.3-.3l-.3-.6v-.4l.1-.6l.3-.7l.6 .6l-.7 .6l.2 .1l.5 .1l.4 .1h.6l.6-.1l2-.2l.1 1.3h-.1l-1.1-.2l-.7-.2l-.4-.3l-.3-.5l-.3-.6v-.5l.2-.6l.1-.3l.5-.4l.5-.4l.6-.3l.5-.3l1.3-.3l2.6-.4h.7l-.2 1.1h-1.5l.5-.9v-.4l-.1 1.1H110l-1.2-.2h-1.3l-1.4 .2l-1.3 .3l-1.9 .6l-.5-1.3l1.6-.5l.7-.2h.7l1.1-.1l1.1-.1l1.8-.4l.2 1.4l-3.2 .5l-.6 .1l-.7 .1l-.2-.1h-.2l-.2-.2l-.1-.2l-.1-.3l.1-.2l.1-.2l.2-.1l.2-.1l.6-.2h.7l.6-.1l3.7 .3l.8 .1l.7 .2l1.7 .6l-.5 1.3l-.4-.1l-.6-.4l-.4-.2h-1.6l-1.2-.1h-.6l-.8 .1l-2.4 .5l-1 .4l-1.7 .7l-1 .5l-.4 .3l-.2 .1l-.2 .1l-.3-.1l-.2-.1l-.1-.2l-.1-.2v-.3l.1-.2l.3-.5l.5-.5l.7 .8l-.1 .1l-.4 .2l-.4 .3l-.7 .4l-.5 .3l-1.2 .3l-.5 .2l-3 1.7l-8.4 4.4L86.3 39l.8-.3l2.4-1.2l.6 1.1L86 40.3l-1.4 .4l-.2 .1l-.2-.1l-.2-.1l-.2-.2l-.1-.2v-.3l.1-.2l.2-.2l.2-.1L88 38l10.3-4.2v.9L91.5 37l-1.4 .5h-.5l-.2-.2l-.2-.2v-.5l.1-.2l.2-.2l1.2-.6l3.8-1.7l2.5-1l3-.8l1.1-.4l.2-.1l.3 .1l.2 .1l.1 .1l.1 .3v.4l-.2 .2l-.2 .2l-1 .4l-2.6 1L96.7 35l-6.5 3.5l-.7 .3l-.2 .1l-.6 .1h-.2l-.3-.1l-.2-.2l-.1-.2V38l.2-.2l.2-.1l1.1-.6l2.3-1l1.8-.6l2.7-.8l3.1-.7l1.5-.3h.8l.5 .1l-.3-.6l.8-.4l.3 .6l-1.3 .6l-.2-.4l-.3-.6l-.3-.7l.6-.1v.7l.3 .4l.4 .4l.4 .4l.5 .5l.1 .2v.3l-.1 .2l-.1 .2l-.2 .2h-.5l-.2-.1l-.5-.3l-.5-.6l-.2-.2l-.2-.6l-.2-1.3l-.1-.3l-5.5 2.1L93.5 35L85 39.7l-.5 .4l-.8-1.2l1.1-.5l3.8-2.3l5.3-3l.7 1.2l-.6 .3l-9.9 5.2l-3 1.7L77.3 44l-3.1 2.3l-1 .7l-.2 .1h-.5l-.2-.2l-.1-.1l-.1-.3v-.2l.1-.2l.2-.2l1.3-1l2.1-1.4l7.2-4l.1 1.5l-.7 .3l-2.9 1.5l-3.1 1.8l-.9 .7l-.3 .3l-.1 .4l-.1 .3l-.2 .1l-.2 .1h-.3Z" />
      <path d="M117.1 73.7l-.1-.2V73l.2-.2l.5-.4l1.3-.8l2.3-1.2l2.2-.9l2.4-.8l3.7-1l3.9-.8l.9-.1h.2l.3 .1l.2 .2l.1 .2v.2l-.1 .3L135 68l-.2 .1l-.2 .1l-.9 .1l-3.8 .8l-3.6 .9l-2.3 .8l-2.2 .9l-2.2 1.1l-1.1 .7l-.4 .4l-.2 .1l-.2 .1l-.3-.1l-.2-.1Z" />
      <path d="M53.3 60.6l-.1-.2l-.1-.2V60l.1-.3L54.3 58l1-1.4l1.7-2L58.7 53L61 51l2.3-1.8l2-1.3l2.3-1.6l3.5-2L75.5 42l.2-.1H76l.2 .1l.2 .2l.1 .2v.3l-.1 .2l-.1 .2l-.2 .2l-4.3 2.2l-3.4 2L66 49.1l-1.8 1.3l-2.3 1.8l-2.3 1.9l-1.5 1.5l-1.7 1.9l-1 1.3l-1 1.7l-.2 .1l-.2 .2h-.5Z" />
      <path d="M53.2 60.7l.1-.2l.1-.2l.2-.1l.3-.1H55l.7-.1l1.3-.4l2.4-.9l.2-.1h.3l.2 .1l.2 .2l.1 .2v.3l-.1 .2l-.1 .2l-.2 .1l-2.5 1L56 61.3l-.8 .2H53.7l-.3-.1l-.1-.2l-.1-.2Z" />
      <path d="M54.6 59.4l-.1-.2l.1-.3v-.2l.2-.2l.5-.3l2.1-2.1l1-.9l.5-.3l.2-.1h.2l.3 .1l.2 .1l.1 .2l.1 .2v.3l-.2 .6l-.1 .3l-1 .9l-2.6 2.7l-.4 .3l-.9-.9l2.6-3l.9-.9l.4-.4l.3-.1h.5l.2 .2l.1 .2l.1 .2v.3l-.1 .2l-.4 .5l-.3 .3l-1.6-.3l5.1-5l1.1-1l1.3-.9l2.8-1.6l2.1-1.4l.2-.1h.3l.2 .1l.2 .2l.1 .2l.1 .2l-.1 .3l-.1 .2l-.4 .4l-.2 .2l-1 .5l-2.7 1.8l-4.3 3l-.5 .3l-.2 .1H61l-.2-.2l-.1-.2l-.1-.2v-.2l.1-.3l.2-.1l1.5-1.3l3.2-2.7l.1-.1l1.3 .7l-5.2 4.5l-4.2 3.3l-.5 .3l-.3 .1h-.5l-.2-.2l-.1-.2V57l.1-.2l.5-.6l1-.9l4.3-4l1.8-1.4L65 49l1.2-.7l1.1-.5l.5-.2l.4-.3l.5-.3l1.2 .7l-1.7 1.2l-2.7 2.2l-6.7 6.2l-.1-.1l-.9-1l3.9-3.3l3.4-2.6l3-2l.2-.1h.5l.2 .2l.1 .1l.1 .3V49l-.1 .2l-.2 .2l-.9 .8l-3.9 3.5l-1.5 1.4l-2.1 2.4l-.2 .2l-.2 .1h-.3l-.2-.1l-.2-.1l-.1-.2v-.5l.1-.2l.3-.6l.9-1l1-1l5-4.1l1.6-1.2l.2-.1l.2-.1l.3 .1l.2 .1l.1 .2l.1 .2v.2l-.1 .3l-.1 .2l-.5 .4L66.5 52l-6.8 6l-.7 .6l-.5-.5l.6-.3l.5-.2h.3l.2 .1l.3 .1l.1 .2l.1 .2l-.1 .3l-.1 .2l-.1 .2l-.5 .3L59 60l-.4 .5l-.2 .1l-.2 .1H58l-.3-.1l-.1-.1l-.2-.2v-.5l.1-.2l.5-.7l4.3-5l1.8-2l1.1 .5l-5.1 3.9l-.6 .4l-.2 .1h-.2l-.3-.1l-.2-.1l-.1-.2l-.1-.2l.1-.3l.1-.2l.4-.6L60.1 54L62 52.2l1.8-1.5l2.7-2l3-1.9L72.4 45L75 43.7l.5-.3H76l.2 .1l.2 .2l.1 .2v.2l-.1 .3l-.1 .2l-.6 .5L67 50.5l-4.5 3.2L62 54l-.2 .1h-.5l-.2-.2l-.1-.1l-.1-.3v-.2l.2-.6l.1-.2l.8-1l1-1l1.1-.9l2.5-1.7l8.9-5.8l2.1-1.3l2.5-1.2l2.2-1l2.5-.9l.2-.1l.3 .1l.2 .1l.2 .2l.1 .2l-.1 .3l-.1 .2l-.2 .2l-1.5 .9l-9.6 5.1l-5.5 3.2l-2.1 1.3l-1.8 1.4l-1.7 1.4L62 53.4l-.4 .5l-.3 .1l-.2 .1h-.3l-.2-.1l-.2-.2l-.1-.2v-.3l.1-.3l.5-.7l.9-1l1.3-1.2l2.1-1.8l2-1.5l3.5-2.4l3.2-1.9l7.4-4l8.2-4.1l3-1.3l.8-.2l.6-.2l.8-.1l.5 .1h.3l.2 .2l.2 .2v.5l-.2 .3l-.4 .4l-.3 .2l-1.1 .3l-6.6 2.7l-4.8 2.2l-5.3 2.9l-3.4 2.1L69 48.2l-2.7 2.1l-3.2 3l-.5 .4l-.2 .1h-.3l-.2-.1l-.2-.1l-.1-.2l-.1-.2v-.3l.2-.7l.1-.2l.5-.6l.9-1l1.3-1.3l2.9-2.4l4.7-3.4l2.6-1.8l4.5-2.8l3.2-1.9l3.9-2l3.1-1.4l3.8-1.6l4.1-1.3l2.8-.7l3-.6l.7-.2l.2 .1l.3 .1l.2 .1l.1 .3v.3l-.1 .2l-.2 .2l-.4 .3l-.2 .1l-9.8 3.7l-3.5 1.4l-2.8 1.3l-5.1 2.4l-3.9 2.1l-2.9 1.7l-4.7 3L65.8 50L64 51.5l-.5 .5l-.8-.8l1.8-1.7l2.2-1.8l3.1-2.2l5-3.3l4.9-2.8l2.4-1.3l5.9-3l4.5-2l5.8-2.5l3.6-1.3l1.8-.6l1.2-.2l.9-.2h1.5l.7 .1l.2 .1l.6 .3l.2 .3l.2 .3l-.7 1l-.8-.1H107l-1.7 .2l-2.7 .6l-3.8 1.1l-3.9 1.3l-5.3 2l-3.9 1.7L81.8 39l-4.5 2.3l-1.9 1l-3.5 2.2l-1.6 1l-2.2 1.6l-.9 .7l-.5 .6l-.1-.2l.3-.2l.4-.5l.5-.6l.7-.5l1.4-1.1l3.1-2l4.9-2.8l4.7-2.3l7.7-3.6l.6 .6l-1.8 .7L84 38.1l-4.7 2.3l-4.4 2.5l-4 2.5l-3 2l-1.7 1.3l-1.5 1.2L63.5 51l-2 2.2l-.5 .7l-1.1-.4l2.4-2.3l4.6-3.9l3.7-2.7L75 41.7L79.5 39l4.8-2.6l4.5-2.1l4.9-1.9l5.4-2l2.9-.8l1.4-.3l1.2-.1l1.1-.1l1.6-.4l.8-.1h.6l2.4 .5h.4l.3-.1l.4-.3h.1l.2-.1h.5l.2 .2l.1 .2l.1 .2l-.1 .3l-.1 .2l-.6 .5l-.3 .1l-.5 .2H111l-2.5-.5h-.4l-.5 .1l-1.7 .4l-1.8 .1l-1 .2l-3.6 1l-5.3 1.9l-4.8 1.9L85 37.7l-4.8 2.6l-4.4 2.6l-4.4 2.9l-3.6 2.6l-4.6 3.8l-1.9 1.9l-.5 .4L60 55l-.2 .1h-.2l-.3-.1l-.2-.1l-.1-.2v-.5l.1-.2l.4-.5l.9-1.2L62.5 50l1.3-1.2l1.5-1.2L67 46.3l3.1-2.1l4.1-2.5l4.5-2.5l2.8-1.4l5.6-2.6l2.7-1.1l1.4-.4h.3l.6 .1l.2 .1l.2 .1l.1 .2v.5l-.1 .2l-.2 .2l-.4 .3l-.7 .3l-8 3.8l-4.6 2.3l-4.8 2.7l-3.1 2l-.8 .5l-1.1 1l-.5 .5l-.3 .4l-.2 .2l-.5 .3l-.6 .3l-.6 .3h-.4l-.6-.1l-.3-.1l-.2-.1l-.1-.3v-.5l.3-.5l.4-.6l1.1-1l.9-.8l2.3-1.7l1.6-1l3.6-2.2l1.9-1l4.6-2.4l3.9-1.8l4-1.7l5.4-2l3.8-1.3l4-1.2l2.8-.6l1.8-.2h1.5l.6 .1l.3 .2l.2 .2l.3 .5l.1 .2v.3l-.1 .3l-.2 .1l-.6 .4l-.2 .1h-.2l-.3-.1l-.2-.2l-.1-.2v-.6l-.1-.3l-.3-.1l-.5-.1h-1.2l-1.2 .3l-2.4 .6l-3.5 1.3l-5.7 2.4l-4.5 2.1l-5.9 3l-2.4 1.3l-4.7 2.7l-5 3.2l-3 2.2l-2.2 1.8l-1.7 1.6l-.5 .5l-.3 .2l-.6 .2h-.6l-.2-.2l-.1-.2l-.1-.2l.1-.3l.1-.2l.5-.6l1.1-.9l1.8-1.6l5.3-3.7L75 42.1l3-1.7l3.9-2.1L87 35.8l2.9-1.3l3.5-1.4l9.7-3.7l.3-.2l.6 1.2l-3.6 .8l-2.7 .7l-4 1.3l-3.8 1.5L87 36.1l-3.9 2l-3.2 1.8l-4.4 2.8l-2.6 1.8l-4.7 3.3l-2.7 2.3l-1.3 1.3l-.8 .9l-.7-.6l.6-.5L66 48.8L68.1 47l5-3.5l2.7-1.7l4.8-2.7l2.8-1.4l4.7-2.1L94 33.3v.9l-1 .3l-2.9 1.2l-8.2 4l-7.3 4.1l-3.1 1.8L68 48l-1.9 1.4l-2 1.7l-1.3 1.2l-.8 .9l-1-.8l1.3-1.3L64 49.7l1.9-1.4l2.7-1.8l5.8-3.3l9.3-4.9l.2 1.2l-1 .4l-2.2 .9l-2.4 1.3l-3.4 2l-9.2 6.1l-1.3 1l-.9 .8l-.9 .9l-.3-.8l4-2.8l8.6-5.4l.7 1l-.1 .1l-2.4 1.2L70.2 48l-2.9 1.9l-2.6 2L63 53.3l-2.5 2.3l-.3-1.1l3.6-2.7l.6-.5l.7-.4l.2-.1l.3 .1l.2 .1l.2 .1l.1 .2v.5L66 52l-.4 .5l-2.2 2.4L59 59.8l-.3 .6l-1.2-.9l.9-.9l.4 .9l-.2 .2l-.2 .1l-.6 .1h-.5l-.1-.2l-.2-.2V59l.2-.5l.2-.3l.4-.5l1.1-.8l6.6-6l2.2-1.7l.9 1.1l-1.1 .8l-4.9 4.1l-.9 .9l-.8 .9l-1.1-.8l1.8-2l1.5-1.6l4.4-3.9l.4 1.4l-2 1.3L62.5 54l-3.7 3.3l-.2 .1l-.3 .1l-.2-.1l-.2-.1l-.2-.2l-.1-.2v-.2l.1-.3l.1-.2l1.4-1.3l7-6.3l2.4-1.7l.6-.4l.6-.3h.5l.2 .1l.2 .2l.1 .3V47l-.1 .3l-.2 .1L69 48.5l-.6 .3l-1.1 .5l-1 .6L64.5 51l-1.7 1.4L58 56.8l-.3-1.1l3.2-2.6L65.7 49l.9-.8l.3-.1h.2l.2 .1l.2 .1l.2 .2V49l-.1 .2l-.1 .2l-1 .8l-3.1 2.7l-1.7 1.3L60.9 53l6.4-4.4l1.7-1l.2 1.5l-.6 .4l-2.3 1.3l-1.1 .7L64 52.4l-4.9 4.7L58 58.3l-.2 .1l-.3 .1l-.2-.1l-.2-.1l-.2-.1l-.1-.3v-.4l.2-.2l1.3-1.4l1 .8l-.1 .1l-.8 .8l-2.6 2.9l-.6 .5l-.3 .1h-.2l-.2-.1l-.2-.1l-.2-.2v-.4l.1-.3l.1-.1l.9-.8l3-3.1l.4 .9l-.3 .2l-2.1 2.1l-.5 .4l-.2 .2h-.3l-.2-.1l-.2-.1Z" />
      <path d="M109.5 29.2V29l.2-.2l.2-.1l.3-.1l2 .1l1.4 .2l.9 .1l.2 .1l.2 .2l.1 .2v.3l-.1 .2l-.1 .2l-.2 .2h-.5l-.8-.2l-1.2-.1h-1.9l-.3-.1l-.2-.1l-.2-.2v-.2Z" />
      <path d="M108.6 29.1v-.2l.1-.3l.2-.1l.2-.1l.7-.2H112l.7 .2l.7 .2l.7 .4l.4 .4l.2 .3l.2 .5v.9l-.1 .2l-.2 .1l-.3 .1h-.2l-.2-.1l-.2-.1l-.1-.3l-.1-.4l-.1-.3l-.2-.2l-.4-.2l-.5-.2l-.4-.1h-2l-.5 .1l-.2 .1l-.2-.1l-.2-.2l-.2-.2Z" />
      <path d="M109.5 28.7l.1-.2l.1-.2l.3-.1h.9l1.4 .3l1.4 .4l.8 .3l.9 .6l.5 .5l.4 .4l.1 .2v.5l-.2 .2l-.2 .2h-.4l-.3-.1l-.1-.1l-.3-.4l-.4-.3l-.7-.4l-.6-.3l-.7-.2l-1.8-.4h-.6l-.2-.1l-.2-.1l-.2-.2V29Z" />
      <path d="M47.6 45.9h.2l.2 .2l2 3.1l2.3 4.4L54.4 58v.3l-.2 .2h-.3l-.2-.2l-2-4.4l-2.3-4.3l-2-3.2v-.2l.1-.2Z" />
      <path d="M48.8 44h.3l.2 .1l.8 1.1l1.4 2.1l1.7 3L55.6 55l.6 1.2l-.1 .2l-.1 .1l-.1 .1h-.1l-.2-.1L55 55.3l-2.5-4.6l-1.7-3l-1.3-2.1l-.8-1v-.3l.1-.2Z" />
      <path d="M50.7 40.8H51l.2 .1l1.4 2.3l2.6 5l2.4 4.5l.9 1.6v.3l-.1 .2H58l-.1-.2L57 53l-2.4-4.5L52 43.6l-1.4-2.3l-.1-.2l.1-.2Z" />
      <path d="M53.9 35.8h.2l.2 .1l1.2 1.7L57.6 41l1.1 2.1L61 47.7L62.6 51v.3l-.2 .2h-.3l-.2-.2L60.3 48l-2.2-4.6l-1.1-2L55 38l-1.2-1.7l-.1-.2l.1-.2Z" />
      <path d="M59.7 30.3h.2l.2 .2l1.2 2l2.2 4.2l2.2 4.2l2.4 4.7l.6 1.2v.1l-.2 .2h-.4l-.6-1.2l-2.4-4.6L62.9 37l-2.2-4.2l-1.2-1.9l-.1-.3l.1-.2Z" />
      <path d="M64.6 25.8l.2-.1l.2 .2l.5 .5l.8 1.2l1.5 2.7l2.4 4.9l2 4.3l2.2 4.9v.2l-.1 .2H74l-.2-.2l-2.2-4.8l-2-4.3l-2.4-4.9L65.7 28l-.8-1.1l-.4-.6l-.1-.2l.1-.2Z" />
      <path d="M70.3 22.1h.3l.2 .1l1 1.9L72.9 26l2.3 5L77 35l2.2 4.9l.4 .9l-.1 .3l-.1 .1H79l-.1-.1l-.4-.9l-2.1-4.9l-1.8-4l-2.4-5l-1-1.9l-1-1.8l-.1-.2l.1-.2Z" />
      <path d="M78.5 18.5h.2l.2 .2l1.1 2L82.2 25l2 4.1l2.1 4.5L87.4 36v.2l-.1 .2l-.1 .1H87l-.2-.2l-1.1-2.4l-2.1-4.5l-2.1-4.1l-2.1-4.2L78.3 19l-.1-.2l.1-.2Z" />
      <path d="M91 12.7h.3l.2 .2l1 1.6l2.5 5l2.2 4.7l2.1 4.6l1.1 2.2v.2l-.1 .2l-.2 .1h-.2l-.2-.2l-1-2.3l-2.1-4.5l-2.2-4.6l-2.6-5l-.9-1.7l-.1-.2l.1-.2Z" />
      <path d="M103.8 12l.3 .1l.1 .1l1.2 3l1.7 3.3l2.2 4.2l2.1 3.9v.2l-.1 .2l-.1 .1h-.3l-.2-.2l-2.1-3.8l-2.2-4.3l-1.6-3.3l-1.2-3v-.2l.1-.2Z" />
      <path d="M95.4 121.5l-.1-.2l.1-.2l.5-.7l2.6-2.3l3-2.3l2.3-1.6l2.9-1.8l2.7-1.6l3.3-1.7l2.2-1.1l4.6-2.1l1.6-.8l2.5-1l2.5-1l2.7-1l2.6-.9l4.4-1.3l2.7-.7l2.6-.7l2.5-.5l4.2-.6l1.6-.2l2.3-.3l2.2-.1H156l3.3 .2l2.8 .3l2.1 .4l1.6 .4l1.1 .4l.9 .3l.1 .3v.1l-.1 .1v.1l-.3 .1l-.9-.4l-1-.3l-1.5-.4L162 98l-2.7-.3l-3.3-.2h-2.1l-2.2 .2l-2.2 .2l-1.6 .2l-4.1 .6l-2.6 .5l-2.5 .7l-2.7 .7l-4.4 1.3l-2.6 .9l-2.6 1l-2.6 1l-2.4 1l-1.6 .7l-4.6 2.1l-2.1 1.1l-3.4 1.8L107 113l-2.8 1.8l-2.2 1.6l-3.1 2.3l-2.5 2.2l-.5 .6l-.1 .1h-.3Z" />

    </g>

    <g id="ikon">
      <use href="#mustard" fill="var(--mustard-color, none)" />
      <use href="#outline" fill="var(--outline-color, #000)" />
    </g>

  </defs>

  <use href="#ikon" style="
    --mustard-color: blue;
    --outline-color: orange;
  "/>
</svg>
