<svg xmlns="http://www.w3.org/2000/svg">

  <style id="config_styles" type="text/css">
  
    :root {

      --show-hearts: 1;
      --font-size: 28px;
      --outline-color: #750;
      --accent-color: hsla(40,100%,50%,0.5);
      --title-color: var(--outline-color);
      --bg-opacity: 0.85;

    }

  </style>

  <style id="svg_styles" type="text/css">

    #layouts {
      filter: var(--bg-filter, none);
      opacity: var(--bg-opacity, 1);
    }

    svg {
      background-color: var(--bg-color, none);
      background-image: var(--bg-fill, none);
      mask: var(--bg-mask, none);
    }
  
  </style>

  <style id="comic_styles" type="text/css">

    @font-face {
      font-family: 'Comic Neue';
       src: url('neue.ttf') format('truetype'); 
    }
  
    text {
      font-family:'Comic Neue';
      font-weight: 400;
      font-size: var(--font-size, 28px);
      fill: var(--text-color, var(--outline-color, #000));
    }
  
    #title_line {
      fill: var(--title-color, #000);
      height: 2px;
    }
    
    #copyright, #scoundrel {
      font-family:'Times New Roman';
      font-weight: 300;
      font-size:17px;
      fill:var(--copy-color, var(--outline-color, #000));
    }

    .obj {
      fill: var(--outline-color, #000);
    }
  
    @media (orientation: portrait) {
      .land { display: none; }
      #title_line {width: 625px; }
    }
  
    @media (orientation: landscape) {
      .port { display: none; }
      #title_line { width: 1275px; }
    }
  
  </style>

  <style id="border_styles">

    .border {
     fill: none ;
     stroke: var(--border-color, var(--outline-color, #000));
     stroke-width: var(--border-width, 2); 
    }

    .slant {
      marker-start: url(#slant_cap);
      marker-end: url(#slant_cap);
    }

  </style>

  <defs id="pats_and_filters">

    <linearGradient id="fade" gradientUnits="objectBoundingBox">
      <stop offset="0%" stop-color="#000" stop-opacity="0"/>
      <stop offset="100%" stop-color="#000" />
    </linearGradient>

    <filter id="blur">
      <feGaussianBlur in="SourceGraphic" stdDeviation="0.3" />
    </filter>

    <filter id="shake" width="120%" height="220%" color-interpolation-filters="sRGB">
      <feImage href="newsprint.jpg" x="0" y="0" width="220%" height="120%" preserveAspectRatio="xMidYMid slice" result="mig" />
      <feDisplacementMap in="SourceGraphic" in2="mig" result="rat" scale="5" xChannelSelector="R" yChannelSelector="B" />
      <feGaussianBlur in="rat" stdDeviation="0.3" result="blur" />
      <!-- shift image back based on displacement's scale -->
      <feOffset in="blurred" dx="0.5" dy="5" result="final" />
    </filter>
    
    <pattern id="newsprint" patternUnits="userSpaceOnUse" width="100%" height="100%">
      <image href="newsprint.jpg" width="100%" height="100%" preserveAspectRatio="none" />
    </pattern>

    <pattern id="dots" fill="pat(dots,var(--outline-color,#000))"/>

  </defs>

  <defs id="clips_and_masks">

    <clipPath id="two_of_four_clip">
        <path d="M 0 0 H 620 V 400 H 0 Z"/>
    </clipPath>

    <mask id="fade_mask"
     maskUnits="objectBoundingBox"
     maskContentUnits="objectBoundingBox"
    >
      <linearGradient id="fade_gradient"
       x1="0%" y1="100%"
       x2="90%" y2="0%"
      >
        <stop offset="0%" stop-color="#fff" stop-opacity="1" />
        <stop offset="100%" stop-color="#fff" stop-opacity="0.4" />
      </linearGradient>
      <rect width="1" height="1" fill="url(#fade_gradient)" />
    </mask>

  </defs>

  <defs id="title_defs">
    <g id="title">
      <rect id="title_line" x="12.5" y="12.5" />
      <use href="title-test.svg#ikon" transform="translate(30 17) scale(2.5) " />
    </g>
  </defs>

  <defs id="copyright_defs">
    <text id="copyright" transform="rotate(270)">
      <tspan letter-spacing="-0.04em">&#xA9;MCMLXXXVIII</tspan>
      <tspan letter-spacing="0.03em">&#xB7; Trilobyte</tspan>
    </text>
    <text id="scoundrel" text-anchor="end">
      <tspan letter-spacing="-0.04em" font-style="italic">
        [The Wheeling Daily Scoundrel]
      </tspan>
    </text>
  </defs>
  
  <defs id="border_defs">

    <marker id="slant_cap" markerWidth="3" markerHeight="1" refX="1" refY="0.5" orient="auto-start-reverse" markerUnits="strokeWidth">
      <path d=" M 0 0 L 3 0 L 1 1 H 0 Z" fill="context-stroke"/>
    </marker>

  </defs>

  <defs id="character_defs">

		<path id="ground_arc" class="obj" d=" M 3 384 Q 310 370 617 384 Q 310 379 0 384 Z" />

    <path id="hand_matte_morris" d="m104.32,166.93c17.61,-8.27 29.53,-11.85 49.86,-14.43c-1.16,-11.8 -4.79,-30.28 -14.6,-41.34c-9.16,14.69 -15.1,28.63 -20.05,44.8l-15.21,10.96z" />

    <g id="morris" fill="var(--outline-color, #000">

     <path id="foot_morris" transform="translate(-122.059 -152.941)" d="m155.75,334.3l26.22,4.83c12.41,-12.54 26.12,-23.4 34.94,-29.25q0.55,-2.5 4.74,-5.38l11.16,-2.56l7.11,-9.04c4.87,-15.75 11.85,-24.9 20.89,-27.48c-7.05,11.41 -13.06,25.55 -18.06,42.39c-15.57,9.17 -32,23.83 -49.33,43.95l-34.51,-2.84l-3.16,-14.62z" 
      fill="var(--accent-color, none)"
     />
     <path id="head_morris" transform="translate(-122.059 -152.941)" d="m150.37,311.15l13,2.39c-3.58,-16.83 -1.98,-31.31 4.77,-43.44c7.11,1.97 14.36,4.41 21.65,7.17c9.03,3.42 18.13,7.33 27.11,11.45l-12.71,-15.58l0,-31.27l13.9,-23.45l-4.78,-7.38l9.12,-20.85l-14,-29.33c-17.93,1.85 -38.23,7.87 -58.53,16.73l-10.42,51.25l27.79,12.16l-6.9,18l-18.35,3q4.23,29.93 8.35,49.15z" 
      fill="var(--accent-color, none)"
     />
     <path id="chest_morris" d="m33.33,181.28l-5.49,-24.53l14.17,4.79c-3.4,-11.15 -4.51,-26.6 3.54,-45.31c17.53,5.35 33.4,12.36 48.85,19.69l14.58,13.54l-11.35,2.4l-3.13,5.21c-14.65,9.9 -25.03,19.69 -34.58,29.06l-26.59,-4.84z" 
     fill="none" />
     <path d="m36.83,195.47l-18.65,4.79l44.23,3.73l57.54,-5.93l-83.12,-2.59z" />
     <path d="m34.23,180.73l0.3,1.1l26.23,5.21c9.92,-11.27 23.6,-22.48 34.82,-30.35c0.42,-1.99 2.13,-3.8 5.1,-5.45l-1.32,0.31c-3.39,1.71 -5.28,3.68 -5.7,5.86c-9.09,5.57 -22.36,15.83 -34.3,28.33l-25.13,-5.01z" />
     <path d="m151.41,152.56c-0.15,-6.02 -2.36,-19.83 -11.53,-41.45c-9.01,13.1 -15.42,27.53 -19.24,43.29l-16.95,13.28c13.65,-7.26 27.93,-12.3 47.72,-15.12z" />
     <path d="m120.75,132.33c-2.28,-0.72 -4.59,-1.41 -6.9,-2.05c-5.52,5.63 -10.84,8.36 -13.78,6.51c-4.5,-2.82 -1.79,-15.24 6.05,-27.73l0,0c7.83,-12.48 17.84,-20.32 22.33,-17.5c3.1,1.94 2.78,8.44 -0.28,16.37c1.85,2.51 3.74,4.83 5.68,6.91c-5.44,4.85 -9.81,10.68 -13.1,17.49l0,0zm33.37,14.13c1.68,-1.32 3.35,-3.17 4.76,-5.42c3.59,-5.73 4.17,-11.85 1.29,-13.66c-1.66,-1.04 -4.11,-0.43 -6.57,1.38c-1.86,-0.68 -3.7,-1.5 -5.51,-2.48q4.98,11.81 6.03,20.18l0,0zm-30.39,-48.85c-2.41,15.08 -9.08,25.98 -20.04,32.67c9.47,-7.95 16.17,-18.82 20.04,-32.67z"  fill-rule="evenodd" id="svg_42"/>
     <path d="m40.07,88.6c-6.41,-4.16 -14.55,-7.73 -24.43,-12.35q5.55,-29.4 10.7,-53.57q25,-11.29 60.37,-18.42l15.79,33.16l-9.65,21.78l-2.19,-2.82l7.77,-19.27l-12.66,-28.15q-27.71,4.49 -57.59,17.56q-4.4,23.17 -8.59,48.68c8.15,3.81 15.15,6.86 20.99,10.77l-0.51,2.63z" />
     <path d="m28.32,72.44c4.6,7.58 7.98,14.5 10.15,20.78l-5.48,13.36c14.21,-2.65 26.27,-6.62 36.17,-11.93l3.82,-29.25c-15.24,0.2 -30.85,2.55 -44.66,7.04z" />
     <path d="m76.37,64.31l-0.84,-4.89l4.63,7.49l-2.15,6.44l-0.35,-6.32l-1.29,-2.72z" />
     <path d="m83.82,6.78l-7.59,35.75l10.41,-34.21l-2.82,-1.54z" />
     <path d="m85.87,48.38l11.66,16.61l-4.17,6.8l-16.79,27.4l16.29,-33.69l-6.99,-17.12z" />
     <path d="m29.2,130.74c10.22,29.11 26.63,52.48 45.88,64.23l-4.34,3.53c-17.09,-11.81 -32.05,-36.35 -41.54,-67.76z" />
     <path d="m99.5,168.64l-5.98,6.6c20.06,-12.72 40.76,-19.79 62.09,-21.23c-1.34,-16.97 -6.5,-32.25 -15.49,-45.85c-13.21,8.52 -22.54,24.7 -24.57,40.62c4.83,-17.7 14.07,-32.34 24.27,-36.02c7.08,10.13 11.51,23.27 13.28,39.41c-18.23,0.88 -36.1,6.37 -53.6,16.47z" />
     <path d="m118.31,138.04l-1.18,4.93c-2.61,0.82 -4.95,5.08 -7.01,12.77c0.8,-9.91 3.53,-15.8 8.19,-17.7z" />
     <path d="m112,147.46l-45.01,11.16l41.27,-7.87q-10.44,4.04 -28.34,11.38q19.75,-6.41 30.94,-9.9l1.14,-4.77z" />
     <path d="m22.17,73.34c13.7,-5.05 32.85,-8.39 55.26,-10.01l1.28,3.08c-21.09,0.46 -39.89,3.28 -54.23,8.47l-2.31,-1.54z" />
     <path d="m81.31,90.72c-2.83,14.13 -2.53,24.07 0.88,29.84l3.53,3.89c-3.42,-7.32 -3.49,-23.03 -0.52,-41.19l-3.89,7.46l0,0z" />
     <path d="m70.21,103.55c13.21,19.08 26.55,33.01 41.08,45.57l-6.16,1.54c-13.39,-14.5 -24.66,-28.94 -34.92,-47.11z" />
     <path d="m17.79,106.35c15.4,0.34 33.19,-4.2 50.65,-13.11l2.82,-27.98l5.14,0.25c-2.88,7.12 -5.19,17.82 -6.93,32.1c-22.11,8.09 -38.05,12 -46.76,12.81c-1.27,19.41 9.09,50.95 14.93,83.55l33.86,2.15c10.74,-11.5 20.82,-24.49 47.57,-42.28c5.16,-17.63 12.22,-32.84 20.61,-42.95l1.65,2.86c-9.62,11.05 -15.97,25.19 -19.05,42.41c-20.03,11.26 -36.3,29.34 -46.95,45.55l-39.76,-2.98c-7.4,-36.89 -15.29,-68.36 -17.78,-92.38z" />
     <path d="m123.73,93.24l-15.47,20.51l-6.9,18.34l16.95,-6.75l9.86,-25.25l-4.44,-6.85z"  fill-opacity="0.64" id="svg_56"/>
     <path d="m96.55,135.97c-16.83,-8.15 -33.86,-15.06 -51.11,-20.74c-6.5,14.11 -8.52,27.94 -6.07,41.49l-12.62,-5.8l2.28,10.63l16.2,6.08c-5.55,-16.04 -6.86,-35.04 0.72,-49.87c15.59,3.54 34.07,11.47 55.41,23.78l-4.81,-5.57z" />
     <path d="m49.61,131.4c-1.42,-3.17 -1.56,-6.19 -0.32,-6.75c1.24,-0.55 3.4,1.57 4.81,4.74c1.42,3.17 1.56,6.19 0.33,6.74c-1.25,0.56 -3.4,-1.56 -4.82,-4.73z" />
    </g>
  
    <g id="ground_fone" fill="var(--outline-color, #000" transform="matrix(1 0 0 1 0 0)">
     <ellipse cx="47.83" cy="182.85"  rx="32.22" ry="4.21"/>
     <path d="m73.87,72.81l5.03,-1.76c2.99,-13.98 -5.15,-28.24 -24.41,-42.79l-6.55,6.04q0.04,7.96 6.04,16.11c-3.4,-0.52 -5.74,4.69 -2.01,13.09c0.1,7.26 -2.24,11.71 -7.05,13.34c15.1,56.92 15.43,86.3 1.01,88.15l0,1.51l-9.82,4.28c2.1,5.66 3.36,10.7 3.78,15.1c18.87,1.69 34.82,0.77 47.82,-2.77l-1.26,-16.36c-3.37,-0.51 -7.09,-0.59 -9.85,-3.19q-0.27,-0.26 -0.15,-2.27c-7.16,1.36 -13.22,-27.27 -18.19,-85.9c-4,0.1 -4.75,-2.67 -2.26,-8.3c2.78,1.47 5.14,1.04 7.04,-1.3c4,3.8 7.61,6.14 10.83,7.02z" />
     <ellipse cx="22.8" cy="103.31"  rx="2.99" ry="7.65"/>
     <ellipse cx="37.53" cy="96.86"  rx="2.63" ry="6.99"/>
     <path d="m23.6,102.54c7.61,9.61 26.85,4.26 15.97,-3.06l-0.7,-3.39c8.39,0.66 10.79,3.9 7.19,9.73l7.98,2.07l0.8,4.59c-2.43,-1.91 -6.59,-3.55 -12.48,-4.91c-3.49,4.15 -14.5,3.42 -18.06,-1.86l-0.7,-3.17z" />
     <path d="m61.48,44.7c7.59,-5.72 12.66,-14.21 15.2,-25.46c8.02,-8.06 26.39,24.49 15.45,28.2c-11.15,1.42 -19.21,4.42 -24.19,8.99c-4.71,-2.58 -6.86,-6.49 -6.46,-11.73z" />
    </g>
  
    <g id="lamp" fill="var(--outline-color, #000" transform="matrix(1 0 0 1 0 0)">
     <linearGradient id="_lgradient_0" x1="0.15" x2="0.65" y1="0.71" y2="0.24">
      <stop offset="0%" stop-color="var(--outline-color, #000)" stop-opacity="0.3"/>
      <stop offset="100%" stop-color="var(--outline-color, #000)" stop-opacity="0.61"/>
     </linearGradient>
     <linearGradient id="_lgradient_1" x1="0.43" x2="0.14" y1="0.56" y2="0.37">
      <stop offset="0%" stop-color="var(--outline-color, #000)" stop-opacity="0.3"/>
      <stop offset="100%" stop-color="var(--outline-color, #000)" stop-opacity="0.61"/>
     </linearGradient>
     <path d="m148.1,67.79l32.06,11.61q-26.35,50.8 -44.34,101.33l-4.07,-0.66l5.43,1.93l-1.99,9.25c-23.7,-7.28 -43.9,-18.41 -60.64,-33.43l5.14,-0.01l10.49,8.78l-11.95,-11.35l0.67,1.52l-1.85,-0.27l0.13,-3.3l13.79,8.98l-9.83,-8.12l0.59,-5.55l3.82,-0.42l-0.79,1.68l-0.98,-0.84q5.16,6.15 13.16,11.2q-5.5,-2.81 -14.13,-10.05c9.08,9.89 24.01,19.48 44.78,28.77c-21.73,-11.75 -35.55,-21.41 -41.45,-28.98c15.66,-30.28 36.31,-57.63 61.96,-82.07zm-2.45,9.68l26.25,6.17c-19.73,28.63 -34.52,57.31 -44.39,86.04c-14.74,-7.42 -26.66,-15.47 -35.75,-24.13c14.81,-26 32.78,-48.69 53.89,-68.08z" 
      fill="url(#_lgradient_0)" fill-rule="evenodd" />
     <path d="m49.89,114.32l-8.42,32.74c35.17,26.78 66.39,43.94 94.51,52.68l-0.02,-7.34c-28.16,-9.79 -49.18,-21.62 -63.1,-35.52c-5.81,-0.55 -12.15,-3.55 -19.04,-9.04c4.54,-6.63 3.24,-17.79 -3.93,-33.52z" 
      fill="url(#_lgradient_1)" />
     <path d="m146.27,16.19l-17.85,-5.49l-13.5,10.53c1.41,16.9 5.61,26.82 12.59,29.74l15.56,-5.03c4.96,-8.25 6.03,-18.16 3.2,-29.75zm-5.65,5.43l-12.54,0.28l0.14,10.33c7.26,5.56 11.39,2.02 12.4,-10.61z" 
      fill="url(#_lgradient_0)" fill-rule="evenodd" />
     <path d="m60.49,106.67l-4.03,4.34l6.45,19.49l9.89,8.81l3.29,-3.83l-15.6,-28.81z"  
      fill-opacity="0.64" />
     <path d="m106.3,197.47c-28.2,0.36 -49.1,1.66 -49.1,3.21c0,1.82 29.11,3.3 64.95,3.3c35.85,0 64.95,-1.48 64.95,-3.3c0,-0.58 -2.88,-1.12 -7.95,-1.59l0.67,1.32l-71.19,-1.67l-2.33,-1.27z"  
      fill-rule="evenodd" />
     <path d="m148.38,65.41l2.83,0.15l-5.46,-8.41l8.25,1.94l0.43,-6.75c-17.93,-3.29 -33.07,-1.49 -45.47,5.35l0.15,6.89l-12.67,2.53l-11.15,12.53l19.56,5.49l3.8,24.91l39.73,-44.63z"  
      fill-opacity="0.27" />
     <path d="m115.79,111.01l-6.77,8.8l-5.34,34.61l4.9,2.74l7.5,-33.17l-0.29,-12.98z"  
      fill-opacity="0.27" />
     <path d="m146.45,57.63l12.43,2.72l17.29,0.97c8.32,7.25 12.8,12.95 13.4,17.09l-38.85,-13.4l-4.27,-7.38z"  
      fill-opacity="0.64" />
     <path d="m159.6,131.89l-4.72,43.66l-7.61,-1.62l15.61,-51.47l4.19,-13.86c-11.86,23.75 -21.89,47.88 -30.13,72.35l1.15,0.98l-2.08,10.36l0.62,6.91l42.93,0.81l-2.02,-4.38l-3.77,-0.39l-1.74,-8.2l-3.31,0.16l-7.87,-60.06l-1.25,4.75z"  
      fill-opacity="0.64" />
     <path d="m43.24,140.81c-0.52,0.16 -1.05,0.32 -1.57,0.49l0,0c0.49,3.2 0.04,5.66 -1.38,6.38c-2.32,1.15 -6.34,-2.77 -8.98,-8.76c-2.64,-5.99 -2.9,-11.8 -0.59,-12.96c1.62,-0.8 4.06,0.86 6.29,3.97c4.18,-2.07 7.8,-4.44 10.88,-7.12l-4.65,18zm13.17,-3.39c2.9,-0.56 5.41,-0.86 7.56,-0.91c3.83,4.79 7.84,7.19 10.58,5.82c4.37,-2.19 3.88,-13.15 -1.11,-24.47c-4.99,-11.32 -12.58,-18.73 -16.96,-16.54c-3.03,1.51 -3.72,7.25 -2.21,14.4c-0.65,0.95 -1.35,1.86 -2.11,2.75c3.45,6.23 4.87,12.54 4.25,18.95zm3.12,-28.12c-0.51,7.25 6.15,23.43 13.27,26.94c-1.7,0.65 -13.17,-22.54 -13.27,-26.94l0,0z"  
      fill-rule="evenodd" />
     <path d="m153.65,174.87l-1.29,-14.94c-2.04,5.8 -3.47,8.64 -3.92,14.05l5.21,0.89l0,0l0,0l0,0l0,0l0,0l0,0l0,0l0,0l0,0l0,0l0,0l0,0l0,0zm6.55,-80.45l4.4,-2.84l-4.4,8.05l0,-5.21l0,0l0,0l0,0l0,0l0,0l0,0l0,0l0,0l0,0l0,0zm-30.33,0.44l16.18,3.92l-0.34,25.03l-7.15,14.3c-6.36,-0.44 -15.28,-0.7 -20.81,4.98c1.03,5.95 4.63,12.91 4.89,21.74c-4.06,-1.74 -7.31,-3.59 -9.75,-5.55l5.04,-29.83l1.31,-20.6l10.63,-13.99l0,0l0,0l0,0l0,0l0,0l0,0l0,0l0,0l0,0l0,0l0,0zm-21.25,26.52c-5.41,12.26 -9.08,21.36 -11.04,27.27l5.62,4.36l5.42,-31.63l0,0l0,0l0,0l0,0l0,0l0,0l0,0l0,0l0,0l0,0zm56.64,-7.31q-14.5,28.47 -27.09,66.8c8.13,2.02 19.64,4.36 29.58,4.76q-5.79,-26.44 -7.15,-55.13q-2.78,31.76 -1.61,46.42c-4.63,-0.47 -8.96,-1.54 -12.99,-3.21q9.01,-33.67 19.26,-59.64l0,0l0,0l0,0l0,0l0,0l0,0l0,0l0,0zm-28.49,79.41l0.41,4.9l40.58,1.14l-1.54,-3.52c-13.53,0.52 -26.27,-0.71 -39.45,-2.52l0,0l0,0l0,0l0,0l0,0l0,0l0,0zm1.88,-10.82l-2.18,8.73c12.93,3.45 24.43,4.52 36.49,3.21l-1.54,-6.16c-10.44,-0.89 -20.69,-2.82 -32.77,-5.78l0,0l0,0l0,0l0,0l0,0l0,0zm-40.91,-114.53c-3.3,2.68 -6.53,6.09 -9.7,10.23l61.07,-14.86c-0.55,-1.9 -1.63,-3.78 -3.23,-5.66l-48.14,10.29l0,0l0,0l0,0l0,0l0,0zm61.35,-6.67l-12,-3.21q3.25,2.4 4.5,5.51l36.78,13.16c-2.78,-6.09 -8.28,-10.48 -12.98,-14.75l-16.3,-0.71l0,0l0,0l0,0l0,0zm-46.65,42.28c-1.24,1.51 -2.42,2.96 -3.53,4.37l-3.75,-24.89c8.54,-3.53 21.74,-7.93 38.44,-13.57c-8.67,9.21 -20.8,22.65 -27.16,29.98c3.81,-5.23 10.44,-15.61 11.84,-20.41l-18.02,8.4q1.72,9.52 2.18,16.12l0,0l0,0l0,0zm1.26,21.52l0.11,-11.19l-3.45,4.84l-5.54,35.16l1.99,1.56l6.89,-30.37l0,0l0,0zm-3.38,-67.22l0.47,5.27l34.33,-7.22l7.46,2.36l0.38,-4.76c-16.39,-3.6 -30.6,-2.15 -42.64,4.35l0,0zm35.33,19.43l26.25,6.17c-19.73,28.63 -34.52,57.31 -44.39,86.04c-14.74,-7.42 -26.66,-15.47 -35.75,-24.13c14.81,-26 32.78,-48.69 53.89,-68.08l0,0l0,0l0,0l0,0l0,0l0,0l0,0l0,0l0,0l0,0zm2.45,-9.68l32.06,11.61q-26.35,50.8 -44.34,101.33l-4.07,-0.66l5.43,1.93l-1.99,9.25c-23.7,-7.28 -43.9,-18.41 -60.64,-33.43l5.14,-0.01l10.49,8.78l-11.95,-11.35l0.67,1.52l-1.85,-0.27l0.13,-3.3l13.79,8.98l-9.83,-8.12l0.59,-5.55l3.82,-0.42l-0.79,1.68l-0.98,-0.84q5.16,6.15 13.16,11.2q-5.5,-2.81 -14.13,-10.05c9.08,9.89 24.01,19.48 44.78,28.77c-21.73,-11.75 -35.55,-21.41 -41.45,-28.98c15.66,-30.28 36.31,-57.63 61.96,-82.07l0,0l0,0l0,0l0,0l0,0l0,0l0,0l0,0l0,0l0,0zm-51.81,-1.65c-3.97,3.41 -8.06,7.75 -13.07,14.57l21.42,5.9l2.43,24.52c-7.28,11.26 -14.38,23.2 -21.28,35.82l-6.47,0l0.27,5.66l-3.5,-0.81l-0.27,3.77c-6.74,0.15 -13.83,-2.27 -21.28,-7.27c4.61,-7.45 3.09,-19.74 -4.58,-36.91l-21.27,41.22c36.04,12.68 58.75,31.87 69.94,46.75l82.76,1.62l-2.37,-5.88l-4.04,-0.73l-2.16,-8.43l-3.5,-0.73c-4.93,-26.23 -6.44,-40.22 -7.04,-56.86c2.24,-8.39 8.03,-26.94 17.81,-44.23l11.86,-5.65c-2.99,-5.93 -7.99,-11.95 -15.01,-18.07l-17.88,-0.9l-2.97,-0.61l0.03,-7.22c-15.59,-5.16 -37.7,-1.09 -48.48,5.65l0,6.47l-11.35,2.35l0,0l0,0l0,0l0,0l0,0l0,0l0,0l0,0l0,0l0,0l0,0l0,0l0,0zm-24.74,91.62c22.82,18.49 45.73,29.93 64.11,35.09l-0.16,5.53c-30.01,-11.65 -62.46,-30.28 -91.28,-54.86l5.91,-25.29c6.06,12.34 6.91,22.17 2.55,29.51c4.82,5.04 11.72,8.39 18.87,10.02z"  
      fill-rule="evenodd" />
     <path d="m88.2,79.56l15.89,5.36l-0.41,-3.13l43.97,-15.59l35.9,13.28l-2.03,2.26l7.18,-2.84l-39.87,-14.2l-60.63,14.86z" />
     <path d="m113.76,20.21c5.24,-3.82 10.04,-7.81 14.41,-11.96c0.89,2.13 7.38,4.58 19.45,7.35c2.81,14.3 1.37,24.82 -4.32,31.56c-4.84,0.64 -9.73,2.18 -14.7,4.61c-6.86,0.04 -11.8,-10.48 -14.84,-31.56l0,0zm13.96,-8.75l-11.38,9.27c0.14,17.29 5.06,27.75 12.93,28.81c3.81,-2.47 8.17,-3.92 13.07,-4.35c4.54,-6.96 5.72,-16.23 3.51,-27.83c-10.51,-2.53 -16.55,-4.5 -18.13,-5.9l0,0z"  
      fill-rule="evenodd" />
     <path d="m127.58,14.13l-0.56,1.26c0.04,24.44 3.74,34.7 11.1,30.78c-6.98,1.32 -10.26,-6.6 -9.83,-23.75l11.38,-0.56c-0.61,10.3 -4.48,14.67 -9.78,10.73c2.09,6.46 11.18,4.45 11.33,-10.73l4.07,-0.56l-1.12,-0.42l-15.6,0.14l-0.99,-6.89z" />
    </g>
  
    <g id="wall_fone" fill="var(--outline-color, #000" transform="matrix(1 0 0 1 0 0)">
     <path d="m46.01,55.33c3.9,38.52 1.69,47.59 -1.93,84.53l17.66,-9.14l-2.76,-96.36l-12.97,20.97l0,0zm41.64,-17.37l0.33,0.08l0.81,101.83l-14.72,10.03l-36.15,0.3c6.53,-31.5 8.23,-54.33 5.44,-92.43l-1.46,0.17l-0.13,-2.39l-1.46,-0.94l0,-1.59l-1.99,-1.06l18.46,-30.69l32.84,7.17l-0.13,2.26l-0.8,0.66l0,1.73l-0.93,0.93l-0.11,3.94l0,0zm-24.01,-2.51l20.19,3.58l1.94,94.25l-19.84,-2.61c-3.31,-33.92 -4.18,-56.56 -2.29,-95.22z"  fill-rule="evenodd" id="svg_7"/>
     <g id="svg_8" transform="translate(-867.647 -51.4706)">
      <path d="m919.76,170.66c0.42,-2.98 1.77,-5.28 2.99,-5.12c1.23,0.15 1.89,2.71 1.46,5.69c-0.42,2.99 -1.77,5.28 -3,5.13c-1.23,-0.16 -1.88,-2.71 -1.45,-5.7z"  fill-rule="evenodd" id="svg_9"/>
      <path d="m901.47,160.41c-0.25,-4.78 -1.51,-8.13 -3.47,-8.38c-2.92,-0.37 -6.29,6.31 -7.51,14.9c-1.23,8.59 0.15,15.87 3.07,16.24c2,0.26 4.21,-2.79 5.8,-7.48c7.94,-2.34 15.24,-2.64 21.69,-0.96l0.39,-3.62l0.38,-3.63c-5,-0.68 -11.85,-3.04 -20.35,-7.07zm-4.36,2.16c2.09,7.58 -2.01,19.57 -4.24,14.66c1.25,1.89 4.42,-8.12 4.24,-14.66z"  fill-rule="evenodd" id="svg_10"/>
     </g>
     <path d="m49.42,61.25c2.92,10.42 3.07,21.58 0.44,33.5c-18.68,5.7 -18.53,-39.05 -0.44,-33.5z" />
     <path d="m48.21,64.83c2.13,8.31 2.24,17.23 0.32,26.74c-13.6,4.56 -13.49,-31.17 -0.32,-26.74z" />
     <path d="m54.66,54.93c3.09,11.6 3.74,21.15 0.96,34.42c-17.98,15.07 -20.1,-40.61 -0.96,-34.42z" />
     <path d="m83.96,101.43c-0.23,0.04 -0.46,0.07 -0.67,0.09c-1.39,-0.28 2.98,-27.34 -1.77,-28.26q-4.03,-0.78 -10.67,11.98c-1.9,4.83 1.07,5.78 3.52,5.5q2.94,-10.02 4.62,-9.19c1.69,0.84 -1.89,24.15 2.95,25.33q1.2,0.3 2.77,0.27c0.92,1.6 2.53,2.62 4.91,2.37c1.69,-0.75 3.22,-1.16 4.6,-1.22c7.38,0.32 8.53,-14.24 -0.14,-14.29c-1.95,0.83 -3.55,1.33 -4.8,1.49c-2.93,0.35 -4.77,3.01 -5.32,5.93z"  fill-rule="evenodd" id="svg_14"/>
     <path d="m52.12,59.6c2.03,9.26 2.45,16.88 0.63,27.48c-11.78,12.03 -13.17,-32.42 -0.63,-27.48z" />
     <path d="m59.22,28.82l-14.29,23.24c2.3,27.43 1.04,58.71 -3.8,93.8l22.8,-13.18l-4.71,-103.86z"  fill-opacity="0.27" id="svg_16"/>
     <path d="m60.33,29.93l3.28,107.87l23.03,-2l0,-100.5l-26.31,-5.37z"  fill-opacity="0.64" id="svg_17"/>
     <path d="m28.71,108.37l5,5.63l-5.5,14.12l-4,0.25l0.25,-5.5l4.25,-14.5z"  fill-opacity="0.64" id="svg_18"/>
    </g>

    <path id="wire" d="m38.03,78.78c67.63,26.78 34.48,70.04 -6.51,41.89c-40.99,-28.16 0.31,-93.11 41.61,-71.27c41.3,21.84 42.03,82.67 118.87,80.21c76.84,-2.46 26.93,-59.49 -14.7,-68.73c-41.63,-9.24 -37.24,24.32 -9.66,45.44c27.58,21.12 79.03,38.37 131.02,37.39c52,-0.98 103.39,-39.07 202.09,-80.75" 
      fill="none"
      stroke="var(--outline-color, #000)" 
      stroke-width="4"
    />

  </defs>

  <defs id="panel_defs">

    <g id="panel_1">

      <g data-clip-path="url(#two_of_four_clip)">

        <g transform="translate(620 32)">
          <text text-anchor="end">
            <tspan>Hey, I'm flying to BOSTON tomorrow!</tspan>
            <tspan x="0" dy="2em">I land at... wait, what?</tspan>
            <tspan x="0" dy="2em">No, I heard you.</tspan>
            <tspan x="0" dy="1em">I just don't...</tspan>
          </text>
        </g>
        <path class="obj" d="m 350 120 h5 l -35 20 z " />

        <mask id="wire_mask_panel_1">
          <rect width="1300" height="1300" fill="#fff" />
          <use href="#hand_matte_morris" fill="#000"
            transform="scale(1.5) translate(85 55)"
          />
          <path d="m49.89,114.32l-8.42,32.74c35.17,26.78 66.39,43.94 94.51,52.68l-0.02,-7.34c-28.16,-9.79 -49.18,-21.62 -63.1,-35.52c-5.81,-0.55 -12.15,-3.55 -19.04,-9.04c4.54,-6.63 3.24,-17.79 -3.93,-33.52z"
            fill="#000" transform="scale(1.5) translate(557 55)"
          />
        </mask>

        <g mask="url(#wire_mask_panel_1)">
          <use href="#wire" transform="translate(320 200) scale(1.2)" />
        </g>

        <use href="#morris" transform="scale(1.5) translate(85 55)" />
        <use href="#ground_fone" transform="scale(1.5) translate(-10 75)" />

      </g>

      <path class="border slant" d="M 0 200 V 0 H 350" />

    </g>

    <g id="panel_2">

      <g data-clip-path="url(#two_of_four_clip)">

        <g transform="translate(0 52)">
          <text text-anchor="start">
            COOL! What time do you
              <tspan font-style="italic">
                one-if-by land?
              </tspan>
            <tspan x="0" dy="2em">
              I said, what time do
            </tspan>
            <tspan x="0" dy="1em">
              you
              <tspan font-weight="bold">
                one-if-by land
              </tspan>?
            </tspan>
            <tspan x="0" dy="2em">
              I can't believe you're
            </tspan>
            <tspan x="0" dy="1em">
              coming to Boston.
            </tspan>
              <tspan x="0" dy="2em" font-style="italic">
                Two-if-by see
              </tspan>
              <tspan x="0" dy="1em">
                you soon!
              </tspan>
          </text>
        </g>
        <path class="obj" d="m 300 100 h5 l 30 20 z " />

        <mask id="wire_mask_panel_2">
          <rect width="1300" height="1300" fill="#fff" />
          <use href="#hand_matte_morris" fill="#000"
            transform="scale(1.5) translate(85 55)"
          />
          <path d="m49.89,114.32l-8.42,32.74c35.17,26.78 66.39,43.94 94.51,52.68l-0.02,-7.34c-28.16,-9.79 -49.18,-21.62 -63.1,-35.52c-5.81,-0.55 -12.15,-3.55 -19.04,-9.04c4.54,-6.63 3.24,-17.79 -3.93,-33.52z"
            fill="#000" 
            transform="scale(1.5) translate(130 55)"
          />
        </mask>

        <g class="port" mask="url(#wire_mask_panel_2)">
          <use href="#wire" transform="translate(-320 200) scale(1.2)" />
        </g>

        <use href="#wall_fone" transform="scale(1.5) translate(310 -20)" />
        <use href="#lamp" transform="scale(1.5) translate(130 55)" />

      </g>

      <path class="border slant" d="M 620 100 V 400 H 200" />
      

    </g>

  </defs>

  <g id="layouts">

  <svg class="land" viewBox="0 0 1300 520">
    <use href="#title"/>
    <g transform="translate(0 80)">
      <use href="#copyright" transform="translate(1276 395)" />
      <use href="#panel_1" transform="translate(20 0)" />
      <use href="#panel_2" transform="translate(660 0)" />
    </g>
  </svg>

  <svg class="port" viewBox="0 0 650 905"> 
    <use href="#title" />
    <g transform="translate(0 80)">
      <use href="#copyright" transform="translate(631 814)" />
      <use href="#panel_1" transform="translate(15 0)" 
        clip-path="url(#two_of_four_clip)"
      />
      />
      <use href="#panel_2" transform="translate(15 420)" />
    </g>
  </svg>
  
  </g>

</svg>
