 <svg
  xmlns="http://www.w3.org/2000/svg" 
  style="
  isolation:isolate;
  --x-background-color: grey;
  "
  viewBox="0 -20 500 580">

  <g>
    <path
      d=" M 173.831 57.245 Q 129.74 87.927 127.013 124.9 C 125.256 148.722 143.697 169.592 155.594 175.341 C 170.289 182.442 204.085 170.766 185.414 133.982 C 149.943 64.099 111.176 73.402 67.824 130.425 C 65.506 135.636 75.352 140.352 78.542 134.213 C 88.246 111.213 110.26 82.292 138.434 92.527 C 167.636 103.135 191.418 163.388 176.826 168.42 C 147.617 178.493 103.164 119.645 181.582 64.17 L 173.831 57.245 Z "
      fill="rgb(0,0,0)" />
    <path
      d=" M 141.659 87.747 C 137.404 86.288 132.977 85.624 128.438 86.016 Q 134.892 87.062 140.631 89.212 L 141.659 87.747 Z  M 151.37 92.55 C 174.148 107.26 189.701 141.598 186.788 145.599 C 183.677 149.872 180.111 137.416 177.907 131.159 Q 168.812 105.342 150.377 93.973 L 151.37 92.55 Z "
      fill-rule="evenodd" fill="rgb(70,70,70)" />
    <path
      d=" M 152.447 43.32 C 189.185 13.622 227.525 -9.389 232.06 3.811 C 246.278 45.203 252.608 78.415 258.393 109.285 L 228.385 114.49 C 223.834 92.462 216.997 67.559 207.87 39.777 C 193.961 50.8 180.796 65.805 168.37 84.789 C 147.878 98.682 131.926 58.559 152.447 43.32 Z "
      fill="rgb(0,0,0)" />
    <path
      d=" M 158.008 47.47 C 192.145 18.627 222.683 -0.76 226.896 12.059 C 240.108 52.258 244.68 76.318 250.056 106.298 L 235.969 108.727 C 231.74 87.333 220.681 53.039 209.004 26.643 C 194.492 37.035 177.59 56.414 166.043 74.851 C 150.421 85.078 142.36 59.005 158.008 47.47 Z "
      fill="rgb(70,70,70)" />
    <g opacity="0.29">
      <path
        d=" M 165.66 82.966 L 182.569 61.772 L 205.764 39.777 L 221.177 71.921 L 229.342 109.285 L 241.145 105.145 C 232.054 68.249 225.928 37.56 213.244 20.552 C 182.658 39.9 159.892 60.298 151.265 75.758 L 165.66 82.966 Z "
        fill="rgb(0,0,0)" />
    </g>
    <g opacity="0.77">
      <path
        d=" M 213.006 25.819 Q 228.824 85.361 233.694 108.617 L 231.815 108.727 Q 224.645 80.652 211.873 34.554 L 213.006 25.819 Z "
        fill="rgb(209,209,209)" />
    </g>
    <g opacity="0.77">
      <path
        d=" M 152.655 53.363 C 150.839 56.741 149.755 59.545 149.403 61.772 C 156.104 52.042 166.265 41.338 179.882 29.657 C 169.715 37.562 160.64 45.465 152.655 53.363 Z "
        fill="rgb(209,209,209)" />
    </g>
    <path
      d=" M 218.61 13.358 Q 202.812 20.793 199.787 39.771 C 197.498 54.125 211.882 53.471 213.917 44.317 Q 208.613 27.318 218.61 13.358 Z "
      fill="rgb(0,0,0)" />
    <path
      d=" M 207.051 138.254 L 201.846 125.727 C 218.81 105.899 249.12 96.865 283.595 104.442 L 283.595 122.814 L 207.051 138.254 Z "
      fill="rgb(0,0,0)" />
    <path
      d=" M 278.244 122.814 L 278.244 107.73 C 269.108 105.296 259.042 104.78 248.04 106.181 L 252.199 128.366 L 278.244 122.814 Z "
      fill="rgb(70,70,70)" />
    <g opacity="0.77">
      <path d=" M 208.399 123.655 L 213.844 137.327 L 217.594 136.852 L 211.873 120.214 L 208.399 123.655 Z "
        fill="rgb(209,209,209)" />
    </g>
    <path
      d=" M 211.873 133.888 L 197.978 169.608 L 189.125 145.83 C 217.004 121.204 257.928 109.161 301.504 119.496 L 298.908 148.884 L 237.621 141.831 L 211.873 133.888 Z "
      fill="rgb(0,0,0)" />
    <path
      d=" M 291.856 123.856 L 291.856 144.825 L 264.438 140.93 L 261.683 121.84 C 271.124 121.272 281.184 121.946 291.856 123.856 Z "
      fill="rgb(70,70,70)" />
    <path
      d=" M 165.493 196.964 L 202.244 136.4 L 281.716 149.983 L 332.998 153.87 L 336.826 228.645 L 336.826 260.254 L 338.394 284.462 L 362.796 277.537 L 361.886 288.239 L 340.283 312.159 L 349.725 390.768 L 368.178 385.18 L 355.39 434.987 L 362.796 479.149 L 389.383 485.976 L 365.462 517.082 L 263.055 521.103 L 209.204 518.972 L 216.87 380.821 L 165.493 196.964 Z "
      fill="rgb(255,153,0)" />
    <g opacity="0.53">
      <path
        d=" M 167.247 195.705 L 173.456 190.33 L 226.628 381.072 L 220.355 517.082 L 210.777 517.082 L 218.006 383.21 C 203.645 321.89 186.785 255.904 167.247 195.705 Z "
        fill="rgb(209,209,209)" />
    </g>
    <g opacity="0.37">
      <path
        d=" M 173.456 189.296 L 201.871 134.073 L 263.147 367.321 C 266.631 367.487 271.368 368.119 277.33 369.188 C 264.974 370.153 254.025 372.3 244.452 375.602 C 253.455 374.9 259.95 375.134 263.909 376.275 L 263.56 518.137 L 220.032 520.027 L 226.305 382.025 L 173.456 189.296 Z "
        fill="rgb(0,0,0)" />
    </g>
    <path d=" M 0 531.409 L 209.592 514.344 L 371.753 514.84 L 500 531.409 Q 298.899 519.971 0 531.409 Z "
      fill="rgb(0,0,0)" />
    <g opacity="0.77">
      <path d=" M 206.424 154.388 L 202.528 144.147 L 207.872 140.694 L 211.25 151.169 L 206.424 154.388 Z "
        fill="rgb(209,209,209)" />
    </g>
    <path
      d=" M 197.701 148.266 L 197.701 148.266 L 197.701 148.266 L 197.701 148.266 Q 188.029 176.794 171.689 198.794 C 188.979 252.483 205.929 313.16 222.534 380.821 C 223.15 419.546 220.741 463.953 215.303 514.036 L 260.155 514.036 L 263.909 393.578 L 267.797 514.036 Q 347.189 513.12 384.583 487.9 L 359.816 484.545 C 357.104 468.07 354.557 452.016 352.179 436.397 L 359.131 432.288 L 359.131 432.288 L 359.131 432.288 L 359.131 432.288 C 361.586 448.279 364.241 463.9 367.094 479.149 L 396.897 482.805 Q 380.761 502.762 374.366 522.876 L 203.234 522.876 C 209.902 470.121 212.695 422.822 211.609 380.973 Q 193.763 312.836 160.211 195.705 Q 183.804 164.117 195.899 122.912 Q 269.8 147.555 336.826 149.984 C 336.931 155.498 340.148 275.955 340.283 281.413 L 332.998 284.462 C 332.973 281.044 326.28 161.963 326.298 158.654 C 295.013 157.511 243.113 152.509 208.932 142.016 L 252.2 326.321 L 197.701 148.266 Z  M 353.277 390.557 C 351.088 373.387 349.111 355.821 347.346 337.858 L 347.346 337.858 L 339.408 344.033 C 341.269 359.257 343.329 374.989 345.591 391.241 L 353.277 390.557 L 353.277 390.557 L 353.277 390.557 Z "
      fill-rule="evenodd" fill="rgb(0,0,0)" />
    <path
      d=" M 176.425 223.535 Q 174.204 232.904 167.689 234.449 C 158.698 236.581 172.904 282.011 191.357 293.542 L 176.425 223.535 Z "
      fill="rgb(0,0,0)" />
    <path
      d=" M 200.671 309.927 Q 192.758 319.505 183.943 323.189 C 173.281 326.61 191.335 362.364 215.303 374.678 L 200.671 309.927 Z "
      fill="rgb(0,0,0)" />
    <path d=" M 217.369 395.81 Q 207.241 402.83 197.334 403.408 Q 185.041 420.632 215.06 475.664 L 217.369 395.81 Z "
      fill="rgb(0,0,0)" />
    <path
      d=" M 312.074 385.517 Q 343.829 394.339 364.644 380.096 C 384.193 366.721 392.18 454.618 342.993 451.652 C 312.604 503.158 298.552 478.796 298.498 464.284 L 287.959 464.269 Q 283.004 409.516 312.074 385.517 Z  M 314.211 392.288 Q 339.291 400.316 356.211 394.174 C 338.793 404.175 337.955 454.058 294.929 457.345 Q 289.355 415.629 314.211 392.288 Z "
      fill-rule="evenodd" fill="rgb(0,0,0)" />
    <g opacity="0.32">
      <path
        d=" M 304.925 463.988 C 316.874 461.91 330.589 453.542 340.226 431.85 C 337.108 462.543 308.11 487.265 304.925 463.988 Z "
        fill="rgb(192,255,192)" />
    </g>
    <path
      d=" M 254.634 170.848 Q 267.853 177.353 294.604 160.788 C 323.003 143.203 358.354 231.057 324.812 236.581 C 313.558 294.792 265.651 286.595 257.978 242.955 L 248.672 244.831 Q 234.038 195.476 254.634 170.848 Z  M 257.978 178.885 Q 261.514 180.865 271.181 174.916 C 243.007 191.99 261.142 236.262 253.695 236.581 Q 243.098 197.855 257.978 178.885 Z "
      fill-rule="evenodd" fill="rgb(0,0,0)" />
    <path
      d=" M 335.366 492.583 C 346.175 482.738 354.059 476.593 361.886 472.051 L 371.821 473.379 L 368.178 484.545 C 362.211 483.559 352.842 484.656 335.366 492.583 Z "
      fill="rgb(0,0,0)" />
    <path
      d=" M 297.18 284.37 Q 323.786 289.321 351.488 273.277 C 373.498 260.528 381.081 345.992 336.819 350.094 C 320.502 389.169 300.773 387.856 297.065 361.985 L 280.64 364.572 Q 275.696 310.242 297.18 284.37 Z  M 301.4 291.73 Q 315.667 293.993 338.797 286.797 C 317.608 298.277 329.401 351.68 289.292 354.87 Q 284.971 315.855 301.4 291.73 Z "
      fill-rule="evenodd" fill="rgb(0,0,0)" />
    <g opacity="0.35">
      <path
        d=" M 305.211 359.519 C 322.142 356.14 327.781 325.82 335.366 304.662 C 349.999 340.825 307.192 388.089 305.211 359.519 Z "
        fill="rgb(255,224,178)" />
    </g>
    <g opacity="0.17">
      <path
        d=" M 318.632 348.001 C 316.806 357.319 319.564 368.061 327.403 360.367 L 316.638 375.264 C 309.714 370.68 306.63 363.585 307.202 355.147 L 318.632 348.001 Z "
        fill="rgb(0,0,0)" />
    </g>
    <g opacity="0.17">
      <path
        d=" M 318.002 451.319 C 316.175 460.636 318.933 471.379 326.772 463.685 L 316.008 478.582 C 309.083 473.998 306 466.903 306.571 458.465 L 318.002 451.319 Z "
        fill="rgb(0,0,0)" />
    </g>
    <g opacity="0.29">
      <linearGradient id="_lgradient_9" x1="0.6247998213851766" y1="0.21120872898829646" x2="0.3672695257486209"
        y2="0.7320420623216286" gradientTransform="matrix(27.215,0,0,59.833,247.668,180.28)"
        gradientUnits="userSpaceOnUse">
        <stop offset="0%" stop-opacity="0.05" style="stop-color:rgb(0,0,0)" />
        <stop offset="100%" stop-opacity="1" style="stop-color:rgb(0,0,0)" />
      </linearGradient>
      <path
        d=" M 253.994 183.503 Q 262.561 184.011 274.883 180.28 L 262.797 208.733 L 261.271 236.581 L 250.492 240.113 C 245.776 221.904 246.981 199.956 253.994 183.503 Z "
        fill="url(#_lgradient_9)" />
    </g>
    <g opacity="0.29">
      <linearGradient id="_lgradient_10" x1="0.6247998213851766" y1="0.21120872898829646" x2="0.3672695257486209"
        y2="0.7320420623216286" gradientTransform="matrix(63.292,0,0,59.356,283.641,297.514)"
        gradientUnits="userSpaceOnUse">
        <stop offset="0%" stop-opacity="0.05" style="stop-color:rgb(0,0,0)" />
        <stop offset="100%" stop-opacity="1" style="stop-color:rgb(0,0,0)" />
      </linearGradient>
      <path
        d=" M 289.531 300.545 C 303.814 303.761 322.95 302.752 346.934 297.514 L 332.998 316.223 L 312.094 347.579 L 298.995 353.967 L 283.641 356.87 L 283.641 319.127 L 289.531 300.545 Z "
        fill="url(#_lgradient_10)" />
    </g>
    <g opacity="0.36">
      <linearGradient id="_lgradient_11" x1="0.47575324818922177" y1="0.24531399706947182" x2="0.3734673747204883"
        y2="0.7164349661698958" gradientTransform="matrix(73.265,0,0,74.084,289.531,389.859)"
        gradientUnits="userSpaceOnUse">
        <stop offset="0%" stop-opacity="0.05" style="stop-color:rgb(0,0,0)" />
        <stop offset="100%" stop-opacity="1" style="stop-color:rgb(0,0,0)" />
      </linearGradient>
      <path
        d=" M 312.094 389.859 Q 333.075 394.857 362.796 390.768 L 328.808 445.299 L 307.202 460.553 L 289.531 463.943 L 289.531 431.175 L 312.094 389.859 Z "
        fill="url(#_lgradient_11)" />
    </g>
    <g opacity="0.24">
      <path
        d=" M 333.866 329.875 C 335.286 330.105 336.773 335.657 333.866 340.638 C 331.156 345.28 327.462 346.054 329.368 339.233 C 330.653 336.75 332.153 333.631 333.866 329.875 Z "
        fill="rgb(209,209,209)" />
    </g>
    <ellipse vector-effect="non-scaling-stroke" cx="292.0312849983991" cy="223.97008271458344" rx="28.889263799386242"
      ry="44.8994544744249" fill="rgb(195,11,11)" />
    <defs>
      <filter id="segAS5JusPNddEg13uSNa3idst2YZnQF" x="-200%" y="-200%" width="400%" height="400%"
        filterUnits="objectBoundingBox" color-interpolation-filters="sRGB">
        <feGaussianBlur xmlns="http://www.w3.org/2000/svg" stdDeviation="1.7174436251356113" />
      </filter>
    </defs>
    <g opacity="0.1" filter="url(#segAS5JusPNddEg13uSNa3idst2YZnQF)">
      <path
        d=" M 266.313 215.253 C 278.947 245.009 297.545 262.291 315.816 249.043 Q 312.162 262.747 302.202 266.542 C 281.664 268.521 269.711 251.434 266.313 215.253 Z "
        fill="rgb(0,0,0)" />
    </g>
    <defs>
      <filter id="CmVuyVY2Kzz0xexTCGx9NecY9XVdi6ux" x="-200%" y="-200%" width="400%" height="400%"
        filterUnits="objectBoundingBox" color-interpolation-filters="sRGB">
        <feGaussianBlur xmlns="http://www.w3.org/2000/svg" stdDeviation="1.7174436251356113" />
      </filter>
    </defs>
    <g opacity="0.37" filter="url(#CmVuyVY2Kzz0xexTCGx9NecY9XVdi6ux)">
      <path
        d=" M 312.202 218.697 C 312.733 219.005 313.258 219.119 313.762 219.025 C 316.511 218.509 317.593 211.963 316.178 204.414 C 314.762 196.866 311.381 191.156 308.633 191.672 C 305.884 192.187 304.802 198.734 306.217 206.282 C 306.434 207.44 306.698 208.554 307.007 209.597 C 305.436 210.296 304.709 213.493 305.381 217.079 C 306.102 220.925 308.163 223.772 309.98 223.431 C 311.325 223.179 312.162 221.251 312.202 218.697 Z "
        fill-rule="evenodd" fill="rgb(235,235,235)" />
    </g>
  </g>
</svg>