<svg xmlns="http://www.w3.org/2000/svg"
  style="isolation:isolate"
  viewBox="324.356 10.535 350.038 783.169"
  width="350.038pt" height="783.169pt"
>

  <defs>
    <clipPath id="_clipPath_zIgK6qnw5Wb6Og4uSRLXIdoJUVIBcKKO">
      <rect x="324.356" y="10.535" width="350.038" height="783.169" />
    </clipPath>
  </defs>
  <g clip-path="url(#_clipPath_zIgK6qnw5Wb6Og4uSRLXIdoJUVIBcKKO)">
    <rect x="324.394" y="10.535" width="350" height="783.169" transform="matrix(1,0,0,1,0,0)"
      fill="rgb(70,70,70)" />
    <g>
      <path d=" M 324.394 498.929 L 434.722 533.633 L 440.504 641.256 L 324.394 637.131 L 324.394 498.929 Z "
        fill="rgb(0,0,0)" />
      <g opacity="0.53">
        <path d=" M 324.394 767.224 L 388.941 765.067 L 383.867 658.468 L 434.732 639.673 L 324.394 637.131 L 324.394 767.224 Z "
          fill="rgb(0,0,0)" />
      </g>
      <path d=" M 324.394 503.384 L 429.927 536.687 L 434.732 634.34 L 324.394 630.216 L 324.394 503.384 Z "
        fill="rgb(70,70,70)" />
      <path d=" M 324.394 517.738 L 424.852 544.806 L 428.847 625.206 L 324.394 612.963 L 324.394 517.738 Z "
        fill="rgb(0,0,0)" />
    </g>
    <g>
      <path d=" M 559.488 720.565 C 560.521 717.085 562.169 713.62 564.412 710.149 C 570.585 715.841 578.925 724.686 589.41 736.663 L 602.289 720.187 C 603.958 724.341 605.417 729.588 606.644 735.905 L 605.129 757.306 C 600.82 756.333 595.249 755.158 588.292 753.262 C 567.754 751.238 553.417 747.93 546.034 742.995 L 559.668 738.49 L 559.488 720.565 Z "
        fill="rgb(255,255,255)" />
      <path d=" M 533.366 744.727 L 545.478 742.911 L 553.114 746.359 C 563.404 750.139 575.392 752.13 588.389 753.353 L 605.178 756.805 L 605.178 764.476 L 587.062 763.333 L 548.381 760.232 L 533.366 744.727 Z "
        fill="rgb(157,14,14)" />
      <path d=" M 553.323 662.042 C 555.122 640.535 558.737 622.388 560.476 617.875 C 573.53 616.062 585.901 610.672 605.289 603.973 C 609.656 612.873 616.553 620.851 618.621 629.149 L 610.333 644.864 C 612.241 646.198 613.328 647.782 613.573 649.593 C 610.59 659.867 605.058 673.171 597.136 691.451 L 602.372 722.031 L 589.503 736.003 C 579.994 725.321 571.544 716.565 564.132 709.714 C 561.201 714.925 559.548 719.701 559.151 724.018 L 553.736 696.49 L 566.154 697.212 L 577.553 689.674 L 573.438 663.59 C 569.345 664.095 560.337 663.693 553.323 662.042 Z "
        fill="rgb(157,14,14)" />
      <path d=" M 547.693 743.412 C 552.734 746.618 572.823 752.034 587.075 752.705 L 588.425 742.005 L 588.425 742.005 C 582.376 729.538 568.147 714.218 564.682 711.633 C 562.759 714.1 561.402 717.094 560.457 721.875 C 560.903 726.788 561.194 731.888 561.332 737.171 C 565.023 738.573 571.865 740.073 581.342 741.567 C 572.703 741.192 566.447 740.598 562.581 739.777 C 564.536 741.433 568.676 743.405 575.008 745.685 C 568.61 743.97 562.681 742.299 558.775 740.559 C 555.486 741.595 551.795 742.547 547.693 743.412 Z  M 546.228 743.72 C 556.423 750.163 578.407 752.351 586.971 753.528 L 585.832 762.545 C 563.044 759.252 546.483 752.09 534.717 745.196 C 539.129 745.012 542.73 744.427 546.228 743.72 Z  M 589.166 762.259 L 589.691 754.078 C 593.603 755.112 598.231 756.222 603.554 757.386 L 603.062 763.654 L 606.212 763.864 L 608.139 734.697 C 603.051 710.347 599.263 697.007 598.667 689.601 C 609.158 669.108 615.121 656.942 615.586 647.796 C 614.915 646.886 614.23 645.857 612.545 644.672 C 615.153 639.321 618.625 633.813 621.604 629.197 Q 618.924 620.037 605.489 601.018 C 586.603 609.969 574.087 614.322 562.56 616.322 C 561.434 616.492 560.41 616.602 559.493 616.654 Q 553.062 636.488 551.179 662.938 C 555.356 664.543 563.129 665.237 568.907 665.062 Q 573.771 679.342 573.51 690.112 C 570.02 693.002 566.866 694.812 562.289 695.938 C 558.43 695.899 553.54 695.281 552.022 694.957 C 555.182 708.996 558.17 723.162 558.324 736.157 Q 557.678 736.362 556.116 736.712 Q 556.467 738.115 556.6 738.944 C 549.609 741.35 537.586 743.341 528.926 743.081 C 535.912 749.056 539.864 754.296 543.246 761.604 L 591.633 763.282 L 589.166 762.259 Z  M 610.375 643.351 C 609.087 642.624 607.1 641.57 604.393 640.166 C 609.605 644.616 612.302 647.716 612.462 649.444 C 609.915 661.937 601.313 680.545 591.35 703.597 C 593.117 700.273 594.788 697.1 596.363 694.071 L 601.159 717.029 C 597.484 721.296 593.472 726.469 589.099 732.485 L 583.462 706.125 L 587.424 731.566 C 581.258 722.967 566.635 709.908 564.398 708.737 C 562.731 710.607 561.207 713.244 559.886 716.36 C 558.759 709.873 557.09 703.122 555.467 697.407 C 567.448 698.276 578.405 698.054 585.68 695.445 C 586.349 696.254 592.789 673.2 598.165 657.488 C 600.054 656.95 598.259 665.403 596.766 673.639 C 599.892 664.741 601.601 658.863 602.219 654.412 C 602.52 652.244 596.583 651.465 592.927 651.087 C 595.618 652.227 596.893 653.399 597.318 655.1 C 585.691 662.838 563.208 664.19 554.405 661.377 Q 555.974 640.193 561.186 619.226 C 568.914 618.366 584.747 615.175 601.87 605.999 L 594.71 637.097 L 605.044 606.428 Q 616.565 623.056 617.724 629.728 Q 614.588 634.74 610.375 643.351 Z  M 590.531 741.284 L 589.755 753.103 L 589.755 753.103 C 594.107 754.325 598.738 755.458 603.624 756.482 L 605.2 736.377 L 602.989 725.792 C 599.379 729.652 595.233 734.824 590.531 741.284 L 590.531 741.284 Z "
        fill-rule="evenodd"
        fill="rgb(0,0,0)" />
      <path d=" M 568.941 721.547 C 568.481 719.174 567.063 717.42 565.775 717.632 C 564.487 717.844 563.815 719.942 564.275 722.314 C 564.735 724.687 566.154 726.441 567.442 726.229 C 568.729 726.017 569.401 723.919 568.941 721.547 Z "
        fill="rgb(0,0,0)" />
      <path d=" M 567.019 721.6 C 566.728 720.099 565.972 718.966 565.333 719.071 C 564.694 719.176 564.411 720.48 564.702 721.981 C 564.994 723.482 565.749 724.615 566.388 724.51 C 567.027 724.405 567.31 723.101 567.019 721.6 Z "
        fill="rgb(157,14,14)" />
      <g opacity="0.77">
        <path d=" M 560.082 618.49 C 572.247 616.149 589.309 610.959 604.479 603.635 L 594.967 636.447 C 604.543 642.83 608.479 649.486 608.484 651.202 C 606.464 660.63 598.865 672.752 594.817 682.78 C 597.559 671.14 598.877 656.82 596.536 665.299 L 587.874 694.65 C 585.377 695.843 583.222 696.142 581.396 696.641 L 583.471 706.157 L 589.086 737.241 L 587.101 762.542 C 563.471 761.451 545.029 755.351 531.754 744.222 C 541.69 744.048 550.313 742.763 559.816 738.481 L 557.335 711.692 L 553.614 695.32 C 562.305 697.752 570.995 696.519 579.66 691.599 C 593.417 675.455 592.777 669.267 570.24 663.899 C 564.876 664.105 558.16 663.604 552.537 661.942 C 554.164 647.637 556.259 634.454 560.082 618.49 Z "
          fill="rgb(0,0,0)"
          fill-opacity="0.43" />
      </g>
    </g>

    <g id="selffie" opacity="0">
      <path d=" M 487.334 595.753 C 478.152 588.117 436.699 576.066 430.431 578.268 C 423.655 580.132 421.957 586.899 409.385 590.966 C 405.25 592.304 407.54 603.823 409.832 612.303 C 421.386 655.051 404.3 723.785 398.543 737.025 C 394.884 745.439 398.543 757.734 408.836 762.918 L 469.391 759.674 C 474.014 759.459 477.785 753.475 479.13 748.69 C 489.243 712.714 492.206 657.977 493.381 611.658 C 493.52 606.203 492.62 600.149 487.334 595.753 Z "
        fill="rgb(0,0,0)" />
      <linearGradient id="_lgradient_0" x1="0.26627395495150713" y1="0.7230840155806207" x2="0.7149756366753297" y2="0.17372722122181217" gradientTransform="matrix(-89.729,0,0,180.432,491.12,581.608)" gradientUnits="userSpaceOnUse">
        <stop offset="1.7391304347826086%" stop-opacity="1" style="stop-color:rgb(185,185,185)" />
        <stop offset="98.69565217391305%" stop-opacity="1" style="stop-color:rgb(255,255,255)" />
      </linearGradient>
      <path d=" M 426.907 657.822 C 429.541 620.206 425.836 601.985 424.876 595.05 C 423.972 588.521 429.235 580.574 437.393 581.719 C 449.605 583.432 476.332 590.008 485.24 597.429 C 490.368 601.7 491.241 607.584 491.107 612.886 C 489.966 657.898 487.857 708.904 478.046 743.866 C 476.741 748.516 472.006 755.925 467.521 756.134 Q 436.271 755.128 427.243 749.785 C 422.225 746.814 414.687 742.226 416.751 731.505 C 418.843 720.633 420.569 710.547 421.975 701.219 C 419.113 716.272 415.762 727.041 413.847 732.279 C 410.148 742.399 417.737 756.525 458.354 758.656 C 448.978 758.92 428.698 760.123 413.851 762.04 C 403.446 756.023 399.575 746.984 402.173 737.849 C 416.956 685.073 420.799 642.722 413.694 610.807 C 411.987 603.143 407.28 593.734 413.867 591.255 C 416.157 590.393 421.452 587.077 426.873 582.673 C 422.675 587.484 422.576 591.141 423.854 599.797 C 426.968 620.896 427.628 640.476 426.907 657.822 Z "
        fill="url(#_lgradient_0)" />
      <path d=" M 450.946 731.044 C 461.887 732.967 468.662 733.368 471.592 732.366 C 474.743 731.288 477 725.774 478.06 722.106 C 486.108 694.261 488.264 653.324 487.344 616.632 C 487.237 612.355 485.54 608.878 482.608 606.529 C 476.274 601.454 448.64 595.759 440.885 594.607 C 435.564 593.817 433.885 597.53 434.612 600.066 C 439.105 615.736 439.379 664.759 432.875 700.401 L 450.946 731.044 L 450.946 731.044 Z "
        fill="rgb(0,0,0)" />
      <path d=" M 416.566 707.163 L 412.384 709.254 C 411.047 719.127 409.259 724.74 406.29 731.087 L 410.282 730.137 C 413.071 724.623 414.281 718.51 416.566 707.163 Z "
        fill="rgb(0,0,0)" />
      <path d=" M 464.685 743.502 C 465.005 740.635 460.391 737.706 454.386 736.965 C 448.382 736.224 443.247 737.95 442.927 740.817 C 442.606 743.683 447.221 746.613 453.225 747.354 C 459.23 748.095 464.365 746.369 464.685 743.502 Z "
        fill="rgb(0,0,0)" />
      <path d=" M 467.208 595.07 C 467.609 593.762 465.968 592.099 463.547 591.359 C 461.127 590.619 458.837 591.08 458.437 592.389 C 458.037 593.697 459.677 595.36 462.098 596.1 C 464.518 596.841 466.808 596.379 467.208 595.07 Z "
        fill="rgb(0,0,0)" />
      <path d=" M 478.893 608.822 C 473.283 603.898 451.057 598.981 441.119 597.618 C 437.504 597.123 435.97 599.557 436.614 602.018 C 441.209 619.57 439.989 682.304 432.341 714.34 C 430.756 720.979 436.114 726.38 438.512 726.38 Q 462.42 732.165 467.9 730.111 C 470.692 729.065 474.211 724.007 475.102 720.425 C 481.752 693.69 483.425 654.505 483.089 618.624 C 483.05 614.473 481.491 611.102 478.893 608.822 Z "
        fill="rgb(70,70,70)" />
      <path d=" M 484.327 639.338 C 484.637 638.298 484.838 635.419 484.498 633.886 C 477.418 656.107 445.168 632.583 437.189 612.37 C 454.242 651.146 479.759 646.944 482.282 641.042 C 477.853 665.939 449.908 662.515 438.491 647.858 C 438.737 649.516 438.153 654.104 437.95 655.265 C 443.47 681.969 469.236 702.818 482.543 665.929 C 470.155 693.695 450.059 688.981 439.992 652.934 C 452.826 666.465 478.998 667.987 484.327 639.338 Z "
        fill="rgb(0,0,0)" />
      <path d=" M 463.327 743.535 C 463.57 741.391 459.821 739.086 454.961 738.392 C 450.1 737.698 445.956 738.875 445.713 741.019 C 445.47 743.162 449.219 745.467 454.079 746.161 C 458.94 746.855 463.084 745.678 463.327 743.535 Z "
        fill="rgb(70,70,70)" />
      <path d=" M 460.842 759.2 L 460.108 757.364 L 439.047 755.186 L 407.799 760.485 L 411.562 762.871 L 460.842 759.2 Z "
        fill="rgb(0,0,0)" />
      <path d=" M 437.168 754.246 L 407.251 759.477 L 404.222 756.908 L 430.377 752.136 L 437.168 754.246 Z "
        fill="rgb(0,0,0)" />
      <path d=" M 426.337 750.392 L 403.302 754.705 L 402.476 753.617 L 424.226 749.304 L 426.337 750.392 Z "
        fill="rgb(0,0,0)" />
      <path d=" M 420.28 746.365 L 400.549 750.495 L 400.274 749.302 L 418.995 745.447 L 420.28 746.365 Z "
        fill="rgb(0,0,0)" />
    </g>

    <g id="apron" opacity="1">
      <path d=" M 437.183 716.004 L 420.048 711.628 C 413.274 713.44 408.7 714.084 406.295 713.53 L 405.971 712.557 L 399.853 719.219 L 402.369 725.576 L 405.324 724.472 L 405.324 723.328 C 409.292 722.839 414.21 721.397 420.048 718.972 L 436.812 723.328 L 437.183 716.004 Z "
        fill="rgb(0,0,0)" />
      <path d=" M 434.718 716.806 L 419.958 713.589 C 412.965 715.303 407.967 716.067 404.935 715.853 L 401.495 719.079 L 403 722.95 L 403.206 721.278 C 408.527 720.555 414.049 719.22 419.743 717.245 L 433.233 720.473 L 434.718 716.806 Z "
        fill="rgb(4,89,47)" />
      <path d=" M 419.743 714.43 L 408.64 717.441 L 419.605 715.231 L 410.712 718.488 L 419.678 715.814 L 428.075 718.273 L 420.553 715.523 L 425.598 716.087 L 419.743 714.43 Z "
        fill="rgb(0,0,0)" />
      <path d=" M 408.525 665.752 L 414.366 665.006 L 415.074 673.503 C 418.116 677.662 426.464 684.618 440.057 694.311 L 466.43 702.386 L 486.513 701.011 L 487.138 695.303 L 492.734 698.096 L 485.804 721.404 L 487.537 724.553 L 484.889 726.543 L 492.182 747.1 L 465.714 738.842 L 424.244 739.254 L 432.194 718.161 L 432.566 693.479 C 420.52 688.026 410.813 681.374 406.211 675.712 L 408.525 665.752 Z "
        fill="rgb(0,0,0)" />
      <path d=" M 412.511 666.757 L 412.216 669.991 L 410.321 667.194 L 412.511 666.757 Z "
        fill="rgb(4,89,47)" />
      <path d=" M 409.611 669.57 C 413.869 675.748 423.52 684.04 437.442 693.06 C 431.527 690.165 425.279 686.251 418.668 681.288 C 423.154 685.78 428.267 689.715 433.977 693.06 C 421.132 686.665 412.413 680.566 408.823 676.028 L 409.611 669.57 Z "
        fill="rgb(4,89,47)" />
      <path d=" M 465.519 736.125 L 427.472 736.736 L 434.6 719.063 L 435.581 695.996 L 469.111 705.318 L 487.665 704.465 L 490.04 700.215 L 482.738 723.188 L 462.235 721.404 L 484.665 724.798 L 454.382 725.861 L 482.738 726.629 L 488.115 743.276 L 465.519 736.125 Z "
        fill="rgb(4,89,47)" />
    </g>

    <g id="little_cups">
      <g>
        <path d=" M 327.747 663.76 C 325.583 663.649 325.43 661.698 326.471 660.782 C 335.007 653.269 356.457 659.355 348.349 662.658 C 347.004 666.851 346.04 674.698 345.433 686.172 L 330.598 684.865 C 330.463 677.02 329.738 670.484 327.747 663.76 Z "
          fill="rgb(0,0,0)" />
        <linearGradient id="_lgradient_1" x1="0.26627395495150713" y1="0.7230840155806207" x2="0.7149756366753297" y2="0.17372722122181217" gradientTransform="matrix(18.409,0,0,25.931,329.152,658.794)" gradientUnits="userSpaceOnUse">
          <stop offset="1.7391304347826086%" stop-opacity="1" style="stop-color:rgb(185,185,185)" />
          <stop offset="98.69565217391305%" stop-opacity="1" style="stop-color:rgb(255,255,255)" />
        </linearGradient>
        <path d=" M 333.923 684.024 L 331.102 665.097 C 332.459 663.362 334.659 662.029 339.203 661.074 C 335.026 661.296 332.033 662.006 330.747 662.658 C 328.61 662.889 328.666 661.29 330.644 660.434 C 339.542 656.585 351.9 660.525 346.042 661.997 C 344.769 665.994 343.891 674.452 343.401 684.726 L 333.923 684.024 Z "
          fill="url(#_lgradient_1)" />
        <path d=" M 343.861 677.524 C 343.343 678.698 342.675 679.359 342.028 679.238 C 340.867 679.02 340.211 676.364 340.565 673.31 C 340.919 670.256 342.149 667.954 343.31 668.172 C 343.873 668.278 344.317 668.956 344.562 670.019 L 343.861 677.524 L 343.861 677.524 Z "
          fill="rgb(0,0,0)" />
        <path d=" M 343.971 676.344 C 343.596 677.311 343.061 677.907 342.513 677.839 C 341.611 677.728 341.014 675.859 341.181 673.668 C 341.348 671.478 342.216 669.789 343.118 669.901 C 343.719 669.975 344.185 670.83 344.372 672.047 L 343.971 676.344 L 343.971 676.344 Z "
          fill="rgb(4,89,47)" />
      </g>

      <g>
        <path d=" M 324.371 678.556 C 324.694 680.692 324.84 682.926 324.885 685.365 L 334.835 686.172 C 335.242 679.084 335.888 674.237 336.791 671.646 C 341.615 669.836 330.853 666.673 324.375 669.241 L 324.371 678.556 L 324.371 678.556 Z "
          fill="rgb(0,0,0)" />
        <linearGradient id="_lgradient_2" x1="0.26627395495150713" y1="0.7230840155806207" x2="0.7149756366753297" y2="0.17372722122181217" gradientTransform="matrix(11.906,0,0,16.019,324.356,669.26)" gradientUnits="userSpaceOnUse">
          <stop offset="1.7391304347826086%" stop-opacity="1" style="stop-color:rgb(185,185,185)" />
          <stop offset="98.69565217391305%" stop-opacity="1" style="stop-color:rgb(255,255,255)" />
        </linearGradient>
        <path d=" M 329.15 670.811 C 327.075 671.037 325.689 671.318 324.985 671.646 C 324.713 671.673 324.494 671.66 324.356 671.602 L 324.356 671.602 L 324.375 670.568 C 324.509 670.462 324.695 670.361 324.916 670.273 C 330.884 667.895 339.172 670.329 335.243 671.238 C 335.149 671.201 334.526 670.99 333.962 670.962 C 334.639 671.124 335.172 671.453 335.161 671.486 C 334.352 674.047 333.79 679.138 333.472 685.279 L 327.115 684.845 L 325.223 673.153 C 325.854 672.299 327.185 671.593 329.206 671.026 L 329.15 670.811 Z  M 329.489 670.776 C 329.858 670.738 330.247 670.702 330.657 670.668 C 330.279 670.75 329.92 670.836 329.578 670.925 L 329.489 670.776 Z "
          fill-rule="evenodd"
          fill="url(#_lgradient_2)" />
        <g>
          <path d=" M 326.548 678.386 C 326.469 676.474 327.262 674.851 328.318 674.764 C 329.374 674.677 330.295 676.159 330.374 678.071 C 330.453 679.983 329.66 681.605 328.604 681.692 C 327.549 681.779 326.627 680.297 326.548 678.386 Z "
            fill="rgb(0,0,0)" />
          <path d=" M 326.987 678.551 C 326.853 677.196 327.373 676.016 328.146 675.918 C 328.92 675.821 329.656 676.842 329.79 678.197 C 329.924 679.552 329.404 680.732 328.63 680.829 C 327.857 680.927 327.12 679.906 326.987 678.551 Z "
            fill="rgb(4,89,47)" />
        </g>
      </g>

      <g>
        <path d=" M 345.897 662.353 C 343.349 662.223 343.169 659.925 344.394 658.846 C 354.447 649.999 379.707 657.166 370.159 661.055 C 368.574 665.994 367.439 675.234 366.724 688.746 L 349.254 687.206 C 349.095 677.968 348.242 670.272 345.897 662.353 Z "
          fill="rgb(0,0,0)" />
        <linearGradient id="_lgradient_3" x1="0.26627395495150713" y1="0.7230840155806207" x2="0.7149756366753297" y2="0.17372722122181217" gradientTransform="matrix(21.678,0,0,30.537,347.552,656.506)" gradientUnits="userSpaceOnUse">
          <stop offset="1.7391304347826086%" stop-opacity="1" style="stop-color:rgb(185,185,185)" />
          <stop offset="98.69565217391305%" stop-opacity="1" style="stop-color:rgb(255,255,255)" />
        </linearGradient>

        <path d=" M 353.772 661.087 C 352.22 661.862 350.924 662.809 349.848 663.928 L 353.17 686.216 L 364.331 687.043 C 364.88 675.538 365.843 665.966 367.224 661.006 C 367.189 660.759 366.659 660.354 365.666 659.821 C 366.68 659.966 367.262 660.108 367.441 660.277 C 374.34 658.543 359.787 653.904 349.308 658.437 C 346.979 659.444 346.914 661.327 349.429 661.055 C 350.257 660.636 351.952 660.186 354.007 659.834 C 355.034 659.922 354.896 660.352 353.772 661.087 Z  M 356.063 660.117 C 357.077 659.75 358.186 659.443 359.388 659.191 C 358.308 659.252 357.199 659.359 356.137 659.513 C 355.605 659.74 355.599 660.074 356.063 660.117 Z "
          fill-rule="evenodd"
          fill="url(#_lgradient_3)" />
        <path d=" M 359.428 673.6 C 359.959 670.004 361.802 667.292 363.541 667.549 C 365.281 667.805 366.263 670.933 365.733 674.529 C 365.202 678.125 363.359 680.837 361.62 680.58 C 359.88 680.324 358.898 677.196 359.428 673.6 Z "
          fill="rgb(0,0,0)" />
        <path d=" M 360.351 674.021 C 360.601 671.442 361.902 669.454 363.254 669.585 C 364.605 669.716 365.5 671.917 365.249 674.496 C 364.999 677.076 363.699 679.064 362.347 678.933 C 360.995 678.802 360.101 676.601 360.351 674.021 Z "
          fill="rgb(4,89,47)" />
      </g>

    </g>
    <g>
      <path d=" M 324.394 681.97 L 375.896 686.985 C 382.851 691.717 388.391 699.024 392.483 708.875 L 392.483 762.34 L 324.394 768.34 L 324.394 681.97 Z "
        fill="rgb(0,0,0)" />
      <path d=" M 324.394 690.112 L 370.982 692.346 C 378.836 697.594 384.243 706.255 387.173 718.3 L 387.173 763.724 L 324.394 768.34 L 324.394 690.112 Z "
        fill="rgb(70,70,70)" />
      <path d=" M 324.394 695.927 L 367.179 695.927 C 375.247 697.687 382.384 709.889 382.978 717.912 L 324.394 725.161 L 324.394 695.927 Z "
        fill="rgb(0,0,0)" />
      <path d=" M 324.394 699.438 L 367.179 699.438 C 372.553 701.7 377.262 711.052 377.869 716.299 L 324.394 720.859 L 324.394 699.438 Z "
        fill="rgb(0,0,0)" />
    </g>
    <path d=" M 674.394 771.078 C 564.697 761.602 448.044 761.293 324.394 770.132 L 324.394 770.132 L 324.394 768.327 C 390.453 760.99 445.928 757.612 490.856 758.177 C 546.911 758.883 608.086 763.127 674.394 770.92 L 674.394 771.078 L 674.394 771.078 Z "
      fill="rgb(0,0,0)" />
  </g>
</svg>