<svg xmlns="http://www.w3.org/2000/svg" >

  <defs>

    <g id="mill_color"> 
      <path d="m136.12,363.27l15.16,6.6c-0.53,9.83 -2.03,19.98 8.97,29.49c2.78,1.43 5.36,3.36 3.85,6.09c1.91,1 3.61,5.41 0.32,4.81c0.09,5.34 3.39,14.08 13.78,20.51l14.1,29.81c-4.79,-2.92 -14.67,-1.24 -21.56,6.23l-10.73,-29.81c0.85,-8.14 2,-18.98 -4.05,-25.62l-2.81,-3.41l-2.72,-4.31c2.14,-5.02 -6.1,-22.68 -15.18,-29.95l0.87,-10.45z" />
      <path d="m105.56,307.33l20.57,-10.46c-16.18,9.73 15.17,23.85 17.53,11.24c3.27,5.88 -0.57,12.31 -1.88,14.81c-0.21,3.2 -5.29,4.28 -0.63,7.06l-8.14,2.4c4.32,-0.27 8.44,0.57 5.76,5.8l0.59,7.47l-5.23,7.67l-6.27,-10.8c-2.28,0.71 -4.56,-0.39 -3.83,-4.18c-3.14,-1.73 -7.68,-0.96 -5.22,-5.49l0.69,-2.17c-7.11,-0.16 -22.34,-8.58 -13.95,-23.34z" />
    </g>

    <g id="roof_color" >
      <path d=" M 83.81 108.31 L 103.87 100 L 141.8 99.57 L 181.46 91.81 C 215.03 75.41 248.6 57.82 281.46 34.05 C 292.73 98.83 352.21 180 424.99 238.36 L 367.23 284.48 L 362.92 250.86 C 336.02 221.71 296.76 178.54 269.39 97.84 C 268.27 128.56 257.65 155.25 276.72 216.37 C 295.42 238.41 317.22 253.56 325 285.34 C 276.19 327.17 225.01 330.99 177.16 398.7 C 178.09 389.07 182.34 378.49 187.07 367.67 C 168.54 368.17 148.34 365.82 131.47 359.91 C 136.66 350.2 151.12 326.49 171.99 319.39 L 171.13 337.49 L 176.73 342.66 L 184.92 318.09 L 195.7 241.8 L 198.29 156.02 L 144.41 180.16 L 92.69 127.57 Q 95 150 90.1 179.73 L 96.13 190.94 L 68.97 199.56 Q 78 155 78.45 110.77 L 83.82 108.3 Z" />
      <path d="m99.29,201.96c-9.47,28.1 -16.65,47.84 -31.2,64.3c-17.67,22.19 -40.83,48.67 -54.1,86.96c14.67,12.74 53.55,21.39 101.42,20.53c-6.62,-27.57 -9.84,-41.35 -34.95,-62.12c19.88,-3.7 36.66,-8.39 54.24,-19.79c-4.44,-5.88 -9.38,-11.66 -16.33,-17.35c-2.38,-22.68 -6.25,-45.86 -19.08,-72.53zm15.35,97.35" />
    </g>

    <g id="hat_shade" transform="matrix(1 0 0 1 -351 -61)" >
      <path d="m434.9,94.31l0.7,-0.4l0.8,-0.1l0.8,0.2l0.9,0.6l1.2,-0.3l2.1,-0.7l2.5,-1.2l1.3,-0.8l1.3,-0.9l1.2,-1l1.6,-1.8l1.6,-2.2l1,-1.6l0.4,-0.9l0.5,-0.7l0.7,-0.4l0.8,-0.2l0.8,0.1l0.7,0.3l0.6,0.6l0.3,0.8l0.1,0.8l-0.3,0.8l-0.5,1l-1.1,1.9l-1.9,2.6l-1.9,2.1l-1.7,1.5l-1.6,1.1l-1.5,0.9l-1.7,0.9l-1.4,0.6l-2.6,0.9l-1.6,0.4l-1.6,0.1l-1.7,-0.6l-0.9,-0.8l-0.5,-0.6l-0.3,-0.8l0,-0.8l0.3,-0.8l0.6,-0.6z" />
      <path d="m374.7,100.5l-0.6,0.6l-0.7,0.3l-0.9,0l-1,-0.4l-0.9,0.5l-2.3,1.9l-1.7,1.7l-1.4,1.7l-0.5,0.9l-0.3,0.9l0,0.4l0.1,0.2l0.6,0.4l1.5,0.3l2.1,0.1l2.5,-0.3l2.7,-0.7l1.8,-0.5l1,-0.5l0.8,-0.1l0.8,0.1l0.7,0.4l0.6,0.6l0.3,0.7l0.1,0.9l-0.3,0.7l-0.5,0.7l-0.7,0.4l-1.1,0.5l-2.1,0.7l-3.2,0.7l-2.9,0.4l-3,0l-2.6,-0.6l-0.6,-0.3l-1.5,-0.8l-0.9,-0.9l-0.7,-1.2l-0.3,-1.1l0,-1.5l0.1,-0.8l0.5,-1.6l0.9,-1.5l0.9,-1.3l1,-1.2l1.1,-1.1l2.5,-2.2l1.3,-1l1.4,-0.8l0.6,-0.3l1.3,-0.3l1.8,0.2l1,0.5l0.7,0.6l0.4,0.7l0.2,0.8l-0.2,0.8l-0.4,0.7z" />
      <path d="m372,78.2l0.8,-0.2l0.8,0l0.7,0.3l0.6,0.6l0.8,0.9l0.7,0.7l1.5,0.9l2.2,1.2l4.1,1.5l3.7,0.9l4.2,0.6l4.4,0.3l4.3,-0.1l2.8,-0.4l4.3,-0.8l2.5,-0.7l1.1,-0.4l0.8,-0.1l0.8,0.1l0.7,0.4l0.6,0.6l0.2,0.8l0,0.8l-0.2,0.8l-0.5,0.6l-0.7,0.4l-1.3,0.5l-2.9,0.7l-4.7,0.9l-2.9,0.4l-4.9,0.2l-4.8,-0.3l-4.6,-0.7l-4.1,-1l-1.4,-0.5l-3.3,-1.2l-2.6,-1.3l-2,-1.3l-1.3,-1.1l-1.2,-1.5l-0.4,-0.7l-0.1,-0.8l0.2,-0.8l0.5,-0.7l0.6,-0.5z" />
      <path d="m390.62,99.57l0.97,0l0.36,0.36l0.36,0.36l10.02,19.39l9.17,17.95l9.29,18.67l0.12,0.48l0,0.48l-0.24,0.36l-0.36,0.36l-0.48,0.24l-0.48,0l-0.48,-0.12l-0.36,-0.24l-0.24,-0.36l-9.29,-18.67l-9.17,-17.83l-10.02,-19.39l-0.12,-0.48l0,-0.48l0.12,-0.48l0.36,-0.36l0.48,-0.24z" />
      <path d="m422.4,172.1l-0.5,-0.6l-0.3,-0.8l0,-0.8l0.2,-0.8l0.6,-1.1l0.7,-0.8l3.3,-2.2l3.4,-2l3.8,-1.9l3.4,-1.3l3,-1l1.8,-0.4l2.9,-0.4l2.3,-0.2l1,0.2l0.7,0.4l0.5,0.6l0.2,0.8l0,0.8l-0.2,0.8l-0.6,0.6l-0.7,0.4l-0.8,0.1l-1.1,0l-1.9,0.3l-2.9,0.6l-2.8,0.8l-2.9,1.2l-3.5,1.8l-3.1,1.8l-2.6,1.7l-0.4,0.7l-0.5,0.6l-0.7,0.4l-0.8,0.2l-0.8,-0.1l-0.7,-0.4z" />
      <path d="m451.59,158.86l-0.42,1l-0.63,0.86l-0.85,0.43l-0.85,0l-0.74,-0.14l-1.06,0l-2.75,0.86l-2.54,1.14l-9.41,5.14l-9.1,5.57l-0.74,0.29l-0.95,0l-0.74,-0.57l-0.63,-0.71l-0.32,-1.14l-0.11,-1.14l0.21,-1l0.42,-1l0.74,-0.71l9.2,-5.71l6.24,-3.57l4.97,-2.43l2.43,-0.86l2.33,-0.71l1.69,-0.14l0.53,0l1.06,0.29l0.85,0.29l0.63,0.71l0.42,1l0.21,1.14l-0.11,1.14z" />
      <path d="m372.1,96.8l0.9,0.4l0.6,0.6l0.4,0.8l0.1,0.8l-0.1,0.7l0.9,2.7l0.5,1l0.5,1l0.5,0.7l0.5,0.6l0.9,0.5l0.6,0.3l0.7,0.1l0.4,0l0.5,4.8l-1.6,0.2l-1.5,-0.1l-2.2,-0.3l-2.5,-0.6l-2.3,-0.8l-2.3,-1l-1.4,-0.8l-0.9,-0.7l-0.5,-0.6l-0.6,-0.8l-0.5,-1.7l0.2,-1.1l0.4,-1.1l0.8,-1.3l0.9,-0.9l0.7,-0.7l3.8,3.4l-0.7,0.8l-0.5,0.7l-0.4,0.9l-0.2,0.5l-0.1,0.1l0.7,1.1l-0.2,0.3l0.3,0.2l0.6,0.2l0.9,0.2l2.4,0l1.5,4.8l-1.3,-4l7.4,-2l0.2,-0.8l0.5,-0.8l0.7,-0.5l0.4,-0.1l3.4,3.5l-1.6,1.5l-0.9,0.8l-1.1,0.7l-1.1,0.6l-1,0.5l-0.8,0.2l-0.9,-0.1l-0.8,-0.4l-0.6,-0.6l-0.4,-0.8l0,-0.9l0.2,-0.9l0.5,-0.7l0.8,-0.5l3.5,-1.6l1.1,-0.6l0.8,-0.2l0.9,0l0.8,0.3l0.6,0.5l0.4,0.8l0.2,0.8l-0.1,0.9l-0.4,0.7l-0.6,0.6l-1.5,0.9l-2.1,0.9l-5.5,2.1l-2.9,-4.2l1.2,-0.4l3.8,-1.5l1.5,-1l0.8,-0.2l0.9,0.1l0.8,0.4l0.6,0.7l0.3,0.8l0.1,0.9l-0.3,0.8l-0.5,0.7l-0.8,0.7l-1,0.5l-4.4,1.8l-2.6,0.8l-0.9,0.1l-0.9,-0.2l-0.7,-0.5l-0.5,-0.7l-0.2,-0.8l0,-0.9l0.4,-0.8l0.6,-0.6l0.8,-0.4l0.9,-0.3l7.6,-3l0.9,5l-1.6,0.8l-2,-4.7l0.9,-0.4l0.6,-0.3l1.4,-1l1.3,-1.3l0.9,-0.8l1.3,-0.7l1.1,-0.1l0.8,0l0.9,0.4l0.6,0.6l0.4,0.7l0.1,0.9l-0.1,0.9l-0.5,0.7l-3.1,-2.8l0.6,0l1.7,0.8l0.7,0.7l0.6,0.9l0.2,1l-0.2,1l-0.6,0.8l-0.9,0.5l-3.9,1.4l-1.2,0.4l-8.3,2.2l-1.6,-0.2l-1.2,-0.5l-0.7,-0.5l-0.5,-0.8l-0.2,-0.8l0,-0.9l0.4,-0.8l0.6,-0.6l0.8,-0.4l2,-0.5l0.9,-0.4l0.9,-0.1l1,0l0.9,0.2l0.8,0.4l0.5,0.7l0.3,0.9l0,0.9l-0.3,0.8l-0.7,0.7l-0.8,0.4l-0.9,0.2l-1.5,0.3l-1.3,0.1l-1.3,0l-1.4,-0.1l-1.5,-0.2l-1.3,-0.4l-0.5,-0.3l-1.1,-0.6l-0.7,-0.6l-0.7,-0.8l-0.5,-1.2l-0.2,-1.2l0.1,-1.2l0.4,-1.1l0.4,-0.7l0.6,-0.9l0.5,-0.5l0.9,-0.7l0.9,-0.4l1.1,-0.3l1.4,0l1.1,0.4l1.4,1l0.6,0.9l0.4,1.4l0,1.1l-0.3,1.1l-0.5,1l-0.6,0.7l-0.9,0.9l-0.5,0.3l-1,0.6l-1.4,0.6l-1.2,0.2l-1.2,-0.2l-1.1,-0.4l-0.8,-0.8l-0.5,-1l-0.4,-1l0,-1.5l0.1,-1.3l0.4,-1.3l0.4,-1.2l0.7,-1.3l0.8,-1.2l1,-1.3l1,-0.9l1,-0.8l0.8,-0.4l0.9,-0.1l0.8,0.2l0.7,0.5l0.6,0.7l0.2,0.8l0,0.9l-0.3,0.8l-0.6,0.7l-1.6,1.3l-1.1,1l1.7,0.9l1.9,0.8l2,0.5l1.8,0.4l1.9,0.1l1,-0.1l1.3,-0.2l1,0l1.1,0.2l0.8,0.4l0.7,0.6l0.4,0.8l0.1,0.8l-0.2,0.9l-0.5,0.7l-0.6,0.5l-0.9,0.3l-1,0.2l-1.5,0.1l-1.4,-0.1l-1.4,-0.2l-1.5,-0.5l-0.6,-0.3l-1.3,-0.8l-0.4,-0.4l-0.9,-0.9l-1,-1.4l-0.7,-1.3l-0.6,-1.4l-0.5,-1.2l-0.8,-2.5l-0.1,-0.9l0.1,-1.1l0.2,-0.9l0.5,-0.7l0.7,-0.5l0.9,-0.3l0.8,0.1z" />
      <path d="m394.57,93.86l0.5,0.6l0.3,0.8l0,1l0.1,0.8l-0.2,0.6l-0.1,0.3l-1.5,-3.1l1.2,0.1l2,0.2l3.8,0.1l10.3,-0.6l1,-0.1l0.9,0.2l0.7,0.4l0.6,0.8l0.2,0.8l-0.1,0.9l-0.4,0.8l-0.7,0.5l-0.9,0.5l-1.7,0.2l-0.7,-0.1l-1.3,0.1l-11.9,1.8l-0.8,0l-0.8,-0.3l-0.6,-0.5l-0.4,-0.7l-0.1,-0.8l0.1,-0.8l0.4,-0.7l0.6,-0.5l0.7,-0.3l4,-1l0.8,0l0.8,0.2l0.7,0.5l0.4,0.8l0.2,0.8l-0.2,0.8l-0.4,0.7l-0.6,0.7l-0.4,0.4l-1.6,1.2l-2.2,-3l2,-0.9l2.6,3.8l-0.9,0.4l-2.5,-3.6l2.7,3.8l-2.6,0.6l-6,1.1l-0.8,0l-0.7,-0.2l-0.6,-0.5l-0.4,-0.7l-0.2,-0.8l0.1,-0.7l0.3,-0.7l0.5,-0.6l0.7,-0.3l1,-0.3l1.7,-0.7l0.8,-0.2l0.8,0.1l0.7,0.4l0.6,0.6l0.3,0.8l0,1.1l2,4.2l0.2,0.8l-0.1,0.8l-0.3,0.7l-0.6,0.6l-0.7,0.4l-0.9,0l-0.7,-0.2l-0.7,-0.4l-0.5,-0.7l-2.3,-4.9l-0.2,-1.3l0.2,-1l3,-1.6l0.2,4.1l-0.2,-4.1l1.9,-0.4l2.9,-0.7l0.9,-0.1l0.8,0.3l0.7,0.6l0.4,0.7l0.1,0.9l-0.2,0.8l-0.5,0.7l-0.7,0.5l-0.9,0.4l-2.8,1.3l-1.1,0.3l-1.3,-0.1l-0.8,-0.2l-0.8,-0.5l-0.4,-0.7l-0.2,-0.9l0.1,-0.9l0.5,-0.7l0.7,-0.5l4.1,-1.7l4,-1.5l0.8,-0.2l0.8,0.2l0.7,0.4l0.5,0.6l0.3,0.7l0,0.8l-0.3,0.8l-0.4,0.6l-0.7,0.4l-4.7,2l-3.2,1.5l-1.5,0.4l-0.8,0l-0.8,-0.2l-0.6,-0.5l-0.5,-0.7l-0.2,-0.8l0.1,-0.8l0.4,-0.7l0.6,-0.5l4.5,-3.4l0.4,-0.5l1.2,-0.3l0.2,4.4l-0.2,-4.4l9.2,-1.4l-0.4,4.6l-7.8,0.5l-4.2,-0.2l-1.8,-0.1l-0.7,1.1l-0.4,0.6l-0.7,0.5l-0.7,0.2l-0.8,-0.1l-0.7,-0.3l-0.6,-0.6l-0.4,-0.7l-0.1,-0.8l3.7,0.8l-0.5,0.4l-0.7,0.5l-0.9,0.1l-0.8,-0.1l-0.7,-0.5l-0.5,-0.6l-0.3,-0.8l0.1,-0.9l0.3,-0.7l0.5,-0.7l0.3,-0.6l0.3,-0.7l0.6,-1.2l0.5,-0.6l0.7,-0.5l0.8,-0.1l0.8,0.1l0.7,0.4z" />
    </g>

    <g id="hat_outline">
      <g transform="matrix(1 0 0 1 -351 -61)">
        <path d="m458.3,160.3l-0.2,0.3l-0.3,0.3l-0.4,0.2l-0.4,0l-0.8,-0.1l-2,0.5l-3.1,1.2l-10.7,4.5l-3.9,1.9l-3.9,2l-6.8,3.9l-3.3,2.2l-2.2,1.8l-0.7,0.6l-0.2,0.3l1,0.1l0.8,-0.1l1,-0.2l2.5,-0.7l2.1,-0.9l0.8,-0.4l0.3,-0.1l0.5,0.1l0.3,0.1l0.3,0.3l0.2,0.4l0,0.4l-0.1,0.4l-0.2,0.3l-0.3,0.2l-0.8,0.4l-1.3,0.6l-2,0.7l-1.7,0.5l-1.3,0.2l-1,0.1l-1.3,0l-0.4,-0.1l-1,-0.4l-0.4,-0.2l-0.3,-0.4l-0.1,-0.4l-0.1,-1l0.3,-0.8l0.6,-0.9l0.9,-0.8l1.1,-1l1.3,-0.9l3.4,-2.4l7,-4l3.9,-2l4,-1.9l10.8,-4.6l3.3,-1.2l2.3,-0.7l0.5,0l1.1,0.2l0.4,0.1l0.3,0.2l0.2,0.4l0.1,0.4l-0.1,0.4z" />
        <path d="m434.1,92.7l0.4,0.1l0.3,0.3l0.2,0.3l0.1,0.4l0,1.9l0.5,3l0.8,3.8l1.2,5l1.8,6.2l2.4,7.3l2.8,8.1l4.1,10.5l6.2,14.9l0.1,0.4l-0.1,0.4l-0.1,0.4l-0.3,0.3l-0.4,0.1l-0.4,0.1l-0.4,-0.1l-0.3,-0.3l-0.2,-0.3l-6.3,-15l-4.1,-10.6l-2.8,-8.1l-2.4,-7.4l-1.9,-6.3l-1.2,-5.1l-0.8,-3.8l-0.5,-3.2l-0.1,-2.2l0.1,-0.4l0.2,-0.3l0.3,-0.3l0.4,-0.1l0.4,0z" />
        <path d="m386.8,100.2l0.4,0l0.4,0.1l0.3,0.2l0.3,0.3l0.4,1l4.2,7.2l6.5,12.2l6,11.8l3.8,8.3l2.6,6.1l4,10.1l3.4,9.2l0.7,2.3l0.1,0.4l-0.1,0.4l-0.2,0.4l-0.3,0.2l-0.4,0.1l-0.4,0l-0.4,-0.1l-0.3,-0.3l-0.2,-0.4l-0.2,-0.7l-3.9,-10.7l-3.9,-10l-2.6,-6l-3.8,-8.3l-5.9,-11.7l-6.6,-12.2l-4.2,-7.2l-0.5,-1.1l-0.1,-0.4l0.1,-0.4l0.1,-0.3l0.3,-0.3l0.4,-0.2z" />
        <path d="m414.9,172.3l-0.2,-0.3l-0.1,-0.4l0,-0.4l0.2,-0.4l0.8,-1.1l1.3,-1.3l2,-1.7l3.8,-2.8l4.9,-2.9l4,-2.2l4.2,-1.8l2.7,-1l3.9,-1.1l2.4,-0.5l1.8,-0.1l1.5,-0.1l1.2,0.1l1.4,0.3l0.6,0.2l0.2,0.3l0.2,0.4l0,0.4l-0.1,0.4l-0.2,0.3l-0.4,0.2l-0.4,0.1l-1.6,-0.3l-2.3,0l-1.7,0.1l-2.1,0.4l-2.3,0.7l-3.9,1.3l-4.1,1.8l-3.9,2.1l-4.7,2.9l-3.7,2.6l-1.8,1.6l-1.2,1.2l-0.6,0.8l-0.3,0.3l-0.4,0.2l-0.4,0l-0.4,-0.1l-0.3,-0.2z" />
        <path d="m399.5,108.2l0.3,0.1l0.3,0.3l1,3.2l1.9,5.3l3.5,8.4l3.9,8.5l2.1,4.3l2.3,4.6l3.8,7.5l3.7,6.9l0,0.4l-0.2,0.4l-0.2,0.1l-0.3,-0.1l-0.4,-0.2l-3.7,-7l-3.8,-7.4l-2.3,-4.6l-3.2,-6.8l-2.8,-6.1l-3.5,-8.5l-1.9,-5.4l-1,-3.1l0,-0.4l0.3,-0.3l0.2,-0.1z" />
        <path d="m409,109.7l0.4,0.1l0.2,0.3l3,8.1l2.6,6.9l2.9,6.6l2.8,6l1.1,2.1l1.9,3.6l3.1,5.4l2.7,4.3l0.1,0.4l-0.2,0.3l-0.1,0.2l-0.4,0l-0.4,-0.3l-2.7,-4.3l-3.1,-5.4l-2,-3.6l-1.1,-2.2l-2.8,-6l-2.9,-6.7l-2.6,-6.9l-3,-8.1l0,-0.4l0.3,-0.3l0.2,-0.1z" />
        <path d="m422.6,110.2l0.4,0.1l0.2,0.3l3.3,8.6l3.2,7.7l3.7,8.5l3.4,7.5l2.5,5l0.7,1.1l0.6,0.9l0.1,0.1l0.2,-0.4l0,-0.8l-0.5,-2.9l-0.6,-2.6l0,-0.2l0.3,-0.3l0.2,0l0.4,0.1l0.2,0.3l0.6,2.4l0.5,3.1l0,1.3l-0.5,1.3l-0.2,0.1l-0.2,0.1l-0.2,0l-0.2,-0.1l-0.9,-0.6l-0.8,-1.2l-0.7,-1.1l-2.6,-5.1l-3.4,-7.5l-3.7,-8.5l-3.2,-7.8l-3.3,-8.6l0,-0.4l0.3,-0.3l0.2,-0.1z" />
        <path d="m416.2,169.9l0.4,0.1l0.2,0.3l0.7,2.2l0.5,2.4l0.2,1.3l0.1,1.3l0,1.1l-0.1,0.9l-0.2,0.4l-0.3,0.2l-0.2,0l-0.2,-0.1l-0.2,-0.3l0,-2.2l-0.1,-1.1l-0.2,-1.3l-0.5,-2.3l-0.6,-2.1l0,-0.4l0.3,-0.3l0.2,-0.1z" />
        <path d="m452.3,153.8l0.4,0l0.3,0.3l0.9,1.7l1.1,1.7l0.8,0.8l0.8,0.8l1.1,0.9l0.1,0.2l0,0.4l-0.2,0.2l-0.3,0.2l-0.2,-0.1l-0.4,-0.2l-0.8,-0.7l-1,-0.9l-0.7,-0.8l-1.3,-1.8l-1,-1.9l0,-0.4l0.2,-0.3l0.2,-0.1z" />
        <path d="m424.4,175.4l0.4,-0.1l0.4,-0.1l0.4,0.1l0.3,0.2l0.4,0.3l-0.5,0.1l2.6,-0.7l-2,-0.4l2,0.4l0.1,0.7l-0.5,0.7l-0.3,0.8l-0.4,0.5l-0.9,0.7l-0.8,0.4l-1.5,1.1l-0.4,0.1l-0.4,0.1l-0.4,-0.1l-0.3,-0.3l-0.2,-0.3l-0.1,-0.4l0,-0.4l0.2,-0.3l0.2,-0.3l1.5,-1.2l0.9,-0.7l0.3,-0.2l0.4,-0.1l0.4,0.1l0.3,0.2l0.3,0.3l0.1,0.3l0.1,0.4l-0.1,0.4l-0.3,0.3l-0.8,0.9l-0.9,0.7l-1.1,0.6l-0.9,0.2l-0.4,0.1l-0.4,-0.1l-0.3,-0.3l-0.3,-0.3l-0.1,-0.4l0.1,-0.4l0.2,-0.4l0.1,-0.1l0.9,1.2l-1.3,-1.8l4.5,-3.3l0.8,-0.5l0.3,-0.2l0.5,0l0.4,0.1l0.3,0.2l0.2,0.4l0.1,0.4l0,0.1l-1.4,-0.6l0.3,-0.3l0.4,-0.1l0.4,-0.1l0.4,0.1l0.3,0.3l0.2,0.3l0.4,0.9l0.1,0.8l-0.3,0.9l-0.2,0.4l-0.3,0.2l-0.4,0.2l-0.4,0l-0.4,-0.1l-0.3,-0.3l-0.2,-0.3l-0.1,-0.3l-3.8,3l-0.8,0.3l-0.4,-0.1l-0.2,0.3l-0.3,0.2l-1.2,-2l0.8,-0.4l2.3,-1.7l0.5,-0.5l0.3,-0.6l0.3,-0.6l0.3,-0.3l0.4,-0.2l0.4,0l0.4,0.1l0.3,0.3l0.2,0.3l0.1,0.4l0,0.4l-0.2,0.5l-0.6,1l-0.9,0.9l-2.5,1.9l-0.9,0.5l-0.4,0.2l-0.4,0l-0.4,-0.1l-0.3,-0.3l-0.2,-0.4l-0.1,-0.4l0.1,-0.4l0.2,-0.3l0.6,-0.7l0.5,-0.3l0.5,-0.1l0.5,0l4.2,-3.3l0.9,-0.6l0.4,-0.1l0.4,0l0.4,0.1l0.3,0.3l0.2,0.4l0.1,0.4l0,0.6l0.2,0.7l-0.9,1l-1.2,-0.9l1.2,0.9l-0.1,0.1l-0.4,0.3l-0.4,0.2l-0.4,0l-0.4,-0.2l-0.3,-0.3l-0.2,-0.3l-3.2,2.5l-1,0.6l-0.4,0.1l-0.4,0l-0.4,-0.1l-0.3,-0.2l-0.2,-0.3l-0.1,-0.4l0,-0.4l0.2,-0.4l0.3,-0.3l0.7,-0.5l0.9,-0.7l0.3,-0.2l1,-0.3l0.5,0l0.4,0.1l0.3,0.3l0.3,0.3l-0.9,-0.2l0.2,-0.1l0.7,-0.7l1.5,1.7l-1.5,1.3l-0.7,-2.3l0.9,-0.6l0.4,-0.3l0.3,-0.5l0.6,-1.1l0.3,-0.3l0.4,-0.2l0.4,0l0.4,0.1l0.4,0.3l0.2,0.3l0.1,0.4l-0.1,0.5l-0.4,0.9l-0.4,1l-0.3,0.4l-0.3,0.2l-0.4,0.1l-0.4,0l-0.4,-0.2l-0.2,-0.3l-0.2,-0.4l-0.1,-0.4l0.2,-1.8l0.2,-0.6l0.5,-0.7l0.2,-0.3l0.4,-0.2l0.4,-0.1l0.4,0.1l0.3,0.2l0.3,0.3l0.1,0.4l0,0.4l-0.1,0.5l0,0.4l-0.3,1l-0.5,1.1l-0.3,0.5l-0.8,0.6l-0.4,0.2l-0.4,0.1l-0.5,-0.2l-0.3,-0.2l-0.2,-0.4l-0.1,-0.5l0,-0.3l-0.5,-0.6l-0.1,-0.4l0,-0.4l0.2,-0.4l0.2,-0.3z" />
        <path d="m415.8,170.1l0.4,0.1l0.3,0.2l0.2,0.4l0.1,0.3l0.1,1l0.3,1.2l0.9,3.4l0.5,2.4l0.1,0.7l0,0.4l-0.1,0.4l-0.3,0.3l-0.3,0.2l-0.5,0.1l-0.3,-0.1l-0.4,-0.2l-0.2,-0.4l-0.2,-0.3l-0.5,-3l-1,-3.3l-0.3,-1.4l-0.1,-1.2l0.1,-0.4l0.1,-0.3l0.3,-0.3l0.4,-0.2l0.4,0z" />
        <path d="m453.3,152.8l0.4,0.1l0.4,0.1l0.3,0.3l0.2,0.3l0.3,0.9l0.4,0.9l0.4,0.7l0.6,0.8l0.6,0.7l0.9,0.7l1.4,1l0.2,0.3l0.1,0.4l0,0.4l-0.2,0.4l-0.3,0.2l-0.4,0.2l-0.4,0l-0.7,-0.3l-1,-0.7l-1.1,-0.9l-0.9,-0.9l-0.7,-1l-0.5,-0.9l-0.5,-1l-0.4,-1.1l-0.1,-0.4l0.1,-0.4l0.2,-0.4l0.3,-0.2l0.4,-0.2z" />
        <path d="m388.3,90.2l0.4,-0.1l0.4,0l0.3,0.2l0.3,0.2l0.6,0.9l0.8,0.6l0.8,0.4l1.7,0.7l1.5,0.5l1.6,0.3l1.8,0.3l3,0.1l3.2,-0.1l3.3,-0.6l3.9,-1l2.5,-0.9l1.7,-0.7l0.4,-0.1l0.4,0l0.4,0.2l0.3,0.2l0.1,0.4l0.1,0.4l-0.1,0.4l-0.3,0.3l-0.3,0.3l-1.8,0.8l-2.7,0.9l-4,1.1l-1.3,0.2l-2.3,0.4l-3.4,0.2l-3.3,-0.2l-2,-0.2l-1.7,-0.4l-1.7,-0.6l-2,-0.8l-1,-0.5l-1.1,-0.8l-0.3,-0.3l-0.7,-1l-0.2,-0.4l0,-0.4l0.1,-0.4l0.2,-0.3l0.4,-0.2z" />
        <path d="m433.4,97.6l0.3,-0.2l0.4,-0.1l0.4,0.1l0.4,0.2l0.7,0.5l0.9,0.2l1.3,0l1.1,-0.1l1.6,-0.4l2.7,-0.8l4.3,-1.8l3.5,-1.8l3.6,-2.2l2.3,-1.7l2,-1.7l1,-1l0.8,-1.1l1.3,-2.3l0.6,-1.2l0.7,-2.5l0.2,-1.3l0,-2.6l-0.2,-1.2l-0.7,-2.2l-0.5,-1.1l-1.5,-1.8l-0.8,-0.9l-2.1,-1.4l-1.2,-0.6l-2.5,-0.9l-1.4,-0.4l-2.7,-0.3l-1.5,-0.1l-2.8,0.2l-1.4,0.2l-2.5,0.8l-1.3,0.4l-2.1,1.1l-1,0.6l-1.6,1.2l-1.3,1.2l-0.8,1l-0.6,0.7l-0.5,1l-0.2,0.6l-0.3,0.3l-0.4,0.2l-0.4,0l-0.4,-0.1l-0.3,-0.2l-0.2,-0.4l-0.1,-0.4l0.1,-0.7l0.7,-1.4l0.7,-1l1,-1.2l1.4,-1.3l1.8,-1.4l1.2,-0.7l2.3,-1.2l1.5,-0.6l2.8,-0.7l1.7,-0.3l2.9,-0.2l1.7,0.1l3,0.3l1.6,0.4l2.8,1l1.4,0.8l2.4,1.5l1.1,1.2l1.7,2.1l0.7,1.5l0.9,2.5l0.2,1.7l0,2.7l-0.3,1.7l-0.7,2.8l-0.7,1.6l-1.4,2.5l-1.1,1.3l-1,1.1l-2.2,1.9l-2.5,1.9l-3.7,2.2l-3.7,1.9l-4.4,1.9l-2.9,0.9l-1.8,0.4l-1.4,0.2l-1.6,0l-1.6,-0.3l-0.5,-0.3l-0.9,-0.7l-0.2,-0.3l-0.2,-0.4l0,-0.4l0.1,-0.4l0.3,-0.3z" />
        <path d="m433.6,78.3l-0.3,-0.2l-0.2,-0.4l0,-0.4l0.2,-0.8l-0.7,-1l-1.1,-1l-1,-0.8l-1.4,-0.8l-2.8,-1.5l-1.1,-0.5l-4,-1.5l-4.8,-1.3l-3.7,-0.6l-2,-0.3l-4.1,-0.3l-2.3,-0.1l-6.9,0.1l-6.9,0.7l-4.4,0.8l-2.3,0.4l-4.1,1.1l-2,0.7l-3.4,1.4l-1.6,0.7l-2.6,1.7l-1.2,0.8l-1.6,1.7l-0.7,0.9l-0.5,0.9l-0.3,0.8l-0.3,1.5l0.2,1.4l0.9,1.5l1.3,1.3l1.6,1.3l2.3,1.1l2.3,1l2,0.7l3.1,0.9l2.6,0.5l0.3,0.2l0.2,0.4l0.1,0.4l0,0.4l-0.2,0.3l-0.3,0.3l-0.4,0.2l-0.4,0l-2.5,-0.4l-3.2,-1l-2.1,-0.7l-2.4,-1l-2.5,-1.3l-1,-0.6l-1.1,-0.9l-1.5,-1.6l-1.2,-2.1l-0.1,-0.3l-0.3,-1.8l0,-0.4l0.3,-1.8l0.5,-1.2l0.6,-1.2l0.9,-1.1l1.8,-2l1.4,-1.1l2.8,-1.7l1.9,-0.9l3.5,-1.4l2.2,-0.7l4.1,-1.1l2.4,-0.5l4.5,-0.8l2.5,-0.3l4.7,-0.4l2.5,-0.1l4.5,0l2.4,0.1l4.2,0.3l2.1,0.3l3.8,0.6l5.1,1.3l4.2,1.6l1.2,0.6l3,1.5l1.5,1l1.2,0.9l1.2,1.1l0.8,0.9l0.7,1.1l0.1,0.5l-0.1,0.6l-0.4,1l-0.2,0.3l-0.4,0.2l-0.4,0.1l-0.4,0l-0.3,-0.2z" />
        <path d="m378.9,91.4l-0.2,0.4l-0.3,0.3l-0.4,0.1l-0.4,0l-1,-0.1l-0.9,0.1l-1.1,0.2l-1.3,0.4l-1.1,0.3l-1.7,0.8l-2,1.2l-2,1.4l-2,2l-0.7,0.7l-1.7,2.4l-1,1.7l-0.7,1.6l-0.4,1.5l-0.1,1.6l0.2,1.4l0.5,1.3l1,1.2l1.2,1.1l0.8,0.4l1.8,0.7l1,0.3l2.2,0.3l2.4,0l1.4,-0.2l2.5,-0.5l2.9,-0.8l2.5,-1.1l2.2,-1.1l3.1,-1.9l1,-0.7l1.2,-0.9l0.3,-0.2l0.4,-0.1l0.4,0.1l0.4,0.2l0.2,0.3l0.2,0.4l0,0.4l-0.1,0.3l-0.3,0.4l-1.3,1l-1.1,0.8l-3.3,1.9l-2.3,1.2l-2.6,1.1l-1.6,0.6l-1.6,0.4l-2.8,0.5l-1.5,0.2l-2.7,0l-2.5,-0.3l-1.3,-0.4l-2.1,-0.8l-1,-0.6l-1.6,-1.2l-1.3,-1.7l-0.8,-1.8l-0.4,-1.9l0.1,-2.2l0.5,-1.9l0.8,-1.9l1.2,-2l1.9,-2.6l0.8,-0.9l2.2,-2l2.2,-1.7l2.1,-1.2l2,-0.9l1.2,-0.4l1.6,-0.5l1.2,-0.2l1.3,-0.1l1.3,0.1l0.4,0.2l0.3,0.2l0.3,0.3l0,0.4l0,0.4z" />
        <path d="m380.4,103.6l0.1,-0.4l0.2,-0.3l0.3,-0.3l0.4,-0.1l1,-0.1l1.2,-0.8l1.1,-0.7l1.2,-1.1l1.1,-1.2l1,-1.4l1,-1.5l0.9,-1.8l0.3,-0.3l0.4,-0.1l0.4,0l0.3,0.1l0.4,0.3l0.1,0.4l0.1,0.4l-0.3,0.9l-0.6,1.2l-1,1.7l-1.1,1.5l-1.3,1.5l-1.4,1.2l-1.2,0.9l-1.7,0.9l-0.4,0.1l-1.2,0.2l-0.4,0l-0.4,-0.2l-0.3,-0.2l-0.2,-0.4l0,-0.4z" />
      </g>
      <path d="m67.5,106.9l0.4,0.1l0.2,0.4l0,1l0.2,1.2l0.5,2.1l1.2,3.6l0,0.4l-0.3,0.3l-0.2,0.1l-0.4,-0.1l-0.2,-0.3l-1.2,-3.6l-0.6,-2.3l-0.2,-1.3l0,-1l0.1,-0.4l0.3,-0.2l0.2,0z" />
      <path d="m69.3,105.4l0.4,0.1l0.2,0.4l1.4,5.8l0.4,2.2l-0.1,0.4l-0.3,0.3l-0.2,0l-0.4,-0.1l-0.1,-0.2l-0.5,-2.4l-1.3,-5.8l0,-0.4l0.3,-0.3l0.2,0z" />
      <path d="m72.3,103.1l0.4,0.1l0.2,0.3l2,8.1l0.2,0.8l0,0.4l-0.3,0.3l-0.2,0l-0.4,-0.1l-0.2,-0.3l-0.3,-0.8l-1.9,-8.1l0,-0.4l0.3,-0.3l0.2,0z" />
      <path d="m77.5,99l0.4,0.1l0.2,0.3l2,8.4l0,0.4l-0.3,0.3l-0.2,0.1l-0.4,-0.1l-0.2,-0.3l-2.1,-8.5l0.1,-0.4l0.3,-0.3l0.2,0z" />
      <path d="m84.1,96.3l0.4,0.1l0.2,0.4l0.5,1.9l1,3.1l1.2,3l0,0.4l-0.2,0.3l-0.2,0.1l-0.4,-0.1l-0.3,-0.3l-1.2,-3l-1,-3.1l-0.5,-2.1l0,-0.4l0.3,-0.2l0.2,-0.1z" />
      <path d="m89.2,95.3l0.4,0.1l0.2,0.3l0.3,0.9l0.7,1.6l1,1.7l0.8,1l1.3,1.3l0,0.5l-0.2,0.2l-0.2,0.1l-0.4,0l-0.7,-0.6l-0.6,-0.7l-0.9,-1.1l-0.6,-0.9l-0.5,-0.9l-0.8,-1.8l-0.3,-1l0,-0.4l0.3,-0.3l0.2,0z" />
      <path d="m96.7,92.9l0.4,0l0.3,0.3l0.4,1l0.6,1l0.7,0.8l0.8,0.8l1.9,1.5l0.7,0.5l0.1,0.2l0,0.4l-0.2,0.1l-0.3,0.2l-0.2,0l-0.8,-0.4l-0.8,-0.7l-1.2,-0.9l-0.8,-0.9l-0.8,-0.9l-0.7,-1.1l-0.5,-1.1l0,-0.4l0.2,-0.3l0.2,-0.1z" />
    </g>

    <g id="hat">
      <use href="#hat_shade" fill="var(--hat-shade, rgba(0,0,0,0.17))"/>
      <use href="#hat_outline" fill="var(--hat-outline, var(--outline-color, #000))"/>
    </g>

    <g id="outline">
      <g transform="matrix(1 0 0 1 -351 -61)">
        <path d="m419.8,256.5l0.2,0.1l1.6,-7.7l3.3,-19.7l1.9,-13l1.1,-10.6l0.5,-7l0.2,-6.9l0.2,-10.6l-0.1,-9l0,-0.5l0.2,-0.4l0.4,-0.3l0.4,-0.2l0.5,0l0.4,0.1l0.4,0.3l0.2,0.4l0.1,0.4l0.2,9.2l-0.2,10.7l-0.3,6.9l-0.4,7.1l-1.2,10.7l-1.8,13.1l-3.4,19.8l-1.7,7.8l-0.4,1.4l-0.5,0.7l-1.2,0.7l-0.4,0.2l-0.4,0l-0.5,-0.1l-0.3,-0.3l-0.3,-0.4l-0.1,-0.4l-0.1,-1.1l0.1,-0.4l0.2,-0.4l0.3,-0.4l0.4,-0.2l0.5,0z" />
        <path d="m456.2,160.2l-0.1,0.4l0,0.1l-0.1,-0.3l2.7,0.3l4.8,0.1l15.6,-0.7l12.7,-0.9l7.6,-0.8l4.8,-0.7l4.7,-0.7l6.6,-1.4l5.8,-1.5l5.8,-1.7l5.1,-1.7l0.4,-0.1l0.4,0.1l0.3,0.2l0.3,0.3l0.1,0.3l0,0.4l-0.1,0.4l-0.3,0.3l-0.3,0.2l-5.2,1.8l-5.9,1.7l-5.9,1.5l-6.7,1.4l-7.3,1.2l-7.7,0.9l-7.7,0.6l-17.9,1l-7.8,0.1l-4,-0.2l-1.3,-0.1l-1,-0.3l-0.5,-0.2l-0.9,-0.8l-0.2,-0.4l-0.1,-0.4l0,-0.4l0.2,-0.3l0.3,-0.3l0.3,-0.2l1.1,-0.2l0.4,0l0.4,0.1l0.3,0.2l0.2,0.3l0.1,0.4z" />
      </g>
      <path d="m82.1,311.2l0.4,-0.7l0.7,-0.3l4.4,-0.5l4.3,-0.7l8,-2l7.1,-2.3l8.7,-3.5l7.4,-3.4l7.6,-4.5l3.7,-2.5l0.8,0l0.3,0.2l0.3,0.3l0.1,0.8l-0.4,0.7l-5.6,3.7l-5.7,3.3l-7.5,3.6l-8.9,3.4l-7.2,2.4l-8.2,2.1l-4.5,0.7l-4.5,0.5l-0.8,-0.2l-0.4,-0.7l-0.1,-0.4z" />
      <path d="m115.3,429.3l0,-0.8l0.6,-0.6l2.1,-1l8.5,-1.3l7.1,-0.8l0.8,0.2l0.5,0.7l0,0.4l-0.3,0.7l-0.8,0.3l-4.6,0.5l-10.6,1.5l-1.7,0.9l-0.7,0.1l-0.7,-0.4l-0.2,-0.4z" />
      <path d="m109.9,425.8l0.8,-0.2l0.7,0.4l3,3.1l1.4,1.8l0.7,1.1l0.1,0.8l-0.3,0.7l-0.4,0.2l-0.8,0l-0.3,-0.2l-2.2,-2.9l-2.9,-3.1l-0.3,-0.7l0.2,-0.8l0.3,-0.2z" />
      <path d="m99.8,199.1l0.7,0.4l0.2,0.8l-0.1,2l-1.1,4.7l-1.4,4.5l-2.6,7l-5.4,12.3l-4.8,9.6l-7.7,14.5l-4.9,8.8l-0.6,0.5l-0.8,0l-0.4,-0.2l-0.4,-0.6l0.2,-0.8l4.9,-8.8l7.7,-14.5l4.7,-9.5l5.3,-12.2l2.6,-6.9l1.4,-4.4l0.9,-4.4l0.2,-1.8l0.3,-0.7l0.7,-0.3l0.4,0z" />
      <path d="m119,228.4l0,-0.4l0.1,-0.4l0.3,-0.3l0.4,-0.2l2.4,-0.9l2.6,-1.2l4,-2.2l5.4,-3.5l4.2,-3l4.6,-3.5l8.4,-7.2l0.6,-0.5l0.4,-0.3l0.8,0l0.3,0.2l0.3,0.3l0.2,0.4l0,0.4l-0.1,0.4l-0.3,0.3l-0.6,0.6l-8.6,7.2l-4.6,3.6l-4.3,3.1l-5.5,3.5l-4.1,2.2l-2.8,1.3l-2.6,1l-0.4,0.1l-0.4,-0.1l-0.3,-0.2l-0.3,-0.3l-0.1,-0.4z" />
      <path d="m63.3,311.4l-0.6,-0.5l-0.1,-0.8l0.3,-2l0.2,-0.5l2.4,-3.1l3.4,-3.5l8,-6.7l15,-11l3.4,-2.3l0.4,0l0.7,0.3l0.2,0.4l0.1,0.4l-0.2,0.7l-3.3,2.4l-14.9,10.9l-7.8,6.6l-3.2,3.3l-2.2,2.7l-0.2,1.8l-0.4,0.7l-0.8,0.2l-0.4,0z" />
      <path d="m93.4,263.8l0.5,0.6l0.1,0.8l-3.2,10.7l-4,10.7l-0.9,2.2l-0.6,0.5l-0.8,0.1l-0.3,-0.1l-0.5,-0.6l0,-0.8l0.9,-2.2l4,-10.5l3.1,-10.7l0.5,-0.6l0.8,-0.2l0.4,0.1z" />
      <path d="m91.1,265l0.5,-0.6l0.8,-0.2l4.8,0.8l6.1,1.4l3.2,1l4.8,2l5.1,2.7l3.7,2.3l1.8,1.4l4.4,3.8l2.5,2.7l3.8,4.5l2.9,4.3l0.1,0.8l-0.4,0.7l-0.3,0.2l-0.4,0.1l-0.8,-0.3l-3,-4.4l-3.6,-4.3l-2.5,-2.6l-4.2,-3.7l-1.7,-1.2l-3.5,-2.3l-4.9,-2.7l-4.6,-1.8l-3.1,-1l-5.9,-1.3l-4.7,-0.8l-0.7,-0.4l-0.3,-0.7l0.1,-0.4z" />
      <path d="m108,374.8l0.8,0.1l0.6,0.6l1.5,3.7l5.2,16.4l4.6,14.9l3.4,10.6l-0.1,0.8l-0.5,0.6l-0.4,0.1l-0.8,-0.1l-0.5,-0.7l-3.3,-10.6l-4.7,-14.9l-5.1,-16.3l-1.5,-3.6l0,-0.8l0.4,-0.6l0.4,-0.2z" />
      <path d="m125.1,336.4l-0.3,0.7l-0.7,0.5l-2.4,0.5l-2.5,-0.2l-1.8,-0.8l-0.3,-0.2l-0.3,-0.3l-0.1,-0.4l0.6,-2.5l0.3,-0.5l1.6,-1.7l2,-1.6l4.6,-2.7l4.3,-2.1l2.1,-0.9l3.3,-1.1l2.4,-0.6l2.9,-0.5l2.7,0l0.5,0.1l1.8,1l0.4,0.2l0.2,0.4l-0.1,2.5l-0.2,0.6l-1.3,1.8l-1.8,1.5l-0.8,0.1l-0.7,-0.4l-0.1,-0.4l0,-0.8l0.4,-0.5l1.4,-1.2l0.8,-1.1l0.1,-1l-0.9,-0.5l-2.3,0l-2.5,0.5l-2.2,0.6l-5.2,1.8l-4.1,2l-4.4,2.7l-1.8,1.4l-1.2,1.3l-0.2,0.8l0.7,0.3l1.7,0l1.9,-0.4l0.8,0.1l0.6,0.6l0.1,0.4z" />
      <path d="m127.2,340l-0.2,0.8l-0.6,0.5l-1.8,0.7l-0.4,0.1l-0.5,-0.1l-0.4,-0.3l-0.2,-0.5l-0.5,-1.8l0,-0.5l0.2,-0.5l1.3,-1.6l2.3,-2l2.1,-1.5l2.1,-1.4l1.7,-0.9l2.3,-1l2.3,-0.7l2.8,-0.3l1.9,0.4l0.5,0.2l0.3,0.3l1,1.9l0.1,0.7l-0.2,2l-0.2,0.4l-1.2,1.9l-1.9,1.5l-0.8,0.1l-0.6,-0.5l-0.2,-0.4l0.1,-0.8l0.3,-0.3l0.2,-0.1l1.2,-1.1l0.8,-1.3l0.2,-1.4l-0.6,-1l-1.2,-0.2l-2.1,0.3l-1.9,0.6l-2.1,0.9l-3.5,2.1l-2,1.4l-2,1.9l-0.8,0.9l0.6,-0.2l0.8,-0.1l0.6,0.6l0.2,0.3z" />
      <path d="m126.4,344.1l-0.1,-0.8l0.3,-0.7l1.7,-1.5l1.6,-1.1l2.5,-1.3l2.1,-0.9l2.4,-0.5l1.2,0l0.8,0.2l0.4,0.7l0,0.4l-0.1,0.4l-0.6,0.5l-1.5,0.1l-2,0.5l-1.7,0.7l-2.3,1.3l-1.4,0.9l-1.5,1.4l-0.8,0.2l-0.7,-0.2l-0.3,-0.3z" />
      <path d="m135.2,374.2l0.7,-0.4l0.8,0.1l2.1,1.2l1.8,1.5l1.7,2l1.6,2.3l1.7,2.9l2.2,4.5l1,2.6l1,3.4l0.6,2.5l0.4,3l0.1,2.8l-0.1,1.9l-0.3,0.7l-0.7,0.4l-0.4,-0.1l-0.7,-0.4l-0.2,-0.4l0.1,-2.2l-0.1,-2.5l-0.4,-2.8l-0.6,-2.3l-0.9,-3.3l-1,-2.4l-2.1,-4.3l-1.6,-2.8l-1.5,-2.1l-1.5,-1.8l-1.5,-1.3l-1.8,-0.9l-0.6,-0.6l0,-0.8l0.2,-0.4z" />
      <path d="m151.9,369.5l0.6,0.5l0.2,0.8l-0.4,2l-0.2,2.2l0.2,4.1l0.8,4.6l0.9,3.9l0.7,2l1.2,2.5l0.9,1.6l1.8,2.3l1.4,1.4l1.7,1.2l0.2,0.8l-0.1,0.4l-0.2,0.3l-0.8,0.3l-0.7,-0.2l-1.5,-0.9l-1.7,-1.7l-2,-2.5l-1.1,-1.9l-1.2,-2.7l-0.8,-2.2l-1,-4.1l-0.8,-4.8l-0.2,-4.4l0.1,-2.5l0.5,-2.2l0.4,-0.7l0.7,-0.2l0.4,0.1z" />
      <path d="m179.1,429.8l0.4,0l0.4,0.2l0.3,0.3l0.2,0.3l0.2,0.9l1.5,3.5l6.4,12.9l3.1,6.9l2.6,6.7l0.1,0.4l-0.1,0.4l-0.2,0.3l-0.3,0.3l-0.4,0.1l-0.4,0l-0.4,-0.1l-0.3,-0.3l-0.2,-0.3l-2.6,-6.6l-3,-6.8l-6.4,-12.9l-1.6,-3.7l-0.3,-1l0,-0.4l0.1,-0.4l0.2,-0.4l0.3,-0.2l0.4,-0.1z" />
      <path d="m154.5,441.2l0.8,0l0.3,0.2l0.3,0.4l1.2,2l1.3,3l3.2,8.6l4.9,16.4l0.1,0.4l-0.1,0.4l-0.3,0.3l-0.3,0.3l-0.4,0.1l-0.4,-0.1l-0.4,-0.1l-0.3,-0.3l-0.1,-0.4l-4.9,-16.2l-3.1,-8.5l-1.3,-2.8l-1.1,-2l-0.2,-0.4l0,-0.4l0.2,-0.3l0.2,-0.4l0.4,-0.2z" />
      <path d="m108.3,325.1l0.7,0.3l0.4,0.7l2.8,18.5l2.8,17.9l1.6,11.2l-0.2,0.8l-0.6,0.5l-0.4,0l-0.7,-0.3l-0.4,-0.7l-2.2,-15.3l-2.6,-15.9l-2.5,-16.4l0.2,-0.8l0.7,-0.5l0.4,0z" />
      <path d="m14.3,353.2l0.8,-0.2l0.7,0.4l1.2,1.4l1.4,1.2l1.7,1.2l3.5,2l5.4,2.5l6.4,2.1l2.8,0.8l8.8,1.9l9.7,1.7l11.9,1.6l11.4,1.1l14.5,1l18.1,0.8l3.1,0.1l0.6,0.5l0.2,0.4l-0.1,0.4l-0.1,0.4l-0.6,0.5l-3.1,0l-18.3,-0.8l-14.5,-1l-11.4,-1.1l-12,-1.6l-9.9,-1.7l-8.9,-2l-2.9,-0.7l-6.5,-2.2l-5.7,-2.6l-3.6,-2.1l-1.9,-1.3l-1.6,-1.4l-1.3,-1.5l-0.3,-0.8l0.2,-0.7l0.3,-0.3z" />
      <path d="m66,265.7l0.4,-0.7l0.7,-0.2l2.1,-0.1l2.1,0.5l3.7,1.1l0.6,0.5l0.2,0.7l-0.2,0.4l-0.6,0.6l-0.4,0l-1.8,-0.5l-3.9,-0.9l-1.7,0l-0.8,-0.3l-0.4,-0.7l0,-0.4z" />
      <path d="m66,268l-0.8,-0.1l-0.6,-0.6l-0.1,-0.4l0.2,-0.7l0.3,-0.3l0.4,-0.2l0.4,0l0.7,0.3l0.2,0.4l0.1,0.8l-0.5,0.6l-0.3,0.2z" />
      <path d="m65,267.8l-0.3,-0.7l0.2,-0.8l0.3,-0.3l0.4,-0.2l0.8,0.1l0.3,0.2l0.2,0.4l0.1,0.8l-0.2,0.4l-0.7,0.5l-0.8,-0.1l-0.3,-0.3z" />
      <path d="m65.8,269.2l-0.8,0.1l-0.7,-0.4l-1.4,-1.8l-0.1,-0.4l0.1,-0.4l1.6,-1.9l0.5,-0.3l1.8,-0.7l4.3,-0.9l4.8,-0.5l3.2,-0.2l0.6,0.5l0.1,0.4l0.1,0.4l-0.2,0.4l-0.6,0.5l-3,0.3l-4.7,0.6l-4,0.8l-1.4,0.5l-0.5,0.5l0.6,0.7l0.3,0.8l-0.3,0.7l-0.3,0.3z" />
      <path d="m63.2,310l0.7,-0.5l0.7,0.1l2.3,1l1.8,1l2.5,1.6l4.3,3.3l2.9,2.5l6,6.3l4.6,5.4l3.3,4.4l5.8,8.7l4.6,7.8l3.9,8.1l1.1,2.6l0.3,0.8l-0.1,0.4l-0.5,0.6l-0.4,0.2l-0.8,-0.1l-0.3,-0.3l-1.4,-3.3l-3.9,-7.9l-4.5,-7.7l-5.7,-8.5l-3.3,-4.3l-4.4,-5.3l-5.9,-6.2l-2.8,-2.4l-4.1,-3.2l-2.4,-1.5l-1.7,-0.9l-2.1,-1l-0.6,-0.5l-0.1,-0.8l0.2,-0.4z" />
      <path d="m102.7,355.1l0.7,0.2l0.4,0.7l0.3,2.2l-0.5,4l-0.5,1.9l-0.2,0.4l-0.7,0.5l-0.4,0l-0.4,-0.2l-0.3,-0.2l-0.3,-0.7l0.5,-2.2l0.5,-3.6l-0.3,-1.7l0.2,-0.8l0.6,-0.5l0.4,0z" />
      <path d="m130.9,361.7l-0.6,-0.6l0,-0.8l0.8,-2.5l2.1,-4l4.5,-6.9l5,-6.5l4.6,-5l4.8,-4.7l5.5,-4.5l4.6,-3.1l2.8,-1.5l4.2,-1.9l2.5,-0.8l1,-0.2l0.4,0.1l0.5,0.6l0.1,0.4l0,0.4l-0.5,0.7l-3.2,1l-4,1.8l-2.7,1.4l-4.4,3l-5.2,4.3l-4.8,4.7l-4.4,4.8l-4.9,6.4l-4.4,6.7l-2,3.8l-0.7,2.2l-0.5,0.6l-0.7,0.2l-0.4,-0.1z" />
      <path d="m173.2,318.2l0.6,0.6l0.1,0.8l-0.5,1.9l-0.6,4.7l-0.1,2.6l0.3,4.7l0.7,5.9l-0.1,0.8l-0.6,0.5l-0.4,0.1l-0.8,-0.3l-0.4,-0.7l-0.7,-6.1l-0.3,-4.9l0.1,-2.7l0.6,-5l0.5,-2.1l0.4,-0.7l0.8,-0.2l0.4,0.1z" />
      <path d="m168.2,334.6l0.7,-0.3l0.8,0.3l3,2.9l5.1,5.6l6.9,9l5.3,7.9l2,3.6l-0.1,0.8l-0.3,0.3l-0.3,0.2l-0.8,0l-0.4,-0.2l-2.1,-3.4l-5.2,-7.8l-6.8,-8.9l-5,-5.5l-2.9,-2.7l-0.3,-0.7l0.1,-0.8l0.3,-0.3z" />
      <path d="m130.8,359.8l0.7,-0.4l0.8,0.2l3.7,2.5l3.6,2l2,0.9l3.8,1.5l5.9,2l5.4,1.3l7.5,1.1l5.6,0.4l7.7,0l3.5,-0.2l0.6,0.5l0.2,0.3l0.1,0.4l-0.4,0.8l-0.3,0.2l-3.6,0.3l-7.9,0l-5.8,-0.4l-7.6,-1.1l-5.6,-1.4l-6.1,-2l-3.9,-1.5l-2.1,-1l-3.7,-2.1l-4,-2.6l-0.4,-0.6l0,-0.8l0.3,-0.3z" />
      <path d="m191.7,362.6l0.3,0.8l-0.3,0.7l-1.2,1.5l-3.1,5.7l-6.5,15.1l-0.5,0.6l-0.8,0.1l-0.4,-0.2l-0.5,-0.6l0,-0.8l6.6,-15.2l3.3,-6l1.3,-1.6l0.7,-0.4l0.8,0.1l0.3,0.2z" />
      <path d="m164.2,372.3l0.8,0.2l0.5,0.6l0.7,1.8l5.5,11.3l7.1,12.4l0.2,0.8l-0.4,0.7l-0.4,0.2l-0.8,0.1l-0.6,-0.5l-7.2,-12.6l-5.5,-11.4l-0.8,-2l0,-0.8l0.5,-0.6l0.4,-0.2z" />
      <path d="m108.6,305.9l0,0.8l-0.5,0.6l-1.4,0.9l-0.8,1.4l-0.8,1.9l-0.4,2l-0.2,2.2l0.1,1.7l0.5,2.3l1.1,2.3l1.1,1.6l1.9,2l1.5,1.2l2.2,1.3l1.5,0.7l2.5,0.7l2.7,0.2l0.7,0.5l0.2,0.3l0,0.4l-0.3,0.8l-0.8,0.3l-2.9,-0.2l-2.8,-0.8l-1.9,-0.8l-2.4,-1.5l-1.8,-1.4l-2,-2.2l-1.4,-1.8l-1.2,-2.7l-0.7,-2.7l-0.1,-2.1l0.1,-2.5l0.6,-2.4l0.9,-2.3l1,-1.8l0.4,-0.4l1.7,-1.1l0.8,-0.1l0.7,0.4l0.2,0.3z" />
      <path d="m125.6,296.7l0.5,-0.6l0.8,-0.1l3.9,0.8l2.6,0.7l2.9,1.3l1.7,1.1l2.1,1.6l1.5,1.5l1.7,2.2l1.1,1.8l1,2.6l0.5,2.6l0,2.9l-0.4,2.5l-0.8,2.1l-1.4,2.1l-1.5,1.5l-0.4,0.3l-0.8,0.2l-0.7,-0.4l-0.3,-0.3l-0.1,-0.4l0.3,-0.8l1.7,-1.7l1.1,-1.7l0.7,-1.7l0.3,-2l0,-2.5l-0.5,-2.2l-0.8,-2.1l-1,-1.6l-1.5,-2l-1.2,-1.2l-2,-1.4l-1.4,-0.9l-2.7,-1.2l-2.3,-0.6l-3.8,-0.8l-0.6,-0.4l-0.3,-0.8l0.1,-0.4z" />
      <path d="m69,266.7l0.1,0.8l-0.5,0.7l-1.6,1l-3.3,3.2l-8.5,10l-5.9,7.9l-5.1,7.6l-9.6,15.4l-6.9,12.5l-4.4,8.7l-4.3,9.7l-3.6,9.4l-0.5,0.6l-0.8,0.2l-0.3,-0.1l-0.6,-0.6l0,-0.8l3.7,-9.6l4.3,-9.8l4.4,-8.8l7,-12.6l9.7,-15.5l5.1,-7.6l7.4,-9.8l7.1,-8.4l3.5,-3.4l1.9,-1.2l0.8,-0.2l0.7,0.4l0.2,0.3z" />
      <path d="m109.3,426.4l0,-0.8l0.5,-0.6l2.3,-1.3l7.8,-2l5,-1l4.3,-0.5l0.7,0.2l0.5,0.7l0,0.8l-0.6,0.5l-4.5,0.7l-4.9,0.9l-7.5,1.9l-1.9,1.1l-0.8,0.1l-0.7,-0.4l-0.2,-0.3z" />
      <path d="m151.6,414.7l-0.4,-0.7l0.2,-0.8l1.3,-1.7l1.7,-1.3l2,-1.1l2.2,-0.7l2.4,0.1l2.2,0.5l0.9,0.3l0.3,0.3l0.1,0.8l-0.1,0.4l-0.6,0.5l-0.4,0.1l-2.8,-0.6l-1.8,0l-1.6,0.5l-1.6,0.9l-1.3,1l-0.9,1.4l-0.7,0.4l-0.8,0l-0.3,-0.3z" />
      <path d="m152.7,412.7l0.8,0l0.5,0.6l0.9,1.8l1.4,3.8l0.9,3.1l0.8,4.9l0.3,5l0,2.9l-0.7,5.7l-0.2,1.4l-0.4,0.7l-0.8,0.3l-0.4,-0.1l-0.6,-0.5l-0.1,-0.8l0.2,-1.4l0.6,-5.5l0.1,-2.7l-0.3,-4.8l-0.8,-4.6l-0.8,-3l-0.6,-1.7l-1.5,-3.5l-0.1,-0.8l0.4,-0.6l0.4,-0.2z" />
      <path d="m157.2,441.5l-0.3,-0.3l0,-0.3l0.3,-1.2l0.6,-1l1.4,-1.6l1.8,-1.6l2.5,-1.7l1.3,-0.8l1.6,-0.8l2.2,-0.9l1.7,-0.5l1.3,-0.3l1.5,-0.1l1.7,-0.1l1.5,0.3l1.1,0.3l0.2,0.2l0.2,0.3l-0.1,0.2l0,0.2l-0.4,0.2l-0.3,0l-1,-0.3l-1.3,-0.2l-1.6,0l-1.3,0.2l-1.2,0.3l-1.6,0.4l-2.2,0.9l-1.5,0.7l-1.2,0.8l-2.4,1.6l-1.7,1.5l-1.3,1.5l-0.5,0.8l-0.2,0.9l-0.2,0.4l-0.4,0.1l-0.2,-0.1z" />
      <path d="m191.4,460.1l-0.2,0.4l-0.4,0.2l-0.4,0.1l-0.4,-0.1l-1,-0.3l-1.1,-0.1l-1,0l-1.4,0.1l-1.4,0.3l-1.6,0.4l-2.5,1l-1.5,0.7l-2.2,1.1l-3.9,2.4l-2.1,1.5l-1.4,1.1l-0.9,0.9l-1,1.2l-0.5,0.8l-0.4,0.9l0,1l0.2,0.5l0.7,0.8l0.9,0.5l1.1,0.3l1.6,0.2l1.5,0l2,-0.1l1,-0.2l3.2,-0.8l2.3,-0.8l3.1,-1.4l1,-0.5l2.8,-1.7l1.7,-1.3l1.2,-1.1l1.2,-1.3l0.7,-1l0.5,-1.3l0.3,-0.8l0,-0.7l-0.4,-0.8l-0.5,-0.3l-1.7,-0.6l-2,-0.1l-1.5,0.1l-1.5,0.3l-0.4,-0.1l-0.3,-0.3l-0.3,-0.3l-0.1,-0.4l0.1,-0.4l0.1,-0.4l0.3,-0.3l0.5,-0.2l1.3,-0.2l1.7,-0.1l1.2,0l1.2,0.1l2.3,0.7l0.4,0.2l0.9,0.7l0.3,0.4l0.6,1.2l0.1,0.5l0,1.2l-0.3,1.3l-0.7,1.6l-0.9,1.3l-1.4,1.6l-1.4,1.3l-1.9,1.4l-2.9,1.8l-1.2,0.6l-3.2,1.4l-2.5,0.9l-3.3,0.9l-1.3,0.2l-2.2,0.2l-1.7,-0.1l-1.9,-0.2l-1.4,-0.4l-1.4,-0.7l-0.4,-0.3l-1,-1.1l-0.2,-0.3l-0.4,-1l0,-1.9l0.1,-0.4l0.5,-1.2l0.7,-1.2l1.1,-1.3l1.1,-1.1l1.5,-1.2l2.2,-1.6l4.2,-2.5l2.2,-1.2l1.6,-0.7l2.7,-1.1l1.8,-0.5l1.6,-0.3l1.6,-0.2l1.2,0l1.5,0.2l1.3,0.4l0.4,0.2l0.3,0.3l0.1,0.4l0,0.4l-0.1,0.3z" />
      <path d="m151.9,409.6l-0.6,0.5l-0.8,0.1l-2,-0.6l-0.5,-0.4l-1.2,-1.4l-0.2,-0.4l-0.1,-0.4l1.1,-2.3l0.3,-0.4l1.7,-1.4l2.1,-1.2l1.8,-0.9l2.6,-0.9l2.2,-0.5l2.5,-0.1l2.2,0.3l0.5,0.2l1.7,1.1l0.4,0.7l0.6,1.7l0,0.7l-0.6,1.8l-0.5,0.6l-0.6,0.3l-0.4,0l-0.7,-0.4l-0.2,-0.4l-0.1,-0.8l0.2,-0.3l0.2,-0.1l0.3,-1.1l-0.3,-1l-1.1,-0.7l-1.8,-0.3l-2,0.2l-1.9,0.4l-2.4,0.8l-1.6,0.8l-1.8,1l-1.3,1.1l-0.5,1l0.5,0.5l1.6,0.5l0.6,0.5l0.2,0.8l-0.1,0.4z" />
      <path d="m136.2,364.1l0.8,0.2l0.4,0.7l0.4,2.1l0.2,2.4l-0.2,2.4l-0.7,2.2l-0.5,0.9l-0.6,0.5l-0.8,0.1l-0.4,-0.2l-0.4,-0.7l0,-0.4l0.5,-1.2l0.6,-1.8l0.2,-1.9l-0.2,-2.1l-0.4,-1.8l0.1,-0.8l0.6,-0.5l0.4,-0.1z" />
      <path d="m128,342.6l0.7,-0.3l0.8,0.3l1.6,1.3l1.4,1.5l1.1,1.7l1,2l0.6,2.2l0.1,1.2l-0.2,0.8l-0.6,0.5l-0.4,0l-0.4,-0.1l-0.6,-0.5l-0.2,-1.5l-0.6,-1.9l-0.7,-1.6l-1,-1.5l-1.1,-1.2l-1.4,-1.1l-0.5,-0.7l0.1,-0.8l0.3,-0.3z" />
      <path d="m139,337.8l0.6,0.4l0.3,0.7l0,1.9l0.4,1.8l0.7,2.3l-0.1,0.4l-0.5,0.6l-0.4,0.2l-0.8,-0.2l-0.3,-0.2l-0.3,-0.6l-0.6,-1.9l-0.4,-2.1l0,-2.2l0.3,-0.7l0.6,-0.4l0.5,0z" />
      <path d="m142.2,367.1l0.2,0.8l-0.3,0.7l-2.8,2.8l-1,1.4l-0.7,1.5l-0.4,1.8l-0.3,0.3l-0.7,0.2l-0.4,0l-0.6,-0.6l-0.2,-0.8l0.3,-1.5l1,-2l1.2,-1.7l2.9,-3l0.8,-0.4l0.7,0.2l0.3,0.3z" />
      <path d="m244.5,412.8l0.2,-0.4l0.3,-0.2l9.1,-2l9,-1.8l0.4,0l0.2,0.3l0,0.2l-0.1,0.4l-0.3,0.2l-8.9,1.8l-9.2,2l-0.3,0l-0.3,-0.3l-0.1,-0.2z" />
      <path d="m265.1,408.9l-0.1,0.3l-0.3,0.3l-1.1,0.2l-2.4,1l-8.1,3.9l-2.1,1l-0.4,-0.1l-0.2,-0.1l0,-0.2l-0.1,-0.2l0.2,-0.3l2,-1.1l8.2,-4l2.6,-1l1.1,-0.3l0.4,0.1l0.3,0.3l0,0.2z" />
      <path d="m248.5,416.4l0,-0.4l0.2,-0.3l1.2,-0.6l2.3,-0.5l3.5,-0.6l4.2,-0.4l5.6,-0.1l2,0l0.4,0.2l0.2,0.3l0,0.2l-0.1,0.2l-0.3,0.3l-2.2,0l-5.5,0.1l-4.2,0.4l-3.4,0.5l-2.2,0.5l-0.9,0.6l-0.4,0l-0.3,-0.2l-0.1,-0.2z" />
      <path d="m360.2,401.2l-0.7,-0.3l-0.3,-0.7l-0.3,-2.4l0.2,-2.4l0.3,-2l0.8,-2.8l0.7,-2l1.5,-3.6l1.5,-2.9l1.8,-2.9l1.8,-2.5l3.1,-3.6l2.5,-2.6l2.2,-1.9l2.5,-2l3.3,-2l3.2,-1.5l3.1,-0.9l2.3,-0.4l0.4,0.1l0.4,0.2l0.4,0.7l0,0.4l-0.4,0.7l-0.6,0.3l-2.1,0.3l-2.7,0.8l-2.9,1.4l-3.1,1.9l-2.4,1.8l-2,1.8l-2.4,2.5l-3,3.5l-1.7,2.3l-1.6,2.8l-1.5,2.7l-1.5,3.5l-0.6,1.8l-0.7,2.6l-0.3,1.8l-0.1,2.2l0.2,2l-0.2,0.8l-0.7,0.5l-0.4,0z" />
      <path d="m293,457.4l-0.3,0.8l-0.6,0.5l-1.9,0.4l-3.6,2l-4.4,3l-3.7,3.1l-1.9,1.8l-1.5,1.8l-2.5,3.7l-0.8,0.3l-0.4,-0.1l-0.3,-0.2l-0.4,-0.7l0.1,-0.8l0.9,-1.6l1.5,-2l1.7,-2l2,-1.9l3.9,-3.3l4.5,-3l3.9,-2.2l2.3,-0.6l0.8,0.1l0.6,0.6l0.1,0.3z" />
      <path d="m69.4,454.5l-0.2,0.7l-0.7,0.4l-1.8,0.4l-0.8,-0.2l-0.3,-0.2l-0.3,-0.7l0.2,-0.8l2.3,-1.6l4.2,-1.1l9.2,-1.8l8,-1.1l14.4,-1l8.7,-0.2l15.6,0.6l14.9,1.5l14.9,2l0.7,0.4l0.3,0.8l-0.1,0.4l-0.5,0.6l-0.8,0.2l-14.8,-2.1l-14.8,-1.4l-15.5,-0.6l-8.5,0.1l-14.3,1l-7.9,1.1l-9,1.8l-3.8,1l-0.5,-1.4l0.6,0.1l0.6,0.7l0,0.4z" />
      <path d="m121.4,426.9l0.3,0.8l-0.3,0.7l-6.3,8.1l-8.1,11.6l-0.7,0.4l-0.8,0l-0.3,-0.3l-0.4,-0.7l0.2,-0.8l8.2,-11.5l6.4,-8.2l0.7,-0.4l0.8,0.1l0.3,0.2z" />
      <path d="m258.2,417.6l0.3,0.3l0,0.4l-2.4,8.2l-2.3,8.5l-2.1,7.8l-2.1,8l-0.8,3l-0.3,0.4l-0.3,0.1l-0.2,-0.1l-0.3,-0.3l-0.1,-0.4l0.8,-3l2.2,-8l2.1,-7.8l2.3,-8.5l2.4,-8.2l0.2,-0.3l0.4,-0.1l0.2,0z" />
      <path d="m193.1,456.5l0,0.4l-0.2,0.4l-0.2,0.3l-0.5,-1.6l17.5,3.7l16.9,2.6l17.6,2.2l15.7,1.5l14.5,1.1l0.4,0.1l0.4,0.2l0.2,0.4l0.1,0.4l0,0.4l-0.2,0.3l-0.2,0.3l-0.4,0.2l-0.4,0.1l-11.5,-0.9l-16.7,-1.6l-17.8,-2.1l-17.6,-2.7l-17.7,-3.7l-1.2,-0.2l-1.1,-0.3l-0.4,-0.1l-0.3,-0.4l-0.2,-0.4l0,-0.4l0.2,-0.4l0.3,-0.3l0.4,-0.2l1,-0.3l0.4,0l0.4,0.1l0.3,0.2l0.2,0.4l0.1,0.3z" />
      <path d="m181.1,90.6l0.8,0.1l0.5,0.6l6,11.7l6.6,11.1l7,10.7l10,14.3l6.2,8.4l0.2,0.7l-0.3,0.8l-0.3,0.2l-0.8,0.1l-0.7,-0.4l-6.2,-8.5l-10,-14.3l-7.1,-10.8l-6.6,-11.1l-6.1,-12l-0.1,-0.8l0.5,-0.6l0.4,-0.2z" />
      <path d="m67.2,199.7l0.2,-0.7l0.7,-0.5l2.2,-0.5l15,-5.3l10.2,-3.9l0.8,0l0.6,0.5l0.1,0.4l-0.1,0.8l-0.6,0.5l-10.1,3.8l-15.3,5.5l-2.3,0.5l-0.8,-0.1l-0.5,-0.6l-0.1,-0.4z" />
      <path d="m143.2,180.7l0,-0.8l0.6,-0.5l2.3,-1.1l16.5,-8.7l7.6,-3.7l17.2,-7.2l14.5,-5.4l14.4,-4.9l0.8,0l0.6,0.5l0.1,0.4l-0.2,0.8l-0.6,0.5l-14.3,4.9l-14.4,5.3l-17.1,7.3l-7.6,3.6l-16.4,8.7l-2.4,1.1l-0.8,0l-0.7,-0.4l-0.1,-0.4z" />
      <path d="m84.1,106.4l0.7,0.3l0.4,0.7l0.3,1.8l1.6,3.4l3.8,6.6l2.6,4.1l7.1,9.9l6.4,8.2l5.6,6.5l8.2,8.9l10.7,10.7l12.9,11.9l0.4,0.7l-0.1,0.8l-0.3,0.3l-0.7,0.2l-0.8,-0.3l-13,-12l-10.7,-10.7l-8.3,-8.9l-5.6,-6.6l-6.5,-8.3l-7.2,-10l-5.2,-8.4l-2.2,-4.3l-0.8,-2l-0.5,-2.1l0.2,-0.8l0.6,-0.5l0.4,-0.1z" />
      <path d="m89.8,177.5l0.8,-0.1l0.7,0.5l1.5,2.4l2.3,4.4l3.3,8.1l5.6,16.1l5.2,16.7l3.8,13.3l2.4,9.3l3,14l1.6,9.9l0.3,2.9l-0.2,0.7l-0.7,0.5l-0.4,0.1l-0.7,-0.4l-0.4,-0.7l-0.3,-2.9l-1.5,-9.7l-3,-13.8l-2.4,-9.3l-3.8,-13.2l-5.1,-16.6l-5.6,-16.1l-3.3,-7.9l-2.1,-4.2l-1.5,-2.3l-0.2,-0.8l0.4,-0.7l0.3,-0.2z" />
      <path d="m363.1,250.5l0.8,0.2l0.4,0.7l0.9,4.1l1.4,10.1l1.8,18.4l1.2,13.5l1.7,18.2l1.6,15.6l1.6,15.4l-0.2,0.7l-0.7,0.5l-0.4,0.1l-0.7,-0.4l-0.3,-0.7l-1.6,-15.3l-1.6,-15.7l-1.7,-18.2l-1.3,-13.5l-1.7,-18.4l-1.4,-9.9l-0.9,-4l0.1,-0.8l0.6,-0.5l0.4,-0.1z" />
      <path d="m279.9,217.2l-0.6,0.5l-0.8,-0.1l-1.7,-0.8l-4.1,-0.3l-7.7,0l-5.4,0.6l-1.9,0.4l2.5,-2.2l4.8,-0.8l0.7,0.4l0.2,0.4l0,0.4l-0.2,0.7l-0.7,0.4l-4.5,0.8l-3.5,-0.2l-0.3,-0.2l-0.3,-0.4l-0.1,-0.4l0.1,-0.4l0.1,-0.4l0.3,-0.2l2.4,-0.6l2.3,-0.3l3.3,-0.3l7.9,-0.1l4.6,0.4l2.2,1l0.6,0.6l0,0.8l-0.2,0.3z" />
      <path d="m279.5,217l-0.4,0.7l-0.8,0.2l-1.7,-0.1l-4.3,1l-2,0.6l-2.1,0.9l-1.6,0.8l0.6,-2.6l0.8,0l0.6,0.5l0.1,0.4l0,0.4l-0.4,0.7l-1.9,0.7l-0.5,0l-0.4,-0.1l-0.3,-0.2l-0.3,-0.4l0,-0.8l0.2,-0.4l2.1,-1.1l2.3,-1l2.1,-0.6l4.6,-1.1l2.3,0.1l0.7,0.3l0.4,0.7l-0.1,0.4z" />
      <path d="m269.1,95.5l0.7,0.2l0.5,0.6l3.5,10.8l5.2,13.4l4.4,10.3l7.5,15.8l6.4,12.5l5.3,9.7l8.1,13.5l8.4,13.1l6.4,9.3l3.3,4.5l8.9,11.5l8.5,10.3l8.9,9.8l9.1,9.1l7.8,7.1l1.4,1.1l0.4,0.7l-0.2,0.8l-0.2,0.3l-0.8,0.3l-0.7,-0.3l-1.4,-1.1l-7.9,-7.2l-9.2,-9.1l-9,-10l-8.5,-10.3l-9,-11.6l-3.3,-4.5l-6.5,-9.4l-8.4,-13.2l-8.1,-13.5l-5.4,-9.8l-6.4,-12.5l-7.5,-15.9l-4.5,-10.4l-5.2,-13.5l-3.5,-10.9l0,-0.8l0.6,-0.6l0.4,-0.1z" />
      <path d="m367.3,284.5l-0.2,-0.8l0.4,-0.7l12.5,-11l14.3,-11.4l13.7,-10.4l14.5,-11.1l2.6,-2l0.8,0l0.4,0.2l0.2,0.3l0.1,0.8l-0.1,0.4l-2.6,2.1l-14.5,11.1l-13.6,10.4l-14.3,11.4l-12.4,10.9l-0.8,0.3l-0.7,-0.2l-0.3,-0.3z" />
      <path d="m281.4,33.3l0.8,0.2l0.4,0.7l4.4,16.9l4.1,13.5l3.7,10.2l4.5,11l4.3,8.8l2.3,4.6l4.7,8.2l3,5l9.1,13.9l7.3,10.4l3.7,5.1l10.8,13.8l10.9,13.3l12.1,14.1l10.7,11.8l10.2,10.6l10.5,10.4l8.6,7.6l5.3,4.3l8,6.1l5.7,3.9l0.5,0.6l-0.1,0.8l-0.2,0.3l-0.7,0.4l-0.8,-0.2l-5.8,-3.9l-8.1,-6.1l-5.3,-4.4l-8.7,-7.7l-10.6,-10.4l-10.2,-10.8l-10.7,-11.8l-12.2,-14.1l-10.9,-13.3l-10.8,-13.8l-3.8,-5.2l-7.3,-10.4l-9.2,-14l-3,-5.1l-4.7,-8.2l-2.4,-4.7l-4.3,-9l-3,-7l-3.1,-8l-3.3,-9.6l-3,-10.4l-4.4,-17l0.1,-0.8l0.5,-0.5l0.4,-0.1z" transform="matrix(1 0 0 1 0 0)" />
      <path d="m240.5,354.1l0.4,0.1l0.2,0.3l2.2,7.3l2.4,7.9l2.2,7.4l1.8,6l1.8,6l1.5,5.2l2.3,8.3l2,7.4l0,0.4l-0.3,0.3l-0.2,0.1l-0.4,-0.1l-0.2,-0.4l-2,-7.4l-2.4,-8.3l-1.5,-5.2l-1.7,-6l-1.8,-6l-2.2,-7.4l-2.4,-7.8l-2.2,-7.4l0,-0.4l0.3,-0.3l0.2,0z" />
      <path d="m373.6,346.2l0.6,0.5l0.2,0.7l-0.7,7.1l-1.2,18.5l-0.3,0.7l-0.8,0.4l-0.4,0l-0.6,-0.5l-0.3,-0.7l1.3,-18.6l0.7,-7.2l0.3,-0.7l0.8,-0.3l0.4,0.1z" />
      <path d="m164.2,409.5l0.7,0.4l0.3,0.7l-0.1,1.8l0.6,1.9l1,2.2l1.1,2.1l1.3,2l2.8,3.5l1.7,1.8l3.2,2.8l1.5,1.1l0.2,0.8l-0.1,0.4l-0.2,0.3l-0.8,0.3l-0.7,-0.2l-1.3,-0.8l-3.4,-3l-1.8,-1.9l-3,-3.7l-1.4,-2.2l-1.2,-2.2l-1.1,-2.4l-0.7,-2.3l0,-2.3l0.3,-0.8l0.7,-0.4l0.4,0.1z" />
      <path d="m170.2,468.9l0.3,0.2l0.1,0.4l-0.3,2.4l-0.6,2.4l-0.9,2.7l-0.2,0.3l-0.4,0.1l-0.2,-0.1l-0.3,-0.3l0,-0.2l0.9,-2.8l0.5,-2.3l0.3,-2.3l0.2,-0.4l0.4,-0.1l0.2,0z" />
      <path d="m174.2,467.2l0.2,0.3l0.1,0.4l-0.9,4.4l-0.7,4.7l-0.2,0.4l-0.4,0.1l-0.2,0l-0.3,-0.2l-0.1,-0.4l0.7,-4.8l1,-4.5l0.2,-0.3l0.4,-0.1l0.2,0z" />
      <path d="m178.8,463.9l0.2,0.3l0,0.4l-0.5,1l-0.5,2.2l-0.6,5.7l-0.2,0.4l-0.3,0.1l-0.2,0l-0.4,-0.2l-0.1,-0.4l0.6,-5.7l0.5,-2.5l0.7,-1.2l0.3,-0.2l0.4,0l0.1,0.1z" />
      <path d="m183.4,461.7l0.4,0.2l0.2,0.3l0.2,1.2l-1.7,9.1l-0.3,1.3l-0.3,0.2l-0.2,0.1l-0.2,-0.1l-0.3,-0.2l-0.1,-0.2l0.3,-1.4l1.6,-8.9l-0.2,-0.9l0.1,-0.3l0.3,-0.3l0.2,-0.1z" />
      <path d="m189.3,460.8l0.3,0.3l0.1,0.4l-0.6,3.6l-0.5,5.4l-0.2,0.4l-0.3,0.2l-0.2,0l-0.4,-0.3l-0.1,-0.4l0.7,-6.6l0.4,-2.5l0.3,-0.4l0.3,-0.1l0.2,0z" />
      <path d="m176.2,463.7l0.3,-0.3l0.4,0l1.1,0.4l2.1,0.1l4.5,-0.2l8.1,-0.6l3.7,-0.3l0.4,0.1l0.2,0.3l0.1,0.2l-0.2,0.3l-0.4,0.2l-3.7,0.4l-8.1,0.6l-4.6,0.2l-2.3,-0.2l-1.3,-0.4l-0.3,-0.2l-0.1,-0.4l0.1,-0.2z" />
      <path d="m171.3,467.8l0.2,-0.4l0.4,-0.1l6,0l9,-0.7l3.6,-0.3l0.4,0.1l0.2,0.3l0.1,0.2l-0.2,0.4l-0.3,0.1l-3.7,0.4l-9,0.7l-6.1,0l-0.4,-0.2l-0.2,-0.3l0,-0.2z" />
      <path d="m167.3,473.1l0.1,-0.4l0.4,-0.2l4.8,-0.5l8.5,-1.1l2.4,-0.3l0.4,0.1l0.2,0.3l0.1,0.2l-0.2,0.4l-0.4,0.2l-2.4,0.3l-8.5,1.1l-4.8,0.5l-0.4,-0.1l-0.2,-0.3l0,-0.2z" />
      <path d="m180.4,90.8l0.3,-0.7l0.7,-0.4l2.1,-0.1l4.5,-1.7l8.5,-4.1l13,-7l13.4,-7.6l12,-6.9l15.4,-9.3l10.9,-7l14.4,-9.5l5.1,-3.6l0.8,-0.2l0.7,0.3l0.2,0.4l0.1,0.8l-0.5,0.6l-5.1,3.6l-14.4,9.6l-11,7l-15.4,9.3l-12,7l-13.4,7.5l-13.1,7.1l-8.6,4.1l-4.8,1.9l-2.6,0.2l-0.8,-0.2l-0.4,-0.7l0,-0.4z" />
      <path d="m295.4,468.5l-0.8,0.2l-0.7,-0.4l-1.4,-1.5l-0.3,-0.6l-0.5,-2.7l-0.1,-2.6l0,-2.5l0.7,-6.2l1.1,-5.5l1.4,-4.6l2.7,-6.9l3.5,-7l4.3,-7l3.7,-5.1l2,-2.4l3.5,-3.8l4.5,-4.1l4.6,-3.6l3.9,-2.3l2.3,-1.3l2.4,-1l2.3,-0.9l3.9,-1.1l2.4,-0.4l2.4,-0.2l3.8,0.2l2.3,0.2l3.7,0.9l4.3,1.3l1.9,0.8l3.1,1.5l1.7,1l3.9,2.9l2.4,2.2l1.6,1.9l1.3,2l1,1.7l1.1,2.7l0.3,1.6l-0.1,0.8l-0.6,0.5l-0.4,0.1l-0.4,0l-0.7,-0.6l-0.4,-1.9l-0.9,-2.2l-0.9,-1.6l-1.2,-1.7l-1.5,-1.7l-2.2,-2.1l-3.6,-2.7l-1.6,-0.8l-2.8,-1.5l-1.9,-0.7l-4,-1.3l-3.5,-0.8l-2.1,-0.2l-3.7,-0.2l-2.1,0.2l-2.1,0.4l-3.7,1l-4.4,1.9l-2.2,1.1l-3.8,2.3l-4.3,3.4l-4.3,4l-3.5,3.7l-1.9,2.3l-3.6,4.9l-4.2,6.8l-3.3,6.9l-2.7,6.7l-1.3,4.4l-1.1,5.3l-0.7,5.9l0,2.4l0.2,2.4l0.3,2.1l1.2,1.3l0.3,0.7l-0.2,0.8l-0.3,0.3z" />
      <path d="m275.1,214.4l0.7,-0.2l0.7,0.4l5,5.3l11.7,11.8l4.1,4.4l5.7,6.7l5.6,7.4l5.2,7.3l3.4,5.5l1.5,2.8l2.5,4.7l3.4,7.6l1.9,4.6l0.6,2l0,0.8l-0.6,0.6l-0.3,0.1l-0.8,-0.2l-0.5,-0.6l-0.6,-1.9l-1.8,-4.5l-3.4,-7.5l-2.4,-4.7l-1.5,-2.6l-3.4,-5.4l-5.1,-7.3l-5.5,-7.2l-5.7,-6.6l-4,-4.4l-11.6,-11.8l-5.1,-5.4l-0.3,-0.7l0.3,-0.8l0.3,-0.2z" />
      <path d="m178.4,399.3l-0.6,-0.6l0,-0.8l0.7,-2.2l2.1,-3.4l2.7,-3.8l10.8,-13.2l7.2,-7.9l5.3,-5l8.4,-7.4l9.4,-7.4l10.8,-7.4l14.5,-8.9l15.1,-8.5l14.7,-8.2l14.3,-8.2l10.1,-6.4l8.5,-6l11.1,-8.6l0.7,-0.3l0.8,0.2l0.3,0.4l0.1,0.7l-0.4,0.7l-11.2,8.8l-8.6,6l-10.2,6.5l-14.3,8.3l-14.7,8.1l-15.1,8.5l-14.4,8.9l-10.7,7.3l-9.3,7.3l-8.4,7.3l-5.2,5l-7.1,7.7l-10.6,13.1l-2.6,3.7l-2,3.2l-0.6,1.8l-0.5,0.7l-0.8,0.1l-0.3,-0.1z" />
      <path d="m278.7,62.2l0.4,0.7l-0.1,0.7l-0.9,1.6l-1.4,4.6l-2.4,9.9l-3,16.1l-1.7,11.4l-1.4,12.2l-1,13.1l-0.4,10.2l-0.1,5.3l0.3,9.1l0.7,10.9l1,8.7l1.6,10l1.8,8.2l1.7,6.8l1.6,5.5l2.5,7.1l1.1,3l0,0.4l-0.5,0.6l-0.4,0.2l-0.8,-0.1l-0.3,-0.3l-1.3,-2.9l-2.5,-7.3l-1.6,-5.5l-1.8,-7l-1.8,-8.2l-1.6,-10.2l-1,-8.8l-0.7,-11l-0.3,-9.2l0.1,-5.3l0.4,-10.4l1,-13.1l1.4,-12.3l1.7,-11.5l3,-16.2l2.4,-10l1.5,-4.9l1,-1.8l0.6,-0.5l0.8,0l0.4,0.2z" />
      <path d="m157.4,174.2l0.7,0.2l0.5,0.6l4.9,16.5l5,17.8l3.8,14.9l3,13l2.5,12l3,16.6l2.4,15.6l1.6,14.7l0.7,12.5l0.3,13.2l-0.3,0.8l-0.7,0.4l-0.4,0l-0.7,-0.4l-0.2,-0.8l-0.3,-13.1l-0.8,-12.4l-1.5,-14.6l-2.4,-15.6l-3,-16.5l-2.5,-12l-3,-12.9l-3.7,-14.8l-5,-17.8l-4.9,-16.4l0,-0.8l0.6,-0.6l0.4,-0.1z" />
      <path d="m198.8,155.7l0.6,0.5l0.2,0.8l-0.8,4.7l-0.5,7l-0.2,17.9l0.2,15.2l-0.1,15.2l-0.5,15.1l-1,15.2l-1.5,15.9l-1.9,16l-2.2,14.9l-3.2,17.7l-2.1,9.1l-0.9,3.2l-1.6,5.3l-2.9,7.9l-2.7,6l-0.6,0.6l-0.8,0l-0.3,-0.1l-0.5,-0.7l0.1,-0.8l2.6,-5.9l2.8,-7.8l1.7,-5.2l0.9,-3.1l2,-9l3.2,-17.6l2.1,-14.8l2,-16l1.5,-15.8l1,-15.1l0.5,-15l0,-15.2l-0.1,-15.2l0.2,-18l0.5,-7.2l0.8,-4.8l0.4,-0.7l0.7,-0.3l0.4,0.1z" />
      <path d="m93.2,125.4l0.7,0.4l0.3,0.7l0.6,18l-0.5,12.6l-0.9,8.4l-1.4,7.8l-2,8.3l-1,3.4l-0.7,0.4l-0.4,0l-0.4,-0.1l-0.6,-0.6l0,-0.4l0.9,-3.4l1.9,-8.1l1.4,-7.6l0.9,-8.3l0.5,-12.4l-0.6,-17.9l0.2,-0.8l0.7,-0.4l0.4,0z" />
      <path d="m153.4,414.6l-0.6,0.5l-0.8,0.1l-1.9,-0.6l-0.5,-0.4l-1.2,-1.4l-0.3,-0.4l0,-0.4l1,-2.3l0.3,-0.4l1.8,-1.4l2,-1.2l1.8,-0.9l2.7,-0.9l2.1,-0.5l2.5,-0.1l2.2,0.3l0.5,0.2l1.7,1.1l0.5,0.7l0.5,1.7l0,0.7l-0.6,1.8l-0.5,0.6l-0.6,0.3l-0.4,0l-0.7,-0.4l-0.2,-0.4l0,-0.8l0.2,-0.3l0.1,-0.1l0.4,-1.1l-0.3,-1l-1.2,-0.7l-1.8,-0.3l-2,0.2l-1.9,0.4l-2.3,0.8l-1.6,0.8l-1.8,1l-1.4,1.1l-0.5,1l0.5,0.5l1.6,0.5l0.6,0.5l0.2,0.8l-0.1,0.4z" />
      <path d="m144.3,299.7l0.4,-0.2l0.3,0.2l1.8,1.8l0.8,0.9l0.8,1.1l0.6,1.4l0.3,1l0.3,1.1l0.1,1.2l0,2.3l-0.1,2.1l-0.5,2.5l-0.2,0.3l-0.4,0.1l-0.2,0l-0.1,-0.1l-0.2,-0.4l0.4,-2.6l0.2,-2l-0.1,-2.2l-0.1,-1l-0.2,-1l-0.3,-0.9l-0.6,-1.2l-0.6,-1l-0.7,-0.9l-1.8,-1.7l-0.1,-0.3l0,-0.4l0.2,-0.1z" />
      <path d="m151.8,299.1l0.4,0l0.3,0.2l0.6,1.1l0.7,1.2l0.5,1.2l0.3,1.5l0.2,1.1l0,2.2l-0.1,1.5l-0.3,1.6l-0.3,1l-0.3,0.6l-0.1,0.2l-0.6,0l-0.3,-0.4l0,-0.2l0.4,-1.5l0.3,-1.5l0.2,-1.4l0,-1l-0.2,-2l-0.4,-1.3l-0.4,-1.1l-0.6,-1.2l-0.6,-0.9l-0.1,-0.4l0.2,-0.4l0.2,-0.1z" />
      <path d="m180.9,420.7l0.4,0.2l0.2,0.4l0.1,1l0.3,1.1l0.8,2l0.6,1.3l0.8,1.3l0.9,1.3l1,1.3l1.2,1.3l3.7,3.8l1.3,1.1l0.1,0.2l-0.1,0.4l-0.1,0.1l-0.4,0.2l-0.4,-0.1l-1.9,-1.7l-3.1,-3.2l-1.2,-1.3l-1,-1.4l-1,-1.4l-0.8,-1.4l-0.6,-1.3l-0.9,-2.2l-0.3,-1.1l-0.2,-1.2l0.1,-0.4l0.3,-0.2l0.2,-0.1z" />
      <path d="m187.8,418.5l0.4,0.1l0.3,0.3l0.3,1.1l1,2.3l1.4,2.6l0.9,1.6l1.1,1.5l3.7,4.6l1.3,1.6l0.1,0.2l-0.1,0.3l-0.2,0.2l-0.4,0.1l-0.3,-0.2l-1.3,-1.4l-3.8,-4.7l-1,-1.6l-1,-1.6l-1.5,-2.7l-1,-2.4l-0.3,-1.2l0,-0.4l0.2,-0.3l0.2,0z" />
      <path d="m149.9,430l0.4,0.1l0.2,0.4l0.6,2.5l0.3,2.7l0.1,1.4l-0.1,1.5l-0.1,1.6l-0.6,3l-0.6,2.3l-0.7,1.7l-0.2,0.3l-0.4,0.1l-0.2,-0.1l-0.3,-0.3l0,-0.2l0.7,-1.9l0.5,-2.1l0.6,-3l0.2,-1.5l0,-1.4l-0.1,-1.4l-0.3,-2.5l-0.5,-2.5l0,-0.4l0.3,-0.2l0.2,-0.1z" />
      <path d="m146.5,431.1l0.3,0.3l0.1,0.3l-0.8,4.6l-0.7,2.7l-1.6,5.1l-0.8,2l-0.2,0.2l-0.6,0l-0.2,-0.3l-0.1,-0.2l0.3,-0.8l2.1,-6.3l0.6,-2.6l0.8,-4.5l0.2,-0.4l0.4,-0.1l0.2,0z" />
      <path d="m185.9,348.6l0.3,-0.2l0.4,0.1l0.9,0.5l0.9,0.5l1,0.8l1.4,1.5l1.4,1.7l0.9,1.3l0.7,1.5l0.5,0.9l0.2,0.7l-0.1,0.2l-0.2,0.3l-0.2,0.1l-0.4,-0.1l-0.2,-0.1l-0.6,-1.6l-0.8,-1.3l-0.7,-1.3l-1.3,-1.6l-1.4,-1.3l-0.9,-0.7l-0.8,-0.5l-0.9,-0.5l-0.2,-0.3l0,-0.4l0.1,-0.2z" />
      <path d="m191.4,344.8l0.3,-0.2l0.4,0.1l0.9,0.5l1.2,0.8l1.1,0.9l0.8,0.8l0.8,0.9l0.7,1l1,1.5l1.3,2.4l0.4,1.1l0,0.5l-0.3,0.3l-0.4,0l-0.3,-0.2l-0.5,-1.2l-1.2,-2.3l-0.9,-1.5l-0.7,-0.9l-1.5,-1.5l-1,-0.8l-2,-1.3l-0.2,-0.3l0,-0.4l0.1,-0.2z" />
      <path d="m69.8,295.4l0,0.4l-0.2,0.4l-1,0.6l-1.7,1.5l-2.8,2.9l-2.3,2.7l-4.6,6.2l-1,1.5l-0.4,0.2l-0.2,-0.1l-0.2,-0.1l-0.1,-0.2l-0.1,-0.4l1,-1.6l3.5,-4.7l2.4,-3l2.2,-2.5l1.7,-1.8l1.9,-1.6l1.1,-0.6l0.4,-0.1l0.3,0.2l0.1,0.1z" />
      <path d="m60.2,296.9l0,0.4l-0.2,0.3l-0.9,0.7l-1.4,1.6l-1.8,2.3l-1,1.5l-1.9,3.4l-1.4,2.9l-0.7,1.9l-1,3.3l-0.6,2.2l-0.2,1.6l-0.3,0.2l-0.2,0.1l-0.2,0l-0.3,-0.3l-0.1,-0.2l0,-0.4l0.2,-1.2l0.5,-2.3l1.1,-3.4l0.7,-2l1.4,-2.9l2,-3.5l1.1,-1.5l1.7,-2.4l1.6,-1.7l1,-0.8l0.4,-0.1l0.3,0.1l0.2,0.2z" />
      <path d="m130.3,307l-0.3,0.2l-0.4,0.1l-0.8,-0.3l-0.8,0.1l-1.4,0.4l-1.2,0.4l-1.4,0.6l-2.7,1.4l-3.1,1.9l-3.4,2.4l-2.2,1.9l-2.1,2.1l-2.1,2.2l-1.7,2.2l-1.5,2.2l-1.1,2.2l-0.3,1l-0.3,1l-0.2,1l-0.1,0.8l0.2,1.6l0.5,1.2l0.9,1l1.2,0.7l1.7,0.4l0.9,0.1l1,-0.1l2.2,-0.4l2.1,-0.5l1.8,-0.6l2.6,-1.1l2,-1l0.4,0l0.2,0.2l0.1,0.1l0,0.2l-0.1,0.4l-0.2,0.2l-1,0.5l-0.9,0.5l-2.7,1.1l-1.9,0.6l-2.1,0.6l-2.3,0.4l-2.3,0l-1.8,-0.4l-1.6,-0.9l-1.2,-1.2l-0.7,-1.6l-0.2,-1.9l0.1,-1.1l0.2,-1l0.3,-1.1l0.4,-1.1l0.6,-1.2l0.6,-1.1l0.7,-1.2l1.7,-2.3l1.9,-2.3l2.2,-2.2l2.3,-2.1l2.3,-1.8l2.2,-1.5l3.3,-2l2.7,-1.4l1.5,-0.7l1.3,-0.4l1.4,-0.4l1.1,-0.1l1.1,0.2l0.4,0.3l0.1,0.4l-0.1,0.2z" />
      <path d="m126.9,313l-0.4,0.1l-0.3,-0.2l-0.5,-0.5l-1,-0.2l-1,0l-1.2,0.1l-3.5,0.5l-4.7,1.1l-4,1.3l-4.2,1.6l-2.8,1.3l-2.5,1.4l-2.3,1.4l-1.9,1.5l-0.8,0.7l-0.7,0.8l-0.6,0.7l-0.8,1.5l-0.3,1.3l0,1.2l0.8,1.5l0.7,0.8l0.8,0.6l0.7,0.5l1.1,0.6l0.8,0.1l0.3,0.2l0.2,0.3l0,0.2l-0.2,0.4l-0.2,0.1l-0.2,0l-1,-0.2l-1.3,-0.6l-0.9,-0.6l-0.9,-0.7l-0.9,-1l-0.9,-1.8l-0.1,-0.3l0,-1.3l0.4,-1.7l0.9,-1.7l0.7,-0.8l0.8,-0.9l0.8,-0.8l2.1,-1.5l2.3,-1.5l2.6,-1.4l2.8,-1.3l4.3,-1.7l4.1,-1.3l4.7,-1.1l3.6,-0.6l1.4,-0.1l1,0l1.3,0.2l0.4,0.2l0.6,0.7l0.2,0.3l-0.1,0.4l-0.2,0.2z" />
      <path d="m126,320l-0.2,-0.4l0,-0.3l0.5,-1.1l0.2,-0.2l0.8,-0.6l3,-1.6l3.3,-1.3l4,-1.4l3.1,-0.8l3.2,-0.7l3.3,-0.6l3.2,-0.3l3.1,-0.1l2.8,0l2.5,0.4l1.1,0.2l1,0.4l1.7,0.8l1,1l0.1,0.1l0.5,1.1l0,1.7l-0.6,1.5l-1.1,1.4l-1.5,1.6l-1.8,1.5l-2.1,1.4l-2.3,1.3l-1.1,0.6l-2.2,1.1l-3.7,1.5l-2.3,0.9l-1.4,0.3l-0.2,0l-0.3,-0.3l0,-0.4l0.2,-0.3l1.3,-0.5l2.3,-0.8l3.6,-1.5l2.2,-1l3.3,-1.9l2,-1.4l1.7,-1.4l1.5,-1.5l0.9,-1.3l0.5,-1.1l0,-1l-0.4,-0.9l-0.9,-0.8l-1.4,-0.7l-0.8,-0.2l-2.2,-0.5l-2.5,-0.2l-2.9,0.1l-3.1,0.2l-3.2,0.4l-3.2,0.6l-3.1,0.8l-4.2,1.3l-3.5,1.4l-2.6,1.2l-1.8,1.1l-0.4,0.9l-0.3,0.3l-0.4,0.1l-0.2,-0.1z" />
      <path d="m127.2,328.3l0.2,0.4l0,0.4l-0.5,0.9l-0.1,0.8l0.1,0.7l0.4,0.4l0.8,0l0.8,-0.2l0.6,-0.3l0.4,0l0.1,0.2l0.1,0.1l0,0.4l-0.2,0.3l-0.4,0.3l-1.1,0.4l-1.4,0l-0.3,-0.1l-0.2,-0.1l-0.6,-0.8l-0.1,-0.3l-0.2,-0.9l0.1,-1.1l0.1,-0.3l0.5,-1l0.3,-0.2l0.4,-0.1l0.2,0.1z" />
      <path d="m129.7,333.1l0.4,0.3l0,0.4l-0.3,1.9l0,1l0.2,0.6l0.6,0.3l0.9,-0.1l0.8,-0.2l0.4,0.1l0.1,0.1l0.1,0.2l-0.1,0.4l-0.3,0.3l-0.7,0.3l-1.3,0.1l-0.3,-0.1l-0.9,-0.5l-0.3,-0.3l-0.3,-1l0,-1.2l0.3,-2.1l0.2,-0.4l0.3,-0.1l0.2,0z" />
      <path d="m133.6,340.8l0.4,0l0.3,0.3l0.4,0.8l1.2,1.8l0.6,1.1l0.5,1.2l0.5,1.8l0.2,1.5l0,1.7l-0.3,0.3l-0.2,0.1l-0.2,0l-0.3,-0.2l-0.1,-0.2l-0.1,-1.6l-0.2,-1.4l-0.4,-1.7l-0.5,-1l-0.5,-1l-1.2,-1.8l-0.5,-0.9l0,-0.4l0.2,-0.3l0.2,-0.1z" />
      <path d="m140.8,369.8l0.4,0l0.4,0.2l1.9,2.4l0.7,1l0.7,1.3l0.8,1.5l1.1,2.8l1.2,3.4l1,3.9l0.9,5.3l0.8,6.1l0.1,0.9l-0.1,0.3l-0.3,0.3l-0.2,0l-0.4,-0.2l-0.2,-0.3l0,-0.9l-0.8,-6.1l-1,-5.2l-1,-3.8l-1.1,-3.3l-1.1,-2.7l-0.7,-1.5l-1.4,-2.1l-1.8,-2.4l-0.2,-0.3l0.2,-0.4l0.1,-0.2z" />
      <path d="m152.9,402.1l0.1,0.4l-0.1,0.3l-0.6,0.7l-0.2,0.7l0.2,0.7l0.5,0.6l0.6,0.4l0.1,0l0.2,0.2l0.1,0.3l0,0.2l-0.3,0.3l-0.2,0.1l-0.3,0l-0.9,-0.5l-0.8,-1l-0.2,-0.3l-0.1,-0.9l0.2,-1.2l0.1,-0.2l0.7,-0.8l0.3,-0.2l0.4,0.1l0.2,0.1z" />
      <path d="m155.1,406.2l0.1,0.4l-0.1,0.4l-0.5,0.5l-0.1,0.7l0.3,0.9l0.4,0.7l0.4,0.6l0.1,0.2l-0.2,0.4l-0.1,0.1l-0.4,0.1l-0.4,-0.2l-0.3,-0.5l-0.6,-0.9l-0.4,-1.2l0,-0.2l0.1,-1l0.2,-0.3l0.6,-0.7l0.4,-0.2l0.4,0.1l0.1,0.1z" />
      <path d="m157.5,411.3l0.4,0l0.3,0.3l0.4,0.8l1,1.6l0.6,1.2l0.3,1l0.4,1l0.3,1.3l0.2,1.3l0.1,1.5l0,2.3l-0.4,3.6l-0.2,1.3l-0.2,0.7l-0.1,0.1l-0.4,0.1l-0.2,0l-0.3,-0.3l0,-0.2l0.3,-1.9l0.3,-3.4l0.1,-2.3l-0.2,-1.4l-0.2,-1.2l-0.2,-1.2l-0.7,-1.8l-0.6,-1.1l-0.9,-1.6l-0.5,-0.9l0,-0.4l0.2,-0.3l0.2,-0.1z" />
      <path d="m160.1,435.7l0.4,0l0.3,0.3l1.6,3.4l3.1,8.1l3.1,8.8l1.9,5.7l0,0.4l-0.3,0.3l-0.1,0.1l-0.4,-0.1l-0.3,-0.3l-1.9,-5.7l-3.1,-8.8l-3.1,-8.1l-1.5,-3.3l-0.1,-0.4l0.2,-0.3l0.2,-0.1z" />
      <path d="m149.1,202.7l0.2,-0.2l0.4,-0.1l0.3,0l0.3,0.2l2,1.5l0.6,0.5l0.8,0.3l0.7,0.3l1.9,0.4l0.2,0.2l0.2,0.3l0.1,0.3l0,0.3l-0.2,0.3l-0.2,0.2l-0.3,0.2l-0.4,0l-0.8,-0.2l-1,-0.2l-0.9,-0.3l-0.9,-0.5l-0.9,-0.5l-2,-1.6l-0.3,-0.2l-0.1,-0.3l0,-0.3l0.1,-0.4l0.2,-0.2z" />
    </g>

    <g id="ikon">
      <use href="#roof_color" fill="var(--roof-color, none)" />
      <use href="#mill_color" fill="var(--mill-color, none)" />
      <use href="#outline" fill="var(--outline-color, #000)" />
      <use href="#hat_shade" fill="var(--hat-shade, #000)" fill-opacity="0.15" />
      <use href="#hat_outline" fill="var(--hat-outline, var(--outline-color, #000))"/>
    </g>

  </defs>

  <use href="#ikon" style="
    --roof-color: pink;
    --mill-color: black;
    --outline-color: hotpink;
    --hat-outline: #bbb;
    --hat-shade: #ddd;
  "/>

</svg>