<svg xmlns="http://www.w3.org/2000/svg">


  <defs>

    <g id="metal_black">
      <path d="m123.84,170.42l-1.24,5.08l11,1.8l-0.15,2.45c-4.54,2.02 -8.78,2.75 -14.22,2.48l-4.32,7.47l6.6,3.2l-1.05,2.05c-2.02,0.68 -5.43,1.07 -8.15,-0.65c-0.72,1.68 -9.1,13.53 -15.7,22.3l-1.3,-2.8l6.7,-8.3l9,-15.6l-0.5,-2.3l0.2,-3.4l4.4,-11.2l-3.7,-3.4l1,-4.7l7.7,4.4l3.74,1.12z" />
      <path d="m42.81,427.16c-1.83,-12.43 -2.94,-27.04 -1.69,-43.28l24.64,-3.8l5.62,56.88l-10.51,1.99l-8.15,-7.07l-9.9,-4.73z" />
      <path d="m60.77,366.91l0.68,5.82l2.36,-0.55l0.36,3.64l3.09,-0.36l2.18,4.55l-4.55,0.36l-17.27,1.82l2,-3.45l2.18,-4.18l-2.59,-2.6l6.41,-4.49l5.14,-0.55z" />
      <path d="m41.83,294.15l6.72,-0.46l13.59,72.82l-6.31,0.49l-10.68,-46.36l-3.32,-26.48z" />
      <path d="m99.63,223.05c-2.6,-0.77 -3.91,-5.43 -5.41,-11l-4.34,3.86l0.35,-3.65l-27.45,-22.05l0,-4.1c-3.3,-1.9 -7.1,-1.01 -10.49,0.89c-8.93,30.22 -10.36,63.15 -8.29,94.67l4.62,-0.89c-1.85,-17.71 -5,-44.21 4.06,-76.22l11.18,-6l22.41,24.1l6.75,4.34c3.31,-0.51 4.41,-2.63 6.62,-3.94z" />
      <path d="m23.04,320.99l3.22,9.61l12.77,-1.2l0.78,-2.31l-10.17,-1.3l-6.6,-4.79z" />
      <path d="m54.94,285.93l1.93,-3.77l7.71,-4.58l8.43,1.2l0.48,7.23l-8.92,20.72l0,7.47l4.58,6.51l-11.33,-4.34l-3.13,-18.8l0.24,-11.66z" />
      <path d="m38.31,294.37l1.93,-6.66l8.19,-6.75l3.37,3.37l-3.86,8.92l-9.64,1.11z" />
      <path d="m137.85,60.35l9.65,1.59l-11.07,3.37l-1.35,2.56l0.39,6l-6.19,3.85l1.06,7.29l24.32,-1.89l-22.27,9.45l1.48,5.67l-6.88,-1.62l-1.21,33.6l-5.53,39.14l-14,-7.92l-1.12,-23.47l-9.26,-33.98l-1.67,-7.37l-2.02,-8.1l-2.97,-0.81l5.61,-3.6l14.27,-3.46l2.56,-7.66l7.2,-1.46l1.66,-0.28l4.18,-4.05l5.13,-3.1l-1.48,-1.62l9.51,-2.13zm-14.59,46.27l-22.56,-8.92c1.37,12 3.13,23.6 7.1,35.1l-0.5,22.1l10,5.7l2.58,-25.29c0.59,-9.43 1.05,-19.26 3.38,-28.69z" />
    </g>

    <g id="metal_grey" >
      <path d="m139.6,32.37l3.8,19.37l-3.91,7.93l9.69,2.63l5.06,2.83l3.41,3.97l11.11,0.35l3.13,3.13l10.07,0.35l5.21,3.82l-14.24,7.64c-5.18,28.4 -11.24,57.68 -27.43,87.85l-25,-2.08l8.44,-73.2l6.26,1.65l-3.76,-6.52l21.15,-8.89l-22.89,1.6l-0.17,-7.07l4.37,-4.07l0.31,-5.97l2.87,-2.68l9.79,-2.29l-8.71,-1.79l-2.08,-9.93m30.95,39.4l-33.15,14.15l-5.81,57.42l15.81,1.29l13.87,-36.45l9.27,-36.41z" />
      <path d="m93.07,208.8c-9.18,-8.23 -17.15,-17.91 -27.53,-24.7c-6.51,-0.48 -4.82,1.93 -1.45,7.95l26.56,20.45l2.42,-3.7z" />
      <path d="m97.38,224.65l15.12,-19.2l8.01,-13.46l7.69,-1.6l5.77,-14.1l4.49,-0.96l1.6,-3.53l-16.03,-2.56l-1.6,6.41l-3.21,-0.64l-5.13,14.74l-1.29,-0.86l-16.59,27.14c-2.11,4.27 -2.62,8.95 1.16,8.62z" />
      <path d="m59.2,201.09l-7.1,3.31c-4.1,25.6 -8,40.6 -3.6,75.6l3.1,4.7l-3.9,8.6c-0.23,18.23 4.03,47.07 14.3,73.3l-2,0.3l1.7,5.3l2.6,0.1l0.2,2.9l2.5,0.2l2.8,4.2l-4,0.2l5.7,57.7l5.2,0.4l12.8,1.2l8.7,1.8l-4.3,-29.1l-2.1,-32l-3.8,-0.9l-2.2,-3.3l-8.2,-0.3l-1.7,-2.9l-0.1,-2.9l-6.6,-3.2l-11.9,-51.3l-2.3,-29.9l10.1,-7.7l-10.7,-0.5c-1.1,-22.77 0.2,-45.94 4.8,-75.81z" />
      <path d="m46.91,280.4l-7.99,2.15l-8.05,-2.35l-8.05,5.03l-1.01,7.72l11.74,16.78l4.7,8.05l-3.02,4.7l-7.05,1.34l6.38,3.36l5.7,0.67l6.71,-9.4l-0.67,-4.36l-6.38,-12.42l-1.68,-8.05l3.36,-7.38l5.3,-5.84z" />
      <path d="m75.48,306.91l-4.34,12.21l-3.02,0.34l-3.02,-6.71l5.03,-0.34l5.34,-5.5z" />
      <path d="m47.12,389.6l11.58,-3l2.1,5l1.9,1.9l2.9,44.1l-5.3,0.7l-8.5,-6.4l-6.3,-3.9l-1.2,-33.9l2.82,-4.5z" />
    </g>

    <g id="lamp_glow" transform="matrix(1 0 0 1 -102.7 -70)" >
      <path d="m257.8,177.2l-1.8,14.1l-0.5,3l-0.7,3.5l-0.9,3.9l-2.9,12.1l-2.4,9l-17.6,-4.6l2.3,-9l2.8,-11.6l0.8,-3.6l0.6,-3l0.4,-2.6l1.8,-13.5l18.1,2.3z" />
      <path d="m264.9,165.9l-0.8,8.4l-0.3,2.7l-0.6,3.7l-1.4,8.2l-1.6,7.1l-1.4,5.9l-1.5,6l-1.2,4.2l-0.7,2l-1.1,3.6l-2,5.5l-1.7,4.4l-2.4,5.9l-10.9,-4.4l2.4,-5.9l1.6,-4l1.8,-5.3l1.1,-3.4l0.6,-1.9l1.1,-3.9l1.5,-5.6l1.4,-5.7l1.4,-6.8l1.4,-7.8l0.5,-3.4l0.3,-2.4l0.8,-8.2l11.7,1.1z" />
      <path d="m245,173.3l-0.6,7.6l-0.7,17.4l-0.4,10.3l-0.2,5l-0.2,3l-0.4,5.1l-0.4,4.8l-0.6,5.2l-10.2,-1.1l0.6,-5.1l0.4,-4.6l0.4,-5l0.1,-2.9l0.3,-4.8l0.3,-10.2l0.8,-17.7l0.5,-7.8l10.3,0.8z" />
      <path d="m225.26,176.73l-2.4,27.1l-1.8,18.2l-0.6,5.9l-11.9,-1.2l0.6,-5.9l1.8,-18.2l2.4,-27l11.9,1.1z" />
      <path d="m250.7,174.9l-0.7,6.9l-0.5,3.9l-1.5,11.2l-0.6,4.6l-0.5,4.6l-0.4,4.4l-0.8,11.6l-0.4,5.9l-11.7,-0.7l0.4,-5.9l0.9,-11.8l0.4,-4.6l0.5,-4.8l0.6,-4.8l1.6,-11.3l0.4,-3.7l0.7,-6.7l11.6,1.2z" />
      <path d="m256.4,171.7l-2.2,5.2l-0.4,1.2l-0.5,1.7l-0.4,1.7l-0.1,1l-0.6,3.4l-0.4,2.8l-0.3,2.8l-0.3,2.9l-0.4,4.9l-0.6,8.8l-0.4,4.7l-0.6,5.5l-0.7,5.4l-10.7,-1.4l0.7,-5.4l0.5,-5.1l0.4,-4.6l0.6,-8.7l0.4,-5l0.3,-3.1l0.4,-3l0.4,-3.1l0.6,-3.7l0.5,-2.3l0.4,-1.7l0.4,-1.5l0.3,-1.1l0.4,-1.1l2.4,-5.5l9.9,4.3z" />
      <path d="m235.1,175.2l5,-3l1.5,-0.8l2.1,-1l1.6,-0.7l2.7,-1.1l3.1,-1.2l9.2,-3.3l5.2,-1.7l3.3,10.1l-5.1,1.7l-8.9,3.2l-3,1.1l-3.1,1.3l-2.4,1.1l-0.7,0.4l-5,3l-5.5,-9.1z" />
    </g>

    <g id="outline">
      <path d="m108.2,70.3l0.8,0l0.6,0.6l0.7,1.6l1.2,0.9l2.2,0.9l2,0.7l4,0.8l5.3,0.5l3.2,0.2l10.9,-0.3l7.4,-0.8l9.2,-1.8l4.4,-1.2l4.8,-1.7l4.3,-1.8l0.8,0.2l0.3,0.3l0.1,0.3l0,0.8l-0.6,0.6l-4,1.8l-5,1.7l-6.4,1.8l-7.6,1.3l-9.6,1l-9,0.1l-3.4,-0.2l-5.4,-0.5l-4.2,-0.8l-2.3,-0.7l-2.4,-1.1l-1.9,-1.3l-0.4,-0.5l-0.8,-1.8l0,-0.8l0.5,-0.7l0.3,-0.1z" />
      <path d="m168.1,89.4l0.6,0.5l0.2,0.7l-0.5,4.2l-3.1,13.7l-4.6,17l-3.7,11.8l-4.1,11.2l-5.7,12.7l-1.6,3l-0.3,0.2l-0.8,0l-0.4,-0.2l-0.3,-0.3l-0.1,-0.8l1.5,-2.9l5.5,-12.6l4.1,-11l3.6,-11.7l4.7,-17l3,-13.5l0.5,-4l0.3,-0.7l0.8,-0.3l0.4,0z" />
      <path d="m44.6,412.8l0.7,0.3l0.4,0.7l1,5.9l0.1,4.2l-0.2,2.3l-0.5,0.5l-0.4,0.2l-0.4,-0.1l-0.4,-0.1l-0.5,-0.7l0.1,-2.2l-0.1,-3.9l-1,-5.7l0.2,-0.8l0.6,-0.5l0.4,-0.1z" />
      <path d="m46.1,419.4l0.7,0.3l0.3,0.8l0.1,1.8l0.4,2.1l0.1,2.2l-0.1,1.8l-0.3,0.7l-0.7,0.4l-0.4,0l-0.7,-0.4l-0.1,-0.4l0,-2.2l-0.2,-1.9l-0.3,-2l-0.1,-2l0.2,-0.8l0.7,-0.4l0.4,0z" />
      <path d="m46.8,420.2l0.7,0.4l0.4,0.7l0.3,4.1l-0.1,2.6l-0.5,0.6l-0.8,0.1l-0.4,-0.2l-0.5,-0.6l0,-2.5l-0.4,-3.9l0.2,-0.8l0.7,-0.5l0.4,0z" />
      <path d="m46.7,421.8l0.7,0.3l0.4,0.7l0.2,2.1l0.3,4l-0.3,0.8l-0.3,0.2l-0.4,0.2l-0.8,-0.2l-0.3,-0.3l-0.2,-0.6l-0.3,-4l-0.2,-1.9l0.2,-0.8l0.6,-0.4l0.4,-0.1z" />
      <path d="m45.5,423.4l0.8,0.3l0.4,0.7l0,0.1l-2,1.8l0.1,-2.2l-0.3,-4.2l-1.6,-12l0.1,-2l0.2,-1.8l0.2,-1.7l0.1,-0.4l0.2,-0.4l0.4,-0.2l0.4,-0.1l0.4,0.1l0.4,0.2l0.3,0.3l0.4,2.3l0.3,4.4l-0.3,0.7l-0.7,0.5l-0.4,0l-0.7,-0.4l-0.2,-0.4l-0.4,-4.5l2,-0.2l0,0.1l-0.3,1.8l0,1.7l1.5,11.7l0.4,4.5l-0.3,2.8l-0.3,0.4l-0.3,0.2l-0.4,0.1l-0.4,-0.1l-0.4,-0.2l-0.3,-0.3l-0.1,-0.4l-0.3,-1.8l0.1,-0.8l0.6,-0.5l0.4,-0.1z" />
      <path d="m46.1,390.1l0.3,-0.8l0.7,-0.4l3.5,-0.8l1.9,-0.7l3.6,-0.9l1.2,1.8l-2.6,1l-2,0.5l-3.6,0.8l-0.4,0l-0.4,-0.1l-0.3,-0.3l-0.2,-0.4l-0.1,-0.4l0.1,-0.4l0.2,-0.4l2.3,-1.1l6.8,-2.1l0.8,0l0.6,0.5l0.1,0.4l-0.1,0.8l-0.7,0.5l-6.7,2.1l-0.7,-1.8l1.8,-0.4l3.9,-1l0.8,0.1l0.5,0.6l0.1,0.4l-0.2,0.7l-0.6,0.5l-3.6,0.9l-1.7,0.7l-3.8,0.8l-0.8,-0.1l-0.6,-0.6l-0.1,-0.4z" />
      <path d="m74.9,386.1l0.7,0.4l0.3,0.7l0.1,2.2l-0.2,0.5l-0.8,1.7l-0.4,0.4l-1.9,1.3l-0.6,0.3l-0.8,-0.1l-0.6,-0.5l-0.1,-0.4l0.2,-0.8l0.2,-0.3l0.8,-0.3l1.2,-0.9l0.6,-1.2l0,-1.8l0.2,-0.7l0.7,-0.5l0.4,0z" />
      <path d="m74.6,386.9l0.5,-0.6l0.8,-0.1l1.9,0.4l3.9,-0.2l2.3,-0.3l0.7,0.4l0.2,0.4l0.1,0.4l-0.3,0.7l-0.3,0.3l-2.4,0.4l-4.3,0.2l-2.3,-0.5l-0.7,-0.4l-0.2,-0.7l0.1,-0.4z" />
      <path d="m84.2,387l0.7,0.1l0.5,0.7l0.5,1.6l1,1.2l1.5,0.8l0.2,0.4l0.1,0.8l-0.2,0.3l-0.7,0.5l-0.7,-0.1l-1.5,-0.7l-1.6,-1.8l-0.3,-0.5l-0.5,-1.9l0,-0.8l0.6,-0.5l0.4,-0.1z" />
      <path d="m88.8,393.2l0.6,0.4l0.3,0.8l-0.2,12.3l0.7,15.5l1.6,16.9l-0.2,0.8l-0.6,0.5l-0.4,0l-0.8,-0.3l-0.3,-0.7l-1.6,-17l-0.7,-15.7l0.2,-12.4l0.3,-0.8l0.7,-0.3l0.4,0z" />
      <path d="m86.2,392.4l0.8,0.3l0.4,0.7l0.3,2l0.2,2.9l0.2,15.6l1,14.4l0.9,8l-0.2,0.7l-0.6,0.5l-0.4,0.1l-0.7,-0.3l-0.4,-0.7l-1,-8l-1,-14.6l-0.1,-15.6l-0.2,-2.8l-0.3,-1.8l0.1,-0.8l0.6,-0.5l0.4,-0.1z" />
      <path d="m87.5,393l0.6,0.5l0.2,0.8l-0.3,1.8l0.2,3.6l0.4,1.8l-2.5,-1.6l-0.2,-2.2l-0.1,-2.2l0.5,-2.2l0.3,-0.3l0.4,-0.2l0.4,0l0.4,0.1l0.4,0.2l0.2,0.4l0.2,4.4l0.1,1.8l-2.2,-1.7l-0.2,-1.8l0.2,0.1l0.2,-2.2l0.3,-0.7l0.6,-0.4l0.8,0.2l0.3,0.2l0.3,0.7l0.2,3.9l-0.2,0.7l-0.7,0.5l-0.4,0l-0.7,-0.4l-0.3,-0.7l-0.2,-2.1l0.2,-2.3l0.5,-0.6l0.8,-0.1l0.7,0.4l0.2,0.8l0,0.4l-2.3,1.1l0.4,-1.7l0.8,-1l0.7,0l0.4,0.2l0.2,0.3l0.2,0.8l-0.3,1.9l-0.3,0.7l-0.7,0.3l-0.8,-0.2l-0.4,-0.6l-0.1,-2.2l0.3,-0.7l0.3,-0.3l0.7,-0.1l0.7,0.3l0.1,0.2l-1.6,0.4l1.6,-0.4l0.7,0.8l-0.4,1.8l-0.4,0.6l-0.7,0.3l-0.7,-0.3l-0.5,-0.6l0.3,-2.3l0.3,-0.7l0.8,-0.3l0.7,0.3l0.5,0.6l0,0.4l-0.3,2l-0.7,12.4l-1.9,0.8l-0.1,-3.1l0.1,-2.1l-0.1,-0.7l1.6,-1.1l-0.2,6.7l0.5,10.6l-2,0.9l0.2,-5.1l-0.3,-6.4l0.5,-0.7l0.8,-0.2l0.7,0.4l0.3,0.7l0.7,12.6l-0.3,0.8l-0.3,0.2l-0.7,0.2l-0.7,-0.4l-0.3,-0.7l-0.2,-6.2l0.2,-2.3l0.6,-0.6l0.8,-0.1l0.6,0.5l0.3,0.7l-0.1,1.9l-0.4,6.5l0.2,4l0,0.8l-1.4,1.2l-0.6,-5.4l0,-0.5l0.2,-0.4l0.3,-0.3l0.4,-0.1l0.5,0l0.4,0.1l0.3,0.3l0.8,2.6l0.5,4l0.3,5.8l-2.2,0.6l0.1,-2.5l-0.2,-1.9l2.5,1.8l0,4l-0.4,2.3l-0.3,0.3l-0.3,0.2l-0.4,0.1l-0.5,-0.1l-0.3,-0.2l-0.3,-0.3l-0.3,-2.2l2.3,-0.3l0,0.1l0.2,0.1l0.3,0.3l0.1,0.4l-0.2,0.8l-1.2,1.1l-0.8,0.3l-0.4,-0.1l-0.6,-0.5l-0.1,-0.4l0.4,-2.2l0.4,-0.7l0.8,-0.3l0.7,0.4l0.4,0.7l-2.1,1.8l0.3,-1.8l0,-1.8l-0.2,-3.8l0.3,-0.8l0.6,-0.4l0.8,0.1l0.6,0.6l0.2,2.3l-0.3,2.6l-0.3,0.3l-0.3,0.2l-0.5,0.1l-0.4,-0.1l-0.3,-0.2l-0.3,-0.3l-0.3,-2.4l-0.1,-3.9l-0.5,-3.7l-0.5,-1.9l2.5,1.3l0.2,2l0.2,1.9l-0.1,0.5l-0.7,2l-0.5,0.6l-0.8,0.1l-0.7,-0.3l-0.2,-0.4l-0.3,-4.3l-0.2,-4.2l0.4,-6.6l2.3,0.1l0.1,6l-2.3,0.1l-0.7,-12.9l2.3,0.2l0.3,3.9l-0.1,4.5l-0.6,2.7l-0.3,0.3l-0.4,0.2l-0.4,0l-0.4,-0.1l-0.3,-0.2l-0.3,-0.4l-0.4,-7l0,-9.1l0.1,-1.8l0.2,-2.1l0.4,-0.7l0.8,-0.3l0.7,0.3l0.3,0.3l0.5,2.1l0.2,2.2l-0.1,2.4l-0.4,2.2l-0.3,0.7l-0.7,0.3l-0.8,-0.3l-0.4,-0.6l0.7,-12.7l0.3,-2.2l2.3,0.3l-0.3,1.9l-2.3,-0.4l0.6,-2.2l0.6,-0.5l0.8,0l0.6,0.5l0.1,0.8l-0.3,2.3l-0.3,0.3l-0.3,0.2l-0.4,0.1l-0.4,-0.1l-0.4,-0.2l-0.3,-0.3l-0.1,-0.4l-0.3,-1.8l0.2,-0.2l2.2,0l-2.2,0l0.1,-0.2l2.3,0.4l-0.6,2.2l-0.3,0.4l-0.4,0.1l-0.4,0.1l-0.4,-0.2l-0.4,-0.2l-0.2,-0.4l-0.1,-0.4l2.3,0l-0.2,1.6l-2,-1.4l2,1.4l-0.1,0.4l-0.3,0.7l-0.6,0.4l-0.4,0l-0.7,-0.4l-0.3,-0.7l-0.1,-1.9l0.2,-0.7l0.7,-0.5l0.8,0.1l0.5,0.6l0.3,2.3l-0.1,2l-0.3,0.7l-0.6,0.4l-0.8,-0.1l-0.5,-0.6l-0.3,-4.5l2.3,-1.6l-0.4,1.7l0.1,1.7l0.4,4l-0.2,0.8l-0.7,0.4l-0.7,0l-0.6,-0.5l-0.5,-2.2l-0.3,-4l0.3,-2.1l0.4,-0.7l0.8,-0.3l0.4,0z" />
      <path d="m71.7,391.8l0.7,0.3l0.4,0.7l1.5,13.9l1.8,17.2l1.3,13.3l-0.2,0.8l-0.6,0.4l-0.4,0.1l-0.8,-0.4l-0.3,-0.7l-0.7,-7.5l-1.9,-18.2l-2,-18.6l0.1,-0.8l0.7,-0.5l0.4,0z" />
      <path d="m81.1,387.8l0.8,0.1l0.4,0.7l0.5,1.6l1.1,1.2l2.7,2.2l0.2,0.8l-0.1,0.4l-0.3,0.3l-0.7,0.3l-0.4,0l-1.2,-0.8l-1.7,-1.5l-1.4,-1.5l-0.3,-0.4l-0.6,-1.9l0.1,-0.8l0.5,-0.6l0.4,-0.1z" />
      <path d="m82.1,387.4l0.8,0.2l0.5,0.6l0.4,1.6l0.9,1l-1.4,1.5l-1.4,-1.1l-0.4,-0.6l-0.4,-1.8l0.1,-0.8l0.2,-0.3l0.7,-0.4l0.8,0.2l0.8,1l-1.1,1.9l-0.7,-1.8l0,-0.8l0.3,-0.4l0.3,-0.3l0.4,-0.1l0.5,0.1l0.4,0.2l1.3,2.1l0.6,1.4l-1.5,1l-1.1,-1.5l2.5,0.3l0.2,1.1l-0.5,0.6l-0.7,0.2l-0.8,-0.4l-1.8,-1.9l-0.2,-0.8l0.1,-0.4l0.3,-0.3l0.7,-0.3l0.8,0.2l0.5,0.5l1.4,1.5l-2,1.2l-0.8,-2.1l0.1,-0.4l0.2,-0.4l0.3,-0.3l0.4,-0.1l0.4,0l0.4,0.1l1.5,1.9l1.3,2.2l0,0.4l-0.1,0.4l-0.3,0.3l-0.4,0.2l-0.4,0.1l-0.4,-0.1l-0.3,-0.2l-1.5,-1.3l-2,-3.7l2.1,-1l1.5,3.8l-0.1,0.5l-0.2,0.3l-0.4,0.3l-0.4,0.1l-0.4,0l-0.4,-0.2l-0.3,-0.3l-1,-1.7l1.4,-0.9l1.1,0.9l1.3,1.9l0.2,0.7l-0.3,0.7l-0.7,0.4l-0.4,0l-0.6,-0.4l-2.5,-2.8l-0.3,-0.5l-0.5,-1.7l0.1,-0.8l0.6,-0.6l0.3,-0.1z" />
      <path d="m74.2,389.1l0.4,-0.7l0.8,-0.2l6.2,0.2l0.8,0.2l0.7,0.4l0.3,0.7l-0.1,0.4l-0.2,0.4l-0.7,0.4l-7.1,-0.4l-0.7,-0.3l-0.4,-0.7l0,-0.4z" />
      <path d="m82.9,389l-0.4,0.6l-0.8,0.3l-1.7,0l-1.9,0.1l-0.8,-0.1l-0.4,-0.7l-0.1,-0.4l0.3,-0.7l0.7,-0.4l2.1,-0.2l2.3,0.1l0.6,0.6l0.2,0.7l-0.4,0.7l-0.7,0.3l-2,0.2l-2,0l-1.7,-0.2l-1.1,-0.7l0,-0.7l0.4,-0.7l0.7,-0.2l1.9,0l1.7,-0.1l0.9,-0.2l0.7,0.3l0.3,0.3l0.1,0.4l-0.2,0.8l-0.7,0.5l-0.6,0.2l-2,0.2l-2.1,-0.1l0.1,-2.3l3.6,0.1l2.7,1.9l-0.9,0.3l-1.8,-0.1l0,-2.3l1.9,0.1l0.7,0.3l0.4,0.7l0,0.4z" />
      <path d="m75.2,390.3l-0.7,-0.3l-0.4,-0.7l0,-0.9l0.5,-0.7l0.3,-0.1l0.4,-0.1l0.8,0.3l0.2,0.4l0.2,0.8l-0.2,0.8l-0.7,0.5l-0.4,0z" />
      <path d="m60.2,368.3l-0.8,-0.2l-0.5,-0.6l-0.1,-0.4l0.1,-0.4l0.5,-0.6l0.4,-0.2l0.8,0.2l0.3,0.2l0.2,0.4l0,0.8l-0.5,0.6l-0.4,0.2z" />
      <path d="m53.4,184.8l0.5,0.6l-0.1,0.8l-0.9,2l-1.9,5.9l-2.4,8.9l-2.1,10.1l-1.9,12.1l-0.8,7.1l-1.2,16.9l-0.4,11.7l0.2,17.2l0.2,3.9l-0.5,0.6l-0.4,0.2l-0.4,0l-0.7,-0.4l-0.2,-0.3l-0.3,-3.9l-0.2,-17.3l0.3,-11.8l1.3,-17l0.8,-7.2l1.9,-12.2l2.1,-10.3l2.4,-8.9l2,-6.2l1,-2.1l0.6,-0.5l0.8,-0.1l0.3,0.2z" />
      <path d="m46.3,319.9l0.7,0.5l0.2,0.7l-0.1,2l0.4,4.5l2.2,15l3.2,17.4l1.3,6.1l-0.1,0.8l-0.6,0.5l-0.4,0.1l-0.8,-0.2l-0.4,-0.7l-1.2,-6.2l-3.3,-17.4l-2.2,-15.1l-0.4,-4.7l0.1,-2.2l0.3,-0.7l0.7,-0.4l0.4,0z" />
      <path d="m45.9,279.3l0.6,-0.5l0.8,-0.1l2.1,0.7l1.7,0.9l0.4,0.4l1.3,1.9l0.2,0.7l-0.1,2.6l-0.8,2.1l-1.4,2.5l-2.4,3.2l-0.7,0.3l-0.7,-0.1l-0.3,-0.3l-0.2,-0.4l0,-0.8l2.4,-3.2l1.3,-2.3l0.6,-1.6l0,-1.7l-1,-1.4l-1.3,-0.7l-1.8,-0.5l-0.6,-0.5l-0.2,-0.8l0.1,-0.4z" />
      <path d="m37.3,294l0.4,-0.8l0.7,-0.3l2.1,-0.1l4.1,-0.6l2.3,-0.2l1.6,0.1l0.3,0.1l0.5,0.7l0,0.4l-0.4,0.7l-0.3,0.3l-3.8,0.3l-4,0.6l-2.3,0.1l-0.7,-0.3l-0.5,-0.6l0,-0.4z" />
      <path d="m42.3,293.3l0.7,0.3l0.3,0.7l1.1,8.6l1.2,7.6l-0.1,0.8l-0.7,0.5l-0.4,0.1l-0.7,-0.3l-0.4,-0.7l-1.2,-7.6l-1.1,-8.7l0.2,-0.8l0.7,-0.5l0.4,0z" />
      <path d="m66.9,320.1l0,-0.8l0.5,-0.6l1.9,-1.1l2.3,-1.8l0.4,-0.1l0.8,0.3l0.2,0.3l0.2,0.4l-0.2,0.8l-2.3,2l-2.1,1.2l-0.8,0.2l-0.7,-0.4l-0.2,-0.4z" />
      <path d="m135.2,68.3l0.2,0.4l-0.1,0.4l-0.5,0.6l-0.1,1l-0.3,2l-0.2,0.4l-0.4,0.1l-0.2,-0.1l-0.4,-0.2l0,-0.2l0.3,-2.1l0,-1.1l0.2,-0.4l0.6,-0.7l0.3,-0.3l0.4,0.1l0.2,0.1z" />
      <path d="m134.9,73.9l0,0.4l-0.2,0.3l-0.8,0.5l-0.8,0.7l-3.8,2.3l-0.4,0l-0.3,-0.2l-0.1,-0.1l0,-0.4l0.3,-0.3l3.6,-2.3l0.8,-0.6l0.8,-0.6l0.4,-0.1l0.4,0.2l0.1,0.2z" />
      <path d="m129.2,78l0.4,0.1l0.2,0.4l0.2,1l0,1.1l-0.2,1.2l-0.5,2.5l-0.2,0.3l-0.4,0.1l-0.2,-0.1l-0.3,-0.2l0,-0.2l0.5,-2.6l0.1,-1.1l0,-0.9l-0.2,-0.9l0.1,-0.4l0.3,-0.3l0.2,0z" />
      <path d="m103.3,119.9l0.1,-0.4l0.3,-0.3l7.3,-2.6l6.6,-2.2l3.4,-0.9l0.9,-0.2l0.2,0l0.2,0.1l0.1,0.2l0.1,0.1l0,0.5l-0.1,0.1l-1,0.8l-7.1,3.2l-4.4,2.2l-2.7,1.7l-2.2,1.4l-1.9,1.6l-0.9,-0.8l1.4,-0.7l1.8,-1.4l1,-0.7l1.2,-0.6l1.9,-0.8l2.2,-0.6l3.8,-0.8l2.2,-0.4l0.4,0.1l0.3,0.3l0,0.2l-0.1,0.4l-0.2,0.1l-2.4,0.4l-3.7,0.8l-2.1,0.6l-1.8,0.7l-1.1,0.6l-1,0.6l-1.7,1.4l-1.5,0.7l-0.2,0l-0.2,-0.1l-0.1,-0.2l-0.1,-0.2l0,-0.4l1.3,-1.1l0.8,-0.6l2.3,-1.5l2.8,-1.7l4.4,-2.3l7.1,-3.1l0.3,0.6l-3.3,0.9l-6.5,2.1l-7.3,2.6l-0.4,0l-0.3,-0.2l-0.1,-0.2z" />
      <path d="m101.1,142.2l0.2,-0.4l0.3,-0.2l0.9,-0.2l8.2,-3.1l8,-2.9l2.2,-0.7l0.4,0l0.3,0.2l0,0.6l-0.3,0.3l-2.3,0.7l-7.9,2.9l-8.2,3.1l-1.1,0.2l-0.4,0l-0.2,-0.3l-0.1,-0.2z" />
      <path d="m120,175l0.2,0.3l0.1,0.4l-0.6,2l-1.9,5.1l-2.6,6.1l-0.3,0.3l-0.5,0l-0.3,-0.4l0,-0.4l2.6,-6l1.9,-5.1l0.6,-1.9l0.2,-0.3l0.4,-0.1l0.2,0z" />
      <path d="m112.3,188.5l0.3,0.2l0.1,0.4l-0.2,1.2l-0.3,1.1l-1,2.2l-2.8,5.3l-3.3,5.5l-4.9,7.5l-0.4,0.2l-0.4,0l-0.1,-0.1l-0.2,-0.4l0.1,-0.4l3.6,-5.4l4,-6.4l2.8,-5.2l1.5,-3.3l0.3,-0.9l0.1,-1l0.2,-0.4l0.4,-0.1l0.2,0z" />
      <path d="m63.2,186l0.3,0.3l0,0.4l-0.4,0.9l0,0.9l0.3,0.9l0.6,1.2l0.6,0.8l0.9,1.1l1.3,1.2l5.6,4.5l7.2,5.5l2.4,1.8l0.3,0.3l-0.1,0.4l-0.1,0.2l-0.4,0.1l-0.4,-0.1l-2.4,-1.8l-7.3,-5.5l-5.5,-4.5l-1.4,-1.3l-1,-1.1l-0.7,-1l-0.7,-1.3l-0.3,-1.2l-0.1,-1.2l0.1,-0.3l0.4,-0.9l0.3,-0.3l0.3,-0.1l0.2,0.1z" />
      <path d="m52.4,205.5l0.4,0.3l0,0.4l-1.7,8.2l-0.9,4.5l-1.1,5.9l-0.9,7.1l-0.7,8.2l-0.2,8.9l0,5.8l0.2,5.1l0.3,7.7l0.4,5.5l-0.1,0.4l-0.3,0.2l-0.2,0.1l-0.4,-0.2l-0.1,-0.4l-0.5,-5.5l-0.3,-7.7l-0.1,-5.2l-0.1,-5.8l0.3,-9l0.6,-8.2l1,-7.2l1,-5.9l1,-4.6l1.7,-8.1l0.2,-0.4l0.3,-0.1l0.2,0z" />
      <path d="m47.5,295.7l0.3,0.3l0.1,0.4l-0.1,0.9l-0.1,2.1l0.5,5.6l1,8.5l1.1,6.8l1.4,7.6l0.5,2.8l1.2,5.3l1.2,5l2,7.9l1.8,6.7l0,0.4l-0.3,0.3l-0.2,0l-0.4,-0.1l-0.2,-0.3l-1.8,-6.7l-2,-7.9l-1.2,-5.1l-1.2,-5.3l-0.6,-2.8l-1.4,-7.6l-1,-6.8l-1.1,-8.6l-0.4,-5.7l0,-2.2l0.1,-1l0.2,-0.4l0.4,-0.1l0.2,0z" transform="matrix(1 0 0 1 0 0)" />
      <path d="m59.9,365.9l0.4,0l0.2,0.3l0.6,1.1l0.6,2l0.1,1.1l0,0.5l-0.1,0.2l-0.3,0.2l-0.2,0l-0.4,-0.2l-0.1,-0.2l-0.2,-1.4l-0.5,-1.8l-0.5,-1l-0.1,-0.4l0.3,-0.3l0.2,-0.1z" />
      <path d="m64.3,372.5l0.4,0.1l0.1,0.4l0.1,1l0,0.5l-0.3,0.3l-0.2,0.1l-0.2,0l-0.3,-0.3l-0.1,-0.1l-0.1,-1.4l0.1,-0.4l0.3,-0.2l0.2,0z" />
      <path d="m45.3,401.2l-0.1,-0.3l0.1,-0.4l0.9,-1.2l3.1,-2.8l6.9,-5.6l0.3,-0.1l0.4,0.1l0.1,0.2l0.1,0.4l-0.2,0.3l-5.3,4.3l-4.5,4l-0.9,1.1l-0.3,0.2l-0.4,-0.1l-0.2,-0.1z" />
      <path d="m46.1,405l-0.1,-0.4l0.2,-0.4l5.5,-4.6l6.9,-5.1l0.4,-0.2l0.4,0.2l0.1,0.2l0,0.4l-0.2,0.3l-6.8,5.1l-5.5,4.6l-0.4,0.1l-0.4,-0.1l-0.1,-0.1z" transform="matrix(1 0 0 1 0 0)" />
      <path d="m43.8,413.5l-0.1,-0.4l0.2,-0.4l6,-5.6l6.7,-6l3.2,-2.7l0.4,-0.1l0.4,0.1l0.1,0.2l0.1,0.4l-0.2,0.3l-3.3,2.7l-6.6,6l-6,5.6l-0.4,0.1l-0.4,-0.1l-0.1,-0.1z" />
      <path d="m45.9,417.4l0,-0.4l0.2,-0.3l0.9,-0.5l1.7,-1.2l7,-6.1l2.6,-2.3l0.4,-0.2l0.4,0.1l0.1,0.2l0.1,0.4l-0.2,0.3l-2.6,2.4l-7.1,6.1l-1.8,1.3l-0.9,0.5l-0.4,0.1l-0.3,-0.2l-0.1,-0.2z" />
      <path d="m45.7,424.1l0,-0.4l0.3,-0.3l1.6,-0.9l1.2,-0.8l4.1,-3.1l7.1,-6l1.8,-1.6l0.4,-0.1l0.4,0.1l0.1,0.1l0.1,0.4l-0.2,0.4l-2.7,2.4l-6.3,5.2l-4.1,3.2l-1.2,0.7l-1.7,1l-0.4,0.1l-0.4,-0.2l-0.1,-0.2z" />
      <path d="m47.6,431.3l0,-0.4l0.3,-0.3l0.8,-0.4l2.1,-1.6l7,-5.8l3.8,-3l0.3,-0.2l0.4,0.2l0.1,0.1l0.1,0.4l-0.2,0.4l-3.8,3l-7,5.8l-2.2,1.6l-0.8,0.5l-0.4,0.1l-0.4,-0.2l-0.1,-0.2z" />
      <path d="m54.5,436l-0.1,-0.3l0.1,-0.4l1.8,-1.8l4.7,-5.2l0.4,-0.2l0.4,0.1l0.1,0.1l0.2,0.4l-0.2,0.4l-4.7,5.2l-1.9,1.8l-0.3,0.2l-0.4,-0.1l-0.1,-0.2z" />
      <path d="m71,398.2l0.1,-0.4l0.3,-0.2l1.1,-0.5l2.9,-1.8l4.1,-2.9l0.4,-0.1l0.3,0.1l0.2,0.2l0,0.4l-0.2,0.3l-4.1,3l-3,1.8l-1.3,0.6l-0.4,0l-0.3,-0.3l-0.1,-0.2z" />
      <path d="m71.1,403.4l0.3,-0.3l0.4,0l0.8,0.2l0.7,-0.3l2.8,-2l5.1,-4.3l1.5,-1.4l0.4,0l0.2,0.1l0.2,0.1l0,0.6l-1.6,1.5l-5.1,4.3l-2.8,2l-1.1,0.6l-0.4,0l-1,-0.3l-0.3,-0.2l-0.1,-0.4l0,-0.2z" />
      <path d="m71.6,409l0.2,-0.3l0.3,-0.2l0.9,-0.2l0.9,-0.5l2,-1.3l5.9,-4.6l0.4,-0.1l0.4,0.1l0.1,0.2l0.1,0.4l-0.2,0.3l-6,4.6l-2,1.4l-1.1,0.6l-1.2,0.2l-0.4,0l-0.2,-0.4l-0.1,-0.2z" />
      <path d="m73.7,416l0.1,-0.4l0.3,-0.2l1,-0.3l6.5,-5l4.3,-3.3l0.4,-0.1l0.3,0.1l0.2,0.2l0,0.3l-0.2,0.4l-4.3,3.4l-6.6,5l-1.3,0.4l-0.4,0l-0.3,-0.3l0,-0.2z" />
      <path d="m74.1,423.2l0.2,-0.3l0.3,-0.2l0.8,-0.2l3.5,-2.6l6.9,-5.9l0.4,-0.2l0.4,0.2l0.1,0.1l0.1,0.4l-0.2,0.3l-7,6l-3.6,2.7l-1.2,0.3l-0.4,-0.1l-0.2,-0.3l-0.1,-0.2z" />
      <path d="m76,428.7l0.3,0.3l0,0.4l7.1,-5.6l2.4,-1.8l0.3,-0.1l0.4,0.1l0.1,0.2l0.1,0.4l-0.2,0.3l-2.4,1.8l-7.3,5.8l-0.2,0.1l-1,0.2l-0.4,-0.1l-0.3,-0.3l0,-0.2l0.3,-1.1l0.2,-0.3l0.4,-0.1l0.2,0z" />
      <path d="m77.4,436.9l0.1,-0.4l0.4,-0.2l0.9,-0.2l1.6,-1l1.3,-1l1.6,-1.3l5.9,-5.5l0.3,-0.1l0.4,0.1l0.2,0.1l0.1,0.4l-0.2,0.4l-5.9,5.5l-1.6,1.3l-1.5,1.1l-1.7,1.1l-1.2,0.2l-0.4,0l-0.3,-0.3l0,-0.2z" />
      <path d="m58.5,284.5l0.1,-0.4l0.3,-0.3l0.9,-0.2l4,-2.4l6.5,-4.1l0.3,-0.1l0.4,0.2l0.1,0.2l0,0.4l-0.2,0.3l-6.5,4.1l-4.1,2.5l-1.1,0.3l-0.4,-0.1l-0.3,-0.2l0,-0.2z" />
      <path d="m55.2,290.2l0.1,-0.4l0.3,-0.2l0.9,-0.3l7.8,-4.3l7.6,-4.4l1.8,-1l0.4,0l0.1,0.1l0.2,0.2l0,0.2l-0.1,0.4l-1.8,1.1l-7.6,4.4l-7.9,4.3l-1,0.4l-0.4,0l-0.3,-0.3l-0.1,-0.2z" />
      <path d="m56.7,294.7l0,-0.4l0.3,-0.3l1,-0.4l6,-3.7l5.9,-3.7l0.4,-0.1l0.3,0.2l0.1,0.1l0.1,0.4l-0.3,0.4l-5.9,3.7l-6,3.7l-1.1,0.5l-0.4,0l-0.3,-0.2l-0.1,-0.2z" />
      <path d="m55.8,301.7l0.2,-0.4l0.3,-0.1l0.9,-0.1l7.3,-4.6l1.1,-0.8l0.2,0l0.4,0.2l0.1,0.2l0.1,0.2l-0.2,0.4l-1.1,0.8l-7.4,4.7l-0.3,0.1l-1,0l-0.4,-0.1l-0.2,-0.3l0,-0.2z" />
      <path d="m57.2,309.3l0,-0.4l0.2,-0.3l1.6,-1.1l6.5,-5.2l1.1,-0.8l0.4,0l0.2,0.1l0.1,0.2l0.1,0.2l-0.1,0.4l-1.1,0.8l-6.4,5.2l-1.7,1.2l-0.4,0.1l-0.4,-0.2l-0.1,-0.2z" />
      <path d="m57.9,317.3l0.1,-0.4l0.2,-0.3l1,-0.5l0.9,-0.6l2.9,-2.3l0.4,-0.2l0.4,0.1l0.1,0.2l0.1,0.4l-0.2,0.3l-3,2.5l-1,0.6l-1.1,0.6l-0.4,0l-0.3,-0.2l-0.1,-0.2z" />
      <path d="m40.3,289.3l0,-0.4l0.3,-0.3l2.9,-1.4l5.5,-3.3l0.4,-0.1l0.3,0.2l0.1,0.1l0,0.4l-0.2,0.4l-5.6,3.3l-2.9,1.5l-0.4,0l-0.4,-0.2l0,-0.2z" />
      <path d="m39.5,293l0.2,-0.3l0.4,-0.1l1,0l1.6,-0.6l4.8,-2.6l1.9,-1.2l0.4,0.1l0.2,0.1l0.1,0.2l0,0.4l-0.2,0.3l-1.8,1.1l-4.9,2.6l-1.9,0.8l-0.2,0l-1.1,-0.1l-0.3,-0.2l-0.2,-0.3l0,-0.2z" />
      <path d="m124,170.8l0.3,0.2l0.2,0.4l0,1.2l-0.3,1.1l-0.3,0.9l-0.8,1.8l-0.3,0.3l-0.4,0l-0.2,-0.1l-0.2,-0.3l0,-0.2l0.8,-1.9l0.3,-0.9l0.2,-0.9l0,-1l0.1,-0.4l0.4,-0.2l0.2,0z" />
      <path d="m127.8,96.2l0.8,0.3l0.3,0.8l0.3,4.6l-0.8,14.7l-1.5,17.1l-1.9,16.7l-2.8,17.5l-0.6,2.2l-0.2,0.3l-0.8,0.3l-0.4,-0.1l-0.3,-0.2l-0.4,-0.7l0.4,-2.3l2.8,-17.3l1.9,-16.6l1.5,-17l0.7,-14.6l-0.2,-4.4l0.2,-0.8l0.6,-0.5l0.4,0z" />
      <path d="m173.7,82l0.6,0.5l0.3,0.8l-0.5,4.1l-3.9,17.6l-4.8,17.7l-5.4,17.4l-5.7,15.5l-5,11.4l-2.8,5.5l-0.6,0.6l-0.8,0l-0.4,-0.2l-0.4,-0.7l0,-0.4l1.7,-3.5l6.2,-13.6l5.6,-15.3l5.3,-17.3l4.8,-17.7l3.9,-17.4l0.4,-3.9l0.4,-0.8l0.7,-0.3l0.4,0z" />
      <path d="m120.2,169.2l0.6,-0.6l0.8,-0.1l2.2,0.6l18.3,1.6l4.4,0.5l0.5,0.6l0.1,0.4l0,0.4l-0.2,0.3l-0.6,0.5l-4.4,-0.4l-18.5,-1.6l-2.4,-0.6l-0.7,-0.5l-0.2,-0.8l0.1,-0.3z" />
      <path d="m84.1,86.7l0.5,-0.6l0.8,-0.2l6.7,1.2l17.1,4.1l16,3.9l8.3,2l0.7,0.5l0.2,0.7l-0.1,0.4l-0.5,0.6l-0.8,0.1l-8.3,-2l-16,-3.9l-17.1,-4.1l-6.6,-1.2l-0.7,-0.3l-0.2,-0.8l0,-0.4z" transform="matrix(1 0 0 1 0 0)" />
      <path d="m92.5,88.7l0.8,0.2l0.4,0.6l2.6,9.5l3.9,16.9l2.6,13.2l2,12.8l0.7,6.3l0.7,9l0,3.9l-0.2,0.4l-0.7,0.4l-0.4,0l-0.4,-0.2l-0.5,-0.6l-0.2,-3.8l-0.6,-8.9l-0.7,-6.2l-2,-12.7l-2.6,-13.1l-3.9,-16.9l-2.5,-9.4l0,-0.8l0.6,-0.5l0.4,-0.1z" />
      <path d="m104.8,159.4l0.8,-0.3l0.7,0.3l1.7,1.4l7.2,4.7l5.8,3.3l0.5,0.6l0,0.8l-0.1,0.3l-0.7,0.4l-0.8,-0.1l-7.6,-4.3l-5.7,-3.8l-1.8,-1.5l-0.4,-0.7l0.1,-0.8l0.3,-0.3z" />
      <path d="m134.1,98.3l0.1,-0.8l0.6,-0.5l16.8,-6.9l14.9,-6l16.1,-6.6l4.5,-1.9l0.8,-0.1l0.7,0.5l0.1,0.4l0,0.8l-0.6,0.5l-4.6,2l-16.1,6.6l-14.9,6l-16.8,6.8l-0.8,0.1l-0.7,-0.5l-0.1,-0.4z" />
      <path d="m132.4,92.4l0.4,0.1l0.2,0.4l0.3,1l1.3,3.9l0,0.4l-0.2,0.3l-0.2,0.1l-0.4,-0.1l-0.3,-0.3l-1.4,-3.9l-0.2,-1.2l0,-0.3l0.3,-0.3l0.2,-0.1z" />
      <path d="m132.3,92.3l0,-0.4l0.3,-0.3l8.2,-3.3l8.2,-3.1l6.2,-2.3l8.5,-3.1l6.5,-2.4l7.8,-3.1l4.1,-1.6l0.4,-0.1l0.3,0.3l0.1,0.2l-0.1,0.4l-0.3,0.2l-4.1,1.7l-7.8,3.1l-6.5,2.4l-8.5,3.1l-6.2,2.3l-8.1,3l-8.2,3.4l-0.4,0l-0.4,-0.2l0,-0.2z" />
      <path d="m181.3,72.4l0.6,-0.5l0.8,0l2.2,0.9l1.7,1.1l1.4,1l0.2,0.3l0,0.8l-0.3,0.4l-0.7,0.3l-0.4,0l-3.1,-1.8l-1.8,-0.8l-0.6,-0.5l-0.1,-0.8l0.1,-0.4z" />
      <path d="m90.9,80.8l0.5,0.6l0,0.8l-0.7,1.9l-0.3,0.4l-1.7,1.6l-3.5,2.5l-0.8,0.2l-0.7,-0.4l-0.2,-0.3l-0.1,-0.4l0.2,-0.8l3.6,-2.6l1.4,-1.3l0.6,-1.6l0.5,-0.6l0.8,-0.1l0.4,0.1z" />
      <path d="m95.2,83.8l0.3,-0.3l0.4,0l8.5,1.9l8.4,1.9l8.4,2.2l8.4,2.3l2.6,0.6l0.3,0.2l0.1,0.4l-0.1,0.2l-0.2,0.3l-0.4,0.1l-2.6,-0.7l-8.4,-2.2l-8.4,-2.2l-8.4,-2l-8.5,-1.9l-0.3,-0.2l-0.2,-0.4l0.1,-0.2z" />
      <path d="m89.5,84.1l0,-0.8l0.6,-0.6l2.4,-1l15,-4.7l0.8,0.1l0.6,0.6l0.1,0.3l-0.1,0.8l-0.7,0.5l-15,4.6l-2.1,0.9l-0.8,0.1l-0.7,-0.5l-0.1,-0.3z" />
      <path d="m107.8,77.3l0.8,0.1l0.6,0.6l0.7,1.6l1.3,0.9l2.2,1l2.1,0.7l4.2,0.7l5.3,0.6l3.4,0.2l9.1,-0.2l9.6,-0.9l7.6,-1.4l6.5,-1.7l6.6,-2.4l2.7,-1.2l0.8,0.2l0.3,0.2l0.2,0.4l-0.1,0.8l-0.2,0.3l-0.7,0.5l-2.1,0.9l-6.8,2.5l-4.6,1.3l-4.1,0.9l-7.9,1.3l-7.7,0.7l-9.3,0.1l-6,-0.4l-5.2,-0.7l-2.1,-0.5l-2.4,-0.7l-2.5,-1.1l-1.9,-1.3l-0.3,-0.5l-0.9,-1.9l0,-0.8l0.5,-0.7l0.3,-0.1z" />
      <path d="m108.7,72.2l0.7,0.4l0.2,0.8l-0.1,2.3l-1.1,4.3l-0.5,0.6l-0.8,0.2l-0.4,-0.1l-0.5,-0.6l-0.1,-0.4l1.1,-4.4l0.1,-2l0.3,-0.7l0.7,-0.4l0.4,0z" />
      <path d="m169.7,68.6l0.8,0.2l0.5,0.6l0.6,1.8l0.9,2l0.5,1.9l0,0.5l-0.4,0.7l-0.3,0.2l-0.4,0.1l-0.4,0l-0.6,-0.5l-0.7,-2.1l-0.8,-1.9l-0.6,-2l0,-0.8l0.5,-0.6l0.4,-0.1z" />
      <path d="m170.2,71.1l0.6,-0.5l0.8,0l1.9,0.6l2.1,0.3l7,0.2l0.8,0.3l0.4,0.6l0,0.4l-0.4,0.8l-0.7,0.2l-7.3,-0.2l-2.3,-0.3l-2.3,-0.7l-0.6,-0.5l-0.1,-0.8l0.1,-0.4z" />
      <path d="m139.6,21l0.8,0.2l0.4,0.7l0.4,2l0.2,2.2l-0.1,2l-0.2,2.2l-0.7,3.4l-1.4,4.9l-3.2,8l-2.1,4.5l-0.5,0.5l-0.8,0.1l-0.4,-0.2l-0.4,-0.7l-0.1,-0.4l2.1,-4.7l3.2,-7.9l1.3,-4.7l0.7,-3.2l0.2,-3.8l-0.1,-1.9l-0.4,-1.8l0.1,-0.8l0.6,-0.5l0.4,-0.1z" />
      <path d="m132.1,49.5l0.8,0l0.5,0.6l1,1.9l3.8,4.9l0.3,0.8l-0.3,0.7l-0.3,0.3l-0.8,0.1l-0.7,-0.4l-3.9,-5.1l-1.1,-2.1l-0.1,-0.8l0.4,-0.7l0.4,-0.2z" />
      <path d="m140.9,21.3l0.7,0.5l0.1,0.8l-0.5,3.6l-0.2,2.7l0,4.6l0.5,4.7l1,5l0.8,2.9l0.8,2.7l-0.2,0.8l-0.3,0.3l-0.4,0.1l-0.8,-0.1l-0.3,-0.3l-0.3,-0.5l-0.8,-2.2l-0.8,-3.1l-1,-5.2l-0.6,-5l0,-4.8l0.2,-2.8l0.6,-3.8l0.4,-0.7l0.7,-0.3l0.4,0.1z" />
      <path d="m143,48.2l0.8,0.2l0.4,0.7l0.5,2.1l-0.3,2.2l-0.9,2.3l-1.3,2l-1.3,1.6l-1,0.9l-0.8,0.1l-0.3,-0.2l-0.3,-0.3l-0.2,-0.3l0.1,-0.8l2,-2.4l1.1,-1.7l0.7,-1.9l0.1,-1.5l-0.4,-1.6l0.1,-0.8l0.6,-0.5l0.4,-0.1z" />
      <path d="m117.5,69.4l0.7,-0.4l0.8,0.1l1.5,0.9l2,0.6l4.3,0.9l5.2,0.5l4.9,0.2l2.7,0l3.8,-0.2l3.6,-0.5l5.4,-1.1l4.4,-1.3l0.4,0.1l0.6,0.5l0.2,0.4l-0.2,0.8l-0.6,0.5l-4.2,1.3l-5.6,1.1l-3.8,0.5l-3.8,0.2l-2.9,0l-5,-0.1l-5.5,-0.6l-4.5,-0.9l-2.2,-0.8l-1.8,-0.9l-0.6,-0.6l0,-0.8l0.2,-0.4z" />
      <path d="m120.6,70.5l-0.8,0.2l-0.7,-0.4l-1.2,-1.4l-0.3,-0.4l0,-0.5l0.1,-0.4l0.3,-0.4l1.8,-1.5l1.6,-0.9l0.8,-0.1l0.7,0.4l0.2,0.3l0,0.8l-0.2,0.4l-1.9,1.1l-0.6,0.5l0.4,0.5l0.3,0.8l-0.2,0.7l-0.3,0.3z" />
      <path d="m121.7,65l0.7,-0.3l0.8,0.3l1.2,0.9l1.6,0.4l1.7,0.2l3.2,0.1l11.7,-0.6l5.3,-0.5l2.7,-0.5l0.4,0.1l0.5,0.6l0.1,0.4l-0.2,0.8l-0.3,0.2l-0.7,0.3l-2.1,0.4l-5.5,0.5l-11.8,0.7l-3.4,-0.2l-2,-0.2l-1.9,-0.4l-0.5,-0.3l-1.5,-1.1l-0.4,-0.7l0.1,-0.8l0.3,-0.3z" />
      <path d="m151.8,64.5l0.6,-0.5l0.8,0l2.2,0.7l2,1.4l1.3,1.5l0.3,0.7l-0.1,1.8l-0.2,0.4l-0.7,0.4l-0.4,0l-0.7,-0.4l-0.2,-0.3l-0.1,-1.5l-0.8,-1l-1.5,-0.9l-1.9,-0.6l-0.6,-0.5l-0.2,-0.8l0.2,-0.4z" />
      <path d="m122.7,66.9l-0.6,-0.6l-0.1,-0.8l0.5,-1.8l0.2,-0.4l0.3,-0.4l1.8,-1l2,-0.6l1.3,-0.2l0.4,0.1l0.5,0.6l0.1,0.4l-0.1,0.4l-0.5,0.7l-2.8,0.8l-1.1,0.6l-0.3,1.4l-0.5,0.7l-0.7,0.2l-0.4,-0.1z" />
      <path d="m127.2,61.8l0.8,-0.2l0.7,0.4l1.1,1.1l1.6,0.6l1.9,0.3l1.9,0.1l4.4,-0.3l2.4,-0.4l2,-0.4l2,-0.6l2.2,-0.9l0.4,0l0.7,0.5l0.2,0.3l0,0.4l-0.3,0.8l-0.5,0.4l-1.8,0.7l-2.3,0.7l-2.1,0.4l-2.6,0.4l-4.7,0.3l-2.1,0l-2.3,-0.4l-2.1,-0.8l-0.4,-0.3l-1.3,-1.3l-0.3,-0.8l0.2,-0.7l0.3,-0.3z" />
      <path d="m147.6,62l0.3,-0.4l0.3,-0.2l0.4,-0.2l0.4,0.1l1.2,0.2l1.1,0.6l0.9,0.7l0.3,0.3l0.5,0.8l0.2,0.8l-0.1,1l-0.3,0.6l-0.6,0.6l-0.3,0.3l-0.4,0.1l-0.4,0l-0.4,-0.2l-0.3,-0.3l-0.1,-0.3l-0.1,-0.4l0.1,-0.4l0.2,-0.4l0.3,-0.3l0,-0.2l-0.1,-0.3l-0.7,-0.5l-0.7,-0.3l-0.8,-0.2l-0.4,-0.1l-0.3,-0.3l-0.2,-0.4l0,-0.4l0,-0.3z" />
      <path d="m127.6,63.1l0.1,-0.8l0.6,-0.6l2.2,-0.9l4.8,-0.7l5.1,-0.3l2.3,0.1l2.7,0.4l2.4,0.8l0.7,0.4l0.6,0.6l0,0.8l-0.2,0.4l-0.3,0.2l-0.8,0.2l-1,-0.5l-2,-0.6l-2.4,-0.4l-2.1,-0.1l-4.8,0.3l-4.4,0.6l-1.8,0.9l-0.8,0l-0.7,-0.5l-0.2,-0.3z" />
      <path d="m162.2,68.7l-0.5,0.6l-0.8,0.1l-1.3,-0.3l-0.5,-0.6l-0.1,-0.4l0.1,-0.4l0.2,-0.3l0.7,-0.4l1.3,0.1l0.7,0.5l0.3,0.7l-0.1,0.4z" />
      <path d="m160.7,68.4l-0.4,0.7l-0.7,0.3l-0.5,0l-0.3,-0.2l-0.5,-0.6l0,-0.5l0.1,-0.3l0.6,-0.6l0.4,-0.1l0.8,0.2l0.4,0.7l0.1,0.4z" />
      <path d="m157.7,68.3l0.4,-0.8l0.7,-0.3l1.9,-0.1l2.8,0l2.4,0.2l2.1,0.4l2.2,0.6l0.5,0.3l0.3,0.4l0,0.8l-0.1,0.3l-0.7,0.5l-0.4,0l-2.4,-0.7l-1.9,-0.3l-2.1,-0.2l-2.6,0l-1.8,0.1l-0.8,-0.2l-0.4,-0.6l-0.1,-0.4z" />
      <path d="m107.3,72.5l0,-0.8l0.6,-0.6l2,-1l4.3,-1l4.5,-0.6l0.8,0.2l0.5,0.7l0,0.4l-0.3,0.7l-0.4,0.2l-4.7,0.7l-4,0.9l-1.7,0.9l-0.8,0.1l-0.7,-0.5l-0.1,-0.3z" />
      <path d="m133.1,104.3l0.3,0.2l0.1,0.4l-0.2,1.2l-0.6,8l-0.7,8.7l-0.6,8.4l-0.5,6.9l-0.7,7.5l-0.8,7.7l-1.1,8.3l-0.2,0.3l-0.3,0.2l-0.2,0l-0.3,-0.3l-0.1,-0.4l1,-8.2l0.8,-7.8l0.7,-7.4l0.5,-6.9l0.6,-8.4l0.7,-8.7l0.6,-8l0.2,-1.2l0.2,-0.4l0.4,-0.1l0.2,0z" />
      <path d="m132.1,104.7l0,-0.4l0.4,-0.3l0.9,-0.3l7.4,-3.4l7.9,-3.5l7.9,-3.1l8.6,-3.4l2.4,-0.9l0.4,-0.1l0.3,0.3l0.1,0.2l-0.1,0.4l-0.3,0.2l-2.3,1l-8.7,3.3l-7.8,3.2l-7.9,3.5l-7.5,3.4l-1,0.3l-0.4,0l-0.3,-0.2l0,-0.2z" />
      <path d="m100.2,96.4l0.4,0.2l0.2,0.3l1.4,9.2l1.5,8.7l1.8,8.1l2,8.6l0.4,1.8l0,0.2l-0.3,0.3l-0.2,0.1l-0.4,-0.1l-0.1,-0.2l-0.5,-1.8l-2.1,-8.6l-1.7,-8.2l-1.6,-8.7l-1.4,-9.2l0.1,-0.4l0.3,-0.2l0.2,-0.1z" />
      <path d="m107.6,131.2l0.3,0.1l0.2,0.4l0.1,2.5l-0.3,8.9l-0.3,9.2l-0.1,0.3l-0.4,0.2l-0.2,0l-0.3,-0.2l-0.1,-0.4l0.2,-9.1l0.3,-8.9l-0.1,-2.4l0.1,-0.4l0.4,-0.2l0.2,0z" />
      <path d="m104.4,152.8l0.3,-0.2l0.4,0.1l6.8,4.2l7.8,4.5l0.3,0.3l0,0.4l-0.1,0.2l-0.3,0.2l-0.4,0l-7.9,-4.6l-6.8,-4.2l-0.2,-0.3l0,-0.4l0.1,-0.2z" />
      <path d="m96.9,96.3l0.3,-0.2l0.4,-0.1l5.7,1.8l5.2,1.8l7.2,2.9l7.9,3.4l0.3,0.3l0,0.4l-0.1,0.2l-0.3,0.2l-0.4,0l-7.8,-3.4l-7.2,-2.9l-5.2,-1.8l-5.7,-1.7l-0.3,-0.3l-0.1,-0.4l0.1,-0.2z" />
      <path d="m123.6,106.5l0.3,0.3l0,0.4l-0.3,0.9l-0.6,2.8l-1,6.8l-0.7,7.3l-0.7,9l-0.4,5.2l-0.8,9.1l-0.7,8.6l-0.3,2.6l-0.1,0.4l-0.4,0.1l-0.2,0l-0.3,-0.2l-0.1,-0.4l0.2,-2.7l0.8,-8.5l0.7,-9.1l0.5,-5.2l0.7,-9l0.7,-7.4l1,-6.8l0.5,-2.9l0.4,-1l0.2,-0.3l0.4,0l0.2,0z" />
      <path d="m125.5,161l0.3,-0.2l0.4,0l1,0.5l3.4,0.4l7,0.5l7.9,0.4l0.4,0.1l0.2,0.4l0,0.2l-0.2,0.3l-0.4,0.1l-7.9,-0.4l-7.1,-0.4l-3.6,-0.4l-1.2,-0.6l-0.3,-0.3l0,-0.4l0.1,-0.2z" />
      <path d="m167.3,89.6l0.6,0.5l0.2,0.8l-3.5,17.1l-3.9,18l-0.3,1.2l-0.3,0.3l-0.8,0.3l-0.4,-0.1l-0.6,-0.6l-0.1,-0.3l0.2,-1.3l3.9,-18l3.5,-17l0.4,-0.7l0.7,-0.3l0.4,0.1z" />
      <path d="m139.2,32.9l0.4,0.2l0.1,0.3l0.2,3.5l-0.1,1.3l-0.1,1.6l-0.4,2.3l-0.7,3l-1.4,3.9l-0.9,2l-0.3,0.3l-0.6,0l-0.2,-0.2l-0.1,-0.4l1,-2.2l0.9,-2.5l0.9,-3l0.5,-2.2l0.3,-2.6l0,-1.3l-0.1,-3.4l0.1,-0.4l0.3,-0.2l0.2,0z" />
      <path d="m136.9,48.7l0.2,0.4l0,0.4l-0.3,0.8l-0.2,0.8l0,0.8l0.2,1l0.3,1l0.5,0.9l0.8,1.4l0,0.4l-0.1,0.2l-0.2,0.1l-0.4,0l-0.2,-0.1l-0.4,-0.4l-0.5,-1l-0.5,-1.1l-0.4,-1.1l-0.2,-1.1l-0.1,-1.1l0.2,-1l0.4,-1l0.3,-0.3l0.4,0l0.2,0z" />
      <path d="m137.9,60l0.8,0.2l0.4,0.7l0.3,1.3l-0.2,0.4l-0.5,0.6l-0.4,0.1l-0.8,-0.3l-0.3,-0.3l-0.4,-1.3l0.1,-0.8l0.6,-0.5l0.4,-0.1z" />
      <path d="m133.2,64.1l0.6,0.5l0.2,0.8l-0.3,1.5l0.1,0.2l0,0.4l-0.3,0.7l-0.4,0.3l-0.8,0l-0.3,-0.2l-0.5,-0.5l-0.2,-0.9l0.4,-1.9l0.4,-0.7l0.7,-0.3l0.4,0.1z" />
      <path d="m167.2,90.9l0.6,0.6l0.1,0.8l-3.5,16.4l-0.5,0.7l-0.7,0.2l-0.4,-0.1l-0.6,-0.5l-0.1,-0.8l3.5,-16.5l0.4,-0.6l0.8,-0.3l0.4,0.1z" />
      <path d="m110.3,163.8l0.6,0.5l0.2,0.7l-0.5,2.4l-0.6,0.6l-0.7,0l-0.4,-0.1l-0.5,-0.7l0,-0.4l0.1,-0.3l0.3,-1.8l0.3,-0.7l0.8,-0.3l0.4,0.1z" />
      <path d="m141.3,171.9l0.3,0.7l-0.2,0.8l-1.9,2.8l-0.3,0.2l-0.8,-0.1l-0.4,-0.2l-0.4,-0.7l0,-0.4l0.8,-1.4l1.1,-1.6l0.7,-0.4l0.8,0l0.3,0.3z" />
      <path d="m113.5,170.8l0.5,0.7l0,0.8l-2.3,6.5l-0.9,2.2l-0.8,1.5l-0.7,0.3l-0.4,0l-0.4,-0.2l-0.2,-0.3l-0.3,-0.7l1.5,-3.6l2.3,-6.6l0.5,-0.6l0.8,-0.1l0.4,0.1z" />
      <path d="m134.5,176.4l0.6,0.6l0,0.8l-0.6,2l-5.5,11.6l-0.6,0.6l-0.8,0.1l-0.3,-0.2l-0.5,-0.6l0.1,-0.8l5.5,-11.6l0.5,-1.8l0.5,-0.6l0.7,-0.2l0.4,0.1z" />
      <path d="m109.2,180.6l0.8,0.3l0.4,0.6l0.5,1.9l0.7,1.5l1.2,1.6l1.8,1.7l1.8,1.2l1.7,0.8l1.8,0.6l2.1,0.3l1.6,0l1.9,-0.3l2.1,-0.9l0.4,0l0.7,0.4l0.2,0.3l0.1,0.8l-0.5,0.6l-2.3,1l-2.2,0.4l-2.1,0.1l-2.4,-0.4l-2.2,-0.7l-2,-0.9l-2.1,-1.4l-2,-1.9l-1.5,-2l-0.9,-1.8l-0.6,-2.3l0.1,-0.8l0.5,-0.6l0.4,-0.1z" />
      <path d="m111.5,185.6l0.5,0.7l-0.1,0.8l-1.9,3.9l-3.5,6l-9.3,13.7l-0.7,0.5l-0.8,-0.1l-0.3,-0.3l-0.3,-0.7l0.2,-0.8l9.3,-13.5l3.3,-5.9l1.9,-3.8l0.6,-0.6l0.8,0l0.3,0.1z" />
      <path d="m122.2,191.8l0.4,0.7l-0.2,0.7l-3.7,6.2l-8.8,12.2l-10.8,13.2l-0.7,0.4l-0.8,-0.1l-0.3,-0.3l-0.3,-0.7l0.3,-0.8l10.7,-13.1l8.8,-12.1l3.6,-6l0.6,-0.5l0.8,0l0.4,0.2z" />
      <path d="m52.9,185.6l-0.1,-0.8l0.5,-0.7l1.7,-1.1l2.2,-0.9l2.3,-0.4l2.2,0.2l2.7,0.6l2.7,1.1l3,1.7l2.4,1.7l2.5,2.1l5.7,5.3l12.1,12.7l1.2,1.5l0.1,0.4l-0.2,0.8l-0.3,0.3l-0.8,0.1l-0.4,-0.1l-1.3,-1.4l-12.1,-12.7l-5.5,-5.2l-2.4,-1.9l-2.3,-1.6l-2.8,-1.7l-2.4,-0.9l-2.3,-0.5l-1.7,-0.1l-1.9,0.3l-1.7,0.7l-1.4,1l-0.8,0.2l-0.7,-0.4l-0.2,-0.3z" />
      <path d="m97.5,207.8l0.3,0.8l-0.2,0.7l-1.2,1.7l-0.5,1.6l0,1.6l0.5,1.8l0.4,1.1l0,0.4l-0.4,0.7l-0.4,0.2l-0.8,-0.1l-0.5,-0.5l-0.5,-0.8l-0.6,-2.3l-0.1,-2.2l0.7,-2.4l1.5,-2.2l0.7,-0.4l0.8,0.1l0.3,0.2z" />
      <path d="m98.3,208l-0.2,0.8l-0.7,0.4l-1.8,0.5l-1.7,1.1l-1.5,1.1l-1.2,1.2l-0.8,1.1l-0.8,0.3l-0.4,-0.1l-0.3,-0.3l-0.3,-0.7l0.1,-0.8l0.6,-0.9l1.4,-1.5l1.8,-1.3l2,-1.2l2.3,-0.7l0.8,0l0.6,0.6l0.1,0.4z" transform="matrix(1 0 0 1 0 0)" />
      <path d="m109.1,166l0.8,0.1l0.5,0.5l0.8,1.6l1.4,1.5l1.5,1.2l2.1,1.2l1.7,0.8l2.7,1.1l3.9,1.1l2.2,0.4l2.8,0.2l1.9,0.1l2.9,-0.2l2,-0.4l1.8,-0.6l0.7,0.3l0.3,0.3l0.1,0.4l-0.1,0.7l-0.6,0.6l-1.5,0.5l-2.3,0.5l-3.1,0.2l-2.2,0l-3,-0.3l-2.3,-0.5l-4.2,-1.1l-2.9,-1.1l-1.9,-0.9l-2.2,-1.3l-1.8,-1.3l-1.8,-1.9l-1,-2.1l-0.1,-0.8l0.5,-0.7l0.4,-0.1z" />
      <path d="m60.5,199.7l0.6,0.5l0.1,0.8l-0.5,2.2l-2.5,16.4l-1.7,16.1l-0.8,11.2l-0.3,4.7l-0.2,13.8l0.2,14.5l0.7,11.2l0.4,5.7l1.9,15.2l2.4,14.5l1.9,10l3.4,14.8l4,14.3l-0.1,0.8l-0.5,0.6l-0.4,0.1l-0.8,-0.2l-0.5,-0.6l-3.9,-14.4l-3.5,-14.9l-1.9,-10.1l-2.4,-14.5l-1.9,-15.4l-0.5,-5.7l-0.6,-11.3l-0.3,-14.6l0.3,-13.9l0.2,-4.7l0.8,-11.3l1.7,-16.2l2.6,-16.5l0.5,-2.3l0.5,-0.7l0.7,-0.2l0.4,0.1z" />
      <path d="m58.3,194l0.6,-0.4l0.8,0l2.2,1.1l1.8,1.4l4.8,4.4l8.3,8.9l10.6,12.6l1.5,1.4l1.7,1.4l1.6,0.8l1.6,0.2l1.7,-0.8l1.3,-1.5l0.4,-0.2l0.8,0.2l0.3,0.2l0.2,0.4l0,0.8l-1.4,1.8l-0.4,0.3l-2.2,1l-0.6,0.1l-2.1,-0.2l-2.4,-1.1l-2,-1.6l-1.7,-1.6l-10.7,-12.6l-8.2,-8.8l-4.6,-4.3l-1.7,-1.3l-1.8,-0.8l-0.5,-0.6l-0.1,-0.8l0.2,-0.4z" />
      <path d="m65.8,199l-0.4,0.7l-0.8,0.3l-1.9,0l-1.8,0.7l-3.4,1.7l-2.2,1.3l-0.8,-0.1l-0.3,-0.3l-0.2,-0.3l-0.1,-0.8l0.2,-0.4l2.3,-1.4l3.6,-1.9l2.1,-0.7l2.5,-0.1l0.8,0.2l0.4,0.7l0,0.4z" />
      <path d="m137.2,57.1l0.3,0.7l-0.3,0.8l-0.7,0.9l0.2,0.6l0.8,0.2l0.6,-0.4l0.1,-0.5l-0.6,-0.1l-1.7,0.5l-0.4,-0.1l-0.6,-0.5l-0.1,-0.4l0,-0.4l0.4,-0.7l1.9,-0.7l0.7,-0.1l2.3,0.6l0.3,0.3l0.2,0.4l-0.2,2.5l-0.2,0.4l-0.3,0.4l-1.5,1.1l-0.5,0.2l-0.6,-0.1l-1.8,-0.6l-0.4,-0.2l-0.3,-0.4l-0.7,-1.8l-0.1,-0.6l0.3,-0.5l1.1,-1.5l0.7,-0.4l0.8,0.1l0.3,0.3z" />
      <path d="m137.7,58.7l0.4,0.7l-0.1,0.8l0,0.1l-1.2,-0.4l1.4,0.5l0.1,-0.3l-0.7,2.2l1.4,-1.2l-1.4,1.2l-0.5,-1.8l1.4,-1.4l0.8,-0.1l0.4,0.2l0.3,0.3l0.2,0.3l-0.1,0.8l-1.4,1.5l-0.3,0.3l-0.5,0.1l-0.4,-0.1l-0.4,-0.2l-0.2,-0.3l-0.2,-0.5l-0.2,-2.2l0.4,-0.6l0.7,-0.3l2.2,0.7l0.6,0.5l0.1,0.4l-0.1,0.8l-1.7,1.5l-0.5,0.2l-0.5,0l-0.1,-0.1l-0.4,-0.1l-1.7,-1.5l-0.2,-0.3l0,-0.5l0.1,-0.4l1.8,-1.5l0.4,-0.2l0.4,0l0.4,0.1l0.4,0.2l0.2,0.4l0.1,2.2l-0.1,0.5l-0.3,0.4l-0.4,0.3l-2.2,0.6l-0.5,-0.1l-0.3,-0.3l-0.2,-0.4l-0.1,-0.5l0.9,-2.1l0.6,-0.5l0.8,-0.1l0.4,0.2z" />
      <path d="m33.5,281l-0.4,0.7l-0.7,0.3l-1.8,0l-1.5,0.8l-1.8,1.2l-1.5,1.5l-1.4,1.8l-0.8,1.6l-0.5,2l0,1.6l0.6,1.8l1.1,2.3l1.4,2.2l4.6,5.6l5.1,5.8l1.6,2.2l1.6,2.8l0.6,2.3l-0.1,2l-0.2,0.6l-1.4,2l-2.2,1.5l-2.1,0.8l-2.4,0.6l-2.2,0.3l-1,0l-0.6,-0.4l-0.2,-0.4l0,-0.4l0.4,-0.7l0.3,-0.3l2.9,-0.4l2.2,-0.6l1.7,-0.6l1.6,-1.2l0.9,-1.3l0.1,-1.4l-0.5,-1.6l-1.4,-2.3l-1.5,-2l-4.9,-5.7l-4.8,-5.8l-1.5,-2.4l-1.3,-2.5l-0.7,-2.3l-0.1,-2.2l0.7,-2.6l1,-2.1l1.6,-2.1l1.7,-1.7l2.1,-1.5l2,-1l0.5,-0.1l2,-0.1l0.8,0.3l0.4,0.7l0,0.4z" />
      <path d="m31.7,279.5l0.7,-0.3l0.8,0.1l1.6,1.1l1.6,0.5l4,0.7l0.4,0.2l0.3,0.7l0,0.4l-0.5,0.7l-0.8,0.2l-1.9,-0.2l-2,-0.4l-2,-0.7l-2,-1.2l-0.5,-0.6l0.1,-0.8l0.2,-0.4z" />
      <path d="m50.5,279.9l0,0.8l-0.4,0.6l-3.2,2.2l-2.8,2.4l-1.4,1.5l-1.3,1.8l-1,2l-0.7,2.1l-0.2,1.8l0.2,2.3l0.5,1.7l0.7,1.9l1.1,2.3l5,8.8l0.8,1.9l0.6,3l-0.4,2.3l-0.9,2.3l-1.4,2.2l-1.4,1.9l-1.3,1.6l-1.7,1.7l-1.6,1.4l-0.7,0.5l-0.4,0l-0.8,-0.3l-0.2,-0.3l-0.1,-0.4l0.2,-0.8l2.1,-1.8l1.5,-1.6l2.5,-3.2l1.2,-2.1l0.8,-1.8l0.2,-1.7l-0.5,-2.3l-0.6,-1.6l-4.9,-8.6l-1.2,-2.4l-0.8,-2.1l-0.6,-2l-0.2,-2.7l0.2,-2.3l0.8,-2.5l1.2,-2.4l1.5,-2l1.5,-1.7l3.1,-2.6l3.3,-2.3l0.7,-0.2l0.8,0.3l0.2,0.4z" />
      <path d="m23.2,319.8l0.8,-0.2l0.7,0.4l1.3,1.4l1.5,1.3l1.9,1.4l1.6,0.8l1.7,0.6l2,0.4l2,0l2.6,-0.4l0.7,0.4l0.2,0.3l0.1,0.4l0,0.4l-0.4,0.6l-0.9,0.3l-2.1,0.3l-2.4,0l-2.3,-0.4l-2.1,-0.7l-1.8,-1l-2.2,-1.5l-1.7,-1.5l-1.4,-1.6l-0.4,-0.7l0.3,-0.8l0.3,-0.2z" />
      <path d="m54.4,286.1l-0.5,-0.6l0,-0.8l0.7,-1.8l0.3,-0.5l1.8,-1.5l1.7,-1.2l2.1,-1.2l2.2,-1l2.4,-0.8l2.3,-0.4l2.2,-0.1l2.6,0.5l1.6,1.1l0.4,0.5l1,2.2l0,2.1l-0.4,2.6l-0.8,2.5l-5.5,13.5l-1.5,4.7l-0.5,2.6l-0.2,1.7l0.1,2.2l0.2,1.9l0.6,1.5l0.8,1.3l1.2,0.9l0.9,0.2l0.7,-0.6l0,-0.1l0.2,-0.4l0.8,-0.3l0.4,0l0.6,0.4l0.2,0.4l0.1,0.6l-0.4,0.8l-1.4,1.3l-0.4,0.3l-0.6,0l-1.8,-0.3l-0.5,-0.3l-1.5,-1.1l-1.4,-1.9l-0.7,-2.1l-0.3,-2.2l-0.1,-2.5l0.2,-2l0.5,-2.8l0.8,-2.8l0.8,-2.2l5.5,-13.5l0.7,-2.3l0.4,-2.2l-0.1,-1.6l-0.5,-1.3l-1.2,-0.7l-1.8,-0.3l-1.7,0.1l-2,0.4l-2.1,0.7l-2,0.9l-1.8,1.1l-1.6,1.1l-1.4,1.2l-0.6,1.5l-0.5,0.6l-0.8,0.2l-0.4,-0.2z" />
      <path d="m53.3,275.7l0.7,-0.3l0.8,0.2l1.4,1.1l2,0.3l2,0l4.1,-0.4l3.1,-0.5l0.7,0.3l0.2,0.4l0.1,0.4l-0.1,0.4l-0.4,0.6l-1,0.3l-2.2,0.4l-4.3,0.5l-2.3,-0.1l-2.5,-0.4l-0.5,-0.2l-1.7,-1.2l-0.4,-0.6l0,-0.8l0.3,-0.4z" />
      <path d="m59.4,316.2l0.8,-0.3l0.7,0.3l1.6,1.2l1.8,0.8l1.7,0.5l2.1,0.3l2.3,0.2l0.6,0.6l0.1,0.3l0,0.4l-0.5,0.7l-0.7,0.3l-2,-0.1l-2.3,-0.4l-2.1,-0.5l-2.1,-1l-1.9,-1.5l-0.4,-0.7l0.1,-0.8l0.2,-0.3z" />
      <path d="m69.3,320.6l-0.3,-0.8l0.3,-0.7l1.4,-1.9l1,-1.8l1,-1.8l0.9,-2.8l1.4,-5.5l0.6,-0.5l0.3,-0.1l0.5,0l0.6,0.5l0.1,0.8l-1.2,5.4l-1,3l-1.1,2.1l-1.2,2l-1.5,2l-0.7,0.4l-0.7,-0.1l-0.4,-0.2z" />
      <path d="m66.1,312.9l0.4,-0.8l0.7,-0.3l1.5,-0.2l1.6,-1.5l1.7,-2.1l1.9,-2.6l0.3,-0.2l0.8,0l0.4,0.2l0.4,0.8l-0.1,0.4l-0.5,1l-1.3,1.8l-1.8,2.3l-2.1,1.9l-0.6,0.3l-2,0.2l-0.7,-0.2l-0.5,-0.6l-0.1,-0.4z" />
      <path d="m22.9,318.5l0.7,0.3l0.5,0.7l0.9,3.8l1.3,3.6l1.5,3.5l-0.2,0.8l-0.2,0.3l-0.4,0.2l-0.8,-0.1l-0.6,-0.5l-2.2,-5.2l-1.2,-4l-0.4,-2l0.1,-0.7l0.6,-0.6l0.4,-0.1z" />
      <path d="m25.1,328.9l0.7,-0.5l0.8,0.1l1.5,0.8l2.2,0.1l1.8,-0.1l6.6,-1.2l0.8,0.1l0.5,0.6l0.1,0.4l-0.2,0.8l-0.7,0.4l-6.8,1.2l-2,0.1l-2.7,-0.1l-2.2,-1l-0.5,-0.6l-0.1,-0.8l0.2,-0.3z" />
      <path d="m51.3,368.8l-0.4,0.8l-0.7,0.3l-1.8,0.2l-0.5,-0.1l-0.3,-0.2l-0.3,-0.3l-0.2,-0.4l0,-0.4l0.1,-0.4l0.3,-0.3l2.5,-0.9l4.9,-1l5.2,-0.6l4.3,-0.3l2.3,0.1l2.8,0.2l2.5,0.4l2.2,0.8l1.9,1.3l0.4,0.6l0.6,1.8l0.1,0.7l-0.7,2.1l-0.3,0.3l-0.8,0.2l-0.4,-0.1l-0.5,-0.6l-0.1,-0.4l0.4,-1.8l-0.4,-1.1l-1.4,-1l-1.6,-0.5l-2.2,-0.4l-2.6,-0.2l-2.2,0l-4.1,0.2l-5,0.7l-4.8,0.9l-0.4,-1.8l0.7,0.2l0.4,0.6l0.1,0.4z" />
      <path d="m50.3,368.3l0,0.8l-0.6,0.6l-0.8,0.4l0.2,1l1.8,1.4l0.3,0.3l0,0.8l-0.2,0.4l-0.7,0.4l-0.8,-0.2l-2.2,-1.5l-0.4,-0.7l-0.5,-2.3l0,-0.5l0.2,-0.4l0.4,-0.3l1.6,-0.9l0.8,-0.1l0.7,0.4l0.2,0.4z" />
      <path d="m50,375.1l-0.2,0.8l-0.7,0.4l-1.8,0.5l-0.8,-0.1l-0.5,-0.6l-0.1,-0.7l0.4,-0.7l2.3,-0.8l6.5,-1.5l7.2,-1.1l6.1,-0.5l4.2,-0.1l2.4,0.3l2.3,0.8l0.4,0.2l0.3,0.4l0.7,1.5l-0.2,0.8l-0.3,0.3l-0.4,0.2l-0.8,-0.1l-0.3,-0.3l-0.6,-1l-1.7,-0.5l-2,-0.2l-2,0l-7.9,0.5l-7,1.1l-6.3,1.4l-0.6,-2l0.8,0.1l0.5,0.5l0.1,0.4z" transform="matrix(1 0 0 1 0 0)" />
      <path d="m48.3,374.8l0.2,0.8l-0.4,0.7l-0.7,0.7l0.4,0.8l0.8,0.7l0.2,0.8l-0.2,0.4l-0.2,0.3l-0.4,0.2l-0.8,0l-1,-0.7l-0.3,-0.4l-1,-1.9l-0.1,-0.5l0.1,-0.5l0.3,-0.4l1.4,-1.2l0.7,-0.3l0.8,0.2l0.2,0.3z" />
      <path d="m42.9,383.4l-0.2,0.8l-0.3,0.1l-2.9,-1.5l8.1,-1.5l17.3,-2.3l2,-0.3l0.4,0.2l0.5,0.6l0,0.4l-0.3,0.8l-0.7,0.3l-6.1,1l-17.9,2.5l-2.8,0.6l-0.8,-0.1l-0.5,-0.6l-0.1,-0.4l0.2,-0.8l0.7,-0.4l2,-0.5l0.7,0.1l0.6,0.6l0.1,0.4z" />
      <path d="m43,380.2l0.6,0.6l0.1,0.8l-0.5,2l-0.3,0.5l-0.5,0.6l-0.8,0l-0.4,-0.2l-0.4,-0.7l-0.1,-0.4l0.3,-0.7l0.4,-1.6l0.4,-0.7l0.8,-0.3l0.4,0.1z" />
      <path d="m66.1,375.6l0.3,-0.8l0.7,-0.4l2.2,-0.4l11.2,0.5l6,0l0.8,0.3l0.4,0.7l0,0.4l-0.4,0.7l-0.8,0.2l-6,0l-11.2,-0.4l-1.8,0.3l-0.8,-0.1l-0.5,-0.6l-0.1,-0.4z" />
      <path d="m66.7,375.2l0.8,0l0.6,0.4l1.2,1.6l1.4,1.7l0.1,0.8l-0.2,0.4l-0.3,0.3l-0.8,0.1l-0.4,-0.1l-1.6,-1.7l-1.3,-1.7l-0.2,-0.8l0.3,-0.7l0.4,-0.3z" />
      <path d="m92.2,379.8l0.7,0.4l0.2,0.8l-0.2,4l0.3,10.5l2.1,18.2l2.2,15l1.7,10.9l-0.1,0.8l-0.6,0.5l-0.4,0.1l-0.8,-0.3l-0.4,-0.7l-1.7,-11l-2.2,-14.9l-2.1,-18.4l-0.3,-10.7l0.2,-4.2l0.3,-0.7l0.7,-0.4l0.4,0.1z" />
      <path d="m38.6,382.5l0.7,0.3l0.3,0.8l0.3,17.2l1.2,18.1l0.5,6.7l-0.2,0.8l-0.6,0.5l-0.4,0l-0.8,-0.3l-0.3,-0.8l-0.6,-6.7l-1.1,-18.2l-0.3,-17.2l0.2,-0.8l0.7,-0.4l0.4,0z" />
      <path d="m24.1,421.9l0.6,-0.5l0.8,0l2.1,0.7l5.1,0.9l4.8,1.1l3,1l6.2,2.5l4.8,2.6l3.4,2.2l4.4,3.2l4.6,4.3l3,3l1.5,1.8l0.5,0.7l-0.1,0.8l-0.2,0.4l-0.3,0.2l-0.4,0.1l-0.8,-0.1l-1.9,-2.3l-2.9,-3l-4.6,-4.1l-4.1,-3.1l-3.3,-2.1l-4.6,-2.5l-6,-2.5l-5,-1.4l-7.6,-1.4l-2.3,-0.8l-0.6,-0.5l-0.2,-0.8l0.1,-0.4z" />
      <path d="m65.6,378.4l0.8,0.3l0.4,0.7l0.4,2l1.6,18l1.6,16.1l2,18.1l0.5,4.6l-0.2,0.4l-0.6,0.4l-0.4,0.1l-0.7,-0.3l-0.3,-0.3l-0.6,-4.7l-2,-18l-1.6,-16.2l-1.6,-17.9l-0.4,-1.9l0.1,-0.8l0.6,-0.5l0.4,-0.1z" />
      <path d="m59.6,438.2l0.3,-0.7l0.7,-0.4l2.9,-0.5l7.2,-0.2l13.2,0.8l12,1.8l7.4,1.7l5,1.6l3.4,1.3l6.6,3l2.1,1.2l0.9,0.7l0.2,0.3l-0.1,0.8l-0.2,0.4l-0.7,0.4l-0.4,-0.1l-3,-1.6l-6.3,-3l-3.3,-1.2l-4.8,-1.5l-7.2,-1.7l-11.9,-1.7l-13,-0.8l-6.9,0.1l-2.7,0.5l-0.8,-0.1l-0.5,-0.7l-0.1,-0.4z" />
      <path d="m41.2,380.8l0.2,-0.8l0.7,-0.4l16.2,-4l9.4,-1.6l0.8,0.2l0.5,0.6l0,0.4l-0.3,0.8l-0.7,0.3l-9.2,1.6l-16.1,4l-0.8,-0.1l-0.6,-0.6l-0.1,-0.4z" />
      <path d="m65.1,379.5l0.4,-0.7l0.7,-0.2l17.4,-0.3l8.6,0.2l0.7,0.3l0.4,0.7l0,0.4l-0.4,0.7l-0.8,0.3l-8.5,-0.2l-17.4,0.2l-0.7,-0.3l-0.4,-0.7l0,-0.4z" />
      <path d="m85.9,374.8l0.8,0l0.6,0.6l0.7,1.5l1.3,1.7l0,0.8l-0.2,0.3l-0.3,0.3l-0.8,0.1l-0.7,-0.4l-1.2,-1.4l-0.9,-1.9l-0.1,-0.8l0.5,-0.7l0.3,-0.1z" />
      <path d="m45.3,387.8l0.8,0.2l0.5,0.6l0.6,1.9l-0.1,0.9l-0.9,1.7l-0.4,0.5l-1.8,1.1l-0.4,0l-0.7,-0.3l-0.3,-0.3l0,-0.8l0.2,-0.4l1.5,-1.1l0.5,-1.1l-0.4,-1.4l0,-0.8l0.6,-0.6l0.3,-0.1z" />
      <path d="m43.4,392.6l0.7,0.3l0.4,0.7l0.3,2.3l0.1,12.7l1.1,18.6l-0.2,0.8l-0.7,0.4l-0.4,0l-0.4,-0.1l-0.5,-0.5l-0.2,-1.5l-1.1,-17.7l0,-12.6l-0.3,-2.1l0.1,-0.8l0.7,-0.5l0.4,0z" />
      <path d="m44.6,388.9l0.3,-0.7l0.7,-0.4l6.6,-1.3l6.5,-1.7l0.8,0.1l0.5,0.5l0.2,0.4l-0.2,0.8l-0.7,0.5l-6.6,1.7l-6.7,1.3l-0.8,-0.2l-0.5,-0.6l-0.1,-0.4z" />
      <path d="m58.9,385.7l0.7,0.3l0.4,0.7l0.3,1.6l0.8,1.5l1,1.4l1.2,1l0.1,0.8l-0.1,0.4l-0.2,0.3l-0.8,0.3l-0.7,-0.3l-1,-0.7l-1.5,-1.9l-1,-1.9l-0.4,-2.1l0.2,-0.8l0.6,-0.5l0.4,-0.1z" />
      <path d="m62.8,391.6l0.7,0.3l0.3,0.7l1.2,15.8l1.5,16l0.7,12.6l-0.2,0.8l-0.7,0.4l-0.4,0l-0.7,-0.4l-0.3,-0.7l-0.7,-12.5l-1.5,-16l-1.2,-15.8l0.2,-0.7l0.7,-0.5l0.4,0z" />
      <path d="m43,395.8l0.1,-0.8l0.5,-0.6l1.5,-0.7l0.8,-1.2l0.5,-1.1l1.6,0.5l-0.6,1.8l-0.2,0.4l-1.4,1.4l-0.3,0.3l-0.4,0.1l-0.5,-0.1l-0.4,-0.2l-0.2,-0.3l-0.2,-0.4l0,-0.5l1.2,-1.8l0.7,-1.6l1.3,2.7l-1.3,1.7l-0.4,0.3l-0.4,0.1l-0.4,0l-0.4,-0.2l-0.3,-0.3l-0.2,-0.4l0,-0.4l1,-2l2.2,0.7l-1.5,2.2l-0.7,0.4l-0.8,-0.1l-0.3,-0.3l-0.2,-0.4l0,-0.8l1.7,-2.1l0.7,-0.2l0.7,0.3l0.3,0.3l0.1,0.7l-1,2l-1,-2.4l0.2,-0.2l0.7,-1.6l0.6,-0.6l0.7,-0.1l0.7,0.4l0.2,0.8l-0.8,2.1l-1.1,1.8l-0.9,-2.5l0.2,-0.2l0.5,-1.6l0.7,-1.9l0.5,-0.6l0.4,-0.2l0.8,0.1l0.3,0.3l0.3,0.7l0.1,1.9l-0.1,0.5l-0.8,1.6l-1.2,1.8l-0.5,0.3l-1.6,0.9l-0.8,0.1l-0.7,-0.5l-0.2,-0.3z" />
      <path d="m43.9,394.1l0.7,0.3l0.4,0.7l1.3,17.1l0.8,9.7l-0.2,0.8l-0.6,0.4l-0.4,0l-0.8,-0.3l-0.3,-0.7l-0.8,-9.6l-1.3,-17.1l0.1,-0.8l0.7,-0.5l0.4,0z" />
      <path d="m45.7,394.5l0.7,0.4l0.3,0.7l0.8,16.9l0.7,10.1l-0.2,0.8l-0.7,0.4l-0.4,0.1l-0.7,-0.4l-0.3,-0.7l-0.8,-10.1l-0.8,-17l0.3,-0.8l0.7,-0.4l0.4,0z" />
      <path d="m45.2,394.7l0.6,0.6l0.1,0.8l-0.4,1.7l0.1,7l0.6,11.8l-0.2,0.8l-0.7,0.4l-0.4,0l-0.7,-0.3l-0.3,-0.8l-0.7,-11.8l0,-7.2l0.4,-2.1l0.4,-0.7l0.8,-0.3l0.4,0.1z" />
      <path d="m45.4,398.2l0.7,0.3l0.4,0.7l1.3,18.4l0.3,7.4l-0.3,0.7l-0.7,0.5l-0.4,0l-0.7,-0.4l-0.3,-0.8l-0.2,-7.3l-1.3,-18.2l0.1,-0.8l0.7,-0.5l0.4,0z" />
      <path d="m45.2,404.6l0.6,0.5l0.2,0.7l-0.1,1.9l0.4,15.1l0.3,2.5l-0.1,0.4l-0.5,0.6l-0.4,0.1l-0.8,-0.2l-0.5,-0.6l-0.1,-0.5l-0.2,-2.2l-0.5,-15.2l0.2,-2l0.3,-0.8l0.8,-0.3l0.4,0z" />
    </g>

    <g id="ikon">
      <use href="#lamp_glow" fill="var(--glow-color, hsla(40,100%,50%,0.8)"/>
      <use href="#metal_black" fill="var(--pole-dark, #333)"/>
      <use href="#metal_grey" fill="var(--pole-light, #888)"/>
      <use href="#outline" fill="var(--outline-color, #000)"/>
    </g>

  </defs>

  <use href="#ikon" style="
    --pole-dark: blue;
    --pole-light: pink;
    --glow-color: lightblue;
    --outline-color: orange;
  "/>

</svg>

