<?xml version="1.0"?>
<svg
 xmlns="http://www.w3.org/2000/svg"
 style="
    isolation:isolate;
    background:url(newsprint.jpg);
 "
 viewBox="0 0 200 200"
>

 <defs>
  <mask id="string_mask">
   <rect width="100%" height="100%" fill="#fff"/>
   <path d="m123.86,45.06 c8.05,-20.78 -32.69,-26.3 -38.75,-9.57 s31.01,28.41 37.66,53.51 s-27.77,41.87 -40.84,28.11 s8.55,-30.22 22.34,-17.66 s4.22,28.1 -8.08,37.12 s2.19,22.91 10.42,13.18 " 
    fill="none" stroke="#000" stroke-width="0.5"/>
  </mask>
 </defs>

 <g mask="url(#string_mask)" opacity="0.7">

  <g id="marker_fills" fill="none" stroke="hsla(10,70%,40%,0.8)" stroke-width="5">
   <path d="m78.33,24.49c2.16,-1.78 3.74,-2.65 5.07,-3.4c1.87,-1.06 3.38,-2.07 5.12,-2.97c1.66,-0.86 3.27,-1.34 4.77,-1.93c1.72,-0.69 3.5,-1.11 5.08,-1.39l1.7,-0.39l1.62,0.59l1.67,0.08" 
    id="stack_1_fill"/>
   <path d="m117.42,14.4c1.55,0.18 2.4,0.36 3.3,0.46c0.8,0.09 1.74,0.06 2.72,0.13c0.74,0.06 1.65,0.13 2.66,0.13c0.78,0 1.69,-0.01 2.66,0c0.76,0.01 1.66,0.09 2.62,0.16c0.87,0.07 1.75,0.11 2.61,0.2c0.92,0.09 2.58,-0.27 2.5,0.48c-0.09,0.89 -1.73,0.21 -2.45,0.25c-1.03,0.05 -1.96,0.21 -2.75,0.32c-0.79,0.12 -1.57,0.2 -2.42,0.32c-1.15,0.17 -1.95,0.32 -2.65,0.46c-1.14,0.22 -2.05,0.41 -2.86,0.59c-0.63,0.14 -1.63,0.41 -2.6,0.73c-0.82,0.27 -1.65,0.63 -2.48,0.85c-0.9,0.24 -2.17,0.33 -2.13,1.16c0.03,0.82 1.2,1.03 2.16,1.12c0.85,0.08 1.58,0.16 2.47,0.24c0.91,0.08 1.89,0.14 2.61,0.2c0.97,0.07 1.98,0.14 2.74,0.2c1.13,0.09 1.84,0.18 2.85,0.24c0.83,0.05 1.5,0.02 2.51,0.08c0.9,0.06 1.84,0.13 2.67,0.13l1,0l0.9,0" 
    id="stack_2_fill"/>
   <path d="m154.36,15.84c1.55,0.36 2.46,0.54 3.25,0.65c0.96,0.13 1.67,0.22 2.49,0.32c1.25,0.15 1.93,0.21 2.93,0.32c0.61,0.06 1.77,0.22 2.71,0.3c0.74,0.06 1.74,0.15 2.45,0.3c0.94,0.2 1.86,0.33 2.75,0.53c0.73,0.17 1.69,0.48 2.58,0.65c0.93,0.18 1.76,0.19 2.69,0.34c0.84,0.14 0.76,0.42 -0.06,0.54c-0.76,0.12 -1.77,0.21 -2.72,0.33c-0.71,0.09 -1.69,0.25 -2.48,0.34c-1.04,0.11 -1.89,0.15 -2.54,0.21c-1.06,0.1 -1.81,0.21 -2.57,0.33c-1.09,0.17 -2.03,0.33 -2.97,0.47c-0.72,0.11 -1.64,0.24 -2.45,0.38c-1,0.17 -1.85,0.33 -2.79,0.47c-0.82,0.12 -1.82,0.19 -2.63,0.36c-0.9,0.2 -1.77,0.38 -2.57,0.68c-0.83,0.32 -1.7,0.57 -1.16,0.49c0.84,-0.12 1.41,-0.18 2.5,-0.28c0.86,-0.08 1.8,-0.14 2.28,-0.17c0.95,-0.06 2.26,-0.13 2.99,-0.16c0.93,-0.03 1.74,-0.03 2.82,-0.03c0.84,0 1.66,-0.01 2.59,0.05c0.87,0.05 1.81,0.24 2.76,0.31l0.63,0.18" 
    id="stack_3_fill"/>
   <path d="M 52 142 Q 100 141 154 141 L 146 173 L 53 173 Z "
    fill="hsla(10,70%,40%,0.8)"
    stroke="none"
    id="hull_fill"/>
  </g>

  <path id="ship_black" d="M 27 72 Q 100 63 177 70 L 154 140 L 52 141 Q 50 108 27 72 Z " fill="#000"/>

  <g id="outline_black" fill="#000">
   <path d="m60.63,40.89c37,-2.42 84.11,-4.54 113.21,5.94l-5.1,-0.6c-37.67,-8.27 -74.43,-6.43 -110.8,-3.8l2.69,-1.54z" />
   <path d="m14.68,62.81c37.41,-3.14 117.38,-10.64 167.14,-1.6c-13.96,36.99 -25.28,72.72 -34.71,111.26l-2.36,-0.11c9.6,-37.33 19.63,-73.04 33.72,-110.17c-46.67,-7.11 -113.02,-2.47 -160.56,1.75l-3.23,-1.13z" />
   <path d="m18.39,62.81l3.49,1.36c24.65,30.54 34.4,68.84 31.23,108l-3.1,0c4.74,-20.42 1.04,-73.14 -31.62,-109.37l0,0.01z" />
   <path d="m46.31,60.33l15.5,-19.4l1.84,0.42l-15.28,18.95l-2.06,0.02l0,0.01z" />
   <path d="m57.72,47.08c10.07,-1.03 23.83,-1.66 35.4,-1.79l-5.37,5.28c-8.28,0.1 -24.98,1.51 -34.21,2.32l4.19,-5.8l-0.01,-0.01z" />
   <path d="m165.14,59.83l1.74,-14.46l1.8,0.2l-2.4,14l-1.14,0.26z" />
   <path d="m7.36,171.88l188.19,-0.1l-3.78,1.25l-189.66,0.83l5.24,-1.98l0.01,0z" />
  </g>

  <g id="stack_1" transform="translate(-3.72093 -0.930233) translate(-168 -58) matrix(0.877893 0 0 1 29.7484 0)">
   <path d="m243.63,99.16l11.89,-27.5c7.47,-1.37 17.33,-2.23 26,-2.3l-12,28.7l-25.89,1.1zm33.8,-27.1c-5.84,-0.43 -13.07,-0.57 -20.61,1.4l-4,9.6c6.23,-0.83 13.57,-1.47 20.5,-1.3l4.11,-9.7z" fill="#000000"/>
   <path d="m246.45,82.63c7.99,-1.77 16.17,-3.05 24.26,-3.82l-1.92,1.06c-6.38,0.37 -14.57,1.65 -23.65,3.62l1.31,-0.86z" fill="#000000"/>
  </g>

  <g id="stack_2" transform="translate(-3.72093 -0.930233) translate(-168 -58) matrix(0.96838 0 0 1 6.03893 -0.355872)">
   <path d="m281.03,98.38l10.89,-27.9c6.21,-1.4 16.75,-1.06 22.88,-0.1c-2.99,5.02 -5.99,10.05 -8.98,15.07l-4.58,14.05l-20.2,-1.12l-0.01,0zm30.36,-25.24c-3.19,-1.26 -12.12,-2.83 -18.4,-0.82l-4.49,11.14c5.19,-0.85 11.87,-0.58 16.31,-0.1l6.58,-10.22z" fill="#000000"/>
   <path d="m286.03,80.96c8.52,-1.35 17.36,-1.26 25.6,0.2l-2.15,0.73c-6.21,-1.28 -14.74,-1.36 -24.94,-0.3l1.5,-0.64l-0.01,0.01z" fill="#000000"/>
  </g>

  <g id="stack_3" transform="translate(-3.72093 -0.930233) translate(-168 -58) translate(0 0.1) matrix(1 0 0 1 -3.55872 -0.111744)">
   <path d="m314.23,100.06l14.79,-27.4c7.47,-1.37 18.93,0.27 27.6,0.2l-27.9,29.1l-14.49,-1.9zm37.8,-25.5c-5.84,-0.43 -14.17,-2.07 -21.71,-0.1l-4.8,9.3c6.23,-0.83 13.27,0.03 18.4,0.6l8.11,-9.8z" fill="#000000"/>
   <path d="m323.95,80.99c7.29,0.08 14.66,0.71 21.84,1.82l-1.88,0.63c-5.62,-1.12 -12.98,-1.75 -21.27,-1.88l1.31,-0.57z" fill="#000000"/>
  </g>

  <g id="hook">
   <path d="m107.89,150.33c-0.6,6.59 0.47,15.14 3.79,16.21c4.32,1.19 4.59,-4.28 3.33,-8.77c-0.06,-0.04 0.19,1.64 -0.86,3.44" fill="none" stroke="#000000"/>
   <circle cx="107.82" cy="149.18" fill="none" id="svg_46" r="1.17" stroke="#000000" stroke-width="0.5"/>
  </g>

  <g id="rod">
   <line fill="none" id="svg_49" stroke="#000000" stroke-width="0.5" transform="matrix(1 0 0 1 0 0)" x1="97.52" x2="123.12" y1="56.21" y2="45.31"/>
   <circle cx="102.47" cy="55.01" fill="#000000" id="svg_50" r="1.37" stroke="#000000" stroke-opacity="0" stroke-width="0.5" transform="matrix(1 0 0 1 0 0)"/>
   <line fill="none" id="svg_54" stroke="#000000" stroke-width="0.25" transform="matrix(1 0 0 1 0 0)" x1="103.32" x2="121.32" y1="54.71" y2="46.21"/>
  </g>

  <g id="ship_title" transform="rotate(-4)">
   <text x="22" y="70" 
   transform-origin="22 70"
   transform="matrix(1 0 0.5 1 0 0)"
   font-family="Times"
   font-size="5"
   >
    PiN FISHING CLUB
   </text>
  </g> 

 </g>

</svg>