<svg xmlns="http://www.w3.org/2000/svg" >

<style id="config_styles">
  :root {

    --animation-duration: 10s;

    --title-color: #333;
    --outline-color: var(--title-color);
    
    --accent-color: rgba(128,0,0,0.8);


    --heart-inside-color: var(--accent-color);
    --rect-inside-color: var(--accent-color);

    --roof-color: hsla(0,100%,100%,0.5);
    --stripe-color: var(--accent-color);

    --head-color: var(--accent-color);
    --foot-color: var(--accent-color);

  }

  @media (orientation: portrait) {
    .land { display: none; }
  }

  @media (orientation: landscape) {
    .port { display: none; }
  }

</style>

<style id="dialog_styles">

  @font-face {
  font-family: 'Comic Neue';
    /* src: url('neue.ttf') format('truetype'); */
    src: url('ComingSoon.ttf') format('truetype');
  }

  text {
    font-family:'Comic Neue';
    font-weight: 400;
    font-size: 40px;
    fill: var(--text-color, var(--outline-color, #000));
  }

  .text-bubble {
    --x-fill: var(--roof-color);
    fill: none;
    stroke: var(--outline-color);
    stroke-width: 4;
    stroke-miterlimit: 300;
  }

</style>

<defs id="mask_defs">

  <mask id="title_mask">
    <rect width="820" height="400" fill="#fff"/>
    <use href="lil-morris.svg#matte" 
     transform="translate(705 225) scale(1.5)"
    />
    <use href="red-line-sad.svg#mask" 
     transform="translate(0 15) scale(1.35)"
    />
  </mask>

  <mask id="dialogs_mask">
    <rect width="820" height="400" fill="#fff"/>

    <use href="#dialog_1_bubble" fill="#000"
     class="land"
     transform="translate(340 300) scale(1.5)"
    />

    <use href="#dialog_2_bubble" fill="#000"
     class="land"
     transform=" translate(100 102) scale(1.5)"
    />
  </mask>
  
</defs>

<defs id="item_defs">

  <g id="logo_stuff">

    <style>
      :root {
        --outline-color: #300;
        --accent-color: #700;
        fill: var(--outline-color);
      }
    </style>
  
    <defs>
     <g id="all_mattes">
      <path id="orange_baby_matte" d="m737.51,550.18c6.65,-16.42 11.12,-44.33 2.24,-75.34l13.98,-6.52l-10.25,-86.65c12.01,-10.14 27.33,-24.33 38.82,-41.61c40.82,-40.73 66.23,29.98 68.24,70.28c-19.3,-9.81 -57.85,-26.72 -78.78,22.67c4.22,48.25 66.42,-13.27 76.5,7.32l-4.31,40.09c17.61,-0.54 43.22,-3.94 54.55,10.38c-7.53,19.87 -15.64,40.88 -15.75,59.6l-145.25,-0.23l0.01,0.01z"  />
      <path id="purple_baby_matte" d="m261.39,548.4c-9.59,-4.54 -18.87,-11.87 -15.73,-28.52l5.9,-105.28c-0.52,-16.87 -15.32,-62.94 9.63,-94.41l53.73,-29.5c58.98,-53.35 63.38,30.66 62.45,81.49l4.3,3.22l1.19,121.64l-9.34,5.73c3.62,11.9 -0.87,33.74 -17.67,44.77l-94.45,0.86l-0.01,-0.01l0,0.01z" />
      <path id="green_baby_matte" d="m128.67,554.13l-8.6,-13.38l-20.06,-110.34c-10.55,-28.94 -20.17,-66.04 -1.57,-101.88l71.79,-38.56c21.06,9.25 40.49,39.45 49.79,88.35l7.87,-1.55l14.26,101.33l-13.65,10.33c2.93,20.67 6.5,42.61 0.17,63.91l-100,1.79z" />
      <path id="pink_baby_matte" d="m448.19,546.07l-14.02,-11.91c0.21,-12.01 1.97,-23.71 9.94,-36.96l-7.14,-2.17l-3.42,-34.47l-20.19,-48.14c17.08,-3.83 36.34,-12.63 56.83,-27.33l-5.59,-23.91c-17.6,10.56 -40.17,25.16 -61.18,18.63c-2.17,-42.96 -0.93,-110.77 47.52,-112.11c18.82,17.22 43.86,29.65 67.23,30.13c4.39,29.1 10.69,56.29 0.25,107.4c16.89,27.88 35.46,63.89 42.78,99.42l2.8,9.32l-22.36,35.4l-93.43,-3.31l-0.02,0.01z" />
      <path id="blue_baby_matte" d="m648.11,549.18l-9.91,-14.7c-1.35,-56.94 -15.11,-118.53 -46.89,-174.53c-1.24,-19.77 -2.48,-40.48 12.11,-63.04c20.19,-5.18 44.72,-9.73 76.4,-36.02c10.51,4.65 47.95,48.88 51.67,94.24l6.75,-0.56l15.37,115.1l-13.34,6.88c2.8,11.18 9.65,45.34 -3.09,74.39l-89.06,-1.75l-0.01,-0.01z" />
      <path id="pin_matte" d="m931.38,475.85l-17.12,-9.52l3.63,-30.05c-16.36,-5.7 -28.31,-14.86 -39.64,-30.31l18.91,-36.79c5.96,-1.88 11.92,-1.24 17.88,2.85c29.19,-35.12 64.98,-77.47 74.35,-130.83l-6.48,-4.4l-5.7,-34.2l26.87,-19.59l-7.7,-19.01c-55.99,-43.55 -0.48,-130.65 24.96,-128.66c24.72,-1.1 33.32,40 -0.81,126.87c-0.09,77.63 -1,18.37 -1.09,18.12c-0.09,-0.26 24.35,-1.5 28.98,8l-0.68,31.85l-3.94,5.75c4.7,17.08 26.12,94.47 44.97,133.05l21.61,11.77l-7.96,44.51l-9.84,3.32l6.82,44.2l-12.76,8.3c-1.74,21.84 -6.93,48.09 -30.68,81.57l-76.6,-0.51c-33.29,-22.6 -38.28,-40.17 -47.98,-76.29z" />
     </g>
     <mask id="all_mask">
      <rect width="1300" height="800" fill="#fff" />
      <use href="#all_mattes" fill="#000" />
     </mask>
    </defs>
  
    <!-- <rect width="1300" height="550" fill="orange" /> -->
  
    <g id="scene" transform="translate(30 -15)">
    
      <g id="dialog_1" transform="translate(60 90)">
        <path class="text-bubble" d=" M -10 -50 h 800 v 45 l 32 12 l -32 -5 v 27 h -800 z "/>
        <text>
          Ok listen everybody! It's time to go DRINK.
        </text>
      </g>

      <path id="background" d=" M 1200 310 L 22.89 470 L 22.89 557.52 l0.5,-1l0.7,-0.7l1,-0.5l1,-0.1l9.3,0.4l9.4,0l46.5,-1.3l42.6,-1.7l20,-0.8l41.3,-1.6l27.1,-0.8l28.9,-0.9l30.5,-0.7l21.3,-0.4l34,-0.5l35.6,-0.4l37.6,-0.2l69.3,0l42.9,0.1l43.7,0.3l44,0.3l29.6,0.3l44.8,0.4l44.8,0.5l44.9,0.5l75.4,0.8l44.7,0.4l77.1,0.2l66.7,0l54.3,-0.1l42.1,-0.3l30.8,-0.2l30.8,-0.4l1,0.2l0.9,0.5l0.7,0.8l0.4,1l0,1.1 z "
        mask="url(#all_mask)" 
        fill="pat(dots,3,#300)"
        opacity="0.5"
      />
    
      <g id="orange_baby" >
       <path id="orange_baby_throat_fill" d="m848.97,409.47c-22.22,-15 -63.89,-17.22 -75.56,25.56c1.67,38.33 51.67,0.56 61.58,0.53c-0.08,-12.25 10.08,-23.31 13.97,-26.08l0.01,-0.01z" />
       <use href="#orange_baby_matte" fill="orange"  opacity="0.2" />
       <path d="m737.51,550.18c6.65,-16.42 11.12,-44.33 2.24,-75.34l13.98,-6.52l-10.25,-86.65c12.01,-10.14 26.19,-24.33 38.82,-41.61c-11.18,15.84 -25.77,47.69 -23.76,87.99c-0.44,22.76 8.44,24.71 12.65,37.53c4.22,12.82 7.46,29.19 10.12,46.35c9.11,4.14 29.38,5.17 45.33,4.96l0.69,34.66l-89.82,-1.37z" 
        fill="#000" opacity="0.2" />
       <g>
        <path d="m740.2,382.7l-0.1,-0.8l0.19,-0.8l0.48,-0.7l0.67,-0.5l1.83,-0.8l2.7,-2l3.28,-2.9l7.42,-7.5l5.68,-6.1l7.61,-8.8l10.02,-12.6l0.58,-0.5l0.67,-0.3l0.87,-0.1l0.77,0.3l0.58,0.5l0.39,0.7l0.19,0.8l-0.1,0.8l-0.39,0.8l-10.12,12.7l-7.71,8.9l-5.78,6.3l-7.61,7.6l-3.47,3.1l-3.18,2.4l-2.31,1.1l-0.77,0.2l-0.87,-0.1l-0.67,-0.4l-0.58,-0.5l-0.29,-0.8l0.02,0z"  />
        <path d="m795.5,332.1l-0.1,0.5l-0.3,0.5l-0.5,0.3l-0.5,0.1l-1,0.1l-1.3,0.4l-0.9,0.6l-1.4,1l-2.2,2l-2.1,2.3l-2.2,2.8l-2.9,4.2l-2.6,4.1l-1.7,2.9l-1.6,3.2l-1.7,3.4l-2.7,6.8l-1.5,4.2l-2.3,7.7l-1.2,4.7l-1.8,8.6l-1.3,7.7l-0.9,6.5l-0.5,5.2l-0.5,6.6l-0.1,2l-0.1,0.5l-0.2,0.5l-0.4,0.3l-0.5,0.2l-0.6,0l-0.5,-0.2l-0.4,-0.4l-0.2,-0.4l-0.1,-0.7l0.2,-4.8l0.3,-3.9l0.6,-5.2l0.9,-6.6l1.3,-7.8l1.8,-8.7l1.2,-4.9l2.4,-7.8l1.6,-4.4l2.7,-6.9l1.7,-3.6l1.7,-3.2l1.7,-3l2.7,-4.3l3,-4.3l2.3,-2.9l1.2,-1.4l2.1,-2.1l1.5,-1.3l1.6,-1.1l1.2,-0.8l1.8,-0.7l1.7,-0.1l0.5,0l0.5,0.2l0.4,0.4l0.2,0.5l0,0.5z" />
        <path d="m849.8,439.4l0.9,0.5l0.7,0.8l0.4,1l0.1,1.1l-4.9,35.6l-0.3,1l-0.7,0.8l-0.9,0.6l-1,0.2l-1.1,-0.1l-0.9,-0.5l-0.7,-0.8l-0.4,-1l-0.1,-1.1l4.9,-35.6l0.3,-1l0.7,-0.8l0.9,-0.6l1,-0.2l1.1,0.1z" />
        <path d="m772,461.7l0.5,0l0.5,0.2l0.3,0.4l0.3,0.5l1.7,5.6l1.7,7.5l1.1,6.4l1.2,8.8l0.7,9.6l0.1,2.1l-0.1,0.5l-0.2,0.5l-0.4,0.4l-0.5,0.2l-0.5,0l-0.6,-0.2l-0.4,-0.3l-0.2,-0.5l-0.2,-0.5l0,-2.1l-0.8,-9.3l-1.1,-8.8l-1.1,-6.2l-1.7,-7.4l-1.7,-5.5l0,-0.5l0.1,-0.5l0.3,-0.5l0.4,-0.3l0.6,-0.1z"  transform="rotate(-5.55096 775.35 483.05)"/>
        <path d="m783.1,504.3l0.1,0.5l-0.1,0.5l-0.3,0.5l-0.4,0.3l-3.1,1.9l-1.7,-1.2l5.7,-3.1l1.3,-0.8l0.5,-0.2l0.5,0l0.5,0.2l0.5,0.3l0.2,0.5l0.1,0.5l-0.1,0.5l-0.2,0.5l-1.9,2.4l-1.9,3.2l-1.6,3.3l-0.3,0.5l-0.4,0.3l-0.5,0.1l-0.6,0l-0.4,-0.2l-0.4,-0.4l-0.3,-0.5l0,-0.5l0.2,-0.8l1.6,-3.2l2,-3.4l1.1,-1.5l1,2.2l-3.7,2l-2.7,1.5l-0.6,0.2l-1.8,0.1l-0.6,0l-0.5,-0.3l-0.3,-0.4l-0.2,-0.5l-0.1,-0.5l0.2,-0.6l0.4,-0.4l1.1,-0.9l2.6,-1.8l2.9,-1.6l0.5,-0.2l0.5,0l0.5,0.2l0.4,0.3l0.3,0.5z" />
        <path d="m850.4,478.5l-0.1,0.5l-0.3,0.4l-0.5,0.3l-0.5,0.1l-2,0.2l-14.9,4.3l-0.6,0.2l-0.8,-2.2l0.5,0l0.5,0.2l0.4,0.3l0.3,0.5l0.1,0.5l-0.1,0.5l-0.2,0.5l-0.4,0.3l-0.5,0.2l-1.3,0.3l-1.7,0.2l-0.5,-0.1l-0.5,-0.2l-0.4,-0.4l-0.2,-0.5l0,-0.5l0.1,-0.5l0.3,-0.4l0.4,-0.3l1.3,-0.7l2.4,-0.8l15.1,-4.4l2.5,-0.2l0.5,0l0.5,0.3l0.3,0.4l0.3,0.4l0,0.6z" />
        <path d="m852.7,479.4l-0.2,0.5l-0.3,0.5l-0.4,0.3l-0.5,0.1l-1.8,0.1l-4.9,2l-4.9,2.5l-7,4l-0.4,0.2l-0.6,0l-0.5,-0.2l-0.4,-0.3l-0.3,-0.4l-0.1,-0.6l0.1,-0.5l0.2,-0.5l0.4,-0.3l7.1,-4.1l5.1,-2.5l5.3,-2.3l0.5,-0.1l2,-0.1l0.5,0.1l0.5,0.2l0.4,0.4l0.2,0.5l0,0.5z" />
        <path d="m846.4,481l0,-0.9l0.4,-0.9l0.6,-0.7l0.9,-0.5l2.7,-0.8l5.9,-0.2l9,0.3l8.2,0.9l10.7,2.2l3.5,1l3.8,1.2l2.6,1.2l3,1.6l2.7,2.1l0.7,0.9l0.9,1.8l0.4,1.1l-0.2,1.2l-0.7,1.9l-0.6,0.9l-0.8,0.6l-1,0.2l-1.1,-0.1l-1.1,-0.5l-0.7,-0.7l-0.3,-0.9l0,-1l0.2,-0.9l0.4,-0.5l-2,-1.7l-2.2,-1.1l-2.3,-1l-3.4,-1.1l-3.2,-0.9l-10.2,-2l-7.7,-0.9l-8.6,-0.3l-5.2,0.2l-1.8,0.6l-0.9,0.1l-0.9,-0.2l-0.8,-0.5l-0.6,-0.8l-0.3,-0.9z" />
        <path d="m900,494.6l0.6,0.8l0.3,1l0,1l-0.4,1l-2.6,4.1l-2.4,4.7l-2.5,5.8l-3.2,9.4l-2.7,11.2l-2.4,14l-0.4,3.1l-0.3,1l-0.5,0.8l-0.9,0.6l-1,0.3l-1,-0.2l-0.9,-0.4l-0.7,-0.7l-0.4,-0.9l-0.1,-1.1l0.4,-3.2l2.5,-14.4l3.5,-14l2.7,-7.6l2.6,-6.1l2.6,-5.1l2.8,-4.5l0.7,-0.8l0.9,-0.4l1,-0.2l1,0.3l0.8,0.5z" />
        <path d="m779.1,348.4l0,-4.1l-0.2,-2.5l0.5,-1.8l1.9,-2.5l2.7,-2.7l4.1,-3.1l2.9,-1.9l4.4,-2.3l3.6,-1.4l3.3,-1l4.3,-0.6l5.6,0.6l4.1,1.4l2.1,1.1l3.4,2.2l2,1.7l2,2l3.1,3.9l3.7,5.4l3,5l3.3,6.5l1.5,3.5l3.8,9.8l3.2,9.6l2.8,10.2l2,10.1l1.5,9.9l0.2,2.6l-0.1,0.9l-0.4,0.9l-0.7,0.6l-0.9,0.4l-0.9,0.1l-0.9,-0.3l-0.8,-0.5l-0.5,-0.8l-0.2,-0.9l-0.2,-2.5l-1.4,-9.5l-2,-9.8l-2.7,-9.8l-3.1,-9.4l-3.7,-9.5l-1.5,-3.3l-3.1,-6.3l-2.8,-4.6l-3.4,-5.1l-2.9,-3.6l-1.7,-1.6l-1.6,-1.4l-2.8,-1.8l-1.5,-0.8l-3.3,-1l-4.4,-0.4l-3.1,0.4l-2.6,0.8l-3.2,1.3l-3.9,2.1l-2.4,1.6l-3.6,2.8l-2.4,2.2c-1.53,1.6 -3.87,4.1 -6.1,7.2z" />
        <path d="m889.5,492.9l0.2,0.4l0.1,0.5l0,0.6l-0.3,0.4l-0.9,1.2l-2,2.9l-2.3,3l-1.8,1.8l-1.7,1.5l-1.8,1.2l-2.1,1.2l-3.4,1.4l-2.1,0.7l-3.4,0.8l-10.7,1.6l-20.1,1.7l-7.7,0.4l-16.3,0.2l-6,-0.2l-9.4,-0.8l-8.2,-1l-2,-0.4l-0.4,-0.2l-0.5,-0.3l-0.2,-0.4l-0.1,-0.6l0.1,-0.5l0.2,-0.5l0.4,-0.3l0.5,-0.2l0.6,0l1.9,0.3l8.1,1.1l9.2,0.7l5.9,0.2l16.1,-0.2l7.6,-0.4l20,-1.7l10.4,-1.5l3.2,-0.8l2,-0.6l3,-1.2l1.8,-1.1l1.5,-1.1l1.6,-1.3l1.6,-1.6l2.1,-2.7l1.9,-2.9l1,-1.3l0.4,-0.3l0.5,-0.2l0.5,0l0.6,0.1l0.4,0.4z" />
        <path d="m854.4,410.9l-0.1,1l-0.5,0.8l-0.7,0.6l-0.9,0.4l-2.2,0.4l-3,2.3l-2,1.9l-2.8,3.3l-2.3,3.5l-0.9,2l-0.8,2.6l-0.4,3.1l0.1,2l0.2,1.2l0,1l-0.4,0.9l-0.6,0.7l-0.8,0.5l-1,0.2l-0.9,-0.2l-0.8,-0.5l-0.6,-0.7l-0.4,-0.9l-0.2,-1.5l-0.1,-2.8l0.5,-3.9l1,-3.5l1.2,-2.6l1.2,-2.1l1.6,-2.3l3.1,-3.7l2.3,-2.3l2.1,-1.7l2.1,-1.4l1,-0.4l2.7,-0.5l1,-0.1l0.9,0.3l0.7,0.6l0.5,0.9l0.2,0.9z" />
        <path d="m822.61,517.01l0.52,0.14l0.33,0.25l0.25,0.44l0.15,0.45l0.17,4.34l-0.14,16.33l0.38,13.69l-0.06,0.38l-0.15,0.48l-0.37,0.31l-0.49,0.14l-0.5,0.05l-0.52,-0.14l-0.34,-0.34l-0.34,-0.34l-0.05,-0.46l-0.38,-13.69l0.03,-16.41l-0.16,-4.25l0.05,-0.47l0.26,-0.39l0.37,-0.31l0.49,-0.14l0.5,-0.05l0,-0.01z" />
        <path d="m812.1,516.39l0.4,-0.09l0.5,0l0.5,0.18l0.4,0.27l0.9,1.08l0.3,0.81l0,1.97l-0.6,7.35l-3,19.72l-0.4,2.33l-0.1,0.45l-0.3,0.36l-0.5,0.27l-0.4,0.09l-0.5,-0.09l-0.5,-0.27l-0.3,-0.27l-0.2,-0.45l0,-0.45l0.4,-2.33l2.9,-19.63l0.6,-7.17l0,-1.43l-0.6,-0.72l-0.2,-0.45l-0.1,-0.45l0.1,-0.45l0.3,-0.36l0.4,-0.27z"  transform="rotate(-5.35624 811.7 533.731)"/>
        <path d="m802,515l0.4,0.2l0.4,0.3l0.2,0.4l0.1,0.5l-0.3,3.4l-3.4,19.5l-2.5,14.2l-0.2,0.4l-0.3,0.4l-0.4,0.2l-0.5,0.1l-0.5,-0.1l-0.4,-0.2l-0.3,-0.4l-0.2,-0.4l0,-0.5l2.6,-14.2l3.4,-19.4l0.2,-3.1l0.1,-0.5l0.3,-0.4l0.3,-0.3l0.5,-0.1l0.5,0z" />
        <path d="m787.5,512.5l0.4,0.2l0.3,0.4l0.2,0.4l0,0.5l-2.7,19l-3.1,18.4l-0.1,0.5l-0.3,0.3l-0.4,0.2l-0.5,0.1l-0.4,-0.1l-0.4,-0.2l-0.3,-0.3l-0.2,-0.5l0,-0.4l3.1,-18.4l2.6,-19l0.2,-0.5l0.3,-0.3l0.4,-0.3l0.4,-0.1l0.5,0.1z" />
        <path d="m849.5,413.9l-1,-0.2l-1,-0.5l-0.6,-0.8l-0.5,-1.3l-1.2,-0.9l-2.5,-1.3l-3.7,-1.3l-6.6,-2l-5.6,-1.2l-4.2,-0.7l-3.3,-0.4l-3.4,-0.1l-3.5,0l-3.5,0.4l-3.3,0.6l-3.1,0.8l-1.9,0.6l-1.9,0.8l-3.3,1.9l-1.7,1.1l-1.5,1.2l-2.3,2l-2.2,2.3l-2.1,2.4l-2,2.5l-1.8,2.6l-1.6,2.7l-1.4,2.7l-1.1,3l-0.3,0.9l-0.3,1.9l-0.3,2.9l0.1,2.7l0.6,2.6l0.6,1.5l0.6,1.2l0.9,1.2l0.9,0.8l1,0.7l1.4,0.7l1.5,0.4l1.7,0.3l2.1,0.2l3.3,-0.3l3.8,-0.6l5.4,-1.6l9.2,-3.4l14.8,-6.3l4.9,-1.8l4.6,-1.2l2.6,-0.3l1.6,-0.2l2.6,0.2l2.7,0.6l0.6,0.2l2.6,1.2l1.5,1l1.5,1.3l0.4,0.5l1.2,1.6l0.3,1.2l-0.1,1l-0.4,1l-0.8,0.8l-0.9,0.4l-1.1,0.1l-1,-0.2l-0.9,-0.6l-0.3,-0.5l-0.7,-0.9l-1.1,-1l-0.8,-0.5l-1.6,-0.7l-2.2,-0.5l-1.5,0l-3.2,0.4l-3.9,1l-4.4,1.6l-14.6,6.2l-9.7,3.6l-5.9,1.7l-4.3,0.8l-1.5,0.1l-2.6,0.2l-2.8,-0.2l-2.3,-0.4l-2.3,-0.6l-2.2,-1l-1.9,-1.3l-1.6,-1.5l-1.5,-1.9l-1.1,-2l-0.9,-2.3l-0.8,-3.4l-0.2,-3.7l0.3,-3.7l0.5,-2.5l0.4,-1.4l1.2,-3.4l1.6,-3.3l1.9,-3.2l2.1,-2.9l2.2,-2.8l2.3,-2.6l2.4,-2.5l2.6,-2.3l1.8,-1.5l2,-1.3l2,-1.2l2,-1.1l2.4,-0.9l2.2,-0.8l3.6,-1l3.8,-0.7l3.9,-0.4l4,0l3.8,0.1l6.1,0.8l4.1,0.8l6,1.4l5,1.6l4.1,1.5l1.7,0.8l2.7,1.5l1.8,1.5l1.1,1.8l0.2,1.4l0,1.1l-0.4,1l-0.6,0.8l-1,0.5l-1,0.2z" />
        <path d="m773.5,511.8l0.4,0.2l0.4,0.4l0.1,0.4l0,0.5l-2.6,19l-3.1,18.4l-0.1,0.4l-0.3,0.4l-0.4,0.2l-0.5,0.1l-0.5,-0.1l-0.4,-0.2l-0.3,-0.4l-0.1,-0.4l0,-0.5l3,-18.3l2.7,-19l0.1,-0.5l0.3,-0.3l0.4,-0.3l0.5,-0.1l0.4,0.1z" />
        <path d="m888.89,520.66l0.8,0.23l0.48,0.69l0.32,2l1.2,3.76l0.96,2.3l0.8,1.54l1.36,2.15l1.44,1.77l1.52,1.23l1.52,0.77l2.41,0l1.84,-0.61l2.08,-1.31l1.44,-1.15l1.28,-1.38c6.64,-8.35 5.03,-19.48 -0.3,-19.25c-5.32,0.22 -11.27,11.65 -3.78,18.1c7.48,6.45 17.96,7.01 19.73,0.61c1.76,-6.4 -5.53,-5.43 -4.49,-8.45c1.04,-3.02 8.32,1.64 6.74,7.91c-1.58,6.27 -7,8.39 -10.26,7.91c-3.26,-0.48 -5.85,0.74 -14.19,-7.75c-8.34,-8.5 -1.88,-18.8 5.36,-20.49c7.24,-1.69 13.71,7.23 4.58,21.03l-1.84,2.15l-5.13,4.15l-2.49,0.84l-3.29,0l-0.48,-0.08l-1.92,-0.92l-2,-1.61l-1.76,-2.07l-1.52,-2.38l-0.88,-1.69l-0.96,-2.46l-1.28,-3.99l-0.48,-2.15l0.16,-0.77l0.64,-0.54l0.4,-0.08l-0.01,-0.01z" />
       </g>
      </g>
    
      <g id="purple_baby" >
        <use href="#purple_baby_matte" fill="purple"  opacity="0.2" />
        <path d="m261.39,548.4c-9.59,-4.54 -18.87,-11.87 -15.73,-28.52l5.9,-105.28c-0.52,-16.87 -15.32,-62.94 9.63,-94.41l53.73,-29.5c-19.25,28.47 -34.47,46.69 -35.4,97.52c-2.8,44.41 -9.63,89.75 -8.39,133.23c3.62,11.9 9.42,22.26 31.37,28.26l-41.1,-1.29l-0.01,-0.01z" 
          fill="#000"  opacity="0.2" />
       <g>
        <path d="m303.3,307.7l-0.7,-0.8l-0.4,-1l0,-1l0.3,-1.1l1.1,-2l2.5,-3.5l4.9,-5.7l4.4,-4.5l3.5,-3.2l3.9,-3.1l4.5,-3.2l4.5,-2.8l2.4,-1.3l2.3,-1.1l2.5,-1l2.6,-0.8l2.3,-0.6l2.5,-0.3l2.6,-0.1l2.4,0.2l2.4,0.6l2.4,1l2.2,1.3l2.2,1.7l2,2.1l1.8,2.3l1.7,2.6l1.6,3l1.4,3.2l1.4,3.5l1.3,3.8l1.2,3.9l1.1,4.3l2,8.8l1.7,9.6l1.2,8.9l0.5,4.6l0.6,8.2l0.4,7.1l0.2,10.1l-0.1,6.1l-0.3,1l-0.5,0.9l-0.9,0.7l-1,0.3l-1,-0.1l-1,-0.4l-0.8,-0.7l-0.5,-0.9l-0.1,-1.1l0.1,-5.8l-0.2,-9.9l-0.4,-6.9l-0.6,-8.1l-0.5,-4.4l-1.2,-8.7l-1.6,-9.3l-1.9,-8.5l-1.1,-4.1l-1.1,-3.7l-1.2,-3.6l-1.3,-3.3l-1.3,-2.8l-1.4,-2.7l-1.5,-2.2l-1.4,-1.8l-1.5,-1.6l-1.6,-1.2l-1.4,-0.8l-1.6,-0.6l-1.6,-0.4l-1.6,-0.1l-1.8,0.1l-1.9,0.3l-1.7,0.4l-2.1,0.7l-2.2,0.9l-2,0.9l-4.3,2.4l-4.1,2.8l-3.8,2.8l-5.1,4.6l-4.1,4.1l-4.6,5.4l-2.2,3.1l-0.8,1.5l-0.6,0.8l-0.9,0.6l-1.1,0.2l-1,-0.1l-1,-0.5z" />
        <path d="m297.7,380.7l-0.2,1l-0.5,1l-0.8,0.6l-1,0.4l-1.7,0.3l-1.1,0l-1,-0.4l-0.9,-0.8l-0.4,-1l-0.1,-1.1l0.3,-1.1l0.7,-0.9l0.9,-0.6l2.3,-0.8l16.5,-3.9l14.4,-2.6l12.6,-1.7l9.4,-0.9l8.8,-0.5l9.8,0l4,0.1l5.6,0.6l3.6,0.8l1,0.4l0.7,0.7l0.5,1l0.1,1l-0.3,1.1l-0.5,0.8l-0.9,0.7l-1,0.3l-1.1,-0.1l-3.1,-0.6l-5.1,-0.6l-10.5,-0.1l-8.2,0.3l-12.1,1.1l-12.4,1.7l-14,2.5l-16.1,3.8l-1.6,-5.5l0.9,0l1,0.4l0.8,0.6l0.5,1l0.2,1z" />
        <path d="m289.8,374.1l0.6,0l0.5,0.2l0.5,0.3l0.3,0.5l0.8,2.2l1.2,4.2l1.2,4.8l0,0.6l-0.1,0.5l-0.4,0.5l-0.5,0.3l-0.5,0.1l-0.6,0l-0.5,-0.3l-0.4,-0.4l-0.2,-0.6l-0.9,-3.6l-1.4,-5.1l-0.8,-2l-0.1,-0.6l0.1,-0.5l0.3,-0.5l0.4,-0.4l0.5,-0.2z" />
        <path d="m381.2,371.6l1.1,0.3l0.9,0.7l0.7,0.9l0.2,1.1l0.4,7.7l0.9,48.9l0.9,48.1l0,14.7l-0.2,1.1l-0.5,1l-0.9,0.7l-1.1,0.4l-1.1,0l-1.1,-0.4l-0.8,-0.7l-0.6,-1l-0.2,-1.1l-0.1,-14.6l-0.8,-48l-0.9,-48.9l-0.4,-7.5l0.1,-1.1l0.5,-1l0.8,-0.8l1.1,-0.5l1.1,0z" />
        <path d="m379,496.4l0,-1.1l0.4,-1l0.7,-0.8l0.9,-0.5l1.2,-0.3l1.2,-0.2l1.1,0.3l0.9,0.7l0.6,1l0.2,1.2l0,1.2l-0.3,1.2l-0.8,1l-1.2,1l-2.8,1.9l-2,1.1l-3.6,1.6l-2.1,0.7l-1.5,0.5l-1.1,0.1l-1,-0.3l-0.9,-0.6l-0.6,-0.9l-0.3,-1l0.1,-1l0.5,-1l0.7,-0.7l0.9,-0.5l3.1,-1l3.1,-1.4l2.7,-1.6l0.7,2.1l-0.5,-0.7l-0.3,-1z" />
        <path d="m373.9,500l1,0.4l0.8,0.7l0.5,1l0.1,1l0,1.3l0.7,6.3l0.2,5.8l-0.1,3.8l-0.4,3.1l-0.9,4l-1,3.1l-1,2.3l-0.7,1.4l-0.9,1.5l-1.6,2.2l-2.2,2.5l-1.2,1.2l-2,1.8l-1.4,1.1l-2.4,1.7l-4,2.5l-3.6,1.9l-0.6,0.2l-1,0.2l-1,-0.1l-1,-0.5l-0.7,-0.8l-0.4,-0.9l-0.1,-1.1l0.3,-1l0.7,-0.8l0.9,-0.6l3.5,-1.8l3.6,-2.3l2.2,-1.5l1.1,-0.9l1.8,-1.6l1.9,-2l2.1,-2.9l1.2,-2.1l0.8,-1.9l0.8,-2.5l0.8,-3.4l0.2,-1.2l0.2,-4.6l-0.2,-5.3l-0.7,-6.4l0,-1.9l0.2,-1l0.6,-0.9l0.8,-0.7l1.1,-0.3l1,0z" />
        <path d="m271.5,521.3l0.5,0.1l0.5,0.2l0.3,0.4l0.3,0.5l0.3,1.5l1.2,3.3l0.8,1.9l1.2,2.2l1.9,3.1l1.3,1.7l2.2,2.2l1.9,1.6l1.8,1.2l2.3,1.3l3.4,1.5l1.4,0.4l2.5,0.6l4.3,0.8l4.8,0.4l0.4,0.3l0.4,0.4l0.1,0.5l0,0.5l-0.1,0.5l-0.4,0.4l-0.4,0.3l-0.6,0.1l-4.6,-0.4l-4.5,-0.8l-2.7,-0.6l-1.6,-0.5l-3.7,-1.6l-2.6,-1.5l-2,-1.4l-2.1,-1.7l-2.4,-2.4l-1.5,-2l-2.2,-3.4l-1.2,-2.3l-0.9,-2.1l-1.3,-3.6l-0.4,-1.7l0,-0.5l0.1,-0.5l0.3,-0.4l0.5,-0.3l0.5,-0.2z" />
        <path d="m306.6,304.6l0.2,0.5l0,0.5l-0.1,0.5l-0.4,0.4l-1.1,1l-3.4,4.7l-4.3,6.8l-3.2,5.8l-2.3,4.7l-2.1,5.3l-1.9,5.7l-1.5,6.2l-1.3,5.8l-1.5,9.1l-0.9,7.6l-0.2,0.5l-0.3,0.5l-0.4,0.3l-0.5,0.1l-0.5,0l-0.5,-0.2l-0.4,-0.4l-0.2,-0.5l-0.1,-0.5l0.9,-7.8l1.6,-9.2l1.3,-5.9l1.6,-6.4l2,-5.9l2.1,-5.5l2.4,-4.9l3.3,-6l4.4,-6.9l3.6,-5l1.4,-1.3l0.5,-0.3l0.5,-0.1l0.5,0.1l0.5,0.3l0.3,0.4z" />
        <path d="m277.4,427.1l0.4,0.3l0.3,0.5l0.2,0.6l-0.1,0.6l-0.6,1.7l-2.9,24.9l-1.3,18.3l-0.5,12.5l-0.2,26.4l0.2,7.8l-0.1,0.6l-0.3,0.5l-0.4,0.4l-0.6,0.2l-0.5,0l-0.6,-0.1l-0.4,-0.4l-0.4,-0.5l-0.1,-0.6l-0.1,-7.9l0.1,-26.5l0.5,-12.6l1.4,-18.4l3,-25.3l0.6,-2l0.3,-0.6l0.4,-0.3l0.5,-0.3l0.6,0l0.6,0.2z" />
        <path d="m258,319.8l0.4,-0.8l0.6,-0.7l0.8,-0.4l0.9,-0.1l0.8,0l3.1,-1.3l27.2,-14.2l6.4,-3.6l7,-4.4l7.2,-4.9l0.8,-0.4l0.9,-0.1l0.9,0.2l0.8,0.5l0.5,0.7l0.3,0.9l-0.1,0.9l-0.3,0.9l-0.7,0.7l-7.4,5l-7.1,4.5l-6.6,3.7l-27.5,14.4l-4,1.7l-1.1,0.1l-1.3,0l-0.9,-0.2l-0.8,-0.5l-0.6,-0.8l-0.2,-0.8l0,-1z" />
        <path d="m265.1,318.7l0.4,1l0,1l-0.4,1l-0.7,0.8l-1.2,0.9l-1,1.3l-2.2,3.1l-2.3,4.3l-1.9,4.3l-1.9,5.6l-0.5,2l-1.6,7.8l-0.8,5.9l-0.5,6.2l-0.2,6.6l0,7.1l0.1,3.6l0.5,7.3l1.2,12.2l1.8,12.3l0,1.1l-0.4,1l-0.7,0.8l-0.9,0.6l-1,0.1l-1.1,-0.1l-0.9,-0.6l-0.7,-0.8l-0.3,-1l-1.8,-12.7l-1.2,-12.4l-0.6,-7.5l-0.1,-3.7l0,-7.4l0.2,-6.9l0.6,-6.5l0.8,-6.1l1.6,-8.2l0.6,-2.4l1.4,-4.2l2.1,-5.3l2,-4l1.3,-2.1l2.5,-3.7l1.4,-1.7l1.9,-1.6l0.9,-0.5l1,-0.1l1.1,0.2l0.9,0.5l0.6,0.9z" />
        <path d="m251.6,412.1l1,0.3l0.9,0.6l0.6,0.9l0.2,1l0.4,6l-0.4,25.6l-0.4,12.7l-1.3,24.1l-1.1,13.4l-2.9,26.9l-0.3,1l-0.6,0.8l-0.9,0.6l-1.1,0.2l-1,-0.1l-1,-0.5l-0.7,-0.8l-0.4,-0.9l0,-1.1l2.8,-26.7l1.1,-13.2l1.3,-24l0.4,-12.6l0.3,-25.3l-0.3,-5.6l0.1,-1.1l0.5,-0.9l0.7,-0.8l1,-0.4l1.1,-0.1z" />
        <path d="m288.1,409.4l0.4,0.3l0.1,0.6l-0.3,2.3l-0.7,9.1l-0.6,11.2l-0.3,10.8l0.2,11.3l0.4,9.3l0.7,8.8l0.7,8l0.7,6.8l1.2,9.5l0.8,5.6l-0.1,0.5l-0.4,0.3l-0.3,0.1l-0.5,-0.2l-0.2,-0.5l-0.8,-5.6l-1.2,-9.6l-0.7,-6.8l-0.8,-8l-0.6,-8.8l-0.5,-9.4l-0.1,-11.3l0.3,-10.9l0.5,-11.2l0.8,-9.2l0.3,-2.4l0.2,-0.4l0.5,-0.2l0.3,0z" />
        <path d="m290.31,501.02l0.51,-0.22l0.41,0.33l1.52,1.54l1.52,0.77l3.86,1.43l2.94,0.77l7.61,0.99l9.95,0.44l5.99,-0.11l8.53,-0.44l12.18,-1.21l8.53,-0.99l11.07,-1.54l3.86,-0.55l0.51,0.11l0.3,0.44l0,0.22l-0.2,0.55l-0.41,0.33l-3.86,0.55l-11.07,1.54l-8.63,0.99l-12.18,1.21l-8.63,0.55l-8.83,0l-9.54,-0.66l-5.38,-0.77l-3.15,-0.77l-3.96,-1.54l-1.83,-0.88l-1.73,-1.87l-0.3,-0.44l0.2,-0.55l0.2,-0.22l0.01,0z" />
        <path d="m249.6,517.3l0.6,0.8l0.3,1l-0.1,1.1l-0.4,1l-0.6,0.9l-0.4,1.2l-0.3,1.6l-0.1,1.9l0.2,2.9l0.3,1.4l1.1,3.1l0.7,1.4l0.9,1.4l1.1,1.2l1.2,1.1l1.4,1l2.4,1.2l2.7,1l1.8,0.5l1,0.2l1.1,0.3l0.8,0.7l0.5,0.9l0.2,1l-0.1,1.1l-0.5,0.9l-0.8,0.7l-1,0.4l-1.1,0l-1.2,-0.2l-2.4,-0.6l-3.4,-1.3l-3,-1.5l-2.1,-1.5l-1.8,-1.5l-1.5,-1.8l-1.3,-1.9l-1.1,-2l-0.8,-2.1l-0.7,-2l-0.4,-2.1l-0.2,-2l-0.1,-1.9l0.2,-2.5l0.3,-2.2l0.7,-2.2l0.3,-0.8l0.9,-1.3l0.8,-0.8l0.9,-0.5l1.1,-0.1l1,0.3l0.9,0.6z" />
        <path d="m294.4,302.5l-0.1,0.5l-0.4,0.3l-1.1,0.4l-1,0.6l-1.8,1.4l-1.4,1.4l-2.5,2.8l-2.9,3.9l-2.1,3.2l-2.2,3.9l-2.3,4.3l-2.2,4.9l-2.1,5.6l-1.8,5.4l-1.6,5.9l-1.4,5.8l-0.9,5.6l-0.6,5.2l-0.4,5l0,4.2l0.1,3.6l0.5,4.8l0.4,2.7l-0.1,0.2l-0.4,0.4l-0.3,0l-0.4,-0.1l-0.3,-0.5l-0.5,-2.5l-0.4,-5l-0.1,-3.5l0,-4.3l0.3,-5.1l0.7,-5.3l0.9,-5.6l1.4,-5.9l1.6,-6l1.8,-5.5l2.2,-5.7l2.2,-4.9l2.3,-4.5l2.3,-3.9l2.1,-3.3l3,-4l2.6,-2.9l1.5,-1.4l1.8,-1.5l1.2,-0.8l1.4,-0.4l0.5,0l0.4,0.3l0.1,0.3z" />
        <path d="m259.8,389.5l0.2,-0.5l0.5,-0.2l1.3,-0.1l4.1,-0.8l1.4,-0.1l0.3,0l0.3,0.1l0.2,0.2l0.1,0.3l-0.3,1.5l-0.1,0.4l-0.3,0.2l-7.3,2.3l-0.5,-0.5l5.7,-0.2l1.5,0l0.2,0.1l0.4,0.3l0.1,0.5l-0.8,1.4l-0.4,0.3l-0.4,0l-0.5,-0.2l-0.1,-0.2l-0.1,-0.2l0.1,-0.5l-4.4,0.2l-1.4,0l-1.5,-0.4l-0.4,-0.3l-0.1,-0.5l0,-0.3l0.4,-0.3l1.2,-0.5l6.1,-1.9l-3.3,0.6l-1.4,0.1l-0.5,-0.1l-0.3,-0.5l0,-0.2z" />
        <path d="m262,405.9l0.5,0.2l0.1,0.5l-0.4,10.9l-0.2,12.1l-0.2,5.9l-0.2,6.4l-0.4,11l-0.5,12l-0.2,0.5l-0.5,0.3l-0.2,0l-0.5,-0.3l-0.1,-0.5l0.5,-12.1l0.4,-11l0.2,-6.3l0.1,-5.9l0.3,-12.1l0.4,-10.9l0.2,-0.5l0.5,-0.3l0.2,0.1z" />
        <path d="m254.2,467.3l0.2,-0.5l0.3,-0.5l0.4,-0.3l0.5,-0.1l1.2,-0.1l1.3,-0.3l3.1,-1.2l1.5,-0.7l0.6,-0.2l0.5,0.1l0.5,0.2l0.4,0.3l0.2,0.5l0.1,0.5l-0.2,0.6l-0.3,0.4l-0.4,0.3l-1.7,0.8l-3.4,1.3l-1.6,0.4l-1.5,0.2l-0.6,-0.1l-0.4,-0.2l-0.4,-0.4l-0.2,-0.5l-0.1,-0.5z" />
        <path d="m267.4,550.6l0.2,-0.5l0.4,-0.3l0.5,-0.2l0.5,0l1.4,0.2l24.1,0l12.5,0.4l0.5,0.1l0.5,0.3l0.3,0.4l0.1,0.5l0,0.5l-0.2,0.5l-0.3,0.4l-0.5,0.3l-0.5,0l-12.5,-0.3l-24.3,-0.1l-1.5,-0.2l-0.5,-0.2l-0.4,-0.3l-0.3,-0.4l-0.1,-0.6l0.1,-0.5z" />
        <path d="m267.11,547.4l-0.3,0.4l-0.5,0.4l-0.5,0.1l-0.5,0l-1.4,-0.4l-0.5,-0.2l-0.4,-0.4l-0.2,-0.5l0,-0.6l0.2,-0.5l0.4,-0.4l0.5,-0.3l0.5,-0.1l2.7,0.3l16.6,0.8l8.7,-0.1l0.5,0.1l0.5,0.2l0.4,0.4l0.2,0.5l0,0.5l-0.2,0.5l-0.3,0.5l-0.5,0.2l-0.5,0.2l-2.9,0l-9.7,-0.1l-14.3,-0.8l1.2,-2.3l0.1,0.1l0.2,0.5l0.1,0.5l-0.1,0.5z"  />
        <path d="m248.77,540.8l0.2,-0.5l0.4,-0.3l0.4,-0.2l0.6,-0.1l4.4,0.2l22.5,0.3l6.3,0.1l0.5,0.1l0.4,0.2l0.4,0.4l0.2,0.5l-0.1,0.6l-0.1,0.5l-0.4,0.4l-0.4,0.2l-0.6,0.1l-6.2,0l-22.6,-0.3l-4.6,-0.2l-0.5,-0.2l-0.5,-0.3l-0.3,-0.4l-0.1,-0.5l0.1,-0.6z" />
        <path d="m243.7,529.4l0.1,-0.5l0.3,-0.4l0.5,-0.3l0.5,-0.2l1.5,-0.1l23,-1.1l2.6,-0.1l0.5,0.1l0.5,0.2l0.3,0.4l0.2,0.5l0.1,0.5l-0.2,0.5l-0.3,0.4l-0.4,0.3l-0.6,0.2l-2.6,0.1l-23,1l-1.3,0.2l-0.5,-0.1l-0.5,-0.2l-0.4,-0.4l-0.2,-0.4l-0.1,-0.6z" />
        <path d="m244.67,516.8l0.09,-0.5l0.27,-0.5l0.46,-0.3l0.46,-0.1l20.62,-2.2l2.37,-0.2l0.46,0.1l0.46,0.2l0.27,0.4l0.27,0.5l0,0.5l-0.09,0.5l-0.27,0.4l-0.46,0.3l-0.46,0.2l-2.28,0.2l-20.71,2.1l-0.46,0l-0.46,-0.2l-0.36,-0.4l-0.18,-0.5l0,-0.5z" />
        <path d="m375.4,518.7l1,0.3l0.6,0.9l0.4,2.6l1.5,4.9l1.2,3l1,2l1.7,2.8l1.8,2.3l1.9,1.6l1.9,1l3,0l2.3,-0.8l2.6,-1.7l1.8,-1.5l1.6,-1.8l1.6,-2.1l1.4,-2.3l1.1,-2.3l0.9,-2.6l0.5,-2.3l0.2,-2.2l-0.4,-2.6l-0.8,-1.3l-1.7,-0.5l-1.9,0.6l-2.4,1.9l-1.6,1.7l-1.4,2.1l-1.1,2.1l-0.6,2l-0.3,2.5l0.7,2.2l1.4,1.4l1,0.1l1,0.5l0.4,1l-0.1,0.5l-0.6,0.8l-0.5,0.2l-2.1,-0.1l-1,-0.5l-1.9,-2l-0.3,-0.5l-1,-2.9l-0.1,-0.7l0.3,-3l0.9,-2.6l1.2,-2.5l1.7,-2.4l1.8,-2l2.9,-2.3l3.1,-1.2l0.9,0l2.8,0.9l0.9,0.6l1.2,2.1l0.2,0.6l0.4,3.1l-0.2,2.7l-0.6,2.7l-0.9,3l-1.3,2.6l-1.5,2.5l-1.8,2.4l-1.9,2l-1.9,1.8l-3.1,2l-3.1,1.1l-4.1,0l-0.6,-0.1l-2.4,-1.2l-2.5,-2.1l-2.2,-2.7l-1.9,-3.1l-1.1,-2.2l-1.2,-3.2l-1.6,-5.2l-0.6,-2.8l0.2,-1l0.8,-0.7l0.5,-0.1z" />
        <path d="m214.9,361.2l-0.4,-0.3l-0.4,-0.4l-0.1,-0.5l0.4,-3l0.5,-2.2l1.1,-2.7l1.3,-2.4l1.8,-2.4l1.6,-1.6l1.9,-1.7l2.1,-1.5l2.4,-1.4l2.4,-1.1l2.5,-0.8l2.5,-0.4l2.5,-0.1l2.4,0.3l3.2,1l2.7,1.5l2,1.9l1.4,2.1l0.8,2.5l0.1,0.8l-0.5,1.8l-0.4,0.4l-0.5,0.2l-0.5,0.1l-0.5,-0.1l-0.4,-0.3l-0.4,-0.4l-0.1,-0.5l0.2,-1.4l-0.7,-1.9l-0.9,-1.4l-1.5,-1.4l-2.2,-1.2l-2.6,-0.8l-1.8,-0.2l-2.1,0.1l-2,0.4l-2.2,0.7l-2.1,0.9l-2.1,1.3l-1.9,1.4l-1.6,1.4l-1.4,1.5l-1.6,2.1l-1.1,1.9l-0.9,2.4l-1,4.7l-0.4,0.4l-0.4,0.3l-0.5,0.1l-0.6,-0.1z" />
       </g>
      </g>
    
      <g id="green_baby" >
        <use href="#green_baby_matte" fill="green" opacity="0.2" />
        <path d="m128.67,554.13l-8.6,-13.38l-20.06,-110.34c-10.55,-28.94 -20.17,-66.04 -1.57,-101.88l71.79,-38.56c-21.11,11.49 -40.02,58.62 -30.72,107.52c18.7,50.78 34.27,93.73 40.75,139.5l7.52,15.67l-59.11,1.47z" 
          fill="000" opacity="0.2" />
       <g>
        <path d="m99.7,333.3l0,0l-3.2,6.7l-1.9,4.9l-0.8,2.2l-1.9,7l-1.6,7.8l-0.7,6.4l-0.1,3.3l0.1,6.2l0.3,3.8l0.9,6.6l1.4,7.9l1.5,6.3l2,6.4l1.9,5.6l1.8,4.5l2.6,5.9l1.4,2.7l0.4,1l-0.1,1.1l-0.4,1l-0.7,0.8l-0.9,0.5l-1,0.1l-1.1,-0.2l-0.9,-0.6l-0.6,-0.8l-1.5,-2.8l-2.9,-6.4l-1.8,-4.7l-2,-5.7l-2.1,-6.7l-0.7,-2.7l-1.7,-8.1l-0.7,-4.1l-0.9,-6.9l-0.3,-4.1l-0.1,-6.5l0.1,-3.8l0.3,-3.5l0.9,-5.6l1.3,-6.1l2,-7.4l0.8,-2.4l2,-5.2l2.7,-5.8l2.1,-3.7l0.5,-0.7l1.2,-1.1l0.9,-0.5l1,-0.3l1,0.1l0.9,0.4l0.8,0.7l0.4,1l0.2,1l-0.1,1.6l-0.2,1l-0.6,0.9l-0.8,0.6l-1.1,0.4z" />
        <path d="m101.2,429l1.1,0.1l1,0.4l0.8,0.7l0.5,1l1.7,6.3l3.7,18.3l8.4,47.1l5.4,35.1l-0.1,1l-0.4,1l-0.7,0.8l-0.9,0.5l-1.1,0.1l-1,-0.2l-0.9,-0.6l-0.7,-0.9l-0.3,-1l-5.3,-34.8l-8.4,-47l-3.6,-18l-1.7,-5.9l-0.1,-1.1l0.2,-1l0.6,-0.9l0.8,-0.7l1,-0.3z" />
        <path d="m102.6,431l-0.2,0.5l-0.4,0.2l-1.9,0.3l-0.5,-0.3l-0.1,-0.5l0,-0.2l0.4,-0.4l8.3,-3.7l3.5,-1.2l1.7,-0.4l0.3,-0.1l0.3,0.2l0.2,0.2l0.1,0.3l-0.3,1.8l-0.4,0.5l-5.9,3.6l-4.8,2.1l-1.5,0.6l1.1,-1.9l5.4,-1.5l4.2,-0.8l2.3,-0.2l2.4,0.2l1.8,0.6l0.3,0.3l0.3,0.4l0,0.5l-0.2,0.2l-0.2,0.2l-0.5,0l-0.5,-0.3l-1.3,-0.4l-2.2,-0.1l-2,0.1l-1.7,0.3l-6.1,1.5l-3.2,0.9l-0.5,0l-0.4,-0.4l0,-0.5l0.2,-0.4l6.4,-2.8l4.2,-2.5l1.3,-0.9l-3.8,1.3l-6.7,2.9l-2.5,-0.2l0.6,-0.5l1.6,-0.3l0.5,0.1l0.4,0.4l0,0.3z" />
        <path d="m98.9,328.3l-0.2,-1.1l0.2,-1l0.5,-0.9l0.9,-0.7l41.8,-24.5l26.7,-15.6l1,-0.4l1,0l1,0.3l0.9,0.7l0.5,0.9l0.2,1l-0.1,1.1l-0.6,0.9l-0.8,0.7l-26.8,15.7l-41.9,24.5l-1,0.4l-1,0l-1,-0.4l-0.8,-0.7l-0.5,-0.9z" />
        <path d="m153.9,306.1l0.3,0.4l0.2,0.5l-0.1,0.5l-0.2,0.5l-0.8,1.3l-3.9,7.6l-3.2,7.5l-1.9,5.6l-0.8,2.3l-1.6,7.2l-1.3,7.7l-0.5,5.9l-0.1,5.2l0.3,8.3l0.8,8.1l-0.2,0.5l-0.4,0.4l-0.5,0.3l-0.5,0l-0.5,-0.1l-0.5,-0.2l-0.3,-0.5l-0.2,-0.5l-0.8,-7.8l-0.2,-8.5l0.1,-5.3l0.5,-6.2l1.3,-7.9l1.7,-7.4l0.7,-2.5l2.1,-5.7l3.2,-7.6l4,-8l1,-1.4l0.4,-0.4l0.4,-0.2l0.6,-0.1l0.5,0.2l0.4,0.3z" />
        <path d="m176.1,477.9l0.2,-0.5l0.4,-0.3l1.3,-0.3l1.4,-0.5l2.5,-1.2l0.2,-0.1l0.5,0.3l0.1,0.2l0,0.5l-0.3,0.5l-0.8,0.5l-1.5,0.7l-1.7,0.6l-1.4,0.3l-0.5,-0.1l-0.3,-0.4l-0.1,-0.2z" />
        <path d="m176.3,478.2l0.5,0l0.4,0.4l0.5,1.1l4,6.1l1,1.8l1.3,2.8l-0.1,0.5l-0.3,0.4l-0.2,0.1l-0.6,-0.1l-0.2,-0.2l-1.3,-2.8l-0.9,-1.7l-4,-6.1l-0.6,-1.2l0,-0.6l0.3,-0.4l0.2,-0.1z" />
        <path d="m182.7,491.1l0.1,-0.5l0.4,-0.3l1.2,-0.3l1,-0.4l2.9,-1.6l0.3,0l0.4,0.3l0.2,0.2l0,0.5l-0.3,0.4l-2.8,1.6l-1.2,0.5l-1.3,0.3l-0.5,-0.1l-0.4,-0.4l0,-0.2z" />
        <path d="m163.5,393.2l-0.2,1l-0.6,0.9l-0.9,0.6l-1,0.3l-1.6,0.2l-1,-0.1l-1,-0.4l-0.7,-0.6l-0.5,-0.9l-0.2,-1l0.2,-1l0.4,-0.9l0.8,-0.7l2,-1.3l5.3,-2.1l10.3,-3.3l12.1,-2.9l12.9,-2.6l25.9,-3.7l1.1,0l1,0.4l0.7,0.8l0.5,0.9l0.2,1.1l-0.3,1l-0.5,0.9l-0.9,0.6l-1,0.4l-25.6,3.7l-12.7,2.4l-11.8,3l-9.8,3.1l-4.7,1.8l-2.4,-4.8l0.6,-0.1l1.1,0.1l1,0.4l0.8,0.8l0.4,0.9l0.1,1.1z" />
        <path d="m88.98,401.1l-0.74,-0.8l0,-1.1l0.64,-1.5l-0.85,-0.9l-2.23,-0.8l-2.44,-0.5l-2.34,-0.2l-2.34,0.1l-2.55,0.5l-3.18,1l-3.18,1.6l-4.67,3l-2.65,2l-2.23,2l-3.5,3.7l-2.44,3l-2.23,3l-3.4,5.8l-1.17,2.5l-1.06,2.9l-0.53,3.5l0,2.5l0.85,2.9l1.06,1.9l2.34,2.6l4.35,3.5l15.18,9.4l2.44,1.6l3.61,2.9l4.56,4.2l2.12,2.4l2.44,3.5l1.49,2.7l1.59,3.6l0.74,2.8l0.74,5.6l0,5.7l-3.71,23.9l-0.21,3.1l0.11,3.8l0.32,2.6l0.85,2.9l2.12,3.1l2.23,1.4l2.97,1l2.87,0.1l3.08,-0.7l2.34,-0.9l2.97,-1.7l2.76,-2.2l2.76,-2.7l2.65,-3.1l0.42,-0.2l1.17,0l0.42,0.3l0.32,0.4l0.11,1.1l-0.96,1.5l-1.7,2l-2.87,2.9l-3.18,2.4l-3.4,1.9l-2.76,1.1l-3.61,0.9l-3.71,-0.1l-3.93,-1.2l-3.08,-1.9l-2.87,-3.9l-1.17,-3.7l-0.42,-3l-0.11,-4.1l0.32,-3.3l3.61,-24l0.11,-5.3l-0.74,-5.1l-0.74,-2.5l-1.38,-3.3l-1.38,-2.4l-2.23,-3.2l-1.91,-2.2l-4.25,-4l-5.84,-4.3l-9.98,-6l-5.2,-3.4l-4.78,-3.7l-2.65,-2.9l-1.38,-2.5l-1.06,-3.7l-0.11,-3l0.64,-4.1l1.17,-3.3l1.27,-2.8l1.8,-3.3l1.8,-2.8l2.34,-3.2l2.65,-3.1l3.61,-3.8l2.34,-2.2l2.76,-2.2l5.09,-3.2l3.5,-1.8l3.61,-1.2l2.97,-0.5l2.87,-0.1l2.65,0.2l2.87,0.5l2.97,1.1l0.64,0.4l1.8,1.9l0.42,0.8l-0.11,0.8l-0.96,2.3l-0.74,0.8l-1.06,0.2l-0.53,-0.2l0.02,0z"  />
        <path d="m87.82,397.69l-0.2,1l-0.9,0.6l-2,0.6l-1.7,1.4l-3.42,3.21l-1.4,2.4l-2.1,5.3l-1,3l-0.8,3.5l-0.5,3.9l-0.1,3.1l0.1,3.1l0.4,2.7l0.8,3.3l0.9,2.8l1.4,3.2l2.4,4.3l3,4l11.5,13.1l1.5,2l1.7,2.3l1.3,2.5l1.3,3.4l0.6,2.7l0.2,2.5l0,4.1l-1.3,15.6l0,3l0.6,3.2l1,1.8l1.6,1.7l2.4,1.3l2.5,1l3,1l3.5,0.8l0.4,0.3l0.4,1l-0.1,0.5l-0.3,0.5l-0.9,0.5l-1.2,-0.1l-2.5,-0.6l-3.2,-1l-2.9,-1.1l-2.7,-1.6l-2.4,-2.2l-1.4,-2.6l-0.9,-4l0,-3.5l1.3,-15.6l0,-3.9l-0.1,-2.2l-0.5,-2.4l-1.2,-2.9l-1.2,-2.1l-2.9,-4l-11.5,-13.1l-3.1,-4.2l-2.6,-4.5l-1.5,-3.6l-1,-3l-0.9,-3.6l-0.4,-2.9l-0.2,-3.4l0.2,-3.4l0.5,-4.1l0.9,-3.8l1,-3.3l1.1,-3.2l1.1,-2.4l1.6,-2.7l3.72,-3.51l2.3,-2.1l0.6,-0.3l2.3,-0.6l1,0.1l0.8,0.7l0.1,0.5z" />
        <path d="m116.9,511.8l0.8,0.7l0.2,1l-1.2,5l-3.1,9.3l-2.3,5.9l-2.9,6l-1.4,2.6l-1.8,2.9l-2.6,3.2l-2,2.1l-2.8,2.2l-3.6,1.6l-3,0.4l-2.6,-0.6l-0.7,-0.4l-2.4,-2.2l-1.6,-2.2l-1.9,-3.6l-4.4,-9.7l-1.4,-2.4l-1.4,-1.8l-1.9,-1.9l-1.8,-1l-2.1,-0.2l-1.8,0.8l-2.1,1.6l-3.6,3.8l-2.8,4l-1.2,2l-0.9,2.1l0,1.8l0.8,1.4l0.3,0.3l0.2,1l-0.1,0.5l-0.7,0.8l-0.6,0.1l-0.7,-0.1l-0.5,-0.3l-0.4,-0.5l-1.2,-2.2l-0.1,-0.7l0,-2.4l1,-3l1.4,-2.4l3.2,-4.3l3.8,-4.1l2.5,-1.9l2.7,-1.2l0.7,-0.1l2.8,0.2l0.6,0.2l2.3,1.2l2.5,2.4l1.6,2.2l1.5,2.6l4.6,9.9l1.8,3.4l1.2,1.8l1.9,1.6l1.9,0.4l1.9,-0.2l2.9,-1.4l2.2,-1.8l1.8,-1.9l2.3,-2.9l3,-5.1l2.8,-5.9l2.3,-5.6l3,-9.1l1.1,-4.8l0.5,-0.9l1,-0.3l0.5,0.1z" />
        <path d="m137.8,396.6l0.5,0l0.5,0.2l0.4,0.3l0.3,0.5l7.7,20.8l7.6,20l7,19l5.6,16l4.6,14.4l4,13.5l2.3,9.4l1,4.5l1.4,7.2l1,6.1l1,8.5l0.2,4.3l0,0.6l-0.3,0.5l-0.4,0.3l-0.5,0.2l-0.5,0.1l-0.5,-0.2l-0.4,-0.3l-0.3,-0.5l-0.1,-0.5l-0.3,-4.2l-1,-8.3l-0.9,-6.1l-1.4,-7.2l-0.9,-4.3l-2.4,-9.3l-3.9,-13.4l-4.6,-14.3l-5.6,-16l-7,-18.9l-7.5,-20l-7.8,-20.9l-0.1,-0.5l0.1,-0.5l0.3,-0.5l0.4,-0.3l0.5,-0.2z" />
        <path d="m227.6,374.3l1,0.1l0.9,0.4l0.7,0.8l0.5,0.9l1.5,6.3l4.3,25l3.8,24.5l1.8,14l2,20.3l0.9,10.7l-0.2,1l-0.4,0.9l-0.7,0.7l-1,0.4l-1,0l-0.9,-0.2l-0.8,-0.6l-0.6,-0.9l-0.2,-1l-0.9,-10.5l-2,-20.2l-1.8,-13.8l-3.7,-24.4l-4.3,-24.8l-1.5,-5.9l-0.1,-1.1l0.3,-0.9l0.6,-0.9l0.8,-0.5l1,-0.3z" />
        <path d="m245.4,479l-0.1,1.1l-0.3,1l-0.7,0.8l-1,0.5l-3,1.1l-5.7,3l-5.3,3.3l-1,0.4l-1.1,0.1l-1,-0.3l-0.8,-0.6l-0.6,-0.9l-0.3,-1l0.1,-1.1l0.5,-0.9l0.7,-0.8l0.6,-0.3l5.1,-3.2l6.4,-3.3l3.5,-1.3l1,-0.2l1.1,0.3l0.9,0.5l0.6,0.8l0.4,1z" />
        <path d="m227.9,488.8l1,0.1l1,0.5l0.7,0.8l0.5,0.9l2,8.3l1.4,8.6l0.6,5.9l0.2,6.5l-0.1,7.1l-0.5,5.8l-1.6,8.5l-1.7,6.9l-1.1,3.6l-0.5,0.9l-0.8,0.7l-1,0.4l-1,0.1l-1,-0.4l-0.9,-0.6l-0.5,-0.9l-0.3,-1l0.2,-1.1l2.1,-7.6l1.8,-8.5l0.4,-3.7l0.4,-5.6l-0.1,-8.4l-0.7,-7.9l-1.3,-8.2l-2,-7.9l0,-1.1l0.2,-1l0.7,-0.8l0.9,-0.6l1,-0.3z" />
        <path d="m159.4,418.7l0.5,0.2l0.4,0.4l2.6,8.4l3.5,9.8l3.5,9l2.7,6.3l3.6,8.2l2,4.3l3.8,7.8l3.5,7l5.4,10.7l4.4,8.2l0.1,0.5l-0.3,0.5l-0.2,0.1l-0.6,0l-0.3,-0.4l-4.4,-8.2l-5.5,-10.7l-3.4,-7l-3.8,-7.8l-2,-4.3l-3.7,-8.3l-2.7,-6.3l-3.6,-9l-3.5,-9.9l-2.6,-8.5l0,-0.5l0.4,-0.4l0.2,-0.1z" />
        <path d="m121.1,538l1,0.4l0.9,0.6l0.5,0.9l0.2,1.1l0.1,1.2l0.2,0.9l0.6,1.3l0.9,1.5l1.4,1.5l1.2,1.1l1.3,0.8l1.2,0.5l2.6,0.6l1.5,0.2l2.4,0.1l1.7,-0.1l1.1,0l1,0.4l0.8,0.7l0.5,0.9l0.2,1l-0.2,1.1l-0.6,0.9l-0.8,0.7l-1,0.3l-2.5,0.2l-3,-0.1l-2,-0.2l-3.4,-0.8l-2.1,-0.8l-2.2,-1.4l-1.8,-1.5l-2,-2.2l-1.6,-2.4l-0.9,-2.1l-0.5,-1.8l-0.1,-0.8l-0.1,-1.6l0.2,-1l0.5,-0.9l0.8,-0.7l1,-0.4l1,-0.1z" />
        <path d="m134.9,306.5l0.1,0.5l-0.3,0.5l-1.4,1l-2.5,2.5l-3.4,4.1l-2.3,3.1l-3.3,5.2l-1.3,2.3l-2.2,4.5l-2.4,5.9l-1.7,5.2l-1.7,6.6l-0.7,3.3l-0.8,5.7l-0.6,6.6l-0.2,3.1l0,5.1l0.1,4.3l0.5,5.8l0.5,3.3l-0.1,0.2l-0.4,0.4l-0.3,0l-0.5,-0.1l-0.3,-0.5l-0.4,-3.1l-0.5,-5.9l-0.1,-4.3l0,-5.2l0.2,-3.2l0.6,-6.7l0.8,-5.7l0.7,-3.5l1.7,-6.6l1.8,-5.3l2.5,-6l2.1,-4.6l1.3,-2.4l3.4,-5.3l2.4,-3.1l3.5,-4.3l2.6,-2.5l1.5,-1.1l0.5,-0.2l0.5,0.2l0.1,0.2z" />
        <path d="m111.4,385.1l0.5,0l0.3,0.4l3,6.6l3.6,8.6l3.1,8.1l2.5,7.1l3.5,10.7l3.1,11.2l3,11.8l2.4,11.7l1.9,11.6l-0.2,0.5l-0.4,0.3l-0.2,0.1l-0.5,-0.2l-0.3,-0.5l-1.8,-11.5l-2.4,-11.6l-1.9,-7.7l-2.2,-8.2l-3.3,-11.1l-3.4,-10.3l-4.3,-11.4l-3.6,-8.6l-2.9,-6.5l-0.1,-0.6l0.3,-0.4l0.3,-0.1z" />
        <path d="m131.1,474.5l0.1,-0.5l0.3,-0.4l0.4,-0.4l0.4,-0.2l5.3,-0.8l7.7,-0.5l0.5,0.1l0.4,0.2l0.4,0.4l0.2,0.5l0,0.5l-0.2,0.5l-0.3,0.4l-0.5,0.3l-0.5,0.1l-7.3,0.5l-5.1,0.8l-0.5,0l-0.5,-0.2l-0.4,-0.3l-0.3,-0.4l-0.1,-0.6z" />
        <path d="m193.8,498.8l0.3,-0.5l0.5,-0.1l1.4,0.1l1.3,-0.1l3,-0.6l6,-1.8l5.2,-1.9l5.9,-2.5l10.4,-5.1l2.5,-1.3l0.3,0l0.5,0.3l0.1,0.2l0,0.3l-0.2,0.5l-2.5,1.4l-10.5,5.1l-6,2.6l-5.3,1.9l-6.1,1.8l-3,0.6l-1.6,0.2l-1.5,-0.2l-0.5,-0.2l-0.2,-0.5l0,-0.2z" />
        <path d="m156.5,384l1,0.5l0.7,0.7l0.5,1l0,1l-0.1,1.6l0.2,2.1l0.3,1.4l0.5,1.6l0.8,1.7l1.6,2.7l0.2,1l-0.2,1l-0.6,0.9l-0.8,0.7l-1,0.3l-1.1,0l-1,-0.4l-0.8,-0.7l-0.3,-0.4l-1.2,-2l-1.2,-2.3l-0.8,-2.3l-0.5,-2.1l-0.2,-2.9l0.2,-2.4l0.2,-1.1l0.7,-0.8l0.8,-0.6l1.1,-0.3l1,0.1z" />
        <path d="m170.8,286.7l0.9,-0.6l1,-0.3l1,0l1,0.5l4.4,2.9l3.7,3l3.6,3.3l3.6,3.8l4.5,5.5l3.9,5.4l2.4,3.5l2.3,3.8l2.3,4l3.5,7.2l2,4.5l1.8,4.4l1.7,4.5l2.5,7.8l1.9,6.8l1.4,5.6l1.6,7.8l0.5,3.4l0,1.1l-0.4,0.9l-0.8,0.8l-0.9,0.5l-1.1,0.1l-1,-0.2l-0.9,-0.6l-0.6,-0.8l-0.3,-1l-0.5,-3.3l-1.5,-7.3l-1.4,-5.4l-1.8,-6.7l-2.5,-7.5l-1.6,-4.3l-1.8,-4.3l-1.9,-4.2l-3.4,-7l-2.1,-3.8l-2.2,-3.5l-2.2,-3.4l-3.7,-5.1l-4.3,-5.1l-3.4,-3.7l-3.2,-2.9l-3.4,-2.7l-4,-2.7l-0.8,-0.8l-0.5,-0.9l-0.1,-1.1l0.2,-1l0.6,-0.9z" />
        <path d="m180.8,534.3l0.9,0.5l0.7,0.8l0.4,1l0.1,1.1l-0.2,1.1l0.3,1.3l1.2,2.7l0.8,1.4l1.1,1.5l1.3,1.3l1.1,0.7l1.9,1.2l1.4,0.6l1,0.3l0.9,0.6l0.7,0.8l0.4,0.9l0,1.1l-0.3,1l-0.7,0.8l-0.9,0.6l-1.1,0.2l-1,-0.2l-1.2,-0.4l-1.9,-0.8l-2.5,-1.5l-1.6,-1.2l-1.9,-1.7l-1.7,-2.2l-1.2,-2.1l-0.9,-1.9l-0.7,-1.7l-0.6,-2.3l-0.1,-1.2l0.3,-1.9l0.4,-1l0.6,-0.8l0.9,-0.5l1.1,-0.3l1,0.2z" />
        <path d="m134.17,553.65l0.2,-0.5l0.4,-0.4l0.4,-0.2l0.6,-0.1l23.3,-0.3l23.7,-0.9l8,-0.3l0.5,0l0.5,0.3l0.3,0.4l0.2,0.5l0.1,0.5l-0.2,0.5l-0.3,0.4l-0.5,0.3l-0.5,0.1l-7.9,0.4l-23.8,0.8l-21.9,0.5l-1.8,-0.1l-0.5,-0.2l-0.4,-0.3l-0.3,-0.4l-0.2,-0.5l0.1,-0.5z" />
        <path d="m129.7,549.9l0.1,-0.5l0.3,-0.5l0.4,-0.3l0.5,-0.1l11.5,-1.4l19,-1.2l20.1,-0.7l0.5,0.1l0.5,0.3l0.3,0.4l0.2,0.5l0,0.5l-0.2,0.5l-0.3,0.4l-0.4,0.3l-0.6,0.1l-20,0.6l-18.8,1.3l-11.4,1.3l-0.5,0l-0.5,-0.2l-0.4,-0.4l-0.3,-0.5l0,-0.5z" />
        <path d="m123.8,544l0.1,-0.6l0.3,-0.4l0.4,-0.3l0.5,-0.2l22.7,-2.1l24.4,-1.5l6.6,-0.3l0.5,0l0.5,0.3l0.3,0.4l0.2,0.4l0.1,0.6l-0.2,0.5l-0.3,0.4l-0.5,0.3l-0.5,0.1l-6.5,0.4l-24.4,1.4l-22.5,2.1l-0.5,0l-0.5,-0.2l-0.4,-0.3l-0.2,-0.5l-0.1,-0.5z" />
        <path d="m122.2,535.6l0.1,-0.5l0.3,-0.5l0.4,-0.3l0.5,-0.2l14.7,-1.7l21.2,-1.7l17.9,-1.3l0.6,0.1l0.4,0.2l0.4,0.4l0.2,0.5l0.1,0.5l-0.2,0.5l-0.3,0.4l-0.4,0.3l-0.6,0.1l-17.9,1.3l-21.1,1.7l-14.6,1.7l-0.5,0l-0.5,-0.2l-0.4,-0.3l-0.3,-0.5l0,-0.5z" />
        <path d="m120.8,523.9l0.3,-0.4l0.4,-0.3l0.5,-0.1l0.5,0l1.6,0.4l3.4,0l22.2,-2l22.3,-1.9l1.6,-0.1l0.6,0l0.4,0.2l0.4,0.4l0.2,0.4l0.1,0.6l-0.2,0.4l-0.3,0.5l-0.4,0.3l-0.5,0.1l-1.6,0.2l-22.4,1.9l-22.2,1.9l-3.8,0l-2.1,-0.4l-0.4,-0.2l-0.4,-0.4l-0.2,-0.5l-0.1,-0.5l0.1,-0.5z" />
        <path d="m114.3,507.5l-0.2,-0.5l0,-0.5l0.2,-0.4l0.4,-0.4l1.2,-0.9l0.6,-0.3l14.2,-2.5l18.4,-2.7l14.8,-2.1l0.5,0l0.4,0.2l0.4,0.3l0.2,0.5l0.1,0.4l-0.1,0.5l-0.3,0.4l-0.3,0.3l-0.5,0.2l-14.8,2.1l-18.4,2.7l-13.7,2.4l-1,0.8l-0.5,0.2l-0.4,0l-0.5,-0.1l-0.4,-0.2l-0.3,-0.4z" />
       </g>
      </g>
    
      <g id="pink_baby" >
       <path id="pink_baby_throat_fill" d="m439.02,401.21l-14.58,-21.21l42.73,-17.58l2.83,23.13l-30.98,15.65l0,0.01z" />
       <use href="#pink_baby_matte" fill="pink" />
       <path d="m448.19,546.07l-14.02,-11.91c0.21,-12.01 1.97,-23.71 9.94,-36.96l-7.14,-2.17l-3.42,-34.47l-20.19,-48.14c17.08,-3.83 36.34,-12.63 56.83,-27.33l-5.59,-23.91c-17.6,10.56 -40.17,25.16 -61.18,18.63c-2.17,-42.96 -0.93,-110.77 47.52,-112.11c18.01,31.57 30.12,75.57 26.09,139.44c18.32,24.12 34.47,49.48 41.93,77.95l-0.62,22.98l42.86,-3.42l2.8,9.32l-22.36,35.4l-93.43,-3.31l-0.02,0.01z" 
        fill="#000" opacity="0.2" />
       <g>
        <path d="m401,378.9l0.7,-0.8l0.8,-0.5l1.1,-0.2l1,0.2l1,0.3l2.1,0.4l2.1,0.2l2.8,-0.1l3,-0.4l3.6,-0.5l5,-1.2l2.7,-0.8l8.3,-2.7l6.4,-2.4l5.6,-2.4l9,-4l8.2,-4.1l0.9,-0.3l1.1,0l0.9,0.4l0.8,0.7l0.5,0.9l0.1,1l-0.2,1l-0.6,0.9l-0.8,0.6l-1,0.6l-7.3,3.6l-9.2,4.2l-5.7,2.4l-6.7,2.5l-8.5,2.8l-3,0.8l-5.3,1.2l-3.9,0.7l-3.3,0.4l-3.4,0.1l-2.6,-0.2l-1.7,-0.2l-1.4,-0.3l-1.6,-0.6l-0.9,-0.5l-0.6,-0.8l-0.4,-1l0,-1l0.4,-0.9z" />
        <path d="m467.9,361.7l1.1,0.3l1,0.6l0.7,0.9l0.3,1.1l3.1,19.7l0,1.2l-0.4,1l-0.8,0.9l-1,0.5l-1.1,0.2l-1.1,-0.2l-1,-0.6l-0.7,-0.9l-0.4,-1.1l-3.1,-19.9l0,-1.2l0.5,-1l0.8,-0.8l1,-0.6l1.1,-0.1z" />
        <path d="m512.1,390.4l1.1,0l1,0.3l0.8,0.7l0.5,0.9l1.4,3.4l2.4,4.5l12.8,22.3l7.9,15.2l5.8,12.1l3.4,7.9l3.9,9.8l1.8,4.9l2.8,8.8l2.3,7.8l3.1,11.6l1.8,8.3l0,1l-0.3,1l-0.7,0.9l-0.9,0.5l-1,0.2l-1.1,-0.1l-0.9,-0.5l-0.7,-0.8l-0.4,-1l-1.7,-8.1l-3.1,-11.4l-2.2,-7.6l-2.8,-8.6l-1.7,-4.8l-3.8,-9.5l-3.4,-7.8l-5.7,-11.8l-7.8,-15.1l-12.7,-22.2l-2.5,-4.8l-1.7,-3.9l-0.2,-1l0.2,-1.1l0.5,-0.9l0.8,-0.7l1,-0.4z" />
        <path d="m518,293.97l1.1,0.2l0.9,0.5l0.7,0.71l0.4,1.01l2.1,10.59l2,14.12l1.7,17.85l0.5,10.89l0.2,8.17l-0.3,10.99l-0.8,10.39l-0.8,6.25l-1.6,9.58l-1.3,5.75l-0.6,2.12l-0.5,1.01l-0.8,0.71l-1,0.4l-1,0.1l-1,-0.3l-0.9,-0.61l-0.6,-0.91l-0.2,-1.11l0.1,-1.01l0.6,-2.02l1.2,-5.35l1.6,-9.28l0.8,-6.15l0.7,-9.88l0.3,-10.69l-0.2,-8.07l-0.5,-10.59l-1.6,-17.55l-2,-13.82l-2.1,-10.29l0,-1.11l0.3,-1.01l0.7,-0.81l0.9,-0.61l1,-0.2l0,0.03z" />
        <path d="m564,509.6l0.9,0.6l0.7,0.9l0.3,1.1l0,1.1l-0.6,2.3l-1.7,4.6l-2.1,4.4l-4.7,8.1l-3.8,5.6l-4.4,5.6l-3.4,3.6l-0.7,0.7l-1,0.7l-1.1,0.2l-1.1,-0.1l-1,-0.5l-0.8,-0.8l-0.5,-1.1l0,-1.1l0.3,-1.1l0.7,-0.9l3.6,-3.9l4.2,-5.2l3.5,-5.2l4.4,-7.7l1.9,-4l1.5,-3.8l0.4,-1.8l0.4,-1.1l0.8,-0.8l1,-0.5l1.2,-0.2l1.1,0.3z" />
        <path d="m527,344.4l-0.9,-0.4l-0.5,-1l-0.2,-2.4l0.2,-0.8l1.7,-3.6l2,-3.2l2.6,-3.3l3.3,-3.4l2.9,-2.6l2.6,-2.1l3.4,-2.2l4.7,-2.2l3.6,-1l3,-0.5l3.5,0.2l3.9,1.6l2.4,2.2l1.7,2.4l1.4,3.5l0.9,6l0,5.4l-0.1,2.9l-0.6,5.3l-1.2,7l-3.8,15.3l-6.3,22l-6.1,23.4l-2.6,12l-0.8,4.2l-0.7,6.4l-0.4,6.1l0,8.7l0.5,6l-0.6,0.9l-0.4,0.3l-0.6,0l-0.9,-0.3l-0.5,-1l-0.6,-5.7l0,-9l0.4,-6.3l0.8,-6.5l0.8,-4.3l2.6,-12.2l6.2,-23.5l6.3,-22l3.7,-15.2l1.2,-6.8l0.7,-7.8l-0.1,-5.1l-0.8,-5.5l-1.2,-2.9l-1.3,-1.8l-1.8,-1.6l-3,-1.2l-2.6,0l-2.4,0.4l-3.2,0.9l-4.4,2l-3,2l-2.4,1.9l-2.7,2.5l-3.1,3.3l-2.4,3l-1.9,3l-1.4,2.9l0.2,2.1l-0.3,1l-0.8,0.6l-0.6,0z" />
        <path d="m549.35,463.1l1.1,0.2l0.6,0.8l0.9,2.7l2.2,4.8l1.8,2.8l2.4,2.7l1.9,1.7l2.8,1.8l2.1,0.6l3.1,0l2.4,-0.6l1.9,-0.9l2.3,-1.6l1.8,-1.8l1.9,-2.3l1.3,-2l1.2,-2.2l0.7,-2.8l0,-2.5l-0.8,-1.8l-1.7,-0.6l-1.7,0.6l-0.7,1.3l0.1,1.5l-0.3,0.4l-0.8,0.7l-0.5,0l-0.5,-0.1l-0.8,-0.7l-0.3,-2l0.2,-0.9l1.2,-2.2l0.9,-0.7l2.8,-1l1,0l2.8,1.1l0.8,0.8l1.2,2.6l0.1,0.6l0.1,3.1l-0.9,3.5l-1.4,2.8l-1.5,2.3l-2.1,2.5l-2,2l-2.7,1.9l-2.5,1.2l-2.9,0.8l-3.9,0.1l-3,-0.9l-3.4,-2.1l-2.3,-2l-2.7,-3l-2,-3.1l-1.4,-2.8l-1,-2.5l-1,-2.8l0,-1.1l0.7,-0.8l0.5,-0.1z" />
        <path d="m450.44,267.6l0.79,-0.6l0.99,-0.4l1.09,0l0.89,0.4l1.38,0.8l5.03,3.7l10.07,7.9l4.05,2.9l2.07,1.4l3.95,2.2l2.37,1.3l4.34,1.8l2.57,1l2.66,0.9l4.44,1.2l4.93,0.9l4.44,0.5l3.75,0.3l5.23,0.1l2.86,-0.2l0.99,0l0.99,0.5l0.79,0.7l0.39,1l0.1,1l-0.2,1.1l-0.59,0.8l-0.89,0.7l-0.99,0.2l-3.26,0.3l-5.63,-0.1l-4.05,-0.3l-4.74,-0.6l-5.33,-0.9l-4.93,-1.3l-2.86,-1l-2.86,-1.1l-4.64,-2l-2.66,-1.4l-4.15,-2.4l-2.37,-1.5l-4.34,-3.1l-13.13,-10.2l-2.86,-1.8l-0.79,-0.7l-0.49,-1l-0.2,-1l0.2,-1.1l0.59,-0.9l0.01,0z" />
        <path d="m449.9,269.25l0.5,-0.3l0.5,-0.2l0.5,0l0.5,0.3l1.2,0.8l1.2,1l1.1,1l1.2,1.4l2.2,2.9l1.7,2.7l1.8,3.3l1.8,3.8l1.9,4.4l1.8,4.7l1.7,5.1l2.2,8.1l2.5,10.8l1,5.1l1.8,11.5l0.7,5.9l0,0.5l-0.2,0.5l-0.4,0.4l-0.5,0.2l-0.5,0.1l-0.5,-0.2l-0.4,-0.3l-0.3,-0.4l-0.2,-0.5l-0.7,-5.7l-1.8,-11.5l-1.6,-7.7l-2.5,-10.6l-2.4,-7.8l-1.7,-4.9l-1.7,-4.4l-1.8,-3.9l-1.8,-3.5l-2.4,-4l-2.1,-2.7l-1.1,-1.2l-1.9,-1.7l-1,-0.7l-0.4,-0.4l-0.2,-0.5l-0.1,-0.5l0.1,-0.5l0.3,-0.4z"  />
        <path d="m477,407.9l0.5,-0.1l0.5,0l0.5,0.2l0.4,0.4l10.4,13.4l5.1,7l3.6,5.5l3.8,6.1l3.6,6.3l1.7,3.3l3.2,6.4l2.6,5.6l3.6,8.4l2.4,6.1l0.1,0.5l-0.1,0.5l-0.3,0.5l-0.4,0.3l-0.5,0.2l-0.5,0l-0.5,-0.2l-0.4,-0.3l-0.3,-0.5l-2.3,-5.9l-3.6,-8.4l-2.6,-5.5l-3.1,-6.3l-1.7,-3.2l-3.5,-6.3l-3.8,-6l-3.5,-5.3l-5,-7l-10.4,-13.4l-0.3,-0.4l0,-0.6l0.1,-0.5l0.3,-0.4l0.4,-0.4z" />
        <path d="m513.5,486.2l0.1,-0.5l0.2,-0.5l0.4,-0.3l0.5,-0.2l1.6,-0.4l3.3,-0.3l1.9,0l2,0.1l2.3,0.3l1.7,0.5l1.1,0.4l0.5,0.3l0.3,0.4l0.2,0.5l-0.1,0.5l-0.2,0.5l-0.3,0.4l-0.5,0.3l-0.5,0l-2.9,-0.8l-2,-0.3l-3.4,-0.1l-2.9,0.3l-1.4,0.3l-0.5,0.1l-0.5,-0.2l-0.5,-0.3l-0.3,-0.4l-0.1,-0.6z" />
        <path d="m526.9,489.8l-0.2,0.5l-0.4,0.4l-0.5,0.2l-0.5,0l-1,-0.1l-7.1,3.4l-0.5,0.1l-0.5,0l-0.5,-0.2l-0.4,-0.4l-0.2,-0.5l0,-0.5l0.1,-0.5l0.3,-0.5l0.4,-0.3l7.5,-3.6l0.9,-0.1l1.4,0.2l0.5,0.1l0.4,0.4l0.3,0.4l0.1,0.5l-0.1,0.5z" />
        <path d="m518.8,492.6l0.4,0.1l0.4,0.3l0.3,0.4l0.1,0.5l0,3.9l-0.1,3l-0.4,3.8l-0.4,2.1l-0.9,3.3l-1.3,3.7l-1.9,3.9l-2.1,3.8l-3.2,4.8l-1.6,2.2l-0.9,1.1l-1.6,1.5l-1.5,1.1l-1.4,0.9l-1.9,0.9l-0.9,0.2l-0.5,0.1l-0.4,-0.2l-0.4,-0.2l-0.3,-0.4l-0.1,-0.5l0.1,-0.5l0.2,-0.4l0.3,-0.3l0.4,-0.2l0.8,-0.2l1.5,-0.7l1,-0.7l1.3,-1l1.5,-1.4l1.4,-1.8l3.1,-4.5l2.8,-4.9l1.7,-3.7l1.3,-3.4l0.8,-3.1l0.4,-2l0.4,-3.5l0.1,-2.9l-0.1,-3.7l0.1,-0.5l0.2,-0.4l0.4,-0.3l0.4,-0.2l0.5,0z" />
        <path d="m452.3,271.9l-1.1,0.1l-1,-0.2l-0.9,-0.6l-0.8,-1.2l-0.2,0l-1,-0.1l-1.3,0.1l-1.5,0.3l-3.4,1.2l-2.7,1.3l-1.4,0.8l-2.5,1.6l-3.1,2.5l-3,2.9l-1.8,2l-1.8,2.1l-2.9,4l-1.8,2.7l-1.7,2.9l-1.7,3.2l-2.6,6.4l-1.5,4.1l-1.3,4.2l-2,7.4l-0.9,4.7l-0.8,4.9l-0.6,4.9l-0.6,8.6l-0.1,9.2l0.2,8l0.3,6.7l0.4,5.1l1,8.1l0,1.1l-0.4,1l-0.7,0.8l-0.9,0.5l-1.1,0.1l-1,-0.2l-0.9,-0.5l-0.7,-0.8l-0.3,-1l-0.3,-1.7l-0.8,-6.8l-0.4,-5.3l-0.3,-6.8l-0.2,-8.3l0.1,-9.4l0.6,-8.9l0.6,-5.3l0.8,-5l1,-4.9l0.8,-3.3l1.3,-4.6l1.4,-4.4l1.6,-4.4l2.7,-6.6l1.9,-3.6l1.9,-3.3l1.9,-2.9l3.2,-4.4l2,-2.3l2,-2.2l3.1,-3.1l2,-1.7l1.8,-1.3l2.8,-1.9l1.8,-1l3.2,-1.6l3.9,-1.3l2.3,-0.6l2.2,-0.2l2.2,0.2l0.9,0.2l1.7,0.8l1.5,1.4l0.7,1.3l0.3,1l0,1.1l-0.5,0.9l-0.7,0.8l-0.9,0.5z" />
        <path d="m496.8,402.6l0.4,-0.2l0.5,0.1l2.4,1.7l2.7,2.3l2.8,2.8l3.5,4.2l2.7,3.6l3,4.3l5.7,9l5.5,9.2l2,3.5l0.1,0.5l-0.3,0.5l-0.2,0.1l-0.6,0l-0.3,-0.4l-2,-3.4l-5.5,-9.2l-5.7,-8.9l-2.9,-4.3l-2.7,-3.5l-3.5,-4.2l-2.7,-2.7l-2.6,-2.2l-2.2,-1.6l-0.3,-0.5l0,-0.5l0.2,-0.2z" />
        <path d="m520.6,446.8l0.1,-0.5l0.2,-0.5l0.3,-0.4l0.5,-0.3l1.5,-0.4l9.5,-1.2l0.5,0l0.5,0.2l0.4,0.4l0.3,0.4l0,0.5l-0.1,0.6l-0.3,0.4l-0.4,0.3l-0.5,0.2l-9.4,1.2l-1.1,0.4l-0.5,0l-0.6,-0.1l-0.4,-0.3l-0.3,-0.4l-0.2,-0.5z" />
        <path d="m493.8,548.5l0.2,-0.4l0.4,-0.3l0.5,-0.2l0.5,0.1l1,0.2l21.3,-0.2l20.3,-0.2l6.3,-0.1l0.4,0.1l0.5,0.3l0.3,0.3l0.2,0.5l0,0.5l-0.2,0.5l-0.3,0.3l-0.4,0.3l-0.5,0.1l-6.3,0.1l-20.3,0.2l-21.6,0.1l-1.4,-0.3l-0.4,-0.2l-0.4,-0.3l-0.2,-0.4l-0.1,-0.5l0.2,-0.5z" 
          transform-origin="494 548"
          transform="scale(2 1) translate(-24 -4.0)"
        />
        <path d="m493.9,538.8l0,0.5l-0.2,0.5l-0.2,0.2l-0.4,-1.1l4,0.4l23.2,0.3l24.2,-0.2l0.5,0.1l0.4,0.3l0.4,0.4l0.2,0.5l0,0.5l-0.2,0.5l-0.3,0.4l-0.5,0.3l-0.5,0.1l-9.1,0.1l-21.9,0l-19,-0.4l-2.2,-0.3l-0.7,-0.3l-1.5,-1l-0.4,-0.4l-0.2,-0.6l0,-0.5l0.2,-0.6l0.4,-0.4l0.5,-0.2l1.4,-0.4l0.6,-0.1l0.5,0.2l0.4,0.3l0.3,0.4l0.1,0.5z" />
        <path d="m497.9,532.6l0.3,-0.4l0.5,-0.3l0.5,-0.2l0.5,0.1l1.4,0.4l3.5,0.2l11.2,0l22.9,-0.7l12.7,-0.6l0.6,0l0.4,0.3l0.4,0.4l0.2,0.5l0,0.5l-0.1,0.5l-0.3,0.4l-0.5,0.3l-0.5,0.1l-12.8,0.6l-22.9,0.7l-11.4,0.1l-3.8,-0.3l-1.8,-0.5l-0.5,-0.2l-0.4,-0.4l-0.2,-0.4l0,-0.6l0.1,-0.5z" />
        <path d="m509.1,523.4l0.1,-0.5l0.4,-0.5l0.4,-0.2l0.5,-0.2l24.4,-1.6l23.7,-0.6l0.5,0.1l0.5,0.2l0.3,0.4l0.2,0.5l0,0.6l-0.2,0.5l-0.3,0.4l-0.5,0.2l-0.5,0.1l-23.6,0.7l-24.3,1.6l-0.6,-0.1l-0.4,-0.2l-0.4,-0.4l-0.2,-0.5l0,-0.5z" />
        <path d="m516.1,509l-0.1,-0.6l0.1,-0.5l0.3,-0.4l0.4,-0.4l1.7,-0.8l3.7,-0.7l6.6,-0.8l11.3,-0.8l18.8,-0.5l0.6,0.1l0.4,0.2l0.4,0.4l0.1,0.5l0,0.6l-0.1,0.5l-0.4,0.4l-0.4,0.2l-0.6,0.1l-18.7,0.5l-11.1,0.8l-4.5,0.6l-5.3,0.9l-1.1,0.5l-0.5,0.2l-0.5,0l-0.5,-0.2l-0.4,-0.4l-0.2,-0.4z" />
        <path d="m484.6,288.8l0.6,0.1l0.4,0.4l4.8,10.9l2.3,6.3l2.4,8.2l1.6,6.4l1.5,7.2l1.3,8l1,8.2l0.6,8.4l0.3,8.5l-0.2,7.8l-0.3,6.7l-0.9,9.6l-0.9,6.2l-0.3,0.5l-0.6,0.2l-0.3,0l-0.5,-0.4l-0.1,-0.6l0.9,-6.1l0.8,-9.6l0.4,-6.6l0.1,-7.7l-0.2,-8.4l-0.6,-8.3l-1,-8.2l-1.3,-7.9l-1.5,-7.1l-1.5,-6.4l-2.5,-8l-2.2,-6.3l-4.8,-10.8l0,-0.6l0.4,-0.5l0.3,-0.1z" />
        <path d="m521.5,319.1l0.2,-1l0.8,-0.7l3.2,-1l3.3,-0.3l4,0.3l3.6,1.2l3.1,2l2.8,3.3l1.7,3.3l1.3,3.4l1.1,4.7l0.4,2.8l0.7,8.9l0.1,10l-0.5,12.6l-1.9,21.5l-2.2,15.8l-1.8,10l-3.5,14.2l-1.8,5.6l-0.6,0.8l-1,0.2l-0.5,-0.2l-0.7,-0.8l-0.1,-0.5l1.7,-5.9l3.5,-14.1l1.8,-9.9l2.1,-15.5l2,-21.4l0.4,-12.5l-0.1,-9.8l-0.6,-8.7l-0.4,-2.5l-1.1,-4.5l-1.1,-3l-1.6,-2.9l-2.2,-2.7l-2.5,-1.5l-2.9,-0.9l-3.3,-0.3l-2.7,0.3l-2.7,0.9l-1,0l-0.8,-0.7l-0.2,-0.5z" />
        <path d="m462.8,352.6l0.5,0l0.5,0.2l0.4,0.4l0.2,0.5l0.5,1.3l0.4,1l0.8,1.4l1.6,2.1l1.1,1.1l3.3,2.9l2.7,1.9l0.4,0.4l0.3,0.4l0,0.6l-0.1,0.5l-0.3,0.4l-0.4,0.4l-0.5,0.1l-0.5,0l-0.5,-0.2l-1.2,-0.8l-2.9,-2.2l-2.5,-2.2l-1.2,-1.3l-1.8,-2.4l-0.9,-1.6l-0.6,-1.3l-0.6,-1.6l-0.1,-0.6l0.2,-0.5l0.3,-0.4l0.4,-0.3l0.5,-0.2z" />
        <path d="m445.6,498.8l0.5,1l0.2,1l-0.2,1.1l-0.6,0.9l-0.6,0.6l-1.2,2.4l-1.1,2.9l-1.4,3.8l-0.9,3.2l-0.9,3.5l-0.6,3.5l-0.4,3.4l-0.1,3.1l0.1,1.8l0.3,1.7l0.6,1.2l1.2,1.8l0.8,0.8l0.7,0.6l1.1,0.7l0.7,0.2l0.9,0.6l0.7,0.8l0.3,1l0,1.1l-0.4,1l-0.7,0.8l-0.9,0.5l-1,0.1l-1.1,-0.2l-1.6,-0.6l-1.5,-1l-1.3,-1.1l-1.2,-1.3l-1.9,-2.6l-1.1,-2.3l-0.2,-0.6l-0.4,-2.1l-0.2,-2.5l-0.1,-1.4l0.2,-2.5l0.4,-3.9l0.8,-3.8l0.9,-3.8l1.8,-5.8l1.3,-3.5l1.5,-3.3l0.7,-1.4l0.4,-0.6l0.8,-0.9l0.9,-0.6l1,-0.4l1,0l1,0.4l0.8,0.7z" />
        <path d="m444.8,542.2l0.3,-0.4l0.4,-0.3l0.5,-0.2l0.5,0.1l1.9,0.5l1.5,0.2l4.5,0.2l5.3,-0.2l4.2,-0.4l6.7,-1.1l6.7,-1.7l9,-2.7l1.6,-0.5l0.5,-0.1l0.6,0.1l0.4,0.2l0.4,0.4l0.1,0.5l0,0.6l-0.1,0.5l-0.4,0.4l-0.4,0.2l-1.7,0.6l-9.2,2.8l-6.9,1.7l-6.9,1.1l-4.4,0.4l-5.5,0.2l-4.7,-0.2l-1.8,-0.2l-2.2,-0.6l-0.4,-0.2l-0.4,-0.4l-0.2,-0.4l-0.1,-0.6l0.2,-0.5z" />
        <path d="m437,535.1l1,-0.4l1.1,0l1,0.4l0.8,0.7l0.7,0.8l1.9,1.8l4.8,3.7l2.8,1.9l0.8,0.7l0.5,1l0.2,1l-0.2,1l-0.6,0.9l-0.8,0.7l-1,0.3l-1.1,0l-1,-0.4l-1.4,-0.9l-4.9,-3.5l-3.3,-2.9l-1.2,-1.1l-0.9,-1.1l-0.5,-1l-0.2,-1l0.2,-1.1l0.5,-0.9l0.8,-0.6z" />
        <path d="m410.3,411.8l0.5,-1.1l0.9,-0.7l1.1,-0.5l1.1,0l1.4,0.2l1.3,-0.2l1.5,-0.4l4.8,-1.6l4.8,-2.1l5.8,-2.8l19,-10.2l14.1,-8.5l2,-1.4l1,-0.4l1.2,-0.1l1.1,0.3l0.9,0.7l0.7,1l0.3,1.1l-0.2,1.1l-0.5,1.1l-0.8,0.8l-2.1,1.4l-14.4,8.7l-19.3,10.4l-6,2.8l-5.1,2.2l-5.3,1.8l-2,0.6l-2.3,0.3l-1,0l-1.8,-0.2l-1.1,-0.4l-0.9,-0.7l-0.6,-1l-0.3,-1.1l0.2,-1.1z" />
        <path d="m423.1,378.5l0.9,-0.5l1.1,-0.1l1,0.2l0.9,0.6l4.1,3.9l2.7,3l2,2.8l1.9,3l1.3,2.5l1.3,3.2l1,3.2l0.6,2.9l-0.1,1l-0.4,1l-0.7,0.8l-0.9,0.5l-1.1,0.1l-1,-0.2l-0.9,-0.5l-0.7,-0.9l-0.3,-1l-0.5,-2.2l-0.8,-2.7l-1.1,-2.8l-1.1,-2l-1.6,-2.6l-1.8,-2.4l-2.2,-2.5l-3.9,-3.6l-0.6,-0.9l-0.3,-1l0,-1.1l0.4,-0.9l0.8,-0.8z" />
        <path d="m413.1,410.9l1.1,-0.2l1,0.3l0.9,0.6l0.7,0.8l2.1,4.6l18.2,43.9l7.7,19.5l0.2,1l-0.1,1.1l-0.5,0.9l-0.8,0.7l-1,0.4l-1.1,0l-1,-0.3l-0.8,-0.7l-0.6,-0.9l-7.7,-19.4l-18,-43.8l-2.1,-4.2l-0.3,-1.1l0.1,-1l0.4,-1l0.7,-0.8l0.9,-0.4z" />
        <path d="m435.2,460.6l1.1,0.2l0.8,0.6l0.7,0.9l0.2,1l3,31.1l-0.1,1l-0.4,1l-0.8,0.8l-0.9,0.4l-1.1,0.1l-1,-0.3l-0.9,-0.6l-0.6,-0.8l-0.3,-1.1l-2.9,-31l0,-1.1l0.5,-0.9l0.7,-0.8l1,-0.4l1,-0.1z" />
        <path d="m435.9,494l0.8,-0.7l1,-0.4l1,-0.1l1.1,0.3l2.6,1.2l2.4,0.7l2.8,0.6l1,0.3l0.8,0.7l0.5,1l0.2,1l-0.2,1l-0.6,1l-0.8,0.6l-1,0.4l-1.1,0l-1.4,-0.3l-3.2,-0.8l-3.2,-1.2l-1.5,-0.7l-0.9,-0.6l-0.6,-0.9l-0.2,-1.1l0.1,-1l0.4,-1z" />
        <path d="m440.5,501.4l0.1,-0.5l0.3,-0.5l0.4,-0.3l0.5,-0.2l2.3,-0.3l2.4,-0.5l4.9,-1.2l4.9,-1.5l11.8,-4.3l10.4,-4.2l11.9,-5.2l0.5,-0.2l0.6,0.1l0.4,0.2l0.4,0.4l0.3,0.4l0,0.6l-0.1,0.5l-0.3,0.4l-0.5,0.3l-12,5.3l-10.5,4.3l-11.9,4.2l-5,1.6l-5.1,1.3l-2.5,0.5l-2.4,0.4l-0.6,-0.1l-0.5,-0.2l-0.3,-0.3l-0.3,-0.5l-0.1,-0.5z" />
       </g>
      </g>
    
      <g id="blue_baby" >
       <use href="#blue_baby_matte" fill="blue"  opacity="0.2" />
       <path d="m648.11,549.18l-9.91,-14.7c-1.35,-56.94 -15.11,-118.53 -46.89,-174.53c-1.24,-19.77 -2.48,-40.48 12.11,-63.04c20.19,-5.18 44.72,-9.73 76.4,-36.02c-24.95,23.5 -41.51,48.24 -41.3,100.31c18.63,54.45 44.1,104.87 50.31,166.15c2.8,11.18 9.01,22.98 29.5,23.91l-70.21,-2.07l-0.01,-0.01z" 
        fill="#000"  opacity="0.2" />
       <g>
        <path d="m675,266.8l0.2,0.5l0,0.5l-0.2,0.5l-0.4,0.4l-1,0.8l-6,5.9l-2.9,3.2l-3.4,4.3l-2.4,3.6l-2.6,4.1l-2.7,5l-2.7,5.4l-2.4,5.9l-1.2,3.2l-1,3.2l-1,3.4l-0.9,3.5l-0.8,3.3l-1.2,7l-0.9,6.3l-0.6,5.3l-0.5,7.5l-0.1,4.2l0,0.5l-0.3,0.5l-0.4,0.3l-0.5,0.2l-0.5,0l-0.5,-0.2l-0.4,-0.3l-0.3,-0.5l-0.1,-0.5l0,-1.9l0.2,-5.7l0.4,-4.3l0.6,-5.4l0.8,-6.5l1.3,-7l0.8,-3.6l0.9,-3.5l1.1,-3.5l1,-3.3l1.2,-3.2l1.3,-3.2l1.2,-2.9l2.8,-5.6l2.8,-5.1l2.6,-4.2l2.6,-3.8l3.5,-4.4l2.9,-3.4l6.2,-6.1l1.3,-0.9l0.4,-0.3l0.5,-0.1l0.6,0.2l0.4,0.2l0.3,0.5z" />
        <path d="m588.3,356.9l0.9,-0.7l0.9,-0.3l1.1,0l0.9,0.4l1.4,0.8l0.5,0.5l1.6,1.7l1.4,1.9l0.8,1.4l2.6,4.9l3.1,6.8l4.3,10.7l6.8,18.5l5.4,15.7l4,12.8l3.2,11.4l1.9,6.9l2.9,11.5l3,13.5l2.5,12.6l2.4,14.8l1.5,12.2l0.7,7.4l0.2,4.9l0,3.7l-0.2,3.5l-0.3,1l-0.6,0.9l-0.8,0.6l-1,0.3l-1.1,-0.1l-0.9,-0.5l-0.8,-0.7l-0.4,-0.9l-0.1,-1.1l0.2,-3.2l0,-3.4l-0.2,-4.7l-0.6,-7.1l-1.5,-12l-2.4,-14.6l-2.5,-12.3l-3,-13.4l-2.8,-11.5l-5.1,-18l-3.9,-12.7l-5.3,-15.5l-6.8,-18.4l-4.2,-10.4l-3,-6.6l-2.4,-4.6l-1.7,-2.5l-0.9,-1l-1,-0.6l-0.8,-0.7l-0.5,-0.9l-0.1,-1l0.2,-1l0.5,-0.9z" />
        <path d="m639.5,363.9l0.5,0l0.6,0.2l0.4,0.3l0.3,0.5l8.9,23.9l8.7,23l8,21.7l6.4,18.5l5.3,16.4l4.6,15.6l2.7,10.8l1.1,5.1l1.6,8.3l1.1,7l1.2,9.7l0.3,5l-0.1,0.6l-0.3,0.5l-0.4,0.4l-0.5,0.2l-0.6,0l-0.5,-0.1l-0.5,-0.4l-0.3,-0.5l-0.1,-0.5l-0.3,-4.9l-1.1,-9.5l-1.1,-6.9l-1.6,-8.3l-1.1,-5l-2.7,-10.7l-4.5,-15.4l-5.2,-16.4l-6.5,-18.4l-8,-21.6l-8.7,-23.1l-8.9,-23.9l-0.1,-0.5l0.1,-0.6l0.3,-0.5l0.4,-0.3l0.6,-0.2z" />
        <path d="m737.1,349l1.1,0.1l1,0.5l0.8,0.8l0.5,1l1.3,5.4l5.4,30.4l5,33.4l1.3,10.6l3.3,35.4l-0.1,1.2l-0.5,1l-0.8,0.7l-1.1,0.5l-1.1,0.1l-1.1,-0.4l-0.9,-0.6l-0.6,-1l-0.3,-1.1l-3.2,-35.1l-1.3,-10.4l-5,-33.3l-5.3,-30l-1.3,-5.1l-0.1,-1.1l0.3,-1.1l0.7,-0.9l0.9,-0.7l1.1,-0.3z" />
        <path d="m757.2,467.5l0,1.1l-0.4,1l-0.7,0.8l-1,0.6l-2.1,0.7l-4.1,1.9l-4.6,2.6l-4.1,2.6l-1,0.5l-1.1,0.1l-1.1,-0.3l-0.9,-0.7l-0.6,-0.9l-0.3,-1l0.1,-1.1l0.5,-1l0.9,-0.9l4.3,-2.7l5,-2.8l4.6,-2.1l2.4,-0.9l1.1,-0.2l1.1,0.2l1,0.6l0.7,0.8l0.3,1.1z" />
        <path d="m740.3,476.7l1,0.1l1,0.5l0.7,0.7l0.4,1l2.3,9.1l1.2,7.3l0.8,6.4l0.4,5.2l0.1,7.2l-0.3,6.9l-0.4,4.7l-1.4,7.6l-1.4,6l-2,7.1l-0.6,1.3l-0.8,0.7l-1,0.4l-1,0.1l-1,-0.4l-0.9,-0.6l-0.5,-0.9l-0.3,-1l0.2,-1.1l0.7,-2.3l1.9,-7.3l1.7,-8.4l0.8,-6.4l0.2,-6.5l-0.1,-6.9l-0.2,-2.5l-0.6,-6.3l-1.5,-9.1l-2.2,-8.9l-0.1,-1l0.3,-1l0.7,-0.9l0.8,-0.6l1.1,-0.2z" />
        <path d="m667.2,400.7l0.5,0.1l0.3,0.4l2.7,8.7l3.6,10.2l3.7,9.3l4.6,10.7l4,8.7l3.9,8.1l3.6,7.3l3.1,6.1l4.5,8.6l2.6,4.8l0,0.5l-0.2,0.5l-0.3,0.1l-0.5,0l-0.4,-0.4l-2.6,-4.8l-4.4,-8.6l-3.1,-6.1l-3.7,-7.3l-3.9,-8.1l-4,-8.7l-4.7,-10.8l-3.6,-9.4l-3.7,-10.2l-2.7,-8.8l0.1,-0.5l0.3,-0.4l0.3,0z" />
        <path d="m690.7,460.9l0.1,0.5l-0.2,0.5l-2.4,2.5l-1.9,1.1l-1,0.1l-0.1,1.1l0.8,3.4l1.2,3.5l1.1,2.5l1.1,0.1l1.4,-0.3l1.6,-0.7l1.6,-1.2l0.2,0l0.5,0.1l0.2,0.2l0.2,0.5l-0.2,0.4l-1.6,1.3l-1.9,0.9l-1.8,0.3l-1.8,0l-0.3,-0.2l-0.3,-0.3l-0.8,-1.5l-0.7,-1.6l-1.1,-3.5l-0.9,-3.6l0.1,-2.1l0.1,-0.3l0.2,-0.3l1.8,-0.3l1.5,-0.8l2.1,-2.4l0.5,-0.2l0.5,0.1l0.2,0.2z" />
        <path d="m638.8,530.5l1.1,0.3l0.8,0.7l0.5,0.9l0.2,1l0.1,1.4l0.3,1.1l0.6,1.4l1,1.6l1.5,1.7l1.4,1.1l1.4,1l1.4,0.5l2.8,0.7l3.1,0.3l2,0l1.2,-0.1l1,0l1,0.4l0.8,0.8l0.5,0.9l0.1,1.1l-0.2,1l-0.6,0.9l-0.9,0.6l-1,0.3l-1.3,0.2l-2.7,0l-1.9,-0.1l-2,-0.2l-3.6,-0.9l-2.2,-0.9l-2.4,-1.4l-2,-1.7l-2.1,-2.3l-1.6,-2.5l-1,-2.2l-0.6,-2l-0.1,-0.8l-0.1,-1.7l0.2,-1.1l0.5,-0.9l0.8,-0.7l1,-0.4l1,0z" />
        <path d="m599.85,374.3l0.35,0.29l0.35,0.39l0.09,0.48l0,0.48l-0.35,2.04l-0.17,6.59l0.43,8.33l0.7,6.4l1.13,6.98l1.3,5.43l0.87,2.71l1.74,4.85l2.43,5.72l2.26,4.55l2.95,5.04l2.78,3.97l2.52,3.29l3.91,4.55l2.87,2.91l0.17,0.48l0,0.48l-0.17,0.48l-0.26,0.39l-0.43,0.29l-0.43,0.1l-0.43,-0.1l-1.74,-1.45l-1.39,-1.45l-4,-4.65l-2.61,-3.39l-2.87,-4.17l-3.13,-5.23l-2.35,-4.75l-2.52,-5.81l-1.83,-5.04l-0.87,-2.91l-1.3,-5.62l-1.22,-7.17l-0.96,-8.72l-0.17,-9.21l0.17,-4.17l0.35,-2.23l0.17,-0.48l0.35,-0.39l0.35,-0.29l0.52,-0.1l0.43,0.1l0.01,0.01z" />
        <path d="m641.5,281.8l0.1,0.6l-0.3,0.4l-1.5,1.1l-2.6,2.6l-3.7,4.4l-2.4,3.3l-3.5,5.5l-1.4,2.5l-2.3,4.8l-2.5,6.2l-1.9,5.5l-1.8,7l-0.7,3.6l-1.3,9.6l-0.4,6.8l0,5.4l0.3,8.1l0.5,4.5l0.3,1.3l-0.1,0.6l-0.4,0.3l-0.3,0.1l-0.5,-0.2l-0.3,-0.5l-0.2,-1.3l-0.6,-4.7l-0.3,-8.2l0,-5.5l0.5,-6.8l1.2,-9.8l0.7,-3.6l1.9,-7.1l1.9,-5.6l2.6,-6.4l2.3,-4.8l1.4,-2.6l3.6,-5.6l2.5,-3.4l3.7,-4.4l2.8,-2.8l1.6,-1.1l0.5,-0.2l0.5,0.2l0.1,0.2z" />
        <path d="m616.5,365.3l0.6,0.1l0.3,0.4l3.2,7l3.8,9.1l3.3,8.6l2.7,7.5l3.6,11.4l3.4,11.9l2.2,8.6l2.4,10.7l1.9,10.3l1.2,7.7l-0.1,0.6l-0.5,0.3l-0.2,0l-0.5,-0.2l-0.3,-0.5l-1.1,-7.7l-1.9,-10.1l-2.4,-10.8l-2.2,-8.4l-3.4,-11.9l-3.6,-11.4l-2.7,-7.4l-3.3,-8.6l-3.7,-9.1l-3.2,-7l0,-0.5l0.3,-0.5l0.2,-0.1z" />
        <path d="m637.6,460.3l0,-0.5l0.3,-0.5l0.4,-0.3l0.5,-0.2l6.1,-1l7.7,-0.5l0.5,0.1l0.5,0.3l0.4,0.4l0.2,0.5l0,0.6l-0.2,0.5l-0.3,0.4l-0.5,0.3l-7.9,0.6l-5.9,0.9l-0.5,0l-0.5,-0.2l-0.5,-0.3l-0.2,-0.5l-0.1,-0.6z" />
        <path d="m704.2,486.1l0.3,-0.4l0.5,-0.2l1.4,0.2l1.4,-0.2l3.2,-0.6l6.4,-1.9l5.5,-2l6.3,-2.7l9.2,-4.4l4.3,-2.3l0.6,-0.1l0.4,0.3l0.1,0.2l0,0.5l-0.3,0.4l-4.4,2.3l-9.3,4.5l-6.3,2.7l-5.6,2.1l-6.5,1.9l-3.3,0.6l-1.6,0.2l-1.7,-0.1l-0.4,-0.3l-0.2,-0.4l0,-0.3z" />
        <path d="m657.3,365.6l0.6,-0.9l1,-0.5l1.1,-0.3l1,0.2l2,0.6l1.8,0.3l5.7,-0.2l4.3,-0.4l10.1,-1.5l21.5,-4.4l12.2,-3l15.9,-4.5l1.1,-0.2l1,0.2l1,0.6l0.7,0.9l0.3,1l0,1.1l-0.5,1.1l-0.7,0.8l-1,0.5l-16.2,4.6l-12.4,3.1l-21.8,4.4l-10.4,1.6l-4.6,0.4l-6.3,0.2l-2.8,-0.3l-2.8,-0.9l-1,-0.5l-0.7,-0.8l-0.4,-1l-0.1,-1.1l0.4,-1.1z" />
        <path d="m658.6,359.3l1,0.5l0.8,0.8l0.4,1l0.1,1.1l-0.1,1.7l0.1,2.2l0.4,1.5l0.5,1.8l0.9,1.7l1.7,2.8l0.2,1.1l-0.2,1.1l-0.6,0.9l-0.9,0.7l-1,0.4l-1.1,-0.1l-1,-0.4l-1.2,-1.2l-1.4,-2l-1.2,-2.4l-0.8,-2.5l-0.5,-2.2l-0.3,-3.2l0.2,-2.5l0.3,-1.1l0.6,-0.9l0.9,-0.6l1.1,-0.3l1.1,0.1z" />
        <path d="m609.6,293l6.8,-1.9l6.5,-2.4l5.8,-2.3l8.8,-3.9l12.8,-6.2l5.5,-2.8l6.1,-3.4l4.8,-3l4,-2.6l5.3,-3.8l2.7,-2.1l0.9,-0.5l1,-0.2l1.1,0.2l0.9,0.5l0.7,0.8l0.4,1l0,1.1l-0.4,0.9l-0.7,0.9l-2.9,2.3l-5.6,4l-4.1,2.7l-4.9,3.1l-6.4,3.5l-5.6,2.9l-13,6.2l-9,4l-5.9,2.4l-6.7,2.4l-7.3,2.3l-2.6,0.7l-1.8,0.2l-1.6,0.2l-1.2,-0.2l-1.1,-0.7l-0.9,-0.9l0.57,-2.55c1.84,-1.45 4.19,-2 7.03,-2.85z" />
        <path d="m607.6,296l0.4,1l0.2,1l-0.3,1l-0.6,0.9l-1,1.2l-2,2.7l-3.2,5.3l-1.5,3l-2,5l-1.7,6.1l-1.3,6.7l-0.7,5.4l-0.2,5.1l-0.1,8.4l0.3,6.9l0.1,1.2l-0.1,1.1l-0.4,1l-0.7,0.7l-1,0.5l-1.1,0.1l-1,-0.3l-0.9,-0.5l-0.6,-0.9l-0.3,-1l-0.1,-1.3l-0.3,-7.4l0.1,-8.7l0.2,-5.3l0.7,-5.9l0.8,-4.6l1.3,-5.2l1.2,-4l2.2,-5.5l2.5,-4.9l2.6,-4.3l2.4,-3.3l1.4,-1.5l0.9,-0.6l1,-0.3l1,0.1l1,0.4l0.8,0.7z"  />
        <path d="m679.8,260.9l0.9,-0.6l1,-0.4l1,0.1l1,0.4l2.5,1.6l3.5,2.6l2.6,2.1l1.8,1.6l2.1,1.9l3.7,4.1l2.4,2.8l2.5,3l4.1,5.7l2.5,3.7l2.4,4l2.5,4.3l3.7,7.7l2.1,4.7l2,4.7l1.8,4.8l2.6,8.3l2.1,7.2l1.4,6l1.1,4.7l0.6,3.5l0.5,3.6l0,1.1l-0.4,0.9l-0.7,0.8l-1,0.5l-1,0.1l-1.1,-0.2l-0.9,-0.6l-0.6,-0.8l-0.3,-1l-0.5,-3.5l-0.6,-3.3l-1,-4.5l-1.5,-5.8l-2,-7l-2.5,-8l-1.7,-4.6l-1.9,-4.5l-2.1,-4.6l-3.6,-7.4l-2.3,-4l-2.3,-3.8l-2.4,-3.6l-3.9,-5.4l-2.3,-2.9l-2.3,-2.6l-3.5,-3.9l-3.5,-3.1l-3.6,-2.8l-4.3,-3l-0.8,-0.7l-0.5,-0.9l-0.1,-1.1l0.2,-1l0.6,-0.9z" />
        <path d="m597.9,366.4l-0.5,0.2l-0.5,-0.1l-0.5,-0.2l-1,-1.2l-0.8,0.1l-0.9,1l-1.1,1.7l-1,2.3l-1.4,5.1l-1.2,6.6l-0.7,8.8l-0.2,8.4l0.2,4.8l0.6,9.3l1.3,12l0.9,6.2l1,6.3l2.2,10.8l1.5,6.4l2.8,10.2l1.8,5.7l1.9,5.4l3,8l1.9,4.2l1.8,3.7l1.8,3.1l3,3.8l1.7,1.7l1.6,1.3l1.4,0.8l2.1,0.4l2.2,-0.7l1.8,-1.8l1.9,-3l1.5,-3.2l1.2,-2.9l1.4,-4.7l0.8,-4.3l0.3,-0.5l0.4,-0.3l0.5,-0.1l0.5,0l0.5,0.3l0.4,0.3l0.2,0.5l0,0.5l-0.1,1.2l-0.5,3.1l-1.6,5l-1.2,3.1l-1.7,3.4l-2.1,3.3l-2.3,2.5l-0.7,0.4l-2.9,0.9l-0.8,0l-2.6,-0.6l-2.1,-1l-2,-1.6l-2,-2l-3.2,-4.1l-2,-3.4l-1.9,-3.8l-1.9,-4.3l-3.2,-8.2l-1.8,-5.4l-1.8,-5.9l-2.9,-10.2l-1.5,-6.5l-2.2,-10.9l-1.1,-6.4l-0.8,-6.3l-1.3,-12.1l-0.7,-9.4l-0.2,-4.9l0.2,-8.6l0.8,-9l1.2,-7l1.4,-5.3l1.2,-2.7l1.3,-2.1l1.6,-1.8l0.9,-0.5l2.3,-0.2l0.8,0.1l0.6,0.5l1.3,2.1l0.1,0.5l-0.2,0.5l-0.3,0.5l-0.4,0.2z" />
        <path d="m632.6,485l0.5,0.1l0.4,0.3l0.4,0.4l0.1,0.5l0.3,2.4l0.2,5.2l-0.3,5.8l-1.1,7.2l-0.9,4.1l-1.5,5.5l-2.8,7.4l-1.7,3.7l-1.4,2.8l-1.9,3.1l-1.6,2l-2,2.1l-1.9,1.4l-2.4,0.9l-0.6,0.1l-0.6,-0.2l-2.4,-1.1l-0.5,-0.4l-1.9,-2.2l-1.1,-2.1l-0.4,-1.7l-0.1,-0.5l0.2,-0.6l0.3,-0.4l0.4,-0.3l0.5,-0.1l0.5,0l0.5,0.2l0.4,0.4l0.6,2.1l0.8,1.3l1.4,1.6l1.5,0.8l1.6,-0.6l1.2,-0.9l1.7,-1.8l1.4,-1.9l1.7,-2.7l1.4,-2.7l1.6,-3.6l2.7,-7l1.5,-5.3l0.8,-4l1,-7l0.3,-5.5l-0.1,-4.8l-0.3,-2.3l0,-0.5l0.2,-0.5l0.4,-0.4l0.5,-0.2l0.5,-0.1z" />
        <path d="m690.6,526.5l0.4,0.3l0.3,0.4l0.1,0.5l-0.1,0.6l-0.3,1.1l0.2,1.1l0.4,1.5l1.3,3.1l1.5,2.7l1,1.4l1.7,1.8l1.4,1.2l2.2,1.4l3.1,1.6l1.4,0.4l0.4,0.3l0.4,0.4l0.2,0.5l0,0.5l-0.2,0.5l-0.3,0.4l-0.5,0.3l-0.5,0.1l-0.5,-0.1l-1.4,-0.5l-2.2,-0.9l-1.4,-0.8l-2.4,-1.6l-1.7,-1.4l-2,-2.1l-1.2,-1.7l-0.9,-1.4l-1.5,-3.1l-0.7,-2l-0.6,-1.8l-0.3,-1.6l0.1,-0.8l0.4,-1.4l0.3,-0.5l0.4,-0.4l0.5,-0.2l0.5,0l0.5,0.2z" />
        <path d="m650.4,544.8l0.2,-0.5l0.4,-0.3l0.4,-0.3l0.6,0l1.3,0.1l23.4,-0.6l17,-0.7l0.5,0.1l0.5,0.2l0.3,0.4l0.2,0.5l0.1,0.5l-0.2,0.5l-0.3,0.5l-0.5,0.2l-0.5,0.2l-17,0.7l-23.5,0.5l-1.5,-0.1l-0.5,-0.1l-0.5,-0.3l-0.3,-0.4l-0.1,-0.5l0,-0.6z" />
        <path d="m643.8,541.1l0.1,-0.5l0.3,-0.5l0.4,-0.3l0.6,-0.2l10.1,-1.1l16.8,-1.2l17.8,-0.5l0.5,0.1l0.5,0.2l0.4,0.4l0.1,0.5l0.1,0.6l-0.2,0.5l-0.4,0.4l-0.4,0.2l-0.5,0.1l-17.8,0.6l-16.6,1.1l-10.1,1.2l-0.5,-0.1l-0.5,-0.2l-0.4,-0.3l-0.2,-0.5l-0.1,-0.5z" />
        <path d="m641.2,535.4l0.1,-0.5l0.2,-0.5l0.4,-0.3l0.5,-0.2l22.9,-2l22.3,-1.3l0.6,0.1l0.4,0.2l0.4,0.4l0.2,0.5l0,0.5l-0.1,0.5l-0.3,0.4l-0.5,0.3l-0.5,0.2l-22.3,1.3l-22.6,1.9l-0.5,0l-0.5,-0.2l-0.4,-0.3l-0.3,-0.5l0,-0.5z" />
        <path d="m638.6,524.6l0.1,-0.5l0.3,-0.4l0.4,-0.4l0.5,-0.1l18.3,-2l20.7,-1.6l9.2,-0.6l0.5,0l0.4,0.2l0.4,0.4l0.2,0.5l0,0.5l-0.1,0.4l-0.3,0.4l-0.4,0.3l-0.5,0.1l-9.2,0.7l-20.7,1.6l-18.1,1.9l-0.5,0l-0.5,-0.1l-0.3,-0.4l-0.3,-0.4l-0.1,-0.5z" />
        <path d="m637.8,511.4l0.3,-0.4l0.4,-0.3l0.5,-0.2l0.5,0.1l1.2,0.3l3,0l21.9,-1.9l20.3,-1.7l0.5,0l0.4,0.2l0.4,0.4l0.2,0.4l0,0.5l-0.1,0.5l-0.3,0.4l-0.4,0.3l-0.5,0.1l-22.3,2l-21.6,1.7l-1.7,0l-1.8,-0.4l-0.4,-0.2l-0.4,-0.4l-0.2,-0.5l0,-0.5l0.1,-0.4z" />
        <path d="m637.4,490.4l-0.1,-0.5l0,-0.5l0.3,-0.5l0.3,-0.4l1.1,-0.7l0.6,-0.3l16.7,-2.8l20.6,-2.9l0.5,0l0.5,0.2l0.4,0.3l0.2,0.5l0.1,0.5l-0.1,0.6l-0.3,0.4l-0.4,0.3l-0.5,0.2l-20.6,3l-16.2,2.6l-0.8,0.6l-0.5,0.3l-0.5,0l-0.5,-0.1l-0.5,-0.3l-0.3,-0.5z" />
       </g>
      </g>
    
      <g id="seven">
    
        <g id="pin_sweater">
          <defs>
            <path id="sweater_matte" d="m988.6,242.31c11.87,5.9 36.53,5.08 55.75,-18.73c12.78,47.18 25.56,95.63 45.05,135.78c-18.85,-0.85 -40.89,-2.66 -61.34,4.15l2.88,33.55c-29.39,-2.24 -66.13,5.75 -100.64,19.17l5.75,-22.04c-11.4,-2.98 -18.96,-5.01 -27.48,-17.57c25.4,-26.56 73.49,-86.02 80.04,-134.3l-0.01,-0.01z" />
            <path id="sigil_logo" d="m958.25,345.71l19.96,-3.6c-4.05,19.17 -8.73,30.03 -23.64,43.13l-8.63,-13.74l12.31,-25.8l0,0.01z" />
            <path id="H_logo" d="m971.03,319.83l5.91,-16.69l12.78,-2.88l5.75,-22.36l14.38,-2.24c-6.18,22.04 -8.84,36.1 -8.95,61.34l-15.02,3.83l1.28,-25.24l-16.13,4.23l0,0.01z" />
            <mask id="sweater_mask">
              <rect width="1300" height="1300" fill="#fff"/>
              <use href="#H_logo" fill="#000" />
              <use href="#sigil_logo" fill="#000" />
            </mask>
          </defs>
          <use href="#H_logo" fill="pat(xlove,var(--outline-color),var(--accent-color),1,1.25)" />
          <use href="#sigil_logo" fill="pat(xlove,var(--outline-color),var(--accent-color),1,1.25)" />
          <use href="#sweater_matte" mask="url(#sweater_mask)" fill="var(--accent-color, none)" />
        </g>
    
        <g id="pin_body">
         <path id="cuff_fill" d="m1049.03,400.02l18.56,-2.14l19.92,2.75l-1.91,3.39l-18.01,1.06l-16.95,-2.75l-1.61,-2.31z" 
           fill="var(--accent-color, var(--outline-color, #000))"
         />
         <path d="m1049.03,400.02l18.56,-2.14l19.92,2.75l-1.91,3.39l-18.01,1.06l-16.95,-2.75l-1.61,-2.31z" 
           fill="var(--outline-color, #000)" fill-opacity="0.25"
         />
         <path d="m1040.04,196.88l0.37,0.33l0.15,0.44l0,1.42l1.47,12.86l1.32,9.92l-0.07,0.54l-0.29,0.33l-0.22,0.11l-0.29,-0.22l-0.22,-0.44l-1.32,-10.03l-1.47,-12.86l-0.07,-1.53l0.15,-0.54l0.29,-0.33l0.22,0l-0.02,0z" />
         <path d="m1034.18,202.28l0.4,0.3l0.2,0.4l0.1,1.3l0.7,4.1l2.5,10l2,7.3l-0.1,0.5l-0.4,0.4l-0.2,0.1l-0.5,-0.2l-0.3,-0.4l-2,-7.3l-2.5,-10.1l-0.7,-4.2l-0.1,-1.4l0.2,-0.5l0.4,-0.3l0.3,0z" />
         <path d="m1026.48,207.98l0.5,0.2l0.3,0.4l0.1,1.2l2.8,11.4l2.4,11l-0.1,0.5l-0.4,0.4l-0.3,0l-0.5,-0.1l-0.2,-0.5l-2.4,-10.9l-2.8,-11.4l-0.2,-1.4l0.2,-0.5l0.4,-0.3l0.2,0z" />
         <path d="m983.88,207.18l0.5,0.1l0.3,0.4l2.3,7.2l0.9,3.5l2.2,10.8l0.8,4.9l-0.1,0.5l-0.4,0.3l-0.3,0l-0.5,-0.2l-0.2,-0.4l-0.8,-4.9l-2.2,-10.6l-0.9,-3.5l-2.2,-7.1l0,-0.5l0.4,-0.4l0.2,-0.1z" />
         <path d="m899.58,367.08l0.7,0.9l0.3,1l0,1l-0.4,1l-0.7,1.1l-10.2,21.9l-7.4,13.6l-0.7,0.8l-0.9,0.6l-1.1,0.1l-1,-0.2l-0.9,-0.5l-0.7,-0.8l-0.4,-1l0.1,-1.1l0.3,-1l7.2,-13.3l10.2,-21.8l1,-1.6l0.7,-0.8l0.9,-0.5l1.1,-0.1l1,0.2l0.9,0.5z" />
         <path d="m899.58,377.88l0.4,0.4l0,0.5l-0.9,2.7l-2.6,6l-4.7,9.8l-4.1,9.2l-3.7,9.3l-0.4,0.4l-0.5,0l-0.2,-0.1l-0.3,-0.4l0,-0.5l3.7,-9.2l4.1,-9.3l4.7,-9.8l2.6,-6l0.9,-2.5l0.3,-0.5l0.5,-0.1l0.2,0.1z" />
         <path d="m906.28,383.18l0.4,0.4l0.1,0.5l-0.3,1.5l-0.9,2.5l-1.6,3.3l-5.6,10.4l-5.4,10.5l-1.5,3.3l-0.4,0.4l-0.5,0l-0.3,-0.1l-0.3,-0.4l0.1,-0.5l1.6,-3.4l5.4,-10.5l5.6,-10.4l1.5,-3.2l0.8,-2.4l0.3,-1.3l0.3,-0.5l0.5,-0.1l0.2,0z" />
         <path d="m914.08,391.48l0.4,0.4l0.1,0.5l-0.4,1.5l-1.4,4l-4.2,10.6l-4.1,9.9l-4.8,11l-0.4,0.4l-0.5,0l-0.3,-0.1l-0.3,-0.4l0.1,-0.6l4.8,-10.9l4.1,-9.8l4.2,-10.7l1.3,-3.8l0.4,-1.5l0.2,-0.4l0.5,-0.2l0.3,0.1z" />
         <path d="m926.48,398.28l0.4,0.4l0.1,0.5l-0.6,2.4l-4.2,11.5l-4.2,10.5l-4.2,10.2l-0.3,0.4l-0.5,0l-0.3,-0.1l-0.3,-0.4l0,-0.5l4.2,-10.2l4.2,-10.4l4.1,-11.4l0.6,-2.3l0.3,-0.5l0.5,-0.1l0.2,0z" />
         <path d="m950.88,508.88l0.5,0l0.4,0.4l1.1,2l2,3.1l2.5,3.1l3.3,3.3l1.4,1.2l4.4,3.4l3.2,2l6.1,3.5l4.3,2.1l3.2,1.5l0.2,0.4l0,0.3l-0.1,0.2l-0.4,0.3l-0.5,0l-3.1,-1.3l-4.3,-2.2l-6.2,-3.4l-3.3,-2.1l-4.5,-3.5l-1.4,-1.2l-3.4,-3.5l-2.6,-3.1l-2.1,-3.3l-1.1,-2.1l-0.1,-0.6l0.3,-0.4l0.2,-0.1z" />
         <path d="m930.48,464.88l-0.6,0.9l-0.9,0.6l-1,0.2l-1.1,0l-1.3,-0.4l-1,-0.5l-0.8,-0.8l-0.4,-1l0,-1.1l0.3,-1.1l0.7,-1.1l1.7,-1.4l6.2,-1.8l12.3,-2.8l9.9,-1.9l7.2,-1.3l10,-1.4l5.3,-0.6l15.7,-1.5l15.9,-1.2l11.7,-0.4l11.2,-0.2l8.8,0.2l4.9,0.2l7.8,0.6l4.4,0.5l4.1,0.6l3.9,0.7l5.6,1.3l3.2,1l2.8,0.9l2.8,1.1l3.8,1.9l3,1.7l2.1,1.6l1.6,1.3l1.1,1.2l0.5,0.9l0.2,1.1l-0.1,1l-0.6,0.9l-0.8,0.7l-1,0.4l-1,0l-1,-0.3l-0.8,-0.7l-0.9,-0.9l-1,-0.9l-1.8,-1.2l-2.5,-1.5l-3.4,-1.7l-2.3,-0.9l-2.6,-0.8l-2.9,-0.9l-5.4,-1.3l-3.5,-0.6l-3.9,-0.6l-7.1,-0.7l-9.5,-0.5l-8.5,-0.1l-11,0.1l-11.6,0.4l-15.7,1.1l-15.5,1.6l-5.3,0.6l-9.7,1.4l-7.2,1.2l-9.7,1.9l-10.1,2.2l-5,1.3l-0.2,0.8z" />
         <path d="m919.78,432.18l0.9,0.7l0.5,0.9l0.2,1l-0.1,1l-0.5,1.4l-0.6,2.9l-1.5,10.1l-0.5,6l-0.1,6.2l0.1,2.8l-0.1,1.1l-0.5,0.9l-0.7,0.8l-1,0.4l-1,0.1l-1.1,-0.3l-0.8,-0.6l-0.6,-0.9l-0.3,-1l-0.1,-3.1l0.1,-6.7l1,-10.2l1.1,-6.7l0.7,-3.3l0.6,-1.8l0.5,-0.9l0.8,-0.7l1,-0.4l1,0l1,0.3z" />
         <path d="m914.18,464.88l1,-0.5l1.1,-0.1l1,0.3l0.9,0.6l1.1,1l0.9,0.7l1.2,0.7l2.8,1.2l3,1l1.3,0.4l1,0.4l0.8,0.7l0.5,1l0.1,1l-0.3,1.1l-0.6,0.8l-0.8,0.7l-1,0.3l-1.2,-0.1l-3.6,-1.1l-2.7,-1l-2,-0.9l-1.7,-1l-1.4,-1l-1.7,-1.5l-0.6,-0.9l-0.3,-1l0.1,-1.1l0.4,-0.9l0.7,-0.8z" />
         <path d="m1091.28,416.38l1,0.1l0.9,0.5l0.7,0.7l0.4,0.9l2.8,11.1l3,15.7l2.1,16.8l-0.1,1l-0.5,0.9l-0.7,0.7l-0.9,0.4l-1,0.1l-0.9,-0.3l-0.9,-0.6l-0.5,-0.8l-0.3,-0.9l-2,-16.4l-2.9,-15.4l-2.8,-10.9l0,-1l0.2,-1l0.6,-0.8l0.9,-0.5l0.9,-0.3z" />
         <path d="m1087.98,469.28l-0.1,-1.1l0.3,-1l0.7,-0.9l0.9,-0.6l1.2,-0.5l1,-0.6l2.1,-1.6l1,-0.9l0.9,-0.6l1.1,-0.2l1,0.1l1,0.5l0.7,0.7l0.4,1l0.1,1.1l-0.3,1l-0.6,0.8l-1.4,1.2l-2.5,1.9l-1.6,1l-1.7,0.8l-1,0.2l-1.1,-0.1l-0.9,-0.5l-0.8,-0.8l-0.4,-0.9z" />
         <path d="m1017.98,263.68l0.6,0l0.5,0.2l0.4,0.3l0.3,0.4l3.5,7.5l4.8,8.7l0.2,0.5l0,0.5l-0.2,0.5l-0.3,0.4l-0.5,0.3l-0.5,0.1l-0.5,-0.1l-0.5,-0.3l-0.3,-0.4l-4.9,-8.8l-3.6,-7.7l-0.2,-0.5l0.1,-0.5l0.2,-0.5l0.4,-0.4l0.5,-0.2z" />
         <path d="m990.48,253.28l0.3,-0.3l0.5,-0.3l0.5,-0.1l0.5,0.1l1.2,0.5l0.6,0.4l0.8,0.9l0.2,0.4l0.6,1.4l0.3,1.4l0.1,1.4l-0.1,2l-0.7,3.4l-0.5,1.6l-1.9,5.3l-5.1,12.4l-8.2,18.6l-7.9,17.6l-9,19.9l-9.2,19.9l-4.7,10.3l-5.8,12.8l-4.6,11.3l-1.4,3.7l-1.1,3.4l-1.5,5.2l-1,4.1l-0.5,3l-0.4,3.4l-0.1,0.5l-0.3,0.4l-0.4,0.3l-0.5,0.1l-0.5,0l-0.4,-0.2l-0.4,-0.4l-0.2,-0.4l-0.1,-0.6l0.4,-3.5l0.6,-3.1l0.9,-4.3l1.6,-5.3l1.1,-3.6l1.4,-3.7l4.8,-11.4l5.7,-12.9l4.8,-10.4l9.2,-19.8l9,-19.8l7.8,-17.7l8.2,-18.6l5.1,-12.2l1.8,-5.2l0.4,-1.4l0.7,-3.2l0.1,-1.6l-0.1,-0.9l-0.3,-1l-0.3,-0.8l-0.4,-0.5l-0.9,-0.3l-0.4,-0.3l-0.4,-0.4l-0.1,-0.5l0,-0.5l0.2,-0.5z" />
         <path d="m930.88,463.58l1.1,0.2l0.8,0.6l0.7,0.9l0.3,1l1.3,9.6l1,6l1.3,5.6l0.7,3l1.7,5.6l2.4,6.8l2.3,5.7l1.5,3.3l1.6,3.1l1.8,3.1l3.3,4.9l2.1,2.7l3.9,4.3l2.4,2.5l2.4,2.3l3.9,3.4l4.1,3.2l3.7,2.6l5.2,3.5l3.2,1.7l0.9,0.7l0.5,0.9l0.3,1l-0.2,1.1l-0.4,0.9l-0.8,0.7l-1,0.4l-1.1,0.1l-1,-0.3l-1.6,-0.9l-4.4,-2.6l-3.1,-2.1l-3.8,-2.8l-4.3,-3.3l-4.2,-3.7l-2.5,-2.4l-2.6,-2.6l-4.1,-4.6l-2.4,-3.1l-3.5,-5.2l-2,-3.4l-1.8,-3.4l-1.6,-3.5l-2.4,-6l-1.3,-3.6l-1.2,-3.5l-1.8,-5.8l-0.8,-3.3l-1.2,-5.7l-1.2,-6.3l-1.3,-9.9l0.1,-1.1l0.4,-1l0.7,-0.7l1,-0.5l1,-0.1z" />
         <path d="m990.58,240.58l0.8,0.6l0.6,0.9l0.3,1.1l-0.1,1.1l-0.4,1.3l-1.5,7.2l-1.7,6.6l-2.1,6.7l-3,7.8l-2.9,6.6l-1.7,3.7l-3.5,6.7l-4.7,8.5l-4.3,7.3l-5.6,9.1l-3,4.7l-8.7,12.8l-8.7,12.3l-6.4,8.6l-5.5,6.8l-4.7,5.7l-6.8,7.9l-4,4.3l-0.9,0.6l-1.1,0.3l-1,-0.1l-1,-0.4l-0.8,-0.7l-0.5,-1l-0.1,-1.1l0.3,-1.1l0.6,-0.9l3.8,-4.1l6.7,-7.7l4.7,-5.7l5.4,-6.7l6.3,-8.4l8.6,-12.2l8.5,-12.7l3,-4.6l5.6,-9l6.6,-11.4l5.6,-10.6l1.6,-3.5l2.8,-6.4l2.9,-7.5l2.1,-6.4l1.6,-6.2l1.3,-7l0.6,-1.9l0.5,-1l0.7,-0.7l1,-0.5l1.1,0l1.1,0.3z" />
         <path d="m905.68,374.18l0.5,-0.2l0.6,0l0.5,0.2l0.4,0.4l1.8,2.3l3.4,3.6l3.8,3.4l3.3,2.5l3.7,2.2l2.5,1.2l2.3,0.9l3.3,1l2.4,0.6l0.5,0.1l0.4,0.4l0.3,0.5l0.1,0.5l-0.1,0.5l-0.3,0.5l-0.4,0.4l-0.5,0.2l-1,-0.1l-2.1,-0.5l-3.7,-1.2l-2.4,-0.9l-2.7,-1.3l-1.5,-0.8l-2.5,-1.5l-3.6,-2.8l-4,-3.6l-3.5,-3.7l-2,-2.5l-0.2,-0.4l-0.1,-0.6l0.1,-0.5l0.3,-0.5l0.4,-0.3z" />
         <path d="m1025.18,255.78l0.5,0.2l0.3,0.4l0.3,0.5l0,0.5l-0.2,1.3l0.1,2.4l0.4,3.9l3,20.4l2.9,17.4l3.2,20l3.7,23.8l1.7,11l0,0.6l-0.2,0.5l-0.3,0.4l-0.5,0.2l-0.5,0.1l-0.5,-0.1l-0.5,-0.3l-0.3,-0.4l-0.2,-0.5l-1.7,-11l-3.7,-23.8l-3.2,-20l-2.9,-17.4l-3.1,-20.5l-0.4,-4l0,-2.8l0.2,-1.5l0.1,-0.6l0.3,-0.4l0.5,-0.3l0.5,-0.1l0.5,0.1z" />
         <path d="m1045.66,224.56l0.98,0.2l0.88,0.49l0.59,0.89l0.29,0.98l0.39,2.56l2.16,10.73l2.36,9.16l4.72,16.05l7.17,21.66l11.69,33.67l5.6,15.16l5.8,14.37l2.06,4.82l0.29,0.98l-0.1,0.98l-0.49,0.98l-0.69,0.69l-0.98,0.39l-0.98,0.1l-0.98,-0.3l-0.88,-0.59l-0.59,-0.89l-2.16,-4.92l-5.8,-14.47l-5.7,-15.26l-11.69,-33.87l-7.17,-21.76l-4.81,-16.15l-2.46,-9.55l-2.16,-10.93l-0.39,-2.86l0,-1.08l0.39,-0.89l0.69,-0.79l0.88,-0.49l1.08,-0.1l0.01,0.04z" />
         <path d="m1045.78,401.28l-0.1,0.5l-0.3,0.4l-0.4,0.3l-0.6,0.2l-2.6,0.1l-0.6,0l-0.5,-0.3l-0.3,-0.5l-0.2,-0.5l0.1,-0.6l0.2,-0.5l0.5,-0.4l1.5,-0.8l1.6,-0.4l6.3,-1l7,-0.7l8.7,-0.3l6.5,0.1l4.7,0.3l5.5,0.8l3.2,0.7l2.5,0.7l3.5,1.2l1.5,0.7l0.4,0.3l0.3,0.5l0.1,0.5l0,0.5l-0.3,0.5l-0.4,0.4l-0.4,0.2l-0.6,0l-0.5,-0.1l-1.4,-0.7l-3.1,-1l-2.4,-0.7l-3,-0.7l-5.3,-0.8l-4.4,-0.3l-6.3,0l-8.6,0.3l-6.9,0.6l-6,1l-0.5,-2.2l0.5,0.1l0.5,0.2l0.4,0.4l0.2,0.5l0,0.5z"  />
         <path d="m925.38,421.48l-0.1,0.6l-0.3,0.4l-0.4,0.3l-0.6,0.2l-1.4,0.2l-0.6,-0.1l-0.5,-0.3l-0.4,-0.4l-0.2,-0.6l0,-0.6l0.3,-0.6l1.5,-1.9l0.5,-0.4l3.3,-1.8l4.7,-2.1l2.3,-0.9l8,-2.9l9.3,-3l7.9,-2.3l4.2,-1.1l11.8,-2.9l11.7,-2.5l8.3,-1.5l4,-0.6l9.5,-1.1l8.1,-0.6l4.4,0.1l3.4,0.2l2.6,0.3l1.8,0.4l1.3,0.3l0.5,0.2l0.4,0.4l0.2,0.5l0.1,0.5l-0.2,0.6l-0.3,0.4l-0.4,0.3l-0.5,0.2l-0.6,-0.1l-1.2,-0.3l-1.7,-0.3l-2.3,-0.3l-3.3,-0.2l-4.2,0l-7.8,0.5l-9.4,1.1l-3.9,0.6l-8.2,1.5l-11.6,2.5l-11.7,2.9l-4.1,1.1l-7.9,2.2l-9.2,3l-7.9,2.8l-2.2,0.9l-4.5,2l-2.6,1.5l0.1,0.2l0,0.5z" />
         <path d="m894.4,369.66l-0.13,-1.1l0.39,-1l0.78,-0.9l1.04,-0.6l1.44,-0.5l0.91,-0.2l2.22,-0.3l2.35,-0.2l2.48,0.1l2.61,0.4l2.74,0.7l2.09,0.7l1.18,0.5l1.04,0.6l0.65,0.9l0.26,1.1l-0.13,1l-0.65,1l-1.04,0.7l-1.31,0.3l-1.44,0.1l-1.31,-0.4l-0.91,-0.4l-1.44,-0.5l-1.96,-0.5l-1.44,-0.2l-1.31,0l-1.57,0.1l-1.04,0.2l-1.04,0.4l-1.31,0.2l-1.44,0l-1.18,-0.5l-1.04,-0.8l-0.52,-0.9l0.03,0z" />
         <path d="m877.98,402.58l1,-0.2l1.1,0.3l0.9,0.5l0.6,0.9l2.1,3.6l2.2,3.2l3.2,3.6l2.9,3l2.8,2.4l2,1.4l2,1.4l4.2,2.6l3.9,2.2l6.3,3.2l5.3,2.3l0.9,0.6l0.7,0.8l0.3,1l0,1l-0.4,1l-0.7,0.8l-0.9,0.5l-1.1,0.2l-1,-0.2l-0.5,-0.2l-5.3,-2.3l-6.5,-3.3l-4.1,-2.3l-4.3,-2.7l-2.4,-1.6l-2.1,-1.6l-2,-1.6l-2.9,-2.7l-3,-3.2l-2,-2.5l-2.6,-3.6l-2.4,-4.2l-0.3,-1l0,-1l0.4,-1l0.7,-0.8l1,-0.5z" />
         <path d="m930.68,420.68l0.3,0.5l-0.2,0.5l-0.8,1.2l-1.4,4l-1.8,8l-1.9,12l-1.1,9.1l-0.2,0.5l-0.5,0.2l-0.2,0l-0.5,-0.3l-0.1,-0.5l0.4,-4.2l1.7,-11.8l2.2,-11.4l1,-3.4l1,-2.8l1,-1.5l0.4,-0.3l0.5,0.1l0.2,0.1z" />
         <path d="m940.08,416.28l0.4,0.3l0,0.5l-2.3,11.5l-1.5,9l-0.4,5.4l0,4l0.3,3.6l-0.2,0.4l-0.3,0.1l-0.2,0.1l-0.5,-0.2l-0.2,-0.2l-0.1,-0.6l-0.2,-1.7l-0.2,-3.3l0.1,-3.6l0.4,-4.1l1.5,-9.2l2.3,-11.5l0.3,-0.5l0.5,-0.1l0.3,0.1z" />
         <path d="m956.68,412.78l0.4,0.4l0,0.5l-0.7,2.3l-2.2,10.8l-1.1,7.8l-0.6,5.3l0,3.7l0.3,2.9l-0.2,0.5l-0.2,0.1l-0.6,0l-0.4,-0.3l-0.1,-0.4l-0.2,-1.5l-0.1,-1.3l0,-3.7l0.5,-5.5l1.2,-7.8l2.3,-10.9l0.6,-2.5l0.4,-0.4l0.5,-0.1l0.2,0.1z" />
         <path d="m987.88,401.98l0.4,0.3l0,0.6l-0.3,1.3l-0.2,6.8l0.3,11.1l0.5,10.2l0.4,6.5l-0.2,0.5l-0.4,0.2l-0.3,0.1l-0.2,-0.1l-0.4,-0.4l-0.1,-1.3l-0.6,-11.8l-0.4,-9.2l-0.1,-8.2l0.2,-4.5l0.3,-1.6l0.3,-0.4l0.5,-0.2l0.3,0.1z" />
         <path d="m1016.98,399.18l0.4,0.4l0,0.5l-0.3,1.2l-0.9,8.5l-0.3,8.3l0.1,7.2l0.6,11.1l0.3,3l-0.2,0.5l-0.4,0.3l-0.3,0l-0.4,-0.2l-0.3,-0.5l-0.2,-3l-0.6,-11.2l-0.1,-7.3l0.3,-8.3l0.9,-8.6l0.4,-1.4l0.3,-0.4l0.5,-0.2l0.2,0.1z" />
         <path d="m1037.58,414.68l0.5,0.1l0.4,0.4l0.4,1.6l1.4,11l1.3,8.6l-0.1,0.5l-0.5,0.4l-0.2,0l-0.5,-0.2l-0.3,-0.5l-1.3,-8.6l-1.3,-11l-0.4,-1.3l0,-0.5l0.4,-0.4l0.2,-0.1z" />
         <path d="m1057.08,418.18l0.6,0.1l0.3,0.3l0.8,1.8l0.8,3.3l0.6,3.8l0.5,7l0.3,8.5l-0.2,0.5l-0.5,0.2l-0.2,0l-0.5,-0.2l-0.2,-0.5l-0.3,-8.5l-0.5,-6.8l-0.5,-3.7l-0.7,-3.2l-0.8,-1.5l0,-0.5l0.3,-0.5l0.2,-0.1z" />
         <path d="m1068.78,419.38l0.5,0.1l0.3,0.4l0.8,3.9l0.9,9.2l0.6,12.1l0,0.7l-0.4,0.5l-0.2,0.1l-0.3,0l-0.4,-0.3l-0.2,-0.2l0,-0.7l-0.6,-12.1l-0.9,-9.1l-0.8,-3.7l0.1,-0.5l0.3,-0.4l0.3,0z" />
         <path d="m1078.78,420.28l0.5,0.2l0.2,0.5l0.1,1.2l2.3,11.4l1.7,10.8l-0.2,0.5l-0.4,0.3l-0.2,0.1l-0.5,-0.2l-0.3,-0.5l-1.6,-10.7l-2.3,-11.5l-0.1,-1.3l0.1,-0.5l0.5,-0.3l0.2,0z" />
         <path d="m1082.88,420.08l0.5,0.1l0.3,0.4l1,3.9l1.7,8.6l1.2,7l1.3,11.1l-0.2,0.5l-0.4,0.3l-0.2,0l-0.5,-0.2l-0.2,-0.5l-1.4,-11l-1.1,-7l-1.6,-8.5l-1.1,-3.7l0.1,-0.6l0.3,-0.4l0.3,0z" />
         <path d="m1034.03,361.62l0.4,0.2l0.2,0.6l-0.2,1.8l1.1,11.1l0.9,11l0.9,10.6l-0.1,0.5l-0.4,0.3l-0.3,0l-0.5,-0.2l-0.2,-0.5l-0.9,-10.6l-0.9,-11l-1.1,-11.1l0.1,-2.1l0.3,-0.4l0.4,-0.3l0.3,0.1z"  />
         <path d="m1038.25,360.58l0.4,0.3l0.1,0.5l0,1.3l1.5,10.7l1.4,11l0.8,8.4l-0.1,0.6l-0.4,0.3l-0.3,0l-0.5,-0.2l-0.2,-0.5l-0.9,-8.5l-1.3,-10.9l-1.6,-10.8l0.1,-1.5l0.2,-0.5l0.5,-0.2l0.3,0z"  />
         <path d="m1050.18,359.78l0.4,0.3l0.2,0.5l0,1.3l0.7,10l1,7.3l2.1,11.2l0.3,1.6l-0.2,0.5l-0.2,0.2l-0.3,0l-0.5,-0.1l-0.2,-0.2l-0.4,-1.7l-2.2,-11.2l-0.9,-7.5l-0.8,-10l0.1,-1.5l0.2,-0.5l0.4,-0.2l0.3,0z" />
         <path d="m1063.08,357.63l0.6,0l0.5,0.33l1.1,1.86l0.5,1.64l0.6,3.4l0.6,6.03l0.5,14.79l0,2.96l-0.4,0.44l-0.3,0.11l-0.3,0l-0.3,-0.11l-0.4,-0.44l0,-2.96l-0.6,-14.68l-0.6,-5.92l-0.5,-3.18l-0.4,-1.42l-0.9,-1.42l-0.2,-0.66l0.2,-0.55l0.3,-0.22z"  />
         <path d="m1086.53,358.69l0.52,0.29l0.28,0.48l0.38,1.47l0.05,1.43l0.07,2.19l-0.31,11.64l-0.92,12.98l-0.28,2.26l-0.38,0.38l-0.34,0.06l-0.22,-0.03l-0.52,-0.29l-0.07,-0.34l-0.06,-0.44l1.04,-13.07l0.45,-10.09l-0.15,-5.15l-0.33,-2.78l0.07,-0.54l0.49,-0.37l0.23,-0.08z"  />
         <path d="m1097.58,361.97l0.5,0.32l0.1,0.53l-1.7,11.7l-1.7,11.06l-1.2,7.55l-0.3,0.43l-0.5,0.21l-0.2,-0.11l-0.4,-0.32l-0.1,-0.53l1.2,-7.55l1.7,-11.06l1.6,-11.6l0.3,-0.53l0.5,-0.11l0.2,0l0,0.01z"  />
         <path d="m1103.98,366.14l0.4,0.33l0.2,0.55l-0.7,12.57l-1.3,11.92l-0.5,3.72l-0.2,0.55l-0.5,0.22l-0.3,-0.11l-0.4,-0.33l-0.1,-0.55l0.5,-3.72l1.2,-11.92l0.7,-12.46l0.2,-0.55l0.5,-0.22l0.3,0z"  transform="matrix(1 0 0 1 0 0) rotate(2.09306 1102.58 381.058)"/>
         <path d="m1014.88,214.18l0.5,0.1l0.3,0.4l0.6,1.5l2.2,11.9l1.3,6.7l-0.1,0.5l-0.4,0.3l-0.3,0.1l-0.5,-0.2l-0.2,-0.4l-1.3,-6.8l-2.2,-11.7l-0.5,-1.4l0,-0.5l0.3,-0.4l0.3,-0.1z" />
         <path d="m1004.78,224.58l0.5,0.2l0.2,0.5l0.2,1.4l2.1,11.2l0.9,5.8l-0.1,0.5l-0.4,0.3l-0.3,0l-0.5,-0.2l-0.2,-0.4l-0.9,-5.8l-2.1,-11.2l-0.2,-1.5l0.1,-0.5l0.5,-0.3l0.2,0z" />
         <path d="m993.78,224.38l0.4,0.3l0.2,0.5l-0.1,1.4l0.2,4.2l1.5,9.7l0.6,3.1l-0.2,0.5l-0.2,0.1l-0.3,0.1l-0.5,-0.2l-0.3,-0.4l-0.6,-2.9l-1.5,-9.8l-0.3,-4.4l0.2,-1.5l0.2,-0.5l0.4,-0.2l0.3,0z" />
         <path d="m1048.49,399.66l0.56,-0.2l0.56,0.1l0.56,0.2l0.45,0.4l0.56,0.6l1.12,0.6l1.67,0.5l2.68,0.5l3.79,0.5l5.69,0.3l7.92,-0.1l5.25,-0.3l5.02,-0.7l1.79,-0.3l0.56,-0.1l0.56,0.1l0.56,0.3l0.33,0.4l0.11,0.6l0,0.5l-0.22,0.5l-0.45,0.4l-0.78,0.2l-3.01,0.7l-4.02,0.5l-5.58,0.3l-8.15,0l-5.8,-0.3l-4.13,-0.5l-2.9,-0.5l-2.12,-0.7l-1.9,-0.8l-0.56,-0.5l-0.78,-0.9l-0.22,-0.5l-0.11,-0.5l0.22,-0.6l0.33,-0.4l0.45,-0.3l-0.01,0z"  />
         <path d="m956.33,346.08l-0.11,-0.5l0.11,-0.5l0.32,-0.5l0.54,-0.3l1.71,-0.8l4.28,-1.1l5.89,-1.2l6.1,-0.8l2.78,-0.2l0.64,0.1l0.43,0.2l0.43,0.4l0.21,0.5l0.11,0.5l-0.21,0.5l-0.32,0.4l-0.43,0.3l-0.64,0.2l-2.68,0.2l-5.89,0.7l-5.68,1.2l-3.96,1l-1.39,0.6l-0.54,0.2l-0.54,-0.1l-0.54,-0.2l-0.43,-0.3l-0.21,-0.5l0.02,0z"  />
         <path d="m978.88,341.48l0.4,0.3l0.3,0.4l0.1,0.6l0,0.5l-0.4,1.1l-0.8,4.4l-1.8,6.4l-1.4,3.9l-1.8,4.1l-2.2,4.1l-2.5,4.1l-2.7,3.8l-2.9,3.4l-4.8,5.2l-2.6,2.4l-0.8,0.6l-0.6,0.1l-0.5,-0.1l-0.5,-0.2l-0.3,-0.4l-0.2,-0.5l0,-0.5l0.2,-0.5l0.3,-0.5l2.8,-2.6l4.8,-5l2.7,-3.3l2.6,-3.6l2.4,-3.9l2,-4l1.8,-3.9l1.3,-3.7l1.7,-6.1l0.8,-4.3l0.4,-1.4l0.3,-0.4l0.3,-0.4l0.5,-0.2l0.5,-0.1l0.6,0.2z" />
         <path d="m946.28,369.28l0.5,0.1l0.5,0.3l0.3,0.4l0.2,0.5l0.3,1.1l0.6,1.7l1.2,2.5l1.3,2.2l2.6,3.5l0.8,1l0.3,0.5l0.1,0.5l-0.1,0.5l-0.3,0.5l-0.4,0.3l-0.5,0.2l-0.5,0l-0.5,-0.2l-0.4,-0.4l-0.9,-1l-2.7,-3.7l-1.5,-2.4l-1.3,-2.8l-0.7,-2l-0.4,-1.4l0,-0.5l0.2,-0.5l0.3,-0.5l0.5,-0.2l0.5,-0.2z" />
         <path d="m994.68,278.48l0.1,-0.5l0.2,-0.5l0.5,-0.3l0.5,-0.2l14.3,-2.6l0.5,0l0.5,0.2l0.4,0.3l0.3,0.5l0.1,0.5l-0.1,0.5l-0.3,0.5l-0.4,0.3l-0.5,0.2l-14.4,2.6l-0.5,0l-0.5,-0.2l-0.4,-0.3l-0.3,-0.5l0,-0.5z" />
         <path d="m1011.08,275.78l0.3,0.4l0.2,0.5l0.1,0.6l-0.2,0.5l-1.2,2.6l-1.4,3.5l-1.6,5.6l-0.9,3.6l-1.2,5.8l-1.2,8.9l-0.8,8.8l-0.4,8l-0.1,12.5l-0.1,0.5l-0.3,0.4l-0.4,0.4l-0.4,0.2l-0.6,0l-0.5,-0.2l-0.4,-0.3l-0.3,-0.4l-0.1,-0.5l0.1,-12.6l0.4,-8.3l0.8,-8.9l1.3,-9l1.2,-5.9l0.9,-3.8l1.7,-5.8l1.4,-3.7l1.4,-2.9l0.3,-0.4l0.5,-0.3l0.5,-0.1l0.5,0.1l0.5,0.2z" />
         <path d="m984.48,340.38l0.11,-0.5l0.33,-0.5l0.44,-0.3l0.55,-0.2l14.25,-2.8l0.66,0l0.55,0.1l0.44,0.3l0.33,0.5l0.11,0.5l0,0.5l-0.33,0.5l-0.44,0.4l-0.55,0.2l-14.47,2.8l-0.55,0l-0.55,-0.2l-0.55,-0.3l-0.22,-0.5l-0.11,-0.5z" />
         <path d="m968.04,320.78l-0.22,-0.5l0,-0.5l0.22,-0.5l0.32,-0.4l1.18,-0.9l0.54,-0.3l2.91,-0.9l5.38,-1.2l9.47,-1.5l0.65,0l0.54,0.2l0.43,0.4l0.22,0.4l0.11,0.5l-0.11,0.6l-0.32,0.4l-0.43,0.4l-0.54,0.1l-9.36,1.5l-5.17,1.1l-2.48,0.8l-0.86,0.7l-0.43,0.3l-0.65,0.1l-0.54,-0.1l-0.54,-0.3l-0.32,-0.4z"  />
         <path d="m974.77,305.38l-0.2,-0.5l0,-0.5l0.2,-0.5l0.3,-0.4l1.22,-1l0.41,-0.2l3.04,-1l3.04,-0.7l3.45,-0.6l3.04,-0.3l0.61,0l0.51,0.3l0.3,0.3l0.3,0.5l0,0.6l-0.2,0.5l-0.3,0.4l-0.41,0.3l-0.51,0.1l-4.97,0.6l-4.06,0.9l-2.54,0.8l-0.91,0.8l-0.41,0.3l-0.61,0.1l-0.51,-0.1l-0.51,-0.3l-0.3,-0.4l0.02,0z"  />
         <path d="m997.58,278.37l0.3,0.39l0.2,0.49l0.1,0.49l-0.2,0.49l-1.2,2.46l-1.4,3.35l-1.5,4.24l-2.4,9.07l-0.4,2.07l-0.2,0.49l-0.3,0.39l-0.5,0.3l-0.5,0.1l-0.5,-0.1l-0.5,-0.3l-0.3,-0.39l-0.2,-0.49l0,-0.49l2.3,-9.36l1.3,-4.44l1.7,-4.44l1.2,-2.66l0.7,-1.28l0.3,-0.39l0.5,-0.3l0.5,-0.1l0.5,0.1l0.5,0.3l0,0.01z"  />
         <path d="m988.58,315.08l0.4,0.2l0.4,0.4l0.2,0.5l0,0.6l-0.6,4.4l-0.5,5l-0.8,13.5l-0.1,0.6l-0.3,0.4l-0.4,0.3l-0.6,0.2l-0.5,0l-0.5,-0.2l-0.4,-0.4l-0.2,-0.4l-0.1,-0.6l0.8,-13.7l0.5,-5l0.7,-4.6l0.1,-0.5l0.4,-0.4l0.4,-0.3l0.6,-0.1l0.5,0.1z" />
         <path d="m924.68,418.48l0.4,0.4l0.2,0.5l0.1,0.5l-0.2,0.5l-2,4.3l-1.1,2.9l-1,3.8l-0.8,3.9l-0.1,0.5l-0.4,0.4l-0.4,0.2l-0.5,0.1l-0.6,0l-0.4,-0.3l-0.4,-0.4l-0.2,-0.5l0,-0.5l0.1,-0.7l0.7,-3.4l1.1,-4l1.2,-3.2l2.1,-4.5l0.3,-0.4l0.4,-0.3l0.5,-0.1l0.6,0.1l0.4,0.2z" />
         <path d="m1084.98,458.28l1.1,0.3l1,0.6l0.7,1l0.3,1.1l0.5,5.6l0.3,5.5l-0.1,5.4l-0.4,6.4l-1.1,7.1l-1.7,7.7l-2.4,8.1l-3,8.3l-3.6,8.2l-4,7.8l-4.2,7.1l-2.7,4.1l-4.4,6.1l-2.9,3.6l-1.2,1.4l-1,0.7l-1.1,0.4l-1.1,-0.1l-1.1,-0.4l-0.9,-0.8l-0.5,-1l-0.2,-1.1l0.3,-1.2l0.6,-1l1.1,-1.3l2.7,-3.3l4.3,-5.8l2.5,-3.9l3.9,-6.7l3.9,-7.5l3.4,-7.8l2.9,-8l2.3,-7.7l1.6,-7.2l0.9,-6.7l0.5,-5.8l0,-5l-0.2,-5.2l-0.6,-5.3l0.1,-1.2l0.5,-1l0.8,-0.9l1.1,-0.5l1.1,-0.1z" />
         <path d="m937.98,471.28l-0.2,-0.5l0.1,-0.5l0.2,-0.5l0.4,-0.3l1.4,-0.9l2.8,-1.1l5.6,-1.7l6.4,-1.5l6.1,-1.1l7.1,-0.9l7,-0.5l8.1,-0.2l7.2,0.1l1.7,0.1l0.5,0.1l0.5,0.3l0.3,0.4l0.1,0.5l0,0.6l-0.2,0.4l-0.4,0.4l-0.5,0.3l-0.5,0l-1.7,-0.1l-7,-0.1l-8,0.2l-6.8,0.5l-4.6,0.6l-6.2,1l-7.1,1.5l-6.6,2l-2.5,0.9l-1,0.7l-0.5,0.2l-0.5,0l-0.5,-0.1l-0.5,-0.3l-0.2,-0.5z" />
         <path d="m941.98,481.68l-0.3,-0.4l-0.2,-0.5l0,-0.6l0.2,-0.5l0.7,-1l0.5,-0.5l1.6,-0.9l1.6,-0.7l4.4,-1.6l4.9,-1.3l5.8,-1.3l6.4,-0.9l6.6,-0.7l7.6,-0.3l6.8,0.2l1.6,0.1l0.5,0.1l0.5,0.3l0.3,0.4l0.1,0.5l0,0.6l-0.2,0.5l-0.4,0.3l-0.5,0.3l-0.5,0l-1.6,-0.1l-6.6,-0.1l-7.4,0.3l-6.4,0.6l-6.3,0.9l-5.7,1.2l-4.6,1.3l-4.1,1.5l-1.5,0.7l-1,0.5l-0.5,0.7l-0.3,0.4l-0.5,0.3l-0.5,0.1l-0.5,-0.1l-0.5,-0.3z" />
         <path d="m945.48,489.68l-0.1,-0.5l0,-0.6l0.2,-0.5l0.4,-0.3l1.4,-1l2.5,-1l3.7,-1l5.1,-1l5.2,-0.8l8.5,-0.7l9.4,-0.1l2.1,0.1l0.5,0.1l0.4,0.3l0.3,0.4l0.2,0.6l0,0.5l-0.2,0.5l-0.4,0.4l-0.5,0.2l-0.5,0.1l-2,-0.1l-9.2,0.1l-8.3,0.7l-5,0.7l-4.9,1l-3.5,0.9l-2.1,0.8l-0.9,0.7l-0.5,0.2l-0.5,0.1l-0.5,-0.1l-0.4,-0.3l-0.4,-0.4z" />
         <path d="m1031.32,408.24c-2.22,-13.22 -4.17,-30.4 -4.13,-46.44c26.23,-7.39 70.9,-16.85 87.29,5.93l-9.32,46.61c-9.04,5.18 -45.48,6.69 -68.64,-2.26c30.98,5.37 45.86,4.24 63.28,0l8.19,-39.27c-3.3,-8.85 -22.69,-21.37 -76.84,-8.76c-0.15,14.2 1,28.52 3.11,41.53l-2.93,2.66l-0.01,0z" />
         <path d="m1021.38,242.26c10.77,-5.38 19.16,-12.42 24.46,-21.13c-1.9,-9.11 -4.51,-19.87 -0.71,-33.02c2.14,-8.16 -44.42,-12.27 -63.66,14.01c2.69,8.79 6.1,22.8 7.6,34.92c4.51,4.43 9.98,7.44 17.81,8.31c-8.71,1.11 -17.18,0.55 -23.99,-5.94c-0.95,-13.38 -6.89,-26.76 -10.21,-37.77c9.18,-22.88 75.14,-36.03 79.1,-16.15c-1.43,9.98 -3.8,25.42 0,34.92c-5.38,7.52 -14.09,18.13 -30.4,21.84l0,0.01z" 
          mask="url(#throat_mask)"/>
        </g>
    
        <g id="pin_head">
          <defs>
            <path  id="pin_throat" d="m999.14,165.71c5.91,1.08 12.46,0.24 21.56,-4.43c-1.49,13.21 -2.34,27.69 0.96,38.66c-6.39,5.54 -11.18,11.4 -20.77,14.7c4,-14.6 4.48,-29.21 -1.75,-48.92l0,-0.01z" />
            <mask id="throat_mask">
              <rect width="1300" height="1300" fill="#fff" />
              <use href="#pin_throat" fill="#000" />
            </mask>
          </defs>
          <use href="#pin_throat" fill="var(--accent-color, none)" />
    
         <path d="m999.58,58.18l0.1,0.3l-0.1,0.3l-0.9,0.9l-1.6,2l-2.2,3.4l-2.3,4.3l-2,4.2l-1.6,4.1l-0.9,2.7l-0.9,2.9l-1.3,5.5l-0.7,3.4l-0.5,3.4l-0.5,3.4l-0.3,3.4l0,5.7l0.1,3.3l0.6,5.4l0.4,3.1l0.6,3l0.7,2.7l1.3,4.4l1.4,3.6l1.2,2.8l1,1.9l0.8,1.4l0.7,1.1l0,0.1l-0.1,0.3l-0.1,0.1l-0.4,0l-0.8,-1.1l-0.9,-1.4l-1,-2.1l-1.2,-2.8l-1.4,-3.6l-1.4,-4.4l-0.6,-2.9l-0.6,-2.9l-0.5,-3.2l-0.6,-5.4l-0.1,-3.4l0.1,-5.7l0.3,-3.5l0.4,-3.4l0.6,-3.5l0.7,-3.4l1.3,-5.5l0.9,-2.9l0.9,-2.8l1.7,-4.1l1.9,-4.2l2.4,-4.4l2.2,-3.5l1.7,-2.1l0.9,-0.9l0.3,-0.2l0.2,0.1l0.1,0.1z" />
         <path d="m993.58,163.82l-0.9,0.52l-1.1,0.21l-1,-0.1l-0.9,-0.63l-1.3,-1.05l-2.9,-3.04l-2.2,-2.73l-1.9,-2.73l-1.3,-1.89l-1.3,-2.31l-2.1,-4.3l-1.3,-2.94l-1.1,-3.04l-1.8,-5.46l-0.9,-3.57l-0.8,-3.67l-0.6,-4.09l-0.4,-6.93l-0.1,-4.3l0.2,-4.41l0.3,-4.41l0.3,-2.94l0.7,-4.51l0.9,-4.41l1.2,-4.51l2.5,-7.24l1.7,-4.3l1.8,-4.09l2,-3.99l1.4,-2.62l2.2,-3.67l2.3,-3.46l1.7,-2.31l2.5,-3.25l2.6,-2.94l2.8,-2.83l4.6,-3.99l2.9,-2.1l2.8,-1.89l2.8,-1.68l1.9,-1.05l2.8,-1.15l2.8,-0.94l2.7,-0.63l2.6,-0.31l2.5,0l1.9,0.1l2.5,0.63l2.2,0.84l1.7,0.94l2,1.47l2,1.99l1.4,1.89l0.4,0.52l2.1,4.62l1.2,3.04l0.9,3.36l0.8,3.46l0.4,2.62l0.4,3.88l0.3,4.2l0.1,4.51l-0.4,7.98l-0.4,4.93l-0.5,5.14l-1.2,8.61l-1,5.25l-1,5.35l-1.1,5.35l-3.6,14.38l-3.7,13.65l-7.45,20.18l-0.5,0.94l-0.8,0.73l-1,0.42l-1.1,0l-1,-0.31l-0.8,-0.73l-0.6,-0.94l-0.2,-1.05l0.2,-1.15l7.35,-19.87l3.7,-13.54l3.5,-14.28l1.1,-5.14l1,-5.25l0.9,-5.14l1.2,-8.29l0.5,-4.93l0.4,-4.83l0.4,-7.66l-0.1,-4.09l-0.2,-3.78l-0.5,-3.67l-0.3,-2.2l-0.7,-3.15l-0.9,-2.94l-0.9,-2.62l-1.8,-3.78l-1.2,-1.47l-1.3,-1.26l-1.3,-1.05l-0.9,-0.42l-1.6,-0.63l-1.7,-0.31l-1.1,-0.1l-1.9,0l-2,0.31l-2.1,0.42l-2.3,0.84l-2.3,0.94l-1.6,0.84l-2.5,1.57l-2.6,1.68l-2.5,1.89l-4.4,3.67l-2.4,2.52l-2.4,2.73l-2.3,2.94l-1.5,2.1l-2.1,3.25l-2.1,3.46l-1.3,2.41l-1.8,3.67l-1.8,3.99l-1.5,3.99l-2.4,6.93l-1,3.99l-0.9,4.09l-0.6,4.2l-0.3,2.73l-0.3,4.09l-0.2,4.09l0.1,3.99l0.4,6.61l0.5,3.46l0.7,3.46l0.8,3.25l1.7,4.93l1.1,2.83l1.1,2.62l2,3.99l2.2,3.57l1.8,2.52l1.9,2.31l2.4,2.62l1,0.84l0.7,0.84l0.4,1.05l0,1.15l-0.3,1.05l-0.7,0.84l0,0.01z" />
         <path d="m991.54,160.14l1.06,-0.27l1.16,0.09l1.06,0.36l0.85,0.63l0.42,0.45l0.42,0.27l1.16,0.36l1.38,0.18l1.27,0.18l1.8,0l3.07,-0.27l3.49,-0.63l2.96,-0.9l0.95,-0.36l1.8,-0.9l2.75,-1.53l3.07,-2.25l1.06,-0.27l1.16,0l1.06,0.36l0.74,0.63l0.53,0.9l0.21,0.9l-0.21,0.9l-0.63,0.81l-1.8,1.53l-2.65,1.71l-1.9,0.99l-2.12,1.08l-2.86,0.99l-3.81,0.99l-2.86,0.45l-3.49,0.36l-2.54,0l-1.9,-0.18l-1.9,-0.36l-2.12,-0.54l-0.74,-0.27l-1.27,-0.63l-0.95,-0.72l-0.74,-0.9l-0.53,-0.81l-0.11,-0.99l0.21,-0.9l0.63,-0.81l0.85,-0.63l0.01,0z" />
         <path d="m989.88,199.68l0.6,-0.1l0.5,0.1l0.4,0.3l0.4,0.4l1.3,2.4l0.9,1.4l1,1.2l1.5,1.3l1.3,1l2,1.2l2.9,1.5l1.4,0.5l0.5,0.3l0.3,0.4l0.1,0.5l0,0.6l-0.2,0.4l-0.3,0.4l-0.5,0.3l-0.5,0.1l-0.5,-0.1l-1.4,-0.6l-3.3,-1.6l-2.2,-1.4l-1.5,-1.1l-1.7,-1.5l-1.3,-1.6l-1.1,-1.6l-1.4,-2.5l-0.1,-0.5l0,-0.5l0.1,-0.5l0.4,-0.4l0.4,-0.3z" />
         <path d="m996.18,214.18l0.5,-0.3l0.5,-0.1l0.5,0.2l0.7,0.5l0.7,-0.2l1.6,-0.8l4,-2.4l6.8,-4.9l4.5,-3.4l3,-2.6l4.4,-4.2l1.9,-2.2l0.4,-0.3l0.5,-0.2l0.5,0l0.5,0.2l0.4,0.3l0.3,0.5l0.1,0.5l-0.1,0.5l-0.4,0.6l-1.9,2.2l-4.5,4.4l-3.1,2.6l-4.6,3.6l-7,4.9l-4.2,2.6l-1.9,0.9l-1.8,0.5l-0.8,0.1l-0.7,-0.4l-0.9,-0.8l-0.3,-0.4l-0.2,-0.5l0.1,-0.6l0.2,-0.4l0.3,-0.4z" />
         <path d="m1023.28,159.23l0.7,0.87l0.4,1.09l0,1.09l-0.3,1.09l-0.6,1.2l-1.1,3.7l-0.4,1.85l-0.6,4.46l-0.2,2.83l0,3.92l0.6,5.44l0.4,2.83l1.3,5.44l0.6,2.18l0.3,1.09l-0.2,1.2l-0.5,0.98l-0.8,0.76l-0.9,0.44l-1.1,0.11l-1,-0.44l-0.8,-0.65l-0.6,-0.98l-0.2,-0.54l-1.1,-3.7l-1,-4.46l-0.7,-4.79l-0.4,-4.57l0,-4.46l0.2,-3.16l0.7,-5.01l0.9,-3.92l0.9,-3.05l0.9,-1.85l0.7,-0.98l0.9,-0.54l1.1,-0.22l1,0.22l0.9,0.54l0,-0.01z" />
         <path d="m996.58,163.93l1,-0.29l1.1,0.1l0.9,0.39l0.8,0.68l1,1.47l0.7,1.27l0.8,1.86l0.7,1.76l0.7,2.05l1,3.52l1.1,5.48l0.6,4.3l0.3,3.42l0.1,4.69l-0.1,3.42l-0.6,5.09l-0.6,3.42l-0.5,2.05l-0.4,0.88l-0.8,0.78l-0.9,0.39l-1.1,0.1l-1,-0.2l-0.9,-0.59l-0.6,-0.88l-0.3,-0.98l0.1,-1.08l0.4,-1.76l0.5,-3.03l0.6,-4.79l0.1,-3.03l-0.1,-4.21l-0.1,-1.56l-0.5,-4.01l-1.3,-6.65l-0.8,-3.13l-1.2,-3.33l-1.2,-2.25l-0.6,-0.98l-0.5,-0.88l-0.1,-1.08l0.2,-0.98l0.6,-0.88l0.9,-0.59l0,0.04z" />
        </g>
    
      </g>
    
      <path id="ground_line" d=" m22.89 557.52 l0.5,-1l0.7,-0.7l1,-0.5l1,-0.1l9.3,0.4l9.4,0l46.5,-1.3l42.6,-1.7l20,-0.8l41.3,-1.6l27.1,-0.8l28.9,-0.9l30.5,-0.7l21.3,-0.4l34,-0.5l35.6,-0.4l37.6,-0.2l69.3,0l42.9,0.1l43.7,0.3l44,0.3l29.6,0.3l44.8,0.4l44.8,0.5l44.9,0.5l75.4,0.8l44.7,0.4l77.1,0.2l66.7,0l54.3,-0.1l42.1,-0.3l30.8,-0.2l30.8,-0.4l1,0.2l0.9,0.5l0.7,0.8l0.4,1l0,1.1 l-0.3,1 l-0.7,0.8l-0.9,0.5l-1.1,0.2l-30.7,0.4l-30.9,0.2l-42,0.3l-54.4,0.1l-66.7,0l-77.1,-0.2l-44.7,-0.4l-75.5,-0.8l-44.9,-0.5l-44.8,-0.5l-44.8,-0.4l-29.6,-0.3l-43.9,-0.3l-43.7,-0.2l-42.9,-0.2l-69.3,0l-37.6,0.2l-35.5,0.4l-34,0.5l-21.2,0.4l-30.5,0.8l-28.9,0.8l-27.1,0.9l-41.2,1.5l-20,0.8l-42.7,1.7l-46.6,1.3l-9.5,0l-9.8,-0.4l-1,-0.3l-0.9,-0.6l-0.6,-0.8l-0.3,-1.1l0.1,-1z " />
    
    </g>

  </g>

</defs>

<g id="svgs">

  <svg class="land" viewBox="0 0 1300 550">
    <use href="#logo_stuff" transform="translate(0 0)" />
  </svg>

  <svg class="port" viewBox="0 0 1300 550"> 
    <use href="#logo_stuff" />
  </svg>

</g>



</svg>
    
