<?xml version="1.0"?>
<svg width="1222" height="1463" xmlns="http://www.w3.org/2000/svg" xmlns:svg="http://www.w3.org/2000/svg" display="block" version="1.1">
 <defs>
  <clipPath id="c_1">
   <path d="m0,0l1222,0l0,1463l-1222,0l0,-1463z" id="svg_1"/>
  </clipPath>
  <style>.g0{fill:#5F6368;}</style>
 </defs>
 <g class="layer">
  <title>Layer 1</title>
  <path d="m292.76,206.88l147,-14.11l0,110.84" fill="#000000" fill-opacity="0" id="svg_69" stroke="#7fff00" transform="matrix(1 0 0 1 0 0)"/>
  <path d="m245.77,352.66l47,-147.84l159.04,-43.37l96.39,95.18" fill="#000000" fill-opacity="0" id="svg_68" stroke="#7fff00" transform="matrix(1 0 0 1 0 0)"/>
  <path d="m273.48,414.11l-4.81,-45.43l290.36,-121.69l166.27,69.88l13.25,28.92" fill="none" id="svg_62" stroke="#ff7f00"/>
  <g clip-path="url(#c_1)" id="svg_3">
   <path class="g0" d="m387.5,149.5l-0.4,-0.6l-0.2,-0.7l0.1,-0.7l2.9,-3.9l4.9,-5.7l8.1,-8.4l23.6,-21.6l3.2,-2.5l0.6,-0.1l0.7,0.1l0.7,0.4l0.4,0.5l0.3,0.7l0,0.7l-0.3,0.6l-2.9,2.7l-23.4,21.5l-10.8,11.3l-4.9,6.1l-0.7,0.2l-0.7,0.1l-0.6,-0.2l-0.6,-0.5z" id="svg_4"/>
   <path class="g0" d="m562.7,266.9l0.7,0.2l0.6,0.3l0.5,0.5l3.2,13.3l6.3,21.8l6.3,18.4l3.7,9.5l7.7,17.9l10.5,21.8l0.2,0.7l0,0.7l-0.3,0.6l-0.5,0.6l-0.6,0.3l-0.7,0.1l-0.7,-0.2l-0.6,-0.3l-0.4,-0.6l-10.6,-22l-7.8,-18l-5.5,-14.6l-5.9,-17.7l-7.4,-27.4l-0.7,-4.1l0.3,-0.7l0.4,-0.6l0.6,-0.3l0.7,-0.2z" id="svg_5"/>
   <path class="g0" d="m216.6,135.7l-0.5,-0.5l-0.2,-0.7l-0.1,-0.7l0.2,-0.6l1.9,-3.6l7.3,-6.8l9.8,-8.2l2.3,-1.8l7.7,-5.1l5.4,-3.2l5.4,-2.7l5.2,-2.1l2.6,-0.7l4.8,-0.8l4.6,0.2l3.9,1.5l3.2,2.7l2.4,3.7l1.6,4.4l1.2,5.4l1,8.9l0.5,19.7l-0.8,25.2l-0.2,0.7l-0.4,0.6l-0.5,0.4l-0.7,0.2l-0.7,0l-0.7,-0.3l-0.5,-0.5l-0.3,-0.6l-0.1,-0.7l0.8,-25l-0.5,-19.4l-0.9,-8.6l-1.1,-4.9l-1.5,-3.8l-1.9,-2.9l-2.2,-1.8l-2.7,-0.9l-3.4,-0.2l-4.1,0.8l-2.2,0.6l-4.7,1.9l-5.1,2.6l-7.7,4.7l-7.3,5.1l-9.5,7.9l-6.8,6.5l-1.4,2.7l-0.5,0.6l-0.5,0.4l-0.7,0.1l-0.7,-0.1l-0.7,-0.3z" id="svg_6"/>
   <path class="g0" d="m561.7,250l1.3,-0.4l1.4,0.1l1.3,0.6l1,1l1.5,2.2l3.7,4l5.2,4.4l4.7,3.3l5.9,3.7l7.3,3.9l8.3,3.8l9.7,4.1l16.4,5.6l18.4,5.7l30.7,8.2l44.5,10.3l1.3,0.5l1,0.9l0.7,1.3l0.2,1.4l-0.3,1.3l-0.7,1.2l-1.1,0.9l-1.4,0.4l-1.4,0l-44.7,-10.4l-31,-8.3l-18.7,-5.7l-16.6,-5.7l-10.2,-4.3l-8.7,-4l-7.6,-4.1l-6.4,-3.9l-5.2,-3.7l-5.8,-4.9l-2.7,-2.7l-1.8,-2.1l-1.9,-2.6l-0.5,-1.3l-0.2,-1.4l0.4,-1.4l0.8,-1.1l1.2,-0.8z" id="svg_7"/>
   <path class="g0" d="m211,206.6l1.1,0.9l0.7,1.2l0.2,1.4l-0.2,1.4l-0.6,1.6l-0.6,1.1l-1.7,2.1l-1.5,1.4l-3.5,2.9l-3.9,2.7l-17,10.2l-54.2,30.5l-17.4,9.7l-1.4,0.5l-1.4,-0.1l-1.3,-0.5l-1.1,-0.9l-0.7,-1.3l-0.2,-1.4l0.3,-1.3l0.7,-1.3l1.1,-0.9l17.4,-9.6l54.1,-30.5l16.7,-10l3.5,-2.5l2.9,-2.3l1,-0.9l0.7,-1l0.4,-1l0.7,-1.3l1.1,-0.9l1.3,-0.4l1.4,0l1.4,0.5z" id="svg_8"/>
   <path class="g0" d="m109.6,267.5l1.4,0.1l1.3,0.6l1,1l0.6,1.3l0.4,1.5l12.3,33.2l0.2,1.4l-0.2,1.4l-0.7,1.3l-1.1,0.9l-1.3,0.5l-1.4,0l-1.4,-0.5l-1.1,-0.9l-0.7,-1.2l-12.4,-33.5l-0.5,-2l-0.1,-1.4l0.3,-1.4l0.9,-1.2l1.1,-0.8l1.4,-0.3z" id="svg_9"/>
   <path class="g0" d="m108.8,371.6l-0.7,0.3l-0.7,0l-0.7,-0.2l-0.5,-0.5l-1.9,-2.2l-1.4,-2.6l-1,-2.9l-0.7,-2.6l-0.4,-3.2l0,-3.1l0.4,-5.5l0.9,-4.8l0.7,-2.5l1.4,-4.3l1,-2.7l1.3,-2.8l2.8,-5l1.9,-3l4.4,-6.1l4.3,-5l2.8,-3l3.2,-2.9l5.6,-4.5l3.6,-2.5l3.7,-2.3l6.3,-3.5l3.8,-1.6l3.9,-1.3l4,-1l6.4,-0.5l3.9,0.2l3.7,0.6l3.6,0.9l2.4,0.9l3.4,1.7l3.3,2.2l3.1,2.8l4.6,5.7l2.6,3.9l2.5,4.2l2.2,4.4l1.5,3.2l1.9,4.9l1.8,5.2l1.7,5.4l2.4,10.1l1.9,9.2l1.4,7.9l1.6,11.3l0.5,6.7l-0.1,0.7l-0.3,0.7l-0.5,0.5l-0.7,0.2l-0.7,0.1l-0.7,-0.2l-0.5,-0.5l-0.4,-0.6l-0.2,-0.6l-0.5,-6.6l-1.5,-11.1l-1.4,-7.7l-1.9,-9.1l-2.4,-9.9l-1.6,-5.3l-1.7,-5l-1.9,-4.8l-3.5,-7.2l-2.4,-4l-2.4,-3.7l-4.3,-5.3l-2.7,-2.3l-2.8,-1.9l-3,-1.5l-2,-0.7l-3.2,-0.9l-3.3,-0.4l-3.4,-0.2l-5.9,0.4l-3.4,0.9l-3.6,1.2l-3.5,1.6l-5.9,3.2l-3.5,2.2l-3.4,2.4l-5.6,4.4l-2.8,2.7l-2.7,2.8l-2.6,2.8l-3.7,4.9l-3.8,5.8l-2.7,4.7l-2.1,5.1l-1.3,4l-0.6,2.3l-0.8,4.3l-0.5,5.2l0.1,2.7l0.4,2.7l0.5,2.3l0.9,2.4l1.1,2l1.4,1.6l0.4,0.6l0.1,0.7l-0.1,0.7l-0.3,0.6l-0.5,0.5z" id="svg_10"/>
   <path class="g0" d="m31.4,332.7l0.5,-1.3l1,-1.1l1.2,-0.7l1.4,-0.2l3,0.1l6.6,1l9.5,2.2l9.6,3l7.6,3.1l7.8,3.8l8.6,4.9l9.1,6.2l8.8,6.8l9,7.8l8.6,8.2l12.3,12.9l11.4,12.8l9.8,12.1l5.6,7.6l4.3,6.8l3.4,5.9l2.4,4.7l2.8,6.4l0.6,1.9l0.2,1.4l-0.3,1.4l-0.8,1.2l-1.1,0.8l-1.3,0.5l-1.5,-0.1l-1.3,-0.5l-1,-0.9l-0.7,-1.3l-1.5,-4l-3.8,-7.7l-3.1,-5.5l-4.1,-6.5l-5.3,-7.2l-9.6,-11.7l-11.1,-12.6l-12.1,-12.6l-8.4,-8l-8.6,-7.5l-8.4,-6.5l-8.7,-5.9l-8.1,-4.6l-7.3,-3.6l-7,-2.8l-9,-2.8l-8.8,-2l-6,-0.9l-2.3,-0.1l-1.4,-0.3l-1.2,-0.7l-0.9,-1.1l-0.4,-1.4l0,-1.4z" id="svg_11"/>
   <path class="g0" d="m159.3,427.5l-0.6,-1.2l-0.1,-1.3l0.4,-1.2l0.7,-1.1l2.3,-2.2l2.7,-2l2.6,-1.7l3.4,-1.8l4.1,-1.8l4.8,-1.7l5.4,-1.4l6,-0.8l3,-0.1l3.1,0l3.2,0.2l3.1,0.4l3.2,0.6l3.1,0.9l3,1l3,1.4l3,1.6l2.7,1.7l2.6,2.1l2.6,2.4l4.1,4.7l3.2,4.5l2.5,4l1.9,3.4l1.3,2.8l1.3,3.5l0.2,1.9l-0.3,1.3l-0.7,1.1l-1.1,0.7l-1.3,0.3l-1.3,-0.1l-1.2,-0.5l-0.9,-0.9l-0.5,-1.2l-1.2,-3.4l-2.7,-5.2l-2.3,-3.6l-2.9,-4.1l-3.6,-4.1l-2,-1.8l-2.2,-1.7l-2.2,-1.4l-2.4,-1.3l-2.5,-1.1l-2.4,-0.9l-2.7,-0.7l-2.6,-0.5l-2.6,-0.3l-5.4,-0.2l-5.2,0.4l-4.9,1l-4.5,1.3l-5.6,2.4l-2.9,1.6l-2.2,1.4l-2.1,1.6l-1.7,1.6l-1.1,0.8l-1.2,0.3l-1.3,-0.1l-1.2,-0.6l-0.9,-0.9z" id="svg_12"/>
   <path class="g0" d="m226.9,431.1l0,-1.4l0.5,-1.4l0.9,-1.1l1.3,-0.6l17.2,-6.7l11.2,-3.6l9.1,-2.5l10.5,-2.5l11.5,-2.2l12.5,-1.8l13.4,-1.1l6.6,-0.3l7,-0.1l7,0.1l6.7,0.4l7.3,0.8l7.2,1l6.5,1.2l6.6,1.5l6.5,1.8l6,1.9l6.1,2.4l5.8,2.5l5.4,2.7l5.3,3.1l5,3.1l4.6,3.3l4.5,3.5l4.2,3.5l3.9,3.6l6.5,7.1l5.1,6.5l4,5.4l2.8,4.4l2,3.5l1.7,3.7l0.3,1.3l-0.1,1.4l-0.6,1.3l-1.1,1l-1.2,0.6l-1.5,0.1l-1.3,-0.4l-1.2,-0.9l-0.8,-1.1l-0.5,-1.2l-2.7,-5.1l-2.6,-4.1l-3.7,-5.1l-4.9,-6l-6.1,-6.7l-3.5,-3.2l-3.9,-3.4l-4.2,-3.2l-4.3,-3l-4.7,-3l-5,-2.8l-5,-2.5l-5.4,-2.4l-5.7,-2.2l-5.7,-1.8l-6.1,-1.7l-6.3,-1.5l-6.1,-1.1l-6.8,-0.9l-7,-0.7l-6.4,-0.4l-6.7,-0.1l-6.7,0l-6.4,0.3l-12.9,1.2l-12.1,1.7l-11.1,2.1l-10.3,2.4l-8.7,2.5l-13.8,4.5l-11.6,4.6l-2.6,1l-1.4,0.2l-1.4,-0.3l-1.2,-0.7l-0.9,-1.1l-0.5,-1.3z" id="svg_13"/>
   <path class="g0" d="m435.4,446.2l0.6,1.2l0.1,1.4l-0.3,1.3l-0.8,1.1l-2.3,2.2l-1.9,1.4l-1.2,0.6l-1.4,0.1l-1.3,-0.3l-1.1,-0.8l-0.8,-1.1l-0.4,-1.3l0.1,-1.3l0.6,-2.5l0.7,-1.4l2.3,-3l2.5,-2.8l5.4,-5.2l8.2,-6.7l7.2,-5.3l8.5,-5.7l10.4,-6.2l11.6,-6.1l6.4,-3.1l6.5,-2.9l7.4,-3.1l7.6,-2.9l7.2,-2.5l7.6,-2.4l7.7,-2.2l7.5,-1.8l7.8,-1.7l7.8,-1.5l7.4,-1.1l7.7,-0.9l7.5,-0.5l7,-0.3l7.1,0.1l6.9,0.4l6.4,0.6l6.3,1.1l6,1.4l5.5,1.6l5.3,2l5.1,2.5l8,5.2l6.2,5.1l4.6,4.7l3.2,4l2.2,3.3l1.4,2.8l0.7,2.1l0.2,1.3l-0.3,1.4l-0.7,1.1l-1,0.9l-1.3,0.4l-1.4,0l-1.3,-0.5l-1,-0.9l-0.6,-1.2l-0.7,-1.9l-0.9,-1.7l-1.7,-2.6l-2.8,-3.4l-4.1,-4.1l-5.6,-4.6l-7.1,-4.7l-4.3,-2l-4.8,-1.8l-4.9,-1.5l-5.5,-1.2l-5.9,-1l-5.9,-0.6l-6.5,-0.4l-6.8,0l-6.7,0.2l-7.2,0.6l-7.3,0.8l-7.2,1.1l-7.5,1.4l-7.6,1.6l-7.2,1.8l-7.5,2.2l-7.4,2.3l-7,2.4l-7.3,2.9l-7.2,2.9l-6.3,2.8l-6.2,3l-11.3,6l-10,6l-8.3,5.5l-6.8,5l-7.8,6.4l-5,4.8l-2.2,2.4l-4.2,-3.6l0.5,-0.4l1.3,-0.3l1.4,0.1l1.2,0.6l1,0.9z" id="svg_14"/>
   <path class="g0" d="m635.1,397.7l-0.9,-1.1l-0.5,-1.4l0.1,-1.4l0.5,-1.3l1.3,-2l1.4,-1.4l5.3,-2.8l3.7,-1.5l7.2,-2.5l5.9,-1.5l6.4,-1.2l6.7,-0.7l7.1,-0.2l6.8,0.5l3.4,0.5l3.1,0.6l3.2,0.9l3,1.1l2.8,1.2l2.7,1.4l2.5,1.5l2.3,1.6l2.3,2.1l4.7,5.4l2,3.3l1.5,3l1.5,4.6l0.3,2.2l-0.1,1.4l-0.6,1.3l-0.9,1l-1.3,0.7l-1.4,0.1l-1.4,-0.3l-1.2,-0.8l-0.8,-1.1l-0.4,-1.4l-0.2,-1.7l-1.1,-3l-1.1,-2.2l-1.6,-2.5l-3.8,-4.4l-3.3,-2.5l-4.2,-2.4l-4.8,-1.8l-5.3,-1.3l-5.9,-0.7l-6.1,-0.1l-6.2,0.4l-6.1,0.9l-8.2,2l-6.5,2.2l-3.3,1.4l-3.6,1.9l-0.7,1.1l-1,1.1l-1.3,0.6l-1.4,0.2l-1.3,-0.3l-1.2,-0.7z" id="svg_15"/>
   <path class="g0" d="m678.7,384.4l-0.9,-1.1l-0.5,-1.3l0,-1.4l0.5,-1.3l1.9,-3.3l2.2,-2.6l2.5,-2.5l3.1,-2.7l6.3,-4.8l8.6,-5.7l6.8,-4.1l8,-4.2l8.7,-4.2l9.3,-3.9l10,-3.8l10.2,-3.2l10.4,-2.7l10.6,-2l5,-0.8l5.1,-0.5l5,-0.3l4.7,-0.1l4.7,0.1l4.5,0.3l4.2,0.6l4.1,0.8l3.9,1.1l3.4,1.1l3.4,1.4l3,1.6l3,1.9l4.2,3.6l3.2,3.6l2.2,3.1l1.6,3l1.1,3.2l0.2,2l-0.8,1.9l-1.4,1.7l-1.1,0.9l-1.3,0.5l-1.4,0.1l-1.4,-0.5l-1.1,-0.9l-0.7,-1.2l-0.3,-1.4l0.2,-1.4l0.7,-1.1l-0.3,-0.8l-1,-1.8l-1.7,-2.4l-2.6,-2.8l-3.4,-2.9l-2,-1.2l-2.5,-1.3l-2.8,-1.2l-2.9,-1l-3.3,-0.8l-3.7,-0.7l-3.6,-0.5l-4.1,-0.3l-4.3,-0.2l-4.3,0.1l-4.7,0.3l-9.5,1.2l-10,2l-10,2.6l-9.8,3.1l-9.7,3.6l-8.9,3.8l-8.3,4l-11,6l-8.9,5.6l-8.4,6.3l-2.7,2.4l-2.1,2l-1.6,2l-1.4,2.3l-0.9,1.1l-1.2,0.7l-1.4,0.3l-1.4,-0.3l-1.2,-0.7z" id="svg_16"/>
   <path class="g0" d="m190.3,176.3l0.1,1.4l-0.4,1.4l-0.9,1.1l-1.2,0.8l-2.9,1.4l-24,13.3l-51.4,27.6l-26.8,15l-1.4,0.5l-1.4,0l-1.3,-0.5l-1.1,-0.9l-0.7,-1.2l-0.3,-1.4l0.3,-1.4l0.7,-1.2l1.1,-0.9l27,-15.2l51.4,-27.6l25.8,-14.3l1.8,-0.7l1.4,-0.4l1.4,0.2l1.3,0.7l1,1l0.5,1.3z" id="svg_17"/>
   <path class="g0" d="m112.6,207.7l1.3,-0.4l1.4,0.2l1.3,0.6l1,1l3.2,4.9l2.6,4.7l4.1,8.3l9.4,21.9l0.2,1.4l-0.2,1.4l-0.6,1.3l-1.1,0.9l-1.3,0.5l-1.4,0.1l-1.4,-0.5l-1.1,-0.8l-0.7,-1.3l-9.2,-21.5l-3.9,-7.9l-2.5,-4.4l-2.9,-4.4l-0.5,-1.3l-0.1,-1.4l0.3,-1.4l0.9,-1.1l1.2,-0.8z" id="svg_18"/>
   <path class="g0" d="m137.9,197l1.4,0.1l1.3,0.5l1.1,0.9l0.6,1.3l13.6,40.1l0.2,1.4l-0.3,1.4l-0.7,1.2l-1.2,0.9l-1.3,0.4l-1.4,0l-1.3,-0.6l-1.1,-0.9l-0.7,-1.3l-13.5,-40l-0.2,-1.4l0.3,-1.4l0.7,-1.2l1.1,-0.9l1.4,-0.5z" id="svg_19"/>
   <path class="g0" d="m159.9,183.3l1.4,0.5l1.1,0.9l0.7,1.2l0.3,1.4l0.2,4.6l1.1,10.2l1.5,8.2l1.9,7.8l2.2,7.3l0.7,2.1l0.3,1.4l-0.3,1.4l-0.7,1.3l-1.1,0.9l-1.3,0.5l-1.4,0l-1.4,-0.5l-1,-1l-0.8,-1.2l-0.8,-2.3l-3.3,-11.6l-1.5,-6.8l-1.4,-8.5l-0.9,-8.6l-0.2,-5.1l0.2,-1.4l0.7,-1.2l1.1,-0.9l1.3,-0.5l1.4,-0.1z" id="svg_20"/>
   <path class="g0" d="m268.7,369.2l0.4,-1.5l0.9,-1.2l1.3,-0.8l1.5,-0.3l2.3,-0.1l9.7,-1.8l17.2,-4.4l17.3,-5.5l22,-8.1l33.5,-13.9l60.4,-27.2l59.2,-27.8l61.8,-30.3l2.3,-0.9l1.5,0.1l1.4,0.6l1.1,1l0.7,1.3l0.2,1.5l-0.4,1.5l-0.8,1.3l-1.2,0.9l-43.4,21.5l-47.7,22.6l-62,28.8l-43.9,19.2l-25.4,10.1l-21.4,7.7l-16.5,5l-17.9,4.3l-6.6,1.1l-3,0.1l-1.5,-0.1l-1.3,-0.7l-1.1,-1.1l-0.5,-1.4l-0.1,-1.5z" id="svg_21"/>
   <path class="g0" d="m288.9,209.8l0.4,1.3l-0.6,1.3l-2.4,2.6l-3.6,2.5l-1.4,0l-1,-1l-0.2,-1.4l0.8,-1.1l3.4,-2.7l4.1,-2l16.1,-6.6l15.1,-5l13.6,-3.2l14.4,-2.6l11.1,-1.2l5.7,-0.3l9.4,0.3l5.6,0.4l5.5,0.7l8.9,1.6l5,1.4l4.9,1.8l4.8,2.1l7.1,4.6l4.1,3.1l3.7,3.5l3.4,3.7l2.2,2.7l2.9,4.4l2.5,4.6l2.3,5.1l2.7,9.4l1.4,5.9l1.4,10.4l0.9,11.2l0.3,9.9l-0.2,14.9l-0.7,8.5l-0.4,2.4l-0.7,1.2l-1.3,0.5l-0.7,-0.1l-0.6,-0.3l-0.7,-1.2l1,-11.3l0.3,-14.5l-0.4,-9.8l-0.8,-11l-1.5,-10.1l-1.3,-5.7l-2.6,-9l-2.1,-4.6l-2.4,-4.4l-2.7,-4l-5.1,-6l-3.5,-3.2l-3.8,-2.9l-6.7,-4.4l-4.3,-1.9l-4.6,-1.6l-4.9,-1.3l-8.4,-1.6l-10.8,-1l-9.2,-0.3l-5.4,0.3l-10.8,1.1l-14.1,2.6l-13.4,3.2l-14.8,4.8l-15.7,6.5l-3.8,1.9l-5.4,-0.9l0,-0.1l2.8,-2l2,-2.2l1.3,-0.7l1.3,0.3l0.6,0.5z" id="svg_22"/>
   <path class="g0" d="m295.8,205.4l0,1.4l-0.9,1l-6.2,3.4l-2.9,-2.4l5.3,-2.7l19.2,-7l14.5,-4.6l13.8,-3.6l16.2,-3.4l17.4,-2.9l14,-1.6l7.3,-0.7l20.6,-0.8l15.5,0.1l7.8,0.4l13,1.1l7.7,0.9l12.6,2.2l14.3,3.2l11.1,3.2l6.2,2.3l5.9,2.5l5.5,2.8l8.1,5.3l4.4,3.5l4,3.6l5.9,6.4l2.9,4l2.6,4.2l2.2,4.3l2.7,7.4l2,7.8l1.3,6.8l0.7,5.6l0.4,7.8l-0.4,3.8l-0.6,1.2l-1.2,0.6l-0.7,-0.1l-1.2,-0.8l-0.3,-0.6l0.3,-4.3l-0.3,-7.3l-0.7,-5.3l-1.3,-6.6l-2,-7.4l-2.5,-7l-2,-4l-2.4,-3.8l-2.8,-3.8l-5.5,-6l-3.8,-3.4l-4.2,-3.3l-7.7,-5.1l-5.2,-2.6l-5.6,-2.4l-6,-2.2l-10.8,-3.2l-14.1,-3.1l-12.4,-2.1l-7.6,-0.9l-12.8,-1.1l-7.6,-0.4l-15.4,-0.1l-20.4,0.8l-7.1,0.6l-13.8,1.7l-17.3,2.9l-16,3.3l-13.6,3.6l-14.3,4.5l-19.1,7l-4.9,1.5l-0.7,-0.2l-0.6,-0.4l-0.5,-0.6l-0.1,-0.8l0.1,-0.7l0.3,-0.7l6.8,-3.8l1.4,-0.3l1.2,0.8l0.3,0.6z" id="svg_23"/>
   <path class="g0" d="m496.4,190.1l-0.1,1.5l-0.7,1.4l-1,1.1l-1.4,0.7l-2.5,0.7l-1.4,0.1l-1.5,-0.3l-1.2,-0.8l-0.9,-1.2l-0.5,-1.4l0.1,-1.5l0.5,-1.4l1,-1.1l2.4,-2l1.2,-0.7l7.6,-2.7l9.9,-2.7l10.1,-1.9l7.8,-1.1l8.8,-0.8l9.1,-0.2l9.5,0.4l9.7,1.1l4.5,0.8l4.7,1.1l4.6,1.4l4.3,1.5l4.3,1.9l4.1,2.1l4,2.6l3.6,2.7l3.4,2.9l3,3l2.9,3.3l2.5,3.5l2.3,3.6l2,3.7l1.8,3.9l1.5,3.8l2.5,7.8l1.7,7.6l1,7.3l0.4,6.5l0.1,5.6l-0.4,8l-0.7,4.7l-0.5,1.4l-1,1.2l-1.4,0.7l-1.5,0.3l-1.4,-0.3l-1.4,-0.8l-0.9,-1.2l-0.5,-1.4l0,-1.5l0.6,-4.2l0.2,-3l0.1,-9.2l-0.4,-6.1l-0.4,-3.1l-1.2,-6.9l-1.9,-7l-2.5,-6.8l-1.6,-3.4l-1.8,-3.3l-1.9,-3l-2.3,-3l-2.4,-2.9l-2.6,-2.5l-2.8,-2.5l-3.2,-2.3l-3.4,-2.2l-3.5,-1.8l-3.8,-1.6l-3.7,-1.4l-4.1,-1.2l-4.2,-1l-4.2,-0.7l-9,-1l-8.8,-0.3l-8.6,0.2l-8.3,0.7l-7.3,1l-9.5,1.9l-9.4,2.5l-6.3,2.2l-3.2,-6.8l1.4,-0.1l1.4,0.4l1.3,0.8l0.9,1.3l0.4,1.4z" id="svg_24"/>
   <path class="g0" d="m724.5,312l1.4,0.2l1.2,0.7l1,1.1l0.5,1.3l6.9,26.1l0.1,1.4l-0.4,1.4l-0.8,1.1l-1.1,0.8l-1.4,0.4l-1.4,-0.1l-1.3,-0.6l-1,-1l-0.6,-1.3l-7,-26.6l0,-1.4l0.4,-1.3l0.9,-1.1l1.2,-0.8l1.4,-0.3z" id="svg_25"/>
   <path class="g0" d="m270.5,368.3l1.4,0.2l1.3,0.6l1,1l0.5,1.3l1,4.6l0.6,5.3l2,31.1l-0.2,1.4l-0.6,1.3l-1,1l-1.3,0.6l-1.4,0.1l-1.4,-0.4l-1.1,-0.8l-0.8,-1.2l-0.4,-1.3l-1.9,-31.2l-0.6,-4.7l-0.8,-3.9l-0.1,-1.4l0.4,-1.4l0.9,-1.1l1.2,-0.8l1.3,-0.3z" id="svg_26"/>
   <path class="g0" d="m481.3,192l-0.7,-1.2l-0.3,-1.4l0.2,-1.4l0.6,-1.3l6.8,-8.4l3.5,-5.1l6.9,-11.8l1.1,-2.1l0.8,-1.2l1.2,-0.8l1.4,-0.3l1.4,0.2l1.3,0.6l1,1l0.5,1.3l0.1,1.4l-0.4,1.4l-1.2,2.3l-7.2,12.4l-3.9,5.6l-6.8,8.6l-1.1,0.9l-1.3,0.6l-1.4,0l-1.4,-0.4l-1.1,-0.9z" id="svg_27"/>
   <path class="g0" d="m497.3,165.8l-0.9,-1l-0.6,-1.3l-0.1,-1.5l0.5,-1.3l0.9,-1.9l0.8,-1l1.8,-1.8l3.4,-2.8l3.7,-2.6l4.5,-2.6l2.4,-1.2l2.5,-1.1l2.5,-0.9l2.6,-0.7l2.5,-0.4l2.7,0l2.5,0.4l1.2,0.4l1.9,1l1.3,1l1.3,1.6l0.7,1.4l0.6,2l0.2,1.3l-0.2,3.3l-0.7,2.2l-0.9,2.3l-1.3,2.2l-1.6,2.1l-1.8,2.1l-2,2.1l-2.3,1.8l-2.4,1.7l-2.6,1.6l-2.6,1.2l-2.8,1l-2.9,0.6l-2.8,0.1l-1.9,-0.2l-1.2,-0.3l-3,-1.3l-0.9,-0.5l-1.8,-1.5l-0.8,-0.9l-1.1,-1.6l-0.7,-1.8l0.2,-1.8l0.9,-1.6l1.5,-1.1l1.3,-0.4l1.4,0.1l1.3,0.5l1.1,1l0.6,1.3l0,0.4l0.8,0.6l1.9,0.9l0.9,0.1l1.3,-0.1l1.9,-0.5l1.8,-0.6l1.9,-0.9l2,-1.2l1.8,-1.3l1.8,-1.5l1.5,-1.6l1.4,-1.5l1.1,-1.6l0.8,-1.5l0.6,-1.3l0.2,-1l0.1,-1.2l-0.2,-0.6l-0.2,-0.2l-0.6,-0.3l-1.4,-0.3l-1.2,0.1l-1.6,0.2l-1.8,0.5l-1.9,0.7l-4,1.9l-3.8,2.3l-4.6,3.3l-2.6,2.4l-0.7,1.2l-0.8,1.2l-1.2,0.7l-1.4,0.3l-1.4,-0.1l-1.3,-0.7z" id="svg_28"/>
   <path class="g0" d="m270.2,179l1.5,0.1l1.3,0.6l1,1l0.6,1.2l0.4,1.6l2,3l2.5,3.3l3.3,3.4l4.3,3.6l4.3,2.9l1.1,0.9l0.7,1.3l0.2,1.4l-0.3,1.4l-0.7,1.2l-1.1,0.9l-1.4,0.4l-1.4,0l-1.3,-0.5l-3.4,-2.2l-3.5,-2.6l-3,-2.6l-2,-2.1l-3.5,-4l-3,-4.2l-1.1,-1.9l-0.4,-0.9l-0.6,-2l-0.1,-1.5l0.3,-1.3l0.8,-1.2l1.2,-0.8l1.3,-0.4z" id="svg_29"/>
   <path class="g0" d="m272.5,187.2l-1.3,0.7l-1.4,0.2l-1.4,-0.3l-1.2,-0.7l-1.4,-1.3l-1.6,0.1l-4.1,1l-6.3,2.2l-6.2,3.1l-2.7,2l-1.6,2.1l-0.2,0.8l0.6,1.1l1.7,1.2l2.6,0.7l3.5,0.4l2.7,0l3.9,-0.6l3.7,-1.2l4.4,-2.2l5.7,-3.7l1.4,-0.2l1.4,0.3l1.2,0.7l0.9,1.1l0.4,1.4l0,1.4l-0.5,1.3l-1,1.1l-1.8,1.5l-3.5,2.2l-5.3,2.6l-4.9,1.6l-5.1,0.8l-3.8,0.1l-4.6,-0.6l-4.1,-1l-1.2,-0.6l-3.2,-2.1l-1.4,-1.5l-1.7,-3.5l-0.3,-2.7l0.7,-3.1l0.8,-1.6l2.5,-3.3l0.8,-0.8l3.5,-2.4l3.8,-2.2l3.5,-1.7l7.4,-2.6l4.9,-1.1l4.3,-0.3l3,1l2.6,2.3l0.9,1.1l0.5,1.4l-0.1,1.4l-0.5,1.3l-0.9,1.1z" id="svg_30"/>
   <path class="g0" d="m265.5,191.8l-0.8,1.2l-1.2,0.8l-1.4,0.3l-1.4,-0.2l-3.5,-1l-2.7,-0.5l-2.2,0.2l-2,0.7l-1.8,1.2l-0.7,1l2.3,0l3,-0.6l2.9,-1.1l2.9,-1.4l2,-1.3l1.3,-1.6l-1.2,-0.2l-0.2,0l-1.4,-1.1l2.5,1.9l-3.8,0.8l-2.2,1l-1.7,-3.1l1.1,0.9l0.7,1.3l0.2,1.4l-0.3,1.4l-0.8,1.2l-2.2,1.4l-1.5,0.5l-1.7,-0.2l-3.4,-1.2l-1.3,-0.7l-1,-1.2l-0.4,-1.4l0.1,-1.5l0.6,-1.4l1.1,-1l2.7,-1.8l3.8,-1.9l3.4,-1.4l4.3,-1.1l4.1,-0.3l2.9,1l2.5,2.2l1,1.3l0.4,1.7l-0.3,1.6l-1,1.4l-2.6,2.5l-3.7,2.1l-3.9,1.3l-4.7,0.7l-1.9,-0.2l-3.4,-1.3l-1.3,-0.8l-0.9,-1.2l-0.5,-1.4l0.2,-1.5l0.9,-3.1l1.5,-2.3l3,-2l4.1,-1.8l4.2,-0.9l1.4,0l3.5,0.6l2.4,1.3l2.2,2.6l0.9,1.6l0,1.8l-0.6,3.2l-0.9,1.9l-2.4,2.8l-3.6,2.5l-3.6,1.8l-3.9,1.5l-4.3,0.9l-4.6,0l-2,-0.5l-3.4,-1.9l-1.2,-1l-0.7,-1.3l-0.2,-1.6l0.2,-3.2l0.8,-2.1l2.2,-2.9l0.9,-0.9l2.8,-1.9l3.9,-1.6l4.4,-0.5l4.5,0.7l4.1,1.2l1.3,0.6l1,1.1l0.5,1.3l0.1,1.4l-0.4,1.3z" id="svg_31"/>
   <path class="g0" d="m523.3,158.2l-0.5,1.3l-0.9,1.1l-1.2,0.7l-1.4,0.3l-0.6,0l-3.4,2.5l-1.6,1.2l-1.2,1.3l-0.6,0.8l0.1,0.3l-0.2,0.3l-0.6,-2.2l-0.1,-0.4l1.7,-0.6l2.7,-1.3l2.9,-1.9l2.8,-2.5l0.5,-0.7l-1.9,1.1l-1.5,0.9l-2.6,-1.6l2,1.2l-2.8,2l-3.4,3.1l-1.1,0.9l-1.3,0.4l-1.5,0l-1.3,-0.6l-1,-0.9l-0.7,-1.3l-0.2,-1.4l0.3,-1.4l0.7,-1.2l2.1,-2l2.2,-1.9l2.2,-1.7l2.4,-1.5l2.4,-1.2l2.3,-0.9l2.7,-0.5l1.5,0l1.4,0.6l1.1,1l1.2,1.7l0.7,2l-0.3,2.1l-0.9,1.7l-1.5,2.3l-1.9,2l-2.2,1.9l-2.4,1.6l-2.4,1.4l-2.3,1.1l-2.2,0.8l-0.9,0.2l-2,0.2l-1.6,-0.2l-1.4,-0.7l-1,-1.2l-0.5,-1.5l-0.2,-1.8l0.8,-2.9l1.1,-1.6l1.6,-1.7l3.6,-3.2l2.1,-1.6l2.4,-1.6l2.4,-1.3l2.5,-1.1l2.4,-0.8l3,-0.6l1.9,0.2l1.9,0.6l1.3,0.7l1,1.2l0.5,1.4l0.3,1.9l-0.3,2.1l-0.7,1.7l-1.6,2.6l-1.4,1.8l-1.5,1.7l-1.8,1.8l-1.8,1.5l-2,1.4l-1.9,1.3l-1.9,1l-2,0.8l-2.7,0.9l-2.6,0.4l-1.3,-0.1l-1.8,-0.3l-1.8,-0.9l-1.2,-1.6l-0.8,-1.9l-0.2,-1.6l0.3,-1.5l0.8,-1.9l0.5,-0.9l1.1,-1.5l1.9,-2l2.1,-1.8l5,-3.6l2.3,-0.7l1.9,0l1.4,0.3l1.2,0.7l1,1.1l0.4,1.3l0,1.4z" id="svg_32"/>
   <path class="g0" d="m132.6,306.3l-0.1,1.4l-0.5,1.4l-1,1l-1.2,0.7l-1.4,0.4l-2,2.2l-3.3,4.1l-3.8,5.7l-2.8,5l-2.5,5.5l-2.1,5.6l-1.6,6.8l-0.6,4.1l-0.1,2l0.1,2.6l0.1,1l0,1.4l-0.6,1.3l-0.9,1.1l-1.3,0.6l-1.4,0.2l-1.4,-0.3l-1.2,-0.8l-0.9,-1.1l-0.4,-1.3l-0.1,-1.3l-0.1,-3.4l0.1,-2.6l0.6,-4.8l0.9,-3.8l1,-3.9l0.7,-2.3l1.6,-4.2l2.8,-6.1l3.2,-5.5l4.1,-6.2l3.6,-4.6l3.2,-3.5l1.7,-1l2.3,-0.7l1.4,-0.2l1.4,0.3l1.2,0.7l0.8,1.2l0.5,1.3z" id="svg_33"/>
   <path class="g0" d="m119.3,380.8l-1.3,-0.7l-0.9,-1l-0.5,-1.4l-0.1,-1.4l0.3,-2l0.7,-1.8l1.5,-2.1l2.2,-2.3l1.9,-1.8l2.4,-1.8l2.7,-1.5l3.2,-1.2l3.5,-0.7l3.7,0l3.8,0.7l3.8,1.5l3.6,2.1l3.6,2.7l3.6,3.4l3.4,3.8l6.4,8.3l12.6,19.8l1.4,2.3l0.5,1.4l-0.1,1.4l-0.5,1.3l-0.9,1.1l-1.2,0.7l-1.4,0.2l-1.4,-0.2l-1.2,-0.7l-0.9,-1.1l-1.4,-2.3l-10.7,-17.1l-6,-8l-4.5,-5.2l-3,-2.9l-2.9,-2.1l-2.7,-1.6l-2.6,-1l-2.3,-0.4l-2.1,0.1l-2.1,0.4l-1.9,0.8l-1.7,1l-1.6,1.2l-1.3,1.2l-2.2,2.5l-0.1,1.1l-0.4,1.3l-0.9,1.1l-1.2,0.8l-1.4,0.3l-1.4,-0.2z" id="svg_34"/>
   <path class="g0" d="m143.1,367l1.3,0.6l1,1l0.6,1.3l0.1,1.4l-0.1,1.8l1.1,6.8l1.3,5.8l2,6.7l2.2,6.5l2.6,6.2l2.1,4.4l0.4,1.4l0,1.4l-0.6,1.3l-0.9,1l-1.3,0.7l-1.4,0.2l-1.4,-0.3l-1.2,-0.8l-0.9,-1.1l-2.3,-4.8l-2.7,-6.6l-2.4,-7l-2.1,-7.1l-1.9,-8.9l-0.8,-5.3l0.2,-3l0.3,-1.3l0.8,-1.2l1.2,-0.8l1.4,-0.4l1.4,0.1z" id="svg_35"/>
   <path class="g0" d="m136.5,369l1.2,0.7l0.8,1.2l0.5,1.3l-0.1,1.4l-0.3,1.5l0.1,1.2l0.3,1.3l1.6,3.7l1.9,3.7l0.4,1.3l0,1.4l-0.5,1.3l-1,1.1l-1.2,0.6l-1.4,0.2l-1.4,-0.2l-1.2,-0.8l-0.9,-1l-1.4,-2.8l-1.5,-5.1l-0.8,-4.6l-0.4,-4.7l0.2,-1.5l0.8,-1.3l1.1,-0.9l1.5,-0.5l1.5,0.1l1.3,0.6l1.1,1.1l0.6,1.3l1.5,7.5l2.1,10.6l0.4,2.4l0,1.5l-0.6,1.4l-1,1.1l-1.4,0.6l-1.5,0.1l-1.4,-0.4l-1.2,-0.9l-0.7,-1.3l-3.1,-8.1l-0.3,-0.6l3.8,-3l-3.8,3.1l-1.8,2.5l-1.6,-2l4.6,-5.2l2.4,3.7l3.9,4.9l0.7,1.2l0.2,1.3l-0.2,1.4l-0.7,1.2l-1,0.9l-1.3,0.5l-1.4,0.1l-1.3,-0.4l-1.1,-0.8l-3.4,-3.8l-2.8,-3.7l-1.5,-2.3l-1,-2l-0.4,-1.4l0.1,-1.5l0.6,-1.3l1,-1.1l1.3,-0.6l1.5,-0.1l1.4,0.5l1.9,0.9l1.2,1l4.9,6l3.5,5.2l2.8,4.8l1.2,2.5l0.3,1.3l0,1.3l-0.5,1.3l-1,1l-1.2,0.7l-1.3,0.2l-1.4,-0.2l-1.2,-0.6l-0.9,-1.1l-1.2,-2l-7.4,-13.9l-0.4,-1.4l0.1,-1.4l0.5,-1.3l1,-1.1l1.2,-0.6l1.4,-0.2l1.4,0.3l1.2,0.8l0.9,1.1l7.2,13.8l1,1.6l-7.1,4l-2.2,-4.3l-2.9,-4.7l-3.3,-4.4l6.1,-2l0.3,-0.2l-6.1,4.9l-2.7,-3.6l-1.4,-2.3l-2.3,-4.6l-0.9,-2.4l-0.3,-1.4l0.3,-1.5l0.8,-1.3l1.1,-0.9l1.4,-0.4l1.5,0.1l1.4,0.6l1,1l4.9,6.8l4.6,5.8l0.8,1.9l0.3,2.1l0,1.5l-0.6,1.3l-1,1.1l-1.3,0.7l-1.5,0.1l-1.4,-0.4l-1.2,-0.9l-1.5,-1.5l-1.6,-2.3l-1.4,-2.6l-0.9,-2.2l-1.5,-4.4l-0.5,-2.5l0,-1.7l0.7,-1.5l1.2,-1.7l1.1,-1l1.4,-0.6l1.5,0l1.5,0.6l1.1,1.1l1.3,1.8l1.3,2.1l2.4,5l3.2,8.5l-7.8,2.1l-3,-15.1l7.9,0.8l0.2,1.2l1.1,3.9l-5.8,5.3l-0.4,0.2l-3,-5.9l-0.9,-2.4l-0.7,-2.3l-0.3,-3.1l0.1,-1.1l0.4,-2l0.6,-1.3l0.9,-1.1l1.3,-0.6l1.4,-0.2l1.4,0.3z" id="svg_36"/>
   <path class="g0" d="m295.1,211.6l-0.2,0.7l-0.5,0.5l-0.6,0.4l-0.7,0.1l-1.9,0.1l-1.6,0.7l-2.1,1.3l-1.8,1.4l-2.1,1.9l-3.7,4.1l-4.2,5.7l-4.6,7.5l-3.3,6.1l-3.3,7.1l-3.2,8l-3.1,8.9l-2.8,10.2l-1.2,5.8l-2.1,11.6l-0.7,5.2l-1.1,12.4l-0.6,11.3l-0.3,9.7l-0.1,13.9l0.4,8.5l-0.1,0.7l-0.3,0.6l-0.5,0.5l-0.7,0.3l-0.7,0l-0.7,-0.2l-0.5,-0.4l-0.4,-0.6l-0.2,-0.7l-0.4,-8.6l0.1,-14l0.3,-9.9l0.6,-11.4l1.1,-12.5l1.7,-11.4l1.2,-5.8l1.3,-5.9l1.3,-5.3l3,-9.8l3.3,-8.8l3.3,-7.7l3.4,-6.7l3.4,-5.9l3.1,-5l4.5,-6l3.9,-4.3l2.3,-2.2l2.1,-1.6l2.5,-1.6l2.4,-1.1l0.8,-0.1l2.3,-0.1l0.7,0.2l0.6,0.3l0.4,0.5l0.3,0.7l0,0.7z" id="svg_37"/>
   <path class="g0" d="m285.6,370.4l-0.7,-0.1l-0.6,-0.3l-0.5,-0.6l-0.2,-0.6l-0.4,-2.1l0,-0.7l0.4,-2.4l1.5,-4.6l1,-2.5l1.3,-2.9l1.7,-3l2,-3.1l2.4,-3.2l2.7,-2.9l2.9,-2.5l3.4,-2.2l5,-1.8l3.5,-0.4l3.3,0.2l3.4,1.1l4.1,2.6l3.5,3.2l3.1,3.9l1.8,2.8l0.7,1.6l0.1,0.6l0,0.8l-0.3,0.6l-0.5,0.5l-0.7,0.3l-0.7,0.1l-0.7,-0.2l-0.5,-0.4l-0.4,-0.6l-0.7,-1.4l-1.5,-2.4l-2.7,-3.4l-3.1,-2.9l-3.4,-2.1l-2.4,-0.7l-2.5,-0.1l-2.6,0.3l-4.2,1.5l-2.6,1.8l-2.5,2.2l-2.4,2.6l-2.2,2.9l-1.8,2.9l-1.6,2.7l-2.1,4.9l-1.3,4.2l-0.3,1.7l0.3,1.7l0,0.7l-0.2,0.7l-0.5,0.5l-0.6,0.4l-0.7,0.1z" id="svg_38"/>
   <path class="g0" d="m308.1,345.3l0.4,1.4l0,1.4l-0.6,1.3l-0.9,1.1l-2,1.5l-3.5,2.1l-1.1,0.9l-6.5,-3.7l5.1,-4.9l7.1,3.8l-5.4,4.9l-7.9,6.3l-1.3,0.6l-1.4,0.2l-1.4,-0.3l-1.2,-0.8l-0.9,-1.1l-0.4,-1.4l0.1,-1.4l0.6,-1.3l1.8,-2.6l3.8,-3.7l8.3,-7.6l4,-3.1l1.8,-1.2l1.4,-0.7l1.6,0l2.2,0.4l1.7,0.8l1.2,1.5l0.5,1.3l0.2,0.1l-2.4,7.4l-0.6,-0.2l-1.8,1.2l-3.7,2.9l-2.5,1.6l-2.5,1l-2.8,0.8l-0.7,0.8l-1.9,-2.2l12.5,-4.9l2.2,-0.7l-0.4,-1.3l4.3,-4l0.8,0.7l1.4,0.9l4.3,2.2l1.8,1.1l1.4,1.4l1.1,1.9l0.5,1.5l-0.2,1.7l-0.6,2.1l-0.8,1.5l-1.4,1l-2,0.9l-2.7,0.3l-1.4,-0.4l-1.1,0.2l-3.7,1.5l-1.5,0.3l-1.5,-0.2l-1.3,-0.8l-1,-1.2l-0.4,-1.5l0.1,-1.5l0.7,-1.4l1.9,-2.3l1.8,-1.8l2.2,-2.5l-1,-0.4l-1.3,-0.8l-0.9,-1.2l-0.4,-1.5l0.2,-1.5l0.7,-1.4l1.3,-1.6l2.4,-1.5l2.1,-0.4l3,0.5l1.9,1.1l1,0.9l1.7,2.1l2.8,4.6l1.3,2.5l0.7,2l0.2,1.6l-0.3,1.5l-1,1.3l-1.3,0.8l-2,0.8l-1.8,0.2l-1.7,-0.6l-1.4,-1.3l-1.3,-2.1l-2,-4.1l-0.4,-1.4l0.2,-1.5l0.7,-1.4l1.2,-0.9l1.4,-0.5l1.5,0l1.4,0.6l1.1,1.1l1.5,2.4l1.9,4l0.3,1.5l-0.2,1.5l-0.8,1.3l-1.2,1l-2.7,1.3l-2.7,0.6l-3.2,0.5l-1.7,0.1l-1.4,-0.2l-1.2,-0.6l-1,-1l-0.6,-1.3l0,-1.5l0.4,-1.3l0.8,-1.1l1.2,-0.8l1.4,-0.3l1.4,-0.1l1.8,-0.3l-0.8,-1.1l1.2,-2.5l5.9,-1.5l-5.9,1.5l-0.4,-0.6l5.4,-3.8l0.5,0.5l0.5,1.8l-0.4,1.8l-0.9,2.1l-1.7,2.5l-3.7,4.2l-4.4,-4.1l1.3,-0.5l-0.6,-0.3l-2.3,-1.4l-2.1,-1.8l-1,-1.3l-1,-2.1l-0.4,-1.9l0.6,-1.9l1.1,-1.9l1,-1.1l1.2,-0.7l1.4,-0.2l1.4,0.3l1.3,0.8l1.5,1.4l1,1.3l0.9,1.9l1,2.6l0.5,3.1l-0.4,2.5l-1,2l-1,1.3l-1.5,0.7l-1.9,0.6l-11.7,4.4l-9.7,3.8l-2.2,0.1l-2,-0.4l-1.4,-0.5l-1,-1l-0.7,-1.2l-0.2,-1.4l0.3,-1.4l0.8,-1.2l1.5,-1.7l3.4,-3.3l2.7,-3l1.7,-1.2l4.2,-1.4l1.4,-0.5l6.9,-5.1l2.8,-1.3l2.8,-0.1l2.1,0.6l2,0.7l1.5,0.9l1.3,1.2l1.5,0.9l1,0.9l0.7,1.2l0.2,1.3l-0.2,1.3l-0.6,1.2l-1,1l-1.2,0.5l-1.3,0.2l-1.3,-0.4l-4.3,-1.8l-2.4,-1.3l-0.8,-0.7l-1.7,-1.7l-2.9,2.2l-9.6,8.9l-3.3,-6.4l0.4,-0.3l5,-4.3l3.8,-3.6l2.6,-1.7l1.3,-0.6l1.5,-0.1l1.4,0.5l1.2,1l0.7,1.3l0.2,1.5l-0.4,1.4l-0.8,1.3l-8.7,8.3l-3.4,3.4l-2.4,1.9l-1.3,0.7l-1.4,0.1l-1.4,-0.3l-1.2,-0.8l-0.9,-1.2l-0.4,-1.4l0.2,-1.4l0.6,-1.3l2.9,-3.9l1.9,-2l2.1,-1.7l3.9,-2.5l1.5,-1.1l1.3,-0.7l1.4,-0.2l1.3,0.4l1.2,0.7l0.9,1.1z" id="svg_39"/>
   <path class="g0" d="m193,129.2l1.4,0.1l1.3,0.7l0.9,1l0.6,1.4l14.9,62.5l3.5,13.7l0.1,1.4l-0.4,1.4l-0.8,1.1l-1.2,0.8l-1.3,0.4l-1.5,-0.2l-1.2,-0.6l-1,-1l-0.6,-1.3l-3.5,-13.7l-15,-62.8l-0.1,-1.4l0.5,-1.4l0.8,-1.1l1.2,-0.7l1.4,-0.3z" id="svg_40"/>
   <path class="g0" d="m189.5,134.9l-0.8,-1.2l-0.3,-1.4l0.1,-1.4l0.6,-1.3l1.5,-1.9l13.7,-13.9l7.2,-6.9l6.7,-5.9l10.6,-8.6l8.5,-6.5l7.7,-5.5l12.6,-8.7l12,-7.7l1.3,-0.5l1.5,0l1.3,0.4l1.1,0.9l0.7,1.2l0.3,1.4l-0.2,1.4l-0.7,1.3l-1,0.9l-11.8,7.5l-12.4,8.6l-7.6,5.4l-8.3,6.3l-10.4,8.5l-3.3,2.9l-7.7,7.1l-15.6,15.7l-1.1,1.4l-1,1l-1.3,0.6l-1.4,0.1l-1.4,-0.4l-1.1,-0.8z" id="svg_41"/>
   <path class="g0" d="m270.7,67l0,-1.4l0.5,-1.4l0.9,-1.1l1.2,-0.7l13.2,-4.6l7,-2.2l10.4,-2.9l5.8,-1.5l10.8,-2.2l6.8,-1.3l6.8,-1.1l11.5,-1.5l6.9,-0.5l6.9,-0.3l11.7,0.2l10,0.6l8.2,0.8l6.3,0.9l4.8,0.8l4.8,1.1l1.3,0.6l1,1l0.7,1.3l0.1,1.4l-0.3,1.4l-0.8,1.2l-1.2,0.8l-1.4,0.4l-1.4,-0.1l-4.5,-1.1l-4.4,-0.7l-6,-0.9l-7.9,-0.8l-9.7,-0.6l-11.3,-0.2l-6.4,0.3l-6.6,0.6l-11.1,1.4l-6.7,1.1l-6.5,1.2l-10.6,2.2l-5.6,1.4l-10.1,2.8l-6.8,2.2l-12.8,4.5l-1.4,0.2l-1.4,-0.2l-1.2,-0.7l-1,-1.1l-0.5,-1.3z" id="svg_42"/>
   <path class="g0" d="m403.6,50.5l1.4,-0.4l1.4,0l1.3,0.5l1.1,0.9l12.5,14.5l2.5,3l7.8,10.3l6.4,9.1l5.5,8.6l3.4,5.6l3.4,5.9l5.6,10.7l3.3,6.6l5.2,11.4l5,11.9l4.2,10.4l5.6,15.2l3.4,10.1l0.2,1.4l-0.4,1.4l-0.7,1.2l-1.2,0.8l-1.3,0.5l-1.4,-0.1l-1.3,-0.6l-1.1,-0.9l-0.6,-1.3l-3.3,-9.8l-5.6,-15l-4.1,-10.2l-4.9,-11.8l-5.1,-11.1l-3.2,-6.4l-5.5,-10.5l-3.3,-5.7l-3.2,-5.4l-5.4,-8.3l-6.2,-8.9l-7.6,-10l-2.4,-2.9l-12.5,-14.5l-0.7,-1.3l-0.3,-1.4l0.3,-1.4l0.7,-1.2l1.1,-0.9z" id="svg_43"/>
   <path class="g0" d="m295.4,76.5l1.4,0.2l1.2,0.8l0.9,1.1l0.5,1.3l5.7,26.5l5.9,22.2l4.8,15.7l9.8,28.3l6.7,17.8l0.2,1.4l-0.2,1.4l-0.6,1.3l-1.1,0.9l-1.3,0.5l-1.4,0.1l-1.4,-0.5l-1.1,-0.9l-0.7,-1.2l-6.8,-18l-9.9,-28.6l-6.2,-20.7l-4.6,-17.8l-5.9,-27.1l0,-1.4l0.5,-1.4l1,-1l1.2,-0.7l1.4,-0.2z" id="svg_44"/>
   <path class="g0" d="m363,59.5l0.9,0.1l0.9,0.3l0.7,0.6l0.4,0.8l10.3,27.2l15.5,37.8l16.2,38.9l4.1,10.1l0.2,1l-0.1,0.9l-0.4,0.8l-0.7,0.6l-0.9,0.4l-0.9,0l-0.9,-0.3l-0.7,-0.5l-0.5,-0.8l-4.2,-10.1l-16.2,-38.9l-15.5,-38l-10.3,-27.3l-0.1,-1l0.1,-0.9l0.5,-0.8l0.7,-0.6l0.9,-0.3z" id="svg_45"/>
   <path class="g0" d="m294.9,79.9l-1.1,-1l-0.6,-1.2l-0.3,-1.4l0.3,-1.4l0.6,-1.5l1.6,-2l1.9,-1.2l1.8,-1l3.1,-1.4l6.2,-2.4l5.8,-1.9l3.3,-1l10.6,-2.7l11.9,-2.5l9.5,-1.6l4.9,-0.6l8.2,-0.6l4.9,-0.3l7.8,0l8.7,0.3l6.5,0.6l6.8,1.1l4.9,1.1l3.8,1.1l2.8,1l2.1,0.9l1.2,0.6l1.1,0.9l0.7,1.2l0.3,1.4l-0.2,1.4l-0.7,1.3l-1,0.9l-1.3,0.5l-1.4,0.1l-1.4,-0.5l-2.5,-1.1l-2.3,-0.9l-3.4,-0.9l-4.4,-1.1l-6.1,-0.9l-6.1,-0.5l-8.3,-0.4l-7.4,0.1l-4.6,0.2l-7.9,0.7l-4.6,0.5l-9.2,1.5l-11.4,2.4l-10.3,2.7l-6,1.8l-8.4,3.1l-2.6,1.3l-1.7,0.9l-0.9,1.5l-1.1,0.9l-1.3,0.5l-1.5,0l-1.3,-0.5z" id="svg_46"/>
   <path class="g0" d="m310.5,151.4l-0.4,-0.6l-0.1,-0.7l0.1,-0.7l0.4,-0.6l1.9,-2.3l19.2,-19l20.4,-18.3l0.6,-0.3l0.7,-0.2l0.7,0.2l0.6,0.3l0.5,0.5l0.2,0.7l0,0.7l-0.2,0.7l-0.5,0.5l-20.2,18.2l-19,18.7l-1.8,2.2l-0.6,0.5l-0.6,0.2l-0.7,0l-0.7,-0.2l-0.5,-0.5z" id="svg_47"/>
   <path class="g0" d="m321.5,157l-0.3,-0.6l-0.1,-0.7l0.2,-0.7l0.3,-0.6l21.8,-23l21.2,-21.4l6.8,-6.6l0.6,-0.4l0.7,-0.2l0.7,0l0.6,0.4l0.5,0.5l0.3,0.6l0,0.7l-0.1,0.7l-0.5,0.6l-6.7,6.6l-21.1,21.3l-21.8,23l-0.5,0.4l-0.7,0.2l-0.7,0l-0.7,-0.3l-0.5,-0.5z" id="svg_48"/>
   <path class="g0" d="m403.4,156.8l-0.3,-0.6l-0.1,-0.7l0.1,-0.7l0.4,-0.6l12.3,-13.3l9.4,-8.9l11.5,-10l25.5,-19.4l0.6,-0.3l0.7,0l0.7,0.2l0.6,0.4l0.4,0.5l0.2,0.7l-0.1,0.7l-0.3,0.7l-0.5,0.5l-25.2,19.2l-11.4,9.8l-9.2,8.8l-12.1,13.1l-0.6,0.4l-0.7,0.3l-0.7,-0.1l-0.6,-0.2l-0.6,-0.5z" id="svg_49"/>
   <path class="g0" d="m423.7,238.4l-0.7,0l-0.6,-0.3l-0.5,-0.5l-1,-3.3l-1.2,-2.7l-1.8,-2.6l-2.1,-2.2l-2.8,-2.3l-3.3,-2.2l-4.8,-2.4l-3.6,-0.9l-3.1,0l-2.9,1.2l-1.7,1.5l-1.7,2.5l-1.6,3.6l-1.2,4.4l-0.8,5.4l-0.5,6.2l0.1,6.5l0.6,6.8l1.1,7l1.6,6.4l2,6.2l2.6,5.6l2.8,4.8l3.1,4.1l3.3,3.2l3.2,2.2l3.1,1.3l2.8,0.2l4,-1.4l2.2,-1.6l1.9,-1.7l2.5,-3.2l1.3,-2.6l0.3,-1l0.5,-0.5l0.6,-0.4l0.7,-0.1l0.7,0.2l0.6,0.4l0.4,0.5l0.3,0.7l-0.1,0.7l-0.1,0.6l-1.7,3.6l-2.9,3.7l-2.3,2.2l-2.8,2l-5.2,1.9l-0.9,0.2l-3.5,-0.4l-4.1,-1.6l-3.9,-2.6l-3.9,-3.7l-3.4,-4.5l-3.1,-5.3l-2.7,-6l-2.2,-6.5l-1.7,-6.8l-1.2,-7.2l-0.6,-7.1l0,-6.9l0.4,-6.5l0.9,-5.7l1.3,-4.9l1.8,-4.2l2.1,-3.2l2.5,-2.3l4.2,-1.8l0.8,-0.2l3.8,0l4.5,1.1l2.9,1.3l2.7,1.4l3.6,2.5l3.2,2.5l2.5,2.6l2.2,3.2l1.5,3.3l0.9,3.8l-0.2,0.7l-0.4,0.5l-0.6,0.4l-0.7,0.2z" id="svg_50"/>
   <path class="g0" d="m598.2,220.2l-0.7,-0.3l-0.5,-0.4l-0.4,-0.7l0,-3.3l-0.9,-2l-1.7,-2.1l-6.7,-6.8l-4.3,-3.7l-3,-1.8l-2.4,-0.8l-1.7,0.4l-1.9,2.1l-1.3,2.4l-1.3,3.4l-1.1,4.2l-0.8,4.8l-0.8,8.2l0,8.6l0.9,8.5l0.5,2.6l2.4,7.4l2,4.2l2.2,3.3l2.5,2.4l2.3,1.3l3.8,0.3l4.5,-1.3l2.9,-1.6l1.6,-1.5l0.6,-0.9l0.6,-0.3l0.7,-0.2l0.7,0.1l0.6,0.4l0.5,0.5l0.3,0.7l0,0.7l-0.2,0.6l-0.3,0.6l-2.5,2.5l-3.7,2.1l-5.5,1.6l-5.3,-0.3l-0.9,-0.2l-2.9,-1.6l-3.3,-3.1l-2.7,-4l-2.2,-4.6l-2.6,-7.9l-1.1,-6.1l-0.5,-6l0,-9l0.8,-8.5l0.9,-5.1l1.2,-4.6l1.4,-3.7l1.6,-3.1l2.9,-3.2l1.1,-0.6l2.8,-0.6l1,0.1l3.2,0.9l3.8,2.4l4.7,4l7.1,7.1l1.9,2.5l1.5,3l0.2,0.9l-0.2,3.8l-0.4,0.6l-0.5,0.5l-0.7,0.2l-0.7,0z" id="svg_51"/>
   <path class="g0" d="m389.4,274.9l-0.6,-0.2l-0.6,-0.4l-0.4,-0.6l-0.1,-4.4l0.7,-3.2l1,-3.1l1.7,-3.5l2.2,-3.7l2,-2.5l2.4,-2.6l2.7,-2.4l3.1,-2.2l3.6,-2.2l5.6,-2.8l6.6,-2.6l7.1,-2.2l0.7,0l0.7,0.1l0.6,0.5l0.4,0.5l0.2,0.7l-0.1,0.7l-0.3,0.7l-0.5,0.5l-7.4,2.4l-6.3,2.5l-5.4,2.6l-3.2,2l-2.9,2.1l-2.4,2.1l-2.2,2.3l-1.7,2.2l-2,3.4l-1.4,3l-0.9,2.7l-0.6,2.6l0,3.7l-0.4,0.6l-0.5,0.5l-0.7,0.2l-0.7,0z" id="svg_52"/>
   <path class="g0" d="m565,243.7l-0.6,-0.3l-0.5,-0.6l-0.2,-0.6l0.5,-4l0.3,-0.9l2.4,-3.3l2.4,-2.6l3.4,-3.1l6.2,-4.7l7.6,-4.9l4,-2.2l3.9,-1.9l3.8,-1.5l3.3,-1l5,-1l3.3,-0.2l0.7,0.1l0.7,0.3l0.4,0.6l0.3,0.6l0.1,0.7l-0.3,0.7l-0.4,0.6l-0.6,0.4l-3.9,0.3l-4.4,0.9l-3,0.9l-3.4,1.3l-3.7,1.8l-7.6,4.5l-6.7,4.7l-5.9,5.1l-2.1,2.3l-1.8,2.6l-0.7,3.5l-0.5,0.5l-0.6,0.4l-0.7,0.1l-0.7,-0.1z" id="svg_53"/>
  </g>
  <path d="m32.52,332.18l91.58,16.01l45.78,101.2" fill="#000000" fill-opacity="0" id="svg_54" stroke="#7f7f7f" transform="matrix(1 0 0 1 0 0)"/>
  <path d="m161.43,426.16l45.8,-32.18l28.92,54.22" fill="#000000" fill-opacity="0" id="svg_55" stroke="#7f7f7f"/>
  <path d="m231.31,430.98l126.52,-49.05l89.16,92.77" fill="#000000" fill-opacity="0" id="svg_56" stroke="#7f7f7f" transform="matrix(1 0 0 1 0 0)"/>
  <path d="m428.9,450.25l128.93,-108.08l100,77.11" fill="#000000" fill-opacity="0" id="svg_57" stroke="#7f7f7f"/>
  <path d="m634.93,391.22l55.43,-33.39l26.51,50.6" fill="#000000" fill-opacity="0" id="svg_58" stroke="#7f7f7f"/>
  <path d="m687.94,382.78l80.73,-83.99l61.45,42.17" fill="#000000" fill-opacity="0" id="svg_59" stroke="#7f7f7f"/>
  <path d="m103.6,363.51l18.08,-57.48l-15.66,-39.76l104.82,-55.42" fill="#000000" fill-opacity="0" id="svg_60" stroke="#ff7f00"/>
  <path d="m213.24,218.93l-25.29,-92.42l90.36,-69.88l133.73,-4.82l69.88,137.35l132.53,85.54" fill="#000000" fill-opacity="0" id="svg_61" stroke="#ff7f00" transform="matrix(1 0 0 1 0 0)"/>
  <path d="m75.89,235.8l110.86,-62.3l-110.86,62.3z" fill="#000000" fill-opacity="0" id="svg_63" stroke="#ff7f00"/>
  <path d="m159.02,188.81l10.86,44.93l-10.86,-44.93z" fill="#000000" fill-opacity="0" id="svg_64" stroke="#ff7f00"/>
  <path d="m138.54,203.26l13.27,38.9l-13.27,-38.9z" fill="#000000" fill-opacity="0" id="svg_65" stroke="#ff7f00"/>
  <path d="m112.04,209.29l20.49,42.52l-20.49,-42.52z" fill="#000000" fill-opacity="0" id="svg_66" stroke="#ff7f00"/>
  <path d="m210.83,382.78l-25.29,-127.36l-59.04,53.01" fill="#000000" fill-opacity="0" id="svg_67" stroke="#7fff00"/>
  <path d="m119.27,374.35l31.34,-34.59l28.92,72.29l-37.35,-40.96l12.05,49.4l-34.95,-46.13z" fill="none" id="svg_70" stroke="#ff0000"/>
  <path d="m285.53,369.53c0,0 -12.05,-80.72 10.84,-63.86c22.89,16.87 33.73,46.99 32.54,46.13c-1.19,-0.86 -43.39,17.72 -43.39,17.72z" fill="none" id="svg_71" stroke="#ff0000"/>
  <path d="m328.9,197.24l-37.34,-122.54l120.48,-13.25" fill="none" id="svg_72" stroke="#ff0000"/>
  <path d="m210.83,133.39l67.48,-53.87l4.82,90.36" fill="none" id="svg_73" stroke="#ff0000"/>
  <path d="m424.08,238.2l2.42,48.54l-2.42,-48.54z" fill="none" id="svg_74" stroke="#007fff"/>
  <path d="m597.58,216.52l2.42,36.49l-2.42,-36.49z" fill="none" id="svg_75" stroke="#007fff"/>
  <ellipse cx="258.52" cy="192.07" fill="#ff00ff" id="svg_76" rx="24.64" ry="13.7" stroke="#000000" stroke-opacity="0" transform="rotate(-17.6126 258.518 192.068)"/>
  <ellipse cx="517.98" cy="157.38" fill="#ff00ff" id="svg_77" rx="24.64" ry="13.7" stroke="#000000" stroke-opacity="0" transform="rotate(-17.6126 517.975 157.38)"/>
  <path d="m388.59,267.86l42.05,-32.72l-42.05,32.72z" fill="none" id="svg_78" stroke="#007fff"/>
  <path d="m566.06,236.32l38.44,-24.61l-38.44,24.61z" fill="none" id="svg_79" stroke="#007fff"/>
 </g>
</svg>