<svg xmlns="http://www.w3.org/2000/svg">

 <g class="layer">
  <g id="svg_122" transform="translate(-145.783 -48.1928) translate(253.614 81.2034) matrix(-0.899551 0 0 1 900.822 -708.02)">
   <path d="m517.56,841.78c-136.95,-66.8 -150.31,76.83 -127.28,108.87" fill="#000000" fill-opacity="0" id="svg_123" stroke="#000000" stroke-width="8"/>
   <path d="m798.9,912.56c6.78,-34.49 15.96,-62.96 31.17,-98.66c-12.89,-17.85 -55.46,-78.04 -81.55,-87.44c-33.78,-12.86 -92.17,-24.51 -143,-11.66l-70.36,119.32" fill="#000000" fill-opacity="0" id="svg_124" stroke="#000000" stroke-width="8"/>
   <path d="m661.54,860.73c-128.78,-57.03 -198.72,-12.91 -194.24,50.48" fill="#000000" fill-opacity="0" id="svg_125" stroke="#000000" stroke-width="6"/>
   <path d="m766.06,996.91c5.34,-25.64 5.98,-86.47 -44.64,-121.92c-50.62,-35.45 -143.19,-10.38 -134.29,101.54" fill="#000000" fill-opacity="0" id="svg_126" stroke="#000000" stroke-width="6"/>
   <path d="m753.98,1078.8l-0.27,-47.12c-91.3,-16.9 -222.98,-67.4 -300.1,-132.53c-18.85,35.69 -119.51,75.46 -171.84,80.72l-9.04,17.93" fill="none" id="svg_127" stroke="#000000" stroke-width="8"/>
   <path d="m997.79,995.18c-83.64,6.64 -137.48,70.94 -142.9,117.22" fill="#000000" fill-opacity="0" id="svg_128" stroke="#000000" stroke-width="8"/>
   <path d="m864.55,1089.16c-35,-36.51 -85.33,-1.83 -77.22,22.04" fill="#000000" fill-opacity="0" id="svg_129" stroke="#000000" stroke-width="8"/>
   <path d="m792.32,1093.98c-121.79,-54.8 -207.27,-15 -222.91,43.72" fill="#000000" fill-opacity="0" id="svg_130" stroke="#000000" stroke-width="8"/>
   <path d="m581.59,1111.45c-82.13,-106.94 -214.06,-89.74 -230.09,-30.27" fill="#000000" fill-opacity="0" id="svg_131" stroke="#000000" stroke-width="8"/>
   <path d="m375.17,1054.22c-49.65,-30.3 -83.46,-7.44 -84.69,17.22" fill="#000000" fill-opacity="0" id="svg_132" stroke="#000000" stroke-width="8"/>
   <path d="m312.96,1041.28c3.47,-28.51 -44.41,-53.21 -104.15,-40.64" fill="#000000" fill-opacity="0" id="svg_133" stroke="#000000" stroke-width="8"/>
   <path d="m920.59,1023.8c8.47,-33.92 -18.02,-49.19 -18.17,-50.55l13.08,-26.51l-108.04,-59.65" fill="#000000" fill-opacity="0" id="svg_134" stroke="#000000" stroke-width="8"/>
   <path d="m813.49,1045.78c-0.93,-111.79 62.54,-91.42 87.15,-70.69" fill="#000000" fill-opacity="0" id="svg_135" stroke="#000000" stroke-width="4"/>
   <path d="m895.92,1036.93c-13.34,-37.87 -43.88,4.79 -48.31,37.12l4.03,2.17c4.89,-26.59 20.37,-44.11 26.78,-42.47c-0.08,14.86 -0.93,21.45 -6.99,38.39l24.49,-35.21z" fill="#000000" id="svg_136" stroke="#000000" stroke-opacity="0" stroke-width="8"/>
   <path d="m737.51,1032.77l-47.22,-17.15c0.46,-56.72 45.47,-51.03 47.22,17.15z" fill="#000000" id="svg_137" stroke="#000000" stroke-opacity="0" stroke-width="8"/>
   <path d="m699.08,863.86l40.61,-120.13c-29.68,-13.56 -79.51,-28.93 -140.68,-19.28" fill="none" id="svg_138" stroke="#000000" stroke-width="8"/>
   <path d="m808.67,800.49c-57.36,-75.54 -69.44,-5.37 -77.39,38.41" fill="none" id="svg_139" stroke="#000000" stroke-width="2"/>
   <ellipse cx="157.69" cy="-25.92" fill="#000000" id="svg_140" rx="24.64" ry="13.7" stroke="#000000" stroke-opacity="0" stroke-width="8" transform="matrix(-0.985096 -0.30258 -0.312729 0.953124 901.365 931.745)"/>
   <ellipse cx="335.63" cy="60.54" fill="#000000" id="svg_141" rx="24.64" ry="13.7" stroke="#000000" stroke-opacity="0" stroke-width="8" transform="matrix(-0.985096 -0.30258 -0.312729 0.953124 853.693 855.274)"/>
   <path d="m449.65,930.92c-10.21,41.6 -43.9,94.74 -58.29,108.39" fill="#000000" fill-opacity="0" id="svg_142" stroke="#000000" stroke-width="4"/>
   <path d="m656.51,722.45c-15.08,26.58 -44.11,88.78 -54.35,118.69" fill="#000000" fill-opacity="0" id="svg_143" stroke="#000000" stroke-width="8"/>
   <ellipse cx="391.63" cy="268.08" fill="#000000" id="svg_144" rx="18.92" ry="34.23" stroke="#000000" stroke-opacity="0" stroke-width="8" transform="matrix(-1.03354 0 0 1 1031.39 663.001)"/>
   <ellipse cx="603.74" cy="219.91" fill="#000000" id="svg_145" rx="16.22" ry="30.18" stroke="#000000" stroke-opacity="0" stroke-width="8" transform="matrix(-1.03354 0 0 1 1031.39 663.001)"/>
   <path d="m738.55,853.91l-34.03,7.59l34.03,-7.59z" fill="none" id="svg_146" stroke="#000000" stroke-width="10"/>
   <line fill="none" id="svg_147" stroke="#000000" stroke-width="10" x1="507.85" x2="530.02" y1="818.11" y2="835.57"/>
   <g id="svg_148" transform="translate(827.54 925.596) scale(0.918436 0.876835) translate(-827.54 -925.596)">
    <path d="m930.94,918.65l-103.4,-71.31l103.4,71.31z" fill="#000000" fill-opacity="0" id="svg_149" stroke="#000000" stroke-width="8"/>
    <path d="m879.11,867.81l-15.46,48.2l15.46,-48.2z" fill="#000000" fill-opacity="0" id="svg_150" stroke="#000000" stroke-width="8"/>
    <path d="m858.1,858.57c-1.03,13.14 -4.61,29.71 -15.87,48.32" fill="none" id="svg_151" stroke="#000000" stroke-width="8"/>
    <path d="m897.09,877.27c-5.28,10.77 -11.65,27.18 -15.87,48.32" fill="none" id="svg_152" stroke="#000000" stroke-width="8"/>
   </g>
  </g>
 </g>
</svg>
