<svg xmlns="http://www.w3.org/2000/svg"
 viewBox="-5 -5 225 330"
>
  <g>

    <defs>
      <path id="shade" d=" M 104.3 73.9 L 122.9 66.1 L 125.0 131.5 Z M 31.8 136.0 L 55.8 28.5 L 80 137 L 95.8 136.0 L 101.8 188.5 L 90.4 197.1 L 104.3 204.0 L 107.2 207.8 L 92.7 216.9 L 107.2 225.9 L 93.8 239.2 L 95.8 245.1 L 44.8 211.3 L 40.7 209.6 L 50.6 203.1 L 40.7 198.9 L 56.3 193.8 L 42.1 187.9 L 55.2 178.3 L 40.7 136.5 L 31.8 136.0 Z " />
    </defs>

    <g fill="white">
    <use href="#shade" fill="pat(dots,white)" fill-opacity="0.7"/>
    <use href="#shade" fill="#000" fill-opacity="0.3"/>
    </g>

    <g>

      <g fill="white"> 
      <path id="front" d=" M 146.4 12.5 L 150.2 12.5 C 153.5 30.9 157.9 49.2 163.4 67.2 L 160.2 72.0 C 158.2 92.7 157.2 115.9 156.9 141.5 L 178.2 144.3 C 176.0 156.6 174.2 169.5 172.9 181.1 C 166.7 183.1 160.4 185.8 154.0 189.2 C 156.9 192.5 163.2 195.1 169.3 197.1 L 164.6 198.8 C 166.4 199.7 168.7 200.9 170.2 202.3 L 161.7 205.1 C 163.4 207.5 166.4 210.3 170.5 213.3 C 150.6 222.8 129.8 240.3 111.0 262.7 L 91.7 240.4 L 108.6 228.3 C 104.8 224.5 98.8 219.4 92.6 217.4 C 96.8 213.2 101.6 209.7 107.0 206.8 L 92.2 196.1 L 100.5 190.1 C 100.6 174.6 98.8 156.4 94.9 135.5 L 125.1 138.0 L 122.0 64.2 L 129.6 59.2 C 136.3 44.4 142.0 28.9 146.4 12.5 Z  M 136.0 82.3 L 138.9 83.1 C 142.8 95.2 147.6 105.2 153.6 116.2 C 148.0 116.8 142.3 116.4 136.2 114.9 C 135.1 102.6 135.4 93.2 136.0 82.3 Z " 
       fill-rule="evenodd" 
       fill="pat(dots,white)"
      />
      </g>

      <g fill="#333">
        <path id="roof" d=" 
          M 135.6 82.7 L 138.3 84.2 C 143.5 97.0 149.3 108.0 154.0 115.7 C 149.9 116.5 143.4 116.3 136.5 114.9 C 135.7 105.3 135.4 94.6 135.6 82.7 Z
          M 54.7 14.6 C 73.9 29.9 92.2 42.2 109.3 51.5 C 119.7 43.4 131.4 31.9 144.4 16.7 C 141.2 32.2 136.0 46.7 128.8 60.2 C 120.9 65.7 113.1 70.1 105.3 73.6 C 108.3 90.9 115.2 112.2 126.1 137.2 C 107.6 135.4 92.1 135.3 79.3 136.6 C 69.1 101.2 60.9 60.5 54.7 14.6 Z
          M 158.8 76.3 L 167.9 76.8 C 172.5 99.4 180.0 122.3 190.3 145.3 C 178.6 142.3 167.4 140.8 156.8 140.9 L 158.8 76.3 Z
        " />
      </g>

      <path id="outline" d=" 
        M 131.1 61.4 C 128.9 63.0 126.7 64.5 124.5 65.9 C 124.7 76.8 126.1 119.0 126.6 128.8 C 128.9 133.2 131.1 137.1 133.4 140.5 C 133.4 140.5 133.4 140.5 133.4 140.5 C 131.3 140.3 129.3 140.2 127.3 140.1 C 127.3 140.1 127.3 140.1 127.3 140.1 C 116.9 139.4 107.5 139.0 99.1 139.1 C 101.7 156.3 103.5 172.9 104.4 189.0 C 128.2 184.6 151.2 181.8 170.5 179.8 C 171.0 168.0 172.5 157.0 175.0 145.3 C 170.1 144.4 161.0 143.4 154.9 143.1 C 155.8 118.8 157.1 82.4 158.9 65.2 C 154.8 50.8 150.6 34.8 147.6 19.0 Q 136.8 51.3 131.1 61.4 L 131.1 61.4 L 131.1 61.4 L 131.1 61.4 L 131.1 61.4 L 131.1 61.4 L 131.1 61.4 L 131.1 61.4 L 131.1 61.4 L 131.1 61.4 L 131.1 61.4 Z  
        M 185.3 141.4 C 178.7 130.7 166.1 91.8 165.9 78.3 C 164.9 78.5 161.9 78.5 160.5 78.2 L 158.4 137.6 C 167.7 138.2 177.5 139.7 185.3 141.4 L 185.3 141.4 L 185.3 141.4 L 185.3 141.4 L 185.3 141.4 L 185.3 141.4 L 185.3 141.4 L 185.3 141.4 L 185.3 141.4 L 185.3 141.4 Z  
        M 110.9 53.6 C 108.9 60.4 106.9 64.0 102.2 72.1 C 111.3 67.9 119.5 63.3 126.6 58.1 Q 132.3 47.8 142.3 21.6 C 132.6 34.6 122.0 45.7 110.9 53.6 Z  
        M 120.1 68.7 L 122.8 126.0 C 115.2 104.2 110.1 87.3 107.2 75.0 C 111.5 73.3 115.8 71.2 120.1 68.7 L 120.1 68.7 L 120.1 68.7 L 120.1 68.7 L 120.1 68.7 L 120.1 68.7 L 120.1 68.7 L 120.1 68.7 Z  
        M 107.6 53.6 C 93.3 47.3 71.6 33.8 59.4 23.7 C 66.3 70.8 74.2 107.0 82.9 131.9 C 94.9 131.1 107.9 131.5 121.7 133.3 C 113.5 111.6 107.6 92.7 104.1 76.6 Q 104.1 76.4 104.1 76.2 C 102.0 77.0 99.8 77.7 97.6 78.3 L 96.4 75.7 C 99.9 71.7 103.6 64.3 107.6 53.6 L 107.6 53.6 L 107.6 53.6 L 107.6 53.6 L 107.6 53.6 L 107.6 53.6 L 107.6 53.6 Z  
        M 98.5 187.7 L 89.4 195.1 C 71.8 194.3 57.2 192.1 45.5 188.5 C 51.1 186.9 55.5 183.9 58.7 179.6 C 54.9 166.5 48.7 150.9 39.9 132.7 C 46.9 112.4 53.2 90.4 58.7 66.6 C 63.3 94.6 68.5 119.2 74.3 140.5 C 79.8 139.8 86.0 139.3 93.0 139.2 C 95.9 155.1 97.7 171.3 98.5 187.7 L 98.5 187.7 L 98.5 187.7 L 98.5 187.7 L 98.5 187.7 L 98.5 187.7 Z  
        M 95.4 194.9 C 115.9 195.4 141.4 194.1 154.1 192.2 C 155.6 193.1 157.2 193.9 158.9 194.6 C 161.1 195.6 163.6 196.5 166.2 197.3 C 148.4 198.7 129.5 201.3 109.2 205.0 L 95.4 194.9 L 95.4 194.9 L 95.4 194.9 L 95.4 194.9 L 95.4 194.9 Z  
        M 97.2 215.7 C 101.8 217.6 105.9 220.6 109.4 224.6 C 124.1 216.3 143.3 208.7 167.0 201.7 C 166.2 200.6 164.9 199.9 163.1 199.5 C 143.2 202.8 123.8 206.6 104.8 210.9 C 101.8 212.4 99.3 214.0 97.2 215.7 L 97.2 215.7 L 97.2 215.7 L 97.2 215.7 Z  
        M 96.6 239.5 C 117.5 226.1 139.4 215.1 160.8 206.7 C 162.4 208.6 164.1 210.1 166.9 212.0 C 144.3 223.6 125.5 239.1 110.4 258.4 L 96.6 239.5 L 96.6 239.5 L 96.6 239.5 Z  
        M 104.3 225.3 L 93.5 237.7 C 80.6 225.3 64.1 216.0 44.0 209.8 L 51.8 205.9 C 68.6 209.8 86.1 216.3 104.3 225.3 L 104.3 225.3 Z  
        M 110.1 48.1 C 88.8 36.6 65.2 19.0 51.8 3.3 C 43.8 59.7 31.9 107.0 16.1 145.2 C 24.7 144.2 32.6 143.5 40.0 143.4 C 46.4 156.6 51.0 168.3 53.6 178.4 C 50.3 182.7 45.4 185.4 38.8 186.5 C 41.6 189.3 45.5 191.9 50.4 194.5 C 47.0 196.2 42.5 197.3 36.8 197.7 C 40.5 201.3 44.1 203.6 47.6 204.6 L 36.8 210.0 C 43.2 212.0 48.2 215.0 51.7 218.8 C 73.7 229.7 93.7 245.9 111.4 267.2 C 131.0 240.7 152.2 222.8 173.1 213.6 C 170.3 211.8 166.7 209.0 163.8 205.8 L 173.5 202.6 C 171.7 201.1 169.6 199.9 167.1 199.0 L 171.8 197.0 C 167.1 195.3 162.2 193.1 157.0 190.4 C 163.3 187.0 169.6 184.4 175.9 182.6 C 176.7 171.1 178.3 159.3 180.6 147.0 C 186.0 147.8 191.2 148.7 196.3 149.7 C 181.1 122.1 172.3 97.1 169.8 74.5 C 166.9 74.6 164.1 74.5 161.3 74.4 L 169.5 68.6 C 161.3 48.6 155.1 25.7 150.9 0 C 136.7 20.7 123.0 38.7 110.1 48.1 Z  
        M 55.2 195.4 C 52.8 197.1 48.8 198.4 44.7 199.2 C 59.7 203.2 76.2 208.2 92.6 214.3 C 95.4 210.9 98.9 208.3 103.0 206.4 L 100.6 203.7 C 87.0 202.0 71.9 199.3 55.2 195.4 Z " 
      fill-rule="evenodd" />

      <path id="bend" d=" M 52.3 181.6 L 49.3 178.1 L 53.6 174.8 C 65.5 176.4 79.7 180.2 91.8 184.8 C 76.5 180.7 63.9 179.3 57.2 179.0 L 69.4 182.1 L 52.3 181.6 Z " />

      <g id="motion_line">
        <path d=" M 60.8 108.1 L 66.3 148.4 L 83.5 145.9 L 64.3 151.0 L 60.8 108.1 Z " />
        <path d=" M 57.0 111.4 L 61.5 154.1 L 81.4 149.7 L 59.3 157.5 L 57.0 111.4 Z " />
        <path d=" M 20.9 109.6 L 8.4 150.5 L 26.7 149.9 L 6.4 153.2 L 20.9 109.6 Z " />
        <path d=" M 10.9 118.7 L 3.4 155.8 L 25.1 154.3 L 0 158.8 L 10.9 118.7 Z " />
      </g>

      <defs>
        <mask id="swirl_mask">
        <rect width="100%" height="100%" fill="#fff"/>
        <path d=" M 170.2 224.3 C 192.7 225.7 190.1 234.7 167.6 239.9 C 147.4 244.6 131.2 247.1 92.3 248.8 C 152.5 243.0 187.5 236.4 170.2 224.3 Z " />
        <path d=" M 64.4 241.2 C 56.0 240.1 46.6 240.7 41.8 241.6 C 27.9 244.1 45.0 252.3 99.2 250.6 C 37.8 251.1 44.9 241.7 64.4 241.2 Z " />
        <path d=" M 141.3 254.9 C 158.4 262.8 154.2 278.0 130.7 287.5 C 145.0 283.7 154.8 278.3 156.6 268.3 C 157.2 272.7 155.8 276.6 150.4 280.4 C 166.7 272.6 164.4 261.2 141.3 254.9 Z " />
        <path d=" M 140.3 292.3 C 149.8 299.5 150.8 305.5 145.7 311.3 C 154.3 306.9 154.0 300.2 140.3 292.3 Z " />
        <path d=" M 132.5 315.7 C 143.0 312.5 147.2 303.3 143.4 297.7 C 150.2 303.2 146.8 312.9 132.5 315.7 Z " />
        <path d=" M 102.4 278.9 C 88.4 276.0 78.0 276.4 71.7 277.6 C 56.7 280.5 72.4 289.2 108.0 290.1 C 55.6 287.5 64.4 272.7 102.4 278.9 Z " />
        </mask>
      </defs>

      <g id="swirls_black" mask="url(#swirl_mask)">
        <path d=" M 132.6 251.6 C 188.4 259.0 161.9 290.9 108.8 291.7 C 32.2 292.8 57.3 260.8 126.8 284.0 C 70.7 270.5 51.0 288.2 111.7 288.0 C 143.5 287.9 163.5 269.4 132.6 251.6 Z " />
        <path d=" M 153.4 220.1 C 222.4 218.8 198.7 250.3 83.9 251.9 C 5.9 253.0 10.9 234.0 84.1 240.3 C 49.3 242.0 49.1 249.7 84.8 247.2 C 160.4 242.0 183.4 229.5 153.4 220.1 Z " />
        <path d=" M 112.1 317.0 C 127.5 315.2 119.0 312.5 111.3 312.0 C 102.1 311.3 88.9 316.0 107.9 318.1 C 133.9 321.0 184.7 308.6 126.4 283.9 C 125.4 283.5 117.9 282.1 116.9 281.7 C 159.9 294.7 143.6 319.3 112.1 317.0 Z " />
      </g>

      <g id="window">
        <path d=" M 47.8 242.5 C 37.8 242.1 36.7 247.0 54.8 248.7 C 43.3 246.8 40.7 243.7 47.8 242.5 Z " />
        <path d=" M 173.5 226.0 C 188.9 228.0 184.3 237.7 160.1 241.5 C 179.0 236.4 182.6 228.3 173.5 226.0 Z " />
        <path d=" M 136.9 63.8 C 137.1 65.5 136.8 66.3 136.5 67.0 C 140.9 69.0 147.6 70.5 156.4 71.5 L 151.7 74.7 C 149.9 85.1 149.1 95.2 149.2 105.0 L 156.7 117.4 C 149.7 118.5 142.4 118.1 134.7 116.3 C 133.7 98.7 133.6 82.8 134.4 68.6 C 133.9 68.6 132.0 69.2 130.5 68.9 C 131.9 68.9 136.7 65.1 136.9 63.8 L 136.9 63.8 Z  M 137.0 85.8 L 151.2 114.8 C 147.4 115.1 143.3 114.9 138.9 114.2 C 137.8 107.5 136.9 96.4 137.0 85.8 L 137.0 85.8 Z " />
      </g>

    </g>
  </g>
</svg>