<svg
 xmlns="http://www.w3.org/2000/svg"
 style="
  isolation: isolate;
  background-color: #000;
 " 
 viewBox="0 0 800 500"
>

 <style>
  circle {
   fill: green;
   fill-opacity: 0.75;
   stroke: orange;
   stroke-width: 0.5;
  }
 </style>

 <defs>
  <ellipse id="hole" fill="#000" rx="2" ry="4" />
  <mask id="arc_mask">
   <rect width="100%" height="100%" fill="#fff" />
   <path d=" M 423 149  Q 362 168 190 244 Q 360 158 430 142 Z " fill="#000" />
  </mask>
 </defs>

 <g id="ikon">

<path d="
M12.745 20.54
l10.97-8.19
c.539-.4 1.307-.244 1.564.38 1.349 3.288.746 7.241-1.938 9.955-2.683 2.714-6.417 3.31-9.83 1.954
l-3.728 1.745
c5.347 3.697 11.84 2.782 15.898-1.324 3.219-3.255 4.216-7.692 3.284-11.693
l.008.009
c-1.351-5.878.332-8.227 3.782-13.031
L33 0
l-4.54 4.59
v-.014
L12.743 20.544z

m-2.263 1.987
c-3.837-3.707-3.175-9.446.1-12.755 2.42-2.449 6.388-3.448 9.852-1.979
l3.72-1.737
c-.67-.49-1.53-1.017-2.515-1.387-4.455-1.854-9.789-.931-13.41 2.728-3.483 3.523-4.579 8.94-2.697 13.561 1.405 3.454-.899 5.898-3.22 8.364
C1.49 30.2.666 31.074 0 32
l10.478-9.466z
"
fill="orange" transform="scale(5)"/>

  <g fill="#eee" mask="url(#arc_mask)">

   <path d="
    M 16 340 L 190 273 Q 364 206 412 192 L 423 149 Q 362 168 190 244 L 18 320 Z
    M 43 275 L152 204 V 217 L43 279 Z"/>

   <path d="
    M 36 319 V 304 H 27 V 296 L 175 213 V 196 H 157 V 174 H 184
    Q 280 152 340 184 L 330 198
    Q 275 175 195 196 V 219
    Q 275 193 330 215 Z " />
  </g>

  <g id="stax" fill="#900">
   <path d="M228 98 L226 79 C224 64 185 69 176 89 L177 114 C188 96 226 87 228 99 Z" />
   <path d="M162 143 L160 127 C158 114 126 118 119 135 L120 156 C129 141 161 134 162 143" />
   <path d="M108 180 L106 164 C105 152 77 156 70 172 L71 192 C79 177 106 171 107 180 Z" />
   <path d="M 28 394 L 375 353 L 371 400  H 28 Z"/>
  </g>


 </g>
</svg>