<?xml version="1.0"?>
<svg width="800" height="500" xmlns="http://www.w3.org/2000/svg" xmlns:svg="http://www.w3.org/2000/svg">
 <!-- Created with SVG-edit - https://github.com/SVG-Edit/svgedit-->
 <g class="layer">
  <title>Layer 1</title>
  <g id="svg_55" transform="translate(-4.21053 11.5789) matrix(1.33731 0 0 1 -24.0042 27.5862)">
   <path d="m83.99,315.03l16,56.64l479.12,-11.47l5.24,-50.73l-500.36,5.56z" fill="#7f0000" id="svg_3" stroke="#000000" stroke-opacity="0" stroke-width="5"/>
   <path d="m177.22,104.88l386.14,0.91l-6.09,-32.1l-354.74,0.79l-6.33,8.33l39.48,-0.34l-3.46,8.19l-42.11,0.53l-12.9,13.7z" fill="#ffffff" id="svg_5" stroke="#000000" stroke-opacity="0" stroke-width="5"/>
   <path d="m50.72,109.36l9.75,20.07l522.92,-12.2l1.79,-8.04l-534.46,0.17z" fill="#ffffff" id="svg_8" stroke="#000000" stroke-opacity="0" stroke-width="5"/>
   <path d="m83.1,311.06l0.7,1.3l500.39,-2.35l0.29,-1.76l-501.38,2.81z" fill="#ffffff" id="svg_54" stroke="#000000" stroke-opacity="0" stroke-width="5"/>
  </g>
  <path d="m411.92,26.24l-9.69,17.62l38.83,-0.15l1.43,-17.91l-30.58,0.43z" fill="#7f0000" id="svg_9" stroke="#000000" stroke-opacity="0" stroke-width="5"/>
  <path d="m401.28,46.25l-1.93,3.57l41.5,0l0,-3.69l-39.56,0.12z" fill="#7f0000" id="svg_10" stroke="#000000" stroke-opacity="0" stroke-width="5" transform="matrix(1 0 0 1 0 0)"/>
  <path d="m587.9,45.47l-1.93,3.57l41.5,0l0,-3.69l-39.56,0.12z" fill="#7f0000" id="svg_14" stroke="#000000" stroke-opacity="0" stroke-width="5"/>
  <path d="m598.55,25.46l-9.69,17.62l38.83,-0.15l1.43,-17.91l-30.58,0.43z" fill="#7f0000" id="svg_13" stroke="#000000" stroke-opacity="0" stroke-width="5" transform="matrix(1 0 0 1 0 0)"/>
  <path d="m687.67,113.59c-5.74,-52.97 -123.07,-63.53 -205.93,-56.27c-82.86,7.26 -152.17,50.19 -156.21,71.42c-4.04,21.23 11.68,59.53 132.95,67.21c121.26,7.68 29.19,117.86 2.7,71.02c-26.48,-46.83 71.77,-116.13 145.94,-91.32c74.17,24.82 81.76,90.59 26.12,114.99c-55.64,24.4 -49.96,84.38 7.75,82.15" fill="#000000" fill-opacity="0" id="svg_56" stroke="#ffffff" stroke-width="0.5"/>
  <path fill="none" id="svg_20" stroke="#000000" stroke-width="0.5"/>
  <g id="svg_50" transform="matrix(1 0 0 1 0 0) translate(-1.38504 33.1025) translate(177.996 365.798) matrix(1.04236 0 0 1 -194.976 -228.228)">
   <rect fill="#000000" height="10.64" id="svg_51" stroke="#000000" stroke-opacity="0" stroke-width="5" width="2.4" x="138.4" y="229.28"/>
   <path d="m139.61,230.36c14.16,5.38 32.53,4.66 46.39,0.24" fill="none" id="svg_52" stroke="#000000" stroke-width="0.5"/>
  </g>
  <path d="m503.9,25.69l-24.28,44.16l51.98,0l1.76,-42.73l-29.46,-1.43z" fill="#000000" id="svg_57" stroke="#000000" stroke-opacity="0" stroke-width="0.5" transform="matrix(1 0 0 1 0 0)"/>
  <path d="m503.28,24.09l-9.69,17.62l38.83,-0.15l1.43,-17.91l-30.58,0.43z" fill="#7f0000" id="svg_11" stroke="#000000" stroke-opacity="0" stroke-width="5" transform="matrix(1 0 0 1 0 0)"/>
  <path d="m492.63,44.1l-1.93,3.57l41.5,0l0,-3.69l-39.56,0.12z" fill="#7f0000" id="svg_12" stroke="#000000" stroke-opacity="0" stroke-width="5" transform="matrix(1 0 0 1 0 0)"/>
 </g>
</svg>