<svg xmlns="http://www.w3.org/2000/svg"
viewBox="0 0 260 200"
>

  <defs>
    <path id="mask" d=" M 38 39 Q 110 30 158 48 Q 163 75 154 108 L 156 118 L 65 112 L 16 116 L 21 92 Q 18 80 4 67 Z "/> 
  </defs>

 
  <g id="ikon" fill="var(--outline-color, #000)">

    <path id="roof" fill="var(--roof-color, none)" d=" M 38 39 Q 110 30 156.6 49.15 Q 107 36.5 76 40.5 Q 63 50 52 64 Q 34 56 8 63 Z " />

    <path id="stripe" fill="var(--stripe-color, none)" d=" M 18 106 L 67 97 L 154 107 L 155 118 L 16 116 Z "/> 
    
    <path d=" M 116.5 129.9 C 117.0 134.0 118.8 137.1 121.0 137.5 L 121.0 137.5 L 90.5 137.5 Q 89.5 136.8 88.7 135.7 L 87.1 135.7 Q 86.5 136.7 85.6 137.5 L 85.6 137.5 L 63.0 137.5 L 63.0 137.5 Q 61.3 136.3 60.5 133.5 Q 59.0 136.3 57.1 137.5 L 46.3 137.5 C 42.2 135.9 39.7 133.4 38.7 130.0 L 27.2 128.7 C 27.6 126.2 27.9 123.1 27.9 119.5 L 14.7 116.5 C 18.7 99.6 21.1 91.0 20.9 85.1 C 22.1 87.7 20.9 95.7 18.2 114.8 L 65.9 109.8 L 154.7 116.8 L 157.1 119.2 L 145.5 120.7 L 146.6 132.7 L 138.7 132.6 Q 138.5 133.1 138.4 133.5 L 138.4 133.5 L 138.4 133.5 C 137.8 135.4 137.0 136.7 136.2 137.5 L 133.1 137.5 L 133.1 137.5 C 134.9 137.2 136.4 134.7 137.0 131.4 L 128.3 130.8 C 128.8 134.4 130.4 137.1 132.3 137.5 L 121.9 137.5 C 124.0 137.1 125.7 134.4 126.3 130.6 L 116.5 129.9 Z  M 87.2 127.9 L 87.2 127.9 C 86.7 132.3 84.4 135.6 81.7 135.6 C 78.8 135.6 76.4 131.9 76.2 127.1 L 87.2 127.9 Z  M 102.6 129.0 L 102.6 129.0 C 102.1 133.1 99.9 136.2 97.2 136.2 C 94.4 136.2 92.1 132.7 91.7 128.2 L 102.6 129.0 Z " fill-rule="evenodd" />

    <path d=" M 5.9 81.2 L 10.3 73.3 L 8.4 71.3 L 5.1 77.0 C 0.8 72.7 1.6 67.6 5.1 66.9 C 7.2 66.4 17.7 57.7 38.7 40.2 C 75.2 34.1 114.4 37.1 156.4 49.2 C 159.3 71.4 157.9 93.0 152.3 106.6 L 153.0 116.7 L 157.1 119.2 L 155.5 107.0 C 161.9 91.8 163.5 68.8 158.9 47.5 C 119.6 33.7 78.5 31.1 37.4 38.0 C 20.8 51.8 2.8 64.8 2.1 65.3 C 0.8 66.4 -3.5 73.0 5.9 81.2 Z " />

    <path d=" M 75.8 40.2 C 62.4 49.3 55.7 56.5 51.8 61.7 C 45.3 55.5 -4.7 58.0 5.7 69.8 C 7.2 71.4 16.4 80.3 20.6 93.4 L 21.0 90.1 C 19.6 83.0 9.7 70.7 8.4 69.8 C 0.1 63.4 37.2 55.9 52.4 65.6 C 59.8 55.9 67.2 46.8 77.0 40.7 C 86.5 39.3 97.8 39.3 111.0 40.7 C 97.4 38.8 85.6 38.6 75.8 40.2 Z " />

    <path d=" M 18.7 105.3 C 31.7 101.3 47.4 98.4 66.8 96.4 L 154.5 106.3 L 154.5 108.0 L 66.8 99.3 C 47.7 101.0 31.7 103.7 17.7 107.3 L 18.7 105.3 Z " />

    <path d=" M 30.9 96.9 C 34.9 95.8 40.1 94.9 46.4 94.3 L 46.4 94.3 L 48.1 79.4 L 34.6 64.2 C 30.1 64.0 26.0 64.4 22.8 65.2 L 32.1 80.5 L 30.9 96.9 Z  M 28.5 97.6 C 26.7 98.1 25.2 98.7 24.2 99.3 L 25.4 84.1 L 15.2 69.6 C 16.0 68.0 18.0 66.7 20.8 65.8 L 30.1 81.2 L 28.5 97.6 Z  M 49.9 94.0 C 52.5 93.8 55.3 93.7 58.2 93.6 L 58.2 80.4 L 47.1 65.8 C 43.9 65.1 40.8 64.6 37.8 64.4 L 50.6 79.8 L 49.9 94.0 L 49.9 94.0 Z " fill-rule="evenodd" />

    <path d=" M 133.9 48.8 C 128.4 47.5 122.9 46.4 117.5 45.6 L 117.5 45.6 C 122.4 66.4 122.8 83.6 118.6 97.2 L 131.5 98.8 C 135.4 88.3 136.2 71.7 133.9 48.8 Z  M 139.7 50.3 C 143.7 51.4 147.7 52.7 151.6 54.1 C 153.7 71.9 152.9 89.1 148.3 101.0 L 136.1 99.4 C 140.7 88.5 141.9 72.2 139.7 50.3 Z  M 112.5 45.0 C 105.7 44.3 98.8 44.0 92.0 44.1 L 92.0 44.1 C 100.1 60.7 102.6 77.6 99.6 94.8 L 113.6 96.6 C 118.3 82.8 117.9 65.6 112.5 45.0 L 112.5 45.0 Z  M 87.3 44.8 C 80.2 47.9 73.9 51.8 68.4 56.5 L 78.8 76.2 L 77.0 92.0 L 94.0 94.1 C 94.7 85.0 94.8 77.1 94.5 70.4 L 87.3 44.8 L 87.3 44.8 L 87.3 44.8 Z " fill-rule="evenodd" />

    <path d=" M 57.1 62.7 L 68.0 80 L 66.7 105.7 L 66.3 80.2 L 57.1 62.7 Z " />

    <path d=" M 4.9 65.2 L 1.8 68.0 L 1.1 70.9 L 3.8 78.0 L 5.4 78.9 L 9.1 72.0 L 4.9 65.2 Z " />

    <path d=" M 46.3 137.5 L 22.5 140.4 L 181.5 140.4 L 137.1 136.2 L 134.4 137.5 Z " />

    <path d=" M 60.5 57.5 C 60.5 55.1 58.6 53.1 54.6 51.4 L 55.9 51.4 C 59.4 52.3 61.2 54.4 61.4 57.5 L 60.5 57.5 Z " />

    <path d=" M 62.7 56.3 C 62.7 53.8 60.8 51.6 56.8 49.9 L 57.8 49.5 Q 62.9 51.6 63.4 55.6 L 62.7 56.3 Z " />

    <path d=" M 63.9 80.2 L 70.2 78.9 L 67.2 80.5 L 70.6 80.4 L 63.6 81.5 L 67.2 80 L 63.9 80.2 Z " />

  </g>

</svg>