<svg xmlns="http://www.w3.org/2000/svg">

  <g id="red_T" transform="translate(-224.658 -379.452)">

  <g id="svg_6" transform="translate(224.658 379.452)"
	fill="pat(dots)" >
   <path d="m87.06,255.39l-2.35,8.05l-2.46,4.92l-2.99,3.34l-5.45,0.35l-6.68,-7.21l-4.92,-12.13l-1.58,-12.48l0.7,-6.15l41.3,1.58l-1.76,8.26l-0.88,9.84l1.58,9.67l2.46,9.31l-9.31,-0.18l-5.45,-10.37l-2.21,-6.82z" />
   <path d="m158.07,272.26l-6.05,-1.61l-4.04,-11.78l-2.11,-24.6l16.52,1.41l-1.23,17.4l3.16,17.05l-6.26,2.14z" />
	 <path d="m91.11,14.64c44.38,4.43 106.73,2.58 142.64,-7.79c19.39,2.64 34.04,17.57 33.39,31.11c-45.11,-2.34 -113.24,1.11 -158.7,11.6c-1.73,-11.46 -5.4,-23.98 -17.33,-34.92z" />
  </g>

   <g>
    <g display="none" id="hatch_lines">
     <path d="m302.13,616.38l0.23,-0.12l0.24,0.47l-0.24,0.12l-13.4,6.7l-0.23,0.12l-0.24,-0.47l0.24,-0.12l13.4,-6.7z" />
     <path d="m312.78,616.17l0.24,-0.11l0.22,0.48l-0.24,0.12l-22.66,10.64l-0.25,0.11l-0.22,-0.48l0.24,-0.11l22.67,-10.65z" />
     <path d="m324.99,619.13l0.24,-0.11l0.24,0.48l-0.24,0.11l-34.89,17.15l-0.24,0.12l-0.23,-0.48l0.24,-0.12l34.88,-17.15z" />
     <path d="m325.19,623.47l0.24,-0.12l0.23,0.48l-0.24,0.12l-34.88,17.15l-0.24,0.11l-0.23,-0.47l0.23,-0.12l34.89,-17.15z" />
     <path d="m325.39,627.41l0.24,-0.11l0.23,0.47l-0.24,0.12l-34.88,17.15l-0.24,0.12l-0.24,-0.48l0.24,-0.12l34.89,-17.15z" />
     <path d="m325.39,632.14l0.24,-0.11l0.23,0.47l-0.24,0.12l-34.88,17.15l-0.24,0.11l-0.24,-0.47l0.24,-0.12l34.89,-17.15z" />
     <path d="m309.02,643.97l0.24,-0.12l0.24,0.47l-0.23,0.13l-12.22,6.3l-0.24,0.12l-0.24,-0.47l0.23,-0.12l12.22,-6.31z" />
     <path d="m322.44,616.17l0.24,-0.11l0.22,0.48l-0.24,0.12l-32.92,15.37l-0.24,0.11l-0.22,-0.48l0.24,-0.11l32.92,-15.38z" />
     <path d="m299.76,614.41l0.24,-0.13l0.24,0.48l-0.24,0.12l-13.4,6.7l-0.24,0.12l-0.24,-0.47l0.24,-0.13l13.4,-6.69z" />
     <path d="m326.96,639.24l0.24,-0.12l0.24,0.47l-0.24,0.13l-13.4,6.7l-0.24,0.12l-0.24,-0.48l0.24,-0.12l13.4,-6.7z" />
     <path d="m326.77,635.1l0.24,-0.12l0.23,0.47l-0.23,0.13l-13.41,6.7l-0.24,0.12l-0.23,-0.48l0.23,-0.12l13.41,-6.7z" />
     <path d="m326.77,643.77l0.24,-0.11l0.23,0.48l-0.24,0.11l-10.25,4.93l-0.24,0.11l-0.23,-0.48l0.24,-0.11l10.25,-4.93z" />
     <path d="m382.39,616.72l0.24,-0.12l0.23,0.48l-0.23,0.12l-10.26,4.92l-0.24,0.12l-0.23,-0.48l0.24,-0.12l10.25,-4.92z" />
     <path d="m384.05,623.64l0.24,-0.11l0.23,0.48l-0.24,0.11l-10.25,4.93l-0.24,0.11l-0.23,-0.48l0.24,-0.11l10.25,-4.93z" />
     <path d="m384.49,628.25l0.24,-0.11l0.23,0.48l-0.24,0.11l-10.25,4.93l-0.24,0.11l-0.23,-0.48l0.24,-0.11l10.25,-4.93z" />
     <path d="m384.71,631.98l0.24,-0.11l0.23,0.48l-0.24,0.12l-10.25,4.92l-0.24,0.12l-0.23,-0.48l0.24,-0.12l10.25,-4.93z" />
     <path d="m384.93,635.94l0.24,-0.12l0.23,0.48l-0.24,0.11l-10.25,4.94l-0.24,0.11l-0.23,-0.48l0.24,-0.11l10.25,-4.93z" />
     <path d="m386.03,639.89l0.24,-0.12l0.22,0.48l-0.24,0.12l-10.24,4.92l-0.24,0.12l-0.23,-0.48l0.24,-0.11l10.25,-4.93z" />
     <path d="m386.69,643.4l0.23,-0.11l0.23,0.47l-0.24,0.12l-10.24,4.93l-0.24,0.11l-0.23,-0.47l0.24,-0.12l10.25,-4.93z" />
     <path d="m383.61,619.69l0.24,-0.11l0.23,0.47l-0.24,0.12l-10.25,4.93l-0.24,0.11l-0.22,-0.48l0.23,-0.11l10.25,-4.93z" />
     <path d="m332.43,396.46l0.24,-0.12l0.23,0.48l-0.24,0.12l-10.25,4.92l-0.24,0.12l-0.23,-0.48l0.24,-0.12l10.25,-4.92z" />
     <path d="m346.41,396.4l0.23,-0.13l0.26,0.46l-0.23,0.13l-19.09,10.72l-0.23,0.14l-0.26,-0.47l0.23,-0.13l19.09,-10.72z" />
     <path d="m356.92,397.17l0.22,-0.14l0.27,0.42l-0.21,0.14l-27.24,17.22l-0.22,0.13l-0.26,-0.43l0.21,-0.13l27.23,-17.21z" />
     <path d="m372.15,396.59l0.23,-0.15l0.28,0.45l-0.22,0.14l-35.89,23.33l-0.23,0.15l-0.29,-0.45l0.23,-0.14l35.89,-23.33z" />
     <path d="m385.4,396.55l0.22,-0.14l0.29,0.44l-0.22,0.15l-35.89,23.32l-0.23,0.15l-0.29,-0.45l0.22,-0.14l35.9,-23.33z" />
     <path d="m402.92,395.07l0.22,-0.14l0.29,0.44l-0.22,0.14l-35.9,23.33l-0.22,0.15l-0.29,-0.45l0.22,-0.14l35.9,-23.33z" />
     <path d="m417.24,394.31l0.22,-0.15l0.29,0.45l-0.22,0.14l-35.9,23.33l-0.21,0.15l-0.3,-0.45l0.23,-0.14l35.89,-23.33z" />
     <path d="m433.67,391.64l0.22,-0.15l0.28,0.44l-0.22,0.15l-35.89,23.33l-0.22,0.14l-0.3,-0.45l0.23,-0.14l35.9,-23.32z" />
     <path d="m451.3,387.89l0.22,-0.14l0.29,0.44l-0.22,0.15l-38.45,24.77l-0.22,0.15l-0.29,-0.45l0.23,-0.14l38.44,-24.78z" />
     <path d="m463.45,387.62l0.23,-0.14l0.28,0.45l-0.22,0.14l-35.89,23.32l-0.22,0.15l-0.3,-0.44l0.23,-0.15l35.89,-23.33z" />
     <path d="m474.72,391.83l0.22,-0.15l0.29,0.44l-0.22,0.15l-31.17,20.43l-0.22,0.15l-0.3,-0.45l0.23,-0.14l31.17,-20.43z" />
     <path d="m481.21,397.37l0.21,-0.16l0.31,0.44l-0.22,0.15l-19.91,13.75l-0.22,0.15l-0.3,-0.43l0.22,-0.16l19.91,-13.74z" />
     <path d="m486.7,404.43l0.22,-0.15l0.29,0.44l-0.22,0.15l-13.36,8.79l-0.23,0.14l-0.29,-0.44l0.23,-0.15l13.36,-8.78z" />
     <path d="m484.11,415.96l-0.23,0.13l-0.26,-0.47l0.24,-0.13l6.29,-3.43l0.24,-0.13l0.25,0.46l-0.23,0.13l-6.3,3.44z" />
    </g>
   </g>

	<g id="marker_fills">
    <path d="m255.99,565.68c24.46,-6.44 50.67,-9.95 78.59,-10.55l65.71,7.77l52.33,4.56l-0.96,3.02l-44.06,-4.25l42.32,7.12l-4.31,24.7l-17.5,1.87l0.04,-3.33l-95.06,-5.43l-69.13,9.94l-15.65,-6.7l7.68,-28.72z" 
			fill-opacity="0.5" fill="var(--accent-color, #700)" />
    <path d="m449.82,576.48l0,2.83l-42.82,-5.65l40.54,9.69l-0.75,11.31l-113.69,-8.48l0.76,-5.66l14.4,-0.4l-13.27,-2.83l0.53,-19.39l114.3,18.58z" 
			fill-opacity="0.5" fill="var(--accent-color, #700)" />
	</g>

	<g>

   <path d="m281.68,572.75l12.41,-2.03l0.26,-0.05l-0.08,-0.52l-0.26,0.04l0,0l-12.26,2.01l0.02,-0.19l-0.53,-0.06l-0.03,0.27c0,0.02 -0.01,0.04 -0.01,0.07l-11.08,1.81l-0.26,0.04l0.09,0.53l0.26,-0.05l10.93,-1.78c-0.09,0.69 -0.19,1.38 -0.31,2.06c-0.16,0.9 -0.35,1.78 -0.59,2.65l-0.06,0.26l0.51,0.14l0.07,-0.26c0.24,-0.89 0.43,-1.79 0.59,-2.69c0.13,-0.75 0.24,-1.5 0.33,-2.25zm0.28,-4.94l-0.25,0.07l-0.15,-0.51l0.25,-0.07c1.67,-0.51 3.38,-0.89 5.1,-1.16c1.49,-0.23 3,-0.35 4.51,-0.35c1.2,-0.01 2.4,0.08 3.59,0.28c0.95,0.15 1.88,0.41 2.77,0.79c0.36,0.15 0.71,0.34 1.04,0.55c0.29,0.19 0.55,0.4 0.79,0.65c0.2,0.23 0.38,0.48 0.5,0.76c0.12,0.26 0.18,0.55 0.18,0.84c-0.01,0.31 -0.07,0.62 -0.2,0.9c-0.12,0.29 -0.28,0.56 -0.46,0.82c-0.22,0.29 -0.46,0.57 -0.71,0.83c-0.64,0.65 -1.32,1.23 -2.05,1.75c-0.89,0.64 -1.81,1.23 -2.77,1.77c-1.09,0.61 -2.2,1.17 -3.33,1.69c-2.49,1.13 -5.08,2.04 -7.72,2.71c-1.35,0.35 -2.7,0.62 -4.08,0.81c-1.33,0.19 -2.66,0.29 -4,0.3c-0.92,0 -1.84,-0.06 -2.75,-0.17c-0.87,-0.11 -1.73,-0.29 -2.57,-0.54c-0.46,-0.13 -0.9,-0.31 -1.32,-0.54c-0.35,-0.19 -0.68,-0.43 -0.95,-0.71c-0.25,-0.25 -0.45,-0.55 -0.58,-0.88c-0.13,-0.31 -0.19,-0.66 -0.19,-1c0.01,-0.52 0.13,-1.04 0.35,-1.52c0.27,-0.57 0.6,-1.11 1.01,-1.59c0.48,-0.58 1.01,-1.13 1.59,-1.62c0.67,-0.58 1.38,-1.12 2.13,-1.61c0.85,-0.56 1.73,-1.07 2.63,-1.54c1.01,-0.52 2.05,-1 3.1,-1.42c2.4,-0.97 4.89,-1.72 7.42,-2.25l0.26,-0.06l0.11,0.52l-0.26,0.05c-2.5,0.53 -4.95,1.27 -7.33,2.23c-1.04,0.42 -2.06,0.89 -3.06,1.4c-0.88,0.46 -1.75,0.97 -2.58,1.51c-0.73,0.48 -1.42,1.01 -2.08,1.57c-0.55,0.48 -1.06,1 -1.52,1.56c-0.37,0.44 -0.69,0.94 -0.93,1.47c-0.19,0.41 -0.3,0.86 -0.31,1.31c0,0.27 0.05,0.54 0.15,0.8c0.11,0.26 0.27,0.49 0.47,0.7c0.24,0.24 0.52,0.45 0.82,0.62c0.39,0.2 0.8,0.37 1.21,0.49c0.82,0.24 1.65,0.41 2.49,0.52c0.9,0.11 1.79,0.17 2.68,0.17c1.32,-0.01 2.64,-0.11 3.94,-0.29c1.35,-0.2 2.69,-0.46 4.01,-0.8c2.62,-0.67 5.18,-1.57 7.64,-2.68c1.12,-0.51 2.22,-1.07 3.29,-1.68c0.93,-0.52 1.84,-1.1 2.72,-1.73c0.7,-0.5 1.37,-1.07 1.98,-1.69c0.24,-0.24 0.45,-0.5 0.66,-0.78c0.16,-0.22 0.3,-0.46 0.41,-0.71c0.1,-0.22 0.14,-0.46 0.15,-0.69c-0.01,-0.22 -0.05,-0.43 -0.13,-0.63c-0.11,-0.22 -0.24,-0.42 -0.41,-0.6c-0.2,-0.22 -0.44,-0.41 -0.69,-0.57c-0.3,-0.2 -0.62,-0.37 -0.96,-0.51c-0.85,-0.36 -1.74,-0.61 -2.65,-0.76c-1.15,-0.19 -2.33,-0.28 -3.5,-0.27c-1.48,0 -2.97,0.12 -4.43,0.35c-1.7,0.26 -3.38,0.64 -5.03,1.14l0,0z" fill-rule="evenodd" />
   <path d="m255.87,593.61l-0.26,0.02l-0.06,-0.52l0.26,-0.03l81.65,-9.15l98.54,9.44l0.26,0.03l-0.04,0.53l-0.27,-0.03l-98.48,-9.44l-81.6,9.15z" />
   <path d="m261.95,565.45l-0.26,0.05l-0.11,-0.51l0.26,-0.06c10.75,-2.23 21.57,-4.08 32.44,-5.56c11.4,-1.55 22.84,-2.75 34.32,-3.59l0.26,-0.02l0.04,0.53l-0.27,0.02c-11.46,0.84 -22.89,2.03 -34.28,3.59c-10.86,1.47 -21.67,3.32 -32.4,5.55z" />
   <path d="m336.58,563.02l0.02,0.27l-0.54,0.01l0,-0.26c-0.45,-12.31 -0.81,-24.62 -1.08,-36.94c-0.25,-11.21 -0.38,-22.42 -0.39,-33.63c-0.01,-8.61 0.1,-17.22 0.31,-25.84c0.18,-7.83 0.51,-15.65 0.96,-23.47l0.02,-0.26l0.53,0.03l-0.02,0.26c-0.45,7.82 -0.78,15.63 -0.96,23.46c-0.21,8.6 -0.31,17.22 -0.31,25.82c0.01,11.21 0.14,22.41 0.39,33.62c0.27,12.31 0.63,24.62 1.07,36.93z" />
   <path d="m340.74,427.38l-0.27,0.05l-0.09,-0.52l0.26,-0.04c10.17,-1.77 20.37,-3.3 30.6,-4.6c10.46,-1.32 20.94,-2.42 31.45,-3.27c10.75,-0.89 21.52,-1.55 32.3,-1.97c11.03,-0.45 22.08,-0.66 33.13,-0.66c4.84,0 9.67,0.04 14.51,0.13l0.27,0l-0.01,0.53l-0.27,0c-4.83,-0.09 -9.66,-0.13 -14.5,-0.13c-11.04,0 -22.08,0.22 -33.11,0.66c-10.78,0.43 -21.53,1.08 -32.28,1.96c-10.49,0.86 -20.97,1.95 -31.42,3.28c-10.23,1.3 -20.42,2.82 -30.57,4.58z" />
   <path d="m373.63,560.29l0.26,0.02l-0.03,0.53l-0.27,-0.02c-6.07,-0.46 -12.12,-1.03 -18.17,-1.71c-5.35,-0.6 -10.68,-1.33 -15.99,-2.19l-0.26,-0.04l0.08,-0.52l0.26,0.04c5.31,0.86 10.62,1.59 15.96,2.19c6.04,0.68 12.1,1.25 18.16,1.7z" />
   <path d="m411.97,565.07l-0.26,-0.04l0.06,-0.52l0.26,0.03l35.27,3.89l0.26,0.03l-0.05,0.53l-0.27,-0.03l-35.27,-3.89z" />

	<g id="extra_lines" opacity="0.5">
   <path d="m342.59,457.91l-0.25,-0.08l0.16,-0.51l0.25,0.08c0.26,0.09 0.53,0.14 0.81,0.17c0.34,0.04 0.68,0.06 1.02,0.06c0.65,-0.01 1.29,-0.05 1.93,-0.12c0.78,-0.09 1.55,-0.19 2.32,-0.32c1.88,-0.32 3.75,-0.66 5.62,-1.04c1.58,-0.31 3.17,-0.62 4.75,-0.91c1.72,-0.32 3.43,-0.6 5.15,-0.85c1.8,-0.27 3.6,-0.47 5.4,-0.63c1.84,-0.16 3.67,-0.24 5.51,-0.25c1.96,0 3.92,0.11 5.86,0.35c2,0.24 3.99,0.66 5.92,1.25c-1.79,5.13 -3.34,10.35 -4.62,15.64c-1.32,5.41 -2.4,10.89 -3.24,16.41c-0.88,5.79 -1.53,11.61 -1.94,17.46c-0.44,6.15 -0.65,12.32 -0.65,18.49c0,3.69 0.08,7.39 0.21,11.08l0.01,0.26l-0.53,0.02l-0.01,-0.26c-0.14,-3.7 -0.21,-7.4 -0.21,-11.1c0,-6.18 0.21,-12.36 0.65,-18.54c0.42,-5.85 1.06,-11.69 1.95,-17.49c0.83,-5.53 1.92,-11.02 3.24,-16.46c1.25,-5.12 2.74,-10.18 4.46,-15.16c-1.74,-0.5 -3.51,-0.86 -5.31,-1.08c-1.92,-0.23 -3.85,-0.34 -5.79,-0.34c-1.82,0.01 -3.65,0.09 -5.46,0.25c-1.8,0.15 -3.59,0.36 -5.37,0.62c-1.71,0.25 -3.42,0.54 -5.13,0.85c-1.58,0.3 -3.17,0.6 -4.75,0.91c-1.87,0.38 -3.75,0.73 -5.63,1.05c-0.78,0.12 -1.57,0.23 -2.35,0.32c-0.66,0.07 -1.32,0.11 -1.99,0.12c-0.36,0 -0.72,-0.02 -1.08,-0.06c-0.31,-0.03 -0.61,-0.1 -0.91,-0.19z" />
   <path d="m347.02,539.86l0.02,0.26l-0.54,0.03l-0.01,-0.27c-0.27,-5.5 -0.47,-11 -0.6,-16.51c-0.13,-5.98 -0.2,-11.95 -0.19,-17.92c0,-7.94 0.1,-15.88 0.3,-23.81c0.2,-8.64 0.5,-17.27 0.89,-25.9l0.01,-0.27l0.53,0.03l-0.01,0.26c-0.38,8.63 -0.69,17.26 -0.89,25.89c-0.2,7.93 -0.3,15.86 -0.3,23.8c-0.01,5.97 0.06,11.93 0.2,17.91c0.12,5.49 0.32,11 0.59,16.5z" />
   <path d="m346.36,536.04l-0.26,0.06l-0.13,-0.51l0.26,-0.07c3.89,-0.94 7.87,-1.42 11.88,-1.42c2.94,0.01 5.88,0.26 8.78,0.75c3.04,0.52 6.03,1.26 8.96,2.23l0.25,0.08l-0.17,0.5l-0.25,-0.08c-2.89,-0.96 -5.87,-1.7 -8.87,-2.21c-2.88,-0.49 -5.79,-0.73 -8.7,-0.74c-3.96,0 -7.91,0.48 -11.75,1.41z" />
   <path d="m438.71,540.09l0.26,0.04l-0.06,0.52l-0.27,-0.03l-14.64,-1.84c-0.07,-0.01 -0.13,-0.04 -0.18,-0.1c-0.04,-0.05 -0.06,-0.13 -0.05,-0.19c1.58,-14.18 3.58,-28.31 6.02,-42.37c2.38,-13.73 5.2,-27.39 8.46,-40.95c2.84,-0.79 5.74,-1.4 8.66,-1.82c2.76,-0.4 5.54,-0.6 8.33,-0.6c5.23,0 10.44,0.74 15.46,2.2l0.25,0.07l-0.14,0.52l-0.26,-0.08c-4.97,-1.45 -10.13,-2.18 -15.31,-2.18c-2.76,0 -5.52,0.2 -8.25,0.59c-2.8,0.4 -5.57,0.98 -8.3,1.73c-3.23,13.45 -6.02,26.99 -8.38,40.61c-2.41,13.97 -4.41,28 -5.98,42.07l14.38,1.81z" />
   <path d="m440.91,540.05l-0.07,0.26l-0.51,-0.15l0.07,-0.26c4.45,-15.24 9.11,-30.42 13.98,-45.54c4.56,-14.13 9.34,-28.19 14.35,-42.16l0.09,-0.26l0.5,0.18l-0.09,0.25c-5.01,13.98 -9.79,28.03 -14.34,42.15c-4.87,15.12 -9.53,30.29 -13.98,45.53z" />
   <path d="m390.93,454.76l-0.26,-0.03l0.05,-0.52l0.27,0.03c0.44,0.05 0.87,0.07 1.31,0.07c0.6,0 1.21,-0.03 1.82,-0.08c0.72,-0.06 1.43,-0.13 2.15,-0.21c1.7,-0.21 3.4,-0.44 5.09,-0.7c2.68,-0.4 5.37,-0.75 8.06,-1.06c1.41,-0.15 2.83,-0.28 4.26,-0.37c1.42,-0.09 2.84,-0.14 4.27,-0.14c2.16,-0.02 4.31,0.13 6.45,0.45c1.01,0.16 2.01,0.37 3,0.64c1.02,0.28 2.02,0.64 2.98,1.06c-0.56,1.94 -1.06,3.89 -1.51,5.85c-0.56,2.41 -1.07,4.83 -1.56,7.25c-0.57,2.87 -1.12,5.74 -1.64,8.61c-0.59,3.23 -1.16,6.46 -1.71,9.7c-1.22,7.2 -2.4,14.41 -3.53,21.63l-3.55,22.85l-3.21,20.66c-0.95,6.07 -1.93,12.14 -2.96,18.19c-0.43,2.55 -0.89,5.09 -1.35,7.63c-0.4,2.13 -0.81,4.25 -1.24,6.37c-0.34,1.65 -0.72,3.28 -1.12,4.9c-0.16,0.62 -0.33,1.23 -0.51,1.84c-0.14,0.47 -0.3,0.93 -0.48,1.39l-0.09,0.25l-0.5,-0.19l0.09,-0.25c0.18,-0.45 0.33,-0.9 0.47,-1.36c0.18,-0.6 0.35,-1.2 0.5,-1.81c0.41,-1.62 0.78,-3.24 1.12,-4.87c0.43,-2.12 0.84,-4.24 1.23,-6.36c0.47,-2.54 0.92,-5.08 1.36,-7.63c1.02,-6.05 2.01,-12.11 2.96,-18.18l3.2,-20.66l3.56,-22.86c1.13,-7.22 2.31,-14.43 3.53,-21.63c0.55,-3.24 1.12,-6.48 1.71,-9.71c0.52,-2.87 1.07,-5.74 1.64,-8.61c0.48,-2.43 1.01,-4.85 1.56,-7.26c0.42,-1.82 0.88,-3.63 1.4,-5.43c-0.81,-0.34 -1.64,-0.63 -2.49,-0.86c-0.97,-0.26 -1.95,-0.47 -2.94,-0.62c-2.11,-0.32 -4.24,-0.47 -6.37,-0.45c-1.41,0 -2.83,0.05 -4.24,0.15c-1.41,0.08 -2.83,0.21 -4.24,0.36c-2.68,0.31 -5.36,0.66 -8.03,1.06c-1.7,0.25 -3.4,0.48 -5.11,0.69c-0.72,0.09 -1.44,0.16 -2.17,0.22c-0.62,0.05 -1.24,0.08 -1.86,0.08c-0.46,0.01 -0.92,-0.02 -1.37,-0.08z" />
   <path d="m392.59,460.42l-0.25,0.06l-0.11,-0.52l0.26,-0.06c0.99,-0.2 1.99,-0.34 3,-0.41c1.27,-0.08 2.54,-0.12 3.82,-0.12c1.64,0.01 3.28,0.05 4.92,0.13c1.85,0.1 3.7,0.22 5.54,0.37c4.15,0.34 8.3,0.76 12.44,1.26c-2.61,11.05 -4.99,22.16 -7.12,33.3c-2.03,10.63 -3.83,21.29 -5.39,31.99c-1.54,10.54 -2.85,21.11 -3.94,31.71c-1.1,10.71 -2,21.44 -2.69,32.19l-0.02,0.26l-0.53,-0.04l0.02,-0.26c0.69,-10.75 1.59,-21.49 2.69,-32.21c1.09,-10.6 2.4,-21.18 3.94,-31.73c1.56,-10.71 3.36,-21.38 5.39,-32c2.11,-10.97 4.44,-21.89 6.99,-32.76c-3.93,-0.46 -7.88,-0.86 -11.83,-1.18c-1.83,-0.15 -3.67,-0.27 -5.52,-0.36c-1.63,-0.09 -3.26,-0.13 -4.89,-0.14c-1.27,0 -2.53,0.04 -3.79,0.12c-0.98,0.07 -1.96,0.2 -2.93,0.4z" />
   <path d="m377.61,578.32l-0.03,0.26l-0.53,-0.06l0.03,-0.26c2.58,-21.82 5.28,-43.63 8.09,-65.42l7.84,-57.83l0.03,-0.26l0.53,0.08l-0.04,0.26l-7.83,57.82l-8.09,65.41z" />
   <path d="m390.02,569.88l-0.02,0.27l-0.53,-0.04l0.02,-0.27c0.81,-9.88 1.81,-19.75 3.01,-29.59c1.13,-9.34 2.42,-18.67 3.85,-27.97c1.37,-8.87 2.84,-17.72 4.41,-26.55c1.5,-8.46 3.06,-16.9 4.67,-25.33l0.04,-0.26l0.52,0.1l-0.05,0.26c-1.6,8.43 -3.15,16.87 -4.66,25.32c-1.57,8.83 -3.04,17.68 -4.4,26.54c-1.44,9.3 -2.72,18.62 -3.86,27.95c-1.19,9.84 -2.2,19.7 -3,29.57z" />
	</g>

   <ellipse cx="443.19" cy="607.04"  rx="4.97" ry="6.63"/>
   <path d="m332.34,429.41l-0.04,-0.23c-0.5,-3.2 -1.19,-6.37 -2.05,-9.5c-0.77,-2.78 -1.73,-5.5 -2.86,-8.15c-1.02,-2.36 -2.21,-4.64 -3.59,-6.81c-1.24,-1.96 -2.66,-3.8 -4.24,-5.5c-1.46,-1.57 -3.07,-2.99 -4.82,-4.23c-1.67,-1.18 -3.47,-2.19 -5.35,-2.99c-1.87,-0.79 -3.82,-1.39 -5.81,-1.78c-2.05,-0.39 -4.14,-0.59 -6.23,-0.59c-2.48,0.01 -4.95,0.25 -7.39,0.73c-2.64,0.52 -5.23,1.26 -7.75,2.19c-2.75,1.02 -5.42,2.23 -8.01,3.62c-2.82,1.52 -5.55,3.2 -8.17,5.03c-2.86,2 -5.61,4.14 -8.25,6.43c-2.85,2.46 -5.59,5.06 -8.21,7.78c-2.82,2.93 -5.52,5.97 -8.08,9.11c-1.5,1.85 -2.96,3.72 -4.39,5.62c1.34,-0.97 3.23,-1.79 5.62,-2.49c-3.27,2.09 -6.34,4.59 -9.24,7.46c-0.15,0.12 -0.33,0.18 -0.52,0.18c-0.19,-0.01 -0.38,-0.09 -0.52,-0.22c-0.14,-0.13 -0.23,-0.3 -0.25,-0.49c-0.02,-0.2 0.03,-0.39 0.14,-0.54c2.51,-3.61 5.15,-7.12 7.92,-10.52c2.6,-3.18 5.33,-6.26 8.17,-9.22c2.66,-2.75 5.43,-5.38 8.32,-7.88c2.68,-2.31 5.47,-4.49 8.37,-6.52c2.68,-1.87 5.46,-3.59 8.34,-5.13c2.65,-1.42 5.39,-2.67 8.21,-3.71c2.6,-0.97 5.28,-1.72 8,-2.26c2.53,-0.5 5.1,-0.75 7.68,-0.76c2.2,0 4.39,0.21 6.54,0.62c2.11,0.41 4.16,1.04 6.14,1.88c1.98,0.85 3.88,1.9 5.64,3.15c1.84,1.31 3.53,2.8 5.07,4.44c1.64,1.77 3.12,3.7 4.42,5.74c1.41,2.24 2.66,4.59 3.7,7.04c1.16,2.71 2.15,5.5 2.93,8.34c0.37,1.35 0.71,2.7 1,4.06l-0.44,6.1l0,0z" />
   <path d="m261.65,559.12c-2.45,12.4 -6.06,24.55 -10.77,36.27l13.39,3.74l0.77,0.22l-0.43,1.53l-0.76,-0.21l-14.26,-3.98c-0.22,-0.06 -0.4,-0.21 -0.5,-0.42c-0.1,-0.2 -0.1,-0.44 -0.02,-0.65c5.2,-12.77 9.07,-26.05 11.55,-39.62l0.13,-0.67l0.9,3.79l0,0z" />
   <path d="m237.75,442.95c2.09,7.67 4,15.38 5.72,23.14c2.26,10.22 4.26,20.49 6.01,30.8c1.88,11.13 3.52,22.3 4.91,33.5c1.51,12.03 2.78,24.1 3.82,36.18l0.07,0.8l1.58,-0.14l-0.06,-0.8c-1.05,-12.1 -2.32,-24.18 -3.83,-36.24c-1.4,-11.22 -3.04,-22.41 -4.93,-33.56c-1.74,-10.34 -3.75,-20.64 -6.02,-30.88c-2.03,-9.18 -4.33,-18.31 -6.89,-27.35l-0.38,4.55l0,0z" />
   <path d="m315.66,395.18l-0.79,-0.07l0.14,-1.59l0.79,0.07c8.59,0.74 17.21,1.31 25.83,1.71c8.22,0.37 16.46,0.56 24.7,0.57c8.31,0 16.62,-0.21 24.92,-0.64c7.9,-0.42 15.79,-1.05 23.66,-1.92c7.49,-0.82 14.96,-1.89 22.39,-3.19c7.14,-1.25 14.23,-2.76 21.27,-4.51c2.43,0.43 4.83,1 7.18,1.72c2.14,0.66 4.22,1.46 6.24,2.41c1.9,0.89 3.73,1.93 5.47,3.12c1.67,1.14 3.24,2.43 4.68,3.84c1.43,1.41 2.73,2.93 3.89,4.56c1.17,1.66 2.21,3.43 3.08,5.27c0.92,1.92 1.68,3.91 2.28,5.95c0.67,2.25 1.17,4.55 1.51,6.88c-3.84,8.65 -7.55,17.37 -11.13,26.13c-3.36,8.22 -6.59,16.5 -9.68,24.82c-2.91,7.86 -5.69,15.76 -8.31,23.71c-2.47,7.49 -4.79,15.03 -6.96,22.61c-2.03,7.12 -3.89,14.29 -5.59,21.5c-1.59,6.76 -3,13.55 -4.23,20.39c-1.15,6.39 -2.11,12.82 -2.87,19.28c-0.72,6.03 -1.22,12.09 -1.52,18.16c-0.01,0.18 -0.07,0.35 -0.19,0.48c-0.11,0.14 -0.27,0.23 -0.44,0.26l-16.58,3.32l-0.78,0.15l-0.31,-1.56l0.78,-0.15l15.96,-3.2c0.31,-5.9 0.8,-11.78 1.49,-17.65c0.77,-6.49 1.73,-12.95 2.89,-19.38c1.24,-6.86 2.65,-13.68 4.25,-20.47c1.71,-7.23 3.57,-14.42 5.61,-21.56c2.17,-7.61 4.5,-15.17 6.97,-22.68c2.64,-7.97 5.42,-15.89 8.34,-23.76c3.1,-8.34 6.33,-16.63 9.69,-24.87c3.53,-8.64 7.19,-17.22 10.97,-25.76c-0.33,-2.09 -0.8,-4.16 -1.4,-6.2c-0.58,-1.96 -1.31,-3.87 -2.18,-5.72c-0.84,-1.75 -1.82,-3.44 -2.95,-5.03c-1.1,-1.55 -2.34,-3 -3.7,-4.34c-1.38,-1.35 -2.88,-2.57 -4.47,-3.67c-1.66,-1.13 -3.42,-2.14 -5.25,-2.99c-1.95,-0.92 -3.97,-1.69 -6.02,-2.32c-2.19,-0.67 -4.41,-1.22 -6.66,-1.62c-6.97,1.73 -14,3.21 -21.06,4.45c-7.46,1.31 -14.96,2.38 -22.49,3.2c-7.89,0.87 -15.81,1.52 -23.75,1.93c-8.32,0.43 -16.66,0.64 -25,0.64c-8.27,-0.01 -16.52,-0.2 -24.78,-0.58c-8.64,-0.39 -17.27,-0.96 -25.89,-1.7z" />
   <path d="m325.27,649.94c-3.48,-5.62 -3.96,-20.01 -1.64,-32.21l-8.69,-0.05c-0.3,21.65 4.52,33.26 10.33,32.26l0,0l0,0l0,0l0,0zm-12.59,-32.27l-23.87,-0.13c-0.16,11.11 6.02,27.69 9.54,31.21c6.16,6.16 13.68,-5.76 14.33,-31.08l0,0l0,0l0,0l0,0zm61.75,0.33l8.25,0.05c-1.63,11.04 0,24.73 2.17,30.67c-6.04,3.16 -9.52,-7.08 -10.42,-30.72l0,0l0,0l0,0l0,0l0,0zm40.84,-6.14c-4.33,8.99 -8.83,33.3 -5.33,36.86c3.5,3.55 12.77,-9.3 14.32,-18.54c2,-11.88 -1.72,-33.42 -8.99,-18.32l0,0l0,0l0,0zm-61.19,-1.08c-4.33,8.99 -5.97,33.98 -2.47,37.54c3.49,3.56 12.39,-10.23 12.39,-19.7c0,-16.48 -2.65,-32.94 -9.92,-17.84l0,0l0,0zm37.46,2.12c-4.33,8.99 -2.53,32.26 0.97,35.82c3.5,3.55 12.24,-10.04 13.8,-19.28c2,-11.88 -7.5,-31.64 -14.77,-16.54l0,0zm-65.41,38.18c0.18,0.2 0.37,0.37 0.57,0.52l8.89,-0.12q4.33,-3.37 6.87,-8.31c0.53,3.97 1.66,7.04 3.45,8.43l9.54,0q8.17,-11.32 9.41,-19.14c0.74,-4.64 0.88,-9.71 0.42,-14.5l2.24,0.01l0,0c-0.74,17.92 1.79,29.1 7.59,33.55l11.32,0c0.04,0.03 0.08,0.06 0.12,0.08l11.65,0.15q2.35,-3.68 4.13,-6.96c0.12,3.66 0.66,6.21 1.65,6.81l10.32,0q10.3,-13.11 11.54,-20.94c0.85,-5.35 0.9,-10.25 0.12,-14.7l13.12,-1.43l-0.33,-12.27l-11.01,-1.38l0.4,-5.25l-93.47,-5.63l-72.93,8.95l-3.98,13.26l19.49,4.1c0.44,20.81 4.26,32.65 11.48,35.53l16.86,0c1.91,-2.49 3.76,-6.25 5.58,-11.28l0,0c0.81,5.31 2.62,9.07 5.46,11.28l9.5,0l0,-0.76l0,0l0,0l0,0l0,0zm6.78,-41.9c-7.2,15.78 -5.44,35.37 -0.7,39c4.75,3.63 12.19,-9.48 12.89,-19.11c0.7,-9.63 -4.59,-36.51 -12.19,-19.89z" fill-rule="evenodd" />
   <path d="m254.59,651.45l170.16,-0.07l32.37,2.51l-164.42,0.39l-38.11,-2.83z" />
   <path d="m265.37,433.36c9.33,-8.07 20.19,-12.56 31.65,-13.11l0,0c-0.25,4.95 -0.44,9.92 -0.56,14.88c-0.15,5.88 -0.21,11.76 -0.21,17.65c0,7.63 0.11,15.26 0.31,22.9c0.23,8.13 0.55,16.26 0.96,24.38c0.44,8.63 0.97,17.26 1.59,25.87c0.58,8.13 1.23,16.24 1.95,24.35c-7.15,0.87 -14.02,1.95 -20.6,3.22c-0.93,-11.37 -1.96,-22.72 -3.12,-34.07c-1.08,-10.64 -2.29,-21.27 -3.62,-31.89c-1.22,-9.73 -2.58,-19.45 -4.07,-29.15c-1.29,-8.37 -2.72,-16.71 -4.28,-25.03zm-1.38,1.25c-5.61,5.12 -10.63,11.58 -14.85,19.28c7.33,29.81 13.62,63.93 18.89,102.36c3.52,-0.88 7.14,-1.69 10.86,-2.43c-0.93,-11.42 -1.97,-22.83 -3.14,-34.23c-1.07,-10.63 -2.28,-21.25 -3.61,-31.85c-1.22,-9.72 -2.57,-19.42 -4.07,-29.1c-1.24,-8.03 -2.6,-16.04 -4.08,-24.03zm34.62,-14.41c6.22,-0.11 12.61,0.94 19.02,3.2l4.43,124.94c-6.69,0.43 -13.16,1.01 -19.41,1.75c-0.72,-8.09 -1.37,-16.17 -1.95,-24.27c-0.62,-8.6 -1.15,-17.22 -1.59,-25.84c-0.41,-8.11 -0.73,-16.23 -0.95,-24.35c-0.21,-7.61 -0.32,-15.23 -0.32,-22.85c0,-5.87 0.07,-11.74 0.22,-17.61c0.12,-4.99 0.3,-9.99 0.55,-14.97l0,0z" fill-rule="evenodd" />

	</g>

   <path d="m249.52,595.68l20.33,5.64l64.96,-8.8l92.19,6.37l14.99,-3.42l-0.06,-1.2l-104.19,-10.07l-87.13,9.73l-1.09,1.75z" 
	 	fill="pat(dots)" />

  </g>

  </svg>