<svg xmlns="http://www.w3.org/2000/svg">

  <style id="config_styles" type="text/css">
    :root {

      --outline-color: darkblue;
      --accent-color: hsla(0, 100%, 20%, 0.8);
      --title-color: var(--outline-color);

      /*
      --bg-color: none;
      --bg-filter: url(#shake);
      --bg-mask: url(#fade_mask);
      --bg-opacity: 0.85;
      */

      /*
      --show-hearts: 1;
      --font-size: 22px;
      --title-color: orange;
      --living-color: yellow;
      --things-color: blue;
      --circ1-color: green;
      --circ2-color: white;
      --heart-color: green;
      --square-color: purple;

      --border-color: hotpink;
      --border-width: 9;

      --copy-color: brown;

      --outline-color: purple;
      */

    }
  </style>

  <style id="svg_styles" type="text/css">
    svg {
      background-color: var(--bg-color, none);
      background-image: var(--bg-fill, none);
      mask: var(--bg-mask, none);
    }
  </style>

  <style id="comic_styles" type="text/css">
    @font-face {
      font-family: 'Comic Neue';
      /* src: url('neue.ttf') format('truetype'); */
      src: url('ComingSoon.ttf') format('truetype');
    }

    text {
      font-family: 'Comic Neue';
      font-weight: 400;
      font-size: var(--font-size, 24px);
      fill: var(--text-color, var(--outline-color, #000));
    }

    .emph {
      font-style: italic;
      font-weight: bold;
    }

    .text-bubble {
      fill: none;
      stroke: var(--outline-color, #000);
      stroke-width: 1px;
    }

    .text-bubble + path {
      fill: var(--outline-color, #000);
    }

    #title_line {
      fill: var(--title-color, #000);
      height: 2px;
    }

    #copyright,
    #scoundrel {
      font-family: 'Times New Roman';
      font-weight: 300;
      font-size: 17px;
      fill: var(--copy-color, var(--outline-color, #000));
    }

    .obj {
      fill: var(--outline-color, #000);
    }

    @media (orientation: portrait) {
      .land {
        display: none;
      }

      #title_line {
        width: 625px;
      }
    }

    @media (orientation: landscape) {
      .port {
        display: none;
      }

      #title_line {
        width: 1275px;
      }
    }
  </style>

  <style id="border_styles">
    .border {
      fill: none;
      stroke: var(--border-color, var(--outline-color, #000));
      stroke-width: var(--border-width, 2);
    }

    .slant {
      marker-start: url(#slant_cap);
      marker-end: url(#slant_cap);
    }
  </style>

  <defs id="pats_and_filters">

    <linearGradient id="fade" gradientUnits="objectBoundingBox">
      <stop offset="0%" stop-color="#000" stop-opacity="0" />
      <stop offset="100%" stop-color="#000" />
    </linearGradient>

    <filter id="blur">
      <feGaussianBlur in="SourceGraphic" stdDeviation="0.3" />
    </filter>

    <filter id="shake" width="120%" height="220%" color-interpolation-filters="sRGB">
      <feImage href="newsprint.jpg" x="0" y="0" width="220%" height="120%" preserveAspectRatio="xMidYMid slice"
        result="mig" />
      <feDisplacementMap in="SourceGraphic" in2="mig" result="rat" scale="5" xChannelSelector="R"
        yChannelSelector="B" />
      <feGaussianBlur in="rat" stdDeviation="0.3" result="blur" />
      <!-- shift image back based on displacement's scale -->
      <feOffset in="blurred" dx="0.5" dy="5" result="final" />
    </filter>

    <pattern id="newsprint" patternUnits="userSpaceOnUse" width="100%" height="100%">
      <image href="newsprint.jpg" width="100%" height="100%" preserveAspectRatio="none" />
    </pattern>

    <pattern id="dots" fill="pat(dots,var(--outline-color,#000))" />

  </defs>

  <defs id="clips_and_masks">

    <clipPath id="one_of_four_clip">
      <path d="M 0 0 H 300 V 400 H 0 Z" />
    </clipPath>

    <mask id="fade_mask" maskUnits="objectBoundingBox" maskContentUnits="objectBoundingBox">
      <linearGradient id="fade_gradient" x1="0%" y1="100%" x2="90%" y2="0%">
        <stop offset="0%" stop-color="#fff" stop-opacity="1" />
        <stop offset="100%" stop-color="#fff" stop-opacity="0.4" />
      </linearGradient>
      <rect width="1" height="1" fill="url(#fade_gradient)" />
    </mask>

  </defs>

  <defs id="title_defs">
    <g id="title">
      <rect id="title_line" x="12.5" y="12.5" />
      <use href="title-test.svg#ikon" transform="translate(30 17) scale(2.5) " />
    </g>
  </defs>

  <defs id="copyright_defs">
    <text id="copyright" transform="rotate(270)">
      <tspan letter-spacing="-0.04em">&#xA9;MCMLXXXVIII</tspan>
      <tspan letter-spacing="0.03em">&#xB7; Trilobyte</tspan>
    </text>
    <text id="scoundrel" text-anchor="end">
      <tspan letter-spacing="-0.04em" font-style="italic">
        [The Wheeling Daily Scoundrel]
      </tspan>
    </text>
  </defs>

  <defs id="border_defs">

    <marker id="slant_cap" markerWidth="3" markerHeight="1" refX="1" refY="0.5" orient="auto-start-reverse"
      markerUnits="strokeWidth">
      <path d=" M 0 0 L 3 0 L 1 1 H 0 Z" fill="context-stroke" />
    </marker>

    <path id="one_of_four_border" class="border" d=" M 0 0 H 300 V 400 H 0 Z " />

  </defs>

  <defs id="character_defs">

    <path id="ground_arc" class="obj" d=" M 3 384 Q 150 370 297 384 Q 150 379 0 384 Z" />
    
    <g id="ball_logo" fill="var(--outline-color, #000)">

      <defs>
        <path id="stitch_1" d="m203.6,95.44l-4.61,-2.62c-3.54,10.91 -12.55,18.66 -19.94,18.32c-20.9,-0.94 -24.72,-33.45 -47.75,-31.13l-5.91,0.69l-1.35,4.4c28.8,-2.74 24.9,28.97 53.75,31.41q12.65,1.08 26.23,-15.59l-0.42,-5.48z" />
        <path id="stitch_2" d="m195.08,157.83c8.8,-25.4 -40,-30.83 -70.63,2.18l1.72,4.29l5.44,0.28c20.31,-30.58 67.6,-29.48 56.33,-1.96l4.04,0.18l3.1,-4.97z" />
        <ellipse id="ball_body" cx="-203.69" cy="81.62" rx="54.11" ry="53.13"
          transform="matrix(1 0 0 1 361.42 41.665)" />
        <mask id="SX_mask">
          <rect width="1300" height="1300" fill="#fff"/>
          <use href="#ball_body" fill="#000" />
        </mask>
        <mask id="ball_outline_mask">
          <rect width="1300" height="1300" fill="#fff"/>
          <use href="#stitch_1" fill="#000" />
          <use href="#stitch_2" fill="#000" />
        </mask>
      </defs>

      <g mask="url(#SX_mask)">
        <path id="the_X"
          d="m290.76,189.08c-18.34,-28.96 -33.77,-52.73 -48.06,-77.18c20.13,-35.04 40.67,-64.8 67.63,-101.22l-69.28,0c-7.1,18.23 -15.23,35.63 -24.39,52.94c-3.63,-7.39 -7.27,-15.08 -10.94,-23.21l-55.78,0c13.42,23.81 26.28,47.75 38.59,71.84c-19.39,31.26 -41.92,64.35 -67.55,103.26l69.6,0c8.46,-18.63 16.34,-35.3 23.91,-50.56c3.8,8.03 7.54,16.07 11.23,24.13l65.04,0z"
          fill="var(--accent-color, none)" stroke="var(--outline-color, #000)" stroke-width="7" />
        <path id="the_S"
          d=" m112.5,67.2 l31.6,-39.8 c-54.63,-44.23 -131.01,-13.32 -128.34,29.52 c1.75,28.07 23.61,37.03 54.91,39.96 c26.21,2.46 19.52,44.01 -26.23,9.6 l-38.24,42.94 c19.91,55.83 126.73,66.18 150.97,11.51 c10.47,-23.62 -5.9,-69.15 -68.11,-77.58 c-25.15,-3.4 -3.53,-36.83 23.4,-16.1 z"
          fill="var(--accent-color, none)" stroke="var(--outline-color, #000)" stroke-miterlimit="30" stroke-width="7" />
      </g>

      <g mask="url(#ball_outline_mask)">
        <path
          d="m119.05,171.2c-15.47,-10.77 -25.46,-28.48 -25.18,-48.36l0,0c0.22,-15.77 6.87,-30.01 17.48,-40.39l0,0l0.57,-3.56l6.69,-2.49c10.14,-7.18 22.67,-11.35 36.18,-11.17c19.38,0.27 36.51,9.44 47.31,23.46l0,0l4.51,1.7l0.28,5.58c4.7,8.48 7.32,18.2 7.18,28.51c-0.23,16.29 -7.31,30.93 -18.54,41.38l-2.46,4.77l-3.35,0c-10.21,7.36 -22.89,11.64 -36.57,11.46c-9.98,-0.14 -19.36,-2.64 -27.59,-6.94l-5.92,-0.79l-0.59,-3.16zm-11.31,-39.74c-5.18,-26.96 13.12,-52.93 40.85,-57.96c27.73,-5.02 54.45,12.78 59.63,39.73c5.18,26.96 -13.12,52.93 -40.85,57.96c-27.73,5.03 -54.44,-12.77 -59.63,-39.73l0,0l0,0l0,0z"
          fill-rule="evenodd" id="svg_7" />
        <path id="ball_logo_shade"
          d="m118.82,96.72c-14.65,20.84 -10.7,49.4 9.68,65.33c21.4,16.75 52.89,13.27 70.25,-7.76c3.72,-4.5 6.49,-9.44 8.33,-14.59c-12.18,15.5 -35.56,21.61 -57.24,13.56c-25.25,-9.37 -38.88,-34.46 -31.02,-56.54z"
          fill="url(#dots)" />
      </g>

      <use href="#stitch_1" fill="var(--accent-color, var(--outline-color, #000))"/>
      <use href="#stitch_2" fill="var(--accent-color, var(--outline-color, #000))" />
      <ellipse cx="130.55" cy="183.155" rx="61.1" ry="5.37" />

    </g>

    <g id="chars_panel_2" mask="url(#poster_mask)">

     <mask id="poster_mask">
       <rect width="1300" height="1300" fill="#fff" />
       <ellipse cx="306.24" cy="215.31" rx="37.34" ry="38.71" fill="#000"/>
     </mask>

     <g id="posterboard" stroke="var(--outline-color, #000)" transform="translate(-4 -3) matrix(1 0 0 1 -198.805 -25.3)"
      mask="url(#poster_mask)"
     >
      
      <line id="svg_4" stroke-linecap="square" stroke-miterlimit="3" stroke-width="2" x1="250" y1="182" x2="233.14" y2="253.76"/>
      <line id="svg_5" stroke-linecap="square" stroke-miterlimit="3" stroke-width="2" x1="259" y1="182" x2="248.38" y2="251.66" />
      <line id="svg_6" stroke-linecap="square" stroke-miterlimit="3" stroke-width="2" x1="270" y1="183.5" x2="274.79" y2="196.69" />
      <path d="m213.23,36.63l-2.58,4.01l14.19,137.75l87.6,8.47l3.25,-3.42l-33.33,-134.23l-69.13,-12.58z" fill="none" id="svg_7"/>
      <path d="m228.28,173.49l88.4,10.12l-2.8,3.25l-89.04,-8.91l-14.19,-137.31l2.58,-4.01l15.05,136.86z" fill="none" id="svg_8"/>
      <path d="m213.23,36.63l-2.58,4.01l14.19,137.75l87.6,8.47l3.25,-3.42l-33.33,-134.23l-69.13,-12.58z" fill="none" id="svg_9" stroke-linecap="square" stroke-miterlimit="3"/>
      <line id="svg_11" stroke-linecap="square" stroke-miterlimit="3" stroke-width="0.9" x1="240.73" x2="275.96" y1="145.31" y2="150.69"/>
      <path d="m222.06,119.65l6.34,53.71l64.88,7.85" fill="none" id="svg_12" stroke-linecap="square" stroke-miterlimit="3" stroke-width="0.3"/>
      <line id="svg_13" stroke-linecap="square" stroke-miterlimit="3" stroke-width="0.9" x1="242.65" x2="279.35" y1="150.68" y2="156.26"/>
      <line id="svg_14" stroke-linecap="square" stroke-miterlimit="3" stroke-width="0.9" x1="247.92" x2="279.91" y1="158.33" y2="162.95"/>
      <path d="m247.52,156.93l2.24,8.11l-7.6,-0.71l-1.59,-8.58l6.95,1.18z" 
      fill="none" id="svg_15" stroke="var(--outline-color, #000)" stroke-linecap="square" stroke-miterlimit="3" stroke-width="0.9"/>
     </g>

     <g id="sox_panel_2" fill="var(--outline-color, #000)" transform="matrix(1 0 0 1 -202.805 -28.3)">

      <path d="m366.71,256.44c14.21,3.17 34.5,3.76 60.85,1.74q5.83,0.33 8.8,0.51l10.09,2.37c-39.76,1.6 -77.59,0.45 -113.55,-3.53q10.2,-0.67 33.81,-1.09z"  id="svg_26"/>
      <path d="m392.79,177.04c13.79,-1.87 24.12,-0.6 24.66,3.84l-7.46,31.35l-3.88,12.3l7.54,3.68q-0.69,-4.25 0,-24.09c17.31,-3.9 29.88,-0.16 33.27,12.91l-7.71,8.54c4.68,15.7 3.99,26.03 -2.07,30.96l-36.87,3.09c5.16,-28.19 -7.82,-38.82 -36.27,-31.52c15.82,-19.92 23.83,-43.5 28.79,-51.06z" 
      fill="var(--accent-color, none)" id="svg_27"/>
      <path d="m366.62,225.93c24.85,-8.31 42.41,7.22 36.6,32.12l-5.79,0.57c10.59,-25.81 -8.36,-40.41 -34.2,-27.74l3.39,-4.95z"  id="svg_28"/>
      <path d="m391.74,176c7.47,-1.64 25.48,-3.04 26.38,2.25l-1.45,5.97c1.02,-6.34 -11.24,-8.38 -25.56,-5.97l0.63,-2.25z"  id="svg_29"/>
      <path d="m414.79,203.87c13.7,-4.73 35.49,2.01 32.13,13.16l-3.63,4.35c6.27,-14.99 -13.69,-21 -30.13,-15.1l1.63,-2.41z"  id="svg_30"/>
      <path d="m407.67,171.81q-7.78,-2.65 -15.14,-0.92l-0.19,2.19q4.02,-2.2 15.33,-1.27z"  id="svg_31"/>
      <g id="svg_32" opacity="0.61">
       <path d="m417.45,164.89c-6.16,17.18 -11.21,39.2 -17.74,61.22c7.67,-23.35 15.61,-51.06 17.74,-61.22z"  id="svg_33"/>
      </g>
      <path d="m409.99,228.7c3.86,0.24 9.45,1.81 12.84,6.04c-2.33,-5.67 -9.21,-9.63 -14.79,-8.81l1.37,2.96l0.58,-0.19z"  id="svg_34"/>
      <path d="m379.13,222.42l2.28,4.59l1.7,0.46l-2.75,-4.72l-1.23,-0.33z"  id="svg_35"/>
      <path d="m383.85,222.59l1.73,4.84l1.64,0.67l-2.18,-5.03l-1.19,-0.48z"  id="svg_36"/>
      <path d="m387.74,223.63l1.73,4.84l1.63,0.66l-2.18,-5.02l-1.18,-0.48z"  id="svg_37"/>
      <path d="m392.28,225.34l0.51,5.14l1.42,1.06l-0.9,-5.43l-1.03,-0.77z"  id="svg_38"/>
      <path d="m396.56,228.23l-0.86,5.09l1.09,1.42l0.56,-5.48l-0.79,-1.03z"  id="svg_39"/>
      <path d="m399.71,231.87l-1.89,4.78l0.77,1.63l1.68,-5.23l-0.56,-1.18z"  id="svg_40"/>
      <path d="m402.66,236.74l-3.34,4.02l0.27,1.79l3.26,-4.51l-0.19,-1.3z"  id="svg_41"/>
      <path d="m404.49,242.75l-4.84,3.12l-0.11,1.81l4.87,-3.62l0.08,-1.31z"  id="svg_42"/>
      <path d="m405.21,248.07l-6.31,2.42l-0.28,1.79l6.38,-2.91l0.21,-1.3z"  id="svg_43"/>
      <path d="m405.01,252.69l-6.95,1.77l-0.45,1.75l7.07,-2.24l0.33,-1.28z"  id="svg_44"/>
      <path d="m365.72,225.36l2.28,4.59l1.7,0.45l-2.75,-4.71l-1.23,-0.33z"  id="svg_45"/>
      <path d="m368.27,224.02l2.29,4.59l1.7,0.45l-2.76,-4.71l-1.23,-0.33z"  id="svg_46"/>
      <path d="m371.76,223.16l2.28,4.59l1.7,0.46l-2.75,-4.72l-1.23,-0.33z"  id="svg_47"/>
      <path d="m375.14,222.47l2.29,4.59l1.7,0.45l-2.76,-4.72l-1.23,-0.32z"  id="svg_48"/>
      <path d="m415.46,201.91c11.54,-9.22 26.95,-14.2 34.58,-9.83c4.9,3.88 7.09,16.56 -10.73,34.15l0,0l-1.55,-3.1c11.15,-9.11 15.58,-22.15 11.33,-28.44c-5.15,-6.13 -28.96,5.33 -32.14,9.73c-2.45,3.39 -4.36,11.67 -1.71,24.05l-3.53,-1.26c-1.49,-7.02 -1.09,-21.43 3.75,-25.3z"  id="svg_49"/>
      <path d="m411.71,234.34q-0.5,-9.37 -4.92,-11.97l-0.8,3.25q3.15,1.42 5.72,8.72z"  id="svg_50"/>
      <path d="m419.36,205.73l-2.6,-3.39l0,0c0.32,-0.04 0.64,-0.08 0.96,-0.11l0,0l2.8,3.23c-0.39,0.08 -0.78,0.17 -1.16,0.27zm4.3,-0.74l-2.54,-3.06l0,0l0,0c-0.34,0.02 -0.67,0.04 -1.01,0.07l2.3,3.13c0.41,-0.06 0.83,-0.1 1.25,-0.14zm3.73,-0.05l-2.28,-3.14l0,0l0,0c-0.33,0 -0.66,0 -1,0.01l1.97,3.09c0.44,0 0.87,0.01 1.31,0.04zm4.25,0.59l-2.16,-3.54l0,0l0,0c-0.34,-0.03 -0.69,-0.06 -1.04,-0.08l1.78,3.34c0.48,0.08 0.96,0.17 1.42,0.28zm3.86,1.24l-1.56,-4.14l0,0l0,0c-0.31,-0.06 -0.61,-0.12 -0.93,-0.18l1.19,3.81c0.44,0.16 0.87,0.33 1.3,0.51zm3.11,1.69l-0.61,-4.69l0,0l0,0c-0.27,-0.1 -0.55,-0.2 -0.83,-0.29l0.3,4.27c0.39,0.23 0.77,0.46 1.14,0.71zm2.27,1.91l0.49,-5.04l0,0l0,0c-0.24,-0.14 -0.48,-0.27 -0.72,-0.4l-0.66,4.59c0.31,0.28 0.61,0.56 0.89,0.85zm1.56,2l1.66,-5.05l0,0l0,0c-0.2,-0.18 -0.4,-0.35 -0.61,-0.53l-1.74,4.58c0.25,0.32 0.48,0.66 0.69,1zm1.13,2.49l2.88,-4.32l-0.12,-0.44l0,0l0,0c-0.08,-0.15 -0.18,-0.3 -0.27,-0.45l-2.98,3.92c0.19,0.42 0.35,0.85 0.49,1.29zm0.43,2.82l3.56,-4.14l0,0l0,0c-0.06,-0.37 -0.14,-0.74 -0.24,-1.1l-3.44,3.75l0,0.04c0.07,0.47 0.11,0.95 0.12,1.45zm-27.11,-11.16l-0.22,0l-1.54,-2.14l0,0l0,0l0,0l1.05,0.02l1.62,1.8c-0.3,0.1 -0.61,0.21 -0.91,0.32zm-2.47,1.12l-0.41,-0.01l-0.93,-1.26l0,0l0,0l0,0l0.38,-1.11l1.68,2.02c-0.24,0.12 -0.48,0.24 -0.72,0.36z"  fill-rule="evenodd" id="svg_51"/>
      <path d="m432.68,215.13c12.65,11.61 16.9,38.36 2.61,44.37l-68.67,0.12c-7.35,0.22 -11.4,-13.54 -9.62,-19.83c5.53,-19.47 39.36,-59.49 33.04,-68.68l4.1,-1.12c6.07,8.24 -26.61,49.81 -32.62,69.15c-0.84,2.72 -1.18,11.83 4.67,15.51c5.84,3.67 19.02,3.51 35.69,3.4c15.15,0.04 27.74,-0.58 31.94,-1.52c9.59,-2.15 8.86,-26.83 -1.14,-41.4z"  id="svg_52"/>
      <path d="m366.02,225.68l-2.02,3.91l-2.5,1.29c-1.37,-1.9 1.38,-5.5 4.52,-5.2z"  id="svg_53"/>
      <path d="m404.39,231.41c4.09,-29.77 21.1,-75.53 16.02,-78.16c-16.26,-8.41 -49.39,-11.11 -67.4,-0.15c-2.5,1.52 8.08,5.28 8.74,11.2c0.21,1.89 -3.84,5.23 -2.25,6.38c6.76,4.86 24.3,4.09 51.11,-7.72c-31.55,17.1 -47.82,13.99 -55.54,8.78c-1.82,-1.23 2.81,-4.81 2.57,-6.85c-0.75,-6.34 -12.58,-11.79 -9.49,-13.32c21.22,-10.45 56.11,-9.56 74.68,-0.54c5.81,2.82 -12.54,59.38 -18.44,80.38z"  id="svg_54"/>
      <path d="m390.04,164.03l-4.12,-6.84l2.9,-2.36l-0.03,0.01c0.01,0 0.02,-0.01 0.03,-0.02c-13.51,2.75 -28.84,-0.18 -30.46,2.22c0.93,0.67 1.9,1.25 2.91,1.73q4.23,3.96 4.6,7.33l-3.29,1.6c7.95,0.97 16.45,0 25.42,-2.99l0,0l0,0l2.04,-0.68z"  id="svg_55"/>
     </g>

     <g id="ball_panel_2" fill="var(--outline-color, #000)" transform="matrix(1 0 0 1 -202.805 -28.3)">

      <defs>
        <path id="stitch_1_panel_2" d="m334.14,190.04l0.33,3.66c-2.58,-3.54 -14.27,-7.06 -21.99,-1.55c-7.28,5.18 -16.91,22.45 -31.25,27.04c-4.6,1.47 -8.39,-0.51 -8.6,-7.51l-0.53,-5.87l3.05,-4.75c-2.05,9.83 0.45,12.3 1.82,12.5c10.85,1.58 26.75,-21.56 32.63,-25.24c6.93,-4.33 16.75,-4.98 24.54,1.72z"  />
        <path id="stitch_2_panel_2" d="m335.74,235.44c-8.39,3.35 -37.63,-8.89 -49.27,-2.49c-3.96,2.18 -5.2,4.94 -3.77,8.27l-2.35,-1.46l-1.39,-3.11c-0.36,-6.28 4.57,-10.05 11.25,-10.79c15.71,-1.76 36.84,8.65 43.82,5.14c4.82,-2.43 6.34,-5.4 7.24,-10.91l0.42,8.78q-4.06,5.81 -5.95,6.57z"  />
        <mask id="panel_2_stitch_mask">
          <rect width="1300" height="1300" fill="#fff" />
          <use href="#stitch_1_panel_2" fill="#000" />
          <use href="#stitch_2_panel_2" fill="#000" />
        </mask>
      </defs>

      <ellipse cx="306.24" cy="215.31" fill="none" id="svg_57" rx="37.34" ry="38.71"/>
      <ellipse cx="288.46" cy="259.69" id="svg_58" rx="37.58" ry="2.06"/>

      <path d="m342.64,233.5c-3.63,9.22 -10.42,17.15 -19.73,21.89c-13.17,6.7 -28.15,5.34 -39.7,-2.23l0,0l-3.07,0.15l-2.14,-4.2c-3.84,-3.52 -7.09,-7.86 -9.48,-12.92l0,0c-5.27,-11.13 -5.35,-23.52 -1.2,-34.21l0.14,-5.46l4.05,-2.66l0,0c3.83,-5.79 9.11,-10.68 15.63,-13.99c14.88,-7.57 32.08,-4.86 44.02,5.48l0,0l5.71,2.19l0.39,4.4c1.62,2.18 3.06,4.56 4.27,7.12c4.46,9.4 5.2,19.7 2.83,29.11l0.49,2.71l-2.21,2.62zm-63.04,3.81c-11.61,-15.65 -8.74,-38.13 6.4,-50.17c15.15,-12.03 36.86,-9.09 48.47,6.56c11.61,15.66 8.74,38.14 -6.41,50.18c-15.14,12.03 -36.86,9.09 -48.46,-6.57l0,0l0,0l0,0l0,0z" 
      fill-rule="evenodd" mask="url(#panel_2_stitch_mask)" />

      <path d="m282.98,196.12c-11.14,14.05 -10.21,34.77 2.55,47.45c13.41,13.32 34.84,12.76 47.82,-1.25c2.78,-3 4.95,-6.37 6.5,-9.95c-9.15,10.37 -25.28,13.31 -39.41,6.21c-16.44,-8.27 -24.1,-27.11 -17.46,-42.46z" 
       fill-opacity="0.04" id="svg_61"/>

      <use href="#stitch_1_panel_2"
      fill="var(--accent-color, none)" />
      <use href="#stitch_2_panel_2"
      fill="var(--accent-color, none)" />

     </g>

    </g>

    <g id="sox_logo" fill="var(--outline-color, #000)">
     <g id="svg_3">
      <path d="m132.01,194.3q17.01,-6.94 18.6,-17.86c0.95,-17.04 -2.82,-39.39 -25.38,-63.68c-1.98,-27.32 23.98,-41 43.53,-27.98l31.86,-8.82l10.35,28.44l18.31,-26.21l20.66,12.64l-25.08,42.89l26.95,57.85l-31.9,9.83l-15.84,-33.14l-35.1,53.41l-36.96,-27.37z" fill="var(--accent-color, none)" id="svg_4"/>
      <path d="m132.01,194.3l36.71,23.32l38.66,-56.97l19.17,37.32l23.39,-8.19l-26.15,-56.3l25,-41.36l-19.56,-12.38l-18.26,26.13l-12.75,-28.7l-27.65,8.99l-4.22,-3.93l34.27,-10.08l8.35,22.25l4.28,-6.8l16.03,-12.92l24.56,16.44l-26.29,43.51l26.91,55.94l-13.82,9.07l-29.67,9.63l-12.75,-26.15l-27.11,41.73l-20.5,1.21l-38.74,-29.28l20.14,-2.48z"  id="svg_5"/>
      <path d="m150.61,183.12l45.35,-52.91l-7.61,-11.44l2.57,6.84l-39.26,46l-1.05,11.51z"  id="svg_6"/>
      <path d="m129.44,115.68c1.18,-17.34 9.71,-31.25 21.17,-32.32c17.42,-1.63 33.53,20.78 35.94,50.02c0.03,0.37 0.06,0.75 0.08,1.12l1.04,0l3.49,-8.89c-5.05,-29.49 -21.79,-51.21 -39.4,-49.56c-19.93,2.34 -34.67,9.91 -37.77,24.61l15.45,15.02z"  id="svg_7"/>
      <path d="m148.14,128.15c-2.41,-11.76 0.69,-22.34 6.93,-23.62c6.23,-1.28 13.25,7.24 15.66,19c2.41,11.76 -0.7,22.35 -6.94,23.62c-6.23,1.28 -13.25,-7.23 -15.65,-19z"  id="svg_8"/>
     </g>
     <g id="svg_9" transform="matrix(1 0 0 1 -700.737 -31.5993)">
      <path d="m837.43,157.39c-27.66,-2.17 -51.35,34.67 -44.31,72.11c-32.35,-2.33 -53.39,-9.64 -63.11,-21.93c-3.87,-15.2 -2.24,-29.58 4.9,-43.15l3.72,-7.3c-5.9,-16.98 8.5,-36.88 28.84,-40.87c8.71,8.65 16.01,23.32 17.51,33.99c-3.37,4.69 -4.33,8.78 -7.73,13.74c5.76,-2.33 7.06,-2.22 10.42,-2.44l-2.45,-11.74c-4.94,-13.97 -10.1,-25.15 -15.47,-33.55l-4.48,-6.48c-2.13,-8.41 6.64,-10.05 22.59,-8.23c6.72,12.24 30.96,30.36 49.57,55.85z" fill="var(--accent-color, none)" id="svg_10"/>
      <path d="m741.01,79.2c-4.83,5.38 -10.1,9.94 -15.83,13.68c-1.96,2.51 4.03,7.96 11.36,6.27l16.49,-16.89q-8.47,0.65 -12.02,-3.06z"  id="svg_11"/>
      <path d="m755.51,77.55c7.48,-13 16,-17.15 26.85,-19.84c2.13,1.36 6.77,0.95 12.07,0.77c-0.58,-23.11 -16.26,-29.26 -35.87,-16.46c-3.85,2.71 -5.88,4.58 -8.47,7.97c-3.85,8.93 1.56,22.26 5.42,27.56z" fill="var(--accent-color, none)" id="svg_12"/>
      <path d="m756.3,79.2c-5.79,-9.62 -8.28,-18.88 -7.49,-27.8c-6.16,10.77 -8.64,19.94 -7.43,27.48c1.68,2.34 5.39,3.53 11.11,3.56l3.81,-3.24z" fill="none" id="svg_13"/>
      <path d="m781.62,58.48c-8.28,1.88 -17.98,9.9 -29.13,24.04c-2.05,3.69 2.17,13.29 12.63,28.76c-1.75,-9.22 5.46,-12.46 21.59,-9.74c-1.38,-4.11 0.17,-8.03 4.62,-11.8c8.58,7.53 17.74,11.87 27.45,13c6.1,-0.75 12.58,-3.57 19.41,-8.5l11.07,0c1.4,-7.2 0.16,-12.76 -3.75,-16.69c13.1,-11.85 16.64,-19.5 10.59,-23.01c5.6,-11.51 -64.89,7.66 -74.48,3.94z" fill="none" id="svg_14"/>
      <path d="m767.47,115.56c-4.7,-5.65 -14.09,-10.55 -29.98,-10.37c-18.71,20.66 -15.18,45.06 -2.54,59.23l4.4,-8.19c-6.27,-17.81 4.65,-32.26 28.12,-40.67z" fill="none" id="svg_15"/>
      <path d="m835.68,157.39c-30.8,4.48 -45.37,28.53 -43.74,72.11q45.32,-2.53 49.55,-7.88c14.27,-18.04 12.34,-39.44 -5.81,-64.23z" fill="none" id="svg_16"/>
      <path d="m728.87,201.19l6.04,12.89c27.86,15.18 69.93,17.18 108.12,8.11c-25.52,12.45 -56.75,9.97 -70.59,7.31c-86.89,-16.75 -80.93,-30.88 -43.57,-28.31z"  id="svg_17"/>
      <path d="m848.84,61.6c-13.75,-1.48 -29.49,6.45 -43.18,4.73c3.64,24.52 16.74,23.32 35,15.62l-4.98,-2.06c-0.01,-5.82 4.04,-13 13.16,-18.29z"  id="svg_18"/>
      <path d="m810.62,64.16l-2.21,-0.06c-2.48,1.01 -4.05,2.94 -4.73,5.81l0.91,1.04c0.75,-3.45 2.37,-5.71 6.03,-6.79z"  id="svg_19"/>
      <path d="m835.69,94.24c15.52,8.9 23.57,-3.52 11.16,-16.81c20.62,-16.14 16.72,-25.53 7.31,-28.55c-11.42,-3.65 -58.16,11.2 -70.59,8.36l-4.13,1.24c9.84,7.53 64.21,-14.16 73.71,-2.32c5.26,6.58 3.02,8.29 -11.57,20.55c9.18,10.69 8.61,17.45 -3.39,15.29l-2.5,2.24z"  id="svg_20"/>
      <path d="m771.27,119.31c-15.24,-4.41 -38.95,13.75 -31.08,35.19l-2.38,3.35c-10.28,-21.17 16.35,-44.34 31.23,-42.03l2.23,3.49z"  fill-rule="evenodd" id="svg_21"/>
      <path d="m755.09,77.94c-4.97,1.36 -11.21,2.31 -12.54,0.53c-5.04,-41.41 54.79,-59.14 49.39,-20.76l2.76,0.06c-0.83,-43.71 -58.42,-20.43 -53.7,22.09c2.15,2.41 6.41,4.09 11.03,2.66l3.06,-4.58z"  id="svg_22"/>
      <path d="m784.06,51.05c-5.75,-2.68 0.27,-7.79 7.81,-4.88c0.85,2.87 0.96,5.01 0.4,6.35c-2.44,-1.67 -6.39,-0.61 -8.21,-1.47z"  id="svg_23"/>
      <path d="m755.51,43.33c-3.52,1.85 -4.2,-1.16 -1.15,-4.2c3.93,-3.91 7.96,-3.22 6.9,0.59l-5.75,3.61z"  id="svg_24"/>
      <path d="m752.49,86.75c-3.48,4.32 -10.22,7.49 -14.68,12.38c-4.97,5.45 -19.69,-4.39 -10.67,-9.39c5.11,-2.72 9.74,-6.83 13.87,-12.35l0.83,2.5c-4.4,5.03 -8.82,8.92 -13.26,11.69c-9.21,2.65 4.93,11.2 9.33,5.41c3.47,-4.57 10.55,-7.26 13.36,-11.24c5.32,-15.89 15.68,-28.96 37.83,-29.75c-20.01,4.73 -30.32,16.17 -36.61,30.75z"  id="svg_25"/>
      <path d="m747.02,83.02c2.69,0.29 4.97,-0.6 6.88,-2.69c-1.71,6.43 -1.6,10.01 0.39,10.7c-9.22,12.63 -10.42,5.7 -15.28,4.97l8.01,-12.98z"  id="svg_26"/>
      <path d="m791.25,91.22c-12.06,18.57 28.03,30.23 48.53,66.3l-6.67,-2.02c-21.22,-33.99 -56.62,-44.39 -46.7,-63.99l4.84,-0.29l0,0z"  id="svg_27"/>
      <path d="m750.88,83.55c-3.21,16.65 38.54,42.67 35.14,93.14l3.52,-9.17c-3.02,-51.29 -42.52,-68.75 -35.13,-87.58l-3.53,3.61z"  fill-rule="evenodd" id="svg_28"/>
      <path d="m792.81,89.11c-4.82,0.06 -9.78,2.17 -14.87,6.32c7.45,-3.54 14.16,-3.92 17.51,-3.23l-2.64,-3.09z"  id="svg_29"/>
      <path d="m750.68,48.28c-3.04,8.27 -0.88,18.03 6.46,29.27l-2.27,1.65c-6.68,-11.63 -7.57,-21.89 -6.06,-26.95l1.87,-3.97z"  id="svg_30"/>
      <path d="m787.41,164.42c-8.63,-1.9 -17.81,3.62 -27.57,15.32c-1.17,-4.96 17.94,-21.8 26.87,-19.37l0.7,4.05z"  id="svg_31"/>
      <path d="m785.85,100.34c-17.39,-1.37 -24.3,1.61 -20.73,8.94l1.68,2c-3.07,-8.76 3.63,-11.78 20.09,-9.05l-1.04,-1.89z"  id="svg_32"/>
      <path d="m749.46,141.97c-24.76,28.58 -30.41,52.77 -16.96,72.57c20.58,12.6 60.87,23.54 105.14,10.13c23.79,-7.21 20.26,-34.41 3.85,-64.3l-5.28,0c17.6,27.66 14.43,53.84 -4.06,60.2c-32.01,10.99 -72.69,5.05 -94.9,-9.1c-12.66,-13.4 -8.59,-36.57 12.21,-69.5z"  id="svg_33"/>
      <path d="m767.47,111.53c-11.03,-6.61 -23.39,-9.19 -28.27,-8.11c-21.61,4.8 -24.48,50.18 -4.25,62.12l2.82,-5.17c-15.52,-3.45 -16.36,-44.19 1.4,-52.84c5.23,-2.54 23.22,2.2 34.11,14.18c-1.87,-3.56 -3.82,-6.99 -5.81,-10.18zm18.68,41.72c-0.77,2.66 -1.84,5.43 -3.24,8.31l-7.23,2.62c5.08,-9.11 6.71,-17.15 6.04,-24.09c1.81,4.61 3.33,9.08 4.43,13.16z"  fill-rule="evenodd" id="svg_34"/>
      <path d="m789.02,227.58c-6.04,-46.84 37.64,-85.76 54.49,-67.79c3.45,3.68 1.22,6.96 -1.03,6.11c-13.85,-15.53 -53.63,10.98 -48.05,61.68l-5.41,0z"  id="svg_35"/>
      <path d="m838,95.33c-30.05,28.27 -45.77,-15.55 -68.81,-12.7c30.64,-5.95 36.97,35.57 69.54,8.22l-0.73,4.48z"  id="svg_36"/>
      <path d="m734.95,207.57c-6.64,-17.52 8.49,-50.71 10.3,-52.07c-12.7,80 89.19,64.87 105.85,51.33c-7.35,10.02 -25.37,21.05 -59.77,20.75q-45.25,-2.16 -56.38,-20.01z"  
      fill="url(#dots)" id="svg_37"/>
      <path d="m728.87,116.25c1.7,10.94 4.96,18.03 9.76,21.25c-1.78,7.37 -1.78,14.05 0,20.02l-3.68,5.38c-7.6,-12.53 -9.63,-28.08 -6.08,-46.65z"  
      fill="url(#dots)" id="svg_38"/>
     </g>
     <path id="star_shine" d="m62.68,23.5l0.44,37.55l14.84,-21.31l-14.1,21.78l14.1,-7.81l-13.73,8.61l16.66,1.79l-16.79,-0.91l28.09,24.92l-28.67,-24.26l10.16,36.16l-11,-35.91l-8.6,25.87l7.76,-26.12l-28.67,24.26l28.09,-24.92l-37.23,4.9l37.1,-5.78l-25.3,-8.61l25.67,7.81l-14.86,-21.78l15.6,21.31l0.44,-37.55z" fill="#fff"/>
    </g>

    <g id="chars_panel_3">

     <defs>
      <path id="stitch_1_panel_3" d="m561.28,204.01l-4.14,-1.88c-5.12,-0.11 -8.54,2.61 -18.28,4.68c-13.38,2.86 -40.08,-10.35 -62.76,-5.17l-5.09,2.43l-0.72,5.18c24.55,-8.31 56.72,5.01 69.15,2.51c11.68,-2.35 16.72,-5.19 22.73,-3.34l-0.89,-4.41z" />
      <path id="stitch_2_panel_3" d="m568.91,246.24c-12.04,-7.17 -35.3,-9.22 -38.42,-8.91c-13.87,1.4 -29.73,38.33 -50.14,39.34l2.83,5.52l7.14,1.33c22.85,-8.79 33.76,-41.96 45.78,-42.15c8.31,-0.13 25.84,6.46 30.81,13.18l3.44,-4.06l-1.44,-4.25z" />
      <mask id="panel_3_stitch_mask">
        <rect width="1300" height="1300" fill="#fff"/>
        <use href="#stitch_1_panel_3" fill="#000"/>
        <use href="#stitch_2_panel_3" fill="#000"/>
      </mask>
     </defs>

     <g id="ball_panel_3" fill="var(--outline-color, #000)" transform="translate(-1 -119) matrix(1 0 0 1 -444.13 -11.105)">

      <path d="m475.54,209.97c-15.37,22.45 -11.22,53.19 10.15,70.34c22.45,18.03 55.46,14.28 73.68,-8.36c3.9,-4.84 6.8,-10.15 8.73,-15.7c-12.77,16.69 -37.29,23.27 -60.04,14.6c-26.47,-10.09 -40.76,-37.11 -32.52,-60.88z" fill-opacity="0.04" />
      <path d="m572.56,257.79c-6.91,21.93 -25.64,39.29 -49.9,43.29c-16.57,2.74 -32.71,-1.26 -45.61,-9.98l0,0l-6.87,-1.07l-1.66,-5.84c-9.38,-9.06 -16.03,-21.08 -18.32,-34.91l0,0c-2.29,-13.84 0.15,-27.38 6.12,-38.97l-0.11,-4.82l4.82,-2.9l0,0c9.39,-13.19 23.85,-22.79 41.1,-25.64c23.33,-3.85 45.79,5.63 59.58,22.86l0,0l3.72,1.59l-0.03,3.53c4.54,7.02 7.74,15.06 9.19,23.82c1.09,6.58 1.11,13.09 0.19,19.36l1.07,6.86l-3.29,2.82zm-106.4,-1.95c-10.47,-27.61 3.48,-58.52 31.15,-68.98c27.67,-10.46 58.63,3.45 69.11,31.06c10.47,27.61 -3.48,58.52 -31.15,68.98c-27.67,10.47 -58.63,-3.45 -69.11,-31.06l0,0l0,0l0,0l0,0z" 
        fill-rule="evenodd" 
        mask="url(#panel_3_stitch_mask)"
      />
      <use href="#stitch_1_panel_3" fill="var(--accent-color, var(--outline-color, #000))" />
      <use href="#stitch_2_panel_3" fill="var(--accent-color, var(--outline-color, #000))" />
     </g>

     <g id="sox_panel_3" fill="var(--outline-color, #000)">
      <path d="m177.55,171.24c18.92,5.02 45.93,5.96 81,2.75q7.77,0.52 11.72,0.81l13.43,3.78c-52.92,2.53 -103.28,0.7 -151.16,-5.62q13.58,-1.07 45.01,-1.72z"  id="svg_11"/>
      <path d="m218.94,59.5c18.35,-2.97 27.9,-0.91 28.61,6.14l-12.38,35.39l-5.17,19.53l8.1,4.75q-0.92,-6.75 0,-9.76c6.4,-18.44 21.82,-20.73 46.23,-6.9l-10.26,13.57c6.22,24.93 5.31,41.33 -2.77,49.16l-49.07,4.91c6.87,-44.78 -6.93,-62.95 -44.79,-51.36c21.06,-31.62 34.9,-53.42 41.5,-65.43z" 
      fill="var(--accent-color, none)" id="svg_12"/>
      <g id="svg_13" opacity="0" transform="matrix(1 0 0 1 -445.13 -130.105)">
       <path d="m666.29,178.32l-1.39,11.28c13.65,-3.33 22.92,-1.75 27.78,4.7l14.2,-44.58c-37.66,-17.26 -69.8,-17.23 -96.48,0l12.17,17.78l-2.48,10.82c11.89,6.86 27.3,6.87 46.2,0z"  id="svg_14"/>
      </g>
      <path d="m177.44,122.78c33.07,-13.19 56.45,11.47 48.71,51.01l-7.7,0.91c14.09,-41 -11.13,-64.18 -45.53,-44.05l4.52,-7.87z"  id="svg_15"/>
      <path d="m219.77,57.83c9.95,-2.61 28.18,-3.74 29.38,4.67l-3.68,8.25c1.37,-10.07 -7.47,-13.17 -26.53,-9.34l0.83,-3.58z"  id="svg_16"/>
      <path d="m241.56,49.33q-10.36,-4.21 -20.15,-1.46l-0.25,3.47q5.35,-3.48 20.4,-2.01z"  id="svg_17"/>
      <g id="svg_18" opacity="0.61" transform="matrix(1 0 0 1 -445.13 -130.105)">
       <path d="m697.39,162.41c-8.19,27.29 -22.08,55.79 -30.78,90.76c10.22,-37.08 27.95,-74.62 30.78,-90.76z"  id="svg_19"/>
      </g>
      <path d="m235.17,127.18c5.13,0.39 9.78,1.51 14.29,8.23c-3.11,-9 -9.46,-13.92 -16.89,-12.62l1.83,4.7l0.77,-0.31z"  id="svg_20"/>
      <path d="m194.08,117.21l3.05,7.29l2.26,0.73l-3.67,-7.5l-1.64,-0.52z"  id="svg_21"/>
      <path d="m200.37,117.48l2.31,7.69l2.18,1.06l-2.91,-7.99l-1.58,-0.76z"  id="svg_22"/>
      <path d="m205.54,119.12l2.31,7.7l2.17,1.05l-2.9,-7.98l-1.58,-0.77z"  id="svg_23"/>
      <path d="m211.59,121.85l0.68,8.16l1.9,1.69l-1.21,-8.63l-1.37,-1.22z"  id="svg_24"/>
      <path d="m217.28,126.43l-1.14,8.09l1.45,2.26l0.75,-8.71l-1.06,-1.64z"  id="svg_25"/>
      <path d="m221.48,132.21l-2.51,7.59l1.02,2.6l2.24,-8.31l-0.75,-1.88z"  id="svg_26"/>
      <path d="m225.41,139.95l-4.44,6.38l0.36,2.85l4.34,-7.17l-0.26,-2.06z"  id="svg_27"/>
      <path d="m227.85,149.49l-6.44,4.96l-0.15,2.88l6.48,-5.75l0.11,-2.09z"  id="svg_28"/>
      <path d="m228.8,157.95l-8.39,3.83l-0.38,2.84l8.5,-4.61l0.27,-2.06z"  id="svg_29"/>
      <path d="m228.53,165.28l-9.24,2.8l-0.61,2.79l9.42,-3.57l0.43,-2.02z"  id="svg_30"/>
      <path d="m176.24,121.87l3.04,7.3l2.26,0.72l-3.66,-7.49l-1.64,-0.53z"  id="svg_31"/>
      <path d="m179.63,119.75l3.05,7.29l2.26,0.72l-3.67,-7.49l-1.64,-0.52z"  id="svg_32"/>
      <path d="m184.27,118.39l3.05,7.29l2.26,0.72l-3.67,-7.49l-1.64,-0.52z"  id="svg_33"/>
      <path d="m188.78,117.28l3.04,7.3l2.26,0.72l-3.66,-7.49l-1.64,-0.53z"  id="svg_34"/>
      <path d="m255.3,103.16c-12.73,2.4 -17.68,9.8 -14.9,22.15l-4.48,-1.39c-0.99,-12.4 5.48,-21.27 19.38,-26.64l0,5.88z"  id="svg_35"/>
      <path d="m236.61,136.14q0.18,-14.88 -5.7,-19.01l-1.07,5.16q4.2,2.26 6.77,13.85z"  id="svg_36"/>
      <path d="m265.38,105.64c16.83,18.44 22.49,60.91 3.47,70.45l-91.41,0.2c-9.79,0.34 -15.18,-21.51 -12.81,-31.5c7.35,-30.91 61.88,-81.97 53.46,-96.57l5.46,-1.78c8.08,13.08 -44.9,66.61 -52.9,97.32c-1.13,4.32 -1.57,18.78 6.21,24.63c7.77,5.83 25.32,5.58 47.51,5.4c20.17,0.06 36.92,-0.92 42.52,-2.41c12.76,-3.42 11.8,-42.61 -1.51,-65.74z"  id="svg_37"/>
      <path d="m176.64,122.38l-2.69,6.22l-3.33,2.05c-1.83,-3.02 1.83,-8.74 6.02,-8.27z"  id="svg_38"/>
      <path d="m227.72,131.49c5.44,-47.27 37.56,-107.46 30.8,-111.63c-21.65,-13.35 -65.75,-17.65 -89.72,-0.24c-3.33,2.41 10.76,8.39 11.63,17.78c0.28,3.01 -5.11,8.31 -2.99,10.13c9,7.72 32.35,6.51 68.03,-12.25c-41.99,27.15 -63.65,22.22 -73.93,13.93c-2.42,-1.95 3.74,-7.64 3.42,-10.87c-0.99,-10.07 -16.74,-18.72 -12.63,-21.14c28.25,-16.6 74.7,-15.19 99.42,-0.87c7.72,4.48 -26.18,81.81 -34.03,115.16z"  id="svg_39"/>
      <path d="m218.13,34.76l-5.09,-8.68l3.59,-2.99l-0.03,0.02c0.01,-0.01 0.02,-0.02 0.03,-0.03c-19.68,6.61 -38.6,2.92 -37.64,2.82c1.15,0.85 2.35,1.58 3.59,2.18q5.23,5.03 5.69,12.38l-4.06,2.03c7.26,5.45 18.57,0.83 33.92,-7.73z"  id="svg_40"/>
     </g>
    
    </g>

  </defs>

  <defs id="panel_defs">

    <g id="panel_1">

      <g clip-path="url(#one_of_four_clip)">

        <use id="ball_logo_use" href="#ball_logo" 
          style="
            transform-box: fill-box;
            transform-origin: 50% 50%;
          "
          transform="translate(0 100) scale(1.4)" 
        />

      </g>

      <use href="#one_of_four_border" />

    </g>

    <g id="panel_2">

      <g xxx-clip-path="url(#one_of_four_clip)">

        <g transform="translate(150 25)">
          <text text-anchor="middle">
            <tspan>Nice proposal one thing,</tspan>
            <tspan x="0" dy="1em">
              does that not look, just...
            </tspan>
            <tspan x="0" dy="1em">
              <tspan font-style="italic">
              exactly like
              </tspan>
              it says <tspan font-weight="bold">SEX</tspan>?
            </tspan>
          </text>
        </g>
        <rect class="text-bubble" width="300" height="80" />
        <path d="m 245 87 h5 l -5 50 z " />

        <use href="#ball_logo"
          transform="
            skewX(12)
            skewY(5)
            scale(0.24 0.48)
            translate(-110 270)
          "
          opacity="0.5"
        />
        <use href="#chars_panel_2" 
          transform="translate(-20 97) scale(1.32)"
        />

      </g>

      <!-- <use href="#one_of_four_border" /> -->

    </g>

    <g id="panel_3">

      <g clip-path="url(#one_of_four_clip)">

        <g transform="translate(150 32)">
          <text text-anchor="middle">
            <tspan>Also, it sort of features</tspan>
            <tspan x="0" dy="1em">
              <tspan font-style="italic">YOU</tspan>
              a little too promi&#183;
            </tspan>
            <tspan x="0" dy="1em">
              <tspan font-style="italic">
              nently.
              </tspan>
            </tspan>
          </text>
        </g>
        <rect class="text-bubble" width="286" height="80" x="7" y="7" />
        <path d="m 245 87 h5 l -5 50 z " />
        
        <g transform="translate(20 132)">
          <text text-anchor="start">
            Well, what do 
            <tspan x="0" dy="1em">
              you suggest to 
            </tspan>
            <tspan x="0" dy="1em">
              improve it?
            </tspan>
          </text>
        </g>

        <use href="#chars_panel_3" 
          transform="scale(1.4) translate(-33 130)"
        />


      </g>

      <use href="#one_of_four_border" />

    </g>

    <g id="panel_4">

      <g clip-path="url(#one_of_four_clip)">

        <use href="#sox_logo"
          style="
            transform-box: fill-box;
            transform-origin: 50% 50%;
          "
          transform="scale(1.3) translate(20 70)"
        />

      </g>

      <use href="#one_of_four_border" />

    </g>

  </defs>

  <g id="haxxor" style="
    filter: var(--bg-filter, none);
    opacity: var(--bg-opacity, 1);
  ">

    <svg class="land" viewBox="0 0 1300 520">

      <use href="#title" />
      <g transform="translate(0 80)">
        <use href="#copyright" transform="translate(976 395)" />
        <use href="#panel_1" transform="translate(20 0)" />
        <use href="#panel_2" transform="translate(340 0)" />
        <use href="#panel_3" transform="translate(660 0)" />
        <use href="#panel_4" transform="translate(980 0)" />
      </g>

    </svg>

    <svg class="port" viewBox="0 0 650 905">
      <use href="#title" />
      <g transform="translate(0 80)">
        <use href="#copyright" transform="translate(330 814)" />
        <use href="#panel_1" transform="translate(15 0)" />
        <use href="#panel_2" transform="translate(335 0)" />
        <use href="#panel_3" transform="translate(15 420)" />
        <use href="#panel_4" transform="translate(335 420)" />
      </g>
    </svg>

  </g>


</svg>