<svg xmlns="http://www.w3.org/2000/svg" xmlns:xlink="http://www.w3.org/1999/xlink" style="isolation:isolate" viewBox="-8.333 -45.262 952.475 344.815" width="952.475pt" height="344.815pt">

<g clip-path="url(#_clipPath_aM0bS7mmRD85FV7UZlivCx8o3joko55X)">

<rect x="-8.333" y="-45.262" width="952.475" height="344.815" transform="matrix(1,0,0,1,0,0)" fill="rgb(255,255,255)"/>

<rect x="477.2" y="4.061" width="216" height="279.878" transform="matrix(1,0,0,1,0,0)" fill="none"  stroke-width="3" stroke="rgb(8,41,96)" stroke-linejoin="miter" stroke-linecap="square" stroke-miterlimit="2"/>

<clipPath id="_clipPath_sBKwXTx7fBmX8imSI2rgtHOJ5facOYtE">

<rect x="477.2" y="4.061" width="216" height="279.878" transform="matrix(1,0,0,1,0,0)" fill="none"  stroke-width="3" stroke="rgb(8,41,96)" stroke-linejoin="miter" stroke-linecap="square" stroke-miterlimit="2"/>

</clipPath>

<g clip-path="url(#_clipPath_sBKwXTx7fBmX8imSI2rgtHOJ5facOYtE)">

<g>

<g>

<circle  cx="516.2136103576204" cy="237.51846572885927" r="56.12947444581235" fill="rgb(255,255,255)"/>

<g opacity="0.51">

<path d=" M 475.535 209.969 C 460.174 232.416 464.316 263.156 485.686 280.314 C 508.137 298.339 541.153 294.593 559.371 271.953 C 563.266 267.112 566.171 261.797 568.103 256.254 C 555.331 272.94 530.806 279.517 508.065 270.851 C 481.593 260.764 467.296 233.741 475.535 209.969 Z " fill="rgb(8,41,96)" fill-opacity="0.17"/>

</g>

<path d=" M 572.558 257.787 C 565.654 279.717 546.917 297.078 522.658 301.082 C 506.086 303.817 489.948 299.821 477.049 291.102 L 477.049 291.102 L 470.177 290.029 L 468.52 284.19 C 459.14 275.134 452.487 263.107 450.2 249.28 L 450.2 249.28 C 447.912 235.44 450.347 221.901 456.325 210.305 L 456.209 205.491 L 461.027 202.593 L 461.027 202.593 C 470.424 189.397 484.882 179.796 502.132 176.949 C 525.458 173.1 547.925 182.584 561.707 199.807 L 561.707 199.807 L 565.433 201.402 L 565.399 204.929 C 569.938 211.948 573.141 219.988 574.59 228.751 C 575.678 235.33 575.699 241.841 574.779 248.107 L 575.852 254.974 L 572.558 257.787 Z  M 466.162 255.84 C 455.687 228.233 469.643 197.324 497.309 186.86 C 524.976 176.396 555.942 190.314 566.417 217.921 C 576.892 245.527 562.936 276.436 535.27 286.9 C 507.603 297.365 476.637 283.447 466.162 255.84 L 466.162 255.84 L 466.162 255.84 L 466.162 255.84 L 466.162 255.84 Z " fill-rule="evenodd" fill="rgb(8,41,96)"/>

<path d=" M 561.279 204.01 L 557.138 202.131 C 552.023 202.016 548.599 204.735 538.861 206.812 C 525.479 209.666 498.776 196.458 476.1 201.639 L 471.01 204.066 L 470.293 209.252 C 494.838 200.938 527.015 214.265 539.437 211.761 C 551.119 209.405 556.164 206.574 562.175 208.417 L 561.279 204.01 Z " fill="rgb(205,162,162)"/>

<path d=" M 568.906 246.244 C 556.872 239.071 533.614 237.019 530.487 237.333 C 516.615 238.727 500.76 275.657 480.353 276.67 L 483.178 282.187 L 490.317 283.52 C 513.174 274.73 524.075 241.563 536.104 241.373 C 544.407 241.242 561.944 247.83 566.91 254.55 L 570.347 250.489 L 568.906 246.244 Z " fill="rgb(205,162,162)"/>

</g>

<g>

<path d=" M 622.681 301.34 C 641.595 306.364 668.611 307.302 703.681 304.094 Q 711.445 304.612 715.401 304.897 L 728.834 308.675 C 675.907 311.208 625.547 309.377 577.673 303.062 Q 591.254 301.994 622.681 301.34 Z " fill="rgb(8,41,96)"/>

<path d=" M 664.065 189.604 C 682.418 186.628 691.967 188.687 692.681 195.74 L 680.3 231.135 L 675.13 250.66 L 683.232 255.412 Q 682.306 248.657 683.232 245.653 C 689.628 227.21 705.046 224.917 729.457 238.745 L 719.201 252.321 C 725.423 277.25 724.512 293.648 716.435 301.475 L 667.357 306.386 C 674.226 261.61 660.433 243.437 622.568 255.03 C 643.625 223.407 657.468 201.611 664.065 189.604 Z " fill="rgb(205,162,162)"/>

<g opacity="0">

<path d=" M 666.287 178.321 L 664.905 189.604 C 678.555 186.271 687.824 187.85 692.681 194.301 L 706.878 149.715 C 669.22 132.461 637.082 132.486 610.399 149.715 L 622.568 167.498 L 620.094 178.321 C 631.983 185.175 647.391 185.188 666.287 178.321 Z " fill="rgb(8,41,96)"/>

</g>

<path d=" M 622.568 252.877 C 655.64 239.694 679.025 264.353 671.281 303.891 L 663.581 304.799 C 677.673 263.804 652.453 240.621 618.049 260.75 L 622.568 252.877 Z " fill="rgb(8,41,96)"/>

<path d=" M 664.905 187.93 C 674.852 185.324 693.075 184.194 694.276 192.599 L 690.604 200.848 C 691.968 190.777 683.132 187.677 664.065 191.51 L 664.905 187.93 Z " fill="rgb(8,41,96)"/>

<path d=" M 686.689 179.427 Q 676.333 175.22 666.539 177.966 L 666.287 181.444 Q 671.638 177.955 686.689 179.427 Z " fill="rgb(8,41,96)"/>

<g opacity="0.61">

<path d=" M 697.395 162.414 C 689.199 189.7 675.309 218.203 666.614 253.17 C 676.829 216.093 694.561 178.549 697.395 162.414 Z " fill="rgb(8,41,96)"/>

</g>

<path d=" M 680.3 257.279 C 685.432 257.672 690.076 258.788 694.586 265.51 C 691.479 256.51 685.127 251.589 677.697 252.89 L 679.53 257.59 L 680.3 257.279 Z " fill="rgb(8,41,96)"/>

<path d=" M 639.214 247.31 L 642.256 254.604 L 644.519 255.326 L 640.854 247.833 L 639.214 247.31 Z " fill="rgb(8,41,96)"/>

<path d=" M 645.505 247.578 L 647.809 255.273 L 649.985 256.327 L 647.081 248.342 L 645.505 247.578 Z " fill="rgb(8,41,96)"/>

<path d=" M 650.672 249.225 L 652.977 256.92 L 655.152 257.974 L 652.248 249.989 L 650.672 249.225 Z " fill="rgb(8,41,96)"/>

<path d=" M 656.717 251.947 L 657.403 260.107 L 659.299 261.795 L 658.091 253.17 L 656.717 251.947 Z " fill="rgb(8,41,96)"/>

<path d=" M 662.415 256.534 L 661.272 264.616 L 662.723 266.877 L 663.466 258.172 L 662.415 256.534 Z " fill="rgb(8,41,96)"/>

<path d=" M 666.614 262.313 L 664.097 269.905 L 665.122 272.497 L 667.357 264.191 L 666.614 262.313 Z " fill="rgb(8,41,96)"/>

<path d=" M 670.538 270.049 L 666.096 276.43 L 666.456 279.28 L 670.799 272.114 L 670.538 270.049 Z " fill="rgb(8,41,96)"/>

<path d=" M 672.977 279.594 L 666.539 284.546 L 666.387 287.425 L 672.867 281.679 L 672.977 279.594 Z " fill="rgb(8,41,96)"/>

<path d=" M 673.933 288.046 L 665.536 291.876 L 665.157 294.722 L 673.659 290.109 L 673.933 288.046 Z " fill="rgb(8,41,96)"/>

<path d=" M 673.664 295.385 L 664.419 298.182 L 663.811 300.968 L 673.225 297.403 L 673.664 295.385 Z " fill="rgb(8,41,96)"/>

<path d=" M 621.367 251.973 L 624.409 259.268 L 626.672 259.99 L 623.006 252.496 L 621.367 251.973 Z " fill="rgb(8,41,96)"/>

<path d=" M 624.765 249.846 L 627.807 257.14 L 630.07 257.862 L 626.405 250.369 L 624.765 249.846 Z " fill="rgb(8,41,96)"/>

<path d=" M 629.403 248.488 L 632.445 255.782 L 634.708 256.504 L 631.042 249.011 L 629.403 248.488 Z " fill="rgb(8,41,96)"/>

<path d=" M 633.909 247.383 L 636.951 254.678 L 639.214 255.4 L 635.549 247.907 L 633.909 247.383 Z " fill="rgb(8,41,96)"/>

<path d=" M 700.431 233.256 C 687.701 235.661 682.745 243.056 685.532 255.412 L 681.048 254.019 C 680.056 241.615 686.527 232.745 700.431 227.38 L 700.431 233.256 Z " fill="rgb(8,41,96)"/>

<path d=" M 681.736 266.243 Q 681.921 251.364 676.044 247.231 L 674.968 252.392 Q 679.173 254.652 681.736 266.243 Z " fill="rgb(8,41,96)"/>

<path d=" M 710.509 235.738 C 727.338 254.176 732.999 296.653 713.982 306.186 L 622.568 306.386 C 612.777 306.729 607.386 284.885 609.764 274.886 C 617.114 243.981 671.641 192.918 663.22 178.321 L 668.681 176.536 C 676.761 189.621 623.78 243.147 615.779 273.86 C 614.653 278.184 614.205 292.641 621.992 298.49 C 629.761 304.325 647.308 304.07 669.498 303.891 C 689.672 303.946 706.422 302.973 712.022 301.475 C 724.781 298.062 723.818 258.865 710.509 235.738 Z " fill="rgb(8,41,96)"/>

<path d=" M 621.769 252.483 L 619.082 258.703 L 615.754 260.75 C 613.918 257.726 617.581 252.009 621.769 252.483 Z " fill="rgb(8,41,96)"/>

<path d=" M 672.846 261.591 C 678.292 214.319 710.412 154.129 703.647 149.957 C 682.003 136.61 637.905 132.31 613.927 149.715 C 610.596 152.133 624.691 158.111 625.563 167.498 C 625.843 170.513 620.448 175.814 622.568 177.633 C 631.567 185.355 654.917 184.136 690.604 165.383 C 648.609 192.535 626.952 187.597 616.674 179.313 C 614.252 177.361 620.414 171.673 620.094 168.439 C 619.098 158.368 603.346 149.715 607.46 147.297 C 635.711 130.697 682.157 132.114 706.878 146.434 C 714.604 150.91 680.696 228.238 672.846 261.591 Z " fill="rgb(8,41,96)"/>

<path d=" M 663.263 164.857 L 658.172 156.184 L 661.763 153.188 L 661.725 153.205 C 661.738 153.198 661.75 153.191 661.763 153.183 C 642.084 159.788 623.16 156.098 624.121 155.997 C 625.272 156.847 626.467 157.582 627.714 158.184 Q 632.94 163.205 633.396 170.562 L 629.339 172.591 C 636.597 178.043 647.913 173.421 663.263 164.857 Z " fill="rgb(8,41,96)"/>

</g>

<g clip-path="url(#_clipPath_8S00226g5QzuiNuKZl0ubycT5s9Tl96N)">

<text transform="matrix(1,0,0,1,500.863,25.801)" style="font-family:'Comic Neue';font-weight:400;font-size:12px;font-style:normal;fill:#082960;stroke:none;">Also, it sort of features 

</text>

<text transform="matrix(1,0,0,1,619.471,25.801)" style="font-family:'Comic Neue';font-weight:400;font-size:12px;font-style:italic;fill:#082960;stroke:none;">YOU 

</text>

<text transform="matrix(1,0,0,1,646.567,25.801)" style="font-family:'Comic Neue';font-weight:400;font-size:12px;font-style:normal;fill:#082960;stroke:none;">a little 

</text>

<text transform="matrix(1,0,0,1,500.863,36.841)" style="font-family:'Comic Neue';font-weight:400;font-size:12px;font-style:normal;fill:#082960;stroke:none;">too prominently.

</text>

</g>

<defs>

<clipPath id="_clipPath_8S00226g5QzuiNuKZl0ubycT5s9Tl96N">

<rect x="0" y="0" width="181.772" height="24.84" transform="matrix(1,0,0,1,500.395,15.001)"/>

</clipPath>

</defs>

<path d=" M 660.517 99.037 L 660.517 67.201 L 663.283 74.78 L 660.517 99.037 Z " fill="rgb(8,41,96)"/>

<path d=" M 523.621 111.015 L 516.955 99.037 L 520.152 101.057 L 523.621 111.015 Z " fill="rgb(8,41,96)"/>

<g clip-path="url(#_clipPath_59uN1yIQm2wHePPILjmQXWeVjr8XfYZe)">

<text transform="matrix(1,0,0,1,489.336,69.431)" style="font-family:'Comic Neue';font-weight:400;font-size:12px;font-style:normal;fill:#082960;stroke:none;">Well, what do you suggest 

</text>

<text transform="matrix(1,0,0,1,489.336,80.471)" style="font-family:'Comic Neue';font-weight:400;font-size:12px;font-style:normal;fill:#082960;stroke:none;">to improve it?

</text>

</g>

<defs>

<clipPath id="_clipPath_59uN1yIQm2wHePPILjmQXWeVjr8XfYZe">

<rect x="0" y="0" width="144.07" height="24.84" transform="matrix(1,0,0,1,488.868,58.631)"/>

</clipPath>

</defs>

</g>

</g>

<rect x="477.2" y="4.061" width="216" height="279.878" transform="matrix(1,0,0,1,0,0)" fill="transparent"  stroke-width="3" stroke="rgb(8,41,96)" stroke-linejoin="miter" stroke-linecap="square" stroke-miterlimit="2"/>

<rect x="7.4" y="4.061" width="216" height="279.878" transform="matrix(1,0,0,1,0,0)" fill="none"  stroke-width="3" stroke="rgb(8,41,96)" stroke-linejoin="miter" stroke-linecap="square" stroke-miterlimit="2"/>

<clipPath id="_clipPath_IITbLfbSTnk1tpE36F8BB0vyEK4TvAhL">

<rect x="7.4" y="4.061" width="216" height="279.878" transform="matrix(1,0,0,1,0,0)" fill="none"  stroke-width="3" stroke="rgb(8,41,96)" stroke-linejoin="miter" stroke-linecap="square" stroke-miterlimit="2"/>

</clipPath>

<g clip-path="url(#_clipPath_IITbLfbSTnk1tpE36F8BB0vyEK4TvAhL)">

<g>

<path d=" M 247.336 209.406 C 229.001 180.451 213.57 156.675 199.275 132.232 C 219.409 97.188 239.95 67.428 266.911 31.013 L 197.634 31.013 C 190.529 49.236 182.398 66.637 173.242 83.95 C 169.606 76.565 165.971 68.868 162.304 60.745 L 106.52 60.745 C 119.935 84.546 132.8 108.491 145.112 132.58 C 125.716 163.836 103.188 196.926 77.561 235.835 L 147.156 235.835 C 155.622 217.212 163.499 200.545 171.068 185.285 C 174.871 193.31 178.613 201.35 182.296 209.406 L 247.336 209.406 Z " fill="rgb(136,0,0)"  stroke-width="7" stroke="rgb(8,41,96)" stroke-linejoin="miter" stroke-linecap="square" stroke-miterlimit="3"/>

<path d=" M 69.099 87.542 L 100.701 47.74 C 46.072 3.511 -30.313 34.424 -27.641 77.263 C -25.891 105.332 -4.029 114.286 27.268 117.22 C 53.48 119.678 46.791 161.232 1.042 126.817 L -37.202 169.763 C -17.289 225.589 89.532 235.939 113.766 181.268 C 124.237 157.649 107.872 112.117 45.66 103.692 C 20.512 100.286 42.125 66.862 69.099 87.542 Z " fill="rgb(136,0,0)"  stroke-width="7" stroke="rgb(8,41,96)" stroke-linejoin="miter" stroke-linecap="square" stroke-miterlimit="3"/>

<g>

<ellipse  cx="114.3139671283432" cy="143.6227846099382" rx="54.114968894730055" ry="53.12817307518902" fill="rgb(235,235,235)"/>

<path d=" M 75.626 191.529 C 60.155 180.761 50.169 163.049 50.448 143.172 L 50.448 143.172 C 50.669 127.396 57.316 113.159 67.932 102.785 L 67.932 102.785 L 68.498 99.217 L 75.19 96.734 C 85.332 89.549 97.862 85.38 111.366 85.564 C 130.751 85.827 147.88 95.004 158.678 109.023 L 158.678 109.023 L 163.194 110.719 L 163.465 116.298 C 168.174 124.775 170.79 134.5 170.646 144.808 C 170.417 161.097 163.339 175.744 152.114 186.194 L 149.654 190.962 L 146.301 190.962 C 136.09 198.32 123.408 202.602 109.728 202.416 C 99.749 202.28 90.369 199.783 82.142 195.479 L 76.22 194.695 L 75.626 191.529 Z  M 64.323 151.788 C 59.141 124.83 77.444 98.862 105.171 93.833 C 132.898 88.805 159.616 106.608 164.799 133.565 C 169.981 160.523 151.678 186.491 123.951 191.52 C 96.225 196.549 69.506 178.745 64.323 151.788 L 64.323 151.788 L 64.323 151.788 L 64.323 151.788 Z " fill-rule="evenodd" fill="rgb(8,41,96)"/>

<path d=" M 75.397 117.045 C 60.751 137.893 64.7 166.446 85.077 182.383 C 106.483 199.126 137.965 195.646 155.334 174.617 C 159.048 170.121 161.819 165.184 163.661 160.035 C 151.483 175.534 128.098 181.642 106.415 173.594 C 81.174 164.224 67.542 139.125 75.397 117.045 Z " fill="rgb(8,41,96)" fill-opacity="0.17"/>

<path d=" M 160.175 115.772 L 155.573 113.154 C 152.03 124.058 143.024 131.807 135.625 131.472 C 114.734 130.525 110.913 98.015 87.875 100.338 L 81.973 101.032 L 80.62 105.431 C 109.42 102.689 105.522 134.398 134.368 136.845 Q 147.019 137.918 160.605 121.251 L 160.175 115.772 Z " fill="rgb(136,0,0)"/>

<path d=" M 151.664 178.157 C 160.458 152.76 111.663 147.33 81.033 180.345 L 82.755 184.625 L 88.188 184.907 C 108.495 154.33 155.792 155.427 144.517 182.948 L 148.558 183.134 L 151.664 178.157 Z " fill="rgb(136,0,0)"/>

<ellipse  cx="87.13100084757903" cy="203.48935031984507" rx="61.10053505180032" ry="5.369928510965025" fill="rgb(8,41,96)"/>

</g>

</g>

</g>

<rect x="7.4" y="4.061" width="216" height="279.878" transform="matrix(1,0,0,1,0,0)" fill="transparent"  stroke-width="3" stroke="rgb(8,41,96)" stroke-linejoin="miter" stroke-linecap="square" stroke-miterlimit="2"/>

<line x1="7.4" y1="-30.415" x2="927.6" y2="-30.415"  stroke-width="1.2" stroke="rgb(8,41,96)" stroke-linejoin="miter" stroke-linecap="square" stroke-miterlimit="3"/>

<rect x="242.8" y="4.061" width="216" height="279.878" transform="matrix(1,0,0,1,0,0)" fill="none"  stroke-width="3" stroke="rgb(8,41,96)" stroke-linejoin="miter" stroke-linecap="square" stroke-miterlimit="2"/>

<clipPath id="_clipPath_Vs0zf3Qfk0STtBY64QzNm6kprszcldkq">

<rect x="242.8" y="4.061" width="216" height="279.878" transform="matrix(1,0,0,1,0,0)" fill="none"  stroke-width="3" stroke="rgb(8,41,96)" stroke-linejoin="miter" stroke-linecap="square" stroke-miterlimit="2"/>

</clipPath>

<g clip-path="url(#_clipPath_Vs0zf3Qfk0STtBY64QzNm6kprszcldkq)">

<g>

<g>

<line x1="256.848" y1="145.735" x2="235.761" y2="242.41"  stroke-width="2" stroke="rgb(8,41,96)" stroke-linejoin="miter" stroke-linecap="square" stroke-miterlimit="3"/>

<line x1="261.192" y1="145.735" x2="248.375" y2="249.905"  stroke-width="2" stroke="rgb(8,41,96)" stroke-linejoin="miter" stroke-linecap="square" stroke-miterlimit="3"/>

<line x1="265.536" y1="145.735" x2="274.793" y2="196.693"  stroke-width="2" stroke="rgb(8,41,96)" stroke-linejoin="miter" stroke-linecap="square" stroke-miterlimit="3"/>

<path d=" M 213.231 36.631 L 210.651 40.643 L 224.843 178.392 L 312.445 186.862 L 315.691 183.445 L 282.361 49.206 L 213.231 36.631 Z " fill="rgb(255,255,255)"/>

<path d=" M 228.283 173.488 L 316.678 183.613 L 313.881 186.862 L 224.843 177.954 L 210.651 40.643 L 213.231 36.631 L 228.283 173.488 Z " fill="rgb(255,255,255)"/>

<path d=" M 213.231 36.631 L 210.651 40.643 L 224.843 178.392 L 312.445 186.862 L 315.691 183.445 L 282.361 49.206 L 213.231 36.631 Z " fill="none"  stroke-width="1" stroke="rgb(8,41,96)" stroke-linejoin="miter" stroke-linecap="square" stroke-miterlimit="3"/>

<g>

<line x1="240.728" y1="145.309" x2="275.959" y2="150.692"  stroke-width="0.902" stroke="rgb(8,41,96)" stroke-linejoin="miter" stroke-linecap="square" stroke-miterlimit="3"/>

<path d=" M 222.061 119.654 L 228.403 173.364 L 293.282 181.211" fill="none"  stroke-width="0.3" stroke="rgb(8,41,96)" stroke-linejoin="miter" stroke-linecap="square" stroke-miterlimit="3"/>

<line x1="242.652" y1="150.683" x2="279.348" y2="156.262"  stroke-width="0.902" stroke="rgb(8,41,96)" stroke-linejoin="miter" stroke-linecap="square" stroke-miterlimit="3"/>

<line x1="247.918" y1="158.333" x2="279.908" y2="162.948"  stroke-width="0.902" stroke="rgb(8,41,96)" stroke-linejoin="miter" stroke-linecap="square" stroke-miterlimit="3"/>

<path d=" M 247.522 156.931 L 249.756 165.041 L 242.163 164.333 L 240.566 155.754 L 247.522 156.931 Z " fill="rgb(255,255,255)"  stroke-width="0.902" stroke="rgb(8,41,96)" stroke-linejoin="miter" stroke-linecap="square" stroke-miterlimit="3"/>

<g style="opacity:0.65;">

<path d=" M 282.348 130.201 C 278.54 120.639 275.355 112.784 272.323 104.726 C 274.262 93.644 276.44 84.272 279.388 72.826 L 268.672 72.024 C 268.185 77.826 267.511 83.351 266.676 88.835 C 265.866 86.408 265.045 83.881 264.205 81.216 L 255.577 80.57 C 258.451 88.41 261.244 96.291 263.957 104.211 C 262.006 114.079 259.632 124.503 256.974 136.769 L 267.739 137.575 C 268.423 131.66 269.082 126.369 269.741 121.53 C 270.599 124.165 271.447 126.804 272.287 129.448 L 282.348 130.201 Z " fill="rgb(205,162,162)"  stroke-width="1.095" stroke="rgb(8,41,96)" stroke-linejoin="miter" stroke-linecap="square" stroke-miterlimit="300"/>

<path d=" M 250.843 88.801 L 254.395 76.315 C 244.461 61.402 233.683 70.499 235.534 84.362 C 236.747 93.445 241.357 96.659 246.297 97.969 C 250.433 99.066 249.866 112.336 241.634 100.694 L 237.16 114.119 C 242.114 132.374 258.984 136.953 260.898 119.581 C 261.724 112.076 257.665 97.185 247.759 93.744 C 243.755 92.353 245.976 81.811 250.843 88.801 Z " fill="rgb(205,162,162)"  stroke-width="1.095" stroke="rgb(8,41,96)" stroke-linejoin="miter" stroke-linecap="square" stroke-miterlimit="3"/>

<g>

<path d=" M 251.194 106.794 C 250.21 97.326 253.161 89.92 257.781 90.266 C 262.401 90.612 266.95 98.579 267.935 108.047 C 268.919 117.515 265.967 124.921 261.347 124.575 C 256.728 124.229 252.178 116.262 251.194 106.794 Z " fill="rgb(235,235,235)"/>

<path d=" M 255.188 122.441 C 252.433 118.785 250.294 112.95 249.67 106.536 L 249.67 106.536 C 249.175 101.444 249.725 96.924 251.019 93.697 L 251.019 93.697 L 250.987 92.552 L 251.939 91.828 C 253.266 89.625 255.065 88.424 257.16 88.64 C 260.167 88.949 263.124 92.111 265.265 96.762 L 265.265 96.762 L 266.02 97.362 L 266.25 99.166 C 267.263 101.958 267.994 105.128 268.317 108.455 C 268.829 113.712 268.225 118.36 266.84 121.604 L 266.619 123.115 L 266.101 123.076 C 264.768 125.334 262.95 126.569 260.828 126.351 C 259.28 126.192 257.745 125.277 256.328 123.792 L 255.386 123.47 L 255.188 122.441 Z  M 252.106 109.478 C 250.399 100.714 252.359 92.541 256.479 91.238 C 260.599 89.935 265.329 95.993 267.035 104.757 C 268.742 113.522 266.782 121.695 262.662 122.997 C 258.542 124.3 253.812 118.242 252.106 109.478 L 252.106 109.478 L 252.106 109.478 L 252.106 109.478 Z " fill-rule="evenodd" fill="rgb(8,41,96)"/>

<path d=" M 265.723 98.959 L 264.923 98.06 C 264.741 101.54 263.608 103.938 262.453 103.744 C 259.189 103.196 257.507 92.655 254.022 93.138 L 253.132 93.294 L 253.071 94.699 C 257.433 94.147 257.895 104.34 262.439 105.464 Q 264.431 105.957 265.973 100.733 L 265.723 98.959 Z " fill="rgb(205,162,162)"/>

<path d=" M 266.5 119.003 C 267.008 110.905 259.279 108.587 255.649 118.892 L 256.059 120.294 L 256.909 120.448 C 259.023 110.81 266.376 111.712 265.556 120.468 L 266.187 120.574 L 266.5 119.003 Z " fill="rgb(205,162,162)"/>

<path d=" M 247.918 125.729 C 247.818 124.772 251.972 124.312 257.189 124.702 C 262.405 125.092 266.72 126.186 266.82 127.143 C 266.919 128.1 262.765 128.56 257.549 128.17 C 252.333 127.779 248.017 126.686 247.918 125.729 Z " fill="rgb(8,41,96)"/>

</g>

</g>

</g>

</g>

<g>

<path d=" M 366.707 256.445 C 380.916 259.609 401.211 260.2 427.555 258.179 Q 433.387 258.506 436.36 258.685 L 446.45 261.065 C 406.691 262.66 368.861 261.507 332.897 257.529 Q 343.1 256.857 366.707 256.445 Z " fill="rgb(8,41,96)"/>

<path d=" M 392.791 177.039 C 406.578 175.166 416.912 176.443 417.448 180.885 L 409.991 212.233 L 406.108 224.529 L 413.654 228.21 Q 412.958 223.956 413.654 204.121 C 430.96 200.219 443.526 203.956 446.918 217.025 L 439.214 225.575 C 443.888 241.274 443.204 251.601 437.136 256.53 L 400.269 259.623 C 405.429 231.425 392.449 220.797 364.004 228.098 C 379.822 208.183 387.835 184.601 392.791 177.039 Z " fill="rgb(205,162,162)"/>

<path d=" M 366.623 225.925 C 391.467 217.623 409.034 233.152 403.216 258.052 L 397.432 258.623 C 408.018 232.807 389.073 218.207 363.228 230.883 L 366.623 225.925 Z " fill="rgb(8,41,96)"/>

<path d=" M 391.739 176 C 399.211 174.358 417.219 172.961 418.121 178.254 L 416.67 184.225 C 417.695 177.882 405.431 175.84 391.108 178.254 L 391.739 176 Z " fill="rgb(8,41,96)"/>

<path d=" M 414.79 203.869 C 428.493 199.14 450.28 205.882 446.918 217.025 L 443.293 221.376 C 449.556 206.391 429.595 200.376 413.16 206.278 L 414.79 203.869 Z " fill="rgb(8,41,96)"/>

<path d=" M 407.667 171.808 Q 399.888 169.159 392.531 170.889 L 392.342 173.079 Q 396.361 170.882 407.667 171.808 Z " fill="rgb(8,41,96)"/>

<g opacity="0.61">

<path d=" M 417.448 164.889 C 411.291 182.072 406.242 204.089 399.71 226.11 C 407.384 202.76 415.319 175.049 417.448 164.889 Z " fill="rgb(8,41,96)"/>

</g>

<path d=" M 409.991 228.697 C 413.846 228.945 419.445 230.508 422.833 234.742 C 420.499 229.074 413.618 225.114 408.036 225.933 L 409.413 228.893 L 409.991 228.697 Z " fill="rgb(8,41,96)"/>

<path d=" M 379.127 222.419 L 381.413 227.013 L 383.113 227.467 L 380.359 222.748 L 379.127 222.419 Z " fill="rgb(8,41,96)"/>

<path d=" M 383.853 222.588 L 385.584 227.434 L 387.219 228.098 L 385.037 223.069 L 383.853 222.588 Z " fill="rgb(8,41,96)"/>

<path d=" M 387.735 223.625 L 389.466 228.471 L 391.1 229.135 L 388.919 224.106 L 387.735 223.625 Z " fill="rgb(8,41,96)"/>

<path d=" M 392.276 225.34 L 392.791 230.478 L 394.215 231.541 L 393.308 226.11 L 392.276 225.34 Z " fill="rgb(8,41,96)"/>

<path d=" M 396.556 228.228 L 395.697 233.318 L 396.788 234.742 L 397.346 229.26 L 396.556 228.228 Z " fill="rgb(8,41,96)"/>

<path d=" M 399.71 231.867 L 397.819 236.649 L 398.59 238.281 L 400.269 233.05 L 399.71 231.867 Z " fill="rgb(8,41,96)"/>

<path d=" M 402.658 236.739 L 399.321 240.758 L 399.591 242.552 L 402.854 238.04 L 402.658 236.739 Z " fill="rgb(8,41,96)"/>

<path d=" M 404.491 242.75 L 399.654 245.869 L 399.54 247.682 L 404.408 244.064 L 404.491 242.75 Z " fill="rgb(8,41,96)"/>

<path d=" M 405.209 248.073 L 398.901 250.485 L 398.616 252.278 L 405.002 249.372 L 405.209 248.073 Z " fill="rgb(8,41,96)"/>

<path d=" M 405.007 252.695 L 398.061 254.457 L 397.605 256.211 L 404.676 253.966 L 405.007 252.695 Z " fill="rgb(8,41,96)"/>

<path d=" M 365.72 225.356 L 368.005 229.95 L 369.705 230.404 L 366.952 225.685 L 365.72 225.356 Z " fill="rgb(8,41,96)"/>

<path d=" M 368.273 224.016 L 370.558 228.61 L 372.258 229.065 L 369.505 224.346 L 368.273 224.016 Z " fill="rgb(8,41,96)"/>

<path d=" M 371.757 223.161 L 374.042 227.755 L 375.742 228.21 L 372.989 223.491 L 371.757 223.161 Z " fill="rgb(8,41,96)"/>

<path d=" M 375.142 222.466 L 377.427 227.059 L 379.127 227.514 L 376.374 222.795 L 375.142 222.466 Z " fill="rgb(8,41,96)"/>

<path d=" M 415.464 201.911 C 426.995 192.691 442.411 187.706 450.035 192.084 C 454.943 195.959 457.128 208.64 439.31 226.228 L 439.31 226.228 L 437.76 223.126 C 448.911 214.018 453.337 200.984 449.093 194.688 C 443.942 188.563 420.128 200.021 416.953 204.42 C 414.502 207.815 412.593 216.091 415.239 228.471 L 411.715 227.212 C 410.217 220.187 410.623 205.782 415.464 201.911 Z " fill="rgb(8,41,96)"/>

<path d=" M 411.715 234.343 Q 411.209 224.973 406.794 222.37 L 405.986 225.62 Q 409.145 227.043 411.715 234.343 Z " fill="rgb(8,41,96)"/>

<path d=" M 419.358 205.732 L 416.759 202.339 L 416.759 202.339 C 417.082 202.299 417.403 202.261 417.721 202.226 L 417.721 202.226 L 420.518 205.457 C 420.13 205.539 419.743 205.631 419.358 205.732 Z  M 423.661 204.992 L 421.118 201.928 L 421.118 201.928 L 421.118 201.928 C 420.784 201.949 420.447 201.973 420.107 202 L 422.406 205.13 C 422.824 205.074 423.243 205.028 423.661 204.992 Z  M 427.389 204.935 L 425.114 201.8 L 425.114 201.8 L 425.114 201.8 C 424.782 201.799 424.447 201.802 424.109 201.807 L 426.082 204.896 C 426.52 204.898 426.955 204.911 427.389 204.935 Z  M 431.642 205.528 L 429.479 201.987 L 429.479 201.987 L 429.479 201.987 C 429.139 201.957 428.794 201.93 428.444 201.908 L 430.224 205.249 C 430.703 205.329 431.176 205.422 431.642 205.528 Z  M 435.497 206.77 L 433.938 202.629 L 433.938 202.629 L 433.938 202.629 C 433.635 202.567 433.328 202.508 433.015 202.452 L 434.201 206.265 C 434.642 206.421 435.075 206.589 435.497 206.77 Z  M 438.605 208.462 L 438.003 203.768 L 438.003 203.768 L 438.003 203.768 C 437.732 203.669 437.455 203.573 437.173 203.481 L 437.471 207.752 C 437.862 207.976 438.241 208.213 438.605 208.462 Z  M 440.882 210.373 L 441.366 205.327 L 441.366 205.327 L 441.366 205.327 C 441.134 205.192 440.895 205.06 440.651 204.932 L 439.986 209.523 C 440.3 209.796 440.6 210.079 440.882 210.373 Z  M 442.443 212.373 L 444.096 207.325 L 444.096 207.325 L 444.096 207.325 C 443.901 207.144 443.698 206.967 443.487 206.793 L 441.748 211.371 C 441.998 211.695 442.23 212.028 442.443 212.373 Z  M 443.567 214.862 L 446.45 210.544 L 446.333 210.102 L 446.333 210.102 L 446.333 210.102 C 446.245 209.949 446.153 209.797 446.057 209.646 L 443.082 213.569 C 443.272 213.987 443.434 214.418 443.567 214.862 Z  M 444.001 217.681 L 447.561 213.537 L 447.561 213.537 L 447.561 213.537 C 447.5 213.167 447.418 212.803 447.318 212.445 L 443.876 216.195 L 443.877 216.226 C 443.95 216.699 443.992 217.184 444.001 217.681 Z  M 416.891 206.524 L 416.67 206.519 L 415.128 204.376 L 415.128 204.376 L 415.128 204.376 L 415.128 204.376 L 416.18 204.398 L 417.802 206.197 C 417.497 206.299 417.193 206.408 416.891 206.524 Z  M 414.418 207.643 L 414.013 207.635 L 413.08 206.365 L 413.08 206.365 L 413.08 206.365 L 413.08 206.365 L 413.465 205.258 L 415.142 207.278 C 414.898 207.395 414.657 207.517 414.418 207.643 Z " fill-rule="evenodd" fill="rgb(8,41,96)"/>

<path d=" M 432.684 215.132 C 445.326 226.743 449.579 253.493 435.293 259.497 L 366.623 259.623 C 359.268 259.839 355.218 246.083 357.004 239.786 C 362.526 220.323 396.363 180.304 390.037 171.112 L 394.14 169.988 C 400.21 178.228 367.533 219.797 361.523 239.14 C 360.677 241.862 360.34 250.967 366.19 254.65 C 372.026 258.325 385.207 258.164 401.877 258.052 C 417.032 258.086 429.615 257.474 433.821 256.53 C 443.406 254.381 442.682 229.696 432.684 215.132 Z " fill="rgb(8,41,96)"/>

<path d=" M 366.023 225.677 L 364.004 229.594 L 361.504 230.883 C 360.125 228.979 362.877 225.378 366.023 225.677 Z " fill="rgb(8,41,96)"/>

<path d=" M 404.392 231.413 C 408.483 201.643 425.489 155.877 420.407 153.249 C 404.148 144.844 371.021 142.136 353.008 153.097 C 350.506 154.62 361.094 158.385 361.749 164.296 C 361.96 166.195 357.907 169.533 359.5 170.679 C 366.26 175.541 383.801 174.774 410.609 162.964 C 379.061 180.063 362.793 176.953 355.072 171.736 C 353.253 170.507 357.882 166.926 357.641 164.889 C 356.893 158.546 345.06 153.097 348.151 151.574 C 369.372 141.12 404.263 142.013 422.833 151.031 C 428.638 153.85 410.289 210.408 404.392 231.413 Z " fill="rgb(8,41,96)"/>

<path d=" M 390.037 164.031 L 385.917 157.19 L 388.823 154.827 L 388.793 154.84 C 388.803 154.835 388.813 154.829 388.823 154.823 C 375.312 157.568 359.984 154.641 358.359 157.043 C 359.29 157.713 360.258 158.292 361.267 158.768 Q 365.497 162.728 365.866 166.1 L 362.582 167.701 C 370.532 168.67 379.029 167.697 388.003 164.709 L 388.003 164.709 L 388.003 164.709 L 390.037 164.031 Z " fill="rgb(8,41,96)"/>

</g>

<g>

<ellipse  cx="306.2419275550401" cy="215.30847064257802" rx="37.34140335064575" ry="38.707572627642236" fill="rgb(255,255,255)"/>

<ellipse  cx="288.4638669255574" cy="259.69313944229475" rx="37.58186606252292" ry="2.0641074205907444" fill="rgb(8,41,96)"/>

<path d=" M 342.645 233.501 C 339.008 242.721 332.22 250.654 322.912 255.387 C 309.74 262.087 294.762 260.73 283.211 253.164 L 283.211 253.164 L 280.138 253.312 L 278 249.109 C 274.164 245.587 270.914 241.251 268.519 236.193 L 268.519 236.193 C 263.245 225.06 263.17 212.671 267.316 201.983 L 267.46 196.519 L 271.508 193.863 L 271.508 193.863 C 275.338 188.066 280.621 183.181 287.139 179.866 C 302.025 172.296 319.216 175.013 331.162 185.352 L 331.162 185.352 L 336.868 187.544 L 337.265 191.935 C 338.884 194.117 340.318 196.496 341.533 199.06 C 345.986 208.461 346.732 218.757 344.361 228.168 L 344.85 230.88 L 342.645 233.501 Z  M 279.598 237.315 C 267.992 221.66 270.862 199.178 286.004 187.142 C 301.146 175.107 322.863 178.046 334.469 193.702 C 346.076 209.358 343.206 231.84 328.063 243.875 C 312.921 255.911 291.205 252.971 279.598 237.315 L 279.598 237.315 L 279.598 237.315 L 279.598 237.315 L 279.598 237.315 Z " fill-rule="evenodd" fill="rgb(8,41,96)"/>

<g opacity="0.51">

<path d=" M 282.979 196.121 C 271.84 210.174 272.766 230.893 285.53 243.574 C 298.939 256.895 320.368 256.332 333.353 242.317 C 336.129 239.32 338.296 235.95 339.851 232.37 C 330.701 242.738 314.57 245.683 300.445 238.58 C 284.004 230.311 276.342 211.474 282.979 196.121 Z " fill="rgb(8,41,96)" fill-opacity="0.17"/>

</g>

<path d=" M 334.138 190.042 L 334.469 193.702 C 331.888 190.16 320.2 186.639 312.475 192.146 C 305.201 197.331 295.567 214.599 281.231 219.19 C 276.628 220.664 272.838 218.677 272.635 211.681 L 272.104 205.805 L 275.151 201.062 C 273.099 210.888 275.596 213.357 276.972 213.557 C 287.822 215.139 303.716 192.004 309.599 188.325 C 316.53 183.989 326.353 183.335 334.138 190.042 Z " fill="rgb(205,162,162)"/>

<path d=" M 335.741 235.436 C 327.348 238.787 298.113 226.547 286.47 232.95 C 282.513 235.126 281.266 237.891 282.7 241.223 L 280.349 239.76 L 278.959 236.65 C 278.601 230.367 283.531 226.603 290.214 225.857 C 305.92 224.104 327.05 234.515 334.031 231.001 C 338.85 228.575 340.367 225.602 341.271 220.093 L 341.685 228.874 Q 337.633 234.68 335.741 235.436 Z " fill="rgb(205,162,162)"/>

</g>

<g clip-path="url(#_clipPath_D9y4Du9xqDAKY3ZPHseMgZ3dUzOXGNpL)">

<text transform="matrix(1,0,0,1,293.61,24.211)" style="font-family:'Comic Neue';font-weight:400;font-size:12px;font-style:normal;fill:#082960;stroke:none;">Nice proposal - one question:

</text>

<text transform="matrix(1,0,0,1,293.61,35.251)" style="font-family:'Comic Neue';font-weight:400;font-size:12px;font-style:normal;fill:#082960;stroke:none;">does that not look...  just... 

</text>

<text transform="matrix(1,0,0,1,293.61,50.431)" style="font-family:'Comic Neue';font-weight:400;font-size:12px;font-style:italic;fill:#082960;stroke:none;">exactly like 

</text>

<text transform="matrix(1,0,0,1,354.15,50.431)" style="font-family:'Comic Neue';font-weight:400;font-size:12px;font-style:normal;fill:#082960;stroke:none;">it says "

</text>

<text transform="matrix(1,0,0,1,393.126,50.431)" style="font-family:'Comic Neue';font-weight:700;font-size:12px;font-style:italic;fill:#082960;stroke:none;">SEX"

</text>

<text transform="matrix(1,0,0,1,418.326,50.431)" style="font-family:'Comic Neue';font-weight:400;font-size:12px;font-style:normal;fill:#082960;stroke:none;"> ?

</text>

</g>

<defs>

<clipPath id="_clipPath_D9y4Du9xqDAKY3ZPHseMgZ3dUzOXGNpL">

<rect x="0" y="0" width="158.19" height="40.02" transform="matrix(1,0,0,1,293.61,13.411)"/>

</clipPath>

</defs>

<path d=" M 418.013 100.551 L 418.013 68.715 L 420.778 76.294 L 418.013 100.551 Z " fill="rgb(8,41,96)"/>

<path d=" M 323.311 128.5 L 331.217 109.181 L 327.425 112.44 L 323.311 128.5 Z " fill="rgb(8,41,96)"/>

<g clip-path="url(#_clipPath_NyQZ5NnVdaExlMWXi2tbwllT6UgT8Gbk)">

<text transform="matrix(1,0,0,1,318.785,86.511)" style="font-family:'Comic Neue';font-weight:400;font-size:12px;font-style:normal;fill:#082960;stroke:none;">Hmm,

</text>

<text transform="matrix(1,0,0,1,300.617,97.551)" style="font-family:'Comic Neue';font-weight:400;font-size:12px;font-style:normal;fill:#082960;stroke:none;">I don't see it.

</text>

</g>

<defs>

<clipPath id="_clipPath_NyQZ5NnVdaExlMWXi2tbwllT6UgT8Gbk">

<rect x="0" y="0" width="77.602" height="24.84" transform="matrix(1,0,0,1,296.23,75.711)"/>

</clipPath>

</defs>

</g>

</g>

<rect x="242.8" y="4.061" width="216" height="279.878" transform="matrix(1,0,0,1,0,0)" fill="transparent"  stroke-width="3" stroke="rgb(8,41,96)" stroke-linejoin="miter" stroke-linecap="square" stroke-miterlimit="2"/>

<rect x="711.6" y="4.061" width="216" height="279.878" transform="matrix(1,0,0,1,0,0)" fill="none"  stroke-width="3" stroke="rgb(8,41,96)" stroke-linejoin="miter" stroke-linecap="square" stroke-miterlimit="2"/>

<clipPath id="_clipPath_TFjczkP67aCpdnLU1VLGpzW8sWLkRNOL">

<rect x="711.6" y="4.061" width="216" height="279.878" transform="matrix(1,0,0,1,0,0)" fill="none"  stroke-width="3" stroke="rgb(8,41,96)" stroke-linejoin="miter" stroke-linecap="square" stroke-miterlimit="2"/>

</clipPath>

<g clip-path="url(#_clipPath_TFjczkP67aCpdnLU1VLGpzW8sWLkRNOL)">

<g>

<path d=" M 832.747 225.897 Q 849.763 218.963 851.349 208.044 C 852.299 190.995 848.532 168.645 825.974 144.364 C 823.992 117.038 849.95 103.361 869.499 116.38 L 901.362 107.565 L 911.71 136.002 L 930.021 109.79 L 950.678 122.428 L 925.597 165.321 L 952.55 223.169 L 920.651 232.997 L 904.812 199.861 L 869.712 253.274 L 832.747 225.897 Z " fill="rgb(136,0,0)"/>

<path d=" M 832.747 225.897 L 869.458 249.224 L 908.122 192.246 L 927.289 229.575 L 950.678 221.376 L 924.533 165.083 L 949.526 123.718 L 929.965 111.344 L 911.71 137.475 L 898.958 108.769 L 871.309 117.756 L 867.093 113.834 L 901.362 103.753 L 909.711 126.003 L 913.985 119.203 L 930.021 106.282 L 954.584 122.716 L 928.291 166.233 L 955.2 222.169 L 941.378 231.238 L 911.71 240.871 L 898.958 214.725 L 871.848 256.451 L 851.349 257.659 L 812.605 228.375 L 832.747 225.897 Z " fill="rgb(8,41,96)"/>

<path d=" M 851.349 214.725 L 896.704 161.81 L 889.087 150.37 L 891.661 157.209 L 852.396 203.211 L 851.349 214.725 Z " fill="rgb(8,41,96)"/>

<path d=" M 830.18 147.283 C 831.357 129.941 839.894 116.035 851.349 114.96 C 868.775 113.326 884.877 135.739 887.286 164.979 C 887.316 165.353 887.345 165.727 887.371 166.1 L 888.41 166.096 L 891.905 157.209 C 886.852 127.72 870.114 106.002 852.497 107.654 C 832.566 109.992 817.831 117.555 814.726 132.261 L 830.18 147.283 Z " fill="rgb(8,41,96)"/>

<path d=" M 848.875 159.755 C 846.466 147.992 849.572 137.405 855.806 136.129 C 862.04 134.852 869.057 143.366 871.466 155.129 C 873.875 166.892 870.769 177.478 864.535 178.755 C 858.301 180.032 851.284 171.518 848.875 159.755 Z " fill="rgb(8,41,96)"/>

<g>

<path d=" M 837.428 157.391 C 809.772 155.219 786.084 192.065 793.116 229.496 C 760.767 227.168 739.733 219.862 730.01 207.574 C 726.136 192.37 727.77 177.986 734.91 164.418 L 738.625 157.124 C 732.727 140.144 747.128 120.242 767.47 116.245 C 776.183 124.903 783.476 139.575 784.983 150.236 C 781.609 154.931 780.65 159.016 777.248 163.977 C 783.015 161.654 784.309 161.763 787.668 161.537 L 785.222 149.8 C 780.279 135.828 775.123 124.646 769.747 116.245 L 765.274 109.768 C 763.145 101.359 771.906 99.719 787.856 101.537 C 794.581 113.779 818.823 131.9 837.428 157.391 Z " fill="rgb(136,0,0)"/>

<path d=" M 741.008 79.201 C 736.177 84.581 730.906 89.144 725.185 92.881 C 723.219 95.39 729.205 100.843 736.544 99.153 L 753.028 82.263 Q 744.564 82.913 741.008 79.201 Z " fill="rgb(8,41,96)"/>

<path d=" M 755.511 77.551 C 762.994 64.55 771.507 60.403 782.358 57.71 C 784.486 59.067 789.134 58.662 794.427 58.482 C 793.854 35.369 778.17 29.219 758.556 42.021 C 754.707 44.733 752.68 46.596 750.093 49.993 C 746.236 58.924 751.652 72.253 755.511 77.551 Z " fill="rgb(136,0,0)"/>

<path d=" M 756.3 79.201 C 750.511 69.585 748.018 60.321 748.813 51.4 C 742.649 62.174 740.175 71.337 741.383 78.879 C 743.064 81.219 746.769 82.408 752.489 82.439 L 756.3 79.201 Z " fill="rgb(235,235,235)"/>

<path d=" M 781.615 58.482 C 773.338 60.358 763.639 68.38 752.489 82.516 C 750.442 86.21 754.663 95.808 765.12 111.283 C 763.371 102.059 770.577 98.82 786.709 101.537 C 785.327 97.428 786.876 93.506 791.326 89.74 C 799.908 97.268 809.071 101.611 818.783 102.738 C 824.884 101.994 831.364 99.171 838.193 94.241 L 849.257 94.241 C 850.662 87.037 849.425 81.484 845.515 77.551 C 858.612 65.705 862.152 58.045 856.104 54.543 C 861.697 43.034 791.212 62.202 781.615 58.482 Z " fill="rgb(235,235,235)"/>

<path d=" M 767.47 115.555 C 762.768 109.906 753.384 105.006 737.485 105.191 C 718.778 125.848 722.308 150.254 734.954 164.418 L 739.347 156.228 C 733.082 138.424 744.003 123.972 767.47 115.555 Z " fill="rgb(235,235,235)"/>

<path d=" M 835.68 157.391 C 804.883 161.874 790.312 185.919 791.937 229.496 Q 837.259 226.971 841.489 221.623 C 855.76 203.579 853.834 182.179 835.68 157.391 Z " fill="rgb(235,235,235)"/>

<path d=" M 728.865 201.195 L 734.91 214.076 C 762.766 229.262 804.837 231.256 843.03 222.192 C 817.514 234.637 786.278 232.163 772.439 229.496 C 685.546 212.749 691.515 198.62 728.865 201.195 Z " fill="rgb(8,41,96)"/>

<path d=" M 848.843 61.604 C 835.089 60.117 819.352 68.047 805.659 66.328 C 809.301 90.847 822.401 89.651 840.665 81.947 L 835.68 79.89 C 835.672 74.071 839.722 66.893 848.843 61.604 Z " fill="rgb(8,41,96)"/>

<path d=" M 810.618 64.16 L 808.413 64.102 C 805.933 65.106 804.358 67.044 803.679 69.907 L 804.591 70.952 C 805.339 67.501 806.964 65.239 810.618 64.16 Z " fill="rgb(8,41,96)"/>

<path d=" M 835.69 94.241 C 851.205 103.145 859.261 90.717 846.849 77.434 C 867.469 61.291 863.569 51.896 854.158 48.884 C 842.738 45.23 796.001 60.08 783.567 57.238 L 779.441 58.482 C 789.279 66.011 843.652 44.316 853.147 56.165 C 858.415 62.739 856.171 64.448 841.577 76.709 C 850.756 87.4 850.189 94.155 838.193 91.997 L 835.69 94.241 Z " fill="rgb(8,41,96)"/>

<path d=" M 771.269 119.306 C 756.027 114.896 732.319 133.06 740.192 154.502 L 737.812 157.848 C 727.527 136.678 754.156 113.507 769.041 115.818 L 771.269 119.306 Z " fill-rule="evenodd" fill="rgb(8,41,96)"/>

<path d=" M 755.093 77.938 C 750.118 79.304 743.884 80.255 742.55 78.47 C 737.511 37.056 797.344 19.328 791.937 57.71 L 794.697 57.766 C 793.869 14.065 736.282 37.341 741.003 79.862 C 743.153 82.273 747.41 83.95 752.026 82.516 L 755.093 77.938 Z " fill="rgb(8,41,96)"/>

<path d=" M 784.06 51.053 C 778.312 48.366 784.328 43.26 791.867 46.17 C 792.722 49.043 792.832 51.178 792.266 52.517 C 789.833 50.85 785.884 51.906 784.06 51.053 Z " fill="rgb(8,41,96)"/>

<path d=" M 755.511 43.325 C 751.991 45.18 751.31 42.167 754.363 39.128 C 758.295 35.216 762.321 35.911 761.265 39.716 L 755.511 43.325 Z " fill="rgb(8,41,96)"/>

<path d=" M 752.489 86.754 C 749.014 91.071 742.269 94.242 737.812 99.129 C 732.839 104.581 718.124 94.743 727.139 89.74 C 732.255 87.022 736.879 82.905 741.008 77.385 L 741.84 79.89 C 737.442 84.916 733.024 88.814 728.582 91.578 C 719.367 94.233 733.514 102.776 737.914 96.987 C 741.381 92.424 748.46 89.726 751.27 85.748 C 756.592 69.859 766.949 56.786 789.102 56.003 C 769.085 60.732 758.78 72.168 752.489 86.754 Z " fill="rgb(8,41,96)"/>

<path d=" M 747.021 83.019 C 749.71 83.305 751.994 82.42 753.903 80.333 C 752.186 86.761 752.305 90.336 754.29 91.028 C 745.072 103.657 743.869 96.732 739.014 96.005 L 747.021 83.019 Z " fill="rgb(8,41,96)"/>

<path d=" M 791.246 91.22 C 779.193 109.792 819.285 121.447 839.776 157.522 L 833.108 155.502 C 811.886 121.508 776.494 111.105 786.415 91.507 L 791.246 91.22 L 791.246 91.22 Z " fill="rgb(8,41,96)"/>

<path d=" M 750.883 83.55 C 747.673 100.2 789.416 126.216 786.022 176.695 L 789.54 167.521 C 786.517 116.233 747.02 98.77 754.409 79.936 L 750.883 83.55 Z " fill-rule="evenodd" fill="rgb(8,41,96)"/>

<path d=" M 792.811 89.111 C 787.993 89.171 783.035 91.278 777.936 95.428 C 785.387 91.889 792.1 91.509 795.448 92.203 L 792.811 89.111 Z " fill="rgb(8,41,96)"/>

<path d=" M 750.683 48.276 C 747.642 56.549 749.796 66.309 757.142 77.551 L 754.866 79.201 C 748.188 67.57 747.305 57.311 748.813 52.254 L 750.683 48.276 Z " fill="rgb(8,41,96)"/>

<path d=" M 787.415 164.418 C 778.785 162.523 769.595 168.039 759.844 179.744 C 758.669 174.778 777.785 157.938 786.709 160.366 L 787.415 164.418 Z " fill="rgb(8,41,96)"/>

<path d=" M 785.853 100.338 C 768.46 98.967 761.551 101.95 765.12 109.283 L 766.804 111.283 C 763.731 102.517 770.426 99.501 786.888 102.232 L 785.853 100.338 Z " fill="rgb(8,41,96)"/>

<path d=" M 749.463 141.967 C 724.701 170.547 719.049 194.739 732.504 214.54 C 753.078 227.138 793.367 238.079 837.64 224.671 C 861.434 217.464 857.9 190.257 841.489 160.366 L 836.208 160.366 C 853.813 188.028 850.645 214.214 832.148 220.568 C 800.145 231.563 759.457 225.615 737.252 211.473 C 724.594 198.072 728.665 174.904 749.463 141.967 Z " fill="rgb(8,41,96)"/>

<path d=" M 767.47 111.525 C 756.442 104.916 744.075 102.337 739.2 103.42 C 717.588 108.223 714.722 153.6 734.954 165.542 L 737.768 160.366 C 722.249 156.916 721.406 116.176 739.169 107.534 C 744.402 104.988 762.394 109.731 773.281 121.71 C 771.412 118.151 769.455 114.715 767.47 111.525 Z  M 786.151 153.248 C 785.381 155.907 784.311 158.678 782.907 161.562 L 775.677 164.184 C 780.762 155.067 782.39 147.033 781.72 140.086 C 783.535 144.701 785.052 149.174 786.151 153.248 Z " fill-rule="evenodd" fill="rgb(8,41,96)"/>

<path d=" M 789.024 227.579 C 782.981 180.739 826.659 141.823 843.511 159.789 C 846.963 163.469 844.733 166.75 842.475 165.904 C 828.631 150.369 788.849 176.876 794.427 227.579 L 789.024 227.579 Z " fill="rgb(8,41,96)"/>

<path d=" M 838.004 95.327 C 807.954 123.603 792.229 79.782 769.194 82.625 C 799.829 76.677 806.163 118.205 838.728 90.854 L 838.004 95.327 Z " fill="rgb(8,41,96)"/>

<path d=" M 734.954 207.574 C 728.312 190.052 743.439 156.864 745.254 155.502 C 732.555 235.498 834.444 220.368 851.103 206.833 C 843.751 216.85 825.726 227.884 791.326 227.579 Q 746.075 225.419 734.954 207.574 Z " fill="rgb(8,41,96)" fill-opacity="0.17"/>

<path d=" M 728.865 116.245 C 730.573 127.19 733.829 134.277 738.625 137.497 C 736.847 144.87 736.849 151.547 738.625 157.522 L 734.954 162.904 C 727.351 150.374 725.324 134.824 728.865 116.245 Z " fill="rgb(8,41,96)" fill-opacity="0.17"/>

</g>

</g>

</g>

<rect x="711.6" y="4.061" width="216" height="279.878" transform="matrix(1,0,0,1,0,0)" fill="transparent"  stroke-width="3" stroke="rgb(8,41,96)" stroke-linejoin="miter" stroke-linecap="square" stroke-miterlimit="2"/>

<g clip-path="url(#_clipPath_ValhOYZamHF0hLLpPOgq1jSZOZGuaww6)">

<text transform="matrix(0,-0.576,0.576,0,706.607,282.494)" style="font-family:'Times New Roman';font-weight:400;font-size:20px;font-style:normal;fill:#082960;stroke:none;">&#xA9;MCMLXXXVIII &#xB7; Trilobyte</text>

</g>

<defs>

<clipPath id="_clipPath_ValhOYZamHF0hLLpPOgq1jSZOZGuaww6">

<rect x="0" y="0" width="266" height="24.6" transform="matrix(0,-0.576,0.576,0,695.433,282.494)"/>

</clipPath>

</defs>

<g>

<path d=" M 27.907 -22.219 C 32.403 -26.113 37.737 -17.38 26.446 -14 C 17.157 -20.74 24.857 -27.206 27.907 -22.219 Z  M 27.629 -20.506 C 31.12 -24.162 34.824 -17.948 26.719 -15.592 C 20.006 -20.75 25.61 -24.87 27.629 -20.506 Z " fill-rule="evenodd" fill="rgb(8,41,96)"/>

<path d=" M 32.418 -21.349 L 40.75 -22.721 L 42.017 -5.539 L 37.316 -5.237 L 32.418 -21.349 Z " fill="rgb(8,41,96)"/>

<path d=" M 39.739 -5.539 L 43.239 -5.237 L 47.639 -22.146 L 43.939 -23.423 L 39.739 -5.539 Z " fill="rgb(8,41,96)"/>

<path d=" M 78.035 -14.663 L 78.623 -12.07 L 80.677 -12.716 L 80.292 -5.42 L 85.29 -4.93 L 84.214 -14.663 L 78.035 -14.663 Z " fill="rgb(8,41,96)"/>

<path d=" M 79.634 -15.622 L 82.937 -21.971 C 75.34 -24.763 66.582 -18.405 69.815 -10.175 C 72.587 -3.118 79.959 -3.712 82.036 -8.264 L 81.07 -12.613 C 80.523 -9.665 75.214 -9.244 75.201 -14.094 C 75.196 -16.011 78.099 -17.363 79.634 -15.622 Z " fill="rgb(8,41,96)"/>

<path d=" M 154.198 -14.169 L 154.786 -11.576 L 158.06 -12.546 L 157.484 -4.66 L 162.652 -5.389 L 161.576 -14.395 L 154.198 -14.169 Z " fill="rgb(8,41,96)"/>

<path d=" M 156.995 -15.708 L 160.299 -22.057 C 152.702 -24.849 143.919 -18.651 146.652 -10.261 C 148.967 -3.152 157.321 -3.798 159.398 -8.35 L 158.875 -11.29 C 156.936 -8.807 152.563 -9.023 152.563 -14.18 C 152.563 -16.097 155.461 -17.449 156.995 -15.708 Z " fill="rgb(8,41,96)"/>

<path d=" M 55.584 -21.349 L 62.107 -22.721 L 70.111 -6.47 L 64.404 -5.136 L 55.584 -21.349 Z " fill="rgb(8,41,96)"/>

<path d=" M 55.584 -21.349 L 59.66 -20.574 L 59.905 -5.735 L 56.807 -5.705 L 55.584 -21.349 Z " fill="rgb(8,41,96)"/>

<path d=" M 64.718 -22.721 L 69.581 -22.146 L 70.111 -6.47 L 65.806 -8.483 L 64.718 -22.721 Z " fill="rgb(8,41,96)"/>

<path d=" M 132.549 -21.341 L 139.072 -22.714 L 146.546 -6.779 L 140.839 -5.201 L 132.549 -21.341 Z " fill="rgb(8,41,96)"/>

<path d=" M 132.549 -21.341 L 136.626 -20.577 L 136.932 -5.682 L 133.322 -5.389 L 132.549 -21.341 Z " fill="rgb(8,41,96)"/>

<path d=" M 141.925 -22.561 L 146.546 -22.554 L 146.546 -6.779 L 142.771 -8.475 L 141.925 -22.561 Z " fill="rgb(8,41,96)"/>

<path d=" M 10.562 -22.051 L 19.755 -22.721 L 19.861 -8.749 L 24.771 -9.308 L 24.771 -5.843 L 11.822 -5.843 L 10.562 -22.051 Z " fill="rgb(8,41,96)"/>

<path d=" M 109.764 -19.637 L 104.836 -20.339 L 105.925 -6.335 L 97.004 -5.695 L 96.898 -19.667 L 91.988 -19.108 L 91.988 -22.573 L 110.275 -22.87 L 109.764 -19.637 Z " fill="rgb(8,41,96)"/>

<path d=" M 55.584 -22.714 L 46.869 -21.477 L 48.363 -5.776 L 54.086 -5.389 L 55.584 -22.714 Z " fill="rgb(8,41,96)"/>

<path d=" M 108.566 -21.935 L 116.33 -23.212 L 116.33 -5.727 L 110.063 -5.328 L 108.566 -21.935 Z " fill="rgb(8,41,96)"/>

<path d=" M 114.663 -16.249 L 120.93 -16.779 L 120.93 -11.715 L 114.663 -10.552 L 114.663 -16.249 Z " fill="rgb(8,41,96)"/>

<path d=" M 24.906 -14.341 L 32.633 -14.696 L 30.951 -5.237 L 25.428 -5.52 L 24.906 -14.341 Z " fill="rgb(8,41,96)"/>

<path d=" M 124.59 -15.218 L 131.675 -15.719 L 130.913 -5.201 L 125.202 -5.287 L 124.59 -15.218 Z " fill="rgb(8,41,96)"/>

<path d=" M 124.751 -16.656 L 124.328 -24.066 L 132.475 -23.754 L 131.698 -16.656 L 124.751 -16.656 Z  M 126.086 -18.043 L 125.825 -22.643 L 130.933 -22.447 L 130.452 -18.043 L 126.086 -18.043 Z " fill-rule="evenodd" fill="rgb(8,41,96)"/>

<path d=" M 118.302 -23.212 L 123.65 -23.212 L 123.65 -5.93 L 119.64 -5.727 L 118.302 -23.212 Z " fill="rgb(8,41,96)"/>

<path d=" M 165.221 -11.974 L 161.52 -7.105 C 167.567 -2.217 178.075 -5.439 175.686 -11.974 C 174.723 -14.607 169.665 -14.427 168.213 -15.676 C 166.216 -17.394 169.659 -18.211 172.63 -15.333 L 176.079 -19.332 C 169.06 -27.031 157.943 -20.71 162.768 -15.333 C 164.885 -12.973 168.519 -13.911 169.502 -12.051 C 170.41 -10.334 166.755 -10.233 165.221 -11.974 Z " fill="rgb(8,41,96)"/>

</g>

<path d=" M 762.3 50.625 L 762.74 88.177 L 777.583 66.866 L 763.481 88.653 L 777.583 80.837 L 763.846 89.454 L 780.513 91.238 L 763.721 90.325 L 791.813 115.249 L 763.145 90.99 L 773.302 127.146 L 762.3 91.238 L 753.698 117.115 L 761.456 90.99 L 732.787 115.249 L 760.879 90.325 L 723.646 95.234 L 760.754 89.454 L 735.447 80.837 L 761.12 88.653 L 746.263 66.866 L 761.86 88.177 L 762.3 50.625 Z " fill="rgb(255,255,255)"/>

</g>

</svg>
