<?xml version="1.0"?>
<svg width="952.475" height="344.815" xmlns="http://www.w3.org/2000/svg" xmlns:svg="http://www.w3.org/2000/svg">
 <g class="layer">
  <title>Layer 1</title>
  <g clip-path="url(#_clipPath_aM0bS7mmRD85FV7UZlivCx8o3joko55X)" id="svg_1">
   <rect fill="rgb(255,255,255)" height="344.81" id="svg_2" transform="matrix(1,0,0,1,0,0)" width="952.48" x="-8.33" y="-45.26"/>
   <rect fill="none" height="279.88" id="svg_3" stroke="rgb(8,41,96)" stroke-linecap="square" stroke-miterlimit="2" stroke-width="3" transform="matrix(1,0,0,1,0,0)" width="216" x="477.2" y="4.06"/>
   <clipPath id="_clipPath_sBKwXTx7fBmX8imSI2rgtHOJ5facOYtE">
    <rect fill="none" height="279.88" id="svg_4" stroke="rgb(8,41,96)" stroke-linecap="square" stroke-miterlimit="2" stroke-width="3" transform="matrix(1,0,0,1,0,0)" width="216" x="477.2" y="4.06"/>
   </clipPath>
   <g clip-path="url(#_clipPath_sBKwXTx7fBmX8imSI2rgtHOJ5facOYtE)" id="svg_5">
    <g id="svg_6">
     <g id="svg_7">
      <circle cx="516.21" cy="237.52" fill="rgb(255,255,255)" id="svg_8" r="56.13"/>
      <g id="svg_9" opacity="0.51">
       <path d="m475.54,209.97c-15.37,22.45 -11.22,53.19 10.15,70.34c22.45,18.03 55.46,14.28 73.68,-8.36c3.9,-4.84 6.8,-10.15 8.73,-15.7c-12.77,16.69 -37.29,23.27 -60.04,14.6c-26.47,-10.09 -40.76,-37.11 -32.52,-60.88z" fill="rgb(8,41,96)" fill-opacity="0.17" id="svg_10"/>
      </g>
      <path d="m572.56,257.79c-6.91,21.93 -25.64,39.29 -49.9,43.29c-16.57,2.74 -32.71,-1.26 -45.61,-9.98l0,0l-6.87,-1.07l-1.66,-5.84c-9.38,-9.06 -16.03,-21.08 -18.32,-34.91l0,0c-2.29,-13.84 0.15,-27.38 6.12,-38.97l-0.11,-4.82l4.82,-2.9l0,0c9.39,-13.19 23.85,-22.79 41.1,-25.64c23.33,-3.85 45.79,5.63 59.58,22.86l0,0l3.72,1.59l-0.03,3.53c4.54,7.02 7.74,15.06 9.19,23.82c1.09,6.58 1.11,13.09 0.19,19.36l1.07,6.86l-3.29,2.82zm-106.4,-1.95c-10.47,-27.61 3.48,-58.52 31.15,-68.98c27.67,-10.46 58.63,3.45 69.11,31.06c10.47,27.61 -3.48,58.52 -31.15,68.98c-27.67,10.47 -58.63,-3.45 -69.11,-31.06l0,0l0,0l0,0l0,0z" fill="rgb(8,41,96)" fill-rule="evenodd" id="svg_11"/>
      <path d="m561.28,204.01l-4.14,-1.88c-5.12,-0.11 -8.54,2.61 -18.28,4.68c-13.38,2.86 -40.08,-10.35 -62.76,-5.17l-5.09,2.43l-0.72,5.18c24.55,-8.31 56.72,5.01 69.15,2.51c11.68,-2.35 16.72,-5.19 22.73,-3.34l-0.89,-4.41z" fill="rgb(205,162,162)" id="svg_12"/>
      <path d="m568.91,246.24c-12.04,-7.17 -35.3,-9.22 -38.42,-8.91c-13.87,1.4 -29.73,38.33 -50.14,39.34l2.83,5.52l7.14,1.33c22.85,-8.79 33.76,-41.96 45.78,-42.15c8.31,-0.13 25.84,6.46 30.81,13.18l3.44,-4.06l-1.44,-4.25z" fill="rgb(205,162,162)" id="svg_13"/>
     </g>
     <g id="svg_14">
      <path d="m622.68,301.34c18.92,5.02 45.93,5.96 81,2.75q7.77,0.52 11.72,0.81l13.43,3.78c-52.92,2.53 -103.28,0.7 -151.16,-5.62q13.58,-1.07 45.01,-1.72z" fill="rgb(8,41,96)" id="svg_15"/>
      <path d="m664.07,189.6c18.35,-2.97 27.9,-0.91 28.61,6.14l-12.38,35.39l-5.17,19.53l8.1,4.75q-0.92,-6.75 0,-9.76c6.4,-18.44 21.82,-20.73 46.23,-6.9l-10.26,13.57c6.22,24.93 5.31,41.33 -2.77,49.16l-49.07,4.91c6.87,-44.78 -6.93,-62.95 -44.79,-51.36c21.06,-31.62 34.9,-53.42 41.5,-65.43z" fill="rgb(205,162,162)" id="svg_16"/>
      <g id="svg_17" opacity="0">
       <path d="m666.29,178.32l-1.39,11.28c13.65,-3.33 22.92,-1.75 27.78,4.7l14.2,-44.58c-37.66,-17.26 -69.8,-17.23 -96.48,0l12.17,17.78l-2.48,10.82c11.89,6.86 27.3,6.87 46.2,0z" fill="rgb(8,41,96)" id="svg_18"/>
      </g>
      <path d="m622.57,252.88c33.07,-13.19 56.45,11.47 48.71,51.01l-7.7,0.91c14.09,-41 -11.13,-64.18 -45.53,-44.05l4.52,-7.87z" fill="rgb(8,41,96)" id="svg_19"/>
      <path d="m664.9,187.93c9.95,-2.61 28.18,-3.74 29.38,4.67l-3.68,8.25c1.37,-10.07 -7.47,-13.17 -26.53,-9.34l0.83,-3.58z" fill="rgb(8,41,96)" id="svg_20"/>
      <path d="m686.69,179.43q-10.36,-4.21 -20.15,-1.46l-0.25,3.47q5.35,-3.48 20.4,-2.01z" fill="rgb(8,41,96)" id="svg_21"/>
      <g id="svg_22" opacity="0.61">
       <path d="m697.39,162.41c-8.19,27.29 -22.08,55.79 -30.78,90.76c10.22,-37.08 27.95,-74.62 30.78,-90.76z" fill="rgb(8,41,96)" id="svg_23"/>
      </g>
      <path d="m680.3,257.28c5.13,0.39 9.78,1.51 14.29,8.23c-3.11,-9 -9.46,-13.92 -16.89,-12.62l1.83,4.7l0.77,-0.31z" fill="rgb(8,41,96)" id="svg_24"/>
      <path d="m639.21,247.31l3.05,7.29l2.26,0.73l-3.67,-7.5l-1.64,-0.52z" fill="rgb(8,41,96)" id="svg_25"/>
      <path d="m645.5,247.58l2.31,7.69l2.18,1.06l-2.91,-7.99l-1.58,-0.76z" fill="rgb(8,41,96)" id="svg_26"/>
      <path d="m650.67,249.22l2.31,7.7l2.17,1.05l-2.9,-7.98l-1.58,-0.77z" fill="rgb(8,41,96)" id="svg_27"/>
      <path d="m656.72,251.95l0.68,8.16l1.9,1.69l-1.21,-8.63l-1.37,-1.22z" fill="rgb(8,41,96)" id="svg_28"/>
      <path d="m662.41,256.53l-1.14,8.09l1.45,2.26l0.75,-8.71l-1.06,-1.64z" fill="rgb(8,41,96)" id="svg_29"/>
      <path d="m666.61,262.31l-2.51,7.59l1.02,2.6l2.24,-8.31l-0.75,-1.88z" fill="rgb(8,41,96)" id="svg_30"/>
      <path d="m670.54,270.05l-4.44,6.38l0.36,2.85l4.34,-7.17l-0.26,-2.06z" fill="rgb(8,41,96)" id="svg_31"/>
      <path d="m672.98,279.59l-6.44,4.96l-0.15,2.88l6.48,-5.75l0.11,-2.09z" fill="rgb(8,41,96)" id="svg_32"/>
      <path d="m673.93,288.05l-8.39,3.83l-0.38,2.84l8.5,-4.61l0.27,-2.06z" fill="rgb(8,41,96)" id="svg_33"/>
      <path d="m673.66,295.38l-9.24,2.8l-0.61,2.79l9.42,-3.57l0.43,-2.02z" fill="rgb(8,41,96)" id="svg_34"/>
      <path d="m621.37,251.97l3.04,7.3l2.26,0.72l-3.66,-7.49l-1.64,-0.53z" fill="rgb(8,41,96)" id="svg_35"/>
      <path d="m624.76,249.85l3.05,7.29l2.26,0.72l-3.67,-7.49l-1.64,-0.52z" fill="rgb(8,41,96)" id="svg_36"/>
      <path d="m629.4,248.49l3.05,7.29l2.26,0.72l-3.67,-7.49l-1.64,-0.52z" fill="rgb(8,41,96)" id="svg_37"/>
      <path d="m633.91,247.38l3.04,7.3l2.26,0.72l-3.66,-7.49l-1.64,-0.53z" fill="rgb(8,41,96)" id="svg_38"/>
      <path d="m700.43,233.26c-12.73,2.4 -17.68,9.8 -14.9,22.15l-4.48,-1.39c-0.99,-12.4 5.48,-21.27 19.38,-26.64l0,5.88z" fill="rgb(8,41,96)" id="svg_39"/>
      <path d="m681.74,266.24q0.18,-14.88 -5.7,-19.01l-1.07,5.16q4.2,2.26 6.77,13.85z" fill="rgb(8,41,96)" id="svg_40"/>
      <path d="m710.51,235.74c16.83,18.44 22.49,60.91 3.47,70.45l-91.41,0.2c-9.79,0.34 -15.18,-21.51 -12.81,-31.5c7.35,-30.91 61.88,-81.97 53.46,-96.57l5.46,-1.78c8.08,13.08 -44.9,66.61 -52.9,97.32c-1.13,4.32 -1.57,18.78 6.21,24.63c7.77,5.83 25.32,5.58 47.51,5.4c20.17,0.06 36.92,-0.92 42.52,-2.41c12.76,-3.42 11.8,-42.61 -1.51,-65.74z" fill="rgb(8,41,96)" id="svg_41"/>
      <path d="m621.77,252.48l-2.69,6.22l-3.33,2.05c-1.83,-3.02 1.83,-8.74 6.02,-8.27z" fill="rgb(8,41,96)" id="svg_42"/>
      <path d="m672.85,261.59c5.44,-47.27 37.56,-107.46 30.8,-111.63c-21.65,-13.35 -65.75,-17.65 -89.72,-0.24c-3.33,2.41 10.76,8.39 11.63,17.78c0.28,3.01 -5.11,8.31 -2.99,10.13c9,7.72 32.35,6.51 68.03,-12.25c-41.99,27.15 -63.65,22.22 -73.93,13.93c-2.42,-1.95 3.74,-7.64 3.42,-10.87c-0.99,-10.07 -16.74,-18.72 -12.63,-21.14c28.25,-16.6 74.7,-15.19 99.42,-0.87c7.72,4.48 -26.18,81.81 -34.03,115.16z" fill="rgb(8,41,96)" id="svg_43"/>
      <path d="m663.26,164.86l-5.09,-8.68l3.59,-2.99l-0.03,0.02c0.01,-0.01 0.02,-0.02 0.03,-0.03c-19.68,6.61 -38.6,2.92 -37.64,2.82c1.15,0.85 2.35,1.58 3.59,2.18q5.23,5.03 5.69,12.38l-4.06,2.03c7.26,5.45 18.57,0.83 33.92,-7.73z" fill="rgb(8,41,96)" id="svg_44"/>
     </g>
     <g clip-path="url(#_clipPath_8S00226g5QzuiNuKZl0ubycT5s9Tl96N)" id="svg_45">
      <text fill="#082960" font-family="&#x27;Comic Neue&#x27;" font-size="12px" font-style="normal" font-weight="400" id="svg_46" transform="matrix(1,0,0,1,500.863,25.801)">Also, it sort of features</text>
      <text fill="#082960" font-family="&#x27;Comic Neue&#x27;" font-size="12px" font-style="italic" font-weight="400" id="svg_47" transform="matrix(1,0,0,1,619.471,25.801)">YOU</text>
      <text fill="#082960" font-family="&#x27;Comic Neue&#x27;" font-size="12px" font-style="normal" font-weight="400" id="svg_48" transform="matrix(1,0,0,1,646.567,25.801)">a little</text>
      <text fill="#082960" font-family="&#x27;Comic Neue&#x27;" font-size="12px" font-style="normal" font-weight="400" id="svg_49" transform="matrix(1,0,0,1,500.863,36.841)">too prominently.</text>
     </g>
     <defs>
      <clipPath id="_clipPath_8S00226g5QzuiNuKZl0ubycT5s9Tl96N">
       <rect height="24.84" id="svg_50" transform="matrix(1,0,0,1,500.395,15.001)" width="181.77" x="0" y="0"/>
      </clipPath>
     </defs>
     <path d="m660.52,99.04l0,-31.84l2.76,7.58l-2.76,24.26z" fill="rgb(8,41,96)" id="svg_51"/>
     <path d="m523.62,111.02l-6.66,-11.98l3.19,2.02l3.47,9.96z" fill="rgb(8,41,96)" id="svg_52"/>
     <g clip-path="url(#_clipPath_59uN1yIQm2wHePPILjmQXWeVjr8XfYZe)" id="svg_53">
      <text fill="#082960" font-family="&#x27;Comic Neue&#x27;" font-size="12px" font-style="normal" font-weight="400" id="svg_54" transform="matrix(1,0,0,1,489.336,69.431)">Well, what do you suggest</text>
      <text fill="#082960" font-family="&#x27;Comic Neue&#x27;" font-size="12px" font-style="normal" font-weight="400" id="svg_55" transform="matrix(1,0,0,1,489.336,80.471)">to improve it?</text>
     </g>
     <defs>
      <clipPath id="_clipPath_59uN1yIQm2wHePPILjmQXWeVjr8XfYZe">
       <rect height="24.84" id="svg_56" transform="matrix(1,0,0,1,488.868,58.631)" width="144.07" x="0" y="0"/>
      </clipPath>
     </defs>
    </g>
   </g>
   <rect fill="transparent" height="279.88" id="svg_57" stroke="rgb(8,41,96)" stroke-linecap="square" stroke-miterlimit="2" stroke-width="3" transform="matrix(1,0,0,1,0,0)" width="216" x="477.2" y="4.06"/>
   <rect fill="none" height="279.88" id="svg_58" stroke="rgb(8,41,96)" stroke-linecap="square" stroke-miterlimit="2" stroke-width="3" transform="matrix(1,0,0,1,0,0)" width="216" x="7.4" y="4.06"/>
   <clipPath id="_clipPath_IITbLfbSTnk1tpE36F8BB0vyEK4TvAhL">
    <rect fill="none" height="279.88" id="svg_59" stroke="rgb(8,41,96)" stroke-linecap="square" stroke-miterlimit="2" stroke-width="3" transform="matrix(1,0,0,1,0,0)" width="216" x="7.4" y="4.06"/>
   </clipPath>
   <g clip-path="url(#_clipPath_IITbLfbSTnk1tpE36F8BB0vyEK4TvAhL)" id="svg_60">
    <g id="svg_61">
     <path d="m247.34,209.41c-18.34,-28.96 -33.77,-52.73 -48.06,-77.18c20.13,-35.04 40.67,-64.8 67.63,-101.22l-69.28,0c-7.1,18.23 -15.23,35.63 -24.39,52.94c-3.63,-7.39 -7.27,-15.08 -10.94,-23.21l-55.78,0c13.42,23.81 26.28,47.75 38.59,71.84c-19.39,31.26 -41.92,64.35 -67.55,103.26l69.6,0c8.46,-18.63 16.34,-35.3 23.91,-50.56c3.8,8.03 7.54,16.07 11.23,24.13l65.04,0z" fill="rgb(136,0,0)" id="svg_62" stroke="rgb(8,41,96)" stroke-linecap="square" stroke-miterlimit="3" stroke-width="7"/>
     <path d="m69.1,87.54l31.6,-39.8c-54.63,-44.23 -131.01,-13.32 -128.34,29.52c1.75,28.07 23.61,37.03 54.91,39.96c26.21,2.46 19.52,44.01 -26.23,9.6l-38.24,42.94c19.91,55.83 126.73,66.18 150.97,11.51c10.47,-23.62 -5.9,-69.15 -68.11,-77.58c-25.15,-3.4 -3.53,-36.83 23.44,-16.15z" fill="rgb(136,0,0)" id="svg_63" stroke="rgb(8,41,96)" stroke-linecap="square" stroke-miterlimit="3" stroke-width="7"/>
     <g id="svg_64">
      <ellipse cx="114.31" cy="143.62" fill="rgb(235,235,235)" id="svg_65" rx="54.11" ry="53.13"/>
      <path d="m75.63,191.53c-15.47,-10.77 -25.46,-28.48 -25.18,-48.36l0,0c0.22,-15.77 6.87,-30.01 17.48,-40.39l0,0l0.57,-3.56l6.69,-2.49c10.14,-7.18 22.67,-11.35 36.18,-11.17c19.38,0.27 36.51,9.44 47.31,23.46l0,0l4.51,1.7l0.28,5.58c4.7,8.48 7.32,18.2 7.18,28.51c-0.23,16.29 -7.31,30.93 -18.54,41.38l-2.46,4.77l-3.35,0c-10.21,7.36 -22.89,11.64 -36.57,11.46c-9.98,-0.14 -19.36,-2.64 -27.59,-6.94l-5.92,-0.79l-0.59,-3.16zm-11.31,-39.74c-5.18,-26.96 13.12,-52.93 40.85,-57.96c27.73,-5.02 54.45,12.78 59.63,39.73c5.18,26.96 -13.12,52.93 -40.85,57.96c-27.73,5.03 -54.44,-12.77 -59.63,-39.73l0,0l0,0l0,0z" fill="rgb(8,41,96)" fill-rule="evenodd" id="svg_66"/>
      <path d="m75.4,117.05c-14.65,20.84 -10.7,49.4 9.68,65.33c21.4,16.75 52.89,13.27 70.25,-7.76c3.72,-4.5 6.49,-9.44 8.33,-14.59c-12.18,15.5 -35.56,21.61 -57.24,13.56c-25.25,-9.37 -38.88,-34.46 -31.02,-56.54z" fill="rgb(8,41,96)" fill-opacity="0.17" id="svg_67"/>
      <path d="m160.18,115.77l-4.61,-2.62c-3.54,10.91 -12.55,18.66 -19.94,18.32c-20.9,-0.94 -24.72,-33.45 -47.75,-31.13l-5.91,0.69l-1.35,4.4c28.8,-2.74 24.9,28.97 53.75,31.41q12.65,1.08 26.23,-15.59l-0.42,-5.48z" fill="rgb(136,0,0)" id="svg_68"/>
      <path d="m151.66,178.16c8.8,-25.4 -40,-30.83 -70.63,2.18l1.72,4.29l5.44,0.28c20.31,-30.58 67.6,-29.48 56.33,-1.96l4.04,0.18l3.1,-4.97z" fill="rgb(136,0,0)" id="svg_69"/>
      <ellipse cx="87.13" cy="203.49" fill="rgb(8,41,96)" id="svg_70" rx="61.1" ry="5.37"/>
     </g>
    </g>
   </g>
   <rect fill="transparent" height="279.88" id="svg_71" stroke="rgb(8,41,96)" stroke-linecap="square" stroke-miterlimit="2" stroke-width="3" transform="matrix(1,0,0,1,0,0)" width="216" x="7.4" y="4.06"/>
   <line id="svg_72" stroke="rgb(8,41,96)" stroke-linecap="square" stroke-miterlimit="3" stroke-width="1.2" x1="7.4" x2="927.6" y1="-30.41" y2="-30.41"/>
   <rect fill="none" height="279.88" id="svg_73" stroke="rgb(8,41,96)" stroke-linecap="square" stroke-miterlimit="2" stroke-width="3" transform="matrix(1,0,0,1,0,0)" width="216" x="242.8" y="4.06"/>
   <clipPath id="_clipPath_Vs0zf3Qfk0STtBY64QzNm6kprszcldkq">
    <rect fill="none" height="279.88" id="svg_74" stroke="rgb(8,41,96)" stroke-linecap="square" stroke-miterlimit="2" stroke-width="3" transform="matrix(1,0,0,1,0,0)" width="216" x="242.8" y="4.06"/>
   </clipPath>
   <g clip-path="url(#_clipPath_Vs0zf3Qfk0STtBY64QzNm6kprszcldkq)" id="svg_75">
    <g id="svg_76">
     <g id="svg_77">
      <line id="svg_78" stroke="rgb(8,41,96)" stroke-linecap="square" stroke-miterlimit="3" stroke-width="2" x1="256.85" x2="235.76" y1="145.74" y2="242.41"/>
      <line id="svg_79" stroke="rgb(8,41,96)" stroke-linecap="square" stroke-miterlimit="3" stroke-width="2" x1="261.19" x2="248.38" y1="145.74" y2="249.91"/>
      <line id="svg_80" stroke="rgb(8,41,96)" stroke-linecap="square" stroke-miterlimit="3" stroke-width="2" x1="265.54" x2="274.79" y1="145.74" y2="196.69"/>
      <path d="m213.23,36.63l-2.58,4.01l14.19,137.75l87.6,8.47l3.25,-3.42l-33.33,-134.23l-69.13,-12.58z" fill="rgb(255,255,255)" id="svg_81"/>
      <path d="m228.28,173.49l88.4,10.12l-2.8,3.25l-89.04,-8.91l-14.19,-137.31l2.58,-4.01l15.05,136.86z" fill="rgb(255,255,255)" id="svg_82"/>
      <path d="m213.23,36.63l-2.58,4.01l14.19,137.75l87.6,8.47l3.25,-3.42l-33.33,-134.23l-69.13,-12.58z" fill="none" id="svg_83" stroke="rgb(8,41,96)" stroke-linecap="square" stroke-miterlimit="3"/>
      <g id="svg_84">
       <line id="svg_85" stroke="rgb(8,41,96)" stroke-linecap="square" stroke-miterlimit="3" stroke-width="0.9" x1="240.73" x2="275.96" y1="145.31" y2="150.69"/>
       <path d="m222.06,119.65l6.34,53.71l64.88,7.85" fill="none" id="svg_86" stroke="rgb(8,41,96)" stroke-linecap="square" stroke-miterlimit="3" stroke-width="0.3"/>
       <line id="svg_87" stroke="rgb(8,41,96)" stroke-linecap="square" stroke-miterlimit="3" stroke-width="0.9" x1="242.65" x2="279.35" y1="150.68" y2="156.26"/>
       <line id="svg_88" stroke="rgb(8,41,96)" stroke-linecap="square" stroke-miterlimit="3" stroke-width="0.9" x1="247.92" x2="279.91" y1="158.33" y2="162.95"/>
       <path d="m247.52,156.93l2.24,8.11l-7.6,-0.71l-1.59,-8.58l6.95,1.18z" fill="rgb(255,255,255)" id="svg_89" stroke="rgb(8,41,96)" stroke-linecap="square" stroke-miterlimit="3" stroke-width="0.9"/>
       <g id="svg_90" opacity="0.65">
        <path d="m282.35,130.2c-3.81,-9.56 -6.99,-17.42 -10.03,-25.47c1.94,-11.09 4.12,-20.46 7.07,-31.9l-10.72,-0.81c-0.48,5.81 -1.16,11.33 -1.99,16.81c-0.81,-2.42 -1.63,-4.95 -2.48,-7.61l-8.62,-0.65c2.87,7.84 5.66,15.72 8.38,23.64c-1.95,9.87 -4.33,20.29 -6.99,32.56l10.77,0.8c0.68,-5.91 1.34,-11.2 2,-16.04c0.86,2.64 1.71,5.27 2.55,7.92l10.06,0.75z" fill="rgb(205,162,162)" id="svg_91" stroke="rgb(8,41,96)" stroke-linecap="square" stroke-miterlimit="300" stroke-width="1.09"/>
        <path d="m250.84,88.8l3.56,-12.49c-9.94,-14.91 -20.72,-5.81 -18.87,8.05c1.22,9.08 5.83,12.3 10.77,13.61c4.13,1.1 3.57,14.37 -4.67,2.72l-4.47,13.43c4.95,18.25 21.82,22.83 23.74,5.46c0.82,-7.5 -3.23,-22.39 -13.14,-25.84c-4.01,-1.39 -1.78,-11.93 3.08,-4.94z" fill="rgb(205,162,162)" id="svg_92" stroke="rgb(8,41,96)" stroke-linecap="square" stroke-miterlimit="3" stroke-width="1.09"/>
        <g id="svg_93">
         <path d="m251.19,106.79c-0.98,-9.46 1.97,-16.87 6.59,-16.52c4.62,0.34 9.17,8.31 10.16,17.78c0.98,9.47 -1.97,16.87 -6.59,16.53c-4.62,-0.35 -9.17,-8.32 -10.16,-17.79z" fill="rgb(235,235,235)" id="svg_94"/>
         <path d="m255.19,122.44c-2.76,-3.66 -4.9,-9.49 -5.52,-15.9l0,0c-0.49,-5.1 0.05,-9.62 1.35,-12.84l0,0l-0.03,-1.15l0.95,-0.72c1.33,-2.2 3.12,-3.41 5.22,-3.19c3.01,0.31 5.96,3.47 8.1,8.12l0,0l0.76,0.6l0.23,1.81c1.01,2.79 1.74,5.96 2.07,9.28c0.51,5.26 -0.09,9.91 -1.48,13.15l-0.22,1.51l-0.52,-0.03c-1.33,2.25 -3.15,3.49 -5.27,3.27c-1.55,-0.16 -3.08,-1.07 -4.5,-2.56l-0.94,-0.32l-0.2,-1.03zm-3.08,-12.96c-1.71,-8.77 0.25,-16.94 4.37,-18.24c4.12,-1.3 8.85,4.75 10.56,13.52c1.7,8.76 -0.26,16.93 -4.38,18.24c-4.12,1.3 -8.85,-4.76 -10.55,-13.52l0,0l0,0l0,0z" fill="rgb(8,41,96)" fill-rule="evenodd" id="svg_95"/>
         <path d="m265.72,98.96l-0.8,-0.9c-0.18,3.48 -1.31,5.88 -2.47,5.68c-3.26,-0.54 -4.94,-11.08 -8.43,-10.6l-0.89,0.15l-0.06,1.41c4.36,-0.55 4.82,9.64 9.37,10.76q1.99,0.5 3.53,-4.73l-0.25,-1.77z" fill="rgb(205,162,162)" id="svg_96"/>
         <path d="m266.5,119c0.51,-8.09 -7.22,-10.41 -10.85,-0.11l0.41,1.4l0.85,0.16c2.11,-9.64 9.47,-8.74 8.65,0.02l0.63,0.1l0.31,-1.57z" fill="rgb(205,162,162)" id="svg_97"/>
         <path d="m247.92,125.73c-0.1,-0.96 4.05,-1.42 9.27,-1.03c5.21,0.39 9.53,1.49 9.63,2.44c0.1,0.96 -4.06,1.42 -9.27,1.03c-5.22,-0.39 -9.53,-1.48 -9.63,-2.44z" fill="rgb(8,41,96)" id="svg_98"/>
        </g>
       </g>
      </g>
     </g>
     <g id="svg_99">
      <path d="m366.71,256.44c14.21,3.17 34.5,3.76 60.85,1.74q5.83,0.33 8.8,0.51l10.09,2.37c-39.76,1.6 -77.59,0.45 -113.55,-3.53q10.2,-0.67 33.81,-1.09z" fill="rgb(8,41,96)" id="svg_100"/>
      <path d="m392.79,177.04c13.79,-1.87 24.12,-0.6 24.66,3.84l-7.46,31.35l-3.88,12.3l7.54,3.68q-0.69,-4.25 0,-24.09c17.31,-3.9 29.88,-0.16 33.27,12.91l-7.71,8.54c4.68,15.7 3.99,26.03 -2.07,30.96l-36.87,3.09c5.16,-28.19 -7.82,-38.82 -36.27,-31.52c15.82,-19.92 23.83,-43.5 28.79,-51.06z" fill="rgb(205,162,162)" id="svg_101"/>
      <path d="m366.62,225.93c24.85,-8.31 42.41,7.22 36.6,32.12l-5.79,0.57c10.59,-25.81 -8.36,-40.41 -34.2,-27.74l3.39,-4.95z" fill="rgb(8,41,96)" id="svg_102"/>
      <path d="m391.74,176c7.47,-1.64 25.48,-3.04 26.38,2.25l-1.45,5.97c1.02,-6.34 -11.24,-8.38 -25.56,-5.97l0.63,-2.25z" fill="rgb(8,41,96)" id="svg_103"/>
      <path d="m414.79,203.87c13.7,-4.73 35.49,2.01 32.13,13.16l-3.63,4.35c6.27,-14.99 -13.69,-21 -30.13,-15.1l1.63,-2.41z" fill="rgb(8,41,96)" id="svg_104"/>
      <path d="m407.67,171.81q-7.78,-2.65 -15.14,-0.92l-0.19,2.19q4.02,-2.2 15.33,-1.27z" fill="rgb(8,41,96)" id="svg_105"/>
      <g id="svg_106" opacity="0.61">
       <path d="m417.45,164.89c-6.16,17.18 -11.21,39.2 -17.74,61.22c7.67,-23.35 15.61,-51.06 17.74,-61.22z" fill="rgb(8,41,96)" id="svg_107"/>
      </g>
      <path d="m409.99,228.7c3.86,0.24 9.45,1.81 12.84,6.04c-2.33,-5.67 -9.21,-9.63 -14.79,-8.81l1.37,2.96l0.58,-0.19z" fill="rgb(8,41,96)" id="svg_108"/>
      <path d="m379.13,222.42l2.28,4.59l1.7,0.46l-2.75,-4.72l-1.23,-0.33z" fill="rgb(8,41,96)" id="svg_109"/>
      <path d="m383.85,222.59l1.73,4.84l1.64,0.67l-2.18,-5.03l-1.19,-0.48z" fill="rgb(8,41,96)" id="svg_110"/>
      <path d="m387.74,223.63l1.73,4.84l1.63,0.66l-2.18,-5.02l-1.18,-0.48z" fill="rgb(8,41,96)" id="svg_111"/>
      <path d="m392.28,225.34l0.51,5.14l1.42,1.06l-0.9,-5.43l-1.03,-0.77z" fill="rgb(8,41,96)" id="svg_112"/>
      <path d="m396.56,228.23l-0.86,5.09l1.09,1.42l0.56,-5.48l-0.79,-1.03z" fill="rgb(8,41,96)" id="svg_113"/>
      <path d="m399.71,231.87l-1.89,4.78l0.77,1.63l1.68,-5.23l-0.56,-1.18z" fill="rgb(8,41,96)" id="svg_114"/>
      <path d="m402.66,236.74l-3.34,4.02l0.27,1.79l3.26,-4.51l-0.19,-1.3z" fill="rgb(8,41,96)" id="svg_115"/>
      <path d="m404.49,242.75l-4.84,3.12l-0.11,1.81l4.87,-3.62l0.08,-1.31z" fill="rgb(8,41,96)" id="svg_116"/>
      <path d="m405.21,248.07l-6.31,2.42l-0.28,1.79l6.38,-2.91l0.21,-1.3z" fill="rgb(8,41,96)" id="svg_117"/>
      <path d="m405.01,252.69l-6.95,1.77l-0.45,1.75l7.07,-2.24l0.33,-1.28z" fill="rgb(8,41,96)" id="svg_118"/>
      <path d="m365.72,225.36l2.28,4.59l1.7,0.45l-2.75,-4.71l-1.23,-0.33z" fill="rgb(8,41,96)" id="svg_119"/>
      <path d="m368.27,224.02l2.29,4.59l1.7,0.45l-2.76,-4.71l-1.23,-0.33z" fill="rgb(8,41,96)" id="svg_120"/>
      <path d="m371.76,223.16l2.28,4.59l1.7,0.46l-2.75,-4.72l-1.23,-0.33z" fill="rgb(8,41,96)" id="svg_121"/>
      <path d="m375.14,222.47l2.29,4.59l1.7,0.45l-2.76,-4.72l-1.23,-0.32z" fill="rgb(8,41,96)" id="svg_122"/>
      <path d="m415.46,201.91c11.54,-9.22 26.95,-14.2 34.58,-9.83c4.9,3.88 7.09,16.56 -10.73,34.15l0,0l-1.55,-3.1c11.15,-9.11 15.58,-22.15 11.33,-28.44c-5.15,-6.13 -28.96,5.33 -32.14,9.73c-2.45,3.39 -4.36,11.67 -1.71,24.05l-3.53,-1.26c-1.49,-7.02 -1.09,-21.43 3.75,-25.3z" fill="rgb(8,41,96)" id="svg_123"/>
      <path d="m411.71,234.34q-0.5,-9.37 -4.92,-11.97l-0.8,3.25q3.15,1.42 5.72,8.72z" fill="rgb(8,41,96)" id="svg_124"/>
      <path d="m419.36,205.73l-2.6,-3.39l0,0c0.32,-0.04 0.64,-0.08 0.96,-0.11l0,0l2.8,3.23c-0.39,0.08 -0.78,0.17 -1.16,0.27zm4.3,-0.74l-2.54,-3.06l0,0l0,0c-0.34,0.02 -0.67,0.04 -1.01,0.07l2.3,3.13c0.41,-0.06 0.83,-0.1 1.25,-0.14zm3.73,-0.05l-2.28,-3.14l0,0l0,0c-0.33,0 -0.66,0 -1,0.01l1.97,3.09c0.44,0 0.87,0.01 1.31,0.04zm4.25,0.59l-2.16,-3.54l0,0l0,0c-0.34,-0.03 -0.69,-0.06 -1.04,-0.08l1.78,3.34c0.48,0.08 0.96,0.17 1.42,0.28zm3.86,1.24l-1.56,-4.14l0,0l0,0c-0.31,-0.06 -0.61,-0.12 -0.93,-0.18l1.19,3.81c0.44,0.16 0.87,0.33 1.3,0.51zm3.11,1.69l-0.61,-4.69l0,0l0,0c-0.27,-0.1 -0.55,-0.2 -0.83,-0.29l0.3,4.27c0.39,0.23 0.77,0.46 1.14,0.71zm2.27,1.91l0.49,-5.04l0,0l0,0c-0.24,-0.14 -0.48,-0.27 -0.72,-0.4l-0.66,4.59c0.31,0.28 0.61,0.56 0.89,0.85zm1.56,2l1.66,-5.05l0,0l0,0c-0.2,-0.18 -0.4,-0.35 -0.61,-0.53l-1.74,4.58c0.25,0.32 0.48,0.66 0.69,1zm1.13,2.49l2.88,-4.32l-0.12,-0.44l0,0l0,0c-0.08,-0.15 -0.18,-0.3 -0.27,-0.45l-2.98,3.92c0.19,0.42 0.35,0.85 0.49,1.29zm0.43,2.82l3.56,-4.14l0,0l0,0c-0.06,-0.37 -0.14,-0.74 -0.24,-1.1l-3.44,3.75l0,0.04c0.07,0.47 0.11,0.95 0.12,1.45zm-27.11,-11.16l-0.22,0l-1.54,-2.14l0,0l0,0l0,0l1.05,0.02l1.62,1.8c-0.3,0.1 -0.61,0.21 -0.91,0.32zm-2.47,1.12l-0.41,-0.01l-0.93,-1.26l0,0l0,0l0,0l0.38,-1.11l1.68,2.02c-0.24,0.12 -0.48,0.24 -0.72,0.36z" fill="rgb(8,41,96)" fill-rule="evenodd" id="svg_125"/>
      <path d="m432.68,215.13c12.65,11.61 16.9,38.36 2.61,44.37l-68.67,0.12c-7.35,0.22 -11.4,-13.54 -9.62,-19.83c5.53,-19.47 39.36,-59.49 33.04,-68.68l4.1,-1.12c6.07,8.24 -26.61,49.81 -32.62,69.15c-0.84,2.72 -1.18,11.83 4.67,15.51c5.84,3.67 19.02,3.51 35.69,3.4c15.15,0.04 27.74,-0.58 31.94,-1.52c9.59,-2.15 8.86,-26.83 -1.14,-41.4z" fill="rgb(8,41,96)" id="svg_126"/>
      <path d="m366.02,225.68l-2.02,3.91l-2.5,1.29c-1.37,-1.9 1.38,-5.5 4.52,-5.2z" fill="rgb(8,41,96)" id="svg_127"/>
      <path d="m404.39,231.41c4.09,-29.77 21.1,-75.53 16.02,-78.16c-16.26,-8.41 -49.39,-11.11 -67.4,-0.15c-2.5,1.52 8.08,5.28 8.74,11.2c0.21,1.89 -3.84,5.23 -2.25,6.38c6.76,4.86 24.3,4.09 51.11,-7.72c-31.55,17.1 -47.82,13.99 -55.54,8.78c-1.82,-1.23 2.81,-4.81 2.57,-6.85c-0.75,-6.34 -12.58,-11.79 -9.49,-13.32c21.22,-10.45 56.11,-9.56 74.68,-0.54c5.81,2.82 -12.54,59.38 -18.44,80.38z" fill="rgb(8,41,96)" id="svg_128"/>
      <path d="m390.04,164.03l-4.12,-6.84l2.9,-2.36l-0.03,0.01c0.01,0 0.02,-0.01 0.03,-0.02c-13.51,2.75 -28.84,-0.18 -30.46,2.22c0.93,0.67 1.9,1.25 2.91,1.73q4.23,3.96 4.6,7.33l-3.29,1.6c7.95,0.97 16.45,0 25.42,-2.99l0,0l0,0l2.04,-0.68z" fill="rgb(8,41,96)" id="svg_129"/>
     </g>
     <g id="svg_130">
      <ellipse cx="306.24" cy="215.31" fill="rgb(255,255,255)" id="svg_131" rx="37.34" ry="38.71"/>
      <ellipse cx="288.46" cy="259.69" fill="rgb(8,41,96)" id="svg_132" rx="37.58" ry="2.06"/>
      <path d="m342.64,233.5c-3.63,9.22 -10.42,17.15 -19.73,21.89c-13.17,6.7 -28.15,5.34 -39.7,-2.23l0,0l-3.07,0.15l-2.14,-4.2c-3.84,-3.52 -7.09,-7.86 -9.48,-12.92l0,0c-5.27,-11.13 -5.35,-23.52 -1.2,-34.21l0.14,-5.46l4.05,-2.66l0,0c3.83,-5.79 9.11,-10.68 15.63,-13.99c14.88,-7.57 32.08,-4.86 44.02,5.48l0,0l5.71,2.19l0.39,4.4c1.62,2.18 3.06,4.56 4.27,7.12c4.46,9.4 5.2,19.7 2.83,29.11l0.49,2.71l-2.21,2.62zm-63.04,3.81c-11.61,-15.65 -8.74,-38.13 6.4,-50.17c15.15,-12.03 36.86,-9.09 48.47,6.56c11.61,15.66 8.74,38.14 -6.41,50.18c-15.14,12.03 -36.86,9.09 -48.46,-6.57l0,0l0,0l0,0l0,0z" fill="rgb(8,41,96)" fill-rule="evenodd" id="svg_133"/>
      <g id="svg_134" opacity="0.51">
       <path d="m282.98,196.12c-11.14,14.05 -10.21,34.77 2.55,47.45c13.41,13.32 34.84,12.76 47.82,-1.25c2.78,-3 4.95,-6.37 6.5,-9.95c-9.15,10.37 -25.28,13.31 -39.41,6.21c-16.44,-8.27 -24.1,-27.11 -17.46,-42.46z" fill="rgb(8,41,96)" fill-opacity="0.17" id="svg_135"/>
      </g>
      <path d="m334.14,190.04l0.33,3.66c-2.58,-3.54 -14.27,-7.06 -21.99,-1.55c-7.28,5.18 -16.91,22.45 -31.25,27.04c-4.6,1.47 -8.39,-0.51 -8.6,-7.51l-0.53,-5.87l3.05,-4.75c-2.05,9.83 0.45,12.3 1.82,12.5c10.85,1.58 26.75,-21.56 32.63,-25.24c6.93,-4.33 16.75,-4.98 24.54,1.72z" fill="rgb(205,162,162)" id="svg_136"/>
      <path d="m335.74,235.44c-8.39,3.35 -37.63,-8.89 -49.27,-2.49c-3.96,2.18 -5.2,4.94 -3.77,8.27l-2.35,-1.46l-1.39,-3.11c-0.36,-6.28 4.57,-10.05 11.25,-10.79c15.71,-1.76 36.84,8.65 43.82,5.14c4.82,-2.43 6.34,-5.4 7.24,-10.91l0.42,8.78q-4.06,5.81 -5.95,6.57z" fill="rgb(205,162,162)" id="svg_137"/>
     </g>
     <g clip-path="url(#_clipPath_D9y4Du9xqDAKY3ZPHseMgZ3dUzOXGNpL)" id="svg_138">
      <text fill="#082960" font-family="&#x27;Comic Neue&#x27;" font-size="12px" font-style="normal" font-weight="400" id="svg_139" transform="matrix(1,0,0,1,293.61,24.211)">Nice proposal - one question:</text>
      <text fill="#082960" font-family="&#x27;Comic Neue&#x27;" font-size="12px" font-style="normal" font-weight="400" id="svg_140" transform="matrix(1,0,0,1,293.61,35.251)">does that not look...  just...</text>
      <text fill="#082960" font-family="&#x27;Comic Neue&#x27;" font-size="12px" font-style="italic" font-weight="400" id="svg_141" transform="matrix(1,0,0,1,293.61,50.431)">exactly like</text>
      <text fill="#082960" font-family="&#x27;Comic Neue&#x27;" font-size="12px" font-style="normal" font-weight="400" id="svg_142" transform="matrix(1,0,0,1,354.15,50.431)">it says &quot;</text>
      <text fill="#082960" font-family="&#x27;Comic Neue&#x27;" font-size="12px" font-style="italic" font-weight="700" id="svg_143" transform="matrix(1,0,0,1,393.126,50.431)">SEX&quot;</text>
      <text fill="#082960" font-family="&#x27;Comic Neue&#x27;" font-size="12px" font-style="normal" font-weight="400" id="svg_144" transform="matrix(1,0,0,1,418.326,50.431)">?</text>
     </g>
     <defs>
      <clipPath id="_clipPath_D9y4Du9xqDAKY3ZPHseMgZ3dUzOXGNpL">
       <rect height="40.02" id="svg_145" transform="matrix(1,0,0,1,293.61,13.411)" width="158.19" x="0" y="0"/>
      </clipPath>
     </defs>
     <path d="m418.01,100.55l0,-31.83l2.77,7.57l-2.77,24.26z" fill="rgb(8,41,96)" id="svg_146"/>
     <path d="m323.31,128.5l7.91,-19.32l-3.79,3.26l-4.12,16.06z" fill="rgb(8,41,96)" id="svg_147"/>
     <g clip-path="url(#_clipPath_NyQZ5NnVdaExlMWXi2tbwllT6UgT8Gbk)" id="svg_148">
      <text fill="#082960" font-family="&#x27;Comic Neue&#x27;" font-size="12px" font-style="normal" font-weight="400" id="svg_149" transform="matrix(1,0,0,1,318.785,86.511)">Hmm,</text>
      <text fill="#082960" font-family="&#x27;Comic Neue&#x27;" font-size="12px" font-style="normal" font-weight="400" id="svg_150" transform="matrix(1,0,0,1,300.617,97.551)">I don&#x27;t see it.</text>
     </g>
     <defs>
      <clipPath id="_clipPath_NyQZ5NnVdaExlMWXi2tbwllT6UgT8Gbk">
       <rect height="24.84" id="svg_151" transform="matrix(1,0,0,1,296.23,75.711)" width="77.6" x="0" y="0"/>
      </clipPath>
     </defs>
    </g>
   </g>
   <rect fill="transparent" height="279.88" id="svg_152" stroke="rgb(8,41,96)" stroke-linecap="square" stroke-miterlimit="2" stroke-width="3" transform="matrix(1,0,0,1,0,0)" width="216" x="242.8" y="4.06"/>
   <rect fill="none" height="279.88" id="svg_153" stroke="rgb(8,41,96)" stroke-linecap="square" stroke-miterlimit="2" stroke-width="3" transform="matrix(1,0,0,1,0,0)" width="216" x="711.6" y="4.06"/>
   <clipPath id="_clipPath_TFjczkP67aCpdnLU1VLGpzW8sWLkRNOL">
    <rect fill="none" height="279.88" id="svg_154" stroke="rgb(8,41,96)" stroke-linecap="square" stroke-miterlimit="2" stroke-width="3" transform="matrix(1,0,0,1,0,0)" width="216" x="711.6" y="4.06"/>
   </clipPath>
   <g clip-path="url(#_clipPath_TFjczkP67aCpdnLU1VLGpzW8sWLkRNOL)" id="svg_155">
    <g id="svg_156">
     <path d="m832.75,225.9q17.01,-6.94 18.6,-17.86c0.95,-17.04 -2.82,-39.39 -25.38,-63.68c-1.98,-27.32 23.98,-41 43.53,-27.98l31.86,-8.82l10.35,28.44l18.31,-26.21l20.66,12.64l-25.08,42.89l26.95,57.85l-31.9,9.83l-15.84,-33.14l-35.1,53.41l-36.96,-27.37z" fill="rgb(136,0,0)" id="svg_157"/>
     <path d="m832.75,225.9l36.71,23.32l38.66,-56.97l19.17,37.32l23.39,-8.19l-26.15,-56.3l25,-41.36l-19.56,-12.38l-18.26,26.13l-12.75,-28.7l-27.65,8.99l-4.22,-3.93l34.27,-10.08l8.35,22.25l4.28,-6.8l16.03,-12.92l24.56,16.44l-26.29,43.51l26.91,55.94l-13.82,9.07l-29.67,9.63l-12.75,-26.15l-27.11,41.73l-20.5,1.21l-38.74,-29.28l20.14,-2.48z" fill="rgb(8,41,96)" id="svg_158"/>
     <path d="m851.35,214.72l45.35,-52.91l-7.61,-11.44l2.57,6.84l-39.26,46l-1.05,11.51z" fill="rgb(8,41,96)" id="svg_159"/>
     <path d="m830.18,147.28c1.18,-17.34 9.71,-31.25 21.17,-32.32c17.42,-1.63 33.53,20.78 35.94,50.02c0.03,0.37 0.06,0.75 0.08,1.12l1.04,0l3.49,-8.89c-5.05,-29.49 -21.79,-51.21 -39.4,-49.56c-19.93,2.34 -34.67,9.91 -37.77,24.61l15.45,15.02z" fill="rgb(8,41,96)" id="svg_160"/>
     <path d="m848.88,159.75c-2.41,-11.76 0.69,-22.34 6.93,-23.62c6.23,-1.28 13.25,7.24 15.66,19c2.41,11.76 -0.7,22.35 -6.94,23.62c-6.23,1.28 -13.25,-7.23 -15.65,-19z" fill="rgb(8,41,96)" id="svg_161"/>
     <g id="svg_162">
      <path d="m837.43,157.39c-27.66,-2.17 -51.35,34.67 -44.31,72.11c-32.35,-2.33 -53.39,-9.64 -63.11,-21.93c-3.87,-15.2 -2.24,-29.58 4.9,-43.15l3.72,-7.3c-5.9,-16.98 8.5,-36.88 28.84,-40.87c8.71,8.65 16.01,23.32 17.51,33.99c-3.37,4.69 -4.33,8.78 -7.73,13.74c5.76,-2.33 7.06,-2.22 10.42,-2.44l-2.45,-11.74c-4.94,-13.97 -10.1,-25.15 -15.47,-33.55l-4.48,-6.48c-2.13,-8.41 6.64,-10.05 22.59,-8.23c6.72,12.24 30.96,30.36 49.57,55.85z" fill="rgb(136,0,0)" id="svg_163"/>
      <path d="m741.01,79.2c-4.83,5.38 -10.1,9.94 -15.83,13.68c-1.96,2.51 4.03,7.96 11.36,6.27l16.49,-16.89q-8.47,0.65 -12.02,-3.06z" fill="rgb(8,41,96)" id="svg_164"/>
      <path d="m755.51,77.55c7.48,-13 16,-17.15 26.85,-19.84c2.13,1.36 6.77,0.95 12.07,0.77c-0.58,-23.11 -16.26,-29.26 -35.87,-16.46c-3.85,2.71 -5.88,4.58 -8.47,7.97c-3.85,8.93 1.56,22.26 5.42,27.56z" fill="rgb(136,0,0)" id="svg_165"/>
      <path d="m756.3,79.2c-5.79,-9.62 -8.28,-18.88 -7.49,-27.8c-6.16,10.77 -8.64,19.94 -7.43,27.48c1.68,2.34 5.39,3.53 11.11,3.56l3.81,-3.24z" fill="rgb(235,235,235)" id="svg_166"/>
      <path d="m781.62,58.48c-8.28,1.88 -17.98,9.9 -29.13,24.04c-2.05,3.69 2.17,13.29 12.63,28.76c-1.75,-9.22 5.46,-12.46 21.59,-9.74c-1.38,-4.11 0.17,-8.03 4.62,-11.8c8.58,7.53 17.74,11.87 27.45,13c6.1,-0.75 12.58,-3.57 19.41,-8.5l11.07,0c1.4,-7.2 0.16,-12.76 -3.75,-16.69c13.1,-11.85 16.64,-19.5 10.59,-23.01c5.6,-11.51 -64.89,7.66 -74.48,3.94z" fill="rgb(235,235,235)" id="svg_167"/>
      <path d="m767.47,115.56c-4.7,-5.65 -14.09,-10.55 -29.98,-10.37c-18.71,20.66 -15.18,45.06 -2.54,59.23l4.4,-8.19c-6.27,-17.81 4.65,-32.26 28.12,-40.67z" fill="rgb(235,235,235)" id="svg_168"/>
      <path d="m835.68,157.39c-30.8,4.48 -45.37,28.53 -43.74,72.11q45.32,-2.53 49.55,-7.88c14.27,-18.04 12.34,-39.44 -5.81,-64.23z" fill="rgb(235,235,235)" id="svg_169"/>
      <path d="m728.87,201.19l6.04,12.89c27.86,15.18 69.93,17.18 108.12,8.11c-25.52,12.45 -56.75,9.97 -70.59,7.31c-86.89,-16.75 -80.93,-30.88 -43.57,-28.31z" fill="rgb(8,41,96)" id="svg_170"/>
      <path d="m848.84,61.6c-13.75,-1.48 -29.49,6.45 -43.18,4.73c3.64,24.52 16.74,23.32 35,15.62l-4.98,-2.06c-0.01,-5.82 4.04,-13 13.16,-18.29z" fill="rgb(8,41,96)" id="svg_171"/>
      <path d="m810.62,64.16l-2.21,-0.06c-2.48,1.01 -4.05,2.94 -4.73,5.81l0.91,1.04c0.75,-3.45 2.37,-5.71 6.03,-6.79z" fill="rgb(8,41,96)" id="svg_172"/>
      <path d="m835.69,94.24c15.52,8.9 23.57,-3.52 11.16,-16.81c20.62,-16.14 16.72,-25.53 7.31,-28.55c-11.42,-3.65 -58.16,11.2 -70.59,8.36l-4.13,1.24c9.84,7.53 64.21,-14.16 73.71,-2.32c5.26,6.58 3.02,8.29 -11.57,20.55c9.18,10.69 8.61,17.45 -3.39,15.29l-2.5,2.24z" fill="rgb(8,41,96)" id="svg_173"/>
      <path d="m771.27,119.31c-15.24,-4.41 -38.95,13.75 -31.08,35.19l-2.38,3.35c-10.28,-21.17 16.35,-44.34 31.23,-42.03l2.23,3.49z" fill="rgb(8,41,96)" fill-rule="evenodd" id="svg_174"/>
      <path d="m755.09,77.94c-4.97,1.36 -11.21,2.31 -12.54,0.53c-5.04,-41.41 54.79,-59.14 49.39,-20.76l2.76,0.06c-0.83,-43.71 -58.42,-20.43 -53.7,22.09c2.15,2.41 6.41,4.09 11.03,2.66l3.06,-4.58z" fill="rgb(8,41,96)" id="svg_175"/>
      <path d="m784.06,51.05c-5.75,-2.68 0.27,-7.79 7.81,-4.88c0.85,2.87 0.96,5.01 0.4,6.35c-2.44,-1.67 -6.39,-0.61 -8.21,-1.47z" fill="rgb(8,41,96)" id="svg_176"/>
      <path d="m755.51,43.33c-3.52,1.85 -4.2,-1.16 -1.15,-4.2c3.93,-3.91 7.96,-3.22 6.9,0.59l-5.75,3.61z" fill="rgb(8,41,96)" id="svg_177"/>
      <path d="m752.49,86.75c-3.48,4.32 -10.22,7.49 -14.68,12.38c-4.97,5.45 -19.69,-4.39 -10.67,-9.39c5.11,-2.72 9.74,-6.83 13.87,-12.35l0.83,2.5c-4.4,5.03 -8.82,8.92 -13.26,11.69c-9.21,2.65 4.93,11.2 9.33,5.41c3.47,-4.57 10.55,-7.26 13.36,-11.24c5.32,-15.89 15.68,-28.96 37.83,-29.75c-20.01,4.73 -30.32,16.17 -36.61,30.75z" fill="rgb(8,41,96)" id="svg_178"/>
      <path d="m747.02,83.02c2.69,0.29 4.97,-0.6 6.88,-2.69c-1.71,6.43 -1.6,10.01 0.39,10.7c-9.22,12.63 -10.42,5.7 -15.28,4.97l8.01,-12.98z" fill="rgb(8,41,96)" id="svg_179"/>
      <path d="m791.25,91.22c-12.06,18.57 28.03,30.23 48.53,66.3l-6.67,-2.02c-21.22,-33.99 -56.62,-44.39 -46.7,-63.99l4.84,-0.29l0,0z" fill="rgb(8,41,96)" id="svg_180"/>
      <path d="m750.88,83.55c-3.21,16.65 38.54,42.67 35.14,93.14l3.52,-9.17c-3.02,-51.29 -42.52,-68.75 -35.13,-87.58l-3.53,3.61z" fill="rgb(8,41,96)" fill-rule="evenodd" id="svg_181"/>
      <path d="m792.81,89.11c-4.82,0.06 -9.78,2.17 -14.87,6.32c7.45,-3.54 14.16,-3.92 17.51,-3.23l-2.64,-3.09z" fill="rgb(8,41,96)" id="svg_182"/>
      <path d="m750.68,48.28c-3.04,8.27 -0.88,18.03 6.46,29.27l-2.27,1.65c-6.68,-11.63 -7.57,-21.89 -6.06,-26.95l1.87,-3.97z" fill="rgb(8,41,96)" id="svg_183"/>
      <path d="m787.41,164.42c-8.63,-1.9 -17.81,3.62 -27.57,15.32c-1.17,-4.96 17.94,-21.8 26.87,-19.37l0.7,4.05z" fill="rgb(8,41,96)" id="svg_184"/>
      <path d="m785.85,100.34c-17.39,-1.37 -24.3,1.61 -20.73,8.94l1.68,2c-3.07,-8.76 3.63,-11.78 20.09,-9.05l-1.04,-1.89z" fill="rgb(8,41,96)" id="svg_185"/>
      <path d="m749.46,141.97c-24.76,28.58 -30.41,52.77 -16.96,72.57c20.58,12.6 60.87,23.54 105.14,10.13c23.79,-7.21 20.26,-34.41 3.85,-64.3l-5.28,0c17.6,27.66 14.43,53.84 -4.06,60.2c-32.01,10.99 -72.69,5.05 -94.9,-9.1c-12.66,-13.4 -8.59,-36.57 12.21,-69.5z" fill="rgb(8,41,96)" id="svg_186"/>
      <path d="m767.47,111.53c-11.03,-6.61 -23.39,-9.19 -28.27,-8.11c-21.61,4.8 -24.48,50.18 -4.25,62.12l2.82,-5.17c-15.52,-3.45 -16.36,-44.19 1.4,-52.84c5.23,-2.54 23.22,2.2 34.11,14.18c-1.87,-3.56 -3.82,-6.99 -5.81,-10.18zm18.68,41.72c-0.77,2.66 -1.84,5.43 -3.24,8.31l-7.23,2.62c5.08,-9.11 6.71,-17.15 6.04,-24.09c1.81,4.61 3.33,9.08 4.43,13.16z" fill="rgb(8,41,96)" fill-rule="evenodd" id="svg_187"/>
      <path d="m789.02,227.58c-6.04,-46.84 37.64,-85.76 54.49,-67.79c3.45,3.68 1.22,6.96 -1.03,6.11c-13.85,-15.53 -53.63,10.98 -48.05,61.68l-5.41,0z" fill="rgb(8,41,96)" id="svg_188"/>
      <path d="m838,95.33c-30.05,28.27 -45.77,-15.55 -68.81,-12.7c30.64,-5.95 36.97,35.57 69.54,8.22l-0.73,4.48z" fill="rgb(8,41,96)" id="svg_189"/>
      <path d="m734.95,207.57c-6.64,-17.52 8.49,-50.71 10.3,-52.07c-12.7,80 89.19,64.87 105.85,51.33c-7.35,10.02 -25.37,21.05 -59.77,20.75q-45.25,-2.16 -56.38,-20.01z" fill="rgb(8,41,96)" fill-opacity="0.17" id="svg_190"/>
      <path d="m728.87,116.25c1.7,10.94 4.96,18.03 9.76,21.25c-1.78,7.37 -1.78,14.05 0,20.02l-3.68,5.38c-7.6,-12.53 -9.63,-28.08 -6.08,-46.65z" fill="rgb(8,41,96)" fill-opacity="0.17" id="svg_191"/>
     </g>
    </g>
   </g>
   <rect fill="transparent" height="279.88" id="svg_192" stroke="rgb(8,41,96)" stroke-linecap="square" stroke-miterlimit="2" stroke-width="3" transform="matrix(1,0,0,1,0,0)" width="216" x="711.6" y="4.06"/>
   <g clip-path="url(#_clipPath_ValhOYZamHF0hLLpPOgq1jSZOZGuaww6)" id="svg_193">
    <text fill="#082960" font-family="&#x27;Times New Roman&#x27;" font-size="20px" font-style="normal" font-weight="400" id="svg_194" transform="matrix(0,-0.576,0.576,0,706.607,282.494)">©MCMLXXXVIII · Trilobyte</text>
   </g>
   <defs>
    <clipPath id="_clipPath_ValhOYZamHF0hLLpPOgq1jSZOZGuaww6">
     <rect height="24.6" id="svg_195" transform="matrix(0,-0.576,0.576,0,695.433,282.494)" width="266" x="0" y="0"/>
    </clipPath>
   </defs>
   <g id="svg_196">
    <path d="m27.91,-22.22c4.49,-3.89 9.83,4.84 -1.46,8.22c-9.29,-6.74 -1.59,-13.21 1.46,-8.22zm-0.28,1.71c3.49,-3.65 7.19,2.56 -0.91,4.92c-6.71,-5.16 -1.11,-9.28 0.91,-4.92z" fill="rgb(8,41,96)" fill-rule="evenodd" id="svg_197"/>
    <path d="m32.42,-21.35l8.33,-1.37l1.27,17.18l-4.7,0.3l-4.9,-16.11z" fill="rgb(8,41,96)" id="svg_198"/>
    <path d="m39.74,-5.54l3.5,0.3l4.4,-16.91l-3.7,-1.27l-4.2,17.88z" fill="rgb(8,41,96)" id="svg_199"/>
    <path d="m78.03,-14.66l0.59,2.59l2.06,-0.65l-0.39,7.3l5,0.49l-1.08,-9.73l-6.18,0z" fill="rgb(8,41,96)" id="svg_200"/>
    <path d="m79.63,-15.62l3.31,-6.35c-7.6,-2.79 -16.36,3.56 -13.13,11.79c2.78,7.06 10.15,6.47 12.23,1.92l-0.97,-4.35c-0.55,2.95 -5.86,3.37 -5.87,-1.48c0,-1.92 2.9,-3.27 4.43,-1.53z" fill="rgb(8,41,96)" id="svg_201"/>
    <path d="m154.2,-14.17l0.59,2.59l3.27,-0.97l-0.58,7.89l5.17,-0.73l-1.07,-9l-7.38,0.22z" fill="rgb(8,41,96)" id="svg_202"/>
    <path d="m157,-15.71l3.3,-6.35c-7.6,-2.79 -16.38,3.41 -13.65,11.8c2.32,7.11 10.67,6.46 12.75,1.91l-0.52,-2.94c-1.94,2.48 -6.32,2.27 -6.32,-2.89c0,-1.92 2.9,-3.27 4.44,-1.53z" fill="rgb(8,41,96)" id="svg_203"/>
    <path d="m55.58,-21.35l6.53,-1.37l8,16.25l-5.71,1.33l-8.82,-16.21z" fill="rgb(8,41,96)" id="svg_204"/>
    <path d="m55.58,-21.35l4.08,0.78l0.25,14.84l-3.1,0.02l-1.23,-15.64z" fill="rgb(8,41,96)" id="svg_205"/>
    <path d="m64.72,-22.72l4.86,0.57l0.53,15.68l-4.3,-2.01l-1.09,-14.24z" fill="rgb(8,41,96)" id="svg_206"/>
    <path d="m132.55,-21.34l6.52,-1.37l7.48,15.93l-5.71,1.58l-8.29,-16.14z" fill="rgb(8,41,96)" id="svg_207"/>
    <path d="m132.55,-21.34l4.08,0.76l0.3,14.9l-3.61,0.29l-0.77,-15.95z" fill="rgb(8,41,96)" id="svg_208"/>
    <path d="m141.93,-22.56l4.62,0.01l0,15.77l-3.78,-1.69l-0.84,-14.09z" fill="rgb(8,41,96)" id="svg_209"/>
    <path d="m10.56,-22.05l9.19,-0.67l0.11,13.97l4.91,-0.56l0,3.47l-12.95,0l-1.26,-16.21z" fill="rgb(8,41,96)" id="svg_210"/>
    <path d="m109.76,-19.64l-4.92,-0.7l1.08,14l-8.92,0.64l-0.1,-13.97l-4.91,0.56l0,-3.46l18.29,-0.3l-0.52,3.23z" fill="rgb(8,41,96)" id="svg_211"/>
    <path d="m55.58,-22.71l-8.71,1.23l1.49,15.7l5.73,0.39l1.49,-17.32z" fill="rgb(8,41,96)" id="svg_212"/>
    <path d="m108.57,-21.93l7.76,-1.28l0,17.48l-6.27,0.4l-1.49,-16.6z" fill="rgb(8,41,96)" id="svg_213"/>
    <path d="m114.66,-16.25l6.27,-0.53l0,5.07l-6.27,1.16l0,-5.7z" fill="rgb(8,41,96)" id="svg_214"/>
    <path d="m24.91,-14.34l7.72,-0.36l-1.68,9.46l-5.52,-0.28l-0.52,-8.82z" fill="rgb(8,41,96)" id="svg_215"/>
    <path d="m124.59,-15.22l7.09,-0.5l-0.77,10.52l-5.71,-0.09l-0.61,-9.93z" fill="rgb(8,41,96)" id="svg_216"/>
    <path d="m124.75,-16.66l-0.42,-7.41l8.14,0.32l-0.77,7.09l-6.95,0zm1.34,-1.38l-0.26,-4.6l5.1,0.19l-0.48,4.41l-4.36,0z" fill="rgb(8,41,96)" fill-rule="evenodd" id="svg_217"/>
    <path d="m118.3,-23.21l5.35,0l0,17.28l-4.01,0.2l-1.34,-17.48z" fill="rgb(8,41,96)" id="svg_218"/>
    <path d="m165.22,-11.97l-3.7,4.86c6.05,4.89 16.55,1.67 14.17,-4.86c-0.97,-2.64 -6.03,-2.46 -7.48,-3.71c-1.99,-1.71 1.45,-2.53 4.42,0.35l3.45,-4c-7.02,-7.7 -18.14,-1.38 -13.31,4c2.11,2.36 5.75,1.42 6.73,3.28c0.91,1.72 -2.75,1.82 -4.28,0.08z" fill="rgb(8,41,96)" id="svg_219"/>
   </g>
   <path d="m762.3,50.63l0.44,37.55l14.84,-21.31l-14.1,21.78l14.1,-7.81l-13.73,8.61l16.66,1.79l-16.79,-0.91l28.09,24.92l-28.67,-24.26l10.16,36.16l-11,-35.91l-8.6,25.87l7.76,-26.12l-28.67,24.26l28.09,-24.92l-37.23,4.9l37.1,-5.78l-25.3,-8.61l25.67,7.81l-14.86,-21.78l15.6,21.31l0.44,-37.55z" fill="rgb(255,255,255)" id="svg_220"/>
  </g>
 </g>
</svg>