<svg xmlns="http://www.w3.org/2000/svg" xmlns:xlink="http://www.w3.org/1999/xlink" style="isolation:isolate" viewBox="-67.873 20.027 661.134 688.083" width="661.134pt" height="688.083pt">

<style type="text/css">
    
  @font-face {
    font-family: 'Comic Neue';
    src: url('neue.ttf') format('truetype');
  }

  :root {
    --pinkie-color: hsl(320,100%,90%);
    --foot-color: hsla(320,100%,40%,0.3);
    /*
    --outline-color: #909;
    --dot-color: hsl(320,100%,85%);
    --text-color: gold;
    --circle-color: grey;
    --border-color: green;
    --title-color: black;
    */
  }
  
  

</style>

  

<defs>
    

    <pattern id="newsprint" patternUnits="userSpaceOnUse" width="661" height="688">
      <image href="newsprint.jpg" width="661" height="688" preserveAspectRatio="none" />
    </pattern>

    <pattern id="dotz" width="4" height="4" viewBox="-2 -2 4 4" patternUnits="userSpaceOnUse" patternTransform="scale(0.5)rotate(45)">
      <circle r="1" fill="var(--dot-color,var(--outline-color, #000))"/>
    </pattern>

    <pattern id="dots" width="2" height="2" viewBox="-1 -1 2 2" patternUnits="userSpaceOnUse" patternTransform="rotate(45)">
      <circle r="1" fill="black" />
    </pattern>

    <linearGradient id="fade-gradient" x1="0%" y1="0%" x2="100%" y2="0%">
      <stop offset="0%" stop-color="#fff" stop-opacity="1"/>
      <stop offset="100%" stop-color="#fff" stop-opacity="0"/>
    </linearGradient>

    <mask id="fade-mask">
      <rect x="0" y="0" width="100%" height="100%" fill="url(#fade-gradient)" />
    </mask>

</defs>
  


<g>
    


<g style="opacity:1.67;">
    
    

<rect fill="url(#newsprint)" x="-67" y="20" width="661" height="688"
    stroke-width="3" stroke="green"
    />
    
<g>

<g>

<g>



<path id="calv" d=" M 593.2 187.8 L 589.0 187.8 L 592.1 202.4 L 592.1 202.4 L 593.2 202.4 L 593.2 187.8 Z  M 556.7 195.1 L 556.7 195.1 L 556.7 195.1 Q 556.7 193.3 557.3 191.9 L 557.3 191.9 L 557.3 191.9 Q 557.8 190.5 558.8 189.5 L 558.8 189.5 L 558.8 189.5 Q 559.7 188.5 561.0 188.0 L 561.0 188.0 L 561.0 188.0 Q 562.2 187.5 563.6 187.5 L 563.6 187.5 L 563.6 187.5 Q 564.6 187.5 565.6 187.7 L 565.6 187.7 L 565.6 187.7 Q 566.6 187.9 567.6 188.5 L 567.6 188.5 L 567.0 191.8 L 567.0 191.8 Q 566.3 191.3 565.5 191.0 L 565.5 191.0 L 565.5 191.0 Q 564.7 190.8 564.1 190.8 L 564.1 190.8 L 564.1 190.8 Q 563.3 190.8 562.7 191.14 L 562.7 191.14 L 562.7 191.14 Q 562.1 191.4 561.6 191.9 L 561.6 191.9 L 561.6 191.9 Q 561.2 192.5 561.0 193.3 L 561.0 193.3 L 561.0 193.3 Q 560.8 194.1 560.8 195.1 L 560.8 195.1 L 560.8 195.1 Q 560.8 196.1 561.0 196.9 L 561.0 196.9 L 561.0 196.9 Q 561.2 197.7 561.6 198.2 L 561.6 198.2 L 561.6 198.2 Q 562.1 198.8 562.7 199.1 L 562.7 199.1 L 562.7 199.1 Q 563.3 199.4 564.1 199.4 L 564.1 199.4 L 564.1 199.4 Q 564.7 199.4 565.5 199.1 L 565.5 199.1 L 565.5 199.1 Q 566.3 198.94 567.0 198.4 L 567.0 198.4 L 567.6 201.7 L 567.6 201.7 Q 566.6 202.3 565.6 202.5 L 565.6 202.5 L 565.6 202.5 Q 564.6 202.7 563.6 202.7 L 563.6 202.7 L 563.6 202.7 Q 562.2 202.7 561.0 202.1 L 561.0 202.1 L 561.0 202.1 Q 559.7 201.6 558.8 200.6 L 558.8 200.6 L 558.8 200.6 Q 557.8 199.7 557.3 198.31 L 557.3 198.31 L 557.3 198.31 Q 556.7 196.9 556.7 195.1 L 556.7 195.1 Z  M 574.4 190.0 L 574.2 190.0 L 572.9 196.8 L 575.5 196.8 L 574.4 190.0 L 574.4 190.0 Z  M 582.7 202.4 L 582.7 187.8 L 586.72 187.8 L 586.72 199.4 L 591.01 199.4 L 591.01 202.4 L 582.7 202.4 L 582.7 202.4 Z  M 577.63 187.8 L 581.1 202.4 L 576.3 202.4 L 575.7 199.3 L 572.6 199.3 L 572.0 202.4 L 568.8 202.4 L 572.0 187.8 L 577.63 187.8 L 577.63 187.8 Z " fill-rule="evenodd" fill="rgb(0,0,0)"/>

<path id="heaven" d=" M 36 708 L 36 700 L 40 700 L 40 705 L 44 705 L 44 700 L 49 700 L 49 708 L 49 708 L 36 708 Z  M 62 708 L 62 708 L 62 705 L 57 705 L 57 702 L 63 702 L 63 700 L 53 700 L 53 708 L 62 708 Z  M 77 708 L 75 700 L 75 700 L 68 700 L 66 708 L 70 708 L 71 702 L 71 702 L 71 702 L 72 708 L 77 708 Z  M 89 708 L 89 708 L 92 700 L 88 700 L 86 708 L 89 708 Z  M 80 708 L 78 700 L 83 700 L 85 708 L 80 708 Z  M 103 708 L 103 708 L 103 705 L 98 705 L 98 702 L 104 702 L 104 700 L 93 700 L 93 708 L 103 708 Z  M 111 708 L 111 708 L 111 706 L 111 708 L 121 708 L 121 700 L 117 700 L 117 707 L 112 700 L 107 700 L 107 708 L 111 708 Z  M 135 708 Q 135 707 135 707 L 135 707 L 135 707 Q 135 706 136 705 L 136 705 L 136 705 Q 136 704 136.9 704 L 136.9 704 L 136.9 704 Q 137 703 138 703 L 138 703 L 138 703 Q 138 703 139 703 L 139 703 L 139 703 Q 140 703 141 703 L 141 703 L 141 703 Q 142 703 143 704 L 143 704 L 143 700 L 143 700 Q 142 700 141 699 L 141 699 L 141 699 Q 140 699 139 699 L 139 699 L 139 699 Q 137 699 136 700 L 136 700 L 136 700 Q 134 700 133 701 L 133 701 L 133 701 Q 132 702 131 704 L 131 704 L 131 704 Q 131 705 131 707 L 131 707 L 131 707 L 131 707 Q 131 707 131 708 L 135 708 Z  M 157 708 L 155 700 L 155 700 L 148 700 L 146 708 L 150 708 L 151 702 L 151 702 L 151 702 L 152 708 L 157 708 Z  M 164 708 L 164 708 L 164 706 L 165 708 L 174 708 L 174 700 L 171 700 L 171 707 L 165 700 L 161 700 L 161 708 L 164 708 Z  M 203 708 L 203 708 L 204 700 L 200 700 L 199 708 L 203 708 Z  M 195 708 L 194 706 L 194 708 L 191 708 L 193 700 L 197 700 L 198 708 L 195 708 Z  M 186 708 L 184 700 L 189 700 L 190 708 L 186 708 Z  M 216 708 L 214 700 L 214 700 L 208 700 L 206 708 L 209 708 L 210 702 L 211 702 L 211 702 L 212 708 L 216 708 Z  M 225 708 L 225 708 L 225 700 L 220 700 L 220 708 L 225 708 Z  M 235 708 L 235 708 L 235 703 L 238 703 L 238 700 L 227 700 L 227 703 L 230 703 L 230 708 L 235 708 Z " fill-rule="evenodd" fill="rgb(0,0,0)"/>

<path id="corsswerd" d=" M -36.7 140.6 L -36.7 140.8 L -36.5 140.8 L -36.5 159.3 L -36.5 159.5 L -36.5 177.76 L -36.5 178.0 L -36.5 178.0 L -36.5 196.2 L -36.5 196.4 L -36.5 214.6 L -36.5 214.9 L -36.5 233.1 L -36.5 233.3 L -36.5 251.8 L -36.5 251.8 L -36.5 251.8 L -36.5 270.2 L -36.5 270.5 L -36.5 288.7 L -36.5 288.9 L -36.5 288.9 L -36.5 307.1 L -36.5 307.4 L -36.5 325.8 L -55.0 325.8 L -55.2 325.8 L -67.3 325.8 L -67.3 325.3 L -55.5 325.3 L -55.5 307.4 L -55.5 307.4 L -55.5 307.4 L -55.5 307.4 L -67.3 307.4 L -67.3 306.9 L -55.5 306.9 L -55.5 288.9 L -55.5 288.9 L -67.3 288.9 L -67.3 288.4 L -55.5 288.4 L -55.5 270.5 L -67.3 270.5 L -67.3 270.0 L -55.5 270.0 L -55.5 270.0 L -67.7 270.0 L -67.7 251.3 L -55.5 251.3 L -55.5 233.3 L -67.3 233.3 L -67.3 232.8 L -55.5 232.8 L -55.5 214.9 L -67.3 214.9 L -67.3 214.4 L -55.5 214.4 L -55.5 196.4 L -55.5 196.4 L -55.5 196.4 L -55.5 196.4 L -67.3 196.4 L -67.3 195.9 L -55.5 195.9 L -55.5 178.0 L -55.5 178.0 L -67.3 178.0 L -67.3 177.5 L -55.5 177.5 L -55.5 159.5 L -67.3 159.5 L -67.3 159.0 L -55.5 159.0 L -55.5 140.8 L -55.44 140.8 L -55.44 140.6 L -67.3 140.6 L -67.3 140.1 L -55.5 140.1 L -55.5 122.2 L -67.3 122.2 L -67.7 122.2 L -67.7 103.5 L -67.3 103.5 L -67.3 103.2 L -55.5 103.2 L -55.5 85.3 L -67.3 85.3 L -67.3 84.8 L -55.5 84.8 L -55.5 66.8 L -55.6 66.8 L -67.8 66.8 L -67.8 47.7 L -55.6 47.7 L -55.44 47.7 L -55.44 47.7 L -36.5 47.7 L -36.5 66.6 L -36.5 66.8 L -36.5 85.0 L -36.5 85.3 L -36.5 103.5 L -36.5 103.7 L -36.5 103.7 L -36.5 121.9 L -36.5 122.2 L -36.5 140.6 L -36.7 140.6 Z  M -37.1 140.9 L -55.0 140.9 L -55.0 159.0 L -37.1 159.0 L -37.1 140.9 Z  M -55.0 251.3 L -37.1 251.3 L -37.1 233.3 L -55.0 233.3 L -55.0 251.3 L -55.0 251.3 Z  M -37.1 270.0 L -55.0 270.0 L -55.0 270.0 L -37.1 270.0 L -37.1 270.0 Z  M -55.6 48.2 L -55.6 66.3 L -67.3 66.3 L -67.3 48.2 L -55.6 48.2 L -55.6 48.2 Z  M -55.0 66.8 L -55.0 84.8 L -37.1 84.8 L -37.1 66.8 L -55.0 66.8 L -55.0 66.8 L -55.0 66.8 Z  M -55.0 307.4 L -37.1 307.4 L -37.1 307.4 L -37.1 325.3 L -55.0 325.3 L -55.0 307.4 L -55.0 307.4 L -55.0 307.4 L -55.0 307.4 Z  M -55.0 288.4 L -37.1 288.4 L -37.1 270.5 L -55.0 270.5 L -55.0 288.4 L -55.0 288.4 L -55.0 288.4 L -55.0 288.4 L -55.0 288.4 L -55.0 288.4 L -55.0 288.4 L -55.0 288.4 Z  M -37.1 288.9 L -37.1 306.9 L -55.0 306.9 L -55.0 288.9 L -37.1 288.9 L -37.1 288.9 L -37.1 288.9 L -37.1 288.9 L -37.1 288.9 L -37.1 288.9 L -37.1 288.9 L -37.1 288.9 L -37.1 288.9 Z  M -55.0 196.4 L -37.1 196.4 L -37.1 196.4 L -37.1 214.4 L -55.0 214.4 L -55.0 196.4 L -55.0 196.4 L -55.0 196.4 L -55.0 196.4 L -55.0 196.4 L -55.0 196.4 L -55.0 196.4 L -55.0 196.4 L -55.0 196.4 L -55.0 196.4 Z  M -37.1 214.9 L -37.1 232.8 L -55.0 232.8 L -55.0 214.9 L -37.1 214.9 L -37.1 214.9 L -37.1 214.9 L -37.1 214.9 L -37.1 214.9 L -37.1 214.9 L -37.1 214.9 L -37.1 214.9 L -37.1 214.9 L -37.1 214.9 L -37.1 214.9 Z  M -55.0 177.5 L -37.1 177.5 L -37.1 159.5 L -55.0 159.5 L -55.0 177.5 L -55.0 177.5 L -55.0 177.5 L -55.0 177.5 L -55.0 177.5 L -55.0 177.5 L -55.0 177.5 L -55.0 177.5 L -55.0 177.5 L -55.0 177.5 L -55.0 177.5 L -55.0 177.5 Z  M -37.1 178.0 L -37.1 195.9 L -55.0 195.9 L -55.0 178.0 L -37.1 178.0 L -37.1 178.0 L -37.1 178.0 L -37.1 178.0 L -37.1 178.0 L -37.1 178.0 L -37.1 178.0 L -37.1 178.0 L -37.1 178.0 L -37.1 178.0 L -37.1 178.0 L -37.1 178.0 L -37.1 178.0 Z  M -55.0 103.2 L -37.1 103.2 L -37.1 85.3 L -55.0 85.3 L -55.0 103.2 L -55.0 103.2 L -55.0 103.2 L -55.0 103.2 L -55.0 103.2 L -55.0 103.2 L -55.0 103.2 L -55.0 103.2 L -55.0 103.2 L -55.0 103.2 L -55.0 103.2 L -55.0 103.2 L -55.0 103.2 L -55.0 103.2 L -55.0 103.2 L -55.0 103.2 Z  M -55.1 48.2 L -37.1 48.2 L -37.1 66.3 L -55.1 66.3 L -55.1 48.2 L -55.1 48.2 L -55.1 48.2 L -55.1 48.2 Z " fill-rule="evenodd" fill="rgb(0,0,0)"/>

<path d=" M 559 708 L 559 621 L 559 621 L 559 621 L 559 621 L 593 621 L 593 621 L 593 621 L 593 621 L 593 621 L 593 618 L 556 618 L 556 618 L 556 618 L 556 618 L 556 708 L 559 708 Z " fill="rgb(0,0,0)"/>

<path d=" M -67 708 L -67 674 C -41 658 -19 656 -13 646 L -13 646 L -13 646 L -13 646 L -13 511 L -67 511 L -67 511 L -67 511 L -67 511 L -67 508 L -10 508 L -10 708 L -67 708 Z " fill="rgb(0,0,0)"/>

<path d=" M 500 688 L 500 688 L 500 690 L 500 690 L 23 690 L 23 690 L 23 688 L 23 688 L 500 688 L 500 688 L 500 688 L 500 688 Z " fill="rgb(0,0,0)"/>

<path d=" M 593 138 L 552 138 L 552 20 L 554 20 L 554 136 L 569 136 L 569 136 L 569 136 L 569 136 L 569 136 L 569 136 L 568 110 L 562 108 C 562 107 561 107 561 107 C 560 107 560 106 560.4 106 C 560 106 560 105 560 105 C 560 105 560 104 560 104 C 560 104 560 104 561 103 C 561 103 562 103 563 103 L 593 96 L 593 98 L 563 105 C 563 105 563 105 563 105 L 562 105 C 562 105 563 106 563 106 C 563 106 563 106 563 106 L 593 117 L 593 138 L 593 138 L 593 138 L 593 138 L 593 138 Z " fill="rgb(0,0,0)"/>

<path d=" M 593 580 L 560 580 L 560 580 L 560 579 L 560 579 L 593 579 L 593 580 L 593 580 L 593 580 L 593 580 L 593 580 Z " fill="rgb(0,0,0)"/>

<path d=" M 593 179 L 560 179 L 560 179 L 560 178 L 560 178 L 593 178 L 593 179 L 593 179 L 593 179 L 593 179 L 593 179 Z " fill="rgb(0,0,0)"/>

<path id="calvinback" d=" M 593.2 523.1 L 558.0 523.1 L 558.0 218.4 L 558.0 218.4 L 593.2 218.4 L 593.2 221.7 L 561.4 221.7 L 561.4 221.7 L 561.4 481.9 C 563.1 465.3 566.4 449.0 571.1 433.2 C 573.3 425.7 584.9 397.0 593.2 376.9 L 593.2 391.1 C 590.2 398.3 587.8 403.8 587.7 404.1 L 587.7 404.1 L 587.7 404.1 L 587.7 404.1 L 587.7 404.1 C 589.6 404.56 591.4 405.0 593.2 405.4 L 593.2 413.1 C 590.3 412.6 587.41 412.2 584.4 411.8 C 582.0 418.2 579.8 424.7 578.0 431.6 C 583.0 432.8 588.1 434.2 593.2 435.6 L 593.2 442.5 C 587.4 441.2 581.6 440.2 575.9 439.4 C 574.3 446.0 573.0 452.8 572.0 459.9 C 579.0 461.6 586.1 463.6 593.2 465.8 L 593.2 471.77 C 585.8 469.8 578.3 468.3 571.0 467.2 C 570.4 471.5 570.0 476.0 569.6 480.6 L 569.6 480.6 L 569.6 480.6 L 569.6 480.6 L 569.6 480.6 L 569.6 480.6 C 577.8 482.62 585.6 484.8 593.2 487.3 L 593.2 523.1 L 593.2 523.1 L 593.2 523.1 L 593.2 523.1 L 593.2 523.1 Z " fill="rgb(0,0,0)"/>

<path d=" M -67 488 L -19 488 L -19 488 L -19 487 L -19 487 L -19 487 L -19 487 L -19 487 L -19 487 L -19 487 L -67 487 L -67 488 L -67 488 L -67 488 L -67 488 Z " fill="rgb(0,0,0)"/>

<path d=" M -67 449 L -67 449 L -15 449 L -15 20 L -13 20 L -13 451 L -67 451 L -67 449 L -67 449 L -67 449 L -67 449 Z " fill="rgb(0,0,0)"/>



</g>

</g>

</g>

<g>

<g>

<text transform="matrix(1,0,0,1,62.524,91.855)" style="font-family:'Comic Neue';font-weight:700;font-size:14px;font-style:normal;fill:#000000;stroke:none;">You're

</text>

<text transform="matrix(1,0,0,1,103.866,91.855)" style="font-family:'Comic Neue';font-weight:700;font-size:14px;font-style:normal;fill:#000000;stroke:none;">late!

</text>

<text transform="matrix(1,0,0,1,62.524,128.855)" style="font-family:'Comic Neue';font-weight:700;font-size:14px;font-style:normal;fill:#000000;stroke:none;">You

</text>

<text transform="matrix(1,0,0,1,89.306,128.855)" style="font-family:'Comic Neue';font-weight:700;font-size:14px;font-style:normal;fill:#000000;stroke:none;">don't?

</text>

<text transform="matrix(1,0,0,1,130.9,128.855)" style="font-family:'Comic Neue';font-weight:700;font-size:14px;font-style:normal;fill:#000000;stroke:none;">What

</text>

<text transform="matrix(1,0,0,1,166.838,128.855)" style="font-family:'Comic Neue';font-weight:700;font-size:14px;font-style:normal;fill:#000000;stroke:none;">do

</text>

<text transform="matrix(1,0,0,1,62.524,144.955)" style="font-family:'Comic Neue';font-weight:700;font-size:14px;font-style:normal;fill:#000000;stroke:none;">you

</text>

<text transform="matrix(1,0,0,1,88.172,144.955)" style="font-family:'Comic Neue';font-weight:700;font-size:14px;font-style:normal;fill:#000000;stroke:none;">get

</text>

<text transform="matrix(1,0,0,1,112.294,144.955)" style="font-family:'Comic Neue';font-weight:700;font-size:14px;font-style:normal;fill:#000000;stroke:none;">paid

</text>

<text transform="matrix(1,0,0,1,142.394,144.955)" style="font-family:'Comic Neue';font-weight:700;font-size:14px;font-style:normal;fill:#000000;stroke:none;">for?

</text>

<text transform="matrix(1,0,0,1,62.58,182.855)" style="font-family:'Comic Neue';font-weight:700;font-size:14px;font-style:normal;fill:#000000;stroke:none;">Wow

</text>

<text transform="matrix(1,0,0,1,94.78,182.855)" style="font-family:'Comic Neue';font-weight:700;font-size:14px;font-style:normal;fill:#000000;stroke:none;">-

</text>

<text transform="matrix(1,0,0,1,105.49,182.855)" style="font-family:'Comic Neue';font-weight:700;font-size:14px;font-style:normal;fill:#000000;stroke:none;">could

</text>

<text transform="matrix(1,0,0,1,142.156,182.855)" style="font-family:'Comic Neue';font-weight:700;font-size:14px;font-style:normal;fill:#000000;stroke:none;">you

</text>

<text transform="matrix(1,0,0,1,167.804,182.855)" style="font-family:'Comic Neue';font-weight:700;font-size:14px;font-style:normal;fill:#000000;stroke:none;">get

</text>

<text transform="matrix(1,0,0,1,62.58,198.955)" style="font-family:'Comic Neue';font-weight:700;font-size:14px;font-style:normal;fill:#000000;stroke:none;">fired

</text>

<text transform="matrix(1,0,0,1,94.864,198.955)" style="font-family:'Comic Neue';font-weight:700;font-size:14px;font-style:normal;fill:#000000;stroke:none;">though?

</text>

<text transform="matrix(1,0,0,1,62.524,233.855)" style="font-family:'Comic Neue';font-weight:700;font-size:14px;font-style:normal;fill:#000000;stroke:none;">You're

</text>

<text transform="matrix(1,0,0,1,103.866,233.855)" style="font-family:'Comic Neue';font-weight:700;font-size:14px;font-style:normal;fill:#000000;stroke:none;">kidding-

</text>

<text transform="matrix(1,0,0,1,158.088,233.855)" style="font-family:'Comic Neue';font-weight:700;font-size:14px;font-style:normal;fill:#000000;stroke:none;">what

</text>

<text transform="matrix(1,0,0,1,190.848,233.855)" style="font-family:'Comic Neue';font-weight:700;font-size:14px;font-style:normal;fill:#000000;stroke:none;">if

</text>

<text transform="matrix(1,0,0,1,62.524,249.955)" style="font-family:'Comic Neue';font-weight:700;font-size:14px;font-style:normal;fill:#000000;stroke:none;">you

</text>

<text transform="matrix(1,0,0,1,88.172,249.955)" style="font-family:'Comic Neue';font-weight:700;font-size:14px;font-style:normal;fill:#000000;stroke:none;">KILL

</text>

<text transform="matrix(1,0,0,1,121.072,249.955)" style="font-family:'Comic Neue';font-weight:700;font-size:14px;font-style:normal;fill:#000000;stroke:none;">somebody?

</text>

<text transform="matrix(1,0,0,1,62.524,329.912)" style="font-family:'Comic Neue';font-weight:700;font-size:14px;font-style:normal;fill:#000000;stroke:none;">So,

</text>

<text transform="matrix(1,0,0,1,85.064,329.912)" style="font-family:'Comic Neue';font-weight:700;font-size:14px;font-style:normal;fill:#000000;stroke:none;">you're

</text>

<text transform="matrix(1,0,0,1,125.272,329.912)" style="font-family:'Comic Neue';font-weight:700;font-size:14px;font-style:normal;fill:#000000;stroke:none;">an

</text>

<text transform="matrix(1,0,0,1,144.97,329.912)" style="font-family:'Comic Neue';font-weight:700;font-size:14px;font-style:normal;fill:#000000;stroke:none;">actual

</text>

<text transform="matrix(1,0,0,1,62.524,346.012)" style="font-family:'Comic Neue';font-weight:700;font-size:14px;font-style:normal;fill:#000000;stroke:none;">mass-murderer.

</text>

<text transform="matrix(1,0,0,1,62.524,286.855)" style="font-family:'Comic Neue';font-weight:700;font-size:14px;font-style:normal;fill:#000000;stroke:none;">Really?!!

</text>

<text transform="matrix(1,0,0,1,302.421,105.601)" style="font-family:'Comic Neue';font-weight:700;font-size:14px;font-style:normal;fill:#000000;stroke:none;">I don't get paid to be on time.

</text>


<text transform="matrix(1,0,0,1,287.917,145.601)" style="font-family:'Comic Neue';font-weight:700;font-size:14px;font-style:normal;fill:#000000;stroke:none;">Pretty much whatever.  It doesn't

</text>

<text transform="matrix(1,0,0,1,263.123,161.701)" style="font-family:'Comic Neue';font-weight:700;font-size:14px;font-style:normal;fill:#000000;stroke:none;">matter what happens, I still get paid.

</text>

<text transform="matrix(1,0,0,1,368.893,203.601)" style="font-family:'Comic Neue';font-weight:700;font-size:14px;font-style:normal;fill:#000000;stroke:none;">Nope, not a chance

</text>

<text transform="matrix(1,0,0,1,439.433,257.401)" style="font-family:'Comic Neue';font-weight:700;font-size:16px;font-style:italic;fill:#000000;stroke:none;">I have.

</text>

<text transform="matrix(1,0,0,1,315.945,296.601)" style="font-family:'Comic Neue';font-weight:700;font-size:14px;font-style:normal;fill:#000000;stroke:none;">Nineteen people in one year.

</text>

</g>

<g>

<path d=" M 425 337 L 408 367 L 419 343 L 425 337 Z " fill="rgb(0,0,0)"/>

<path d=" M 89 373 L 102 425 L 93 380 L 89 373 Z " fill="rgb(0,0,0)"/>

</g>

<g>

<path d=" M 60 42 C 64 38 69 46 59 50 C 50 43 57 37 60 42 Z  M 60 44 C 63 40 67 46 59 48 C 53 43 58 40 60 44 Z " fill-rule="evenodd" fill="rgb(0,0,0)"/>

<path d=" M 64 43 L 72 42 L 73 57 L 69 58 L 64 43 Z " fill="rgb(0,0,0)"/>

<path d=" M 71 57 L 75 58 L 79 42 L 75 41 L 71 57 Z " fill="rgb(0,0,0)"/>

<path d=" M 107 49 L 107 51 L 109 51 L 109 58 L 114 58 L 113 49 L 107 49 Z " fill="rgb(0,0,0)"/>

<path d=" M 108 48 L 111 42 C 104 40 96 46 99 53 C 102 60 109 59 110 55 L 110 51 C 109 54 104 54 104 50 C 104 48 107 46 108 48 Z " fill="rgb(0,0,0)"/>

<path d=" M 177 49 L 178 52 L 181 51 L 180 58 L 185 58 L 184 49 L 177 49 Z " fill="rgb(0,0,0)"/>

<path d=" M 180 48 L 183 42 C 176 40 168 45 170 53 C 173 60 180 59 182 55 L 182 52 C 180 54 176 54 176 49 C 176 48 179 46 180 48 Z " fill="rgb(0,0,0)"/>

<path d=" M 86 43 L 92 42 L 99 57 L 94 58 L 86 43 Z " fill="rgb(0,0,0)"/>

<path d=" M 86 43 L 90 43 L 90 57 L 87 57 L 86 43 Z " fill="rgb(0,0,0)"/>

<path d=" M 94 42 L 99 42 L 99 57 L 95 55 L 94 42 Z " fill="rgb(0,0,0)"/>

<path d=" M 157 43 L 163 42 L 170 56 L 165 58 L 157 43 Z " fill="rgb(0,0,0)"/>

<path d=" M 157 43 L 161 43 L 161 57 L 158 58 L 157 43 Z " fill="rgb(0,0,0)"/>

<path d=" M 166 42 L 170 42 L 170 56 L 167 55 L 166 42 Z " fill="rgb(0,0,0)"/>

<path d=" M 44 42 L 53 42 L 53 54 L 57 54 L 57 57 L 45 57 L 44 42 Z " fill="rgb(0,0,0)"/>

<path d=" M 136 44 L 132 44 L 133 57 L 124 57 L 124 44 L 120 45 L 120 42 L 137 41 L 136 44 Z " fill="rgb(0,0,0)"/>

<path d=" M 86 42 L 78 43 L 79 57 L 85 58 L 86 42 Z " fill="rgb(0,0,0)"/>

<path d=" M 135 42 L 142 41 L 142 57 L 136 58 L 135 42 Z " fill="rgb(0,0,0)"/>

<path d=" M 141 48 L 147 47 L 147 52 L 141 53 L 141 48 Z " fill="rgb(0,0,0)"/>

<path d=" M 57 49 L 65 49 L 63 58 L 58 57 L 57 49 Z " fill="rgb(0,0,0)"/>

<path d=" M 150 48 L 157 48 L 156 58 L 151 58 L 150 48 Z " fill="rgb(0,0,0)"/>

<path d=" M 150 47 L 150 40 L 157 41 L 157 47 L 150 47 Z  M 151 46 L 151 42 L 156 42 L 155 46 L 151 46 Z " fill-rule="evenodd" fill="rgb(0,0,0)"/>

<path d=" M 144 41 L 149 41 L 149 57 L 145 57 L 144 41 Z " fill="rgb(0,0,0)"/>

<path d=" M 188 51 L 184 56 C 190 61 200 58 197 51 C 196 49 192 49 190 48 C 189 46 192 46 195 48 L 198 45 C 191 38 181 43 185 48 C 187 51 191 50 192 51 C 192 53 189 53 188 51 Z " fill="rgb(0,0,0)"/>

<line x1="36" y1="36" x2="504" y2="37.602" vector-effect="non-scaling-stroke" stroke-width="1" stroke="rgb(0,0,0)" stroke-linejoin="miter" stroke-linecap="butt" stroke-miterlimit="3"/>

<path d=" M 36 467.491 L 36 72 L 504 72 L 504 338.925" fill="none" vector-effect="non-scaling-stroke" stroke-width="1.4" stroke="rgb(0,0,0)" stroke-linejoin="miter" stroke-linecap="butt" stroke-miterlimit="3"/>

</g>
    
    

<text transform="matrix(0,-0.576,0.576,0,498.675,635.853)" style="font-family:'Times New Roman';font-weight:400;font-size:20px;font-style:normal;fill:#000000;stroke:none;">&#xA9;MCMLXXXVIII &#xB7; Trilobyte

</text>
    

<g>

<path d=" M 91.813 622.269 L 113.84 619.236 C 107.629 614.222 104.86 605.078 105.32 592.53 L 88.587 594.242 C 86.827 605.064 87.824 614.793 91.813 622.269 Z " mask="url(#fade-mask)" fill="url(#dots)" />

<path id="redMarker0" d=" M 255.9 565.6 C 280.4 559.2 306.6 555.73 334.5 555.1 L 400.2 562.8 L 452.6 567.4 L 451.6 570.4 L 407.6 566.2 L 449.9 573.35 L 445.6 598.0 L 424.2 599.8 L 263.9 601.1 L 248.3 594.3 L 255.9 565.6 Z " fill="rgb(152,0,0)" opacity="0.42" />

<path id="redMarker1" d=" M 449.8 576.4 L 449.8 579.3 L 406.9 573.6 L 447.5 583.35 L 446.7 594.6 L 333.0 586.1 L 333.8 580.5 L 348.2 580.1 L 334.9 577.2 L 335.5 557.9 L 449.8 576.4 Z " fill="rgb(152,0,0)" opacity="0.42" />

<path id="sox0" d=" M 181 567 C 179 572 180 576 182 579 C 170 583 162 585 154 583 L 164 597 L 154 600 C 153 599 152 598 152 596 L 157 595 L 147 579 C 158 571 170 567 181 567 Z " fill="rgb(152,0,0)" opacity="0.42" />

<path id="sox1" d=" M 98 646 C 98 645 100 645 101 645 L 99 648 C 109 643 119 640 127 640 C 121 643 120 647 121 651 C 114 652 106 653 96 653 C 97 650 98 648 98 646 Z " fill="rgb(152,0,0)" opacity="0.42" />

<path d=" M 92 622 L 92 623 L 91.7 621 L 92 621 C 96 620 100 619 104 619 C 107 618 111 618 115 618 C 115 618 115 618 115 618 L 115 618 L 116 618 L 116 619 L 115 619 L 115 619 C 111 620 108 620 104 620 C 100 621 96 621 92 622 Z " fill="rgb(0,0,0)"/>

<path d=" M 75 545 L 75 545 L 75 545 L 75 544 C 75 544 76 544 76 544 C 77 544 77 544 78 544 C 78 544 79 544 79 544 C 80 544 80 545 80 545 C 81 546 81 546 81 546 C 81 547 80 547 80 548 C 80 548 79 549 79 549 C 79 549 78 549 77 550 C 77 550 76 550 76 550 C 76 550 76 550 76 550 L 76 550 C 76 550 76 550 76 550 C 75 550 75 550 74 549 C 74 549 73 548 73 548 C 73 547 74 547 74 546 C 74 546 74 545 75 545 Z  M 75 545 L 75 545 L 75 545 C 75 546 75 546 74 547 C 74.6 547 74 547 74.5 548 C 74 548 74 549 74 549 C 75 549 75 549 76 549 L 76 549 C 76 549 77 549 77 549 C 78 549 78 549 79 548 C 79 548 79 548.4 80 548 C 80 547 80 547 80 546 C 80 546 80 546 80 545.9 C 80 545 79 545 79 545 C 79 544 78 544 78 544 C 77 544 77 544 76 544 C 76.5 545 76 545.2 75 545 Z  M 75 545 C 75 545 75 545 75 545" fill-rule="evenodd" fill="rgb(0,0,0)"/>

<path id="theLetterT" d=" M 281.6 572.7 L 294.0 570.7 L 294.3 570.6 L 294.2 570.1 L 294.0 570.1 L 294.0 570.1 L 281.7 572.1 L 281.7 572.0 L 281.2 571.9 L 281.21 572.2 C 281.2 572.2 281.2 572.2 281.2 572.2 L 270.1 574.0 L 269.8 574.14 L 269.9 574.6 L 270.2 574.6 L 281.1 572.8 C 281.0 573.5 280.9 574.2 280.8 574.9 C 280.6 575.7 280.4 576.6 280.2 577.5 L 280.1 577.8 L 280.69 577.9 L 280.7 577.6 C 280.9 576.7 281.1 575.9 281.3 574.9 C 281.4 574.2 281.59 573.4 281.6 572.7 Z  M 281.9 567.8 L 281.7 567.8 L 281.5 567.3 L 281.81 567.2 C 283.4 566.7 285.1 566.4 286.91 566.1 C 288.4 565.9 289.9 565.7 291.4 565.7 C 292.62 565.7 293.82 565.8 295.0 566.0 C 295.9 566.2 296.8 566.4 297.7 566.8 C 298.1 567.0 298.49 567.1 298.8 567.4 C 299.1 567.5 299.3 567.8 299.6 568.0 C 299.8 568.2 299.9 568.5 300.1 568.8 C 300.2 569.0 300.2 569.3 300.2 569.6 C 300.2 569.9 300.22 570.2 300.0 570.5 C 299.9 570.85 299.8 571.12 299.6 571.3 C 299.4 571.6 299.17 571.9 298.9 572.2 C 298.2 572.8 297.5 573.44 296.8 573.96 C 295.98 574.6 295.0 575.1 294.1 575.7 C 293.0 576.3 291.9 576.9 290.7 577.42 C 288.2 578.55 285.6 579.4 283.0 580.1 C 281.7 580.4 280.3 580.7 278.97 580.9 C 277.6 581.13 276.3 581.2 274.9 581.2 C 274.0 581.2 273.1 581.1 272.22 581.0 C 271.3 580.96 270.4 580.7 269.6 580.53 C 269.1 580.3 268.7 580.2 268.3 579.9 C 267.9 579.8 267.6 579.5 267.3 579.2 C 267.13 579.0 266.9 578.7 266.8 578.4 C 266.6 578.0 266.61 577.7 266.61 577.4 C 266.62 576.8 266.7 576.3 266.9 575.8 C 267.2 575.3 267.5 574.7 267.9 574.2 C 268.4 573.7 268.9 573.1 269.5 572.67 C 270.2 572.0 270.9 571.55 271.6 571.0 C 272.5 570.4 273.4 569.9 274.3 569.5 C 275.3 568.9 276.37 568.52 277.4 568.0 C 279.8 567.1 282.3 566.3 284.84 565.8 L 285.1 565.7 L 285.2 566.3 L 284.9 566.36 C 282.4 566.89 279.9 567.6 277.6 568.5 C 276.5 569.0 275.5 569.4 274.5 569.99 C 273.6 570.4 272.8 570.9 271.9 571.5 C 271.2 571.98 270.5 572.5 269.9 573.0 C 269.3 573.5 268.8 574.0 268.3 574.6 C 268.0 575.0 267.6 575.5 267.4 576.1 C 267.2 576.5 267.1 576.9 267.1 577.4 C 267.1 577.68 267.1 577.9 267.2 578.2 C 267.4 578.4 267.56 578.7 267.7 578.9 C 268 579.1 268.2 579.3 268.5 579.5 C 268.9 579.7 269.3 579.8 269.7 580.02 C 270.6 580.2 271.4 580.4 272.2 580.5 C 273.1 580.6 274.0 580.7 274.9 580.7 C 276.28 580.7 277.5 580.6 278.8 580.4 C 280.2 580.2 281.5 579.9 282.9 579.6 C 285.53 578.9 288.0 578.0 290.5 576.9 C 291.67 576.4 292.7 575.87 293.8 575.2 C 294.7 574.74 295.6 574.1 296.5 573.53 C 297.2 573.0 297.9 572.4 298.5 571.8 C 298.7 571.5 298.9 571.3 299.1 571.0 C 299.3 570.8 299.4 570.6 299.61 570.3 C 299.7 570.1 299.7 569.8 299.7 569.6 C 299.7 569.4 299.7 569.2 299.6 569.0 C 299.5 568.8 299.3 568.6 299.2 568.43 C 299.0 568.2 298.7 568.0 298.5 567.8 C 298.23 567.66 297.9 567.4 297.5 567.3 C 296.7 566.9 295.8 566.7 294.9 566.5 C 293.7 566.4 292.5 566.3 291.4 566.3 C 289.94 566.3 288.4 566.4 286.99 566.6 C 285.2 566.9 283.6 567.31 281.9 567.8 L 281.9 567.8 Z " fill-rule="evenodd" fill="rgb(0,0,0)"/>


<path d=" M 80 564 L 81 564 Q 80 565 79 566 C 78 566 77 566 76 566 C 75 566 74 566 73 565 C 72 565 71 564 70 563 C 70 562 69 560 69 559 C 68 558 68 556 68 555 Q 68 553 69 551 Q 68 553 69 555 C 69 556 69 558 69 559 C 70 560 70 561 71 562 C 72 563 72 564 73 565 C 74 565 75 566 76 566 C 77.6 566 78 566 78 565 C 79 565 80 565 80 564 Z " fill="rgb(0,0,0)"/>

<path d=" M 91 585 L 92 585 L 91 586 L 91 586 C 90 585 89 584 89 583 C 88 582 87 581 87 580 C 86 579 85 577 85 576 C 84 574 84 572 83 571 L 83 570 L 84 570 L 84 570 C 84 572 85 574 85 576 C 86 577 86 578 87 580 C 88 581 88 582 89 583 C 90 584 90 585 91 585 Z " fill="rgb(0,0,0)"/>

<path d=" M 121 582 L 121 583 L 121 583 C 118 581 116 579 113 576 C 113 573 112 570 111 567 C 110 564 109 560 108 557 L 108 557 L 108 557 C 110 560 111 563 112 567 C 113 570 113 573 114 576 C 116 578 119 580 121 582 Z " fill="rgb(0,0,0)"/>

<path d=" M 182 579 L 183 579 L 182 580 L 182 579 C 181 578 181 577 181 576 C 180 575 180 574 180 573 C 180 571 180 569 181 567 L 181 566 L 182 567 L 182 567 C 181 569 181 571 181 573 C 181 574 181 575 181 576 C 181 577 182 578 182 579 Z " fill="rgb(0,0,0)"/>

<path d=" M 154 585 L 154 584 L 155 584 L 155 584 L 164 597 C 164 597 164 597 164 597 C 164 597 164 597 163 597 C 162 598 161 598 160 598 C 159 598 158 598 157 599 C 156 599 156 599 155 600 C 154 600 153 601 153 601 C 152 602 151 603 150 605 C 150 605 149 606 149 607 C 149 608 149 609 149 610 C 148 609 147 609 146 608 C 145 607 144 606 144 605 C 143 605 143 604 143 603 C 142 602 142 601 142 600 L 142 599 L 142 599 L 142 599 C 143 600 143 601 143 602 C 143 603 144 604 144 605 C 145 606 145 607 146 607 C 147 608 147 608 148 609 C 148 608 148 607 149 607 C 149 606 149 605 149 604 C 150 603 151 602 152 601 C 153 600 154 600 155 599.8 C 155 599 156 598 157 598 C 158 598 159 598 160 597.9 C 161 597 162 597 163 597 L 154 585 Z " fill="rgb(0,0,0)"/>

<path d=" M 255 593 L 255 593 L 255 593 L 255 593 L 337 583 L 436 593 L 436 593.4 L 436 593 L 435 593 L 337 584 L 255 593 Z " fill="rgb(0,0,0)"/>

<path d=" M 261 565 L 261 565 L 261 564 L 261 564 C 272 562 283 560 294 559 C 305 557 317 556 328 555 L 328 555 L 328.9 556 L 328 556 C 317 557 305 558 294 559 C 283 561 272 563 261 565 Z " fill="rgb(0,0,0)"/>

<path d=" M 336.5 563.0 L 336.5 563.2 L 336.0 563.3 L 336.0 563.0 C 335.6 550.73 335.2 538.4 334.9 526.0 C 334.7 514.89 334.6 503.6 334.59 492.4 C 334.5 483.8 334.6 475.2 334.8 466.6 C 335.0 458.8 335.4 450.9 335.8 443.1 L 335.8 442.8 L 336.41 442.93 L 336.3 443.1 C 335.9 451.0 335.6 458.8 335.4 466.6 C 335.2 475.2 335.1 483.8 335.1 492.4 C 335.1 503.6 335.2 514.8 335.5 526.0 C 335.7 538.4 336.14 550.7 336.5 563.0 Z " fill="rgb(0,0,0)"/>

<path d=" M 342.5 457.9 L 342.3 457.8 L 342.4 457.3 L 342.7 457.4 C 343.0 457.4 343.2 457.5 343.5 457.5 C 343.8 457.61 344.2 457.6 344.5 457.6 C 345.2 457.62 345.8 457.5 346.51 457.5 C 347.2 457.4 348.06 457.3 348.8 457.1 C 350.7 456.8 352.5 456.5 354.4 456.15 C 356.0 455.8 357.6 455.5 359.2 455.2 C 360.9 454.9 362.6 454.6 364.3 454.3 C 366.1 454.1 367.9 453.9 369.75 453.7 C 371.5 453.5 373.4 453.5 375.2 453.5 C 377.2 453.5 379.1 453.6 381.1 453.8 C 383.1 454.1 385.1 454.5 387.0 455.11 C 385.2 460.2 383.7 465.4 382.4 470.7 C 381.0 476.1 380.0 481.6 379.1 487.16 C 378.3 492.95 377.6 498.7 377.2 504.6 C 376.8 510.7 376.5 516.9 376.5 523.1 C 376.5 526.8 376.6 530.4 376.8 534.1 L 376.8 534.4 L 376.2 534.4 L 376.2 534.2 C 376.1 530.51 376.06 526.81 376.06 523.1 C 376.0 516.9 376.2 510.7 376.7 504.5 C 377.1 498.7 377.7 492.8 378.6 487.0 C 379.4 481.5 380.5 476.0 381.9 470.6 C 383.1 465.5 384.6 460.4 386.3 455.46 C 384.6 454.9 382.8 454.6 381.0 454.3 C 379.1 454.1 377.1 454.0 375.2 454.0 C 373.4 454.0 371.6 454.1 369.7 454.2 C 368.0 454.4 366.2 454.6 364.4 454.9 C 362.7 455.1 361.0 455.45 359.3 455.7 C 357.7 456.0 356.1 456.3 354.55 456.67 C 352.6 457.0 350.8 457.3 348.9 457.7 C 348.1 457.8 347.3 457.9 346.5 458.04 C 345.91 458.1 345.2 458.1 344.5 458.1 C 344.2 458.1 343.8 458.1 343.5 458.0 C 343.1 458.0 342.89 458.0 342.5 457.9 Z " fill="rgb(0,0,0)"/>

<path d=" M 347.0 539.8 L 347.0 540.1 L 346.5 540.1 L 346.4 539.8 C 346.2 534.3 346.0 528.8 345.8 523.3 C 345.7 517.3 345.6 511.42 345.6 505.4 C 345.6 497.5 345.7 489.5 345.9 481.6 C 346.2 473.0 346.5 464.3 346.8 455.7 L 346.9 455.4 L 347.4 455.4 L 347.4 455.7 C 347.0 464.3 346.7 473.0 346.5 481.6 C 346.3 489.58 346.2 497.5 346.2 505.4 C 346.2 511.42 346.2 517.3 346.4 523.3 C 346.5 528.8 346.7 534.3 347.0 539.8 Z " fill="rgb(0,0,0)"/>

<path d=" M 346.3 536.0 L 346.0 536.1 L 345.9 535.5 L 346.2 535.5 C 350.1 534.58 354.1 534.1 358.1 534.1 C 361.0 534.1 363.9 534.3 366.8 534.8 C 369.93 535.3 372.9 536.1 375.8 537.08 L 376.1 537.1 L 375.9 537.6 L 375.6 537.5 C 372.7 536.6 369.8 535.88 366.8 535.3 C 363.9 534.8 361.02 534.6 358.1 534.6 C 354.1 534.6 350.1 535.1 346.3 536.0 Z " fill="rgb(0,0,0)"/>

<path d=" M 438.707 540.094 L 438.972 540.126 L 438.908 540.652 L 438.643 540.62 L 424 538.778 C 423.931 538.773 423.868 538.736 423.825 538.683 C 423.783 538.63 423.761 538.555 423.772 538.486 C 425.348 524.311 427.354 510.183 429.79 496.124 C 432.168 482.389 434.986 468.728 438.245 455.174 C 441.09 454.378 443.987 453.767 446.912 453.348 C 449.671 452.95 452.452 452.754 455.239 452.748 C 460.471 452.748 465.678 453.491 470.698 454.951 L 470.953 455.025 L 470.805 455.535 L 470.55 455.46 C 465.577 454.011 460.424 453.279 455.244 453.279 C 452.479 453.284 449.724 453.481 446.986 453.874 C 444.189 454.272 441.419 454.85 438.691 455.604 C 435.464 469.047 432.672 482.591 430.311 496.214 C 427.896 510.178 425.9 524.205 424.329 538.285 L 438.707 540.094 Z " fill="rgb(0,0,0)"/>

<path d=" M 440.914 540.052 L 440.84 540.307 L 440.331 540.158 L 440.405 539.903 C 444.852 524.661 449.512 509.477 454.384 494.362 C 458.938 480.229 463.719 466.17 468.729 452.196 L 468.82 451.942 L 469.319 452.122 L 469.228 452.372 C 464.224 466.345 459.442 480.399 454.888 494.521 C 450.022 509.636 445.362 524.81 440.914 540.052 Z " fill="rgb(0,0,0)"/>

<path d=" M 340.736 427.385 L 340.47 427.433 L 340.38 426.908 L 340.645 426.865 C 350.809 425.098 361.009 423.569 371.241 422.269 C 381.702 420.948 392.184 419.854 402.692 418.995 C 413.439 418.114 424.207 417.455 434.986 417.026 C 446.025 416.585 457.075 416.367 468.124 416.373 C 472.959 416.373 477.794 416.41 482.634 416.495 L 482.9 416.495 L 482.889 417.026 L 482.624 417.026 C 477.789 416.941 472.959 416.904 468.124 416.904 C 457.08 416.898 446.041 417.116 435.007 417.556 C 424.234 417.986 413.476 418.639 402.734 419.52 C 392.237 420.385 381.76 421.473 371.31 422.8 C 361.083 424.095 350.888 425.623 340.736 427.385 Z " fill="rgb(0,0,0)"/>

<path d=" M 390.926 454.765 L 390.666 454.733 L 390.724 454.208 L 390.989 454.24 C 391.425 454.287 391.86 454.314 392.295 454.309 C 392.905 454.309 393.51 454.282 394.121 454.229 C 394.837 454.171 395.554 454.102 396.27 454.017 C 397.968 453.805 399.667 453.576 401.36 453.322 C 404.04 452.924 406.725 452.568 409.416 452.265 C 410.833 452.112 412.255 451.984 413.678 451.894 C 415.1 451.798 416.522 451.751 417.95 451.751 C 420.11 451.729 422.265 451.883 424.398 452.202 C 425.412 452.361 426.41 452.573 427.397 452.839 C 428.421 453.12 429.419 453.475 430.385 453.905 C 429.822 455.842 429.318 457.79 428.867 459.754 C 428.315 462.163 427.795 464.578 427.312 467.004 C 426.739 469.869 426.192 472.735 425.667 475.607 C 425.083 478.839 424.51 482.071 423.963 485.308 C 422.742 492.51 421.564 499.717 420.434 506.935 L 416.878 529.793 L 413.673 550.454 C 412.722 556.525 411.735 562.586 410.706 568.642 C 410.276 571.189 409.825 573.731 409.358 576.274 C 408.965 578.402 408.551 580.525 408.116 582.642 C 407.781 584.287 407.405 585.917 406.996 587.541 C 406.842 588.156 406.672 588.767 406.487 589.377 C 406.349 589.849 406.189 590.311 406.014 590.768 L 405.919 591.017 L 405.42 590.826 L 405.515 590.576 C 405.69 590.131 405.844 589.68 405.977 589.223 C 406.157 588.623 406.327 588.018 406.481 587.413 C 406.89 585.795 407.261 584.171 407.596 582.536 C 408.031 580.424 408.445 578.301 408.832 576.178 C 409.299 573.641 409.75 571.099 410.186 568.552 C 411.21 562.501 412.197 556.441 413.147 550.374 L 416.353 529.713 L 419.908 506.85 C 421.039 499.632 422.217 492.42 423.438 485.218 C 423.99 481.98 424.558 478.743 425.147 475.511 C 425.667 472.64 426.219 469.769 426.792 466.897 C 427.275 464.472 427.795 462.052 428.352 459.637 C 428.766 457.817 429.233 456.007 429.748 454.208 C 428.936 453.868 428.108 453.582 427.259 453.353 C 426.293 453.088 425.311 452.881 424.319 452.727 C 422.212 452.414 420.084 452.26 417.95 452.281 C 416.538 452.281 415.121 452.329 413.715 452.425 C 412.298 452.515 410.881 452.637 409.474 452.791 C 406.789 453.099 404.109 453.449 401.439 453.847 C 399.741 454.102 398.037 454.335 396.334 454.542 C 395.612 454.627 394.89 454.701 394.163 454.76 C 393.542 454.808 392.921 454.839 392.3 454.839 C 391.839 454.845 391.382 454.818 390.926 454.765 Z " fill="rgb(0,0,0)"/>

<path d=" M 392.592 460.423 L 392.338 460.476 L 392.226 459.956 L 392.486 459.903 C 393.479 459.696 394.476 459.558 395.485 459.494 C 396.758 459.409 398.032 459.366 399.311 459.372 C 400.951 459.377 402.591 459.42 404.231 459.504 C 406.078 459.595 407.925 459.717 409.766 459.865 C 413.922 460.21 418.067 460.63 422.206 461.134 C 419.595 472.178 417.223 483.286 415.09 494.431 C 413.057 505.056 411.258 515.718 409.697 526.418 C 408.158 536.958 406.847 547.53 405.759 558.128 C 404.661 568.838 403.764 579.569 403.069 590.316 L 403.047 590.582 L 402.522 590.545 L 402.538 590.279 C 403.233 579.527 404.13 568.79 405.229 558.07 C 406.322 547.466 407.633 536.889 409.172 526.343 C 410.732 515.633 412.531 504.961 414.564 494.336 C 416.666 483.371 418.996 472.454 421.554 461.585 C 417.616 461.118 413.673 460.72 409.724 460.396 C 407.888 460.247 406.046 460.125 404.204 460.035 C 402.575 459.95 400.94 459.908 399.306 459.903 C 398.043 459.897 396.78 459.94 395.522 460.025 C 394.54 460.088 393.558 460.221 392.592 460.423 Z " fill="rgb(0,0,0)"/>

<path d=" M 377.61 578.322 L 377.584 578.582 L 377.053 578.524 L 377.085 578.258 C 379.664 556.441 382.36 534.633 385.173 512.842 L 393.006 455.015 L 393.043 454.755 L 393.569 454.829 L 393.532 455.089 L 385.698 512.906 L 377.61 578.322 Z " fill="rgb(0,0,0)"/>

<path d=" M 373.63 560.288 L 373.895 560.309 L 373.858 560.84 L 373.592 560.819 C 367.521 560.363 361.466 559.795 355.415 559.11 C 350.071 558.51 344.737 557.778 339.425 556.923 L 339.165 556.881 L 339.25 556.361 L 339.51 556.403 C 344.817 557.258 350.135 557.985 355.474 558.585 C 361.513 559.269 367.569 559.837 373.63 560.288 Z " fill="rgb(0,0,0)"/>

<path d=" M 411.974 565.065 L 411.709 565.033 L 411.767 564.508 L 412.027 564.539 L 447.299 568.43 L 447.564 568.456 L 447.506 568.987 L 447.241 568.955 L 411.974 565.065 Z " fill="rgb(0,0,0)"/>

<path d=" M 390.018 569.884 L 389.997 570.149 L 389.466 570.107 L 389.488 569.841 C 390.3 559.959 391.297 550.093 392.497 540.248 C 393.632 530.908 394.917 521.578 396.35 512.279 C 397.719 503.411 399.189 494.559 400.76 485.727 C 402.262 477.273 403.817 468.835 405.425 460.401 L 405.473 460.141 L 405.993 460.237 L 405.945 460.497 C 404.342 468.93 402.787 477.369 401.28 485.818 C 399.715 494.649 398.244 503.496 396.875 512.359 C 395.442 521.657 394.158 530.977 393.022 540.312 C 391.828 550.152 390.825 560.012 390.018 569.884 Z " fill="rgb(0,0,0)"/>

<path d=" M 146.768 598.182 L 146.699 597.927 L 147.214 597.789 L 147.277 598.049 C 147.612 599.302 148.031 600.528 148.54 601.722 C 148.753 602.221 148.986 602.709 149.236 603.192 C 149.145 602.783 149.066 602.369 148.992 601.955 C 148.827 600.995 148.737 600.023 148.737 599.047 C 148.732 598.028 148.843 597.014 149.061 596.016 C 149.204 597.508 149.602 598.962 150.244 600.315 C 150.589 601.032 151.035 601.7 151.571 602.29 L 151.751 602.486 L 151.359 602.841 L 151.183 602.645 C 150.61 602.019 150.133 601.308 149.766 600.538 C 149.581 600.151 149.416 599.753 149.268 599.349 C 149.289 600.193 149.368 601.037 149.517 601.865 C 149.804 603.553 150.276 605.198 150.923 606.785 C 149.761 605.299 148.795 603.664 148.052 601.929 C 147.532 600.713 147.102 599.461 146.768 598.182 Z " fill="rgb(0,0,0)"/>

<path d=" M 121.988 650.988 L 122.158 651.195 L 121.75 651.53 L 121.58 651.323 C 121.293 650.978 121.076 650.58 120.927 650.16 C 120.778 649.736 120.709 649.285 120.709 648.839 C 120.72 648.128 120.869 647.427 121.134 646.769 C 121.452 645.989 121.866 645.246 122.371 644.572 C 122.97 643.755 123.639 642.99 124.366 642.29 C 125.226 641.467 126.139 640.698 127.099 639.997 L 127.317 639.838 L 127.63 640.268 L 127.412 640.422 C 126.473 641.112 125.576 641.865 124.738 642.672 C 124.026 643.351 123.379 644.089 122.795 644.885 C 122.323 645.527 121.93 646.228 121.628 646.971 C 121.383 647.565 121.251 648.202 121.24 648.844 C 121.24 649.232 121.304 649.619 121.426 649.985 C 121.553 650.352 121.744 650.691 121.988 650.988 Z " fill="rgb(0,0,0)"/>

<path d=" M 92.38 641.319 L 92.141 641.435 L 91.902 640.963 L 92.141 640.841 C 94.826 639.52 97.639 638.463 100.531 637.689 C 103.376 636.935 106.295 636.473 109.235 636.314 L 109.501 636.303 L 109.527 636.834 L 109.262 636.845 C 106.359 637.004 103.477 637.455 100.664 638.203 C 97.809 638.968 95.033 640.008 92.38 641.319 Z " fill="rgb(0,0,0)"/>

<path d=" M 94.619 640.247 L 94.402 640.093 L 94.709 639.658 L 94.927 639.811 C 95.484 640.204 95.999 640.655 96.461 641.154 C 96.896 641.616 97.268 642.136 97.57 642.688 C 97.867 643.235 98.09 643.813 98.233 644.418 C 98.382 645.039 98.456 645.681 98.456 646.323 C 98.446 647.311 98.302 648.287 98.037 649.237 C 97.724 650.352 97.31 651.434 96.795 652.469 L 96.678 652.708 L 96.201 652.474 L 96.318 652.236 C 96.822 651.227 97.225 650.176 97.528 649.094 C 97.782 648.192 97.915 647.257 97.926 646.318 C 97.926 645.718 97.857 645.124 97.719 644.54 C 97.586 643.983 97.379 643.447 97.103 642.943 C 96.822 642.428 96.477 641.945 96.073 641.515 C 95.633 641.043 95.15 640.618 94.619 640.247 Z " fill="rgb(0,0,0)"/>

<path d=" M 96.795 642.916 L 96.54 642.99 L 96.392 642.481 L 96.647 642.407 C 97.804 642.067 98.982 641.78 100.171 641.558 C 102.187 641.181 104.231 640.926 106.284 640.799 C 104.209 641.43 102.198 642.247 100.271 643.235 C 99.73 643.511 99.194 643.808 98.669 644.121 C 99.109 643.988 99.56 643.871 100.011 643.765 C 100.972 643.532 101.959 643.383 102.946 643.33 L 103.212 643.314 L 103.243 643.845 L 102.978 643.861 C 102.017 643.914 101.068 644.052 100.133 644.28 C 98.287 644.721 96.498 645.352 94.789 646.175 C 96.413 644.859 98.17 643.712 100.033 642.762 C 100.723 642.407 101.423 642.078 102.134 641.765 C 101.508 641.86 100.887 641.966 100.266 642.083 C 99.099 642.3 97.936 642.582 96.795 642.916 Z " fill="rgb(0,0,0)"/>

<path d=" M 82.36 611.312 L 82.2 611.519 L 81.781 611.2 L 81.94 610.988 C 82.338 610.468 82.779 609.98 83.257 609.529 C 83.686 609.12 84.159 608.754 84.663 608.435 C 85.592 607.846 86.643 607.48 87.741 607.363 L 88.001 607.331 L 88.06 607.862 L 87.794 607.889 C 86.781 607.995 85.804 608.34 84.944 608.881 C 84.472 609.184 84.026 609.529 83.623 609.916 C 83.166 610.346 82.742 610.813 82.36 611.312 Z " fill="rgb(0,0,0)"/>

<path d=" M 83.023 613.578 L 82.917 613.817 L 82.434 613.599 L 82.54 613.355 C 82.763 612.877 83.055 612.432 83.405 612.034 C 83.787 611.604 84.217 611.216 84.684 610.877 C 85.162 610.532 85.677 610.245 86.223 610.017 C 86.749 609.789 87.301 609.645 87.868 609.582 L 88.129 609.555 L 88.187 610.08 L 87.927 610.107 C 87.412 610.165 86.908 610.298 86.43 610.505 C 85.921 610.717 85.443 610.988 84.997 611.312 C 84.557 611.625 84.159 611.986 83.803 612.389 C 83.485 612.739 83.219 613.143 83.023 613.578 Z " fill="rgb(0,0,0)"/>

<path d=" M 120.396 527.559 L 120.587 527.373 L 120.954 527.76 L 120.763 527.941 L 109.644 538.47 L 109.448 538.651 L 109.081 538.263 L 109.278 538.083 L 120.396 527.559 Z " fill="rgb(0,0,0)"/>

<path d=" M 122.684 530.276 L 122.875 530.09 L 123.246 530.467 L 123.055 530.653 L 113.041 540.588 L 112.855 540.774 L 112.478 540.397 L 112.669 540.211 L 122.684 530.276 Z " fill="rgb(0,0,0)"/>

<path d=" M 125.884 535.143 L 126.043 534.936 L 126.468 535.254 L 126.309 535.466 C 124.584 537.743 122.668 539.871 120.587 541.83 C 119.43 542.918 118.199 543.926 116.915 544.855 L 116.697 545.014 L 116.389 544.584 L 116.602 544.425 C 117.87 543.512 119.08 542.514 120.227 541.442 C 122.286 539.505 124.18 537.398 125.884 535.143 Z " fill="rgb(0,0,0)"/>

<g>

<g>

<path d=" M 302.126 616.375 L 302.364 616.258 L 302.603 616.73 L 302.364 616.847 L 288.964 623.55 L 288.725 623.672 L 288.486 623.195 L 288.725 623.078 L 302.126 616.375 Z " fill="rgb(0,0,0)"/>

<path d=" M 312.777 616.173 L 313.016 616.062 L 313.244 616.545 L 313.005 616.656 L 290.338 627.297 L 290.094 627.414 L 289.871 626.931 L 290.11 626.819 L 312.777 616.173 Z " fill="rgb(0,0,0)"/>

<path d=" M 324.994 619.135 L 325.233 619.018 L 325.467 619.495 L 325.228 619.612 L 290.338 636.76 L 290.1 636.877 L 289.866 636.399 L 290.105 636.282 L 324.994 619.135 Z " fill="rgb(0,0,0)"/>

<path d=" M 325.191 623.471 L 325.43 623.354 L 325.663 623.831 L 325.424 623.948 L 290.535 641.096 L 290.301 641.213 L 290.068 640.735 L 290.301 640.618 L 325.191 623.471 Z " fill="rgb(0,0,0)"/>

<path d=" M 325.387 627.414 L 325.626 627.297 L 325.859 627.769 L 325.621 627.886 L 290.736 645.039 L 290.498 645.156 L 290.264 644.678 L 290.503 644.561 L 325.387 627.414 Z " fill="rgb(0,0,0)"/>

<path d=" M 325.387 632.143 L 325.626 632.026 L 325.859 632.503 L 325.621 632.62 L 290.736 649.768 L 290.498 649.885 L 290.264 649.407 L 290.503 649.29 L 325.387 632.143 Z " fill="rgb(0,0,0)"/>

<path d=" M 309.025 643.972 L 309.259 643.85 L 309.503 644.323 L 309.269 644.445 L 297.047 650.75 L 296.813 650.872 L 296.569 650.399 L 296.803 650.277 L 309.025 643.972 Z " fill="rgb(0,0,0)"/>

<path d=" M 322.436 616.173 L 322.675 616.062 L 322.903 616.545 L 322.659 616.656 L 289.744 632.031 L 289.505 632.143 L 289.277 631.66 L 289.521 631.548 L 322.436 616.173 Z " fill="rgb(0,0,0)"/>

<path d=" M 299.764 614.406 L 300.003 614.284 L 300.236 614.761 L 300.003 614.878 L 286.597 621.581 L 286.358 621.698 L 286.124 621.226 L 286.358 621.104 L 299.764 614.406 Z " fill="rgb(0,0,0)"/>

<path d=" M 326.963 639.238 L 327.202 639.121 L 327.441 639.594 L 327.202 639.716 L 313.796 646.419 L 313.563 646.536 L 313.324 646.058 L 313.563 645.941 L 326.963 639.238 Z " fill="rgb(0,0,0)"/>

<path d=" M 326.767 635.099 L 327.006 634.982 L 327.239 635.454 L 327.006 635.576 L 313.6 642.279 L 313.361 642.396 L 313.127 641.918 L 313.361 641.802 L 326.767 635.099 Z " fill="rgb(0,0,0)"/>

<path d=" M 326.772 643.771 L 327.011 643.659 L 327.239 644.137 L 327.001 644.248 L 316.752 649.179 L 316.513 649.29 L 316.28 648.812 L 316.519 648.701 L 326.772 643.771 Z " fill="rgb(0,0,0)"/>

</g>

<g>

<path d=" M 382.392 616.72 L 382.631 616.603 L 382.864 617.081 L 382.625 617.197 L 372.372 622.123 L 372.133 622.239 L 371.905 621.762 L 372.144 621.645 L 382.392 616.72 Z " fill="rgb(0,0,0)"/>

<path d=" M 384.053 623.64 L 384.292 623.529 L 384.52 624.007 L 384.281 624.118 L 374.033 629.048 L 373.794 629.165 L 373.561 628.682 L 373.799 628.571 L 384.053 623.64 Z " fill="rgb(0,0,0)"/>

<path d=" M 384.488 628.252 L 384.727 628.136 L 384.961 628.619 L 384.722 628.73 L 374.468 633.66 L 374.229 633.772 L 374.001 633.294 L 374.24 633.183 L 384.488 628.252 Z " fill="rgb(0,0,0)"/>

<path d=" M 384.711 631.983 L 384.95 631.872 L 385.178 632.349 L 384.939 632.466 L 374.691 637.391 L 374.452 637.508 L 374.219 637.03 L 374.458 636.914 L 384.711 631.983 Z " fill="rgb(0,0,0)"/>

<path d=" M 384.929 635.937 L 385.167 635.82 L 385.396 636.303 L 385.157 636.415 L 374.909 641.345 L 374.67 641.457 L 374.442 640.979 L 374.68 640.868 L 384.929 635.937 Z " fill="rgb(0,0,0)"/>

<path d=" M 386.027 639.891 L 386.266 639.774 L 386.494 640.252 L 386.255 640.369 L 376.007 645.294 L 375.768 645.411 L 375.54 644.933 L 375.779 644.816 L 386.027 639.891 Z " fill="rgb(0,0,0)"/>

<path d=" M 386.685 643.404 L 386.924 643.288 L 387.152 643.765 L 386.914 643.882 L 376.665 648.807 L 376.427 648.924 L 376.198 648.446 L 376.437 648.33 L 386.685 643.404 Z " fill="rgb(0,0,0)"/>

<path d=" M 383.612 619.692 L 383.851 619.575 L 384.08 620.053 L 383.841 620.169 L 373.592 625.095 L 373.354 625.211 L 373.125 624.734 L 373.364 624.617 L 383.612 619.692 Z " fill="rgb(0,0,0)"/>

</g>

<g>

<path d=" M 332.43 396.46 L 332.669 396.343 L 332.897 396.821 L 332.658 396.938 L 322.41 401.863 L 322.171 401.98 L 321.937 401.502 L 322.182 401.385 L 332.43 396.46 Z " fill="rgb(0,0,0)"/>

<path d=" M 346.409 396.396 L 346.642 396.269 L 346.903 396.731 L 346.669 396.864 L 327.579 407.584 L 327.351 407.717 L 327.091 407.255 L 327.319 407.122 L 346.409 396.396 Z " fill="rgb(0,0,0)"/>

<path d=" M 356.923 397.165 L 357.136 397.028 L 357.411 397.455 L 357.197 397.592 L 329.958 414.807 L 329.744 414.944 L 329.475 414.512 L 329.689 414.38 L 356.923 397.165 Z " fill="rgb(0,0,0)"/>

<path d=" M 372.154 396.588 L 372.377 396.444 L 372.664 396.89 L 372.441 397.033 L 336.548 420.364 L 336.325 420.507 L 336.033 420.061 L 336.256 419.918 L 372.154 396.588 Z " fill="rgb(0,0,0)"/>

<path d=" M 385.401 396.55 L 385.624 396.407 L 385.911 396.853 L 385.688 396.996 L 349.795 420.321 L 349.572 420.47 L 349.28 420.024 L 349.503 419.876 L 385.401 396.55 Z " fill="rgb(0,0,0)"/>

<path d=" M 402.92 395.07 L 403.143 394.926 L 403.43 395.372 L 403.207 395.515 L 367.314 418.841 L 367.091 418.989 L 366.799 418.543 L 367.022 418.4 L 402.92 395.07 Z " fill="rgb(0,0,0)"/>

<path d=" M 417.244 394.305 L 417.462 394.162 L 417.754 394.608 L 417.531 394.751 L 381.633 418.082 L 381.415 418.225 L 381.123 417.779 L 381.346 417.636 L 417.244 394.305 Z " fill="rgb(0,0,0)"/>

<path d=" M 433.665 391.636 L 433.888 391.487 L 434.174 391.933 L 433.951 392.076 L 398.059 415.407 L 397.836 415.55 L 397.544 415.104 L 397.767 414.961 L 433.665 391.636 Z " fill="rgb(0,0,0)"/>

<path d=" M 451.301 387.889 L 451.523 387.746 L 451.81 388.192 L 451.587 388.34 L 413.142 413.114 L 412.919 413.257 L 412.632 412.812 L 412.855 412.668 L 451.301 387.889 Z " fill="rgb(0,0,0)"/>

<path d=" M 463.454 387.624 L 463.677 387.48 L 463.964 387.926 L 463.741 388.069 L 427.848 411.395 L 427.625 411.538 L 427.333 411.097 L 427.556 410.949 L 463.454 387.624 Z " fill="rgb(0,0,0)"/>

<path d=" M 474.721 391.827 L 474.939 391.678 L 475.231 392.124 L 475.008 392.267 L 443.839 412.7 L 443.616 412.849 L 443.324 412.403 L 443.547 412.26 L 474.721 391.827 Z " fill="rgb(0,0,0)"/>

<path d=" M 481.207 397.368 L 481.424 397.214 L 481.727 397.654 L 481.509 397.803 L 461.602 411.554 L 461.384 411.702 L 461.082 411.267 L 461.299 411.113 L 481.207 397.368 Z " fill="rgb(0,0,0)"/>

<path d=" M 486.7 404.426 L 486.923 404.283 L 487.214 404.723 L 486.992 404.872 L 473.628 413.656 L 473.405 413.804 L 473.113 413.358 L 473.336 413.21 L 486.7 404.426 Z " fill="rgb(0,0,0)"/>

<path d=" M 484.11 415.959 L 483.876 416.086 L 483.621 415.619 L 483.855 415.492 L 490.155 412.058 L 490.388 411.931 L 490.643 412.392 L 490.409 412.52 L 484.11 415.959 Z " fill="rgb(0,0,0)"/>

</g>

</g>

<path d=" M 129.042 541.66 L 129.228 541.464 L 129.61 541.83 L 129.429 542.021 L 121.028 550.937 L 120.842 551.128 L 120.46 550.767 L 120.64 550.571 L 129.042 541.66 Z " fill="rgb(0,0,0)"/>

<path d=" M 131.356 554.71 L 131.557 554.541 L 131.902 554.944 L 131.701 555.114 L 125.502 560.378 L 125.3 560.548 L 124.961 560.145 L 125.162 559.975 L 131.356 554.71 Z " fill="rgb(0,0,0)"/>

<path d=" M 112.828 576.345 C 112.555 574.985 113.022 573.744 113.869 573.574 C 114.716 573.404 115.625 574.37 115.897 575.73 C 116.17 577.089 115.703 578.331 114.856 578.501 C 114.009 578.67 113.1 577.704 112.828 576.345 Z " fill="rgb(0,0,0)"/>

<ellipse vector-effect="non-scaling-stroke" cx="443.19288318927437" cy="607.0355967167716" rx="4.972246049590467" ry="6.629661399453994" fill="rgb(0,0,0)"/>

<path d=" M 107.029 537.417 L 117.809 525.024 L 113.48 523.071 L 108.133 527.655 L 105.247 538.096 L 107.029 537.417 Z " fill="rgb(0,0,0)"/>

<ellipse vector-effect="non-scaling-stroke" cx="98.27124375778678" cy="654.7024374675863" rx="49.67279661519916" ry="1.6838236140745266" fill="rgb(0,0,0)"/>

<path d=" M 94.062 624.5 L 94.248 624.691 L 93.866 625.057 L 93.68 624.866 C 92.613 623.762 91.695 622.521 90.947 621.173 C 90.135 619.697 89.482 618.137 89.004 616.518 C 88.458 614.687 88.07 612.814 87.842 610.914 C 87.571 608.738 87.444 606.551 87.455 604.359 C 87.46 601.923 87.582 599.487 87.821 597.062 C 88.086 594.318 88.452 591.58 88.914 588.862 L 88.962 588.602 L 89.482 588.692 L 89.439 588.953 C 88.978 591.659 88.611 594.382 88.346 597.115 C 88.113 599.524 87.991 601.939 87.985 604.359 C 87.975 606.53 88.102 608.695 88.367 610.85 C 88.596 612.718 88.978 614.565 89.514 616.369 C 89.981 617.946 90.618 619.474 91.414 620.918 C 92.135 622.223 93.027 623.428 94.062 624.5 Z " fill="rgb(0,0,0)"/>

<path d=" M 102.193 586.723 L 102.453 586.702 L 102.495 587.233 L 102.23 587.249 L 85.231 588.464 C 85.167 588.47 85.098 588.448 85.045 588.406 C 84.997 588.369 84.96 588.31 84.95 588.241 C 84.939 588.178 84.955 588.109 84.987 588.056 C 85.024 588.003 85.082 587.96 85.146 587.944 C 88.484 587.063 91.796 586.06 95.06 584.935 C 96.445 584.452 97.819 583.937 99.178 583.385 C 100.383 582.897 101.572 582.372 102.739 581.809 L 102.983 581.692 L 103.212 582.17 L 102.973 582.287 C 101.789 582.855 100.595 583.385 99.38 583.873 C 98.011 584.431 96.631 584.951 95.235 585.434 C 92.809 586.272 90.358 587.042 87.89 587.742 L 102.193 586.723 Z " fill="rgb(0,0,0)"/>

<path d=" M 77.695 546.134 L 78.172 546.771 L 76.904 547.731 L 76.426 547.1 C 74.977 545.195 73.857 543.061 73.104 540.79 C 72.425 538.683 72.08 536.48 72.085 534.262 C 72.085 532.765 72.233 531.274 72.515 529.804 C 72.796 528.328 73.199 526.879 73.719 525.473 C 74.765 522.66 76.182 519.996 77.939 517.555 C 79.61 515.193 81.564 513.044 83.75 511.149 C 84.769 510.268 85.841 509.451 86.961 508.713 C 88.001 508.023 89.094 507.418 90.23 506.898 C 91.079 506.51 91.966 506.208 92.878 505.99 C 93.675 505.799 94.497 505.698 95.32 505.698 C 96.28 505.693 97.241 505.842 98.154 506.139 C 99.019 506.425 99.842 506.834 100.59 507.349 C 101.328 507.864 102.002 508.458 102.607 509.122 C 103.212 509.79 103.764 510.507 104.247 511.266 C 105.466 513.69 106.165 517.095 106.311 521.45 C 105.274 516.696 103.767 513.488 102.904 512.12 C 102.469 511.435 101.975 510.793 101.428 510.194 C 100.903 509.615 100.319 509.1 99.682 508.66 C 99.061 508.23 98.377 507.89 97.66 507.651 C 96.907 507.407 96.121 507.285 95.325 507.291 C 94.625 507.291 93.929 507.375 93.245 507.535 C 92.438 507.731 91.647 508.002 90.894 508.347 C 89.832 508.83 88.813 509.398 87.842 510.04 C 86.775 510.74 85.756 511.515 84.796 512.348 C 82.699 514.163 80.836 516.223 79.234 518.483 C 77.562 520.808 76.209 523.345 75.211 526.025 C 74.723 527.352 74.346 528.716 74.08 530.101 C 73.815 531.475 73.677 532.866 73.677 534.267 C 73.672 536.31 73.99 538.348 74.622 540.296 C 75.317 542.398 76.352 544.372 77.695 546.134 Z " fill="rgb(0,0,0)"/>

<path d=" M 332.338 429.406 L 332.302 429.184 C 331.798 425.979 331.114 422.805 330.249 419.679 C 329.479 416.904 328.524 414.181 327.388 411.533 C 326.374 409.171 325.175 406.894 323.8 404.723 C 322.558 402.76 321.141 400.918 319.56 399.22 C 318.1 397.649 316.487 396.232 314.736 394.99 C 313.069 393.807 311.275 392.804 309.391 392.002 C 307.523 391.206 305.575 390.612 303.58 390.224 C 301.526 389.826 299.44 389.63 297.349 389.63 C 294.871 389.64 292.398 389.885 289.962 390.362 C 287.324 390.882 284.734 391.615 282.213 392.549 C 279.464 393.573 276.789 394.783 274.204 396.168 C 271.381 397.686 268.648 399.369 266.026 401.205 C 263.165 403.2 260.416 405.344 257.779 407.627 C 254.929 410.094 252.185 412.69 249.568 415.407 C 246.75 418.336 244.054 421.378 241.491 424.525 C 239.989 426.366 238.529 428.24 237.102 430.14 C 238.444 429.173 240.327 428.354 242.722 427.651 C 239.448 429.744 236.378 432.241 233.482 435.113 C 233.334 435.229 233.148 435.293 232.957 435.288 C 232.766 435.277 232.58 435.203 232.442 435.075 C 232.299 434.943 232.214 434.768 232.193 434.577 C 232.171 434.385 232.219 434.194 232.331 434.035 C 234.836 430.432 237.479 426.924 240.254 423.516 C 242.849 420.337 245.577 417.264 248.422 414.303 C 251.076 411.554 253.846 408.922 256.738 406.422 C 259.419 404.108 262.21 401.927 265.113 399.899 C 267.788 398.026 270.569 396.312 273.451 394.767 C 276.099 393.345 278.843 392.103 281.661 391.057 C 284.262 390.092 286.936 389.338 289.659 388.802 C 292.191 388.303 294.765 388.048 297.344 388.038 C 299.541 388.038 301.733 388.245 303.882 388.659 C 305.989 389.067 308.043 389.699 310.017 390.537 C 312.002 391.386 313.897 392.443 315.659 393.69 C 317.495 394.995 319.194 396.487 320.727 398.132 C 322.373 399.905 323.853 401.826 325.148 403.869 C 326.565 406.114 327.807 408.465 328.853 410.906 C 330.015 413.618 330.997 416.41 331.782 419.255 C 332.153 420.596 332.492 421.946 332.779 423.308 L 332.338 429.406 L 332.338 429.406 Z " fill="rgb(0,0,0)"/>

<path d=" M 261.647 559.118 C 259.201 571.52 255.595 583.666 250.879 595.395 L 264.275 599.132 L 265.039 599.349 L 264.614 600.883 L 263.845 600.666 L 249.59 596.69 C 249.372 596.627 249.192 596.478 249.091 596.271 C 248.99 596.069 248.985 595.831 249.07 595.624 C 254.271 582.849 258.145 569.571 260.623 556 L 260.747 555.325 L 261.647 559.118 L 261.647 559.118 Z " fill="rgb(0,0,0)"/>

<path d=" M 237.748 442.953 C 239.841 450.616 241.746 458.334 243.465 466.091 C 245.726 476.307 247.732 486.577 249.478 496.894 C 251.357 508.023 252.997 519.189 254.393 530.388 C 255.895 542.424 257.168 554.487 258.214 566.572 L 258.278 567.368 L 259.864 567.23 L 259.795 566.434 C 258.75 554.328 257.476 542.249 255.974 530.191 C 254.573 518.966 252.933 507.779 251.044 496.628 C 249.298 486.285 247.286 475.989 245.02 465.746 C 242.988 456.566 240.691 447.445 238.13 438.401 L 237.748 442.953 L 237.748 442.953 Z " fill="rgb(0,0,0)"/>

<path d=" M 315.659 395.176 L 314.868 395.107 L 315.006 393.52 L 315.797 393.589 C 324.395 394.332 333.008 394.905 341.627 395.298 C 349.853 395.669 358.09 395.86 366.327 395.866 C 374.638 395.871 382.949 395.659 391.25 395.229 C 399.152 394.815 407.044 394.178 414.909 393.313 C 422.403 392.485 429.865 391.424 437.295 390.118 C 444.438 388.871 451.534 387.364 458.571 385.612 C 460.997 386.037 463.396 386.61 465.747 387.332 C 467.886 387.985 469.971 388.791 471.993 389.736 C 473.893 390.633 475.724 391.673 477.46 392.862 C 479.126 394.003 480.697 395.287 482.141 396.704 C 483.568 398.105 484.874 399.629 486.031 401.263 C 487.204 402.924 488.239 404.686 489.114 406.528 C 490.027 408.449 490.786 410.439 491.391 412.483 C 492.055 414.733 492.559 417.031 492.898 419.355 C 489.061 428.012 485.352 436.726 481.769 445.493 C 478.41 453.709 475.183 461.988 472.094 470.31 C 469.175 478.165 466.405 486.072 463.778 494.023 C 461.305 501.511 458.985 509.047 456.825 516.631 C 454.793 523.753 452.93 530.918 451.232 538.131 C 449.639 544.887 448.228 551.685 447.002 558.516 C 445.85 564.911 444.889 571.343 444.125 577.797 C 443.414 583.831 442.91 589.892 442.613 595.963 C 442.602 596.138 442.538 596.308 442.422 596.441 C 442.305 596.579 442.146 596.669 441.976 596.701 L 425.401 600.018 L 424.621 600.172 L 424.308 598.612 L 425.088 598.458 L 441.052 595.263 C 441.355 589.361 441.854 583.475 442.544 577.606 C 443.313 571.12 444.274 564.661 445.431 558.234 C 446.667 551.372 448.084 544.547 449.682 537.764 C 451.386 530.531 453.254 523.34 455.292 516.196 C 457.462 508.591 459.787 501.033 462.265 493.524 C 464.898 485.552 467.679 477.629 470.598 469.758 C 473.697 461.415 476.929 453.125 480.294 444.888 C 483.823 436.254 487.48 427.667 491.259 419.133 C 490.929 417.036 490.462 414.966 489.863 412.934 C 489.284 410.97 488.552 409.059 487.676 407.213 C 486.838 405.456 485.856 403.774 484.731 402.181 C 483.627 400.626 482.39 399.177 481.026 397.84 C 479.646 396.492 478.155 395.266 476.558 394.173 C 474.896 393.037 473.14 392.034 471.314 391.18 C 469.361 390.261 467.344 389.487 465.285 388.855 C 463.099 388.186 460.875 387.645 458.625 387.242 C 451.661 388.966 444.635 390.447 437.566 391.689 C 430.109 392.995 422.61 394.067 415.079 394.895 C 407.187 395.765 399.269 396.407 391.334 396.816 C 383.007 397.251 374.665 397.463 366.327 397.458 C 358.064 397.453 349.806 397.262 341.553 396.885 C 332.913 396.492 324.278 395.924 315.659 395.176 Z " fill="rgb(0,0,0)"/>

<path d=" M 107.707 526.805 L 108.163 526.152 L 109.469 527.065 L 109.007 527.718 C 108.015 529.14 106.916 530.483 105.717 531.736 C 104.469 533.057 103.159 534.315 101.789 535.504 C 100.505 536.629 99.173 537.69 97.793 538.693 C 96.678 539.521 95.511 540.28 94.296 540.965 L 93.606 541.352 L 92.82 539.967 L 93.515 539.574 C 94.672 538.921 95.787 538.2 96.854 537.409 C 98.196 536.432 99.491 535.398 100.744 534.304 C 102.076 533.147 103.35 531.927 104.56 530.642 C 105.706 529.443 106.757 528.164 107.707 526.805 Z " fill="rgb(0,0,0)"/>

<path d=" M 99.926 615.887 L 99.215 615.526 L 99.932 614.103 L 100.643 614.464 C 102.293 615.297 103.891 616.242 105.419 617.288 C 106.879 618.291 108.269 619.395 109.57 620.599 C 112.276 623.104 114.548 626.045 116.294 629.298 C 114.553 630.481 112.913 631.814 111.401 633.284 C 109.994 634.648 108.689 636.107 107.489 637.657 C 106.215 639.307 105.043 641.032 103.981 642.831 C 103.217 644.121 102.5 645.442 101.832 646.785 C 104.262 645.644 106.725 644.588 109.225 643.617 C 111.799 642.614 114.42 641.743 117.085 641.011 C 119.208 640.422 121.362 639.971 123.544 639.652 C 125.274 639.403 127.025 639.27 128.771 639.265 C 130.873 639.259 132.969 639.488 135.018 639.944 C 135.479 640.045 135.936 640.183 136.376 640.358 C 136.748 640.501 137.103 640.698 137.427 640.937 C 137.724 641.149 137.974 641.43 138.16 641.749 C 138.34 642.067 138.436 642.428 138.436 642.794 C 138.425 643.171 138.335 643.542 138.17 643.882 C 137.995 644.232 137.777 644.561 137.512 644.859 C 137.215 645.198 136.891 645.511 136.541 645.793 C 136.132 646.127 135.708 646.435 135.267 646.716 C 134.169 647.411 133.027 648.022 131.839 648.542 C 130.363 649.195 128.856 649.773 127.322 650.272 C 125.512 650.866 123.676 651.381 121.819 651.816 C 119.706 652.31 117.578 652.729 115.434 653.058 C 110.493 653.817 105.504 654.199 100.505 654.189 C 99.836 654.189 99.168 654.183 98.499 654.173 L 97.703 654.157 L 97.735 652.565 L 98.531 652.581 C 99.189 652.591 99.847 652.596 100.505 652.596 C 105.425 652.607 110.334 652.236 115.19 651.482 C 117.297 651.158 119.383 650.755 121.452 650.267 C 123.268 649.837 125.061 649.338 126.829 648.759 C 128.315 648.276 129.769 647.719 131.197 647.082 C 132.311 646.594 133.383 646.026 134.407 645.373 C 134.8 645.124 135.177 644.853 135.538 644.556 C 135.819 644.328 136.084 644.078 136.323 643.802 C 136.488 643.617 136.631 643.404 136.743 643.182 C 136.801 643.054 136.838 642.916 136.843 642.778 C 136.838 642.693 136.817 642.614 136.78 642.539 C 136.705 642.412 136.605 642.306 136.488 642.221 C 136.276 642.062 136.042 641.934 135.793 641.839 C 135.432 641.696 135.055 641.579 134.673 641.499 C 132.741 641.064 130.761 640.852 128.776 640.857 C 127.105 640.862 125.428 640.99 123.772 641.228 C 121.659 641.536 119.563 641.977 117.504 642.545 C 114.893 643.261 112.324 644.116 109.803 645.097 C 105.966 646.594 102.209 648.287 98.547 650.171 C 99.704 647.364 101.062 644.636 102.612 642.019 C 103.705 640.167 104.915 638.384 106.231 636.68 C 107.473 635.072 108.832 633.554 110.291 632.143 C 111.517 630.948 112.823 629.845 114.203 628.831 C 112.643 626.214 110.721 623.837 108.487 621.767 C 107.245 620.615 105.918 619.559 104.517 618.604 C 103.052 617.595 101.513 616.688 99.926 615.887 Z " fill="rgb(0,0,0)"/>

<path d=" M 132.2 604.948 L 131.467 605.256 L 130.846 603.791 L 131.579 603.484 L 131.924 603.335 C 134.285 602.332 136.647 601.34 139.014 600.358 C 141.11 599.482 143.212 598.643 145.33 597.831 C 147.24 597.099 149.167 596.42 151.109 595.793 C 152.6 595.311 154.113 594.881 155.636 594.504 C 154.792 592.673 153.816 590.911 152.712 589.228 C 152.187 588.422 151.635 587.631 151.061 586.856 C 150.563 586.187 150.058 585.519 149.544 584.861 C 149.177 584.388 148.811 583.911 148.456 583.433 C 148.142 583.014 147.851 582.589 147.575 582.149 C 147.325 581.767 147.118 581.358 146.954 580.939 C 146.794 580.541 146.709 580.116 146.699 579.691 C 146.699 579.675 146.699 579.66 146.699 579.649 L 146.704 579.516 C 146.704 579.5 146.704 579.484 146.704 579.469 C 146.72 579.293 146.768 579.124 146.847 578.964 C 146.911 578.821 146.996 578.683 147.092 578.556 C 147.304 578.274 147.548 578.014 147.813 577.781 C 148.142 577.484 148.482 577.202 148.843 576.942 C 149.278 576.619 149.724 576.311 150.186 576.019 C 151.332 575.286 152.51 574.612 153.726 573.986 C 155.201 573.222 156.708 572.516 158.237 571.863 C 161.835 570.324 165.55 569.082 169.35 568.154 C 171.383 567.649 173.442 567.257 175.517 566.975 C 177.603 566.689 179.704 566.54 181.811 566.535 C 183.61 566.53 185.41 566.657 187.188 566.917 C 188.291 567.071 189.379 567.299 190.451 567.596 C 191.258 567.814 192.044 568.127 192.781 568.525 C 193.084 568.69 193.365 568.886 193.63 569.104 C 193.875 569.3 194.087 569.523 194.273 569.772 C 194.628 570.245 194.825 570.823 194.83 571.412 C 194.825 571.853 194.724 572.288 194.543 572.686 C 194.358 573.105 194.113 573.498 193.816 573.853 C 193.492 574.257 193.132 574.628 192.739 574.968 C 192.298 575.355 191.831 575.722 191.348 576.056 C 190.202 576.847 188.992 577.558 187.739 578.168 C 186.269 578.901 184.767 579.559 183.234 580.137 C 179.763 581.464 176.196 582.499 172.556 583.247 C 170.693 583.635 168.809 583.942 166.914 584.16 C 165.094 584.372 163.263 584.484 161.426 584.489 C 157.448 584.453 154.681 583.526 153.094 581.676 C 155.015 582.736 159.049 583.199 161.296 583.023 C 163.069 583.018 164.966 582.786 166.734 582.579 C 168.58 582.366 170.411 582.069 172.232 581.687 C 175.788 580.96 179.28 579.941 182.671 578.651 C 184.157 578.089 185.611 577.452 187.034 576.741 C 188.217 576.162 189.358 575.493 190.441 574.75 C 190.876 574.448 191.295 574.119 191.693 573.769 C 192.017 573.487 192.314 573.179 192.585 572.845 C 192.792 572.596 192.962 572.325 193.094 572.033 C 193.185 571.837 193.232 571.624 193.238 571.412 C 193.232 571.163 193.148 570.924 192.999 570.728 C 192.893 570.579 192.765 570.452 192.622 570.335 C 192.436 570.181 192.229 570.043 192.017 569.921 C 191.386 569.581 190.722 569.316 190.027 569.13 C 189.024 568.849 188 568.637 186.965 568.493 C 185.261 568.244 183.536 568.122 181.817 568.127 C 179.779 568.132 177.751 568.276 175.735 568.552 C 173.713 568.828 171.712 569.21 169.732 569.698 C 166.017 570.611 162.382 571.826 158.863 573.328 C 157.366 573.965 155.896 574.655 154.453 575.403 C 153.285 576.003 152.149 576.656 151.04 577.362 C 150.61 577.638 150.191 577.924 149.782 578.227 C 149.469 578.46 149.161 578.704 148.87 578.97 C 148.684 579.134 148.514 579.315 148.365 579.516 C 148.339 579.553 148.312 579.591 148.291 579.633 L 148.291 579.675 C 148.296 579.909 148.344 580.132 148.434 580.35 C 148.562 580.679 148.726 580.997 148.917 581.3 C 149.172 581.703 149.443 582.096 149.729 582.478 C 150.08 582.95 150.44 583.417 150.801 583.884 C 151.321 584.553 151.836 585.227 152.34 585.911 C 152.935 586.708 153.503 587.525 154.044 588.353 C 155.546 590.645 156.82 593.081 157.855 595.618 C 155.742 596.085 153.651 596.648 151.597 597.311 C 149.682 597.927 147.782 598.596 145.903 599.317 C 143.796 600.124 141.705 600.963 139.624 601.828 C 137.263 602.81 134.901 603.797 132.55 604.8 C 132.545 604.8 132.545 604.8 132.545 604.8 L 132.2 604.948 Z " fill="rgb(0,0,0)"/>

<path d=" M 103.143 620.509 L 103.328 619.734 L 104.878 620.111 L 104.687 620.886 C 104.363 622.202 103.902 623.476 103.302 624.697 C 102.66 626.039 101.89 627.318 101.009 628.523 C 100.144 629.728 99.136 630.826 98.011 631.798 C 97.475 632.254 96.901 632.668 96.296 633.034 C 95.601 633.453 94.858 633.782 94.078 634.011 C 92.889 633.236 91.78 632.344 90.766 631.352 C 89.811 630.418 88.925 629.409 88.123 628.337 C 87.29 627.223 86.526 626.05 85.846 624.829 C 85.141 623.555 84.504 622.239 83.952 620.891 C 82.779 618.015 81.908 615.027 81.346 611.97 C 80.746 608.717 80.444 605.41 80.449 602.098 C 80.449 597.126 81.102 592.179 82.397 587.382 C 81.786 586.702 81.24 585.98 80.752 585.216 C 80.088 584.176 79.504 583.088 79 581.968 C 78.4 580.631 77.87 579.267 77.408 577.876 C 76.856 576.215 76.368 574.538 75.943 572.845 L 75.747 572.07 L 77.291 571.683 L 77.488 572.458 C 77.902 574.114 78.385 575.754 78.921 577.377 C 79.361 578.715 79.876 580.026 80.454 581.315 C 80.927 582.366 81.473 583.385 82.094 584.362 C 82.689 585.291 83.384 586.156 84.169 586.936 C 82.758 591.866 82.036 596.972 82.041 602.098 C 82.036 605.315 82.328 608.52 82.912 611.683 C 83.453 614.629 84.291 617.511 85.422 620.286 C 85.953 621.576 86.558 622.839 87.242 624.054 C 87.884 625.211 88.606 626.326 89.397 627.387 C 90.151 628.39 90.979 629.335 91.875 630.211 C 92.634 630.954 93.452 631.633 94.317 632.249 C 94.715 632.089 95.102 631.893 95.474 631.67 C 95.999 631.352 96.503 630.991 96.97 630.588 C 98.005 629.701 98.929 628.693 99.725 627.584 C 100.547 626.459 101.269 625.259 101.874 624.001 C 102.421 622.887 102.845 621.714 103.143 620.509 Z " fill="rgb(0,0,0)"/>

<path d=" M 325.271 649.942 C 321.792 644.317 321.305 629.934 323.634 617.731 L 314.94 617.684 C 314.636 639.331 319.458 650.944 325.271 649.942 L 325.271 649.942 L 325.271 649.942 L 325.271 649.942 L 325.271 649.942 Z  M 312.682 617.672 L 288.811 617.542 C 288.652 628.646 294.828 645.231 298.349 648.752 C 304.507 654.909 312.028 642.992 312.682 617.672 L 312.682 617.672 L 312.682 617.672 L 312.682 617.672 L 312.682 617.672 Z  M 374.434 618.005 L 382.683 618.05 C 381.049 629.087 382.681 642.785 384.851 648.724 C 378.812 651.88 375.335 641.636 374.434 618.005 L 374.434 618.005 L 374.434 618.005 L 374.434 618.005 L 374.434 618.005 L 374.434 618.005 Z  M 415.271 611.861 C 410.941 620.853 406.444 645.157 409.942 648.716 C 413.441 652.275 422.708 639.419 424.262 630.178 C 426.261 618.299 422.54 596.763 415.271 611.861 L 415.271 611.861 L 415.271 611.861 L 415.271 611.861 Z  M 354.083 610.779 C 349.754 619.771 348.107 644.764 351.605 648.322 C 355.104 651.881 363.996 638.091 363.996 628.622 C 363.996 612.142 361.353 595.682 354.083 610.779 L 354.083 610.779 L 354.083 610.779 Z  M 391.542 612.902 C 387.213 621.893 389.015 645.157 392.513 648.716 C 396.012 652.275 404.752 638.683 406.306 629.442 C 408.305 617.564 398.811 597.804 391.542 612.902 L 391.542 612.902 Z  M 326.132 651.082 C 326.314 651.276 326.503 651.45 326.698 651.603 L 335.588 651.481 Q 339.923 648.11 342.462 643.168 C 342.994 647.142 344.116 650.206 345.906 651.603 L 355.446 651.603 Q 363.62 640.285 364.863 632.463 C 365.6 627.822 365.744 622.747 365.278 617.956 L 367.523 617.968 L 367.523 617.968 C 366.783 635.887 369.307 647.066 375.108 651.52 L 386.428 651.52 C 386.468 651.551 386.507 651.578 386.547 651.603 L 398.203 651.755 Q 400.551 648.066 402.334 644.795 C 402.451 648.445 402.993 650.996 403.975 651.603 L 414.299 651.603 Q 424.602 638.485 425.844 630.663 C 426.694 625.313 426.735 620.411 425.964 615.956 L 439.083 614.527 L 438.751 602.263 L 427.736 600.88 L 428.144 595.633 L 334.666 589.998 L 261.739 598.948 L 257.762 612.207 L 277.248 616.31 C 277.685 637.122 281.508 648.96 288.732 651.839 L 305.592 651.839 C 307.5 649.354 309.354 645.589 311.172 640.56 L 311.172 640.56 C 311.975 645.873 313.79 649.628 316.633 651.839 L 326.132 651.839 L 326.132 651.082 L 326.132 651.082 L 326.132 651.082 L 326.132 651.082 L 326.132 651.082 Z  M 332.914 609.183 C 325.708 624.959 327.47 644.554 332.215 648.182 C 336.959 651.81 344.4 638.697 345.098 629.067 C 345.796 619.438 340.509 592.556 332.914 609.183 Z " fill-rule="evenodd" fill="rgb(0,0,0)"/>

<path d=" M 254.589 651.451 L 424.753 651.381 L 457.117 653.887 L 292.704 654.284 L 254.589 651.451 Z " fill="rgb(0,0,0)"/>

<path d=" M 249.517 595.685 L 269.848 601.323 L 334.811 592.524 L 427.003 598.888 L 441.994 595.471 L 441.93 594.275 L 337.737 584.195 L 250.606 593.934 L 249.517 595.685 Z " fill="url(#dotz)"/>

<path d=" M 265.371 433.355 C 274.702 425.287 285.556 420.8 297.016 420.247 L 297.016 420.247 C 296.768 425.205 296.581 430.167 296.463 435.128 C 296.314 441.014 296.245 446.895 296.245 452.78 C 296.251 460.412 296.357 468.044 296.564 475.676 C 296.787 483.806 297.105 491.937 297.519 500.062 C 297.959 508.692 298.49 517.316 299.111 525.935 C 299.692 534.056 300.344 542.172 301.065 550.285 C 293.906 551.153 287.039 552.228 280.459 553.505 C 279.532 542.134 278.495 530.779 277.341 519.428 C 276.258 508.787 275.054 498.157 273.722 487.542 C 272.501 477.809 271.142 468.092 269.646 458.395 C 268.357 450.024 266.93 441.677 265.371 433.355 Z  M 263.985 434.608 C 258.378 439.728 253.363 446.189 249.138 453.893 C 256.472 483.704 262.763 517.817 268.028 556.248 C 271.554 555.373 275.172 554.563 278.887 553.82 C 277.956 542.402 276.915 530.99 275.754 519.587 C 274.677 508.957 273.472 498.343 272.14 487.739 C 270.919 478.021 269.566 468.32 268.069 458.639 C 266.835 450.607 265.473 442.596 263.985 434.608 Z  M 298.61 420.197 C 304.831 420.09 311.218 421.141 317.625 423.402 L 322.061 548.341 C 315.37 548.768 308.897 549.35 302.647 550.088 C 301.928 542.004 301.277 533.916 300.698 525.823 C 300.077 517.215 299.546 508.596 299.111 499.977 C 298.697 491.868 298.379 483.748 298.156 475.633 C 297.949 468.017 297.843 460.396 297.837 452.78 C 297.837 446.91 297.906 441.035 298.055 435.166 C 298.175 430.175 298.359 425.184 298.61 420.197 L 298.61 420.197 Z " fill-rule="evenodd" fill="rgb(0,0,0)"/>

<path d=" M 108.386 579.64 C 100.346 569.962 100.288 540.143 108.399 526.109 C 117.828 509.793 135.185 548.32 138.482 566.935 C 140.644 579.142 135.46 609.789 120.51 618.896 C 109.868 625.379 101.1 606.271 106.539 586.266 C 103.311 607.432 111.561 623.062 119.729 617.138 C 134.909 606.129 139.084 581.031 136.528 567.326 C 133.411 550.608 118.449 512.021 109.312 529.246 C 102.6 541.898 101.173 559.493 108.386 579.64 Z " fill="rgb(0,0,0)"/>

<path d=" M 94.581 558.009 C 98.476 546.036 95.27 539.344 87.981 535.086 C 78.61 529.613 57.952 549.752 66.657 565.602 C 76.782 584.04 94.645 566.46 93.866 552.429 C 94.256 562.693 77.571 579.39 69.532 566.918 C 58.178 549.303 79.26 534.161 86.422 536.775 C 93.491 539.356 96.75 546.434 94.581 558.009 Z " fill="rgb(0,0,0)"/>

<path d=" M 126.04 593.924 C 123.906 600.179 116.321 616.011 112.174 608.856 C 118.066 613.845 124.799 593.184 125.674 588.424 C 127.324 579.44 127.139 567.677 123.63 558.905 C 118.954 547.215 109.366 534.041 104.854 540.255 L 104.854 538.297 C 108.77 531.999 119.165 545.84 122.923 552.808 C 126.682 559.775 131.316 578.462 126.04 593.924 Z " fill="rgb(0,0,0)"/>

</g>

</g>

</g>

</g>
    
    

</svg>