<svg xmlns="http://www.w3.org/2000/svg" 
 style="isolation:isolate;
 background-color:green;
 " 
 viewBox="0 0 150 200" 
>
<g>
<g>
<path d=" M 22.4 49 C 22.7 48.6 28.1 29.3 29.1 7.3 C 54.8 17.5 74.1 17.6 89.2 17.6 C 88.2 25.5 85 45.8 88.5 72.9 C 88.6 73.2 81.7 74.2 78.7 74.5 C 78.7 74.4 74.4 83.4 75.6 99.8 C 75.6 99.9 81.5 103.9 84.9 105.4 C 85 105.3 91.1 103.8 97.3 103 C 97.4 103.1 97.7 117.4 100.4 130.8 C 100.3 130.8 101.3 130.7 101.7 130.7 C 101.7 130.8 102.1 131.7 102.3 132 C 102.8 131.9 107.5 128.8 114 126.4 C 114.1 126.9 113 133.9 113.6 141 C 113.8 140.9 120.4 141.8 131.9 136.4 C 131.6 136.6 122 146 113.4 157.6 C 113.3 157.6 104.5 156.7 94.9 157 C 94.6 157.2 82 170.9 74.5 176.9 C 74.4 176.3 69.8 170 65.9 167.6 C 65.2 167.7 58.9 170.5 55 173.3 C 55 173.1 48.9 162.6 49.7 134 C 49.7 134 54.9 135.9 58.3 136.4 C 57.2 128.2 49.8 92.7 27 70.3 C 27.1 69.9 27.9 65.4 30.1 59.2 C 29.8 58.3 25.3 52.4 22.4 49 Z  M 101.7 130.7 C 101.7 130.7 101.7 130.7 101.7 130.7 C 101.7 130.7 101.7 130.7 101.7 130.7 Z  M 113.4 157.6 C 113.4 157.6 113.4 157.6 113.4 157.6 C 113.4 157.6 113.4 157.6 113.4 157.6 Z  M 96 104.7 C 89.5 105.7 69.4 110.5 62.4 114.6 C 56 99.6 49 88.1 43.1 69.2 C 39.4 62.3 39.1 68.7 39.1 70.5 C 37.8 66.7 38.7 62.7 39.3 60.7 C 39.6 61.8 40 63.4 40.6 64.8 C 40.7 65.3 47.6 71.8 64.1 72.8 C 69.2 73.2 76 73 85.4 71.5 C 85.3 71.5 82.3 47 85.4 21.4 C 79.8 21.3 59.4 22.4 32.2 12.2 C 32.5 12.5 37.2 26.4 41.2 44.4 C 41.1 44.4 41.1 44.5 41.1 44.5 C 41.1 44.5 41.1 44.5 41.1 44.5 C 37.7 34.3 34.8 23.8 31 14.1 C 29 36.1 25.5 48.7 25.1 48.8 C 27.9 52.1 31 56.9 31.1 57.3 C 31.9 55.7 33.8 52.1 33.9 52.3 C 29.9 64.2 29.7 69.8 29.7 69.8 C 47.3 90.4 54.9 106.5 57.3 110.6 C 57.3 111 52.1 102 49.9 99.7 C 54.6 112 60 131.5 59.9 131.4 C 64.3 135.5 71.1 136.2 71.9 136.1 C 71.5 130.9 70.3 125.1 70.1 123.2 L 73 135.1 C 73 134.9 79.7 119.5 85.8 110.2 C 85.9 110.1 91.3 114.4 97.2 121 C 97.2 120.4 95.9 113.7 96 104.7 Z  M 31.1 57.3 C 31.1 57.4 31.1 57.3 31.1 57.3 C 31.1 57.3 31.1 57.3 31.1 57.3 Z  M 119.7 142.1 C 116 143.3 111 143.3 111.2 143.1 C 110.7 143.4 109.6 143.1 101.4 147.5 C 108.5 142.7 110.9 141.7 111 141.8 C 111.1 141.7 110.5 137 111.2 131.4 C 111.2 131.6 106.6 140.2 98.9 150.3 C 111.1 146.1 119.8 142.1 119.7 142.1 Z  M 62.4 149.1 C 62.4 149 64 157.6 72 167.1 C 62.8 158.1 61.1 150.2 61 150.1 C 60.9 149.6 60.8 149 60.7 149 L 58.7 147.1 C 58.7 147.4 59 153.3 60.3 159.2 C 60.2 159.4 65.8 162.4 73.5 171.1 C 73.4 170.6 74.6 158.3 72.6 142.5 C 71.8 142.4 65.1 141.4 60.9 138.8 L 62.4 149.1 Z  M 59.9 145.2 C 59.3 142.7 59.1 141.6 58.8 139.2 C 58.8 139.2 56.5 138.7 54.3 137.8 C 56.7 142 59.5 144.9 59.9 145.2 Z  M 51.4 138.2 C 51.2 138.1 51 152.6 55 168.2 C 55.1 168.3 55 162.3 55.6 160.4 C 55.9 160.4 54.7 158 53.6 150.5 C 56.1 158.5 58.4 159.3 58.5 159.4 C 58.4 159.3 57.3 154.2 57.3 145.7 C 57.2 145.6 54 143.1 51.4 138.2 Z  M 56.4 170.1 C 56.5 169.8 61.6 167.5 64.5 166.7 C 64.8 166.7 62.1 164.7 60.4 163.6 L 59 164.8 L 57 161.8 C 56.9 161.8 55.8 164.4 56.4 170.1 Z  M 76.5 172.3 C 96.2 156.4 109.4 130.2 109.8 129.8 L 101.3 134 L 84 149.1 L 100 133.8 L 100.1 132.5 L 99.6 132.5 L 78.7 148.2 L 77.5 148.8 L 99 131.4 L 98.3 125.8 C 97.9 125.5 90.6 115.1 86.3 112.4 C 78 127.3 74.2 142.3 74.1 142.4 C 75.8 157 76.8 172 76.5 172.3 Z " fill="rgb(0,0,0)" />

<path d=" M 88 116.5 C 88 116.5 89.4 117.4 90.1 118.6 C 90.1 119.1 89.3 122.3 88.5 124.3 C 86.7 122.6 84.7 120.3 84.4 119.8 C 84.9 118.6 85.8 117.3 85.9 117.3 L 87.3 118.2 L 88 116.5 Z  M 88 116.5 L 88 116.5 C 88 116.5 88 116.5 88 116.5 Z  M 88.1 119.2 L 86.9 118.5 C 86.8 118.6 86.4 119 86 119.8 C 86.8 120.8 87.8 121.6 88.7 122.5 C 89 121.4 89.2 120.5 89.4 119.5 C 89.4 119.3 88.9 118.7 88.4 118.5 L 88.1 119.2 Z " fill="rgb(0,0,0)" />

</g>

<g style="opacity:0.4;">
<path d=" M 31 14.1 C 34.8 23.8 37.7 34.3 41.1 44.5 C 41.2 45.9 44.1 62.9 44.4 64 C 45 66.6 54.5 71.2 66.2 72.9 C 48.2 72.4 40.7 65.3 40.6 64.8 C 40 63.4 39.6 61.8 39.2 60.7 C 38.7 62.7 37.8 66.7 39.1 70.5 C 39.1 68.7 39.4 62.3 43.1 69.2 C 49 88.1 56 99.6 62.4 114.6 C 64.9 113.2 67.1 112.5 67 112.5 C 67.8 115.5 68.7 118.3 69.6 121.3 L 70 123.2 C 70.3 125.1 71.5 131 71.9 136.1 C 71 136.2 64.3 135.5 59.9 131.4 C 60 131.5 54.6 112 49.9 99.8 C 52.1 102 56.8 109.8 56.8 109.8 C 56.8 109.8 47.3 90.4 29.7 69.8 C 29.7 69.8 29.9 64.2 33.9 52.3 C 33.8 52.1 31.9 55.7 31.1 57.3 C 31 56.9 27.9 52.1 25.1 48.8 C 25.5 48.7 29 36.1 31 14.1 Z  M 31.1 57.3 C 31.1 57.4 31.1 57.4 31.1 57.4 C 31.1 57.3 31.1 57.3 31.1 57.3 Z " fill="rgb(0,0,0)" />
<path d=" M 62.4 149.1 C 62.4 149 64 157.6 72 167.1 C 62.8 158.1 61.1 150.2 61 150.1 C 60.9 149.6 60.8 149 60.7 149 L 58.7 147.1 C 58.7 147.4 59 153.3 60.3 159.2 C 60.2 159.4 65.8 162.4 73.5 171.1 C 73.4 170.6 74.6 158.3 72.6 142.5 C 71.8 142.4 65.1 141.4 60.9 138.8 L 62.4 149.1 Z " fill="rgb(0,0,0)" />
<path d=" M 54.2 137.8 C 56.5 138.6 58.8 139.1 58.8 139.1 C 59.1 141.6 59.3 142.7 59.9 145.2 C 59.5 144.9 56.7 142 54.2 137.8 Z " fill="rgb(0,0,0)" />
<path d=" M 57 161.8 L 59 164.8 L 60.4 163.5 C 62.1 164.7 64.8 166.7 64.5 166.7 C 61.6 167.5 56.5 169.8 56.4 170.1 C 55.8 164.4 56.9 161.8 57 161.8 Z " fill="rgb(0,0,0)" />
<path d=" M 51.4 138.2 C 54 143.1 57.2 145.6 57.2 145.7 C 57.3 154.2 58.4 159.3 58.4 159.4 C 58.4 159.3 56.1 158.4 53.5 150.5 C 54.7 157.9 55.8 160.3 55.6 160.4 C 55 162.3 55.1 168.2 54.9 168.2 C 51 152.6 51.2 138.1 51.4 138.2 L 51.4 138.2 Z " fill="rgb(0,0,0)" />
<ellipse vector-effect="non-scaling-stroke" cx="60" cy="190" rx="58" ry="2" fill="rgb(0,0,0)" />
</g>

<path id="what_is_this" d=" M 74 142.4 C 74.2 142.3 78 127.3 86.3 112.4 C 90.6 115.1 97.8 125.5 98.2 125.8 L 99 131.4 L 77.5 148.8 L 78.7 148.2 L 99.6 132.5 L 100.1 132.5 L 100 133.8 L 84 149.1 L 101.2 134 L 109.8 129.8 C 109.3 130.2 96.2 156.4 76.4 172.3 C 76.7 172 75.8 157 74 142.4 Z  M 87.2 118.2 L 85.9 117.3 C 85.8 117.3 84.9 118.6 84.4 119.8 C 84.6 120.3 86.6 122.6 88.4 124.3 C 89.2 122.3 90.1 119 90.1 118.6 C 89.4 117.4 88 116.5 87.9 116.5 L 87.2 118.2 Z  M 87.9 116.5 L 87.9 116.5 C 87.9 116.5 87.9 116.5 87.9 116.5 Z " fill="rgb(255,255,255)" />

</g>
</svg>