<?xml version="1.0" encoding="UTF-8" standalone="no"?><!-- Generator: Gravit.io --><svg xmlns="http://www.w3.org/2000/svg" xmlns:xlink="http://www.w3.org/1999/xlink" style="isolation:isolate" viewBox="51.124 -976.163 699.525 755.942" width="699.525pt" height="755.942pt"><defs><clipPath id="_clipPath_nw1J81CeJ4rPRXS9peLrCP3ehNKfFjth"><rect x="51.124" y="-976.163" width="699.525" height="755.942"/></clipPath></defs><g clip-path="url(#_clipPath_nw1J81CeJ4rPRXS9peLrCP3ehNKfFjth)"><g><linearGradient id="_lgradient_6" x1="0.3087421698031575" y1="0.8391867042820089" x2="1.049862687568663" y2="-0.021101287213093567" gradientTransform="matrix(699.525,0,0,755.942,51.124,-976.163)" gradientUnits="userSpaceOnUse"><stop offset="3.4782608695652173%" stop-opacity="1" style="stop-color:rgb(255,153,0)"/><stop offset="98.69565217391305%" stop-opacity="1" style="stop-color:rgb(242,205,149)"/><stop offset="99.56521739130434%" stop-opacity="1" style="stop-color:rgb(255,153,0)"/></linearGradient><rect x="51.124" y="-976.163" width="699.525" height="755.942" transform="matrix(1,0,0,1,0,0)" fill="url(#_lgradient_6)"/><path d=" M 412.337 -805.809 C 355.334 -817.981 310.104 -823.794 264.617 -823.277 L 247.847 -669.557 L 302.65 -475.048 L 269.984 -296.698 L 306.755 -279.229 L 513.828 -279.928 C 532.425 -274.973 543.702 -285.677 547.629 -312.07 L 570.949 -479.765 L 510.858 -665.452 C 558.391 -676.969 579.828 -692.564 575.141 -712.266 L 533.916 -728.337 L 540.903 -780.043 C 580.737 -797.133 582.755 -813.135 546.93 -828.081 L 412.337 -805.809 Z " fill="rgb(106,54,30)"/><path d=" M 312.982 -688.957 L 313.512 -707.029 L 321.061 -707.165 L 375.089 -665.983 C 440.474 -664.235 492.658 -675.683 531.613 -700.358 L 542.544 -776.094 C 471.629 -751.479 410.278 -741.253 358.461 -745.444 L 285.729 -787.651 L 269.615 -675.911 L 331.203 -463.344 L 303 -314.469 C 305.342 -300.415 334.894 -282.718 358.903 -285.969 L 355.242 -297.526 L 373.703 -480.35 L 326.65 -671.568 L 312.982 -688.957 Z " fill="rgb(255,255,255)"/><path d=" M 372.726 -778.837 C 375.585 -779.305 378.319 -779.336 380.922 -778.931 C 378.955 -780.506 380.164 -783.064 384.543 -786.608 C 381.441 -783.126 381.006 -780.594 383.209 -779.025 C 386.126 -780.735 392.383 -781.738 401.953 -782.047 C 391.65 -780.856 385.728 -779.214 383.653 -777.646 Q 378.064 -778.774 372.726 -778.837 Z " fill="rgb(0,0,0)"/><path d=" M 333.016 -801.291 C 330.15 -801.711 327.536 -802.511 325.178 -803.685 C 326.574 -801.588 324.648 -799.516 319.401 -797.466 C 323.412 -799.845 324.594 -802.126 322.97 -804.289 C 319.672 -803.543 313.405 -804.482 304.191 -807.087 C 314.371 -805.101 320.511 -804.871 322.964 -805.737 Q 327.948 -802.969 333.016 -801.291 Z " fill="rgb(0,0,0)"/><path d=" M 524.276 -801.028 C 521.418 -801.496 518.684 -801.526 516.081 -801.121 C 518.047 -802.697 516.839 -805.255 512.459 -808.798 C 515.561 -805.316 515.997 -802.784 513.794 -801.215 C 510.877 -802.925 504.62 -803.928 495.05 -804.238 C 505.353 -803.046 511.274 -801.404 513.35 -799.836 Q 518.938 -800.964 524.276 -801.028 Z " fill="rgb(0,0,0)"/><g><path d=" M 509.908 -546.372 C 510.964 -536.419 510.697 -532.909 526.587 -538.299 C 520.913 -535.731 517.984 -525.98 517.848 -523.532 C 513.921 -523.59 502.432 -532.736 509.908 -546.372 Z " fill="rgb(0,0,0)" fill-opacity="0.25"/><path d=" M 501.968 -525.915 C 504.705 -527.655 507.531 -528.33 510.441 -527.945 C 507.604 -531.244 507.574 -537.572 510.344 -546.935 C 508.871 -538 509.692 -531.904 512.771 -528.672 C 514.943 -533.367 520.943 -537.126 530.736 -539.97 C 520.625 -534.873 515.295 -529.677 513.926 -525.503 Q 507.549 -526.943 501.968 -525.915 Z " fill="rgb(0,0,0)"/></g><g><path d=" M 397.644 -552.701 C 398.7 -542.748 398.434 -539.238 414.324 -544.628 C 408.65 -542.06 405.72 -532.309 405.584 -529.861 C 401.657 -529.919 390.169 -539.065 397.644 -552.701 Z " fill="rgb(0,0,0)" fill-opacity="0.25"/><path d=" M 389.705 -532.244 C 392.441 -533.984 395.268 -534.659 398.178 -534.274 C 395.341 -537.573 395.311 -543.902 398.081 -553.264 C 396.608 -544.329 397.429 -538.233 400.508 -535.001 C 402.68 -539.696 408.68 -543.455 418.473 -546.299 C 408.362 -541.202 403.032 -536.006 401.663 -531.832 Q 395.286 -533.272 389.705 -532.244 Z " fill="rgb(0,0,0)"/></g><g><path d=" M 505.268 -350.524 C 506.324 -340.572 506.058 -337.061 521.948 -342.451 C 516.274 -339.883 513.344 -330.132 513.208 -327.685 C 509.281 -327.743 497.793 -336.889 505.268 -350.524 Z " fill="rgb(0,0,0)" fill-opacity="0.25"/><path d=" M 497.329 -330.067 C 500.065 -331.807 502.892 -332.483 505.802 -332.098 C 502.965 -335.396 502.935 -341.725 505.705 -351.087 C 504.232 -342.152 505.053 -336.057 508.132 -332.824 C 510.304 -337.52 516.304 -341.278 526.097 -344.123 C 515.986 -339.025 510.656 -333.829 509.287 -329.655 Q 502.91 -331.096 497.329 -330.067 Z " fill="rgb(0,0,0)"/></g><g><path d=" M 398.212 -353.963 C 399.268 -344.011 399.001 -340.5 414.891 -345.89 C 409.218 -343.322 406.288 -333.571 406.152 -331.124 C 402.225 -331.182 390.737 -340.328 398.212 -353.963 Z " fill="rgb(0,0,0)" fill-opacity="0.25"/><path d=" M 390.273 -333.506 C 393.009 -335.246 395.835 -335.922 398.745 -335.537 C 395.909 -338.835 395.878 -345.164 398.649 -354.526 C 397.176 -345.591 397.996 -339.496 401.076 -336.263 C 403.248 -340.959 409.248 -344.717 419.04 -347.562 C 408.929 -342.464 403.599 -337.268 402.231 -333.094 Q 395.854 -334.535 390.273 -333.506 Z " fill="rgb(0,0,0)"/></g><g><path d=" M 470.246 -452.796 C 468.628 -442.919 467.441 -439.605 484.191 -440.594 C 478.04 -439.621 472.633 -430.994 471.854 -428.669 C 468.082 -429.766 459.426 -441.627 470.246 -452.796 Z " fill="rgb(0,0,0)" fill-opacity="0.25"/><path d=" M 457.172 -435.172 C 460.272 -436.125 463.176 -436.028 465.88 -434.886 C 464.018 -438.819 465.665 -444.929 470.816 -453.224 C 467.029 -444.998 466.206 -438.903 468.32 -434.97 C 471.657 -438.923 478.439 -440.958 488.635 -441.108 C 477.535 -438.87 471.019 -435.27 468.594 -431.608 Q 462.826 -434.686 457.172 -435.172 Z " fill="rgb(0,0,0)"/></g><g><path d=" M 460.517 -611.491 C 459.088 -601.585 457.964 -598.249 474.693 -599.556 C 468.561 -598.466 463.319 -589.738 462.584 -587.399 C 458.792 -588.423 449.912 -600.118 460.517 -611.491 Z " fill="rgb(0,0,0)" fill-opacity="0.25"/><path d=" M 447.781 -593.622 C 450.862 -594.634 453.768 -594.592 456.493 -593.501 C 454.557 -597.398 456.087 -603.538 461.079 -611.929 C 457.45 -603.633 456.743 -597.523 458.931 -593.631 C 462.193 -597.647 468.934 -599.811 479.125 -600.154 C 468.07 -597.705 461.624 -593.983 459.269 -590.275 Q 453.444 -593.243 447.781 -593.622 Z " fill="rgb(0,0,0)"/></g><g opacity="0.25"><path d=" M 362.037 -732.093 Q 371.452 -695.804 375.343 -667.463 L 321.38 -707.492 L 313.512 -707.029 L 312.982 -688.957 L 326.65 -671.568 L 373.703 -480.35 L 354.137 -309.661 L 358.903 -285.969 C 334.894 -282.718 305.342 -300.415 303 -314.469 L 331.203 -463.344 L 269.615 -675.911 L 285.729 -787.651 L 354.964 -747.473 L 354.64 -750.746 C 374.819 -741.157 429.332 -738.079 540.364 -774.687 L 536.357 -764.662 C 483.234 -736.075 392.547 -722.078 362.037 -732.093 Z " fill-rule="evenodd" fill="rgb(0,0,0)"/></g><path d=" M 419.626 -800.462 Q 489.803 -809.2 546.701 -825.034 C 563.551 -819.819 574.378 -799.725 557.493 -791.366 C 529.095 -774.101 416.651 -737.931 364.507 -750.746 C 340.983 -756.527 310.115 -772.219 278.738 -800.275 L 284.212 -788.033 Q 341.993 -748.107 358.461 -742.474 C 410.544 -724.656 552.682 -769.619 570.514 -789.995 C 586.404 -808.152 567.884 -829.629 546.285 -832.983 Q 487.295 -816.554 393.511 -808.951 L 419.626 -800.462 Z " fill="rgb(0,0,0)"/><path d=" M 532.482 -734.324 L 531.75 -724.625 Q 545.374 -718.856 559.602 -714.643 C 605.202 -701.141 474.821 -638.799 374.66 -651.984 C 362.515 -654.99 346.834 -664.16 321.586 -691.526 C 346.668 -657.296 365.293 -645.591 375.398 -644.471 C 491.766 -631.882 634.737 -705.152 561.391 -724.402 Q 544.778 -728.763 532.482 -734.324 Z " fill="rgb(0,0,0)"/><path d=" M 549.722 -781.906 C 539.217 -753.115 534.689 -726.97 536.106 -703.498 L 529.309 -698.044 C 528.539 -724.019 530.964 -752 537.984 -776.741 L 549.722 -781.906 Z " fill="rgb(0,0,0)"/><path d=" M 283.544 -792.001 L 266.326 -674.846 L 327.54 -458.843 L 300.341 -319.46 C 295.309 -299.617 323.351 -280.126 368.251 -284.627 L 362.744 -291.192 C 330.711 -286.554 304.901 -300.327 307.954 -321.288 L 333.936 -464.401 L 272.188 -675.911 L 287.579 -789.679 L 283.544 -792.001 Z " fill="rgb(0,0,0)"/><path d=" M 505.074 -660.959 L 514.121 -666.951 L 576.686 -478.893 L 550.686 -307.442 C 548.173 -295.371 546.014 -276.661 518.939 -276.51 L 412.507 -276.51 L 433.791 -285.141 L 519.155 -285.141 C 533.437 -285.141 538.578 -296.091 541.732 -310.495 L 566.104 -479.453 L 505.074 -660.959 Z " fill="rgb(0,0,0)"/><path d=" M 447.028 -285.141 L 310.322 -285.141 L 310.322 -276.51 L 447.028 -276.51 L 447.028 -285.141 Z " fill="rgb(0,0,0)"/><path d=" M 511.252 -280.825 L 281.669 -280.825 L 153.801 -265.86 C 306.216 -272.152 443.478 -272.142 565.557 -265.86 L 511.252 -280.825 Z " fill="rgb(0,0,0)"/><path d=" M 292.352 -776.038 C 297.112 -743.993 306.914 -721.297 321.729 -707.982 L 375.242 -667.75 C 452.53 -664.683 505.061 -679.578 534.836 -704.554 L 553.502 -707.492 C 505.322 -676.682 444.252 -662.126 374.262 -663.916 L 316.785 -709.077 C 301.481 -725.465 293.346 -747.776 292.352 -776.038 Z " fill="rgb(0,0,0)"/><path d=" M 312.696 -691.526 L 316.154 -686.203 C 308.98 -688.034 285.123 -684.751 274.552 -678.385 C 280.719 -686.14 303.443 -690.511 312.696 -691.526 Z " fill="rgb(0,0,0)"/><path d=" M 377.665 -667.083 L 373.048 -667.494 L 369.559 -698.752" fill="rgb(0,0,0)"/><path d=" M 317.376 -710.184 L 309.096 -709.123 L 308.672 -689.622 L 323.421 -670.561 L 373.976 -479.832 L 350.427 -310.495 C 346.822 -282.564 364.229 -276.51 389.357 -276.51 L 395.111 -285.667 C 371.335 -285.667 354.993 -297.485 357.509 -317.634 L 382.284 -482.327 L 331.296 -673.063 L 314.253 -690.669 L 314.101 -704.23 L 323.759 -704.517 L 317.376 -710.184 Z " fill="rgb(0,0,0)"/><path d=" M 254.126 -673.711 L 269.985 -819.839 C 321.491 -820.045 402.78 -806.128 449.008 -794.001 C 384.278 -821.544 302.589 -831.097 257.81 -830.629 L 241.421 -670.599 L 296.424 -468.894 L 267.585 -318.67 C 263.025 -296.714 256.313 -276.51 317.487 -276.51 L 321.051 -285.141 C 280.075 -285.141 274.059 -299.593 278.579 -317.634 L 306.69 -469.836 L 254.126 -673.711 Z " fill="rgb(0,0,0)"/><path d=" M 329.41 -465.52 C 335.075 -471.681 348.526 -474.55 361.791 -478.159 C 351.504 -472.061 338.631 -465.985 331.203 -455.96 L 329.41 -465.52 Z " fill="rgb(0,0,0)"/></g></g></svg>