<svg xmlns="http://www.w3.org/2000/svg" xmlns:xlink="http://www.w3.org/1999/xlink"
 style="isolation:isolate;overflow:visible;"
 viewBox="0 0 1300 480"
>

  <style id="comic-styles">
      
    @font-face {
      font-family: 'Comic Neue';
      src: url('neue.ttf') format('truetype');
    }

    :root {
      /*
      --outline-color: #000;
      --border-color: #000;
      --text-color: #000;
      --dot-color: #000;
      --show-hearts: 0;
      --circ-color: #ea0;
      */
    }

    text {
      font-family:'Comic Neue';
      font-weight: 600;
      font-size:25px;
      fill: var(--text-color, var(--outline-color, #000));
    }
    
    .text-bubble {
      fill: none;
      stroke: var(--text-color, var(--outline-color, #000));
      stroke-width: 3px;
    }
    
    .bub-line {
      fill: var(--text-color, var(--outline-color, #000));
    }
    

    #copyright {
      font-family:'Times New Roman';
      font-weight: 300;
      font-size:17px;
      fill:var(--text-color, var(--outline-color, #000));
    }

    #title-line {
      fill: var(--border-color, var(--outline-color, #000));
      height: 2px;
    }

    #LIVING {
      fill: var(--title-color, var(--outline-color, #000));
    }

    #THINGS {
      fill: var(--title-color, var(--outline-color, #000));
    }

    #heart {
      fill: var(--heart-color, var(--outline-color, #000));
    }

    #square {
      fill: var(--square-color, var(--outline-color, #000));
    }

    #title-hearts {
      opacity: var(--show-hearts, 1);
    }

    #title-circs {
      opacity: calc(1 - var(--show-hearts, 1));
      fill: var(--circ-color, var(--outline-color, #000));
    }
    
    </style>

  <style id="port-scrape-styles">
        
    #bg-paper[data-no-port] {
        width: 1300px;
        height: 480px;
    }
    
    #title-line[data-no-port] {
        width: 1275px;
    }
    
    @media(orientation: portrait) {
      #bg-paper:not([data-no-port]) {
        width: 650px;
        height: 882.5px;
      }
      .next-two:not([data-no-port]) {
        transform: translate(0, 400px);
      }
      #title-line:not([data-no-port]) {
        width: 625px;
      }
    }

    @media(orientation: landscape) {
      #bg-paper:not([data-no-port]) {
        width: 1300px;
        height: 480px;
      }
      .next-two:not([data-no-port]) {
        transform: translate(650px, 0);
      }
      #title-line:not([data-no-port]) {
        width: 1275px;
      }
    }
    
  </style>

  <style id="3-panel-port-styles">
      
    @media(orientation: portrait) {
      #bg-paper.P3:not([data-no-port]) {
        width: 434px;
        height: 1260px;
      }
      #title-line.P3:not([data-no-port]) {
        width: 408px;
      }
      .P2of3 {
        transform: translate(0px, 388px);
      }
      .P3of3 {
        transform: translate(0px, 776px);
      }
    }
      
    @media(orientation: landscape) {
      #bg-paper.P3:not([data-no-port]) {
        width: 1300px;
        height: 480px;
      }
      #title-lineP3.:not([data-no-port]) {
        width: 1275px;
      }
      .P2of3 {
        transform: translate(432.5px, 0px);
      }
      .P3of3 {
        transform: translate(865.5px, 0px);
      }
    }
    
  </style>
  
  <defs id="patts-n-filters">

    <pattern id="hatch" viewBox="-2 -2 4 4" width="4" height="4" patternUnits="userSpaceOnUse" patternTransform="rotate(45) scale(3)">
      <path d="M-2 0 H2 M0 -2 V2"
       fill="none"
       stroke="var(--dot-color,var(--outline-color, #000))"
       stroke-width="0.5"
       transform="scale(1)"
      />
    </pattern>

    <pattern id="dotz" viewBox="-2 -2 4 4" width="4" height="4" patternUnits="userSpaceOnUse" patternTransform="rotate(30) scale(2.5)">
      <circle r="1" fill="var(--dot-color,var(--outline-color, #000))" transform="scale(1.5)" />
    </pattern>

    <linearGradient id="fade" gradientUnits="objectBoundingBox">
      <stop offset="0%" stop-color="#000" stop-opacity="0"/>
      <stop offset="100%" stop-color="#000" />
    </linearGradient>

    <filter id="blur">
      <feGaussianBlur in="SourceGraphic" stdDeviation="0.3" />
    </filter>

    <filter id="shake" width="120%" height="120%" color-interpolation-filters="sRGB">
      <feImage href="newsprint.jpg" x="0" y="0" width="120%" height="120%" preserveAspectRatio="xMidYMid slice" result="mig" />
      <feDisplacementMap in="SourceGraphic" in2="mig" result="rat" scale="20" xChannelSelector="R" yChannelSelector="B" />
      <feGaussianBlur in="rat" stdDeviation="0.3" result="blur" />
      <!-- shift image back based on displacement's scale -->
      <feOffset in="blurred" dx="6.5" dy="5" result="final" />
    </filter>

    <pattern id="newsprint" patternUnits="userSpaceOnUse" width="100%" height="100%">
      <image href="newsprint.jpg" width="100%" height="100%" preserveAspectRatio="none" />
    </pattern>

  </defs>

  <defs id="clips-n-masks">
    
    <!--
        1of4 _AND_ 3of4
        M12.5 12.5 H312.5 V388 H12.5Z
        
        2of4 AND 4of4
        M337.5 12.5 H637.5 V388 H337.5Z
        
        1and2of4 _AND_ 3and4of4
        M12.5 12.5 H 637.5 V388 H12.5Z
        
        2and3of4
        M337.5 12.5 H650 V388 H337.5Z
        M0 12.5 H312.5 V388 H0Z
        
        1of3
        M13 12.5 H421 V388 H 13Z
        
        2of3
        M446 12.5 H854 V388 H 446Z
        
        3of3
        M879 12.5 H1287 V388 H 879Z

        full-size
        M12.5 12.5 H1287.5 V388 H12.5Z
        
    -->

      <clipPath id="1of4">
        <path d="M12.5 12.5 H312.5 V388 H12.5Z"/>
      </clipPath>

      <clipPath id="2of4">
        <path d="M337.5 12.5 H637.5 V388 H337.5Z"/>
      </clipPath>

      <clipPath id="3of4">
        <path d="M12.5 12.5 H312.5 V388 H12.5Z"/>
      </clipPath>

      <clipPath id="4of4">
        <path d="M337.5 12.5 H637.5 V388 H337.5Z"/>
      </clipPath>
  
      <clipPath id="1of3">
        <path d="M13 12.5 H421 V388 H 13Z"/>
      </clipPath>
  
      <clipPath id="2of3">
        <path d="M446 12.5 H854 V388 H 446Z"/>
      </clipPath>
  
      <clipPath id="3of3">
        <path d="M879 12.5 H1287 V388 H 879Z"/>
      </clipPath>
    
    <mask id="fade-mask"
     maskUnits="objectBoundingBox"
     maskContentUnits="objectBoundingBox"
    >
      <linearGradient id="fade-gradient"
       x1="0%" y1="100%"
       x2="90%" y2="0%"
      >
        <stop offset="0%" stop-color="#fff" stop-opacity="1" />
        <stop offset="100%" stop-color="#fff" stop-opacity="0.2" />
      </linearGradient>
      <rect width="1" height="1" fill="url(#fade-gradient)" />
    </mask>

  </defs>

  <defs id="line-caps">
      
    <marker id="slant-cap" markerWidth="3" markerHeight="1"
            refX="1" refY="0.5" orient="auto-start-reverse" markerUnits="strokeWidth">
      <path d=" M 0 0 L 1 0 L 3 1 L 0 1 Z" fill="context-stroke"/>
    </marker>
    
    <marker id="point-cap"
      markerWidth="4" markerHeight="1"
      refX="1" refY="0.5"
      orient="auto-start-reverse"
      markerUnits="strokeWidth"
    >
      <path d="M0 0.5 L1 0 L4 0.5 L1 1 Z" fill="context-stroke"/>
    </marker>
    
  </defs>
  
  <defs>
    <g id="ikon">

      <rect id="bg-paper" class="P3" x-data-no-port="1" x="0" y="0" fill="url(#newsprint)" />

      <g id="entire-comic"
       x-opacity="0.7"
       x-filter="url(#shake)"
       x-mask="url(#fade-mask)"
      >

        <g id="panel-areas" transform="translate(0 80)">

          <defs>
              
            <path id="thought-bubble" d="M -37.5 -8 A 38 14 0 1 1 37.5 -8 A 15 7 -15 0 1 40 3 A 30 14 0 0 1 -12.5 16 A 20 9 0 0 1 -39 3.5 A 9 6 0 0 1 -37.5 -8 Z "
            />
            
            <path id="thought-bubble-x" d="M -40 -10 C -65 -38 60 -36 30 -8 C 70 -18 70 13 45 10 C 75 16 72 -18 38 -13 C 65 -38 -70 -40 -45 -10 Z  M 6 24 C 5 29 -45 30 -37 8 C -70 12 -65 -12 -36 -10 C -70 -15 -72 14 -40 10 C -45 33 10 32 10 25 Z  M 52 10 C 66 25 2 30 0 20 C 2 34 66 29 58 10 Z "
             fill="var(--outline-color, #000)"
            />
            
            <path id="hex" transform="scale(0.5) rotate(30)" d="M 400 0 L 200 350 L -200 350 L -400 0 L -200 -350 L 200 -350 Z"
             fill="url(#dotz)"
             stroke="var(--outline-color, #000)"
             stroke-width="20"
            />
            
          </defs>

          <g id="3_panel_layout">
          <g class="P1of3" clip-path="url(#1of3)">
              <use href="#hex" transform="translate(100 350)"/>
              <circle r="60" transform="translate(365 55)"/>
              <use href="#thought-bubble" transform="translate(280 150)scale(-1.5 1)"
               fill="none" stroke="var(--outline-color, #000)" stroke-width="2"
              />
              <circle r="6" cx="240" cy="181" fill="none" stroke="#000" stroke-width="2.5"/>
              <circle r="4" cx="230" cy="189" fill="none" stroke="#000" stroke-width="2.5"/>
              <text text-anchor="middle" x="280" y="154">
                  oh no
              </text>
          </g>
          
          <g class="P2of3" clip-path="url(#1of3)">
            <mask id="dialog-3" maskUnits="userSpaceOnUse">
              <rect width="100%" height="100%" fill="#fff"/>
              <text x="240" y="190" text-anchor="middle" fill="#000"
              style="font-weight:700;font-size:50px"
              >
                <tspan>really loud</tspan>
                <tspan x="240" dy="1.2em">terrible music</tspan>
              </text>
            </mask>
            <circle r="200" cx="240" cy="200" mask="url(#dialog-3)"/>
            
          </g>
          
          <g class="P3of3" clip-path="url(#1of3)">
              <use href="#hex" transform="translate(300 40) rotate(8)"/>
              <rect class="text-bubble" x="40" y="320" height="50" width="180" />
              <path class="bub-line" d="M190 210L130 320h8Z"/>
              <text x="60" y="352">
                  <tspan>fuckin'</tspan>
                  <tspan font-style="italic">lids...</tspan>
              </text>
              
          </g>
          </g>
          
        </g>

        <g id="title-group">

          <rect id="title-line" class="P3" x-data-no-port="1" x="12.5" y="12.5" />

          <g id="title-graphic" transform="translate(25 20) scale(2.5)">

            <path id="LIVING" d="

                M 0 4.62 L 8.528 3.998 L 8.626 16.959 L 13.18 16.44 L 13.18 19.654 L 1.169 19.654 L 0 4.62 Z

                M 13.305 11.772 L 20.473 11.443 L 18.912 20.218 L 13.789 19.955 L 13.305 11.772 Z


                M 20.273 5.271 L 24.817 20.217 L 29.177 19.937 L 28.002 3.998 Z
                M 27.064 19.937 L 30.31 20.217 L 34.392 4.532 L 30.96 3.348 L 27.064 19.937 Z


                M 41.761 4.006 L 33.678 5.153 L 35.064 19.717 L 40.372 20.076 L 41.761 4.006 Z


                M 41.761 5.271 L 47.812 3.998 L 55.237 19.073 L 49.943 20.31 L 41.761 5.271 Z
                M 41.761 5.271 L 45.543 5.99 L 45.77 19.754 L 42.896 19.783 L 41.761 5.271 Z
                M 50.234 3.998 L 54.745 4.532 L 55.237 19.073 L 51.243 17.206 L 50.234 3.998 Z


                M 64.07 10.583 C 62.647 8.968 59.953 10.222 59.958 12.001 C 59.97 16.5 64.895 16.109 65.403 13.375 L 66.298 17.409 C 64.372 21.631 57.533 22.182 54.962 15.637 C 51.963 8.002 60.087 2.105 67.134 4.694 L 64.07 10.583 Z
                M 69.317 20.502 L 64.681 20.046 L 65.038 13.279 L 63.132 13.878 L 62.587 11.473 L 68.319 11.473 L 69.317 20.502 Z

            "/>

            <path id="THINGS" d="

                M 92.019 6.86 L 87.447 6.208 L 88.457 19.198 L 80.182 19.792 L 80.084 6.832 L 75.53 7.35 L 75.53 4.136 L 92.492 3.861 L 92.019 6.86 Z

                M 90.907 4.728 L 98.109 3.543 L 98.109 19.762 L 92.296 20.132 L 90.907 4.728 Z
                M 96.562 10.003 L 102.376 9.511 L 102.376 14.208 L 96.562 15.287 L 96.562 10.003 Z
                M 99.939 3.543 L 104.899 3.543 L 104.899 19.573 L 101.179 19.762 L 99.939 3.543 Z


                M 105.771 10.957 L 112.343 10.492 L 111.636 20.249 L 106.339 20.169 L 105.771 10.957 Z


                M 113.154 5.278 L 119.204 4.006 L 126.137 18.786 L 120.843 20.25 L 113.154 5.278 Z
                M 113.154 5.278 L 116.935 5.988 L 117.219 19.803 L 113.871 20.076 L 113.154 5.278 Z
                M 121.85 4.147 L 126.137 4.154 L 126.137 18.786 L 122.636 17.213 L 121.85 4.147 Z

                M 141.076 20.076 L 136.283 20.751 L 136.817 13.437 L 133.781 14.336 L 133.235 11.931 L 140.079 11.721 L 141.076 20.076 Z

                M 135.83 10.503 C 134.407 8.889 131.718 10.143 131.718 11.921 C 131.718 16.704 135.775 16.905 137.573 14.602 L 138.058 17.329 C 136.132 21.551 128.383 22.151 126.235 15.557 C 123.7 7.774 131.847 2.025 138.894 4.615 L 135.83 10.503 Z

                M 143.459 13.968 C 144.883 15.583 148.273 15.488 147.431 13.896 C 146.519 12.171 143.148 13.04 141.184 10.852 C 136.708 5.864 147.021 0 153.531 7.142 L 150.332 10.852 C 147.576 8.182 144.383 8.94 146.235 10.533 C 147.582 11.692 152.274 11.525 153.167 13.968 C 155.383 20.029 145.636 23.018 140.027 18.484 L 143.459 13.968 Z


                " />

            <g id="title-circs">
              <circle cx="17" cy="7.3" r="3.8" />
              <circle cx="109.2" cy="6.5" r="3.8" />
            </g>

            <g id="title-hearts">

              <path id="heart" d="M 16.089 4.464 C 20.26 0.852 25.207 8.953 14.734 12.088 C 6.118 5.836 13.26 -0.162 16.089 4.464 Z  M 15.831 6.053 C 19.07 2.662 22.505 8.426 14.986 10.611 C 8.76 5.827 13.959 2.006 15.831 6.053 Z" fill-rule="evenodd" />

              <path id="square" d=" M 105.92 9.623 L 105.528 2.75 L 113.085 3.039 L 112.365 9.623 L 105.92 9.623 Z  M 107.159 8.337 L 106.917 4.07 L 111.655 4.251 L 111.208 8.337 L 107.159 8.337 Z " fill-rule="evenodd" />
            </g>

          </g>
        </g>

        <g id="borders" transform="translate(0 80)" fill="none" stroke="var(--border-color, var(--outline-color, #000))" stroke-width="3">
            
          <!-- 3-panel borders -->
          <g>
            <path class="P1of3" d="M13 12.5 H421 V388 H 13Z"/>
            <path class="P2of3" d="M13 12.5 H421 V388 H 13Z"/>
            <path class="P3of3" d="M13 12.5 H421 V388 H 13Z"/>
          </g>
          
          <!--
          13, 421, 446, 854, 879, 1287,
          -->
          
          <!-- 4-panel borders -->
          <!--
          <g class="first-two">
            <path d="M12.5 12.5 H312.5 V388 H12.5Z"/>
            <path d="M337.5 12.5 H637.5 V388 H337.5Z"/>
          </g>
          <g class="next-two">
            <path d="M12.5 12.5 H312.5 V388 H12.5Z"/>
            <path d="M337.5 12.5 H637.5 V388 H337.5Z"/>
          </g>
          -->
          
        </g>
        
      </g>
    </g>
  </defs>

  <use href="#ikon"/>

</svg>