<?xml version="1.0" encoding="UTF-8" standalone="no"?><!-- Generator: Gravit.io --><svg xmlns="http://www.w3.org/2000/svg" xmlns:xlink="http://www.w3.org/1999/xlink" style="isolation:isolate" viewBox="0 0 8825.554 5101.135" width="8825.554pt" height="5101.135pt"><defs><clipPath id="_clipPath_QdrhVKSowv7KopHnR0qVk3FR5Mbj7CFV"><rect x="0" y="0" width="8825.554" height="5101.135"/></clipPath></defs><g clip-path="url(#_clipPath_QdrhVKSowv7KopHnR0qVk3FR5Mbj7CFV)"><g><rect x="0" y="0" width="8825.554" height="5101.135" transform="matrix(1,0,0,1,0,0)" fill="rgb(255,255,255)"/><path d=" M 1329.68 4229.222 C 3728.346 3810.032 5456.622 3915.185 6514.124 4544.298 C 1424.994 4801.48 -303.123 4696.487 1329.68 4229.222 Z " fill="rgb(179,151,111)"/><path d=" M 1329.68 4229.222 C 1056.287 3791.535 993.83 2536.503 1142.212 464.031 L 7929.858 806.453 L 8051.317 4362.891 C 5828.305 3883.841 3587.887 3839.412 1329.68 4229.222 Z " fill="rgb(155,142,164)"/><path d=" M 1329.68 4229.222 C 3597.597 3856.097 5325.841 3961.218 6514.124 4544.298 L 8051.317 4362.891 C 6059.566 3824.543 3819.115 3780.082 1329.68 4229.222 Z " fill="rgb(0,0,0)"/></g><g><path d=" M 3856.512 3662.135 L 3957.266 3005.895 C 4023.19 2930.812 4044.578 2799.366 4006.512 2685.135 L 3570.512 2435.135 C 3499.119 2414.964 3428.442 2414.954 3358.512 2435.135 L 3382.512 1859.135 L 2922.512 1445.135 L 420.512 1918.135 L 837.512 3830.135 L 3856.512 3662.135 Z " fill="rgb(36,87,113)"/><g><g opacity="0.37"><path d=" M 2768.409 1746.135 L 2817.512 2611.135 L 2639.512 2580.135 L 2444.512 2410.135 L 2386.512 1835.135 L 2768.409 1746.135 Z " fill="rgb(255,255,255)"/></g><g opacity="0.37"><path d=" M 3050.024 1758.135 L 3301.512 1950.135 L 3301.512 2444.135 L 3071.6 2505.765 L 3050.024 1758.135 Z " fill="rgb(255,255,255)"/></g><path d=" M 3085.666 2481.226 L 3071.6 1810.31 L 3170.529 1883.309 L 3181.13 2454.419 L 3085.666 2481.226 L 3085.666 2481.226 L 3085.666 2481.226 Z  M 3024.512 1699.135 L 3050.024 2505.765 L 3315.155 2465.135 L 3315.155 1920.126 L 3024.512 1699.135 L 3024.512 1699.135 Z  M 3200.542 2463.939 L 3209.548 1926.926 L 3286.039 1974.314 L 3283.09 2433.83 L 3200.542 2463.939 L 3200.542 2463.939 Z " fill-rule="evenodd" fill="rgb(0,0,0)"/><path d=" M 2790.512 1697.135 L 2332.914 1797.997 L 2406.968 2386.781 C 2429.767 2554.843 2675.803 2687.706 2868.512 2638.135 L 2790.512 1697.135 Z  M 2717.17 1789.569 L 2424.845 1857.334 L 2478.536 2341.711 C 2495.531 2455.878 2618.866 2557.888 2774.141 2569.205 L 2717.17 1789.569 Z " fill-rule="evenodd" fill="rgb(0,0,0)"/></g><g><path d=" M 329.359 1883.309 L 2933.512 1383.135 L 3417.561 1823.181 L 3377.512 2443.135 L 3335.909 2441.644 L 3343.957 1881.724 L 2933.512 1508.416 L 508.571 1956.85 L 862.435 3809.245 L 770.988 3849.853 L 329.359 1883.309 Z " fill="rgb(0,0,0)"/><path d=" M 3652.092 3182.928 L 3640.242 3608.671 L 3589.059 3608.671 L 3652.092 3182.928 Z " fill="rgb(0,0,0)"/><path d=" M 770.988 3849.853 L 1676.855 3891.456 L 3881.592 3689.842 L 3843.19 3619.438 L 3640.242 3564.793 L 813.912 3804.795 L 770.988 3849.853 Z " fill="rgb(0,0,0)"/><path d=" M 3954.252 2717.727 L 3958.512 2683.135 L 3619.015 2502.135 C 3460.572 2425.387 3245.765 2470.769 2955.512 2616.135 L 2878.25 1498.61 L 2901.809 1420.161 L 2959.114 1478.998 L 3027.415 2480.665 C 3321.111 2346.505 3503.602 2337.264 3647.512 2427.135 L 4047.719 2661.292 L 4017.07 2851.047 C 4017.458 2847.845 4017.81 2844.609 4018.125 2841.343 C 4025.476 2765.053 4009.667 2700.895 3982.843 2698.159 C 3973.093 2697.165 3963.221 2704.422 3954.252 2717.727 Z  M 3927.31 2936.466 L 3843.19 3619.438 L 3881.592 3689.842 L 4012.249 2880.9 C 4000.751 2937.219 3978.169 2976.854 3956.204 2974.614 C 3943.832 2973.352 3933.804 2959.024 3927.31 2936.466 Z " fill-rule="evenodd" fill="rgb(0,0,0)"/></g><g><g opacity="0.72"><path d=" M 3395.643 3687.792 L 3392.194 3720.548 L 2717.363 3752.135 L 2714.381 3725.703 L 2813.324 3720.197 L 2742.51 3091.403 C 2726.787 2950.398 3407.144 2817.169 3392.194 2988.01 L 3324.521 3691.75 L 3395.643 3687.792 Z " fill="rgb(0,0,0)"/></g><path d=" M 3162.331 3668.5 C 3175.267 3852.111 3240.644 3988.655 3332.118 3999.721 L 3333.098 4001.314 L 3422.008 3995.827 L 3422.01 3995.823 C 3523.086 3990.494 3620.639 3833.524 3659.349 3620.938 L 3162.331 3668.5 L 3162.331 3668.5 Z " fill="rgb(0,0,0)"/><path d=" M 3331.978 3691.335 C 3286.614 3869.303 3199.214 3994.839 3109.008 3999.595 L 3008.925 4005.085 L 3007.945 4003.492 C 2889.448 3989.158 2814.745 3764.258 2841.007 3499.339 C 2866.244 3244.759 2975.648 3044.722 3089.757 3037.669 C 3098.7 3037.435 3182.612 3045.599 3198.176 3049.719 C 3283.502 3076.79 3342.196 3177.983 3359.261 3330.479 L 3324.521 3691.75 L 3331.978 3691.335 Z " fill-rule="evenodd" fill="rgb(0,0,0)"/><path d=" M 2909.985 3506.177 C 2928.005 3324.403 3008.937 3183.399 3090.604 3191.495 C 3172.27 3199.59 3223.943 3353.74 3205.924 3535.514 C 3187.904 3717.287 3106.972 3858.292 3025.305 3850.196 C 2943.639 3842.1 2891.966 3687.95 2909.985 3506.177 Z " fill="rgb(232,232,232)"/><g opacity="0.38"><path d=" M 2924.149 3723.396 C 2907.837 3663.619 2901.906 3587.674 2909.985 3506.177 C 2928.005 3324.403 3008.937 3183.399 3090.604 3191.494 C 3158.602 3198.235 3205.807 3306.234 3209.14 3447.218 C 3128.017 3275.357 2902.856 3390.642 2924.149 3723.396 L 2924.149 3723.396 Z " fill="rgb(0,0,0)"/></g></g><g><path d=" M 1857.648 3781.069 C 1870.065 3966.364 1935.687 4104.554 2027.734 4115.69 L 2028.714 4117.282 L 2117.625 4111.796 L 2117.627 4111.792 C 2220.283 4106.38 2319.305 3944.547 2356.838 3726.99 L 1857.648 3781.069 L 1857.648 3781.069 Z " fill="rgb(0,0,0)"/><path d=" M 2078.846 3732.638 C 2047.062 3969.647 1960.961 4142.279 1852.257 4148.011 L 1726.314 4161.994 L 1725.334 4160.402 C 1625.647 4148.342 1556.955 3987.264 1553.244 3778.737 L 2078.846 3732.638 L 2078.846 3732.638 Z " fill="rgb(0,0,0)"/><path d=" M 1907.933 3783.811 C 1876.742 3919.268 1809.967 4013.774 1742.694 4007.105 C 1684.768 4001.363 1641.931 3922.139 1628.568 3811.488 L 1907.933 3783.811 L 1907.933 3783.811 Z " fill="rgb(232,232,232)"/><g opacity="0.34"><path d=" M 1654.246 4013.064 C 1641.14 3982.658 1633.677 3853.793 1628.568 3811.488 L 1907.933 3783.811 L 1907.933 3783.811 C 1899.388 3820.92 1888.172 3854.956 1874.843 3884.34 C 1802.929 3890.455 1742.131 3901.014 1692.16 3915.731 C 1700.516 3954.288 1723.177 3986.828 1759.853 4013.064 L 1654.246 4013.064 Z " fill="rgb(0,0,0)"/></g></g><g><g opacity="0.35"><path d=" M 3643.815 2740.638 C 3655.422 2637.31 3696.237 2556.948 3734.904 2561.291 C 3773.571 2565.635 3795.541 2653.05 3783.934 2756.377 C 3772.328 2859.704 3731.512 2940.066 3692.845 2935.723 C 3654.178 2931.38 3632.209 2843.965 3643.815 2740.638 Z " fill="rgb(235,235,235)"/></g><g opacity="0.35"><path d=" M 3906.099 2831.525 C 3916.909 2735.287 3953.168 2660.241 3987.02 2664.044 C 4020.871 2667.846 4039.578 2749.066 4028.768 2845.304 C 4017.958 2941.542 3981.698 3016.587 3947.847 3012.785 C 3913.995 3008.982 3895.289 2927.762 3906.099 2831.525 Z " fill="rgb(235,235,235)"/></g><path d=" M 3622.222 2730.9 C 3634.636 2605.674 3686.207 2508.119 3737.314 2513.185 C 3788.421 2518.251 3819.834 2624.032 3807.42 2749.259 C 3795.007 2874.485 3743.436 2972.04 3692.329 2966.973 C 3641.222 2961.907 3609.808 2856.126 3622.222 2730.9 Z  M 3659.112 2734.557 C 3667.156 2653.411 3698.649 2590.006 3729.396 2593.054 C 3760.143 2596.102 3778.575 2664.456 3770.531 2745.602 C 3762.487 2826.747 3730.994 2890.153 3700.247 2887.105 C 3669.499 2884.056 3651.067 2815.702 3659.112 2734.557 Z " fill-rule="evenodd" fill="rgb(0,0,0)"/><path d=" M 3878.845 2827.542 C 3889.404 2717.966 3936.882 2632.972 3984.803 2637.859 C 4032.724 2642.746 4063.058 2735.676 4052.499 2845.252 C 4041.94 2954.828 3994.462 3039.822 3946.541 3034.934 C 3898.62 3030.047 3868.286 2937.118 3878.845 2827.542 Z  M 3920.923 2831.43 C 3928.274 2755.14 3956.02 2695.424 3982.843 2698.159 C 4009.667 2700.895 4025.476 2765.053 4018.125 2841.343 C 4010.774 2917.633 3983.028 2977.35 3956.204 2974.614 C 3929.381 2971.878 3913.571 2907.72 3920.923 2831.43 Z " fill-rule="evenodd" fill="rgb(0,0,0)"/><g opacity="0.19"><path d=" M 3924.512 2787.135 C 3929.45 2888.776 3972.962 2947.555 4007.512 2902.135 C 3991.208 3058.196 3866.092 3008.624 3924.512 2787.135 Z " fill="rgb(0,0,0)"/></g><g opacity="0.19"><path d=" M 3663.071 2698.159 C 3668.69 2809.174 3718.199 2873.373 3757.512 2823.765 C 3738.961 2994.218 3596.597 2940.074 3663.071 2698.159 Z " fill="rgb(0,0,0)"/></g></g><g opacity="0.31"><path d=" M 449.512 1918.135 L 2903.512 1561.135 L 2975.512 2579.135 C 3350.207 2486.353 3571.92 2493.78 3672.512 2611.135 C 3628.563 2713.558 3626.573 2821.902 3666.512 2936.135 L 3651.512 3184.135 L 3622.375 3609.837 L 3306.383 3635.585 C 3310.905 2933.752 2926.245 2874.205 2839.844 3673.599 L 1030.205 3821.051 L 809.39 3821.051 L 449.512 1918.135 Z " fill="rgb(0,0,0)"/></g></g><g><g><path d=" M 4585.473 3536.135 L 6193.737 3736.135 L 6149.512 3837.763 L 4776.512 3859.713 L 4423.161 3859.713 L 4370.512 3790.024 C 4448.691 3732.241 4507.624 3660.954 4585.473 3536.135 Z " fill="rgb(255,153,0)"/><path d=" M 4604.568 3589.52 C 4561.244 3685.851 4497.624 3765.447 4413.613 3828.215 L 4394.517 3799.572 C 4475.207 3733.114 4538.891 3653.581 4585.473 3560.877 L 4604.568 3589.52 L 4604.568 3589.52 Z  M 6172.225 3824.597 L 6160.856 3859.713 L 4412.827 3878.655 L 4348.823 3790.024 C 4440.656 3723.842 4527.854 3616.128 4589.288 3490.997 L 6208.145 3713.642 L 6193.737 3758.147 L 4623.664 3608.616 C 4576.225 3712.553 4509.422 3788.967 4423.161 3837.763 L 6172.225 3824.597 L 6172.225 3824.597 Z  M 4614.116 3560.877 L 4633.212 3589.52 L 5798.041 3713.642 L 5769.398 3675.45 L 4614.116 3560.877 Z " fill-rule="evenodd" fill="rgb(0,0,0)"/><path d=" M 4724.173 3688.649 L 5078.52 3761.962 L 5041.863 3859.713 L 4675.298 3798.619 C 4633.995 3781.633 4673.722 3703.769 4724.173 3688.649 Z  M 4745.649 3721.844 L 5032.567 3767.579 L 5003.923 3820.399 L 4717.49 3787.386 C 4685.216 3778.208 4706.226 3730.014 4745.649 3721.844 Z " fill-rule="evenodd" fill="rgb(0,0,0)"/><g opacity="0.49"><path d=" M 4619.512 3599.135 L 6168.512 3737.135 L 6135.512 3841.135 L 4433.512 3858.135 L 4405.512 3840.135 C 4494.263 3793.325 4565.616 3713.012 4619.512 3599.135 Z " fill="rgb(0,0,0)"/></g></g><g><path d=" M 4556.836 4025.864 C 4693.175 3959.079 4946.408 3425.481 5104.072 3433.826 L 6550.567 3629.038 C 6727.696 3651.673 6907.182 4050.355 7161.808 4150.673 L 5920.77 4292.247 C 5417.809 4148.401 4963.229 4059.67 4556.836 4025.864 Z " fill="rgb(0,0,0)"/><path d=" M 4700.046 4009.623 C 4777.292 3969.282 4850.896 3641.486 5081.957 3541.781 C 5313.52 3441.861 5373.33 4025.982 5540.251 4152.839 C 5324.119 4092.518 4951.528 4037.488 4700.046 4009.623 Z  M 5272.913 3532.234 C 5429.048 3676.9 5585.792 4174.863 5836.921 4229.222 L 7020.157 4124.196 C 6792.228 4009.936 6700.444 3693.791 6504.577 3665.903 L 5272.913 3532.234 Z " fill-rule="evenodd" fill="rgb(123,121,121)"/></g><g><g><path d=" M 6268.489 3614.877 L 6156.942 3607.627 C 6186.93 3542.584 6202.131 3382.796 6189.217 3144.776 L 6281.75 3160.413 C 6411.76 3318.699 6514.656 3591.821 6534.566 3725.045 L 6422.56 3725.045 Q 6309.912 3626.12 6268.489 3614.877 Z " fill="rgb(0,0,0)"/><path d=" M 6302.11 3590.598 L 6207.307 3579.253 C 6231.172 3505.01 6233.841 3374.197 6221.381 3206.281 C 6336.379 3364.564 6408.286 3523.52 6436.843 3682.807 C 6381.9 3625.039 6339.183 3601.019 6302.11 3590.598 Z " fill="rgb(153,152,152)"/><linearGradient id="_lgradient_16" x1="0.33515693775020017" y1="-0.33364371119033076" x2="0.1732159992826966" y2="1.0571369770202537" gradientTransform="matrix(254.637,0,0,492.924,6233.917,3201.229)" gradientUnits="userSpaceOnUse"><stop offset="1.6666666666666667%" stop-opacity="1" style="stop-color:rgb(255,255,255)"/><stop offset="100%" stop-opacity="1" style="stop-color:rgb(195,193,193)"/></linearGradient><path d=" M 6268.582 3208.834 C 6366.231 3327.475 6436.988 3495.336 6488.554 3694.153 L 6453.461 3691.801 C 6412.44 3506.002 6336.711 3333.341 6233.917 3201.229 L 6268.582 3208.834 Z " fill="url(#_lgradient_16)"/></g><g><path d=" M 5862.703 3592.351 L 5756.223 3569.446 C 5777.996 3497.525 5795.343 3341.345 5782.234 3075.402 L 5854.312 3084.57 C 6019.187 3282.283 6114.58 3535.959 6138.663 3726.345 L 6024.967 3726.345 Q 5904.75 3604.913 5862.703 3592.351 Z " fill="rgb(0,0,0)"/><path d=" M 5903.098 3542.668 L 5805.253 3530.222 C 5829.885 3448.78 5826.271 3323.146 5813.41 3138.948 C 5932.097 3312.579 6006.311 3486.948 6035.784 3661.681 C 5979.078 3598.312 5941.361 3554.099 5903.098 3542.668 Z " fill="rgb(153,152,152)"/><linearGradient id="_lgradient_17" x1="0" y1="0.5" x2="1" y2="0.5" gradientTransform="matrix(262.805,0,0,540.722,5826.349,3133.405)" gradientUnits="userSpaceOnUse"><stop offset="1.6666666666666667%" stop-opacity="1" style="stop-color:rgb(255,255,255)"/><stop offset="100%" stop-opacity="1" style="stop-color:rgb(195,193,193)"/></linearGradient><path d=" M 5862.126 3141.749 C 5962.907 3271.893 6035.934 3456.031 6089.154 3674.127 L 6052.935 3671.547 C 6010.599 3467.732 5932.44 3278.328 5826.349 3133.405 L 5862.126 3141.749 Z " fill="url(#_lgradient_17)"/></g><g><path d=" M 5383.588 3540.028 L 5246.302 3530.222 C 5278.718 3450.54 5312.931 3282.824 5298.972 2991.234 L 5375.727 3001.287 C 5445.141 3095.135 5504.062 3197.281 5552.478 3307.707 C 5604.586 3426.553 5663.224 3578.531 5690.981 3716.539 L 5569.906 3716.539 Q 5428.364 3553.801 5383.588 3540.028 Z " fill="rgb(0,0,0)"/><path d=" M 5422.813 3471.385 L 5321.875 3458.165 C 5347.285 3371.66 5349.689 3265.346 5336.422 3069.697 C 5458.861 3254.123 5543.281 3468.693 5573.685 3654.288 C 5549.744 3607.563 5466.995 3490.668 5422.813 3471.385 Z " fill="rgb(153,152,152)"/><linearGradient id="_lgradient_18" x1="0" y1="0.5" x2="1" y2="0.5" gradientTransform="matrix(278.973,0,0,603.698,5349.77,3063.81)" gradientUnits="userSpaceOnUse"><stop offset="1.6666666666666667%" stop-opacity="1" style="stop-color:rgb(255,255,255)"/><stop offset="100%" stop-opacity="1" style="stop-color:rgb(195,193,193)"/></linearGradient><path d=" M 5386.678 3072.672 C 5490.645 3210.907 5573.84 3435.854 5628.742 3667.508 L 5591.379 3664.768 C 5547.704 3448.282 5459.215 3217.742 5349.77 3063.81 L 5386.678 3072.672 Z " fill="url(#_lgradient_18)"/></g></g><g opacity="0.21"><path d=" M 4257.404 4341.017 C 4527.92 4465.854 5582.793 4225.616 5865.512 4280.135 C 5777.952 4244.249 5684.586 4212.102 5585.865 4183.491 C 5265.539 3397.494 5105.477 3225.512 4664.469 4023.939 C 4528.83 4012.222 4388.317 4004.041 4243.512 3999.135 L 4193.512 4045.135 L 4260.313 4093.407 Q 4108.765 4155.36 4139.807 4233.728 C 4053.338 4281.985 3904.949 4318.741 3694.42 4343.742 C 3900.413 4365.741 4088.221 4365.006 4257.404 4341.017 Z " fill-rule="evenodd" fill="rgb(0,0,0)"/></g><g opacity="0.21"><path d=" M 6423.042 3726.345 C 6287.871 3662.711 6183.551 3649.098 6099.439 3628.283 L 6109.245 3608.671 L 6315.174 3628.283 L 6423.042 3726.345 Z " fill="rgb(0,0,0)"/></g><g opacity="0.21"><path d=" M 6021.124 3726.345 C 5897.992 3656.754 5754.214 3613.624 5658.161 3598.865 L 5638.548 3540.028 L 5913.256 3579.253 L 6021.124 3726.345 Z " fill="rgb(0,0,0)"/></g><g opacity="0.21"><path d=" M 5569.905 3716.539 C 5446.773 3646.947 5401.192 3623.43 5305.139 3608.671 L 5226.689 3481.191 L 5462.037 3540.028 L 5569.905 3716.539 Z " fill="rgb(0,0,0)"/></g></g></g></svg>