<svg xmlns="http://www.w3.org/2000/svg" xmlns:xlink="http://www.w3.org/1999/xlink" style="isolation:isolate" viewBox="-7.57 -29.107 950.57 329.107" width="950.57pt" height="329.107pt">
    
<style type="text/css">
    
  @font-face {
    font-family: 'Comic Neue';
    src: url('neue.ttf') format('truetype');
  }
  
  :root {
    --dot-color: #000;
    --outline-color: #000;
  }

</style>
<defs>
    
    <circle id="dotty" r="1" />
      
    <!--matrix(sx, 0, 0, sy, cx - sx * cx, cy - sy * cy)-->
    
    <pattern id="dotz" width="2" height="2" viewBox="-1 -1 2 2" patternUnits="userSpaceOnUse" patternTransform="rotate(45)">
        <circle r="0.8" fill="var(--dot-color,var(--outline-color, #000))"/>
    </pattern>
           
    <pattern id="greenDotz" width="2" height="2" viewBox="-1 -1 2 2" patternUnits="userSpaceOnUse" patternTransform="rotate(45)">
        <circle r="0.7" fill="hsl(120,30%,30%)"/>
    </pattern>
    
    <pattern id="darkDotz" width="2" height="2" viewBox="-1 -1 2 2" patternUnits="userSpaceOnUse" patternTransform="rotate(45)">
        <circle r="1" />
    </pattern>
    
    <pattern id="smallGreenDotz" width="2" height="2" viewBox="-1 -1 2 2" patternUnits="userSpaceOnUse" patternTransform="rotate(45)">
        <circle r="0.5" fill="hsl(120,50%,30%)" />
    </pattern>
    
    <linearGradient id="pinkFade" x1="1" y1="0" x2="1" y2="1">
      <stop offset="0%" stop-color="var(--pinkie-color,#fff)" stop-opacity="1" />
      <stop offset="100%" stop-color="var(--pinkie-color,#fff)" stop-opacity="0" />
    </linearGradient>

    <filter id="blur">
      <feGaussianBlur in="SourceGraphic" stdDeviation="1" />
    </filter>
</defs>

    <g>
        
        <rect x="-7.57" y="-11.884" width="950.57" height="311.884" transform="matrix(1,0,0,1,0,0)" fill="rgb(255,255,255)"/><g><g>
<path d=" M 157.293 15.547 C 161.293 10.652 165.267 10.051 169.138 13.694 C 159.032 51.289 123.96 133.269 94.969 218.016 L 88.092 220.139 Q 151.301 52.67 157.293 15.547 Z " fill="rgb(0,0,0)"/>
<path d=" M 89.893 234.58 C 87.741 241.394 85.606 248.343 83.495 255.406 C 79.555 258.558 77.733 258.854 74.209 256.859 C 78.696 245.294 83.034 234.086 87.113 223.46 L 89.893 234.58 L 89.893 234.58 Z " fill="rgb(0,0,0)"/>
        
        
        
<path d=" M 212.697 9 L 14.4 9 L 14.4 279 L 230.4 279 L 230.4 203.65 L 233.4 204.793 L 233.4 282 L 11.4 282 L 11.4 6 L 218.765 6 L 212.697 9 L 212.697 9 Z " fill="rgb(0,0,0)"/>
        
<path d=" M 244.8 206.867 L 244.8 279 L 691.2 279 L 691.2 9 L 285.67 9 L 278.091 6 L 694.2 6 L 694.2 282 L 241.8 282 L 241.8 206.204 L 244.8 206.867 L 244.8 206.867 Z " fill="rgb(0,0,0)"/>

<path d=" M 702.6 6 H 924.6 V 282 H 702.6 Z M 705.6 9 V 279 H 921.6 V 9 H 705.6 Z" fill="rgb(0,0,0)"/>
        
        
        <g id="ginny">
            
<path d=" M 102.939 172.614 C 103.719 159.497 100.251 145.777 92.92 134.575 L 92.92 134.575 L 92.92 134.575 C 91.4 132.241 89.708 130.019 87.853 127.934 C 106.558 124.558 126.326 123.552 147.164 124.923 L 154.906 146.847 L 153.171 150.5 Q 148.327 138.955 145.305 129.052 C 133.437 127.439 116.14 127.619 99.887 129.599 L 100.776 130.052 L 100.776 130.052 L 103.121 131.245 C 123.452 129.677 133.595 130.661 144.164 133.451 Q 148.778 145.838 151.606 153.162 L 140.574 172.665 C 140.947 177.625 142.045 181.516 143.876 184.343 Q 146.74 187.108 154.492 182.135 L 173.041 191.836 L 155.413 204.502 Q 149.144 203.202 142.934 202.135 L 142.934 202.135 C 141.441 202.192 142.94 202.77 143.168 202.982 Q 147.887 203.86 151.606 204.732 L 152.674 211.59 C 149.286 209.778 145.843 208.404 142.348 207.466 C 141.109 207.423 141.658 208.022 141.817 208.358 C 147.803 210.461 152.644 212.407 157.709 216.201 L 159.385 215.774 C 157.173 214.185 154.936 212.788 152.674 211.59 L 151.606 204.732 C 153.699 205.209 155.536 205.684 157.159 206.158 L 159.726 205.421 C 158.286 205.106 156.848 204.799 155.413 204.502 L 171.654 191.372 L 180.463 193.745 L 186.829 202.982 L 176.962 242.144 C 165.124 246.6 148.655 246.45 127.561 241.697 C 127.561 241.697 127.561 241.697 127.561 241.697 L 138.52 216.307 L 140.199 205.834 L 151.545 208.757 C 144.38 206.464 138.994 201.344 141.613 201.717 C 130.847 198.039 114.505 176.962 116.25 170.361 C 112.149 174.476 105.428 174.768 102.939 172.614 Z " fill="url(#dotz)"/>
        
        <ellipse cx="116.4511246457815" cy="261.59034982383764" rx="61.77532178205146" ry="1.7868361481811803" fill="rgb(0,0,0)"/>

    
    
<path d=" M 75.609 134.482 L 71.669 128.331 C 51.802 153.841 54.774 180.616 75.609 205.079 L 79.824 199.121 C 59.209 188.272 58.107 147.403 75.609 134.482 Z " fill="rgb(0,0,0)"/>
    
    
<path d=" M 116.25 170.361 C 112.002 174.624 104.942 174.784 102.685 172.374 C 101.749 188.028 98.25 195.426 91.308 202.047 L 99.887 201.613 L 98.098 205.421 L 105.276 208.121 L 107.264 203.338 L 113.347 202.047 L 109.223 204.159 L 108.941 212.292 Q 103.625 216.606 98.762 220.619 C 109.936 222.542 120.618 230.334 127.561 241.697 L 138.52 216.307 L 140.199 205.834 L 151.545 208.757 C 144.38 206.464 138.994 201.344 141.613 201.717 C 130.847 198.039 114.505 176.962 116.25 170.361 Z "
    fill="url(#darkDotz)"
    />
    
    
<path d=" M 66.053 165.152 C 70.449 169.417 75.383 169.364 81.416 165.355 C 80.503 196.07 69.193 188.739 67.81 169.197 L 64.362 165.952 L 66.053 165.152 Z " fill="rgb(0,0,0)"/>
    
    
<path d=" M 71.673 127.303 C 88.404 148.848 92.347 172.072 83.49 196.963 L 74.475 203.186 C 92.836 190.637 88.629 148.899 69.677 127.303 L 71.673 127.303 Z " fill="rgb(0,0,0)"/>
    
<path d=" M 63.55 156.798 C 64.243 147.922 68.158 139.678 74.483 132.881 L 75.87 135.329 C 70.374 139.921 66 147.353 63.55 156.798 Z " fill="rgb(0,0,0)"/>
    
<path d=" M 66.187 181.817 C 70.123 189.763 74.802 195.512 80.381 197.849 L 79.217 199.454 C 74.174 197.883 69.959 191.506 66.187 181.817 Z " fill="rgb(0,0,0)"/>
    
<path d=" M 88.992 194.196 C 95.416 173.36 94.031 154.036 84.275 136.211 L 85.084 133.451 C 97.338 154.425 99.927 176.304 89.803 196.468 L 88.992 194.196 Z " fill="rgb(0,0,0)"/>
    
<path d=" M 87.439 137.337 C 82.249 134.966 77.028 130.465 71.77 123.829 C 50.477 152.932 55.749 183.952 74.904 206.736 C 75.998 208.038 82.706 195.986 91.543 191.372 L 93.122 186.713 C 86.732 191.443 80.196 197.667 74.904 203.186 C 54.764 178.46 53.421 149.861 72.377 128.597 C 76.192 134.003 83.014 138.382 89.099 140.867 L 87.439 137.337 Z " fill="rgb(0,0,0)"/>
    
<path d=" M 81.416 199.121 Q 86.981 202.941 89.471 203.183 C 93.951 203.619 102.538 191.073 102.685 172.374 C 100.306 192.808 92.867 200.191 89.471 200.586 C 87.602 200.803 84.596 200.367 83.82 197.345 L 81.416 199.121 Z " fill="rgb(0,0,0)"/>
    
<path d=" M 79.217 135.398 Q 83.414 126.468 86.824 126.581 C 91.883 126.749 99.208 136.194 101.562 154.923 C 96.532 136.666 89.427 128.967 87.438 129.15 C 85.535 129.326 83.822 131.701 82.292 136.272 L 79.217 135.398 Z " fill="rgb(0,0,0)"/>
    
<path d=" M 104.951 198.158 C 100.277 200.463 95.734 201.402 91.308 200.961 L 90.359 203.108 C 95.456 203.26 99.203 202.367 103.363 200.268 L 104.951 198.158 Z " fill="rgb(0,0,0)"/>
    
<path d=" M 98.371 200.961 L 97.817 206.919 L 104.951 210.522 L 105.996 207.857 L 100.504 206.158 L 101.562 200.268 L 98.371 200.961 Z " fill="rgb(0,0,0)"/>
    
<path d=" M 114.671 243.247 C 107.479 235.924 101.28 232.592 96.824 233.37 C 107.747 227.536 115.385 252.093 140.199 256.259 C 147.276 257.387 155.581 257.389 164.303 256.259 L 166.857 259.063 L 130.298 257.296 C 125.516 252.71 118.503 247.149 114.671 243.247 Z " fill="rgb(0,0,0)"/>
    
<path d=" M 101.023 232.927 Q 102.846 238.608 116.25 244.477 C 112.25 240.328 106.008 234.964 101.023 232.927 Z " fill="rgb(0,0,0)"/>
    
    
<path d=" M 102.685 202.346 L 102.685 200.597 Q 114.578 182.828 116.25 165.349 Q 118.116 182.969 102.685 202.346 Z " fill="rgb(0,0,0)"/>
    
<path d=" M 166.572 180.392 L 164.801 179.277 C 165.21 175.083 165.302 171.351 165.07 168.091 L 165.07 168.091 L 164.063 166.714 C 164.45 171.007 164.427 175.025 163.995 178.77 L 162.037 177.537 Q 162.931 168.872 162.052 162.79 L 160.946 160.814 Q 162.156 169.635 161.221 177.023 L 156.197 173.859 L 154.38 169.855 L 158.123 154.048 L 174.105 185.135 L 167.376 180.898 C 167.646 178.107 167.774 175.522 167.757 173.149 L 167.757 173.149 L 166.857 172.024 C 166.969 174.951 166.872 177.74 166.572 180.392 Z " fill-rule="evenodd" fill="rgb(0,0,0)"/>
    
<path d=" M 88.36 220.565 C 105.486 217.649 118.939 225.584 126.406 238.852 L 123.846 237.234 C 113.137 223.912 99.814 220.59 87.853 223.524 L 88.36 220.565 Z " fill="rgb(0,0,0)"/>
    
<path d=" M 174.501 243.349 C 160.15 247.056 145.59 246.323 129.202 242.144 L 130.298 241.697 C 148.605 245.572 164.577 244.877 176.962 240.005 L 174.501 243.349 Z " fill="rgb(0,0,0)"/>
    
<path d=" M 105.996 203.338 L 102.685 212.673 L 85.084 221.438 C 85.062 228.307 87.3 235.856 89.91 240.827 Q 104.613 253.512 129.278 261.59 L 165.94 261.59 L 165.407 258.221 L 131.387 256.259 C 115.608 249.159 96.099 240.865 93.209 237.241 C 90.142 232.952 88.73 228.382 88.968 223.524 L 105.996 212.292 L 108.247 202.982 L 105.996 203.338 Z " fill="rgb(0,0,0)"/>
    
<path d=" M 104.951 212.292 C 106.731 212.086 108.767 212.089 111.053 212.292 C 108.563 212.331 106.317 212.618 104.311 213.146 L 104.951 212.292 Z " fill="rgb(0,0,0)"/>
    
<path d=" M 124.564 200.466 C 136.804 202.569 148.151 205.84 158.47 212.292 L 156.197 212.673 C 144.419 206.288 130.198 202.507 115.443 201.613 L 124.564 200.466 Z " fill="rgb(0,0,0)"/>
    
<path d=" M 103.985 203.626 L 104.951 204.34 Q 126.861 198.419 150.336 203.183 Q 129.253 195.001 103.985 203.626 Z " fill="rgb(0,0,0)"/>
    
<path d=" M 156.86 173 C 156.54 171.644 156.122 170.563 155.617 169.74 C 156.139 164.944 157.996 162.115 158.47 155.79 L 157.159 153.43 C 156.669 159.663 154.605 163.263 153.153 167.769 C 151.743 167.444 150.048 168.034 148.143 169.421 C 146.78 170.414 145.717 173.345 147.82 176.5 C 146.673 167.513 154.609 167.991 154.438 174.272 C 154.339 177.932 152.37 184.722 147.164 183.457 C 141.925 182.184 140.136 174.962 143.499 169.421 C 147.818 162.304 154.104 154.816 155.677 145.581 L 153.383 138.952 C 153.263 152.532 143.408 165.151 140.957 168.75 C 135.706 176.463 143.35 187.698 146.182 187.585 C 149.224 187.464 152.017 185.855 154.034 183.578 C 160.253 187.836 169.258 191.821 181.041 195.527 L 179.288 192.67 C 170.222 189.745 162.408 185.853 155.841 180.989 C 156.833 179.14 157.355 177.103 157.226 175.161 C 162.238 179.453 168.468 183.801 175.911 188.199 L 173.641 182.975 C 167.414 180.28 160.589 176.4 156.86 173 Z " fill-rule="evenodd" fill="rgb(0,0,0)"/>

<path d=" M 149.083 122.951 C 131.723 120.983 110.806 122.195 86.326 126.581 L 89.471 129.32 C 111.976 125.238 131.209 124.327 147.164 126.581 C 155.008 155.739 168.967 180.454 184.991 204.159 C 180.762 217.456 177.267 230.521 174.501 243.349 C 171.202 249.003 167.026 254.929 162.052 257.709 L 165.94 261.59 Q 175.681 251.646 179.288 243.349 C 181.481 228.726 184.799 214.824 189.23 201.63 C 172.262 182.89 158.881 156.666 149.083 122.951 Z " fill="rgb(0,0,0)"/></g>
    
<path d=" M 447.582 97.407 C 438.911 100.568 430.387 104.818 421.989 110.137 C 407.523 109.71 393.047 111.868 378.542 116.592 C 379.885 117.503 380.769 118.053 381.899 118.475 L 381.374 121.015 C 381.823 125.053 380.453 128.36 378.335 131.585 Q 376.952 130.358 376.181 130.731 C 376.382 135.654 376.116 153.726 370.566 153.84 C 379.104 159.908 393.581 158.278 413.572 147.037 C 430.15 136.416 447.229 131.124 459.744 128.2 L 470.829 135.264 Q 472.62 134.038 477.054 127.612 C 474.916 126.745 469.236 126.505 459.995 126.873 C 457.483 125.473 455.583 123.958 454.277 122.31 C 456.248 121.381 458.425 120.807 460.786 120.57 C 463.11 123.321 466.869 125.427 469.438 126.298 L 478.513 126.617 L 465.144 120.304 C 471.105 111.008 468.347 106.177 456.851 105.792 L 455.722 107.805 C 459.887 108.314 462.536 110.541 463.651 114.468 C 461.379 114.175 458.804 114.587 455.907 115.686 C 454.713 112.793 452.54 111.047 449.369 110.428 L 445.244 110.697 C 442.734 108.73 440.532 105.971 438.618 102.4 L 444.78 100.023 C 446.662 103.037 449.046 105.664 451.912 107.885 L 455.722 107.004 L 456.306 105.3 C 453.754 104.22 450.852 101.596 447.582 97.407 L 447.582 97.407 L 447.582 97.407 L 447.582 97.407 Z " fill="url(#dotz)"/>
    
    
<path d=" M 440.368 192.868 C 440.315 168.175 418.171 179.43 417.503 205.099 L 417.503 209.978 C 427.338 223.874 440.049 219.846 437.428 208.516 L 440.368 192.868 Z " fill="url(#greenDotz)"/>
    
<path d=" M 432.971 237.732 L 446.405 225.539 L 459.556 223.675 L 452.707 237.158 L 438.618 248.542 L 432.046 251.429 L 415.922 252.16 L 432.971 237.732 Z " fill="url(#dotz)"/>
    
<path d=" M 456.851 104.73 C 454.267 103.767 451.334 100.157 448.728 95.511 C 440.776 97.787 431.378 102.318 420.526 109.093 C 408.148 108.314 393.499 110.402 376.57 115.346 C 376.906 117.453 376.78 119.828 376.181 122.46 C 363.404 124.261 360.683 137.28 368.79 144.019 C 367.37 145.947 365.623 147.316 363.539 148.115 C 385.605 183.641 426.324 128.793 465.144 128.976 C 469.5 130.81 471.562 132.625 470.829 136.965 C 474.434 135.152 479.49 129.335 480.625 125.047 C 475.87 124.728 471.271 123.151 466.816 120.304 C 474.028 112.318 468.27 102.312 456.851 104.73 Z  M 378.542 130.577 C 377.972 130.156 377.406 129.707 376.844 129.227 C 378.795 127.102 379.807 121.224 379.938 117.58 C 388.889 113.469 407.181 110.616 419.693 111.22 L 417.32 113.436 C 406.182 113.123 389.801 116.143 384.803 118.601 C 383.676 119.154 382.507 118.574 381.283 118.162 C 385.161 122.097 404.384 124.372 410.192 124.006 C 408.903 125.886 408.053 127.622 407.652 129.227 C 417.359 113.999 430.663 103.944 447.582 99.083 Q 452.12 105.481 455.406 106.696 L 455.406 106.696 L 455.406 106.696 L 455.406 106.696 L 455.406 106.696 C 440.538 109.982 421.817 127.893 403.722 133.648 C 405.05 131.621 406.337 128.995 406.807 125.877 C 396.652 126.1 387.766 124.615 381.331 121.015 C 380.525 124.886 379.597 128.076 378.542 130.577 L 378.542 130.577 Z  M 367.6 150.192 C 367.333 149.867 367.075 149.526 366.824 149.175 C 368.948 148.37 370.469 147.267 371.395 145.875 L 371.395 145.875 L 371.395 145.875 L 371.395 145.875 L 371.395 145.875 C 371.985 146.259 372.585 146.619 373.201 146.944 C 371.502 148.47 369.482 149.394 367.6 150.192 L 367.6 150.192 Z  M 401.749 152.183 C 404.11 151.042 406.577 149.679 409.138 148.114 C 436.545 131.362 458.878 123.562 475.898 126.13 C 472.275 124.759 463.195 121.344 460.736 117.911 C 447.054 121.334 430.001 131.279 408.003 143.956 C 396.052 150.843 385.396 151.965 376.578 148.532 C 381.234 152.368 391.332 153.351 405.129 147.037 C 404.295 148.952 403.169 150.668 401.749 152.183 L 401.749 152.183 Z  M 374.982 129.869 C 374.463 129.117 374.044 128.289 373.734 127.384 L 375.116 128.091 L 376.286 125.616 L 376.286 125.616 L 376.286 125.616 L 376.286 125.616 C 366.682 127.448 365.704 136.284 370.523 141.759 C 367.344 134.225 369.08 128.654 374.982 129.869 L 374.982 129.869 Z  M 376.432 131.585 C 384.527 139.447 405.316 136.962 414.453 131.391 C 425.085 124.909 449.75 107.939 459.744 106.879 C 466.604 107.137 468.887 114.818 464.26 118.803 C 463.687 118.851 462.688 118.156 461.78 117.22 Q 463.757 116.702 464.59 116.592 C 455.28 114.347 429.064 129.971 414.555 139.034 C 411.761 140.779 408.982 142.215 406.254 143.372 C 404.071 142.499 403.47 138.053 405.999 135.848 C 394.662 138.918 379.66 138.755 376.432 131.585 L 376.432 131.585 Z  M 471.65 133.461 C 473.435 131.535 474.585 129.674 475.092 127.867 C 471.937 127.195 468.338 127.259 464.288 128.051 C 467.565 129.871 470.023 131.678 471.65 133.461 L 471.65 133.461 L 471.65 133.461 L 471.65 133.461 Z  M 415.437 115.686 C 413.746 117.263 411.821 119.89 410.572 122.098 C 402.618 123.046 394.664 121.734 388.55 119.839 C 395.362 117.081 406.744 115.755 415.437 115.686 L 415.437 115.686 L 415.437 115.686 Z " fill-rule="evenodd" fill="rgb(0,0,0)"/>
    
    
<path d=" M 417.02 251.625 C 427.738 247.545 441.068 236.585 445.699 228.678 C 446.636 227.081 458.208 224.773 456.593 227.492 C 452.54 234.311 444.452 242.669 433.884 250.007 L 417.02 251.625 L 417.02 251.625 Z  M 455.296 129.21 C 455.734 129.376 456.145 129.524 456.538 129.659 C 482.77 136.109 464.963 156.937 416.423 158.355 C 427.342 159.487 440.741 159.375 452.707 156.262 C 448.074 167.477 445.034 176.122 440.747 187.709 C 439.333 164.412 414.774 182.287 416.367 205.562 C 418.7 206.45 417.707 209.687 415.922 210.182 C 425.193 226.918 443.518 220.066 438.954 210.631 C 443.871 214.272 446.14 215.315 457.325 218.135 C 435.642 222.861 421.104 250.27 409.524 252.16 L 396.711 252.633 C 393.593 240.821 388.58 229.24 382.174 215.536 C 379.601 194.75 376.436 171.992 377.862 148.202 C 376.243 147.91 374.614 146.966 373.164 145.607 C 372.457 171.233 375.764 195.505 378.72 217.004 C 384.137 226.831 388.936 239.236 393.126 254.229 L 439.548 250.008 C 454.167 241.503 463.046 228.593 463.366 215.281 C 455.533 214.088 445.819 211.639 438.001 207.531 C 445.912 185.096 451.69 168.576 457.147 155.043 C 477.057 149.772 478.702 133.771 466.403 129.444 C 465.231 128.649 463.981 127.912 462.625 127.253 L 455.296 129.21 L 455.296 129.21 L 455.296 129.21 Z  M 436.113 208.941 L 435.643 204.076 L 439.157 192.538 C 439.952 171.104 419.721 182.033 418.35 205.625 C 421.873 205.848 420.796 209.219 418.801 209.654 C 426.043 221.478 440.765 218.125 436.113 208.941 Z " fill-rule="evenodd" fill="rgb(0,0,0)"/>
    
    
<path d=" M 384.989 160.008 C 383.785 174.627 384.574 190.722 387.338 208.276 L 388.121 206.25 C 385.607 190.654 385.417 174.233 387.534 156.97 L 384.989 160.008 Z " fill="rgb(0,0,0)"/>
    
<path d=" M 383.515 214.193 L 391.284 211.38 L 387.63 213.444 L 395.139 213.177 L 390.015 215.086 L 384.946 216.365 L 389.014 214.395 L 383.515 214.193 Z " fill="rgb(0,0,0)"/>
    
<path d=" M 402.097 251.429 L 402.097 249.538 L 391.424 213.696 L 390.12 214.097 L 402.097 251.429 Z " fill="rgb(0,0,0)"/>
    
<path d=" M 437.428 209.662 C 435.184 208.613 430.746 208.991 425.889 209.297 C 419.264 209.715 411.062 211.068 403.619 212.465 C 413.565 209.309 425.93 206.824 432.971 206.553 C 432.928 206.1 413.696 205.43 397.226 207.281 C 412.932 204.142 428.765 202.979 437.38 204.311 C 444.036 205.318 440.225 209.917 437.428 209.662 Z " fill="rgb(0,0,0)"/>
    
    
<path d=" M 416.316 146.353 C 418.414 146.797 420.412 147.119 422.263 147.207 C 439.665 148.032 450.938 144.676 453.321 136.03 C 451.835 137.583 450.311 138.882 448.671 139.959 C 445.234 138.111 439.785 136.828 433.107 136.399 L 428.572 139.087 L 419.671 144.365 L 416.316 146.353 L 416.316 146.353 Z " fill="rgb(0,0,0)"/>
    
    
<path d=" M 330.881 259.915 C 437.862 252.176 539.264 252.321 635.109 260.377 L 635.109 260.377 L 635.065 259.681 C 578.276 252.902 525.609 249.203 477.009 248.542 C 437.139 248 388.488 251.005 330.901 257.623 L 330.881 259.915 L 330.881 259.915 Z " fill="rgb(0,0,0)"/>
    
<path d=" M 369.566 62.174 L 379.213 85.792 L 372.915 62.174 L 369.566 62.174 Z " fill="rgb(0,0,0)"/>
    
    
<path d=" M 59.685 71.063 L 69.331 94.681 L 63.033 71.063 L 59.685 71.063 Z " fill="rgb(0,0,0)"/>
    
    
<path d=" M 742.481 83.455 L 738.396 127.744 L 730.634 131.189 L 726.958 203.963 L 720.013 207.839 L 718.787 272.594 C 773.762 268.232 835.051 267.239 902.622 269.579 L 905.89 231.254 L 902.622 217.043 L 895.677 232.115 L 891.184 169.245 L 882.196 181.733 L 856.868 169.245 L 854.825 114.986 L 852.782 111.541 L 851.965 77.522 L 834.399 55.13 L 799.675 65.465 L 798.449 110.25 L 788.96 111.671 L 789.461 90.01 L 770.261 75.8 L 742.481 83.455 Z " fill="url(#dotz)"/>
    
    
<path d=" M 719.428 194.335 L 721.493 197.443 L 721.493 273.106 L 715.643 273.106 L 719.428 194.335 Z " fill="rgb(0,0,0)"/>
    
    
<path d=" M 888.714 165.106 L 887.192 165.401 L 890.616 122.456 L 891.825 118.023 L 894.369 166.059 L 896.519 223.948 L 900.744 213.062 L 905.437 213.062 Q 906.504 217.055 907.334 232.912 C 904.9 244.241 903.906 256.316 904.322 269.104 L 899.628 269.104 C 900.889 256.559 902.401 244.483 904.106 232.816 Q 905.418 223.748 902.758 220.285 C 899.331 225.859 897.606 233.128 897.552 242.063 L 894.369 233.843 L 888.714 165.106 Z " fill="rgb(0,0,0)"/>
    
<path d=" M 856.688 167.795 L 896.519 164.08 L 899.142 189.068 L 894.369 189.994 L 891.825 169.582 L 883.749 183.713 L 857.585 189.068 L 856.688 167.795 Z " fill="rgb(0,0,0)"/>
    
<path d=" M 823.671 55.162 L 822.159 52.989 L 803.748 58.783 L 802.924 61.389 L 794.402 62.925 L 793.662 66.965 L 796.375 66.965 L 796.375 70.463 L 798.594 70.463 L 796.375 109.756 L 800.321 109.756 L 802.047 72.213 L 802.047 68.384 L 831.639 62.925 L 831.639 61.389 L 813.35 64.233 L 834.484 57.216 L 850.738 78.19 L 849.639 109.001 L 852.387 111.32 L 852.387 80.072 L 855.135 81.81 L 855.135 80.072 L 851.425 75.148 L 850.738 70.463 L 835.35 52.989 L 823.671 55.162 Z " fill="rgb(0,0,0)"/>
    
<path d=" M 740.112 126.775 L 742.967 84.613 L 769.407 76.238 L 788.353 90.893 L 787.484 113.675 L 789.222 113.319 L 790.013 93.249 L 791.891 90.893 L 791.891 89.454 L 793.256 90.893 L 794.402 88.931 L 772.402 70.463 L 770.912 71.528 L 768.057 68.384 L 736.527 79.326 L 737.645 80.687 L 740.996 80.072 L 740.996 81.81 L 739.134 81.81 L 739.134 84.613 L 740.996 85.79 L 737.645 127.588 L 740.112 126.775 Z " fill="rgb(0,0,0)"/>
    
<path d=" M 770.912 74.014 L 765.575 120.388 L 768.554 118.51 L 772.402 75.148 L 770.912 74.014 Z " fill="rgb(0,0,0)"/>
    
<path d=" M 836.028 61.389 L 836.959 100.478 L 835.35 100.478 L 834.166 61.389 L 836.028 61.389 Z " fill="rgb(0,0,0)"/>
    
<path d=" M 808.431 74.014 L 816.748 70.923 L 817.121 98.924 L 808.68 101.148 L 808.431 74.014 Z " fill="rgb(0,0,0)"/>
    
<path d=" M 822.159 70.007 L 828.169 67.782 L 828.293 96.83 L 822.086 98.531 L 822.159 70.007 Z " fill="rgb(0,0,0)"/>
    
<path d=" M 746.318 90.713 L 753.022 88.227 L 750.415 123.164 L 744.084 125.126 L 746.318 90.713 Z " fill="rgb(0,0,0)"/>
    
<path d=" M 758.235 87.18 L 764.814 84.825 L 762.456 120.154 L 757.614 121.593 L 758.235 87.18 Z " fill="rgb(0,0,0)"/>
    
<path d=" M 778.717 91.688 L 783.931 95.293 L 782.813 114.135 L 777.6 115.836 L 778.717 91.688 Z " fill="rgb(0,0,0)"/>
    
<path d=" M 725.238 200.426 L 729.571 133.665 L 727.571 131.556 L 726.904 129.448 C 766.974 116.025 804.765 105.611 840.25 98.173 L 856.585 112.581 L 861.585 267.373 L 857.585 267.373 L 853.292 116.227 L 838.958 102.522 C 800.831 110.955 765.393 121.039 732.613 132.742 L 727.946 198.103 L 725.238 200.426 Z " fill="rgb(0,0,0)"/>
    
<path d=" M 846.498 266.626 L 840.25 102.207 L 836.959 100.478 L 842.024 267.373 L 846.498 266.626 Z " fill="rgb(0,0,0)"/>
    
<path d=" M 858.178 200.426 L 856.688 186.422 L 840.25 181.236 C 794.584 185.379 754.441 191.796 719.759 200.426 L 719.759 210.848 C 755.015 202.335 795.188 197.134 840.25 195.213 L 858.178 200.426 Z " fill="rgb(0,0,0)"/>
    
<path d=" M 732.613 270.823 L 727.571 233.843 C 729.495 226.273 733.685 219.2 740.112 212.592 C 747.255 216.592 751.995 223.387 754.274 232.912 L 755.196 269.829 L 753.022 269.776 L 751.78 236.158 C 750.043 232.747 747.967 230.281 745.461 228.668 C 740.402 230.181 736.9 234.952 734.923 242.95 L 735.496 270.876 L 732.613 270.823 Z " fill="rgb(0,0,0)"/>
    
<path d=" M 741.984 270.876 L 739.674 246.055 L 745.544 246.055 L 746.954 269.652 L 741.984 270.876 Z " fill="rgb(0,0,0)"/>
    
<path d=" M 748.811 270.876 L 746.501 246.055 L 752.371 246.055 L 753.781 269.652 L 748.811 270.876 Z " fill="rgb(0,0,0)"/>
    
<path d=" M 760.027 269.652 L 758.235 236.158 C 759.6 224.354 764.332 214.919 772.402 207.822 C 785.977 212.038 793.978 221.494 796.375 236.158 L 798.594 267.373 L 794.402 267.373 L 793.256 231.954 C 789.696 225.908 785.043 221.813 779.268 219.637 C 773.477 225.674 770.143 231.191 769.236 236.158 L 772.402 269.652 L 760.027 269.652 Z " fill="rgb(0,0,0)"/>
    
<path d=" M 805.091 266.626 L 802.047 230.712 C 803.927 221.88 808.118 213.165 814.592 204.537 C 824.173 212.543 830.814 220.597 834.484 228.668 L 836.028 266.626 L 831.639 266.626 L 830.733 230.416 C 828.748 225.895 825.885 222.131 822.086 219.064 C 817.509 222.886 814.607 227.512 813.35 232.912 L 814.592 267.373 L 805.091 266.626 Z " fill="rgb(0,0,0)"/>
    
<path d=" M 776.374 267.985 L 773.209 242.95 L 779.268 241.431 L 782.201 267.985 L 776.374 267.985 Z " fill="rgb(0,0,0)"/>
    
<path d=" M 782.813 242.95 L 789.222 242.063 L 790.013 267.985 L 785.498 267.985 L 782.813 242.95 Z " fill="rgb(0,0,0)"/>
    

<path d=" M 815.907 241.431 L 821.023 240.83 L 822.086 265.812 L 817.912 266.626 L 815.907 241.431 Z " fill="rgb(0,0,0)"/>

<path d=" M 823.126 240.83 L 824.995 265.812 L 829.792 265.812 L 828.874 240.83 L 823.126 240.83 Z " fill="rgb(0,0,0)"/>

<path d=" M 705.293 280.801 L 705.293 272.598 C 806.669 264.551 879.591 263.023 924.03 267.985 L 924.03 282.116 L 705.293 280.801 Z " fill="rgb(0,0,0)"/>

<path d=" M 747.003 132.33 L 743.518 133.554 L 743.518 133.554 L 742.848 151.679 L 746.929 150.347 L 747.003 132.33 Z  M 748.194 131.912 L 750.898 130.962 L 750.898 130.962 L 750.792 149.085 L 747.722 150.088 L 748.194 131.912 Z  M 741.836 134.145 L 739.899 134.826 L 739.134 152.892 L 741.732 152.044 L 741.836 134.145 L 741.836 134.145 Z  M 752.577 130.371 L 756.486 128.998 L 755.196 147.647 L 751.898 148.724 L 752.577 130.371 L 752.577 130.371 L 752.577 130.371 Z " fill-rule="evenodd" fill="rgb(0,0,0)"/>

<path d=" M 777.906 124.671 L 774.066 125.895 L 774.066 125.895 L 773.328 144.02 L 777.824 142.688 L 777.906 124.671 Z  M 779.217 124.253 L 782.196 123.303 L 782.196 123.303 L 782.079 141.426 L 778.697 142.429 L 779.217 124.253 Z  M 772.213 126.486 L 770.079 127.167 L 769.236 145.233 L 772.097 144.385 L 772.213 126.486 L 772.213 126.486 Z  M 784.046 122.713 L 788.353 121.339 L 786.932 139.988 L 783.299 141.065 L 784.046 122.713 L 784.046 122.713 L 784.046 122.713 Z " fill-rule="evenodd" fill="rgb(0,0,0)"/>

<path d=" M 819.33 114.409 L 815.823 115.633 L 815.823 115.633 L 815.149 133.758 L 819.256 132.425 L 819.33 114.409 Z  M 820.528 113.99 L 823.25 113.04 L 823.25 113.04 L 823.143 131.164 L 820.053 132.167 L 820.528 113.99 Z  M 814.13 116.224 L 812.181 116.905 L 811.411 134.971 L 814.025 134.123 L 814.13 116.224 L 814.13 116.224 Z  M 824.94 112.45 L 828.874 111.077 L 827.575 129.726 L 824.257 130.803 L 824.94 112.45 L 824.94 112.45 L 824.94 112.45 Z " fill-rule="evenodd" fill="rgb(0,0,0)"/>

<path d=" M 734.923 189.068 L 735.845 172.877 C 738.182 165.38 741.683 159.815 746.318 156.149 C 750.383 158.364 753.045 161.361 754.274 165.106 L 755.011 168.215 C 753.659 164.336 750.966 161.367 746.903 159.279 C 742.994 162.855 739.932 167.851 737.688 174.237 L 737.319 189.001 L 734.923 189.068 Z " fill="rgb(0,0,0)"/>

<path d=" M 805.091 177.908 L 806.267 159.257 C 809.25 150.622 813.719 144.211 819.636 139.988 C 824.825 142.54 828.223 145.991 829.792 150.306 L 830.733 153.887 C 829.007 149.418 825.569 145.999 820.382 143.593 C 815.392 147.712 811.484 153.468 808.62 160.824 L 808.149 177.83 L 805.091 177.908 Z " fill="rgb(0,0,0)"/>

<path d=" M 734.923 189.068 L 735.496 179.484 C 736.948 175.046 739.123 171.752 742.003 169.582 C 744.529 170.893 745.075 172.667 745.839 174.884 L 746.297 176.724 C 745.457 174.428 744.891 172.671 742.366 171.434 C 739.938 173.551 738.035 176.509 736.641 180.289 L 736.412 189.028 L 734.923 189.068 Z " fill="rgb(0,0,0)"/>

<path d=" M 805.091 177.908 L 805.808 166.868 C 807.625 161.756 810.348 157.961 813.952 155.461 C 817.113 156.972 818.076 159.015 819.032 161.569 L 819.605 163.688 C 818.554 161.043 817.567 159.02 814.407 157.595 C 811.367 160.034 808.986 163.441 807.241 167.795 L 806.954 177.862 L 805.091 177.908 Z " fill="rgb(0,0,0)"/>
<path d=" M 746.501 187.794 L 746.924 178.21 C 747.997 173.773 749.604 170.478 751.731 168.309 C 753.597 169.62 754.819 171.393 755.383 173.611 L 755.721 175.451 C 755.101 173.154 753.865 171.397 752 170.161 C 750.205 172.278 748.8 175.235 747.77 179.015 L 747.601 187.755 L 746.501 187.794 Z " fill="rgb(0,0,0)"/>
<path d=" M 819.155 176.441 L 819.728 165.401 C 821.18 160.289 823.356 156.494 826.237 153.995 C 828.763 155.505 830.417 157.548 831.181 160.102 L 831.639 162.222 C 830.799 159.577 829.125 157.553 826.6 156.129 C 824.171 158.567 822.268 161.974 820.873 166.328 L 820.644 176.395 L 819.155 176.441 Z " fill="rgb(0,0,0)"/>
<path d=" M 742.532 165.618 C 743.018 162.433 744.839 160.089 746.597 160.386 C 748.355 160.684 749.388 163.512 748.903 166.697 C 748.417 169.882 746.596 172.227 744.838 171.929 C 743.08 171.631 742.047 168.804 742.532 165.618 Z " fill="rgb(0,0,0)"/>
<path d=" M 815.64 150.392 C 816.26 146.722 818.584 144.022 820.828 144.365 C 823.072 144.708 824.391 147.965 823.772 151.634 C 823.152 155.303 820.827 158.004 818.583 157.661 C 816.339 157.318 815.02 154.061 815.64 150.392 Z " fill="rgb(0,0,0)"/>
<path d=" M 765.857 162.391 C 767.722 151.35 775.032 143.273 782.173 144.364 C 789.313 145.455 793.596 155.304 791.731 166.344 C 789.867 177.385 782.556 185.462 775.416 184.371 C 768.276 183.28 763.993 173.431 765.857 162.391 Z " fill="rgb(0,0,0)"/>
<path d=" M 870.073 190.501 C 870.691 187.63 872.128 185.736 874.353 184.787 C 875.621 187.327 876.265 189.476 876.255 191.203 C 876.825 190.2 878.04 189.075 879.869 187.794 C 880.845 190.477 881.362 192.96 881.391 195.213 C 881.59 193.854 882.519 192.528 884.149 191.203 C 885.144 193.033 885.725 195.115 885.861 197.419 C 886.178 196.664 887.265 195.691 889.094 194.469 C 889.951 196.817 890.245 198.813 889.948 200.426 C 890.616 198.755 891.99 197.496 894.04 196.617 L 893.659 204.537 L 890.616 205.238 L 892.138 212.04 L 889.948 214.161 L 889.948 206.943 L 888.714 205.639 L 887.192 208.794 L 885.254 203.634 L 883.749 204.537 L 883.293 201.83 L 879.869 205.238 L 879.869 197.018 L 877.872 198.02 L 877.872 203.634 L 875.874 204.537 L 875.304 196.617 L 872.831 198.822 L 872.831 201.83 L 870.643 202.732 L 871.119 192.105 L 870.073 190.501 Z " fill="rgb(0,0,0)"/>
<path d=" M 865.072 179.684 L 871.7 267.985 L 875.304 267.985 L 867.282 181.236 L 865.072 179.684 Z " fill="rgb(0,0,0)"/>
<path d=" M 871.119 232.912 L 873.541 204.537 L 875.304 206.943 L 875.874 207.822 L 876.255 210.597 L 878.696 209.555 L 879.869 238.132 L 881.391 210.848 L 882.01 212.048 L 882.01 222.767 L 885.254 216.27 L 885.254 230.712 L 886.613 236.158 L 886.613 225.096 L 888.714 222.767 L 889.948 216.27 L 891.825 216.27 L 888.714 230.712 L 893.659 266.626 L 889.948 266.626 L 887.192 246.055 L 886.613 249.354 L 887.192 266.626 L 884.149 267.985 L 882.01 242.95 L 879.869 249.354 L 881.391 267.985 L 876.255 242.95 L 877.872 266.626 L 873.541 267.985 L 871.119 232.912 Z " fill="rgb(0,0,0)"/>
<path d=" M 612.207 61.768 L 600.178 80.357 L 609.65 61.768 L 612.207 61.768 Z " fill="rgb(0,0,0)"/>
<path d=" M 882.707 52.474 L 870.677 71.063 L 880.15 52.474 L 882.707 52.474 Z " fill="rgb(0,0,0)"/><g opacity="0.62">
<path d=" M 499.653 234.793 L 512.565 232.936 L 520.705 236.461 C 531.674 240.325 544.453 242.361 558.308 243.611 L 576.205 247.139 L 576.205 254.98 L 556.893 253.813 L 515.659 250.643 L 499.653 234.793 L 499.653 234.793 Z " fill="url(#greenDotz)"/></g><g opacity="0.62">
<path d=" M 520.927 150.268 C 522.845 128.282 526.699 109.732 528.553 105.117 C 542.468 103.265 555.655 97.755 576.323 90.906 C 580.978 100.005 588.331 108.16 590.535 116.642 L 581.7 132.708 C 583.734 134.071 584.893 135.69 585.154 137.542 C 581.974 148.045 576.077 161.644 567.632 180.331 L 573.213 211.592 L 559.495 225.875 C 549.359 214.955 540.351 206.004 532.45 199 C 529.325 204.328 527.563 209.209 527.14 213.622 L 521.368 185.482 L 534.606 186.22 L 546.756 178.515 L 542.37 151.85 C 538.007 152.366 528.405 151.955 520.927 150.268 L 520.927 150.268 Z " fill="url(#greenDotz)"/></g><g opacity="0.62">
<path d=" M 536.02 211.092 C 535.665 209.335 534.641 208.025 533.735 208.168 C 532.829 208.311 532.382 209.853 532.737 211.61 C 533.092 213.367 534.116 214.677 535.022 214.534 C 535.928 214.391 536.376 212.848 536.02 211.092 Z " fill="url(#greenDotz)"/></g>
<path d=" M 514.926 233.448 C 520.299 236.726 541.715 242.262 556.907 242.948 L 558.347 232.01 L 558.347 232.01 C 551.898 219.265 536.73 203.605 533.036 200.962 C 530.986 203.483 529.539 206.545 528.532 211.432 C 529.007 216.454 529.318 221.668 529.465 227.068 C 533.4 228.501 540.693 230.035 550.796 231.563 C 541.587 231.179 534.917 230.571 530.797 229.732 C 532.881 231.425 537.293 233.441 544.044 235.771 C 537.223 234.019 530.903 232.31 526.739 230.531 C 523.233 231.59 519.298 232.564 514.926 233.448 Z  M 513.364 233.763 C 524.232 240.349 547.667 242.586 556.796 243.79 L 555.582 253.007 C 531.29 249.64 513.636 242.319 501.093 235.272 C 505.797 235.084 509.635 234.486 513.364 233.763 Z  M 559.136 252.714 L 559.695 244.351 C 563.866 245.409 568.799 246.544 574.473 247.733 L 573.949 254.14 L 577.307 254.355 L 579.362 224.539 C 573.937 199.648 569.9 186.011 569.264 178.44 C 580.447 157.491 586.804 145.054 587.3 135.705 C 586.584 134.774 585.854 133.723 584.058 132.511 C 586.838 127.041 590.539 121.411 593.715 116.691 Q 590.858 107.328 576.536 87.886 C 556.404 97.036 543.062 101.485 530.774 103.53 C 529.574 103.704 528.482 103.817 527.505 103.869 Q 520.65 124.145 518.642 151.184 C 523.095 152.824 531.38 153.534 537.54 153.355 Q 542.725 167.952 542.447 178.963 C 538.727 181.916 535.364 183.767 530.485 184.918 C 526.371 184.878 521.159 184.246 519.541 183.915 C 522.909 198.266 526.094 212.747 526.259 226.032 Q 525.57 226.241 523.905 226.599 Q 524.278 228.033 524.42 228.88 C 516.968 231.34 504.151 233.375 494.92 233.11 C 502.367 239.218 506.581 244.574 510.185 252.045 L 561.765 253.76 L 559.136 252.714 Z  M 581.744 131.161 C 580.371 130.418 578.254 129.34 575.368 127.905 C 580.924 132.454 583.799 135.623 583.969 137.39 C 581.254 150.161 572.084 169.183 561.464 192.748 C 563.348 189.35 565.129 186.106 566.808 183.009 L 571.92 206.478 C 568.003 210.84 563.726 216.129 559.064 222.278 L 553.055 195.331 L 557.279 221.338 C 550.706 212.549 535.118 199.199 532.733 198.001 C 530.956 199.913 529.332 202.609 527.923 205.795 C 526.722 199.163 524.943 192.261 523.213 186.42 C 535.984 187.307 547.665 187.081 555.419 184.414 C 556.133 185.241 562.998 161.673 568.728 145.613 C 570.743 145.062 568.829 153.704 567.238 162.122 C 570.57 153.027 572.392 147.018 573.05 142.468 C 573.371 140.251 567.043 139.455 563.145 139.069 C 566.014 140.234 567.373 141.432 567.826 143.171 C 555.432 151.082 531.465 152.464 522.081 149.588 Q 523.753 127.933 529.31 106.499 C 537.548 105.62 554.426 102.358 572.678 92.977 L 565.045 124.768 L 576.062 93.416 Q 588.343 110.414 589.578 117.235 Q 586.235 122.358 581.744 131.161 Z  M 560.591 231.273 L 559.764 243.355 L 559.764 243.355 C 564.403 244.604 569.34 245.762 574.549 246.809 L 576.228 226.257 L 573.871 215.436 C 570.023 219.382 565.604 224.669 560.591 231.273 L 560.591 231.273 Z " fill-rule="evenodd" fill="rgb(0,0,0)"/>
<path d=" M 537.577 211.096 C 537.086 208.671 535.574 206.878 534.201 207.095 C 532.828 207.311 532.112 209.456 532.602 211.881 C 533.093 214.306 534.605 216.099 535.978 215.883 C 537.351 215.666 538.067 213.522 537.577 211.096 Z  M 535.527 211.151 C 535.217 209.616 534.412 208.458 533.73 208.565 C 533.049 208.673 532.748 210.006 533.058 211.54 C 533.368 213.075 534.173 214.233 534.855 214.126 C 535.536 214.018 535.837 212.685 535.527 211.151 Z " fill-rule="evenodd" fill="rgb(0,0,0)"/><g clip-path="url(#_clipPath_5E1Cee5xkkelnTSXJs4O85juXoaIPhTX)"><text transform="matrix(1,0,0,1,359.624,28.994)" style="font-family:'Comic Neue';font-weight:400;font-size:14px;font-style:normal;fill:#000000;stroke:none;">I'm actually</text><text transform="matrix(1,0,0,1,341.928,45.094)" style="font-family:'Comic Neue';font-weight:400;font-size:14px;font-style:normal;fill:#000000;stroke:none;">filled with alcohol.</text></g>

<defs><clipPath id="_clipPath_5E1Cee5xkkelnTSXJs4O85juXoaIPhTX"><rect x="0" y="0" width="107" height="32.2" transform="matrix(1,0,0,1,341.739,16.394)"/></clipPath></defs>

<g clip-path="url(#_clipPath_a8qCYq7aUnOwL3Fg9YItSkA7uAQyxiRK)"><text transform="matrix(1,0,0,1,41.983,35.042)" style="font-family:'Comic Neue';font-weight:400;font-size:14px;font-style:normal;fill:#000000;stroke:none;">I'm from</text><text transform="matrix(1,0,0,1,42.193,51.142)" style="font-family:'Comic Neue';font-weight:700;font-size:14px;font-style:normal;fill:#000000;stroke:none;">DUBLIN!</text></g><defs><clipPath id="_clipPath_a8qCYq7aUnOwL3Fg9YItSkA7uAQyxiRK"><rect x="0" y="0" width="55" height="32.2" transform="matrix(1,0,0,1,41.831,22.442)"/></clipPath></defs><g clip-path="url(#_clipPath_LyE4lmRGLKgWUT12n1gIqkFYphvyZrUi)"><text transform="matrix(1,0,0,1,528.638,32.701)" style="font-family:'Comic Neue';font-weight:400;font-size:14px;font-style:normal;fill:#000000;stroke:none;">On my mother's side, I'm</text><text transform="matrix(1,0,0,1,548.336,48.801)" style="font-family:'Comic Neue';font-weight:400;font-size:14px;font-style:normal;fill:#000000;stroke:none;">ethnically menthol.</text></g><defs><clipPath id="_clipPath_LyE4lmRGLKgWUT12n1gIqkFYphvyZrUi"><rect x="0" y="0" width="155.75" height="32.2" transform="matrix(1,0,0,1,526.929,20.101)"/></clipPath></defs><g clip-path="url(#_clipPath_yaDoeleUwtLW5GZf5phW31PDPF9QfVqY)"><text transform="matrix(1,0,0,1,823.369,25.394)" style="font-family:'Comic Neue';font-weight:400;font-size:10px;font-style:normal;fill:#000000;stroke:none;">I've been completely</text><text transform="matrix(1,0,0,1,820.379,36.894)" style="font-family:'Comic Neue';font-weight:400;font-size:10px;font-style:normal;fill:#000000;stroke:none;">destroyed by muslims.</text></g><defs><clipPath id="_clipPath_yaDoeleUwtLW5GZf5phW31PDPF9QfVqY"><rect x="0" y="0" width="99.36" height="23" transform="matrix(1,0,0,1,818.379,16.394)"/></clipPath></defs><g clip-path="url(#_clipPath_3qy7QBzBXkU6slfcisombL4tjhTYBgGT)"><text transform="matrix(0,-0.376,0.376,0,701.493,200.741)" style="font-family:'Times New Roman';font-weight:400;font-size:20px;font-style:normal;fill:#000000;stroke:none;">©MCMLXXXVIII Trilobyte</text></g>

<path d=" M 169.138 21.527 C 200.552 9.551 231.835 -1.012 258.957 0.602 Q 227.369 54.302 213.245 111.46 Q 175.945 107.685 130.834 117.58 C 155.543 96.512 168.341 64.524 169.138 21.527 Z " fill="rgb(0,0,0)"/>

<path d=" M 169.138 21.527 C 200.552 9.551 231.835 -1.012 258.957 0.602 Q 227.369 54.302 213.245 111.46 Q 175.945 107.685 130.834 117.58 C 155.543 96.512 168.341 64.524 169.138 21.527 Z " fill="url(#smallGreenDotz)"/>

<path d=" M 286.852 91.271 C 297.114 93.339 308.636 94.486 321.388 94.681 C 322.76 87.886 323.377 80.822 323.208 73.458 C 331.581 77.656 337.48 83.482 340.875 90.906 C 322.115 115.035 306.903 146.57 295.208 185.482 C 285.728 210.14 262.772 216.212 227.576 201.865 C 255.641 168.304 275.394 130.312 286.852 91.271 Z " fill="url(#dotz)"/><g>
<path d=" M 162.249 20.191 C 240.127 -7.8 271.5 -12.236 316.19 24.659 C 285.719 62.607 269.181 101.7 254.974 136.342 L 253.158 131.317 C 266.105 100.53 279.161 64.051 303.905 27.451 C 284.899 -4.529 228.083 -8.041 160.043 29.126 L 162.249 20.191 Z " fill="rgb(0,0,0)"/>
<path d=" M 213.732 169.158 C 228.309 146.12 235.345 129.688 236.022 115.123 L 241.341 118.111 C 239.887 128.698 232.527 144.458 219.249 165.38 L 213.732 169.158 Z " fill="rgb(0,0,0)"/>

<path d=" M 293.724 194.856 C 292.501 196.671 290.969 198.434 289.128 200.145 C 267.197 220.517 208.426 208.236 211.519 174.767 C 212.877 160.076 251.093 142.588 251.66 133.793 C 252.964 113.561 208.18 106.925 130.079 118.111 C 154.327 98.305 166.495 66.67 166.479 23.103 L 172.207 20.191 C 169.552 73.649 158.526 104.542 139.056 112.8 C 215.175 101.329 258.755 107.646 256.376 131.685 C 254.416 151.49 221.469 156.515 217.002 176.06 C 210.209 205.777 260.506 211.972 285.942 197.357 C 300.993 188.708 295.383 174.18 273.96 157.652 C 308.653 131.96 324.657 101.399 321.984 65.982 C 332.39 73.966 339.84 81.974 344.321 89.994 C 325.824 111.685 308.962 146.643 293.724 194.856 Z  M 295.985 175.856 C 293.998 170.159 289.844 164.091 283.523 157.652 C 308.924 135.668 325.52 103.634 326.092 75.35 C 330.83 77.019 337.885 85.842 339.854 89.994 C 317.128 117.928 293.136 179.207 295.985 175.856 Z " fill-rule="evenodd" fill="rgb(0,0,0)"/>

<path d=" M 277.782 81.813 C 283.704 90.676 301.022 94.677 322.474 90.372 L 321.984 95.133 C 296.698 97.77 281.014 93.832 276.216 86.252 L 277.782 81.813 Z " fill="rgb(0,0,0)"/>

<path d=" M 226.3 199.674 L 229.275 201.119 C 253.994 173.651 274.282 137.613 288.127 90.994 L 285.942 89.994 C 271.265 138.231 250.772 176.34 226.3 199.674 Z " fill="rgb(0,0,0)"/>


</g></g></g></g></svg>