<svg xmlns="http://www.w3.org/2000/svg">

  <style id="config_styles" type="text/css">
    :root {

      --accent-color: hsla(0, 90%, 25%, 0.5);
      --text-size: 40px;

      /*
      --bg-filter: url(#shake);
      --bg-fill: url(newsprint.jpg);
      --bg-mask: url(#fade_mask);
      --bg-opacity: 0.85;
      */

      /*
      --show-hearts: 1;
      --title-color: orange;
      --living-color: yellow;
      --things-color: blue;
      --circ1-color: green;
      --circ2-color: white;
      --heart-color: green;
      --square-color: purple;

      --border-color: red;
      --border-width: 9;

      --copy-color: brown;

      --outline-color: pink;
      */

    }
  </style>

  <style id="svg_styles" type="text/css">
    #layouts {
      filter: var(--bg-filter, none);
      opacity: var(--bg-opacity, 1);
    }

    svg {
      background-color: var(--bg-color, none);
      background-image: var(--bg-fill, none);
      mask: var(--bg-mask, none);
    }
  </style>

  <style id="comic_styles" type="text/css">
    @font-face {
      font-family: 'Comic Neue';
      src: url('neue.ttf') format('truetype');
      /* src: url('ComingSoon.ttf') format('truetype'); */
    }

    text {
      font-family: 'Comic Neue';
      font-weight: 400;
      font-size: var(--text-size, 24px);
      fill: var(--text-color, var(--outline-color, #000));
    }

    text.plain {
      font-family: 'Times New Roman';
    }

    .text-bubble {
      fill: none;
      stroke: var(--outline-color, #000);
      stroke-width: 1px;
    }

    .text-bubble+path {
      fill: var(--outline-color, #000);
    }

    #title_line {
      fill: var(--border-color, var(--outline-color, #000));
      height: 2px;
    }

    #copyright,
    #scoundrel {
      font-family: 'Times New Roman';
      font-weight: 300;
      font-size: 17px;
      fill: var(--border-color, var(--outline-color, #000));
    }

    .obj {
      fill: var(--outline-color, #000);
    }

    @media (orientation: portrait) {
      .land {
        display: none;
      }

      #title_line {
        width: 625px;
      }
    }

    @media (orientation: landscape) {
      .port {
        display: none;
      }

      #title_line {
        width: 1275px;
      }
    }
  </style>

  <style id="border_styles">
    .border {
      fill: none;
      stroke: var(--border-color, var(--outline-color, #000));
      stroke-width: var(--border-width, 2);
    }

    .slant {
      marker-start: url(#slant_cap);
      marker-end: url(#slant_cap);
    }
  </style>

  <defs id="pats_and_filters">

    <linearGradient id="fade" gradientUnits="objectBoundingBox">
      <stop offset="0%" stop-color="#000" stop-opacity="0" />
      <stop offset="100%" stop-color="#000" />
    </linearGradient>

    <filter id="blur">
      <feGaussianBlur in="SourceGraphic" stdDeviation="0.3" />
    </filter>

    <filter id="shake" width="120%" height="220%" color-interpolation-filters="sRGB">
      <feImage href="newsprint.jpg" x="0" y="0" width="220%" height="120%" preserveAspectRatio="xMidYMid slice"
        result="mig" />
      <feDisplacementMap in="SourceGraphic" in2="mig" result="rat" scale="5" xChannelSelector="R"
        yChannelSelector="B" />
      <feGaussianBlur in="rat" stdDeviation="0.3" result="blur" />
      <!-- shift image back based on displacement's scale -->
      <feOffset in="blurred" dx="0.5" dy="5" result="final" />
    </filter>

    <pattern id="newsprint" patternUnits="userSpaceOnUse" width="100%" height="100%">
      <image href="newsprint.jpg" width="100%" height="100%" preserveAspectRatio="none" />
    </pattern>

    <pattern id="dots_lite" fill="pat(dots,var(--outline-color,#000))" />
    <pattern id="dots_dark" fill="pat(dots,var(--outline-color,#000),1.2,1.7)" />

  </defs>

  <defs id="clip_and_masks">

    <clipPath id="clip_land">
      <rect x="12.5" y="0" width="1275" height="400" />
    </clipPath>

    <clipPath id="clip_port">
      <rect x="12.5" y="0" width="625" height="825" />
    </clipPath>

    <mask id="fade_mask" maskUnits="objectBoundingBox" maskContentUnits="objectBoundingBox">
      <linearGradient id="fade_gradient" x1="0%" y1="100%" x2="90%" y2="0%">
        <stop offset="0%" stop-color="#fff" stop-opacity="1" />
        <stop offset="70%" stop-color="#fff" stop-opacity="0.5" />
      </linearGradient>
      <rect width="1" height="1" fill="url(#fade_gradient)" />
    </mask>

  </defs>

  <defs id="title_defs">
    <g id="title">
      <rect id="title_line" x="12.5" y="12.5" />
      <use href="title-test.svg#ikon" transform="translate(25 20) scale(2.5)" />
    </g>
  </defs>

  <defs id="copyright_defs">
    <text id="copyright" transform="rotate(270)">
      <tspan letter-spacing="-0.04em">&#xA9;MCMLXXXVIII</tspan>
      <tspan letter-spacing="0.03em">&#xB7; Trilobyte</tspan>
    </text>
    <text id="scoundrel" text-anchor="end">
      <tspan letter-spacing="-0.04em" font-style="italic">
        [The Wheeling Daily Scoundrel]
      </tspan>
    </text>
  </defs>

  <defs id="border_defs">

    <marker id="slant_cap" markerWidth="3" markerHeight="1" refX="1" refY="0.5" orient="auto-start-reverse"
      markerUnits="strokeWidth">
      <path d=" M 0 0 L 3 0 L 1 1 H 0 Z" fill="context-stroke" />
    </marker>

    <path id="left_corner" class="border slant" d=" M 0 220 V 0 H 310 " />
    <path id="right_corner" class="border slant" d=" M 0 -200 V 0 H -420 " />

  </defs>

  <defs id="dialog_defs">

    <g id="dialog_1">
      <g transform="scale(1 0.7)">
        <text text-anchor="middle" class="plain">
          STUCK HERE 'TIL
        </text>
      </g>
      <g transform="scale(1.6 1.6) translate(0 28)">
        <text text-anchor="middle" class="plain">
          <tspan font-size="30" font-weight="bold">
            PESACH
          </tspan>
        </text>
      </g>
      <rect class="border" x="-110" y="-20" width="220" height="75" />
    </g>

    <g id="dialog_2">
      <text text-anchor="middle" style="font-size:44px;">
        Well, the good news is,
        <tspan x="0" dy="1em">
          we have
          <tspan font-style="italic">plenty</tspan>
          to eat...
        </tspan>
      </text>
    </g>

    <g id="dialog_3">
      <text text-anchor="start" style="font-size:36px;">
        The bad new is, the 
        <tspan x="0" dy="1em">
          main ingredient is SNOW.
        </tspan>
        <tspan x="0" dy="1em">
        </tspan>
      </text>
    </g>

    <g id="dialog_4">
      <text text-anchor="end">
        Well, the good
        <tspan x="0" dy="1em">
          news is, we have
        </tspan>
        <tspan x="0" dy="1em">
          <tspan font-style="italic">plenty</tspan>
          to eat.
        </tspan>
      </text>
    </g>

    <g id="dialog_5">
      <text text-anchor="start">
        The bad
        <tspan x="0" dy="1em">
          news is, the
        </tspan>
        <tspan x="0" dy="1em">
          main ingredient
        </tspan>
        <tspan x="0" dy="1em">
          is SNOW<tspan font-style="italic"></tspan>.
        </tspan>
      </text>
    </g>

  </defs>

  <defs id="character_defs">

    <g id="shtetl" fill="var(--outline-color, #000)">


      <g id="chimney">

        <defs>
          <path id="chimney_brick_matte"
            d="m85.34,66.56l1.05,-1.51l-0.19,-0.63l-0.86,0l0,-8.5l-1.03,-0.41l0,-8.77l0.63,-0.82l-0.3,-7.82c6.77,-4.89 12.69,-8.3 17.74,-10.26l-0.46,7.13l-0.48,1.19l0.48,0.49l-0.48,7.07l-0.7,0.73l0.7,0.46l-0.7,7.76l-0.81,0.73l0.72,0.54l-1.51,8.33l-13.36,18.77l-0.44,-14.48z" />
          <mask id="chimney_mask">
            <rect width="1300" height="1300" fill="#fff" />
            <path id="chimney_top"
              d=" m85.78,6.61c-7.27,2.62 -15.88,4.98 -25.86,7.05l20.81,12.09c7.94,-4.29 15.77,-7.96 23.44,-11.03c-4.51,-3.45 -10.63,-6.15 -18.39,-8.11zm8.15,7.05c-3.53,-1.47 -6.62,-2.5 -9.29,-3.13l-13.75,3.62l9.84,4.65l13.2,-5.14z "
              fill="#000" fill-rule="evenodd" />
            <use href="#chimney_brick_matte" fill="#000" />
          </mask>
        </defs>

        <use href="#chimney_brick_matte" fill="var(--accent-color, none)" />

        <path id="chimney_outline" mask="url(#chimney_mask)"
          d="m104.48,52.34l-0.31,5.14l-20.4,23.56l-20.16,-14.48l-1.84,-14.17l0.4,-0.7l-0.57,-0.75l-0.55,-6.51l0.72,-0.48l-0.52,-0.79l-0.7,-7l0.5,-1.28l-0.5,-0.96l-0.63,-6.73l-1.68,-0.89l-1.77,-14.08c12.26,-2.4 22.05,-5.13 29.31,-8.23c9.01,2.56 16.77,5.79 23.24,9.67l-0.82,12.09l-2.8,0.98l-0.13,6.86l-0.79,1.14l0.79,1.16l-0.33,6.3l-0.77,0.45l0.77,0.77l-0.39,7.43l-1,0.85l0.93,0.65z " />
        <path
          d=" m95.62,48.8l-11.31,8.22l-0.54,-1.1l0,0l4.76,-3.36l-0.01,-7.94l-4.75,3.27l0,-2l0,0l16.02,-10.21l0,1.2l-10,6.87l-0.29,8l-0.26,0.3l8.36,-5.91l0.58,0.8l-1.31,0.95l-0.63,8.03l-0.62,0.51l0,-7.63z "
          fill-rule="evenodd" />
        <path
          d="m107.41,52.07l3.37,0c-9.81,8.7 -18.62,20.82 -26.47,36.32q-16.27,-20.12 -31.01,-28.14l4.03,-2.22q11.21,5.2 26.44,19.84q10.44,-15.47 23.64,-25.8z" />
        <path id="chimney_shadow" mask="url(#chimney_mask)"
          d="m104.94,57.48c-8.32,11.71 -13.56,27.19 -15.11,40.41c-6.72,-15.9 -35.2,-36.59 -54.38,-39.52 l-3.94,0 l-24.33,-8.11q16.85,-11.03 29.27,-16.21 l10.38,2.56l3.16,2.86c7.49,4.19 18.58,11.52 33.25,21.98l21.7,-3.97z"
          fill="var(--outline-color, #000)" fill-opacity="0.25" />
      </g>

      <g id="house">

        <defs>
          <path id="roof_matte"
            d="m194.19,156.9l17.61,-22.24l-14.52,-8.34l8.08,2.25l-17.5,-12.63l31.52,17.18l19.72,-25.45l-22.46,-12.21l29.66,10.17l10.55,-11.31l-43.02,-16.69l-35.54,-15.82l9.57,9.83l-44.98,-29.31q6.01,45.21 -17.33,101.54l43.01,41.13l22.33,-26.23l-37.37,-27.09l40.67,25.22z" />
          <path id="door_matte"
            d="m219.22,216.88c1.3,-1.24 2.69,-2.38 4.18,-3.42c2.92,2.4 4.9,5.37 5.92,8.87l-3.52,22.62l-1.3,1.44l-1,1.11l1,-1.11l0,-17.77l-2.07,20.07l0,0l-2.96,3.27l0,0l-5.81,-4.29l0.29,-11.08l-1.01,10.55l-1.04,-0.78l2.05,-23c1.12,-1.78 2.37,-3.42 3.75,-4.93l-1.13,18.58l2.65,-20.13z" />
          <path id="windows_matte"
            d="m171.47,219.69l0,-27.57l-3.9,4.86l-4.17,-5.52l-9.36,-11.34l1.38,18.47l16.05,21.1z" />
          <path id="star_matte" d="M237.76,151.94l-3.52,12.72l-11.29,7.7l-3.49,-7.12l6.39,-23.33l8.39,-7.9l5.54,3.11l-2.02,14.82"/>
          <mask id="house_mask">
            <rect width="1300" height="1300" fill="#fff" />
            <use href="#roof_matte" fill="#000" />
            <use href="#door_matte" fill="#000" />
            <use href="#windows_matte" fill="#000" />
            <use href="#star_matte" fill="#000" />
          </mask>
        </defs>

        <path id="house_front"
          mask="url(#house_mask)"
          d="m181.8,177.47l12.08,-16.51l21.5,-25.27l3.84,1l22.04,-29.02l3.63,3.76l9.71,-5.8l17.57,39.47l-5.71,3.1l-0.67,8.5l-2.75,0.2l-1.18,18.79l-3.19,0l0.77,15.47l-4.84,1.49l0,14.33l-3.39,2.75l1.75,12.6l-33.49,29.63l-38.38,-26.79l0.71,-47.7z"
          fill="url(#dots_lite)" />
        <use href="#roof_matte" fill="url(#dots_dark)" />
        <use href="#star_matte" fill="url(#dots_dark)" />
        <use href="#door_matte" fill="url(#dots_dark)" />

        <g fill="var(--outline-color, #000)" fill-opacity="0.25">
          <path d="m235.78,117.1l8.84,8.37l-8.84,3.1l3.32,1.63l4.46,-0.95l9.4,11.4l-8.34,3.22l0.89,2.83l6.32,-2.83l10.03,13.69l-11.54,3.83l12.72,0l1.49,-4.69l2.97,-15.51l-16.69,-35.3l-6,5.54l-5.03,-0.7l-4,6.37z" />
          <path d="m119.79,145.1c-12.07,44.98 31.66,75.12 70.85,92.33c-25.46,-21.32 -41.39,-45.08 -46.22,-70.65l-24.63,-21.68z" />
          <path d="m256.02,222.17c-14.47,12.85 -19.44,33.95 -18.99,47.38l-15.1,-17.59c9.24,-14.57 15.93,-21.81 34.09,-29.79z" />
          <path d="m244.81,181.07l14.63,-0.95l-0.77,-4.43l-13.86,5.38z" />
          <path d="m200.61,179.37l-14.78,5.42l0.66,3.42l14.12,-8.84z" />
          <path d="m206.16,196.66l-22.46,7.71l0.46,3.86l22,-11.57z" />
          <path d="m204.82,215.35l-22.21,9.82l1.36,2.97l20.85,-12.79z" />
          <path d="m205.99,234.63l-9.5,3.69l3.24,2.56l6.26,-6.25z" />
          <path d="m242.4,196.66l12.2,-4.01l0.64,2.3l-12.84,1.71z" />
          <path d="m241.03,213.46l11.93,-5.23l-1.13,2.7l-10.8,2.53z" />
        </g>

        <path id="house_outline" mask="url(#house_mask)"
          d="m250.41,224.05l4.19,-1.88l-1.02,-12.47l3.27,-2.5l-0.43,-14.55l3.8,-1.49l0,-13.69l3.31,-1.78l1,-18.13l1.93,-0.7l0.48,-4.26l14.98,5.11l2.35,-2.15l-7.44,-17.44l3.03,2.1l2.06,-3.53l-12.98,-15.17l0.89,-4.42l-6.79,-11.21l1.18,-2.36l-4.78,-4.42l3.6,-4.79l-2.7,-2.85l-43.98,-17.63l3.1,-2.8l-36.25,-13.23l-48.26,-28.89q9.94,60.12 -18.39,114.95l32.03,29.96l9.87,30.38l23.34,26.65l3.26,1.81l0.27,-7.5l19.49,-10.2l-18.06,6.97l-0.27,-17.57l19.67,-7.71l-0.8,-1.14l-17.45,6.65l0,-17.38l12.7,-5.42l-1.5,-0.9l-9.77,3.01l1.07,-13.28l4.11,-4.38l2.76,1.42l18.1,-25.5l4,0.91l21.88,-28.04l4.25,1.66l3.47,-4.22l6.3,8.85l-8.32,4.98l-1.45,1.59l9.09,-3.7l7.63,13.92l-11.02,5.5l0.62,0.72l10.4,-4.23l3.56,7.42l-1.57,9.7l-13.01,5.77l-0.8,1.13l10.81,-2.68l-1,14.81l-16.66,7.58l13.97,-3.94l0.16,12.06l-17.22,8.12l12.49,-3.99l0,13.32l-13.18,6.85l10.2,-4.1l0.43,14.32zm-15.86,12.41l-18.19,13.64l-8.48,-5.28l1.75,-19.24q6.53,-9.85 17.07,-21.37q9.52,7.22 10.54,13.37l-2.69,18.88zm-38.69,2.81l-1.98,-1.1l11.66,-3.28l-9.68,4.38z "
          fill-rule="evenodd" />

        <path d="m139.84,91.47l8.66,6.42l-10.85,-3.32l2.19,-3.1z" />
        <path d="m141.81,52.88l25.76,16.1l-24.69,-11.5l-1.07,-4.6z" />
        <path d="m121.62,134.46l26.88,20.34l-21.23,-20.79l-5.65,0.45z" />
        <path d="m233.21,117.1l-15.38,-4.49l13.93,7.68l1.45,-3.19z" />
        <path d="m139.84,77.63l0,-3.79l38.45,23.16l-38.45,-19.37z" />
        <path d="m150.75,69.89l34.31,15.13l24.3,14.09l-31.07,-14.09l-27.54,-15.13z" />
        <path d="m134.25,108.96l12.97,7.92l22.69,11.43l-18.1,-11.89l-17.43,-9.26l-0.13,1.8l0,0z" />
        <path d="m228.1,131.68l8.98,-5.36l8.21,6.8l-0.4,18.41l-4.82,16.6l-9.95,11.24l-8.16,-1.32l-5.6,-13.39l5.57,-22.75l6.17,-10.23z M237.76,151.94l-3.52,12.72l-11.29,7.7l-3.49,-7.12l6.39,-23.33l8.39,-7.9l5.54,3.11l-2.02,14.82z " fill-rule="evenodd" />
        <path d="m217.65,250.92q13.57,-22.98 39.2,-34.44l6.82,1.76q-26.83,14.32 -40.72,36.81l-5.3,-4.13z" />
        <path d="m150.75,170.95c9.56,65.7 63.76,60.41 86.28,98.52l0.73,3.89c-23.25,-32.25 -76.53,-31.15 -96.54,-110.55l9.53,8.14z" />
        <path d="m220.38,168.17l-1.07,-1.13c4.82,-2.8 10.32,-5.46 16.47,-8.02l-5.66,-24l1.64,-1.01l5.11,25.7l-0.63,1.25c-5.09,1.48 -10.37,3.89 -15.86,7.21z" />
        <path d="m222.28,146.7c5.01,-1.54 11.27,-4.57 18.75,-9.13l0,3.59c-4.88,8.6 -8.51,17.99 -10.91,28.16l-2.02,0l-6.55,-17.38l7.54,14.84c2.6,-9.27 6.13,-18.28 10.56,-27.08c-6.2,4.48 -11.76,7.32 -16.7,8.5l-0.67,-1.5z" />
        <path d="m162.03,187.41l-1.82,-1.63l-0.13,17.84l1.95,3.38l0,-19.59z" />
        <path d="m155.78,195.96l16.21,13.5l0,2.84l-16.21,-13.74l0,-2.6z" />

      </g>

    </g>

  </defs>

  <g id="layouts">

    <svg class="land" viewBox="0 0 1300 520">
      <!-- 1275 x 400 visible area -->
      <use href="#title" />
      <use href="#copyright" transform="translate(1281 475)" />
      <g transform="translate(0 80)" clip-path="url(#clip_land)">

        <use href="#dialog_2" transform="translate(1050 50)" />
        <use href="#dialog_3" transform="translate(55 335)" />

        <use href="#chimney" transform="scale(1.4) translate(290 5)" />
        <use href="#house" transform="scale(1.4) translate(320 10)" />

      </g>
      <use href="#left_corner" transform="translate(12.5 80)" />
      <use href="#right_corner" transform="translate(1287.5 480)" />
    </svg>

    <svg class="port" viewBox="0 0 650 925">
      <!-- 625 x 825 visible area -->
      <use href="#title" style="--show-hearts: 1;" />
      <use href="#copyright" transform="translate(630 900)" />
      <g transform="translate(0 80)" clip-path="url(#clip_port)">


        <use href="#dialog_4" transform="translate(620 75)" />
        <use href="#dialog_5" transform="translate(35 640)" />

        <use href="#shtetl" transform="scale(2) translate(0 75)" />

      </g>
      <use href="#left_corner" transform="translate(12.5 80)" />
      <path class="border slant" d="
        M 12.5 880 V 905 H 637.6 V 300
      " />
    </svg>

  </g>

</svg>