<?xml version="1.0"?>
<svg width="964.852" height="350.54" xmlns="http://www.w3.org/2000/svg" xmlns:svg="http://www.w3.org/2000/svg">
 <style type="text/css">@font-face {
    font-family: &#x27;Kalam&#x27;;
    src: url(&#x27;neue.ttf&#x27;) format(&#x27;truetype&#x27;);
  }</style>
 <g class="layer">
  <title>Layer 1</title>
  <clipPath id="_clipPath_2K2WhLazpVY8mWYtnOioSkwpza0fO392">
   <rect fill="none" height="288" id="svg_4" transform="matrix(1,0,0,1,0,0)" width="242.66" x="693.34" y="-1"/>
   <rect fill="none" height="288" id="svg_5" mask="url(#_mask_hKzyU7Nopp0fNMz4AqrHC7SEBgzsyVjD)" stroke="pink" stroke-miterlimit="2" stroke-width="6" transform="matrix(1,0,0,1,0,0)" width="242.66" x="693.34" y="-1"/>
  </clipPath>
  <g id="svg_8" transform="matrix(1 0 0 1 0 0)">
   <path d="m728.94,305.47c25.66,5.85 47.66,13.86 56.41,0c-10.16,-26.68 -40.72,-66.7 -47.04,-86.02c-20.49,-2.71 -35.85,-0.86 -36.65,5.57l11.09,45.41l5.77,17.81l-5.5,2.61l15.92,14.62l0,0z" fill="rgb(118,0,0)" id="svg_9"/>
   <path d="m739.88,217.94c-11.11,-2.37 -37.88,-4.4 -39.22,3.27l2.16,8.65c-1.53,-9.19 16.7,-12.14 37.99,-8.65l-0.93,-3.27z" fill="rgb(0,0,0)" id="svg_10"/>
   <path d="m738.88,212.58l0.1,1.13q-5.98,-3.18 -22.78,-1.84q7.76,-2.57 15.22,-2.23l7.46,2.94l0,0z" fill="rgb(0,0,0)" id="svg_11"/>
   <path d="m712.75,294.28c-5.74,0.36 -14.06,2.62 -19.1,8.76c3.48,-8.22 13.7,-13.95 22,-12.76l-2.05,4.28l-0.85,-0.28z" fill="rgb(0,0,0)" id="svg_12"/>
   <path d="m710.18,302.46q0.75,-13.58 7.32,-17.35l1.2,4.71q-4.7,2.06 -8.52,12.64z" fill="rgb(0,0,0)" id="svg_13"/>
   <path d="m735.36,211.58c-2.77,14.9 35.28,64.06 47.21,92.06l5.68,-1.82l0,0c-12.77,-27.89 -48.74,-72.02 -46.93,-87.83l-5.96,-2.41l0,0z" fill="rgb(0,0,0)" id="svg_14"/>
   <path d="m714.58,286.14c1.39,4.55 5.5,8.64 6.49,12.07c-6.08,-43.12 -31.36,-109.41 -23.81,-113.22c24.17,-12.17 73.41,-16.1 100.19,-0.22c3.72,2.21 -12.02,7.66 -13,16.22c-0.31,2.75 5.71,9.53 3.35,11.19c-10.05,7.05 -32.77,11.77 -75.97,-13.12c43.61,28.57 71.07,22.21 82.55,14.65c2.7,-1.78 -4.18,-8.91 -3.82,-11.86c1.11,-9.19 18.7,-17.08 14.11,-19.29c-31.55,-15.14 -83.41,-13.84 -111.02,-0.78c-7.65,3.62 10.07,68.52 20.93,104.36z" fill="rgb(0,0,0)" id="svg_15"/>
   <path d="m739.87,202.38l4.36,-1.73c-1.09,-5.14 -1.48,-10.25 -1.23,-14.01q-3.12,-0.86 -3.13,-0.87c10.35,-2.98 31.89,7.85 53.97,0.54c-1.55,1.1 -3.17,2.05 -4.84,2.83c-7.05,6.52 -10.78,10.17 -8.24,14.64c1.64,0.95 3.16,3.77 4.59,5.02c-2.84,-2.86 -13.19,-6.66 -45.48,-6.42z" fill="rgb(0,0,0)" id="svg_16"/>
  </g>
  <g id="svg_31">
   <path d="m891.75,332.22l23.9,4.83c-2.23,-9.82 -3.77,-20.49 -4.65,-32.08l-18.02,-5.47l-1.23,32.72l0,0zm13.78,-224.63l32.53,27.52l-13.59,53.13l-3.77,32.38l-3.95,81.37q8.62,53.27 10.05,57.95l-94.98,-4.73c-2.13,-4.87 -11.52,-15.9 -28.12,-33.04c12.53,0.43 23.06,-1.24 30.55,-4.52l0.67,-4.16l4.33,-1.89l-7.21,-63.88l-2.58,-18.61l10.97,-2.12l3.88,-14.24l-16.67,-9.51l1.18,-78.23l76.71,-17.42l0,0zm-20,224.63l0.89,-36.05c-10.79,-22.63 -24.47,-36.31 -29.19,-40.43q-10.2,11.93 -16.15,35.18l1.89,21.42l35.46,3.26l-34.12,0.06l22.67,2.63l-26.55,0.67l-8.39,4.55c16.18,5.84 34.02,8.76 53.49,8.71z" fill="rgb(0,0,0)" fill-rule="evenodd" id="svg_32"/>
   <path d="m831.84,349.17l-23.01,5.81l144.52,6.1l-28.65,-4.62l-92.86,-7.29z" fill="rgb(0,0,0)" id="svg_33"/>
   <path d="m812.54,326.36l14.52,-0.84c16.52,6.54 36.56,10.57 60.05,12.05l-0.46,15.62c-29.7,-7.16 -54.39,-16.09 -74.11,-26.83z" fill="rgb(118,0,0)" id="svg_34"/>
   <path d="m891.6,338.13l25.56,5.06l1.9,11.4l-27.46,-1.4l0,-15.06z" fill="rgb(118,0,0)" id="svg_35"/>
   <path d="m854.13,279.45c0.35,-4.36 1.74,-7.81 3.1,-7.7c1.37,0.11 2.19,3.74 1.84,8.1c-0.35,4.36 -1.75,7.82 -3.11,7.71c-1.36,-0.11 -2.19,-3.74 -1.83,-8.11z" fill="rgb(0,0,0)" id="svg_36"/>
   <path d="m929.43,192.63l-13.92,33.59l-3.81,70.32l-19.02,-5.26l-4.05,-33.9l0,31.05c-10.13,-16.61 -22.37,-29.57 -31.16,-37.52q-10.01,10.39 -17.25,28.67l-5.48,-45.91l65.6,3.19l5.6,-33.62l-74.08,-0.65l1.85,-73.03l65.67,-13.51l-5.75,49.92l11.89,-49.2l26.77,19.58l-11.72,47.65l8.86,8.63z" fill="rgb(118,0,0)" id="svg_37"/>
   <path d="m912.84,174.6l19.82,15.8l-22.72,54.16l0,-5.6l16.32,-47.2l-13.42,-17.16z" fill="rgb(0,0,0)" id="svg_38"/>
   <path d="m911.52,208.48l-9.55,-8.93l-0.3,2.41l7.7,7l2.15,-0.48z" fill="rgb(0,0,0)" id="svg_39"/>
  </g>
  <mask id="_mask_co1LmxyboaDeHMBZXDQ02tTlk8lTwjRd">
   <rect fill="white" height="288" id="svg_41" width="468" x="0" y="0"/>
  </mask>
  <clipPath id="_clipPath_WryLsWEunBEZZ7hUcJOBV2AJrF3WwMZg">
   <rect fill="none" height="288" id="svg_44" transform="matrix(1,0,0,1,0,0)" width="468" x="0" y="0"/>
   <rect fill="none" height="288" id="svg_45" mask="url(#_mask_co1LmxyboaDeHMBZXDQ02tTlk8lTwjRd)" stroke="rgb(30,30,30)" stroke-miterlimit="2" stroke-width="6" transform="matrix(1,0,0,1,0,0)" width="468" x="0" y="0"/>
  </clipPath>
  <g id="svg_57" transform="matrix(1 0 0 1 0 0)">
   <path d="m2.61,280.23c6.44,-0.23 11.62,-7.93 11.62,-17.38c0,-9.6 -5.34,-17.4 -11.93,-17.4c-0.84,0 -1.66,0.13 -2.45,0.37c-0.79,-0.24 -1.61,-0.37 -2.45,-0.37c-6.58,0 -11.93,7.8 -11.93,17.4c0,9.6 5.35,17.39 11.93,17.39l0,0l0,0l4.91,0l0.3,0l0,-0.01z" fill="rgb(0,0,0)" id="svg_58"/>
   <path d="m-10.05,200.24q-6.76,-0.85 -7.42,0.53c-0.66,1.37 -2.99,11.98 -0.97,14.89q2.01,2.92 8.39,0.81l0,-16.23z" fill="rgb(0,0,0)" id="svg_59"/>
   <path d="m143.53,274.94l0,0.01l-31.62,1.39l-14.76,0c-6.58,0 -11.92,-9.18 -11.92,-18.78c0,-9.6 5.34,-17.39 11.92,-17.39l0,0l46.38,0l0,0.01c0.14,-0.01 0.28,-0.01 0.41,-0.01c6.59,0 11.93,7.79 11.93,17.39c0,9.6 -5.34,17.39 -11.93,17.39c-0.13,0 -0.27,0 -0.41,-0.01z" fill="rgb(0,0,0)" id="svg_60"/>
   <path d="m21.49,246.35c6.35,0.37 11.43,8.02 11.43,17.38c0,9.36 -5.08,17 -11.43,17.38l0,0.01l-0.49,0l-4.73,0l0,0c-6.58,0 -11.92,-7.79 -11.92,-17.39c0,-9.6 5.34,-17.4 11.92,-17.4l0,-1.65l5.22,0l0,1.67z" fill="rgb(0,0,0)" id="svg_61"/>
   <path d="m15.55,159.88l23.21,-6.99l98.63,-11.05l27.34,-3.07l3.59,91.19l-143.22,10.31l-9.55,-80.39z" fill="rgb(0,0,0)" id="svg_62"/>
   <path d="m161.04,227.75l6.81,30.44l-137.86,7.32l1.86,-28.34l129.19,-9.42z" fill="rgb(0,0,0)" id="svg_63"/>
   <path d="m155.87,241.6l11.15,0.9l0.97,7.43l-8.04,2.91l-4.08,-11.24z" fill="rgb(0,0,0)" id="svg_64"/>
   <ellipse cx="143.1" cy="258.23" fill="rgb(70,70,70)" id="svg_65" rx="6.65" ry="10.06"/>
   <ellipse cx="119.57" cy="259.09" fill="rgb(70,70,70)" id="svg_66" rx="6.96" ry="10.48"/>
   <path d="m44.18,157.63l112.76,-11.19l5.91,77.28l-115.72,8.67l-2.95,-74.76z" fill="rgb(96,125,139)" id="svg_67"/>
   <path d="m19.29,163.22l19.67,-5.38l1.19,30.05l-18.61,-0.91l-2.25,-23.76z" fill="rgb(96,125,139)" id="svg_68"/>
   <path d="m41.42,182.8q-25.4,-0.59 -44.94,4.68l-17.78,26.7l-13.67,7.29l10.04,34.13l-2.66,12.62l17.97,0.56l55.11,-5.76l-4.07,-80.22z" fill="rgb(0,0,0)" id="svg_69"/>
   <ellipse cx="20.47" cy="264.81" fill="rgb(70,70,70)" id="svg_70" rx="6.96" ry="10.48"/>
   <path d="m-31.93,222.15l10.26,31.53l16.97,-0.84l5.62,0.85l-0.83,7.6l6.73,-0.27c-10.4,-16.38 28.47,-19.98 27.47,-4.07l7.65,-0.31l-4.23,-45.99l-30.48,2.05l-19.59,9.45l5.06,19.45l-6.74,-19.45c-5.03,-0.76 -10.01,-0.76 -14.97,0c3.75,-1.66 8.74,-2.06 14.97,-1.23l14.74,-7.33c-3.83,-0.89 -11.49,-0.29 -18.64,1.03l-13.99,7.53l0,0z" fill="rgb(96,125,139)" id="svg_71"/>
   <path d="m-24.25,266.13l2.34,-10.86l17.18,-1.32l-0.72,8.72l1.45,-8.62l3.68,0.53l-0.82,12.16l-5.01,-0.81l-18.1,0.2z" fill="rgb(70,70,70)" id="svg_72"/>
   <path d="m14.92,191.02l18.93,-1.39l0.65,16.92l-25.23,1.55l5.65,-17.08z" fill="rgb(70,70,70)" id="svg_73"/>
   <path d="m-2.33,191.96c5.5,-1.77 10.5,-2.02 14.98,-0.94l-8.74,18.73c-5.5,-0.57 -13.65,0.17 -20.15,1.21l13.91,-19z" fill="rgb(70,70,70)" id="svg_74"/>
   <path d="m148.14,272.92l11.81,2.02l-225.46,12.06l59.12,-6.76l106.69,-5.29l47.84,-2.03z" fill="rgb(0,0,0)" id="svg_75"/>
   <path d="m11.82,197.61q6.81,-0.49 7.47,0.89c0.66,1.38 -3.23,11.3 -4.13,14.67c-0.84,3.11 -10.55,2.02 -9.95,0.4l6.61,-15.96z" fill="rgb(0,0,0)" id="svg_76"/>
  </g>
  <mask id="_mask_Wn97xEccTmVw0PzxdIV02CTN0iebY4mQ">
   <path d="m308.85,235.47c-0.11,0.62 -0.16,1.28 -0.16,1.96c0,3.88 1.89,7.04 4.23,7.04c2.34,0 4.24,-3.16 4.24,-7.04c0,-3.89 -2.06,-7.79 -6,-7.69c-0.67,0 -1.3,0.26 -1.86,0.72l0,0c-0.08,0.07 -0.15,0.13 -0.22,0.2l0.45,0.6c0.02,-0.02 0.04,-0.03 0.06,-0.04l0,0c0.35,-0.28 0.74,-0.43 1.15,-0.43c3.09,0.12 4.94,3.36 4.94,6.69c0,3.33 -1.43,6.03 -3.18,6.03c-1.75,0 -3.18,-2.7 -3.18,-6.03c0,-0.71 0.07,-1.38 0.18,-2.01l-0.65,0z" fill="white" id="svg_197"/>
  </mask>
  <mask id="_mask_4LXCNqYGuRpaqy70pAXzs1VwpPYog6iQ">
   <path d="m285.24,235.14c-0.1,0.62 -0.15,1.28 -0.15,1.96c0,3.89 1.75,7.04 3.91,7.04c2.15,0 3.9,-3.15 3.9,-7.04c0,-3.88 -2.58,-6.9 -4.74,-6.9c-0.61,0 -1.2,0.25 -1.71,0.72l0,0c-0.07,0.06 -0.14,0.13 -0.21,0.2l0.42,0.6c0.02,-0.02 0.03,-0.03 0.05,-0.04l0,0c0.33,-0.28 0.69,-0.43 1.06,-0.43c1.62,0 3.77,2.57 3.77,5.9c0,3.33 -1.32,6.04 -2.93,6.04c-1.62,0 -2.93,-2.71 -2.93,-6.04c0,-0.7 0.06,-1.38 0.16,-2.01l-0.6,0z" fill="white" id="svg_199"/>
  </mask>
  <defs transform="matrix(1 0 0 1 0 0)">
   <clipPath id="_clipPath_NL4fh7pOF2XKrRqMvO4JgKMtPem1UV7t">
    <rect height="72.53" id="svg_219" transform="matrix(1,0,0,1,485.25,8.446)" width="190.71" x="0" y="0"/>
   </clipPath>
  </defs>
  <g id="svg_221" transform="matrix(1 0 0 1 0 0)">
   <path d="m653.68,262.94l13.3,2.69c-1.24,-5.47 -2.1,-11.41 -2.59,-17.85l-10.03,-3.04l-0.68,18.2l0,0zm-18.14,-118.94l38.78,1.72q-1.58,45.87 -5.45,78.62c-2.74,23.26 2.36,47.61 4.31,54.03l-52.85,-2.63c-1.18,-2.72 -6.41,-8.86 -15.65,-18.39c6.97,0.23 12.53,-0.57 16.7,-2.4l3.08,-3.49l-4.01,-35.54l-1.79,-12.68l7.24,3.15l-5.57,-18.31l-9.13,-33.77l24.34,-10.31l0,0zm14.68,118.94l0.49,-20.06c-6,-12.59 -13.61,-20.21 -16.24,-22.5q-5.68,6.64 -8.99,19.58l1.05,11.92l19.74,1.81l-18.99,0.04l12.61,1.46l-14.77,0.37l-4.67,2.53c9,3.25 18.93,4.88 29.77,4.85z" fill="rgb(0,0,0)" fill-rule="evenodd" id="svg_222"/>
   <path d="m620.34,272.37l-12.8,3.23l80.42,3.4l-15.95,-2.57l-51.67,-4.06z" fill="rgb(0,0,0)" id="svg_223"/>
   <path d="m609.6,259.68l8.08,-0.47c9.2,3.64 20.34,5.88 33.41,6.71l-0.25,8.69c-16.52,-3.99 -30.26,-8.95 -41.24,-14.93z" fill="rgb(118,0,0)" id="svg_224"/>
   <path d="m653.59,266.23l14.23,2.82l1.05,6.34l-15.28,-0.78l0,-8.38z" fill="rgb(118,0,0)" id="svg_225"/>
   <path d="m632.74,230.8c0.2,-2.43 0.97,-4.35 1.73,-4.29c0.76,0.06 1.22,2.08 1.02,4.51c-0.19,2.42 -0.97,4.35 -1.73,4.29c-0.76,-0.07 -1.21,-2.09 -1.02,-4.51z" fill="rgb(0,0,0)" id="svg_226"/>
   <path d="m670.54,147.44l-33.67,-1.03l-20.22,7.9l38.08,2.06l15.81,-8.93z" fill="rgb(118,0,0)" id="svg_227"/>
   <path d="m621.95,208.1l7.68,0.69l-2.38,-7.07l-12.71,-45.79l38.58,2.72l1.61,21.94l0.56,-22.23l16.02,-9.14l-1.76,38.86l4.77,6.27l-8.19,20.93l-2.33,27.66l-9.6,-2.78l-2.26,-18.87l0,17.28c-5.63,-9.24 -12.44,-16.45 -17.33,-20.87q-5.58,5.77 -9.61,15.95l-3.05,-25.55z" fill="rgb(118,0,0)" id="svg_228"/>
   <path d="m662.21,197.66c-13.11,4.49 -25.15,5.84 -36.09,4.04l1.16,0.75l-0.03,4.65l-4.97,0.93c9.35,2.87 21.89,3.49 37.66,1.85l2.27,-12.22z" fill="rgb(0,0,0)" id="svg_229"/>
   <path d="m661.14,199.33l-4.3,-3.59l6.19,2.19l0,6.18l-1.89,-4.78z" fill="rgb(0,0,0)" id="svg_230"/>
   <path d="m666.98,183.81l9.1,9.78l-13.05,30.82l0,-3.12l9.49,-26.94l-5.54,-10.54z" fill="rgb(0,0,0)" id="svg_231"/>
  </g>
  <g id="svg_232">
   <path d="m566.68,274.19c-13.34,2.87 -32.39,3.4 -57.12,1.57q-5.47,0.3 -8.26,0.46l-19.33,2.15c37.32,1.45 72.13,0.88 105.89,-2.73q-9.58,-0.6 -21.18,-1.45z" fill="rgb(0,0,0)" id="svg_233"/>
   <g id="svg_234" opacity="0">
    <path d="m520.45,224.34c0.92,0.57 1.78,3.39 2.63,4c-13.83,-2.93 -30.21,-0.57 -28.47,12.3c-10.91,-12.26 -8.11,-21.06 -5.42,-23.22c4.21,-3.4 20.53,0.35 31.26,6.92z" fill="rgb(185,185,185)" id="svg_235"/>
   </g>
   <g id="svg_236" opacity="0">
    <path d="m535.18,277.07c-5.22,-26.32 5.88,-36.03 33.32,-29.15l6.17,13.87l-6.17,14.37l-33.32,0.91z" fill="rgb(185,185,185)" id="svg_237"/>
   </g>
   <path d="m542.2,202.28c-12.95,-1.69 -22.65,-0.53 -23.15,3.49l7,28.38l3.65,11.14l-7.09,3.33q0.66,-3.85 0,-21.81c-16.24,-3.53 -28.04,-0.15 -31.22,11.68l7.23,7.75c-4.39,14.21 -3.74,23.56 1.95,28.03l34.61,2.8c-4.85,-25.54 7.34,-35.16 34.04,-28.55c-14.85,-18.03 -22.37,-39.39 -27.02,-46.24z" fill="rgb(118,0,0)" id="svg_238"/>
   <path d="m566.76,246.55c-23.32,-7.52 -39.81,6.55 -34.35,29.09l5.43,0.52c-9.94,-23.38 7.85,-36.6 32.11,-25.12l-3.19,-4.49z" fill="rgb(0,0,0)" id="svg_239"/>
   <path d="m543.18,201.34c-7.01,-1.48 -23.91,-2.75 -24.76,2.04l1.36,5.41c-0.96,-5.74 10.55,-7.59 24,-5.41l-0.6,-2.04z" fill="rgb(0,0,0)" id="svg_240"/>
   <path d="m521.55,226.58c-12.87,-4.28 -33.32,1.82 -30.16,11.91l3.4,3.94c-5.88,-13.57 12.86,-19.01 28.29,-13.67l-1.53,-2.18z" fill="rgb(0,0,0)" id="svg_241"/>
   <path d="m528.23,197.55q7.3,-2.4 14.21,-0.83l0.18,1.98q-3.77,-1.99 -14.39,-1.15z" fill="rgb(0,0,0)" id="svg_242"/>
   <g id="svg_243" opacity="0.61">
    <path d="m519.05,191.28c5.78,15.56 10.52,35.5 16.65,55.44c-7.2,-21.14 -14.65,-46.24 -16.65,-55.44z" fill="rgb(0,0,0)" id="svg_244"/>
   </g>
   <path d="m526.05,249.06c-3.62,0.23 -8.87,1.64 -12.05,5.48c2.19,-5.14 8.65,-8.72 13.89,-7.98l-1.3,2.68l-0.54,-0.18z" fill="rgb(0,0,0)" id="svg_245"/>
   <path d="m555.02,243.38l-2.14,4.16l-1.6,0.41l2.59,-4.27l1.15,-0.3z" fill="rgb(0,0,0)" id="svg_246"/>
   <path d="m550.59,243.53l-1.63,4.39l-1.53,0.6l2.05,-4.55l1.11,-0.44z" fill="rgb(0,0,0)" id="svg_247"/>
   <path d="m546.94,244.47l-1.62,4.39l-1.54,0.6l2.05,-4.55l1.11,-0.44z" fill="rgb(0,0,0)" id="svg_248"/>
   <path d="m542.68,246.02l-0.48,4.66l-1.34,0.96l0.85,-4.92l0.97,-0.7z" fill="rgb(0,0,0)" id="svg_249"/>
   <path d="m538.66,248.64l0.81,4.61l-1.02,1.29l-0.53,-4.97l0.74,-0.93z" fill="rgb(0,0,0)" id="svg_250"/>
   <path d="m535.7,251.93l1.78,4.33l-0.73,1.48l-1.57,-4.74l0.52,-1.07z" fill="rgb(0,0,0)" id="svg_251"/>
   <path d="m532.93,256.35l3.14,3.63l-0.26,1.63l-3.06,-4.09l0.18,-1.17z" fill="rgb(0,0,0)" id="svg_252"/>
   <path d="m531.22,261.79l4.53,2.82l0.11,1.64l-4.57,-3.27l-0.07,-1.19z" fill="rgb(0,0,0)" id="svg_253"/>
   <path d="m530.54,266.61l5.92,2.18l0.27,1.63l-6,-2.63l-0.19,-1.18z" fill="rgb(0,0,0)" id="svg_254"/>
   <path d="m530.73,270.79l6.52,1.6l0.43,1.59l-6.64,-2.04l-0.31,-1.15z" fill="rgb(0,0,0)" id="svg_255"/>
   <path d="m567.61,246.04l-2.15,4.16l-1.59,0.41l2.58,-4.27l1.16,-0.3z" fill="rgb(0,0,0)" id="svg_256"/>
   <path d="m565.21,244.82l-2.14,4.16l-1.6,0.42l2.58,-4.28l1.16,-0.3z" fill="rgb(0,0,0)" id="svg_257"/>
   <path d="m561.94,244.05l-2.15,4.16l-1.59,0.41l2.58,-4.27l1.16,-0.3z" fill="rgb(0,0,0)" id="svg_258"/>
   <path d="m558.76,243.42l-2.14,4.16l-1.6,0.41l2.59,-4.27l1.15,-0.3z" fill="rgb(0,0,0)" id="svg_259"/>
   <path d="m520.91,224.81c-10.82,-8.35 -25.29,-12.87 -32.45,-8.9c-4.6,3.51 -6.65,14.99 10.07,30.92l0,0l1.46,-2.81c-10.47,-8.25 -14.63,-20.05 -10.64,-25.75c4.83,-5.55 27.19,4.83 30.17,8.81c2.3,3.07 4.09,10.57 1.61,21.78l3.3,-1.14c1.41,-6.36 1.03,-19.41 -3.52,-22.91z" fill="rgb(0,0,0)" id="svg_260"/>
   <path d="m524.43,254.18q0.48,-8.49 4.62,-10.85l0.76,2.95q-2.96,1.28 -5.38,7.9z" fill="rgb(0,0,0)" id="svg_261"/>
   <path d="m517.26,228.27l2.44,-3.08l0,0c-0.31,-0.03 -0.61,-0.07 -0.91,-0.1l0,0l-2.62,2.93c0.36,0.07 0.73,0.16 1.09,0.25zm-4.04,-0.67l2.39,-2.78l0,0l0,0c0.31,0.02 0.63,0.04 0.95,0.07l-2.16,2.83c-0.4,-0.05 -0.79,-0.09 -1.18,-0.12zm-3.5,-0.05l2.14,-2.84l0,0l0,0c0.31,0 0.62,0 0.94,0l-1.85,2.8c-0.41,0 -0.82,0.01 -1.23,0.04zm-3.99,0.53l2.03,-3.2l0,0l0,0c0.32,-0.03 0.64,-0.06 0.97,-0.08l-1.67,3.03c-0.45,0.07 -0.89,0.16 -1.33,0.25zm-3.62,1.13l1.46,-3.75l0,0l0,0c0.29,-0.06 0.58,-0.11 0.87,-0.16l-1.11,3.45c-0.42,0.14 -0.82,0.29 -1.22,0.46zm-2.92,1.53l0.57,-4.25l0,0l0,0c0.25,-0.09 0.51,-0.18 0.78,-0.26l-0.28,3.87c-0.37,0.2 -0.73,0.41 -1.07,0.64zm-2.13,1.73l-0.46,-4.57l0,0l0,0c0.22,-0.12 0.44,-0.24 0.67,-0.36l0.63,4.16c-0.3,0.25 -0.58,0.5 -0.84,0.77zm-1.47,1.81l-1.55,-4.57l0,0l0,0c0.18,-0.16 0.37,-0.33 0.57,-0.48l1.63,4.14c-0.23,0.3 -0.45,0.6 -0.65,0.91zm-1.06,2.25l-2.7,-3.91l0.11,-0.4l0,0l0,0c0.08,-0.13 0.17,-0.27 0.26,-0.41l2.79,3.55c-0.18,0.38 -0.33,0.77 -0.46,1.17zm-0.4,2.56l-3.34,-3.75l0,0l0,0c0.05,-0.34 0.13,-0.67 0.22,-0.99l3.24,3.39l-0.01,0.03c-0.06,0.43 -0.1,0.87 -0.11,1.32zm25.45,-10.11l0.2,0l1.45,-1.94l0,0l0,0l0,0l-0.99,0.02l-1.52,1.63c0.29,0.09 0.57,0.19 0.86,0.29zm2.32,1.02l0.38,-0.01l0.87,-1.15l0,0l0,0l0,0l-0.36,-1l-1.57,1.83c0.23,0.1 0.45,0.21 0.68,0.33z" fill="rgb(0,0,0)" fill-rule="evenodd" id="svg_262"/>
   <path d="m504.75,236.78c-11.87,10.51 -15.86,34.74 -2.45,40.17l64.46,0.12c6.9,0.19 10.71,-12.26 9.03,-17.97c-5.18,-17.62 -36.95,-53.86 -31.01,-62.18l-3.85,-1.02c-5.7,7.46 24.97,45.1 30.62,62.62c0.79,2.46 1.11,10.71 -4.38,14.04c-5.48,3.33 -17.85,3.19 -33.5,3.08c-14.23,0.04 -26.04,-0.52 -29.99,-1.37c-8.99,-1.95 -8.31,-24.3 1.07,-37.49z" fill="rgb(0,0,0)" id="svg_263"/>
   <path d="m567.32,246.33l1.9,3.55l2.35,1.16c1.29,-1.72 -1.29,-4.98 -4.25,-4.71z" fill="rgb(0,0,0)" id="svg_264"/>
   <path d="m531.31,251.52c-3.84,-26.96 -19.81,-68.4 -15.04,-70.78c15.27,-7.61 46.36,-10.06 63.27,-0.14c2.35,1.38 -7.59,4.79 -8.21,10.15c-0.19,1.72 3.61,4.74 2.12,5.78c-6.35,4.4 -22.81,3.7 -47.98,-6.99c29.61,15.48 44.88,12.67 52.13,7.94c1.71,-1.11 -2.63,-4.35 -2.41,-6.2c0.7,-5.74 11.81,-10.68 8.91,-12.05c-19.92,-9.47 -52.67,-8.66 -70.1,-0.5c-5.45,2.56 11.77,53.77 17.31,72.79z" fill="rgb(0,0,0)" id="svg_265"/>
   <path d="m548.85,190.5q-1,-2.61 -0.2,-7.62l-2.73,-2.14l0.03,0.01c-0.01,0 -0.02,-0.01 -0.03,-0.01c13.86,3.56 23.36,4.26 28.6,2.01c-0.88,0.61 -1.79,1.13 -2.73,1.56q-3.97,3.59 -4.32,8.07l3.08,1.45c-7.46,0.88 -15.44,-0.01 -23.86,-2.71l0,0l0,0l2.16,-0.62z" fill="rgb(0,0,0)" id="svg_266"/>
  </g>
  <defs>
   <clipPath id="_clipPath_MfCLdNVebfpFW5onkUpeNRusA5DKcpWI">
    <rect height="24.6" id="svg_269" transform="matrix(0,-0.434,0.356,0,684.591,152.355)" width="266" x="0" y="0"/>
   </clipPath>
  </defs>
  <g id="svg_300">
   <g id="svg_78">
    <path d="m248.29,188.25c3.35,4.85 7.95,8.87 13.78,12.05c2.69,-2.53 5.14,-4.47 8.98,-6.93c-0.03,-5.7 -2.26,-11.02 -6.7,-15.99c-8.03,2.43 -12.83,5.68 -16.06,10.87z" fill="rgb(0,0,0)" id="svg_79"/>
    <path d="m262.93,178.11c3.75,4.84 5.75,9.18 6.17,11.04c1.72,7.69 -6.09,5.03 -15.04,-6.47c3.12,-1.96 6.08,-3.47 8.87,-4.57z" fill="rgb(0,0,0)" id="svg_80"/>
    <path d="m252.84,184.29l-3.43,3.35c3.17,4.61 7.21,8.26 12.1,10.96l4.73,-3.54c-5.58,-2.6 -10.04,-6.19 -13.4,-10.77z" fill="rgb(116,116,116)" id="svg_81"/>
   </g>
   <path d="m203.51,199.72c2.24,-7.21 3.95,-13.31 8.62,-15.36c2.84,0.34 5.25,0.3 7.19,-0.14c3.3,1.69 5.47,6.76 7.38,13.58c14.52,-6.05 22.99,-6.86 24.07,-2.32c0.29,2.96 0.85,5.45 2.32,7.34c-8.57,8.94 -20.18,13.19 -30.81,14.18c-4.54,-10.6 -10.79,-16.36 -18.77,-17.28z" fill="rgb(0,0,0)" id="svg_82"/>
   <path d="m206.25,198.77c5.97,2.38 11.06,6.32 15.27,11.82c-1.21,-10.82 -3.29,-17.3 -4.86,-20.34c-3.36,-6.5 -7.71,-6 -10.41,8.52z" fill="rgb(116,116,116)" id="svg_83"/>
   <path d="m215.5,185.99l3.82,0c4.36,4.75 6.92,13.01 7.64,24.77l0.59,-2.9c1.15,0.41 2.27,2.23 3.36,5.45l-0.61,-3.52c5.82,-2.08 12.21,-5.62 19.16,-10.63l1.1,3.12c-8.93,8.2 -17.99,12.46 -27.17,12.76c-0.01,-14.11 -2.63,-23.78 -7.89,-29.05z" fill="rgb(70,70,70)" id="svg_84"/>
   <path d="m227.55,199.38l0.38,7.23l2.06,2.31c10.53,-5.24 16.63,-9.34 18.28,-12.32c2.12,-3.85 -7.86,-3.38 -20.72,2.78z" fill="rgb(116,116,116)" id="svg_85"/>
   <path d="m221.1,173.59c10.42,-7.54 23.55,-15.64 39.36,-22.79c30.38,-12.27 71.66,-23.96 105.77,-32.03c23.23,5.1 40.2,10.9 50.89,17.38l4.8,-0.82c1.78,3.02 4.08,5.36 6.91,7.03l4.46,1.29c-5.91,0.98 -7.78,4.11 -5.63,9.37c-18.52,-3.49 -32.46,-2.63 -41.82,2.58l-3.63,-5.27c6.82,21.36 10.02,40.26 9.6,56.67l-23.59,3.59c-0.46,-24.85 3.67,-52.48 -2.94,-80.63l-8.72,7.8l-14.64,-3.91l-9.26,12.76l-65.03,15.13l-39.46,22.17l-7.07,-10.32z" fill="rgb(0,118,0)" id="svg_86"/>
   <path d="m231.94,113.71c-7.27,-11.08 -54.68,14.18 -47.84,25.05c19.43,12.32 28.72,23.21 43.18,46.13l97.46,-25.01l14.64,-20.58l-72.7,17.87l-38.63,23.32c-13.87,-20.8 -25.09,-32.21 -39.51,-42.92c-8.43,-6.23 31.81,-32.53 44.01,-21.92l-0.61,-1.94z" fill="rgb(0,0,0)" id="svg_87"/>
   <path d="m240.58,179.76c-1.65,5.47 -6.29,13.08 -12.12,20.36l17.14,-3.67c4.75,-14.06 21.89,-23.02 44.44,-23.89l18.82,2.61l9.29,-7.14l14.1,-18.34l-47.06,9.33l-18.02,4.78l-26.59,15.96z" fill="rgb(0,0,0)" id="svg_88"/>
   <path d="m242.05,183.12c-1.33,3.34 -4.65,9 -8.14,14.5c8.8,-7.53 9.3,-15.41 39.32,-24.7l-4.81,-6.54l-26.37,16.74z" fill="rgb(185,185,185)" id="svg_89"/>
   <path d="m313.56,155.79l-43.82,9.41l5.5,6.54l46.6,-7.75l-8.28,-8.2z" fill="rgb(116,116,116)" id="svg_90"/>
   <path d="m237.63,197.22l5,-1.13q2.06,-5.2 12.65,-15.25q-13.77,9.5 -17.65,16.38z" fill="rgb(0,0,0)" id="svg_91"/>
   <path d="m336.98,88.92q6.85,-1.47 14.18,-2.89l2.48,-0.93q-62.19,10.29 -99.61,29.37l12.86,19.73l0,-4.19l-7.94,-14.49q9.22,-5.84 23.25,-11.2l6,13.17l0.72,-1.47l-5.41,-12.2q10.7,-4.01 24.1,-7.74l6.92,11.55l0,-1.85l-5.34,-10.14q12.27,-3.36 26.77,-6.5l5.13,9.78l0.64,-0.91l-4.75,-9.09z" fill="rgb(0,0,0)" fill-opacity="0.2" fill-rule="evenodd" id="svg_92"/>
   <path d="m221.36,174.46l-1.43,-1.14c5.74,-4.08 20.21,-13.8 41.5,-24.45c33.93,-12.37 72.89,-22.82 101.37,-29.97l-0.54,1.54c-28.58,6.33 -67.07,16.88 -99.97,30.26c-20.86,9.12 -35.13,18.62 -40.93,23.76z" fill="rgb(0,0,0)" id="svg_93"/>
   <path d="m257.96,106.37c38.57,-17.38 74.06,-28.1 106.43,-32.18l-2.29,0q-46.91,4.96 -106.56,32.18l2.42,0z" fill="rgb(0,0,0)" id="svg_94"/>
   <path d="m245.6,119.55l-0.29,1.78c6.31,13.2 13.16,24.74 20.56,34.6l0,-1.79c-6.85,-9.1 -13.6,-20.62 -20.27,-34.59z" fill="rgb(0,0,0)" id="svg_95"/>
   <path d="m227.96,161.6c3,-2.1 6.86,-4.21 11.27,-6.23l0,0l-22.12,-31.18c-3.69,1.84 -7.62,4.73 -11.74,8.66l22.59,28.75zm-1.22,0.89c-1.28,0.98 -2.36,1.95 -3.22,2.92c-7.12,-8.44 -15.94,-17.28 -24.97,-25.29c1.95,-2.29 3.87,-4.36 5.74,-6.22l22.45,28.59zm14.5,-8.02c3.8,-1.66 7.95,-3.26 12.27,-4.73c-8.98,-8.01 -15.34,-16.76 -20.64,-26.29c-4.03,-2.21 -8.72,-2.24 -13.92,-0.1l22.29,31.12l0,0z" fill="rgb(0,0,0)" fill-rule="evenodd" id="svg_96"/>
   <path d="m391.76,162.28l15.34,34.2l18.16,0.88c11.82,-8.26 22.09,-25.99 30.78,-53.2c-18.33,-29.02 -44.54,-54.94 -78.66,-77.77c-31.73,-0.37 -58.02,4.69 -62.44,6.22c-72.26,28.74 -110.38,40.18 -123.83,53.4l7.1,-3.27c0.68,-1.4 4.93,-3.71 12.33,-6.96c18.36,-8.06 56.08,-21.87 106.62,-41.59c10.27,-2.75 30.94,-5.86 60.07,-4.46c33.88,20.66 57.37,47.1 72.39,74.43c-5.26,20.04 -13.51,37.29 -25.83,48.02c-9.45,-3.71 -20.12,-13.67 -32.03,-29.9z" fill="rgb(0,0,0)" id="svg_97"/>
   <path d="m353.64,142.71l10.75,-12.75c7.83,24.62 3.74,51.69 3.83,80.23l-2.94,-0.49l-11.64,-66.99z" fill="rgb(0,0,0)" id="svg_98"/>
   <g id="svg_99">
    <path d="m310.83,187.64q-2.16,2.68 -4.15,3.56q0.87,6.57 5.29,10.52l10.31,-9.29l-11.45,-4.79z" fill="rgb(0,0,0)" id="svg_100"/>
    <path d="m308.29,191.72q2.24,-0.9 3.68,-3.36l5.11,10.1l-3.47,2.25q-4.11,-2.67 -5.32,-8.99z" fill="rgb(116,116,116)" id="svg_101"/>
    <path d="m312.6,188.36l9.68,4.07l-4.91,5.35q-4.29,-2.87 -4.77,-9.42z" fill="rgb(0,0,0)" id="svg_102"/>
   </g>
   <path d="m358.59,136.66l-18.21,-5.05c-3.67,11.78 -18.31,30.28 -43.93,55.49c12.27,1.67 27.44,8.12 45.5,19.34l19.78,-26.25l-8.09,-37.48l4.95,-6.05z" fill="rgb(0,0,0)" id="svg_103"/>
   <path d="m356.16,139.3l-12.92,-3.78l9.57,34.13l7.73,1.74l-7.73,-28.68l3.35,-3.41z" fill="rgb(116,116,116)" id="svg_104"/>
   <path d="m340.38,138.55l14.87,49.81l10.24,9.26l2.24,12.51l-10.29,-0.67l-25.19,-10.18c-6.86,-5.57 -14.03,-9.32 -27.81,-14.7c13.9,-13.73 25.88,-29.07 35.94,-46.03z" fill="rgb(185,185,185)" id="svg_105"/>
   <path d="m369.56,209.79q4.26,-46.7 -3.06,-79.75l-2.94,0.73q8.78,30.69 2.92,79.74l3.08,-0.72z" fill="rgb(0,0,0)" id="svg_106"/>
   <path d="m372.32,120.94l1.32,-0.91c14.61,3.07 29.23,8.3 43.85,15.65l-1.31,0c-14.62,-7.21 -29.24,-12.12 -43.86,-14.74z" fill="rgb(0,0,0)" id="svg_107"/>
   <path d="m351.25,142.4c4.04,-3.83 7.89,-8.86 11.55,-15.13c28.08,2.49 51.18,11.98 69.26,28.46c-25.89,-15.88 -48.73,-23.92 -68.5,-24.12c-3.34,4.5 -6.11,8.1 -8.31,10.79c2.98,7.45 4.95,15.45 5.92,23.97l-5.43,-1.52c0.07,-6.07 -1.42,-13.55 -4.49,-22.45z" fill="rgb(0,0,0)" id="svg_108"/>
   <g id="svg_109">
    <path d="m354.36,187.75c-10.64,-6.19 -16.32,-19.57 -17.02,-29.85c3.56,-1.01 7.47,-4.1 10.62,-7.77c5.48,-3.61 14.95,4.88 19.56,18.74c3.19,9.58 1.07,14.99 -3.73,15.42q-6.91,1.41 -9.43,3.46z" fill="rgb(0,0,0)" id="svg_110"/>
    <path d="m356.51,184.54c-6.89,-6.84 -13.79,-17.79 -11.93,-29.04c-1.71,2.34 -3.56,3.75 -5.57,4.19c1.36,10.09 6.1,18.7 14.21,25.82l3.29,-0.97z" fill="rgb(116,116,116)" id="svg_111"/>
    <path d="m359.93,170.68l4.78,5.54l-1.36,2.17l-4.07,-6.41l0.65,-1.3z" fill="rgb(0,0,0)" id="svg_112"/>
    <g id="svg_113">
     <path d="m349.82,171.68c-4.13,-8.12 -4.57,-16.59 -0.98,-18.89c3.59,-2.31 9.86,2.41 13.99,10.53c4.13,8.12 4.57,16.59 0.98,18.89c-3.59,2.31 -9.86,-2.41 -13.99,-10.53z" fill="rgb(70,70,70)" id="svg_114"/>
     <path d="m358.31,161.59c0.02,0.01 1.02,-0.76 1.12,-0.85c-3.07,-4.28 -6.76,-6.44 -9.07,-4.96c-2.86,1.84 -2.5,8.58 0.79,15.05c2.86,5.64 7.02,9.21 9.94,8.83c-2.61,-0.29 -5.98,-3.41 -8.4,-8.11c-3.4,-10.51 0.13,-15.19 5.62,-9.96z" fill="rgb(0,0,0)" id="svg_115"/>
     <path d="m358.94,172.81l0,0l2.67,3.12l0,0l0,0l0,0l0,0c-0.19,0.71 -0.49,1.29 -0.89,1.71l-2.18,-4.6l0.4,-0.23zm-1.63,0.97l0.91,4.48c0.6,0.16 1.16,0.15 1.67,-0.05l0,0l0,0l0,0l0,0l-2.22,-4.65l-0.36,0.22zm-1.79,-0.85l-0.52,3.2c0.68,0.69 1.35,1.24 2.01,1.62l0,0l0,0l0,0l-0.87,-4.26c-0.21,-0.17 -0.42,-0.36 -0.62,-0.56zm-1.77,-2.24l-1.55,0.62c0.56,1.06 0.97,2.22 1.61,3.05l0.64,-2.37c-0.17,-0.27 -0.55,-1.01 -0.7,-1.3zm6.32,-1.74l1.22,0.52c-0.28,-1.08 -0.65,-2.2 -1.12,-3.32l0,0l0,0l0,0l0,0l0,0l-0.74,0.51c0.31,0.79 0.52,1.57 0.64,2.29l0,0zm-0.3,3.04l2.08,2.43c0.06,-0.88 0.01,-1.86 -0.14,-2.9l0,0l0,0l0,0l0,0l0,0l-1.57,-0.67c-0.06,0.46 -0.18,0.85 -0.37,1.14l0,0z" fill="rgb(0,0,0)" fill-rule="evenodd" id="svg_116"/>
    </g>
   </g>
   <path d="m363.56,115.95l0.83,-1.47c0.87,2.32 1.45,4.21 1.72,5.64l1.03,-9.47l0.59,-0.29c0.05,3.66 0.38,7.51 0.98,11.52l-0.49,0.34c-0.47,-2.41 -0.75,-4.49 -0.84,-6.27l-0.88,7.01l-0.39,0.33c-0.66,-2.94 -1.51,-5.38 -2.55,-7.34z" fill="rgb(0,0,0)" id="svg_117"/>
   <path d="m385.68,154.63c7.14,-2.82 20.56,-6.88 42.33,-1.82l1,0.62c-24.69,-4.72 -38.36,-1.19 -42.36,1.8l-0.97,-0.6z" fill="rgb(0,0,0)" id="svg_118"/>
   <path d="m380.8,149.05l1.43,1.65c6.75,15.87 10.52,40.68 10.18,56.34l-1.4,0c0.68,-14.33 -2.56,-40.03 -10.21,-57.99z" fill="rgb(0,0,0)" id="svg_119"/>
   <path d="m422.37,135.3c1.64,2.89 4.35,5.42 8.14,7.41l-1.5,-0.31c-3.56,-1.92 -6.03,-4.21 -7.44,-6.88l0.8,-0.22z" fill="rgb(0,0,0)" id="svg_120"/>
   <path d="m433.85,144.04c-6.39,0.7 -8.04,3.84 -4.96,9.39l-0.89,-0.59c-2.94,-5.26 -1.25,-8.43 5.06,-9.25l0.79,0.45z" fill="rgb(0,0,0)" id="svg_121"/>
   <path d="m367.03,200.8l-3.47,-7.05l-4.97,11.29l-1.15,5.15l7.84,0.32l-3.55,-4.95l5.65,-1.84l-0.35,-2.92z" fill="rgb(0,0,0)" id="svg_122"/>
   <path d="m357.56,204.71c-0.84,-2.61 -0.18,-5.16 1.49,-5.7c1.66,-0.53 3.69,1.15 4.53,3.76c0.84,2.61 0.17,5.16 -1.49,5.7c-1.66,0.53 -3.69,-1.15 -4.53,-3.76z" fill="rgb(0,0,0)" id="svg_123"/>
   <path d="m405.95,139.3c7.02,-3.44 15.32,-5.14 24.89,-5.1c-11.02,1.66 -18.23,4.03 -21.66,7.08l-3.23,-1.98z" fill="rgb(0,0,0)" id="svg_124"/>
   <path d="m408.76,139.3c12.57,0.27 22.54,2.47 29.89,6.6c-9.64,-3.81 -19.46,-5.34 -29.47,-4.62l-0.42,-1.98z" fill="rgb(0,0,0)" id="svg_125"/>
   <path d="m377.23,145.9l-0.96,-3.5c22.33,26.7 33.95,46.7 34.83,59.98l-6.14,1.34c-0.99,-16.25 -8.51,-34.22 -27.73,-57.82z" fill="rgb(0,0,0)" id="svg_126"/>
   <g id="svg_127">
    <path d="m223.28,188.82c6.86,3.74 13,6.01 18.39,6.8l0,5.2q-5.04,5.15 -7.13,5.09q-3,-0.07 -7.74,-2.56c-0.26,-3.22 -1.11,-7.76 -3.52,-14.53z" fill="rgb(0,0,0)" id="svg_128"/>
    <path d="m225.54,191.22c5.02,2.19 9.79,3.94 14.28,5.25c-1.55,1.84 -4.43,4.63 -5.11,4.67c-2.38,0.11 -5.55,-1.8 -8.35,-3.39l0,-0.89l5.54,2.34l3.48,-3.15c-1.83,-0.87 -5.11,-2.16 -9.84,-3.88l0,-0.95l0,0zm14.36,6.77l0.11,3.29c-3.28,3.93 -6.06,3.93 -7.35,3.25l-1.93,-3.64q3.06,1.47 4.03,1.23q0.83,-0.21 5.14,-4.13l0,0zm-5.06,0.01c0.56,-0.46 1.19,-0.64 1.42,-0.4c0.22,0.25 -0.05,0.83 -0.61,1.29c-0.56,0.47 -1.2,0.64 -1.42,0.4c-0.23,-0.25 0.05,-0.82 0.61,-1.29z" fill="rgb(232,232,232)" fill-rule="evenodd" id="svg_129"/>
   </g>
   <g id="svg_130">
    <path d="m324.38,184.13c-4.79,-0.06 -8.41,0.45 -10.89,1.5c-4.3,-4.69 -9.64,-18.59 -8.29,-30.79c3.47,-1.18 5.6,-2.43 9.63,-4.67c9.99,6.96 14.75,26.83 9.55,33.96z" fill="rgb(0,0,0)" id="svg_131"/>
    <path d="m311.16,151.25c-1.58,1.72 -3.11,2.85 -4.6,3.37c-0.59,16.85 4.64,24.09 8,28.79c0.96,-0.29 2.25,-0.46 3.85,-0.53c-4.52,-3.94 -9.27,-21.03 -7.25,-31.63z" fill="rgb(116,116,116)" id="svg_132"/>
    <path d="m319.92,162.76q-3.11,-8.95 -4.74,-10.02c-3.42,-2.24 -4.07,7.6 0.99,21.36q-2.31,-13.98 -0.99,-16.19q0.96,-1.59 4.74,4.85z" fill="rgb(0,0,0)" id="svg_133"/>
    <path d="m317.97,176.55c0.88,2.24 2.16,3.75 3.13,4.25c2.72,1.39 3.78,-4.04 0,-14.31q1.93,11.74 -0.34,12.14c-1.18,0.21 -2.03,-0.82 -2.79,-2.08z" fill="rgb(0,0,0)" id="svg_134"/>
    <g id="svg_135">
     <path d="m313.81,168.99c-2.58,-8.74 -2.7,-16.64 -0.25,-17.65c2.45,-1 6.55,5.28 9.13,14.01c2.59,8.74 2.7,16.65 0.25,17.65c-2.45,1.01 -6.54,-5.27 -9.13,-14.01z" fill="rgb(70,70,70)" id="svg_136"/>
     <path d="m319.17,164.22c0.02,0.02 1.23,-2.24 1.31,-2.29c-1.96,-4.88 -4.39,-8.01 -5.96,-7.36c-1.95,0.8 -1.86,7.09 0.2,14.05c1.79,6.06 4.5,10.64 6.46,11.19c-1.74,-1.07 -3.93,-4.99 -5.44,-10.05c-2.05,-10.71 -0.12,-12.04 3.43,-5.54z" fill="rgb(0,0,0)" id="svg_137"/>
     <path d="m316.22,172.14l0.24,-0.99c-0.1,-0.3 -0.34,-1.1 -0.44,-1.4l-0.66,0.05l0.86,2.34l0,0zm1.67,3.76l-0.33,-2.85c-0.14,-0.22 -0.27,-0.46 -0.41,-0.71l-0.23,1.6l0.97,1.96l0,0zm1.55,-2.61l0,0l1.72,3.7l0,0l0,0l0,0l0,0c-0.14,0.59 -0.35,1.03 -0.62,1.29l-1.37,-4.89l0.27,-0.1zm-1.11,0.39l0.44,3.72q0.85,1.18 1.19,1.15l0,0l0,0l0,0l0,0l-1.38,-4.96l-0.25,0.09zm1.96,-3.57l0.8,0.86c-0.16,-1.08 -0.39,-2.23 -0.68,-3.4l0,0l0,0l0,0l0,0l0,0l-0.51,0.24c0.2,0.81 0.32,1.6 0.39,2.3l0,0zm-0.27,2.69l1.34,2.88c0.06,-0.79 0.04,-1.7 -0.04,-2.71l0,0l0,0l0,0l0,0l0,0l-1.03,-1.1c-0.05,0.41 -0.14,0.72 -0.27,0.93l0,0z" fill="rgb(0,0,0)" fill-rule="evenodd" id="svg_138"/>
    </g>
   </g>
   <g id="svg_139">
    <path d="m294.12,154.56c4.39,8.96 10.93,16.91 19.6,23.85c-5.98,8.74 -14.01,14.47 -24.11,17.18l-5.52,-5.51c1.12,-3.02 1.85,-4.94 5.52,-8.02l-1.98,-0.13l-1.39,-11.38c-0.63,-4.44 2.3,-10.8 7.88,-15.99z" fill="rgb(0,0,0)" id="svg_140"/>
    <path d="m293.69,158.08c4.44,6.57 10.06,14.72 17.49,20.22q-7.82,1.33 -11.67,0.44c-9.38,-2.17 -16.04,-12.05 -5.82,-20.66z" fill="rgb(70,70,70)" id="svg_141"/>
    <path d="m287.63,171.9l1.54,8.39c2.07,2.21 9.05,2.53 15.27,0.55c-1.38,0.99 -2.84,1.6 -4.41,1.84c0.28,1.39 2.1,1.79 5.46,1.19l-4.71,1c-3.35,3.61 -7.93,5.77 -13.74,6.44l3.39,3.02c8.21,-2.55 15.14,-7.48 20.75,-14.78c-11.54,1.46 -20.21,-1.71 -23.55,-7.65z" fill="rgb(116,116,116)" id="svg_142"/>
    <path d="m290.65,182.31c2.05,0.98 4.72,1.26 7.98,0.83c0.22,0.8 0.52,1.42 0.91,1.85c-1.45,1.08 -3.38,2.21 -5.81,3.35l-3.08,-6.03z" fill="rgb(0,0,0)" id="svg_143"/>
    <g id="svg_144">
     <path d="m284.63,194.61c-0.93,-3.76 -2.84,-6.62 -5.74,-8.6l-3.76,-0.16l-0.03,-1.09c0.22,-1.15 -0.26,-2.18 -1.44,-3.09c1.26,-3.41 5.02,-6.18 11.27,-8.33c1.41,0.12 2.84,0.25 3.19,0.79l0.82,7.53l3.05,1.05l3.86,5.74c2.27,2.04 -6.97,6.68 -11.22,6.16z" fill="rgb(0,0,0)" id="svg_145"/>
     <path d="m291.33,183.67l-2.97,-0.79l-1.47,-6.05c-3.35,-1.06 -7.43,2.18 -9.28,6.34c3.73,3.16 6.05,5.95 6.94,8.37c3.48,-3.28 6.54,-4.44 9.16,-3.5l-2.38,-4.37z" fill="rgb(232,232,232)" id="svg_146"/>
     <path d="m286.4,183.97c-0.53,-1.65 0.11,-3.33 1.44,-3.76c0.2,-0.07 0.4,-0.1 0.6,-0.11q0.26,0 0.57,2.97q1.47,0.24 2.02,0.37c0.11,0.75 0,1.45 0.06,1.53c-0.26,0.68 -0.65,0.98 -1.31,1.2c-1.33,0.43 -2.84,-0.56 -3.38,-2.2z" fill="rgb(0,118,0)" id="svg_147" stroke="rgb(0,0,0)" stroke-linecap="square" stroke-miterlimit="3"/>
     <path d="m286.91,176.49l1.11,7.16l4.89,1.28l-0.93,-2.02l-2.68,-1.06l-1.35,-5.2l-1.04,-0.16z" fill="rgb(0,0,0)" id="svg_148"/>
     <path d="m292.98,188.93c-2.27,-0.23 -4.56,0.74 -6.89,2.89c3.63,0.34 5.94,-0.61 6.89,-2.89z" fill="rgb(70,70,70)" id="svg_149"/>
     <path d="m285.64,193.73c2.16,0.12 5.97,-1.33 7.01,-2.09c2.39,-1.56 2.84,-2.26 1.09,-2.57c-0.66,1.56 -3.23,3.68 -7.76,3.21l-0.34,1.45z" fill="rgb(116,116,116)" id="svg_150"/>
    </g>
    <path d="m280.55,176.11q-3.01,-3.53 -3.62,-6.33q-0.1,-0.47 5.03,-3.55c0.42,0.34 0.55,0.73 0.39,1.15q-4.22,2.06 -4.31,2.4q-0.41,1.57 4.67,6.43l-2.16,-0.1z" fill="rgb(0,0,0)" id="svg_151"/>
    <path d="m296.66,160.97q0.36,-0.31 -1.49,-1.63c-8.09,8.13 -4.12,17.82 7.2,17.58q-7.21,-0.83 -9.62,-5.94c-1.69,-3.61 0.38,-8.26 3.91,-10.01z" fill="rgb(0,0,0)" id="svg_152"/>
    <path d="m293.14,163.43l3.78,2.3l-0.68,1.95l-4.33,-0.77l1.23,-3.48z" fill="rgb(0,0,0)" id="svg_153"/>
    <path d="m291.91,169.74l3.49,0l0.45,1.27l-2.91,1.6l-1.03,-2.87z" fill="rgb(0,0,0)" id="svg_154"/>
    <path d="m294.94,174.38l1.8,-1.5l1.3,1l-0.76,1.85l-2.34,-1.35z" fill="rgb(0,0,0)" id="svg_155"/>
   </g>
   <path d="m209.24,200.8l-2.45,-1.08c3.79,-19.23 10.91,-11.95 11.58,1.78q-1.82,-7.15 -4.67,-8.39q-2.84,-1.23 -4.46,7.69z" fill="rgb(0,0,0)" id="svg_156"/>
   <path d="m217.81,199.3l-1.16,0l-0.4,-1.77l0.97,-1.65l0.59,3.42z" fill="rgb(0,0,0)" id="svg_157"/>
   <path d="m214.63,196.09l1.15,-2.34l-1.56,-1.57l-0.52,3.33l0.93,0.58z" fill="rgb(0,0,0)" id="svg_158"/>
   <path d="m211.9,192.6l0.5,3.28l-0.97,1.08l-2.03,-0.51l2.5,-3.85z" fill="rgb(0,0,0)" id="svg_159"/>
   <g id="svg_160">
    <path d="m336.67,192.18c8.15,-1.96 15.53,-5.95 22.14,-11.99c8.29,4.77 13.42,11.3 15.37,19.58l-4.62,4.39l-5.95,-8.5q-1.79,8.64 -2.6,9.43c-2.8,0.62 -5.48,0.65 -7.11,1.35c-8.73,-3.71 -14.47,-8.46 -17.23,-14.26z" fill="rgb(0,0,0)" id="svg_161"/>
    <path d="m340.38,193.22c5.57,-1.94 11.41,-5.03 17.52,-9.3c1.06,5.31 0.91,11.68 0.48,13.44c-2.29,9.45 -10.89,10.45 -18,-4.14z" fill="rgb(116,116,116)" id="svg_162"/>
    <path d="m360.08,183.12c6.8,5.2 10.94,10.4 12.4,15.6l-3.34,3c-0.8,-3.93 -2.78,-7.49 -5.96,-10.7l-1,-3.3c0.52,6.7 -0.02,11.94 -1.65,15.7l-4.24,0.9c3,-0.54 4.27,-7.6 3.79,-21.2z" fill="rgb(70,70,70)" id="svg_163"/>
    <path d="m345.05,190.47l-2.95,1.13c5.11,14.74 13.63,14.87 15.44,0.23q-1.95,8.8 -6.49,9.13q-3.21,0.23 -6,-10.49z" fill="rgb(0,0,0)" id="svg_164"/>
    <path d="m345.27,192.68l1.86,-0.85l0.55,2.58l-1.67,1.93l-0.74,-3.66z" fill="rgb(0,0,0)" id="svg_165"/>
    <path d="m348.39,196.34l1.53,1.27l-0.27,3.96l-2.71,-2.62l1.45,-2.61z" fill="rgb(0,0,0)" id="svg_166"/>
    <path d="m352.99,197.96l-1.19,0.11l-0.39,3.65l2.03,-0.92l-0.45,-2.84z" fill="rgb(0,0,0)" id="svg_167"/>
    <path d="m354.7,197.11l0.94,-1.92l0.91,0.88l-1.11,2.3l-0.74,-1.26z" fill="rgb(0,0,0)" id="svg_168"/>
   </g>
   <g id="svg_169">
    <path d="m363.31,190.82c2.57,1.92 4.82,5.23 6.02,9.28c1.07,3.64 1.11,7.2 0.28,10.03l-3.95,0c0.72,-2.1 0.72,-5.01 -0.17,-8.01c-0.54,-1.86 -1.36,-3.5 -2.31,-4.82l0.13,-6.48z" fill="rgb(0,0,0)" id="svg_170"/>
    <path d="m363.56,192.6c4.56,3.37 6.36,8.83 5.48,17.19l-2.11,0c0.63,-6.09 -0.49,-10.84 -3.37,-14.28l0,-2.91z" fill="rgb(98,61,5)" id="svg_171"/>
   </g>
   <g id="svg_202">
    <path d="m325.78,200.49c-0.18,5.01 -1.47,10.41 -3.94,14.57c-2.8,-0.05 -5.46,0.46 -7.99,1.5c-5.4,-0.1 -9.31,-4.23 -11.75,-11.47c7.56,-4.65 13.98,-9.9 19.22,-16.73c4.02,1.93 9.24,6.11 13.6,10.65c0.39,0.4 -9.12,0.91 -9.14,1.48z" fill="rgb(0,0,0)" id="svg_203"/>
    <path d="m304.94,205.09c5.92,-2.72 11.01,-7.78 15.56,-13.57c-0.33,6.18 -1.54,15.24 -2.58,17.86c-3.63,9.15 -9.71,7.2 -12.98,-4.29z" fill="rgb(116,116,116)" id="svg_204"/>
    <path d="m309.21,201.7l-2.91,1.58c1.99,12.98 8.14,14.24 11.15,2.26q-3.31,7.74 -6.4,5.61c-1.49,-1.02 -2.76,-7.08 -1.84,-9.45z" fill="rgb(0,0,0)" id="svg_205"/>
    <path d="m308.47,205.09l1.85,-0.85l0.56,2.58l-1.67,1.93l-0.74,-3.66z" fill="rgb(0,0,0)" id="svg_206"/>
    <path d="m311.48,208.2l1.5,0.55l0.23,3.96l-2.66,-0.75l0.93,-3.76z" fill="rgb(0,0,0)" id="svg_207"/>
    <path d="m314.14,208.45l1.34,-1.12l0.9,0.87l-1.48,2.65l-0.76,-2.4z" fill="rgb(0,0,0)" id="svg_208"/>
    <path d="m321.81,190.82q5.96,2.28 10.86,8.19l-6.73,0.54l-0.42,-4.69l-0.78,4.54l-1.3,-2.92c1.52,6.08 0.91,11.71 -1.85,16.87l-5.54,1.25c3.72,-2.33 4.77,-10.57 5.76,-23.78z" fill="rgb(70,70,70)" id="svg_209"/>
   </g>
   <path d="m407.47,108.74c3.3,2.32 6.33,4.58 9.07,6.75l0.85,-1.21c-5.28,-4.33 -11.85,-8.97 -19.67,-13.88l0,0l0,0l0,0l-0.85,1.2c3.34,2.16 6.48,4.25 9.4,6.29l-2.96,4.19l1.2,0.85l2.96,-4.19zm-0.7,-7.29c-7.58,-4.45 -14.73,-5.71 -16.86,-2.7l0,0l0,0l0,0c-2.45,3.47 2.65,11.29 11.38,17.46c8.73,6.16 17.81,8.35 20.26,4.88c2.08,-2.94 -1.29,-9.03 -7.69,-14.57c0.72,1.38 -0.91,1.5 -1.73,0.15c2.23,1.57 0.89,-1.2 -5.36,-5.22l0,0zm0.36,-0.59c-8.37,-4.99 -16.31,-6.44 -18.66,-3.12l0,0l0,0c-2.66,3.77 2.91,12.29 12.43,19.02c9.53,6.73 19.43,9.12 22.09,5.35c2.36,-3.34 -1.74,-10.41 -9.32,-16.65l0,0l-0.04,-0.03c-0.59,-0.49 -1.2,-0.97 -1.84,-1.45l-7.97,-6.25l0.46,0.74l2.85,2.39l0,0l0,0z" fill="rgb(0,0,0)" fill-opacity="0.2" fill-rule="evenodd" id="svg_210"/>
   <g id="svg_299">
    <path d="m431.25,225.29l-139.71,6.75l-7.51,7.11l4.58,7.59l48.27,7.66l71.68,-1.51l21.04,-9.38l1.65,-18.22z" fill="rgb(235,235,235)" id="svg_173"/>
    <path d="m320.5,257.1l75.51,-4.21l63.67,2.55c-53.73,5.5 -111.65,9.1 -173.79,10.81l22.57,-5.73l12.04,-3.42z" fill="rgb(0,0,0)" id="svg_174"/>
    <path d="m322.52,256.75c3.22,7.68 29.54,5.03 30.1,-1.37c4.55,-7.89 3,-13.96 -4.67,-18.23c-0.56,13.92 -14.2,17.91 -22.86,6.83c-2.9,4.45 -3.75,8.71 -2.57,12.77z" fill="rgb(0,0,0)" id="svg_175"/>
    <path d="m349.66,250.58c-7.23,10.49 -33.99,1.19 -25.2,-12.09c1.72,14.6 16.97,15.53 21.36,5.65l3.84,6.44z" fill="rgb(139,139,139)" id="svg_176"/>
    <path d="m348.23,236.79c0.29,1.03 0.45,2.09 0.45,3.17c0,1.66 -0.4,3.3 -1.15,4.78c-0.73,1.42 -1.74,2.68 -2.97,3.7c-1.23,1.02 -2.62,1.82 -4.13,2.37c-1.5,0.56 -3.09,0.84 -4.69,0.85c-1.13,0 -2.26,-0.16 -3.36,-0.47c-1.11,-0.31 -2.17,-0.81 -3.13,-1.45c-1.02,-0.7 -1.93,-1.56 -2.67,-2.55c-0.94,-1.25 -1.65,-2.66 -2.11,-4.16c0.47,-0.74 2.78,-0.17 2.45,0.3c0.36,0.91 0.84,1.76 1.43,2.54c0.59,0.79 1.31,1.48 2.13,2.04c0.77,0.52 1.62,0.91 2.51,1.16c0.89,0.26 1.81,0.39 2.74,0.38c1.35,0 2.69,-0.24 3.95,-0.71c1.26,-0.46 2.44,-1.13 3.47,-2c1,-0.82 1.83,-1.85 2.42,-3c0.59,-1.18 0.91,-2.47 0.91,-3.78c-0.01,-0.6 -0.06,-1.2 -0.18,-1.79c-0.29,-0.18 1.46,-1.69 1.93,-1.38z" fill="rgb(0,0,0)" id="svg_177"/>
    <path d="m405.41,252.94c-3.93,2.41 -8.62,3.81 -13.65,3.81c-12.85,0 -23.45,-9.13 -24.88,-20.89l25.63,-0.32q19.17,13.55 12.9,17.4z" fill="rgb(0,0,0)" id="svg_178"/>
    <path d="m433.5,235.24c-1.12,12.06 -11.87,21.51 -24.94,21.51c-12.85,0 -23.46,-9.13 -24.88,-20.89l12.44,2.63c7.6,10.94 21.03,6.83 24.42,-6.45l12.96,3.2l0,0z" fill="rgb(0,0,0)" id="svg_179"/>
    <path d="m417.28,239.33l3.26,5.49c-7.23,10.49 -33.37,1.21 -25.2,-12.09c0.08,13 14.78,15.61 21.94,6.6z" fill="rgb(139,139,139)" id="svg_180"/>
    <path d="m421.53,232.04c-0.15,1.41 -0.5,2.8 -1.02,4.12c-0.72,1.8 -1.77,3.46 -3.1,4.88c-1.31,1.4 -2.88,2.52 -4.63,3.31c-1.79,0.8 -3.73,1.22 -5.69,1.22c-1.7,0 -3.38,-0.32 -4.97,-0.93c-1.55,-0.6 -2.98,-1.46 -4.23,-2.54c-1.25,-1.09 -2.31,-2.37 -3.15,-3.79l1.38,-2.07c0.16,0.31 0.32,0.61 0.49,0.91c0.72,1.24 1.64,2.34 2.72,3.28c1.06,0.92 2.27,1.65 3.58,2.16c1.33,0.51 2.76,0.78 4.18,0.78c1.65,0 3.28,-0.35 4.78,-1.03c1.48,-0.67 2.82,-1.62 3.93,-2.81c1.14,-1.21 2.05,-2.64 2.66,-4.19c0.55,-1.39 0.88,-2.85 0.96,-4.34l2.11,1.04l0,0z" fill="rgb(0,0,0)" id="svg_181"/>
    <path d="m287.77,230.2c5.9,2.99 6.18,9.93 1.65,13.31c-1.2,0.13 -1.67,0.27 -2.97,-0.67q-1.85,1.19 -3.13,3.79c-0.81,5.25 2.59,8.38 10.16,9.38l29.04,0.74c-4.18,-19.35 29.07,-28.46 32.33,-10.34l-1.6,8.76l38.38,-3.46c-1.98,-27.33 37.83,-30.94 34.55,-5.08l13.96,-2.16c1.75,-9.49 1.76,-16.92 0,-22.32c-5.39,-13.93 -13.22,-23.72 -31.38,-24.71c-0.63,0.25 1.11,4.78 0.47,5.03c-16.8,6.55 -37.87,7.61 -51.71,7.58l0,-8.13c-7.38,-3.79 -18.54,-4.17 -33.48,-1.14q-0.03,0.01 -2.41,0.59l-11.94,27.97c2.9,0.91 4.96,2.37 6.16,4.38c1.36,5.45 0.37,8.9 -2.98,10.32l-5.13,-1.77c-2.49,-2.07 -3.31,-4.43 -2.49,-7.09l4.43,-5.28l12.76,-28.72l-2.05,0.39l-3.53,10.7c-7.82,3.15 -13.65,7.23 -17.52,12.22c-4.19,1.31 -8.05,3.21 -11.57,5.71z" fill="rgb(96,125,139)" id="svg_182"/>
    <path d="m295.08,256.75c3.22,7.68 29.54,5.03 30.09,-1.37l-3.76,1.3l-26.33,0.07z" fill="rgb(0,0,0)" id="svg_183"/>
    <path d="m304.35,236.52l4.73,-1.05c-0.45,5.16 0.7,8 3.42,8.51l-3.26,-0.96c-2.28,-1.3 -3.9,-3.46 -4.89,-6.5z" fill="rgb(70,70,70)" id="svg_184"/>
    <path d="m305.06,236.16l5.34,-6.24c4.08,0.88 6.1,3.46 6.06,7.73c-4.87,-2.78 -8.8,-2.59 -11.4,-1.49z" fill="rgb(139,139,139)" id="svg_185"/>
    <path d="m282.13,235.72l5.05,-5.38c3.96,0.88 4.88,4.61 4.84,8.88c-1.39,-4.87 -7.62,-4.6 -9.89,-3.5z" fill="rgb(139,139,139)" id="svg_186"/>
    <path d="m281.12,236.52c2.15,-0.95 3.73,-1.29 4.72,-1.05c-0.44,5.16 0.71,8 3.43,8.51l-2.09,-0.63l-0.95,-0.66c-2.53,-1.7 -4.23,-3.75 -5.11,-6.17z" fill="rgb(70,70,70)" id="svg_187"/>
    <path d="m443.77,241.2l-0.82,6.02q-9.22,2.74 -17.9,2.47c4.79,-31.36 -38.19,-20.07 -31.4,3.28l-42.4,3.04c14.33,-27.84 -35.56,-21.09 -26.69,1.31c-4.26,3.29 -36.23,0.88 -40.18,-1.94c-4.37,-3.11 -4.56,-7.34 0.71,-11.4c-2.59,4.97 -0.43,8.13 3.07,9.33c3.13,1.07 15.35,2.75 31.84,2.07c-1.77,-23.5 43.44,-30.33 35.25,-1.99l33.54,-2.81c1.43,-22.94 37.66,-33.63 39.24,-6.44q6.9,0.57 14.02,-3.77l1.72,0.83z" fill="rgb(0,0,0)" id="svg_188"/>
    <path d="m412.35,202.7q-33.17,9.6 -57.02,8.67c0.95,-3.43 1.1,-7.03 0.41,-8.06c-0.39,-3.35 -13.47,-5.65 -34.45,-1.39l-3.41,10.35l-3.01,0.7l4.43,-11.83c23.96,-5.09 38.21,-2.56 39.2,0.83q1.84,2.54 0.38,7.03q18.16,1.69 54.74,-8.12l-1.27,1.82z" fill="rgb(0,0,0)" id="svg_189"/>
    <path d="m406.18,198.69c16.23,-2.12 41.01,11.99 33.12,44.44l3.04,-0.12c3.77,-27.05 -8.64,-43.43 -33.78,-47.54l-2.38,3.22l0,0z" fill="rgb(0,0,0)" id="svg_190"/>
    <path d="m380.32,238.41c8.89,-41.62 60.38,-36.43 55.88,0.74c7.26,-43.21 -55.69,-39.77 -55.88,-0.74z" fill="rgb(0,0,0)" id="svg_191"/>
    <path d="m299.34,225.29c-7.83,2.11 -13.42,5.86 -16.77,11.23q0.89,4.31 3.67,6.17q-4.13,-2.47 -6.12,-6.75c5.42,-7.73 12.05,-12.12 19.88,-13.16l-0.66,2.51z" fill="rgb(0,0,0)" id="svg_192"/>
    <path d="m320.39,211.74c-27.38,4 -33.07,33.98 -16.48,33.98c-15.73,-4.74 -3.82,-29.6 16.48,-33.98l0,0z" fill="rgb(0,0,0)" id="svg_193"/>
    <path d="m327.56,210.8c-2.72,0.26 -5.48,0.63 -8.26,1.13l2.76,-7.7c3.55,-1.03 6.85,-1.7 9.87,-2.09q-1.12,4.4 -4.37,8.66zm2.28,-0.19c7.03,-0.48 13.7,-0.12 19.41,1.18q3.43,-7.95 2.06,-8.38c-3.76,-1.17 -9.74,-2.28 -17.79,-1.46q-1.15,4.48 -3.68,8.66z" fill="rgb(0,0,0)" fill-rule="evenodd" id="svg_194"/>
    <path d="m305.89,235.32c5.21,-1.19 8.87,-0.12 10.97,3.17l0,1.1c-2.36,-3.03 -5.7,-4.91 -11.3,-2.74l0.33,-1.53z" fill="rgb(0,0,0)" id="svg_195"/>
    <path d="m283.32,234.93c4.56,-1.19 6.89,-0.02 8.73,3.28l0,1.1c-2.07,-3.03 -4.58,-5 -9.48,-2.83l0.75,-1.55z" fill="rgb(0,0,0)" id="svg_196"/>
    <path d="m308.85,235.47c-0.11,0.62 -0.16,1.28 -0.16,1.96c0,3.88 1.89,7.04 4.23,7.04c2.34,0 4.24,-3.16 4.24,-7.04c0,-3.89 -2.06,-7.79 -6,-7.69c-0.67,0 -1.3,0.26 -1.86,0.72l0,0c-0.08,0.07 -0.15,0.13 -0.22,0.2l0.45,0.6c0.02,-0.02 0.04,-0.03 0.06,-0.04l0,0c0.35,-0.28 0.74,-0.43 1.15,-0.43c3.09,0.12 4.94,3.36 4.94,6.69c0,3.33 -1.43,6.03 -3.18,6.03c-1.75,0 -3.18,-2.7 -3.18,-6.03c0,-0.71 0.07,-1.38 0.18,-2.01l-0.65,0z" fill="none" id="svg_198"/>
    <path d="m285.24,235.14c-0.1,0.62 -0.15,1.28 -0.15,1.96c0,3.89 1.75,7.04 3.91,7.04c2.15,0 3.9,-3.15 3.9,-7.04c0,-3.88 -2.58,-6.9 -4.74,-6.9c-0.61,0 -1.2,0.25 -1.71,0.72l0,0c-0.07,0.06 -0.14,0.13 -0.21,0.2l0.42,0.6c0.02,-0.02 0.03,-0.03 0.05,-0.04l0,0c0.33,-0.28 0.69,-0.43 1.06,-0.43c1.62,0 3.77,2.57 3.77,5.9c0,3.33 -1.32,6.04 -2.93,6.04c-1.62,0 -2.93,-2.71 -2.93,-6.04c0,-0.7 0.06,-1.38 0.16,-2.01l-0.6,0z" fill="none" id="svg_200"/>
    <path d="m303.11,236.27c17.81,-27.18 63.57,-22.9 58.83,9.66l13.52,-1.95l1.92,1.74l-17.36,2.12c4.24,-33.86 -35.45,-37.73 -54.46,-10.99c-0.15,2.02 1.3,4.13 3.67,6.17q-3.27,-0.57 -6.12,-6.75z" fill="rgb(0,0,0)" id="svg_201"/>
   </g>
  </g>
 </g>
</svg>