<svg xmlns="http://www.w3.org/2000/svg" xmlns:xlink="http://www.w3.org/1999/xlink" style="isolation:isolate" viewBox="-14.426 -49.716 964.852 350.54" width="964.852pt" height="350.54pt">
    
    
<style type="text/css">
    
  @font-face {
    font-family: 'Kalam';
    src: url('neue.ttf') format('truetype');
  }

</style>
    
    <defs><clipPath id="_clipPath_UieZnlEoXSbIpENFUOfxONC6sbX0ZrLh"><rect x="-14.426" y="-49.716" width="964.852" height="350.54"/></clipPath></defs><g clip-path="url(#_clipPath_UieZnlEoXSbIpENFUOfxONC6sbX0ZrLh)"><rect x="-14.426" y="-49.716" width="964.852" height="350.54" transform="matrix(1,0,0,1,0,0)" fill="rgb(255,255,255)"/><mask id="_mask_hKzyU7Nopp0fNMz4AqrHC7SEBgzsyVjD"><rect x="693.337" y="-1" width="242.663" height="288" fill="white" stroke="none"/></mask><rect x="693.337" y="-1" width="242.663" height="288" transform="matrix(1,0,0,1,0,0)" fill="none"/><rect x="693.337" y="-1" width="242.663" height="288" transform="matrix(1,0,0,1,0,0)" fill="none" mask="url(#_mask_hKzyU7Nopp0fNMz4AqrHC7SEBgzsyVjD)" stroke-width="6" stroke="rgb(30,30,30)" stroke-linejoin="miter" stroke-linecap="butt" stroke-miterlimit="2"/><clipPath id="_clipPath_2K2WhLazpVY8mWYtnOioSkwpza0fO392"><rect x="693.337" y="-1" width="242.663" height="288" transform="matrix(1,0,0,1,0,0)" fill="none"/><rect x="693.337" y="-1" width="242.663" height="288" transform="matrix(1,0,0,1,0,0)" fill="none" mask="url(#_mask_hKzyU7Nopp0fNMz4AqrHC7SEBgzsyVjD)" stroke-width="6" stroke="rgb(30,30,30)" stroke-linejoin="miter" stroke-linecap="butt" stroke-miterlimit="2"/></clipPath><g clip-path="url(#_clipPath_2K2WhLazpVY8mWYtnOioSkwpza0fO392)"><g><g><path d=" M 728.936 305.472 C 754.597 311.32 776.604 319.327 785.345 305.472 C 775.19 278.792 744.626 238.771 738.312 219.452 C 717.818 216.737 702.458 218.588 701.66 225.022 L 712.745 270.43 L 718.517 288.241 L 713.024 290.852 L 728.936 305.472 L 728.936 305.472 Z " fill="rgb(118,0,0)"/><path d=" M 739.875 217.945 C 728.769 215.568 702.002 213.544 700.66 221.211 L 702.817 229.86 C 701.294 220.673 719.522 217.715 740.814 221.211 L 739.875 217.945 Z " fill="rgb(0,0,0)"/><path d=" M 738.879 212.582 L 738.98 213.714 Q 733.005 210.532 716.199 211.874 Q 723.956 209.3 731.425 209.639 L 738.879 212.582 L 738.879 212.582 Z " fill="rgb(0,0,0)"/><path d=" M 712.745 294.279 C 707.014 294.638 698.692 296.903 693.655 303.035 C 697.125 294.824 707.354 289.088 715.651 290.276 L 713.604 294.563 L 712.745 294.279 Z " fill="rgb(0,0,0)"/><path d=" M 710.182 302.456 Q 710.934 288.884 717.497 285.113 L 718.698 289.821 Q 714.003 291.883 710.182 302.456 Z " fill="rgb(0,0,0)"/><path d=" M 735.355 211.584 C 732.589 226.481 770.644 275.639 782.567 303.645 L 788.25 301.822 L 788.25 301.822 C 775.475 273.932 739.511 229.797 741.315 213.988 L 735.355 211.584 L 735.355 211.584 Z " fill="rgb(0,0,0)"/><path d=" M 714.583 286.139 C 715.965 290.695 720.079 294.782 721.068 298.213 C 714.987 255.09 689.709 188.797 697.263 184.991 C 721.43 172.816 770.672 168.894 797.446 184.771 C 801.166 186.976 785.427 192.43 784.453 200.993 C 784.14 203.743 790.164 210.523 787.797 212.182 C 777.748 219.226 755.026 223.947 711.826 199.063 C 755.436 227.633 782.901 221.271 794.379 213.714 C 797.082 211.934 790.202 204.802 790.559 201.851 C 791.672 192.664 809.261 184.771 804.667 182.565 C 773.122 167.422 721.259 168.715 693.655 181.778 C 686.001 185.4 703.716 250.298 714.583 286.139 Z " fill="rgb(0,0,0)"/><path d=" M 739.868 202.384 L 744.229 200.648 C 743.136 195.514 742.754 190.398 743.004 186.642 Q 739.885 185.78 739.868 185.771 C 750.219 182.795 771.765 193.619 793.837 186.313 C 792.286 187.412 790.674 188.361 788.995 189.141 C 781.95 195.662 778.216 199.306 780.764 203.777 C 782.398 204.728 783.925 207.547 785.345 208.802 C 782.512 205.945 772.163 202.136 739.868 202.384 Z " fill="rgb(0,0,0)"/></g><g><g clip-path="url(#_clipPath_30mx9X8Lego9ECwPnitKZh4tFARll2CU)"><text transform="matrix(1,0,0,1,702.655,21.202)" style="font-family:'Kalam';font-weight:400;font-size:12px;font-style:normal;fill:#000000;stroke:none;">Is that something you have a problem </text><text transform="matrix(1,0,0,1,702.655,35.548)" style="font-family:'Kalam';font-weight:400;font-size:12px;font-style:normal;fill:#000000;stroke:none;">with, </text><text transform="matrix(1,0,0,1,732.211,35.548)" style="font-family:'Kalam';font-weight:700;font-size:12px;font-style:normal;fill:#000000;stroke:none;">Doctor Manhattan</text><text transform="matrix(1,0,0,1,829.699,35.548)" style="font-family:'Kalam';font-weight:400;font-size:12px;font-style:normal;fill:#000000;stroke:none;">?!</text></g><defs><clipPath id="_clipPath_30mx9X8Lego9ECwPnitKZh4tFARll2CU"><rect x="0" y="0" width="218.625" height="33.474" transform="matrix(1,0,0,1,702.655,8.446)"/></clipPath></defs><g clip-path="url(#_clipPath_5yNIMsdj4CyjJQoW6QkQVYhwSDKhRU7w)"><text transform="matrix(1,0,0,1,778.066,59.629)" style="font-family:'Kalam';font-weight:400;font-size:12px;font-style:normal;fill:#000000;stroke:none;">Actually, now that I've lived </text><text transform="matrix(1,0,0,1,778.066,73.975)" style="font-family:'Kalam';font-weight:400;font-size:12px;font-style:normal;fill:#000000;stroke:none;">here awhile, I'm oddly </text><text transform="matrix(1,0,0,1,778.066,88.321)" style="font-family:'Kalam';font-weight:400;font-size:12px;font-style:normal;fill:#000000;stroke:none;">comfortable with it.</text></g><defs><clipPath id="_clipPath_5yNIMsdj4CyjJQoW6QkQVYhwSDKhRU7w"><rect x="0" y="0" width="152.787" height="47.82" transform="matrix(1,0,0,1,778.066,46.873)"/></clipPath></defs><path d=" M 729.684 66.839 L 727.658 113.394 L 732.315 74.409 L 729.684 66.839 Z " fill="rgb(0,0,0)"/><path d=" M 833.826 94.156 L 843.508 104.202 L 833.826 97.127 L 833.826 94.156 Z " fill="rgb(0,0,0)"/></g><g><path d=" M 891.75 332.223 L 915.648 337.052 C 913.417 327.232 911.884 316.555 911.002 304.966 L 892.976 299.503 L 891.75 332.223 L 891.75 332.223 Z  M 905.531 107.591 L 938.058 135.114 L 924.469 188.236 L 920.704 220.624 L 916.748 301.993 Q 925.372 355.257 926.801 359.945 L 831.824 355.215 C 829.692 350.339 820.301 339.307 803.698 322.172 C 816.225 322.595 826.756 320.925 834.25 317.651 L 834.924 313.494 L 839.248 311.597 L 832.037 247.725 L 829.457 229.106 L 840.431 226.992 L 844.309 212.751 L 827.64 203.236 L 828.816 125.006 L 905.531 107.591 L 905.531 107.591 Z  M 885.529 332.223 L 886.42 296.166 C 875.626 273.541 861.954 259.857 857.229 255.74 Q 847.027 267.669 841.08 290.916 L 842.97 312.343 L 878.435 315.596 L 844.309 315.662 L 866.979 318.287 L 840.431 318.963 L 832.037 323.507 C 848.217 329.351 866.063 332.274 885.529 332.223 Z " fill-rule="evenodd" fill="rgb(0,0,0)"/><path d=" M 831.844 349.173 L 808.831 354.975 L 953.351 361.082 L 924.702 356.465 L 831.844 349.173 Z " fill="rgb(0,0,0)"/><path d=" M 812.54 326.356 L 827.059 325.516 C 843.584 332.056 863.615 336.092 887.106 337.568 L 886.653 353.187 C 856.952 346.029 832.263 337.103 812.54 326.356 Z " fill="rgb(118,0,0)"/><path d=" M 891.6 338.126 L 917.162 343.195 L 919.056 354.587 L 891.6 353.187 L 891.6 338.126 Z " fill="rgb(118,0,0)"/><path d=" M 854.126 279.453 C 854.476 275.09 855.868 271.636 857.232 271.746 C 858.595 271.855 859.418 275.487 859.067 279.85 C 858.716 284.213 857.324 287.667 855.961 287.557 C 854.597 287.448 853.775 283.816 854.126 279.453 Z " fill="rgb(0,0,0)"/><path d=" M 929.43 192.63 L 915.513 226.223 L 911.704 296.537 L 892.681 291.279 L 888.628 257.377 L 888.628 288.43 C 878.501 271.823 866.264 258.857 857.474 250.911 Q 847.456 261.296 840.22 279.576 L 834.735 233.673 L 900.344 236.856 L 905.939 203.236 L 831.864 202.585 L 833.707 129.563 L 899.378 116.048 L 893.628 165.965 L 905.519 116.769 L 932.293 136.35 L 920.569 184 L 929.43 192.63 Z " fill="rgb(118,0,0)"/><path d=" M 912.844 174.596 L 932.66 190.404 L 909.941 244.562 L 909.941 238.958 L 926.265 191.765 L 912.844 174.596 Z " fill="rgb(0,0,0)"/><path d=" M 911.523 208.482 L 901.965 199.553 L 901.672 201.956 L 909.368 208.958 L 911.523 208.482 Z " fill="rgb(0,0,0)"/></g></g></g><rect x="693.337" y="-1" width="242.663" height="288" transform="matrix(1,0,0,1,0,0)" fill="transparent" mask="url(#_mask_hKzyU7Nopp0fNMz4AqrHC7SEBgzsyVjD)" stroke-width="6" stroke="rgb(30,30,30)" stroke-linejoin="miter" stroke-linecap="butt" stroke-miterlimit="2"/><mask id="_mask_co1LmxyboaDeHMBZXDQ02tTlk8lTwjRd"><rect x="0" y="0" width="468" height="288" fill="white" stroke="none"/></mask><rect x="0" y="0" width="468" height="288" transform="matrix(1,0,0,1,0,0)" fill="none"/><rect x="0" y="0" width="468" height="288" transform="matrix(1,0,0,1,0,0)" fill="none" mask="url(#_mask_co1LmxyboaDeHMBZXDQ02tTlk8lTwjRd)" stroke-width="6" stroke="rgb(30,30,30)" stroke-linejoin="miter" stroke-linecap="butt" stroke-miterlimit="2"/><clipPath id="_clipPath_WryLsWEunBEZZ7hUcJOBV2AJrF3WwMZg"><rect x="0" y="0" width="468" height="288" transform="matrix(1,0,0,1,0,0)" fill="none"/><rect x="0" y="0" width="468" height="288" transform="matrix(1,0,0,1,0,0)" fill="none" mask="url(#_mask_co1LmxyboaDeHMBZXDQ02tTlk8lTwjRd)" stroke-width="6" stroke="rgb(30,30,30)" stroke-linejoin="miter" stroke-linecap="butt" stroke-miterlimit="2"/></clipPath><g clip-path="url(#_clipPath_WryLsWEunBEZZ7hUcJOBV2AJrF3WwMZg)"><g><g><g clip-path="url(#_clipPath_tsxvHkIsMQRU74C0C8fDMUnspa7IBdz8)"><text transform="matrix(1,0,0,1,16.806,26.328)" style="font-family:'Kalam';font-weight:400;font-size:14px;font-style:normal;fill:#000000;stroke:none;">No, I'm not gonna make it in time - traffic is worse than</text><text transform="matrix(1,0,0,1,16.806,43.065)" style="font-family:'Kalam';font-weight:400;font-size:14px;font-style:normal;fill:#000000;stroke:none;">the </text><text transform="matrix(1,0,0,1,41.642,43.065)" style="font-family:'Kalam';font-weight:700;font-size:14px;font-style:normal;fill:#000000;stroke:none;">weather</text><text transform="matrix(1,0,0,1,91.65,43.065)" style="font-family:'Kalam';font-weight:400;font-size:14px;font-style:normal;fill:#000000;stroke:none;">.                </text><text transform="matrix(1,0,0,1,101.016,54.223)" style="font-family:'Kalam';font-weight:400;font-size:14px;font-style:normal;fill:#000000;stroke:none;">Hey, MOVE YER TRUCK, MASS-HOLE!</text></g><defs><clipPath id="_clipPath_tsxvHkIsMQRU74C0C8fDMUnspa7IBdz8"><rect x="0" y="0" width="364.132" height="49.118" transform="matrix(1,0,0,1,16.806,11.446)"/></clipPath></defs><path d=" M 184.975 63.027 L 215.199 78.858 L 188.846 67.836 L 184.975 63.027 Z " fill="rgb(0,0,0)"/></g><g><path d=" M 2.613 280.234 C 9.052 279.995 14.229 272.295 14.229 262.846 C 14.229 253.246 8.886 245.453 2.305 245.453 C 1.464 245.453 0.643 245.58 -0.148 245.825 C -0.94 245.58 -1.76 245.453 -2.601 245.453 C -9.183 245.453 -14.526 253.246 -14.526 262.846 C -14.526 272.446 -9.183 280.239 -2.601 280.239 L -2.601 280.239 L -2.601 280.239 L 2.305 280.239 L 2.613 280.239 L 2.613 280.234 Z " fill="rgb(0,0,0)"/><path d=" M -10.054 200.24 Q -16.812 199.394 -17.472 200.767 C -18.133 202.141 -20.456 212.747 -18.441 215.665 Q -16.425 218.582 -10.054 216.466 L -10.054 200.24 Z " fill="rgb(0,0,0)"/><path d=" M 143.535 274.943 L 143.535 274.953 L 111.909 276.341 L 97.15 276.341 C 90.569 276.341 85.226 267.159 85.226 257.56 C 85.226 247.96 90.569 240.166 97.15 240.166 L 97.15 240.166 L 143.535 240.166 L 143.535 240.177 C 143.671 240.17 143.808 240.166 143.945 240.166 C 150.526 240.166 155.87 247.96 155.87 257.56 C 155.87 267.159 150.526 274.953 143.945 274.953 C 143.808 274.953 143.671 274.95 143.535 274.943 Z " fill="rgb(0,0,0)"/><path d=" M 21.487 246.348 C 27.841 246.724 32.922 254.367 32.922 263.727 C 32.922 273.087 27.841 280.731 21.487 281.106 L 21.487 281.12 L 20.997 281.12 L 16.272 281.12 L 16.272 281.12 C 9.691 281.12 4.348 273.327 4.348 263.727 C 4.348 254.128 9.691 246.334 16.272 246.334 L 16.272 244.681 L 21.487 244.681 L 21.487 246.348 Z " fill="rgb(0,0,0)"/><path d=" M 15.549 159.88 L 38.764 152.891 L 137.391 141.838 L 164.727 138.774 L 168.325 229.962 L 25.105 240.273 L 15.549 159.88 Z " fill="rgb(0,0,0)"/><path d=" M 161.038 227.746 L 167.853 258.189 L 29.989 265.514 L 31.851 237.173 L 161.038 227.746 Z " fill="rgb(0,0,0)"/><path d=" M 155.87 241.596 L 167.022 242.5 L 167.989 249.933 L 159.954 252.84 L 155.87 241.596 Z " fill="rgb(0,0,0)"/><ellipse cx="143.10375751766287" cy="258.22847764513614" rx="6.651127313304585" ry="10.06020388946466" fill="rgb(70,70,70)"/><ellipse cx="119.56818075912825" cy="259.08751892653623" rx="6.964835396157369" ry="10.478717601883773" fill="rgb(70,70,70)"/><path d=" M 44.183 157.631 L 156.944 146.439 L 162.847 223.718 L 47.133 232.389 L 44.183 157.631 Z " fill="rgb(96,125,139)"/><path d=" M 19.294 163.217 L 38.96 157.837 L 40.145 187.888 L 21.544 186.977 L 19.294 163.217 Z " fill="rgb(96,125,139)"/><path d=" M 41.421 182.801 Q 16.017 182.213 -3.518 187.483 L -21.297 214.176 L -34.969 221.471 L -24.925 255.603 L -27.589 268.218 L -9.615 268.783 L 45.488 263.018 L 41.421 182.801 Z " fill="rgb(0,0,0)"/><ellipse cx="20.469355202726646" cy="264.81437732328874" rx="6.964835396157369" ry="10.478717601883773" fill="rgb(70,70,70)"/><path d=" M -31.934 222.15 L -21.67 253.675 L -4.699 252.84 L 0.915 253.695 L 0.086 261.286 L 6.819 261.02 C -3.579 244.641 35.288 241.037 34.29 256.946 L 41.941 256.644 L 37.713 210.647 L 7.231 212.699 L -12.362 222.15 L -7.299 241.596 L -14.042 222.15 C -19.065 221.386 -24.05 221.39 -29.008 222.15 C -25.261 220.493 -20.268 220.086 -14.042 220.916 L 0.704 213.588 C -3.131 212.703 -10.785 213.302 -17.936 214.616 L -31.934 222.15 L -31.934 222.15 Z " fill="rgb(96,125,139)"/><path d=" M -24.255 266.134 L -21.905 255.267 L -4.725 253.946 L -5.451 262.665 L -4.002 254.054 L -0.32 254.581 L -1.141 266.736 L -6.153 265.928 L -24.255 266.134 Z " fill="rgb(70,70,70)"/><path d=" M 14.92 191.021 L 33.853 189.635 L 34.499 206.552 L 9.275 208.097 L 14.92 191.021 Z " fill="rgb(70,70,70)"/><path d=" M -2.332 191.964 C 3.172 190.185 8.17 189.935 12.648 191.021 L 3.908 209.752 C -1.594 209.184 -9.744 209.924 -16.238 210.961 L -2.332 191.964 Z " fill="rgb(70,70,70)"/><path d=" M 148.136 272.922 L 159.954 274.943 L -65.506 287 L -6.395 280.239 L 100.295 274.953 L 148.136 272.922 Z " fill="rgb(0,0,0)"/><path d=" M 11.823 197.606 Q 18.634 197.12 19.294 198.502 C 19.955 199.883 16.064 209.801 15.16 213.167 C 14.324 216.279 4.614 215.188 5.215 213.57 L 11.823 197.606 Z " fill="rgb(0,0,0)"/></g><g><g><path d=" M 248.293 188.246 C 251.641 193.098 256.237 197.12 262.066 200.298 C 264.759 197.769 267.207 195.831 271.051 193.366 C 271.019 187.671 268.791 182.348 264.353 177.381 C 256.318 179.805 251.52 183.063 248.293 188.246 Z " fill="rgb(0,0,0)"/><path d=" M 262.931 178.112 C 266.679 182.954 268.679 187.29 269.097 189.151 C 270.824 196.836 263.006 194.178 254.064 182.682 C 257.181 180.724 260.141 179.205 262.931 178.112 Z " fill="rgb(0,0,0)"/><path d=" M 252.844 184.286 L 249.41 187.638 C 252.579 192.245 256.616 195.902 261.509 198.596 L 266.24 195.062 C 260.658 192.46 256.197 188.872 252.844 184.286 Z " fill="rgb(116,116,116)"/></g><path d=" M 203.515 199.721 C 205.753 192.51 207.459 186.413 212.125 184.363 C 214.975 184.703 217.377 184.66 219.318 184.219 C 222.621 185.908 224.793 190.976 226.696 197.803 C 241.216 191.751 249.693 190.94 250.769 195.476 C 251.06 198.44 251.621 200.931 253.092 202.818 C 244.52 211.762 232.909 216.007 222.284 216.999 C 217.744 206.396 211.492 200.641 203.515 199.721 Z " fill="rgb(0,0,0)"/><path d=" M 206.251 198.77 C 212.219 201.152 217.314 205.095 221.523 210.585 C 220.307 199.774 218.231 193.287 216.662 190.253 C 213.302 183.755 208.952 184.251 206.251 198.77 Z " fill="rgb(116,116,116)"/><path d=" M 215.502 185.993 L 219.318 185.993 C 223.684 190.737 226.235 198.996 226.956 210.756 L 227.55 207.86 C 228.7 208.271 229.824 210.093 230.909 213.312 L 230.304 209.787 C 236.12 207.711 242.51 204.172 249.46 199.159 L 250.561 202.282 C 241.629 210.48 232.575 214.738 223.386 215.042 C 223.384 200.934 220.761 191.256 215.502 185.993 Z " fill="rgb(70,70,70)"/><path d=" M 227.55 199.384 L 227.927 206.607 L 229.986 208.92 C 240.521 203.683 246.619 199.581 248.266 196.601 C 250.394 192.751 240.414 193.222 227.55 199.384 Z " fill="rgb(116,116,116)"/><path d=" M 221.099 173.586 C 231.517 166.052 244.647 157.954 260.464 150.796 C 290.843 138.533 332.116 126.845 366.229 118.766 C 389.461 123.871 406.429 129.669 417.119 136.15 L 421.923 135.329 C 423.697 138.346 426.005 140.694 428.835 142.359 L 433.287 143.648 C 427.383 144.631 425.513 147.76 427.664 153.02 C 409.138 149.528 395.2 150.392 385.838 155.598 L 382.206 150.326 C 389.026 171.689 392.233 190.585 391.813 207.001 L 368.218 210.585 C 367.757 185.735 371.889 158.113 365.277 129.955 L 356.563 137.76 L 341.918 133.85 L 332.663 146.609 L 267.629 161.742 L 228.173 183.906 L 221.099 173.586 Z " fill="rgb(0,118,0)"/><path d=" M 231.939 113.713 C 224.666 102.633 177.256 127.893 184.096 138.759 C 203.531 151.084 212.82 161.971 227.282 184.889 L 324.74 159.88 L 339.378 139.299 L 266.68 157.173 L 228.052 180.489 C 214.181 159.692 202.962 148.284 188.542 137.569 C 180.106 131.344 220.355 105.039 232.551 115.646 L 231.939 113.713 Z " fill="rgb(0,0,0)"/><path d=" M 240.583 179.764 C 238.933 185.23 234.286 192.841 228.462 200.12 L 245.601 196.45 C 250.35 182.386 267.491 173.432 290.039 172.556 L 308.859 175.172 L 318.148 168.033 L 332.249 149.691 L 285.189 159.017 L 267.166 163.801 L 240.583 179.764 Z " fill="rgb(0,0,0)"/><path d=" M 242.051 183.117 C 240.718 186.458 237.398 192.117 233.91 197.617 C 242.708 190.088 243.213 182.214 273.232 172.918 L 268.422 166.375 L 242.051 183.117 Z " fill="rgb(185,185,185)"/><path d=" M 313.561 155.788 L 269.737 165.197 L 275.239 171.739 L 321.836 163.987 L 313.561 155.788 Z " fill="rgb(116,116,116)"/><path d=" M 237.626 197.224 L 242.625 196.093 Q 244.688 190.89 255.284 180.839 Q 241.514 190.335 237.626 197.224 Z " fill="rgb(0,0,0)"/><path d=" M 336.984 88.922 Q 343.826 87.452 351.157 86.031 L 353.643 85.096 Q 291.453 95.395 254.029 114.468 L 266.895 134.196 L 266.895 130.014 L 258.951 115.523 Q 268.17 109.676 282.198 104.316 L 288.197 117.491 L 288.924 116.017 L 283.514 103.818 Q 294.209 99.812 307.612 96.081 L 314.526 107.627 L 314.526 105.784 L 309.19 95.645 Q 321.465 92.282 335.958 89.143 L 341.09 98.923 L 341.733 98.012 L 336.984 88.922 Z " fill-rule="evenodd" fill="rgb(0,0,0)" fill-opacity="0.2"/><path d=" M 221.358 174.455 L 219.927 173.321 C 225.669 169.242 240.144 159.524 261.43 148.866 C 295.357 136.501 334.322 126.051 362.796 118.902 L 362.257 120.444 C 333.68 126.768 295.192 137.324 262.294 150.701 C 241.426 159.819 227.158 169.322 221.358 174.455 Z " fill="rgb(0,0,0)"/><path d=" M 257.959 106.367 C 296.533 88.993 332.016 78.273 364.394 74.194 L 362.097 74.194 Q 315.193 79.149 255.538 106.367 L 257.959 106.367 Z " fill="rgb(0,0,0)"/><path d=" M 245.6 119.545 L 245.312 121.326 C 251.616 134.535 258.474 146.074 265.874 155.928 L 265.874 154.138 C 259.02 145.044 252.266 133.518 245.6 119.545 Z " fill="rgb(0,0,0)"/><path d=" M 227.963 161.598 C 230.962 159.495 234.822 157.388 239.23 155.366 L 239.23 155.366 L 217.11 124.19 C 213.418 126.03 209.487 128.917 205.367 132.852 L 227.963 161.598 Z  M 226.737 162.494 C 225.459 163.471 224.376 164.445 223.521 165.405 C 216.402 156.968 207.582 148.135 198.554 140.12 C 200.501 137.832 202.416 135.758 204.292 133.898 L 226.737 162.494 Z  M 241.237 154.468 C 245.041 152.806 249.193 151.212 253.513 149.739 C 244.535 141.733 238.174 132.979 232.874 123.45 C 228.841 121.243 224.152 121.211 218.952 123.352 L 241.237 154.468 L 241.237 154.468 Z " fill-rule="evenodd" fill="rgb(0,0,0)"/><path d=" M 391.762 162.277 L 407.096 196.482 L 425.256 197.363 C 437.084 189.103 447.348 171.372 456.035 144.157 C 437.711 115.135 411.497 89.219 377.379 66.395 C 345.653 66.017 319.359 71.079 314.944 72.61 C 242.678 101.351 204.56 112.787 191.112 126.008 L 198.206 122.74 C 198.888 121.344 203.143 119.028 210.544 115.778 C 228.904 107.717 266.622 93.914 317.162 74.194 C 327.429 71.44 348.099 68.334 377.233 69.735 C 411.111 90.389 434.603 116.826 449.622 144.157 C 444.356 164.196 436.111 181.448 423.79 192.183 C 414.343 188.471 403.672 178.507 391.762 162.277 Z " fill="rgb(0,0,0)"/><path d=" M 353.643 142.712 L 364.394 129.955 C 372.224 154.576 368.135 181.646 368.218 210.187 L 365.277 209.704 L 353.643 142.712 Z " fill="rgb(0,0,0)"/><g><path d=" M 310.828 187.638 Q 308.666 190.317 306.681 191.203 Q 307.548 197.771 311.966 201.717 L 322.279 192.434 L 310.828 187.638 Z " fill="rgb(0,0,0)"/><path d=" M 308.294 191.721 Q 310.527 190.824 311.966 188.357 L 317.085 198.455 L 313.612 200.706 Q 309.502 198.039 308.294 191.721 Z " fill="rgb(116,116,116)"/><path d=" M 312.597 188.357 L 322.279 192.434 L 317.371 197.784 Q 313.083 194.915 312.597 188.357 Z " fill="rgb(0,0,0)"/></g><path d=" M 358.591 136.655 L 340.384 131.614 C 336.712 143.388 322.072 161.888 296.45 187.1 C 308.719 188.768 323.89 195.218 341.951 206.438 L 361.729 180.195 L 353.643 142.712 L 358.591 136.655 Z " fill="rgb(0,0,0)"/><path d=" M 356.162 139.299 L 343.242 135.519 L 352.812 169.648 L 360.536 171.393 L 352.812 142.712 L 356.162 139.299 Z " fill="rgb(116,116,116)"/><path d=" M 340.384 138.549 L 355.253 188.357 L 365.493 197.617 L 367.728 210.133 L 357.441 209.462 L 332.249 199.28 C 325.395 193.708 318.217 189.961 304.443 184.582 C 318.337 170.846 330.322 155.506 340.384 138.549 Z " fill="rgb(185,185,185)"/><path d=" M 369.559 209.787 Q 373.821 163.089 366.5 130.041 L 363.557 130.767 Q 372.342 161.462 366.48 210.513 L 369.559 209.787 Z " fill="rgb(0,0,0)"/><path d=" M 372.323 120.938 L 373.642 120.025 C 388.254 123.103 402.874 128.327 417.491 135.684 L 416.182 135.684 C 401.559 128.474 386.944 123.562 372.323 120.938 Z " fill="rgb(0,0,0)"/><path d=" M 351.255 142.395 C 355.287 138.574 359.138 133.537 362.796 127.27 C 390.884 129.757 413.978 139.247 432.065 155.727 C 406.166 139.847 383.334 131.814 363.557 131.614 C 360.218 136.114 357.455 139.712 355.253 142.395 C 358.228 149.855 360.204 157.851 361.167 166.371 L 355.736 164.85 C 355.806 158.785 354.317 151.304 351.255 142.395 Z " fill="rgb(0,0,0)"/><g><path d=" M 354.356 187.747 C 343.722 181.561 338.044 168.181 337.342 157.898 C 340.904 156.888 344.812 153.797 347.964 150.127 C 353.436 146.517 362.908 155.008 367.524 168.867 C 370.715 178.447 368.586 183.86 363.792 184.294 Q 356.882 185.702 354.356 187.747 Z " fill="rgb(0,0,0)"/><path d=" M 356.514 184.543 C 349.615 177.702 342.719 166.754 344.581 155.499 C 342.874 157.845 341.021 159.246 339.007 159.69 C 340.365 169.777 345.112 178.392 353.222 185.507 L 356.514 184.543 Z " fill="rgb(116,116,116)"/><path d=" M 359.929 170.675 L 364.709 176.216 L 363.352 178.389 L 359.277 171.978 L 359.929 170.675 Z " fill="rgb(0,0,0)"/><g><path d=" M 349.821 171.683 C 345.688 163.561 345.248 155.094 348.838 152.786 C 352.428 150.477 358.698 155.196 362.83 163.317 C 366.963 171.439 367.403 179.906 363.813 182.214 C 360.223 184.523 353.953 179.804 349.821 171.683 Z " fill="rgb(70,70,70)"/><path d=" M 358.308 161.589 C 358.331 161.601 359.326 160.831 359.431 160.74 C 356.362 156.457 352.669 154.3 350.363 155.783 C 347.504 157.621 347.855 164.364 351.146 170.831 C 354.014 176.467 358.174 180.045 361.088 179.655 C 358.479 179.374 355.108 176.251 352.692 171.554 C 349.287 161.037 352.821 156.356 358.308 161.589 Z " fill="rgb(0,0,0)"/><path d=" M 358.935 172.806 L 358.935 172.806 L 361.605 175.933 L 361.605 175.933 L 361.605 175.933 L 361.605 175.933 L 361.605 175.933 C 361.415 176.637 361.121 177.217 360.724 177.637 L 358.54 173.043 L 358.935 172.806 Z  M 357.306 173.781 L 358.218 178.264 C 358.819 178.423 359.383 178.413 359.886 178.213 L 359.886 178.213 L 359.886 178.213 L 359.886 178.213 L 359.886 178.213 L 357.674 173.561 L 357.306 173.781 Z  M 355.518 172.93 L 355.004 176.131 C 355.675 176.82 356.353 177.366 357.01 177.747 L 357.01 177.747 L 357.01 177.747 L 357.01 177.747 L 356.142 173.485 C 355.928 173.32 355.72 173.134 355.518 172.93 Z  M 353.749 170.695 L 352.199 171.308 C 352.762 172.367 353.172 173.525 353.805 174.361 L 354.45 171.987 C 354.282 171.723 353.899 170.977 353.749 170.695 Z  M 360.07 168.952 L 361.291 169.472 C 361.014 168.391 360.638 167.272 360.166 166.152 L 360.166 166.152 L 360.166 166.152 L 360.166 166.152 L 360.166 166.152 L 360.166 166.152 L 359.426 166.66 C 359.736 167.447 359.952 168.228 360.07 168.952 L 360.07 168.952 Z  M 359.772 171.987 L 361.847 174.417 C 361.907 173.543 361.86 172.563 361.706 171.517 L 361.706 171.517 L 361.706 171.517 L 361.706 171.517 L 361.706 171.517 L 361.706 171.517 L 360.141 170.85 C 360.084 171.308 359.961 171.696 359.772 171.987 L 359.772 171.987 Z " fill-rule="evenodd" fill="rgb(0,0,0)"/></g></g><path d=" M 363.557 115.949 L 364.394 114.478 C 365.26 116.804 365.837 118.688 366.11 120.116 L 367.139 110.654 L 367.728 110.36 C 367.781 114.021 368.112 117.866 368.708 121.881 L 368.218 122.224 C 367.746 119.815 367.472 117.728 367.385 115.949 L 366.5 122.959 L 366.11 123.294 C 365.449 120.349 364.603 117.905 363.557 115.949 Z " fill="rgb(0,0,0)"/><path d=" M 385.683 154.627 C 392.821 151.811 406.241 147.751 428.011 152.808 L 429.009 153.426 C 404.322 148.711 390.65 152.238 386.653 155.227 L 385.683 154.627 Z " fill="rgb(0,0,0)"/><path d=" M 380.799 149.049 L 382.231 150.701 C 388.981 166.572 392.749 191.383 392.414 207.044 L 391.007 207.044 C 391.691 192.705 388.453 167.01 380.799 149.049 Z " fill="rgb(0,0,0)"/><path d=" M 422.371 135.303 C 424.012 138.194 426.721 140.72 430.513 142.712 L 429.009 142.395 C 425.454 140.483 422.979 138.195 421.571 135.519 L 422.371 135.303 Z " fill="rgb(0,0,0)"/><path d=" M 433.845 144.044 C 427.46 144.744 425.814 147.876 428.892 153.426 L 428.002 152.837 C 425.058 147.583 426.751 144.41 433.062 143.588 L 433.845 144.044 Z " fill="rgb(0,0,0)"/><path d=" M 367.028 200.801 L 363.557 193.755 L 358.591 205.04 L 357.441 210.187 L 365.277 210.513 L 361.729 205.558 L 367.385 203.717 L 367.028 200.801 Z " fill="rgb(0,0,0)"/><path d=" M 357.557 204.708 C 356.718 202.098 357.385 199.546 359.047 199.012 C 360.708 198.478 362.738 200.163 363.577 202.772 C 364.416 205.381 363.749 207.933 362.087 208.468 C 360.426 209.002 358.396 207.317 357.557 204.708 Z " fill="rgb(0,0,0)"/><path d=" M 405.954 139.299 C 412.973 135.862 421.274 134.165 430.842 134.196 C 419.825 135.862 412.608 138.227 409.177 141.278 L 405.954 139.299 Z " fill="rgb(0,0,0)"/><path d=" M 408.761 139.299 C 421.335 139.568 431.304 141.774 438.654 145.904 C 429.008 142.095 419.187 140.558 409.177 141.278 L 408.761 139.299 Z " fill="rgb(0,0,0)"/><path d=" M 377.233 145.904 L 376.27 142.395 C 398.602 169.098 410.216 189.097 411.099 202.378 L 404.957 203.717 C 403.966 187.466 396.447 169.505 377.233 145.904 Z " fill="rgb(0,0,0)"/><g><path d=" M 223.277 188.82 C 230.144 192.561 236.278 194.83 241.669 195.616 L 241.669 200.823 Q 236.635 205.965 234.538 205.912 Q 231.544 205.837 226.8 203.354 C 226.54 200.131 225.691 195.588 223.277 188.82 Z " fill="rgb(0,0,0)"/><path d=" M 225.543 191.223 C 230.564 193.413 235.326 195.165 239.82 196.469 C 238.267 198.305 235.386 201.105 234.713 201.138 C 232.329 201.254 229.16 199.336 226.356 197.753 L 226.356 196.862 L 231.903 199.197 L 235.385 196.049 C 233.552 195.179 230.274 193.888 225.543 192.167 L 225.543 191.223 L 225.543 191.223 Z  M 239.896 197.991 L 240.008 201.285 C 236.726 205.214 233.951 205.214 232.662 204.531 L 230.734 200.889 Q 233.791 202.36 234.759 202.115 Q 235.587 201.905 239.896 197.991 L 239.896 197.991 Z  M 234.839 198.004 C 235.399 197.539 236.034 197.36 236.257 197.605 C 236.48 197.85 236.206 198.426 235.646 198.891 C 235.086 199.356 234.451 199.535 234.228 199.29 C 234.005 199.045 234.279 198.469 234.839 198.004 Z " fill-rule="evenodd" fill="rgb(232,232,232)"/></g><g><path d=" M 324.382 184.133 C 319.592 184.071 315.966 184.576 313.491 185.635 C 309.189 180.94 303.851 167.045 305.204 154.837 C 308.673 153.657 310.797 152.409 314.832 150.172 C 324.817 157.128 329.577 176.997 324.382 184.133 Z " fill="rgb(0,0,0)"/><path d=" M 311.163 151.253 C 309.582 152.974 308.052 154.102 306.562 154.624 C 305.973 171.467 311.2 178.711 314.564 183.41 C 315.52 183.119 316.808 182.946 318.414 182.881 C 313.889 178.94 309.141 161.849 311.163 151.253 Z " fill="rgb(116,116,116)"/><path d=" M 319.917 162.761 Q 316.813 153.809 315.181 152.739 C 311.756 150.495 311.106 160.338 316.172 174.105 Q 313.859 160.118 315.181 157.915 Q 316.137 156.322 319.917 162.761 Z " fill="rgb(0,0,0)"/><path d=" M 317.974 176.552 C 318.852 178.791 320.125 180.296 321.103 180.797 C 323.82 182.193 324.882 176.761 321.103 166.491 Q 323.034 178.233 320.756 178.63 C 319.578 178.835 318.731 177.807 317.974 176.552 Z " fill="rgb(0,0,0)"/><g><path d=" M 313.813 168.991 C 311.225 160.254 311.113 152.346 313.564 151.342 C 316.015 150.338 320.106 156.616 322.694 165.353 C 325.282 174.09 325.393 181.998 322.942 183.002 C 320.492 184.006 316.401 177.727 313.813 168.991 Z " fill="rgb(70,70,70)"/><path d=" M 319.174 164.225 C 319.189 164.243 320.404 161.983 320.477 161.932 C 318.517 157.048 316.093 153.921 314.519 154.566 C 312.568 155.365 312.656 161.663 314.717 168.62 C 316.513 174.683 319.218 179.26 321.175 179.806 C 319.436 178.738 317.25 174.825 315.735 169.764 C 313.686 159.054 315.617 157.718 319.174 164.225 Z " fill="rgb(0,0,0)"/><path d=" M 316.219 172.141 L 316.461 171.148 C 316.355 170.854 316.115 170.05 316.021 169.745 L 315.357 169.796 L 316.219 172.141 L 316.219 172.141 Z  M 317.894 175.9 L 317.561 173.049 C 317.421 172.83 317.286 172.595 317.155 172.345 L 316.917 173.945 L 317.894 175.9 L 317.894 175.9 Z  M 319.443 173.293 L 319.443 173.293 L 321.161 176.992 L 321.161 176.992 L 321.161 176.992 L 321.161 176.992 L 321.161 176.992 C 321.019 177.579 320.81 178.02 320.535 178.281 L 319.174 173.387 L 319.443 173.293 Z  M 318.333 173.682 L 318.766 177.397 Q 319.622 178.578 319.962 178.551 L 319.962 178.551 L 319.962 178.551 L 319.962 178.551 L 319.962 178.551 L 318.583 173.594 L 318.333 173.682 Z  M 320.286 170.108 L 321.091 170.965 C 320.929 169.886 320.702 168.743 320.41 167.567 L 320.41 167.567 L 320.41 167.567 L 320.41 167.567 L 320.41 167.567 L 320.41 167.567 L 319.905 167.805 C 320.095 168.623 320.222 169.407 320.286 170.108 L 320.286 170.108 Z  M 320.02 172.801 L 321.356 175.676 C 321.415 174.892 321.404 173.978 321.324 172.97 L 321.324 172.97 L 321.324 172.97 L 321.324 172.97 L 321.324 172.97 L 321.324 172.97 L 320.292 171.872 C 320.244 172.275 320.153 172.593 320.02 172.801 L 320.02 172.801 Z " fill-rule="evenodd" fill="rgb(0,0,0)"/></g></g><g><path d=" M 294.121 154.564 C 298.508 163.518 305.046 171.469 313.719 178.405 C 307.741 187.148 299.71 192.882 289.612 195.595 L 284.092 190.078 C 285.21 187.059 285.944 185.141 289.612 182.065 L 287.635 181.933 L 286.237 170.55 C 285.614 166.111 288.54 159.754 294.121 154.564 Z " fill="rgb(0,0,0)"/><path d=" M 293.691 158.084 C 298.131 164.654 303.745 172.798 311.179 178.301 Q 303.364 179.626 299.512 178.737 C 290.128 176.569 283.474 166.686 293.691 158.084 Z " fill="rgb(70,70,70)"/><path d=" M 287.635 171.898 L 289.166 180.289 C 291.237 182.499 298.224 182.818 304.444 180.835 C 303.065 181.826 301.597 182.445 300.026 182.681 C 300.305 184.067 302.132 184.468 305.493 183.871 L 300.78 184.867 C 297.425 188.483 292.851 190.636 287.044 191.313 L 290.428 194.334 C 298.645 191.777 305.567 186.853 311.18 179.55 C 299.637 181.008 290.972 177.84 287.635 171.898 Z " fill="rgb(116,116,116)"/><path d=" M 290.65 182.313 C 292.705 183.289 295.371 183.568 298.633 183.139 C 298.849 183.942 299.155 184.562 299.538 184.986 C 298.087 186.074 296.156 187.197 293.732 188.345 L 290.65 182.313 Z " fill="rgb(0,0,0)"/><g><path d=" M 284.633 194.608 C 283.704 190.85 281.793 187.988 278.888 186.012 L 275.133 185.855 L 275.103 184.764 C 275.319 183.607 274.843 182.579 273.66 181.666 C 274.924 178.259 278.684 175.489 284.927 173.343 C 286.343 173.457 287.769 173.586 288.117 174.131 L 288.942 181.656 L 291.993 182.711 L 295.854 188.449 C 298.117 190.485 288.876 195.129 284.633 194.608 Z " fill="rgb(0,0,0)"/><path d=" M 291.33 183.672 L 288.36 182.875 L 286.886 176.83 C 283.543 175.773 279.463 179.013 277.612 183.173 C 281.341 186.33 283.657 189.123 284.547 191.539 C 288.033 188.262 291.09 187.1 293.706 188.04 L 291.33 183.672 Z " fill="rgb(232,232,232)"/><path d=" M 286.405 183.969 C 285.87 182.325 286.512 180.639 287.838 180.207 C 288.036 180.142 288.238 180.109 288.44 180.105 Q 288.702 180.1 289.015 183.07 Q 290.484 183.312 291.031 183.445 C 291.136 184.186 291.033 184.893 291.093 184.973 C 290.833 185.654 290.442 185.95 289.779 186.166 C 288.453 186.598 286.941 185.614 286.405 183.969 Z " fill="rgb(0,118,0)" stroke-width="1" stroke="rgb(0,0,0)" stroke-linejoin="miter" stroke-linecap="square" stroke-miterlimit="3"/><path d=" M 286.909 176.488 L 288.021 183.654 L 292.909 184.931 L 291.979 182.912 L 289.304 181.855 L 287.946 176.649 L 286.909 176.488 Z " fill="rgb(0,0,0)"/><path d=" M 292.978 188.93 C 290.712 188.703 288.42 189.671 286.088 191.82 C 289.72 192.164 292.026 191.209 292.978 188.93 Z " fill="rgb(70,70,70)"/><path d=" M 285.644 193.726 C 287.795 193.854 291.61 192.395 292.647 191.638 C 295.035 190.08 295.489 189.378 293.735 189.073 C 293.077 190.631 290.509 192.753 285.977 192.278 L 285.644 193.726 Z " fill="rgb(116,116,116)"/></g><path d=" M 280.553 176.109 Q 277.542 172.582 276.932 169.778 Q 276.829 169.305 281.96 166.23 C 282.382 166.569 282.514 166.958 282.346 167.383 Q 278.13 169.435 278.039 169.784 Q 277.633 171.35 282.707 176.211 L 280.553 176.109 Z " fill="rgb(0,0,0)"/><path d=" M 296.658 160.974 Q 297.025 160.656 295.172 159.344 C 287.085 167.465 291.046 177.16 302.365 176.923 Q 295.157 176.09 292.755 170.982 C 291.059 167.372 293.132 162.715 296.658 160.974 Z " fill="rgb(0,0,0)"/><path d=" M 293.136 163.432 L 296.924 165.727 L 296.235 167.679 L 291.912 166.913 L 293.136 163.432 Z " fill="rgb(0,0,0)"/><path d=" M 291.912 169.744 L 295.403 169.744 L 295.852 171.007 L 292.945 172.614 L 291.912 169.744 Z " fill="rgb(0,0,0)"/><path d=" M 294.941 174.38 L 296.741 172.881 L 298.041 173.88 L 297.279 175.727 L 294.941 174.38 Z " fill="rgb(0,0,0)"/></g><path d=" M 209.236 200.801 L 206.794 199.721 C 210.579 180.493 217.703 187.766 218.371 201.496 Q 216.552 194.347 213.696 193.109 Q 210.856 191.879 209.236 200.801 Z " fill="rgb(0,0,0)"/><path d=" M 217.809 199.299 L 216.652 199.299 L 216.255 197.532 L 217.222 195.879 L 217.809 199.299 Z " fill="rgb(0,0,0)"/><path d=" M 214.631 196.093 L 215.778 193.755 L 214.218 192.183 L 213.699 195.512 L 214.631 196.093 Z " fill="rgb(0,0,0)"/><path d=" M 211.897 192.605 L 212.403 195.879 L 211.425 196.959 L 209.4 196.45 L 211.897 192.605 Z " fill="rgb(0,0,0)"/><g><path d=" M 336.671 192.183 C 344.817 190.22 352.199 186.228 358.805 180.195 C 367.099 184.958 372.228 191.486 374.18 199.767 L 369.559 204.165 L 363.607 195.657 Q 361.82 204.297 361.007 205.087 C 358.21 205.713 355.526 205.742 353.899 206.438 C 345.168 202.726 339.43 197.979 336.671 192.183 Z " fill="rgb(0,0,0)"/><path d=" M 340.379 193.22 C 345.948 191.284 351.791 188.189 357.896 183.923 C 358.962 189.228 358.807 195.598 358.379 197.363 C 356.086 206.815 347.489 207.815 340.379 193.22 Z " fill="rgb(116,116,116)"/><path d=" M 360.084 183.123 C 366.882 188.321 371.019 193.524 372.48 198.718 L 369.143 201.717 C 368.339 197.788 366.356 194.227 363.179 191.021 L 362.184 187.722 C 362.705 194.423 362.157 199.659 360.528 203.416 L 356.286 204.316 C 359.285 203.783 360.555 196.723 360.084 183.123 Z " fill="rgb(70,70,70)"/><path d=" M 345.049 190.469 L 342.098 191.602 C 347.213 206.337 355.73 206.471 357.542 191.833 Q 355.594 200.626 351.051 200.958 Q 347.841 201.192 345.049 190.469 Z " fill="rgb(0,0,0)"/><path d=" M 345.273 192.679 L 347.128 191.829 L 347.682 194.414 L 346.013 196.342 L 345.273 192.679 Z " fill="rgb(0,0,0)"/><path d=" M 348.386 196.342 L 349.922 197.612 L 349.651 201.568 L 346.94 198.951 L 348.386 196.342 Z " fill="rgb(0,0,0)"/><path d=" M 352.991 197.957 L 351.804 198.075 L 351.413 201.717 L 353.445 200.803 L 352.991 197.957 Z " fill="rgb(0,0,0)"/><path d=" M 354.698 197.11 L 355.643 195.194 L 356.549 196.066 L 355.44 198.371 L 354.698 197.11 Z " fill="rgb(0,0,0)"/></g><g><path d=" M 363.313 190.817 C 365.884 192.741 368.132 196.046 369.33 200.1 C 370.405 203.739 370.435 207.302 369.614 210.133 L 365.656 210.133 C 366.38 208.028 366.382 205.122 365.493 202.116 C 364.946 200.265 364.134 198.621 363.179 197.301 L 363.313 190.817 Z " fill="rgb(0,0,0)"/><path d=" M 363.557 192.605 C 368.117 195.975 369.922 201.43 369.044 209.787 L 366.927 209.787 C 367.558 203.7 366.439 198.946 363.557 195.512 L 363.557 192.605 Z " fill="rgb(98,61,5)"/></g><g><path d=" M 431.253 225.295 L 291.535 232.043 L 284.026 239.152 L 288.606 246.744 L 336.875 254.399 L 408.555 252.892 L 429.603 243.514 L 431.253 225.295 Z " fill="rgb(235,235,235)"/><path d=" M 320.505 257.099 L 396.012 252.892 L 459.677 255.436 C 405.955 260.936 348.029 264.544 285.887 266.249 L 308.46 260.524 L 320.505 257.099 Z " fill="rgb(0,0,0)"/><path d=" M 322.525 256.751 C 325.743 264.427 352.058 261.783 352.615 255.385 C 357.167 247.491 355.617 241.417 347.952 237.151 C 347.39 251.067 333.754 255.064 325.087 243.981 C 322.188 248.426 321.339 252.687 322.525 256.751 Z " fill="rgb(0,0,0)"/><path d=" M 349.656 250.581 C 342.428 261.074 315.667 251.769 324.456 238.491 C 326.175 253.088 341.433 254.019 345.822 244.139 L 349.656 250.581 Z " fill="rgb(139,139,139)"/><path d=" M 348.226 236.792 C 348.521 237.819 348.675 238.885 348.68 239.955 C 348.68 241.616 348.283 243.259 347.53 244.739 C 346.799 246.162 345.786 247.418 344.557 248.435 C 343.332 249.462 341.935 250.264 340.433 250.81 C 338.931 251.365 337.341 251.651 335.737 251.656 C 334.605 251.66 333.477 251.502 332.385 251.193 C 331.27 250.876 330.209 250.383 329.248 249.735 C 328.226 249.039 327.323 248.18 326.583 247.193 C 325.645 245.938 324.931 244.528 324.473 243.026 C 324.945 242.286 327.246 242.856 326.918 243.33 C 327.283 244.237 327.764 245.092 328.345 245.872 C 328.94 246.665 329.662 247.352 330.482 247.911 C 331.248 248.427 332.098 248.819 332.988 249.074 C 333.883 249.33 334.803 249.457 335.728 249.453 C 337.076 249.449 338.416 249.206 339.676 248.739 C 340.94 248.281 342.116 247.607 343.147 246.744 C 344.151 245.916 344.975 244.894 345.57 243.735 C 346.164 242.563 346.477 241.268 346.477 239.955 C 346.473 239.356 346.416 238.757 346.297 238.167 C 346.014 237.991 347.757 236.477 348.226 236.792 Z " fill="rgb(0,0,0)"/><path d=" M 405.406 252.941 C 401.48 255.351 396.793 256.751 391.762 256.751 C 378.913 256.751 368.31 247.617 366.882 235.862 L 392.514 235.545 Q 411.683 249.089 405.406 252.941 Z " fill="rgb(0,0,0)"/><path d=" M 433.501 235.244 C 432.377 247.296 421.628 256.751 408.555 256.751 C 395.706 256.751 385.102 247.617 383.675 235.862 L 396.121 238.491 C 403.719 249.428 417.149 245.322 420.543 232.043 L 433.501 235.244 L 433.501 235.244 Z " fill="rgb(0,0,0)"/><path d=" M 417.277 239.334 L 420.543 244.821 C 413.315 255.315 387.171 246.027 395.343 232.732 C 395.419 245.727 410.119 248.344 417.277 239.334 Z " fill="rgb(139,139,139)"/><path d=" M 421.531 232.043 C 421.379 233.452 421.034 234.836 420.508 236.158 C 419.79 237.964 418.737 239.62 417.407 241.039 C 416.098 242.435 414.526 243.559 412.781 244.347 C 410.993 245.154 409.054 245.568 407.094 245.568 C 405.393 245.568 403.706 245.255 402.116 244.642 C 400.57 244.043 399.138 243.184 397.887 242.096 C 396.636 241.011 395.576 239.733 394.739 238.311 L 396.121 236.241 C 396.276 236.549 396.439 236.854 396.614 237.154 C 397.332 238.387 398.252 239.493 399.332 240.431 C 400.389 241.352 401.6 242.083 402.909 242.59 C 404.244 243.101 405.667 243.365 407.094 243.365 C 408.741 243.365 410.371 243.017 411.874 242.343 C 413.354 241.673 414.689 240.717 415.799 239.532 C 416.944 238.317 417.847 236.894 418.464 235.343 C 419.012 233.952 419.336 232.485 419.419 230.996 L 421.531 232.043 L 421.531 232.043 Z " fill="rgb(0,0,0)"/><path d=" M 287.772 230.197 C 293.672 233.188 293.95 240.126 289.417 243.514 C 288.222 243.64 287.748 243.783 286.446 242.841 Q 284.6 244.027 283.32 246.633 C 282.515 251.881 285.906 255.01 293.48 256.007 L 322.525 256.751 C 318.34 237.403 351.586 228.294 354.847 246.412 L 353.248 255.169 L 391.629 251.705 C 389.652 224.385 429.456 220.767 426.182 246.633 L 440.139 244.467 C 441.894 234.982 441.899 227.546 440.139 222.145 C 434.753 208.218 426.924 198.433 408.757 197.437 C 408.13 197.689 409.867 202.224 409.23 202.472 C 392.425 209.017 371.356 210.08 357.516 210.053 L 357.516 201.92 C 350.136 198.126 338.98 197.75 324.038 200.782 Q 324.013 200.787 321.627 201.371 L 309.685 229.345 C 312.59 230.249 314.648 231.711 315.847 233.717 C 317.212 239.168 316.224 242.615 312.869 244.045 L 307.736 242.271 C 305.25 240.201 304.425 237.843 305.247 235.184 L 309.684 229.902 L 322.437 201.18 L 320.395 201.571 L 316.859 212.266 C 309.044 215.422 303.21 219.502 299.344 224.491 C 295.146 225.797 291.293 227.703 287.772 230.197 Z " fill="rgb(96,125,139)"/><path d=" M 295.082 256.751 C 298.3 264.427 324.615 261.783 325.172 255.385 L 321.407 256.68 L 295.082 256.751 Z " fill="rgb(0,0,0)"/><path d=" M 304.35 236.521 L 309.077 235.469 C 308.634 240.628 309.779 243.47 312.501 243.981 L 309.236 243.024 C 306.961 241.725 305.336 239.562 304.35 236.521 Z " fill="rgb(70,70,70)"/><path d=" M 305.063 236.158 L 310.4 229.921 C 314.479 230.798 316.505 233.38 316.464 237.652 C 311.591 234.868 307.664 235.057 305.063 236.158 Z " fill="rgb(139,139,139)"/><path d=" M 282.129 235.717 L 287.175 230.335 C 291.137 231.22 292.058 234.947 292.023 239.22 C 290.631 234.35 284.399 234.617 282.129 235.717 Z " fill="rgb(139,139,139)"/><path d=" M 281.117 236.521 C 283.271 235.573 284.851 235.226 285.844 235.469 C 285.401 240.628 286.546 243.47 289.268 243.981 L 287.175 243.349 L 286.234 242.685 C 283.704 240.993 282.003 238.943 281.117 236.521 Z " fill="rgb(70,70,70)"/><path d=" M 443.771 241.196 L 442.947 247.218 Q 433.727 249.964 425.049 249.685 C 429.843 218.328 386.855 229.622 393.648 252.967 L 351.255 256.007 C 365.583 228.173 315.687 234.917 324.563 257.32 C 320.3 260.609 288.333 258.2 284.382 255.385 C 280.009 252.269 279.821 248.042 285.087 243.981 C 282.497 248.952 284.656 252.114 288.161 253.314 C 291.286 254.384 303.513 256.065 320.005 255.385 C 318.226 231.877 363.443 225.053 355.253 253.393 L 388.792 250.581 C 390.221 227.642 426.45 216.951 428.033 244.139 Q 434.932 244.713 442.051 240.374 L 443.771 241.196 Z " fill="rgb(0,0,0)"/><path d=" M 412.352 202.698 Q 379.184 212.303 355.328 211.365 C 356.283 207.936 356.429 204.339 355.736 203.314 C 355.348 199.956 342.27 197.661 321.293 201.92 L 317.884 212.266 L 314.873 212.972 L 319.302 201.14 C 343.263 196.051 357.506 198.583 358.499 201.973 Q 360.339 204.512 358.875 208.995 Q 377.04 210.695 413.618 200.88 L 412.352 202.698 Z " fill="rgb(0,0,0)"/><path d=" M 406.176 198.695 C 422.41 196.57 447.194 210.679 439.302 243.131 L 442.343 243.011 C 446.109 215.962 433.702 199.58 408.555 195.474 L 406.176 198.695 L 406.176 198.695 Z " fill="rgb(0,0,0)"/><path d=" M 380.324 238.413 C 389.214 196.795 440.703 201.983 436.203 239.152 C 443.458 195.939 380.508 199.383 380.324 238.413 Z " fill="rgb(0,0,0)"/><path d=" M 299.344 225.295 C 291.506 227.399 285.919 231.145 282.569 236.521 Q 283.465 240.828 286.242 242.685 Q 282.107 240.222 280.121 235.94 C 285.535 228.205 292.165 223.821 299.997 222.778 L 299.344 225.295 Z " fill="rgb(0,0,0)"/><path d=" M 320.395 211.739 C 293.014 215.744 287.316 245.724 303.912 245.72 C 288.179 240.98 300.093 216.123 320.395 211.739 L 320.395 211.739 Z " fill="rgb(0,0,0)"/><path d=" M 327.562 210.8 C 324.842 211.055 322.077 211.434 319.302 211.932 L 322.057 204.227 C 325.614 203.198 328.906 202.532 331.927 202.138 Q 330.807 206.539 327.562 210.8 Z  M 329.838 210.614 C 336.87 210.128 343.536 210.492 349.246 211.788 Q 352.682 203.84 351.306 203.412 C 347.546 202.241 341.567 201.128 333.525 201.952 Q 332.368 206.428 329.838 210.614 Z " fill-rule="evenodd" fill="rgb(0,0,0)"/><path d=" M 305.888 235.323 C 311.097 234.135 314.759 235.196 316.859 238.491 L 316.859 239.594 C 314.504 236.564 311.159 234.676 305.561 236.853 L 305.888 235.323 Z " fill="rgb(0,0,0)"/><path d=" M 283.32 234.932 C 287.878 233.744 290.207 234.911 292.045 238.206 L 292.045 239.309 C 289.984 236.279 287.467 234.307 282.569 236.483 L 283.32 234.932 Z " fill="rgb(0,0,0)"/><mask id="_mask_Wn97xEccTmVw0PzxdIV02CTN0iebY4mQ"><path d=" M 308.851 235.469 C 308.743 236.091 308.685 236.749 308.685 237.429 C 308.685 241.314 310.584 244.467 312.923 244.467 C 315.263 244.467 317.162 241.314 317.162 237.429 C 317.162 233.545 315.104 229.639 311.159 229.738 C 310.491 229.738 309.858 229.995 309.299 230.464 L 309.299 230.464 C 309.224 230.525 309.15 230.589 309.077 230.656 L 309.533 231.257 C 309.551 231.243 309.569 231.23 309.587 231.217 L 309.587 231.217 C 309.941 230.936 310.33 230.79 310.737 230.79 C 313.828 230.915 315.678 234.148 315.678 237.479 C 315.678 240.81 314.254 243.514 312.501 243.514 C 310.748 243.514 309.324 240.81 309.324 237.479 C 309.324 236.774 309.388 236.097 309.505 235.469 L 308.851 235.469 Z " fill="white" stroke="none"/></mask><path d=" M 308.851 235.469 C 308.743 236.091 308.685 236.749 308.685 237.429 C 308.685 241.314 310.584 244.467 312.923 244.467 C 315.263 244.467 317.162 241.314 317.162 237.429 C 317.162 233.545 315.104 229.639 311.159 229.738 C 310.491 229.738 309.858 229.995 309.299 230.464 L 309.299 230.464 C 309.224 230.525 309.15 230.589 309.077 230.656 L 309.533 231.257 C 309.551 231.243 309.569 231.23 309.587 231.217 L 309.587 231.217 C 309.941 230.936 310.33 230.79 310.737 230.79 C 313.828 230.915 315.678 234.148 315.678 237.479 C 315.678 240.81 314.254 243.514 312.501 243.514 C 310.748 243.514 309.324 240.81 309.324 237.479 C 309.324 236.774 309.388 236.097 309.505 235.469 L 308.851 235.469 Z " fill="none"/><path d=" M 308.851 235.469 C 308.743 236.091 308.685 236.749 308.685 237.429 C 308.685 241.314 310.584 244.467 312.923 244.467 C 315.263 244.467 317.162 241.314 317.162 237.429 C 317.162 233.545 315.104 229.639 311.159 229.738 C 310.491 229.738 309.858 229.995 309.299 230.464 L 309.299 230.464 C 309.224 230.525 309.15 230.589 309.077 230.656 L 309.533 231.257 C 309.551 231.243 309.569 231.23 309.587 231.217 L 309.587 231.217 C 309.941 230.936 310.33 230.79 310.737 230.79 C 313.828 230.915 315.678 234.148 315.678 237.479 C 315.678 240.81 314.254 243.514 312.501 243.514 C 310.748 243.514 309.324 240.81 309.324 237.479 C 309.324 236.774 309.388 236.097 309.505 235.469 L 308.851 235.469 Z " fill="none" mask="url(#_mask_Wn97xEccTmVw0PzxdIV02CTN0iebY4mQ)" stroke-width="28" stroke="rgb(0,0,0)" stroke-linejoin="miter" stroke-linecap="square" stroke-miterlimit="3"/><mask id="_mask_4LXCNqYGuRpaqy70pAXzs1VwpPYog6iQ"><path d=" M 285.241 235.14 C 285.141 235.763 285.087 236.421 285.087 237.101 C 285.087 240.985 286.838 244.139 288.995 244.139 C 291.152 244.139 292.904 240.985 292.904 237.101 C 292.904 233.216 290.318 230.197 288.161 230.197 C 287.545 230.197 286.962 230.454 286.446 230.923 L 286.446 230.923 C 286.377 230.984 286.309 231.048 286.242 231.115 L 286.662 231.716 C 286.679 231.702 286.695 231.689 286.712 231.676 L 286.712 231.676 C 287.038 231.395 287.397 231.25 287.772 231.25 C 289.388 231.25 291.535 233.82 291.535 237.151 C 291.535 240.482 290.222 243.186 288.606 243.186 C 286.989 243.186 285.677 240.482 285.677 237.151 C 285.677 236.446 285.736 235.769 285.844 235.14 L 285.241 235.14 Z " fill="white" stroke="none"/></mask><path d=" M 285.241 235.14 C 285.141 235.763 285.087 236.421 285.087 237.101 C 285.087 240.985 286.838 244.139 288.995 244.139 C 291.152 244.139 292.904 240.985 292.904 237.101 C 292.904 233.216 290.318 230.197 288.161 230.197 C 287.545 230.197 286.962 230.454 286.446 230.923 L 286.446 230.923 C 286.377 230.984 286.309 231.048 286.242 231.115 L 286.662 231.716 C 286.679 231.702 286.695 231.689 286.712 231.676 L 286.712 231.676 C 287.038 231.395 287.397 231.25 287.772 231.25 C 289.388 231.25 291.535 233.82 291.535 237.151 C 291.535 240.482 290.222 243.186 288.606 243.186 C 286.989 243.186 285.677 240.482 285.677 237.151 C 285.677 236.446 285.736 235.769 285.844 235.14 L 285.241 235.14 Z " fill="none"/><path d=" M 285.241 235.14 C 285.141 235.763 285.087 236.421 285.087 237.101 C 285.087 240.985 286.838 244.139 288.995 244.139 C 291.152 244.139 292.904 240.985 292.904 237.101 C 292.904 233.216 290.318 230.197 288.161 230.197 C 287.545 230.197 286.962 230.454 286.446 230.923 L 286.446 230.923 C 286.377 230.984 286.309 231.048 286.242 231.115 L 286.662 231.716 C 286.679 231.702 286.695 231.689 286.712 231.676 L 286.712 231.676 C 287.038 231.395 287.397 231.25 287.772 231.25 C 289.388 231.25 291.535 233.82 291.535 237.151 C 291.535 240.482 290.222 243.186 288.606 243.186 C 286.989 243.186 285.677 240.482 285.677 237.151 C 285.677 236.446 285.736 235.769 285.844 235.14 L 285.241 235.14 Z " fill="none" mask="url(#_mask_4LXCNqYGuRpaqy70pAXzs1VwpPYog6iQ)" stroke-width="28" stroke="rgb(0,0,0)" stroke-linejoin="miter" stroke-linecap="square" stroke-miterlimit="3"/><path d=" M 303.113 236.272 C 320.92 209.095 366.676 213.372 361.938 245.929 L 375.465 243.981 L 377.379 245.72 L 360.024 247.843 C 364.258 213.977 324.569 210.109 305.561 236.853 C 305.409 238.871 306.861 240.978 309.233 243.017 Q 305.96 242.453 303.113 236.272 Z " fill="rgb(0,0,0)"/></g><g><path d=" M 325.779 200.485 C 325.595 205.504 324.305 210.901 321.836 215.056 C 319.036 215.011 316.377 215.516 313.846 216.558 C 308.455 216.464 304.543 212.331 302.099 205.087 C 309.662 200.445 316.078 195.19 321.319 188.357 C 325.337 190.29 330.562 194.474 334.922 199.008 C 335.314 199.415 325.8 199.919 325.779 200.485 Z " fill="rgb(0,0,0)"/><path d=" M 304.94 205.087 C 310.864 202.367 315.952 197.311 320.505 191.523 C 320.165 197.699 318.961 206.758 317.923 209.378 C 314.294 218.532 308.215 216.581 304.94 205.087 Z " fill="rgb(116,116,116)"/><path d=" M 309.206 201.702 L 306.303 203.28 C 308.291 216.265 314.438 217.52 317.453 205.545 Q 314.143 213.284 311.05 211.154 C 309.561 210.129 308.289 204.067 309.206 201.702 Z " fill="rgb(0,0,0)"/><path d=" M 308.467 205.087 L 310.321 204.237 L 310.875 206.821 L 309.206 208.75 L 308.467 205.087 Z " fill="rgb(0,0,0)"/><path d=" M 311.477 208.199 L 312.978 208.75 L 313.207 212.706 L 310.549 211.964 L 311.477 208.199 Z " fill="rgb(0,0,0)"/><path d=" M 314.138 208.453 L 315.479 207.328 L 316.385 208.199 L 314.896 210.851 L 314.138 208.453 Z " fill="rgb(0,0,0)"/><path d=" M 321.808 190.817 Q 327.771 193.1 332.668 199.008 L 325.944 199.552 L 325.517 194.861 L 324.74 199.397 L 323.437 196.482 C 324.962 202.559 324.351 208.187 321.591 213.352 L 316.052 214.601 C 319.768 212.273 320.816 204.026 321.808 190.817 Z " fill="rgb(70,70,70)"/></g><path d=" M 407.472 108.736 C 410.773 111.065 413.795 113.316 416.539 115.489 L 417.389 114.285 C 412.105 109.946 405.544 105.312 397.721 100.397 L 397.721 100.397 L 397.721 100.397 L 397.721 100.397 L 396.871 101.601 C 400.213 103.757 403.345 105.853 406.266 107.889 L 403.305 112.082 L 404.509 112.932 L 407.472 108.736 Z  M 406.769 101.453 C 399.194 97.002 392.044 95.736 389.912 98.754 L 389.912 98.754 L 389.912 98.754 L 389.912 98.754 C 387.463 102.223 392.563 110.043 401.294 116.208 C 410.024 122.373 419.101 124.562 421.55 121.094 C 423.629 118.148 420.265 112.065 413.858 106.522 C 414.577 107.9 412.949 108.024 412.127 106.666 C 414.363 108.239 413.019 105.466 406.769 101.453 L 406.769 101.453 Z  M 407.127 100.856 C 398.762 95.874 390.817 94.416 388.472 97.737 L 388.472 97.737 L 388.472 97.737 C 385.807 101.511 391.378 110.035 400.903 116.761 C 410.429 123.487 420.326 125.884 422.99 122.111 C 425.35 118.769 421.252 111.702 413.668 105.457 L 413.671 105.459 L 413.631 105.427 C 413.039 104.94 412.427 104.459 411.794 103.985 L 403.818 97.726 L 404.283 98.466 L 407.127 100.856 L 407.127 100.856 L 407.127 100.856 Z " fill-rule="evenodd" fill="rgb(0,0,0)" fill-opacity="0.2"/></g></g></g><rect x="0" y="0" width="468" height="288" transform="matrix(1,0,0,1,0,0)" fill="transparent" mask="url(#_mask_co1LmxyboaDeHMBZXDQ02tTlk8lTwjRd)" stroke-width="6" stroke="rgb(30,30,30)" stroke-linejoin="miter" stroke-linecap="butt" stroke-miterlimit="2"/><path d=" M 468.017 172.367 L 494.953 185.251 L 468 176.857 L 468.017 172.367 Z " fill="rgb(30,30,30)"/><g><g clip-path="url(#_clipPath_NL4fh7pOF2XKrRqMvO4JgKMtPem1UV7t)"><text transform="matrix(1,0,0,1,485.25,23.328)" style="font-family:'Kalam';font-weight:400;font-size:14px;font-style:normal;fill:#000000;stroke:none;">So, to be clear, you're telling </text><text transform="matrix(1,0,0,1,485.25,40.065)" style="font-family:'Kalam';font-weight:400;font-size:14px;font-style:normal;fill:#000000;stroke:none;">me that TRAINS can get stuck </text><text transform="matrix(1,0,0,1,485.25,56.802)" style="font-family:'Kalam';font-weight:400;font-size:14px;font-style:normal;fill:#000000;stroke:none;">in traffic - and that you find </text><text transform="matrix(1,0,0,1,485.25,73.539)" style="font-family:'Kalam';font-weight:400;font-size:14px;font-style:normal;fill:#000000;stroke:none;">nothing unusual about it?</text></g><defs><clipPath id="_clipPath_NL4fh7pOF2XKrRqMvO4JgKMtPem1UV7t"><rect x="0" y="0" width="190.706" height="72.527" transform="matrix(1,0,0,1,485.25,8.446)"/></clipPath></defs><path d=" M 591.97 87.858 L 614.668 114.469 L 594.039 93.816 L 591.97 87.858 Z " fill="rgb(0,0,0)"/><g><path d=" M 653.678 262.941 L 666.976 265.629 C 665.735 260.164 664.881 254.223 664.39 247.775 L 654.36 244.735 L 653.678 262.941 L 653.678 262.941 Z  M 635.537 144 L 674.315 145.718 Q 672.74 191.592 668.872 224.345 C 666.125 247.603 671.226 271.953 673.182 278.367 L 620.333 275.735 C 619.146 273.022 613.921 266.883 604.682 257.349 C 611.653 257.584 617.21 256.776 621.38 254.954 L 624.464 251.464 L 620.451 215.923 L 618.659 203.243 L 625.902 206.386 L 620.333 188.078 L 611.199 154.307 L 635.537 144 L 635.537 144 Z  M 650.216 262.941 L 650.712 242.878 C 644.706 230.288 637.098 222.674 634.469 220.383 Q 628.792 227.021 625.483 239.957 L 626.535 251.88 L 646.269 253.689 L 627.28 253.726 L 639.894 255.187 L 625.122 255.563 L 620.451 258.092 C 629.454 261.343 639.385 262.97 650.216 262.941 Z " fill-rule="evenodd" fill="rgb(0,0,0)"/><path d=" M 620.343 272.373 L 607.538 275.602 L 687.956 279 L 672.014 276.431 L 620.343 272.373 Z " fill="rgb(0,0,0)"/><path d=" M 609.602 259.677 L 617.681 259.209 C 626.876 262.848 638.023 265.094 651.094 265.915 L 650.842 274.607 C 634.315 270.624 620.577 265.657 609.602 259.677 Z " fill="rgb(118,0,0)"/><path d=" M 653.594 266.226 L 667.818 269.047 L 668.872 275.386 L 653.594 274.607 L 653.594 266.226 Z " fill="rgb(118,0,0)"/><path d=" M 632.742 230.796 C 632.937 228.368 633.712 226.446 634.47 226.507 C 635.229 226.568 635.687 228.589 635.492 231.017 C 635.296 233.445 634.522 235.366 633.763 235.305 C 633.005 235.244 632.547 233.224 632.742 230.796 Z " fill="rgb(0,0,0)"/><path d=" M 670.536 147.436 L 636.867 146.405 L 616.647 154.307 L 654.732 156.368 L 670.536 147.436 Z " fill="rgb(118,0,0)"/><path d=" M 621.952 208.104 L 629.634 208.791 L 627.248 201.718 L 614.542 155.931 L 653.124 158.652 L 654.732 180.595 L 655.295 158.356 L 671.309 149.22 L 669.549 188.078 L 674.315 194.347 L 666.128 215.283 L 663.8 242.941 L 654.196 240.159 L 651.941 221.294 L 651.941 238.573 C 646.306 229.332 639.496 222.117 634.605 217.696 Q 629.031 223.475 625.005 233.647 L 621.952 208.104 Z " fill="rgb(118,0,0)"/><path d=" M 662.209 197.664 C 649.096 202.153 637.058 203.505 626.118 201.698 L 627.28 202.449 L 627.248 207.104 L 622.282 208.027 C 631.625 210.895 644.168 211.518 659.936 209.875 L 662.209 197.664 Z " fill="rgb(0,0,0)"/><path d=" M 661.136 199.326 L 656.838 195.737 L 663.034 197.932 L 663.034 204.11 L 661.136 199.326 Z " fill="rgb(0,0,0)"/><path d=" M 666.976 183.808 L 676.08 193.59 L 663.034 224.412 L 663.034 221.294 L 672.522 194.347 L 666.976 183.808 Z " fill="rgb(0,0,0)"/></g><g><path d=" M 566.68 274.189 C 553.343 277.055 534.293 277.59 509.564 275.76 Q 504.09 276.056 501.3 276.218 L 481.969 278.373 C 519.29 279.817 554.099 279.246 587.857 275.644 Q 578.28 275.036 566.68 274.189 Z " fill="rgb(0,0,0)"/><g opacity="0"><path d=" M 520.449 224.343 C 521.371 224.909 522.226 227.733 523.077 228.337 C 509.249 225.415 492.865 227.773 494.614 240.644 C 483.697 228.385 486.502 219.583 489.187 217.418 C 493.396 214.023 509.724 217.768 520.449 224.343 Z " fill="rgb(185,185,185)"/></g><g opacity="0"><path d=" M 535.178 277.068 C 529.958 250.748 541.059 241.04 568.504 247.919 L 574.667 261.789 L 568.504 276.162 L 535.178 277.068 Z " fill="rgb(185,185,185)"/></g><path d=" M 542.196 202.285 C 529.255 200.588 519.555 201.745 519.052 205.767 L 526.051 234.154 L 529.697 245.289 L 522.613 248.621 Q 523.267 244.77 522.613 226.809 C 506.368 223.275 494.574 226.659 491.389 238.494 L 498.62 246.236 C 494.233 260.452 494.876 269.803 500.571 274.267 L 535.178 277.068 C 530.334 251.533 542.518 241.909 569.218 248.52 C 554.37 230.487 546.848 209.132 542.196 202.285 Z " fill="rgb(118,0,0)"/><path d=" M 566.76 246.553 C 543.44 239.035 526.95 253.097 532.411 275.644 L 537.84 276.162 C 527.903 252.784 545.687 239.563 569.946 251.043 L 566.76 246.553 Z " fill="rgb(0,0,0)"/><path d=" M 543.184 201.343 C 536.17 199.857 519.267 198.592 518.42 203.385 L 519.782 208.792 C 518.82 203.048 530.331 201.199 543.776 203.385 L 543.184 201.343 Z " fill="rgb(0,0,0)"/><path d=" M 521.546 226.58 C 508.684 222.298 488.234 228.403 491.389 238.494 L 494.792 242.433 C 488.913 228.864 507.65 223.417 523.077 228.762 L 521.546 226.58 Z " fill="rgb(0,0,0)"/><path d=" M 528.233 197.548 Q 535.535 195.149 542.44 196.715 L 542.618 198.698 Q 538.845 196.709 528.233 197.548 Z " fill="rgb(0,0,0)"/><g opacity="0.61"><path d=" M 519.052 191.282 C 524.831 206.842 529.571 226.779 535.701 246.72 C 528.499 225.576 521.05 200.483 519.052 191.282 Z " fill="rgb(0,0,0)"/></g><path d=" M 526.051 249.063 C 522.432 249.288 517.177 250.703 513.997 254.536 C 516.188 249.404 522.647 245.818 527.886 246.56 L 526.594 249.24 L 526.051 249.063 Z " fill="rgb(0,0,0)"/><path d=" M 555.022 243.378 L 552.877 247.538 L 551.281 247.949 L 553.866 243.676 L 555.022 243.378 Z " fill="rgb(0,0,0)"/><path d=" M 550.586 243.531 L 548.961 247.919 L 547.427 248.52 L 549.475 243.967 L 550.586 243.531 Z " fill="rgb(0,0,0)"/><path d=" M 546.943 244.47 L 545.318 248.858 L 543.783 249.46 L 545.831 244.906 L 546.943 244.47 Z " fill="rgb(0,0,0)"/><path d=" M 542.68 246.023 L 542.196 250.676 L 540.86 251.638 L 541.712 246.72 L 542.68 246.023 Z " fill="rgb(0,0,0)"/><path d=" M 538.663 248.638 L 539.468 253.247 L 538.445 254.536 L 537.921 249.573 L 538.663 248.638 Z " fill="rgb(0,0,0)"/><path d=" M 535.701 251.934 L 537.477 256.264 L 536.753 257.742 L 535.178 253.005 L 535.701 251.934 Z " fill="rgb(0,0,0)"/><path d=" M 532.934 256.345 L 536.067 259.984 L 535.813 261.609 L 532.751 257.523 L 532.934 256.345 Z " fill="rgb(0,0,0)"/><path d=" M 531.215 261.789 L 535.754 264.613 L 535.862 266.254 L 531.292 262.978 L 531.215 261.789 Z " fill="rgb(0,0,0)"/><path d=" M 530.54 266.609 L 536.461 268.793 L 536.729 270.416 L 530.734 267.785 L 530.54 266.609 Z " fill="rgb(0,0,0)"/><path d=" M 530.73 270.794 L 537.25 272.389 L 537.678 273.977 L 531.04 271.945 L 530.73 270.794 Z " fill="rgb(0,0,0)"/><path d=" M 567.607 246.037 L 565.462 250.197 L 563.866 250.609 L 566.451 246.336 L 567.607 246.037 Z " fill="rgb(0,0,0)"/><path d=" M 565.21 244.824 L 563.065 248.984 L 561.47 249.396 L 564.054 245.123 L 565.21 244.824 Z " fill="rgb(0,0,0)"/><path d=" M 561.94 244.05 L 559.795 248.21 L 558.2 248.621 L 560.784 244.348 L 561.94 244.05 Z " fill="rgb(0,0,0)"/><path d=" M 558.763 243.42 L 556.618 247.58 L 555.022 247.991 L 557.607 243.718 L 558.763 243.42 Z " fill="rgb(0,0,0)"/><path d=" M 520.914 224.807 C 510.091 216.458 495.619 211.944 488.463 215.909 C 483.857 219.418 481.806 230.9 498.53 246.827 L 498.53 246.827 L 499.986 244.018 C 489.519 235.77 485.364 223.967 489.348 218.267 C 494.182 212.72 516.537 223.096 519.517 227.079 C 521.817 230.154 523.609 237.648 521.126 248.858 L 524.433 247.718 C 525.84 241.357 525.458 228.312 520.914 224.807 Z " fill="rgb(0,0,0)"/><path d=" M 524.433 254.175 Q 524.908 245.69 529.052 243.333 L 529.81 246.276 Q 526.846 247.565 524.433 254.175 Z " fill="rgb(0,0,0)"/><path d=" M 517.259 228.267 L 519.699 225.195 L 519.699 225.195 C 519.395 225.158 519.094 225.124 518.795 225.092 L 518.795 225.092 L 516.17 228.018 C 516.535 228.093 516.898 228.176 517.259 228.267 Z  M 513.219 227.597 L 515.607 224.823 L 515.607 224.823 L 515.607 224.823 C 515.921 224.842 516.237 224.863 516.556 224.888 L 514.398 227.722 C 514.005 227.671 513.612 227.63 513.219 227.597 Z  M 509.721 227.546 L 511.856 224.706 L 511.856 224.706 L 511.856 224.706 C 512.167 224.706 512.482 224.708 512.799 224.713 L 510.947 227.51 C 510.537 227.512 510.128 227.524 509.721 227.546 Z  M 505.728 228.083 L 507.758 224.876 L 507.758 224.876 L 507.758 224.876 C 508.078 224.849 508.402 224.825 508.73 224.804 L 507.059 227.83 C 506.61 227.902 506.166 227.986 505.728 228.083 Z  M 502.11 229.207 L 503.573 225.458 L 503.573 225.458 L 503.573 225.458 C 503.857 225.401 504.146 225.347 504.439 225.297 L 503.327 228.75 C 502.912 228.891 502.506 229.044 502.11 229.207 Z  M 499.193 230.739 L 499.757 226.489 L 499.757 226.489 L 499.757 226.489 C 500.012 226.399 500.272 226.312 500.537 226.229 L 500.257 230.096 C 499.89 230.3 499.534 230.514 499.193 230.739 Z  M 497.055 232.47 L 496.601 227.901 L 496.601 227.901 L 496.601 227.901 C 496.819 227.778 497.043 227.659 497.272 227.542 L 497.896 231.7 C 497.601 231.947 497.32 232.203 497.055 232.47 Z  M 495.59 234.281 L 494.038 229.709 L 494.038 229.709 L 494.038 229.709 C 494.221 229.546 494.412 229.385 494.61 229.228 L 496.243 233.374 C 496.007 233.666 495.789 233.969 495.59 234.281 Z  M 494.534 236.535 L 491.828 232.624 L 491.938 232.225 L 491.938 232.225 L 491.938 232.225 C 492.021 232.086 492.107 231.948 492.198 231.812 L 494.99 235.364 C 494.812 235.742 494.66 236.133 494.534 236.535 Z  M 494.128 239.087 L 490.785 235.335 L 490.785 235.335 L 490.785 235.335 C 490.843 235 490.92 234.67 491.014 234.346 L 494.245 237.742 L 494.244 237.77 C 494.175 238.198 494.136 238.637 494.128 239.087 Z  M 519.575 228.984 L 519.782 228.98 L 521.229 227.039 L 521.229 227.039 L 521.229 227.039 L 521.229 227.039 L 520.242 227.06 L 518.719 228.688 C 519.006 228.781 519.291 228.879 519.575 228.984 Z  M 521.896 229.998 L 522.276 229.99 L 523.152 228.841 L 523.152 228.841 L 523.152 228.841 L 523.152 228.841 L 522.79 227.838 L 521.216 229.667 C 521.445 229.773 521.672 229.883 521.896 229.998 Z " fill-rule="evenodd" fill="rgb(0,0,0)"/><path d=" M 504.75 236.779 C 492.883 247.293 488.891 271.517 502.301 276.953 L 566.76 277.068 C 573.663 277.263 577.465 264.806 575.788 259.104 C 570.606 241.48 538.843 205.242 544.781 196.918 L 540.93 195.9 C 535.233 203.362 565.905 241.004 571.547 258.519 C 572.341 260.984 572.657 269.229 567.166 272.564 C 561.688 275.892 549.315 275.746 533.668 275.644 C 519.443 275.676 507.631 275.121 503.683 274.267 C 494.686 272.321 495.365 249.968 504.75 236.779 Z " fill="rgb(0,0,0)"/><path d=" M 567.323 246.328 L 569.218 249.875 L 571.565 251.043 C 572.859 249.318 570.276 246.058 567.323 246.328 Z " fill="rgb(0,0,0)"/><path d=" M 531.307 251.522 C 527.467 224.564 511.504 183.121 516.275 180.742 C 531.536 173.131 562.631 170.679 579.539 180.604 C 581.888 181.983 571.949 185.392 571.334 190.746 C 571.137 192.465 574.941 195.488 573.446 196.525 C 567.1 200.928 550.636 200.233 525.471 189.539 C 555.084 205.023 570.354 202.207 577.602 197.483 C 579.309 196.37 574.965 193.127 575.19 191.282 C 575.892 185.539 587 180.604 584.099 179.226 C 564.179 169.759 531.428 170.567 513.997 178.733 C 508.548 181.286 525.772 232.502 531.307 251.522 Z " fill="rgb(0,0,0)"/><path d=" M 548.852 190.505 Q 547.847 187.892 548.649 182.882 L 545.921 180.742 L 545.949 180.754 C 545.94 180.749 545.931 180.744 545.921 180.739 C 559.776 184.296 569.278 184.996 574.517 182.749 C 573.642 183.356 572.734 183.88 571.787 184.311 Q 567.817 187.897 567.47 192.379 L 570.552 193.829 C 563.09 194.706 555.114 193.825 546.691 191.12 L 546.691 191.12 L 546.691 191.12 L 548.852 190.505 Z " fill="rgb(0,0,0)"/></g></g><g clip-path="url(#_clipPath_MfCLdNVebfpFW5onkUpeNRusA5DKcpWI)"><text transform="matrix(0,-0.434,0.356,0,691.488,152.355)" style="font-family:'Libre Caslon Text';font-weight:400;font-size:20px;font-style:normal;fill:#000000;stroke:none;">MCMLXXXVIII Trilobyte</text></g><defs><clipPath id="_clipPath_MfCLdNVebfpFW5onkUpeNRusA5DKcpWI"><rect x="0" y="0" width="266" height="24.6" transform="matrix(0,-0.434,0.356,0,684.591,152.355)"/></clipPath></defs><g><mask id="_mask_S6aHyub3J4xrr6uJF95FQawAnb1cJAif"><path d=" M 93.296 -22.495 L 92.95 -28.545 L 99.602 -28.291 L 98.968 -22.495 L 93.296 -22.495 Z " fill="white" stroke="none"/></mask><path d=" M 93.296 -22.495 L 92.95 -28.545 L 99.602 -28.291 L 98.968 -22.495 L 93.296 -22.495 Z " fill="none"/><path d=" M 93.296 -22.495 L 92.95 -28.545 L 99.602 -28.291 L 98.968 -22.495 L 93.296 -22.495 Z " fill="none" mask="url(#_mask_S6aHyub3J4xrr6uJF95FQawAnb1cJAif)" stroke-width="2" stroke="rgb(0,0,0)" stroke-linejoin="miter" stroke-linecap="square" stroke-miterlimit="3"/><mask id="_mask_PYzEQ0tjmavCzzLliaDH8yDLnzuM7q2i"><path d=" M 14.529 -27.101 C 18.2 -30.281 22.555 -23.15 13.336 -20.39 C 5.752 -25.894 12.039 -31.173 14.529 -27.101 Z " fill="white" stroke="none"/></mask><path d=" M 14.529 -27.101 C 18.2 -30.281 22.555 -23.15 13.336 -20.39 C 5.752 -25.894 12.039 -31.173 14.529 -27.101 Z " fill="none"/><path d=" M 14.529 -27.101 C 18.2 -30.281 22.555 -23.15 13.336 -20.39 C 5.752 -25.894 12.039 -31.173 14.529 -27.101 Z " fill="none" mask="url(#_mask_PYzEQ0tjmavCzzLliaDH8yDLnzuM7q2i)" stroke-width="2" stroke="rgb(0,0,0)" stroke-linejoin="miter" stroke-linecap="square" stroke-miterlimit="3"/><path d=" M 17.845 -26.777 L 24.649 -27.898 L 25.683 -13.868 L 21.845 -13.622 L 17.845 -26.777 Z " fill="rgb(0,0,0)"/><path d=" M 23.823 -13.868 L 26.681 -13.622 L 30.273 -27.428 L 27.252 -28.47 L 23.823 -13.868 Z " fill="rgb(0,0,0)"/><path d=" M 55.091 -21.318 L 55.572 -19.201 L 57.249 -19.728 L 56.935 -13.771 L 61.015 -13.371 L 60.137 -21.318 L 55.091 -21.318 Z " fill="rgb(0,0,0)"/><path d=" M 56.397 -22.101 L 59.094 -27.285 C 52.891 -29.565 45.74 -24.373 48.38 -17.653 C 50.643 -11.892 56.663 -12.376 58.359 -16.093 L 57.57 -19.644 C 57.123 -17.237 52.788 -16.893 52.778 -20.853 C 52.773 -22.419 55.144 -23.523 56.397 -22.101 Z " fill="rgb(0,0,0)"/><path d=" M 116.905 -20.881 L 117.385 -18.764 L 120.058 -19.556 L 119.588 -13.117 L 123.808 -13.712 L 122.929 -21.066 L 116.905 -20.881 Z " fill="rgb(0,0,0)"/><path d=" M 119.189 -22.138 L 121.886 -27.322 C 115.683 -29.601 108.512 -24.54 110.744 -17.69 C 112.634 -11.886 119.455 -12.413 121.151 -16.13 L 120.724 -18.53 C 119.141 -16.503 115.57 -16.68 115.57 -20.89 C 115.57 -22.456 117.936 -23.559 119.189 -22.138 Z " fill="rgb(0,0,0)"/><path d=" M 36.76 -26.777 L 42.086 -27.898 L 48.622 -14.629 L 43.962 -13.539 L 36.76 -26.777 Z " fill="rgb(0,0,0)"/><path d=" M 36.76 -26.777 L 40.089 -26.145 L 40.289 -14.029 L 37.759 -14.004 L 36.76 -26.777 Z " fill="rgb(0,0,0)"/><path d=" M 44.218 -27.898 L 48.189 -27.428 L 48.622 -14.629 L 45.107 -16.272 L 44.218 -27.898 Z " fill="rgb(0,0,0)"/><path d=" M 99.229 -26.737 L 104.555 -27.858 L 110.657 -14.847 L 105.997 -13.559 L 99.229 -26.737 Z " fill="rgb(0,0,0)"/><path d=" M 99.229 -26.737 L 102.558 -26.113 L 102.807 -13.952 L 99.86 -13.712 L 99.229 -26.737 Z " fill="rgb(0,0,0)"/><path d=" M 106.884 -27.733 L 110.657 -27.727 L 110.657 -14.847 L 107.575 -16.232 L 106.884 -27.733 Z " fill="rgb(0,0,0)"/><path d=" M 0 -27.35 L 7.507 -27.898 L 7.593 -16.49 L 11.602 -16.946 L 11.602 -14.117 L 1.029 -14.117 L 0 -27.35 Z " fill="rgb(0,0,0)"/><path d=" M 80.999 -25.379 L 76.974 -25.952 L 77.864 -14.518 L 70.58 -13.995 L 70.493 -25.404 L 66.484 -24.947 L 66.484 -27.777 L 81.416 -28.019 L 80.999 -25.379 Z " fill="rgb(0,0,0)"/><path d=" M 36.76 -27.891 L 29.645 -26.881 L 30.865 -14.062 L 35.537 -13.745 L 36.76 -27.891 Z " fill="rgb(0,0,0)"/><path d=" M 80.02 -27.256 L 86.36 -28.298 L 86.36 -14.022 L 81.243 -13.696 L 80.02 -27.256 Z " fill="rgb(0,0,0)"/><path d=" M 84.998 -22.613 L 90.115 -23.046 L 90.115 -18.911 L 84.998 -17.962 L 84.998 -22.613 Z " fill="rgb(0,0,0)"/><path d=" M 11.712 -21.055 L 18.021 -21.345 L 16.648 -13.622 L 12.138 -13.853 L 11.712 -21.055 Z " fill="rgb(0,0,0)"/><path d=" M 93.104 -21.523 L 98.889 -21.933 L 98.266 -13.592 L 93.604 -13.663 L 93.104 -21.523 Z " fill="rgb(0,0,0)"/><path d=" M 87.97 -28.298 L 92.336 -28.019 L 92.336 -14.188 L 89.062 -14.022 L 87.97 -28.298 Z " fill="rgb(0,0,0)"/><path d=" M 125.905 -19.089 L 122.884 -15.114 C 127.821 -11.122 136.401 -13.753 134.45 -19.089 C 133.664 -21.239 129.534 -21.092 128.348 -22.112 C 126.718 -23.514 129.529 -24.181 131.955 -21.832 L 134.771 -25.097 C 129.04 -31.383 119.963 -26.222 123.902 -21.832 C 125.631 -19.905 128.598 -20.67 129.401 -19.151 C 130.142 -17.75 127.158 -17.667 125.905 -19.089 Z " fill="rgb(0,0,0)"/></g><line x1="-0.444" y1="-36.892" x2="936" y2="-36.892" stroke-width="1" stroke="rgb(0,0,0)" stroke-linejoin="miter" stroke-linecap="square" stroke-miterlimit="3"/></g></svg>