<svg xmlns="http://www.w3.org/2000/svg" style="isolation:isolate" XXXviewBox="-36 -72 540 684" viewBox="0 0 540 684" width="540pt" height="684pt">

<style>
  :root {
    --line-color: #111;
    --pot-color: rgb(232,232,232);
    --shirt-color: rgb(159,172,179);
    --pants-color: rgb(150,128,82);
    --hat-color: rgb(93,93,93);
  }
</style>

<g id="ikon" fill="var(--line-color, #000)">

<ellipse id="shadow" cx="164" cy="224" rx="113" ry="3" />

<path d="M 139 220 C 106 211 80 193 70 187 L 63 203 L 99 222 L 136 223 L 139 220 L 139 220 Z" fill="var(--pot-color)" />

<path d="M 80 174 Q 85 189 106 190 C 128 191 184 162 198 158 C 217 153 234 151 250 153 C 245 134 234 118 217 101 C 191 97 168 95 142 98 L 142 115 C 135 130 120 141 102 148 C 100 137 100 121 105 106 C 84 125 76 150 80 174 Z" fill="var(--shirt-color, #999)" />

<path d="M 259 155 L 249 176 L 234 222 L 170 222 C 99 222 96 192 57 182 Q 72 171 83 172 C 97 228 173 139 259 155 Z" fill="var(--pants-color,#333)" />


<path d="M 110 102 C 109 101 109 101 108 101 C 105 99 103 97 103 95 C 102 90 109 85 118 84 C 119 84 119 84 119 84 L 110 102 L 110 102 Z" />

<path d="M 76 74 C 89 61 121 49 122 52 Q 128 55 130 59 C 122 79 113 85 108 102 C 104 113 100 131 102 146 C 114 142 130 132 142 117 C 138 84 162 39 125 38 C 105 37 80 43 66 53 C 68 55 72 56 79 57 C 76 65 75 71 76 74 Z" fill="var(--pot-color)" />

<path d="M 133 83 Q 227 84 232 98 C 233 103 231 107 226 109 L 218 102 C 191 97 165 96 139 98 L 133 83 Z" fill="var(--pot-color)" />

<path d="M 222 91 C 231 84 254 86 254 95 C 255 106 253 132 246 145 C 241 130 234 119 226 109 C 234 105 230 96 222 91 Z" fill="var(--pot-color)" />

<path id="nub" d="M 187 79 A 17 5 2 1 0 187 79.1 Z"/>

<path d="M 234 118 Q 236 107 242 99 Q 237 112 236 126 L 234 118 Z" />

<path d="M 245 147 C 256 126 261 108 259 94 C 255 80 227 82 219 89 L 225 93 L 225 93 C 233 88 252 87 253 100 Q 255 117 243 139 L 245 147 L 245 147 Z" />

<path d="M 226 111 C 231 108 234 105 234 102 C 235 91 204 82 167 81 C 159 81 151 81 144 81 L 143 86 C 150 86 158 86 166 86 C 202 87 230 94 230 103 C 230 105 228 107 224 109 L 226 111 L 226 111 Z" />

<path d="M 142 95 C 170 92 223 98 226 105 C 225 104 222 104 219 103 C 217 103 227 110 224 109 C 208 100 156 97 142 102 L 142 95 Z" />

<path d="M 249 161 C 249 178 243 202 229 219 L 237 225 C 248 205 252 180 252 162 Z" />

<path d="M 253 163 C 250 162 247 160 243 160 C 247 160 250 161 253 162 L 253 163 Z" />

<path d="M 251 154 C 248 134 237 116 219 101 L 213 100 C 232 116 243 134 246 153 L 251 154 L 251 154 Z" />

<path d="M 83 165 C 85 172 86 175 87 177 C 110 215 194 132 263 154 C 257 163 252 174 249 187 L 249 182 L 255 157 C 180 138 111 220 85 184 C 83 180 82 174 83 165 Z" />

<path d="M 108 195 C 135 196 160 201 170 207 C 160 198 135 193 108 195 Z" />

<path d="M 148 199 Q 160 200 182 191 Q 168 200 156 201 L 148 199 Z" />

<path d="M 146 109 C 135 127 118 139 97 148 L 96 153 C 122 142 140 129 146 109 Z" />

<path d="M 142 104 L 150 105 C 150 112 149 121 147 131 C 148 121 148 113 147 107 L 142 107 L 142 104 Z" />

<path d="M 190 98 Q 208 127 211 144 L 205 146 Q 204 122 183 98 L 190 98 Z" />

<path d="M 201 144 C 206 143 209 143 213 142 C 216 144 216 149 214 150 C 212 150 207 149 204 152 C 200 152 199 146 201 144 Z" />

<path d="M 213 161 C 223 137 194 143 202 165 L 193 169 C 193 155 200 145 208 144 C 214 143 223 148 221 159 L 213 161 Z" />

<path d="M 149 112 L 149 118 C 151 123 154 131 156 141 C 156 131 153 122 149 112 Z" />

<path d="M 90 53 C 87 56 83 61 79 66 C 82 61 85 56 89 53 L 90 53 Z" />

<path d="M 89 53 C 91 53 92 53 94 54 L 93 53 C 89 51 81 51 71 53 L 84 54 L 82 62 L 89 53 Z" />

<path d="M 124 52 C 130 57 134 62 137 66 C 133 61 123 55 116 53 L 124 52 Z" />

<g id="tricorn">  
  <path d="M 94 7 L 98 34 L 104 38 L 116 36 C 130 39 140 44 147 51 L 147 63 L 163 63 L 174 37 C 167 36 164 33 161 34 C 163 21 141 8 133 17 C 126 13 118 7 112 4 L 110 12  Z " fill="var(--hat-color, #333)"/>  
  <path d="M 146 55 L 153 55 L 146 48 L 146 55 Z" />  
  <path d="M 105 31 L 106 33 C 133 41 149 49 154 57 L 156 57 C 152 49 135 40 105 31 Z" />  
  <path d="M 108 39 L 98 34 C 97 28 97 20 95 9 C 100 10 105 11 110 13 L 110 10 C 106 9 100 7 93 6 C 95 18 96 28 95 35 L 105 39 L 108 39 Z" />  
  <path d="M 156 35 C 158 34 164 36 171 39 C 169 49 165 56 161 61 L 147 60 L 146 64 L 164 64 C 165 62 170 54 175 37 C 166 35 158 32 155 32 L 156 35 L 156 35 Z" />  
  <path d="M 151 29 L 151 34 L 153 36 L 152 30 L 151 29 Z" />  
  <path d="M 148 28 Q 152 26 152 27 C 153 28 156 37 157 40 L 158 38 C 156 36 154 26 153 25 Q 152 24 147 27" />  
  <path d="M 109 33 C 111 35 113 37 114 38 L 122 38 L 109 33 Z" />  
  <path d="M 98 11 C 100 34 105 30 110 1 Q 130 12 151 30 L 152 32 Q 127 14 112 6 C 105 34 98 36 98 11 Z" />  
  <path d="M 159 33 C 164 26 141 8 134 18 L 134 18 L 131 16 C 138 7 162 19 163 34 L 159 33 Z" />  
</g>

<path d="M 125 39 C 125 39 125 39 125 39 C 105 38 80 43 66 53 Q 72 55 80 56 L 80 56 Q 76 68 77 71 C 100 53 119 48 134 54 C 116 51 97 59 74 76 Q 73 71 77 59 Q 66 55 63 53 C 74 42 97 36 118 36 C 120 37 123 38 125 39 Z M 143 47 C 151 61 138 93 141 118 L 144 112 C 138 93 152 66 148 50 C 146 49 144 48 143 47 Z" fill-rule="evenodd" />

<path d="M 62 180 Q 74 172 84 174 L 83 169 Q 73 169 61 174 L 62 180 L 62 180 Z" />

<path d="M 74 173 C 72 147 92 111 110 100 L 106 110 C 94 120 78 149 80 171 L 74 173 L 74 173 Z" />

<path d="M 56 181 C 89 189 107 222 168 222 L 167 224 C 89 217 98 195 55 182 L 56 181 Z" />

<g id="resume">
  <path d="M 5 147 C 9 139 16 134 26 131 C 45 135 64 137 84 138 C 94 152 91 172 84 200 C 61 191 44 189 22 191 L 35 149 L 5 147 Z" fill="var(--pot-color)" />
  <path d="M 59 155 Q 70 136 84 138 C 94 152 91 172 84 200 C 61 191 44 189 22 191 L 35 149 L 59 155 Z" fill="rgb(185,185,185)" />
  <path d="M 59 156 Q 80 128 88 146 C 92 154 89 178 83 198 C 61 194 40 187 24 189 C 30 176 35 161 36 150 L 32 150 C 30 163 25 180 17 194 C 36 191 60 196 87 204 C 92 176 95 153 90 142 C 85 129 70 136 58 152 C 46 149 29 146 7 146 C 10 140 18 134 29 132 C 42 135 58 138 76 138 L 81 135 C 61 137 44 133 26 129 C 12 133 6 140 0 150 C 28 147 58 156 59 156 Z" />
  <path d="M 52 169 L 78 155 L 63 165 L 83 163 L 52 169 Z" />
</g>

<path d="M 39 204 L 40 173 C 50 149 71 158 44 204 L 39 204 Z" fill="var(--pot-color)" />

<path d="M 234 218 L 237 225 L 88 225 C 71 214 47 207 35 206 L 37 170 C 55 146 72 157 72 201 Q 93 215 115 218 C 143 220 183 220 234 218 Z M 42 173 L 40 202 C 61 180 63 145 42 173 L 42 173 Z" fill-rule="evenodd" />

<g id="button_one">
  <ellipse id="button_outline" cx="216.6" cy="163.8" rx="5.7" ry="7.8" 
   transform-origin="216.6 163.8"
   transform="rotate(15)"
  />
  <use href="#button_outline" 
   transform="translate(0.3 0.5) scale(0.7 0.7)"
   transform-origin="217 164.5"
  fill="var(--hat-color,#777)"/>

  <ellipse id="button_hole" cx="215.8" cy="163" rx="1" ry="1.6" 
   transform-origin="215.8 163"
   transform="rotate(15)"
  />
  <use href="#button_hole" transform="translate(2.7 -0.6)"/>
  <use href="#button_hole" transform="translate(-0.1 4)"/>
  <use href="#button_hole" transform="translate(2.5 3.5)"/>
  <path id="thread" d="M 216 162 Q 218 164 219 166.5 L 218 167.5 L 215 163.3 Z M 219 162.5 Q 218 165 216 167 L 215.4 166.2 L 218.2 161.5 Z "/>
</g>

<use href="#button_one" transform="translate(-19 3)" />

<g id="collar_piece">

  <path d="M 93 109 L 105 106 L 100 132 L 96 131 L 93 109 Z" fill="var(--shirt-color)" />

  <path d="M 107 103 L 90 108 C 93 115 95 122 96 129 C 96 121 96 115 95 109 L 105 106 L 107 103 Z" />

</g>

<path d="M 129 58 L 130 59 C 130 75 95 104 104 146 L 99 147 C 91 106 125 77 129 58 Z" />

<path d="M 198 119 Q 202 126 207 125 C 209 125 210 125 211 125 Q 213 123 213 120 Q 210 117 207 121 C 207 122 207 123 206 123 Q 204 123 201 118 Z" />

<path d="M 193 114 L 200 114 L 202 116 L 195 117 L 193 114 Z" />

</g>

</svg>