<svg xmlns="http://www.w3.org/2000/svg" xmlns:xlink="http://www.w3.org/1999/xlink"
 style="isolation:isolate;overflow:visible;"
 viewBox="-50 -50 100 100"
>
 
    <defs>
    <path id="thought-bubble" d="
        M -37.5 -8
        A 38 14 0 1 1 37.5 -8
        A 15 7 -15 0 1 40 3
        A 30 14 0 0 1 -12.5 16
        A 20 9 0 0 1 -39 3.5
        A 9 6 0 0 1 -37.5 -8
        Z
    "/>
    </defs>
    
    <g>
    <!--<rect x="-40" y="-18" width="80" height="35"/>-->
    <style>
        .bub {
            fill: white;
            stroke: #000;
            stroke-width: 1px;
        }
    </style>
    
    <!--
    <g transform="translate(-5 -4) scale(-1 1)">
    <ellipse class="bub" cx="34" cy="29" rx="1.5" ry="1.5"/>
    <ellipse class="bub" cx="24" cy="27" rx="5.5" ry="3"/>
    <ellipse class="bub" cx="18" cy="22" rx="8" ry="5"/>
    </g>
    -->
    
    <use class="bub" href="#thought-bubble"
      fill="red"
      stroke="#000"
      stroke-width="1"
    />
    
    <text y="-8" text-anchor="middle" font-size="8">
        <tspan>My wife said she</tspan>
        <tspan x="0" dy="1em">wants to have sex</tspan>
        <tspan x="0" dy="1em" font-style="italic">doggie-style...</tspan>
    </text>
    </g>
        
    </script>
</svg>