<svg xmlns="http://www.w3.org/2000/svg"
  style="isolation:isolate"
  viewBox="0 0 500 250"
>
  <defs>

    <path id="heart" d=" M 140.5 60.2 C 247.0 -42.6 386.9 151.6 109.4 239.2 C -120.3 73.6 72.4 -71.0 140.5 60.2 Z  M 135.6 75.4 C 219.9 -8.5 329.1 148.4 110.3 220.8 C -69.8 87.4 82.5 -30.9 135.6 75.4 Z " fill-rule="evenodd" />
    <path id="rect" d=" M 257.0 239.2 L 231.9 10.1 L 500 0 L 486.3 239.2 Z  M 258.0 32.7 L 473.7 25.6 L 460.5 205.1 L 278.7 210.8 Z " fill-rule="evenodd" />
    <path id="LIVING" d=" M 90.3 107.2 L 109.9 103.7 L 111.8 132.2 L 111.8 132.2 L 111.8 132.2 L 111.8 132.2 L 111.8 132.2 L 111.8 132.2 L 111.8 132.2 L 118.4 101.6 L 128.2 105.3 L 127.8 107.0 L 149.3 103.7 L 149.0 107.5 L 165.5 103.7 L 173.7 121.9 L 172.4 103.7 L 185.3 105.3 L 185.9 126.2 C 188.6 109.8 207.1 99.6 223.6 106.0 L 214.5 124.5 C 210.3 119.5 202.3 123.4 202.3 129.0 C 202.3 138.3 208.8 141.0 213.6 139.1 L 213.6 139.1 L 213.6 139.1 L 213.6 139.1 L 213.3 133.0 L 207.8 134.9 L 206.2 127.3 L 206.2 127.3 L 222.6 127.3 L 229.4 157.7 L 214.5 157.3 L 214.3 153.7 C 205.9 158.6 193.2 155.7 187.5 140.4 C 187.0 138.9 186.5 137.5 186.2 136.1 L 186.7 151 L 186.7 151 L 186.7 151 L 186.7 151 L 186.7 151 L 171.6 154.8 L 159.3 130.1 L 159.3 130.1 L 159.6 153.1 L 151.4 153.2 L 148.5 112.8 L 148.5 112.8 L 148.5 112.8 L 145.3 154.1 L 130.1 153.0 L 126.6 112.2 L 116.5 154.5 L 109.8 153.9 L 100.8 154.5 L 90.8 118.4 C 88.8 121.9 84.7 124.2 80.0 124.2 C 73.3 124.2 67.8 119.3 67.8 113.2 C 67.8 107.2 73.3 102.2 80.0 102.2 C 84.3 102.2 88.1 104.2 90.3 107.2 Z  M 29.7 106.5 L 54.3 103.7 L 54.5 144.3 L 67.6 142.7 L 67.6 152.8 L 37.7 152.8 L 29.7 106.5 L 29.7 106.5 L 29.7 106.5 L 29.7 106.5 Z  M 67.9 126.3 L 88.4 125.2 L 83.9 154.5 L 69.3 153.7 L 67.9 126.3 L 67.9 126.3 Z " fill-rule="evenodd" />
    <path id="THINGS" d=" M 437.6 150.6 L 437.9 153.5 L 425.3 155.6 L 425.5 151.2 C 417.6 158.0 403.4 156.0 398.9 139.3 C 398.8 139.0 398.7 138.6 398.6 138.3 L 398.6 149.4 L 398.6 149.4 L 398.6 149.4 L 398.6 149.4 L 398.6 149.4 L 398.6 149.4 L 384.7 154.0 L 374.8 131.0 L 374.8 131.0 L 375.2 152.6 L 366.4 153.5 L 365.0 118.6 L 365.0 118.6 L 365.0 118.6 C 363.3 122.0 359.6 124.3 355.4 124.3 C 349.6 124.3 344.9 119.9 344.9 114.4 C 344.9 108.9 349.6 104.5 355.4 104.5 C 359.4 104.5 362.8 106.6 364.6 109.6 L 364.5 107.1 L 364.5 107.1 L 364.5 107.1 L 364.5 107.1 L 380.4 103.1 L 388.3 123.3 L 387.3 103.5 L 398.6 103.5 L 398.6 122.7 C 402.6 107.6 418.2 98.9 432.1 105.0 L 424.1 123.5 C 420.3 118.4 413.3 122.3 413.3 127.9 C 413.3 140.7 421.0 143.0 426.2 139.0 L 426.2 139.0 L 426.2 139.0 L 426.7 131.1 L 418.7 133.9 L 417.3 126.4 L 435.2 125.7 L 437.1 145.4 L 444.1 134.3 C 447.9 139.4 456.8 139.1 454.6 134.1 C 452.2 128.7 443.3 131.4 438.2 124.5 C 426.4 108.9 453.5 90.5 470.6 112.9 L 462.2 124.5 C 454.9 116.2 446.6 118.5 451.4 123.5 C 455.0 127.2 467.3 126.7 469.6 134.3 C 475.2 152.3 452.5 161.7 437.6 150.6 Z  M 331.0 120.9 L 324.9 121.5 L 324.9 101.6 L 309.9 104.6 L 309.9 104.6 L 309.9 104.6 L 310.2 102.6 L 265.6 103.5 L 265.6 113.6 L 277.6 111.9 L 277.8 152.6 L 299.6 150.7 L 296.9 110.0 L 306.5 111.6 L 309.7 153.7 L 324.9 152.5 L 324.9 137.6 L 324.9 137.6 L 324.9 137.6 L 324.9 137.6 L 332.0 136.0 L 333.0 152.5 L 342.8 151.9 L 342.8 101.6 L 329.8 101.6 L 331.0 120.9 L 331.0 120.9 Z  M 346.0 126.4 L 361.7 125.7 L 360.0 154.0 L 347.1 153.8 L 346.0 126.4 L 346.0 126.4 L 346.0 126.4 L 346.0 126.4 Z " fill-rule="evenodd" />

    <g id="ikon">
      <use href="#THINGS" fill="var(--things-color, #000)"/>
      <use href="#LIVING" fill="var(--living-color, #000)"/>
      <use href="#rect" fill="var(--rect-color, #000)"/>
      <use href="#heart" fill="var(--heart-color, #000)"/>
    </g>

  </defs>

  <use href="#ikon" style="
    --heart-color: #800;
    --rect-color: #909;
    --living-color: #009;
    --things-color: #070;
  "/>

</svg>