<svg xmlns="http://www.w3.org/2000/svg" >

  <defs>

    <path id="heart_outside" fill-rule="evenodd" d="M 506.7 109.5 C 610.1 81.6 557.7 4.699999999999999 519.3 37.6 C 492.8 -5.699999999999999 426.4 48.6 506.7 109.5 Z M 516.9 52.8 C 548.0 20.6 580.9 75.6 508.9 96.6 C 449.1 50.7 499.0 14.2 516.9 52.8 L 516.9 52.8 Z" />
    <path id="rect_outside" fill-rule="evenodd" d="M 310.4 269.3 L 302.4 229.0 L 347.7 224.4 L 348.9 263.8 L 310.4 269.3 L 310.4 269.3 Z M 300.4 283.5 L 287.5 218.7 L 359.7 211.3 L 361.6 274.9 L 300.4 283.5 L 300.4 283.5 Z" />

    <path id="heart_inside" d="M 517.3 51.1 C 550.4 19.5 583.6 75.0 509.29999999999995 98.9 C 444.3 49.8 500.0 11.5 517.3 51.1 Z" />
    <path id="rect_inside" d="M 309.1 272.6 L 299.8 227.6 L 350.2 222.2 L 351.4 266.0 Z" />

    <g id="LIVING" >

      <path id="_L1" d="M 165.4 177.4 L 165.9 187.8 L 281.2 183.4 L 281.2 152.5 L 237.5 157.5 L 236.5 33.1 L 154.7 39.2 Z" />

      <path id="_I1" d="M 354.6 33.2 L 277.1 44.2 L 290.4 184.0 L 341.3 187.4 L 354.6 33.2 Z" />

      <path id="_V1" d="M 429.8 120.4 L 423.4 33.1 L 349.3 45.4 L 392.8 188.8 L 423.0 186.8 L 445.5 188.8 L 480.3 55.1 C 480.1 50.5 481.3 46.6 483.3 43.5 L 484.7 38.3 L 451.7 26.9 L 429.8 120.4 Z" />

      <path id="_I2" d="M 492.7 107.8 L 497.4 186.3 L 546.5 188.8 L 561.4 104.6 L 518.8 106.5 Z" />

      <path id="_N1" d="M 684.7 177.8 L 633.9 189.7 L 592.7 113.9 L 593.9 184.3 L 566.3 184.6 L 555.4 45.4 L 555.4 45.4 L 555.4 45.4 L 613.4 33.1 L 640.9 89.0 L 636.7 33.1 L 679.9 38.3 L 684.7 177.8 Z" />

      <path id="_G1" d="M 778.1 132.4 L 778.7 122.19999999999999 L 760.4 128.0 L 755.2 104.9 L 810.2 104.9 L 819.8 191.5 L 775.3 187.2 L 775.6 181.0 C 748.7 201.8 702.0 195.6 682.0 144.8 C 653.3 71.5 731.2 15.2 798.8 39.9 L 769.4 96.3 C 755.8 80.9 729.9 92.8 730.0 110.0 C 730.1 147.3 765.5 149.6 778.1 132.4 Z" />

    </g>

    <g id="THINGS">

      <path id="_T1" d="M 162.1 252.7 L 118.2 246.5 L 127.9 371.1 L 48.5 376.9 L 47.6 252.5 L 4.0 257.5 L 4.0 226.6 L 166.6 224.0 L 162.1 252.7 Z" />

      <path id="_H1" d="M 246.1 326.1 L 220.6 330.8 L 220.6 376.6 L 164.7 380.1 L 151.5 232.3 L 220.6 220.9 L 220.6 281.6 L 242.6 279.7 L 238.1 220.9 L 285.7 220.9 L 285.7 374.8 L 250.0 376.6 L 246.1 326.1 Z" />

      <path id="_I3" d="M 362.4 292.1 L 299.4 287.7 L 306.1 381.2 L 357.0 380.4 L 362.4 292.1 Z" />

      <path id="_N2" d="M 489.4 367.2 L 489.4 367.2 L 438.7 381.2 L 402.5 310.9 L 403.9 377.0 L 371.7 379.5 L 364.9 237.6 L 364.9 237.6 L 364.9 237.6 L 422.9 225.4 L 451.9 287.3 L 448.4 226.8 L 489.4 226.8 L 489.4 367.2 L 489.4 367.2 Z" />

      <path id="_G2" d="M 590.5 335.1 L 591.9 315.9 L 562.8 324.5 L 557.6 301.4 L 623.2 299.4 L 632.8 379.5 L 586.8 386.1 L 587.8 372.4 C 558.7 393.4 507.1 387.4 490.4 336.2 C 466.1 261.5 544.2 206.4 611.8 231.2 L 582.4 287.8 C 568.7 272.2 543.0 284.3 543.0 301.3 C 543.0 340.5 571.5 347.7 590.5 335.1 Z" />

      <path id="_S1" d="M 744.4 344.3 C 735.5 384.9 661.6 399.7 616.1 362.9 L 649.0 319.6 C 662.7 335.1 695.2 334.2 687.1 319.0 C 678.3 302.4 646.1 310.7 627.2 289.7 C 584.7 242.3 681.3 186.7 743.8 252.2 L 715.0 289.7 C 688.5 264.1 657.8 271.4 675.7 286.7 C 686.3 295.9 756.1 293.9 744.4 344.3 Z" />

    </g>

    <g id="ikon">
      <use href="#heart_inside" fill="var(--heart-inside-color, none)" />
      <use href="#rect_inside" fill="var(--rect-inside-color, none)" />
      <use href="#LIVING" fill="var(--living-color, var(--title-color, #000))" />
      <use href="#THINGS" fill="var(--things-color, var(--title-color, #000))" />
      <use href="#heart_outside" fill="var(--heart-outside-color, var(--title-color, #000))" />
      <use href="#rect_outside" fill="var(--rect-outside-color, var(--title-color, #000))" />
    </g>

    <g id="matte">
      <use href="#LIVING" />
      <use href="#THINGS" />
      <use href="#heart_outside" />
      <use href="#rect_outside" />
      <use href="#heart_inside" />
      <use href="#rect_inside" />
    </g>

    <mask id="matte_mask">
      <rect width="825" height="400" fill="#fff"/>
      <use href="#matte" fill="#000" />
    </mask>

    <g id="outline">
      <use href="#matte" stroke="var(--outline-color, #000)"
       stroke-width="var(--outline-width, 4)" mask="url(#matte_mask)"/>
    </g>

    <mask id="solid_mask">
      <rect width="825" height="400" fill="#000"/>
      <use href="#matte" fill="#fff" />
    </mask>

    <g id="solid" mask="url(#solid_mask)">
      <rect width="825" height="400"/>
    </g>

  </defs>

  <use href="#solid"/>

</svg>