<svg xmlns="http://www.w3.org/2000/svg"
viewBox="0 0 615 277">


<g id="ikon">

  <g>
    <path fill="var(--heart-inside-color, none)" d=" M 387 22 C 412 -2 437 40 381 58 C 332 21 374 -8 387 22 Z " />
    <path fill="var(--rect-inside-color, none)" d=" M 230 189 L 223 155 L 261 151 L 262 184 Z " />
  </g>      

  <g id="LivingThings" fill="var(--title-color, #000)">

    <path id="_L" d=" M 121.786 117.198 L 122.138 125 L 209.005 121.719 L 209.005 98.473 L 176.067 102.222 L 175.357 8.489 L 113.68 12.989 Z " />

    <path id="_I1" d=" M 264.401 8.542 L 205.939 16.841 L 215.963 122.171 L 254.354 124.769 L 264.401 8.542 Z " />

    <path id="_V" d=" M 321.048 74.231 L 316.203 8.489 L 260.302 17.694 L 293.166 125.786 L 315.939 124.324 L 332.897 125.786 L 359.118 25.021 C 359.018 21.567 359.879 18.621 361.378 16.336 L 362.415 12.35 L 337.593 3.784 L 321.048 74.231 Z " />

    <path id="_I2" d=" M 368.44 64.708 L 371.945 123.887 L 408.995 125.786 L 420.28 62.327 L 388.143 63.803 Z " />

    <path id="_N1" d=" M 513.174 117.513 L 474.884 126.464 L 443.83 69.379 L 444.705 122.441 L 423.919 122.646 L 415.714 17.694 L 415.714 17.694 L 415.714 17.694 L 459.473 8.489 L 480.208 50.584 L 476.991 8.489 L 509.615 12.35 L 513.174 117.513 Z " />

    <path id="_G1" d=" M 583.649 83.309 L 584.055 75.611 L 570.274 79.946 L 566.328 62.553 L 607.785 62.553 L 615 127.848 L 581.473 124.555 L 581.716 119.935 C 561.418 135.659 526.216 130.93 511.185 92.661 C 489.497 37.445 548.25 -5.206 599.215 13.525 L 577.054 56.114 C 566.761 44.436 547.282 53.504 547.317 66.369 C 547.393 94.536 574.094 96.201 583.649 83.309 Z " />


    <path id="_T" d=" M 119.253 174.022 L 86.191 169.312 L 93.498 263.255 L 33.648 267.552 L 32.938 173.819 L 0 177.568 L 0 154.322 L 122.68 152.332 L 119.253 174.022 Z " />
    
    <path id="_H" d=" M 182.598 229.308 L 163.303 232.888 L 163.303 267.332 L 121.259 270.014 L 111.212 158.602 L 163.303 150.036 L 163.303 195.8 L 179.927 194.394 L 176.533 150.036 L 212.409 150.036 L 212.409 265.971 L 185.507 267.332 L 182.598 229.308 Z " />

    <path id="_I3" d=" M 270.244 203.665 L 222.716 200.302 L 227.829 270.864 L 266.139 270.285 L 270.244 203.665 Z " />

    <path id="_N2" d=" M 366.009 260.278 L 366.009 260.278 L 327.719 270.864 L 300.487 217.84 L 301.509 267.635 L 277.296 269.606 L 272.108 162.584 L 272.108 162.584 L 272.108 162.584 L 315.867 153.38 L 337.746 200.023 L 335.004 154.406 L 366.009 154.453 L 366.009 260.278 L 366.009 260.278 Z " />

    <path id="_G2" d=" M 442.191 236.059 L 443.247 221.591 L 421.288 228.095 L 417.342 210.702 L 466.838 209.183 L 474.054 269.606 L 439.387 274.491 L 440.134 264.244 C 418.274 280.025 379.27 275.459 366.717 236.921 C 348.383 180.636 407.304 139.055 458.269 157.785 L 436.108 200.375 C 425.815 188.696 406.371 197.764 406.371 210.629 C 406.371 240.222 427.843 245.563 442.191 236.059 Z " />

    <path id="_S" d=" M 558.155 243.045 C 551.446 273.649 495.758 284.816 461.465 257.089 L 486.288 224.43 C 496.582 236.108 521.098 235.426 515.01 223.913 C 508.412 211.436 484.039 217.722 469.833 201.892 C 437.774 166.17 510.615 124.232 557.757 173.595 L 535.993 201.892 C 516.06 182.586 492.968 188.065 506.363 199.591 C 514.391 206.498 567 205 558.155 243.045 Z " />

  </g>

  <g fill-rule="evenodd"> 
    <path fill="var(--heart-outside-color, var(--title-color, #000))" d=" 
      M 379 66 C 457 45 417.41 -13.112 388.578 11.858 C 368.508 -20.955 318.434 20.143 379 66 Z 
      M 386.71 23.349 C 410.132 -1.173 434.98 40.511 380.602 56.318 C 335.571 21.715 373.167 -5.922 386.71 23.349 L 386.71 23.349 Z 
    "/>
    <path fill="var(--rect-outside-color, var(--title-color, #000))" d=" M 231.037 186.436 L 225.027 156.116 L 259.146 152.671 L 260.038 182.38 L 231.037 186.436 L 231.037 186.436 Z  M 223.47 197.169 L 213.777 148.335 L 268.193 142.833 L 269.631 190.713 L 223.47 197.169 L 223.47 197.169 Z  " />
  </g>

</g>

</svg>