<svg xmlns="http://www.w3.org/2000/svg">

  <style id="config_styles" type="text/css">
  
    :root {

        --show-hearts: 1;
        --font-size: 24px;
        /*
        --bg-fill: url(newsprint.jpg);
        --bg-filter: url(#shake);
        --bg-mask: url(#fade_mask);
        --bg-opacity: 0.85;
        */

        /*
        --show-hearts: 1;
        --font-size: 22px;
        --title-color: orange;
        --living-color: yellow;
        --things-color: blue;
        --circ1-color: green;
        --circ2-color: white;
        --heart-color: green;
        --square-color: purple;

        --border-color: hotpink;
        --border-width: 9;

        --copy-color: brown;

        --outline-color: purple;
        */

    }
  </style>

  <style id="svg_styles" type="text/css">

    svg {
      background-image: var(--bg-fill, none);
      mask: var(--bg-mask, none);
    }
  
  </style>

  <style id="comic_styles" type="text/css">

    @font-face {
      font-family: 'Comic Neue';
      /* src: url('neue.ttf') format('truetype'); */
      src: url('ComingSoon.ttf') format('truetype');
    }
  
    text {
      font-family:'Comic Neue';
      font-weight: 400;
      font-size: var(--font-size, 28px);
      fill: var(--text-color, var(--outline-color, #000));
    }
  
    .emph {
      font-style: italic;
      font-weight: bold;
    }

    .text-bubble {
      fill: none;
      stroke: var(--outline-color, #000);
      stroke-width: 1px;
    }

    .text-bubble + path {
      fill: var(--outline-color, #000);
    }

    #title_line {
      fill: var(--title-color, #000);
      height: 2px;
    }
    
    #copyright, #scoundrel {
      font-family:'Times New Roman';
      font-weight: 300;
      font-size:17px;
      fill:var(--copy-color, var(--outline-color, #000));
    }

    .obj {
      fill: var(--outline-color, #000);
    }
  
    @media (orientation: portrait) {
      .land { display: none; }
      #title_line {width: 625px; }
    }
  
    @media (orientation: landscape) {
      .port { display: none; }
      #title_line { width: 1275px; }
    }
  
  </style>

  <style id="border_styles">

    .border {
     fill: none ;
     stroke: var(--border-color, var(--outline-color, #000));
     stroke-width: var(--border-width, 2); 
    }

    .slant {
      marker-start: url(#slant_cap);
      marker-end: url(#slant_cap);
    }

  </style>

  <defs id="pats_and_filters">

    <linearGradient id="fade" gradientUnits="objectBoundingBox">
      <stop offset="0%" stop-color="#000" stop-opacity="0"/>
      <stop offset="100%" stop-color="#000" />
    </linearGradient>

    <filter id="blur">
      <feGaussianBlur in="SourceGraphic" stdDeviation="0.3" />
    </filter>

    <filter id="shake" width="120%" height="220%" color-interpolation-filters="sRGB">
      <feImage href="newsprint.jpg" x="0" y="0" width="220%" height="120%" preserveAspectRatio="xMidYMid slice" result="mig" />
      <feDisplacementMap in="SourceGraphic" in2="mig" result="rat" scale="5" xChannelSelector="R" yChannelSelector="B" />
      <feGaussianBlur in="rat" stdDeviation="0.3" result="blur" />
      <!-- shift image back based on displacement's scale -->
      <feOffset in="blurred" dx="0.5" dy="5" result="final" />
    </filter>
    
    <pattern id="newsprint" patternUnits="userSpaceOnUse" width="100%" height="100%">
      <image href="newsprint.jpg" width="100%" height="100%" preserveAspectRatio="none" />
    </pattern>

    <pattern id="dots" fill="pat(dots,var(--outline-color,#000))"/>

  </defs>

  <defs id="clips_and_masks">

    <clipPath id="two_of_four_clip">
        <path d="M 0 0 H 620 V 400 H 0 Z"/>
    </clipPath>

    <mask id="fade_mask"
     maskUnits="objectBoundingBox"
     maskContentUnits="objectBoundingBox"
    >
      <linearGradient id="fade_gradient"
       x1="0%" y1="100%"
       x2="90%" y2="0%"
      >
        <stop offset="0%" stop-color="#fff" stop-opacity="1" />
        <stop offset="100%" stop-color="#fff" stop-opacity="0.4" />
      </linearGradient>
      <rect width="1" height="1" fill="url(#fade_gradient)" />
    </mask>

  </defs>

  <defs id="title_defs">
    <g id="title">
      <rect id="title_line" x="12.5" y="12.5" />
      <use href="title-test.svg#ikon" transform="translate(30 17) scale(2.5) " />
    </g>
  </defs>

  <defs id="copyright_defs">
    <text id="copyright" transform="rotate(270)">
      <tspan letter-spacing="-0.04em">&#xA9;MCMLXXXVIII</tspan>
      <tspan letter-spacing="0.03em">&#xB7; Trilobyte</tspan>
    </text>
    <text id="scoundrel" text-anchor="end">
      <tspan letter-spacing="-0.04em" font-style="italic">
        [The Wheeling Daily Scoundrel]
      </tspan>
    </text>
  </defs>
  
  <defs id="border_defs">

    <marker id="slant_cap" markerWidth="3" markerHeight="1" refX="1" refY="0.5" orient="auto-start-reverse" markerUnits="strokeWidth">
      <path d=" M 0 0 L 3 0 L 1 1 H 0 Z" fill="context-stroke"/>
    </marker>

    <path id="two_of_four_border" class="border" d=" M 0 0 H 620 V 400 H 0 Z " />

  </defs>

  <defs id="character_defs">

		<path id="ground_arc" class="obj" d=" M 3 384 Q 310 370 617 384 Q 310 379 0 384 Z" />

    <g id="truck">
     <path d="m42.86,148.43c6.44,-0.23 11.62,-7.93 11.62,-17.38c0,-9.6 -5.34,-17.4 -11.93,-17.4c-0.84,0 -1.66,0.13 -2.45,0.37c-0.79,-0.24 -1.61,-0.37 -2.45,-0.37c-6.58,0 -11.93,7.8 -11.93,17.4c0,9.6 5.35,17.39 11.93,17.39l0,0l0,0l4.91,0l0.3,0l0,-0.01z"  />
     <path d="m30.2,68.44q-6.76,-0.85 -7.42,0.53c-0.66,1.37 -2.99,11.98 -0.97,14.89q2.01,2.92 8.39,0.81l0,-16.23z"  />
     <path d="m183.78,143.14l0,0.01l-31.62,1.39l-14.76,0c-6.58,0 -11.92,-9.18 -11.92,-18.78c0,-9.6 5.34,-17.39 11.92,-17.39l0,0l46.38,0l0,0.01c0.14,-0.01 0.28,-0.01 0.41,-0.01c6.59,0 11.93,7.79 11.93,17.39c0,9.6 -5.34,17.39 -11.93,17.39c-0.13,0 -0.27,0 -0.41,-0.01z"  />
     <path d="m61.74,114.55c6.35,0.37 11.43,8.02 11.43,17.38c0,9.36 -5.08,17 -11.43,17.38l0,0.01l-0.49,0l-4.73,0l0,0c-6.58,0 -11.92,-7.79 -11.92,-17.39c0,-9.6 5.34,-17.4 11.92,-17.4l0,-1.65l5.22,0l0,1.67z"  />
     <path d="m55.8,28.08l23.21,-6.99l98.63,-11.05l27.34,-3.07l3.59,91.19l-143.22,10.31l-9.55,-80.39z"  />
     <path d="m201.29,95.95l6.81,30.44l-137.86,7.32l1.86,-28.34l129.19,-9.42z"  />
     <path d="m196.12,109.8l11.15,0.9l0.97,7.43l-8.04,2.91l-4.08,-11.24z"  />
     <ellipse cx="-247.9" cy="164.23" fill="rgb(70,70,70)"  rx="6.65" ry="10.06" transform="matrix(1 0 0 1 431.247 -37.8005)"/>
     <ellipse cx="-271.43" cy="165.09" fill="rgb(70,70,70)"  rx="6.96" ry="10.48" transform="matrix(1 0 0 1 431.247 -37.8005)"/>
  
     <path d="m84.43,25.83l112.76,-11.19l5.91,77.28l-115.72,8.67l-2.95,-74.76z" 
     fill="rgb(96,125,139)" />
     <path d="m59.54,31.42l19.67,-5.38l1.19,30.05l-18.61,-0.91l-2.25,-23.76z" 
     fill="rgb(96,125,139)" />
  
     <path d="m81.67,51q-25.4,-0.59 -44.94,4.68l-17.78,26.7l-13.67,7.29l10.04,34.13l-2.66,12.62l17.97,0.56l55.11,-5.76l-4.07,-80.22z"  />
     <ellipse cx="-370.53" cy="170.81" fill="rgb(70,70,70)"  rx="6.96" ry="10.48" transform="matrix(1 0 0 1 431.247 -37.8005)"/>
     <path d="m8.32,90.35l10.26,31.53l16.97,-0.84l5.62,0.85l-0.83,7.6l6.73,-0.27c-10.4,-16.38 28.47,-19.98 27.47,-4.07l7.65,-0.31l-4.23,-45.99l-30.48,2.05l-19.59,9.45l5.06,19.45l-6.74,-19.45c-5.03,-0.76 -10.01,-0.76 -14.97,0c3.75,-1.66 8.74,-2.06 14.97,-1.23l14.74,-7.33c-3.83,-0.89 -11.49,-0.29 -18.64,1.03l-13.99,7.53l0,0z" 
     fill="rgb(96,125,139)" />
   <path d="m16,134.33l2.34,-10.86l17.18,-1.32l-0.72,8.72l1.45,-8.62l3.68,0.53l-0.82,12.16l-5.01,-0.81l-18.1,0.2z" 
   fill="rgb(70,70,70)" />
   <path d="m55.17,59.22l18.93,-1.39l0.65,16.92l-25.23,1.55l5.65,-17.08z" fill="rgb(70,70,70)" />
   <path d="m37.92,60.16c5.5,-1.77 10.5,-2.02 14.98,-0.94l-8.74,18.73c-5.5,-0.57 -13.65,0.17 -20.15,1.21l13.91,-19z" fill="rgb(70,70,70)" />
   <path d="m188.39,141.12l11.81,2.02l-225.46,12.06l59.12,-6.76l106.69,-5.29l47.84,-2.03z"  />
   <path d="m52.07,65.81q6.81,-0.49 7.47,0.89c0.66,1.38 -3.23,11.3 -4.13,14.67c-0.84,3.11 -10.55,2.02 -9.95,0.4l6.61,-15.96z"  />
    </g>

    <g id="red_T">
     <path d="m6.59,74.67c-5.21,-7.69 19,-22.46 31.29,-26.59l100.6,-38.65c15.58,-3.26 37.97,-5.92 58.55,-5.18c31.57,19.93 55.85,44.47 77.02,76.6c-6.83,19.32 -15.76,38.84 -29.79,51.06l-18.41,-1.59l1.39,10.02l-15.74,3.53c0.66,-15.61 -0.87,-33.03 -8.51,-54.94l2.98,2.98c6.78,-3.56 24.45,-7.42 43.13,-1.38c-2.82,-4.58 -4.05,-8.56 4.93,-9.94c-4.87,-1 -10.14,-4.21 -11.61,-8.41l-4.61,0.85c-14.39,-7.63 -29.99,-12.26 -50.98,-17.6c-34.24,8.26 -72.28,18.02 -105.12,31.07c-13.26,7.05 -29.62,15.49 -40.29,23.84c-9.21,-13.99 -22.22,-26.98 -34.83,-35.68z" 
     fill="pink"
     />
     <g  transform="translate(-341 -72) matrix(1 0 0 1 161.093 8.775)">
      <path d="m248.29,188.25c3.35,4.85 7.95,8.87 13.78,12.05c2.69,-2.53 5.14,-4.47 8.98,-6.93c-0.03,-5.7 -2.26,-11.02 -6.7,-15.99c-8.03,2.43 -12.83,5.68 -16.06,10.87z"  />
      <path d="m262.93,178.11c3.75,4.84 5.75,9.18 6.17,11.04c1.72,7.69 -6.09,5.03 -15.04,-6.47c3.12,-1.96 6.08,-3.47 8.87,-4.57z"  />
      <path d="m252.84,184.29l-3.43,3.35c3.17,4.61 7.21,8.26 12.1,10.96l4.73,-3.54c-5.58,-2.6 -10.04,-6.19 -13.4,-10.77z" fill="rgb(116,116,116)" />
     </g>
     <path d="m23.6,136.49c2.24,-7.21 3.95,-13.31 8.62,-15.36c2.84,0.34 5.25,0.3 7.19,-0.14c3.3,1.69 5.47,6.76 7.38,13.58c14.52,-6.05 22.99,-6.86 24.07,-2.32c0.29,2.96 0.85,5.45 2.32,7.34c-8.57,8.94 -20.18,13.19 -30.81,14.18c-4.54,-10.6 -10.79,-16.36 -18.77,-17.28z"  />
     <path d="m26.34,135.54c5.97,2.38 11.06,6.32 15.27,11.82c-1.21,-10.82 -3.29,-17.3 -4.86,-20.34c-3.36,-6.5 -7.71,-6 -10.41,8.52z" fill="rgb(116,116,116)" />
     <path d="m35.59,122.76l3.82,0c4.36,4.75 6.92,13.01 7.64,24.77l0.59,-2.9c1.15,0.41 2.27,2.23 3.36,5.45l-0.61,-3.52c5.82,-2.08 12.21,-5.62 19.16,-10.63l1.1,3.12c-8.93,8.2 -17.99,12.46 -27.17,12.76c-0.01,-14.11 -2.63,-23.78 -7.89,-29.05z" fill="rgb(70,70,70)" />
     <path d="m47.64,136.15l0.38,7.23l2.06,2.31c10.53,-5.24 16.63,-9.34 18.28,-12.32c2.12,-3.85 -7.86,-3.38 -20.72,2.78z" fill="rgb(116,116,116)" />
     <path d="m41.19,110.36c10.42,-7.54 23.55,-15.64 39.36,-22.79c30.38,-12.27 71.66,-23.96 105.77,-32.03c23.23,5.1 40.2,10.9 50.89,17.38l4.8,-0.82c1.78,3.02 4.08,5.36 6.91,7.03l4.46,1.29c-5.91,0.98 -7.78,4.11 -5.63,9.37c-18.52,-3.49 -32.46,-2.63 -41.82,2.58l-3.63,-5.27c6.82,21.36 10.02,40.26 9.6,56.67l-23.59,3.59c-0.46,-24.85 3.67,-52.48 -2.94,-80.63l-8.72,7.8l-14.64,-3.91l-9.26,12.76l-65.03,15.13l-39.46,22.17l-7.07,-10.32z" fill="#7f0000" />
     <path d="m52.03,50.48c-7.27,-11.08 -54.68,14.18 -47.84,25.05c19.43,12.32 28.72,23.21 43.18,46.13l97.46,-25.01l14.64,-20.58l-72.7,17.87l-38.63,23.32c-13.87,-20.8 -25.09,-32.21 -39.51,-42.92c-8.43,-6.23 31.81,-32.53 44.01,-21.92l-0.61,-1.94z"  />
     <path d="m60.67,116.53c-1.65,5.47 -6.29,13.08 -12.12,20.36l17.14,-3.67c4.75,-14.06 21.89,-23.02 44.44,-23.89l18.82,2.61l9.29,-7.14l14.1,-18.34l-47.06,9.33l-18.02,4.78l-26.59,15.96z"  />
     <path d="m62.14,119.89c-1.33,3.34 -4.65,9 -8.14,14.5c8.8,-7.53 9.3,-15.41 39.32,-24.7l-4.81,-6.54l-26.37,16.74z" fill="rgb(185,185,185)" />
     <path d="m133.65,92.56l-43.82,9.41l5.5,6.54l46.6,-7.75l-8.28,-8.2z" fill="rgb(116,116,116)" />
     <path d="m57.72,133.99l5,-1.13q2.06,-5.2 12.65,-15.25q-13.77,9.5 -17.65,16.38z"  />
     <path d="m157.07,25.69q6.85,-1.47 14.18,-2.89l2.48,-0.93q-62.19,10.29 -99.61,29.37l12.86,19.73l0,-4.19l-7.94,-14.49q9.22,-5.84 23.25,-11.2l6,13.17l0.72,-1.47l-5.41,-12.2q10.7,-4.01 24.1,-7.74l6.92,11.55l0,-1.85l-5.34,-10.14q12.27,-3.36 26.77,-6.5l5.13,9.78l0.64,-0.91l-4.75,-9.09z"  fill-opacity="0.2" fill-rule="evenodd" />
     <path d="m41.45,111.23l-1.43,-1.14c5.74,-4.08 20.21,-13.8 41.5,-24.45c33.93,-12.37 72.89,-22.82 101.37,-29.97l-0.54,1.54c-28.58,6.33 -67.07,16.88 -99.97,30.26c-20.86,9.12 -35.13,18.62 -40.93,23.76z"  />
     <path d="m78.05,43.14c38.57,-17.38 74.06,-28.1 106.43,-32.18l-2.29,0q-46.91,4.96 -106.56,32.18l2.42,0z"  />
     <path d="m65.69,56.32l-0.29,1.78c6.31,13.2 13.16,24.74 20.56,34.6l0,-1.79c-6.85,-9.1 -13.6,-20.62 -20.27,-34.59z"  />
     <path d="m48.05,98.37c3,-2.1 6.86,-4.21 11.27,-6.23l0,0l-22.12,-31.18c-3.69,1.84 -7.62,4.73 -11.74,8.66l22.59,28.75zm-1.22,0.89c-1.28,0.98 -2.36,1.95 -3.22,2.92c-7.12,-8.44 -15.94,-17.28 -24.97,-25.29c1.95,-2.29 3.87,-4.36 5.74,-6.22l22.45,28.59zm14.5,-8.02c3.8,-1.66 7.95,-3.26 12.27,-4.73c-8.98,-8.01 -15.34,-16.76 -20.64,-26.29c-4.03,-2.21 -8.72,-2.24 -13.92,-0.1l22.29,31.12l0,0z"  fill-rule="evenodd" />
     <path d="m211.85,99.05l15.34,34.2l18.16,0.88c11.82,-8.26 22.09,-25.99 30.78,-53.2c-18.33,-29.02 -44.54,-54.94 -78.66,-77.77c-31.73,-0.37 -58.02,4.69 -62.44,6.22c-72.26,28.74 -110.38,40.18 -123.83,53.4l7.1,-3.27c0.68,-1.4 4.93,-3.71 12.33,-6.96c18.36,-8.06 56.08,-21.87 106.62,-41.59c10.27,-2.75 30.94,-5.86 60.07,-4.46c33.88,20.66 57.37,47.1 72.39,74.43c-5.26,20.04 -13.51,37.29 -25.83,48.02c-9.45,-3.71 -20.12,-13.67 -32.03,-29.9z"  />
     <path d="m173.73,79.48l10.75,-12.75c7.83,24.62 3.74,51.69 3.83,80.23l-2.94,-0.49l-11.64,-66.99z"  />
     <g  transform="translate(-341 -72) matrix(1 0 0 1 161.093 8.775)">
      <path d="m310.83,187.64q-2.16,2.68 -4.15,3.56q0.87,6.57 5.29,10.52l10.31,-9.29l-11.45,-4.79z"  />
      <path d="m308.29,191.72q2.24,-0.9 3.68,-3.36l5.11,10.1l-3.47,2.25q-4.11,-2.67 -5.32,-8.99z" fill="rgb(116,116,116)" />
      <path d="m312.6,188.36l9.68,4.07l-4.91,5.35q-4.29,-2.87 -4.77,-9.42z"  />
     </g>
     <path d="m178.68,73.43l-18.21,-5.05c-3.67,11.78 -18.31,30.28 -43.93,55.49c12.27,1.67 27.44,8.12 45.5,19.34l19.78,-26.25l-8.09,-37.48l4.95,-6.05z"  />
     <path d="m176.25,76.07l-12.92,-3.78l9.57,34.13l7.73,1.74l-7.73,-28.68l3.35,-3.41z" fill="rgb(116,116,116)" />
     <path d="m160.47,75.32l14.87,49.81l10.24,9.26l2.24,12.51l-10.29,-0.67l-25.19,-10.18c-6.86,-5.57 -14.03,-9.32 -27.81,-14.7c13.9,-13.73 25.88,-29.07 35.94,-46.03z" fill="rgb(185,185,185)" />
     <path d="m189.65,146.56q4.26,-46.7 -3.06,-79.75l-2.94,0.73q8.78,30.69 2.92,79.74l3.08,-0.72z"  />
     <path d="m192.41,57.71l1.32,-0.91c14.61,3.07 29.23,8.3 43.85,15.65l-1.31,0c-14.62,-7.21 -29.24,-12.12 -43.86,-14.74z"  />
     <path d="m171.34,79.17c4.04,-3.83 7.89,-8.86 11.55,-15.13c28.08,2.49 51.18,11.98 69.26,28.46c-25.89,-15.88 -48.73,-23.92 -68.5,-24.12c-3.34,4.5 -6.11,8.1 -8.31,10.79c2.98,7.45 4.95,15.45 5.92,23.97l-5.43,-1.52c0.07,-6.07 -1.42,-13.55 -4.49,-22.45z"  />
     <g  transform="translate(-341 -72) matrix(1 0 0 1 161.093 8.775)">
      <path d="m354.36,187.75c-10.64,-6.19 -16.32,-19.57 -17.02,-29.85c3.56,-1.01 7.47,-4.1 10.62,-7.77c5.48,-3.61 14.95,4.88 19.56,18.74c3.19,9.58 1.07,14.99 -3.73,15.42q-6.91,1.41 -9.43,3.46z"  />
      <path d="m356.51,184.54c-6.89,-6.84 -13.79,-17.79 -11.93,-29.04c-1.71,2.34 -3.56,3.75 -5.57,4.19c1.36,10.09 6.1,18.7 14.21,25.82l3.29,-0.97z" fill="rgb(116,116,116)" />
      <path d="m359.93,170.68l4.78,5.54l-1.36,2.17l-4.07,-6.41l0.65,-1.3z"  />
      <g >
       <path d="m349.82,171.68c-4.13,-8.12 -4.57,-16.59 -0.98,-18.89c3.59,-2.31 9.86,2.41 13.99,10.53c4.13,8.12 4.57,16.59 0.98,18.89c-3.59,2.31 -9.86,-2.41 -13.99,-10.53z" fill="rgb(70,70,70)" />
       <path d="m358.31,161.59c0.02,0.01 1.02,-0.76 1.12,-0.85c-3.07,-4.28 -6.76,-6.44 -9.07,-4.96c-2.86,1.84 -2.5,8.58 0.79,15.05c2.86,5.64 7.02,9.21 9.94,8.83c-2.61,-0.29 -5.98,-3.41 -8.4,-8.11c-3.4,-10.51 0.13,-15.19 5.62,-9.96z"  />
       <path d="m358.94,172.81l0,0l2.67,3.12l0,0l0,0l0,0l0,0c-0.19,0.71 -0.49,1.29 -0.89,1.71l-2.18,-4.6l0.4,-0.23zm-1.63,0.97l0.91,4.48c0.6,0.16 1.16,0.15 1.67,-0.05l0,0l0,0l0,0l0,0l-2.22,-4.65l-0.36,0.22zm-1.79,-0.85l-0.52,3.2c0.68,0.69 1.35,1.24 2.01,1.62l0,0l0,0l0,0l-0.87,-4.26c-0.21,-0.17 -0.42,-0.36 -0.62,-0.56zm-1.77,-2.24l-1.55,0.62c0.56,1.06 0.97,2.22 1.61,3.05l0.64,-2.37c-0.17,-0.27 -0.55,-1.01 -0.7,-1.3zm6.32,-1.74l1.22,0.52c-0.28,-1.08 -0.65,-2.2 -1.12,-3.32l0,0l0,0l0,0l0,0l0,0l-0.74,0.51c0.31,0.79 0.52,1.57 0.64,2.29l0,0zm-0.3,3.04l2.08,2.43c0.06,-0.88 0.01,-1.86 -0.14,-2.9l0,0l0,0l0,0l0,0l0,0l-1.57,-0.67c-0.06,0.46 -0.18,0.85 -0.37,1.14l0,0z"  fill-rule="evenodd" />
      </g>
     </g>
     <path d="m183.65,52.72l0.83,-1.47c0.87,2.32 1.45,4.21 1.72,5.64l1.03,-9.47l0.59,-0.29c0.05,3.66 0.38,7.51 0.98,11.52l-0.49,0.34c-0.47,-2.41 -0.75,-4.49 -0.84,-6.27l-0.88,7.01l-0.39,0.33c-0.66,-2.94 -1.51,-5.38 -2.55,-7.34z"  />
     <path d="m205.77,91.4c7.14,-2.82 20.56,-6.88 42.33,-1.82l1,0.62c-24.69,-4.72 -38.36,-1.19 -42.36,1.8l-0.97,-0.6z"  />
     <path d="m200.89,85.82l1.43,1.65c6.75,15.87 10.52,40.68 10.18,56.34l-1.4,0c0.68,-14.33 -2.56,-40.03 -10.21,-57.99z"  />
     <path d="m242.46,72.07c1.64,2.89 4.35,5.42 8.14,7.41l-1.5,-0.31c-3.56,-1.92 -6.03,-4.21 -7.44,-6.88l0.8,-0.22z"  />
     <path d="m253.94,80.81c-6.39,0.7 -8.04,3.84 -4.96,9.39l-0.89,-0.59c-2.94,-5.26 -1.25,-8.43 5.06,-9.25l0.79,0.45z"  />
     <path d="m187.12,137.57l-3.47,-7.05l-4.97,11.29l-1.15,5.15l7.84,0.32l-3.55,-4.95l5.65,-1.84l-0.35,-2.92z"  />
     <path d="m177.65,141.48c-0.84,-2.61 -0.18,-5.16 1.49,-5.7c1.66,-0.53 3.69,1.15 4.53,3.76c0.84,2.61 0.17,5.16 -1.49,5.7c-1.66,0.53 -3.69,-1.15 -4.53,-3.76z"  />
     <path d="m226.04,76.07c7.02,-3.44 15.32,-5.14 24.89,-5.1c-11.02,1.66 -18.23,4.03 -21.66,7.08l-3.23,-1.98z"  />
     <path d="m228.85,76.07c12.57,0.27 22.54,2.47 29.89,6.6c-9.64,-3.81 -19.46,-5.34 -29.47,-4.62l-0.42,-1.98z"  />
     <path d="m197.32,82.67l-0.96,-3.5c22.33,26.7 33.95,46.7 34.83,59.98l-6.14,1.34c-0.99,-16.25 -8.51,-34.22 -27.73,-57.82z"  />
     <g  transform="translate(-341 -72) matrix(1 0 0 1 161.093 8.775)">
      <path d="m223.28,188.82c6.86,3.74 13,6.01 18.39,6.8l0,5.2q-5.04,5.15 -7.13,5.09q-3,-0.07 -7.74,-2.56c-0.26,-3.22 -1.11,-7.76 -3.52,-14.53z"  />
      <path d="m225.54,191.22c5.02,2.19 9.79,3.94 14.28,5.25c-1.55,1.84 -4.43,4.63 -5.11,4.67c-2.38,0.11 -5.55,-1.8 -8.35,-3.39l0,-0.89l5.54,2.34l3.48,-3.15c-1.83,-0.87 -5.11,-2.16 -9.84,-3.88l0,-0.95l0,0zm14.36,6.77l0.11,3.29c-3.28,3.93 -6.06,3.93 -7.35,3.25l-1.93,-3.64q3.06,1.47 4.03,1.23q0.83,-0.21 5.14,-4.13l0,0zm-5.06,0.01c0.56,-0.46 1.19,-0.64 1.42,-0.4c0.22,0.25 -0.05,0.83 -0.61,1.29c-0.56,0.47 -1.2,0.64 -1.42,0.4c-0.23,-0.25 0.05,-0.82 0.61,-1.29z" fill="rgb(232,232,232)" fill-rule="evenodd" />
     </g>
     <g  transform="translate(-341 -72) matrix(1 0 0 1 161.093 8.775)">
      <path d="m324.38,184.13c-4.79,-0.06 -8.41,0.45 -10.89,1.5c-4.3,-4.69 -9.64,-18.59 -8.29,-30.79c3.47,-1.18 5.6,-2.43 9.63,-4.67c9.99,6.96 14.75,26.83 9.55,33.96z"  />
      <path d="m311.16,151.25c-1.58,1.72 -3.11,2.85 -4.6,3.37c-0.59,16.85 4.64,24.09 8,28.79c0.96,-0.29 2.25,-0.46 3.85,-0.53c-4.52,-3.94 -9.27,-21.03 -7.25,-31.63z" fill="rgb(116,116,116)" />
      <path d="m319.92,162.76q-3.11,-8.95 -4.74,-10.02c-3.42,-2.24 -4.07,7.6 0.99,21.36q-2.31,-13.98 -0.99,-16.19q0.96,-1.59 4.74,4.85z"  />
      <path d="m317.97,176.55c0.88,2.24 2.16,3.75 3.13,4.25c2.72,1.39 3.78,-4.04 0,-14.31q1.93,11.74 -0.34,12.14c-1.18,0.21 -2.03,-0.82 -2.79,-2.08z"  />
      <g >
       <path d="m313.81,168.99c-2.58,-8.74 -2.7,-16.64 -0.25,-17.65c2.45,-1 6.55,5.28 9.13,14.01c2.59,8.74 2.7,16.65 0.25,17.65c-2.45,1.01 -6.54,-5.27 -9.13,-14.01z" fill="rgb(70,70,70)" />
       <path d="m319.17,164.22c0.02,0.02 1.23,-2.24 1.31,-2.29c-1.96,-4.88 -4.39,-8.01 -5.96,-7.36c-1.95,0.8 -1.86,7.09 0.2,14.05c1.79,6.06 4.5,10.64 6.46,11.19c-1.74,-1.07 -3.93,-4.99 -5.44,-10.05c-2.05,-10.71 -0.12,-12.04 3.43,-5.54z"  />
       <path d="m316.22,172.14l0.24,-0.99c-0.1,-0.3 -0.34,-1.1 -0.44,-1.4l-0.66,0.05l0.86,2.34l0,0zm1.67,3.76l-0.33,-2.85c-0.14,-0.22 -0.27,-0.46 -0.41,-0.71l-0.23,1.6l0.97,1.96l0,0zm1.55,-2.61l0,0l1.72,3.7l0,0l0,0l0,0l0,0c-0.14,0.59 -0.35,1.03 -0.62,1.29l-1.37,-4.89l0.27,-0.1zm-1.11,0.39l0.44,3.72q0.85,1.18 1.19,1.15l0,0l0,0l0,0l0,0l-1.38,-4.96l-0.25,0.09zm1.96,-3.57l0.8,0.86c-0.16,-1.08 -0.39,-2.23 -0.68,-3.4l0,0l0,0l0,0l0,0l0,0l-0.51,0.24c0.2,0.81 0.32,1.6 0.39,2.3l0,0zm-0.27,2.69l1.34,2.88c0.06,-0.79 0.04,-1.7 -0.04,-2.71l0,0l0,0l0,0l0,0l0,0l-1.03,-1.1c-0.05,0.41 -0.14,0.72 -0.27,0.93l0,0z"  fill-rule="evenodd" />
      </g>
     </g>
     <g  transform="translate(-341 -72) matrix(1 0 0 1 161.093 8.775)">
      <path d="m294.12,154.56c4.39,8.96 10.93,16.91 19.6,23.85c-5.98,8.74 -14.01,14.47 -24.11,17.18l-5.52,-5.51c1.12,-3.02 1.85,-4.94 5.52,-8.02l-1.98,-0.13l-1.39,-11.38c-0.63,-4.44 2.3,-10.8 7.88,-15.99z"  />
      <path d="m293.69,158.08c4.44,6.57 10.06,14.72 17.49,20.22q-7.82,1.33 -11.67,0.44c-9.38,-2.17 -16.04,-12.05 -5.82,-20.66z" fill="rgb(70,70,70)" />
      <path d="m287.63,171.9l1.54,8.39c2.07,2.21 9.05,2.53 15.27,0.55c-1.38,0.99 -2.84,1.6 -4.41,1.84c0.28,1.39 2.1,1.79 5.46,1.19l-4.71,1c-3.35,3.61 -7.93,5.77 -13.74,6.44l3.39,3.02c8.21,-2.55 15.14,-7.48 20.75,-14.78c-11.54,1.46 -20.21,-1.71 -23.55,-7.65z" fill="rgb(116,116,116)" />
      <path d="m290.65,182.31c2.05,0.98 4.72,1.26 7.98,0.83c0.22,0.8 0.52,1.42 0.91,1.85c-1.45,1.08 -3.38,2.21 -5.81,3.35l-3.08,-6.03z"  />
      <g >
       <path d="m284.63,194.61c-0.93,-3.76 -2.84,-6.62 -5.74,-8.6l-3.76,-0.16l-0.03,-1.09c0.22,-1.15 -0.26,-2.18 -1.44,-3.09c1.26,-3.41 5.02,-6.18 11.27,-8.33c1.41,0.12 2.84,0.25 3.19,0.79l0.82,7.53l3.05,1.05l3.86,5.74c2.27,2.04 -6.97,6.68 -11.22,6.16z"  />
       <path d="m291.33,183.67l-2.97,-0.79l-1.47,-6.05c-3.35,-1.06 -7.43,2.18 -9.28,6.34c3.73,3.16 6.05,5.95 6.94,8.37c3.48,-3.28 6.54,-4.44 9.16,-3.5l-2.38,-4.37z" fill="rgb(232,232,232)" />
       <path d="m286.4,183.97c-0.53,-1.65 0.11,-3.33 1.44,-3.76c0.2,-0.07 0.4,-0.1 0.6,-0.11q0.26,0 0.57,2.97q1.47,0.24 2.02,0.37c0.11,0.75 0,1.45 0.06,1.53c-0.26,0.68 -0.65,0.98 -1.31,1.2c-1.33,0.43 -2.84,-0.56 -3.38,-2.2z" fill="rgb(0,118,0)"  stroke="rgb(0,0,0)" stroke-linecap="square" stroke-miterlimit="3"/>
       <path d="m286.91,176.49l1.11,7.16l4.89,1.28l-0.93,-2.02l-2.68,-1.06l-1.35,-5.2l-1.04,-0.16z"  />
       <path d="m292.98,188.93c-2.27,-0.23 -4.56,0.74 -6.89,2.89c3.63,0.34 5.94,-0.61 6.89,-2.89z" fill="rgb(70,70,70)" />
       <path d="m285.64,193.73c2.16,0.12 5.97,-1.33 7.01,-2.09c2.39,-1.56 2.84,-2.26 1.09,-2.57c-0.66,1.56 -3.23,3.68 -7.76,3.21l-0.34,1.45z" fill="rgb(116,116,116)" />
      </g>
      <path d="m280.55,176.11q-3.01,-3.53 -3.62,-6.33q-0.1,-0.47 5.03,-3.55c0.42,0.34 0.55,0.73 0.39,1.15q-4.22,2.06 -4.31,2.4q-0.41,1.57 4.67,6.43l-2.16,-0.1z"  />
      <path d="m296.66,160.97q0.36,-0.31 -1.49,-1.63c-8.09,8.13 -4.12,17.82 7.2,17.58q-7.21,-0.83 -9.62,-5.94c-1.69,-3.61 0.38,-8.26 3.91,-10.01z"  />
      <path d="m293.14,163.43l3.78,2.3l-0.68,1.95l-4.33,-0.77l1.23,-3.48z"  />
      <path d="m291.91,169.74l3.49,0l0.45,1.27l-2.91,1.6l-1.03,-2.87z"  />
      <path d="m294.94,174.38l1.8,-1.5l1.3,1l-0.76,1.85l-2.34,-1.35z"  />
     </g>
     <path d="m29.33,137.57l-2.45,-1.08c3.79,-19.23 10.91,-11.95 11.58,1.78q-1.82,-7.15 -4.67,-8.39q-2.84,-1.23 -4.46,7.69z"  />
     <path d="m37.9,136.07l-1.16,0l-0.4,-1.77l0.97,-1.65l0.59,3.42z"  />
     <path d="m34.72,132.86l1.15,-2.34l-1.56,-1.57l-0.52,3.33l0.93,0.58z"  />
     <path d="m31.99,129.37l0.5,3.28l-0.97,1.08l-2.03,-0.51l2.5,-3.85z"  />
     <g  transform="translate(-341 -72) matrix(1 0 0 1 161.093 8.775)">
      <path d="m336.67,192.18c8.15,-1.96 15.53,-5.95 22.14,-11.99c8.29,4.77 13.42,11.3 15.37,19.58l-4.62,4.39l-5.95,-8.5q-1.79,8.64 -2.6,9.43c-2.8,0.62 -5.48,0.65 -7.11,1.35c-8.73,-3.71 -14.47,-8.46 -17.23,-14.26z"  />
      <path d="m340.38,193.22c5.57,-1.94 11.41,-5.03 17.52,-9.3c1.06,5.31 0.91,11.68 0.48,13.44c-2.29,9.45 -10.89,10.45 -18,-4.14z" fill="rgb(116,116,116)" />
      <path d="m360.08,183.12c6.8,5.2 10.94,10.4 12.4,15.6l-3.34,3c-0.8,-3.93 -2.78,-7.49 -5.96,-10.7l-1,-3.3c0.52,6.7 -0.02,11.94 -1.65,15.7l-4.24,0.9c3,-0.54 4.27,-7.6 3.79,-21.2z" fill="rgb(70,70,70)" />
      <path d="m345.05,190.47l-2.95,1.13c5.11,14.74 13.63,14.87 15.44,0.23q-1.95,8.8 -6.49,9.13q-3.21,0.23 -6,-10.49z"  />
      <path d="m345.27,192.68l1.86,-0.85l0.55,2.58l-1.67,1.93l-0.74,-3.66z"  />
      <path d="m348.39,196.34l1.53,1.27l-0.27,3.96l-2.71,-2.62l1.45,-2.61z"  />
      <path d="m352.99,197.96l-1.19,0.11l-0.39,3.65l2.03,-0.92l-0.45,-2.84z"  />
      <path d="m354.7,197.11l0.94,-1.92l0.91,0.88l-1.11,2.3l-0.74,-1.26z"  />
     </g>
     <g  transform="translate(-341 -72) matrix(1 0 0 1 161.093 8.775)">
      <path d="m363.31,190.82c2.57,1.92 4.82,5.23 6.02,9.28c1.07,3.64 1.11,7.2 0.28,10.03l-3.95,0c0.72,-2.1 0.72,-5.01 -0.17,-8.01c-0.54,-1.86 -1.36,-3.5 -2.31,-4.82l0.13,-6.48z"  />
      <path d="m363.56,192.6c4.56,3.37 6.36,8.83 5.48,17.19l-2.11,0c0.63,-6.09 -0.49,-10.84 -3.37,-14.28l0,-2.91z" fill="rgb(98,61,5)" />
     </g>
     <g  transform="translate(-341 -72) matrix(1 0 0 1 161.093 8.775)">
      <path d="m325.78,200.49c-0.18,5.01 -1.47,10.41 -3.94,14.57c-2.8,-0.05 -5.46,0.46 -7.99,1.5c-5.4,-0.1 -9.31,-4.23 -11.75,-11.47c7.56,-4.65 13.98,-9.9 19.22,-16.73c4.02,1.93 9.24,6.11 13.6,10.65c0.39,0.4 -9.12,0.91 -9.14,1.48z"  />
      <path d="m304.94,205.09c5.92,-2.72 11.01,-7.78 15.56,-13.57c-0.33,6.18 -1.54,15.24 -2.58,17.86c-3.63,9.15 -9.71,7.2 -12.98,-4.29z" fill="rgb(116,116,116)" />
      <path d="m309.21,201.7l-2.91,1.58c1.99,12.98 8.14,14.24 11.15,2.26q-3.31,7.74 -6.4,5.61c-1.49,-1.02 -2.76,-7.08 -1.84,-9.45z"  />
      <path d="m308.47,205.09l1.85,-0.85l0.56,2.58l-1.67,1.93l-0.74,-3.66z"  />
      <path d="m311.48,208.2l1.5,0.55l0.23,3.96l-2.66,-0.75l0.93,-3.76z"  />
      <path d="m314.14,208.45l1.34,-1.12l0.9,0.87l-1.48,2.65l-0.76,-2.4z"  />
      <path d="m321.81,190.82q5.96,2.28 10.86,8.19l-6.73,0.54l-0.42,-4.69l-0.78,4.54l-1.3,-2.92c1.52,6.08 0.91,11.71 -1.85,16.87l-5.54,1.25c3.72,-2.33 4.77,-10.57 5.76,-23.78z" fill="rgb(70,70,70)" />
     </g>
     <path d="m227.56,45.51c3.3,2.32 6.33,4.58 9.07,6.75l0.85,-1.21c-5.28,-4.33 -11.85,-8.97 -19.67,-13.88l0,0l0,0l0,0l-0.85,1.2c3.34,2.16 6.48,4.25 9.4,6.29l-2.96,4.19l1.2,0.85l2.96,-4.19zm-0.7,-7.29c-7.58,-4.45 -14.73,-5.71 -16.86,-2.7l0,0l0,0l0,0c-2.45,3.47 2.65,11.29 11.38,17.46c8.73,6.16 17.81,8.35 20.26,4.88c2.08,-2.94 -1.29,-9.03 -7.69,-14.57c0.72,1.38 -0.91,1.5 -1.73,0.15c2.23,1.57 0.89,-1.2 -5.36,-5.22l0,0zm0.36,-0.59c-8.37,-4.99 -16.31,-6.44 -18.66,-3.12l0,0l0,0c-2.66,3.77 2.91,12.29 12.43,19.02c9.53,6.73 19.43,9.12 22.09,5.35c2.36,-3.34 -1.74,-10.41 -9.32,-16.65l0,0l-0.04,-0.03c-0.59,-0.49 -1.2,-0.97 -1.84,-1.45l-7.97,-6.25l0.46,0.74l2.85,2.39l0,0l0,0z"  fill-opacity="0.2" fill-rule="evenodd" />
     <g  transform="translate(-341 -72) matrix(1 0 0 1 161.093 8.775)">
      <path d="m431.25,225.29l-139.71,6.75l-7.51,7.11l4.58,7.59l48.27,7.66l71.68,-1.51l21.04,-9.38l1.65,-18.22z" fill="rgb(235,235,235)" />
      <path d="m320.5,257.1l75.51,-4.21l63.67,2.55c-53.73,5.5 -111.65,9.1 -173.79,10.81l22.57,-5.73l12.04,-3.42z"  />
      <path d="m322.52,256.75c3.22,7.68 29.54,5.03 30.1,-1.37c4.55,-7.89 3,-13.96 -4.67,-18.23c-0.56,13.92 -14.2,17.91 -22.86,6.83c-2.9,4.45 -3.75,8.71 -2.57,12.77z"  />
      <path d="m349.66,250.58c-7.23,10.49 -33.99,1.19 -25.2,-12.09c1.72,14.6 16.97,15.53 21.36,5.65l3.84,6.44z" fill="rgb(139,139,139)" />
      <path d="m348.23,236.79c0.29,1.03 0.45,2.09 0.45,3.17c0,1.66 -0.4,3.3 -1.15,4.78c-0.73,1.42 -1.74,2.68 -2.97,3.7c-1.23,1.02 -2.62,1.82 -4.13,2.37c-1.5,0.56 -3.09,0.84 -4.69,0.85c-1.13,0 -2.26,-0.16 -3.36,-0.47c-1.11,-0.31 -2.17,-0.81 -3.13,-1.45c-1.02,-0.7 -1.93,-1.56 -2.67,-2.55c-0.94,-1.25 -1.65,-2.66 -2.11,-4.16c0.47,-0.74 2.78,-0.17 2.45,0.3c0.36,0.91 0.84,1.76 1.43,2.54c0.59,0.79 1.31,1.48 2.13,2.04c0.77,0.52 1.62,0.91 2.51,1.16c0.89,0.26 1.81,0.39 2.74,0.38c1.35,0 2.69,-0.24 3.95,-0.71c1.26,-0.46 2.44,-1.13 3.47,-2c1,-0.82 1.83,-1.85 2.42,-3c0.59,-1.18 0.91,-2.47 0.91,-3.78c-0.01,-0.6 -0.06,-1.2 -0.18,-1.79c-0.29,-0.18 1.46,-1.69 1.93,-1.38z"  />
      <path d="m405.41,252.94c-3.93,2.41 -8.62,3.81 -13.65,3.81c-12.85,0 -23.45,-9.13 -24.88,-20.89l25.63,-0.32q19.17,13.55 12.9,17.4z"  />
      <path d="m433.5,235.24c-1.12,12.06 -11.87,21.51 -24.94,21.51c-12.85,0 -23.46,-9.13 -24.88,-20.89l12.44,2.63c7.6,10.94 21.03,6.83 24.42,-6.45l12.96,3.2l0,0z"  />
      <path d="m417.28,239.33l3.26,5.49c-7.23,10.49 -33.37,1.21 -25.2,-12.09c0.08,13 14.78,15.61 21.94,6.6z" fill="rgb(139,139,139)" />
      <path d="m421.53,232.04c-0.15,1.41 -0.5,2.8 -1.02,4.12c-0.72,1.8 -1.77,3.46 -3.1,4.88c-1.31,1.4 -2.88,2.52 -4.63,3.31c-1.79,0.8 -3.73,1.22 -5.69,1.22c-1.7,0 -3.38,-0.32 -4.97,-0.93c-1.55,-0.6 -2.98,-1.46 -4.23,-2.54c-1.25,-1.09 -2.31,-2.37 -3.15,-3.79l1.38,-2.07c0.16,0.31 0.32,0.61 0.49,0.91c0.72,1.24 1.64,2.34 2.72,3.28c1.06,0.92 2.27,1.65 3.58,2.16c1.33,0.51 2.76,0.78 4.18,0.78c1.65,0 3.28,-0.35 4.78,-1.03c1.48,-0.67 2.82,-1.62 3.93,-2.81c1.14,-1.21 2.05,-2.64 2.66,-4.19c0.55,-1.39 0.88,-2.85 0.96,-4.34l2.11,1.04l0,0z"  />
      <path d="m287.77,230.2c5.9,2.99 6.18,9.93 1.65,13.31c-1.2,0.13 -1.67,0.27 -2.97,-0.67q-1.85,1.19 -3.13,3.79c-0.81,5.25 2.59,8.38 10.16,9.38l29.04,0.74c-4.18,-19.35 29.07,-28.46 32.33,-10.34l-1.6,8.76l38.38,-3.46c-1.98,-27.33 37.83,-30.94 34.55,-5.08l13.96,-2.16c1.75,-9.49 1.76,-16.92 0,-22.32c-5.39,-13.93 -13.22,-23.72 -31.38,-24.71c-0.63,0.25 1.11,4.78 0.47,5.03c-16.8,6.55 -37.87,7.61 -51.71,7.58l0,-8.13c-7.38,-3.79 -18.54,-4.17 -33.48,-1.14q-0.03,0.01 -2.41,0.59l-11.94,27.97c2.9,0.91 4.96,2.37 6.16,4.38c1.36,5.45 0.37,8.9 -2.98,10.32l-5.13,-1.77c-2.49,-2.07 -3.31,-4.43 -2.49,-7.09l4.43,-5.28l12.76,-28.72l-2.05,0.39l-3.53,10.7c-7.82,3.15 -13.65,7.23 -17.52,12.22c-4.19,1.31 -8.05,3.21 -11.57,5.71z" fill="rgb(96,125,139)" />
      <path d="m295.08,256.75c3.22,7.68 29.54,5.03 30.09,-1.37l-3.76,1.3l-26.33,0.07z"  />
      <path d="m304.35,236.52l4.73,-1.05c-0.45,5.16 0.7,8 3.42,8.51l-3.26,-0.96c-2.28,-1.3 -3.9,-3.46 -4.89,-6.5z" fill="rgb(70,70,70)" />
      <path d="m305.06,236.16l5.34,-6.24c4.08,0.88 6.1,3.46 6.06,7.73c-4.87,-2.78 -8.8,-2.59 -11.4,-1.49z" fill="rgb(139,139,139)" />
      <path d="m282.13,235.72l5.05,-5.38c3.96,0.88 4.88,4.61 4.84,8.88c-1.39,-4.87 -7.62,-4.6 -9.89,-3.5z" fill="rgb(139,139,139)" />
      <path d="m281.12,236.52c2.15,-0.95 3.73,-1.29 4.72,-1.05c-0.44,5.16 0.71,8 3.43,8.51l-2.09,-0.63l-0.95,-0.66c-2.53,-1.7 -4.23,-3.75 -5.11,-6.17z" fill="rgb(70,70,70)" />
      <path d="m443.77,241.2l-0.82,6.02q-9.22,2.74 -17.9,2.47c4.79,-31.36 -38.19,-20.07 -31.4,3.28l-42.4,3.04c14.33,-27.84 -35.56,-21.09 -26.69,1.31c-4.26,3.29 -36.23,0.88 -40.18,-1.94c-4.37,-3.11 -4.56,-7.34 0.71,-11.4c-2.59,4.97 -0.43,8.13 3.07,9.33c3.13,1.07 15.35,2.75 31.84,2.07c-1.77,-23.5 43.44,-30.33 35.25,-1.99l33.54,-2.81c1.43,-22.94 37.66,-33.63 39.24,-6.44q6.9,0.57 14.02,-3.77l1.72,0.83z"  />
      <path d="m412.35,202.7q-33.17,9.6 -57.02,8.67c0.95,-3.43 1.1,-7.03 0.41,-8.06c-0.39,-3.35 -13.47,-5.65 -34.45,-1.39l-3.41,10.35l-3.01,0.7l4.43,-11.83c23.96,-5.09 38.21,-2.56 39.2,0.83q1.84,2.54 0.38,7.03q18.16,1.69 54.74,-8.12l-1.27,1.82z"  />
      <path d="m406.18,198.69c16.23,-2.12 41.01,11.99 33.12,44.44l3.04,-0.12c3.77,-27.05 -8.64,-43.43 -33.78,-47.54l-2.38,3.22l0,0z"  />
      <path d="m380.32,238.41c8.89,-41.62 60.38,-36.43 55.88,0.74c7.26,-43.21 -55.69,-39.77 -55.88,-0.74z"  />
      <path d="m299.34,225.29c-7.83,2.11 -13.42,5.86 -16.77,11.23q0.89,4.31 3.67,6.17q-4.13,-2.47 -6.12,-6.75c5.42,-7.73 12.05,-12.12 19.88,-13.16l-0.66,2.51z"  />
      <path d="m320.39,211.74c-27.38,4 -33.07,33.98 -16.48,33.98c-15.73,-4.74 -3.82,-29.6 16.48,-33.98l0,0z"  />
      <path d="m327.56,210.8c-2.72,0.26 -5.48,0.63 -8.26,1.13l2.76,-7.7c3.55,-1.03 6.85,-1.7 9.87,-2.09q-1.12,4.4 -4.37,8.66zm2.28,-0.19c7.03,-0.48 13.7,-0.12 19.41,1.18q3.43,-7.95 2.06,-8.38c-3.76,-1.17 -9.74,-2.28 -17.79,-1.46q-1.15,4.48 -3.68,8.66z"  fill-rule="evenodd" />
      <path d="m305.89,235.32c5.21,-1.19 8.87,-0.12 10.97,3.17l0,1.1c-2.36,-3.03 -5.7,-4.91 -11.3,-2.74l0.33,-1.53z"  />
      <path d="m283.32,234.93c4.56,-1.19 6.89,-0.02 8.73,3.28l0,1.1c-2.07,-3.03 -4.58,-5 -9.48,-2.83l0.75,-1.55z"  />
      <path d="m308.85,235.47c-0.11,0.62 -0.16,1.28 -0.16,1.96c0,3.88 1.89,7.04 4.23,7.04c2.34,0 4.24,-3.16 4.24,-7.04c0,-3.89 -2.06,-7.79 -6,-7.69c-0.67,0 -1.3,0.26 -1.86,0.72l0,0c-0.08,0.07 -0.15,0.13 -0.22,0.2l0.45,0.6c0.02,-0.02 0.04,-0.03 0.06,-0.04l0,0c0.35,-0.28 0.74,-0.43 1.15,-0.43c3.09,0.12 4.94,3.36 4.94,6.69c0,3.33 -1.43,6.03 -3.18,6.03c-1.75,0 -3.18,-2.7 -3.18,-6.03c0,-0.71 0.07,-1.38 0.18,-2.01l-0.65,0z" fill="none" />
      <path d="m285.24,235.14c-0.1,0.62 -0.15,1.28 -0.15,1.96c0,3.89 1.75,7.04 3.91,7.04c2.15,0 3.9,-3.15 3.9,-7.04c0,-3.88 -2.58,-6.9 -4.74,-6.9c-0.61,0 -1.2,0.25 -1.71,0.72l0,0c-0.07,0.06 -0.14,0.13 -0.21,0.2l0.42,0.6c0.02,-0.02 0.03,-0.03 0.05,-0.04l0,0c0.33,-0.28 0.69,-0.43 1.06,-0.43c1.62,0 3.77,2.57 3.77,5.9c0,3.33 -1.32,6.04 -2.93,6.04c-1.62,0 -2.93,-2.71 -2.93,-6.04c0,-0.7 0.06,-1.38 0.16,-2.01l-0.6,0z" fill="none" />
      <path d="m303.11,236.27c17.81,-27.18 63.57,-22.9 58.83,9.66l13.52,-1.95l1.92,1.74l-17.36,2.12c4.24,-33.86 -35.45,-37.73 -54.46,-10.99c-0.15,2.02 1.3,4.13 3.67,6.17q-3.27,-0.57 -6.12,-6.75z"  />
     </g>
    </g>

    <g id="green_T">

     <path d="m91.98,256.51c23.65,-17.1 53.46,-35.48 89.36,-51.73c68.96,-27.84 162.65,-54.37 240.09,-72.71c52.73,11.59 91.25,24.75 115.52,39.46l10.9,-1.86c4.03,6.85 9.27,12.18 15.69,15.96l10.11,2.92c-13.4,2.24 -17.65,9.34 -12.77,21.28c-42.05,-7.93 -73.69,-5.97 -94.94,5.85l-8.25,-11.97c15.49,48.5 22.77,91.39 21.81,128.66l-53.56,8.13c-1.04,-56.41 8.33,-119.11 -6.68,-183.03l-19.78,17.72l-33.24,-8.88l-21.01,28.97l-147.63,34.35l-89.56,50.31l-16.06,-23.43z" 
     fill="hsla(0,90%,20%,0.5)" />

     <g  transform="matrix(1 0 0 1 -575.81 -763.05)">
      <path d="m729.52,1052.84c7.6,11.02 18.03,20.14 31.26,27.36c6.12,-5.74 11.68,-10.14 20.4,-15.74c-0.07,-12.92 -5.13,-25.01 -15.2,-36.28c-18.24,5.5 -29.13,12.9 -36.46,24.66z"  />
      <path d="m762.75,1029.84c8.51,10.99 13.05,20.83 14,25.06c3.92,17.44 -13.83,11.41 -34.13,-14.69c7.08,-4.44 13.79,-7.89 20.13,-10.37z"  />
      <path d="m739.85,1043.85l-7.8,7.61c7.2,10.46 16.36,18.76 27.47,24.88l10.74,-8.02c-12.67,-5.91 -22.8,-14.06 -30.41,-24.47z" fill="rgb(116,116,116)" />
     </g>
     <path d="m52.06,315.84c5.08,-16.37 8.96,-30.21 19.55,-34.86c6.47,0.77 11.92,0.67 16.33,-0.33c7.5,3.83 12.42,15.34 16.75,30.84c32.96,-13.74 52.2,-15.58 54.64,-5.29c0.66,6.73 1.94,12.39 5.27,16.67c-19.45,20.3 -45.81,29.94 -69.93,32.19c-10.31,-24.07 -24.5,-37.13 -42.61,-39.22z"  />
     <path d="m58.28,313.68c13.54,5.41 25.11,14.36 34.66,26.82c-2.76,-24.54 -7.47,-39.27 -11.03,-46.15c-7.63,-14.75 -17.5,-13.63 -23.63,19.33z" fill="rgb(116,116,116)" />
     <path d="m79.28,284.68l8.66,0c9.91,10.77 15.7,29.51 17.34,56.21l1.34,-6.57c2.61,0.93 5.17,5.06 7.63,12.37l-1.38,-8c13.21,-4.71 27.71,-12.75 43.49,-24.13l2.5,7.09c-20.28,18.61 -40.83,28.28 -61.69,28.97c0,-32.03 -5.96,-54 -17.89,-65.94z" fill="rgb(70,70,70)" />
     <path d="m106.62,315.08l0.86,16.39l4.67,5.25c23.92,-11.89 37.76,-21.2 41.5,-27.96c4.83,-8.74 -17.83,-7.67 -47.03,6.32z" fill="rgb(116,116,116)" />
     <path d="m116.59,120.6c-16.51,-25.15 -124.14,32.19 -108.61,56.86c44.12,27.97 65.21,52.69 98.04,104.71l221.23,-56.77l33.22,-46.72l-165.02,40.58l-87.69,52.92c-31.48,-47.21 -56.95,-73.1 -89.68,-97.43c-19.15,-14.13 72.21,-73.84 99.89,-49.76l-1.38,-4.39z"  />
     <path d="m136.21,270.54c-3.75,12.4 -14.3,29.68 -27.52,46.21l38.91,-8.34c10.78,-31.92 49.69,-52.25 100.87,-54.23l42.72,5.93l21.09,-16.2l32.01,-41.64l-106.83,21.17l-40.91,10.86l-60.34,36.24z"  />
     <path d="m139.54,278.15c-3.03,7.58 -10.56,20.43 -18.48,32.92c19.97,-17.1 21.12,-34.97 89.26,-56.07l-10.92,-14.86l-59.86,38.01z" fill="rgb(185,185,185)" />
     <path d="m301.87,216.11l-99.48,21.36l12.49,14.85l105.77,-17.6l-18.78,-18.61z" fill="rgb(116,116,116)" />
     <path d="m129.5,310.17l11.34,-2.57q4.69,-11.81 28.74,-34.62q-31.26,21.55 -40.08,37.19z"  />
     <path d="m92.57,258.49l-3.25,-2.58c13.03,-9.26 45.89,-31.32 94.21,-55.51c77.02,-28.07 165.47,-51.79 230.1,-68.02l-1.22,3.5c-64.87,14.36 -152.24,38.32 -226.92,68.68c-47.37,20.7 -79.76,42.27 -92.92,53.93z"  />
     <path d="m175.65,103.93c87.56,-39.44 168.11,-63.78 241.61,-73.04l-5.21,0q-106.48,11.25 -241.89,73.04l5.49,0z"  />
     <path d="m147.6,133.84l-0.66,4.04c14.31,29.99 29.88,56.18 46.68,78.55l0,-4.06c-15.56,-20.65 -30.89,-46.81 -46.02,-78.53z"  />
     <path d="m107.56,229.3c6.81,-4.77 15.57,-9.56 25.58,-14.15l0,0l-50.21,-70.77c-8.39,4.18 -17.31,10.73 -26.66,19.67l51.29,65.25zm-2.78,2.03c-2.9,2.22 -5.36,4.43 -7.3,6.61c-16.16,-19.15 -36.18,-39.2 -56.68,-57.39c4.42,-5.2 8.77,-9.91 13.03,-14.13l50.95,64.91zm32.91,-18.22c8.64,-3.77 18.06,-7.39 27.87,-10.73c-20.38,-18.17 -34.82,-38.05 -46.85,-59.68c-9.16,-5.01 -19.8,-5.08 -31.6,-0.22l50.58,70.63l0,0z"  fill-rule="evenodd" />
     <path d="m479.39,230.84l34.8,77.65l41.23,2c26.85,-18.75 50.15,-59 69.87,-120.78c-41.6,-65.88 -101.11,-124.71 -178.56,-176.52c-72.01,-0.86 -131.7,10.63 -141.72,14.11c-164.05,65.24 -250.57,91.2 -281.1,121.21l16.1,-7.42c1.55,-3.17 11.21,-8.42 28.01,-15.8c41.68,-18.3 127.3,-49.63 242.02,-94.4c23.31,-6.25 70.23,-13.3 136.37,-10.12c76.9,46.89 130.23,106.9 164.32,168.94c-11.95,45.49 -30.67,84.65 -58.64,109.02c-21.44,-8.43 -45.67,-31.05 -72.7,-67.89z"  />
     <path d="m392.85,186.43l24.41,-28.96c17.78,55.89 8.49,117.34 8.68,182.13l-6.68,-1.1l-26.41,-152.07z"  />
     <g  transform="matrix(1 0 0 1 -575.81 -763.05)">
      <path d="m871.48,1051.46q-4.91,6.08 -9.42,8.1q1.97,14.9 12,23.86l23.41,-21.07l-25.99,-10.89z"  />
      <path d="m865.72,1060.73q5.07,-2.04 8.34,-7.64l11.62,22.93l-7.89,5.11q-9.32,-6.06 -12.07,-20.4z" fill="rgb(116,116,116)" />
      <path d="m875.49,1053.09l21.98,9.26l-11.14,12.14q-9.74,-6.51 -10.84,-21.4z"  />
     </g>
     <path d="m404.09,172.68l-41.33,-11.44c-8.34,26.72 -41.57,68.72 -99.73,125.95c27.85,3.79 62.29,18.43 103.29,43.9l44.89,-59.57l-18.36,-85.09l11.24,-13.75z"  />
     <path d="m398.57,178.68l-29.32,-8.58l21.72,77.47l17.53,3.97l-17.53,-65.11l7.6,-7.75z" fill="rgb(116,116,116)" />
     <path d="m362.76,176.98l33.75,113.06l23.25,21.03l5.07,28.4l-23.35,-1.52l-57.19,-23.11c-15.56,-12.65 -31.85,-21.16 -63.12,-33.37c31.54,-31.18 58.75,-66 81.59,-104.49z" fill="rgb(185,185,185)" />
     <path d="m428.98,338.69q9.68,-106.01 -6.94,-181.02l-6.68,1.64q19.94,69.68 6.64,181.03l6.98,-1.65z"  />
     <path d="m435.26,137l2.99,-2.07c33.17,6.99 66.36,18.84 99.54,35.55l-2.97,0c-33.19,-16.37 -66.37,-27.52 -99.56,-33.48z"  />
     <path d="m387.44,185.71c9.15,-8.67 17.89,-20.11 26.19,-34.34c63.76,5.65 116.19,27.19 157.24,64.6c-58.79,-36.04 -110.61,-54.28 -155.51,-54.73c-7.58,10.21 -13.85,18.38 -18.85,24.47c6.76,16.93 11.24,35.09 13.43,54.42l-12.33,-3.45c0.16,-13.77 -3.22,-30.75 -10.17,-50.97z"  />
     <g  transform="matrix(1 0 0 1 -575.81 -763.05)">
      <path d="m970.28,1051.71c-24.13,-14.04 -37.02,-44.42 -38.62,-67.76c8.09,-2.29 16.96,-9.31 24.11,-17.64c12.43,-8.19 33.93,11.08 44.41,42.54c7.24,21.75 2.41,34.03 -8.48,35.02q-15.68,3.2 -21.42,7.84z"  />
      <path d="m975.18,1044.44c-15.66,-15.53 -31.31,-40.39 -27.08,-65.94c-3.88,5.33 -8.09,8.51 -12.66,9.52c3.08,22.9 13.86,42.45 32.27,58.6l7.47,-2.18z" fill="rgb(116,116,116)" />
      <path d="m982.93,1012.95l10.86,12.58l-3.09,4.94l-9.25,-14.56l1.48,-2.96z"  />
      <g >
       <path d="m959.99,1015.24c-9.38,-18.43 -10.38,-37.65 -2.23,-42.89c8.15,-5.24 22.38,5.47 31.76,23.9c9.38,18.44 10.38,37.66 2.23,42.9c-8.15,5.24 -22.38,-5.47 -31.76,-23.91z" fill="rgb(70,70,70)" />
       <path d="m979.25,992.33c0.06,0.03 2.32,-1.72 2.55,-1.93c-6.96,-9.72 -15.35,-14.62 -20.58,-11.25c-6.49,4.17 -5.69,19.48 1.78,34.16c6.51,12.79 15.95,20.91 22.57,20.03c-5.93,-0.64 -13.58,-7.73 -19.06,-18.39c-7.73,-23.87 0.29,-34.5 12.74,-22.62z"  />
       <path d="m980.68,1017.79l0,0l6.06,7.1l0,0l0,0l0,0l0,0c-0.43,1.6 -1.1,2.92 -2,3.87l-4.96,-10.43l0.9,-0.54zm-3.7,2.22l2.07,10.17c1.36,0.36 2.65,0.34 3.79,-0.11l0,0l0,0l0,0l0,0l-5.02,-10.56l-0.84,0.5zm-4.06,-1.94l-1.17,7.27c1.53,1.56 3.07,2.8 4.56,3.67l0,0l0,0l0,0l-1.97,-9.67c-0.49,-0.38 -0.96,-0.8 -1.42,-1.27zm-4.01,-5.07l-3.52,1.39c1.28,2.4 2.21,5.03 3.64,6.93l1.47,-5.39c-0.38,-0.6 -1.25,-2.29 -1.59,-2.93zm14.35,-3.96l2.77,1.19c-0.63,-2.46 -1.49,-5 -2.56,-7.54l0,0l0,0l0,0l0,0l0,0l-1.68,1.15c0.71,1.79 1.2,3.56 1.47,5.2l0,0zm-0.68,6.89l4.71,5.52c0.13,-1.98 0.03,-4.21 -0.32,-6.58l0,0l0,0l0,0l0,0l0,0l-3.55,-1.52c-0.13,1.04 -0.41,1.92 -0.84,2.58l0,0z"  fill-rule="evenodd" />
      </g>
     </g>
     <path d="m415.36,125.68l1.9,-3.34c1.97,5.28 3.28,9.56 3.9,12.8l2.33,-21.48l1.34,-0.67c0.12,8.31 0.87,17.04 2.22,26.15l-1.11,0.78c-1.07,-5.47 -1.69,-10.21 -1.89,-14.24l-2.01,15.91l-0.88,0.76c-1.5,-6.68 -3.43,-12.23 -5.8,-16.67z"  />
     <path d="m465.59,213.48c16.2,-6.4 46.66,-15.61 96.08,-4.13l2.27,1.4c-56.04,-10.7 -87.08,-2.7 -96.15,4.09l-2.2,-1.36z"  />
     <path d="m454.5,200.81l3.25,3.75c15.32,36.03 23.88,92.35 23.12,127.9l-3.2,0c1.55,-32.55 -5.8,-90.88 -23.17,-131.65z"  />
     <path d="m548.87,169.61c3.72,6.56 9.87,12.3 18.48,16.82l-3.41,-0.72c-8.07,-4.34 -13.69,-9.53 -16.89,-15.61l1.82,-0.49z"  />
     <path d="m574.91,189.45c-14.49,1.59 -18.23,8.7 -11.24,21.3l-2.02,-1.34c-6.68,-11.93 -2.84,-19.13 11.49,-20.99l1.77,1.03z"  />
     <path d="m423.24,318.29l-7.88,-15.99l-11.27,25.61l-2.61,11.69l17.78,0.74l-8.05,-11.25l12.84,-4.18l-0.81,-6.62z"  />
     <path d="m401.74,327.16c-1.9,-5.92 -0.39,-11.72 3.38,-12.93c3.77,-1.21 8.38,2.61 10.29,8.54c1.9,5.92 0.39,11.71 -3.39,12.92c-3.77,1.22 -8.37,-2.61 -10.28,-8.53z"  />
     <path d="m511.6,178.68c15.94,-7.8 34.78,-11.65 56.5,-11.58c-25.01,3.78 -41.39,9.15 -49.18,16.08l-7.32,-4.5z"  />
     <path d="m517.97,178.68c28.55,0.61 51.17,5.62 67.86,15c-21.9,-8.65 -44.19,-12.14 -66.91,-10.5l-0.95,-4.5z"  />
     <path d="m446.41,193.68l-2.19,-7.97c50.69,60.62 77.06,106.01 79.06,136.16l-13.94,3.04c-2.25,-36.89 -19.32,-77.66 -62.93,-131.23z"  />
     <g  transform="matrix(1 0 0 1 -575.81 -763.05)">
      <path d="m672.73,1054.14c15.59,8.5 29.52,13.65 41.75,15.43l0,11.82q-11.42,11.67 -16.18,11.55q-6.8,-0.17 -17.57,-5.8c-0.59,-7.32 -2.52,-17.63 -8,-33z"  />
      <path d="m677.88,1059.6c11.39,4.97 22.21,8.95 32.41,11.91c-3.53,4.16 -10.07,10.52 -11.59,10.6c-5.42,0.26 -12.61,-4.09 -18.98,-7.69l0,-2.02l12.6,5.3l7.9,-7.14c-4.16,-1.98 -11.6,-4.91 -22.34,-8.82l0,-2.14l0,0zm32.58,15.36l0.25,7.48c-7.45,8.92 -13.75,8.92 -16.67,7.37l-4.38,-8.27q6.94,3.34 9.14,2.79q1.88,-0.48 11.66,-9.37l0,0zm-11.48,0.03c1.27,-1.05 2.71,-1.46 3.22,-0.9c0.5,0.55 -0.12,1.86 -1.39,2.92c-1.27,1.05 -2.71,1.46 -3.22,0.9c-0.5,-0.55 0.12,-1.86 1.39,-2.92z" fill="rgb(232,232,232)" fill-rule="evenodd" />
     </g>
     <g  transform="matrix(1 0 0 1 -575.81 -763.05)">
      <path d="m902.24,1043.5c-10.87,-0.13 -19.1,1.01 -24.72,3.41c-9.76,-10.65 -21.88,-42.2 -18.81,-69.91c7.87,-2.68 12.69,-5.51 21.86,-10.59c22.66,15.79 33.47,60.9 21.67,77.09z"  />
      <path d="m872.24,968.87c-3.59,3.9 -7.07,6.47 -10.45,7.65c-1.33,38.23 10.53,54.68 18.17,65.34c2.17,-0.66 5.09,-1.05 8.74,-1.2c-10.28,-8.94 -21.05,-47.74 -16.46,-71.79z" fill="rgb(116,116,116)" />
      <path d="m892.11,994.99q-7.05,-20.32 -10.75,-22.75c-7.78,-5.09 -9.25,17.25 2.25,48.5q-5.25,-31.75 -2.25,-36.75q2.17,-3.62 10.75,11z"  />
      <path d="m887.7,1026.3c1.99,5.08 4.88,8.49 7.1,9.63c6.17,3.17 8.58,-9.16 0,-32.47q4.38,26.65 -0.79,27.55c-2.67,0.47 -4.6,-1.87 -6.31,-4.71z"  />
      <g >
       <path d="m878.25,1009.13c-5.87,-19.83 -6.13,-37.78 -0.56,-40.06c5.56,-2.28 14.85,11.97 20.72,31.81c5.88,19.83 6.13,37.78 0.57,40.06c-5.57,2.28 -14.85,-11.98 -20.73,-31.81z" fill="rgb(70,70,70)" />
       <path d="m890.42,998.31c0.04,0.05 2.79,-5.09 2.96,-5.2c-4.45,-11.09 -9.95,-18.19 -13.53,-16.72c-4.43,1.81 -4.22,16.11 0.45,31.9c4.08,13.76 10.22,24.15 14.66,25.39c-3.94,-2.42 -8.91,-11.3 -12.34,-22.79c-4.66,-24.31 -0.27,-27.35 7.8,-12.58z"  />
       <path d="m883.71,1016.28l0.55,-2.25c-0.24,-0.67 -0.78,-2.5 -1,-3.19l-1.5,0.12l1.95,5.32l0,0zm3.8,8.54l-0.75,-6.48c-0.32,-0.49 -0.63,-1.03 -0.92,-1.59l-0.54,3.63l2.21,4.44l0,0zm3.52,-5.92l0,0l3.9,8.4l0,0l0,0l0,0l0,0c-0.32,1.33 -0.8,2.33 -1.42,2.92l-3.09,-11.11l0.61,-0.21zm-2.52,0.88l0.99,8.43q1.94,2.68 2.71,2.62l0,0l0,0l0,0l0,0l-3.13,-11.25l-0.57,0.2zm4.44,-8.11l1.82,1.94c-0.37,-2.45 -0.88,-5.04 -1.54,-7.71l0,0l0,0l0,0l0,0l0,0l-1.15,0.54c0.43,1.86 0.72,3.64 0.87,5.23l0,0zm-0.61,6.11l3.03,6.53c0.14,-1.78 0.11,-3.86 -0.07,-6.14l0,0l0,0l0,0l0,0l0,0l-2.34,-2.5c-0.11,0.92 -0.32,1.64 -0.62,2.11l0,0z"  fill-rule="evenodd" />
      </g>
     </g>
     <g  transform="matrix(1 0 0 1 -575.81 -763.05)">
      <path d="m833.55,976.38c9.96,20.33 24.8,38.38 44.49,54.12c-13.57,19.85 -31.8,32.87 -54.72,39.02l-12.54,-12.52c2.54,-6.85 4.21,-11.21 12.54,-18.19l-4.49,-0.3l-3.18,-25.84c-1.41,-10.08 5.23,-24.51 17.9,-36.29z"  />
      <path d="m832.57,984.37c10.08,14.92 22.83,33.4 39.7,45.9q-17.74,3.01 -26.48,0.99c-21.3,-4.93 -36.41,-27.36 -13.22,-46.89z" fill="rgb(70,70,70)" />
      <path d="m818.83,1015.73l3.47,19.05c4.7,5.02 20.57,5.74 34.68,1.24c-3.13,2.25 -6.46,3.65 -10.02,4.19c0.63,3.15 4.78,4.06 12.41,2.7l-10.71,2.26c-7.61,8.21 -17.99,13.1 -31.17,14.63l7.68,6.86c18.65,-5.8 34.36,-16.98 47.1,-33.56c-26.2,3.31 -45.87,-3.88 -53.44,-17.37z" fill="rgb(116,116,116)" />
      <path d="m825.67,1039.37c4.67,2.22 10.72,2.85 18.12,1.88c0.49,1.82 1.19,3.23 2.06,4.19c-3.3,2.47 -7.68,5.02 -13.18,7.63l-7,-13.7z"  />
      <g >
       <path d="m812.01,1067.28c-2.11,-8.53 -6.44,-15.02 -13.04,-19.51l-8.52,-0.36l-0.07,-2.47c0.49,-2.63 -0.59,-4.96 -3.28,-7.03c2.87,-7.74 11.41,-14.03 25.58,-18.9c3.21,0.26 6.45,0.55 7.24,1.79l1.87,17.08l6.93,2.4l8.77,13.02c5.13,4.62 -15.85,15.17 -25.48,13.98z"  />
       <path d="m827.22,1042.46l-6.75,-1.81l-3.34,-13.72c-7.59,-2.4 -16.85,4.95 -21.06,14.4c8.47,7.16 13.73,13.5 15.75,18.99c7.91,-7.44 14.85,-10.08 20.79,-7.95l-5.39,-9.91z" fill="rgb(232,232,232)"  transform="matrix(1 0 0 1 0 0)"/>
       <path d="m816.04,1043.13c-1.22,-3.73 0.24,-7.56 3.25,-8.54c0.45,-0.14 0.91,-0.22 1.36,-0.23q0.6,-0.01 1.31,6.73q3.33,0.55 4.57,0.85c0.24,1.69 0.01,3.29 0.15,3.47c-0.59,1.55 -1.48,2.22 -2.99,2.71c-3.01,0.98 -6.44,-1.25 -7.65,-4.99z" fill="rgb(0,118,0)"  stroke="rgb(0,0,0)" stroke-linecap="square" stroke-miterlimit="3"/>
       <path d="m817.18,1026.15l2.52,16.27l11.1,2.9l-2.11,-4.59l-6.07,-2.4l-3.09,-11.81l-2.35,-0.37z"  />
       <path d="m830.96,1054.39c-5.15,-0.51 -10.35,1.69 -15.64,6.57c8.24,0.77 13.47,-1.39 15.64,-6.57z" fill="rgb(70,70,70)" />
       <path d="m814.31,1065.28c4.88,0.29 13.54,-3.02 15.89,-4.74c5.42,-3.54 6.45,-5.13 2.47,-5.82c-1.49,3.54 -7.32,8.35 -17.61,7.27l-0.75,3.29z" fill="rgb(116,116,116)" />
      </g>
      <path d="m802.75,1025.29q-6.83,-8.01 -8.22,-14.37q-0.23,-1.07 11.42,-8.05c0.95,0.76 1.25,1.65 0.87,2.61q-9.57,4.66 -9.78,5.45q-0.92,3.56 10.6,14.59l-4.89,-0.23z"  />
      <path d="m839.31,990.93q0.83,-0.72 -3.37,-3.69c-18.36,18.43 -9.37,40.44 16.32,39.9q-16.36,-1.89 -21.81,-13.49c-3.85,-8.19 0.85,-18.76 8.86,-22.72z"  />
      <path d="m831.32,996.51l8.59,5.21l-1.56,4.43l-9.81,-1.73l2.78,-7.91z"  />
      <path d="m828.54,1010.84l7.92,0l1.02,2.87l-6.6,3.65l-2.34,-6.52z"  />
      <path d="m835.41,1021.37l4.09,-3.41l2.95,2.27l-1.73,4.19l-5.31,-3.05z"  />
     </g>
     <path d="m65.05,318.29l-5.54,-2.45c8.59,-43.65 24.76,-27.14 26.28,4.03q-4.13,-16.23 -10.61,-19.04q-6.45,-2.79 -10.13,17.46z"  />
     <path d="m84.51,314.88l-2.62,0l-0.91,-4.01l2.2,-3.75l1.33,7.76z"  />
     <path d="m77.3,307.6l2.6,-5.3l-3.54,-3.57l-1.18,7.56l2.12,1.31z"  />
     <path d="m71.09,299.69l1.15,7.43l-2.22,2.45l-4.6,-1.16l5.67,-8.72z"  />
     <g  transform="matrix(1 0 0 1 -575.81 -763.05)">
      <path d="m930.14,1061.78c18.49,-4.46 35.25,-13.52 50.24,-27.21c18.83,10.81 30.47,25.63 34.9,44.42l-10.49,9.99l-13.51,-19.32q-4.05,19.62 -5.9,21.41c-6.35,1.42 -12.44,1.49 -16.13,3.07c-19.82,-8.43 -32.85,-19.2 -39.11,-32.36z"  />
      <path d="m938.55,1064.13c12.65,-4.39 25.91,-11.42 39.77,-21.1c2.42,12.04 2.07,26.5 1.1,30.51c-5.21,21.45 -24.72,23.72 -40.87,-9.41z" fill="rgb(116,116,116)" />
      <path d="m983.29,1041.21c15.43,11.8 24.82,23.61 28.14,35.4l-7.58,6.81c-1.82,-8.92 -6.33,-17 -13.54,-24.28l-2.26,-7.49c1.19,15.21 -0.06,27.1 -3.76,35.63l-9.63,2.04c6.81,-1.21 9.7,-17.23 8.63,-48.11z" fill="rgb(70,70,70)" />
      <path d="m949.16,1057.89l-6.7,2.57c11.61,33.45 30.94,33.75 35.06,0.52q-4.42,19.96 -14.74,20.72q-7.28,0.53 -13.62,-23.81z"  />
      <path d="m949.67,1062.9l4.21,-1.93l1.25,5.87l-3.79,4.38l-1.67,-8.32z"  />
      <path d="m956.73,1071.22l3.49,2.88l-0.62,8.98l-6.15,-5.94l3.28,-5.92z"  />
      <path d="m967.19,1074.89l-2.7,0.26l-0.89,8.27l4.62,-2.07l-1.03,-6.46z"  />
      <path d="m971.06,1072.96l2.15,-4.34l2.05,1.97l-2.52,5.24l-1.68,-2.87z"  />
     </g>
     <g  transform="matrix(1 0 0 1 -575.81 -763.05)">
      <path d="m990.62,1058.68c5.83,4.37 10.93,11.87 13.65,21.07c2.45,8.26 2.51,16.35 0.65,22.77l-8.98,0c1.64,-4.77 1.64,-11.37 -0.37,-18.19c-1.25,-4.2 -3.09,-7.94 -5.26,-10.93l0.31,-14.72z"  />

      <path id="steering_wheel" d="m991.17,1062.74c10.35,7.65 14.45,20.03 12.46,39l-4.81,0c1.43,-13.82 -1.11,-24.61 -7.65,-32.4l0,-6.6z" 
      fill="rgb(98,61,5)" />

     </g>

     <g id="car" transform="matrix(1 0 0 1 -575.81 -763.05)">

      <!-- <path id="white_hack_unneeded" d="m1144.84,1136.94l-317.16,15.32l-17.05,16.14l10.4,17.23l109.57,17.38l162.72,-3.42l47.78,-21.29l3.74,-41.36z" fill="rgb(235,235,235)" /> -->
      <g xxx-display="none">
      <path d="m893.44,1209.14l171.4,-9.55l144.52,5.77c-121.95,12.49 -253.44,20.68 -394.5,24.55l51.24,-13l27.34,-7.77z"  />
      <path d="m898.03,1208.35c7.3,17.42 67.04,11.42 68.3,-3.1c10.33,-17.92 6.82,-31.71 -10.58,-41.39c-1.28,31.58 -32.23,40.66 -51.91,15.5c-6.58,10.09 -8.5,19.76 -5.81,28.99z"  />
      <path d="m956.37,1163.04c0.67,2.33 1.02,4.75 1.03,7.18c0,3.77 -0.9,7.5 -2.61,10.86c-1.66,3.23 -3.96,6.08 -6.75,8.39c-2.78,2.33 -5.95,4.15 -9.36,5.39c-3.41,1.26 -7.02,1.91 -10.66,1.92c-2.57,0.01 -5.13,-0.35 -7.61,-1.05c-2.53,-0.72 -4.94,-1.84 -7.12,-3.31c-2.32,-1.58 -4.37,-3.53 -6.05,-5.77c-2.13,-2.85 -3.75,-6.05 -4.79,-9.46c1.07,-1.68 6.29,-0.38 5.55,0.69c0.83,2.06 1.92,4 3.24,5.77c1.35,1.8 2.99,3.36 4.85,4.63c1.74,1.17 3.67,2.06 5.69,2.64c2.03,0.58 4.12,0.87 6.22,0.86c3.06,-0.01 6.1,-0.56 8.96,-1.62c2.87,-1.04 5.54,-2.57 7.88,-4.53c2.28,-1.88 4.15,-4.2 5.5,-6.83c1.35,-2.66 2.06,-5.6 2.06,-8.58c-0.01,-1.36 -0.14,-2.72 -0.41,-4.06c-0.64,-0.4 3.31,-3.83 4.38,-3.12z"  />
      <path d="m1086.17,1199.7c-8.91,5.47 -19.55,8.65 -30.97,8.65c-29.17,0 -53.24,-20.73 -56.48,-47.42l58.18,-0.72q43.52,30.75 29.27,39.49z"  />
      <path d="m1149.94,1159.53c-2.55,27.35 -26.95,48.82 -56.62,48.82c-29.17,0 -53.24,-20.73 -56.48,-47.42l28.25,5.97c17.25,24.82 47.74,15.5 55.44,-14.64l29.41,7.27l0,0z"  />
      <path d="m1122.77,1152.26c-0.34,3.2 -1.13,6.34 -2.32,9.34c-1.63,4.1 -4.02,7.86 -7.04,11.08c-2.97,3.17 -6.54,5.72 -10.5,7.51c-4.06,1.83 -8.46,2.77 -12.91,2.77c-3.86,0 -7.69,-0.71 -11.3,-2.1c-3.51,-1.36 -6.76,-3.31 -9.6,-5.78c-2.84,-2.46 -5.25,-5.36 -7.15,-8.59l3.14,-4.7c0.35,0.7 0.72,1.39 1.12,2.07c1.63,2.8 3.72,5.31 6.17,7.44c2.4,2.09 5.15,3.75 8.12,4.9c3.03,1.16 6.26,1.76 9.5,1.76c3.74,0 7.44,-0.79 10.85,-2.32c3.36,-1.52 6.39,-3.69 8.91,-6.38c2.6,-2.76 4.65,-5.99 6.05,-9.51c1.24,-3.16 1.98,-6.48 2.17,-9.87l4.79,2.38l0,0z"  />
      </g>

      <g id="car_chrome" display="none" fill="rgb(139,139,139)" >
      <path d="m959.62,1194.34c-16.41,23.82 -77.16,2.7 -57.21,-27.44c3.9,33.13 38.54,35.25 48.5,12.82l8.71,14.62z" />
      <path d="m1113.12,1168.81l7.41,12.46c-16.41,23.82 -75.75,2.74 -57.2,-27.45c0.17,29.51 33.54,35.45 49.79,14.99z" />

      <path d="m858.39,1161.6l12.11,-14.16c9.26,2 13.86,7.86 13.77,17.55c-11.06,-6.32 -19.98,-5.89 -25.88,-3.39z" fill="rgb(139,139,139)" />
      <path d="m806.33,1160.6l11.45,-12.22c9,2.01 11.09,10.47 11.01,20.17c-3.16,-11.05 -17.31,-10.45 -22.46,-7.95z" fill="rgb(139,139,139)" />

      </g>

      <defs>  
        <path id="car_body_color" d="m819.14,1148.07c13.39,6.79 14.02,22.54 3.73,30.23c-2.71,0.29 -3.79,0.61 -6.74,-1.53q-4.19,2.69 -7.1,8.61c-1.82,11.91 5.87,19.02 23.07,21.28l65.93,1.69c-9.5,-43.92 65.97,-64.6 73.37,-23.47l-3.63,19.88l87.12,-7.87c-4.48,-62.01 85.87,-70.23 78.44,-11.51l31.68,-4.92c3.99,-21.53 4,-38.41 0,-50.67c-12.22,-31.61 -30,-53.82 -71.24,-56.08c-1.42,0.57 2.52,10.86 1.08,11.42c-38.15,14.86 -85.98,17.27 -117.39,17.21l0,-18.46c-16.75,-8.61 -42.08,-9.46 -76,-2.58q-0.06,0.01 -5.47,1.33l-27.11,63.51c6.59,2.05 11.27,5.37 13.99,9.92c3.1,12.37 0.85,20.2 -6.76,23.45l-11.65,-4.03c-5.65,-4.7 -7.52,-10.05 -5.65,-16.09l10.07,-11.99l28.95,-65.2l-4.64,0.89l-8.03,24.28c-17.73,7.16 -30.98,16.42 -39.75,27.75c-9.53,2.96 -18.28,7.29 -26.27,12.95z" />
      </defs>

      <use href="#car_body_color" fill="img(newsprint.jpg)"/>
      <use href="#car_body_color" fill="pat(dots)"/>


      <path d="m835.73,1208.35c7.31,17.42 67.04,11.42 68.3,-3.1l-8.54,2.94l-59.76,0.16z"  />

      <g id="headlight_undersides">
        <path d="m856.77,1162.43l10.73,-2.39c-1.01,11.71 1.6,18.16 7.77,19.32l-7.41,-2.17c-5.16,-2.95 -8.85,-7.86 -11.09,-14.76z" />
      <tab></tab><path d="m804.03,1162.43c4.89,-2.16 8.48,-2.94 10.73,-2.39c-1.01,11.71 1.6,18.16 7.77,19.32l-4.75,-1.43l-2.13,-1.51c-5.75,-3.84 -9.61,-8.5 -11.62,-13.99z" />
      </g>

      <path d="m1173.26,1173.04l-1.87,13.67q-20.93,6.23 -40.63,5.6c10.88,-71.18 -86.7,-45.55 -71.28,7.45l-96.23,6.9c32.52,-63.18 -80.75,-47.88 -60.6,2.98c-9.67,7.47 -82.24,2 -91.21,-4.39c-9.92,-7.08 -10.35,-16.67 1.6,-25.89c-5.88,11.28 -0.98,18.46 6.98,21.19c7.1,2.42 34.85,6.24 72.29,4.7c-4.04,-53.37 98.6,-68.86 80.01,-4.52l76.13,-6.39c3.25,-52.07 85.49,-76.34 89.08,-14.62q15.66,1.3 31.82,-8.55l3.91,1.87z"  />
      <path d="m1101.93,1085.65q-75.29,21.8 -129.44,19.67c2.17,-7.78 2.5,-15.95 0.93,-18.27c-0.88,-7.63 -30.57,-12.84 -78.19,-3.17l-7.74,23.49l-6.83,1.6l10.05,-26.86c54.39,-11.55 86.72,-5.8 88.98,1.89q4.18,5.77 0.85,15.94q41.24,3.86 124.27,-18.42l-2.88,4.13z"  />
      <path d="m1087.91,1076.56c36.86,-4.82 93.12,27.21 75.2,100.87l6.9,-0.27c8.55,-61.4 -19.61,-98.59 -76.69,-107.91l-5.41,7.31l0,0z"  />
      <path d="m1029.23,1166.72c20.18,-94.47 137.06,-82.69 126.85,1.68c16.47,-98.1 -126.43,-90.28 -126.85,-1.68z"  />
      <path d="m845.41,1136.94c-17.8,4.78 -30.48,13.28 -38.08,25.49q2.03,9.77 8.33,13.99q-9.38,-5.59 -13.89,-15.31c12.29,-17.56 27.34,-27.51 45.12,-29.88l-1.48,5.71z"  />
      <path d="m893.19,1106.17c-62.15,9.09 -75.09,77.15 -37.42,77.14c-35.71,-10.76 -8.66,-67.19 37.42,-77.14l0,0z"  />
      <path d="m909.46,1104.04c-6.17,0.58 -12.45,1.44 -18.75,2.57l6.26,-17.49c8.07,-2.34 15.54,-3.85 22.4,-4.74q-2.54,9.99 -9.91,19.66zm5.17,-0.42c15.96,-1.1 31.09,-0.28 44.05,2.66q7.8,-18.04 4.68,-19.01c-8.53,-2.66 -22.11,-5.19 -40.36,-3.32q-2.63,10.16 -8.37,19.67z"  fill-rule="evenodd" />
      <path d="m860.26,1159.71c11.83,-2.7 20.14,-0.29 24.9,7.19l0,2.5c-5.34,-6.87 -12.93,-11.16 -25.64,-6.22l0.74,-3.47z"  />
      <path d="m809.03,1158.82c10.35,-2.7 15.64,-0.05 19.81,7.43l0,2.5c-4.68,-6.87 -10.39,-11.35 -21.51,-6.41l1.7,-3.52z"  />

      <path d="m866.99,1160.04c-0.25,1.41 -0.38,2.9 -0.38,4.45c0,8.82 4.31,15.97 9.62,15.97c5.31,0 9.62,-7.15 9.62,-15.97c0,-8.82 -4.67,-17.69 -13.62,-17.46c-1.52,0 -2.96,0.58 -4.23,1.65l0,0c-0.17,0.13 -0.34,0.28 -0.5,0.43l1.04,1.37c0.04,-0.04 0.08,-0.07 0.12,-0.1l0,0c0.8,-0.63 1.68,-0.96 2.61,-0.96c7.01,0.28 11.21,7.62 11.21,15.18c0,7.56 -3.23,13.7 -7.21,13.7c-3.98,0 -7.21,-6.14 -7.21,-13.7c0,-1.6 0.15,-3.14 0.41,-4.56l-1.48,0z" />
      <path d="m813.39,1159.29c-0.23,1.41 -0.35,2.91 -0.35,4.45c0,8.82 3.98,15.98 8.87,15.98c4.9,0 8.88,-7.16 8.88,-15.98c0,-8.82 -5.87,-15.67 -10.77,-15.67c-1.4,0 -2.72,0.58 -3.89,1.65l0,0c-0.16,0.14 -0.31,0.28 -0.47,0.43l0.96,1.37c0.04,-0.03 0.07,-0.06 0.11,-0.09l0,0c0.74,-0.64 1.56,-0.97 2.41,-0.97c3.67,0 8.54,5.83 8.54,13.4c0,7.56 -2.98,13.7 -6.65,13.7c-3.67,0 -6.65,-6.14 -6.65,-13.7c0,-1.6 0.13,-3.14 0.38,-4.57l-1.37,0z" />

      <path d="m853.96,1161.86c40.42,-61.69 144.29,-51.98 133.54,21.92l30.7,-4.42l4.34,3.95l-39.39,4.82c9.61,-76.88 -80.48,-85.66 -123.63,-24.95c-0.35,4.58 2.95,9.36 8.34,13.99q-7.44,-1.28 -13.9,-15.31z"  />
     </g>

     <g id="front_hand" xxx-display="none" transform="matrix(1 0 0 1 -575.81 -763.05)">
      <path d="m905.41,1080.63c-0.41,11.39 -3.34,23.64 -8.95,33.07c-6.35,-0.1 -12.39,1.04 -18.13,3.41c-12.24,-0.21 -21.12,-9.59 -26.67,-26.04c17.17,-10.54 31.73,-22.46 43.63,-37.98c9.12,4.39 20.98,13.89 30.88,24.18c0.89,0.93 -20.71,2.07 -20.76,3.36z"  />
      <path d="m858.11,1091.07c13.45,-6.17 25,-17.65 35.33,-30.79c-0.77,14.02 -3.5,34.59 -5.86,40.53c-8.24,20.78 -22.04,16.35 -29.47,-9.74z" fill="rgb(116,116,116)" />
      <path d="m867.79,1083.39l-6.59,3.58c4.52,29.47 18.47,32.32 25.31,5.14q-7.51,17.57 -14.53,12.73c-3.38,-2.32 -6.27,-16.08 -4.19,-21.45z"  />
      <path d="m866.12,1091.07l4.21,-1.93l1.25,5.87l-3.79,4.37l-1.67,-8.31z"  />
      <path d="m872.95,1098.13l3.41,1.25l0.52,8.99l-6.04,-1.69l2.11,-8.55z"  />
      <path d="m878.99,1098.71l3.04,-2.55l2.06,1.97l-3.38,6.03l-1.72,-5.45z"  />
      <path d="m896.4,1058.68q13.54,5.18 24.65,18.59l-15.26,1.24l-0.97,-10.65l-1.76,10.29l-2.96,-6.61c3.46,13.79 2.07,26.57 -4.19,38.29l-12.58,2.84c8.44,-5.29 10.82,-24.01 13.07,-53.99z" fill="rgb(70,70,70)" />
     </g>

     <g display="none">
      <path d="m355.04,64.33q15.53,-3.34 32.17,-6.57l5.64,-2.12q-141.17,23.38 -226.12,66.67l29.21,44.79l0,-9.5l-18.04,-32.89q20.93,-13.27 52.78,-25.44l13.61,29.91l1.65,-3.35l-12.28,-27.69q24.28,-9.09 54.7,-17.56l15.7,26.21l0,-4.19l-12.11,-23.01q27.86,-7.64 60.76,-14.76l11.65,22.2l1.46,-2.07l-10.78,-20.63z"  fill-opacity="0.2" fill-rule="evenodd" />
      <path d="m515.05,109.3c7.49,5.29 14.35,10.4 20.58,15.33l1.65,-2.45c-11.99,-9.85 -26.88,-20.37 -44.64,-31.53l0,0l0,0l0,0l-1.66,2.46c7.59,4.89 14.7,9.65 21.33,14.27l-6.72,9.52l2.73,1.93l6.73,-9.53zm-1.6,-16.53c-17.19,-10.1 -33.42,-12.98 -38.26,-6.12l0,0l0,0l0,0c-5.56,7.87 6.02,25.62 25.83,39.62c19.82,13.99 40.43,18.96 45.98,11.08c4.72,-6.68 -2.91,-20.49 -17.46,-33.07c1.64,3.13 -2.06,3.41 -3.93,0.32c5.08,3.58 2.03,-2.72 -12.16,-11.83l0,0zm0.81,-1.35c-18.98,-11.31 -37.02,-14.62 -42.34,-7.08l0,0l0,0c-6.05,8.56 6.59,27.91 28.22,43.18c21.62,15.27 44.09,20.71 50.13,12.14c5.36,-7.58 -3.94,-23.62 -21.16,-37.8l0.01,0l-0.09,-0.07c-1.35,-1.1 -2.73,-2.2 -4.17,-3.27l-18.11,-14.21l1.06,1.68l6.45,5.43l0,0l0,0z"  fill-opacity="0.2" fill-rule="evenodd" />
     </g>

    </g>

  </defs>

  <defs id="panel_defs">

    <g id="panel_1">

      <mask id="panel_1_mask" >
        <rect width="620" height="400" fill="#fff" />
  			<circle cx="150" cy="250" r="80" fill="#000" />
      </mask>

      <g clip-path="url(#two_of_four_clip)">

        <g transform="translate(20 32)">
          <text text-anchor="start">
            <tspan>
              No, I'm not gonna make it in time - 
              traffic is worse 
            </tspan>
            <tspan x="0" dy="1em">
              than 
              <tspan class="emph">
                the weather
              </tspan>
              ... MOVE YER TRUCK, MASS&#183;HOLE!
            </tspan>
          </text>
        </g>
        <rect class="text-bubble" width="606" height="65" x="7" y="7" />
        <path d="m 180 72 h5 l 20 20 z " />



        <use href="#truck"
          transform="translate(-70 195) scale(1.3) "
        />
        <use href="#green_T"
          transform="translate(230 50) scale(0.7) "
        />

      </g>

      <use href="#two_of_four_border" />

    </g>

    <g id="panel_2">

      <mask id="panel_2_mask" >
        <rect width="620" height="400" fill="#fff" />
				<ellipse cx="134" cy="250" rx="70" ry="107" fill="#000" />
      </mask>

      <g clip-path="url(#two_of_four_clip">

        <g transform="translate(119.5 32)">
          <text text-anchor="middle">
            <tspan>Line One.</tspan>
            <tspan x="0" dy="1em">Line Two.</tspan>
          </text>
        </g>
        <rect class="text-bubble" width="225" height="60" x="7" y="7" />
        <path d="m 40 67 h5 l 5 20 z " />

        <path d="M 0 300 L 620 200 V 400 H 0 Z" mask="url(#panel_2_mask)" fill="pat(dots,3)" />

				<ellipse cx="134" cy="250" rx="70" ry="107" 
					fill="none" stroke="#000" stroke-width="8"
					transform-origin="134 250"
					transform="rotate(-5)"
				/>
        <ellipse class="obj" cx="140" cy="360" rx="55" ry="3" />

      </g>

      <use href="#two_of_four_border" />

    </g>

  </defs>

  <g id="haxxor" style="
    filter: var(--bg-filter, none);
    opacity: var(--bg-opacity, 1);
  ">

  <svg class="land" viewBox="0 0 1300 520">

    <use href="#title"/>
    <g transform="translate(0 80)">
      <use href="#copyright" transform="translate(1276 395)" />
      <use href="#panel_1" transform="translate(20 0)" />
      <use href="#panel_2" transform="translate(660 0)" />
    </g>

  </svg>

  <svg class="port" viewBox="0 0 650 905"> 
    <use href="#title" />
    <g transform="translate(0 80)">
      <use href="#copyright" transform="translate(631 814)" />
      <use href="#panel_1" transform="translate(15 0)" />
      <use href="#panel_2" transform="translate(15 420)" />
    </g>
  </svg>
  
  </g>

</svg>
