<?xml version="1.0" encoding="UTF-8" standalone="no"?><!-- Generator: Gravit.io --><svg xmlns="http://www.w3.org/2000/svg" xmlns:xlink="http://www.w3.org/1999/xlink" style="isolation:isolate" viewBox="0 0 625.428 650.922" width="625.428pt" height="650.922pt"><defs><clipPath id="_clipPath_YhdpuWYbm9D10u00xD2HxssJSy0q0GgF"><rect x="0" y="0" width="625.428" height="650.922"/></clipPath></defs><g clip-path="url(#_clipPath_YhdpuWYbm9D10u00xD2HxssJSy0q0GgF)"><g><g><path d=" M 625.428 158.723 L 621.429 158.723 L 624.406 172.531 L 624.406 172.531 L 625.428 172.531 L 625.428 158.723 Z  M 590.932 165.656 L 590.932 165.656 L 590.932 165.656 Q 590.932 163.986 591.452 162.653 L 591.452 162.653 L 591.452 162.653 Q 591.972 161.32 592.86 160.388 L 592.86 160.388 L 592.86 160.388 Q 593.748 159.455 594.923 158.957 L 594.923 158.957 L 594.923 158.957 Q 596.098 158.459 597.417 158.459 L 597.417 158.459 L 597.417 158.459 Q 598.339 158.459 599.294 158.664 L 599.294 158.664 L 599.294 158.664 Q 600.25 158.869 601.197 159.406 L 601.197 159.406 L 600.672 162.531 L 600.672 162.531 Q 599.928 162.063 599.201 161.828 L 599.201 161.828 L 599.201 161.828 Q 598.474 161.594 597.865 161.594 L 597.865 161.594 L 597.865 161.594 Q 597.13 161.594 596.546 161.872 L 596.546 161.872 L 596.546 161.872 Q 595.963 162.151 595.557 162.678 L 595.557 162.678 L 595.557 162.678 Q 595.151 163.205 594.936 163.957 L 594.936 163.957 L 594.936 163.957 Q 594.72 164.709 594.72 165.656 L 594.72 165.656 L 594.72 165.656 Q 594.72 166.604 594.936 167.356 L 594.936 167.356 L 594.936 167.356 Q 595.151 168.108 595.557 168.635 L 595.557 168.635 L 595.557 168.635 Q 595.963 169.162 596.546 169.441 L 596.546 169.441 L 596.546 169.441 Q 597.13 169.719 597.865 169.719 L 597.865 169.719 L 597.865 169.719 Q 598.474 169.719 599.201 169.484 L 599.201 169.484 L 599.201 169.484 Q 599.928 169.25 600.672 168.781 L 600.672 168.781 L 601.197 171.906 L 601.197 171.906 Q 600.25 172.434 599.294 172.624 L 599.294 172.624 L 599.294 172.624 Q 598.339 172.815 597.417 172.815 L 597.417 172.815 L 597.417 172.815 Q 596.098 172.815 594.923 172.321 L 594.923 172.321 L 594.923 172.321 Q 593.748 171.828 592.86 170.905 L 592.86 170.905 L 592.86 170.905 Q 591.972 169.983 591.452 168.654 L 591.452 168.654 L 591.452 168.654 Q 590.932 167.326 590.932 165.656 L 590.932 165.656 Z  M 607.673 160.871 L 607.411 160.871 L 606.253 167.307 L 608.671 167.307 L 607.673 160.871 L 607.673 160.871 Z  M 615.452 172.531 L 615.452 158.723 L 619.24 158.723 L 619.24 169.719 L 623.298 169.719 L 623.298 172.531 L 615.452 172.531 L 615.452 172.531 Z  M 610.641 158.723 L 613.93 172.531 L 609.415 172.531 L 608.857 169.592 L 605.889 169.592 L 605.356 172.531 L 602.304 172.531 L 605.348 158.723 L 610.641 158.723 L 610.641 158.723 Z " fill-rule="evenodd" fill="rgb(0,0,0)"/><path d=" M 98.276 650.922 L 98.276 643.306 L 102.663 643.306 L 102.663 648.677 L 106.736 648.677 L 106.736 643.306 L 111.122 643.306 L 111.122 650.922 L 111.122 650.922 L 98.276 650.922 Z  M 123.558 650.922 L 123.558 650.922 L 123.558 648.784 L 118.858 648.784 L 118.858 645.864 L 124.184 645.864 L 124.184 643.306 L 114.471 643.306 L 114.471 650.922 L 123.558 650.922 Z  M 137.565 650.922 L 135.464 643.306 L 135.464 643.306 L 129.335 643.306 L 127.39 650.922 L 130.584 650.922 L 131.724 645.454 L 132.027 645.454 L 132.027 645.454 L 133.009 650.922 L 137.565 650.922 Z  M 149.199 650.922 L 149.199 650.922 L 151.268 643.306 L 147.821 643.306 L 146.069 650.922 L 149.199 650.922 Z  M 140.009 650.922 L 138.108 643.306 L 143.434 643.306 L 144.925 650.922 L 140.009 650.922 Z  M 162.126 650.922 L 162.126 650.922 L 162.126 648.784 L 157.426 648.784 L 157.426 645.864 L 162.753 645.864 L 162.753 643.306 L 153.04 643.306 L 153.04 650.922 L 162.126 650.922 Z  M 169.264 650.922 L 169.264 650.922 L 169.264 649.771 L 170.078 650.922 L 178.801 650.922 L 178.801 643.306 L 175.453 643.306 L 175.453 650.239 L 170.185 643.306 L 165.945 643.306 L 165.945 650.922 L 169.264 650.922 Z  M 192.779 650.922 Q 192.744 650.594 192.744 650.239 L 192.744 650.239 L 192.744 650.239 Q 192.744 649.292 192.994 648.54 L 192.994 648.54 L 192.994 648.54 Q 193.244 647.788 193.714 647.261 L 193.714 647.261 L 193.714 647.261 Q 194.184 646.734 194.859 646.455 L 194.859 646.455 L 194.859 646.455 Q 195.535 646.177 196.387 646.177 L 196.387 646.177 L 196.387 646.177 Q 197.092 646.177 197.934 646.411 L 197.934 646.411 L 197.934 646.411 Q 198.776 646.646 199.638 647.114 L 199.638 647.114 L 200.245 643.989 L 200.245 643.989 Q 199.148 643.452 198.042 643.247 L 198.042 643.247 L 198.042 643.247 Q 196.935 643.042 195.868 643.042 L 195.868 643.042 L 195.868 643.042 Q 194.34 643.042 192.979 643.54 L 192.979 643.54 L 192.979 643.54 Q 191.618 644.038 190.59 644.971 L 190.59 644.971 L 190.59 644.971 Q 189.562 645.903 188.96 647.236 L 188.96 647.236 L 188.96 647.236 Q 188.358 648.569 188.358 650.239 L 188.358 650.239 L 188.358 650.239 L 188.358 650.239 Q 188.358 650.588 188.384 650.922 L 192.779 650.922 Z  M 213.282 650.922 L 211.182 643.306 L 211.182 643.306 L 205.052 643.306 L 203.108 650.922 L 206.302 650.922 L 207.441 645.454 L 207.745 645.454 L 207.745 645.454 L 208.726 650.922 L 213.282 650.922 Z  M 220.072 650.922 L 220.072 650.922 L 220.072 649.771 L 220.886 650.922 L 229.609 650.922 L 229.609 643.306 L 226.261 643.306 L 226.261 650.239 L 220.993 643.306 L 216.753 643.306 L 216.753 650.922 L 220.072 650.922 Z  M 256.55 650.922 L 256.55 650.922 L 257.76 643.306 L 254.313 643.306 L 253.318 650.922 L 256.55 650.922 Z  M 248.998 650.922 L 248.673 649.302 L 248.379 650.922 L 245.83 650.922 L 247.009 643.306 L 251.18 643.306 L 252.336 650.922 L 248.998 650.922 Z  M 240.343 650.922 L 238.96 643.306 L 243.915 643.306 L 244.864 650.922 L 240.343 650.922 Z  M 269.407 650.922 L 267.307 643.306 L 267.307 643.306 L 261.177 643.306 L 259.233 650.922 L 262.427 650.922 L 263.566 645.454 L 263.87 645.454 L 263.87 645.454 L 264.851 650.922 L 269.407 650.922 Z  M 277.274 650.922 L 277.274 650.922 L 277.274 643.306 L 272.888 643.306 L 272.888 650.922 L 277.274 650.922 Z  M 286.566 650.922 L 286.566 650.922 L 286.566 646.489 L 289.768 646.489 L 289.768 643.306 L 279.047 643.306 L 279.047 646.489 L 282.18 646.489 L 282.18 650.922 L 286.566 650.922 Z " fill-rule="evenodd" fill="rgb(0,0,0)"/><path d=" M 537.878 26.237 L 538.132 26.237 L 538.132 27.237 L 537.878 27.237 L 86.893 27.237 L 86.639 27.237 L 86.639 26.237 L 86.893 26.237 L 537.878 26.237 Z " fill="rgb(0,0,0)"/><path d=" M 29.462 114.15 L 29.462 114.301 L 29.599 114.301 L 29.599 131.758 L 29.599 132.002 L 29.599 149.214 L 29.599 149.459 L 29.599 149.459 L 29.599 166.671 L 29.599 166.915 L 29.599 184.132 L 29.599 184.376 L 29.599 201.588 L 29.599 201.833 L 29.599 219.279 L 29.599 219.289 L 29.599 219.289 L 29.599 236.736 L 29.599 236.98 L 29.599 254.192 L 29.599 254.437 L 29.599 254.437 L 29.599 271.648 L 29.599 271.893 L 29.599 289.349 L 12.143 289.349 L 11.898 289.349 L 0.518 289.349 L 0.518 288.86 L 11.653 288.86 L 11.653 271.893 L 11.653 271.893 L 11.653 271.893 L 11.653 271.893 L 0.518 271.893 L 0.518 271.404 L 11.653 271.404 L 11.653 254.437 L 11.653 254.437 L 0.518 254.437 L 0.518 253.947 L 11.653 253.947 L 11.653 236.98 L 0.518 236.98 L 0.518 236.491 L 11.653 236.491 L 11.653 236.491 L 0.137 236.491 L 0.137 218.79 L 11.653 218.79 L 11.653 201.833 L 0.518 201.833 L 0.518 201.344 L 11.653 201.344 L 11.653 184.376 L 0.518 184.376 L 0.518 183.887 L 11.653 183.887 L 11.653 166.915 L 11.653 166.915 L 11.653 166.915 L 11.653 166.915 L 0.518 166.915 L 0.518 166.426 L 11.653 166.426 L 11.653 149.459 L 11.653 149.459 L 0.518 149.459 L 0.518 148.97 L 11.653 148.97 L 11.653 132.002 L 0.518 132.002 L 0.518 131.513 L 11.653 131.513 L 11.653 114.301 L 11.761 114.301 L 11.761 114.15 L 0.518 114.15 L 0.518 113.661 L 11.653 113.661 L 11.653 96.689 L 0.518 96.689 L 0.137 96.689 L 0.137 78.988 L 0.518 78.988 L 0.518 78.743 L 11.653 78.743 L 11.653 61.776 L 0.518 61.776 L 0.518 61.287 L 11.653 61.287 L 11.653 44.319 L 11.517 44.319 L 0 44.319 L 0 26.237 L 11.517 26.237 L 11.761 26.237 L 11.761 26.237 L 29.599 26.237 L 29.599 44.075 L 29.599 44.319 L 29.599 61.531 L 29.599 61.776 L 29.599 78.988 L 29.599 79.232 L 29.599 79.232 L 29.599 96.444 L 29.599 96.689 L 29.599 114.15 L 29.462 114.15 Z  M 29.11 114.39 L 12.143 114.39 L 12.143 131.513 L 29.11 131.513 L 29.11 114.39 Z  M 12.143 218.79 L 29.11 218.79 L 29.11 201.833 L 12.143 201.833 L 12.143 218.79 L 12.143 218.79 Z  M 29.11 236.491 L 12.143 236.491 L 12.143 236.491 L 29.11 236.491 L 29.11 236.491 Z  M 11.517 26.726 L 11.517 43.83 L 0.489 43.83 L 0.489 26.726 L 11.517 26.726 L 11.517 26.726 Z  M 12.143 44.319 L 12.143 61.287 L 29.11 61.287 L 29.11 44.319 L 12.143 44.319 L 12.143 44.319 L 12.143 44.319 Z  M 12.143 271.893 L 29.11 271.893 L 29.11 271.893 L 29.11 288.86 L 12.143 288.86 L 12.143 271.893 L 12.143 271.893 L 12.143 271.893 L 12.143 271.893 Z  M 12.143 253.947 L 29.11 253.947 L 29.11 236.98 L 12.143 236.98 L 12.143 253.947 L 12.143 253.947 L 12.143 253.947 L 12.143 253.947 L 12.143 253.947 L 12.143 253.947 L 12.143 253.947 L 12.143 253.947 Z  M 29.11 254.437 L 29.11 271.404 L 12.143 271.404 L 12.143 254.437 L 29.11 254.437 L 29.11 254.437 L 29.11 254.437 L 29.11 254.437 L 29.11 254.437 L 29.11 254.437 L 29.11 254.437 L 29.11 254.437 L 29.11 254.437 Z  M 12.143 166.915 L 29.11 166.915 L 29.11 166.915 L 29.11 183.887 L 12.143 183.887 L 12.143 166.915 L 12.143 166.915 L 12.143 166.915 L 12.143 166.915 L 12.143 166.915 L 12.143 166.915 L 12.143 166.915 L 12.143 166.915 L 12.143 166.915 L 12.143 166.915 Z  M 29.11 184.376 L 29.11 201.344 L 12.143 201.344 L 12.143 184.376 L 29.11 184.376 L 29.11 184.376 L 29.11 184.376 L 29.11 184.376 L 29.11 184.376 L 29.11 184.376 L 29.11 184.376 L 29.11 184.376 L 29.11 184.376 L 29.11 184.376 L 29.11 184.376 Z  M 12.143 148.97 L 29.11 148.97 L 29.11 132.002 L 12.143 132.002 L 12.143 148.97 L 12.143 148.97 L 12.143 148.97 L 12.143 148.97 L 12.143 148.97 L 12.143 148.97 L 12.143 148.97 L 12.143 148.97 L 12.143 148.97 L 12.143 148.97 L 12.143 148.97 L 12.143 148.97 Z  M 29.11 149.459 L 29.11 166.426 L 12.143 166.426 L 12.143 149.459 L 29.11 149.459 L 29.11 149.459 L 29.11 149.459 L 29.11 149.459 L 29.11 149.459 L 29.11 149.459 L 29.11 149.459 L 29.11 149.459 L 29.11 149.459 L 29.11 149.459 L 29.11 149.459 L 29.11 149.459 L 29.11 149.459 Z  M 12.143 78.743 L 29.11 78.743 L 29.11 61.776 L 12.143 61.776 L 12.143 78.743 L 12.143 78.743 L 12.143 78.743 L 12.143 78.743 L 12.143 78.743 L 12.143 78.743 L 12.143 78.743 L 12.143 78.743 L 12.143 78.743 L 12.143 78.743 L 12.143 78.743 L 12.143 78.743 L 12.143 78.743 L 12.143 78.743 L 12.143 78.743 L 12.143 78.743 Z  M 12.006 26.726 L 29.11 26.726 L 29.11 43.83 L 12.006 43.83 L 12.006 26.726 L 12.006 26.726 L 12.006 26.726 L 12.006 26.726 Z " fill-rule="evenodd" fill="rgb(0,0,0)"/><path d=" M 593.321 650.922 L 593.321 569.063 L 593.321 569.063 L 593.321 569.063 L 593.321 569.063 L 625.428 569.063 L 625.428 569.063 L 625.428 569.063 L 625.428 569.063 L 625.428 569.063 L 625.428 566.061 L 590.323 566.061 L 590.323 566.061 L 590.323 566.061 L 590.323 566.061 L 590.323 650.922 L 593.321 650.922 Z " fill="rgb(0,0,0)"/><path d=" M 0.521 650.922 L 0.521 618.978 C 25 603.947 45.402 601.76 51.631 592.826 L 51.631 592.826 L 51.631 592.826 L 51.631 592.826 L 51.631 465.402 L 0.521 465.402 L 0.521 465.402 L 0.521 465.402 L 0.521 465.402 L 0.521 462.4 L 54.634 462.4 L 54.634 650.922 L 0.521 650.922 Z " fill="rgb(0,0,0)"/><path d=" M 537.878 632.839 L 538.132 632.839 L 538.132 633.839 L 537.878 633.839 L 86.893 633.839 L 86.639 633.839 L 86.639 632.839 L 86.893 632.839 L 537.878 632.839 L 537.878 632.839 L 537.878 632.839 L 537.878 632.839 Z " fill="rgb(0,0,0)"/><path d=" M 625.428 111.998 L 586.781 111.998 L 586.781 0 L 588.981 0 L 588.981 109.798 L 603.413 109.798 L 603.413 109.798 L 603.413 109.798 L 603.413 109.798 L 603.413 109.798 L 603.413 109.798 L 602.327 85.659 L 596.591 83.419 C 595.991 83.208 595.421 82.889 594.911 82.488 C 594.691 82.308 594.491 82.089 594.341 81.839 C 594.171 81.558 594.081 81.248 594.081 80.919 C 594.081 80.568 594.191 80.228 594.391 79.939 C 594.571 79.689 594.801 79.468 595.071 79.298 C 595.651 78.948 596.291 78.698 596.961 78.578 L 625.428 72.118 L 625.428 74.165 L 597.382 80.528 C 597.372 80.538 597.352 80.538 597.341 80.538 L 596.201 80.958 C 596.521 81.208 596.882 81.409 597.271 81.538 C 597.281 81.538 597.291 81.548 597.301 81.548 L 625.428 92.536 L 625.428 111.998 L 625.428 111.998 L 625.428 111.998 L 625.428 111.998 L 625.428 111.998 Z " fill="rgb(0,0,0)"/><path d=" M 625.428 529.95 L 594.256 529.95 L 594.225 529.95 L 594.225 528.95 L 594.256 528.95 L 625.428 528.95 L 625.428 529.95 L 625.428 529.95 L 625.428 529.95 L 625.428 529.95 L 625.428 529.95 Z " fill="rgb(0,0,0)"/><path d=" M 625.428 150.812 L 594.284 150.812 L 594.225 150.812 L 594.225 149.812 L 594.284 149.812 L 625.428 149.812 L 625.428 150.812 L 625.428 150.812 L 625.428 150.812 L 625.428 150.812 L 625.428 150.812 Z " fill="rgb(0,0,0)"/><path d=" M 625.428 475.924 L 592.154 475.924 L 592.154 187.664 L 592.154 187.664 L 625.428 187.664 L 625.428 190.86 L 595.353 190.86 L 595.353 190.86 L 595.353 436.974 C 596.966 421.273 600.022 405.816 604.478 390.918 C 606.612 383.769 617.569 356.641 625.428 337.662 L 625.428 351.108 C 622.566 357.867 620.348 363.106 620.241 363.362 L 620.241 363.362 L 620.241 363.362 L 620.241 363.362 L 620.241 363.362 C 621.966 363.766 623.695 364.184 625.428 364.616 L 625.428 371.922 C 622.657 371.461 619.893 371.049 617.134 370.688 C 614.804 376.675 612.751 382.902 611.034 389.42 C 615.8 390.559 620.598 391.813 625.428 393.184 L 625.428 399.667 C 619.947 398.498 614.49 397.542 609.057 396.794 C 607.579 403.027 606.334 409.463 605.39 416.158 C 612.007 417.783 618.686 419.632 625.428 421.709 L 625.428 427.346 C 618.372 425.559 611.356 424.125 604.38 423.037 C 603.854 427.181 603.425 431.409 603.136 435.758 L 603.136 435.758 L 603.136 435.758 L 603.136 435.758 L 603.136 435.758 L 603.136 435.758 C 610.801 437.61 618.233 439.714 625.428 442.069 L 625.428 475.924 L 625.428 475.924 L 625.428 475.924 L 625.428 475.924 L 625.428 475.924 Z " fill="rgb(0,0,0)"/><path d=" M 0.521 442.774 L 45.351 442.774 L 45.391 442.774 L 45.391 441.774 L 45.351 441.774 L 45.351 441.774 L 45.351 441.774 L 45.351 441.774 L 45.351 441.774 L 45.351 441.774 L 0.521 441.774 L 0.521 442.774 L 0.521 442.774 L 0.521 442.774 L 0.521 442.774 Z " fill="rgb(0,0,0)"/><path d=" M 0.521 406.335 L 0.521 406.335 L 49.434 406.335 L 49.434 0 L 51.631 0 L 51.631 408.531 L 0.521 408.531 L 0.521 406.335 L 0.521 406.335 L 0.521 406.335 L 0.521 406.335 Z " fill="rgb(0,0,0)"/><path d=" M 13.071 116.771 L 13.742 116.497 L 14.125 116.497 L 14.125 118.982 L 14.77 118.982 L 14.77 119.273 L 13.153 119.273 L 13.153 118.982 L 13.805 118.982 L 13.805 116.818 L 13.196 117.058 L 13.071 116.771 Z  M 16.422 116.458 L 16.422 116.458 L 16.422 116.458 Q 16.506 116.458 16.586 116.471 L 16.586 116.471 L 16.586 116.471 Q 16.666 116.484 16.758 116.518 L 16.758 116.518 L 16.758 116.518 Q 16.85 116.552 16.929 116.608 L 16.929 116.608 L 16.929 116.608 Q 17.008 116.663 17.083 116.755 L 17.083 116.755 L 17.083 116.755 Q 17.159 116.847 17.211 116.967 L 17.211 116.967 L 17.211 116.967 Q 17.264 117.087 17.295 117.26 L 17.295 117.26 L 17.295 117.26 Q 17.326 117.433 17.326 117.642 L 17.326 117.642 L 17.326 117.642 Q 17.326 118.021 17.246 118.314 L 17.246 118.314 L 17.246 118.314 Q 17.166 118.607 17.034 118.79 L 17.034 118.79 L 17.034 118.79 Q 16.903 118.974 16.713 119.092 L 16.713 119.092 L 16.713 119.092 Q 16.524 119.21 16.323 119.256 L 16.323 119.256 L 16.323 119.256 Q 16.121 119.302 15.887 119.302 L 15.887 119.302 L 15.887 119.302 Q 15.766 119.302 15.645 119.29 L 15.645 119.29 L 15.668 119.001 L 15.668 119.001 Q 15.756 119.011 15.879 119.011 L 15.879 119.011 L 15.879 119.011 Q 16.032 119.011 16.16 118.989 L 16.16 118.989 L 16.16 118.989 Q 16.289 118.968 16.386 118.933 L 16.386 118.933 L 16.386 118.933 Q 16.483 118.898 16.562 118.841 L 16.562 118.841 L 16.562 118.841 Q 16.641 118.784 16.696 118.728 L 16.696 118.728 L 16.696 118.728 Q 16.75 118.671 16.793 118.591 L 16.793 118.591 L 16.793 118.591 Q 16.836 118.511 16.862 118.446 L 16.862 118.446 L 16.862 118.446 Q 16.887 118.382 16.907 118.292 L 16.907 118.292 L 16.907 118.292 Q 16.926 118.202 16.935 118.142 L 16.935 118.142 L 16.935 118.142 Q 16.944 118.081 16.953 117.993 L 16.953 117.993 L 16.953 117.993 Q 16.832 118.122 16.666 118.186 L 16.666 118.186 L 16.666 118.186 Q 16.5 118.249 16.326 118.249 L 16.326 118.249 L 16.326 118.249 Q 15.955 118.249 15.705 118.008 L 15.705 118.008 L 15.705 118.008 Q 15.455 117.767 15.455 117.4 L 15.455 117.4 L 15.455 117.4 Q 15.455 117.013 15.734 116.735 L 15.734 116.735 L 15.734 116.735 Q 16.012 116.458 16.422 116.458 Z  M 16.379 116.732 L 16.379 116.732 L 16.379 116.732 Q 16.143 116.732 15.959 116.927 L 15.959 116.927 L 15.959 116.927 Q 15.776 117.122 15.776 117.368 L 15.776 117.368 L 15.776 117.368 Q 15.776 117.62 15.962 117.798 L 15.962 117.798 L 15.962 117.798 Q 16.149 117.976 16.399 117.976 L 16.399 117.976 L 16.399 117.976 Q 16.647 117.976 16.824 117.804 L 16.824 117.804 L 16.824 117.804 Q 17 117.632 17 117.392 L 17 117.392 L 17 117.392 Q 17 117.234 16.917 117.081 L 16.917 117.081 L 16.917 117.081 Q 16.834 116.929 16.689 116.83 L 16.689 116.83 L 16.689 116.83 Q 16.543 116.732 16.379 116.732 Z " fill="rgb(0,0,0)"/><path d=" M 13.09 240.075 L 12.983 239.812 L 12.983 239.812 Q 13.385 239.612 13.768 239.612 L 13.768 239.612 L 13.768 239.612 Q 14.131 239.612 14.368 239.8 L 14.368 239.8 L 14.368 239.8 Q 14.606 239.987 14.606 240.271 L 14.606 240.271 L 14.606 240.271 Q 14.606 240.487 14.49 240.657 L 14.49 240.657 L 14.49 240.657 Q 14.373 240.827 14.18 240.901 L 14.18 240.901 L 14.18 240.901 Q 14.463 240.978 14.595 241.152 L 14.595 241.152 L 14.595 241.152 Q 14.727 241.327 14.727 241.569 L 14.727 241.569 L 14.727 241.569 Q 14.727 241.847 14.587 242.062 L 14.587 242.062 L 14.587 242.062 Q 14.448 242.276 14.203 242.393 L 14.203 242.393 L 14.203 242.393 Q 13.959 242.509 13.651 242.509 L 13.651 242.509 L 13.651 242.509 Q 13.287 242.509 12.926 242.359 L 12.926 242.359 L 13.02 242.089 L 13.02 242.089 Q 13.426 242.2 13.655 242.2 L 13.655 242.2 L 13.655 242.2 Q 13.959 242.2 14.174 242.044 L 14.174 242.044 L 14.174 242.044 Q 14.389 241.888 14.389 241.642 L 14.389 241.642 L 14.389 241.642 Q 14.389 241.573 14.371 241.508 L 14.371 241.508 L 14.371 241.508 Q 14.354 241.443 14.297 241.362 L 14.297 241.362 L 14.297 241.362 Q 14.241 241.282 14.148 241.224 L 14.148 241.224 L 14.148 241.224 Q 14.055 241.165 13.889 241.125 L 13.889 241.125 L 13.889 241.125 Q 13.723 241.085 13.504 241.085 L 13.504 241.085 L 13.504 240.8 L 13.504 240.8 Q 13.68 240.8 13.818 240.768 L 13.818 240.768 L 13.818 240.768 Q 13.955 240.735 14.038 240.687 L 14.038 240.687 L 14.038 240.687 Q 14.121 240.638 14.175 240.572 L 14.175 240.572 L 14.175 240.572 Q 14.229 240.507 14.249 240.446 L 14.249 240.446 L 14.249 240.446 Q 14.27 240.386 14.27 240.323 L 14.27 240.323 L 14.27 240.323 Q 14.27 240.153 14.121 240.033 L 14.121 240.033 L 14.121 240.033 Q 13.973 239.913 13.727 239.913 L 13.727 239.913 L 13.727 239.913 Q 13.442 239.913 13.09 240.075 L 13.09 240.075 Z  M 15.377 239.958 L 15.377 239.646 L 17.405 239.646 L 17.405 239.855 L 16.11 242.421 L 15.723 242.421 L 16.996 239.958 L 15.377 239.958 Z " fill="rgb(0,0,0)"/><path d=" M 0.521 320.076 Q 1.471 319.963 1.97 319.267 L 1.97 319.267 L 1.728 319.029 L 1.728 319.029 L 1.728 319.029 Q 1.257 319.547 0.521 319.598 L 0.521 320.076 Z  M 0.521 314.831 Q 0.998 314.885 1.418 315.121 L 1.418 315.121 L 1.418 315.121 Q 1.966 315.428 1.966 315.988 L 1.966 315.988 L 1.966 315.988 Q 1.966 316.287 1.789 316.477 L 1.789 316.477 L 1.789 316.477 Q 1.611 316.667 1.411 316.667 L 1.411 316.667 L 1.411 316.667 Q 1.08 316.667 0.898 316.503 L 0.898 316.503 L 0.898 316.503 Q 0.717 316.34 0.717 316.063 L 0.717 316.063 L 0.717 316.063 Q 0.717 315.612 1.057 315.439 L 1.057 315.439 L 1.057 315.439 Q 0.815 315.279 0.521 315.231 L 0.521 314.831 Z  M 2.381 320.093 L 2.381 319.691 L 3.108 319.691 L 3.108 311.819 L 2.348 311.819 L 2.348 311.412 L 4.343 311.412 L 4.343 319.691 L 5.126 319.691 L 5.126 320.093 L 2.381 320.093 L 2.381 320.093 Z  M 9.423 320.093 L 9.423 319.588 L 9.423 319.588 Q 8.803 320.098 8.083 320.098 L 8.083 320.098 L 8.083 320.098 Q 7.363 320.098 6.864 319.785 L 6.864 319.785 L 6.864 319.785 Q 6.175 319.345 6.175 318.314 L 6.175 318.314 L 6.175 315.221 L 5.513 315.221 L 5.513 314.819 L 7.386 314.819 L 7.386 318.613 L 7.386 318.613 Q 7.386 319.701 8.295 319.701 L 8.295 319.701 L 8.295 319.701 Q 8.925 319.701 9.423 319.062 L 9.423 319.062 L 9.423 315.221 L 8.617 315.221 L 8.617 314.819 L 10.626 314.819 L 10.626 319.701 L 11.227 319.701 L 11.227 320.093 L 9.423 320.093 L 9.423 320.093 Z  M 13.413 316.768 L 15.511 316.768 L 15.511 316.768 Q 15.501 316.028 15.282 315.638 L 15.282 315.638 L 15.282 315.638 Q 15.063 315.247 14.564 315.247 L 14.564 315.247 L 14.564 315.247 Q 13.553 315.247 13.413 316.768 L 13.413 316.768 L 13.413 316.768 Z  M 18.065 319.278 L 18.065 319.278 L 18.065 319.278 Q 18.065 318.727 18.512 318.51 L 18.512 318.51 L 18.512 318.51 Q 18.647 318.448 18.806 318.448 L 18.806 318.448 L 18.806 318.448 Q 19.123 318.448 19.337 318.686 L 19.337 318.686 L 19.337 318.686 Q 19.552 318.923 19.552 319.276 L 19.552 319.276 L 19.552 319.276 Q 19.552 319.629 19.34 319.864 L 19.34 319.864 L 19.34 319.864 Q 19.128 320.098 18.808 320.098 L 18.808 320.098 L 18.808 320.098 Q 18.489 320.098 18.277 319.864 L 18.277 319.864 L 18.277 319.864 Q 18.065 319.629 18.065 319.278 L 18.065 319.278 Z  M 16.401 318.845 L 16.648 319.093 L 16.648 319.093 Q 15.916 320.098 14.564 320.098 L 14.564 320.098 L 14.564 320.098 Q 14.117 320.098 13.632 319.896 L 13.632 319.896 L 13.632 319.896 Q 13.147 319.694 12.807 319.34 L 12.807 319.34 L 12.807 319.34 Q 12.103 318.591 12.103 317.431 L 12.103 317.431 L 12.103 317.431 Q 12.103 316.271 12.812 315.543 L 12.812 315.543 L 12.812 315.543 Q 13.52 314.814 14.611 314.814 L 14.611 314.814 L 14.611 314.814 Q 16.214 314.814 16.629 316.197 L 16.629 316.197 L 16.629 316.197 Q 16.764 316.639 16.764 317.191 L 16.764 317.191 L 13.39 317.191 L 13.39 317.345 L 13.39 317.345 Q 13.39 318.938 14.206 319.438 L 14.206 319.438 L 14.206 319.438 Q 14.481 319.608 14.863 319.608 L 14.863 319.608 L 14.863 319.608 Q 15.711 319.608 16.401 318.845 L 16.401 318.845 L 16.401 318.845 Z " fill-rule="evenodd" fill="rgb(0,0,0)"/><path d=" M 0.521 486.222 Q 1.468 485.559 2.391 485.559 L 2.391 485.559 L 2.391 485.559 Q 3.251 485.559 3.941 486.069 L 3.941 486.069 L 3.941 486.069 Q 4.631 486.579 4.891 487.819 L 4.891 487.819 L 4.891 487.819 Q 5.611 486.659 6.511 486.109 L 6.511 486.109 L 6.511 486.109 Q 7.411 485.559 8.291 485.559 L 8.291 485.559 L 8.291 485.559 Q 9.511 485.559 10.241 486.459 L 10.241 486.459 L 10.241 486.459 Q 10.971 487.359 10.971 489.259 L 10.971 489.259 L 10.971 494.939 L 10.971 494.939 Q 10.971 495.179 10.781 495.359 L 10.781 495.359 L 10.781 495.359 Q 10.591 495.539 10.331 495.539 L 10.331 495.539 L 10.331 495.539 Q 10.071 495.539 9.891 495.359 L 9.891 495.359 L 9.891 495.359 Q 9.711 495.179 9.711 494.939 L 9.711 494.939 L 9.711 489.119 L 9.711 489.119 Q 9.711 487.879 9.311 487.309 L 9.311 487.309 L 9.311 487.309 Q 8.911 486.739 8.131 486.739 L 8.131 486.739 L 8.131 486.739 Q 7.531 486.739 6.801 487.199 L 6.801 487.199 L 6.801 487.199 Q 6.071 487.659 5.551 488.499 L 5.551 488.499 L 5.551 488.499 Q 5.031 489.339 5.031 490.419 L 5.031 490.419 L 5.031 494.939 L 5.031 494.939 Q 5.031 495.179 4.851 495.359 L 4.851 495.359 L 4.851 495.359 Q 4.671 495.539 4.411 495.539 L 4.411 495.539 L 4.411 495.539 Q 4.151 495.539 3.961 495.359 L 3.961 495.359 L 3.961 495.359 Q 3.771 495.179 3.771 494.939 L 3.771 494.939 L 3.771 489.119 L 3.771 489.119 Q 3.771 487.859 3.411 487.299 L 3.411 487.299 L 3.411 487.299 Q 3.051 486.739 2.231 486.739 L 2.231 486.739 L 2.231 486.739 Q 1.551 486.739 0.831 487.309 L 0.831 487.309 L 0.831 487.309 Q 0.673 487.434 0.521 487.571 L 0.521 486.222 Z  M 0.521 510.229 Q 0.952 509.646 1.501 509.189 L 1.501 509.189 L 1.501 509.189 Q 2.331 508.499 3.451 508.499 L 3.451 508.499 L 3.451 508.499 Q 4.331 508.499 4.721 508.989 L 4.721 508.989 L 4.721 508.989 Q 5.111 509.479 5.111 510.159 L 5.111 510.159 L 5.111 510.799 L 5.111 510.799 Q 5.111 511.059 4.931 511.229 L 4.931 511.229 L 4.931 511.229 Q 4.751 511.399 4.491 511.399 L 4.491 511.399 L 4.491 511.399 Q 4.191 511.399 4.051 511.219 L 4.051 511.219 L 4.051 511.219 Q 3.911 511.039 3.911 510.779 L 3.911 510.779 L 3.911 510.319 L 3.911 510.319 Q 3.911 509.739 3.231 509.739 L 3.231 509.739 L 3.231 509.739 Q 2.051 509.739 0.791 511.419 L 0.791 511.419 L 0.791 511.419 Q 0.642 511.617 0.521 511.865 L 0.521 510.229 Z  M 20.271 488.099 L 20.271 488.099 Q 19.991 487.419 19.391 487.079 L 19.391 487.079 L 19.391 487.079 Q 18.791 486.739 17.771 486.739 L 17.771 486.739 L 17.771 486.739 Q 16.811 486.739 16.051 487.269 L 16.051 487.269 L 16.051 487.269 Q 15.291 487.799 14.861 488.699 L 14.861 488.699 L 14.861 488.699 Q 14.431 489.599 14.411 490.679 L 14.411 490.679 L 14.411 490.679 Q 14.411 491.079 14.451 491.319 L 14.451 491.319 L 20.271 488.099 L 20.271 488.099 Z  M 26.471 495.579 L 26.471 495.579 Q 25.331 495.579 24.501 495.109 L 24.501 495.109 L 24.501 495.109 Q 23.671 494.639 23.241 494.009 L 23.241 494.009 L 23.241 494.009 Q 22.811 493.379 22.811 492.939 L 22.811 492.939 L 22.811 492.939 Q 22.811 492.679 22.981 492.509 L 22.981 492.509 L 22.981 492.509 Q 23.151 492.339 23.411 492.339 L 23.411 492.339 L 23.411 492.339 Q 23.851 492.339 23.971 492.759 L 23.971 492.759 L 23.971 492.759 Q 24.251 493.559 24.911 493.999 L 24.911 493.999 L 24.911 493.999 Q 25.571 494.439 26.531 494.439 L 26.531 494.439 L 26.531 494.439 Q 27.491 494.439 28.111 493.919 L 28.111 493.919 L 28.111 493.919 Q 28.731 493.399 28.731 492.679 L 28.731 492.679 L 28.731 492.679 Q 28.731 492.259 28.541 491.969 L 28.541 491.969 L 28.541 491.969 Q 28.351 491.679 27.861 491.419 L 27.861 491.419 L 27.861 491.419 Q 27.371 491.159 26.431 490.879 L 26.431 490.879 L 26.431 490.879 Q 24.811 490.379 24.091 489.719 L 24.091 489.719 L 24.091 489.719 Q 23.371 489.059 23.371 487.979 L 23.371 487.979 L 23.371 487.979 Q 23.371 486.899 24.261 486.229 L 24.261 486.229 L 24.261 486.229 Q 25.151 485.559 26.811 485.559 L 26.811 485.559 L 26.811 485.559 Q 28.311 485.559 29.121 486.169 L 29.121 486.169 L 29.121 486.169 Q 29.931 486.779 29.931 487.839 L 29.931 487.839 L 29.931 487.839 Q 29.931 488.319 29.771 488.569 L 29.771 488.569 L 29.771 488.569 Q 29.611 488.819 29.311 488.819 L 29.311 488.819 L 29.311 488.819 Q 29.051 488.819 28.871 488.649 L 28.871 488.649 L 28.871 488.649 Q 28.691 488.479 28.691 488.259 L 28.691 488.259 L 28.691 488.259 Q 28.691 488.159 28.721 488.039 L 28.721 488.039 L 28.721 488.039 Q 28.751 487.919 28.751 487.819 L 28.751 487.819 L 28.751 487.819 Q 28.751 487.279 28.271 486.969 L 28.271 486.969 L 28.271 486.969 Q 27.791 486.659 26.811 486.659 L 26.811 486.659 L 26.811 486.659 Q 25.731 486.659 25.141 487.009 L 25.141 487.009 L 25.141 487.009 Q 24.551 487.359 24.551 487.999 L 24.551 487.999 L 24.551 487.999 Q 24.551 488.619 25.061 488.979 L 25.061 488.979 L 25.061 488.979 Q 25.571 489.339 26.831 489.759 L 26.831 489.759 L 26.831 489.759 Q 28.031 490.159 28.681 490.519 L 28.681 490.519 L 28.681 490.519 Q 29.331 490.879 29.621 491.369 L 29.621 491.369 L 29.621 491.369 Q 29.911 491.859 29.911 492.619 L 29.911 492.619 L 29.911 492.619 Q 29.911 493.359 29.481 494.039 L 29.481 494.039 L 29.481 494.039 Q 29.051 494.719 28.271 495.149 L 28.271 495.149 L 28.271 495.149 Q 27.491 495.579 26.471 495.579 L 26.471 495.579 L 26.471 495.579 Z  M 7.711 522.419 L 7.711 522.419 Q 7.451 522.419 7.271 522.229 L 7.271 522.229 L 7.271 522.229 Q 7.091 522.039 7.091 521.779 L 7.091 521.779 L 7.091 521.779 Q 7.091 521.639 7.171 521.499 L 7.171 521.499 L 9.111 517.259 L 5.231 509.519 L 5.231 509.519 Q 5.151 509.319 5.151 509.179 L 5.151 509.179 L 5.151 509.179 Q 5.151 508.899 5.341 508.719 L 5.341 508.719 L 5.341 508.719 Q 5.531 508.539 5.791 508.539 L 5.791 508.539 L 5.791 508.539 Q 5.991 508.539 6.151 508.659 L 6.151 508.659 L 6.151 508.659 Q 6.311 508.779 6.391 508.959 L 6.391 508.959 L 9.791 515.779 L 12.931 508.919 L 12.931 508.919 Q 13.131 508.519 13.531 508.519 L 13.531 508.519 L 13.531 508.519 Q 13.791 508.519 13.971 508.699 L 13.971 508.699 L 13.971 508.699 Q 14.151 508.879 14.151 509.139 L 14.151 509.139 L 14.151 509.139 Q 14.151 509.319 14.091 509.419 L 14.091 509.419 L 8.311 522.019 L 8.311 522.019 Q 8.091 522.419 7.711 522.419 L 7.711 522.419 L 7.711 522.419 Z  M 5.791 540.399 L 5.791 540.399 Q 6.651 540.399 7.411 539.819 L 7.411 539.819 L 7.411 539.819 Q 8.171 539.239 8.631 538.279 L 8.631 538.279 L 8.631 538.279 Q 9.091 537.319 9.091 536.239 L 9.091 536.239 L 9.091 536.239 Q 9.091 535.299 8.711 534.489 L 8.711 534.489 L 8.711 534.489 Q 8.331 533.679 7.681 533.189 L 7.681 533.189 L 7.681 533.189 Q 7.031 532.699 6.231 532.699 L 6.231 532.699 L 6.231 532.699 Q 5.351 532.699 4.601 533.289 L 4.601 533.289 L 4.601 533.289 Q 3.851 533.879 3.401 534.849 L 3.401 534.849 L 3.401 534.849 Q 2.951 535.819 2.951 536.899 L 2.951 536.899 L 2.951 536.899 Q 2.951 537.939 3.341 538.729 L 3.341 538.729 L 3.341 538.729 Q 3.731 539.519 4.391 539.959 L 4.391 539.959 L 4.391 539.959 Q 5.051 540.399 5.791 540.399 L 5.791 540.399 L 5.791 540.399 Z  M 15.591 541.599 L 15.591 541.599 Q 14.471 541.599 13.821 541.099 L 13.821 541.099 L 13.821 541.099 Q 13.171 540.599 12.871 539.399 L 12.871 539.399 L 12.871 539.399 Q 12.571 538.199 12.571 536.059 L 12.571 536.059 L 12.571 536.059 Q 12.571 533.759 12.811 532.279 L 12.811 532.279 L 12.811 532.279 Q 12.871 531.879 13.021 531.709 L 13.021 531.709 L 13.021 531.709 Q 13.171 531.539 13.451 531.539 L 13.451 531.539 L 13.451 531.539 Q 13.691 531.539 13.861 531.699 L 13.861 531.699 L 13.861 531.699 Q 14.031 531.859 14.031 532.139 L 14.031 532.139 L 14.031 532.139 Q 14.031 532.439 13.971 532.919 L 13.971 532.919 L 13.971 532.919 Q 13.791 534.359 13.791 536.539 L 13.791 536.539 L 13.791 536.539 Q 13.791 538.639 14.211 539.559 L 14.211 539.559 L 14.211 539.559 Q 14.631 540.479 15.611 540.479 L 15.611 540.479 L 15.611 540.479 Q 16.511 540.479 17.421 540.009 L 17.421 540.009 L 17.421 540.009 Q 18.331 539.539 18.711 539.099 L 18.711 539.099 L 18.711 539.099 Q 18.951 538.819 18.951 538.199 L 18.951 538.199 L 19.031 532.099 L 19.031 532.099 Q 19.031 531.859 19.211 531.699 L 19.211 531.699 L 19.211 531.699 Q 19.391 531.539 19.631 531.539 L 19.631 531.539 L 19.631 531.539 Q 19.871 531.539 20.051 531.699 L 20.051 531.699 L 20.051 531.699 Q 20.231 531.859 20.231 532.099 L 20.231 532.099 L 20.231 540.919 L 20.231 540.919 Q 20.231 541.159 20.031 541.349 L 20.031 541.349 L 20.031 541.349 Q 19.831 541.539 19.571 541.539 L 19.571 541.539 L 19.571 541.539 Q 19.251 541.539 19.061 541.339 L 19.061 541.339 L 19.061 541.339 Q 18.871 541.139 18.871 540.839 L 18.871 540.839 L 18.871 540.079 L 18.871 540.079 Q 18.431 540.659 17.521 541.129 L 17.521 541.129 L 17.521 541.129 Q 16.611 541.599 15.591 541.599 L 15.591 541.599 L 15.591 541.599 Z  M 23.731 541.539 L 23.731 541.539 Q 23.491 541.539 23.291 541.369 L 23.291 541.369 L 23.291 541.369 Q 23.091 541.199 23.091 540.979 L 23.091 540.979 L 23.091 528.399 L 23.091 528.399 Q 23.091 528.139 23.271 527.969 L 23.271 527.969 L 23.271 527.969 Q 23.451 527.799 23.731 527.799 L 23.731 527.799 L 23.731 527.799 Q 23.971 527.799 24.161 527.979 L 24.161 527.979 L 24.161 527.979 Q 24.351 528.159 24.351 528.399 L 24.351 528.399 L 24.351 540.979 L 24.351 540.979 Q 24.351 541.199 24.161 541.369 L 24.161 541.369 L 24.161 541.369 Q 23.971 541.539 23.731 541.539 L 23.731 541.539 L 23.731 541.539 Z  M 30.031 541.579 L 30.031 541.579 Q 28.891 541.579 28.061 541.109 L 28.061 541.109 L 28.061 541.109 Q 27.231 540.639 26.801 540.009 L 26.801 540.009 L 26.801 540.009 Q 26.371 539.379 26.371 538.939 L 26.371 538.939 L 26.371 538.939 Q 26.371 538.679 26.541 538.509 L 26.541 538.509 L 26.541 538.509 Q 26.711 538.339 26.971 538.339 L 26.971 538.339 L 26.971 538.339 Q 27.411 538.339 27.531 538.759 L 27.531 538.759 L 27.531 538.759 Q 27.811 539.559 28.471 539.999 L 28.471 539.999 L 28.471 539.999 Q 29.131 540.439 30.091 540.439 L 30.091 540.439 L 30.091 540.439 Q 31.051 540.439 31.671 539.919 L 31.671 539.919 L 31.671 539.919 Q 32.291 539.399 32.291 538.679 L 32.291 538.679 L 32.291 538.679 Q 32.291 538.259 32.101 537.969 L 32.101 537.969 L 32.101 537.969 Q 31.911 537.679 31.421 537.419 L 31.421 537.419 L 31.421 537.419 Q 30.931 537.159 29.991 536.879 L 29.991 536.879 L 29.991 536.879 Q 28.371 536.379 27.651 535.719 L 27.651 535.719 L 27.651 535.719 Q 26.931 535.059 26.931 533.979 L 26.931 533.979 L 26.931 533.979 Q 26.931 532.899 27.821 532.229 L 27.821 532.229 L 27.821 532.229 Q 28.711 531.559 30.371 531.559 L 30.371 531.559 L 30.371 531.559 Q 31.871 531.559 32.681 532.169 L 32.681 532.169 L 32.681 532.169 Q 33.491 532.779 33.491 533.839 L 33.491 533.839 L 33.491 533.839 Q 33.491 534.319 33.331 534.569 L 33.331 534.569 L 33.331 534.569 Q 33.171 534.819 32.871 534.819 L 32.871 534.819 L 32.871 534.819 Q 32.611 534.819 32.431 534.649 L 32.431 534.649 L 32.431 534.649 Q 32.251 534.479 32.251 534.259 L 32.251 534.259 L 32.251 534.259 Q 32.251 534.159 32.281 534.039 L 32.281 534.039 L 32.281 534.039 Q 32.311 533.919 32.311 533.819 L 32.311 533.819 L 32.311 533.819 Q 32.311 533.279 31.831 532.969 L 31.831 532.969 L 31.831 532.969 Q 31.351 532.659 30.371 532.659 L 30.371 532.659 L 30.371 532.659 Q 29.291 532.659 28.701 533.009 L 28.701 533.009 L 28.701 533.009 Q 28.111 533.359 28.111 533.999 L 28.111 533.999 L 28.111 533.999 Q 28.111 534.619 28.621 534.979 L 28.621 534.979 L 28.621 534.979 Q 29.131 535.339 30.391 535.759 L 30.391 535.759 L 30.391 535.759 Q 31.591 536.159 32.241 536.519 L 32.241 536.519 L 32.241 536.519 Q 32.891 536.879 33.181 537.369 L 33.181 537.369 L 33.181 537.369 Q 33.471 537.859 33.471 538.619 L 33.471 538.619 L 33.471 538.619 Q 33.471 539.359 33.041 540.039 L 33.041 540.039 L 33.041 540.039 Q 32.611 540.719 31.831 541.149 L 31.831 541.149 L 31.831 541.149 Q 31.051 541.579 30.031 541.579 L 30.031 541.579 L 30.031 541.579 Z  M 35.631 541.539 L 35.631 541.539 Q 35.311 541.539 35.111 541.299 L 35.111 541.299 L 35.111 541.299 Q 34.911 541.059 34.911 540.719 L 34.911 540.719 L 34.911 540.719 Q 34.911 540.339 35.171 540.049 L 35.171 540.049 L 35.171 540.049 Q 35.431 539.759 35.771 539.759 L 35.771 539.759 L 35.771 539.759 Q 36.071 539.759 36.281 539.989 L 36.281 539.989 L 36.281 539.989 Q 36.491 540.219 36.491 540.539 L 36.491 540.539 L 36.491 540.539 Q 36.491 540.959 36.231 541.249 L 36.231 541.249 L 36.231 541.249 Q 35.971 541.539 35.631 541.539 L 35.631 541.539 L 35.631 541.539 Z  M 18.231 495.539 L 18.231 495.539 Q 16.771 495.539 15.631 494.889 L 15.631 494.889 L 15.631 494.889 Q 14.491 494.239 13.871 493.139 L 13.871 493.139 L 13.871 493.139 Q 13.251 492.039 13.251 490.739 L 13.251 490.739 L 13.251 490.739 Q 13.251 489.379 13.821 488.189 L 13.821 488.189 L 13.821 488.189 Q 14.391 486.999 15.411 486.279 L 15.411 486.279 L 15.411 486.279 Q 16.431 485.559 17.751 485.559 L 17.751 485.559 L 17.751 485.559 Q 18.951 485.559 19.801 486.019 L 19.801 486.019 L 19.801 486.019 Q 20.651 486.479 21.081 487.119 L 21.081 487.119 L 21.081 487.119 Q 21.511 487.759 21.511 488.259 L 21.511 488.259 L 21.511 488.259 Q 21.511 488.619 21.031 488.899 L 21.031 488.899 L 14.831 492.439 L 14.831 492.439 Q 15.331 493.399 16.191 493.889 L 16.191 493.889 L 16.191 493.889 Q 17.051 494.379 18.211 494.379 L 18.211 494.379 L 18.211 494.379 Q 18.851 494.379 19.561 494.059 L 19.561 494.059 L 19.561 494.059 Q 20.271 493.739 20.691 493.299 L 20.691 493.299 L 20.691 493.299 Q 20.831 493.099 21.091 493.099 L 21.091 493.099 L 21.091 493.099 Q 21.351 493.099 21.521 493.269 L 21.521 493.269 L 21.521 493.269 Q 21.691 493.439 21.691 493.699 L 21.691 493.699 L 21.691 493.699 Q 21.691 493.899 21.531 494.099 L 21.531 494.099 L 21.531 494.099 Q 20.991 494.719 20.061 495.129 L 20.061 495.129 L 20.061 495.129 Q 19.131 495.539 18.231 495.539 L 18.231 495.539 L 18.231 495.539 Z  M 5.711 541.539 L 5.711 541.539 Q 4.571 541.539 3.641 540.929 L 3.641 540.929 L 3.641 540.929 Q 2.711 540.319 2.181 539.269 L 2.181 539.269 L 2.181 539.269 Q 1.651 538.219 1.651 536.939 L 1.651 536.939 L 1.651 536.939 Q 1.651 535.579 2.261 534.339 L 2.261 534.339 L 2.261 534.339 Q 2.871 533.099 3.951 532.329 L 3.951 532.329 L 3.951 532.329 Q 5.031 531.559 6.331 531.559 L 6.331 531.559 L 6.331 531.559 Q 7.451 531.559 8.381 532.169 L 8.381 532.169 L 8.381 532.169 Q 9.311 532.779 9.841 533.829 L 9.841 533.829 L 9.841 533.829 Q 10.371 534.879 10.371 536.139 L 10.371 536.139 L 10.371 536.139 Q 10.371 537.579 9.731 538.819 L 9.731 538.819 L 9.731 538.819 Q 9.091 540.059 8.021 540.799 L 8.021 540.799 L 8.021 540.799 Q 6.951 541.539 5.711 541.539 L 5.711 541.539 L 5.711 541.539 Z " fill-rule="evenodd" fill="rgb(0,0,0)"/><path d=" M 625.428 536.55 L 625.428 536.55 L 624.019 536.55 L 622.057 541.443 L 620.231 536.55 L 615.632 536.55 L 618.608 543.484 L 615.632 550.359 L 619.098 550.359 L 621.144 545.154 L 622.666 550.359 L 625.428 550.359 L 625.428 546.114 L 624.29 543.484 L 625.428 540.832 L 625.428 536.55 Z  M 596.379 539.402 L 596.379 547.234 L 596.633 547.234 L 596.633 547.234 Q 597.293 547.234 597.834 547.092 L 597.834 547.092 L 597.834 547.092 Q 598.375 546.951 598.76 546.531 L 598.76 546.531 L 598.76 546.531 Q 599.144 546.111 599.351 545.349 L 599.351 545.349 L 599.351 545.349 Q 599.559 544.587 599.559 543.337 L 599.559 543.337 L 599.559 543.337 Q 599.559 542.205 599.373 541.448 L 599.373 541.448 L 599.373 541.448 Q 599.187 540.691 598.823 540.237 L 598.823 540.237 L 598.823 540.237 Q 598.459 539.783 597.927 539.592 L 597.927 539.592 L 597.927 539.592 Q 597.394 539.402 596.709 539.402 L 596.709 539.402 L 596.379 539.402 L 596.379 539.402 Z  M 605.612 550.359 L 605.612 536.55 L 614 536.55 L 614 539.109 L 609.4 539.109 L 609.4 542.029 L 613.459 542.029 L 613.459 544.529 L 609.4 544.529 L 609.4 547.546 L 614 547.546 L 614 550.359 L 605.612 550.359 L 605.612 550.359 Z  M 596.718 550.359 L 592.592 550.359 L 592.592 536.55 L 596.751 536.55 L 596.751 536.55 Q 598.29 536.55 599.516 536.965 L 599.516 536.965 L 599.516 536.965 Q 600.742 537.38 601.592 538.225 L 601.592 538.225 L 601.592 538.225 Q 602.442 539.07 602.894 540.344 L 602.894 540.344 L 602.894 540.344 Q 603.346 541.619 603.346 543.337 L 603.346 543.337 L 603.346 543.337 Q 603.346 544.646 603.114 545.676 L 603.114 545.676 L 603.114 545.676 Q 602.881 546.707 602.454 547.488 L 602.454 547.488 L 602.454 547.488 Q 602.027 548.269 601.423 548.811 L 601.423 548.811 L 601.423 548.811 Q 600.818 549.353 600.083 549.7 L 600.083 549.7 L 600.083 549.7 Q 599.347 550.046 598.497 550.203 L 598.497 550.203 L 598.497 550.203 Q 597.648 550.359 596.718 550.359 L 596.718 550.359 L 596.718 550.359 Z " fill-rule="evenodd" fill="rgb(0,0,0)"/><path d=" M 13.883 27.718 L 13.883 27.718 L 13.883 27.718 Q 13.967 27.718 14.047 27.73 L 14.047 27.73 L 14.047 27.73 Q 14.127 27.743 14.219 27.777 L 14.219 27.777 L 14.219 27.777 Q 14.311 27.811 14.39 27.867 L 14.39 27.867 L 14.39 27.867 Q 14.469 27.923 14.544 28.015 L 14.544 28.015 L 14.544 28.015 Q 14.619 28.106 14.672 28.226 L 14.672 28.226 L 14.672 28.226 Q 14.725 28.347 14.756 28.519 L 14.756 28.519 L 14.756 28.519 Q 14.787 28.692 14.787 28.901 L 14.787 28.901 L 14.787 28.901 Q 14.787 29.28 14.707 29.573 L 14.707 29.573 L 14.707 29.573 Q 14.627 29.866 14.495 30.05 L 14.495 30.05 L 14.495 30.05 Q 14.364 30.233 14.174 30.351 L 14.174 30.351 L 14.174 30.351 Q 13.985 30.47 13.783 30.515 L 13.783 30.515 L 13.783 30.515 Q 13.582 30.561 13.348 30.561 L 13.348 30.561 L 13.348 30.561 Q 13.227 30.561 13.106 30.55 L 13.106 30.55 L 13.129 30.261 L 13.129 30.261 Q 13.217 30.27 13.34 30.27 L 13.34 30.27 L 13.34 30.27 Q 13.492 30.27 13.621 30.249 L 13.621 30.249 L 13.621 30.249 Q 13.75 30.227 13.847 30.192 L 13.847 30.192 L 13.847 30.192 Q 13.944 30.157 14.023 30.1 L 14.023 30.1 L 14.023 30.1 Q 14.102 30.044 14.157 29.987 L 14.157 29.987 L 14.157 29.987 Q 14.211 29.931 14.254 29.85 L 14.254 29.85 L 14.254 29.85 Q 14.297 29.77 14.323 29.706 L 14.323 29.706 L 14.323 29.706 Q 14.348 29.641 14.367 29.552 L 14.367 29.552 L 14.367 29.552 Q 14.387 29.462 14.396 29.401 L 14.396 29.401 L 14.396 29.401 Q 14.405 29.341 14.414 29.253 L 14.414 29.253 L 14.414 29.253 Q 14.293 29.382 14.127 29.445 L 14.127 29.445 L 14.127 29.445 Q 13.961 29.509 13.787 29.509 L 13.787 29.509 L 13.787 29.509 Q 13.416 29.509 13.166 29.267 L 13.166 29.267 L 13.166 29.267 Q 12.916 29.026 12.916 28.659 L 12.916 28.659 L 12.916 28.659 Q 12.916 28.272 13.195 27.995 L 13.195 27.995 L 13.195 27.995 Q 13.473 27.718 13.883 27.718 Z  M 13.84 27.991 L 13.84 27.991 L 13.84 27.991 Q 13.604 27.991 13.42 28.186 L 13.42 28.186 L 13.42 28.186 Q 13.237 28.382 13.237 28.628 L 13.237 28.628 L 13.237 28.628 Q 13.237 28.88 13.423 29.057 L 13.423 29.057 L 13.423 29.057 Q 13.61 29.235 13.86 29.235 L 13.86 29.235 L 13.86 29.235 Q 14.108 29.235 14.284 29.063 L 14.284 29.063 L 14.284 29.063 Q 14.461 28.891 14.461 28.651 L 14.461 28.651 L 14.461 28.651 Q 14.461 28.493 14.378 28.341 L 14.378 28.341 L 14.378 28.341 Q 14.295 28.188 14.15 28.09 L 14.15 28.09 L 14.15 28.09 Q 14.004 27.991 13.84 27.991 Z " fill="rgb(0,0,0)"/></g></g></g></svg>